<?xml version="1.0" encoding="UTF-8" standalone="no"?>
<!-- Created with Inkscape (http://www.inkscape.org/) -->

<svg
   xmlns:dc="http://purl.org/dc/elements/1.1/"
   xmlns:cc="http://creativecommons.org/ns#"
   xmlns:rdf="http://www.w3.org/1999/02/22-rdf-syntax-ns#"
   xmlns:svg="http://www.w3.org/2000/svg"
   xmlns="http://www.w3.org/2000/svg"
   xmlns:sodipodi="http://sodipodi.sourceforge.net/DTD/sodipodi-0.dtd"
   xmlns:inkscape="http://www.inkscape.org/namespaces/inkscape"
   width="188.61534mm"
   height="248.40842mm"
   viewBox="0 0 188.61534 248.40842"
   version="1.1"
   id="svg1375"
   inkscape:version="0.92.2 (5c3e80d, 2017-08-06)"
   sodipodi:docname="arrow-down.svg">
  <defs
     id="defs1369" />
  <sodipodi:namedview
     id="base"
     pagecolor="#ffffff"
     bordercolor="#666666"
     borderopacity="1.0"
     inkscape:pageopacity="0.0"
     inkscape:pageshadow="2"
     inkscape:zoom="0.35"
     inkscape:cx="346.45638"
     inkscape:cy="461.86719"
     inkscape:document-units="mm"
     inkscape:current-layer="layer1"
     showgrid="false"
     fit-margin-top="0"
     fit-margin-left="0"
     fit-margin-right="0"
     fit-margin-bottom="0"
     inkscape:window-width="1920"
     inkscape:window-height="1017"
     inkscape:window-x="-8"
     inkscape:window-y="-8"
     inkscape:window-maximized="1" />
  <metadata
     id="metadata1372">
    <rdf:RDF>
      <cc:Work
         rdf:about="">
        <dc:format>image/svg+xml</dc:format>
        <dc:type
           rdf:resource="http://purl.org/dc/dcmitype/StillImage" />
        <dc:title></dc:title>
      </cc:Work>
    </rdf:RDF>
  </metadata>
  <g
     inkscape:label="Layer 1"
     inkscape:groupmode="layer"
     id="layer1"
     transform="translate(-14.16675,-22.627276)">
    <g
       id="g1390"
       transform="matrix(2.2375914,0,0,2.0718568,-297.59602,-252.15064)">
      <path
         style="fill:#424243;stroke-width:0.14786886"
         d="m 180.01956,252.45095 c -1.56231,-0.27256 -1.72214,-0.31262 -1.72214,-0.43163 0,-0.0681 -0.099,-0.12381 -0.22004,-0.12381 -0.29636,0 -1.50209,-0.58133 -1.50209,-0.72422 0,-0.0626 -0.10803,-0.11375 -0.24006,-0.11375 -0.13203,0 -0.48663,-0.21997 -0.78801,-0.48882 -0.30137,-0.26885 -0.60429,-0.48882 -0.67315,-0.48882 -0.17649,0 -32.84519,-29.14803 -33.25302,-29.66937 -0.18407,-0.23531 -0.4437,-0.52278 -0.57694,-0.63882 -0.52735,-0.45926 -1.19278,-1.69752 -1.51477,-2.81874 -0.17089,-0.59504 -0.22938,-1.26569 -0.18592,-2.13148 0.0536,-1.06782 0.14464,-1.4199 0.5884,-2.2758 0.28874,-0.55691 0.58026,-1.01256 0.64781,-1.01256 0.0676,0 0.16764,-0.12593 0.2224,-0.27984 0.11059,-0.31083 1.54451,-1.67543 1.76054,-1.67543 0.0755,0 0.27589,-0.10998 0.44539,-0.2444 0.40482,-0.32106 1.08761,-0.65717 1.94898,-0.95943 0.62603,-0.21967 1.6124,-0.25312 9.54371,-0.32364 9.51043,-0.0846 9.272,-0.0644 9.67098,-0.81856 0.15026,-0.28405 0.19215,-8.10401 0.19215,-35.87118 0,-23.52131 0.0529,-35.53708 0.15656,-35.59426 0.0861,-0.0475 0.15656,-0.2083 0.15656,-0.3574 0,-0.1491 0.0657,-0.27108 0.14601,-0.27108 0.0803,0 0.19034,-0.12462 0.24453,-0.27694 0.1162,-0.32658 1.23754,-1.39901 1.46283,-1.39901 0.0857,0 0.17927,-0.0626 0.20797,-0.13901 0.0287,-0.0765 0.43867,-0.26501 0.91104,-0.41899 0.83402,-0.27187 1.23874,-0.27997 13.99,-0.27997 h 13.13115 l 0.91208,0.43367 c 1.03387,0.49158 1.99412,1.33927 2.48046,2.1897 l 0.3304,0.57773 v 35.39288 c 0,38.43479 -0.0518,36.12911 0.82167,36.57416 0.27114,0.13816 2.39431,0.19574 9.19802,0.24945 l 8.84551,0.0698 1.13505,0.4726 c 0.62427,0.25993 1.13504,0.52704 1.13504,0.59357 0,0.0665 0.10698,0.12096 0.23774,0.12096 0.27289,0 2.04915,1.56177 2.47236,2.17382 1.0803,1.56233 1.46388,3.03403 1.20886,4.6381 -0.20954,1.31799 -0.87233,2.87043 -1.45318,3.40376 -0.1133,0.10404 -0.36912,0.39607 -0.56849,0.64898 -0.48949,0.62092 -33.81931,30.33569 -34.02628,30.33569 -0.0899,0 -0.2774,0.11041 -0.41666,0.24536 -0.13926,0.13495 -0.44694,0.33411 -0.68373,0.44259 -0.23679,0.10847 -0.43053,0.24945 -0.43053,0.31328 0,0.0638 -0.14091,0.11607 -0.31312,0.11607 -0.17221,0 -0.31311,0.0628 -0.31311,0.13966 0,0.0768 -0.13675,0.13966 -0.30388,0.13966 -0.16713,0 -0.34742,0.0628 -0.40063,0.13966 -0.0532,0.0768 -0.25464,0.13967 -0.44761,0.13967 -0.19296,0 -0.41777,0.0595 -0.49957,0.13223 -0.21123,0.1878 -2.83101,0.29047 -3.67127,0.14388 z m 2.53049,-2.49599 c 0.90873,-0.17817 2.16087,-0.82166 3.24751,-1.66893 1.00554,-0.78404 29.99052,-26.60497 32.3438,-28.8131 1.52498,-1.43091 1.80042,-1.73776 1.80042,-2.00575 0,-0.11434 0.0704,-0.20789 0.15655,-0.20789 0.0861,0 0.15656,-0.1257 0.15656,-0.27933 0,-0.15363 0.0705,-0.27932 0.15656,-0.27932 0.0944,0 0.15656,-0.57918 0.15656,-1.45821 0,-0.82149 -0.0684,-1.4959 -0.15656,-1.54453 -0.0861,-0.0475 -0.15656,-0.2083 -0.15656,-0.3574 0,-0.14909 -0.0704,-0.27108 -0.15656,-0.27108 -0.0861,0 -0.15655,-0.0849 -0.15655,-0.18878 0,-0.43467 -1.82186,-1.75285 -2.73976,-1.98232 -0.25832,-0.0646 -4.43255,-0.13773 -9.27605,-0.16257 -5.63489,-0.0289 -8.80637,-0.0946 -8.80637,-0.18253 0,-0.0756 -0.17613,-0.13738 -0.3914,-0.13738 -0.21526,0 -0.39139,-0.0628 -0.39139,-0.13966 0,-0.0768 -0.0696,-0.13967 -0.15477,-0.13967 -0.32673,0 -1.50318,-0.99618 -1.64405,-1.39213 -0.0555,-0.1561 -0.16668,-0.28381 -0.24698,-0.28381 -0.0803,0 -0.14601,-0.1257 -0.14601,-0.27933 0,-0.15363 -0.0704,-0.27932 -0.15656,-0.27932 -0.0861,0 -0.15656,-0.18855 -0.15656,-0.41899 0,-0.23044 -0.0705,-0.41899 -0.15655,-0.41899 -0.10396,0 -0.15656,-11.91995 -0.15656,-35.48054 v -35.48055 l -0.38428,-0.34281 -0.38428,-0.34281 h -13.33545 -13.33544 l -0.37028,0.38407 -0.37028,0.38407 -1.5e-4,35.57895 c -1.7e-4,23.62608 -0.0528,35.57895 -0.15679,35.57895 -0.0861,0 -0.15812,0.14141 -0.16004,0.31424 -0.002,0.17283 -0.14125,0.47136 -0.30963,0.66339 -0.16839,0.19204 -0.30772,0.39839 -0.30963,0.45856 -0.005,0.16464 -1.06491,1.07773 -1.25073,1.07773 -0.089,0 -0.16178,0.0628 -0.16178,0.13966 0,0.0768 -0.10567,0.13966 -0.23483,0.13966 -0.12916,0 -0.23484,0.0628 -0.23484,0.13967 0,0.0768 -0.13674,0.13966 -0.30387,0.13966 -0.16714,0 -0.34742,0.0628 -0.40064,0.13966 -0.0626,0.0904 -3.18189,0.13966 -8.84551,0.13966 -5.66363,0 -8.78288,0.0493 -8.84551,0.13966 -0.0532,0.0768 -0.23136,0.13967 -0.39588,0.13967 -0.35902,0 -1.34045,0.46986 -1.8517,0.8865 -0.56998,0.4645 -1.27497,1.43621 -1.27497,1.75733 0,0.15899 -0.0704,0.28907 -0.15656,0.28907 -0.0928,0 -0.15656,0.5121 -0.15656,1.25696 0,0.74487 0.0638,1.25696 0.15656,1.25696 0.0861,0 0.15656,0.18855 0.15656,0.41899 0,0.23044 0.0704,0.41899 0.15655,0.41899 0.0861,0 0.15784,0.0786 0.15941,0.17457 0.002,0.096 0.19299,0.39455 0.42538,0.6634 0.23239,0.26885 8.03355,7.27701 17.33592,15.5737 16.92833,15.09821 17.67303,15.72615 19.12023,16.1225 0.25006,0.0685 0.666,0.1878 0.92432,0.26516 0.45899,0.13746 0.65202,0.1265 1.82598,-0.10366 z"
         id="path1392"
         inkscape:connector-curvature="0" />
    </g>
  </g>
</svg>
