<?xml version="1.0" encoding="UTF-8" standalone="no"?>
<svg
   xmlns:dc="http://purl.org/dc/elements/1.1/"
   xmlns:cc="http://creativecommons.org/ns#"
   xmlns:rdf="http://www.w3.org/1999/02/22-rdf-syntax-ns#"
   xmlns:svg="http://www.w3.org/2000/svg"
   xmlns="http://www.w3.org/2000/svg"
   id="svg1291"
   version="1.1"
   viewBox="0 0 207.59209 142.89767"
   height="142.89767mm"
   width="207.59209mm">
  <defs
     id="defs1285" />
  <metadata
     id="metadata1288">
    <rdf:RDF>
      <cc:Work
         rdf:about="">
        <dc:format>image/svg+xml</dc:format>
        <dc:type
           rdf:resource="http://purl.org/dc/dcmitype/StillImage" />
        <dc:title></dc:title>
      </cc:Work>
    </rdf:RDF>
  </metadata>
  <g
     transform="translate(-1.9957025,-83.443483)"
     id="layer1">
    <path
       id="path1304"
       d="M 1.9957025,154.89232 V 83.443483 H 105.79174 209.58779 v 71.448837 71.44884 H 105.79174 1.9957025 Z m 194.3295575,62.8691 c -2.28411,-2.33721 -17.60465,-16.56834 -34.04568,-31.62473 l -29.89278,-27.37524 -10.90708,9.97357 c -14.34821,13.12019 -15.70678,13.12007 -30.081284,-0.003 L 80.470537,158.7561 52.030697,184.78746 C 36.388781,199.10528 20.838019,213.33764 17.473445,216.4155 l -6.117404,5.59612 h 94.561049 94.5611 z M 42.771159,186.39559 c 17.80317,-16.30278 32.542197,-30.11023 32.753376,-30.68321 0.211179,-0.57297 -6.99215,-7.812 -16.007416,-16.08672 -9.015263,-8.27472 -24.391734,-22.39485 -34.169932,-31.37804 L 7.5686429,91.91455 v 62.96827 c 0,42.30244 0.4649081,62.67058 1.4165577,62.06125 C 9.7643097,216.4452 24.967989,202.69839 42.771159,186.39559 Z M 205.40807,154.74281 V 91.804884 l -5.22463,4.729862 c -32.08764,29.048894 -63.06373,58.281424 -62.74496,59.213244 0.53872,1.57483 65.60594,61.68006 66.92468,61.82101 0.57471,0.0614 1.04491,-28.21036 1.04491,-62.82619 z m -85.3081,8.44911 c 58.30114,-53.2924 79.73517,-73.251975 79.73517,-74.250132 0,-0.642445 -42.31952,-1.168071 -94.0434,-1.168071 -51.723865,0 -94.04339,0.264372 -94.04339,0.587509 0,0.579987 77.711248,72.236134 88.198297,81.326074 2.976663,2.58008 5.975373,4.69108 6.663813,4.69108 0.68844,0 6.75873,-5.03391 13.48951,-11.18646 z"
       style="fill:#0e0e0e;stroke-width:1.41810131" />
  </g>
</svg>
