<?xml version="1.0" encoding="UTF-8" standalone="no"?>
<svg
   xmlns:dc="http://purl.org/dc/elements/1.1/"
   xmlns:cc="http://creativecommons.org/ns#"
   xmlns:rdf="http://www.w3.org/1999/02/22-rdf-syntax-ns#"
   xmlns:svg="http://www.w3.org/2000/svg"
   xmlns="http://www.w3.org/2000/svg"
   id="svg1312"
   version="1.1"
   viewBox="0 0 199.11804 264.54611"
   height="264.54611mm"
   width="199.11804mm">
  <defs
     id="defs1306" />
  <metadata
     id="metadata1309">
    <rdf:RDF>
      <cc:Work
         rdf:about="">
        <dc:format>image/svg+xml</dc:format>
        <dc:type
           rdf:resource="http://purl.org/dc/dcmitype/StillImage" />
        <dc:title></dc:title>
      </cc:Work>
    </rdf:RDF>
  </metadata>
  <g
     transform="translate(-6.2743227,-17.002664)"
     id="layer1">
    <path
       id="path1325"
       d="m 102.43243,280.71085 c -1.53299,-0.68052 -3.544306,-3.04152 -9.136083,-10.7245 C 44.75881,203.29688 14.991278,151.26316 7.9841945,120.86051 4.8357218,107.19981 6.0531535,92.223703 11.488951,77.747029 c 2.18049,-5.807124 7.388146,-15.456591 10.943347,-20.277384 15.93679,-21.609932 40.54581,-35.796126 69.049477,-39.804498 6.28128,-0.883311 22.421845,-0.883311 28.703125,0 28.50368,4.008372 53.11271,18.194566 69.04949,39.804498 3.55519,4.820793 8.76285,14.47026 10.94334,20.277384 5.4358,14.476674 6.65323,29.452781 3.50478,43.113481 -7.02018,30.45928 -36.5838,82.13337 -85.32289,149.13534 -5.80198,7.97604 -7.56453,10.02866 -9.21904,10.73631 -2.5601,1.09494 -4.20537,1.08973 -6.70815,-0.0212 z m 5.77094,-21.22313 c 1.14385,-1.6363 5.16516,-7.28256 8.93625,-12.54721 3.77106,-5.26467 10.22878,-14.57807 14.35047,-20.69646 32.26149,-47.89024 52.26649,-85.46499 57.57375,-108.13894 2.58909,-11.06125 1.47516,-24.054361 -3.09888,-36.14635 C 178.73042,62.833402 163.3004,47.131875 142.90513,38.141218 130.34627,32.605018 119.96811,30.4526 105.83335,30.4526 c -14.134758,0 -24.512946,2.152418 -37.071775,7.688618 -23.482909,10.351754 -40.658544,30.094192 -45.83589,52.685801 -4.072389,17.770061 -1.262193,31.586791 12.17321,59.851331 11.015013,23.17266 35.604222,63.00241 59.428184,96.26216 3.771064,5.26465 7.792381,10.91091 8.936241,12.54721 1.14385,1.63633 2.21036,2.97512 2.37003,2.97512 0.15969,0 1.22617,-1.33879 2.37002,-2.97512 z M 98.657552,155.55095 C 77.88781,152.66414 60.235951,139.67468 53.714291,122.47856 51.305615,116.12742 50.546529,111.13013 50.891576,103.89552 51.625232,88.513127 59.14178,75.524562 72.599291,66.384756 98.115629,49.05504 134.35693,54.713698 151.99743,78.781858 c 5.5865,7.622049 8.31586,15.431034 8.77768,25.113662 0.34504,7.23461 -0.41404,12.2319 -2.82273,18.58304 -5.83008,15.37252 -20.47796,27.44754 -38.62858,31.84357 -4.51323,1.09308 -16.51039,1.80644 -20.666248,1.22882 z m 15.093338,-13.9348 c 15.03232,-2.74258 27.36114,-13.36993 31.12283,-26.82763 2.32647,-8.32316 1.21383,-16.99965 -3.2176,-25.091138 -5.91946,-10.808555 -17.80753,-18.29743 -31.18776,-19.646675 -12.751909,-1.285886 -24.16751,2.404843 -33.412905,10.802549 -9.677639,8.790328 -13.634082,21.873164 -10.2625,33.935264 2.960666,10.59199 10.536119,18.95341 21.531494,23.76539 8.456954,3.70111 16.569561,4.67815 25.426441,3.06224 z"
       style="fill:#020202;stroke-width:0.54500121" />
  </g>
</svg>
