<?xml version="1.0" encoding="UTF-8" standalone="no"?>
<svg
   xmlns:dc="http://purl.org/dc/elements/1.1/"
   xmlns:cc="http://creativecommons.org/ns#"
   xmlns:rdf="http://www.w3.org/1999/02/22-rdf-syntax-ns#"
   xmlns:svg="http://www.w3.org/2000/svg"
   xmlns="http://www.w3.org/2000/svg"
   id="svg1482"
   version="1.1"
   viewBox="0 0 206.42854 162.89636"
   height="162.89636mm"
   width="206.42854mm">
  <defs
     id="defs1476" />
  <metadata
     id="metadata1479">
    <rdf:RDF>
      <cc:Work
         rdf:about="">
        <dc:format>image/svg+xml</dc:format>
        <dc:type
           rdf:resource="http://purl.org/dc/dcmitype/StillImage" />
        <dc:title></dc:title>
      </cc:Work>
    </rdf:RDF>
  </metadata>
  <g
     transform="translate(-2.0536279,-61.975901)"
     id="layer1">
    <path
       id="path1537"
       d="m 195.25832,61.982336 c -0.83121,-0.0272 -1.64686,0.0311 -2.42261,0.18875 -4.07902,0.8266 -2.10479,-1.829521 -37.62816,39.416054 -5.80942,6.74515 -12.62165,14.66445 -20.62717,23.96509 -28.87231,33.54326 -53.466039,62.12016 -54.653072,63.5036 L 77.769415,191.5705 50.026837,162.12269 C 19.542353,129.76434 20.170826,130.35077 15.487344,129.8812 c -5.8138335,-0.58286 -10.8415238,3.18041 -12.7408524,9.537 -1.2464707,4.17183 -0.7745192,9.23749 1.1211096,12.02957 1.2942701,1.90638 66.9965488,70.4095 68.6008758,71.52531 0.798289,0.55521 2.090267,1.24056 2.871474,1.52325 2.027764,0.7339 4.878492,0.37361 7.18365,-0.90909 2.24916,-1.25135 40.168619,-45.53197 75.182889,-83.68941 26.58176,-28.96803 47.93744,-54.390034 48.47013,-55.249024 3.46843,-5.59403 2.98345,-12.97525 -1.18467,-18.04844 -2.23525,-2.72055 -6.13164,-4.49686 -9.73363,-4.61795 z"
       style="fill:#000000;stroke-width:0.37234968" />
  </g>
</svg>
