<?xml version="1.0" encoding="UTF-8" standalone="no"?>
<!-- Created with Inkscape (http://www.inkscape.org/) -->

<svg
   xmlns:dc="http://purl.org/dc/elements/1.1/"
   xmlns:cc="http://creativecommons.org/ns#"
   xmlns:rdf="http://www.w3.org/1999/02/22-rdf-syntax-ns#"
   xmlns:svg="http://www.w3.org/2000/svg"
   xmlns="http://www.w3.org/2000/svg"
   xmlns:sodipodi="http://sodipodi.sourceforge.net/DTD/sodipodi-0.dtd"
   xmlns:inkscape="http://www.inkscape.org/namespaces/inkscape"
   width="207.02943mm"
   height="216.64992mm"
   viewBox="0 0 207.02943 216.64992"
   version="1.1"
   id="svg1333"
   inkscape:version="0.92.2 (5c3e80d, 2017-08-06)"
   sodipodi:docname="person.svg">
  <defs
     id="defs1327" />
  <sodipodi:namedview
     id="base"
     pagecolor="#ffffff"
     bordercolor="#666666"
     borderopacity="1.0"
     inkscape:pageopacity="0.0"
     inkscape:pageshadow="2"
     inkscape:zoom="0.35"
     inkscape:cx="397.98332"
     inkscape:cy="413.85739"
     inkscape:document-units="mm"
     inkscape:current-layer="layer1"
     showgrid="false"
     fit-margin-top="0"
     fit-margin-left="0"
     fit-margin-right="0"
     fit-margin-bottom="0"
     inkscape:window-width="1920"
     inkscape:window-height="1017"
     inkscape:window-x="-8"
     inkscape:window-y="-8"
     inkscape:window-maximized="1" />
  <metadata
     id="metadata1330">
    <rdf:RDF>
      <cc:Work
         rdf:about="">
        <dc:format>image/svg+xml</dc:format>
        <dc:type
           rdf:resource="http://purl.org/dc/dcmitype/StillImage" />
        <dc:title></dc:title>
      </cc:Work>
    </rdf:RDF>
  </metadata>
  <g
     inkscape:label="Layer 1"
     inkscape:groupmode="layer"
     id="layer1"
     transform="translate(-0.53358034,-41.683179)">
    <path
       style="fill:#0e0e0e;stroke-width:2.0725863"
       d="M 0.80948922,256.19034 C -0.87238,253.32943 5.5288691,220.68819 9.3493526,212.64391 c 4.4120864,-9.28997 18.5360954,-24.1113 27.8555624,-29.23083 5.637603,-3.09695 13.190641,-4.73609 24.94744,-5.41405 l 16.861857,-0.97235 12.507189,13.03186 12.507179,13.03187 12.0062,-12.75514 12.00621,-12.75515 15.22372,0.0467 c 23.83008,0.073 42.78853,11.26496 53.22277,31.41948 5.71125,11.03172 12.67099,40.95704 10.74959,46.22095 -0.95454,2.61507 -16.12064,3.06585 -103.1435,3.06585 -66.396232,0 -102.4643024,-0.74825 -103.28408078,-2.14273 z M 197.02215,238.6761 c -2.81502,-22.36548 -12.87409,-38.20771 -29.9354,-47.14582 l -10.50999,-5.50599 -25.35037,26.59154 c -13.94271,14.62535 -26.261,26.59155 -27.37399,26.59155 -1.113,0 -13.291588,-11.87447 -27.063538,-26.38769 -23.429538,-24.69062 -25.377595,-26.25468 -30.290534,-24.31963 -16.506062,6.50122 -28.590204,21.46811 -33.573857,41.5831 -5.4532881,22.01055 -15.8992498,19.7496 91.246779,19.7496 h 94.25513 z m -59.00689,-52.23854 c -4.52749,-0.58659 -8.34484,2.34342 -22.65922,17.39205 -15.11155,15.88667 -16.881334,18.51949 -14.48735,21.55202 2.43129,3.07979 4.88934,1.19312 22.65922,-17.39206 18.83112,-19.69512 19.63135,-20.88556 14.48735,-21.55201 z m -51.287807,11.32913 c -8.469504,-9.01592 -12.367061,-11.68626 -17.057004,-11.68626 -5.999811,0 -5.896186,0.19369 7.953348,14.86606 12.457849,13.19801 14.371735,14.50927 17.056991,11.68626 2.685269,-2.82299 1.792863,-4.49104 -7.953335,-14.86606 z m 0.974671,-29.52324 c -8.117826,-3.71859 -18.987019,-17.00287 -20.757696,-25.36995 -1.335606,-6.31122 -1.48844,-6.06769 -2.443076,3.89299 -0.723811,7.55226 -1.895307,10.62539 -4.050429,10.62539 -2.195481,0 -3.205083,-2.86229 -3.659061,-10.37375 -0.344834,-5.70558 -1.871155,-11.68179 -3.391825,-13.28046 -3.296211,-3.46529 -6.062696,-23.92407 -4.109787,-30.39276 0.847549,-2.80737 3.652924,-5.045419 7.280464,-5.808149 5.901169,-1.24076 5.901601,-1.24205 5.909154,-17.444565 0.0092,-20.335458 4.089779,-28.401032 17.529614,-34.651072 7.786721,-3.621116 12.425199,-4.203517 27.835178,-3.494963 15.41999,0.709004 19.60913,1.686959 25.22077,5.887764 9.99028,7.478607 14.58471,20.058753 13.03145,35.681862 l -1.25991,12.672384 6.1578,1.29473 c 7.78121,1.63607 9.20641,6.236409 7.40639,23.906909 -1.67688,16.46166 -6.97996,25.90726 -17.6266,31.39567 -4.15445,2.14165 -7.55354,4.73111 -7.55354,5.75439 0,1.02326 -3.94584,4.29149 -8.76851,7.26275 -9.96921,6.14202 -26.302432,7.22682 -36.750386,2.44083 z m 31.562616,-9.18467 c 3.22889,-2.00519 5.87071,-4.33146 5.87071,-5.1695 0,-2.23616 -8.29697,-4.71978 -14.33483,-4.29099 -7.71861,0.54816 -13.223145,-6.64176 -10.75869,-14.0528 3.28324,-9.87333 19.02934,-8.45797 19.02934,1.71048 0,2.30258 2.40331,4.66283 6.14365,6.03361 5.487,2.01089 6.32149,1.74919 7.80744,-2.44847 0.91508,-2.58501 2.3012,-14.92694 3.08028,-27.42653 l 1.41651,-22.726531 -7.70789,-2.190445 c -4.23935,-1.20475 -9.61321,-3.598715 -11.94191,-5.319945 -3.83877,-2.837365 -4.90862,-2.647567 -11.46099,2.033278 -3.97484,2.839522 -13.431273,6.949517 -21.014285,9.133334 l -13.787304,3.97058 0.566702,15.725509 c 0.731994,20.31291 2.00596,26.9908 6.700611,35.12346 7.291885,12.63192 27.866896,17.67241 40.390656,9.89496 z m -8.27903,-19.73006 c 0,-1.16878 -0.96331,-2.12508 -2.1407,-2.12508 -1.17737,0 -1.5785,0.9563 -0.89139,2.12508 0.68711,1.1688 1.65041,2.12508 2.14068,2.12508 0.49028,0 0.89141,-0.95628 0.89141,-2.12508 z m 34.36365,0 c 0,-1.16878 -0.40112,-2.12508 -0.89139,-2.12508 -0.49027,0 -1.45358,0.9563 -2.14069,2.12508 -0.68711,1.1688 -0.28599,2.12508 0.8914,2.12508 1.17738,0 2.14068,-0.95628 2.14068,-2.12508 z M 64.493708,116.94871 c 0,-6.71884 -0.942861,-10.0099 -3.119278,-10.88791 -4.748239,-1.91553 -5.580736,0.30224 -4.075263,10.85645 1.907173,13.3703 7.194541,13.39343 7.194541,0.0315 z m 85.656462,2.98869 c 1.96219,-10.3142 1.51146,-14.60991 -1.53296,-14.60991 -3.06465,0 -5.21866,6.30721 -5.26164,15.40681 -0.0384,8.12616 5.21426,7.51011 6.7946,-0.7969 z M 96.835963,80.254379 c 8.940137,-4.616167 11.992147,-7.613519 15.582467,-15.303373 6.71312,-14.378333 6.42659,-14.875534 -8.57252,-14.875534 -23.987675,0 -33.288038,7.619765 -33.288038,27.272815 v 11.451586 l 7.580219,-1.402487 c 4.16912,-0.771366 12.58316,-3.985721 18.697872,-7.143007 z M 137.03133,68.377084 c -1.66511,-6.131747 -7.23435,-14.051465 -9.88115,-14.051465 -0.77082,0 -2.89001,3.983829 -4.70934,8.852937 -3.8458,10.292657 -2.3417,13.561568 7.49695,16.293488 7.49461,2.081031 9.72446,-1.406668 7.09354,-11.09496 z"
       id="path1346"
       inkscape:connector-curvature="0" />
  </g>
</svg>
