<?xml version="1.0" encoding="UTF-8" standalone="no"?>
<svg
   xmlns:dc="http://purl.org/dc/elements/1.1/"
   xmlns:cc="http://creativecommons.org/ns#"
   xmlns:rdf="http://www.w3.org/1999/02/22-rdf-syntax-ns#"
   xmlns:svg="http://www.w3.org/2000/svg"
   xmlns="http://www.w3.org/2000/svg"
   id="svg1249"
   version="1.1"
   viewBox="0 0 204.39941 286.11682"
   height="286.11682mm"
   width="204.39941mm">
  <defs
     id="defs1243" />
  <metadata
     id="metadata1246">
    <rdf:RDF>
      <cc:Work
         rdf:about="">
        <dc:format>image/svg+xml</dc:format>
        <dc:type
           rdf:resource="http://purl.org/dc/dcmitype/StillImage" />
        <dc:title></dc:title>
      </cc:Work>
    </rdf:RDF>
  </metadata>
  <g
     transform="translate(-4.1819455,-8.1007872)"
     id="layer1">
    <path
       id="path1262"
       d="M 137.49501,291.80062 C 119.98027,286.35157 87.217727,263.97627 71.934243,247.0256 53.64103,226.73695 33.066758,193.82315 21.221492,165.89768 16.344512,154.40014 14.232958,147.52907 12.115021,136.26503 10.59852,128.19968 8.2200666,115.57561 6.829576,108.21161 3.3479727,89.773085 3.2923884,65.085928 6.7083054,54.352607 11.685406,38.713834 24.203455,19.691714 33.878265,13.06581 40.101655,8.8036457 50.513254,7.1555333 61.903252,8.6296743 c 8.074911,1.045058 9.221317,1.5379177 11.622835,4.9967777 1.465334,2.110569 5.465845,13.209591 8.889986,24.664523 3.424175,11.454893 7.538275,25.046556 9.142509,30.20359 3.980018,12.794503 3.252676,17.900562 -3.65939,25.690323 -2.800408,3.156021 -9.608441,8.495352 -15.128976,11.865182 -5.520534,3.36983 -10.310773,6.64402 -10.644996,7.27601 -0.334219,0.63199 0.18527,3.32614 1.154452,5.98702 0.969177,2.66086 3.002784,8.8547 4.51909,13.76405 9.414571,30.48125 28.241309,58.70963 53.846058,80.73557 1.73198,1.48987 3.07874,0.46123 12.13619,-9.26957 10.7547,-11.55423 16.95365,-15.9967 22.32159,-15.9967 4.17492,0 10.49765,4.74781 22.78336,17.10812 5.40121,5.43402 13.25753,12.91948 17.45846,16.63435 9.7182,8.59375 11.41209,10.85098 12.15437,16.19633 0.76345,5.49792 -3.89884,22.26154 -8.56224,30.78631 -4.57918,8.37077 -8.24734,11.31516 -21.60155,17.33929 -18.44607,8.32105 -27.1996,9.43342 -40.83999,5.18977 z m 27.48572,-17.81031 c 9.62083,-2.69543 18.2048,-7.16332 21.19597,-11.03235 2.55253,-3.30157 7.4163,-15.82225 7.42918,-19.12466 0.007,-1.92661 -3.276,-5.87635 -11.13076,-13.38915 -6.12781,-5.86101 -15.23535,-14.86734 -20.23898,-20.01407 -5.00366,-5.14672 -9.71332,-9.08156 -10.46597,-8.74404 -0.75261,0.33732 -5.66785,4.72077 -10.92273,9.74058 -12.19144,11.64615 -15.6782,14.08872 -20.11958,14.0946 -4.86371,0.008 -8.88641,-2.58988 -19.99555,-12.90545 C 80.754,194.06462 67.653032,173.55901 57.247621,144.55356 54.731647,137.54019 51.8864,129.79364 50.92485,127.33893 c -0.961548,-2.45467 -1.956596,-7.6903 -2.211211,-11.63469 -0.436422,-6.76082 -0.240842,-7.45897 3.413504,-12.18602 2.132041,-2.75785 8.201571,-7.756015 13.48783,-11.106943 5.286276,-3.350964 10.796722,-7.216589 12.245419,-8.590248 L 80.494398,81.323473 74.199729,58.744389 C 70.737643,46.325894 66.91748,33.15273 65.710439,29.470707 l -2.194625,-6.694555 h -6.482581 c -11.40761,0 -15.949371,2.088134 -23.361687,10.740931 -4.739943,5.533199 -8.015879,11.00278 -11.457112,19.129104 -4.816667,11.374308 -4.81913,11.38731 -4.714167,24.865529 0.143394,18.414782 5.372791,46.853174 11.995301,65.232674 14.25999,39.57595 42.379597,83.25875 66.541991,103.37064 8.630091,7.18337 24.264111,18.10191 35.106011,24.51742 10.82786,6.40726 19.78163,7.29579 33.83716,3.35786 z"
       style="fill:#030303;stroke-width:1.17957246" />
  </g>
</svg>
