<?xml version="1.0" encoding="UTF-8" standalone="no"?>
<svg
   xmlns:dc="http://purl.org/dc/elements/1.1/"
   xmlns:cc="http://creativecommons.org/ns#"
   xmlns:rdf="http://www.w3.org/1999/02/22-rdf-syntax-ns#"
   xmlns:svg="http://www.w3.org/2000/svg"
   xmlns="http://www.w3.org/2000/svg"
   id="svg1270"
   version="1.1"
   viewBox="0 0 206.44287 212.6859"
   height="212.6859mm"
   width="206.44287mm">
  <defs
     id="defs1264" />
  <metadata
     id="metadata1267">
    <rdf:RDF>
      <cc:Work
         rdf:about="">
        <dc:format>image/svg+xml</dc:format>
        <dc:type
           rdf:resource="http://purl.org/dc/dcmitype/StillImage" />
        <dc:title></dc:title>
      </cc:Work>
    </rdf:RDF>
  </metadata>
  <g
     transform="translate(-2.6144735,-44.025436)"
     id="layer1">
    <path
       id="path1283"
       d="m 188.37605,256.21672 c -5.21235,-1.20835 -8.0237,-3.67956 -30.29924,-26.63366 l -20.45873,-21.08193 -2.85301,2.07204 c -5.08897,3.69593 -18.87047,9.09682 -28.12022,11.02011 -11.984097,2.49181 -30.427934,1.67 -41.337726,-1.84188 C 27.194783,207.48287 2.5741943,173.7091 2.614523,133.7515 2.6388395,109.82232 9.864479,90.457428 25.202277,73.217016 36.871098,60.100752 51.313912,51.227307 68.637368,46.531139 80.185662,43.400577 98.602097,43.172263 109.71042,46.02199 c 26.17505,6.71499 48.16706,25.170929 59.43293,49.876769 5.32734,11.682791 7.72705,23.438241 7.72705,37.852741 0,15.75438 -2.54471,26.86726 -9.29695,40.6007 l -4.84012,9.84428 21.57417,22.05134 c 11.8658,12.12822 22.28993,23.43554 23.16472,25.12739 2.43248,4.70421 2.01523,12.46411 -0.90714,16.87027 -4.61266,6.95478 -10.82661,9.678 -18.18903,7.97124 z m -76.64484,-58.03371 c 19.97357,-7.05284 37.09757,-26.11206 43.04896,-47.91412 2.11756,-7.75725 1.82198,-26.59534 -0.54512,-34.74346 C 148.70937,96.504873 136.44165,81.171078 120.16114,72.935574 104.96968,65.250923 91.510829,63.279797 76.505146,66.54191 56.348259,70.923889 39.250878,84.354252 30.037023,103.04369 c -9.732002,19.74044 -9.08421,44.75594 1.661193,64.15011 7.623019,13.75861 23.039822,26.78835 37.22736,31.46323 12.581617,4.14573 30.277447,3.94976 42.805634,-0.47402 z"
       style="fill:#030303;stroke-width:1.1245116" />
  </g>
</svg>
