<?xml version="1.0" encoding="utf-8"?>
<!-- Generator: Adobe Illustrator 22.0.0, SVG Export Plug-In . SVG Version: 6.00 Build 0)  -->
<svg version="1.1" id="Слой_1" xmlns="http://www.w3.org/2000/svg" xmlns:xlink="http://www.w3.org/1999/xlink" x="0px" y="0px"
	 viewBox="0 0 165 207" style="enable-background:new 0 0 165 207;" xml:space="preserve">
<title>Монтажная область 3</title>
<path style="fill:#E85151;" d="M71.8,136.7c-1.4,1.5-5.7,1.7-7.6,2.1c-3.6,0.9-7.4,1-11,0.2c-5.1-1.2-9.8-3.2-9.5-9.2
	c-9.6,2.8-19.6-4.1-24-9.3c-7.7-9.2-10.8-24.1-5.1-35c-11.2-6.8-12-20-10.8-27.9c1.1-7.4,4.6-14.2,10-19.4
	c3.5-3.6,10-11.4,15.8-10.5c1.3-5.2,8-13.1,10.9-15c8.4-5.5,19.5-8,29.3-9.1c9.1-1,19.9-1,28.5,2.7c6.3,2.8,13.7,8.5,14.1,15.9
	c2.1-1.4,4.6-2.2,7.1-2.2c7-0.1,12.7,1,18.7,4.8c10,6.3,16.1,15.1,15.6,27.1c9.6,0.2,10.4,18.8,10.9,25.8c0.6,7.7,1,14.7-3.2,21.5
	c-2,3.2-4.6,6.7-8.3,8.1c5.4,5.2,1.7,13.4-1.5,16.2c-5.9,5-18,8.3-24.7,2.9c1.5,5-8.3,9.1-11.5,10.9c-4.3,2.3-9,3.5-13.8,3.5
	c-6.5,0.2-14.2-1-19.9-4.2L71.8,136.7z"/>
<circle style="fill:#E85151;" cx="24.5" cy="16" r="8"/>
<circle style="fill:#E85151;" cx="14.8" cy="27.2" r="4.2"/>
<circle style="fill:#E85151;" cx="161.4" cy="109.1" r="2.8"/>
<path style="fill:#489D45;" d="M68.4,168.5c-6.9,0.3-13.7-0.4-20.5,0.9c-5,0.9-13.9,8.2-4,8.9c-5,1.7-11.7,2.8-15.9,6.1
	c-5.8,4.5,0.9,8.7,5.5,10.7c17,7.2,37.5,2.6,55.3,2.2c-8.6,6.9,18.8,5.7,20.9,5.4c3.6-0.5,15-1.3,16.9-5.3c1.2-2.6-1.1-3.7-3.5-4
	c4.1-0.1,8.2-0.4,12.2-1.1c3.9-0.6,14.1-1.3,16.3-5.4c3.6-6.9-16-9.5-20.1-9.8c2.3-0.8,4.9-2.8,3.3-5.3c-2.1-3.2-11.7-3.1-15-3.5
	c-7.2-0.9-13.2-1-20.3,0.3L68.4,168.5z"/>
<ellipse style="fill:#489D45;" cx="68.7" cy="204.2" rx="13.2" ry="2.8"/>
<ellipse style="fill:#489D45;" cx="42" cy="203.4" rx="6" ry="1.9"/>
<ellipse style="fill:#489D45;" cx="137.6" cy="195.9" rx="4.8" ry="1.1"/>
<ellipse style="fill:#489D45;" cx="146" cy="174.6" rx="7.6" ry="1.8"/>
<path style="fill:#E75151;" d="M67,191.8c-1.3,0-2.2,0-2.5,0s-1.5-0.1-1.8-0.9s0.7-2,0.9-2.2l15.8-10.3v-17.2c-0.3,0-0.7,0-1,0
	c-1.2,0-2.4-0.1-3.6-0.3c-4.5-0.7-6.1-5.4-6.2-6.3c-0.1-0.3-0.2-0.7-0.2-1c-0.1-0.9-0.1-1.8,0-2.6c0-0.9,0.1-1.7,0.2-2.4
	c0.1-0.5,0.1-0.9,0.2-1.2c-1.2-2.3-2.1-4.8-2.8-7.3c-0.6-1.6-1.1-3.2-1.6-4.9c-1.3-0.1-2.5-0.3-3.8-0.5c-0.6,0-1.1-0.2-1.6-0.4l0,0
	h-0.1c-2.3-0.4-4.5-1.2-6.6-2.4c-2.4-1.2-4.7-2.6-6.8-4.3c-4.4-3.1-9.8-9.6-10.2-13.3c0-0.3,0-0.6,0-0.9v-0.2V113
	c0.1-0.3,0.2-0.7,0.3-0.9l0.1-0.1l0.1-0.2l0.1-0.1c0.3-0.3,0.7-0.6,1.1-0.7c0.1,0,0.3,0,0.4,0c0.1,0,0.2,0,0.3,0h0.2
	c0.3,0,0.5,0.2,0.7,0.3c0.3,0.2,0.5,0.4,0.7,0.7c-0.1-0.5-0.2-1.1-0.2-1.8c-0.4-3.2,0.5-4.9,0.8-5.5l0.1-0.1l0.2-0.2l0.2-0.2
	l0.1-0.1l0.1-0.1l0.2-0.1l0.2-0.1l0.2-0.1h0.2h0.2h0.3c0.2,0,0.5,0.1,0.7,0.3c0.7,0.4,1.2,0.9,1.6,1.6c0.2,0.5,0.9,2.7,1.3,4.1
	c0.2-0.2,0.3-0.5,0.5-0.7c0.3-0.5,0.6-0.9,1-1.3c1.2-1.1,2.8-1.8,4.4-1.8c1.5,0,3,0.9,3.6,2.3c1.3,2.5,1.4,3.9,0.5,5.1
	c2.6,1.9,2.5,5.3,2.2,7.3c0.6,0.2,1.2,0.3,1.9,0.2c0.7,0,1.3-0.1,2-0.2c-0.8-3.7-1.4-6.9-1.7-8.9c-0.1-0.6-0.2-1.2-0.3-1.5l-0.1-0.1
	c-2-0.9-3.8-1.6-5-7.6c-0.7-3.4,1.2-6.8,1.5-7.2c0-0.1,0.1-0.2,0.2-0.3c0.3-0.6,0.6-1.1,1-1.6c-0.2-0.4-0.3-0.8-0.5-1.2
	c-0.5-1.1-1-2.3-1.4-3.6c-0.1-0.2-0.2-0.5-0.2-0.8c-0.2-0.6-0.3-1.1-0.4-1.6c-0.6-2.8-0.7-5.7-0.4-8.6c0.1-1.9,0.4-3.8,0.9-5.7
	c0.1-1.8,0.5-3.6,1.3-5.2c0.7-2,1.9-3.8,3.5-5.3c2.1-2.4,5.1-3.9,8.3-4.2c1-0.2,2.1-0.2,3.1-0.2h0.1h0.1c0.8,0,1.7,0.1,2.5,0.2H74
	l1.5,0.2c0.3,0,0.5-0.1,0.7-0.2c0.2-0.2,0.5-0.3,0.8-0.5s0.6-0.3,0.9-0.4l0.5-0.2c0.5-0.2,1.1-0.3,1.6-0.4c0.4-0.2,0.9-0.3,1.4-0.5
	c1-0.5,1.9-1.2,2.6-2c0.5-0.6,0.6-1.4,0.3-2.2c-0.4-0.7-1-1.1-1.8-1.2c-0.1,0-0.3,0.1-0.4,0.2c-0.2,0.1-0.3,0.2-0.5,0.3l-0.2,0.2
	c-0.8,0.8-1.9,1.4-3,1.5h-0.3c-1.3-0.2-3.7-2.9-4-3.3L74,48.6c-0.7-0.8-1.1-1.7-1.2-2.7c0-0.4,0-0.9,0-1.3l-0.1-0.2
	c0-0.1-0.1-0.2-0.1-0.4v-0.1c0-0.1,0-0.2,0-0.2c-0.1-1.3,1.2-2.2,1.9-2.6l0.1-0.1c0.1-0.1,0.3-0.2,0.4-0.2l0.9-0.6
	c4.8-2,7.8-2.8,11-2.8c1.7,0,3.3,0.2,5,0.4c6.4,1,8.5,7.1,9.3,9.5c0.1,0.2,0.2,0.4,0.2,0.6c0.5,1.3,3.5,4.8,4.4,5.6
	c1.1,0.9,2.3,1.5,3.6,1.9c1.2-0.1,2.4-0.2,3.8-0.2c3.7-0.1,7.4,1.2,10.2,3.5c9,8.3,7.2,24.2,6.5,29.6c0,0.1,0,0.2,0,0.3
	c-0.1,0.7-0.1,1.5-0.3,2.2c3.3,3.3,5.8,8.9-0.5,17.3l0,0c-0.8,3.5-1.7,7-2.8,10.4c0.2,0.1,0.4,0.2,0.6,0.4l0.2,0.1
	c0.6,0.4,1.1,0.8,1.6,1.3c1,1,1.9,2.1,2.7,3.3c0.2,0.4,0.5,0.8,0.7,1.2l0,0l0.1,0.1c1.7,2.5,1.4,5.8,0.7,8.1
	c-0.5,2.1-1.4,4.1-2.6,5.9l-0.2,0.4c-0.7,1-1.5,1.9-2.5,2.5l-0.4,0.3c-2.8,1.7-6,2.5-9.3,2.4l0,0c-1.2,0-2.4-0.1-3.5-0.2
	c-0.1,0.1-0.1,0.2-0.2,0.3l-0.2,0.3c-0.9,1.1-1.9,2.2-3,3.2c-1.1,1.3-2.3,2.5-3.6,3.6l-0.4,0.4l-0.2,0.1c-1.9,1.7-4.1,3.1-6.4,4.2
	h-0.1c-0.1,0-0.4,0.3-0.7,0.6l-0.3,0.2L99,178c1.9,1.2,14.5,9.2,16.5,10.5c0.3,0.2,1.3,0.9,1.2,1.7s-1.1,1.1-1.3,1.1h-0.1
	C114.8,191.4,77.3,191.8,67,191.8z M50.6,112.2c-0.3,0.1-0.6,0.3-0.9,0.5c-0.8,1.1-0.8,2.6,0.1,3.7c0.7,0.9,1.1,1,1.3,1
	c0.4,0,0.8-1,0.8-1.9v-0.1c-0.5-0.1-1.1-0.4-1.2-1.7c0-0.2,0-0.2,0-0.3s0-0.1,0-0.1C50.5,112.9,50.5,112.5,50.6,112.2z"/>
<path style="fill:#FFFFFF;stroke:#FFFFFF;stroke-width:3;stroke-linecap:round;stroke-linejoin:round;stroke-miterlimit:10;" d="
	M86.8,37.9c1.6,0,3.3,0.2,4.9,0.4c6.8,1,8.5,8.3,9.1,9.7s3.7,5,4.6,5.8c1.1,0.9,2.5,1.6,3.9,2c1.2-0.1,2.5-0.2,3.9-0.2
	c3.6-0.1,7.1,1.2,9.9,3.5c8.2,7.6,7.2,21.9,6.4,29.2c0,0.1,0,0.2,0,0.3c-0.1,0.8-0.2,1.6-0.3,2.4l0,0c7.4,7,0.9,15.3-0.4,17
	c-0.8,3.7-1.8,7.3-3,10.9c0.4,0.2,0.7,0.4,1.1,0.6h0.1c0.5,0.3,1,0.7,1.5,1.2c1,1,1.9,2.1,2.7,3.2c0.2,0.4,0.4,0.7,0.6,1.1l0.2,0.2
	c1.4,2,1.4,4.8,0.7,7.7c-0.5,2.1-1.3,4-2.5,5.7L130,139c-0.6,0.9-1.4,1.8-2.4,2.4l-0.1,0.1l-0.3,0.2c-2.7,1.6-5.8,2.4-9,2.3
	c-1.3,0-2.6-0.1-3.9-0.3c0.2,0.1-0.1,0.4-0.4,0.9c-0.1,0.2-1.4,1.6-2.9,3.1c-1.1,1.3-2.3,2.5-3.6,3.6l-0.4,0.4l-0.2,0.1
	c-1.9,1.7-4.1,3.1-6.4,4.2l0,0c-0.5,0.3-0.9,0.6-1.3,1l-0.2,21.4c0,0,14.6,9.2,16.7,10.6s0,1.9,0,1.9s-37.8,0.4-48.2,0.4
	c-1.3,0-2.2,0-2.5,0c-2.9-0.1-0.6-2.2-0.6-2.2l15.9-10.4v-18c-0.5,0.1-1,0.1-1.6,0.1c-1.2,0-2.4-0.1-3.5-0.3
	c-4.2-0.6-5.7-4.9-5.8-5.8l0,0c-0.1-0.3-0.2-0.7-0.2-1c-0.1-0.8-0.1-1.7,0-2.5c0-0.9,0.1-1.6,0.2-2.3s0.2-1.4,0.2-1.4
	s-0.9-1.3-2.8-7.3l0,0c-0.7-1.8-1.2-3.5-1.7-5.1c-1.3-0.1-2.7-0.3-4-0.6c-0.5,0-1-0.1-1.5-0.3l0,0L59,134c-2.3-0.4-4.5-1.1-6.5-2.3
	c-2.4-1.1-4.7-2.6-6.8-4.2c-4.3-3.1-9.7-9.5-10-13c0-0.3,0-0.5,0-0.8c0-0.1,0-0.1,0-0.2v-0.1c0-0.3,0.1-0.5,0.3-0.8l0.1-0.1l0.1-0.1
	l0,0c0.2-0.3,0.5-0.5,0.9-0.5c0.1,0,0.2,0,0.3,0h0.1h0.1h0.1c0.2,0,0.3,0.1,0.5,0.2c0.7,0.7,1.4,1.6,1.9,2.5c0-0.1,0-0.1,0-0.2V114
	c-0.2-1.1-0.4-2.3-0.5-3.4l0,0c-0.3-1.8-0.1-3.6,0.8-5.2l0.1-0.1l0.2-0.2l0.1-0.1l0.1-0.1H41l0.2-0.1l0.1-0.1h0.2h0.1h0.1h0.2l0,0
	c0.2,0,0.3,0.1,0.5,0.2c0.6,0.3,1,0.8,1.3,1.3c0.3,0.7,1.6,5.2,1.6,5.2l0.1-0.2c0.2-0.6,0.5-1.1,0.9-1.5l0,0c0.3-0.5,0.6-0.9,1-1.3
	c1.1-1,2.5-1.6,4-1.7c1.4,0,2.6,0.8,3.2,2c1.4,2.9,1.3,4,0,5c0.2,0,0.3,0.1,0.5,0.2c2.8,1.9,2.3,5.7,2,7.2v0.1c0,0,0,0,0,0.1
	c0.7,0.3,1.5,0.5,2.4,0.4c0.9,0,1.8-0.1,2.6-0.3c-1.3-5.7-2-10.6-2.1-11.1l0,0c-2-0.9-3.8-1.3-5-7.4c-0.6-3.4,1.3-6.7,1.5-7
	c0.3-0.7,0.7-1.4,1.3-2c-0.5-1.4-1.4-3.2-2-5.2c-0.1-0.2-0.2-0.4-0.2-0.6c-0.2-0.5-0.3-1.1-0.4-1.7c-0.6-2.8-0.7-5.6-0.4-8.5
	c0.1-1.9,0.4-3.8,0.9-5.6c0-1.8,0.5-3.5,1.3-5.1c0.7-2,1.8-3.7,3.4-5.2c2.1-2.3,4.9-3.8,8-4.1l0,0c1-0.2,2-0.2,3.1-0.2h0.1l0,0
	c0.9,0,1.8,0.1,2.7,0.2l0,0l1.6,0.2c0.3,0,0.7-0.1,1-0.3c0.2-0.2,0.5-0.3,0.8-0.5s0.6-0.3,0.8-0.3c0.7-0.3,1.4-0.4,2.1-0.5
	c0.5-0.2,1-0.3,1.5-0.5c1-0.6,2-1.3,2.8-2.1c1.9-2.7-0.9-4.2-1.8-4.2h-0.1c-0.2,0.1-0.4,0.1-0.5,0.2l0,0L82,50.2l-0.3,0.2
	C81,51.2,80,51.6,79,51.8h-0.2c-1-0.1-3.2-2.5-3.7-3.1c-0.7-0.8-1.2-1.8-1.4-2.8c0-0.4,0-0.9,0-1.3c0-0.1-0.1-0.2-0.1-0.3
	s-0.1-0.2-0.1-0.3l0,0l0,0c0-0.1,0-0.1,0-0.2c-0.1-1.1,1.3-2,1.8-2.3c0.1-0.1,0.2-0.2,0.4-0.2l0.9-0.6
	C81.1,38.6,83.9,37.9,86.8,37.9 M51,117.9c0.9,0,1.3-1.5,1.3-2.5c0-0.2,0-0.3,0-0.5h-0.2c-0.7,0-1-0.6-1-1.3c0,0,0,0,0-0.1
	s0-0.2,0-0.2l0,0l0,0c0-0.4,0-0.7,0.1-1.1c0-0.1,0-0.2,0-0.2v-0.1c0-0.2-0.2-0.3-0.4-0.3c-0.5,0.1-1,0.3-1.3,0.7c-1,1.3-1,3.1,0,4.4
	c0.7,0.9,1.2,1.2,1.7,1.2 M87,37L87,37c-3.3,0-6.3,0.8-11.1,2.8l-0.2,0.1l-0.8,0.6c-0.2,0.1-0.3,0.2-0.5,0.3l-0.1,0.1
	c-0.7,0.5-2.2,1.5-2.1,3.1c0,0.1,0,0.2,0,0.2s0,0.1,0,0.2c0,0.2,0.1,0.3,0.1,0.5V45c0,0.4,0,0.8,0,1.2c0.1,1.1,0.6,2.2,1.3,3
	l0.2,0.3c0.2,0.3,2.8,3.4,4.3,3.6h0.4c1.3-0.1,2.4-0.7,3.3-1.6l0.2-0.1l0.5-0.3l0,0l0.1-0.1c0.6,0.1,1,0.5,1.3,1
	c0.1,0.2,0.3,0.7-0.3,1.6c-0.7,0.8-1.5,1.4-2.4,1.9c-0.5,0.2-0.9,0.3-1.3,0.5c-0.6,0.1-1.1,0.2-1.7,0.4l-0.5,0.2
	c-0.4,0.1-0.7,0.3-1.1,0.5c-0.3,0.1-0.5,0.3-0.8,0.5c-0.1,0.1-0.3,0.1-0.5,0.1l-1.4-0.2h-0.2C73,57,72.2,57,71.4,57h-0.2H71
	c-1.1,0-2.1,0.1-3.2,0.2c-3.3,0.3-6.4,1.9-8.6,4.4c-1.6,1.5-2.8,3.3-3.6,5.4c-0.8,1.6-1.3,3.5-1.4,5.3c-0.5,1.9-0.8,3.8-0.9,5.7
	c-0.4,2.9-0.2,5.9,0.4,8.8c0.1,0.5,0.2,1,0.4,1.6c0,0.3,0.1,0.6,0.3,0.9c0.4,1.3,1,2.5,1.4,3.6l0.4,0.9c-0.3,0.4-0.6,0.9-0.8,1.4
	l-0.2,0.3c-0.2,0.4-2.3,4-1.5,7.6c1.2,5.7,2.8,6.9,5.2,7.9c0.1,0.3,0.1,0.8,0.2,1.2c0.3,1.9,0.8,4.9,1.6,8.4c-0.5,0.1-1,0.1-1.4,0.1
	s-0.9,0-1.3-0.1c0.4-3.1-0.3-5.5-2-7c0.8-1.4,0.4-3-0.7-5.2c-0.7-1.6-2.3-2.6-4-2.6c-1.8,0-3.5,0.8-4.8,2c-0.4,0.4-0.7,0.8-1,1.2
	c-0.4-1.3-0.8-2.8-1-3.2c-0.4-0.8-1.1-1.4-1.8-1.8c-0.2-0.1-0.5-0.2-0.8-0.3h-0.1h-0.4h-0.2h-0.3l-0.3,0.1l-0.2,0.1l-0.3,0.2
	l-0.2,0.1l-0.1,0.1l-0.2,0.2c-0.1,0.1-0.2,0.2-0.2,0.3l-0.1,0.2c-0.9,1.8-1.3,3.8-0.9,5.8c0,0.1,0,0.3,0,0.4
	c-0.2-0.1-0.4-0.2-0.7-0.2h-0.1h-0.2h-0.1c-0.2,0-0.3,0-0.5,0.1c-0.5,0.1-1,0.4-1.4,0.8l0,0l-0.1,0.1c0,0.1-0.1,0.1-0.1,0.2
	l-0.1,0.2c-0.2,0.3-0.3,0.7-0.4,1.1v0.1c0,0.1,0,0.2,0,0.2c0,0.3,0,0.7,0,1c0.4,3.8,5.9,10.5,10.4,13.7c2.1,1.7,4.4,3.1,6.9,4.2
	c2.1,1.2,4.4,2,6.7,2.4h0.1c0.6,0.2,1.1,0.3,1.7,0.4c1.1,0.2,2.3,0.4,3.4,0.5c0.5,1.6,1,3.1,1.5,4.6c0.7,2.5,1.6,4.9,2.8,7.2
	c0,0.2-0.1,0.6-0.1,1c-0.1,0.7-0.2,1.5-0.2,2.4c-0.1,0.9-0.1,1.8,0,2.8c0,0.3,0.1,0.7,0.2,1c0.2,1.1,1.9,5.9,6.7,6.6
	c1.2,0.2,2.4,0.3,3.7,0.3h0.6v16.4l-15.5,10.1l-0.1,0.1c-0.4,0.3-1.5,1.5-1.1,2.7c0.3,0.8,1,1.2,2.3,1.2c0.3,0,1.2,0,2.5,0
	c10.3,0,47.8-0.4,48.2-0.4h0.2c0.2-0.1,1.5-0.4,1.7-1.5s-1-2-1.4-2.2c-1.9-1.3-13.7-8.7-16.3-10.3l0.2-20.4l0.1-0.1
	c0.3-0.2,0.6-0.5,0.7-0.5h0.1c2.3-1.1,4.5-2.6,6.4-4.2l0.2-0.2l0.5-0.4c1.3-1.1,2.5-2.3,3.6-3.6c1.1-1,2.1-2.1,3-3.3l0.2-0.3
	c1.1,0.1,2.2,0.2,3.3,0.2c3.4,0.1,6.7-0.7,9.6-2.5l0.3-0.2l0,0h0.1c1-0.7,1.9-1.6,2.6-2.7l0.2-0.3l0.1-0.1c1.3-1.8,2.2-3.8,2.7-6
	c0.9-3.4,0.6-6.4-0.8-8.5l-0.1-0.1v-0.1c-0.2-0.4-0.4-0.8-0.6-1.1v-0.1c-0.8-1.2-1.8-2.3-2.8-3.3c-0.5-0.5-1-1-1.7-1.4l-0.2-0.1
	l-0.2-0.1c1.1-3.2,2.3-8.1,2.7-10c2.9-4,6.8-11.4,0.6-17.8c0.1-0.7,0.2-1.3,0.2-2c0-0.1,0-0.2,0-0.3c0.6-5.4,2.5-21.5-6.7-29.9l0,0
	c-3-2.5-6.7-3.8-10.5-3.7c-1.3,0-2.6,0.1-3.8,0.2c-1.3-0.4-2.4-1.1-3.4-2c-1.7-1.6-3.1-3.4-4.3-5.4c-0.1-0.1-0.1-0.3-0.2-0.6
	c-0.8-2.4-3-8.8-9.7-9.8c-1.7-0.2-3.4-0.4-5.1-0.4L87,37z M51.1,117c-0.3-0.2-0.6-0.5-0.8-0.8c-0.6-0.9-0.7-2.1-0.1-3
	c0,0.1,0,0.2,0,0.3s0,0.1,0,0.1s0,0.2,0,0.3l0,0v0.1c0,0.8,0.5,1.6,1.2,1.9C51.4,116.3,51.3,116.7,51.1,117L51.1,117z"/>
<path style="fill:#A91D22;" d="M79.9,160v18.6L64,189c0,0-2.2,2.1,0.6,2.2c2.8,0.1,50.7-0.4,50.7-0.4s2.1-0.5,0-1.9
	s-16.7-10.6-16.7-10.6l0.3-21.9c0,0,7.9-2.6,15-12.9c4.9,0.7,11.3,0.4,15-3.6s5.7-10.8,2.2-16.2c-2.2-3.1-3.5-4.2-5.3-5.1
	c1.2-3.6,2.2-7.2,3-10.9c1.3-1.7,7.8-10.1,0.4-17c0.7-5.7,3.4-23.2-6-31.8c-4.9-4-9.8-3.6-13.8-3.2c-1.4-0.4-2.8-1.1-3.9-2
	c-0.9-0.8-4-4.3-4.6-5.8s-2.3-8.7-9.1-9.7c-5.5-0.6-8.1-0.8-15.6,2.3c-2.8,1.9-3.4,2.8-2.9,3.8s5.1,7.5,6.2,7.2s2.3-1.6,3.1-1.8
	s4,1.4,2,4.2c-1.4,1.6-3.4,2.7-5.6,3c-1.1,0.2-2.2,0.7-3,1.4c0,0-8.3-2-13.8,2s-6.2,8-6.5,11.9c-0.6,2.6-3.8,11,1.9,21.6
	c-0.6,1.1-4.5,5.8-2,11.6c1.7,2.7,3.2,4.2,4.3,4.7c0.2,2,1.6,9.5,2,11c-1.7,0.5-4.5,0.4-5.1-0.1c0.3-1.3,0.8-5.3-2-7.2
	c-1.2-0.6-2.9-0.1-2.6,1.5c0,1.5-0.8,4-3,1.3c-1-1.3-1-3.1,0-4.4c0.6-0.6,1.9-1.1,1.7-0.1s-0.2,3.7,2.1,2.3s3-2.2,1.2-5.8
	s-6.2-1.5-7.2-0.3c-0.8,0.9-1.4,1.9-2,3c0,0-1.3-4.6-1.6-5.2s-2.6-3.2-3.8,0.2c-0.9,2.7,0,6.4,0.2,7.8c0,0.1,0,0.3,0.1,0.4
	c-1.1-1.5-2.1-3.9-3.9-2.2c-1.5,1.7,0.7,5.7,2.8,8.3s10.4,13.1,25.8,14.4c1.5,4.6,3.1,9.9,4.6,12.5c-0.2,2.5-2.3,10.5,5.4,12.9
	C76.4,160.7,78.3,160.6,79.9,160z"/>
<path style="fill:#A91D22;" d="M126.8,119.3c-0.2-0.1-1,0.7,0,2s7.2,9.3,1.1,15.8c-4.4,3.9-7.3,5.6-8.6,5.8s-2.3,1.2-0.4,1
	s7.9-0.6,10.8-4.9s4.5-10.3,2.1-13.8S128,119.9,126.8,119.3z"/>
<path style="fill:#C22F2E;" d="M120.4,122.3c-1.2,2,0,7.6,0,7.6c-0.4,0.5-1.2,0.6-1.7,0.2c-0.1,0-0.1-0.1-0.2-0.2
	c-1.1-1-5.8,4.4-5.7,7.1c-0.2,3.1-5.7,5.2,3.5,4.4c4-0.4,9.4-4.4,10.1-10.4c0.5-5.6-1.5-6.8-2.3-8s-1.3-1.3-1.1-2.7
	S121.7,120.3,120.4,122.3z"/>
<path style="fill:#A91D22;" d="M125.4,92.6c0,0-0.2-0.9,1.2-0.9c1.4,0.1,2.7,0.8,3.7,1.8c1,1.7,1.4,3.8,1,5.8
	c-0.7,2.1-0.9,4.2-1.5,4.7s-1.1-0.1-0.5-1.4s1.7-4.6,1.1-6.2s-0.5-2.5-1.8-3.1c-0.8-0.3-1.6-0.4-2.5-0.3L125.4,92.6z"/>
<path style="fill:#A91D22;" d="M128.4,84.8c0,0,0.6-6.6,0-8.6s-1.6-12.5-6.5-15.8c-3.7-2.7-5.2-3.5-8.2-3.5
	c-2.4-0.1-4.8-0.6-7.1-1.4c-1.6-0.8-3-1.9-4.2-3.2c-1.3-1.5-2.3-3.1-3.1-4.9c-0.5-1.3,0.5-0.7,0.7,0c1.1,2.2,2.5,4.2,4.1,6
	c0.8,0.6,5.4,2.9,8.9,3s6.7,1,8.6,2.5s5.6,3.3,7.3,12.6c0.5,4.9,0.6,9.7,0.3,14.6C129,87,128.3,85.9,128.4,84.8z"/>
<path style="fill:#C22F2E;" d="M113.2,63.4c0,0-1.5-0.5-0.7,0.3s5.7,3.7,6.8,7.1s2.4,7.5,2.7,8.1c0.3,0.4,0.9,0.5,1.3,0.1
	c0.2-0.2,0.3-0.4,0.3-0.6c-0.1-3.9-1.7-7.6-4.5-10.3C117.5,66.2,115.4,64.6,113.2,63.4z"/>
<path style="fill:#C22F2E;" d="M110.7,81.2c0.5,0,0.9-0.4,1-0.8c0.4-2.7,0.8-9.8-6.4-13.8c-9-5-13.9,0-15.6,1.6s-4.7,4.2-4,10
	c0.9,5.1,1.8,9.5,4.3,10.6c0.1-0.7,0.4-1.2,2.3-2.3s3.7-2.4,3.7-2.4s-1.6,3-0.1,5.5c-1.8,0-4.5-0.1-5-0.2s0.1,0.9,1.2,1.1
	s13.1,0,14.6,0s10.4-0.2,11.7-0.6c-4,1.4-8.1,2.5-12.2,3.2c-2.1,0.2-3.2,0.2-2.7,0.9c0.8,0.2,8.8-0.3,12.9-2.2s6.5-2.8,6.9-3.2
	s0.5-1.2,0-1.1c-0.7,0.2-1.3,0.5-1.9,0.9c-0.7,0.3-7.3,0.3-8.1,0.3c0.5-0.7,0.8-4.1-0.8-5.9c-1.3-0.1-2.9-0.5-4.1-0.5
	c-0.9-0.5-0.6-0.9-0.1-1.2C109.1,81.2,109.9,81.1,110.7,81.2z"/>
<path style="fill:#C22F2E;" d="M84.6,45.6c1.2-0.5,2.5-0.7,3.8-0.7c1.4,0.2,3.4,0.5,4.7,1.7c1.5,1.3,2.5,3.1,2.7,5.1
	c0.2,2.7-1,6-1.3,7.2s-0.7,3.7,0.5,4.7c-0.8,0.4-5.3,2.7-9.8,1.9c-4.8-1-11.1-1.9-11.5-2.6s1.2-3.6,2.3-4.5s1.6-0.8,3.6-1.6
	s6.4-2,6.4-4.6c-0.3-1.9-1.9-3.3-3.8-3.5C80.6,48.4,84.6,45.6,84.6,45.6z"/>
<path style="fill:#C22F2E;" d="M71.2,57.9c0.2,0-3.2,4.3-0.4,6c0.4,0.3,0.9,0.5,1.4,0.5c0,0,7.2,1,9.5,3.1c1.6,1.2,3,3,3,3.7
	c-0.1,0.6-0.4,0.9-1.2,0c-1-0.9-2-1.7-3.2-2.4c-0.9-0.6-3.9-2.7-5.9-3s-3.9-0.3-3.7,0.6s8.1,2.6,8.3,6.8s-0.1,9.2-2.2,10.5
	c-1.5-0.3-3.1-0.5-4.7-0.6c0.4,0.6,1.1,1.3,1.1,1.3s3.2,0.3,3.5,0.7c1.4,1.4,2.1,3.4,1.7,5.4c1.1,0.1,4.5,0.4,5,0.4s0.3,0.4-0.7,0.8
	S70.4,92,68.1,91.9s-7.5,0.4-7.8,0.5s0.8,0.8,1.3,1.3s-2.9-0.2-4.3,0.6c-0.8-2.2-2.4-5.2-2.8-8.7c-0.5-2.4-0.5-4.8-0.2-7.2
	c0.2-1.2,0.5-0.6,0.5,0.3s0.7,7.1,1.6,8.4c-0.4,1.3,0.7,2.9,1.6,3s3.7,0.5,3.7,0.5s-1.8-3-0.4-5.6c0.4-0.9,1.2-1.5,2.1-1.8
	c1.2-0.3,6.5-0.5,6.5-0.5s4.5-2.4,4.4-6.1s-4.5-7.9-6.7-8.4c-3-0.7-2.6-3-2-3.5c-1.5-1.1-2-3.5,0.8-6.2C68,58.1,69.6,57.9,71.2,57.9
	z"/>
<path style="fill:#C22F2E;" d="M104.8,105.9c0.7-0.4,3.4-4.1-0.2-6.3s-12.3-6.8-18.4-6.9c-4.3,1.1-11.3,2.3-16,2.2
	c-4.6-0.2-7.6-0.9-8.4-1.3c-5-2-6.3,4-5.4,5.8c0.4,0.9,1.8-0.4,3.8-1c1.2-0.3-1.9,5.3,3.5,7.4c1.1,1.4,1.7,1.3,2,2.3
	c0.5,1.9,3.3,13.2,3.9,15.3s0.7,3.8,0.9,4.6c0.2,0.8-2,3.8,2,6.3c3.7,1.8,10.6,3.1,18.4,0.2s13.2-5.4,13.7-6s-0.8-2.5-3.3-1.5
	s-14.2,4.4-16.6,4.2s-8.2,0.5-11.4-4.4c-1-2-3.9-8.4-4.5-11.8s-1.2-9.1-1.2-9.8c-0.1-0.8-0.6-1.5-1.2-2c-0.7-0.5-2.7-2.7-2.1-3.9
	c0.6-1.2,0.4-3.1,1.5-2.9s2.1,1.2,2,2s-1.5,2.5,0.7,4.3s7.2,4.7,15.8,5.1S100.7,108.2,104.8,105.9z"/>
<path style="fill:#C22F2E;" d="M72.7,135c0,0-1.7-0.9-1.2,0.9s0.4,5.2,3.7,6.3s10.5,2.9,12.2,5c1,1.2,2.8,5.7-0.2,7.2
	s-5.1,2.4-7.3,0.7c-0.9-0.9-1.7-0.4-2.8,0s-6.2-0.6-7.7-2.3c-0.7-0.7-0.4,1.4,0,2.5s4.2,5.5,8.8,4.6c1.9-0.4,3.2-0.7,3.7-0.2
	s1.4,0.8,3.6,1s2.3,0.2,3,0c-0.8-0.6-2.4-2.1-0.9-4c1.3-1.7,4.6-1.1,6.6-3.6c2.7-3.5,1.8-5.9-0.5-8.6c-1.4-1.8-6.1-2.3-9.7-2.7
	s-7.3-3.5-8-4S72.9,135.9,72.7,135z"/>
<path style="fill:#C22F2E;" d="M80.9,162.1c-0.1-0.1-0.9,0.1-0.9,0.1v16.4l-12.2,7.9c0,0-4,3.3,0,3.6c4.5,0,39.7-0.9,39.8-1
	s1.6-0.2,1.3-1.3s-2-0.9-3.1-0.9l-18.3-0.1c-0.8,0-0.6-0.5-0.3-1.3s2.4-3.1,3.3-4.5c0.4-0.5,0.7-1.1,0.9-1.7
	c0.1-0.6-2.2-0.1-2.7-0.6c-0.2-0.2-0.3-0.4-0.3-0.6c0-2.5,0.7-13,0.4-13.3C87.9,163.4,83.3,164.4,80.9,162.1z"/>
<path style="fill:#C22F2E;" d="M55.2,116.7c-0.3-0.7-0.7-2.3-1.3-2.4s-1.5,0-1.5,0.6s0.2,2-0.1,2.5c-0.2,0.3-0.5,0.6-0.7,0.9
	c0,0,0,2.8-1.8,3.2s-4.5,0.9-6.7-1.1s-4.2-3.8-4.7-5s-1-2.1,0-1.9s0.7-0.4-0.4-1.4c-0.6-0.5-1.3-0.2-1.3,1.2s2,6.6,5.3,8.7
	s12.7,7.5,15.7,8.1c2.3,1,2.7,2.6,1.3,4c1.1,0.5,3.9,0.6,3.9-0.9s-1.3-4.6-6.4-5.8c-0.6-0.9-0.9-0.3-0.5-1.8s1.2-3.4,0.8-4.4
	s-1.1-1.4-1.2-1.8S55.5,117.3,55.2,116.7z"/>
<path style="fill:#C22F2E;" d="M46.1,109.8c0.5-0.7,2.6-2.5,4-1.6c1.2,0.7,2.1,1.8,2.5,3.2c0.3,1.1,0.3,2.2-0.2,2.7
	c-0.3,0.3-0.9,0.3-1.2,0c-0.2-0.2-0.3-0.5-0.2-0.7c0-1,0.4-2.4-0.8-2.2s-2.3,0.8-2.4,2s0.3,2.3-0.9,2.2s-2-2.2-1.8-3.4
	C45.2,111.1,45.6,110.4,46.1,109.8z"/>
<path style="fill:#C22F2E;" d="M42.8,106.4c0.2,0,0-1.8-1-1.5c-1.3,0.3-1.5,3.6-1.2,5.5s1.5,3.4,1.3,3.9s-1.2-2-1.6-2.4
	s-0.4,2.5-0.2,2.8s2.4,2.4,2.7,2.2s1.2-0.4,0.5-2.2s-1.9-4.5-1.9-5.3S41.3,106,42.8,106.4z"/>
<path style="fill:#E75151;" d="M93.2,108c0,0,3.7,0,4.3-3.1s-0.4-4-2.2-4.6s-6.1-0.6-8.5-1.1S75,97.6,73.7,97s-2.9-1.3-4.2-0.8
	s-4.5,5.4,0.7,7.7C77.4,107.1,85.3,108.4,93.2,108z"/>
<path style="fill:#E75151;" d="M61.3,99.2c0.6-0.5,0.1-1.7-1.6-1.5s-6.7,2.4-3.4,9.5c0.9,1.4,2.1,2.5,3.6,3.1l2,11
	c0,0,2.9,14.1,4.1,17.8c2.2,6.9,3.2,8.3,3.2,8.3s-0.9,6.1-0.2,6.6s5.3,4,9.8,1.3c1.1,0,1.6,0.5,2.4,0.7c2.7,0.4,5.4-0.6,7.2-2.6
	c1.2-1.7,1.3-5.7-0.4-6.9s-6.8-2.6-8.9-3.1s-6-1.5-7.1-5.4c-0.4-2.7,0.2-2.2,0.3-3s0.5-0.3,1.4,0c1.9,0.7,3.9,1,5.9,1.1
	c2.4,0,6.3-0.3,7.4-1.1s0.8-2.2-0.7-2s-4.1,0.9-6.3,0.4s-6.8-2-8-3.5s-1-0.5-1.4-2.8s-3.2-13.2-3.6-14.7s-1.8-6.2-2.3-6.6
	s-2.8-1.6-3.3-2.3S60.1,100.3,61.3,99.2z"/>
<path style="fill:#E75151;" d="M66.1,98.4c0.4,0,1.2-1.9-0.7-1.9s-3.2,2.1-3.1,3.5s0.1,4,2.1,4.2c0.7-0.1,1.2-0.8,1.1-1.5
	c0-0.2-0.1-0.4-0.3-0.6C64.4,100.8,64.6,98.5,66.1,98.4z"/>
<path style="fill:#E75151;" d="M52.9,124.8c1.2-1.1,2-2.5,2.3-4.1c0.3-2.3-1.1-6.4-2-6.1c-1.2,0.4,0,3.6-0.3,4.5s-2.5,4.8-4,4.6
	s-3.6,0.1-2.5,1.1S51.2,127.1,52.9,124.8z"/>
<path style="fill:#E75151;" d="M60.5,134.1c0,0,2-2.1-1.4-3.5s-13.3-6.5-14.9-8.6s-8.5-5.3-6-9.8c-0.3-0.1-0.5-0.3-0.7-0.3
	c-1.2,0-1.9,1.2-1.8,2.7c0.4,3.6,6.2,10.6,10.7,13.4S56.1,134.4,60.5,134.1z"/>
<path style="fill:#E75151;" d="M45.2,111.4c0,0,0.1,2.7,1,1.9s1.1-2.3,2.2-2.9s1.8-0.5,2.3,0s0.4-1.4-1.2-1.7S46.3,109,45.2,111.4z"
	/>
<path style="fill:#E75151;" d="M121.7,121.9c-0.6-0.5-2.1,0.7-1.9,3.3c0.1,1.6,0.3,3.1,0.7,4.7c-0.6-0.1-1.2-0.1-1.8-0.1
	c-0.8,0.1-2-2.2-3.9,0.1c-1.1,0.3-4.5-0.8-4.7,0.9s3.2,3.3,3.2,3.3c-0.3,1.1-2.2,0.1-3.2-0.5s-3.1-0.4-2.7,1c1,2.1,3,3.5,5.4,3.7
	c2,0,2.3-1.8,1.6-2.5c-0.4-0.3-0.8-0.6-1.2-0.9c0,0,0-1.1,1.4-0.8s2.1-1.3,2.4-1.5c0.9-0.5,2.5,0.5,3.2,0.4s4.6-0.3,4.9-3.2
	C125.3,126.7,124,123.8,121.7,121.9z"/>
<path style="fill:#E75151;" d="M109,138.2c-0.7-0.1-2.7,0.3-1.8,2.2c1.6,1.8,5,1.3,5.8,1.2s0.8-1.1-0.1-1.7
	C111.7,139.1,110.4,138.5,109,138.2z"/>
<path style="fill:#E75151;" d="M116.8,97.2c-0.3,0.1-1.2-1.4,0-1.6s5.3,0.1,6.4,0.9s2.8,2.8,2.2,3.8c-0.3,0.5-0.9,1.5-1.2,1.5
	s-0.3-0.9-1-1.5C122,99.3,120.1,96.3,116.8,97.2z"/>
<path style="fill:#E75151;" d="M103.5,81.4c0,0,3.8-2.6,2.9-6.3s-3.6-7.3-7.2-8.1s-6.7,0-8.8,2.5s-3.8,8.1-1.1,11.1
	c2.2,2.6,3.9,3.2,3.6,3.3c-1.2,0.5-3.7,2-4,3c-0.3,0.7-0.2,0.8,0.2,1.2c0.5-1,1.3-1.8,2.2-2.4c1.5-0.8,3-1.5,4.6-2
	c0.9-0.2,2.9-1.1,4.1-1.4S103.5,81.4,103.5,81.4z"/>
<path style="fill:#E75151;" d="M69.9,82.8c0.5-0.2,5.4-2.1,4.7-7.1S69,69,68.2,68.4s-0.7-1.9-1.7-2.8l-1-0.9c0,0-1.3-2.2-0.8-3.5
	c0.3-0.8,0.7-1.6,1.2-2.3c0,0-5.8,2.5-7.3,6.8s-1.2,4.9-1,5.5c-0.6,1.9-2.2,6.3-1.9,8.8c0.2,2,0.5,4,1.1,6c0.2,0.5-0.6,1.2-0.6,1.6
	c0,0.2,0,0.4,0.1,0.6c0,0,0.3,0.6,0.5,0.4c0.3-0.8,0.9-1.5,1.7-2c1.6-0.8,3.3-1.6,5-2.2c0,0-0.2-1.3,0.6-1.4c0.8-0.1,1.9,0,2.7,0
	L69.9,82.8z"/>
<path style="fill:#E75151;" d="M73.9,58.1c-0.6,0.5-1.2,1.1-1.7,1.8c-0.4,0.8-0.6,1.7-0.6,2.5c0,0.6,0,1.4,0.6,1.7
	c0.5,0.4,1.3,0.4,1.8,0c0.3-0.4,0.2-1.6,0-2.1s0.3-1.5,1-2.3s1.1-1.4,1.1-1.4L73.9,58.1z"/>
<path style="fill:#C22F2E;" d="M76.4,59.3c0,0-1.5,1.2-1.4,1.7c0.6,0.8,1.5,1.5,2.5,1.8c2.2,0.4,4.5,0.7,6.7,0.9
	c1.4,0,5.7,0.3,7.1,0s4.7-1.2,5.5-1.5s0.7-2.4-1-2.2s-8.1,1.7-9.7,1.5s-7-0.8-8.1-1.1S76.9,59,76.4,59.3z"/>
<path style="fill:#92191C;" d="M109.6,56.2c0.1,0,4.1,0.6,4.3,2s0.4,2.5,0,3.2s-0.6,1-1.2,0.7s0.3-0.6,0-1.6s0.2-1.3-0.8-2.1
	s-1.1-1.2-1.8-1.4S109.1,56.1,109.6,56.2z"/>
<path style="fill:#C22F2E;" d="M99.2,50.2c-0.3-0.7-0.4-1.2-0.7-1.7c-0.2-0.5-0.7-0.8-1.2-0.8c-0.6,0-0.1,1.4,0.3,2.3
	c0.5,1.1,1.2,2.2,2,3.2c0.7,0.9,2.8,1.5,3.5,1.8s2,0.9,2.3,1.6s1.1,1.2,1.6,1.8s1.1,0.7,1.2,0s-0.1-1.1-0.8-1.8
	c-0.7-0.9-1.6-1.7-2.6-2.3c-1.1-0.6-2.2-1.3-3.2-2.2C100.3,51.3,99.5,50.8,99.2,50.2z"/>
<path style="fill:#92191C;" d="M123.6,86.5c0.7-1.4,1.2-2.8,1.5-4.3c0.1-2.6-0.2-5.3-1-7.8c-0.8-2.2-3.1-7.2-5.2-8.8s-3.4-3-3.4-3.6
	s0.1-2.5,0.6-3s1.1-1.2,0.4-1.4s-2.8-0.7-3.6-0.1c0.6,1.1,1.2,3.1,0.8,3.6s-0.4,1.5-1.1,1.2c-1.5-0.5-3-0.7-4.6-0.8
	c-1.3,0-5.2-0.4-7.4,0.3s-5.5,0.8-10.2,4.5c-3.3,2.9-3.8,3.3-4,3.6c-0.6-0.2-2.9-2.4-4.5-3.3c-2.2-1.2-4.7-2-7.2-2.4
	c-2.7-0.4-5.5-0.3-8.2,0.2c-2.4,0.7-4.6,2.1-4.4,2.3c0.4,0.1,0.8-0.3,1.2-0.5c2.5-1.5,5.5-2.1,8.3-1.6c4.3,0.9,9.7,1.5,11.8,4.8
	c0.7,0.7,1.5,1.3,1.2,1.9s-0.7,0.2-0.9,0L83,70.6c0,0-3.7,9.2,2.6,14c2.1,3.5,2.9,4.6,4,4.9c0.5,0.3,0.7,0,0.7,0L90.1,89
	c0,0-1.7,0.4-3.1-3.6S84.7,75,85.9,73.2c0.9-2.2,4.2-5.8,5.8-6.7s6.6-3.8,9.2-4.1s10.6,0.4,11.4,0.5s5.2,3.3,6.4,4.7
	s3.8,4.1,4.5,7.9s1.3,6.1,1,7.7S123,86.4,123.6,86.5z"/>
<path style="fill:#92191C;" d="M122.5,87.9c0.4-0.7-0.4-2.2-1.7-3s-3.6-2.8-6.3-3s-3.1-0.3-3.2,0s1,0.7,1.7,0.9
	c1.8,0.6,3.5,1.3,5.2,2.2c0.9,0.7,1.6,1.5,2.2,2.4c0.1,0.4-0.4,1.1-0.7,1.4S122.2,88.5,122.5,87.9z"/>
<path style="fill:#92191C;" d="M98.1,94.1c0.7-0.5,6.2,0,7.3,0c3.2-0.3,6.4-0.9,9.5-1.6c1.2-0.4,5.5-2.2,6.2-2.7s1.7-1,2.3-1.3
	c0.7-0.4,1.5-0.7,2.3-0.9c0.9-0.3,1.8-0.4,2.7-0.2c0.7,0.1,1,0.3,1,1c-0.1,0.8-0.2,1.6-0.3,2.4c-0.4,0.1-0.8,0.2-1.1,0.2
	c-1.1,0-2.2,0.1-3.3,0.4c-0.6,0.3-2.3,0.9-3,1.3c-0.4,0.2-0.8,0.5-1.2,0.6c-1.8,0.6-3.6,1-5.4,1.2c-1.2,0-8.2,0.4-9.2,0.5
	s-4.8,0-5.2-0.1S97.5,94.6,98.1,94.1z"/>
<path style="fill:#92191C;" d="M115.2,96.7c-0.6,0.2-1.3,0.4-1.9,0.7c-0.7,0.3-1.3,0.7-0.8,0.9c0.8,0.2,1.6,0.2,2.3,0
	c0.9-0.4,1.9-0.5,2.9-0.4c0.6,0.2,1.2,0.5,1.7,0.8c0.9,0.7,1.8,1.5,2.4,2.4c0.2,0.9,0.4,1.7,0.7,2.6c0.4,0.4,1,0.5,1.4,0.1l0.1-0.1
	c0.5-0.5,0.2-1.3,0-2.1c-0.4-0.7-0.9-1.4-1.5-1.9c-0.5-0.5-1.8-2.6-4.5-2.9S115.9,96.6,115.2,96.7z"/>
<path style="fill:#92191C;" d="M59.7,92.4c0.5-0.7,2.7,1,3.3,1.1s7.6,0.8,8.6,0.7s5.3-0.4,6.1-0.4s2-0.3,2.7-0.3s0.8,0.3,0.2,0.4
	c-3.9,0.6-7.9,0.9-11.9,0.9C64.4,94.6,59.3,92.9,59.7,92.4z"/>
<path style="fill:#92191C;" d="M83.5,90.7c0.8-0.4,1.8-0.9,1.6-1.5c-0.4-1-1-1.8-1.8-2.4c-0.7-0.4-2.7-2.2-3.8-2.4s-1.6-0.5-2.3-0.6
	s-0.4,1.2,0,1.3c0.9,0.2,1.8,0.6,2.7,1c0.5,0.4,3.4,1.7,3.8,2.7s0.1,0.9-0.5,1c-0.5,0-1,0.2-1.5,0.3C81.5,90.3,83.2,90.9,83.5,90.7z
	"/>
<path style="fill:#92191C;" d="M67.3,99.2c0.3-0.7,0.7-0.7,0.5-1.1s-0.2-0.4-0.8-0.2s-1,1.9-1,2.4c0.5,1.6,1.5,3.1,2.8,4.1
	c1.5,1.1,5,3.4,13.7,4.2s14.3,0.8,20-0.7s11.9-4.6,13.3-6s2.5-2.9,3-3.1s0.2,0.1,0,1.2s-5.1,16.3-6.5,17.8s-8.9,8.4-9.9,8.8
	s-2.4,1.4-3.1,1.6s0.2,0.7,0.8,0.5s6.8-3.8,7.7-4.8s5.5-4.7,7.1-7.6s2.3-3.5,2-2.4s-1.1,4.6-2,5.9s-3.6,5.2-4.2,5.8s-1.8,2.1-0.5,2
	s4.9-4.2,5.5-4.9c1.7-2.8,3-5.8,3.8-9c0.8-3.5,1.4-7,1.8-10.6c0.1-1.5,0.6-3.7-0.8-4.2s-0.9-1.5-3,0.1c-3,2.2-6.2,4.1-9.4,5.8
	c-1.4,0.5-3.9,4.9-21.3,3.5c-12-1.5-12-1.2-17.7-4.5C67.5,102.7,66.4,101.5,67.3,99.2z"/>
<path style="fill:#92191C;" d="M72.6,115.6c0.4-0.8,0.7-1.6,0-1.4s-1.3,1.7-1.4,2.3c-0.3,1.5-0.4,3-0.4,4.5c0.2,0.4,0.8,2.7,1.5,2.8
	s0.8-1.4,0.8-2.8S72.3,116.3,72.6,115.6z"/>
<path style="fill:#92191C;" d="M69.7,131.4c-0.2-0.4-0.3-0.6-0.6-1.1s-0.3-1.2-0.6-1s0.1,1.2,0.3,1.7c1.2,2.4,3.2,4.2,5.7,5.2
	c4,1.7,8.9,2.6,11.6,2.4s10.8-2.6,12.2-3.2s3.8-1.8,4.3-2.1s2.2-1.7-0.3-0.5s-9.1,4.1-13.4,4.6c-3.7,0.5-7.5,0.3-11.2-0.4
	c-2.1-0.8-4.2-1.8-6-3.2C70.9,133,70.2,132.2,69.7,131.4z"/>
<path style="fill:#C22F2E;" d="M81.9,159.5c0.4-0.2-1.4-1-1.7-2.3c-0.3-1-0.4-2.1-0.3-3.1c0.1-0.8,0.6-1.8,0.2-1.6s-0.5,1.2-0.9,2.1
	s-1,2-0.6,3s0.6,2,1.1,1.9S80.9,159.9,81.9,159.5z"/>
<path style="fill:#92191C;" d="M119.3,130c-0.2,0-0.7-1.1,0.2-0.8s1.5,0.7,2.7,0.4c1-0.2,1.9-0.7,2.7-1.4c0.2-0.4,0.3,0.5-0.4,0.9
	c-0.7,0.6-1.6,1-2.4,1.3C121.1,130.4,120.2,130.3,119.3,130z"/>
<path style="fill:#92191C;" d="M117.5,131.6c0.7-0.1,1.2-0.1,1.4-0.3s-0.2-0.7-1.1-0.5c-1,0.2-2,0-2.8-0.5c-0.7-0.4-1.5-0.6-2.3-0.4
	c-0.9,0,0.1,0.3,0.5,0.6S116,131.9,117.5,131.6z"/>
<path style="fill:#92191C;" d="M114.4,134.1c-1.2-0.1-2.3-0.6-3.3-1.3c-0.6-0.5-1.1-1.4-0.6,0.1c0.7,1.2,2.1,2,3.5,2.1
	C115,134.8,114.4,134.1,114.4,134.1z"/>
<path style="fill:#92191C;" d="M114.1,139c-0.4-0.4-0.9-0.7-1.5-0.8c-1.2-0.4-2.3-0.8-3.4-1.5c-0.7-0.5-0.9-0.4-0.4,0.2
	c0.5,0.8,1.3,1.5,2.2,1.9c1.1,0.5,1.2,0.8,1.9,1.1s1.2,0.3,1.2,0C114.1,139.6,114.2,139.3,114.1,139z"/>
<path style="fill:#92191C;" d="M112.4,143.2c0.8,0.1,1.1,0.3,1.4,0.3s0,0.4-0.3,0.9s-6.2,6.5-6.9,7.1s-1.6,0.6-1.1,0s2-1.9,2.8-2.9
	c0.9-0.9,1.6-1.8,2.3-2.8c0.5-1-0.7-1.5-1.4-2.2s-1.7-1.5-2.2-2.2s0-1.7,0-1.7c0.2,1.1,1,1.9,2,2.3
	C110.5,142.6,112.4,143.2,112.4,143.2z"/>
<path style="fill:#92191C;" d="M73.1,43.9c-0.2-1.2,1.2-2.1,1.8-2.5s1-0.2,1.6,0s1.5,0.9,2.1,1.1s0.5-0.1,1.1-0.8
	c0.4-0.6,0.9-1.2,1.4-1.8c0.7-0.8,1.2-0.8,1.7-1.3c0.8-0.4,1.7-0.6,2.6-0.5c0.3,0.1,0.2,0.4-0.5,0.8c-1,0.4-2,0.9-2.8,1.5
	c-0.5,0.6-1.5,1.3-1.3,1.4c0.4,0,0.9,0,1.3-0.1s0.9-0.1,1.3,0c0.6,0.2,0.8-0.1,1.5-0.7s2.8-0.9,4-1c1.1-0.1,2.1-0.2,3.2-0.1
	c1.5,0.2,2.9,0.7,4.3,1.3c0.6,0.4,1.2,0.8,1.7,1.3c0.4,0.3,0.5,1.2-0.6,0.3c-0.7-0.7-1.6-1.2-2.6-1.5c-0.8-0.2-1.6-0.4-2.4-0.5
	c-1.4-0.2-3.3-0.5-4.6,0c-0.9,0.3-1.7,0.7-2.6,1.1c-0.7,0.4-0.7,0.8-0.9,1s0.7,1.3,0.7,1.8c1.8-1.4,4-2.1,6.2-1.9
	c1.4,0.1,2.8,0.6,4,1.4c1.2,0.6,1.6,2.3,1.9,3.1c0.3,1,0.6,1.9,1,2.9c0.6,1.1,0.9,2.8,3.1,3.8s3.6,1.2,4.5,2.5s1.9,2.4,2.1,2.7
	c0.3,0.5,0.5,1,0.6,1.5c0,0.5,0.4,1.2-0.3,1.2s-0.9-0.7-1.2-1.9c-0.2-1.4-1.1-2.7-2.2-3.5c-1.3-0.7-3.7-1.5-4.6-2.2
	s-2.7-1.5-3.4-5.9c-0.5-1.9-1.7-3.6-2.5-3.8s-2.7-1.2-4.2-1c-1.2,0.1-2.4,0.4-3.5,1c-1,0.6-1.7,1-1.7,1.2s-0.3,1,0,1.1
	s0.2-0.3,1.4-0.1c0.9,0.1,1.8,0.2,2.8,0.3c1.1,0.2,2.1,0.7,2.9,1.3c1,1,1.8,2.2,2.3,3.5c0.4,1.6,0.5,3.2,0.4,4.8
	c-0.1,1-1,1.5-1.3,2.3s-0.8,1.4-0.3,2.1c0.3,0.7,0.8,1.3,1.3,1.8c0.4,0.2,1.3,0.4,0.8,0.6s-1.2,0.7-1.6,0.2
	c-0.8-0.7-1.2-1.6-1.4-2.6c0-1,0.2-2,0.7-2.8c0.4-1,0.7-2,0.7-3c0.2-1.3,0-2.5-0.5-3.7c-0.7-1.4-1.8-2.6-3.1-3.5
	c-1.2-0.7-3.7-1.2-5.1-0.6s-1.8,1.2-1.1,1.2c0.8-0.1,1.7-0.1,2.5,0c1,0.3,1.9,1,2.4,2c0.5,0.8,0.8,1.7,0.6,2.7
	c-0.1,1-2.8,4.8-4.1,5.7s-4.4,2.3-4,4.3c0.4,2,0.4,3,1.1,3.4s-1.6-0.8-2-1S79.8,63,80,62.6s1.4-2.3,2.2-2.6c1.4-0.9,2.7-2,3.8-3.2
	c0.6-0.8,2.5-2.9,2.1-4.3c-0.3-1.1-1-2.1-1.9-2.7c-0.8-0.5-1.7-0.8-2.6-0.9c-0.8,0-0.9,0.5-1.8,1.1s-1.8,1-2.7,0s-4.4-3.1-4.9-3.8
	C73.7,45.6,73.3,44.8,73.1,43.9z"/>
<path style="fill:#C3C5C4;" d="M68.8,104.5c0,0,1.2,8.2,3.9,10.1c-1.2,2.3-1.6,5-1.1,7.5c0.6,4.3,3.5,7.9,8,8.7s13.4,0.8,20.1-2.6
	s12.2-7.8,15-13.7c1.8-4,3.3-8.3,4.3-12.6c0.3-0.8,0.4-1.7,0.3-2.5c-0.1-0.4,0.2-1.4-1-0.4s-2.6,4.1-7.9,6s-14.9,6.2-25.7,4
	S74.7,108.4,68.8,104.5z"/>
<path style="fill:#C3C5C4;" d="M91.2,89.4c-0.8-0.3-1.1-0.4-1.2-0.8c-0.3-0.8,0.9-1.6,1.5-2.1c1.4-1.1,2.9-1.9,4.5-2.4
	c-0.3,1-1.6,2.9,0,5.5C94.4,89.7,92.8,89.7,91.2,89.4z"/>
<path style="fill:#C3C5C4;" d="M112.6,83.1c-0.6-0.1,0.9,0.6,1,2.7c0.2,2.8-0.3,2.8-0.6,3.4c1.6,0,6.4,0,7-0.2s1.1-0.4,1.1-0.8
	S119.2,84.2,112.6,83.1z"/>
<path style="fill:#C3C5C4;" d="M76.7,84.9c0.5,0.7,1,1.5,1.3,2.3c0.2,0.8,0.8,2.6,0.3,3.2c1.7,0,3.3-0.2,5-0.4
	c0.6,0,0.9-1.1,0.2-1.6S80,85.4,76.7,84.9z"/>
<path style="fill:#C3C5C4;" d="M61.5,85.3c-0.3,0.6-0.4,1.3-0.5,2.1c0.2,1.2,0.5,2.3,0.9,3.4c-1.2,0-3.2-0.3-4-0.3s-1.5-0.4-1.4-1.3
	S58.6,85.8,61.5,85.3z"/>
<path style="fill:#221E1F;" d="M63,84.6c-0.7,0.2-1,1.6-1.1,2.1s-0.6,2.9,0.5,4c2.6,0,14.5-0.3,14.5-0.3s0.7-3.7-1.6-5.9
	C71.3,83.7,67.1,83.7,63,84.6z"/>
<path style="fill:#221E1F;" d="M97,83.7c-0.2,0.1-2.2,4.2,0.5,6c3.6-0.2,12.5-0.6,13.4-0.4c1.5-1.1,3-4.7,0.2-6.4
	C106.5,82,101.6,82.2,97,83.7z"/>
<path style="fill:#FFFFFF;" d="M60.7,87c-0.8,0.4-1.5,0.9-2.2,1.5c-0.6,0.4-0.5,1.2,0,1.2s2.2-0.4,2.5,0c0.6,0.4,1.4,0.5,2.1,0.1
	c0.5-0.3,0.7-0.9,0.5-1.4c0-0.5-0.3-1-0.8-1.2C62.2,87,61.4,86.9,60.7,87z"/>
<circle style="fill:#FFFFFF;" cx="64.7" cy="88.2" r="0.9"/>
<path style="fill:#FFFFFF;" d="M76.3,86.9c-0.5,0-1.2,0.3-1.2,0.6s0,0.9,1.5,0.9c0.8,0.1,1.5,0.4,2.1,0.9c0.3,0.3,1.2,0.2,1.5,0
	s0.3-0.6,0-0.9C79,87.7,77.7,87.1,76.3,86.9z"/>
<path style="fill:#FFFFFF;" d="M112.5,85c-0.6,0.1-1.2,0.2-1.7,0.4c-0.2,0.1-0.2,0.3,0,0.7c0.5,0.4,1.1,0.7,1.7,0.6
	c0.5,0,1,0,1.4,0.2c0.6,0.2,0.7,0.1,1.4,0.3s1.2,0.5,1.6,0s0.1-1-0.6-1.2S113.8,84.8,112.5,85z"/>
<path style="fill:#FFFFFF;" d="M95.4,86.3c0.6,0,2.4-0.4,2.5,1.2c0,0.9-0.8,1.7-1.7,1.7c-0.2,0-0.3,0-0.5-0.1c0,0.2,0.1,0.4,0.2,0.6
	c0,0-4.2,0-4.7-0.1S89.7,89,90,88.5S94.3,86.3,95.4,86.3z"/>
<circle style="fill:#FFFFFF;" cx="99.5" cy="86.6" r="0.9"/>
<path style="fill:#FFFFFF;" d="M71.6,109.2c0,0,3.1,6.3,4.8,7.2s13,4.4,21.6,2.2c3.2-0.7,6.3-1.8,9.2-3.3c1.2-0.8,2.3-1.6,3.4-2.5
	c0.2-0.3-1.2,1.9-1.9,2.2s-9.8,5.7-19,4.8c-9.4-1.1-12.1-1.4-16.7-4.7c-0.8,1.7-2.5,7.7,0,11s6.9,6.1,15.2,4.8s16.8-5.1,20.3-10
	c2.8-4.1,5-8.7,6.4-13.4c0.2-1.2-0.5-0.7-2.1,0.2s-15.3,7-24.9,5.7S72.3,109.7,71.6,109.2z"/>
<path style="fill:#D46A6A;" d="M91.6,74.1C92.1,73,93,72,94,71.2c0.9-0.6,1.8-1.1,2.8-1.5c1-0.3,2.3-0.9,2.3-1.6s0.1-2-1.2-2.2
	c-1.7,0-3.4,0.4-4.9,1.2c-1.1,0.7-3.9,2.2-4.7,4.8s-1.7,5.5,0,5.8s1.5,0.4,2.1-0.3C90.9,76.4,91.3,75.3,91.6,74.1z"/>
<path style="fill:#D46A6A;" d="M61.9,72.9c0.6-0.6,2.3-2.4,3.6-2.8s1.8-4.2,0-3.9c0.8-0.6,1.7-1.2,2.6-1.6c-2.1,0.3-4.1,1-5.9,2.2
	c-1.6,1-3.1,2.3-4.5,3.7c0.3-2.4,1.8-7,5.6-9.3c2-1.1,3.6-2.6,4.7-2.9c-3.3,0.3-6.2,1.9-8.3,4.5c-2.7,3.9-4.2,5.9-4.3,9.9
	c-1.4,4.5-1.2,9.4,0.8,13.8c-0.5,0.6-1.7,2.4-0.2,2.9c0.7-1.6,1.5-4,7.2-5.8c0.9-0.2,1.8-0.5,2.6-1c0.2-0.1-0.5-1-1.9-0.5
	s-5.5,1.6-6.8,3.2c-0.6-2.3-0.8-4.7-0.6-7.1c0.5,1.3,2,2.1,2.8,1.7c1-0.5,1.6-1.6,1.4-2.7C60.2,75.8,61.3,73.4,61.9,72.9z"/>
<path style="fill:#C22F2E;" d="M82.6,58.1c-0.9,0.7-2.5,2-3.1,2.6c-0.5,0.5-0.7,1.2-0.8,1.9c-0.1,0.6-0.4,2.3,0.4,2.6s1,1.2,1.5,0.7
	s-0.1-1.5,0-2.5c0-1.1,0.6-2.2,1.6-2.8c1.1-0.7,2-1.5,2.9-2.5C85.9,57.2,84,57,82.6,58.1z"/>
<path style="fill:#C22F2E;" d="M94.4,56.2c0.5-0.4,1-0.9,0.8,0.1s-0.3,1.5-0.5,2.2s-0.9,1.2-0.3,2s1,1.1,1.1,1.6s0.2,1.6-0.7,1.3
	s-1.8-0.2-2-1.7s-0.4-1.8,0.4-2.9C93.8,58,94.2,57.1,94.4,56.2z"/>
<path style="fill:#D46A6A;" d="M75.4,59.5c-0.8,0.5-1.7,1.1-1.9,1.9s0.1,1.2-0.1,1.8s0.2,0.8-1.3,0.7c-0.8,0-0.8-1.3-0.6-2
	s0.2-2,1-2.4s1.1-0.9,1.9-1.1c0.7,0,1.4-0.1,2.1-0.4c0.5-0.3,1-0.6,1.6-0.8c0.7-0.3,1.5-0.5,2.3-0.5c0.9,0,2.6-0.1,1.6,0.5
	c-1.3,0.7-2.8,1.3-4.2,1.6C76.9,58.9,76.2,59.1,75.4,59.5z"/>
<path style="fill:#D46A6A;" d="M57.6,96.5c0.3-0.5,0.6-1,0.8-1.5c0.1-0.5-0.3-1.2-0.9-1.1S56.3,95.6,56,96s-2.1,3.6-1.4,6.8
	c1.3,6,3,6.5,5,7.4c0.1-0.6,0.8,5.5,2.5,12.4c0.7,6,2.2,11.9,4.2,17.5c1.3,3.8,1.9,3.6,1.6,2.8s-4-14.6-4.3-16.5s-2.2-12.6-2.3-13.3
	s-0.5-2.6-0.5-2.6s1.3,0.4,1.4,0.1s0.5-0.5-0.6-1.2c-1.1-0.6-2-1.3-2.9-2.2c-1.1-1.4-1.8-3-2.3-4.7c-0.2-1.3-0.1-2.6,0.2-3.9
	C56.9,98,57.2,97.2,57.6,96.5z"/>
<path style="fill:#D46A6A;" d="M65.5,96.4c-0.8,0.1-1.5,0.4-2,0.9c-0.6,0.6-1,1.3-1.2,2.2c-0.1,0.9-0.3,2.5,0.4,3.2s1.6,1.9,2.3,1.4
	s0.4-1.4,0.1-2.5c-0.2-0.8-0.2-1.6,0-2.4c0.2-0.9,0.7-0.4,1.1-0.8s0.8-1.2,0.3-1.6C66.2,96.6,65.8,96.5,65.5,96.4z"/>
<path style="fill:#D46A6A;" d="M69,154.6c0.1,0.9,1.7,5.2,5.8,5.8s5.8,0.1,6.8-0.2c1.1,0.6,6,2.9,10.5,0.8c2.8-1.4,5.5-3.2,7.9-5.2
	c0.7-0.3,0-1.3-0.6-1s-7.5,5.8-11.5,5.6s-6-0.8-6.7-1.2s-0.7,0.4-2.4,0.4s-4.4,0.5-6.7-1.6C70.3,156.3,68.9,153.9,69,154.6z"/>
<path style="fill:#D46A6A;" d="M85.7,173.2c0-1.3-0.1-2.1,0-3.5s0.1-3.5-1.3-2.8s-1.5,1.8-1.5,3.1s0,7.3,0,7.8
	c0.1,0.5-0.1,1.1-0.6,1.4c-0.5,0.4-8.4,6.5-9.8,7.2s-5.2,3.3-3.7,3.4s27.2,0.1,28.8,0s5.1,0,5.3-0.5s-1.3-0.5-2.3-0.5
	s-20.1-0.7-21.1-0.9s-2.2-0.7-1.1-2.1s6.9-6.5,7.2-6.9S85.7,173.2,85.7,173.2z"/>
<path style="fill:#60BA46;" d="M78.3,51.8c-1-0.1-3.2-2.5-3.7-3.1c-0.7-0.8-1.2-1.8-1.4-2.8c-0.1-1.4-0.2-3.6,2.7-3.9
	c1.9-0.2,2.9,2.2,2.9,2.2c0.3-0.4,0.6-0.8,0.9-1.2c0.4-0.3,2.1-1.5,3.4-0.3c1.9,1.6,1.6,4.2-0.1,5.9S79.9,52,78.3,51.8z"/>
<path style="fill:#C22F2E;" d="M42.3,104.9c-0.5-0.4-1.1-0.4-1.6,0c-0.8,0.6-1.6,2.6-1.2,5.7s0.6,3.8,0.6,3.8l2.1,0.4l-0.9-3.4v-4.1
	c0.4-0.4,0.8-0.9,1.2-1.4C42.4,105.6,42.3,105.2,42.3,104.9z"/>
<path style="fill:#E75151;" d="M40.1,113.3c0,0,1,1.2,1.8,1.2s0.1-1.5-0.1-2.9s-0.9-3.8,0-5s0.5-2.4-0.5-1.5
	C40.1,106.3,39.3,109.5,40.1,113.3z"/>
</svg>
