<?xml version="1.0" encoding="utf-8"?>
<!-- Generator: Adobe Illustrator 22.0.0, SVG Export Plug-In . SVG Version: 6.00 Build 0)  -->
<svg version="1.1" id="Слой_1" xmlns="http://www.w3.org/2000/svg" xmlns:xlink="http://www.w3.org/1999/xlink" x="0px" y="0px"
	 viewBox="0 0 62.3 67.2" style="enable-background:new 0 0 62.3 67.2;" xml:space="preserve">
<title>Монтажная область 19</title>
<path style="fill:#9F6934;" d="M19.7,55.2c-3.2,0.3-6.4-0.9-9.7-0.3c-0.9,0.2-4.2,0.9-4.5,1.8s1.8,1.7,2.5,2
	c-1.4,0.5-2.8,0.8-4.2,1.3c-0.9,0.3-2.7,0.6-1.7,1.6c1.1,1.2,4.9,1,6.3,1c3.3,0,6.6-0.2,9.9-0.6c2.2-0.2,4.8-0.7,7,0
	c1.5,0.6,3.1,1.2,4.7,1.5c3.3,0.3,6.5,0.3,9.8,0.2c4.1,0,8.3,0.1,12.4-0.3c1.1-0.1,6.5-0.3,4.6-2.3c-1-1.1-3.3-1.5-4.7-2.1
	c1-0.4,2.6-1,1.6-2.1c-1.3-1.5-5.4-1.4-7.2-1.6c-3.3-0.3-6.7-0.4-10-0.3L19.7,55.2z"/>
<ellipse style="fill:#9F6934;" cx="23.3" cy="64.4" rx="5.6" ry="1.4"/>
<ellipse style="fill:#9F6934;" cx="13.1" cy="64.4" rx="2" ry="0.6"/>
<ellipse style="fill:#9F6934;" cx="57.1" cy="58.5" rx="2.4" ry="0.9"/>
<path style="fill:#786333;" d="M25.3,59.2c-0.3,0-0.5-0.2-0.5-0.5c0-0.1,0-0.2,0.1-0.2c0.7-1.3,1.8-2.3,3.1-3l-0.8-7.6L27,47.8
	l-0.6-0.1c-1.2-0.1-2.3-0.5-3.3-1.2c-0.5,0.1-0.9,0.1-1.4,0.1c-0.7,0-1.4-0.1-2.1-0.2c-0.3-0.1-0.5-0.1-0.8-0.2h-0.1
	c-0.2-0.1-0.4-0.2-0.6-0.3c-1-0.4-1.9-1.1-2.6-2l-0.4-0.5c-0.3-0.4-0.6-0.8-0.9-1.3c-1.1-1.6-1.8-3.5-2.1-5.4c-1-0.4-3.3-1.5-4-2.9
	c-0.4-0.8-0.8-1.6-1.3-2.3c-0.8-1.1-0.7-1.8-0.4-2.2c-0.1-0.4-0.1-0.9,0.1-1.3c0.1-0.3,0.4-0.5,0.7-0.5c0-0.2,0-0.5,0.1-0.7l0.1-0.2
	c0.3-0.7,1-1.2,1.8-1.3l0,0h0.2l0,0c0.2,0,0.4,0,0.6,0.1c0.2,0.1,0.3,0.2,0.4,0.4h0.2h0.3c0.6,0.1,1,0.8,1.1,1c0,0,0,0.1,0,0.1
	c0.2,0.3,0.3,0.7,0.4,1c0.1,0.2,0.1,0.4,0.1,0.5c0.1,0.3,0.1,0.6,0,0.9c0,0.4-0.2,0.8-0.5,1.1l0,0l0.3,0.1h0.1
	c0.1-0.5,0.2-1.2,0.4-2c0.2-1.4,0.6-2.7,1.2-4l0,0c0-0.4,0-0.9,0-1.4c-0.1-1.6,0.2-3.1,0.8-4.6c0.1-0.4,0.3-0.8,0.5-1.1
	c-1.5,0-3-0.4-4.4-1.1C9.9,15.9,9.9,15.3,10,15c0-0.1,0-0.1,0.1-0.2c0.1-0.5,0.6-1.2,3.2-2c1.4-0.5,2.8-0.9,4.3-1.3l1-6.4
	c0-0.4,0.3-2.2,3.8-2.5c1.7-0.2,3.5-0.4,5.2-0.4c1.8,0,7.9,0.2,9.1,2.4c0.6,2.1,1.1,4.3,1.4,6.5c0.1,0.9,0.3,1.8,0.4,2.1
	c0.3,0.1,1,0.3,1.6,0.5c1.3,0.3,2.6,0.8,3.9,1.4c0.3,0.2,1,0.7,0.8,1.3c0,0.1,0,0.2-0.1,0.4c-0.1,0.2-0.4,0.8-3.6,1.3
	c0.1,0.4,0.2,1,0.2,1.4s0.1,0.6,0.2,0.7v0.1l0.4,0.6c0.3,0.4,0.6,0.8,0.8,1.3l0.3,0.6c0.1,0.1,0.2,0.3,0.3,0.5c0.6,1,1.1,2,1.5,3
	l0.4,0.9c0.1-0.3,0.1-0.7,0-1c-0.8-2-0.7-3.4,0.3-4.2c0.4-0.3,0.9-0.6,1.4-0.6c0.2,0,0.5,0.1,0.7,0.2c0.2-0.3,0.5-0.4,0.9-0.4
	c0.7,0,1.2,0.4,1.5,1.1l0.2,0.5c0.3,0.1,0.5,0.3,0.7,0.6c0.1,0.1,0.1,0.2,0.2,0.3c0.2,0.2,0.3,0.5,0.2,0.8c0,0.2-0.1,0.4-0.2,0.7
	c0,0.1,0,0.2,0.1,0.3c0,0.1,0.1,0.3,0.1,0.5c0,0.4-0.2,1.2-1.5,1.5l-0.2,0.1c-0.1,0-0.1,0.1-0.2,0.2c0,0.2,0,0.4,0,0.6
	c0.2,0.9,0,1.9-0.5,2.7c-0.2,0.4-0.5,0.8-0.8,1.1c-0.2,0.2-0.4,0.4-0.5,0.6c-0.3,0.4-0.6,0.7-0.8,0.9c0,1.6-0.3,3.1-0.7,4.7
	c-0.4,1.6-1.3,3.1-2.5,4.2c-0.4,0.4-0.8,0.7-1.3,0.9l0,0c-0.6,0.4-1.3,0.7-2,0.8c-0.6,0.2-1.2,0.3-1.8,0.4L38,44.8l-0.2,0.1
	c-1,0.8-2.2,1.5-3.4,2l0.8,7.5c2.4,0.4,3.2,1.8,3.4,2.4c0,0.1,0.1,0.3,0.1,0.4c0,0.3-0.2,0.5-0.4,0.5L25.3,59.2z M47.5,23.4
	c-0.1,0.1-0.2,0.2-0.2,0.4c0,0.2,0,0.4,0.1,0.6c0.3,0,0.5-0.2,0.6-0.4l0,0l-0.2-0.2C47.7,23.7,47.6,23.5,47.5,23.4z"/>
<path style="fill:#FFFFFF;" d="M27.6,2.8c4.1,0,7.9,0.7,8.6,2.2c0.6,1.4,1.5,8.6,1.7,8.9s4.6,1.2,5.6,1.9c0.4,0.3,0.7,0.5,0.6,0.8
	c0,0.1,0,0.1,0,0.2c-0.3,0.6-3,1-3.7,1.1c0.1,0.5,0.2,1.3,0.3,1.9c0.1,0.3,0.2,0.6,0.2,0.8l0.1,0.1l0.4,0.7c0.3,0.4,0.6,0.9,0.8,1.3
	l0.3,0.6c0.1,0.1,0.2,0.3,0.3,0.5c0.6,0.9,1,1.9,1.4,2.9l0,0c0.2,0.5,0.4,0.9,0.6,1.3c0.1,0.2,0.2,0.3,0.3,0.3c0.1,0,0.1,0,0.2-0.1
	c0.4-0.6,0.5-1.3,0.3-1.9c-0.2-0.5-1.1-2.6,0.1-3.6c0.3-0.3,0.6-0.5,1-0.5c0.3,0,0.5,0.2,0.6,0.5c0.1,0.2-0.5,0.8-0.6,1.1
	s0,1.1,0.5,1.2h0.1c0.5,0,0.9-0.3,1.1-0.8l0,0c0-0.1,0-0.2,0-0.3c-0.2-0.4-1.1-1-0.8-1.6c0.1-0.2,0.3-0.4,0.6-0.4
	c0.5,0,0.8,0.3,1,0.8l0.3,0.7c0.3,0,0.5,0.2,0.7,0.4c0,0.1,0.1,0.1,0.1,0.2c0.1,0.1,0.2,0.3,0.2,0.5c0,0.4-0.1,0.6-0.2,0.6l0,0
	l0.1,0.1c0,0.1,0.1,0.2,0.1,0.3l0,0c0,0.1,0,0.3,0,0.4l0,0c0,0,0.1,0.7-1.1,1.1c-0.1,0-0.2,0.1-0.3,0.1c-0.2,0.1-0.3,0.3-0.4,0.5
	c-0.1,0.6,0.3,2-0.4,3.1l0,0c-0.2,0.4-0.4,0.8-0.7,1.1c-0.2,0.2-0.3,0.4-0.5,0.6c-0.5,0.6-0.9,1.1-0.9,1.1c0,1.6-0.3,3.1-0.6,4.6
	l0,0c-0.4,1.5-1.2,2.9-2.3,4c-0.4,0.3-0.8,0.6-1.2,0.9l0,0c-0.6,0.4-1.2,0.6-1.8,0.8c-0.6,0.2-1.2,0.3-1.8,0.4l-0.4,0.2l-0.2,0.2
	c-1.1,0.9-2.3,1.6-3.7,2.2L34,47l0.8,7.8c2.5,0.3,3.2,1.5,3.3,2.1c0,0.1,0.1,0.2,0.1,0.3l-1.3,0.1l-11.6,1.3
	c0.8-1.3,1.9-2.3,3.2-2.9l-0.9-8.1c-0.1-0.1-0.2-0.2-0.3-0.3l-0.7-0.1c-1.2-0.1-2.3-0.6-3.3-1.2c-0.5,0.1-1,0.1-1.5,0.1
	c-0.7,0-1.3-0.1-2-0.2c-0.3-0.1-0.5-0.1-0.7-0.2l0,0l0,0l-0.5-0.2c-1-0.4-1.8-1.1-2.5-1.9c-0.1-0.2-0.3-0.3-0.4-0.5
	c-0.3-0.4-0.6-0.8-0.9-1.2l0,0c-1.1-1.7-1.8-3.6-2.1-5.5c-0.6-0.3-3.3-1.4-4-2.7c-0.4-0.8-0.8-1.6-1.3-2.4c-0.4-0.6-0.8-1.4-0.3-1.8
	h0l0,0l0,0c-0.1-0.2-0.4-1.2,0.4-1.4l0,0h0.2c0.1,0,0.2,0,0.2,0l0,0c-0.2-0.3-0.2-0.7-0.1-1l0,0v-0.1v-0.1l0,0
	C8,26.3,8.5,26,9.1,25.9h0.1h0.2l0,0c0.1,0,0.2,0,0.4,0.1l0,0c0.1,0.1,0.2,0.1,0.2,0.3c0,0.2,0,0.3,0,0.5l0,0
	c0.2-0.1,0.4-0.2,0.6-0.2h0.3c0.4,0.1,0.7,0.7,0.7,0.7h-0.1c0.2,0.3,0.5,0.6,0.6,0.9c0,0.2,0.1,0.3,0.1,0.5c0,0.2,0,0.5,0,0.7l0,0
	c0,0.3-0.2,0.6-0.4,0.8l-0.1,0.1c-0.3,0.4-0.1,0.6,0.3,0.7l0.3,0.1c0.2,0,0.5,0.1,0.7,0.1l0.1-0.3l0,0c0.1-0.5,0.2-1.3,0.4-2.1
	c0.2-1.3,0.6-2.6,1.2-3.9l0.1-0.2c0-0.5-0.1-1-0.1-1.4c-0.1-1.5,0.2-3,0.7-4.4l0,0c0.2-0.6,0.6-1.3,0.9-1.8c-0.1,0-0.2,0-0.3,0h-0.3
	c-1.5,0-3-0.3-4.4-1c-0.6-0.4-0.6-0.7-0.6-0.9c0-0.1,0-0.1,0.1-0.1v-0.1l0,0c0,0,0-0.8,2.8-1.6l0,0c1.5-0.5,3-1,4.5-1.3l1.1-6.8
	c0,0-0.1-1.8,3.3-2C24.1,2.9,25.8,2.8,27.6,2.8 M9.2,27.5L9.2,27.5c0.1,0.4,0.3,0.7,0.5,1l0,0c0.1,0.1,0.1,0.1,0.2,0.2h0.4
	c0.2-0.1,0.3-0.3,0.3-0.5c0,0,0-0.1,0-0.1L10.4,28l-0.1-0.1l0,0c-0.1-0.1-0.3-0.3-0.4-0.5c-0.1-0.1-0.1-0.3-0.1-0.5
	c0,0.1-0.1,0.1-0.1,0.2l-0.1,0.1l0,0H9.6l-0.1,0.1l0,0l-0.2,0.1H9.2 M10.4,27.8L10.4,27.8L10.4,27.8L10.4,27.8 M10.6,28L10.6,28
	L10.6,28 M27.5,1.6c-1.8,0-3.5,0.1-5.3,0.4c-3.7,0.3-4.1,2.3-4.2,2.9l-1,6c-0.9,0.2-2.5,0.7-4,1.2c-2.1,0.7-3.3,1.4-3.5,2.3
	c0,0.1,0,0.1-0.1,0.2c-0.1,0.4-0.3,1.3,0.9,2.1c1.2,0.7,2.5,1.2,3.9,1.4c-0.1,0.2-0.1,0.3-0.2,0.5c-0.6,1.5-0.9,3.1-0.8,4.8
	c0,0.5,0,0.9,0,1.2c-0.4,0.8-0.7,1.6-0.9,2.5l-0.1-0.1c0-0.1,0-0.1-0.1-0.2c-0.3-0.6-0.8-1.1-1.4-1.2c-0.1,0-0.3,0-0.4,0
	c-0.1-0.1-0.2-0.2-0.4-0.3l0,0C10,25,9.7,24.9,9.4,24.9H9.3H9.1l0,0C8.2,25,7.4,25.6,7,26.4v0.1v0.1v0.1c-0.1,0.2-0.1,0.4-0.1,0.5
	c-0.3,0.2-0.5,0.4-0.6,0.6c-0.2,0.4-0.3,0.9-0.1,1.4c-0.3,0.9-0.1,1.9,0.6,2.6c0.5,0.7,0.9,1.4,1.3,2.2c0.7,1.4,2.8,2.5,4,3
	c0.4,1.9,1.1,3.7,2.1,5.4c0.3,0.4,0.6,0.9,0.9,1.3c0.1,0.2,0.3,0.4,0.5,0.5c0.8,0.9,1.7,1.6,2.8,2.1l0.6,0.3h0.1
	c0.3,0.1,0.5,0.2,0.8,0.3c0.7,0.2,1.5,0.3,2.2,0.3c0.4,0,0.9,0,1.3-0.1c1,0.6,2.2,1,3.3,1.1h0.3l0.7,7c-1.2,0.7-2.3,1.8-3,3
	c-0.3,0.5-0.1,1.1,0.4,1.3c0.1,0.1,0.3,0.1,0.5,0.1h0.1L37,58.4l1.3-0.1c0.5-0.1,0.9-0.5,0.9-1.1c0-0.2-0.1-0.4-0.1-0.5
	c-0.6-1.4-1.9-2.5-3.4-2.7L35,47.3c1.1-0.6,2.2-1.2,3.2-2l0.1-0.1l0.2-0.1c0.6-0.1,1.2-0.2,1.8-0.4c0.7-0.2,1.4-0.5,2.1-0.9
	c0.5-0.3,0.9-0.6,1.3-1c1.3-1.2,2.2-2.7,2.6-4.4c0.4-1.5,0.6-3,0.6-4.5l0.7-0.8c0.2-0.2,0.4-0.4,0.5-0.6c0.3-0.4,0.6-0.8,0.9-1.3
	c0.5-0.9,0.7-1.9,0.5-2.9c0-0.1,0-0.2,0-0.3l0,0c1.5-0.4,1.9-1.4,1.9-2c0-0.2,0-0.3,0-0.5v0v-0.2c0.1-0.2,0.1-0.4,0.1-0.6
	c0-0.4-0.1-0.8-0.3-1.2c-0.1-0.1-0.1-0.2-0.2-0.3c-0.2-0.3-0.4-0.5-0.7-0.6l0-0.1l-0.1-0.2c-0.3-0.8-1.1-1.3-1.9-1.4
	c-0.3,0-0.7,0.1-0.9,0.3C47.2,21.1,47,21,46.8,21c-0.6,0-1.2,0.3-1.7,0.7c-0.7,0.6-1.1,1.4-1,2.3l-0.5-0.8c-0.1-0.3-0.3-0.5-0.3-0.6
	L43,22.1l0,0c-0.2-0.5-0.5-0.9-0.8-1.3l-0.1-0.1l-0.3-0.4c0-0.2-0.1-0.4-0.2-0.7s-0.1-0.6-0.1-0.8c3-0.5,3.3-1.1,3.5-1.5
	c0.1-0.1,0.1-0.3,0.1-0.5c0.2-0.9-0.7-1.5-1-1.8c-1.3-0.7-2.6-1.1-4-1.4l-1.3-0.4c-0.1-0.4-0.2-1.2-0.3-1.8
	c-0.3-2.3-0.7-4.5-1.3-6.7V4.5C35.9,2,30,1.8,27.6,1.8L27.5,1.6z"/>
<rect x="28" y="46.4" transform="matrix(0.9944 -0.1061 0.1061 0.9944 -5.3 3.6055)" style="fill:#A18437;" width="6.4" height="10.4"/>
<path style="fill:#A18437;" d="M25.3,58.7c0,0,1.9-3.7,7.3-3.9s5.6,2.5,5.6,2.5L25.3,58.7z"/>
<path style="fill:#BC9738;" d="M18.1,11.9l1.1-6.8c0,0-0.1-1.8,3.3-2c5.7-0.8,12.7-0.3,13.8,1.8c0.6,1.4,1.5,8.6,1.7,8.9
	s4.5,1.2,5.6,1.9s1.2,1.2-3.3,2c0.6,2.6,0.5,2.8,0.9,3.3c1,1.6,1.9,3.2,2.7,4.9c0.9,2,1.1,2.4,1.4,2c0.4-0.6,0.5-1.3,0.3-1.9
	c-0.2-0.5-1.1-2.6,0.1-3.6s1.6-0.3,1.7,0s-0.5,0.8-0.6,1.1s0,1.2,0.6,1.2s1.3-0.6,1.1-1s-1.1-1-0.8-1.6s1.3-0.4,1.6,0.4l0.3,0.8
	c0,0,1,0.5,1,1.2s-0.3,0.7-0.5,0.7c0.3,0.5,0.2,1.2-0.3,1.5c-0.1,0.1-0.3,0.1-0.4,0.2c-1.1,0.4-0.8,1.6-0.8,2.2s0.2,1.8-2.7,4.1
	c0.2,2.9-0.7,6.9-2.9,8.7c-1.5,1.1-3.2,1.8-5,2c-1.3,0.9-2.6,1.7-4,2.5c-2,1.1-4.4,1.3-6.7,0.7c-1.4,0-2.8-0.5-4-1.2
	c-2.5,0.5-5.1-0.3-6.9-2.1c-3-2.8-3.5-7.4-3.5-7.4S9.3,35,8.6,33.3s-0.7-1.4-0.7-1.4s-1.5-1.4-1-2.1L7,29.5C6.8,29,6.9,28.4,7.3,28
	c0.2-0.1,0.4-0.1,0.7,0c0,0-0.3-1.4,0.9-1.8C9.4,26,9,26.7,9.1,27.3c0.1,0.4,0.3,0.9,0.6,1.2c0.7,1.3,0.4,1.1,0.8,0.6
	s1.1-2.3,1.4-1.3c0.5,0.9,0.2,2-0.7,2.6l0.1,0.3l1.5,0.4c0.3-2.1,0.8-4.2,1.5-6.1l0.2-0.4c-0.3-2.7,0.3-5.3,1.6-7.7
	c-0.5,0.2-5-0.3-5.4-1.7S18.1,11.9,18.1,11.9z"/>
<path style="fill:#A18437;" d="M31.1,46.5c2.7-0.7,5.5-1.8,6.2-2.5s3.6,0,5.9-2.3s2.4-6.1,2.5-8.2l0.1-0.4c0.9-0.5,1.7-1.3,2.2-2.2
	c0.5-0.9,0.6-1.9,0.4-2.9c0.2-1.1,1.1-1.1,1.4-1.2S49,26.6,49,26.6S47.7,27,47.6,28c0,2.1-1.8,3-2,2.1c-0.1-0.3-0.4-1.4-0.5-1.8
	s-0.9-0.3-1.1-1c-0.4-1.4-1.1-2.8-2-4c-0.7-0.7-1.3-1.7-1.6-2.6c-0.1-0.6-0.5-4.4-1.1-5.1S32,14.3,32,14.3s4.3,0.9,5,2.4
	s1.6,3.3,0.9,4.5c-1,1.8-3,2.7-5,2.4c-1.7-0.1-3.3-0.8-4.5-2c0,0,0.4,1.5,3.8,2.4c2.6,0.6,3.8-0.4,5.2-1.2c1.1-0.6,2.5-0.5,3.6,0.3
	c0.3,0.5,2.8,4.4,3,7.4s0.6,4.8-0.2,7.2s-4.2,3.7-5.9,2.7c-0.5,1-4,1.9-3.8,1.7c-1.9,2.2-4.8,3.2-7.6,2.8c-0.9-0.1-1.7-0.3-2.6-0.6
	c0,0-6.8,0.4-9.4-3.8l-1.1-1.9c0.4,1.7,1.2,3.3,2.3,4.6c1.1,1.4,2.5,2.4,4.2,2.9c1.1,0.3,2.3,0.3,3.5,0.1
	C25.8,46.9,28.5,47,31.1,46.5z"/>
<path style="fill:#A18437;" d="M27.8,14.3c-0.7,2.7-0.1,5.5,1.6,7.7c2.9,3.9,6.9,0.6,6.9,0.6S33.7,12.2,27.8,14.3z"/>
<path style="fill:#D0B674;" d="M28.6,20.7c-0.7-1.3-1-2.8-0.7-4.3c0.5-2.3,5-2.6,8.3-0.5s2.9,6.1,0,7.4C33.7,24.2,30,24,28.6,20.7z"
	/>
<path style="fill:#FFFFFF;" d="M29,21.4c0,0-1.4-3.1,0.3-4.8s6-1.6,8.1,1.4s-0.8,4.9-2.5,5.2S30.6,23.8,29,21.4z"/>
<path style="fill:#A18437;" d="M32.5,16.1c-1.2,0.1-2.2,0.8-2.8,1.9c0.4,0,0.8,0.4,0.8,0.8c0,0.5-0.4,0.9-0.9,1c-0.1,0-0.2,0-0.3,0
	l0,0c0.1,1.9,1.8,3.4,3.7,3.2c1.9-0.1,3.4-1.8,3.2-3.7c-0.1-1.9-1.8-3.4-3.7-3.2C32.6,16.1,32.6,16.1,32.5,16.1L32.5,16.1z"/>
<path style="fill:#17161B;" d="M32.5,16.2c-1.1,0.1-2.1,0.8-2.6,1.8c0.4,0,0.7,0.4,0.8,0.8c0.1,0.5-0.3,0.9-0.8,1c0,0,0,0,0,0
	c-0.1,0-0.2,0-0.3,0l0,0c0.1,1.8,1.7,3.2,3.5,3c1.8-0.1,3.2-1.7,3-3.5c-0.1-1.8-1.7-3.2-3.5-3C32.6,16.2,32.6,16.2,32.5,16.2
	L32.5,16.2z"/>
<path style="fill:#DDCB9C;" d="M24.5,25.8c0,0,0.5,3,2.5,4.1s2.5-0.6,2.6-0.7c0.1-0.3,0.1-0.6,0.1-0.9c0-0.2-0.1,0.1-0.1,0.1
	s0.1,1.2-1.4,1c-1.2-0.2-2.1-1-2.6-2.1c-0.3-0.6-1-2-1-2S24.4,25.3,24.5,25.8z"/>
<path style="fill:#A18437;" d="M29.3,2.8c0.5,1.6,0.8,3.3,0.7,5c-0.3,2.3-0.2,3-2.4,3.4S18,12,18,12s11,0.1,11.9,0.5
	s1.6,0.9,1.3,1.1s13,2.9,13,2.9l0,0c0-0.2-0.2-0.5-0.6-0.8c-1.1-0.8-5.5-1.6-5.6-1.9S36.8,6.3,36.2,5S32.7,3,29.3,2.8z"/>
<path style="fill:#A18437;" d="M17.2,24.6c0,0-2,0.9-1.5-4.7c0.1-3.2,2.9-5.8,6.1-5.6c0.3,0,0.6,0,0.9,0.1c1.6,0.5,2.8,1.9,3.1,3.6
	c0.7,2.4,0.6,4.2-0.5,5.7c-0.4-0.1-0.8-0.1-1.2-0.1c0.7-0.7,1.1-1.7,1.1-2.8c0-1.6-0.5-4-3.9-4.6c-2.4-0.4-4.7,1-5.4,3.3
	C15.8,20.6,15.6,24.1,17.2,24.6z"/>
<path style="fill:#DDCB9C;" d="M15.8,22.3c0,0,0,0,0-0.1c-0.1-0.7-0.1-4.4,3.1-5.7c2.2-1.1,4.8-0.2,5.9,1.9c0,0,0,0.1,0.1,0.1
	c-0.7-0.5-2.2-2.2-6.2-0.2c-1.5,1-2.4,2.6-2.6,4.4C15.8,24.3,15.8,22.3,15.8,22.3z"/>
<path style="fill:#FFFFFF;" d="M16,22.7c0-2.3,1.4-4.3,3.5-5.1c3.7-1.4,5.2,0.9,5.2,0.9c1,1.8,0.7,4-0.8,5.5
	c-2.5,2.8-6.7,0.8-7.1,0.5C16.3,24.1,16,23.4,16,22.7z"/>
<path style="fill:#BC9738;" d="M21.9,26.9c0.6-0.5,1.5-0.8,2-1.4c1.1-1,2.7,0.9,3.6,0.4c0.7-0.3-1.3-2.4-2.7-2.3
	c-1.5,0.1-2.9,0.5-4.3,0.9c-1.8,0.6-3.1,0.6-4.3-0.3c-0.3-0.4-0.9-0.4-1.3-0.1c-0.1,0.1-0.2,0.3-0.3,0.5l-0.2,0.4
	C13.5,26.8,21,27.7,21.9,26.9z"/>
<path style="fill:#A18437;" d="M20.4,17.8c-1.3,0.1-2.3,0.9-2.9,2.1c0.4,0,0.8,0.4,0.8,0.8c0,0.4-0.4,0.8-0.8,0.8
	c-0.1,0-0.2,0-0.3,0c0,0.1,0,0.1,0,0.2c0.2,1.9,1.9,3.4,3.8,3.2s3.4-1.9,3.2-3.8S22.4,17.6,20.4,17.8C20.5,17.8,20.4,17.8,20.4,17.8
	L20.4,17.8z M19.4,21.3c-0.4,0-0.7-0.3-0.8-0.6c0-0.3,0.2-0.5,0.5-0.6c0.2-0.1,0.5-0.1,0.7,0C20.1,20.3,19.6,21.3,19.4,21.3z"/>
<path style="fill:#D0B674;" d="M26.1,25.3c0.6,0.1,1.2,0.1,1.8,0c0.4-0.1,0.8-0.2,1.2-0.4c0,0,0.3,0.2,0,0.6c-0.8,0.6-2,0.7-2.9,0.2
	C25,25.1,26.1,25.3,26.1,25.3z"/>
<path style="fill:#786333;" d="M24.6,25c0.5-0.4,1.5,1,2.7,1c0.7,0.1,1.4-0.2,1.9-0.7c0,0,1.2,3.6-0.1,4.1c-2.8,0.8-4.4-4-4.4-4
	S24.2,25.4,24.6,25z"/>
<path style="fill:#786333;" d="M39.7,15.9l0.5,1.9c0,0,3.6-0.5,3.9-1.1s-4.4-1.3-4.4-1.3L39.7,15.9z"/>
<path style="fill:#C9AC60;" d="M23.6,43.2c0.6,1.2,2,1.9,5.3,1.6c3.5-0.7,5-2.7,5.2-3.2c0.5-1.8-1.1-2.5-3.1-1.8s-1.8,1.5-5.1,1
	C23.4,40.3,23,42,23.6,43.2z"/>
<path style="fill:#A18437;" d="M25.3,25.8c0.4,1.1,1.1,2.1,2,2.9c1.2,0.8,1.8,0.4,1.9,0.3c0.2-0.3,0.3-0.7,0.3-1.1
	c-0.1-0.7-0.2-1.5-0.4-2.2c-0.4,0.6-1.1,0.9-1.8,0.7c-1.4-0.2-1.6-0.6-1.6-0.6S25.2,25.4,25.3,25.8z"/>
<circle style="fill:#FFFFFF;" cx="31.6" cy="18.8" r="0.6"/>
<path style="fill:#17161B;" d="M20.4,18c-1.2,0.1-2.2,0.9-2.7,2c0.4,0,0.8,0.3,0.8,0.8c0,0.4-0.3,0.8-0.8,0.8c-0.1,0-0.2,0-0.3,0
	c0,0.1,0,0.1,0,0.2c0.2,1.8,1.8,3.2,3.6,3.1c1.8-0.2,3.2-1.8,3.1-3.6C24,19.2,22.3,17.9,20.4,18C20.5,18,20.5,18,20.4,18L20.4,18z
	 M19.2,21.1c-0.3,0-0.5-0.2-0.5-0.4c0-0.3,0.2-0.5,0.4-0.5c0.3,0,0.5,0.2,0.5,0.4C19.6,20.9,19.4,21.1,19.2,21.1L19.2,21.1z"/>
<path style="fill:#786333;" d="M12.3,14.3c2.5-0.6,11.2-1.7,17.3-0.8s14,2.7,14.3,2.8c0.2,0,0.3,0.2,0.3,0.3c0,0,0,0.1,0,0.1
	l-7.5-1.6c0,0-8.6-1.7-13.9-1.6s-9.4,0.5-10.8,1.2c-0.3,0.1-0.5,0.3-0.6,0.6C11.1,15.9,9.3,14.9,12.3,14.3z"/>
<path style="fill:#786333;" d="M27.2,47.2c0,0,0.6,1.2,2.8,1.1c0.4,0,0.8-0.1,1.3-0.1c1-0.2,1.9-0.6,2.7-1.2l-0.1-0.7
	C33.9,46.3,32,47.4,27.2,47.2z"/>
<polygon style="fill:#A18437;" points="17.5,14.7 16.1,17 11.6,15.8 13,14.5 "/>
<path style="fill:#786333;" d="M11.1,15.8c7.5-1.8,15.3-2.1,23-0.9c12.6,2,5.3,0.8,5.3,0.8S27.5,13,20.9,13.4s-9,0.9-10,1.5
	C10.4,15.3,11.1,15.8,11.1,15.8z"/>
<path style="fill:#BC9738;" d="M10.1,29.4c0,0,0.7-0.7,0.5-1.1s-1.3-1.4-0.2-1.8c1.3-0.6,2,2.3,1.8,2.8s-0.6,1-0.7,1.3
	s0.8,0.7,1.4,0.8S13,33,13,33l-2.9-1.8L10.1,29.4z"/>
<path style="fill:#786333;" d="M10.7,15c0,0-0.5,0.4,0.4,1c1.5,0.7,3.1,1,4.7,1c1.2-0.1-1.6-0.5-2.7-0.9c-0.9-0.3-1.4-0.4-1.4-0.7
	C11.6,15.1,11.1,14.9,10.7,15z"/>
<polygon style="fill:#786333;" points="27.4,26.2 27.5,27.1 27.6,27.1 27.5,26.2 "/>
<path style="fill:#BC9738;" d="M29.4,27.4c-0.1-0.2-0.4-0.6-1.6-0.6c-0.7-0.1-1.3,0.5-1.4,1.1c0.2,0.3,0.5,0.5,0.8,0.7
	c0.4,0.3,0.8,0.4,1.2,0.5h0.2c0.2,0,0.3-0.1,0.5-0.2c0.2-0.3,0.3-0.7,0.3-1.1C29.5,27.6,29.4,27.5,29.4,27.4z"/>
<path style="fill:#786333;" d="M26.3,26c0,0,0,0.6,0.1,0.9s0.1,0.6,0.4,0.6c0.2,0,0.5-0.1,0.7-0.2c0.1-0.1,0.1-0.2,0.1-0.3
	c0-0.1-0.1-0.9-0.1-0.9L26.3,26L26.3,26z"/>
<path style="fill:#786333;" d="M27.5,26.8c0,0.3,0.2,0.6,0.5,0.7c0.2,0,0.4-0.1,0.6-0.2c0.1-0.1,0.1-0.2,0.1-0.3c0-0.3,0-0.7-0.1-1
	l-1.1,0.2C27.5,26.3,27.5,26.6,27.5,26.8z"/>
<path style="fill:#FFFFFF;" d="M27.5,26.3c0,0.4,0,0.6,0,0.6l0,0V26.3l-0.4,0c-0.3,0-0.5-0.1-0.8-0.2c0,0.3,0.1,1.2,0.3,1.3
	c0.2,0.1,0.5,0.1,0.7-0.1c0.1-0.1,0.2-0.2,0.1-0.3c0,0,0.3,0.5,0.7,0.4s0.5-0.3,0.4-0.7c0-0.2-0.1-0.4-0.1-0.6
	C28.2,26.2,27.8,26.3,27.5,26.3z"/>
<path style="fill:#A18437;" d="M48.5,24.1c-0.2,0.4-0.6,0.7-1.1,0.8c-0.1,0-0.1,0-0.2,0c0,0.5,0,1.1,0.1,1.6
	c0.3-0.4,0.8-0.5,1.3-0.5c0-0.1,0-0.2,0-0.4c0-0.2,0.5-0.5,0.5-0.7C49,24.5,48.8,24.2,48.5,24.1z"/>
<path style="fill:#A18437;" d="M16.2,23.8c0.5,0.6,1.3,1.1,2.1,1.2c1.3,0.2,5.6-1.9,7.2-1.3l0.5,0.2c-0.3-0.1-0.7-0.2-1.1-0.2
	c-0.9,0.1-1.8,0.3-2.7,0.6c-1.5,0.5-4,1.3-5.6,0.4C16.2,24.6,16.1,24.2,16.2,23.8z"/>
<polygon style="fill:#786333;" points="27.4,26.2 27.5,27.1 27.6,27.1 27.6,26.3 "/>
<path style="fill:#A18437;" d="M12.9,31.1l-0.1,1.8c-0.9-0.5-1.7-1-2.5-1.5c0-0.1-1.6,1.2-2.4-0.2c-0.6-0.9-0.6-1.9-0.2-2.9
	c0.3-0.6,1-2.2,1.4-0.7c0.1,0.4,0.6,1.3,1.1,1.2c0.2,0,0.4-0.3,0.3-0.5c0-0.1,0-0.1-0.1-0.2l-0.3-0.3c1.3,1.2,1.3-0.3,1.6,0.4
	c0.1,0.4,0.6,1-0.1,1.8C10.8,31.1,12.9,31.1,12.9,31.1z"/>
<path style="fill:#786333;" d="M50.3,25.3c0.4-0.4,0.4-1,0-1.5c-0.2-0.4-0.7-0.6-1.2-0.3c-0.2,0.1-0.3,0.2-0.4,0.4
	c0,0.4,0.1,0.7,0.2,1l0.2,0.3c0.1,0.1-0.3-0.8-0.2-1.1s0.6-0.4,0.9-0.3c0.3,0.1,0.5,0.4,0.5,0.7C50.4,24.7,50.4,25,50.3,25.3z"/>
<path style="fill:#BC9738;" d="M48.6,25.4c0,0,0.1-0.6,1.1-0.6s0.9,1.3,0.7,1.5c-0.2,0.3-0.5,0.5-0.8,0.6
	C49.3,26.9,48.3,26.7,48.6,25.4z"/>
<path style="fill:#786333;" d="M48.5,25.7c0,0-0.1-0.5,0.6-0.9c0.4-0.2,1-0.1,1.2,0.4c0,0,0,0,0,0.1c0.1,0.3,0.1,0.5,0.1,0.8
	c0,0-0.2-0.9-0.5-1c-0.4-0.1-0.8-0.1-1.1,0.1c-0.2,0.2-0.5,0.9,0.2,1.7C48.7,26.6,48.5,26.2,48.5,25.7z"/>
<path style="fill:#786333;" d="M50.5,26c0,0,0.1,0.7-1.1,1.1c-0.6,0.1-1,0.6-0.9,1.2c0,0.1,0,0.2,0.1,0.2c0,0-0.2-0.1-0.2-0.4
	c-0.1-0.5,0.3-1,0.8-1.1c0.5-0.1,0.9-0.4,1.1-0.8c0-0.2,0-0.4,0-0.6h0.1V26z"/>
<path style="fill:#786333;" d="M47.3,26.4c0.3-0.4,0.8-0.6,1.3-0.5C48.7,25.7,47.4,25.7,47.3,26.4z"/>
<path style="fill:#786333;" d="M22.1,26.6c0.5-0.7,1.2-1.2,2-1.6c0.4-0.2,0.9-0.1,1.2,0.2c0,0-0.5,0.1-0.8,0.2
	c-0.6,0.3-1.1,0.6-1.7,1C22.6,26.5,22.4,26.6,22.1,26.6z"/>
<path style="fill:#786333;" d="M8.8,30.7c0,0,0.5-1.9,1.2-1.9h0.9c0,0,0.1,0.1-0.3,0.1S9.8,29,9.6,29.3s-0.7,1.4-0.8,1.5l-0.2,0.2
	L8.8,30.7z"/>
<path style="fill:#DDCB9C;" d="M12.5,35.5c0.2,2.3,1,4.4,2.2,6.3c2,2.9,3,3.3,4.4,3.8c-1-0.9-3.8-3.3-4.7-5.7
	c-0.5-1.3-0.8-2.7-0.8-4.2L12.5,35.5z"/>
<path style="fill:#C9AC60;" d="M7,29.4c0,0-0.5-1.2,0.4-1.4s1.2,1,0.7,1.3C7.8,29.5,7.4,29.5,7,29.4z"/>
<path style="fill:#786333;" d="M10,27.5c-0.2-0.3-0.1-0.7,0.1-0.9c0.2-0.2,0.5-0.3,0.8-0.2c0.4,0.1,0.7,0.7,0.7,0.7
	c-0.2-0.2-0.4-0.4-0.7-0.5c-0.3-0.1-0.6,0-0.8,0.2C10,27,10,27.2,10.1,27.4c0.1,0.2,0.5,0.8,0.5,0.8L10.4,28
	C10.2,27.9,10.1,27.7,10,27.5z"/>
<path style="fill:#C9AC60;" d="M8.4,27.8c0,0,0.1-0.8,0.3-0.6s0.1,0.5,0.8,0.3s0.9-1.6,0.1-1.6c-0.9-0.1-1.7,0.6-1.8,1.5
	c0,0.8,0.3,0.9,0.3,0.9l0.4,0.2L8.4,27.8z"/>
<path style="fill:#786333;" d="M7.8,28c0.2,0.1,0.4,0.3,0.4,0.6c0,0.1,0,0.3,0,0.4c0,0,0.1,0.2,0.1-0.2S8.3,27.9,7.8,28z"/>
<path style="fill:#786333;" d="M8.4,28.4c0-0.3,0-0.7,0.1-1c0-0.1,0.1-0.2,0.2-0.2c0.1,0,0.2,0.1,0.2,0.2c0.1,0.2,0.1,0.2,0.3,0.2
	s0,0,0,0S9,27.6,9,27.5s-0.2-0.3-0.4-0.3s-0.3,0.1-0.3,0.4s-0.1,0.7-0.1,0.7v0.3L8.4,28.4z"/>
<path style="fill:#786333;" d="M9.4,25.8c0.3,0,0.5,0.1,0.6,0.3c0.1,0.4,0,0.8-0.3,1.1c-0.2,0.2-0.3,0.3-0.6,0.3c-0.1,0-0.2,0-0.1,0
	c0.2,0,0.4-0.1,0.5-0.3c0.1-0.1,0.2-0.3,0.3-0.5c0.1-0.2,0.1-0.4-0.1-0.6C9.8,26,9.7,25.9,9.4,25.8c-0.2,0.1-0.3,0.1-0.5,0.2
	C8.9,26,8.7,25.9,9.4,25.8z"/>
<path style="fill:#786333;" d="M7.8,28c-0.2-0.4-0.2-0.9,0-1.2c0.3-0.5,0.8-0.9,1.3-0.9v0c-0.3,0-0.5,0.1-0.7,0.3
	c-0.2,0.2-0.4,0.3-0.5,0.6c-0.1,0.2-0.2,0.3-0.2,0.5c0,0.2,0,0.4,0,0.5C7.8,27.9,7.8,27.9,7.8,28L7.8,28z"/>
<path style="fill:#A18437;" d="M35,26.3c1.6,1.5,8.5,3.9,1,7.4c-2.4,1.2-2.8,8.8-1.8,9.4s7.4-1.5,8.2-2.5c1.8-1.9,2.6-4.4,2.5-7
	c-1-7.7-2-7-3.3-9.7C39,18.3,33.7,25.1,35,26.3z"/>
<path style="fill:#786333;" d="M40.3,17.4c0,0,0.4,2.9,0.5,3.1c1.2,1.9,2.3,4,3.3,6.1c0.5,1.2,0.9,2.4,1.3,3.7
	c0.3,0.7,0.6,1.1,1.1,0.6s1.5-1.2,1.5-2s0.1-1.6,0.5-1.8l0.5-0.2l0.2,0.1c-0.4,0.1-0.7,0.3-0.7,0.7c-0.1,0.6,0.3,2-0.4,3.1
	S46,33.5,46,33.5c0,1.6-0.3,3.1-0.6,4.6c-0.4,1-1.7,5-6.1,5.7c-1.2,0.1-7.1,3.9-11.3,3.2c-1.6,0-3.2-0.4-4.7-1
	c-1.7,0.3-3.4-0.2-4.6-1.5c-0.3-0.3,0.4-0.6,0.9-0.3c1.2,0.7,2.6,1,3.9,0.7c0.4,0.1,0.7,0.2,1.1,0.3c0.4,0.1,8.2,1.3,10.9-2
	c1.1-0.5,2.4-0.9,3.6-1c1.8-0.7,3.7-1.6,4.6-3.5s1.3-3,1.2-4.6c0-0.6,0.1-1.1,0.3-1.7c-0.4-2.3-1.1-4.5-2.1-6.6
	c-0.6-1.2-1.4-2.4-2.2-3.5c-1-0.5-1.1-2.1-1.2-2.8s-0.3-1.9-0.9-2.1c-0.7-0.3-1.3-0.6-1.9-1c-0.8-0.6-1.7-1.2-2.7-1.6
	c1.6,0.2,5.6,0.9,6,1C40.3,16.4,40.3,17.4,40.3,17.4z"/>
<path style="fill:#C9AC60;" d="M8.1,31.5c0.4,0.4,0.9,0.5,1.4,0.3c0.2,0.5,1.1,0.8,1.8,1.2s1.5,0.6,1.6,1.4s0.1,1.3,0.1,1.3
	c-0.9-0.1-1.8-0.5-2.6-1.1C9.4,33.6,8.7,32.6,8.1,31.5z"/>
<path style="fill:#C9AC60;" d="M25,23.7c0,0,0.9,0.9-0.2,1.2s-1.4-0.2-2.9,1.1c-1.4,0.4-0.4,0.6-2.1,0.5c-0.8,0.5-1.3,1.4-1,2.4
	c0.2,1-1.2,1.8-2.2,2.1c-0.6,0.2-0.5,0.7-0.6,1.4s0,3.8,1,4.7c0.5,0.5,1.2,0.8,1.9,0.6c0,0,0.1,1.8,1.3,2.1s4.6,0.8,4.6,0.8l0.7,4
	c-0.7-0.1-1.3-0.2-1.9-0.5c-0.6,0-6.2,0.6-9.2-3.5c-1.6-3.1-2.2-6.6-1.6-10c0.4-2.3,0.8-4.9,1.6-6.2c-0.3-2,0-3.9,0.7-5.8
	c0.6-1.4,0.9-1.9,0.9-1.9s0.4-0.1,0.3,0.2c-0.6,1.4-0.9,2.9-0.8,4.5c0.2,1.8,0,3.2,0.9,3.5c1.1,0.3,2.3,0.3,3.4-0.1
	c1.1-0.3,2.4-0.7,2.6-0.8C23.4,23.9,24.2,23.8,25,23.7z"/>
<path style="fill:#DDCB9C;" d="M15,25.1c-0.4,0.6-0.6,1.2-0.7,1.9c0.1,0.6,1.8,1.6,2.4,1.7s0.6,0.1,0.6-0.2s0.4-1.6,0.9-1.8
	c0.3-0.2,0.4-0.6,0.3-0.9c-0.1-0.3-0.4-0.4-0.7-0.3c-0.8,0-1.7-0.1-2.4-0.5C15.1,24.8,15,25.1,15,25.1z"/>
<path style="fill:#D0B674;" d="M20.9,24.9c0,0-0.3,1.4,0.6,1.1c0.7-0.4,1.3-0.7,2.1-0.9c0.6-0.1,0.7-0.4,0.5-0.5
	c-0.4-0.4-0.9-0.5-1.4-0.4C22,24.3,21.4,24.5,20.9,24.9z"/>
<path style="fill:#DDCB9C;" d="M29.5,14.8c-0.9,0.2-1.5,0.9-1.6,1.8c-0.3,1.4,0,2.9,0.8,4.2l0.2,0c0,0-1.4-3.6,1.2-4.8
	c1.2-0.6,2.5-0.7,3.7-0.4c0.7,0.1,1.3,0.3,1.9,0.7c-0.9-0.6-1.9-1-2.9-1.3C31.6,14.8,30.5,14.7,29.5,14.8z"/>
<path style="fill:#D0B674;" d="M25.5,40.7c-0.7-0.2-1.5,0.1-1.9,0.7c-0.8,1.1,0.2,2.9,1.8,3.2s2.2,0.3,2.8-0.3
	c0.5-0.9,0.4-2.1-0.3-2.9c-0.3-0.3-0.8-0.5-1.2-0.6C26.3,40.8,25.6,40.7,25.5,40.7z"/>
<path style="fill:#D0B674;" d="M10.7,14.9c0,0,0-0.8,2.8-1.6c3.9-0.4,7.8-0.5,11.7-0.5c1.7,0.1,2.5,0.5,1.8,0.4
	c-4.2-0.1-8.4,0.1-12.5,0.7C12.6,14.2,11.5,14.3,10.7,14.9z"/>
<path style="fill:#786333;" d="M31.7,47.8c0,0,0.5,7.2,0.8,7.3c0.5,0.1,1.1,0,1.6-0.2c0.2-0.2-0.8-7.8-0.8-7.8L31.7,47.8z"/>
<path style="fill:#BC9738;" d="M28.4,48.5c0.8,0.1,1.5,0.1,2.3,0.2c0.3,0.4,0.4,0.2,0.5,1.2l0.6,5.8c0,0-1.2,2-2,2.1
	s-3.3,0.7-3.6,0.6s0.3-0.8,1-1.3c0.6-0.4,1.1-0.8,1.6-1.3C28.8,55.8,27.7,47.9,28.4,48.5z"/>
<path style="fill:#DDCB9C;" d="M29.3,49.9c-0.2,0.1,0.5,4.9,0.5,5.7c-0.2,0.5-2.8,2-3.1,2.5c0,0.2,0.1,0.2,0.4,0.1s9-0.9,9.3-1
	s1-0.5-7.4,0.4c-0.3-0.2-0.3-0.3,0.2-0.6s1.8-1.3,1.8-1.3L30.4,51C30.4,51,30.2,49.6,29.3,49.9z"/>
<path style="fill:#786333;" d="M39.2,15.5c0,0,0.3-0.1,0.6,1.4s0.4,3.3,0.7,3.9c0.1,0.2,0.2,0.4,0.3,0.7c0.3,0.6,0.6,1.1,1.1,1.6
	c0.9,1.3,1.7,2.8,2.2,4.3c0.2,0.6,0.5,1.2,1,1.7c0.2,0.2,1.2,3.6,0.8,4.1s-0.5,4-0.5,4s-0.4,3.7-3.3,5.5c-0.9,0.5-1.9,0.9-3,1
	c-0.6,0-1.2,0.1-1.8,0.4c-1.9,1-4,1.8-6.1,2.3c-1.4,0.3-2.9,0.4-4.3,0.3c-1.2-0.1-2.4-0.3-3.6-0.7c1.2,0.8,2.5,1.2,3.9,1.2
	c2.3,0.1,5.7,1,10.8-3.1c1.9-0.1,3.6-0.8,5.1-2c2-1.8,3.1-5.1,2.8-8.6c0-0.1,1-0.9,1.6-1.6c0.6-0.6,1-1.5,1-2.4
	c0.1-1.1-0.2-1.3,0.1-1.8c0.2-0.3,0.5-0.6,0.9-0.6l-0.6,0.1c-0.4,0.2-0.6,0.5-0.7,0.9c0.1,0.7,0.1,1.4,0,2.1
	c-0.1,0.6-0.4,1.1-0.8,1.5c-0.5,0.6-1.5,1.5-1.5,1.5s-0.5-3.4-0.8-4.3c-0.8-1.9-1.7-3.8-2.7-5.6c-0.4-0.7-0.8-1.4-1.2-2
	c-0.5-0.9-0.8-1.8-0.9-2.8c-0.2-0.8-0.7-2.9-0.7-2.9L39.2,15.5z"/>
<path style="fill:#786333;" d="M34,47l0.8,7.8c0,0-1.4,0-1.5,0.2c-0.5-2.3-0.9-4.7-1.2-7.1C32.3,47.8,34,47,34,47z"/>
<path style="fill:#786333;" d="M33.3,55.2c0,0,2.3,0.3,2.8,1c0.3,0.4,0.5,0.8,0.7,1.3l1.3-0.1c0,0-0.2-2-3.4-2.4
	C33.7,54.7,33.3,55.2,33.3,55.2z"/>
<path style="fill:#A18437;" d="M26.3,47.2c0,0,4.7,1.1,8.3-0.9c1.2-0.6,2.4-1.4,3.5-2.1c1.3-0.1,2.6-0.5,3.8-1.2
	c0.6-0.5,0.7-0.8,0.1-0.4c-1.2,0.6-2.6,1-4,1.1c-0.4,0.1-0.7,0.3-1,0.6c-0.3,0.3-3.7,2.7-7.1,2.8C27.8,47,25.4,46.7,26.3,47.2z"/>
<ellipse transform="matrix(0.7698 -0.6382 0.6382 0.7698 -20.2311 21.1059)" style="fill:#A18437;" cx="19.1" cy="38.6" rx="0.9" ry="1"/>
<ellipse transform="matrix(0.6982 -0.7159 0.7159 0.6982 -23.0329 27.6422)" style="fill:#A18437;" cx="21.3" cy="41.1" rx="0.7" ry="1"/>
<ellipse transform="matrix(0.8872 -0.4614 0.4614 0.8872 -17.1169 15.484)" style="fill:#A18437;" cx="23.1" cy="42.7" rx="0.6" ry="0.8"/>
<ellipse transform="matrix(0.8872 -0.4614 0.4614 0.8872 -15.5545 16.4164)" style="fill:#A18437;" cx="25.8" cy="40" rx="0.6" ry="0.7"/>
<path style="fill:#FFFFFF;" d="M36.7,38.8l0.9,1.3c1.1-0.1,2.1-0.3,3.2-0.6c0.4-0.3-0.4-0.8-0.9-1.6s-2.8-5.6-2.8-5.6L35,33
	L36.7,38.8z"/>
<path style="fill:#ED3234;" d="M36.8,38.2l1,1.3l2.5-0.3c0,0-2-2.6-2.2-3.8c-0.2-0.7-0.4-1.4-0.8-2.1l-1.8,0.9L36.8,38.2z"/>
<path style="fill:#ED3234;" d="M15.4,34.2c0,0-1.4-0.2-1.6,1s-0.3,2,2.7,2.4c2.1,0.3,7.5,1.2,11.9,0.6s11-2.8,13-4.1
	s1.9-1.1,1.2-2.6s-2.5-0.1-3,0.1s-4,2-5.4,2.4c-3.6,0.9-7.4,1.3-11.1,1.3C20.6,35,18,34.7,15.4,34.2z"/>
<path style="fill:#FFFFFF;" d="M14.3,36.5l1.1,0.3L15,36.1L14.3,36.5z"/>
<path style="fill:#FFFFFF;" d="M15.9,35l-1.1-0.3l0.4,0.7L15.9,35z"/>
<path style="fill:#FFFFFF;" d="M19.3,35.6l-0.7-0.1c-0.6,0.4-1.2,0.8-1.8,1.2L16.2,36c0.4-0.2,0.8-0.5,1.1-0.7l-0.8-0.2
	c-0.4,0.2-0.8,0.5-1.1,0.7c0.3,0.4,0.5,0.8,0.8,1.1l0.8,0.2c0.6-0.4,1.2-0.8,1.8-1.2l0.5,0.6c-0.4,0.3-0.7,0.5-1.1,0.8l0.8,0.1
	c0.4-0.3,0.7-0.5,1.1-0.8C19.9,36.3,19.6,35.9,19.3,35.6z"/>
<path style="fill:#FFFFFF;" d="M24.6,35.9h-0.7c-0.5,0.5-1.1,1-1.6,1.5l-0.6-0.6c0.3-0.3,0.7-0.6,1-0.9h-0.8c-0.3,0.3-0.7,0.6-1,0.8
	c0.3,0.3,0.6,0.7,1,1h0.8c0.5-0.5,1.1-1,1.6-1.5l0.6,0.5c-0.3,0.3-0.6,0.6-1,0.9h0.8c0.3-0.3,0.7-0.6,1-1
	C25.3,36.4,25,36.2,24.6,35.9z"/>
<path style="fill:#FFFFFF;" d="M20.5,37L20.5,37l-0.6,0.5l0,0h0.2h0.4h0.3h0.3l0,0L20.5,37z"/>
<path style="fill:#FFFFFF;" d="M20.3,35.7h-0.2l0.5,0.6l0,0l0.6-0.5h-0.4h-0.2L20.3,35.7z"/>
<path style="fill:#FFFFFF;" d="M25.6,35.8h-0.2l0.6,0.5l0,0l0.5-0.6h-0.3H26L25.6,35.8z"/>
<path style="fill:#FFFFFF;" d="M29.9,35.3l-0.7,0.1c-0.4,0.6-0.9,1.1-1.4,1.7l-0.7-0.5c0.3-0.3,0.6-0.7,0.9-1l-0.7,0.1
	c-0.3,0.3-0.6,0.7-0.9,1c0.4,0.3,0.7,0.6,1.1,0.8l0.8-0.1c0.5-0.5,0.9-1.1,1.3-1.7l0.7,0.4c-0.3,0.4-0.5,0.7-0.8,1.1l0.8-0.1
	c0.3-0.4,0.5-0.7,0.8-1.1C30.6,35.8,30.3,35.6,29.9,35.3z"/>
<path style="fill:#FFFFFF;" d="M26,37.1L26,37.1l-0.5,0.6h0.3H26h0.4h0.2L26,37.1z"/>
<path style="fill:#FFFFFF;" d="M36,33.7l-0.2,0.1l0.7,0.3l0,0l0.3-0.7l-0.3,0.1l-0.2,0.1L36,33.7z"/>
<path style="fill:#FFFFFF;" d="M34.3,34.3c-0.3,0.6-0.7,1.3-1.1,1.9l-0.8-0.4c0.2-0.4,0.5-0.7,0.7-1.1l-0.7,0.2
	c-0.2,0.4-0.5,0.7-0.7,1.1c0.4,0.2,0.8,0.5,1.2,0.7l0.8-0.2c0.4-0.6,0.7-1.2,1.1-1.8l0.7,0.3c-0.2,0.4-0.4,0.8-0.7,1.2l0.8-0.2
	c0.2-0.4,0.4-0.8,0.6-1.2L35,34L34.3,34.3z"/>
<path style="fill:#FFFFFF;" d="M30.8,35.2L30.8,35.2l0.6,0.4l0,0l0.4-0.6L31.3,35h-0.1L30.8,35.2z"/>
<path style="fill:#FFFFFF;" d="M36.7,34.8L36.7,34.8l-0.3,0.7l0,0l0.2-0.1l0.4-0.1l0.3-0.1l0.2-0.1l0,0L36.7,34.8z"/>
<path style="fill:#FFFFFF;" d="M31.5,36.4L31.5,36.4L31,37l0,0l0.3-0.1l0.3,0l0.3-0.1l0.3,0l0,0L31.5,36.4z"/>
<path style="fill:#FFFFFF;" d="M41.6,31.1l-1,0.5l0.8,0.2C41.4,31.6,41.5,31.3,41.6,31.1z"/>
<path style="fill:#FFFFFF;" d="M39.3,32.3c-0.2,0.7-0.5,1.3-0.8,2L37.7,34c0.2-0.4,0.3-0.8,0.5-1.2l-0.7,0.3
	c-0.2,0.4-0.4,0.8-0.5,1.2c0.4,0.2,0.8,0.3,1.3,0.5l0.8-0.3c0.3-0.7,0.5-1.3,0.8-2l0.8,0.2c-0.1,0.4-0.3,0.8-0.5,1.3l0.7-0.3
	c0.2-0.4,0.3-0.9,0.4-1.3L39.9,32L39.3,32.3z"/>
<path style="fill:#FFFFFF;" d="M41.7,32.5l-0.3,0.7l1-0.6L41.7,32.5z"/>
<path style="fill:#FFFFFF;" d="M34.4,33.2c0,0-1.3,7.7-2,9.2c1.7-0.3,3.4-0.8,3.7-1.1s1.2-3.4,1.1-8.3l-0.1-0.6L34.9,33L34.4,33.2z"
	/>
<path style="fill:#ED3234;" d="M33.1,41.8l2.6-0.8c0.7-2.8,1.1-5.7,1-8.6L34.9,33C34.9,33,33.9,40.2,33.1,41.8z"/>
<path style="fill:#C9AC60;" d="M34,24.4c-0.5,0.6-0.5,1.5,0.1,2c0.1,0.1,0.2,0.1,0.3,0.2c1.5,0.9,3.7-0.2,4.8-0.7s0.5-4.3-0.7-3.6
	C36.2,23.4,34,24.4,34,24.4z"/>
<path style="fill:#BC9738;" d="M38.2,22.4c0,0-1.2,0.2-0.9,0.8s1.5,2,1,3.2c0.8-0.1,1.4-0.7,1.5-1.5c0.3-1.1,0.6-2.1-0.3-2.5
	C39.2,22.1,38.6,22.1,38.2,22.4z"/>
<path style="fill:#A18437;" d="M39.7,15.9c0,0,0.4,1.4,0.5,1.9s0.7,2.4,0.7,2.7c-0.3,0-0.3-0.1-0.5-0.5c-0.3-1.3-0.6-2.6-1-3.9
	C39.2,15.9,39.3,15.3,39.7,15.9z"/>
<path style="fill:#DDCB9C;" d="M12.8,36.4c0,0-3.3-1.2-4.1-2.8c-0.4-0.8-0.8-1.6-1.3-2.4c-0.5-0.6-0.8-1.4-0.2-1.9
	c0.8-0.6,1.9-0.1,2,0.3c0.1,0.4-0.1,0.8-0.5,1c-0.1,0-0.1,0-0.2,0c-0.6,0-0.6-0.4-0.5,0.3s2.2,4.3,4.6,4.6S12.8,36.4,12.8,36.4z"/>
<path style="fill:#786333;" d="M7,29.4c0.4-0.3,1-0.4,1.5-0.2c0.4,0.1,0.6,0.5,0.5,0.9c0,0.1-0.1,0.3-0.2,0.4
	c-0.3,0.2-0.6,0.2-0.9,0.1c0.3,0.2,0.7,0.2,0.9,0c0.3-0.2,0.6-0.6,0.4-1c-0.3-0.4-0.8-0.7-1.3-0.6C7.3,29,7.1,29.1,7,29.4L7,29.4z"
	/>
<path style="fill:#BC9738;" d="M21.5,3.9c0,0-2,0.1-2.3,1.8l-1,5.4c0,0,7,0,8.1-0.9s0.7-4.9,0.6-5.5s-0.2-1.3-1-1.3
	S21.5,3.9,21.5,3.9z"/>
<path style="fill:#CCCECE;" d="M26.4,26v0.5c0.3,0,0.7,0,1,0c0-0.1,0-0.2,0-0.3C27.1,26.2,26.7,26.1,26.4,26z"/>
<path style="fill:#CCCECE;" d="M27.6,26.3v0.3c0,0,1-0.1,1-0.2v-0.3C28.3,26.2,27.9,26.3,27.6,26.3z"/>
<path style="fill:#786333;" d="M41,24c0,0,2.2,2.9,2.5,4.7s1.1,5,0.7,6.7c-0.4,1.8-1,3.6-2,5.2c-0.2,0.3-0.4,0.5-0.6,0.7
	c-0.2,0.8,3.1-1.5,3.7-4.8c0.4-2.5,0.3-5-0.3-7.4c-0.8-2.1-1.9-4.2-3.2-6.1l-0.9-1.2C40.8,22.6,40.8,23.3,41,24z"/>
<polygon style="fill:#786333;" points="40.3,21.7 41,23.3 41.4,22.6 "/>
</svg>
