<?xml version="1.0" encoding="utf-8"?>
<!-- Generator: Adobe Illustrator 22.0.0, SVG Export Plug-In . SVG Version: 6.00 Build 0)  -->
<svg version="1.1" id="Слой_1" xmlns="http://www.w3.org/2000/svg" xmlns:xlink="http://www.w3.org/1999/xlink" x="0px" y="0px"
	 viewBox="0 0 181 207" style="enable-background:new 0 0 181 207;" xml:space="preserve">
<title>Монтажная область 3 копия</title>
<path style="fill:#C7EBAA;" d="M71.5,163c-5.8,2.8-24.8,10-25.5-1.9c-10.9,11.4-33.4-8.7-26.3-21.2c-2-0.5-4-1.2-5.9-2
	c-4.3-2.2-7.4-7.6-9.2-12c-2.1-5.1-4-11.6-1-16.5c2.2-3.6,5.4-5.1,8.3-7.8C5.7,99.1,6.1,87.2,6.6,82c0.6-6.9,5.8-20.8,15.1-16.6
	c-0.8-2.9-2.3-6.2,0-9.7c0.9-1.4,4-4.1,6.8-3.9c1.4,0,2.8,0.2,4.2,0.5c2-6.2,4-12,6.9-15.6c6.4-8,7.7-10.7,16.9-15.3
	c9.8-4.9,22.4-4.6,33.5-3.4c5.3,0.6,16.1,5,15.7,11.6c-0.9-4.4,6.3-5.3,9.2-4.7c3.9,0.9,12.2,3.8,10.2,9.2c1.6-2.9,6,0.1,8,1
	c7,3.4,11,9.9,15.9,15.7c10.9,12.9,8.2,31-2.3,43.4c6.7,0,8,11,7.4,15.7c-1,9.2-7.9,20.9-17.2,24.1c3.9,1,3.9,5.6,3.4,8.9
	c-1.1,6.8-5.4,12.8-10.8,16.9s-12,6.6-18.7,6c-3.2-0.3-7.3-1.1-9.2-4.1c2.2,5.4-14.3,6.7-17.7,6.7c-2.5,0-4.9-0.7-7-2.1
	c-1.9-1-3.6-2.3-5.5-3.3L71.5,163z"/>
<path style="fill:#C7EBAA;" d="M24.5,33.3c-3-3.9-12-4.4-12.8,1.5c-1.1,8.2,10.7,8.6,16.1,8.7c0.9-4.9,7.2-10,5.3-15.2
	c-1.8-4.9-8.3-1.7-8.1,2.7L24.5,33.3z"/>
<path style="fill:#C7EBAA;" d="M8.9,50.9c-2.1-4.1-9-0.2-6.6,3.8c1.7,2.7,8,1,10.7,0.7c0-2.3,2.2-5.3,0.8-7.5S9.2,46.1,9.7,49
	L8.9,50.9z"/>
<path style="fill:#C7EBAA;" d="M158.6,94.5c-1.3-4.5-1.7-10.5,3.5-12.9c6.2-2.8,6.5,4,6.3,8.3c2.9-6.8,13.9-0.3,7.7,5.5
	c-4.8,4.6-10.1,2.6-15.8,3.3L158.6,94.5z"/>
<path style="fill:#489D45;" d="M57.9,176.3c-9.3,0.9-18.7-2.6-28.1-0.7c-2.5,0.5-12.2,2.6-13.1,5.3c-1,3,5.1,5,7.3,5.9
	c-4,1.4-8.1,2.4-12.1,3.7c-2.6,0.8-7.8,1.8-4.9,4.7c3.3,3.3,14.2,2.8,18.4,2.9c9.6,0.3,19.2-0.8,28.7-1.7c6.5-0.6,14-2.1,20.3,0
	c4.7,1.5,8.6,3.7,13.7,4.4c9.4,1.2,19,0.6,28.5,0.6c12-0.1,24,0.2,36-0.9c3.2-0.3,18.9-0.9,13.3-6.7c-3-3.2-9.6-4.4-13.5-6.2
	c3-1.1,7.7-2.9,4.7-6.1c-3.9-4.3-15.7-4.1-20.8-4.6c-9.6-0.9-19.3-1.3-29-1L57.9,176.3z"/>
<ellipse style="fill:#489D45;" cx="68.3" cy="203.1" rx="16.2" ry="3.9"/>
<ellipse style="fill:#489D45;" cx="38.6" cy="203.1" rx="6" ry="1.7"/>
<ellipse style="fill:#489D45;" cx="166.7" cy="185.7" rx="7" ry="2.5"/>
<path style="fill:#C5DDA4;" d="M89.2,192.6l-13-0.1c-4.2,0-8.6-0.1-13-0.2h-1.3c-0.3,0-0.5-0.2-0.5-0.5c0-0.1,0-0.2,0.1-0.3l0.7-1
	c0.5-0.8,1.1-1.5,1.8-2.1c0.6-0.6,1.3-1.1,2.1-1.6c1.4-1,2.9-1.8,4.5-2.5s3.2-1.2,4.8-1.7l2.4-0.6l1.8-0.4c0-3.2,0-7-0.2-10.8
	l-0.2-6.3c-2.8-0.4-5.6-1.2-8.3-2.2c-3.4-1.3-6.6-3.2-9.4-5.6c-0.3,1-0.8,2-1.5,2.8c-0.9,1.2-2.1,2.2-3.5,3s-2.9,1.3-4.4,1.4H52
	c-0.4,0-0.7,0-1.1-0.1c-0.6-0.1-1.1-0.5-1.5-0.9s-0.6-1-0.7-1.6c-0.2,0-0.4-0.1-0.7-0.2c-0.4-0.2-0.7-0.5-0.8-0.9s-0.2-0.8-0.1-1.2
	c-0.4,0-0.8-0.1-1.1-0.3c-0.4-0.2-0.7-0.5-0.8-0.9c-0.1-0.3-0.1-0.6-0.1-0.9c0-0.3,0.1-0.6,0.1-0.9c-0.4-0.1-0.8-0.2-1.2-0.4
	c-0.8-0.3-1.5-0.7-2.3-1.1c-0.7-0.5-1.4-1-2-1.6s-1.2-1.3-1.6-2c-0.9-1.6-1.2-3.5-1-5.3c0.2-1.7,0.6-3.3,1.2-4.9
	c0.6-1.5,1.2-3,2-4.4c1.2-2.2,2.5-4.3,4-6.3c-0.5-1.3-1-2.5-1.3-3.6c-1-3-1.7-6-2.2-9.2c-1.2-6.3-0.9-12.8,0.9-18.9
	c0.2-0.7,0.5-1.4,0.7-2.1l0.1-0.2c0.3-0.8,0.7-1.5,1.1-2.2c0.4-0.7,0.8-1.4,1.2-2.1s0.8-1.3,1.3-2c1.8-2.7,3.8-5.1,6.1-7.3
	c2.4-2.2,5.1-4.1,8-5.4c1.5-0.7,2.9-1.3,4.5-1.8s3.2-0.8,4.8-0.9c0.8-0.1,1.7-0.1,2.5-0.1c0.9,0,1.9,0,2.9,0.1c-0.8-1-1.4-2-2-3.1
	c-1-1.9-1.7-3.9-2.1-6.1c-0.2-1-0.4-2.1-0.4-3.1l-0.1-1.5v-1.6c0.1-2.2,0.7-4.3,1.6-6.3c0.9-1.9,2.1-3.7,3.7-5.2
	c0.7-0.8,1.5-1.4,2.4-2c0.3-0.3,0.8-0.5,1.3-0.9c0.2-0.1,0.5-0.3,0.7-0.4l0.3-0.2l0.3,0.4l-0.2-0.4c0.1-0.1,0.3-0.1,0.4-0.2h0.1
	c0.1,0,0.3,0.1,0.4,0.2c1.7,1.8,4.3,4.6,6.9,7.5l1.1,1.3c0.9-0.6,2-1,3.1-1h0.3c1.8-0.1,3.6,0.4,4.9,1.6c0.9,1,1.4,2.4,1.2,3.7
	c-0.2,3.5-0.1,14,0,19c2.1-0.2,3.7-0.3,5.2-0.3c0.8,0,1.5,0,2.2,0.1c3.2,0.1,6.3,0.9,9.2,2.1c2.9,1.3,5.5,3,7.8,5.1s4.4,4.4,6.2,6.9
	c1.8,2.5,3.4,5.2,4.6,8.1c1.3,2.9,2.1,5.9,2.6,9c0.3,1.6,0.4,3.2,0.3,4.8c-0.1,1.6-0.3,3.1-0.6,4.7c-0.6,3.1-1.3,6.1-2.2,9.1
	c-0.1,0.4-0.3,0.9-0.4,1.4l-0.1,0.4c1.2,0.9,2.4,1.9,3.5,3c2.4,2.2,4.2,5,5.4,8c1.2,3.2,1.1,6.8-0.3,9.9c-0.1,0.4-0.3,0.7-0.5,1.1
	c-0.2,0.4-0.5,0.8-0.7,1.2c-0.6,0.7-1.2,1.3-1.9,1.9c-1,0.8-2.2,1.4-3.4,1.8c0,0,0,0,0,0.1c0,0.7-0.3,1.3-0.7,1.8
	c-0.4,0.4-0.9,0.6-1.5,0.7l0,0l0,0c-0.2,0.6-0.7,1.1-1.4,1.2l-0.4,0.1c0.1,0.4,0.2,0.8,0.2,1.2c-0.1,0.4-0.2,0.7-0.5,1
	c-0.2,0.2-0.5,0.4-0.9,0.5c-0.3,0.1-0.6,0.1-0.9,0.1c-0.2,0-0.4,0-0.6,0c-1.7-0.1-3.3-0.4-4.9-1.1c-1.7-0.7-3.1-2-4-3.6
	c-0.2-0.5-0.5-0.9-0.6-1.4c-1,1.1-2,2.2-3.1,3.2c-2.3,2.2-5.1,4-8.2,5.1c-1.5,0.4-3.1,0.7-4.7,0.9c-1.4,0.2-2.7,0.4-3.9,0.5L99,165
	c0,1.8-0.1,3.5-0.2,5.3l-0.5,11l0.6,0.1c0.5,0,1,0.1,1.4,0.2l0.9,0.2c0.6,0.1,1.1,0.2,1.7,0.3c1.7,0.4,3.4,1,5,1.7s3.2,1.6,4.6,2.7
	c1.5,1.1,2.8,2.5,3.8,4.1l0.8,1.2c0.1,0.2,0.1,0.5-0.2,0.7c-0.1,0-0.2,0.1-0.2,0.1h-1.5c-4.2,0.1-8.6,0.2-13,0.2
	c-2.9,0-5.9,0.1-8.8,0.1L89.2,192.6z"/>
<path style="fill:#FFFFFF;stroke:#FFFFFF;stroke-width:4;stroke-linejoin:round;stroke-miterlimit:10;" d="M80.9,44.1
	c2.2,2.3,4.6,4.9,6.9,7.5l1.4,1.7c0.9-0.8,2-1.2,3.2-1.2h0.3c1.7-0.2,3.3,0.4,4.5,1.5c0.8,0.9,1.2,2.1,1.1,3.3
	c-0.3,3.7-0.1,14.8,0,19.5c1.9-0.2,3.8-0.3,5.7-0.3c0.7,0,1.5,0,2.2,0.1c3.1,0.1,6.1,0.8,9,2c2.8,1.2,5.4,2.9,7.7,5
	c2.3,2.1,4.3,4.4,6.2,6.9c1.8,2.5,3.3,5.2,4.6,8c1.2,2.8,2.1,5.8,2.6,8.9c0.3,1.5,0.4,3.1,0.3,4.7c-0.1,1.6-0.3,3.1-0.6,4.6
	c-0.6,3-1.3,6-2.2,9c-0.2,0.7-0.4,1.4-0.7,2.1c1.3,1,2.6,2,3.8,3.1c2.3,2.2,4.1,4.8,5.3,7.8c1.1,3.1,1,6.5-0.3,9.6
	c-0.1,0.4-0.3,0.7-0.5,1.1c-0.2,0.4-0.4,0.8-0.7,1.1c-0.5,0.7-1.2,1.3-1.9,1.8c-1.1,0.8-2.3,1.4-3.6,1.8c0,0.1,0,0.3,0,0.4
	c0,0.5-0.2,1-0.6,1.4c-0.3,0.3-0.8,0.5-1.2,0.6H133c0,0.1,0,0.2-0.1,0.4c-0.2,0.5-0.5,0.8-1,0.9c-0.3,0.1-0.5,0.1-0.8,0.1h-0.3
	c0.1,0.1,0.1,0.2,0.1,0.3c0.2,0.4,0.3,0.9,0.2,1.3c0,0.3-0.2,0.5-0.4,0.7s-0.4,0.3-0.7,0.4c-0.3,0.1-0.5,0.1-0.8,0.1
	c-0.2,0-0.3,0-0.5,0c-1.6-0.1-3.2-0.4-4.8-1c-1.6-0.7-2.9-1.9-3.7-3.4c-0.4-0.7-0.6-1.5-0.8-2.2c-1.1,1.4-2.3,2.7-3.7,3.9
	c-2.3,2.2-5,3.9-8,4.9c-1.5,0.4-3,0.7-4.6,0.9c-1.3,0.2-2.7,0.4-4,0.5c-0.3,0.2-0.6,0.4-0.9,0.6c0,1.8-0.1,3.7-0.2,5.6l-0.5,11.4
	c0.9,0.1,1.7,0.2,2.5,0.3s1.7,0.3,2.5,0.5c1.7,0.4,3.3,0.9,4.9,1.6c1.6,0.7,3.1,1.6,4.5,2.6c1.5,1.1,2.7,2.4,3.7,3.9l0.8,1.2h-1.5
	c-4.3,0.1-8.7,0.2-13,0.2c-2.9,0-5.9,0.1-8.8,0.1H89l-13-0.1c-4.3-0.1-8.7-0.1-13-0.2h-1.3l0.7-1c0.5-0.7,1.1-1.4,1.8-2
	c0.6-0.6,1.3-1.1,2-1.6c1.4-1,2.9-1.8,4.4-2.4c1.5-0.7,3.1-1.2,4.7-1.7l2.4-0.6l2.2-0.4c0-3.8,0-7.5-0.2-11.2l-0.2-6.7
	c-2.9-0.4-5.8-1.1-8.6-2.1c-3.6-1.4-7-3.4-9.8-6c-0.3,1.2-0.8,2.4-1.6,3.4c-0.9,1.2-2,2.1-3.3,2.9c-1.3,0.8-2.7,1.2-4.2,1.3h0
	c-0.3,0-0.7,0-1-0.1c-0.5-0.1-0.9-0.4-1.3-0.8c-0.3-0.4-0.5-0.9-0.5-1.4c0-0.1,0-0.2,0-0.3H49c-0.3,0-0.5-0.1-0.7-0.2
	c-0.3-0.1-0.5-0.4-0.6-0.7c-0.2-0.5-0.1-1,0-1.4v-0.1h-0.2c-0.5,0-0.9-0.1-1.4-0.3c-0.3-0.1-0.5-0.4-0.5-0.6
	c-0.1-0.2-0.1-0.5-0.1-0.7c0-0.4,0.1-0.8,0.2-1.2c0-0.1,0-0.1,0-0.1l-0.5-0.1c-0.4-0.1-0.8-0.2-1.2-0.3c-0.8-0.3-1.5-0.7-2.2-1.1
	c-0.7-0.4-1.3-0.9-1.9-1.5c-0.6-0.6-1.1-1.2-1.5-1.9c-0.8-1.5-1.2-3.3-0.9-5c0.2-1.6,0.6-3.2,1.2-4.7c0.5-1.5,1.2-2.9,1.9-4.4
	c1.2-2.3,2.6-4.4,4.2-6.5c-0.5-1.2-1-2.5-1.4-3.8c-1-3-1.7-6-2.2-9.1c-1.2-6.2-0.9-12.6,0.9-18.7c0.2-0.8,0.5-1.5,0.8-2.2
	s0.6-1.5,1.1-2.2c0.4-0.7,0.8-1.4,1.2-2c0.4-0.7,0.8-1.3,1.3-2c1.7-2.6,3.7-5.1,6-7.2c2.3-2.2,5-4,7.8-5.3c1.4-0.7,2.9-1.3,4.4-1.8
	s3.1-0.8,4.7-0.9c0.9-0.1,1.7-0.1,2.6-0.1c1.3,0,2.7,0.1,4,0.3c-1.1-1.2-2-2.5-2.7-3.9c-1-1.9-1.7-3.9-2.1-5.9c-0.2-1-0.4-2-0.4-3.1
	l-0.1-1.5v-1.6c0.1-2.1,0.7-4.2,1.5-6.1c0.9-1.9,2.1-3.6,3.6-5.1c0.7-0.7,1.5-1.4,2.3-2c0.4-0.3,0.8-0.6,1.3-0.8
	c0.2-0.1,0.4-0.3,0.7-0.4l0.3-0.2C80.5,44.2,80.7,44.1,80.9,44.1 M88.4,77.1L88.4,77.1L88.4,77.1L88.4,77.1 M128.2,140.6
	L128.2,140.6L128.2,140.6 M46,155.5L46,155.5 M80.9,43.1h-0.2c-0.2,0-0.4,0.1-0.5,0.2H80l-0.3,0.2c-0.3,0.1-0.5,0.3-0.7,0.4
	c-0.4,0.2-0.9,0.5-1.3,0.9c-0.9,0.6-1.7,1.3-2.4,2.1c-1.6,1.6-2.8,3.4-3.8,5.4c-0.9,2-1.5,4.2-1.6,6.4v1.6v0.1V62
	c0.1,1.1,0.2,2.2,0.4,3.2c0.4,2.2,1.1,4.2,2.2,6.2c0.4,0.8,0.9,1.5,1.4,2.2c-0.6,0-1.2-0.1-1.8-0.1c-0.9,0-1.8,0-2.6,0.1
	c-1.7,0.2-3.3,0.5-4.9,1s-3.1,1.1-4.6,1.8c-3,1.4-5.7,3.3-8.1,5.5c-2.3,2.2-4.4,4.7-6.2,7.4c-0.4,0.6-0.9,1.3-1.3,2
	c-0.4,0.7-0.9,1.4-1.2,2.1c-0.4,0.7-0.8,1.5-1.1,2.3L42,95.9c-0.3,0.7-0.6,1.4-0.8,2.1c-1.8,6.2-2.1,12.8-0.9,19.1
	c0.5,3.1,1.3,6.2,2.2,9.2c0.3,1,0.7,2.1,1.2,3.3c-1.4,1.9-2.7,4-3.9,6.1c-0.8,1.4-1.4,2.9-2,4.5s-1,3.3-1.2,5
	c-0.2,1.9,0.1,3.9,1.1,5.6c0.5,0.8,1,1.5,1.7,2.1c0.6,0.6,1.3,1.2,2.1,1.6c0.7,0.5,1.5,0.8,2.4,1.1c0.3,0.1,0.5,0.2,0.8,0.2
	c0,0.1,0,0.3-0.1,0.5c0,0.4,0,0.7,0.1,1.1c0.2,0.5,0.5,1,1,1.2c0.3,0.1,0.5,0.2,0.8,0.3c0,0.3,0.1,0.7,0.2,1c0.2,0.5,0.6,1,1.1,1.2
	c0.1,0.1,0.3,0.1,0.4,0.2c0.1,0.6,0.3,1.1,0.7,1.5c0.5,0.5,1.1,0.9,1.8,1.1c0.4,0.1,0.8,0.1,1.2,0.1h0.3c1.7-0.1,3.3-0.6,4.7-1.4
	c1.4-0.8,2.7-1.9,3.7-3.1c0.5-0.7,1-1.5,1.3-2.3c2.7,2.2,5.7,4,9,5.2c2.6,0.9,5.3,1.6,8,2l0.2,5.9c0.1,3.6,0.2,7.2,0.2,10.4
	l-1.4,0.3h-0.1l-2.4,0.6c-1.7,0.5-3.3,1.1-4.9,1.7c-1.6,0.7-3.2,1.5-4.6,2.5c-0.7,0.5-1.5,1.1-2.1,1.7c-0.7,0.6-1.4,1.4-1.9,2.2
	l-0.7,1c-0.3,0.5-0.2,1.1,0.3,1.4c0.2,0.1,0.3,0.2,0.5,0.2h1.3c4.4,0.1,8.7,0.2,13,0.2l13,0.1h4.2c3.3,0,6.1,0,8.8-0.1
	c4.4,0,8.8-0.1,13-0.2h1.5c0.6,0,1-0.5,1-1c0-0.2-0.1-0.4-0.2-0.5l-0.8-1.2c-1.1-1.6-2.4-3.1-4-4.2c-1.5-1.1-3.1-2-4.7-2.8
	c-1.6-0.7-3.3-1.3-5.1-1.7c-0.6-0.1-1.1-0.2-1.7-0.4l-0.9-0.2h-0.1c-0.5-0.1-1-0.1-1.5-0.2h-0.3l0.5-10.5c0.1-1.7,0.1-3.4,0.2-5
	l0.3-0.2c1.2-0.1,2.5-0.3,3.8-0.5c1.6-0.2,3.2-0.5,4.7-0.9c3.1-1.1,6-2.9,8.4-5.2c0.9-0.8,1.7-1.7,2.6-2.7c0.1,0.2,0.2,0.5,0.3,0.7
	c0.9,1.7,2.4,3.1,4.3,3.8c1.6,0.6,3.3,1,5,1.1c0.2,0,0.4,0,0.6,0c0.3,0,0.7,0,1-0.1h0.1c0.4-0.1,0.8-0.3,1.1-0.6s0.6-0.8,0.6-1.3
	c0-0.3,0-0.6,0-0.9c0.7-0.2,1.3-0.7,1.6-1.3c0.6-0.1,1.1-0.4,1.5-0.8c0.5-0.5,0.8-1.1,0.9-1.8c1.1-0.4,2.2-1,3.2-1.7
	c0.8-0.6,1.4-1.2,2-2c0.3-0.4,0.6-0.9,0.8-1.3c0.2-0.4,0.4-0.8,0.5-1.1c1.4-3.3,1.5-7,0.3-10.3c-1.2-3.1-3.1-5.9-5.5-8.1
	c-1-1-2.1-1.9-3.3-2.8l0,0c0.1-0.5,0.3-0.9,0.4-1.4c0.9-3,1.7-6,2.2-9.1c0.3-1.6,0.5-3.2,0.6-4.8c0.1-1.6-0.1-3.3-0.3-4.9
	c-0.5-3.2-1.4-6.2-2.7-9.2c-1.3-2.9-2.8-5.7-4.7-8.2c-1.9-2.5-4-4.9-6.3-7c-2.4-2.2-5.1-3.9-8-5.2c-3-1.3-6.1-2-9.3-2.1
	c-0.7,0-1.5-0.1-2.3-0.1c-1.4,0-2.9,0.1-4.7,0.2c-0.1-5.1-0.2-15,0.1-18.4c0.2-1.5-0.3-3-1.3-4.1c-1.4-1.3-3.3-1.9-5.2-1.8h-0.3
	c-1.1,0-2.1,0.3-3,0.8l-0.1-0.1l-0.7-0.9c-2.6-3-5.2-5.8-6.9-7.6C81.4,43.2,81.1,43,80.9,43.1L80.9,43.1z"/>
<path style="fill:#A7CC75;" d="M88.8,55.4c0,0,0.3-2.2,3.3-2.3s5,1,4.8,3.7c-0.3,4.8,0,21.9,0,21.9h-7.7L88.8,55.4z"/>
<path style="fill:#93C156;" d="M98,79.7h-9.8l-0.5-24.4v-0.1c0.2-1.1,1.3-3.1,4.3-3.2c2.2-0.1,3.9,0.4,4.9,1.5
	c0.9,0.9,1.3,2.1,1.1,3.4c-0.3,4.7,0,21.6,0,21.8V79.7z M90.3,77.6h5.6c-0.1-3.9-0.3-16.8,0-20.9c0.1-0.6-0.1-1.2-0.4-1.7
	c-0.9-0.7-2.1-1-3.3-0.8c-1.8,0-2.2,1.1-2.2,1.3L90.3,77.6z"/>
<path style="fill:#A7CC75;" d="M97.3,182v-22.6H80.2v23.1c-13.6,2.4-17.3,8.9-17.3,8.9h52C114.9,191.4,111,183.9,97.3,182z"/>
<path style="fill:#93C156;" d="M97.2,182.1c-0.2-3.6-0.4-7.4-0.5-11.2s-0.2-7.7-0.3-11.5l0.9,0.9l-8.5,0.1c-2.8,0-5.7,0-8.5-0.1
	l0.9-0.9l-0.4,11.5c-0.1,3.8-0.2,7.7-0.2,11.5v0.3l-0.3,0.1l-2.4,0.5c-0.8,0.2-1.6,0.4-2.4,0.7c-1.6,0.5-3.1,1.1-4.6,1.8
	s-2.9,1.6-4.2,2.6c-0.6,0.5-1.2,1-1.8,1.6c-0.5,0.5-1,1.1-1.4,1.8l-0.6-1.1c4.3-0.1,8.7-0.2,13-0.2l13-0.1c4.3,0,8.7,0,13,0
	s8.7,0.1,13,0.2l-0.8,1.3c-0.4-0.7-0.9-1.3-1.4-1.9c-0.5-0.6-1.1-1.2-1.7-1.7c-1.3-1.1-2.7-2-4.1-2.8c-0.7-0.4-1.5-0.8-2.3-1.1
	c-0.8-0.4-1.6-0.6-2.4-0.9s-1.6-0.5-2.4-0.7L97.2,182.1z M97.4,181.9c0.9,0.1,1.7,0.2,2.5,0.3s1.7,0.3,2.5,0.5
	c1.7,0.4,3.4,1,4.9,1.7c1.6,0.7,3.1,1.6,4.5,2.6c1.5,1.1,2.7,2.4,3.7,3.9l0.8,1.2h-1.5c-4.3,0.1-8.7,0.2-13,0.2
	c-4.3,0.1-8.7,0.1-13,0l-13-0.1c-4.3-0.1-8.7-0.1-13-0.2h-1.3l0.7-1.1c0.5-0.7,1.1-1.4,1.8-2c0.6-0.6,1.3-1.1,2-1.6
	c1.4-1,2.9-1.8,4.5-2.5c1.5-0.7,3.1-1.2,4.8-1.7l2.4-0.6l2.5-0.5l-0.3,0.3c0-3.8,0-7.7-0.2-11.5l-0.4-11.5v-0.8h0.9
	c2.8-0.1,5.7-0.1,8.5-0.1l8.5,0.1h0.9v0.9c-0.1,3.7-0.2,7.4-0.3,11.1L97.4,181.9z"/>
<path style="fill:#A7CC75;" d="M122.6,83.4c13,11.9,13.2,25.8,13.2,27.4c0,9.4-12.4,48.5-30.1,52c-12,2.4-27.9,3-38.4-2.8
	c-8.8-4.8-15.5-14.8-21.4-28.6c-4.7-11-7.3-26.9-0.9-37.7c6.5-11,12.6-14.3,18.1-16.5c9.1-3.6,16.8-0.4,23.8,0.4
	C95.8,78.8,109.5,71.5,122.6,83.4z"/>
<path style="fill:#93C156;" d="M122.6,83.3c2.3,2.1,4.3,4.4,6.2,6.9c1.8,2.5,3.3,5.2,4.6,8.1c1.2,2.9,2.1,5.8,2.6,8.9
	c0.3,1.6,0.4,3.1,0.3,4.7c-0.1,1.6-0.3,3.1-0.6,4.7c-0.6,3-1.3,6-2.2,9c-0.9,3-1.9,5.9-3.1,8.8c-2.3,5.8-5.2,11.3-8.7,16.5
	c-1.8,2.6-3.8,5-6.1,7.1c-2.3,2.2-5,3.9-8,5c-1.5,0.4-3.1,0.7-4.6,0.9s-3.1,0.4-4.6,0.6c-3.1,0.3-6.2,0.5-9.2,0.5
	c-3.1,0-6.2-0.2-9.2-0.6c-3.1-0.4-6.1-1.1-9-2.2c-5.8-2.3-10.9-6.1-14.7-11.1c-3.8-4.9-7.1-10.3-9.6-15.9c-1.4-2.8-2.5-5.7-3.5-8.6
	c-1-3-1.7-6-2.2-9.1c-1.2-6.2-0.9-12.6,0.9-18.8c0.2-0.8,0.5-1.5,0.8-2.3s0.6-1.5,1-2.2s0.8-1.4,1.2-2.1s0.8-1.3,1.3-2
	c1.7-2.6,3.8-5.1,6.1-7.2c2.3-2.2,5-4,7.9-5.4c1.4-0.7,2.9-1.3,4.4-1.8s3.1-0.8,4.7-0.9c3.2-0.3,6.3-0.1,9.4,0.6
	c3.1,0.5,6,1.4,9,1.7c3,0.1,6.1,0,9.1-0.4c3.1-0.4,6.2-0.5,9.3-0.4c3.1,0.2,6.1,0.8,9,2.1C117.7,79.5,120.3,81.2,122.6,83.3z
	 M122.5,83.5c-2.3-2-4.9-3.7-7.7-4.9c-2.8-1.1-5.9-1.7-8.9-1.8c-3.1,0-6.1,0.3-9.1,0.8c-3.1,0.6-6.2,0.9-9.3,0.9
	c-3.2-0.2-6.2-0.9-9.2-1.3c-2.9-0.5-6-0.6-8.9-0.3c-1.5,0.2-2.9,0.5-4.3,0.9c-1.4,0.5-2.8,1-4.1,1.7c-2.7,1.3-5.1,3-7.3,5
	c-2.2,2.1-4.1,4.4-5.7,6.9c-1.7,2.4-3.1,5.1-4.1,7.9c-1.7,5.8-2,11.9-1,17.8c0.9,6,2.7,11.8,5.3,17.4c2.4,5.6,5.4,10.9,9,15.9
	c3.7,4.8,8.3,9.1,14.1,11.2c5.8,2,11.9,3,18,2.8c3.1,0,6.1-0.2,9.2-0.6c1.5-0.2,3-0.4,4.5-0.7c1.5-0.2,3-0.6,4.4-1
	c2.8-1.1,5.3-2.8,7.4-4.9c2.1-2.1,4-4.5,5.7-7c3.3-5.1,6.1-10.5,8.4-16.2c2.4-5.6,4.3-11.4,5.7-17.4c0.4-1.5,0.6-3,0.8-4.5
	c0.1-1.5,0.1-3-0.1-4.5c-0.4-3-1.1-6-2.2-8.8c-1.1-2.9-2.5-5.6-4.3-8.1C126.8,87.9,124.7,85.6,122.5,83.5L122.5,83.5z"/>
<path style="fill:#A7CC75;" d="M80.5,44.1c0,0,7.6,9.4,10,12.6s10.6,19.3-2.4,19.7c-0.9,1.1-2.3,1.8-3.8,1.8
	c-6.2,0-12.5-6.6-13-17.8S80.5,44.1,80.5,44.1z"/>
<path style="fill:#489A44;" d="M80.5,44c2.2,2.3,4.6,4.9,6.9,7.5c1.2,1.3,2.3,2.7,3.4,4.1c1.1,1.4,2.1,2.9,2.8,4.6
	c0.7,1.6,1.3,3.3,1.7,5c0.4,1.7,0.6,3.5,0.4,5.3c-0.1,1.8-1,3.5-2.5,4.7c-1.5,1-3.3,1.5-5.1,1.6l0.3-0.2c-0.7,0.9-1.6,1.5-2.6,1.9
	c-0.5,0.2-1.1,0.3-1.7,0.3c-0.5,0-1.1,0-1.6-0.1c-2.1-0.3-4.1-1.3-5.8-2.7c-1.6-1.4-2.9-3.1-3.9-5s-1.7-3.9-2.1-5.9
	c-0.2-1-0.4-2.1-0.4-3.1l-0.1-1.6v-1.6c0.1-2.1,0.7-4.2,1.5-6.1c0.9-1.9,2.1-3.6,3.6-5.1c0.7-0.7,1.5-1.4,2.3-2
	c0.4-0.3,0.8-0.6,1.3-0.8c0.2-0.1,0.4-0.3,0.7-0.4l0.3-0.2C80.2,44.1,80.4,44,80.5,44z M80.5,44.2c-3.2,2.3-5.6,5.5-7,9.1
	c-0.6,1.8-1,3.7-1,5.6c0,1.9,0.2,3.8,0.6,5.7c0.6,3.8,2.3,7.3,5,10c1.3,1.3,3,2.3,4.8,2.7c0.4,0.1,0.9,0.2,1.4,0.2
	c0.4,0.1,0.9,0,1.3-0.1c0.9-0.2,1.7-0.7,2.3-1.4l0.2-0.2h0.2c1.7,0.1,3.3-0.3,4.7-1.2c0.7-0.5,1.2-1.1,1.5-1.8
	c0.3-0.8,0.5-1.6,0.5-2.4c0-3.3-1.4-6.5-2.9-9.5c-0.7-1.5-1.6-2.9-2.6-4.2s-2-2.7-3-4C84.5,50.1,82.6,47.2,80.5,44.2L80.5,44.2z"/>
<path style="fill:#489A44;" d="M88.1,76.4c-1.2-0.3-2.4-0.8-3.4-1.6c-1-0.7-1.9-1.6-2.7-2.6c-0.3-0.5-0.6-1.1-0.9-1.6
	c-0.2-0.6-0.5-1.1-0.8-1.7c-0.5-1.1-1.2-2.1-1.8-3.2L78.1,65c-0.1-0.3-0.2-0.6-0.4-0.9c-0.2-0.6-0.4-1.2-0.6-1.8
	c-0.1-0.6-0.2-1.2-0.4-1.8c-0.1-0.6-0.1-1.3-0.1-1.9c0-1.2,0.2-2.5,0.6-3.7s0.9-2.3,1.5-3.4l0.2,0.1c0.1,1.3,0,2.4,0,3.6
	s-0.1,2.3,0,3.4c0,0.6,0,1.1,0,1.7S79,61.4,79,62s0.2,1.1,0.2,1.7c0,0.3,0.1,0.6,0.1,0.9l0.2,0.8c0.2,1.2,0.6,2.3,1.3,3.2
	c0.4,0.5,0.8,0.9,1.2,1.3c0.4,0.4,0.9,0.8,1.3,1.2c1.6,1.6,3.2,3.3,4.8,5.1L88.1,76.4z"/>
<path style="fill:#93C156;" d="M93.8,85.6c3.3-4.7,16.3-7.7,26.6-0.3c9.9,7.2,14.4,22.3,8.9,40.1c-5.2,16.8-13.3,28.7-20.4,31.8
	c-6.6,2.9-15,5.7-26.8,2.2c0,0,12.4-6.8,20.7-16.2c7.6-8.6,14.2-37.5,7.9-42.5S87.8,94.2,93.8,85.6z"/>
<path style="fill:#489A44;" d="M68.4,135.6c0.6,2.5,2.1,4.8,4.1,6.4c2.1,1.5,4.4,2.7,6.9,3.3c2.5,0.9,5.2,1.4,7.8,1.5
	c2.7,0.1,5.4-0.3,7.9-1.1s4.8-2,7-3.5c2.1-1.5,4-3.3,5.5-5.4c1.6-2.1,2.9-4.4,4-6.7c0.3-0.6,0.6-1.2,0.8-1.9
	c0.1-0.2,0.1-0.4,0.2-0.5c0.2-0.3,0.4-0.5,0.7-0.6c0.4-0.1,0.9-0.1,1.3,0c0.7,0.2,1.4,0.6,2,1.1c0.3,0.3,0.5,0.6,0.7,0.9
	c0.1,0.4,0.1,0.8-0.2,1.1l-0.2-0.1c0.3-0.6-0.2-1.1-0.7-1.4c-0.5-0.3-1.1-0.5-1.7-0.6c-0.2,0-0.5,0-0.7,0.1v0.1c0,0-0.1,0.3-0.1,0.4
	c-0.1,0.6-0.4,1.3-0.6,2c-0.9,2.7-2.1,5.2-3.8,7.5c-3.4,4.6-8.4,7.7-14.1,8.7c-2.7,0.5-5.5,0.7-8.2,0.7c-0.7,0-1.4,0-2.1,0
	s-1.4,0-2.1,0c-1.4-0.1-2.8-0.2-4.2-0.5c-2.8-0.6-5.4-1.9-7.5-3.8c-2.1-1.9-3.3-4.7-3.3-7.6L68.4,135.6z"/>
<path style="fill:#489A44;" d="M114.9,121c1.4-0.7,2.9-1,4.4-0.7c0.7,0.2,1.5,0.4,2.1,0.8c0.7,0.3,1.4,0.6,2,1
	c1.3,0.9,2.2,2.2,2.6,3.8c0.3,1.5,0.2,3-0.3,4.5h-0.1c-0.1-1.4-0.3-2.8-0.7-4.2c-0.2-0.7-0.4-1.3-0.7-1.9c-0.3-0.6-0.7-1.2-1.2-1.7
	s-1.1-0.9-1.8-1.1c-0.7-0.2-1.4-0.2-2.1-0.2c-1.4-0.1-2.8-0.1-4.3-0.1L114.9,121z"/>
<path style="fill:#BCD896;" d="M80.7,82.6C76.3,75.1,63.1,79,53.8,88c-13.3,12.8-9.5,39.5,5.8,55.6c2.7,2.9-4-12.8-3.5-20.5
	C57.2,103.2,87.3,94,80.7,82.6z"/>
<path style="fill:#B8D690;" d="M71.4,135.1c-1.2,2.6,0.8,7.1,8,9.3c9.2,2.8,14.4,0.8,19.5-5.2c4.8-5.6-2.2,0.5-10.2-0.7
	C83.9,137.7,74.2,128.9,71.4,135.1z"/>
<path style="fill:#FFFFFF;" d="M73.8,130.7c-4,0.4-17.8,1.1-20.9-23.4S70.4,85,72.4,86.1s8.4,3.2,8.4,27.1
	C80.8,126.7,78.5,130.2,73.8,130.7z"/>
<path style="fill:#489A44;" d="M73.8,130.9c-2.5,0.3-5.1,0.1-7.6-0.6c-2.5-0.7-4.8-2.1-6.6-3.9c-0.5-0.5-0.9-0.9-1.3-1.4
	c-0.2-0.2-0.4-0.5-0.6-0.8l-0.5-0.8c-0.3-0.6-0.7-1.1-1-1.7l-0.8-1.8c-1.1-2.4-1.8-4.8-2.3-7.4c-0.1-0.6-0.2-1.3-0.3-1.9l-0.2-1.9
	c-0.2-1.3-0.3-2.5-0.3-3.8c-0.1-2.6,0.2-5.1,0.7-7.6s1.6-4.9,3.2-6.9c1.7-2,3.9-3.5,6.4-4.4s5.1-1.3,7.7-1.1c0.7,0,1.3,0.1,2,0.3
	c0.2,0.1,0.4,0.1,0.6,0.2s0.3,0.1,0.5,0.2s0.6,0.3,0.9,0.5c1.2,0.7,2.2,1.7,3,2.8c1.5,2.2,2.6,4.6,3.3,7.2c0.3,1.3,0.6,2.5,0.7,3.8
	l0.3,1.9l0.2,1.9c0.1,1.3,0.2,2.6,0.2,3.8s0.1,2.5,0.1,3.8c0,2.5-0.1,5.1-0.5,7.6c-0.2,2.6-0.8,5.1-1.8,7.5
	c-0.5,1.2-1.2,2.3-2.2,3.1C76.3,130.3,75.1,130.7,73.8,130.9z M73.8,130.6c1.2-0.1,2.4-0.6,3.4-1.4c0.9-0.9,1.5-1.9,1.8-3.1
	c0.7-2.4,1-4.9,0.9-7.3c0-2.5-0.1-5-0.2-7.5c-0.1-1.2-0.1-2.5-0.2-3.7s-0.2-2.5-0.3-3.7c-0.2-2.5-0.6-4.9-1.2-7.3
	c-0.5-2.3-1.4-4.6-2.7-6.6c-0.5-1-1.3-1.8-2.3-2.4c-0.2-0.2-0.5-0.3-0.8-0.4S71.9,87,71.8,87s-0.2-0.1-0.3-0.1
	c-0.6-0.2-1.1-0.3-1.7-0.3c-2.4-0.3-4.9-0.1-7.2,0.6c-2.4,0.7-4.5,2-6.1,3.8c-1.6,1.9-2.7,4.2-3.1,6.6c-1,4.9,0.1,9.9,1.2,14.7
	s2.9,9.5,5.9,13.3c1.6,1.9,3.6,3.4,5.8,4.3C68.8,130.7,71.3,131,73.8,130.6L73.8,130.6z"/>
<path style="fill:#93C156;" d="M71.4,95c3.4,2.2,6.6,4.2,7.3,15.8s-4,14.7-6.4,15.2s-10.6,1-13-14.7C56.6,93.2,68,92.8,71.4,95z"/>
<path style="fill:#FFFFFF;" d="M91.9,100c0,0,1.8-23.1,21.6-11.7c17.5,10.1,1.5,36.2-7.4,42C99.2,134.9,90.1,132.1,91.9,100z"/>
<path style="fill:#489A44;" d="M91.8,99.9c0.3-2.6,0.9-5.1,1.8-7.5c0.9-2.5,2.4-4.7,4.6-6.4c2.3-1.6,5.1-2.2,7.9-1.7
	c2.6,0.5,5.1,1.4,7.4,2.8c2.3,1.3,4.3,3.2,5.8,5.4c1.4,2.2,2.2,4.8,2.4,7.4c0.4,5.2-1,10.3-3,15.1c-2,4.8-4.9,9.2-8.4,13
	c-1.8,2.1-4.1,3.6-6.7,4.6c-0.7,0.2-1.4,0.4-2.2,0.4c-0.8,0-1.5-0.1-2.2-0.3c-1.4-0.4-2.7-1.3-3.7-2.4c-0.9-1.1-1.6-2.3-2.1-3.6
	c-0.5-1.2-0.9-2.5-1.2-3.8c-0.6-2.5-0.9-5.1-0.9-7.8C91.2,110.2,91.6,105,91.8,99.9z M92,99.9c-0.3,5.1-0.1,10.2,0.6,15.2
	c0.3,2.5,0.8,4.9,1.5,7.4c0.5,2.3,1.5,4.5,3,6.4c1.4,1.7,3.7,2.4,5.7,1.7c2.2-0.8,4.3-2.1,5.9-3.9c3.5-3.6,6.5-7.7,8.8-12.1
	c1.2-2.2,2.1-4.6,2.7-7s0.8-5,0.6-7.5c-0.3-2.5-1.2-4.8-2.7-6.8c-1.5-1.9-3.5-3.5-5.7-4.5c-2.2-1.2-4.5-2-6.9-2.5
	c-1.2-0.2-2.3-0.3-3.5-0.1c-1.2,0.2-2.3,0.5-3.3,1.1c-2.1,1.3-3.7,3.2-4.8,5.5C93,95,92.3,97.5,92,99.9L92,99.9z"/>
<path style="fill:#93C156;" d="M94.1,102.2c0,0,1.7-10,8.3-9.8s11.7,4.6,11.4,10.7s-2.8,22.7-11.7,21.2S93.3,109,94.1,102.2z"/>
<path style="fill:#221E1F;" d="M67.3,96.6c0,0,6.7-1,8.6,8.3s0.5,18.4-3.4,19.3s-10-1.5-11.5-13.8S64.8,97.2,67.3,96.6z"/>
<path style="fill:#221E1F;" d="M105.5,94.5c0,0,8.1,2.4,6.6,11.7s-6,17.4-10,16.9s-8.4-7.8-6.8-19C97.1,92,103,94.2,105.5,94.5z"/>
<path style="fill:#FFFFFF;" d="M66.6,103.5c0.5-0.5,1.4-0.5,1.9,0c0.2,0.2,0.4,0.5,0.4,0.8c0.2,0.8-0.3,1.6-1.1,1.7
	c-0.3,0.1-0.6,0-0.9-0.1c-0.7-0.2-1.1-1-0.9-1.8C66.1,103.9,66.3,103.6,66.6,103.5z"/>
<path style="fill:#FFFFFF;" d="M101.1,102c0.5-0.5,1.4-0.5,1.9,0c0.2,0.2,0.4,0.5,0.4,0.8c0.2,0.8-0.3,1.6-1.1,1.7
	c-0.3,0.1-0.6,0-0.9-0.1c-0.7-0.2-1.1-1-0.9-1.8C100.7,102.4,100.9,102.2,101.1,102z"/>
<path style="fill:#FFFFFF;" d="M61.5,98.1c1.4-1.1,3.5-1,4.1,1.4s-1.9,3.4-3.4,2.9c-1.3-0.4-2-1.7-1.6-3
	C60.7,98.8,61,98.4,61.5,98.1z"/>
<path style="fill:#FFFFFF;" d="M96.4,97.7c1.4-1.1,3.5-1,4.1,1.4s-1.9,3.4-3.4,2.9c-1.3-0.4-2-1.7-1.6-3C95.6,98.5,96,98,96.4,97.7z
	"/>
<path style="fill:#FFFFFF;" d="M75.3,121.1c0,0-2.1-3.2-0.3-4.2c1.5-0.8,3.3,1.8,3.8,3.7S77.9,124.5,75.3,121.1z"/>
<path style="fill:#FFFFFF;" d="M108.8,116.3c0,0-2.1-3.2-0.3-4.2c1.5-0.8,3.3,1.8,3.8,3.7S111.3,119.7,108.8,116.3z"/>
<path style="fill:#BCD896;" d="M89.8,170.9c-0.2-2-1.9-3.6-4-3.4c-1.8,0.1-3.3,1.6-3.4,3.4c-0.5,3.1-1.5,12.7-0.1,13.5
	c3,1.8,8.6,2.7,9.4-0.6C92,182.9,89.9,171.1,89.8,170.9z"/>
<path style="fill:#489A44;" d="M94.5,163.7c-3.4,0.8-6.8,1.1-10-0.2s-6,1.9-2.9,3.2c4.4,1.8,9.6,1.7,14.4,0.6
	C99.5,166.5,98,162.9,94.5,163.7z"/>
<path style="fill:#C5DDA4;" d="M74.3,159.4c2.3,1.3,4.8,2.4,7.3,3.1c2.4,0.7,4.9,1.2,7.5,1.2c2.5,0.1,5-0.2,7.5-0.9
	c1.2-0.3,2.4-0.8,3.4-1.5c0.5-0.3,1.1-0.7,1.5-1.1c0.5-0.4,0.9-1,1.2-1.6c0.1,0.7-0.1,1.5-0.5,2.1c-0.3,0.7-0.7,1.3-1.2,1.8
	c-1,1.1-2.2,2-3.5,2.6c-2.7,1.2-5.6,1.8-8.5,1.7s-5.7-0.8-8.3-2.1C78.1,163.6,75.9,161.7,74.3,159.4z"/>
<path style="fill:#C5DDA4;" d="M116.7,121.6c1.1-0.6,2.4-0.8,3.6-0.6c1.4,0.2,2.7,0.9,3.6,2c0.2,0.3,0.4,0.6,0.6,1
	c0.1,0.3,0.2,0.6,0.3,0.9c0.1,0.6,0.2,1.2,0.2,1.8c0.1,1.2-0.3,2.5-1,3.5l-1.4-3l-0.6-1.3c-0.1-0.2-0.2-0.5-0.3-0.6
	c-0.1-0.1-0.2-0.3-0.2-0.4c-0.5-0.6-1.1-1.2-1.8-1.6C118.6,122.8,117.7,122.3,116.7,121.6z"/>
<path style="fill:#C5DDA4;" d="M81.7,51.6c0.8,1.8,1.5,3.7,2,5.6c0.5,1.8,0.9,3.5,1.3,5.1s0.8,3.2,1.4,4.8c0.6,1.7,1.4,3.4,2.4,5
	c-2.3-0.1-4.4-1.1-5.9-2.8c-1.5-1.6-2.5-3.6-3-5.7c-0.5-2-0.6-4.1-0.4-6.2C79.8,55.4,80.5,53.3,81.7,51.6z"/>
<path style="fill:#C5DDA4;" d="M75.6,54.3c0.3,1.4,0.5,2.7,0.6,4.1c0.1,1.3,0.2,2.6,0.4,3.8c0.1,1.2,0.3,2.4,0.6,3.6
	c0.3,1.3,0.8,2.5,1.4,3.7c-1.5-0.3-2.8-1.3-3.7-2.6c-0.8-1.3-1.4-2.7-1.5-4.2c-0.2-1.4-0.1-2.9,0.2-4.3
	C74.1,56.8,74.7,55.5,75.6,54.3z"/>
<path style="fill:#A7CC75;" d="M125.6,137.9c-0.4,2.6,1.4,2,2.6,2.5c1.4,0.7-8.2,4.2-8.4,9.2s0.6,10.5,9.2,10.8
	c3.2,0.1,0.8-3.1,0.8-3.1s3.2,0.5,2.2-1.4c0,0,3,0.3,1.9-2.4c0,0,4.9-1.4,6.3-4.8s4.9-11.7-11-23.4"/>
<path style="fill:#93C156;" d="M125.7,137.9c0,0.4,0,0.7,0.1,1.1c0.1,0.3,0.3,0.5,0.7,0.6c0.4,0.1,0.8,0.1,1.1,0.1
	c0.2,0,0.5,0.1,0.7,0.1c0.1,0,0.2,0.1,0.2,0.1c0.1,0,0.1,0.1,0.2,0.1c0.2,0.3,0.2,0.7-0.1,1s-0.6,0.7-1,0.9c-0.3,0.3-0.6,0.5-1,0.7
	c-0.6,0.5-1.3,0.9-1.9,1.4c-1.2,0.9-2.3,1.9-3.2,3.1c-0.4,0.5-0.7,1.1-0.8,1.8c0,0.1,0,0.3-0.1,0.4v0.6c0,0.4,0,0.8,0,1.1
	c0,1.5,0.2,3,0.7,4.4s1.6,2.5,2.9,3.2c1.4,0.7,2.9,1.1,4.5,1.1c0.8,0.1,1.6,0,1.6-0.6c-0.1-0.7-0.4-1.4-0.9-1.9l-0.6-0.8l1.1,0.1
	c0.5,0.1,1,0,1.5-0.1c0.2-0.1,0.3-0.2,0.2-0.2c0-0.1-0.1-0.3-0.2-0.4l-0.5-0.9h1.1c0.3,0,0.5,0,0.8-0.1c0.2,0,0.4-0.1,0.5-0.3
	c0.1-0.1,0.1-0.3,0.1-0.4c0-0.1-0.1-0.2-0.1-0.3l-0.1-0.4l-0.3-0.8l0.8-0.3c1.3-0.5,2.5-1.2,3.7-2c0.5-0.4,1-0.9,1.4-1.4
	c0.2-0.3,0.3-0.5,0.4-0.8c0.1-0.3,0.3-0.7,0.4-1c0.5-1.3,0.8-2.7,0.8-4.1c0-1.4-0.2-2.8-0.6-4.1c-1-2.7-2.4-5.3-4.4-7.4l-1.4-1.7
	c-0.5-0.5-1.1-1.1-1.6-1.6c-1-1.1-2.2-2-3.3-3.1l0.1-0.2c2.6,1.6,5.1,3.4,7.3,5.5c2.3,2.2,4.1,4.8,5.3,7.8c1.1,3.1,1,6.6-0.3,9.6
	c-0.1,0.4-0.3,0.7-0.5,1.1c-0.2,0.4-0.4,0.8-0.7,1.1c-0.5,0.7-1.1,1.3-1.8,1.8c-1.3,1-2.8,1.7-4.4,2.1l0.5-1.1l0.2,0.6
	c0,0.2,0.1,0.4,0.1,0.7c0,0.5-0.2,1-0.6,1.4c-0.3,0.3-0.8,0.5-1.2,0.6s-0.8,0.1-1.2,0l0.6-0.9c0.2,0.4,0.3,0.8,0.2,1.3
	c-0.2,0.5-0.5,0.8-1,0.9c-0.6,0.1-1.3,0.1-1.9,0l0.4-0.7c0.2,0.4,0.4,0.7,0.6,1.1c0.2,0.4,0.3,0.9,0.2,1.4c0,0.3-0.2,0.5-0.4,0.7
	s-0.4,0.3-0.7,0.4c-0.4,0.1-0.9,0.1-1.3,0.1c-1.6-0.1-3.3-0.4-4.8-1c-1.6-0.7-2.9-1.9-3.8-3.4c-0.8-1.5-1.2-3.2-1.2-4.9
	c0-0.4,0-0.8,0-1.2v-0.6c0-0.2,0-0.5,0.1-0.7c0.2-0.9,0.6-1.8,1.2-2.5c1-1.3,2.3-2.5,3.8-3.4c0.7-0.4,1.4-0.9,2.1-1.3l1-0.6
	c0.3-0.2,0.6-0.4,0.8-0.6c0.1,0,0,0,0,0.2c0,0.1,0,0.1,0.1,0.1l0,0c0.1,0,0,0,0,0c-0.1-0.1-0.3-0.1-0.5-0.2
	c-0.4-0.1-0.8-0.2-1.2-0.4c-0.5-0.2-0.8-0.6-0.9-1.1c0-0.4,0-0.9,0.1-1.3L125.7,137.9z"/>
<path style="fill:#A7CC75;" d="M45.6,128.9c0,0-10.2,15.2-7,21.5c1.4,2.7,4,4.6,7,5c0.5,0-0.7,2.1,0.3,2.6c0.7,0.3,1.6,0.3,2.3,0
	c0,0-1.8,3,1.4,2.3c0,0-1.1,3.2,3.1,2.3s10-5.9,6.1-13c-1.7-3.1-4.8-5.1-8.3-5.4c1.3-0.8,2.2-2.1,2.6-3.6"/>
<path style="fill:#93C156;" d="M45.7,129c-1.4,2.8-2.8,5.6-4,8.4c-1.2,2.7-2.1,5.6-2.7,8.6c-0.3,1.4-0.2,2.8,0.3,4.1
	c0.6,1.4,1.5,2.6,2.7,3.5c0.6,0.5,1.3,0.8,2,1.1c0.4,0.1,0.7,0.2,1.1,0.3c0.2,0,0.3,0.1,0.5,0.1c0.1,0,0.3,0.1,0.4,0.2
	c0.1,0.1,0.1,0.2,0.1,0.3s0,0.2,0,0.4c-0.1,0.4-0.1,0.7-0.2,1.1c0,0.4,0.1,0.6,0.3,0.6c0.6,0.2,1.3,0.2,1.9-0.1l1.3-0.6l-0.7,1.3
	c-0.1,0.3-0.2,0.5-0.3,0.8s-0.1,0.6,0,0.6s0.1,0,0.3,0.1c0.3,0,0.6-0.1,0.8-0.1l1.1-0.3l-0.3,1.2c-0.1,0.5,0,1,0.2,1.1
	c0.4,0.2,0.8,0.3,1.2,0.2c1.2-0.2,2.3-0.6,3.2-1.2c2.1-1.2,3.5-3.3,3.9-5.6c0.1-1.2,0-2.3-0.4-3.4c-0.1-0.3-0.2-0.6-0.3-0.9
	c-0.1-0.3-0.2-0.6-0.4-0.8c-0.3-0.5-0.6-1-1-1.5c-1.5-2-3.8-3.3-6.3-3.7l-1.8-0.2l1.6-0.8c0.3-0.1,0.6-0.3,0.8-0.5
	c0.3-0.2,0.5-0.5,0.8-0.8c0.5-0.6,0.9-1.2,1.2-1.9l0.2,0.1c-0.2,0.8-0.4,1.5-0.8,2.2c-0.2,0.4-0.4,0.7-0.7,1s-0.6,0.6-1,0.9l-0.2-1
	c1.4,0,2.9,0.3,4.2,0.9c1.3,0.6,2.5,1.5,3.5,2.5c0.5,0.5,1,1.1,1.3,1.7c0.4,0.6,0.7,1.3,1,2c0.6,1.4,0.8,2.9,0.6,4.4s-0.8,3-1.7,4.2
	s-2.1,2.2-3.3,2.9c-1.3,0.8-2.7,1.2-4.2,1.3c-0.4,0-0.8,0-1.2-0.1c-0.5-0.1-1-0.4-1.3-0.8c-0.3-0.4-0.5-0.9-0.5-1.4
	c0-0.4,0.1-0.9,0.2-1.3l0.8,0.9c-0.4,0.1-0.8,0.1-1.2,0.1c-0.3,0-0.5-0.1-0.7-0.2c-0.3-0.1-0.5-0.4-0.6-0.7c-0.2-0.5-0.1-1,0-1.4
	s0.3-0.7,0.5-1l0.6,0.7c-0.9,0.3-1.8,0.3-2.6-0.1c-0.3-0.1-0.5-0.4-0.6-0.6c-0.1-0.2-0.1-0.5-0.1-0.7c0-0.4,0.1-0.8,0.2-1.2
	c0-0.1,0-0.2,0-0.2s0-0.1,0,0s0,0,0.1,0.1s0.1,0,0.1,0c-0.2,0-0.4,0-0.6-0.1c-0.4-0.1-0.8-0.2-1.2-0.3c-0.8-0.3-1.5-0.6-2.2-1.1
	c-0.7-0.4-1.3-0.9-1.9-1.5c-0.6-0.6-1.1-1.2-1.5-1.9c-0.8-1.5-1.2-3.3-0.9-5c0.2-1.6,0.6-3.2,1.2-4.7c0.5-1.5,1.2-3,1.9-4.4
	c1.5-2.8,3.2-5.4,5.2-7.9L45.7,129z"/>
<path style="fill:#489A44;" d="M45.6,155.4c0.5-0.1,1.1-0.1,1.6-0.1s1,0,1.5,0.1s1,0.2,1.5,0.2s1-0.2,1.4-0.5l0.5-0.3v0.7
	c0,0.4,0,0.9,0,1.3c0,0.4,0.2,0.7,0.4,1c0.1,0.1,0.1,0.1,0.2,0.2l0.1,0.1l0.2,0.1c0.3,0.2,0.5,0.5,0.6,0.8c0.1,0.4,0,0.7-0.3,1
	c-0.2,0.2-0.4,0.3-0.7,0.4l-0.1-0.1c0.3-0.4,0.4-0.9,0.3-1c-0.1-0.1-0.2-0.2-0.4-0.2l-0.1-0.1l-0.2-0.1c-0.1-0.1-0.3-0.2-0.4-0.3
	c-0.4-0.5-0.6-1.1-0.6-1.7c0-0.5,0.1-1.1,0.4-1.6l0.4,0.4c-0.6,0.1-1.1,0.1-1.6,0.2s-1.1,0.2-1.6,0.3s-1.1,0-1.6-0.1
	S46.1,155.8,45.6,155.4L45.6,155.4z"/>
<path style="fill:#489A44;" d="M133.9,153.5c-0.5,0.5-1.2,0.8-1.9,0.9c-0.7,0.2-1.4,0.1-2.1-0.1c-0.7-0.1-1.3-0.1-2-0.1
	s-1.3-0.1-2-0.3l0.7-0.8c0.2,0.3,0.3,0.6,0.4,0.9c0.1,0.3,0.2,0.7,0.2,1c0.1,0.7,0,1.4-0.4,2h-0.1c-0.1-0.6-0.3-1.2-0.5-1.8
	c-0.1-0.3-0.2-0.6-0.3-0.8l-0.3-0.8l-0.5-1.2l1.1,0.4c0.6,0.2,1.2,0.4,1.8,0.7s1.3,0.4,1.9,0.3c0.3-0.1,0.6-0.2,1-0.2
	c0.3-0.1,0.6-0.1,0.9-0.1c0.6-0.1,1.3-0.1,2-0.1L133.9,153.5z"/>
<path style="fill:#C5DDA4;" d="M67.5,189.7c2.5-2.4,5.5-4.2,8.7-5.4s6.6-2,10-2.2c1.7-0.1,3.4-0.2,5.1-0.1c0.8,0.1,1.7,0.1,2.6,0.2
	s1.7,0.3,2.5,0.4c1.7,0.3,3.3,0.8,4.9,1.3c0.8,0.3,1.6,0.6,2.4,1s1.6,0.7,2.3,1.2c-1.7,0.3-3.4,0.3-5,0.4s-3.2,0.1-4.9,0.3
	c-3.2,0.1-6.3,0.4-9.5,0.6s-6.3,0.6-9.4,1S70.9,189.1,67.5,189.7z"/>
<path style="fill:#489A44;" d="M94.4,167.4c0.2,2.6,0.1,5,0.2,7.4c0,1.2,0.1,2.4,0.2,3.6s0.2,2.4,0.2,3.8c-1.6-2.1-2.5-4.7-2.5-7.3
	c0-1.3,0.1-2.6,0.4-3.9C93.2,169.7,93.7,168.5,94.4,167.4z"/>
<path style="fill:#C5DDA4;" d="M128.9,142.9c-0.9,1-1.7,1.9-2.6,2.8c-0.8,0.8-1.6,1.7-2.2,2.6c-0.1,0.2-0.3,0.4-0.4,0.7
	c-0.1,0.2-0.2,0.5-0.4,0.8c-0.2,0.5-0.4,1-0.6,1.6c-0.2,1.2-0.2,2.4-0.1,3.6c-0.4-0.5-0.8-1.1-1.1-1.6c-0.3-0.6-0.5-1.3-0.5-2.1
	c0-0.7,0.1-1.4,0.3-2.1c0.1-0.3,0.2-0.7,0.3-1c0.1-0.3,0.3-0.7,0.5-1c0.8-1.1,1.8-2.1,3-2.7C126.4,143.6,127.6,143.1,128.9,142.9z"
	/>
<path style="fill:#C5DDA4;" d="M46.5,132.9c-0.9,1.5-1.7,3-2.4,4.6c-0.6,1.6-1.2,3.2-1.6,4.8c-0.4,1.6-0.7,3.3-0.9,4.9
	c-0.1,0.8-0.1,1.6,0,2.3c0.2,0.8,0.4,1.7,0.7,2.5c-0.8-0.5-1.4-1.2-1.9-2.1c-0.4-0.9-0.7-1.8-0.7-2.8c0-1.8,0.3-3.6,0.8-5.4
	c0.5-1.7,1.3-3.4,2.3-4.9C43.8,135.3,45,133.9,46.5,132.9z"/>
</svg>
