<?xml version="1.0" encoding="utf-8"?>
<!-- Generator: Adobe Illustrator 22.0.0, SVG Export Plug-In . SVG Version: 6.00 Build 0)  -->
<svg version="1.1" id="Слой_1" xmlns="http://www.w3.org/2000/svg" xmlns:xlink="http://www.w3.org/1999/xlink" x="0px" y="0px"
	 viewBox="0 0 55.8 62.9" style="enable-background:new 0 0 55.8 62.9;" xml:space="preserve">
<title>17_1</title>
<path style="fill:#A49568;" d="M24.5,61.3h-4.6c-0.3,0-1.1-0.1-1.3-0.7s0.5-1.1,1-1.3l4.1-2.7c0-0.6,0.1-7.8,0-9.9v-0.1h-0.2
	l-0.9-0.2h-0.1L22,46.3l-0.4-0.1c-1.8-0.3-3.5-0.8-5.2-1.5c-0.2-0.1-0.4-0.2-0.5-0.4c-0.7-0.5-1.1-1.3-1.2-2.2
	c-0.1-0.4-0.1-0.9,0-1.3c-0.2-0.3-0.3-0.7-0.2-1.1l0,0c-0.1,0-0.2-0.1-0.2-0.2c-0.2,0.1-0.3,0-0.3-0.1c-0.2-0.5-0.4-1-0.5-1.6
	c-0.1-0.5-0.2-0.9-0.2-1.4c-0.1-1-0.2-3.2,0.2-3.9c0.1-0.1,0.2-0.2,0.2-0.4v-0.6c0.1-0.5,0.3-1,0.6-1.4c-0.3-0.2-0.5-0.4-0.5-0.7
	c-0.1-0.8,0.2-1.5,0.7-2.1c0.4-0.2,0.7-0.4,1.1-0.6c0-0.5,0.2-0.9,0.4-1.3c0.1-0.1,0.3-0.2,0.4-0.3s0.2-0.1,0.3-0.2
	c0.7-0.3,1.4-0.6,2.2-0.8l1.1-0.3l0.6-0.2c0.4-0.2,0.7-0.5,1-0.8c0.2-0.3,0.3-0.6,0.4-0.9l0.2-0.6l0.3-0.9c0-0.1,0.1-0.2,0.1-0.3
	s0.1-0.2,0.1-0.3c0-0.2,0.1-0.3,0.2-0.4c0-0.3,0.1-0.6,0.3-0.8c0-0.3-0.1-0.6-0.1-0.9v-1.5c0-1,1.9-5.2,2.2-6.2c0.3-1,0.7-2,1.1-2.9
	c0.2-0.5,0.5-1,0.8-1.4c0.3-0.5,0.8-0.9,1.3-1.2c0.2-0.1,0.4-0.2,0.6-0.2h0.3c0.1,0,0.2,0,0.3,0.1c0.1,0,0.2,0.1,0.3,0.2
	s0.2,0.1,0.3,0.2l0.3,0.6v0.4l0.2-0.2c0.4-0.5,0.8-0.9,1.4-1.1l0.3-0.1c0.1,0,0.2,0,0.2,0.1H33l0.3,0.1l0.2,0.1
	c0.2,0.1,0.3,0.3,0.4,0.5L34.1,5c0.4-0.5,0.9-0.9,1.4-1.3c0.2-0.1,0.3-0.2,0.5-0.3c0.1-0.1,0.3-0.1,0.5-0.1l0,0
	c0.3,0,0.5,0.1,0.7,0.3c0.1,0.2,0.2,0.3,0.3,0.5c0,0.1,0.1,0.2,0.1,0.4v0.6c0,0.3-0.1,0.7-0.2,1c0.1,0.1,0.2,0.2,0.2,0.4
	c0,0.1,0.1,0.2,0.1,0.3c0.1,0.5,0.1,1.1,0,1.6c-0.1,0.5-0.1,1-0.2,1.5c-0.2,1-2.1,5-2.5,6c-0.2,0.5-0.4,0.9-0.6,1.4l-0.6,1.3
	c-0.3,0.7-0.7,1.4-1,2l0,0c0.2,0.6,0.2,1.2,0.2,1.8c0,0.2,0.1,0.3,0.1,0.5c0.1,0.3,0.2,0.5,0.3,0.8c0.1,0.2,0.2,0.3,0.3,0.5
	c0.1,0.2,0.3,0.4,0.5,0.5c2.8,0.9,3.4,2.1,3.8,2.9l0,0c0.7,0.1,1.3,0.4,1.8,0.8c0.1,0,0.1,0.1,0.2,0.1c0.6,0.4,1.1,0.9,1.6,1.5
	c1.9,2.2,1.3,6.9,0,8.8c-0.7,1.3-2,2.2-3.4,2.5c-0.4,0.5-0.9,1-1.4,1.5l-0.5,0.5c-0.8,0.8-1.8,1.4-2.9,1.8h-0.2L33,45.3l-0.3,0.3
	c-0.8,0.3-1.7,0.6-2.5,0.8v10.4c0.9,0.5,3.9,2.5,4.7,2.9c0.2,0.1,0.8,0.4,0.7,1c-0.1,0.3-0.4,0.6-0.7,0.7h-0.1
	C34.6,61.2,28.8,61.3,24.5,61.3z"/>
<path style="fill:#FFFFFF;" d="M36.6,3.7c0.1,0,0.2,0,0.3,0.1C37,3.9,37,4,37.1,4.1v0.8c-0.1,0.4-0.2,0.9-0.3,1.3
	c0.1,0,0.2,0,0.2,0.1s0.1,0.2,0.2,0.2v0.2c0.1,0.5,0.1,1,0,1.5c-0.1,0.5-0.1,1-0.2,1.4c-0.3,0.9-2.2,5-2.6,5.9
	c-0.2,0.5-0.4,0.9-0.6,1.3l-0.6,1.3c-0.4,0.7-0.7,1.5-1.1,2.2c0.2,0.6,0.3,1.2,0.3,1.8c0,0.2,0.1,0.4,0.1,0.7
	c0.1,0.3,0.2,0.5,0.3,0.8c0.1,0.2,0.2,0.4,0.4,0.6c0.2,0.2,0.4,0.4,0.6,0.7c3,1,3.4,2.1,3.7,2.9h0.3c0.6,0.1,1.1,0.4,1.6,0.7l0,0
	c0.6,0.4,1.2,0.9,1.6,1.5c1.7,2,1.2,6.5,0,8.2c-0.7,1.2-1.9,2.1-3.3,2.4c-0.4,0.6-0.9,1.1-1.4,1.6l-0.5,0.5l0,0
	c-0.7,0.7-1.6,1.3-2.6,1.7H33c-0.4,0.1-0.5,0.4-0.8,0.6c-0.9,0.3-1.8,0.6-2.8,0.9v0.7l0,0V57c0,0,4,2.5,4.9,3.1s0.1,0.7,0.1,0.7
	H19.7c-1.8-0.1-0.1-1-0.1-1l4.2-2.8c0,0,0.1-7.5,0-10.2v-0.5l0,0l-0.6-0.1l0,0L22.4,46h-0.5l-0.4-0.1c-1.8-0.3-3.5-0.8-5.1-1.5
	c-0.1-0.1-0.3-0.2-0.4-0.3l0,0c-0.6-0.5-0.9-1.2-1-1.9l0,0c-0.1-0.5-0.1-0.9,0-1.4c-0.2-0.2-0.4-0.5-0.3-0.8v-0.3
	c0-0.1,0-0.1-0.1-0.1s-0.2-0.1-0.3-0.2l-0.1-0.1c-0.3-0.5-0.5-1-0.6-1.6c-0.1-0.4-0.2-0.9-0.2-1.3l0,0c-0.2-1.2-0.2-2.4,0.1-3.6
	c0.5-0.8,0.2-0.7,0.3-1.2c0.2-0.6,0.5-1.2,0.8-1.8c-0.1,0-0.3-0.1-0.4-0.1c-0.6-0.2-0.5-1.3,0.2-2c0.4-0.3,0.8-0.4,1.2-0.5
	c0-0.5,0.2-0.9,0.5-1.3c0.1-0.1,0.2-0.2,0.3-0.2s0.1-0.1,0.2-0.1l0,0c1-0.4,2.1-0.8,3.2-1.1l0.6-0.2c0.5-0.2,0.9-0.5,1.2-0.9
	c0.2-0.3,0.4-0.6,0.5-1c0.1-0.5,0.3-1,0.4-1.5c0-0.1,0.1-0.2,0.1-0.3l0.1-0.3c0.1-0.2,0.2-0.5,0.3-0.7l-0.1,0.2l0,0
	c0-0.3,0.1-0.6,0.3-0.8c-0.1-0.3-0.1-0.7-0.1-1v-1.5c0-1,1.9-5.1,2.2-6.1c0.3-1,0.6-1.9,1.1-2.8c0.2-0.5,0.5-0.9,0.8-1.3
	c0.3-0.4,0.7-0.8,1.1-1.1c0.1-0.1,0.3-0.1,0.4-0.1h0.2c0.1,0,0.2,0,0.2,0.1s0.1,0.1,0.2,0.1l0.2,0.2c0.1,0.1,0.1,0.1,0.1,0.2v0.2
	c0,0.3-0.1,0.5-0.1,0.8c-0.1,0.2-0.2,0.5-0.2,0.7l-0.6,1.5l0.2-0.3l0.9-1.2c0.3-0.4,0.6-0.8,1-1.2c0.4-0.4,0.8-0.7,1.3-0.9h0.7
	l0.1,0.1c0.2,0.1,0.3,0.2,0.3,0.4v0.4c0,0.2-0.1,0.4-0.1,0.6l0.2-0.3l0,0l0.3-0.3C33.8,6,34,5.8,34.2,5.5c0.4-0.4,0.8-0.8,1.3-1.2
	c0.1-0.1,0.2-0.2,0.4-0.2C36.1,3.9,36.3,3.8,36.6,3.7L36.6,3.7 M25.7,15.5c0.1-0.3,1.9-3.7,2-4C27.6,11.8,25.8,15.2,25.7,15.5
	 M24.9,18.8L24.9,18.8 M36.5,2.7L36.5,2.7c-0.3,0-0.5,0.1-0.7,0.1c-0.2,0.1-0.5,0.3-0.7,0.4c-0.5,0.3-0.9,0.7-1.3,1.1l-0.1-0.1
	l-0.2-0.1c-0.1,0-0.2-0.1-0.3-0.1h-0.8l-0.2,0.1h-0.1c-0.4,0.2-0.8,0.4-1.2,0.7c0-0.1,0-0.1-0.1-0.2h-0.1l-0.3-0.3l-0.1-0.1
	C30.1,4.1,29.9,4,29.8,4c-0.2-0.1-0.3-0.1-0.5-0.1h-0.4c-0.2,0-0.4,0.1-0.6,0.2h-0.1c-0.6,0.4-1,0.8-1.4,1.4
	c-0.3,0.5-0.6,0.9-0.9,1.4c-0.5,1-0.9,2-1.2,3c-0.3,1-2.2,5.2-2.2,6.3v1.6c0,0.3,0,0.5,0.1,0.8c-0.1,0.2-0.2,0.5-0.2,0.7
	c-0.1,0.1-0.1,0.3-0.2,0.4L22,20.1c0,0.1-0.1,0.2-0.1,0.4s-0.2,0.6-0.2,0.9L21.5,22c-0.1,0.3-0.2,0.5-0.4,0.7
	c-0.2,0.3-0.5,0.5-0.8,0.6l-0.5,0.2l-1,0.3c-0.8,0.2-1.5,0.5-2.2,0.8c-0.1,0.1-0.3,0.1-0.4,0.2c-0.5,0.4-0.9,0.9-1.1,1.5
	c-0.3,0.1-0.6,0.3-0.9,0.5L14,26.9c-0.7,0.6-1,1.6-0.9,2.5c0.1,0.3,0.2,0.6,0.4,0.8c-0.2,0.3-0.3,0.7-0.4,1.1V32L13,32.1v0.1
	c-0.6,1-0.3,3.7-0.3,4.2c0,0.5,0.1,1,0.2,1.5c0.1,0.6,0.3,1.2,0.6,1.7c0.1,0.2,0.2,0.3,0.3,0.4l0,0c0,0.3,0.1,0.7,0.2,1
	c0,0.4,0,0.9,0.1,1.3c0.1,1,0.6,1.9,1.4,2.5c0.1,0.1,0.3,0.2,0.4,0.3l0.1,0.1c1.7,0.7,3.5,1.2,5.3,1.5l0.4,0.1h0.5l0.7,0.1
	c0.1,1.7,0,8.6,0,9.3L19,58.8c-0.9,0.5-1.3,1.2-1.2,1.8c0.2,1,1.4,1,1.8,1.1h15c0.6-0.1,1-0.5,1.1-1.1c0-0.6-0.3-1.2-0.9-1.5
	c-0.7-0.4-3.3-2-4.4-2.7v-9.8c0.8-0.2,1.5-0.5,2.3-0.8c0.2-0.1,0.4-0.2,0.5-0.4h0.2c1.1-0.4,2.1-1.1,3-1.9l0,0l0.5-0.5
	c0.5-0.4,1-0.9,1.4-1.5c1.5-0.4,2.7-1.4,3.5-2.7c1.4-2,2-7-0.1-9.4c-0.5-0.6-1.1-1.2-1.8-1.7H40c-0.5-0.4-1.1-0.6-1.7-0.8
	c-0.5-1-1.3-2-3.9-2.9c-0.1-0.1-0.2-0.3-0.3-0.4c-0.1-0.2-0.2-0.3-0.3-0.5l0,0c-0.1-0.2-0.2-0.4-0.3-0.6c0-0.1-0.1-0.3-0.1-0.4
	c0-0.6-0.1-1.1-0.2-1.7l0.9-1.8l0.6-1.3c0.2-0.4,0.4-0.9,0.6-1.4c0.3-1,2.3-5,2.5-6c0.1-0.5,0.2-1,0.2-1.5l0,0
	c0.1-0.6,0.1-1.1,0-1.7c0-0.1,0-0.3-0.1-0.4V6.2c0-0.1-0.1-0.2-0.2-0.3c0.1-0.3,0.1-0.5,0.2-0.8V4.4c0-0.2,0-0.3-0.1-0.5
	c-0.1-0.3-0.3-0.6-0.5-0.8C37.1,2.8,36.8,2.7,36.5,2.7L36.5,2.7z"/>
<path style="fill:#6EAD51;" d="M23.7,19.2c-0.4-2.4,1.6-7.9,2.5-10.1c1.5-3.7,3-4.5,3.6-3.7s-4,8.7-4.2,10.6l-0.2,2v0.8"/>
<path style="fill:#385737;" d="M23.7,19.2c-0.1-0.5-0.2-1-0.2-1.5v-1.5c0-1,1.9-5.1,2.2-6.1c0.3-0.9,0.6-1.8,1.1-2.7
	c0.2-0.5,0.5-0.9,0.8-1.3c0.3-0.4,0.7-0.8,1.1-1.1c0.1-0.1,0.3-0.1,0.4-0.1h0.2c0.1,0,0.2,0,0.2,0.1s0.1,0.1,0.2,0.1l0.2,0.2
	C29.9,5.4,30,5.4,30,5.5v0.2c0,0.3-0.1,0.5-0.1,0.8c-0.1,0.2-0.2,0.5-0.2,0.7l-1.2,2.7c-0.2,0.5-0.4,0.9-0.6,1.4s-2,4-2.2,4.5
	c0,0.2-0.1,0.5-0.1,0.7l-0.1,0.7l-0.2,1.5v-2.9c0.1-0.5,1.9-4.1,2.1-4.6c0.2-0.4,0.4-0.9,0.5-1.4C28.3,8.9,28.7,8,29,7.1
	c0.1-0.2,0.2-0.5,0.2-0.7c0.1-0.2,0.1-0.5,0.1-0.7V5.5l-0.1-0.1l-0.1-0.1c-0.2,0-0.4,0-0.5,0.1c-0.4,0.3-0.7,0.6-1,1
	c-0.3,0.4-0.5,0.8-0.8,1.2c-0.5,0.9-0.9,1.8-1.2,2.7c-0.3,0.9-2.2,5-2.3,6C23.4,17.2,23.5,18.2,23.7,19.2z"/>
<path style="fill:#6EAD51;" d="M24.9,18.5c0,0,3-8.1,4.4-10s2.6-3.7,3.7-3.3s-0.9,3.4-1.7,5.1L28.8,15c-0.4,0.9-0.7,1.8-0.9,2.7
	c-0.2,1.2-0.1,0.7-0.1,0.7"/>
<path style="fill:#385737;" d="M24.9,18.5c0.4-2,2.7-7,3.5-8.9c0.2-0.5,0.5-0.9,0.8-1.3l0.9-1.2c0.3-0.4,0.6-0.8,1-1.2
	c0.4-0.4,0.8-0.7,1.3-0.9h0.7l0.1,0.1c0.2,0.1,0.3,0.2,0.3,0.4v0.4c-0.1,0.5-0.3,1-0.5,1.5c-0.4,0.9-1,1.8-1.4,2.7l-0.7,1.3
	c-0.2,0.5-2.2,4-2.3,4.5c-0.2,0.4-0.4,0.9-0.5,1.4C28,17.5,28,17.8,27.9,18l-0.1,0.4v0.2l0,0l0,0l0,0V18c0-0.2,0.1-0.5,0.1-0.7
	c0.1-0.5,0.3-1,0.4-1.5s2.1-4,2.3-4.5s0.4-0.9,0.6-1.4c0.4-0.9,0.9-1.8,1.4-2.7c0.2-0.4,0.4-0.9,0.5-1.4V5.5c0-0.1,0-0.1-0.1-0.2
	h-0.4c-0.4,0.2-0.8,0.5-1.1,0.8c-0.3,0.4-0.6,0.8-1,1.1c-0.3,0.4-0.6,0.8-0.9,1.2c-0.3,0.4-0.6,0.9-0.8,1.3
	c-0.4,0.9-2.5,4.9-2.8,5.9C25.6,16.5,25.2,17.5,24.9,18.5z"/>
<path style="fill:#6EAD51;" d="M30.3,19.2c0,0,5.1-9.9,5.6-11s2.7-6.9-1.3-2.5s-6.9,13.8-6.9,13.8"/>
<path style="fill:#385737;" d="M30.3,19.2c1-2.1,3.7-7.3,4.6-9.5c0.2-0.5,0.5-1.1,0.7-1.6S36,7,36.2,6.5c0.2-0.5,0.4-1.1,0.5-1.6
	V4.5c0-0.1,0-0.2-0.1-0.3h-0.1c-0.1,0.1-0.2,0.1-0.3,0.2c-0.5,0.3-0.9,0.7-1.3,1.1l-0.6,0.6L34,6.5l-0.3,0.3
	c-0.2,0.2-0.4,0.4-0.5,0.7l-0.5,0.7l-0.9,1.5c-0.6,1-2.7,5.2-3.2,6.3c-0.4,1.1-0.8,2.2-1,3.3c0.4-2.3,2.8-7.7,3.9-9.8
	c0.5-1.1,1.1-2.1,1.9-3c0.1-0.1,0.2-0.2,0.3-0.4L34,5.8c0.2-0.2,0.4-0.4,0.6-0.7c0.4-0.4,0.8-0.8,1.3-1.2c0.1-0.1,0.2-0.2,0.4-0.2
	c0.1,0,0.2-0.1,0.3-0.1s0.3,0,0.3,0.1S37,3.9,37.1,4v0.8C37,5.4,36.8,6,36.6,6.5c-0.2,0.6-0.4,1.1-0.6,1.6c-0.2,0.6-0.5,1.1-0.8,1.6
	C34.2,11.9,31.4,17.1,30.3,19.2z"/>
<path style="fill:#6EAD51;" d="M30.4,19.4c0,0,5.8-12.9,6.4-13s-1.7,7.7-2.9,10.1S32,20.7,32,20.7"/>
<path style="fill:#385737;" d="M30.4,19.4c0.7-1.8,3.1-6.7,3.8-8.4c0.4-0.9,0.8-1.8,1.2-2.6c0.2-0.5,0.4-0.9,0.7-1.3
	c0.1-0.2,0.2-0.4,0.4-0.6c0-0.1,0.1-0.1,0.2-0.2h0.2c0.1,0,0.2,0,0.2,0.1s0.1,0.2,0.2,0.2v0.2c0.1,0.5,0.1,1,0,1.5
	c-0.1,0.5-0.1,1-0.2,1.4c-0.2,0.9-2.1,5-2.5,5.9c-0.2,0.5-0.4,0.9-0.6,1.3l-0.6,1.3c-0.4,0.9-0.8,1.7-1.2,2.6c0.3-0.9,0.7-1.8,1-2.7
	c0.2-0.4,0.4-0.9,0.6-1.3l0.3-0.6c0.1-0.2,0.2-0.5,0.2-0.7c0.3-0.9,2.3-5,2.4-6c0.1-0.5,0.2-0.9,0.2-1.4V6.5H37l-0.3,0.1
	c-0.1,0.2-0.3,0.4-0.4,0.6c-0.2,0.4-0.4,0.8-0.7,1.3c-0.4,0.9-0.8,1.7-1.2,2.6L30.4,19.4z"/>
<path style="fill:#A2C86A;" d="M23.7,18.8c-0.3-2.1,1.6-7.4,2.3-9.5C27.3,6,28.8,4.9,29.3,5s-1.9,2.4-2.5,5.3
	c-0.4,1.8-2.3,6.7-2.4,8.5"/>
<path style="fill:#A2C86A;" d="M25.1,18.6c0.4-1.8,2.7-6.6,3.3-8.3c1-1.8,2.2-3.5,3.7-5c0.4-0.1,0.7,0.2,0.4,0.6s-3.3,4.4-3.5,5.3
	s-2.7,7.4-2.7,7.4"/>
<path style="fill:#A2C86A;" d="M27.9,19.6c0.1-1.4,0.4-2.8,0.9-4.1c1.4-3,2.9-6,4.7-8.8C34.1,6,35.9,3.9,36.2,4
	c0.3,0.1-1.4,2.6-2,3.6c-0.8,1.2-1.5,2.5-2,3.8c-0.6,1.7-2.7,6.5-2.9,8.2"/>
<path style="fill:#A2C86A;" d="M30.2,19.9c0,0,1.2-3,1.6-3.9s4.5-9.4,4.9-9.6s-4,9.2-4.3,10.2s-1.3,3.8-1.3,3.8"/>
<path style="fill:#377845;" d="M23.7,19.2c-0.1-0.5-0.2-1-0.2-1.5v-1.5c0-1,1.9-5.1,2.2-6.1c0.3-0.9,0.6-1.8,1.1-2.7
	c0.2-0.5,0.5-0.9,0.8-1.3c0.3-0.4,0.7-0.8,1.1-1.1c0.1-0.1,0.3-0.1,0.4-0.1h0.2c0.1,0,0.2,0,0.2,0.1s0.1,0.1,0.2,0.1l0.2,0.2
	C29.9,5.4,30,5.4,30,5.5v0.2c0,0.3-0.1,0.5-0.1,0.8c-0.1,0.2-0.2,0.5-0.2,0.7l-1.2,2.7c-0.2,0.5-0.4,0.9-0.6,1.4s-2,4-2.2,4.5
	c0,0.2-0.1,0.5-0.1,0.7l-0.1,0.7l-0.2,1.5v-2.9c0.1-0.5,1.9-4.1,2.1-4.6c0.2-0.4,0.4-0.9,0.5-1.4C28.3,8.9,28.7,8,29,7.1
	c0.1-0.2,0.2-0.5,0.2-0.7c0.1-0.2,0.1-0.5,0.1-0.7V5.5l-0.1-0.1l-0.1-0.1c-0.2,0-0.4,0-0.5,0.1c-0.4,0.3-0.7,0.6-1,1
	c-0.3,0.4-0.5,0.8-0.8,1.2c-0.5,0.9-0.9,1.8-1.2,2.7c-0.3,0.9-2.2,5-2.3,6C23.4,17.2,23.5,18.2,23.7,19.2z"/>
<path style="fill:#377845;" d="M24.9,18.5c0.4-2,2.7-7,3.5-8.9c0.2-0.5,0.5-0.9,0.8-1.3l0.9-1.2c0.3-0.4,0.6-0.8,1-1.2
	c0.4-0.4,0.8-0.7,1.3-0.9h0.7l0.1,0.1c0.2,0.1,0.3,0.2,0.3,0.4v0.4c-0.1,0.5-0.3,1-0.5,1.5c-0.4,0.9-1,1.8-1.4,2.7l-0.7,1.3
	c-0.2,0.5-2.2,4-2.3,4.5c-0.2,0.4-0.4,0.9-0.5,1.4C28,17.5,28,17.8,27.9,18l-0.1,0.4v0.2l0,0l0,0l0,0V18c0-0.2,0.1-0.5,0.1-0.7
	c0.1-0.5,0.3-1,0.4-1.5s2.1-4,2.3-4.5s0.4-0.9,0.6-1.4c0.4-0.9,0.9-1.8,1.4-2.7c0.2-0.4,0.4-0.9,0.5-1.4V5.5c0-0.1,0-0.1-0.1-0.2
	h-0.4c-0.4,0.2-0.8,0.5-1.1,0.8c-0.3,0.4-0.6,0.8-1,1.1c-0.3,0.4-0.6,0.8-0.9,1.2c-0.3,0.4-0.6,0.9-0.8,1.3
	c-0.4,0.9-2.5,4.9-2.8,5.9C25.6,16.5,25.2,17.5,24.9,18.5z"/>
<path style="fill:#377845;" d="M27.6,19.4c0.4-2.3,2.8-7.7,3.9-9.8c0.5-1.1,1.1-2.1,1.9-3c0.1-0.1,0.2-0.2,0.3-0.4L34,5.9
	c0.2-0.2,0.4-0.4,0.6-0.7C35,4.8,35.4,4.4,35.9,4c0.1-0.1,0.2-0.2,0.4-0.2c0.1,0,0.2-0.1,0.3-0.1s0.3,0,0.3,0.1S37,4,37.1,4.1v0.8
	c-0.1,0.6-0.2,1.2-0.5,1.7c-0.2,0.6-0.4,1.1-0.6,1.6c-0.2,0.6-0.5,1.1-0.8,1.6c-1,2.1-3.8,7.3-4.9,9.3c1-2.1,3.7-7.3,4.7-9.5
	c0.2-0.5,0.5-1.1,0.7-1.6s0.4-1.1,0.6-1.6c0.2-0.5,0.4-1.1,0.5-1.6V4.4c0-0.1,0-0.2-0.1-0.3h-0.1c-0.1,0.1-0.2,0.1-0.3,0.2
	C35.8,4.6,35.4,5,35,5.4L34.4,6L34,6.5l-0.3,0.3c-0.2,0.2-0.4,0.4-0.5,0.7l-0.5,0.7l-0.9,1.5c-0.6,1-2.7,5.2-3.2,6.3
	C28.2,17.1,27.9,18.2,27.6,19.4z"/>
<path style="fill:#377845;" d="M30.4,19.4c0.7-1.8,3.1-6.7,3.8-8.4c0.4-0.9,0.8-1.8,1.2-2.6c0.2-0.5,0.4-0.9,0.7-1.3
	c0.1-0.2,0.2-0.4,0.4-0.6c0-0.1,0.1-0.1,0.2-0.2h0.2c0.1,0,0.2,0,0.2,0.1s0.1,0.2,0.2,0.2v0.2c0.1,0.5,0.1,1,0,1.5
	c-0.1,0.5-0.1,1-0.2,1.4c-0.2,0.9-2.1,5-2.5,5.9c-0.2,0.5-0.4,0.9-0.6,1.3l-0.6,1.3c-0.4,0.9-0.8,1.7-1.2,2.6c0.3-0.9,0.7-1.8,1-2.7
	c0.2-0.4,0.4-0.9,0.6-1.3l0.3-0.6c0.1-0.2,0.2-0.5,0.2-0.7c0.3-0.9,2.3-5,2.4-6c0.1-0.5,0.2-0.9,0.2-1.4V6.5H37l-0.3,0.1
	c-0.1,0.2-0.3,0.4-0.4,0.6c-0.2,0.4-0.4,0.8-0.7,1.3c-0.4,0.9-0.8,1.7-1.2,2.6L30.4,19.4z"/>
<path style="fill:#B39F7D;" d="M24,56.8l-4.3,2.9c0,0-1.7,1,0.1,1h14.7c0,0,0.8-0.2-0.1-0.7s-4.9-3.1-4.9-3.1V46.5
	c-1.8,0.8-3.8,0.8-5.5-0.2C24.2,49.2,24,56.8,24,56.8z"/>
<path style="fill:#A49568;" d="M28.9,47.2c0.2-0.1,0.5-0.2,0.7-0.3v-1.3c0,0-4.8,0.5-5.6,0.4v0.6C25.4,47.6,27.3,47.8,28.9,47.2z"/>
<path style="fill:#A49568;" d="M28.6,47.7V56c0,0,0,0.6-0.5,0.5s-0.5-5.6-0.6-8.2v-1.6C27.5,46.7,28.7,45.9,28.6,47.7z"/>
<path style="fill:#ECE3C3;" d="M25.7,56.8c-0.1,0,0-8.2,0-8.2s-0.1-0.6-0.5-0.5s-0.4,0.5-0.4,1v7.8l-4.1,3c0,0-0.2,0.4,0.6,0.4h7.5
	c1.1,0,1.9-0.4,0-0.4c-1.6,0-3.3,0-4.9-0.2c-0.4-0.1-1-0.3-0.4-0.8S25.7,56.8,25.7,56.8z"/>
<path style="fill:#ECE3C3;" d="M28.4,18.9c0,0-0.5-1.7-1.4-1.5c-1.1,0.3-2,1.2-2.2,2.3c0-0.6-0.1-1.1-0.6-1.2s-1,1.1-1.3,1.7
	s-0.5,3-1.9,3.6s-3.8,1-4.6,1.9c-0.5,0.6-0.7,1.4-0.5,2.1c-0.8,1.1-1.4,2.3-1.9,3.6c-0.1,0.5,0.3,0.4-0.3,1.2s-0.3,4.9,0.6,6.4
	c0.3,0.4,0.4,0.2,0.5,0.5s-0.3,0.7,0.2,1.1c-0.3,1.4,0.3,2.8,1.5,3.6c1.9,0.8,3.9,1.3,6,1.6c1.4,0.3,2.9,0.5,4.3,0.5
	c0.4-0.1,0.8-0.2,1.2-0.2c1.4-0.3,2.8-0.7,4.2-1.2c0.3-0.2,0.4-0.6,1-0.6c1.8-0.8,3.4-2.1,4.6-3.8c1.4-0.2,2.6-1.1,3.3-2.3
	c1.2-1.8,1.7-6.2,0-8.2s-3-2.2-3.5-2.3c-0.4-0.8-0.7-1.9-3.8-2.9c-0.8-0.7-1.3-1.7-1.4-2.8c-0.2-1.4-0.2-2.6-1.3-2.4
	c0-0.9,0.1-2.4-1-2C29.4,17.9,28.8,18.3,28.4,18.9L28.4,18.9z"/>
<path style="fill:#F0EDE8;" d="M26.7,19.2c0.1-0.2,0.2-0.4,0.4-0.6c0.2-0.3,0.1-0.6-0.1-0.8h-0.1c-0.3-0.1-1,0.1-1.9,1.2
	c-0.3,0.8-0.8,3.1-0.9,3.6c-0.3,1.3-0.7,2.5-1.4,3.6c-0.7,1-0.9,1.1-0.9,1.1s2.2-0.1,2.9-1.7S26.4,19.7,26.7,19.2z"/>
<path style="fill:#F0EDE8;" d="M28.5,19.3c0,0,0.5-0.7,1-0.5s0,1.4,0,1.8c-0.1,1.2-0.2,2.4-0.1,3.6c0.1,0.8-0.5,1.8-0.8,1.8
	s-0.6-2-0.5-2.6S28.5,19.8,28.5,19.3z"/>
<path style="fill:#F0EDE8;" d="M24.4,19.2c-0.2,0.4-0.4,0.8-0.6,1.3c-0.1,0.6-0.4,2.9-1.9,3.8c0.5,0.1,1.1,0.4,0.8,0.8s-1-0.2-1.9,0
	s-3.1,0.3-3.7,1.5c-0.1,0.5,0.1,1.1,0.6,1.4c0.5,0.3,0.7,0.9,0.2,0.9s-2-0.5-2.4,0.5c-0.2,1,0.5,1.3,0.6,1.5
	c-0.2,1.8,0.1,3.6,0.9,5.2c0.8,1.5,1.2,2.2,1,2.6s-2.1-0.7-2.4-2.2c-0.3-1.6-0.4-3.2-0.4-4.8c0.1-0.6,0-1.2-0.2-1.7
	c-0.3-0.9,0.3-1.9,1.2-2.2h0.1c-0.2-0.7-0.4-1.9,0.5-2.2l3.6-1.2c0.9-0.3,1.6-1.1,1.9-2c0.4-1.3,0.6-2.6,1.3-3.3
	C24,18.7,24.6,18.9,24.4,19.2z"/>
<path style="fill:#F0EDE8;" d="M19.4,29.4c0,0-0.6-0.5,0.3-0.8s2.6-0.7,3.2-0.9c1.4-0.4,2.8-0.5,4.2-0.2c0.9,0.1,0.7,0.7,0.4,0.7
	c-1.3-0.1-2.7-0.1-4,0.2C22.2,28.8,20.8,29.2,19.4,29.4z"/>
<path style="fill:#A49568;" d="M30.3,25.3c-0.2,0.1-0.8,0.3-0.4,0.5s1.6-0.1,2-0.1H33c0.2,0,0.5-0.2-0.1-0.2
	C32.1,25.3,31.2,25.2,30.3,25.3z"/>
<path style="fill:#F0EDE8;" d="M17.5,35.2c0,0-0.9-1.9-0.2,0.4c0.7,1.6,1.9,2.9,3.5,3.6c2,0.9,4.2,1.3,6.4,1
	c1.2-0.1,2.4-0.5,3.5-1.2c0.4-0.3,0.1-0.8-0.5-0.6c-1.5,0.7-3.2,1-4.9,1c-2.4-0.2-4-0.4-5.8-1.7C18.7,37,18,36.1,17.5,35.2z"/>
<path style="fill:#F0EDE8;" d="M16.4,41.6c-0.1,0-0.9-0.2-0.3,0.4c0.9,0.7,2.1,0.9,3.1,0.4c0.7-0.5,1.3-1.2,1.7-2
	c0.1-0.3,0.1-0.6-0.2-0.3s-0.4,1.2-1.8,1.9C18,42.2,17.1,42.1,16.4,41.6z"/>
<path style="fill:#F0EDE8;" d="M21.9,42.1H24c0.2,0,0.7,0.3,0,0.5S21.4,42.2,21.9,42.1z"/>
<path style="fill:#CBBB96;" d="M18,26.4c0,0-1,0.4-0.5,0.9s0.7,0.7,1.7,0.4c1-0.3,2-0.7,2.9-1.1c0.1-0.1,0.6-0.6-0.2-0.9
	C20.6,25.6,19.2,25.8,18,26.4z"/>
<path style="fill:#D3C39D;" d="M29.2,18.3c0,0-0.2,0.3,0.2,0.3s0.6-0.1,0.6,0.6S29,24,29.9,25c0.6-0.1,1.2-0.2,1.8-0.1
	c-0.6-0.6-1.2-0.8-1-1.8s0.5-4.1,0.2-4.7S30,17.9,29.2,18.3z"/>
<path style="fill:#CBBB96;" d="M35.2,26.3c-1.1-0.8-2.6-0.9-3.8-0.3c-0.1,0-0.1,0.2,0.3,0.2c1,0.2,2,0.5,2.9,0.9
	C34.9,27.4,35.5,26.8,35.2,26.3z"/>
<path style="fill:#CBBB96;" d="M34,28.1c-0.9-0.3-1.8-0.5-2.8-0.8c-0.5,0-0.9,0.4-1,0.9c0,0.4,0.4,0.5,1.2,0.8
	c1.2,0.3,2.5,0.5,3.8,0.7c0.4,0,0.4-0.7,0.2-0.8s-0.3,0.1-0.6,0.2s-1,0.2-1.2-0.2S33.3,28.4,34,28.1z"/>
<path style="fill:#CBBB96;" d="M28.9,28.1c0,0-4.5-0.3-5.4,0.2c-1.1,0.4-4.8,1.4-5.7,1.2s-1.4-0.7-1.8-0.1c-0.2,0.2-0.1,0.5,0.1,0.7
	c0.1,0.1,0.2,0.1,0.2,0.1c0,0-0.1,2.8,0.7,3.4c0-0.4,0-0.8-0.2-1.1c-0.1-0.4-0.3-2.3,0.2-2.4c1.1,0,2.2-0.1,3.3-0.4
	c1.2-0.4,2.5-0.7,3.7-1c1.1-0.1,2.3-0.1,3.4,0C28,28.9,29.1,28.7,28.9,28.1z"/>
<path style="fill:#D3C39D;" d="M13.6,36.3c0-0.1,0.3-1,0.4-0.1s1,3.1,2.2,3.7s1.8,1.1,2.2,0.9c0.5-0.5,0.6-1.2,0.3-1.8
	c-0.3-0.6-0.6-1.2-0.7-1.8c0-0.1,0.1-0.3,0.3,0c0.9,1.1,2.1,2,3.5,2.5c0.4,0.5,0.8,1.1,0.4,1.4s-0.7-0.9-1-1s-0.7-0.3-0.9,0.4
	s-1.7,1.9-2.3,1.7c-1.1-0.2-2.1-0.7-2.9-1.5c-0.2-0.2-0.3-0.3-0.3-1.1c-0.1-0.3-0.4-0.2-0.5-0.5C13.9,38.2,13.7,37.3,13.6,36.3z"/>
<path style="fill:#B39F7D;" d="M15.1,42c0-0.1,2,2.4,4.6,2.6c1.2,0.2,2.4,0.1,3.5-0.2c0,0,1.8-0.1,1.6,0.2c-0.1,0.2-0.3,0.3-0.5,0.4
	c0,0,0.9,0.1,0.2,0.4c-0.7,0.2-1.5,0.4-2.3,0.4c-2.1-0.4-4.2-1-6.2-1.9C15.4,43.4,15.1,42.7,15.1,42z"/>
<path style="fill:#D3C39D;" d="M34.8,35.3c-0.8,1.1-1.7,2.1-2.8,3c-1.1,0.9-1.2,1.6-1.1,2s1.4,2.7,0.2,3.7s2.9-0.8,3.4-1.5
	S36.3,33.9,34.8,35.3z"/>
<path style="fill:#B39F7D;" d="M37.2,27.7c-0.6-0.6-1.2-1.1-2-1.4c0,0.3,0.2,0.7-0.5,0.9c0.2,0.2,0.4,0.4,0.6,0.7
	C35.9,27.7,36.6,27.6,37.2,27.7z"/>
<path style="fill:#B39F7D;" d="M38.3,29.9c0.7,1.4,1,2.9,0.9,4.5c-0.3,2.2-0.5,3.4-0.9,3.8c0.2,0.8,0,1.7-0.5,2.4
	c1.6-0.8,3.4-2,4-5.8c0.2-2.9-0.8-5.3-3.6-6.7c-0.8-0.2-0.8-0.1-0.5,0.2C38.1,28.7,38.3,29.3,38.3,29.9z"/>
<path style="fill:#CBBB96;" d="M33.8,27.1c0.4,0.2,0.5,0.6,0.3,0.9c0,0,0,0,0,0.1l0,0c-0.3,0.1-0.8,0-0.8,0.6s0.7,0.9,1.4,0.7
	s0.8,0.4,1.1,0.6s0.3,0.1,0.5,0.2c0,0-0.2,0.5,0.6,0.6s1.2,0.2,1.4,0s0.5-0.4,0.1-0.8c0-0.4,0.5-0.9,0-1.3s-0.7-0.8-1.1-0.7
	s-1.3-0.3-2,0C34.8,27.4,33.5,26.7,33.8,27.1z"/>
<path style="fill:#D3C39D;" d="M35.7,29.9c0.3,2.1-0.2,4.3-1.4,6.1c0,0.8,0.3,6.4,0.3,6.4c0.5-0.2,0.9-0.6,1.2-1.1
	c0.3-0.2,0.9,0.3,0.2,1.3c1-0.9,2.8-2.3,2.4-4.4c0.7-1.6,1-3.4,0.9-5.1c-0.1-1-0.4-1.9-0.8-2.8C37.6,30.3,36.6,30.2,35.7,29.9z"/>
<path style="fill:#B39F7D;" d="M37.8,30.8c0.3,1.8,0.4,3.7,0.1,5.5c-0.1,0.9-0.4,1.9-0.8,2.7c-0.2,0.3-0.3-0.8-0.1-1.8
	c0.2-1-0.2-2-1-2.6c-0.3-0.3-0.2-0.5-0.1-0.9c0.1-1.1,0.2-2.1,0.1-3.2c-0.1-0.2-0.1-0.3-0.1-0.5C35.9,30,37.8,30.5,37.8,30.8z"/>
<path style="fill:#D3C39D;" d="M22.4,40.8c0.7,0.1,1.5,0.3,2.2,0.5c0.6,0.3,1.1,0.9,0.9,1.4c-0.1,0.3-0.2,0.5-0.4,0.8
	c0,0,0.7,0.6,1,0.9c0.8,0,3.9,0.3,6-1c0.5-0.3,0.4,0.2,0,0.5c-1.9,1-4,1.5-6.1,1.6c-0.2,0-0.5,0-0.7-0.1c0.2-0.6-0.2-1.2-0.8-1.4
	c0,0,0,0,0,0h-0.3c-0.3-0.5-0.1-0.6,0.2-0.8s0.8-1.3-0.8-1.6C22.6,41.4,21.5,41.4,22.4,40.8z"/>
<path style="fill:#B39F7D;" d="M24.8,41.8c0,0,0.6,1.3-0.4,1.8c0.5,0.2,0.9,0.6,1.1,1.1c0.1,0.4,0.2,1-2.1,1.3l-0.9-0.2
	c0.4-0.4,0.8-0.6,1.3-0.8c0.6,0,1.1-0.2,1.1-0.4s-0.4-0.5-1.1-0.6s-1.2,0-1-0.4s0.5-0.3,0.9-0.6s0.7-0.3,0.7-0.6s0.1-0.6-0.5-0.6
	c-0.6,0.1-1.3,0.1-1.9,0c-0.5-0.2-0.7-0.2-0.7-0.7c0-0.3,0-0.7,0.1-1c0,0,0-0.5,0.3-0.2s0.1,1.2,0.6,1.1
	C23.2,41,24.1,41.3,24.8,41.8z"/>
<path style="fill:#B39F7D;" d="M33.7,24.9c-0.7-0.1-1.3-0.1-2-0.1c-0.7-0.3-1.1-1.1-0.9-1.9c0.1-1,0.5-3.1,0.5-3.1s0.9-0.1,1,1.8
	c0.2,1.3,0.8,2.5,1.7,3.4L33.7,24.9z"/>
<path style="fill:#A49568;" d="M16.9,30.4c-0.2,2.1,0.3,4.2,1.6,5.9c1.7,2,4.7,3.2,8.6,2.7c3.3-1,5.8-2.4,7-5
	c0.4-1.1,0.5-2.2,0.5-3.4c-0.8,0-5-0.7-5-0.7S18.2,30,18.2,30.2S16.9,29.7,16.9,30.4z"/>
<path style="fill:#FFFFFF;" d="M19.9,33.4c0.1,0.1-1.8,2-1.8,2.2c1.4,2.2,3.8,3.5,6.4,3.5c2.9,0,5.5-0.3,8.4-3
	c-0.5-0.9-1.1-1.7-1.8-2.4c0.8-0.8,1.5-1.7,1.9-2.8c-0.8-0.2-6-1.3-6-1.3c-2.1-0.1-4.2,0.1-6.2,0.6c-0.9,0.1-1.7,0.2-2.6,0.2
	C18.5,31.5,19.1,32.5,19.9,33.4z"/>
<path style="fill:#DCD7C5;" d="M26,33.4h1.3c0.4,0,1.2-0.1,0.5-0.4c-2.6-0.3-5.2-0.2-7.8,0.4c-0.5,0.6-0.8,1-0.8,1
	C21.4,33.6,23.7,33.3,26,33.4z"/>
<path style="fill:#DCD7C5;" d="M33.7,30.7c-0.5,1.3-1.3,2.4-2.3,3.2c0.6,0.6,1.2,1.2,1.6,1.9c-0.1,0.2-0.2,0.3-0.4,0.4
	c-0.5-0.8-1.1-1.5-1.9-2.1c-0.3-0.4-0.2-0.6,0.1-0.8c0.6-0.6,1.1-1.3,1.6-2c0.1-0.2,0.2-0.3-0.3-0.4S27.5,30,27,30
	c-1.5,0-3.1,0.1-4.6,0.4c-1.4,0.3-2.8,0.4-4.2,0.2c0-0.1-0.1-0.3-0.1-0.4c1.1,0,2.2-0.2,3.2-0.5c1.7-0.6,3.4-0.9,5.2-0.8
	c1.6,0.3,3.2,0.8,4.8,1.3C32.1,30.4,32.9,30.6,33.7,30.7z"/>
<path style="fill:#A49568;" d="M25.9,29.3c0,0,0-0.5-0.1,0c-0.2,1.3-0.3,2.5-0.3,3.8c0.2-0.1,0.3-0.3,0.3-1.2
	C25.8,31,25.8,30.2,25.9,29.3z"/>
<path style="fill:#A49568;" d="M27.2,17.3c0.5,0,0.9,0.3,1.1,0.7c0.3,0.6,0.3,1.3,0.2,1.9c-0.1,0.5-0.1-0.1-0.1-0.5s0.1-0.5,0-0.8
	s-0.5-1.1-1-1.2S27.1,17.3,27.2,17.3z"/>
<path style="fill:#A49568;" d="M23.3,19.5c0-0.5,0.3-0.9,0.7-1.1c0.4-0.1,0.8,0,1,0.4c0.4-0.5,0.8-0.9,1.3-1.2c0.2-0.1,0.3,0,0,0.2
	c-0.8,0.5-1.4,1.3-1.5,2.2c0-0.8,0-1.3-0.6-1.4C23.9,18.6,23.4,19.3,23.3,19.5z"/>
<path style="fill:#A49568;" d="M29.5,18.1c0,0-0.5,0.2-0.4,0.4s0.3-0.2,0.7-0.4s0.5-0.3,0.7-0.2s0.4,0.1,0.5,1.5s0.1,3.5,0.5,4.1
	c0.2,0.5,0.5,0.8,1,1c0.5,0.2,1,0.5,1,1.1c0,0.3,0.1,0.6,0.2,0.4c0.2-0.6,0-1.2-0.6-1.5l0,0c-0.8-0.5-1.3-0.5-1.5-1.6
	c-0.2-1-0.3-2-0.3-3c0-0.1,0.1-0.3,0.2-0.1c0.2,0.4,0.3,0.8,0.4,1.2c0.1,0.6,0.3,1.2,0.5,1.8c0.1,0.2,0.3,0.4,0.4,0.6
	c-0.2-0.5-0.4-1-0.5-1.5c0-0.5-0.1-2-0.6-2.2S31,19.6,31,19.6s0.3-1.6-0.3-1.9C30.6,17.6,30.3,17.6,29.5,18.1z"/>
<path style="fill:#A49568;" d="M20,24.4l0.7-0.3c0,0,1.6-0.1,2,0.3c0.2,0.1,0.4,0.3,0.2,0.3c-0.6-0.2-1.3-0.3-1.9-0.3H20z"/>
<path style="fill:#A49568;" d="M18.8,25.9c0,0-0.5,0.2-0.5,0.5c0.1,0,0.1,0,0.3-0.1c0.7-0.3,1.4-0.4,2.2-0.5c0.6,0,0.9,0,1-0.1
	s0.3-0.2,0.1-0.3C20.8,25.4,19.8,25.5,18.8,25.9z"/>
<path style="fill:#272A24;" d="M18.5,26.6c-0.2,0.1-0.4,0.3-0.4,0.5c-0.1,0.4,0.1,0.2,0.4,0c0.6-0.3,1.2-0.6,1.9-0.8
	c0.3-0.1,0.8-0.2,1.1-0.3s0.5,0,0.5-0.1s0.2-0.4-0.1-0.5C20.7,25.7,19.6,26.1,18.5,26.6z"/>
<path style="fill:#A49568;" d="M21.2,29.4c0,0,0.2,0,0.1-0.1S21,29.1,21,28.9c0.1-0.5,0.3-0.9,0.7-1.2c0.9-1,1.6-2.1,2.1-3.4
	c0.3-0.9,0.5-1.6,0.5-1.6c-0.2,0.2-0.4,0.5-0.5,0.8c-0.3,1.1-0.8,2.1-1.4,3c-0.7,0.9-1.7,0.9-1.7,2.1c0,0.5,0,0.5,0.3,0.7
	S21.2,29.4,21.2,29.4z"/>
<path style="fill:#A49568;" d="M28.2,19.8c0,0-0.7,4.3-0.4,5.6c0.2,0.7,0.5,1.4,0.9,2c0.3,0.4,0.4,1,0.2,1.5c-0.1,0.2,0,0.3,0.2,0.2
	c0.3-0.5,0.3-1.1,0-1.6c-0.5-0.6-0.8-1.3-1-2c-0.1-0.9-0.2-1.7-0.1-2.6c0.1-1,0.4-2.8,0.4-3S28.3,19.2,28.2,19.8z"/>
<path style="fill:#272A24;" d="M31.6,26.3c0.2,0.1,0.5,0.2,0.7,0.3c0.7,0.2,1.4,0.5,2,0.9c0.2,0.1,0.3,0.2,0.5,0.3
	c0,0,0.6,0.2,0.3-0.2c-0.2-0.3-0.5-0.5-0.8-0.7c0,0,0.7,0.3,0.9,0.4s0.7,0.3,0.3-0.1c-0.6-0.5-1.4-0.9-2.2-1
	C32.2,26.1,31.5,26,31.6,26.3z"/>
<path style="fill:#A49568;" d="M33.5,27.2c0.2,0.3,0.2,0.7,0,1c-0.3,0.4-0.5,0.3-0.3,0.8c0.2,0.4,0.3,0.8,0.3,1.3
	c0.2,0.1,0.3,0,0.3-0.1c0-0.3-0.1-0.6-0.2-0.9c-0.1-0.1-0.3-0.8,0-1c0.2-0.2,0.3-0.5,0.3-0.8C33.8,27.2,33.4,26.9,33.5,27.2z"/>
<path style="fill:#A49568;" d="M14.1,31.7c0.1-0.1,0.2-0.2,0.3-0.2s0.4-0.1,0.6-0.1s0.4-0.1,0.5-0.3c0.1-0.2,0.2-0.3,0.4-0.4
	c0.2-0.1,0.4-0.2,0.5-0.1s0.1,0.2,0,0.2c-0.2,0-0.3,0.1-0.4,0.2c-0.1,0.1-0.2,0.4-0.4,0.5L15,31.8c-0.4,0-0.4,0.1-0.6,0.2
	S14.1,31.8,14.1,31.7z"/>
<path style="fill:#A49568;" d="M16.6,32.3c0,0-0.5,0-0.6,0.7c0,0.7-0.3,1.4-0.8,1.9c-0.6,0.8-0.9,1.8-0.9,2.8c0,1,0,1.5,0.1,1.4
	c0.1-0.4,0.2-0.8,0.1-1.2c0-0.8,0.2-1.6,0.6-2.3c0.4-0.4,0.7-0.9,0.9-1.4c0.1-0.5,0.2-0.9,0.3-1.4c0-0.1,0.1-0.1,0.2-0.2
	C16.6,32.7,16.8,32.4,16.6,32.3z"/>
<path style="fill:#A49568;" d="M18,36.2c0,0-0.5,0.1-0.4,0.8s0.5,0.8,0.4,1.8s0,2.3,0.4,2.6c0.1,0,0-0.1,0-0.3
	c-0.1-0.6-0.1-1.3-0.1-1.9c0.1-0.4,0.1-0.9,0-1.3c-0.1-0.1-0.4-0.7-0.2-1s0.2-0.4,0.3-0.3S18.2,36.2,18,36.2z"/>
<path style="fill:#A49568;" d="M22.9,39.1c0,0-0.3,0-0.4,0.5c0,0.3,0,0.7,0.2,1c0.1,0.3,0.2,0.7,0.2,1c0,0.1,0.1,0.2,0.1,0.1
	c0-0.4,0-0.7-0.1-1.1c-0.1-0.3-0.1-0.7,0-1C23.1,39.3,23.1,39.2,22.9,39.1z"/>
<path style="fill:#A49568;" d="M29.4,38.4c0,0-0.4,0.3-0.2,0.4s0.5-0.2,0.6,0.1c0.1,0.4,0,0.9-0.2,1.3v1.6c0.1,0.7,0,1.5-0.2,2.2
	c-0.2,0.6-0.5,1.1-0.9,1.6c0,0.1,0,0.2,0.2,0c0.7-0.7,1.1-1.6,1.1-2.6c-0.1-0.9-0.1-1.7,0-2.6c0.2-0.3,0.3-0.6,0.3-0.9
	C30.2,39.1,30.3,38.3,29.4,38.4z"/>
<path style="fill:#A49568;" d="M33.1,36c0-0.2,0.1-0.3,0.3-0.3c0,0,0,0,0,0c0.3,0,0.6,0.5,0.4,1.3c0,0.7,0.2,1.5,0.4,2.2
	c0.2,1,0.1,2.1-0.1,3.1c-0.1,0.8-0.4,1.5-0.9,2.1h-0.3c0.5-0.8,0.8-1.7,0.9-2.6c0.2-1.2,0.1-2.4-0.2-3.6c-0.1-0.6-0.2-1.1-0.1-1.7
	C33.5,36.3,33.4,36.1,33.1,36C33.1,36.1,33.1,36.1,33.1,36C33.2,36,33.2,36,33.1,36z"/>
<path style="fill:#A49568;" d="M34.8,32c0,0,0.3-0.2,0.6,0.3s0.2,0.6,0.8,0.8c0.8,0.4,1.4,1.1,1.7,1.9c0.2,0.7,0.4,1.4,0.4,2.1
	c0,0.5,0.1,0.7,0,0.8s-0.1-0.5-0.2-0.8s-0.2-2.2-1.4-3.2c-0.3-0.3-0.7-0.5-1-0.7c-0.3-0.1-0.5-0.3-0.5-0.6c-0.1-0.2-0.3-0.3-0.5-0.2
	c0,0,0,0,0,0C34.5,32.5,34.7,32,34.8,32z"/>
<path style="fill:#F0EDE8;" d="M18,36.2c0,0,0.1-0.2,0-0.2s-0.4,0.1-0.4,0.6c-0.1,0.5,0,1,0.2,1.5c0.1,0.5,0,1.7,0.1,1.9
	c0,0.5,0.1,1,0.3,1.5c0.1,0.3,0.2,0.3,0.3,0.2s0.1-0.1,0-0.2c-0.3-0.6-0.5-1.2-0.5-1.9c0-0.9,0.2-1.5-0.1-1.9s-0.3-1-0.1-1.2
	C17.8,36.4,17.9,36.3,18,36.2z"/>
<path style="fill:#F0EDE8;" d="M22.5,39.9c0,0-0.2-0.3-0.2-0.1c0,0.4,0.1,0.8,0.1,1.2c0,0.3,0,0.5,0.1,0.8c0.1,0.1,0.2,0.1,0.3,0
	c0,0,0,0,0,0c0.1-0.1,0-0.2-0.1-0.5v-0.6C22.6,40.4,22.6,40.1,22.5,39.9z"/>
<path style="fill:#F0EDE8;" d="M29.6,39.4c0,0-0.2,0.5-0.4,0.6s0,1.1,0,1.4c0.2,0.9,0,1.7-0.4,2.5c-0.7,1.1-0.9,1.4-0.8,1.4
	c0.2,0,0.3-0.1,0.4-0.2c0.3-0.4,0.6-0.9,0.8-1.4c0.3-0.8,0.4-1.7,0.2-2.6c0-0.7-0.2-0.8,0.1-1S30,39.1,29.6,39.4z"/>
<path style="fill:#F0EDE8;" d="M33.1,36.1c0,0-0.3,0.2-0.1,0.2s0.4,0.9,0.3,1.4s0.4,0.8,0.4,1.2c0.1,1.1,0.1,2.2-0.2,3.2
	c-0.4,1.2-0.5,1.3-0.4,1.5s0.2,0.1,0.3-0.1c0.4-0.7,0.6-1.5,0.7-2.3c0.1-1,0-2.1-0.3-3.1c-0.1-0.4-0.1-0.9-0.1-1.3
	C33.6,36.4,33.5,36,33.1,36.1z"/>
<path style="fill:#A49568;" d="M17,41.8c0,0-0.6,0-0.2,0.2c0.6,0.2,1.2,0.2,1.8,0c0.4-0.1,0.8-0.3,1.1-0.6c0.3-0.4,0.6-0.8,1-1.2
	c0.2-0.1,0.5,0,0.5,0.5s-0.1,1.2,0.6,1.3s2.2-0.1,2.4,0.2c0,0.2,0,0.3-0.5,0.5s-1.2,0.7-1.1,1s0.8,0.6,1.3,0.6s0.9,0.2,0.8,0.3
	c-0.3,0.2-0.6,0.3-0.9,0.3c-0.3,0-1-0.2-0.9,0.2c0.1,0.1,0.6,0,0.7,0s1,0,0.9,0.1c-0.1,0.2-0.3,0.3-0.5,0.3c-0.2,0-2.1,0-2,0.3
	c0.8,0.1,1.6,0,2.4-0.1c0.3-0.1,0.5-0.2,0.5-0.4s-0.2-0.2-0.1-0.2s0.4-0.1,0.4-0.3s0.1-0.4-0.6-0.6s-1.7-0.3-1.5-0.5
	c0.4-0.3,0.8-0.6,1.3-0.8c0.2-0.1,0.4-0.4,0.3-0.6c-0.1-0.3-0.2-0.4-0.6-0.4h-2c-0.3-0.1-0.5-0.5-0.5-0.8c0-0.5-0.1-1.3-0.7-1.2
	s-0.5,0.5-0.8,0.8s-1,1.3-2,1.3S17,41.8,17,41.8z"/>
<path style="fill:#A49568;" d="M38.3,38.3c0.2-0.1,0.4-0.2,0.5-0.4c0.3-1.1,0.5-2.3,0.7-3.5c0-1.1-0.1-2.1-0.3-3.2
	c-0.2-0.7-0.5-1.5-1-1.6s-1,0.1-0.9,0.3s0.4,0,0.6,0s0.5,0.1,0.4,0.3s0,0.3-0.5,0.3s-0.8,0.1-1-0.1s-0.5-0.4-0.2-0.8
	s0.5-0.7,0.4-0.7s-0.2,0-0.5,0.3s-0.4,0.5-0.3,0.8c-0.2-0.1-0.6-0.3-0.6-0.6c0-0.3,0.2-0.7,0.5-0.8c0.2-0.1,0.2-0.3-0.1-0.2
	c-0.4,0.1-0.7,0.5-0.7,0.9c0,0.5,0.3,0.9,0.7,0.9c0.1,0,0.2,0,0.3,0c0,0.4,0.2,0.7,0.6,0.7c0.4,0.2,1,0.2,1.4,0
	c0.1-0.1,0.2-0.2,0.2-0.4c0.2,0.5,0.4,1.1,0.5,1.6c0.1,1.1,0.1,2.3,0,3.4C38.8,36.4,38.6,37.3,38.3,38.3z"/>
<path style="fill:#A49568;" d="M34.9,28.9c0,0,0.2-0.3,0.3-0.2c0,0.3-0.2,0.6-0.5,0.7c-0.5,0.2-1,0.2-1.4-0.2
	c-0.3-0.4-0.3-0.7,0.1-0.9c0.5-0.3,1-0.5,1.6-0.5c0.9-0.1,1.9-0.1,2.8,0.1c0.6,0.2,1.2,0.5,1.7,0.8c-0.2,0-0.3,0-0.5-0.1
	c-0.6-0.2-1.2-0.3-1.8-0.4c-1-0.1-2.1-0.1-3.1,0.1c-0.5,0.3-0.8,0.4-0.4,0.8S34.9,28.9,34.9,28.9z"/>
<path style="fill:#A49568;" d="M16.5,29.6c0,0-0.2-0.2-0.3,0.1c0.1,0.2,0.4,0.5,1.3,0.5c1.2,0,2.4-0.1,3.6-0.4
	c1.4-0.5,2.9-0.8,4.4-0.9c1.5,0,2.9,0.3,4.3,0.8c1.8,0.6,4,1.2,5.2,0.9c0.3-0.1,0.6-0.4,0.4-0.5s-0.2-0.1-0.5,0.1
	c-0.8,0.1-1.6,0.1-2.4-0.1c-0.7-0.2-3.8-1.2-4.4-1.3c-1.5-0.4-3-0.4-4.5-0.2c-1.5,0.5-3,0.8-4.5,1.1C18.3,29.8,16.9,30,16.5,29.6z"
	/>
<path style="fill:#A49568;" d="M16.9,30.5c0,0,0.4-0.3,0.2-0.4s-0.3,0.1-0.4,0.4c-0.2,1.2-0.1,2.4,0.3,3.6c0.5,1.3,1.4,3.2,2.7,3.9
	c1.9,1.1,4,1.6,6.2,1.5c2.7-0.3,4.6-0.9,6.3-2.5c1.5-1.5,2-2.1,2.4-3.6c0.2-1.2,0.4-2.6,0.4-2.9c-0.1-0.1-0.4-0.2-0.4,0
	c0,1.2-0.2,2.3-0.5,3.4c-0.8,2-2.4,3.5-4.4,4.3c-2.2,0.9-4.6,1.2-6.9,0.7c-2.9-1.1-3.4-1.4-4.6-3.1C17.2,34,17.3,34.3,16.9,30.5z"/>
<path style="fill:#45AFAB;" d="M17.5,27.1c0.1,0,0.9,0,0.4-0.4c-1.3-0.6-2.7-0.4-3.8,0.4c-1,1-1.2,2.6-0.3,2.9s1.2,0,1.2-0.3
	c-0.2-0.6,0-1.2,0.4-1.6C16.1,27.7,16.8,27.4,17.5,27.1z"/>
<path style="fill:#45AFAB;" d="M15.7,37.2c0,0-0.2-0.4-0.3,0.2s-0.6,2.6,0.7,3.3s1.7,0.2,1.7-0.5c-0.2-0.6-0.6-1.1-1-1.6
	C16.4,38.1,16,37.7,15.7,37.2z"/>
<path style="fill:#45AFAB;" d="M37.1,35.6c0,0-0.1-0.4-0.4,0.1c-0.5,1-1.2,2-2.1,2.7c-0.5,0.7,0,1.9,0.8,1.8c1.1-0.2,2-1.1,2.1-2.2
	C37.6,37.3,37.4,36.4,37.1,35.6z"/>
<path style="fill:#F0EDE8;" d="M36.2,28.3c0,0,0.6-0.4,0-0.3s-2.5,0.1-2.7,0.6s0.4,0.3,0.8,0.2C34.9,28.5,35.5,28.3,36.2,28.3z"/>
<path style="fill:#F0EDE8;" d="M36.3,28.6c0,0.1-0.1,0.2-0.1,0.3s-0.4,0.8-0.3,0.9s-0.7-0.1-0.3-0.9C35.9,28.5,36.2,28.3,36.3,28.6z
	"/>
<path style="fill:#F0EDE8;" d="M37.2,29.4c0,0-0.1-0.6-0.3-0.3s-0.7,0.7-0.4,1.2s0.4,0,0.4-0.2C37,29.9,37.1,29.6,37.2,29.4z"/>
<path style="fill:#A49568;" d="M19.9,33.4c1-0.3,2.1-0.4,3.2-0.5h3.4c0,0,0.5,0.1-1,0.2c-2.1,0-4.1,0.3-6.1,0.7
	C18.3,34.2,19.9,33.4,19.9,33.4z"/>
<path style="fill:#A49568;" d="M31.8,33.7c-0.9-0.3-1.9-0.5-2.8-0.7c-0.4,0,0.1,0.1,0.9,0.4c0.7,0.2,1.4,0.4,2.1,0.6L31.8,33.7z"/>
</svg>
