<?xml version="1.0" encoding="utf-8"?>
<!-- Generator: Adobe Illustrator 22.0.0, SVG Export Plug-In . SVG Version: 6.00 Build 0)  -->
<svg version="1.1" id="Слой_1" xmlns="http://www.w3.org/2000/svg" xmlns:xlink="http://www.w3.org/1999/xlink" x="0px" y="0px"
	 viewBox="0 0 55.8 62.9" style="enable-background:new 0 0 55.8 62.9;" xml:space="preserve">
<title>Artboard 1 копия 6</title>
<g id="Слой_13">
	<path style="fill:#DEEDDE;" d="M18.5,59c-0.3,0-0.5-0.2-0.5-0.5c0-0.1,0-0.2,0.1-0.3v-0.1c0.2-0.2,0.5-0.3,0.7-0.1
		c0.2,0.2,0.3,0.4,0.1,0.7l0,0l0,0C18.8,58.9,18.6,59,18.5,59z"/>
	<path style="fill:#FFFFFF;" d="M18.5,58.5L18.5,58.5 M18.5,58.5L18.5,58.5L18.5,58.5L18.5,58.5 M18.5,58.5L18.5,58.5 M18.5,57.5
		c-0.3,0-0.6,0.2-0.8,0.4l0,0l0,0l0,0l0,0l0,0c-0.3,0.5-0.2,1.1,0.3,1.4c0.5,0.3,1.1,0.2,1.4-0.3l0,0l0,0l0,0
		c0.3-0.4,0.2-1.1-0.2-1.4C18.9,57.5,18.7,57.4,18.5,57.5L18.5,57.5z"/>
	<path style="fill:#DEEDDE;" d="M34.7,61.3c-2.4,0-4.8,0-7.2,0l-8.1-0.1h-0.2h-0.1c-0.2-0.1-0.4-0.2-0.6-0.3
		c-0.2-0.2-0.4-0.4-0.6-0.6c-0.2-0.4-0.3-0.8-0.2-1.3c0.1-0.3,0.2-0.5,0.3-0.7c0.2-0.3,0.5-0.6,0.7-0.9c0.3-0.3,0.5-0.5,0.8-0.8
		c0.6-0.5,1.2-0.9,1.8-1.3c0.6-0.4,1.3-0.7,2-0.9c0.4-0.1,0.8-0.2,1.2-0.3c0-1,0-2,0.1-3l0.1-6.4c-2.9-0.6-5.7-2-7.9-4
		c-0.5-0.4-0.9-0.9-1.4-1.3H15h-0.4c-0.4,0-0.8-0.1-1.1-0.3c-0.4-0.2-0.8-0.4-1.1-0.8c-0.3-0.3-0.5-0.7-0.6-1.1l-0.1-0.4l0,0
		c-0.1,0-0.3,0-0.4,0c-0.4-0.1-0.8-0.3-1.1-0.5c-0.6-0.5-1-1-1.3-1.7c-0.2-0.3-0.3-0.7-0.3-1.1c0-0.4,0-0.8,0.2-1.2
		c0.1-0.2,0.2-0.4,0.4-0.6l0.1-0.1c0,0,0.1-0.1,0.1-0.1c0,0,0-0.1,0-0.1c0-0.1,0-0.3,0.1-0.4c0.1-0.2,0.1-0.3,0.3-0.4
		c0.3-0.3,0.7-0.5,1.1-0.5h0.3c0-0.3-0.1-0.6-0.1-0.9c-0.2-0.1-0.4-0.2-0.6-0.3c-0.5-0.2-1-0.4-1.3-0.8c-0.4-0.4-0.6-0.9-0.7-1.4
		c-0.1-0.5-0.1-0.9-0.1-1.4c0-0.9,0-1.8,0.2-2.6c0.1-0.4,0.1-0.9,0.2-1.3c0.1-0.5,0.2-1,0.5-1.4c0.4-0.8,1-1.6,1.7-2.2
		c0.4-0.3,0.8-0.6,1.3-0.8c0.2-0.1,0.5-0.1,0.7-0.1h0.1c0.2,0,0.3,0,0.5,0.1l0.4,0.1c0.2,0.1,0.4,0.1,0.7,0.1h0.2
		c0.2-0.2,0.3-0.4,0.5-0.6c0.3-0.3,0.1-0.5,0.1-0.7s0.1-0.5,0.1-0.7c0-0.1,0-0.3,0-0.3s0-0.3,0.1-0.4c0.1-0.3,0.2-0.6,0.3-0.8
		c0.3-0.5,0.7-1,1.3-1.3c0.5-0.3,0.9-0.5,1.5-0.6c0.3-0.1,0.7-0.1,1-0.1c0.3,0,0.6,0,0.9,0.1c0.3,0.1,0.6,0.2,0.9,0.4l0.1,0.1
		l0.3-0.1c0.1-0.4,0.3-0.8,0.5-1.2l0.2-0.4c0.1-0.1,0.2-0.2,0.3-0.3c0.3-0.2,0.6-0.3,1-0.3l0,0c0.5,0,0.9,0.1,1.4,0.2
		c0.6,0.2,1.3,0.5,1.8,0.8H28l1.5,0.1h0.4l0.6,0.1c0.7,0.1,1.5,0.3,2.2,0.5c0.4-0.2,0.9-0.4,1.3-0.5c0.2-0.1,0.5-0.1,0.7-0.1
		c0.5,0,1,0.1,1.5,0.4c0.3,0.2,0.6,0.4,0.8,0.7c0.2,0.3,0.4,0.5,0.5,0.8l0.1,0.1c0.1,0.2,0.2,0.3,0.3,0.5c0.1,0.1,0.2,0.2,0.4,0.2
		c0.3,0.1,0.5,0.1,0.8,0.1l0.5,0.1c0.3,0.1,0.5,0.2,0.7,0.3c0.1,0.1,0.3,0.3,0.3,0.5c1.1,0.4,2.1,0.9,3,1.7c1,0.9,1.7,2.1,2,3.4
		c0.3,1.3,0.4,2.6,0.2,3.8c-0.1,0.7-0.2,1.3-0.5,1.9c-0.1,0.3-0.3,0.7-0.5,1c0,0.2,0,0.5,0,0.7c0.4,0.1,0.7,0.2,1,0.5
		c0.4,0.3,0.7,0.6,0.9,1.1c0.3,0.7,0.4,1.5,0.3,2.2c0,0.1,0,0.3,0,0.4v0.1c0,0.1,0,0.2,0,0.3c0,0.1,0,0.1,0.2,0.3
		c0.2,0.2,0.4,0.5,0.4,0.8c0.1,0.7-0.3,1.3-0.9,1.6c-0.2,0.1-0.4,0.1-0.5,0.2l-0.5,0.1c0.1,0.4,0.2,0.7,0.2,1.1
		c-0.1,0.5-0.3,0.9-0.7,1.3c-0.3,0.2-0.6,0.4-1,0.6c-0.3,0.1-0.7,0.2-1,0.3c-0.3,0-0.6,0.1-0.8,0.1h-0.5c-0.3,0.4-0.6,0.9-0.9,1.2
		c-2.4,3-5.8,5-9.5,5.8c0,1.6,0.1,3.1,0.1,4.7c0,1.3,0,2.7,0,4v0.6c1.1,0.3,2.2,0.7,3.1,1.3c0.7,0.5,1.4,1.1,1.8,1.8
		c0.1,0.1,0.1,0.3,0.2,0.4l0.1,0.2l0,0.2c0.1,0.2,0.1,0.5,0.1,0.7c0,0.2,0,0.5,0,0.7c0,0.1,0,0.3-0.1,0.4c0,0.1,0,0.1,0,0.2
		c0,0.1-0.1,0.2-0.1,0.3L36.4,61c-0.1,0.2-0.3,0.3-0.5,0.3L34.7,61.3z"/>
	<path style="fill:#FFFFFF;" d="M23.7,10c0.4,0,0.8,0.1,1.2,0.2c0.6,0.2,1.3,0.5,1.9,0.9l0,0H28l1.2,0.1c0.2,0,0.4,0,0.6,0l0.6,0.1
		c0.8,0.1,1.6,0.3,2.3,0.6c0.4-0.3,0.9-0.4,1.3-0.6c0.2,0,0.4-0.1,0.6-0.1c0.4,0,0.8,0.1,1.2,0.3c0.3,0.1,0.5,0.3,0.7,0.6
		c0.2,0.2,0.3,0.5,0.5,0.7c0.1,0.2,0.3,0.5,0.5,0.7c0.2,0.2,0.4,0.3,0.7,0.4c0.3,0.1,0.5,0.1,0.8,0.1l0.4,0.1c0.2,0,0.3,0.1,0.5,0.2
		c0.1,0.1,0.2,0.3,0.3,0.5c1.1,0.3,2.2,0.9,3.1,1.7c0.9,0.9,1.6,2,1.9,3.2c0.3,1.2,0.4,2.4,0.2,3.6c-0.1,0.6-0.2,1.2-0.5,1.8
		c-0.2,0.4-0.4,0.7-0.6,1.1c0,0.4,0.1,0.8,0.1,1.2h0.2c0.4,0.1,0.7,0.2,1,0.4c0.3,0.2,0.5,0.5,0.7,0.9c0.2,0.6,0.3,1.3,0.2,2
		c0,0.2,0,0.3-0.1,0.5c0,0.1,0,0.2,0,0.4c0,0.2,0.1,0.4,0.3,0.6c0.2,0.2,0.3,0.4,0.3,0.6c0,0.2,0,0.5-0.1,0.7
		c-0.1,0.2-0.3,0.3-0.5,0.4c-0.2,0.1-0.3,0.1-0.5,0.2c-0.3,0.1-0.5,0.1-0.8,0.3C45,34.2,45,34.3,45,34.3c0,0.1,0,0.2,0.1,0.3
		c0.1,0.3,0.2,0.7,0.2,1c0,0.4-0.2,0.7-0.5,0.9c-0.3,0.2-0.5,0.4-0.8,0.5c-0.3,0.1-0.6,0.2-0.9,0.3c-0.2,0-0.5,0.1-0.8,0.1
		c-0.2,0-0.5,0-0.7,0c-2.5,3.7-6.3,6.3-10.7,7.2c0,1.7,0.1,3.4,0.1,5.1c0,1.7,0,3.3,0,5c1.2,0.3,2.4,0.7,3.5,1.4
		c0.7,0.4,1.3,1,1.7,1.7c0.1,0.1,0.1,0.2,0.2,0.3l0.1,0.2v0.2c0,0.2,0.1,0.4,0.1,0.6c0,0.2,0,0.4,0,0.7c0,0.1,0,0.2,0,0.3v0.2
		c0,0.1,0,0.1-0.1,0.2L36,60.8h-1.3c-2.4,0-4.8,0-7.2,0l-8-0.1h-0.1h-0.1c-0.2-0.1-0.3-0.1-0.5-0.3c-0.2-0.1-0.3-0.3-0.5-0.5
		c-0.1-0.3-0.2-0.5-0.1-0.8c0-0.2,0.1-0.4,0.3-0.6c0.2-0.3,0.4-0.6,0.7-0.8c0.7-0.8,1.6-1.5,2.5-2c0.6-0.3,1.3-0.6,1.9-0.8
		c0.5-0.2,1-0.3,1.6-0.4c0-1.7,0.1-3.3,0.1-5l0.1-5.2c-3-0.6-5.8-1.9-8.1-3.9c-0.5-0.5-1-0.9-1.5-1.5c-0.2,0-0.5,0-0.7,0h-0.4
		c-0.3,0-0.7-0.1-1-0.3c-0.3-0.1-0.6-0.3-0.9-0.6c-0.2-0.3-0.4-0.6-0.5-1c0-0.2-0.1-0.5-0.2-0.7c0,0-0.1-0.1-0.2-0.1h-0.2
		c-0.1,0-0.2,0-0.3,0c-0.3-0.1-0.7-0.2-0.9-0.5c-0.5-0.4-0.9-0.9-1.2-1.5C9.1,34,9,33.7,9,33.4c0-0.3,0-0.7,0.1-1
		c0.1-0.1,0.2-0.3,0.3-0.4c0.1-0.1,0.2-0.2,0.3-0.3c0.1-0.1,0.1-0.2,0.1-0.4c0-0.1,0-0.2,0-0.3c0-0.1,0.1-0.2,0.1-0.2
		c0.2-0.2,0.6-0.4,0.9-0.4l0.5,0h0.4c-0.1-0.5-0.1-1.1-0.2-1.6c-0.3-0.2-0.6-0.4-0.9-0.5c-0.4-0.1-0.8-0.4-1.1-0.7
		c-0.3-0.3-0.5-0.8-0.6-1.2c-0.1-0.5-0.1-0.9-0.1-1.4c0-0.9,0-1.7,0.1-2.5C8.9,22,9,21.6,9.1,21.2c0.1-0.4,0.2-0.8,0.4-1.2
		c0.4-0.8,0.9-1.4,1.6-2c0.3-0.3,0.7-0.5,1.1-0.7c0.2-0.1,0.4-0.1,0.6-0.1h0.1c0.1,0,0.2,0,0.4,0.1l0.3,0.1c0.3,0.1,0.6,0.2,0.9,0.2
		h0.3h0.2c0.2-0.3,0.5-0.6,0.7-0.9v-0.3c0.1-0.5,0.2-0.9,0.3-1.4c0-0.1,0-0.2,0-0.3s0-0.2,0.1-0.4c0.1-0.2,0.1-0.5,0.2-0.7
		c0.2-0.5,0.6-0.8,1-1.1c0.4-0.3,0.9-0.4,1.3-0.6c0.3-0.1,0.5-0.1,0.8-0.1c0.2,0,0.5,0,0.7,0.1c0.3,0.1,0.5,0.2,0.7,0.3
		c0.1,0.1,0.2,0.2,0.3,0.2l0.8-0.3c0-0.1,0-0.1,0-0.2c0.1-0.4,0.3-0.8,0.5-1.1l0.1-0.2l0.1-0.1c0-0.1,0.1-0.1,0.2-0.2
		c0.2-0.2,0.5-0.2,0.7-0.2l0,0 M43.5,22.7c0-0.1,0-0.2-0.1-0.2L43.5,22.7 M23.7,9L23.7,9c-0.5,0-1,0.1-1.4,0.4
		c-0.1,0.1-0.3,0.2-0.4,0.4L21.9,10l-0.2,0.3c-0.2,0.3-0.4,0.7-0.5,1c-0.3-0.1-0.5-0.2-0.8-0.3c-0.3-0.1-0.7-0.1-1-0.1
		c-0.4,0-0.7,0.1-1.1,0.2c-0.6,0.2-1.1,0.4-1.6,0.7c-0.6,0.4-1.1,0.9-1.4,1.5c-0.2,0.3-0.3,0.7-0.3,1c0,0.1-0.1,0.3-0.1,0.4v0.1
		c0,0.1,0,0.1,0,0.2c0,0.3-0.1,0.5-0.1,0.7s-0.1,0.4-0.1,0.6l0,0l-0.3,0.4c-0.1,0-0.3,0-0.4-0.1l-0.3-0.1h-0.1
		c-0.2-0.1-0.4-0.1-0.6-0.1h-0.2c-0.3,0-0.6,0-0.9,0.1c-0.6,0.2-1.1,0.5-1.5,0.9c-0.8,0.7-1.4,1.5-1.8,2.4c-0.2,0.5-0.4,1-0.5,1.5
		C8.1,21.5,8,22,7.9,22.4c-0.1,0.9-0.2,1.8-0.2,2.7c0,0.5,0.1,1,0.2,1.5c0.1,0.6,0.4,1.2,0.9,1.7c0.4,0.4,0.9,0.7,1.5,0.9l0.3,0.1
		v0.2c-0.5,0.1-0.9,0.3-1.3,0.7c-0.2,0.2-0.3,0.4-0.4,0.6c-0.1,0.2-0.1,0.3-0.1,0.5l0,0l0,0l-0.1,0.1c-0.2,0.2-0.3,0.5-0.5,0.7
		C8.1,32.5,8,33,8,33.5c0.1,0.4,0.2,0.9,0.4,1.3c0.4,0.7,0.9,1.4,1.5,1.9c0.4,0.3,0.8,0.5,1.3,0.7h0.1v0.1c0.1,0.5,0.3,1,0.7,1.4
		c0.3,0.4,0.8,0.7,1.3,0.9c0.4,0.2,0.9,0.3,1.3,0.3L15,40h0.3c0.4,0.4,0.8,0.8,1.3,1.2c2.2,2,4.9,3.3,7.7,4l-0.1,4.4v1.6
		c0,0.9,0,1.7,0,2.6c-0.3,0.1-0.6,0.1-0.9,0.2c-0.7,0.2-1.4,0.5-2.1,0.9c-1,0.6-1.9,1.3-2.7,2.1c-0.3,0.3-0.5,0.6-0.8,1
		c-0.2,0.3-0.3,0.6-0.4,0.9c-0.1,0.5,0,1.1,0.3,1.6c0.2,0.3,0.4,0.6,0.7,0.8c0.2,0.2,0.5,0.3,0.7,0.4H19c0.1,0,0.2,0.1,0.3,0.1h0.1
		l8,0.1c2.4,0,4.8,0,7.2,0H36c0.4,0,0.8-0.2,0.9-0.6l0.2-0.5c0-0.1,0.1-0.2,0.1-0.3v0c0-0.1,0-0.2,0.1-0.2c0-0.2,0.1-0.3,0.1-0.5
		c0-0.3,0-0.5,0-0.8c0-0.3-0.1-0.5-0.1-0.8v-0.2v-0.1l-0.1-0.2c-0.1-0.1-0.1-0.3-0.2-0.4v-0.1c-0.5-0.8-1.2-1.5-2-2
		c-0.9-0.6-1.9-1-2.9-1.3v-0.3c0-1.3,0-2.6,0-3.9s0-2.7-0.1-4.3c3.7-0.9,7-3,9.4-5.9c0.3-0.3,0.5-0.7,0.8-1h0.2c0.3,0,0.6,0,0.9-0.1
		c0.3-0.1,0.7-0.2,1-0.3c0.4-0.2,0.8-0.4,1.1-0.7c0.7-0.6,1-1.5,0.8-2.4c0.2-0.1,0.4-0.1,0.6-0.2c0.4-0.2,0.7-0.5,0.9-0.9
		c0.4-0.8,0.3-1.7-0.3-2.4v-0.1c0,0,0-0.1,0-0.1v-0.1c0-0.1,0-0.3,0-0.4c0.1-0.8,0-1.7-0.3-2.5c-0.2-0.5-0.6-1-1-1.3
		c-0.3-0.2-0.5-0.3-0.8-0.4v-0.2c0.2-0.3,0.3-0.6,0.5-0.9c0.3-0.6,0.4-1.3,0.5-2c0.2-1.3,0.1-2.7-0.2-4c-0.4-1.4-1.1-2.7-2.2-3.7
		c-0.9-0.8-1.9-1.4-3-1.8c-0.1-0.2-0.2-0.3-0.4-0.4c-0.3-0.2-0.6-0.4-0.9-0.4l-0.4-0.1h-0.1c-0.3,0-0.5-0.1-0.8-0.1
		c0,0-0.1,0-0.1-0.1c-0.1-0.1-0.2-0.3-0.3-0.4L38,12.4c-0.2-0.3-0.4-0.6-0.6-0.9c-0.3-0.3-0.6-0.6-1-0.8c-0.5-0.3-1.1-0.4-1.7-0.4
		c-0.3,0-0.6,0-0.8,0.1c-0.4,0.1-0.8,0.2-1.2,0.4c-0.7-0.2-1.4-0.4-2.1-0.5l-0.6-0.1h-0.5h-0.2l-1.2-0.1H28h-1
		c-0.6-0.3-1.2-0.6-1.8-0.8C24.7,9.2,24.2,9.1,23.7,9z"/>
	<path style="fill:#C9E1CA;" d="M44.3,28c0.1-9-7.2-16.3-16.2-16.4c-9-0.1-16.3,7.2-16.4,16.2c0,8.1,5.9,15,13.9,16.2v11
		c-2.7,0.3-5.1,1.7-6.7,3.9c-0.6,0.7,0.5,1.1,0.5,1.1h16c0.2-0.5,0.2-1.1,0-1.6c-0.2-0.8-1.6-2.4-5.3-3.1V44.1
		C38.3,43,44.3,36.1,44.3,28z"/>
	<path style="fill:#B5D6B6;" d="M44.2,28l-0.1-1.1c0-0.2,0-0.4,0-0.6L44,25.6c-0.1-0.4-0.1-0.8-0.2-1.1l-0.3-1.1
		c0-0.2-0.1-0.4-0.2-0.5l-0.2-0.5L43,21.8c-0.1-0.2-0.2-0.4-0.3-0.5c-0.2-0.3-0.3-0.7-0.5-1l-0.6-1c-1.7-2.5-4.2-4.5-7-5.7
		c-1.4-0.6-2.8-1-4.3-1.1l-0.5-0.1c-0.2,0-0.4,0-0.6,0h-1.1l-1.1,0.1c-0.2,0-0.4,0-0.6,0l-0.5,0.1c-3,0.4-5.7,1.7-8,3.6L17,16.9
		l-0.8,0.8c-0.3,0.3-0.5,0.6-0.7,0.9c-0.2,0.3-0.5,0.6-0.7,0.9l-0.6,1c-0.2,0.3-0.3,0.7-0.5,1c-0.1,0.2-0.2,0.3-0.3,0.5l-0.2,0.5
		L13.1,23c-0.1,0.2-0.1,0.3-0.2,0.5l-0.3,1.1c-0.1,0.4-0.1,0.7-0.2,1.1l-0.1,0.6c0,0.2,0,0.4,0,0.6L12.2,28c0,1.5,0.2,3,0.6,4.5
		c0.4,1.5,1,2.9,1.9,4.2c0.8,1.3,1.8,2.5,3,3.4l0.4,0.4l0.5,0.3l0.5,0.3l0.2,0.2l0.3,0.2l1,0.6l1,0.5c1.4,0.6,2.9,1,4.4,1.2h0.3V44
		l0.1,5.5c0,1.8,0.1,3.7,0.1,5.5v0.5l-0.5,0.1c-0.6,0.1-1.2,0.3-1.8,0.5c-0.6,0.2-1.2,0.5-1.7,0.8c-0.5,0.3-1,0.7-1.5,1.1
		c-0.2,0.2-0.4,0.4-0.6,0.7c-0.2,0.2-0.4,0.4-0.5,0.7v0.1c0,0,0,0.1,0,0c0,0,0-0.1,0-0.1l0,0l0.1,0.1h-0.2l8-0.1c2.7,0,5.3,0,8,0
		l-0.7,0.5l0,0v-0.1c0,0,0-0.1,0-0.2c0-0.1,0-0.2,0-0.3c0-0.1,0-0.2-0.1-0.4v-0.1l0,0l-0.1-0.1c-0.3-0.4-0.7-0.8-1.1-1.1
		c-1.1-0.7-2.3-1.2-3.6-1.4l-0.6-0.1v-0.6c0-1.9,0-3.7,0-5.6s0.1-3.7,0.1-5.6v-0.5l0.5-0.1c1.9-0.2,3.7-0.7,5.4-1.6
		c1.7-0.8,3.3-2,4.6-3.4c1.3-1.4,2.4-3.1,3.1-4.9C43.8,31.8,44.2,29.9,44.2,28z M44.4,28c0,2-0.3,3.9-1,5.8
		c-0.7,1.9-1.7,3.6-2.9,5.1c-2.6,3.1-6.2,5.2-10.2,5.8l0.5-0.6c0,1.9,0.1,3.7,0.1,5.6c0,1.9,0,3.7,0,5.6l-0.6-0.8
		c1.4,0.2,2.8,0.7,4,1.5c0.7,0.4,1.3,0.9,1.7,1.6c0.1,0.1,0.1,0.2,0.2,0.3l0.1,0.2v0.2c0,0.2,0.1,0.4,0.1,0.6c0,0.2,0,0.4,0,0.7
		c0,0.1,0,0.2,0,0.3v0.2c0,0.1,0,0.1-0.1,0.2L36,60.8h-0.5c-2.7,0-5.3,0-8,0l-8-0.1h-0.1h-0.1c-0.2-0.1-0.3-0.1-0.5-0.3
		c-0.2-0.1-0.3-0.3-0.5-0.5c-0.1-0.3-0.2-0.5-0.1-0.8c0-0.2,0.1-0.4,0.3-0.6v0.1c0.2-0.3,0.4-0.6,0.7-0.9c0.7-0.8,1.6-1.5,2.5-2
		c0.6-0.3,1.3-0.6,1.9-0.8c0.7-0.2,1.4-0.4,2.1-0.4L25.2,55c0-1.8,0.1-3.7,0.1-5.5l0.1-5.6l0.3,0.4c-3.1-0.5-6-1.9-8.4-4
		c-0.6-0.5-1.2-1.1-1.7-1.7l-0.7-0.9c-0.2-0.3-0.4-0.7-0.7-1c-0.9-1.3-1.5-2.7-2-4.3c-0.4-1.5-0.7-3.1-0.8-4.6v-1.2
		c0-0.2,0-0.4,0-0.6l0.1-0.6c0.1-0.4,0.1-0.8,0.2-1.2l0.3-1.1c0.9-3.1,2.6-5.9,5-8.1c1.2-1.1,2.5-2,4-2.6c1.5-0.7,3-1.1,4.6-1.3
		l0.6-0.1c0.2,0,0.4,0,0.6,0H28l1.2,0.1c0.2,0,0.4,0,0.6,0l0.6,0.1c1.6,0.2,3.1,0.7,4.6,1.4c2.9,1.4,5.2,3.6,6.9,6.3
		c0.8,1.3,1.4,2.8,1.9,4.3C44.2,24.9,44.4,26.4,44.4,28z"/>
	<path style="fill:#DEEDDE;" d="M11.8,30.4c0,0-1.8,0-1.8,0.9c0,0.9-0.6,0.6-0.7,1.8c-0.1,1.1,1.3,3,2.5,3s0.4,1.5,1.8,2.2
		s2.3-0.1,3.4,0.4s2.1,2.6,3.8,2.6s3.4-1.4,4.9-1s2,1.4,3.4,1.4s1.5-1.7,3.1-1.7c1.6,0,1.7,0.7,2.8,0.8s1-1.3,2.1-1.4s1,0.4,2,0.1
		s0.3-1.5,0.8-2s2.3,0.1,3.4-0.3s1.7-0.8,1.7-1.6s-0.7-1.2,0-1.5s1.5-0.3,1.6-1s-0.8-0.6-0.6-1.9s0.1-2.9-1.6-3.2
		c0,0-0.6,4.7-2.9,6.7s-9.2,3.9-16,3.4S12.8,35.5,11.8,30.4z"/>
	<path style="fill:#B5D6B6;" d="M11.8,30.4c-0.6,0-1.1,0.2-1.5,0.5c-0.1,0.1-0.1,0.2-0.1,0.3c0,0.2,0,0.3-0.1,0.5
		c-0.1,0.1-0.2,0.3-0.3,0.4c-0.1,0.1-0.1,0.2-0.2,0.3c-0.1,0.3-0.1,0.5,0,0.8c0.1,0.3,0.2,0.5,0.3,0.8c0.3,0.5,0.6,0.9,1.1,1.2
		c0.2,0.1,0.4,0.3,0.7,0.3c0.1,0,0.1,0,0.2,0H12c0.1,0,0.2,0,0.3,0.1l0.2,0.1l0.1,0.1c0.1,0.2,0.2,0.3,0.3,0.5
		c0.1,0.2,0.1,0.3,0.1,0.4c0.1,0.2,0.2,0.5,0.3,0.6c0.4,0.3,0.8,0.5,1.3,0.5c0.3,0,0.6,0,0.8,0c0.3,0,0.7,0,1,0
		c0.4,0.1,0.7,0.2,1,0.4c0.3,0.2,0.5,0.4,0.7,0.7c0.4,0.4,0.8,0.8,1.3,1.2c0.2,0.2,0.4,0.3,0.6,0.4h0.2c0.1,0,0.1,0,0.2,0h0.4
		c0.6-0.1,1.1-0.2,1.6-0.4c0.6-0.2,1.2-0.4,1.8-0.5c0.3-0.1,0.7-0.1,1-0.1c0.3,0,0.7,0.1,1,0.3c0.6,0.3,1.1,0.6,1.6,0.9
		c0.2,0.1,0.5,0.2,0.7,0.3c0.1,0,0.2,0,0.4,0c0.1,0,0.2,0,0.3-0.1c0.4-0.1,0.8-0.6,1.3-1.1c0.3-0.2,0.6-0.4,0.9-0.5
		c0.2,0,0.3-0.1,0.5,0c0.2,0,0.3,0,0.5,0c0.3,0,0.6,0.1,0.9,0.2c0.3,0.1,0.6,0.3,0.8,0.4c0.2,0.1,0.5,0.2,0.8,0.2
		c0.3,0,0.5-0.2,0.6-0.4c0.2-0.3,0.4-0.5,0.6-0.7c0.1-0.1,0.3-0.2,0.5-0.3c0.2,0,0.3-0.1,0.5-0.1c0.3,0,0.6,0,0.9,0.2
		c0.3,0.1,0.5,0.1,0.8,0c0.1,0,0.2-0.1,0.3-0.2c0.1-0.1,0.1-0.2,0.1-0.3c0-0.3,0-0.6,0.1-0.9c0-0.2,0.1-0.4,0.3-0.5
		c0.1-0.1,0.3-0.2,0.5-0.2c0.3,0,0.6,0,0.9,0c0.6,0.1,1.2,0.1,1.7,0c0.5-0.1,1.1-0.4,1.5-0.7c0.2-0.2,0.3-0.4,0.3-0.6
		c0-0.3-0.1-0.5-0.2-0.7c-0.1-0.2-0.1-0.4-0.1-0.6c0-0.1,0.1-0.3,0.2-0.4l0.1-0.1l0.1-0.1c0.3-0.2,0.6-0.3,0.9-0.4
		c0.3-0.1,0.5-0.2,0.5-0.3c0-0.1,0-0.1,0-0.2c0,0,0-0.1-0.1-0.2c-0.1-0.1-0.2-0.3-0.3-0.4c-0.1-0.2-0.2-0.4-0.2-0.6
		c0-0.2,0-0.4,0-0.5c0-0.2,0-0.3,0-0.4c0.1-0.5,0-1.1-0.2-1.5c-0.2-0.4-0.6-0.7-1.1-0.7l0.5-0.4c-0.1,0.9-0.3,1.7-0.5,2.6
		c-0.2,0.9-0.6,1.7-1,2.5c-0.4,0.8-1,1.6-1.7,2.2c-0.7,0.5-1.5,1-2.3,1.3c-3.2,1.3-6.7,2-10.2,2.1c-1.7,0.1-3.3,0-5-0.2
		c-1.7-0.2-3.4-0.6-5.1-1.1c-1.7-0.5-3.2-1.3-4.6-2.4c-0.7-0.6-1.3-1.2-1.7-2l-0.3-0.6c-0.1-0.2-0.2-0.4-0.2-0.6L12,31.3L11.9,31
		L11.8,30.4z M11.8,30.3l0.2,0.6l0.1,0.3l0.1,0.3c0.1,0.2,0.2,0.4,0.3,0.6l0.3,0.5c0.5,0.7,1.1,1.3,1.8,1.8c1.4,1,2.9,1.7,4.5,2
		c1.6,0.4,3.3,0.7,5,0.9c1.7,0.2,3.3,0.2,5,0.1c1.7-0.1,3.4-0.3,5-0.6c1.6-0.3,3.2-0.8,4.8-1.4c0.7-0.3,1.4-0.7,2.1-1.1
		c0.6-0.5,1.1-1.1,1.5-1.8c0.8-1.5,1.3-3,1.5-4.7l0.1-0.5l0.5,0.1c0.4,0.1,0.7,0.2,1,0.4c0.3,0.2,0.5,0.5,0.7,0.9
		c0.2,0.6,0.3,1.3,0.2,2c0,0.2,0,0.3-0.1,0.5c0,0.1,0,0.2,0,0.4c0,0.2,0.1,0.4,0.3,0.6c0.2,0.2,0.3,0.4,0.3,0.6c0,0.2,0,0.5-0.1,0.7
		c-0.1,0.2-0.3,0.3-0.5,0.4c-0.2,0.1-0.3,0.1-0.5,0.2c-0.3,0.1-0.5,0.1-0.8,0.3c-0.1,0.1-0.1,0.1-0.1,0.1c0,0.1,0,0.2,0.1,0.3
		c0.1,0.3,0.2,0.7,0.2,1c0,0.4-0.2,0.7-0.5,0.9c-0.3,0.2-0.5,0.4-0.8,0.5c-0.3,0.1-0.6,0.2-0.9,0.3c-0.6,0.1-1.2,0.1-1.8,0
		c-0.6,0-1.3-0.1-1.3,0.4c0,0.3,0,0.6-0.1,0.9c0,0.2-0.1,0.4-0.2,0.5c-0.1,0.1-0.3,0.2-0.5,0.3c-0.2,0-0.3,0.1-0.5,0.1
		c-0.2,0-0.3,0-0.5-0.1c-0.3-0.1-0.5-0.1-0.8-0.1c-0.3,0-0.5,0.1-0.7,0.3c-0.2,0.2-0.4,0.4-0.5,0.7c-0.2,0.3-0.5,0.5-0.9,0.5
		c-0.3,0-0.7,0-1-0.2c-0.3-0.1-0.6-0.3-0.8-0.4c-0.3-0.1-0.5-0.1-0.8-0.2c-0.3,0-0.5,0-0.8,0.1c-0.2,0.1-0.5,0.2-0.7,0.4
		c-0.2,0.2-0.4,0.4-0.6,0.6c-0.2,0.3-0.5,0.5-0.8,0.6c-0.2,0.1-0.4,0.1-0.5,0.1c-0.2,0-0.4,0-0.5,0c-0.3,0-0.7-0.1-1-0.3
		c-0.5-0.3-1-0.6-1.6-0.8c-0.2-0.1-0.5-0.1-0.7-0.2c-0.3,0-0.5,0-0.8,0.1c-0.6,0.2-1.1,0.3-1.6,0.5c-0.6,0.2-1.2,0.4-1.9,0.5h-0.3
		h-0.3c-0.2,0-0.4-0.1-0.5-0.1c-0.3-0.1-0.6-0.3-0.9-0.5c-0.5-0.4-0.9-0.8-1.4-1.3c-0.2-0.2-0.4-0.4-0.6-0.6
		c-0.2-0.1-0.4-0.2-0.6-0.3c-0.4-0.1-1.1,0.1-1.8,0c-0.3,0-0.7-0.1-1-0.3c-0.3-0.1-0.6-0.3-0.9-0.6c-0.2-0.3-0.4-0.6-0.5-1
		c0-0.2-0.1-0.5-0.2-0.7c0,0-0.1-0.1-0.2-0.1h-0.2c-0.1,0-0.2,0-0.3,0c-0.3-0.1-0.7-0.2-0.9-0.5c-0.5-0.4-0.9-0.9-1.2-1.5
		C9.1,34,9,33.7,9,33.4c0-0.3,0-0.7,0.1-1c0.1-0.1,0.2-0.3,0.3-0.4c0.1-0.1,0.2-0.2,0.3-0.3c0.1-0.1,0.1-0.2,0.1-0.4
		c0-0.1,0-0.2,0-0.3c0-0.1,0.1-0.2,0.1-0.2c0.2-0.2,0.6-0.4,0.9-0.4l0.5,0h0.4C11.7,30.3,11.8,30.3,11.8,30.3L11.8,30.3z"/>
	<path style="fill:#DEEDDE;" d="M29.2,35.8c0,0,0.4-0.2-0.4-2.2s-1.1-1.7-2-1.9s-1.7,0.6-2.9,0.7s-1-0.9-1.7-1.3s-0.7,0.4-1.7,1
		c-0.9,0.6-4.5,0.3-5.8-0.5c-1.1-0.8-2.2-1.9-3-3c-0.7-0.8-1.9-0.5-2.6-1.7s-0.3-4.2,0-5.9s2.5-4.3,4.1-3.5c0.8,0.5,1.8,0.4,2.5-0.3
		c0,0-3.1,4.5-2.7,5.2c0,0-1.6,1.5-1.1,2.7s0.5,1.3,0.7,1.3c1.4,0,2-1.2,2.9-1.3c0,0-2.2,1.4-2,1.7s2.7,2.2,3.8,2.3s6.5,0.5,7.4,0.9
		s2.6,0.3,4.5,2"/>
	<path style="fill:#B5D6B6;" d="M29.2,35.8c0-0.1,0-0.2,0-0.3c0-0.1,0-0.2,0-0.3c0-0.2-0.1-0.4-0.2-0.6c-0.1-0.4-0.3-0.8-0.5-1.2
		c-0.2-0.4-0.4-0.7-0.6-1.1c-0.1-0.1-0.2-0.3-0.4-0.3C27.4,32,27.2,32,27,32c-0.8-0.2-1.5,0.3-2.4,0.6c-0.2,0.1-0.4,0.1-0.7,0.1
		c-0.3,0-0.5,0-0.8-0.1c-0.2-0.1-0.4-0.3-0.6-0.5c-0.1-0.2-0.2-0.3-0.4-0.5c-0.1-0.1-0.1-0.1-0.2-0.2c-0.1,0-0.1-0.1-0.2-0.1
		c0,0,0,0-0.1,0c-0.1,0-0.1,0.1-0.2,0.1c-0.3,0.4-0.6,0.7-1,0.9c-0.2,0.1-0.5,0.2-0.7,0.3c-0.2,0-0.4,0.1-0.7,0.1
		c-0.4,0-0.9,0-1.3,0c-0.9-0.1-1.7-0.2-2.6-0.5c-0.2-0.1-0.4-0.2-0.6-0.3c-0.2-0.1-0.4-0.2-0.6-0.4c-0.4-0.3-0.7-0.6-1-0.9
		c-0.6-0.6-1.1-1.3-1.6-2c-0.3-0.3-0.6-0.5-1-0.6c-0.4-0.1-0.8-0.4-1.1-0.7c-0.3-0.3-0.5-0.8-0.6-1.2c-0.1-0.4-0.1-0.9-0.1-1.3
		c0-0.9,0-1.7,0.1-2.5C8.9,22,9,21.6,9.1,21.2c0.1-0.4,0.2-0.8,0.4-1.2c0.4-0.8,0.9-1.4,1.6-2c0.3-0.3,0.7-0.5,1.1-0.7
		c0.2-0.1,0.5-0.1,0.7-0.1c0.1,0,0.2,0,0.4,0.1l0.3,0.1c0.4,0.1,0.7,0.2,1.1,0.1c0.4-0.1,0.7-0.2,0.9-0.5l0.4,0.3
		c-0.5,0.8-1.1,1.7-1.5,2.5c-0.2,0.4-0.5,0.9-0.7,1.3c-0.1,0.2-0.2,0.4-0.3,0.7c0,0.1-0.1,0.2-0.1,0.3c0,0.1,0,0.2,0,0.1l-0.1,0.4
		c-0.4,0.4-0.7,0.9-0.9,1.5c-0.1,0.2-0.1,0.5,0,0.8c0,0.1,0.1,0.3,0.2,0.4l0.2,0.5c0.1,0.1,0.1,0.3,0.2,0.4l0,0c0,0-0.1,0-0.1-0.1
		H13c0.3,0,0.5-0.1,0.8-0.3c0.3-0.2,0.5-0.3,0.8-0.5c0.1-0.1,0.3-0.3,0.5-0.4c0.2-0.1,0.4-0.2,0.6-0.2l1.5-0.1l-1.2,0.8
		c-0.3,0.2-0.7,0.4-1,0.7c-0.3,0.2-0.6,0.5-0.9,0.8c0,0,0,0.1,0,0s0,0,0,0l0,0c0,0,0-0.1,0-0.1c0,0,0,0,0-0.1l0.2,0.2
		c0.1,0.1,0.3,0.3,0.4,0.4c0.3,0.2,0.6,0.5,1,0.7c0.3,0.2,0.7,0.4,1,0.6c0.2,0.1,0.3,0.2,0.5,0.2l0.3,0.1h0.1h0.1
		c0.8,0.1,1.6,0.1,2.5,0.2s1.6,0.2,2.5,0.3c0.4,0.1,0.8,0.1,1.2,0.2c0.4,0,0.8,0.1,1.2,0.3c0.4,0.1,0.8,0.3,1.1,0.3
		c0.4,0.1,0.8,0.2,1.2,0.4c0.8,0.3,1.4,0.8,2,1.4l0,0c-0.6-0.5-1.3-1-2.1-1.2c-0.4-0.1-0.8-0.2-1.2-0.3c-0.4-0.1-0.8-0.2-1.2-0.3
		c-0.4-0.1-0.8-0.2-1.1-0.3L22.5,30c-0.8-0.1-1.6-0.1-2.4-0.2s-1.6-0.1-2.5-0.2h-0.1h-0.2c-0.1,0-0.2,0-0.3-0.1
		c-0.2-0.1-0.4-0.1-0.6-0.2c-0.4-0.2-0.8-0.4-1.1-0.6c-0.4-0.2-0.7-0.5-1-0.7c-0.2-0.1-0.3-0.3-0.5-0.4c-0.1-0.1-0.2-0.2-0.3-0.3
		c0-0.1-0.1-0.1-0.1-0.2c0,0,0-0.1,0-0.1c0,0,0-0.1,0-0.1c0,0,0-0.1,0-0.1c0-0.1,0.1-0.2,0.1-0.2c0.2-0.2,0.3-0.3,0.5-0.5l0.5-0.4
		c0.3-0.3,0.7-0.5,1-0.7l0.2,0.7c-0.2,0-0.5,0.2-0.7,0.3c-0.3,0.2-0.6,0.4-0.9,0.6c-0.3,0.2-0.7,0.3-1.1,0.4h-0.3
		c-0.1,0-0.1,0-0.2,0c-0.1,0-0.1-0.1-0.2-0.1c-0.1-0.1-0.1-0.1-0.1-0.2c-0.1-0.2-0.2-0.3-0.2-0.5l-0.2-0.5c-0.1-0.2-0.1-0.3-0.2-0.5
		c-0.1-0.4-0.1-0.8,0.1-1.2c0.2-0.7,0.6-1.3,1.2-1.8l-0.1,0.4c-0.1-0.2-0.1-0.4-0.1-0.6c0-0.1,0.1-0.3,0.1-0.4
		c0.1-0.2,0.2-0.5,0.3-0.7c0.2-0.5,0.5-0.9,0.7-1.3c0.5-0.9,1.1-1.7,1.6-2.5l0.4,0.3c-0.3,0.4-0.8,0.6-1.3,0.6c-0.5,0-0.9,0-1.4-0.2
		c-0.7-0.3-1.6-0.1-2.2,0.4c-0.6,0.5-1.2,1.2-1.6,1.9c-0.2,0.4-0.3,0.8-0.4,1.2c-0.1,0.4-0.1,0.8-0.2,1.3C9,23.4,9,24.2,9,25
		c0,0.8,0.2,1.6,0.7,2.3c0.3,0.3,0.6,0.4,1,0.5c0.4,0.1,0.9,0.3,1.2,0.6c0.6,0.6,1.1,1.3,1.7,1.9c0.3,0.3,0.6,0.5,0.9,0.8
		c0.2,0.1,0.3,0.2,0.5,0.3c0.2,0.1,0.4,0.2,0.6,0.2c0.8,0.2,1.6,0.4,2.4,0.4c0.4,0,0.8,0,1.2,0c0.4,0,0.7-0.1,1.1-0.2
		c0.3-0.2,0.6-0.5,0.9-0.8c0.1-0.1,0.2-0.2,0.3-0.3c0.2-0.1,0.4-0.1,0.5,0c0.1,0,0.3,0.1,0.4,0.2c0.1,0.1,0.2,0.2,0.3,0.3
		c0.3,0.4,0.5,0.8,0.7,0.9c0.1,0.1,0.3,0.1,0.5,0.1c0.2,0,0.4-0.1,0.6-0.1c0.4-0.1,0.8-0.3,1.2-0.4c0.2-0.1,0.4-0.1,0.7-0.1
		c0.2,0,0.5,0,0.7,0c0.2,0,0.5,0.1,0.7,0.1c0.2,0.1,0.4,0.3,0.6,0.5c0.2,0.4,0.4,0.8,0.6,1.2c0.1,0.4,0.3,0.8,0.4,1.2
		c0.1,0.2,0.1,0.4,0.1,0.6c0,0.1,0,0.2,0,0.3C29.3,35.6,29.3,35.7,29.2,35.8L29.2,35.8z"/>
	<path style="fill:#DEEDDE;" d="M27.1,11.3c0,0-3.4-1.6-4-0.7s-1.5,1.8-0.4,3.1c0.9,1,2,1.8,3.2,2.5c0.3,0.1-2.4-3-2.2-3.9
		s2-0.4,2-0.4"/>
	<path style="fill:#B5D6B6;" d="M27,11.4c-0.8-0.2-1.5-0.4-2.2-0.5c-0.3-0.1-0.7-0.1-1.1-0.1c-0.1,0-0.2,0-0.4,0.1l0,0l-0.1,0.1
		l-0.2,0.2c-0.2,0.3-0.4,0.6-0.6,0.9c-0.1,0.3-0.1,0.7,0,1c0.2,0.3,0.4,0.6,0.7,0.9c0.3,0.3,0.6,0.5,0.9,0.7
		c0.6,0.4,1.3,0.8,1.9,1.2h0l0,0h-0.1c-0.1,0-0.2,0-0.3,0.1c-0.1,0.1-0.1,0.1-0.1,0.2c0,0,0,0.1,0,0.1l0,0l0,0l-0.2-0.2L25,15.6
		c-0.2-0.3-0.5-0.6-0.7-0.9c-0.2-0.3-0.4-0.7-0.6-1c-0.1-0.2-0.2-0.4-0.3-0.6c-0.1-0.2-0.1-0.4-0.1-0.7c0-0.1,0.1-0.3,0.1-0.4
		l0.1-0.2l0.2-0.1c0.2-0.1,0.4-0.2,0.7-0.1c0.4,0,0.8,0.1,1.2,0.3v0.1c-0.4-0.1-0.7-0.1-1.1,0c-0.2,0-0.3,0.1-0.4,0.2L24,12.2v0.1
		c0,0.1,0,0.1,0,0.1c0,0.2,0.1,0.3,0.2,0.4c0.1,0.2,0.2,0.3,0.3,0.5c0.2,0.3,0.4,0.6,0.6,0.9l0.7,0.9l0.3,0.5l0.2,0.3V16v0.1
		c0,0,0,0.1,0,0.1c0,0,0,0.1,0,0.1c0,0.1-0.1,0.1-0.1,0.2c-0.1,0.1-0.2,0.1-0.3,0.1c-0.1,0-0.1,0-0.1,0l0,0h-0.1
		c-0.7-0.4-1.3-1-1.9-1.6c-0.3-0.3-0.5-0.6-0.8-0.9c-0.3-0.3-0.5-0.6-0.7-1c-0.2-0.4-0.2-0.8-0.1-1.2c0.1-0.4,0.3-0.8,0.5-1.1
		l0.1-0.2l0.1-0.1c0-0.1,0.1-0.1,0.2-0.2c0.2-0.2,0.5-0.2,0.7-0.2c0.4,0,0.8,0.1,1.2,0.2c0.7,0.2,1.5,0.6,2.1,1L27,11.4z"/>
	<path style="fill:#DEEDDE;" d="M38.3,18.7c0-0.7-0.6-0.9-0.3-1.5s1.8-1.3,1.8-2.1s-0.5-0.7-1.7-1.1s-1-1.8-2.5-2.3
		c-1-0.3-2.2,0-3,0.7c1.1,0,2.1,0.5,2.9,1.2c0.8,0.6,1.2,1.5,1.3,2.4"/>
	<path style="fill:#B5D6B6;" d="M38.3,18.7c-0.1-0.3-0.2-0.5-0.4-0.7c-0.1-0.1-0.2-0.3-0.2-0.5c0-0.2,0.1-0.4,0.2-0.5
		c0.2-0.2,0.4-0.5,0.6-0.7c0.2-0.2,0.4-0.4,0.6-0.6c0.2-0.2,0.3-0.3,0.4-0.5c0,0,0-0.1,0-0.1c0,0,0-0.1,0-0.1c0-0.1,0-0.1,0-0.2
		c-0.2-0.1-0.4-0.2-0.6-0.3c-0.3-0.1-0.5-0.2-0.8-0.3c-0.3-0.1-0.5-0.3-0.7-0.5c-0.2-0.2-0.3-0.5-0.5-0.7c-0.2-0.5-0.7-0.8-1.2-1
		c-1-0.3-2,0-2.8,0.7L32.7,12c0.3,0,0.6,0,0.8,0.1c0.3,0.1,0.5,0.1,0.8,0.2c0.5,0.2,1,0.5,1.4,0.9c0.4,0.4,0.7,0.8,1,1.3
		c0.1,0.2,0.2,0.5,0.2,0.8c0,0.3,0,0.5,0.1,0.8h-0.1c-0.1-0.5-0.3-0.9-0.6-1.3c-0.2-0.2-0.3-0.4-0.5-0.5c-0.2-0.2-0.4-0.4-0.5-0.5
		c-0.4-0.3-0.8-0.5-1.3-0.7c-0.2-0.1-0.4-0.1-0.7-0.2c-0.2,0-0.4-0.1-0.7-0.1l-1.1-0.1l0.8-0.6c0.5-0.4,1.1-0.6,1.7-0.8
		c0.6-0.1,1.3-0.1,1.8,0.2c0.3,0.1,0.5,0.3,0.7,0.6c0.2,0.2,0.3,0.5,0.5,0.7c0.1,0.2,0.3,0.5,0.5,0.7c0.2,0.2,0.4,0.3,0.7,0.4
		c0.3,0.1,0.5,0.1,0.8,0.1l0.4,0.1c0.2,0,0.3,0.1,0.5,0.2c0.2,0.1,0.3,0.3,0.3,0.6c0,0.1,0,0.2,0,0.3c0,0.1,0,0.2,0,0.3
		c-0.1,0.3-0.3,0.6-0.6,0.8c-0.4,0.4-0.9,0.7-1.3,1c-0.1,0.1-0.1,0.2-0.2,0.3c0,0.1,0,0.2,0,0.3C38.3,18,38.3,18.3,38.3,18.7
		L38.3,18.7z"/>
	<path style="fill:#DEEDDE;" d="M33.1,30.2c0.4,0.5,1.1,0.8,1.7,0.7c1.2-0.2,2-1.8,2.8-1.8c0.9,0,1.8-0.2,2.6-0.6
		c0.4-0.4,0.3-1.8,0.6-2s0.2,1.6,0.8,1.4c1.5-0.6,2.7-1.7,3.2-3.3c0.7-2.2,1-8-5-9.5l-0.7,1c0,0,2.5,3.2,2.6,3.9
		c0,0.5-0.1,1-0.3,1.4c0,0,2.5-0.2,2.3,1.7s-2.1,2.7-5,0.7"/>
	<path style="fill:#B5D6B6;" d="M33.2,30.2c0.4,0.4,1,0.7,1.5,0.6c0.6-0.1,1-0.4,1.4-0.9c0.2-0.2,0.4-0.4,0.7-0.6
		c0.1-0.1,0.3-0.2,0.4-0.3c0.2-0.1,0.4-0.1,0.5-0.1c0.6,0,1.1-0.1,1.7-0.3c0.1,0,0.3-0.1,0.4-0.1c0.1,0,0.2-0.1,0.3-0.2
		c0-0.1,0.1-0.2,0.1-0.3c0-0.1,0-0.3,0.1-0.4c0-0.3,0.1-0.6,0.2-1c0-0.1,0.1-0.3,0.3-0.4h0.1h0.1c0.1,0,0.2,0,0.3,0.1
		c0.1,0.1,0.1,0.1,0.2,0.2c0.1,0.2,0.1,0.3,0.1,0.5c0,0.1,0,0.3,0.1,0.4c0,0.1,0,0.1,0.1,0.2l0,0l0.2-0.1l0.4-0.2
		c0.5-0.3,1-0.6,1.4-1c0.4-0.4,0.8-0.9,1-1.4c0.2-0.5,0.4-1.1,0.5-1.7c0.2-1.2,0.1-2.4-0.3-3.5c-0.4-1.1-1-2.1-1.9-2.9
		c-0.9-0.7-2-1.2-3.1-1.5l0.4-0.1l-0.7,1v-0.4c0.6,0.8,1.3,1.6,1.8,2.5c0.1,0.2,0.3,0.4,0.4,0.7c0.2,0.2,0.3,0.5,0.4,0.8
		c0.1,0.3,0.1,0.7,0,1c-0.1,0.3-0.2,0.6-0.3,0.8L41.5,21c0.4,0,0.9,0,1.3,0.1c0.5,0.1,0.9,0.4,1.2,0.9c0.2,0.4,0.3,0.9,0.1,1.4
		c-0.1,0.4-0.3,0.9-0.7,1.2c-0.3,0.3-0.8,0.5-1.2,0.5c-0.4,0-0.9,0-1.3-0.1c-0.8-0.3-1.5-0.7-2.1-1.2v-0.1c0.7,0.4,1.4,0.7,2.2,0.9
		c0.7,0.2,1.4,0,2-0.4c0.2-0.3,0.4-0.6,0.5-0.9c0.1-0.3,0-0.6-0.1-0.9c-0.5-0.5-1.2-0.7-1.9-0.5h-0.7l0.4-0.6
		c0.2-0.3,0.3-0.7,0.2-1.1c-0.1-0.2-0.2-0.4-0.3-0.6c-0.1-0.2-0.3-0.4-0.4-0.6c-0.6-0.8-1.2-1.7-1.8-2.5l-0.2-0.2l0.1-0.2l0.7-1
		l0.1-0.2l0.2,0.1c1.2,0.3,2.3,0.9,3.3,1.8c0.9,0.9,1.6,2,1.9,3.2c0.3,1.2,0.4,2.4,0.2,3.6c-0.1,0.6-0.2,1.2-0.5,1.8
		c-0.2,0.6-0.6,1.1-1,1.6c-0.4,0.5-0.9,0.9-1.5,1.2L42,28.1l-0.2,0.1c-0.1,0.1-0.3,0.1-0.5,0C41.1,28.1,41,28,41,27.9
		c0-0.1-0.1-0.2-0.1-0.3c0-0.2-0.1-0.3-0.1-0.5c0-0.1-0.1-0.3-0.1-0.4l0,0c0.1,0,0.1,0.1,0.2,0.1h0.1l0,0c0.1-0.1,0,0,0,0
		c-0.1,0.3-0.1,0.6-0.1,0.8c0,0.1,0,0.3-0.1,0.5c0,0.2-0.1,0.4-0.3,0.5c-0.1,0.1-0.3,0.2-0.5,0.3c-0.2,0.1-0.3,0.1-0.5,0.2
		c-0.6,0.2-1.2,0.2-1.9,0.2c-0.2,0-0.5,0.1-0.7,0.3c-0.2,0.2-0.5,0.4-0.7,0.6c-0.2,0.2-0.5,0.4-0.8,0.5c-0.3,0.2-0.6,0.3-0.9,0.3
		c-0.6,0-1.3-0.3-1.6-0.8L33.2,30.2z"/>
	<path style="fill:#83BE8D;" d="M24.1,26.5c1.2-0.6,2.5-1,3.8-1c1.6,0.2,3.1,1.4,3.5,1.4c0,0-0.9,3.4-3.6,3.3S24.1,26.5,24.1,26.5z"
		/>
	<path style="fill:#83BE8D;" d="M21.6,25c0.1,0.3,0.2,0.5,0.3,0.8c0.1,0.2,0.3,0.4,0.5,0.4l0.4,0.1c0.1,0,0.2,0,0.3,0
		c0.2,0,0.5-0.1,0.8-0.2c0.5-0.1,1.1-0.4,1.7-0.5c0.6-0.1,1.2-0.2,1.8-0.3c0.6-0.1,1.3,0,1.9,0.1c0.3,0.1,0.6,0.2,0.9,0.3
		c0.3,0.1,0.5,0.3,0.8,0.4c0.2,0.1,0.5,0.2,0.7,0.3c0.2,0,0.5,0,0.8,0c0.5-0.1,1-0.5,1.2-1.1h0.1c0,0.7-0.4,1.3-1,1.6
		c-0.6,0.3-1.4,0.2-2-0.1c-0.5-0.3-1-0.6-1.5-0.8c-0.5-0.2-1.1-0.3-1.7-0.4c-0.6-0.1-1.2-0.1-1.8,0.1c-0.3,0.1-0.5,0.2-0.8,0.4
		c-0.3,0.2-0.5,0.3-0.8,0.5c-0.3,0.1-0.6,0.2-0.9,0.3c-0.2,0-0.4,0-0.5-0.1l-0.4-0.1c-0.4-0.1-0.6-0.4-0.7-0.8
		C21.5,25.6,21.5,25.3,21.6,25L21.6,25z"/>
	<path style="fill:#FFFFFF;" d="M20.3,16.4c1.9-0.8,4.1-0.2,5.4,1.4c1.5,1.6,1.4,4.1-0.2,5.7c-0.1,0.1-0.2,0.2-0.3,0.2
		c-1,0.6-4.5-1.1-5.2-2.6c-0.2-0.4-0.3-0.7-0.5-1.1C19.1,18.8,18.9,17.6,20.3,16.4z"/>
	<path style="fill:#83BE8D;" d="M20.9,17.7c1.2-0.7,2.6-0.9,3.9-0.5c1.5,0.4,2.2,2.8,2,3.6s-1,3-1.8,3s-4-0.5-4.8-2.6
		C19.4,20,19.8,18.5,20.9,17.7z"/>
	<path style="fill:#262424;" d="M22.8,18.3c1-0.5,2.2,0,2.7,1c0,0,0,0,0,0c0.5,0.9,0.3,2.1-0.6,2.6c-0.1,0.1-0.3,0.2-0.4,0.2
		c-1.2,0.3-2.4-0.3-2.8-1.5c0-0.1,0-0.2-0.1-0.2c-0.3-0.8,0.1-1.7,0.9-2C22.6,18.4,22.7,18.3,22.8,18.3z"/>
	<path style="fill:#FFFFFF;" d="M30,21.8c-0.6-1.9,0.4-4,2.3-4.7c0.1,0,0.2-0.1,0.3-0.1c3.9-1.3,4.7,1.3,4.8,2.4
		c-0.1,1.7-1.1,3.2-2.6,4C33,24.3,30.3,23.6,30,21.8z"/>
	<path style="fill:#83BE8D;" d="M35.5,18.2c0.6,0.5,2.1,2,1.2,3.7c-1.3,2.2-5.2,2.5-6.2,0.9s-1-4.5,1.8-5.3
		C33.4,17.1,34.6,17.3,35.5,18.2z"/>
	<path style="fill:#262424;" d="M30.9,20.5c-0.1-0.9,0.5-1.8,1.4-1.9c1.1-0.4,2.4,0.2,2.8,1.3c0,0.1,0,0.1,0.1,0.2
		c0.1,0.9-0.8,2.8-2.3,2.7S30.9,21,30.9,20.5z"/>
	<path style="fill:#B5D6B6;" d="M14.2,34.4c-0.2,0-0.3,0.1-0.5,0.1l-0.4,0.2l-0.4,0.2c-0.2,0.1-0.3,0.1-0.5,0.1
		c0.2-0.3,0.5-0.5,0.8-0.7c0.2-0.1,0.3-0.1,0.5-0.1C13.9,34.2,14,34.3,14.2,34.4z"/>
	<path style="fill:#B5D6B6;" d="M12.6,32.5c-0.2,0.1-0.4,0.2-0.6,0.3c-0.2,0.1-0.4,0.1-0.6,0.2c-0.2,0-0.4,0.1-0.6,0.1
		c-0.2,0-0.4,0-0.7,0c0.1-0.2,0.2-0.4,0.4-0.6c0.2-0.1,0.4-0.2,0.6-0.3c0.2,0,0.5,0,0.7,0C12.2,32.3,12.4,32.4,12.6,32.5z"/>
	<path style="fill:#B5D6B6;" d="M21,37.3c-0.1,0.3-0.2,0.7-0.3,1l-0.2,0.5c-0.1,0.2-0.1,0.3-0.2,0.5c-0.1-0.4-0.1-0.8,0-1.1
		c0.1-0.2,0.1-0.4,0.2-0.5C20.7,37.5,20.8,37.4,21,37.3z"/>
	<path style="fill:#B5D6B6;" d="M18.7,37c-0.4,0.2-0.7,0.3-1,0.4l-0.5,0.2c-0.2,0.1-0.3,0.1-0.5,0.2c0.2-0.3,0.6-0.6,0.9-0.7
		c0.2-0.1,0.4-0.1,0.6-0.1C18.3,36.9,18.5,36.9,18.7,37z"/>
	<path style="fill:#B5D6B6;" d="M13.3,22.1c-0.5,0.2-1,0.4-1.4,0.5l-0.7,0.3c-0.2,0.1-0.5,0.2-0.8,0.2c0.3-0.5,0.8-0.8,1.3-1
		c0.3-0.1,0.5-0.1,0.8-0.2C12.7,22,13,22.1,13.3,22.1z"/>
	<path style="fill:#B5D6B6;" d="M13.3,21c-0.6-0.1-1-0.2-1.5-0.4L11,20.5c-0.3-0.1-0.5-0.1-0.8-0.2c0.5-0.2,1.1-0.2,1.6-0.1
		c0.3,0.1,0.5,0.2,0.8,0.3C12.9,20.6,13.1,20.8,13.3,21z"/>
	<path style="fill:#B5D6B6;" d="M39.9,27.3c-0.3-0.5-0.5-0.9-0.7-1.4l-0.3-0.7c-0.1-0.2-0.2-0.5-0.3-0.7c0.5,0.2,0.9,0.7,1.1,1.1
		c0.1,0.2,0.2,0.5,0.3,0.8C40,26.7,40,27,39.9,27.3z"/>
	<path style="fill:#B5D6B6;" d="M26,38.3c0.3-0.1,0.6-0.1,0.9,0c0.3,0.1,0.5,0.3,0.7,0.5c0.2,0.2,0.3,0.4,0.4,0.7
		c0,0.1,0.1,0.3,0.1,0.4c0,0.1,0,0.3,0,0.4c-0.2-0.2-0.4-0.3-0.6-0.5c-0.2-0.2-0.3-0.3-0.5-0.5l-0.5-0.5
		C26.3,38.7,26.2,38.5,26,38.3z"/>
	<path style="fill:#B5D6B6;" d="M42.4,33.7c0.2-0.1,0.4-0.1,0.5-0.1c0.6,0.1,1,0.6,1,1.2c-0.1-0.1-0.3-0.2-0.4-0.3l-0.3-0.3
		C43,33.9,42.7,33.8,42.4,33.7z"/>
	<path style="fill:#B5D6B6;" d="M33.1,37.6c0.2,0,0.4,0,0.7,0c0.2,0.1,0.4,0.1,0.6,0.3c0.2,0.1,0.4,0.3,0.5,0.4
		c0.2,0.2,0.3,0.4,0.3,0.6c-0.2-0.1-0.3-0.3-0.5-0.4s-0.3-0.2-0.5-0.3C33.8,38,33.5,37.8,33.1,37.6z"/>
	<path style="fill:#DEEDDE;" d="M25,24.1c-0.6-0.1-4.2,0.1-5.4-1.1s-0.9-1.5-2-2.4s-1.2-0.9-1.8-2s0.2-2.8,0.4-4s0.9-1.9,2.5-2.4
		c0.9-0.3,1.9,0,2.6,0.7c-1,0.4-1.8,1.3-2,2.3c-0.4,1.5-0.4,3.1,0,4.6"/>
	<path style="fill:#B5D6B6;" d="M25,24.2c-0.4,0-0.9,0-1.4,0s-0.9,0-1.4,0c-0.5,0-0.9-0.1-1.4-0.2c-0.5-0.1-1-0.3-1.4-0.6
		c-0.4-0.3-0.7-0.7-1-1.1c-0.2-0.4-0.5-0.8-0.7-1.1c-0.3-0.3-0.6-0.6-1-0.9c-0.4-0.3-0.7-0.7-0.9-1.1c-0.1-0.2-0.2-0.4-0.3-0.6
		c-0.1-0.2-0.1-0.5-0.1-0.7c0-0.5,0.1-0.9,0.2-1.4c0.1-0.5,0.2-0.9,0.3-1.4c0-0.1,0-0.2,0-0.3s0-0.2,0.1-0.4
		c0.1-0.2,0.1-0.5,0.3-0.7c0.2-0.5,0.6-0.8,1-1.1c0.4-0.3,0.9-0.4,1.3-0.6c0.5-0.1,1.1-0.1,1.6,0c0.3,0.1,0.5,0.2,0.7,0.3
		c0.2,0.1,0.4,0.3,0.6,0.5l0.4,0.4l-0.6,0.2c-0.3,0.1-0.5,0.2-0.8,0.4c-0.5,0.4-0.8,0.8-1,1.4c-0.1,0.3-0.2,0.6-0.2,0.9
		c-0.1,0.6-0.2,1.2-0.2,1.8c-0.1,0.6,0,1.3,0.2,1.9h-0.1c-0.3-0.6-0.5-1.3-0.5-2c0-0.7,0-1.3,0.1-2c0-0.3,0.1-0.7,0.2-1
		c0.2-0.7,0.6-1.4,1.2-1.8c0.3-0.2,0.6-0.4,1-0.6L21,13.2c-0.1-0.1-0.3-0.3-0.4-0.4c-0.2-0.1-0.3-0.2-0.5-0.2
		c-0.4-0.1-0.8-0.1-1.1,0c-0.8,0.2-1.6,0.6-2.1,1.3c-0.1,0.2-0.2,0.4-0.3,0.6c0,0.1-0.1,0.2-0.1,0.3s0,0.2-0.1,0.3
		c-0.1,0.4-0.3,0.9-0.4,1.3c-0.4,0.8-0.3,1.8,0.1,2.6c0.1,0.2,0.2,0.4,0.4,0.5c0.2,0.2,0.3,0.3,0.5,0.4c0.4,0.3,0.7,0.5,1.1,0.9
		c0.2,0.2,0.4,0.4,0.5,0.5c0.1,0.2,0.3,0.4,0.4,0.6c0.3,0.4,0.5,0.7,0.9,1c0.3,0.3,0.7,0.4,1.1,0.5c0.4,0.1,0.9,0.2,1.3,0.3
		c0.4,0.1,0.9,0.1,1.4,0.2l0.7,0.1C24.5,24.1,24.7,24.1,25,24.2L25,24.2z"/>
	<path style="fill:#FFFFFF;" d="M22.1,17.2c0,0,0.4-0.3,0.9,0.5s0.8,1.4,0.5,1.6s-1-0.1-1.3-1.1S22.1,17.2,22.1,17.2z"/>
	<path style="fill:#FFFFFF;" d="M24.4,21.2c0.2-0.2,0.4,0,0.8,0.4s0.5,0.7,0.3,0.9S24,21.6,24.4,21.2z"/>
	<path style="fill:#FFFFFF;" d="M31.7,17.7c0,0,0.4-0.3,0.9,0.5s0.8,1.4,0.5,1.6s-1-0.1-1.3-1.1S31.7,17.7,31.7,17.7z"/>
	<path style="fill:#FFFFFF;" d="M34.2,21.2c0.2-0.2,0.4,0,0.8,0.4s0.5,0.7,0.3,0.9S33.7,21.6,34.2,21.2z"/>
	<path style="fill:#93C699;" d="M25.6,28.5c0,0-0.2-0.8,0.7-0.8s3.5-0.4,4.1,0.3c0.3,0.3-0.9,1.8-2.5,1.8
		C27,29.8,26.1,29.3,25.6,28.5z"/>
	<path style="fill:#DEEDDE;" d="M26,25.8c0.6-0.3,1.2-0.4,1.8-0.3c0.7,0.1,1.3,0.3,1.9,0.5v1.2c0,0-3.2,0.3-3.5,0S26,25.8,26,25.8z"
		/>
	<path style="fill:#DEEDDE;" d="M21,58.4c0.2-0.6,0.7-1.1,1.2-1.5c0.5-0.4,1.1-0.7,1.8-0.9c1.2-0.4,2.5-0.6,3.8-0.6
		c1.3-0.1,2.6,0.1,3.9,0.4c0.6,0.2,1.2,0.4,1.8,0.8c0.5,0.3,1,0.8,1.3,1.4c-0.4-0.5-0.9-0.9-1.5-1.1c-0.6-0.3-1.1-0.4-1.8-0.5
		c-1.2-0.2-2.5-0.3-3.7-0.2c-0.6,0-1.2,0.1-1.9,0.1c-0.3,0-0.6,0.1-0.9,0.1l-0.9,0.2c-0.6,0.1-1.2,0.3-1.7,0.6
		C21.8,57.5,21.3,57.9,21,58.4z"/>
	<path style="fill:#DEEDDE;" d="M29.3,54c-0.1-0.4-0.2-0.7-0.3-1.1c-0.1-0.8-0.1-1.6-0.1-2.4c0-0.1,0-0.3,0-0.4c0-0.1,0-0.2,0-0.3
		c0.1-1.7-1.8-1.7-1.9,0c-0.1,1.5-0.5,2.9-0.6,4.3s0.6,1.9,1.5,2S29.6,55.3,29.3,54z"/>
</g>
</svg>
