<?xml version="1.0" encoding="utf-8"?>
<!-- Generator: Adobe Illustrator 22.0.0, SVG Export Plug-In . SVG Version: 6.00 Build 0)  -->
<svg version="1.1" id="Слой_1" xmlns="http://www.w3.org/2000/svg" xmlns:xlink="http://www.w3.org/1999/xlink" x="0px" y="0px"
	 viewBox="0 0 55.8 62.9" style="enable-background:new 0 0 55.8 62.9;" xml:space="preserve">
<title>Artboard 1</title>
<g id="Слой_4">
	<path style="fill:#D04B4A;" d="M26.4,61.3h-2.7c-1,0-2.1,0-3.1-0.1h-1.4c-0.3,0-0.5-0.2-0.5-0.5c0-0.1,0-0.1,0-0.2l0.1-0.3
		c0.3-0.6,0.7-1.2,1.2-1.6c0.4-0.4,0.9-0.8,1.5-1.1c0.5-0.3,1.1-0.6,1.6-0.8l0.6-0.2l0.3-0.1l0.4-0.1c0-0.6,0-1.2,0-1.8l-0.1-2.2
		c-0.3,0-0.5-0.1-0.8-0.2c-0.3-0.1-0.5-0.2-0.8-0.3l0,0c-0.9-0.3-1.8-0.7-2.6-1.3c-0.7-0.5-1.2-1.1-1.7-1.8c-1.3-0.5-5.9-2.2-7.2-5
		c-0.9-1.6-1.3-3.4-1.4-5.2c-0.5-3.2-1.3-5.6-2.1-6.2c-0.6-0.5-1.3-0.9-2-1.1c-0.5-0.2-0.9-0.4-1-0.8c-0.1-0.2,0-0.5,0.1-0.7
		c0.1-0.2,0.4-0.4,0.6-0.5c-0.1-0.1-0.2-0.2-0.2-0.3c-0.1-0.2-0.1-0.5,0.1-0.8c0.2-0.5,0.7-0.7,1.2-0.7c0.4,0,0.7,0.1,1,0.3
		c0.2,0.1,0.4,0.2,0.5,0.4C8,28.1,8,27.9,8,27.8c0-0.6,0.4-1,1-1c0.3,0,0.5,0.1,0.7,0.2c0.5,0.3,0.9,0.8,1.1,1.4
		c0.4-0.3,0.9-0.5,1.3-0.5l0,0c0.5,0,1,0.2,1.3,0.6c0.2-0.4,0.5-0.7,0.8-1c0.6-0.5,1.2-0.9,1.9-1.2l0.2-0.1h0.1
		c0.4-0.2,0.7-0.4,1.1-0.5l0.5-0.2l0.3-0.1c0.1-0.1,0.1-0.1,0.2-0.1l0,0c0.1,0,0.2-0.1,0.3-0.1c2.4-1.3,5.1-1.9,7.9-1.9
		c0.4,0,0.9,0,1.3,0c-0.1-0.9,0-1.8,0.4-2.6c0.1-0.2,0.3-0.3,0.5-0.3H29c0.2,0,0.4,0.2,0.4,0.5c0,0.4,0.2,1,0.3,1s0.8,0.4,1.3,0.6
		c-0.2-1,0.3-2,1.2-2.4c0.1,0,0.1-0.1,0.2-0.1c0.3,0,0.5,0.2,0.5,0.5c0,0.1,0,0.2-0.1,0.2c-0.2,0.3-0.3,0.7-0.3,1.1
		c0.2,0.2,0.3,0.3,0.5,0.4c0.6,0.4,1.1,0.9,1.5,1.6c0.2,0,0.4,0,0.6,0c0.2,0,0.5,0,0.8,0h0.2c0.4,0.1,0.9,0.1,1.3,0.1
		c0.9,0.1,1.9-0.3,2.3-1.2c0.1-0.2,0.3-0.3,0.5-0.3h0.1c0.2,0.1,0.4,0.3,0.4,0.5c-0.1,1.4-0.9,2.7-2,3.6h0.1c0.2,0,0.4-0.1,0.5-0.1
		c0.3-0.1,0.7-0.1,1-0.1c0.2,0,0.4,0,0.6,0.1c1.1,0.2,2.3,1.6,2.4,3.9c0,0.3-0.2,0.5-0.4,0.5h-0.1c-0.2,0-0.4-0.1-0.5-0.4
		c0,0-0.4-1.2-1.2-1.2c-0.2,0-0.4,0-0.5,0.1c-0.1,0.2-0.4,0.4-0.7,0.5l0.4,0.3c1.2,0.7,2.3,1.6,3.2,2.7c0-0.3-0.1-0.5-0.1-0.8
		c-0.2-0.5,0-1,0.4-1.3c0.2-0.1,0.4-0.2,0.7-0.2c0.6,0,1.1,0.4,1.3,1c0.1,0.2,0.1,0.3,0.1,0.5l0.1-0.1c0.5-0.8,1.1-1.8,1.9-1.8
		c0.1,0,0.3,0,0.4,0.1c0.3,0.1,0.5,0.4,0.6,0.7c0.1,0.5,0.1,0.9-0.1,1.4c0.4-0.2,0.8-0.4,1.3-0.4c0.4,0,0.8,0.2,0.9,0.6
		c0.2,0.5,0,1.2-0.5,1.5c0.1,0.1,0.1,0.2,0.2,0.4c0.2,1-1.2,1.4-2.7,1.8c-0.1,0-0.6,0.3-1.7,3.5c0,0.4,0.1,0.9,0.1,1.4
		c0.3,8.7-5.9,10.6-7.9,11l-0.3,0.1L38,51.3l0.1,0.5L37.4,52c-0.9,0.1-1.7,0.2-2.6,0.3h-0.6c-1,0-2.1-0.1-3.1-0.4c0,0.5,0,0.9,0,1.4
		L31,56.3l0.4,0.1l0.3,0.1l0.6,0.1c0.6,0.2,1.2,0.4,1.8,0.7c0.6,0.3,1.1,0.6,1.6,1.1c0.3,0.2,0.5,0.5,0.7,0.7
		c0.2,0.3,0.4,0.6,0.5,0.9l0.2,0.4c0.1,0.3,0,0.5-0.2,0.7c-0.1,0-0.1,0-0.2,0h-0.5c-2.5,0.1-4.8,0.1-7,0.1L26.4,61.3z M12.4,30.3
		c0,0,0,0.1,0,0.1c0,0.1,0.1,0.3,0.1,0.4c0-0.2,0.1-0.5,0.2-0.7l-0.2,0.1L12.4,30.3z"/>
	<path style="fill:#FFFFFF;" d="M32.4,20.4c0,0-0.6,1.2-0.2,1.7c0.4,0.5,2,1.4,2,2.3c0.3-0.1,0.7-0.2,1-0.2c0.2,0,0.5,0,0.7,0
		c0.5,0.1,1,0.1,1.5,0.1c1.1,0.1,2.2-0.5,2.7-1.5c-0.2,1.8-1.4,3.3-3,3.9c0.5,0.1,1,0.2,1.5,0.2h0.3c0.5-0.1,1-0.2,1.5-0.2
		c0.2,0,0.3,0,0.5,0c0.9,0.2,1.9,1.3,2,3.4c0,0-0.4-1.6-1.7-1.6H41c-1.3,0.1-0.2,0.6-1.9,0.7h-0.1c0,0.1,0.1,0.1,0.1,0.2
		c0.3,0.6,3,1.5,4.9,4.4l0.1-0.2c0-0.1,0-0.2,0-0.3c0-1.9-0.6-2.2,0-2.5c0.1-0.1,0.3-0.1,0.5-0.1c0.4,0,0.7,0.3,0.9,0.7
		c0.3,0.6-0.1,1.2,0.3,1.3l0,0c0.4,0,1.3-2.4,2.2-2.4c0.1,0,0.1,0,0.2,0c0.9,0.5-0.3,2.3-0.3,2.3s0.1,0.2,0.2,0.2
		c0.1,0,0.1,0,0.1-0.1c0.6-0.5,1.2-0.8,2-0.9c0.2,0,0.4,0.1,0.5,0.3c0.3,0.8-1.2,1.5-1.2,1.5c0.1,0,0.2,0,0.3,0c0.2,0,0.5,0,0.6,0.3
		c0.1,0.5-0.7,0.8-2.3,1.2c-0.7,0.2-1.4,1.9-2.1,4c0,0.5,0.1,0.9,0.1,1.4c0.3,8.4-5.7,10.1-7.5,10.5h-0.1h-0.2H38l-0.7,0.1
		c-0.8,0.1-1.7,0.2-2.5,0.3h-0.6c-1.2,0-2.4-0.2-3.5-0.5c0,0.7,0,1.3-0.1,2l-0.2,3.5l0.9,0.1c0.3,0.1,0.6,0.1,0.9,0.2
		c0.6,0.2,1.2,0.4,1.7,0.6c0.6,0.3,1.1,0.6,1.5,1c0.2,0.2,0.5,0.4,0.7,0.7c0.2,0.2,0.4,0.5,0.5,0.8l0.2,0.4h-0.5
		c-2.3,0.1-4.6,0.1-6.9,0.1h-1.4c-1.4,0-2.8,0-4.2,0s-2.8-0.1-4.2-0.1h-0.3l0.1-0.3c0.2-0.5,0.6-1,1-1.4c0.4-0.4,0.9-0.7,1.4-1
		c0.5-0.3,1-0.5,1.6-0.7c0.3-0.1,0.5-0.2,0.8-0.3l0.7-0.2c0-1.1-0.1-2.3-0.1-3.4c0-0.5,0-1,0-1.4c-0.4,0-0.8-0.1-1.1-0.2
		c-0.3-0.1-0.6-0.2-0.8-0.3l0,0c-0.9-0.3-1.7-0.7-2.4-1.2c-0.7-0.5-1.2-1.1-1.6-1.8c-0.7-0.2-5.8-2-7.1-4.8c-0.8-1.5-1.3-3.3-1.3-5
		C10,36.7,9.2,33,8,32c-1.6-1.4-3.2-1.3-2.8-1.9c0.2-0.3,0.6-0.4,1-0.4c0.2,0,0.3,0,0.5,0l0,0h0.3c-0.4-0.2-1.6-0.7-1.3-1.3
		c0.2-0.3,0.5-0.5,0.8-0.5c0.3,0,0.5,0.1,0.8,0.2c0.4,0.2,0.9,0.8,1.2,0.8c0.1,0,0.1,0,0.2,0c0.3-0.3-0.1-0.9-0.1-1.2
		c0-0.3,0.2-0.5,0.5-0.5c0.2,0,0.3,0.1,0.5,0.1c0.5,0.4,0.9,1,1.1,1.7c0.5-0.4,1-0.6,1.6-0.8h0.1c0.5,0,1.1,0.3,0.6,0.9
		s-1,0.5-0.9,1.1c0.2,0.6,0.5,1.2,1,1.6c0.1-1.6,0.6-3.1,1.7-4.2c0.5-0.5,1.1-0.8,1.8-1.1l0.3-0.2c0.3-0.2,0.7-0.3,1-0.4l0.5-0.2
		l0,0l0.5-0.2h-0.1c0.2,0,0.3-0.1,0.5-0.2l0,0c2.4-1.2,5-1.9,7.6-1.9c0.4,0,0.9,0,1.3,0l0.7,0.1c-0.3-1-0.3-2.1,0.2-3
		c0,0,0,1.2,0.6,1.5s2.2,1,2.2,1S30.7,21.1,32.4,20.4 M32.4,19.3c-0.2,0-0.3,0-0.5,0.1c-0.8,0.4-1.4,1.2-1.5,2.1L30,21.4
		c-0.1-0.2-0.1-0.4-0.1-0.6c0-0.5-0.3-0.9-0.8-1h-0.2c-0.4,0-0.8,0.2-0.9,0.6c-0.3,0.7-0.5,1.5-0.5,2.3h-0.8c-2.8,0-5.6,0.7-8.1,2
		l0,0c-0.1,0-0.1,0.1-0.2,0.1h0l0.1,0.4l-0.1-0.3l-0.5,0.2L17.6,25h-0.1c-0.4,0.1-0.8,0.3-1.2,0.5h-0.1l-0.3,0.1
		c-0.7,0.3-1.4,0.8-2,1.3c-0.2,0.2-0.4,0.4-0.5,0.6c-0.3-0.2-0.7-0.3-1.1-0.3h-0.1c-0.4,0-0.8,0.2-1.1,0.4c-0.2-0.4-0.6-0.8-1-1.1
		c-0.3-0.2-0.6-0.3-1-0.3c-0.4,0-0.9,0.2-1.2,0.5c-0.1,0.1-0.2,0.3-0.2,0.4C7.3,27,6.9,27,6.5,27c-0.7,0-1.3,0.4-1.7,1
		c-0.2,0.4-0.3,0.8-0.1,1.2l0,0c-0.2,0.1-0.3,0.3-0.4,0.4c-0.2,0.3-0.3,0.7-0.2,1.1c0.2,0.6,0.7,0.8,1.3,1.1c0.7,0.2,1.3,0.6,1.8,1
		c0.5,0.4,1.3,2.2,1.9,6c0.1,1.9,0.5,3.7,1.4,5.4c1.3,2.8,5.8,4.6,7.3,5.2c0.5,0.7,1,1.2,1.7,1.7c0.8,0.6,1.7,1.1,2.7,1.4
		c0.3,0.1,0.6,0.2,0.8,0.3l0.4,0.1v0.6c0,0.4,0,0.8,0,1.3s0,0.9,0,1.4l0,0L23.4,56l-0.6,0.2c-0.6,0.2-1.2,0.5-1.7,0.8
		c-0.6,0.3-1.1,0.7-1.6,1.2c-0.5,0.5-1,1.1-1.3,1.7l-0.1,0.3c-0.2,0.5,0,1.1,0.5,1.3c0.1,0.1,0.2,0.1,0.4,0.1h0.3h1.1
		c1,0,2.1,0.1,3.1,0.1h2.7h3c2.2,0,4.4,0,7-0.1h0.5c0.6,0,1-0.5,1-1c0-0.1,0-0.3-0.1-0.4l-0.2-0.4c-0.2-0.4-0.4-0.7-0.7-1
		c-0.2-0.2-0.5-0.5-0.8-0.7c-0.5-0.5-1.1-0.8-1.8-1.2c-0.6-0.3-1.2-0.5-1.9-0.7L31.8,56l-0.3-0.1l0,0l0.1-2.6c0-0.3,0-0.5,0-0.8
		c0.9,0.2,1.7,0.2,2.6,0.2h0.7c0.9,0,1.8-0.1,2.6-0.3l0.7-0.1h0.1h0.2l-0.1-1l0.2,1h0.1c1.9-0.4,3.6-1.2,5-2.5
		c2.3-2.1,3.4-5.1,3.3-9c0-0.4,0-0.8-0.1-1.3c0.3-1.1,0.8-2.2,1.4-3.1c1.3-0.3,3.2-0.9,3-2.3c0-0.1,0-0.1-0.1-0.2
		c0.5-0.5,0.6-1.3,0.2-2c-0.2-0.5-0.8-0.9-1.4-0.9c-0.2,0-0.4,0-0.6,0.1c0-0.2,0-0.4-0.1-0.6c-0.1-0.4-0.4-0.8-0.8-1
		c-0.2-0.1-0.4-0.1-0.6-0.1c-0.8,0.1-1.5,0.6-1.9,1.3c-0.3-0.6-0.9-0.9-1.6-0.9c-0.2,0-0.5,0.1-0.7,0.1c-0.1-2.5-1.5-4-2.8-4.2
		c-0.2,0-0.5-0.1-0.7-0.1h-0.3c0.6-0.8,1-1.8,1.1-2.9c0-0.5-0.3-0.9-0.8-1h-0.2c-0.4,0-0.7,0.2-0.9,0.6c-0.2,0.5-0.6,0.9-1.8,0.9
		c-0.4,0-0.8,0-1.2-0.1H36c-0.3,0-0.5,0-0.8,0h-0.3c-0.4-0.6-0.9-1-1.5-1.4l-0.3-0.3c0-0.2,0.1-0.5,0.2-0.7c0.2-0.5,0.1-1.1-0.4-1.3
		c-0.1-0.1-0.3-0.1-0.4-0.1L32.4,19.3z M32.4,21.3L32.4,21.3z M40.8,29.5H41l0,0c0.3,0,0.6,0.4,0.7,0.7C41.3,30,41,29.8,40.8,29.5
		L40.8,29.5L40.8,29.5z"/>
	<path style="fill:#48A955;" d="M30.7,25.7C28.9,25,28,23,28.6,21.2c0.1-0.2,0.1-0.3,0.2-0.5c0,0,0,1.2,0.6,1.5s2.2,1,2.2,1
		s-0.9-2,0.7-2.9c0,0-0.6,1.2-0.2,1.7c0.4,0.5,2,1.4,2,2.3c0.5-0.2,1.1-0.2,1.7-0.1c1.3,0.1,3.4,0.5,4.2-1.4c-0.2,1.8-1.4,3.3-3,3.9
		c0.6,0.1,1.2,0.2,1.7,0.2c0.6-0.2,1.3-0.3,2-0.2c0.9,0.2,1.9,1.3,2,3.4c0,0-0.5-1.7-1.8-1.6s-0.2,0.6-1.9,0.7S30.7,25.7,30.7,25.7z
		"/>
	<path style="fill:#C12F30;" d="M30.4,56.8v-7h-5.4v7c-4.5,0.9-5.5,3.6-5.5,3.6l16.8-0.1C36.3,60.3,35.2,57.6,30.4,56.8z"/>
	<path style="fill:#99242C;" d="M30.3,56.8c-0.1-1.1-0.1-2.3-0.2-3.4S30.1,51,30,49.8l0.3,0.3h-2.7c-0.9,0-1.8,0-2.7,0l0.3-0.3
		c0,1.2-0.1,2.3-0.1,3.5s-0.1,2.3-0.1,3.5v0.1l0,0.1l-0.8,0.2c-0.3,0.1-0.5,0.2-0.8,0.3c-0.5,0.2-1,0.4-1.5,0.7
		c-0.5,0.3-0.9,0.6-1.3,1c-0.4,0.4-0.7,0.8-0.9,1.3l-0.2-0.3c1.4-0.1,2.8-0.1,4.2-0.2s2.8-0.1,4.2-0.1c2.8-0.1,5.6-0.1,8.4,0
		L36,60.4c-0.1-0.2-0.2-0.5-0.4-0.7c-0.2-0.2-0.4-0.4-0.5-0.6c-0.4-0.4-0.9-0.7-1.4-1c-0.5-0.3-1.1-0.6-1.7-0.8
		c-0.3-0.1-0.6-0.2-0.8-0.3L30.3,56.8z M30.4,56.8l0.9,0.1c0.3,0.1,0.6,0.1,0.9,0.2c0.6,0.2,1.2,0.4,1.7,0.6c0.6,0.3,1.1,0.6,1.5,1
		c0.2,0.2,0.5,0.4,0.7,0.7c0.2,0.2,0.4,0.5,0.5,0.8l0.2,0.4h-0.5c-2.8,0.1-5.6,0.1-8.4,0.1c-1.4,0-2.8,0-4.2,0s-2.8-0.1-4.2-0.1
		h-0.3l0.1-0.3c0.3-0.5,0.6-1,1-1.4c0.4-0.4,0.9-0.7,1.4-1c0.5-0.3,1-0.5,1.6-0.7c0.3-0.1,0.5-0.2,0.8-0.3l0.8-0.2l-0.1,0.1
		c0-1.2-0.1-2.3-0.1-3.5s-0.1-2.4-0.1-3.6v-0.3h0.3c0.9,0,1.8,0,2.7,0h2.7h0.3v0.3c0,1.1-0.1,2.3-0.1,3.4L30.4,56.8z"/>
	<path style="fill:#99242C;" d="M18.8,25.6c2.8-1.6,6-2.3,9.2-2c3.3,0.3,6.4,1.8,8.8,4.1c0,0,1.8,0.8,2.2,1.8s6.6,2.5,6.9,11.4
		s-6.5,10.3-7.8,10.5c-2.6,0.6-5.4,0.5-8-0.3c0,0-4.2,1.3-6.6,0.7c-1.9-0.4-3.6-1.6-4.7-3.3c0,0-5.8-1.9-7.2-4.8s-2.4-6.4,0.9-9.7
		c0.6-0.6,0-4.1,2.1-6.2C15.6,26.6,18.8,25.6,18.8,25.6z"/>
	<path style="fill:#7E1E2F;" d="M18.8,25.6c2.8-1.6,6-2.3,9.2-2c3.3,0.3,6.4,1.8,8.8,4.1c0,0,1.8,0.8,2.2,1.8s6.6,2.5,6.9,11.4
		s-6.5,10.3-7.8,10.5c-2.6,0.6-5.4,0.5-8-0.3c0,0-4.2,1.3-6.6,0.7c-1.9-0.4-3.6-1.6-4.7-3.3l-0.5-1.8c0,0,2,4.5,6.1,4.2
		c3.9-0.3,3.7-2.3,5.6-2.5c3.3-0.3,6.4-0.6,8.2-2.1c2-1.9,2.4-5,0.9-7.3c-0.9-1.5-4-1.4-4.7-2.3c-0.9-1.3,1.6-2.8,2.3-3.4
		c0.9-0.7,1.3,4.1,2.4,0.9c0.8-1.9,0.1-4-1.6-5c-4.8-3.6-8.7-1.4-8.7-1.4c0.3-0.3,0.8-2.5-3.2-2.6c-1.3,0-2.6,0.7-3.3,1.9
		C22.1,25.4,18.8,25.6,18.8,25.6z"/>
	<path style="fill:#99242C;" d="M41.5,37.8c0,0,2.5-2.4,2.6-4.4s-0.6-2.2,0-2.5s1,0,1.3,0.6s-0.1,1.2,0.3,1.3s1.5-2.8,2.4-2.4
		s-0.3,2.3-0.3,2.4s0.1,0.4,0.3,0.2s2.1-1.4,2.4-0.7c0.3,0.8-1.2,1.5-1.2,1.5s0.8-0.2,0.9,0.3s-0.7,0.8-2.3,1.2s-4,10.6-4,10.6"/>
	<path style="fill:#99242C;" d="M10.4,39.8c0,0-0.8-6.4-2.4-7.8s-3.2-1.3-2.8-1.9s1.9-0.3,1.9-0.3s-1.8-0.6-1.4-1.3
		c0.3-0.5,1-0.6,1.5-0.3c0,0,0,0,0.1,0c0.4,0.2,1,1,1.3,0.7S8.4,28,8.4,27.8s0.3-0.7,1-0.3c0.5,0.4,0.9,1,1.1,1.7
		c0.5-0.4,1-0.6,1.6-0.8c0.5,0,1.2,0.3,0.7,0.9s-1,0.5-0.9,1.1s1.1,1.7,1.4,2"/>
	<path style="fill:#C12F30;" d="M47.5,30.9c0.1-0.1,0.2-0.2,0.4-0.1c0,0,0,0,0.1,0c0.3,0.2-0.1,1.4-0.5,1.5S46.6,31.9,47.5,30.9z"/>
	<path style="fill:#C12F30;" d="M49.1,32.7c0,0,0.9-0.6,1.1-0.3s-0.3,0.7-0.6,0.8s-0.8,0.5-1.1,0.3S49.1,32.7,49.1,32.7z"/>
	<path style="fill:#C12F30;" d="M49.1,34c0,0,0.6-0.2,0.8,0s-0.4,0.4-0.6,0.4s-0.7,0.1-0.7-0.1S49.1,34,49.1,34z"/>
	<path style="fill:#C12F30;" d="M44.2,31.2c0.3-0.1,0.7,0.1,0.8,0.5c0.3,0.6-0.1,1.8,0.4,2s1.3,0,1.7,0.3s0.2,0.9-0.8,1.2
		C45,35.6,45.3,39.6,44,40s-2.7-0.3-1.8-2.1s1.6-1.9,2-3.5S43.9,31.8,44.2,31.2z"/>
	<path style="fill:#C12F30;" d="M5.6,30.2c0.2-0.5,1.4-0.3,2.3,0S9.7,31,10,30.8s0.1-1.2,0.4-1.3s1.6-1.1,2-0.8s0,0.6-0.4,0.9
		s-0.4,1.1-0.4,1.9c0.2,0.8,0.3,1.6,0.2,2.4c-0.2,1.1-0.9,3.1-1,3.5s-1-3-1.7-4.3S8.4,31.4,7.3,31S5.5,30.6,5.6,30.2z"/>
	<path style="fill:#D04B4A;" d="M26.2,52.5c0.1-0.2,0.5-0.5,0.9,0.1s1.3,4.7,0.5,5.2s-2.2,1-2.3,0.1C25.3,56,25.6,54.2,26.2,52.5z"
		/>
	<path style="fill:#99242C;" d="M28.8,52.2c-0.1,1.6-0.1,3.2,0,4.8c0.2,0.6,0.4,1,0.9,0.9s0.5,0.2,0.2-2.1s-0.4-4.2-0.7-4.1
		S28.8,51.6,28.8,52.2z"/>
	<path style="fill:#D04B4A;" d="M21.3,59.8c0.7-0.9,1.6-1.5,2.6-2c0.5-0.2,1-0.4,1.6-0.5c0.5-0.1,1-0.2,1.6-0.2
		c1.1-0.1,2.1-0.1,3.2,0.1c1.1,0.2,2.1,0.6,3,1.2c-1.1,0-2.1,0-3.1,0s-2,0.1-3,0.2l-1.5,0.2c-0.5,0.1-1,0.1-1.4,0.2
		C23.2,59.2,22.3,59.5,21.3,59.8z"/>
	<path style="fill:#81BA50;" d="M28.7,21.9c0.2,0.3,0.4,0.5,0.7,0.7c0.3,0.1,0.6,0.3,0.9,0.3c0.4,0.1,0.7,0.3,1,0.5
		c0.3,0.2,0.6,0.5,0.7,0.9c-0.4-0.1-0.7-0.2-1-0.3s-0.6-0.2-1-0.3c-0.4-0.1-0.7-0.3-1-0.6C28.7,22.8,28.6,22.3,28.7,21.9z"/>
	<path style="fill:#81BA50;" d="M34.1,25c0.4-0.3,0.9-0.5,1.4-0.5c0.2,0,0.5,0,0.7,0l0.7,0.1c0.5,0,0.9,0.1,1.3,0.1
		c0.4,0,0.9,0,1.3-0.2c-0.1,0.2-0.3,0.4-0.5,0.6c-0.2,0.1-0.5,0.2-0.7,0.3c-0.5,0.1-1,0.1-1.5,0c-0.2,0-0.5-0.1-0.7-0.1l-0.7-0.1
		C35,25,34.5,25,34.1,25z"/>
	<path style="fill:#81BA50;" d="M32,20.9c0,0.2-0.1,0.4-0.1,0.5c0,0.2,0,0.4,0.1,0.5c0.1,0.1,0.2,0.2,0.3,0.3l0.4,0.3
		c0.3,0.2,0.6,0.5,0.8,0.8c0.2,0.3,0.3,0.7,0.3,1.1c-0.1-0.3-0.3-0.7-0.6-0.9c-0.2-0.3-0.5-0.5-0.8-0.7c-0.3-0.2-0.6-0.5-0.8-0.9
		c-0.1-0.2-0.1-0.4,0-0.6C31.8,21.3,31.9,21.1,32,20.9z"/>
	<path style="fill:#C12F30;" d="M22.5,27.3c0-0.5,0.3-0.9,0.9-1.3c0.9-0.4,2-0.5,3-0.3c0.7,0.1,1.2,0.7,1.4,1.4
		c0.2,0.6-0.6,1.6-0.6,2c0.1,0.7,0.5,1.2,1.1,1.6c-0.5,0.8-1.9,3.2,0,4.8c0,0.5-0.2,1.5,0.5,1.9c2.4,0.8,5,0.8,7.4,0
		c0.7,0.4,3.2,2.5,2.7,4.5s-2.3,5-5.7,5.3c-3.5,0.4-4.4,0.8-5,1.3s-5.9,3.2-9.1-0.8c-0.5-0.8-0.8-1.5-0.9-1.5s-0.8,0.1-0.6,0.6
		c0.1,0.3,0.3,0.6,0.6,0.8c0,0-7.1-3.8-7.1-7.6c0-2.5,0.7-5,1.9-7.2c0.5-0.8,0.9-4,1.8-4.4s3.3-1.9,5.4-1.1c0.7,0.3,0.9,0.3,1.8,0.5
		C22.3,27.9,22.9,28.4,22.5,27.3z"/>
	<path style="fill:#D04B4A;" d="M33.8,38.7c-0.6,0.8-1.1,1.6-1.3,2.6c-0.6,1.4-0.8,3.8,0.3,3.9c1.1,0.1,3.6,0.3,4.6-1.6
		s1.5-3.7-0.1-4.7C35.4,38.9,34.2,39,33.8,38.7z"/>
	<path style="fill:#FFFFFF;" d="M19,28c1.5,0.1,4.5,0.6,4.1,4s-3.4,3.8-4.7,3.8s-4.7-1-4.1-4.6C14.7,28.8,17.6,28,19,28z"/>
	<path style="fill:#7E1E2F;" d="M19,28c0.6,0,1.1,0.1,1.7,0.2c0.5,0,0.9,0.2,1.3,0.5c0.5,0.5,0.9,1.1,1,1.8c0.2,0.6,0.3,1.2,0.2,1.8
		c0,0.5-0.1,1-0.3,1.4c-0.3,0.5-0.7,0.9-1.2,1.2c-1,0.6-2.1,1-3.2,1c-1.2,0.1-2.4-0.3-3.3-1c-0.5-0.4-0.8-0.9-1.1-1.5
		c-0.2-0.5-0.2-1-0.2-1.5c0.1-0.7,0.3-1.4,0.6-2c0.4-0.6,0.9-1.1,1.4-1.4c0.4-0.2,0.9-0.4,1.3-0.4C17.9,28,18.4,28,19,28z M19,28.1
		c-1.1,0-2.2,0.4-3,1.1c-0.4,0.3-0.7,0.7-1,1.2c-0.2,0.4-0.3,0.9-0.4,1.4c-0.1,1,0.3,2,1,2.7c0.4,0.3,0.8,0.6,1.3,0.8
		c0.5,0.2,1,0.3,1.5,0.4c1.1,0.1,2.2-0.2,3.1-0.8c0.4-0.3,0.7-0.8,1-1.3c0.2-0.5,0.3-1,0.3-1.6c0-0.5,0-1-0.1-1.5
		c-0.1-0.5-0.4-0.9-0.7-1.3C21.1,28.5,20.1,28.1,19,28.1L19,28.1z"/>
	<path style="fill:#FFFFFF;" d="M33.1,29.5c0,0,4,1.2,3.8,5s-6.5,2.2-6.8,2.1s-4.5-2.2-1.8-5.7C30.1,28.5,33.1,29.5,33.1,29.5z"/>
	<path style="fill:#C12F30;" d="M18.1,29.5c1-0.1,3.4,0.4,2.9,2.9c-0.5,2.8-4.1,2.5-5.1,1.4C15.3,33.1,14.3,30,18.1,29.5z"/>
	<path style="fill:#7E1E2F;" d="M33.1,29.5c0.5,0.2,1.1,0.4,1.6,0.7c0.5,0.3,1,0.7,1.4,1.1c0.4,0.4,0.7,1,0.9,1.6
		c0.2,0.6,0.3,1.2,0.2,1.8c-0.1,0.6-0.4,1.2-0.9,1.7c-0.5,0.4-1.1,0.6-1.7,0.7c-1.2,0.2-2.3,0.2-3.5,0.1L30.4,37h-0.2h-0.1h-0.1
		c-0.1-0.1-0.3-0.1-0.4-0.2c-0.4-0.2-0.8-0.5-1-0.9c-0.5-0.6-0.9-1.2-1.1-1.9c-0.1-0.7-0.1-1.5,0.2-2.2c0.2-0.5,0.5-0.9,0.9-1.3
		c0.5-0.5,1-0.9,1.7-1.2c0.4-0.2,0.9-0.2,1.3-0.1C32,29.2,32.6,29.3,33.1,29.5z M33.1,29.6c-1.6-0.5-3.4,0.1-4.4,1.4
		c-0.3,0.4-0.5,0.9-0.7,1.3c-0.3,1-0.1,2.1,0.6,2.8c0.4,0.4,0.8,0.7,1.2,1l0.3,0.2h0.1h0.1l0.2,0.1l0.8,0.2c1.1,0.3,2.2,0.3,3.4,0.1
		c0.5-0.1,1-0.3,1.4-0.7c0.3-0.4,0.5-0.9,0.5-1.4c0-1.1-0.3-2.1-0.9-3C35.1,30.7,34.2,29.9,33.1,29.6L33.1,29.6z"/>
	<path style="fill:#262424;" d="M18.1,29.7c0.9-0.1,3.1,0.3,2.7,2.7C20.3,35,17,34.6,16,33.6C15.5,33,14.6,30.1,18.1,29.7z"/>
	<path style="fill:#D6706D;" d="M36.1,38c1.2,0.3,2,1.4,1.7,2.7c-0.1,0.3-0.2,0.6-0.3,0.8c-1.2,2.1-3.6,0.8-4.3,0S32.3,37,36.1,38z"
		/>
	<path style="fill:#C12F30;" d="M31,30.6c1.4-0.3,2.8,0.7,3,2.1c0.1,0.4,0.1,0.8,0,1.1c-0.5,3.2-4.3,2.8-5.3,1.5
		C28.1,34.7,27,31.2,31,30.6z"/>
	<path style="fill:#262424;" d="M31,31c1-0.1,3.3,0.3,2.8,2.8c-0.5,2.7-4,2.4-5,1.3C28.3,34.5,27.3,31.5,31,31z"/>
	<path style="fill:#711A2A;" d="M16.5,36.4c1.9,1.6,4.3,2.6,6.9,2.7c3.4,0,6.8-0.3,10.1-0.9c0,0-2.9,7.3-5.2,8.3
		c-3.7,1.2-7.8,0.3-10.6-2.3C15.8,42.4,16.5,36.4,16.5,36.4z"/>
	<path style="fill:#FFFFFF;" d="M17.6,37.2c1.7,1.2,3.7,1.9,5.8,2c2.5,0.1,5.9-0.6,8-0.6c0.2,0-1.5,3.3-5.3,4.8
		c-1.9,0.6-3.9,0.5-5.7-0.2C18.8,42.4,16.9,36.8,17.6,37.2z"/>
	<path style="fill:#99242C;" d="M26.4,46.8c0,0-0.1-1.4-1.1-1.7s-3.5-1.2-4.3-0.7s-1.3,4,0.6,4.9s1-2.8,2.9-3.1
		c0.3-0.1,0.7,0.2,0.7,0.5c0,0,0,0.1,0,0.1"/>
	<path style="fill:#99242C;" d="M26.2,46.6c-0.1-0.2-0.2-0.4-0.4-0.6c-0.2-0.3-0.4-0.5-0.7-0.6L23,44.8c-0.4-0.1-0.7-0.2-1.1-0.3
		c-0.3-0.1-0.7-0.1-1,0c-0.2,0.3-0.4,0.6-0.5,0.9c-0.1,0.4-0.1,0.7-0.1,1.1c0,0.3,0.1,0.7,0.2,1c0.1,0.3,0.2,0.6,0.5,0.9
		c0.1,0.1,0.2,0.2,0.3,0.3c0.1,0.1,0.3,0.1,0.4,0.2c0.2,0.1,0.4,0,0.5-0.2c0,0,0,0,0,0c0.2-0.3,0.3-0.7,0.4-1
		c0.1-0.4,0.3-0.8,0.5-1.1c0.3-0.3,0.7-0.5,1.1-0.5c0.2,0,0.5,0,0.6,0.2c0.1,0.2,0.2,0.4,0.2,0.6h-0.1c0-0.2-0.1-0.3-0.3-0.4
		c-0.1-0.1-0.3-0.1-0.4,0c-0.3,0.1-0.5,0.3-0.7,0.6c-0.1,0.3-0.3,0.7-0.3,1c-0.1,0.4-0.2,0.8-0.4,1.1c-0.1,0.3-0.3,0.5-0.6,0.6
		c-0.3,0.1-0.6,0.1-0.8,0c-0.2-0.1-0.4-0.2-0.6-0.3c-0.2-0.1-0.3-0.3-0.5-0.5c-0.3-0.3-0.4-0.7-0.5-1.2c-0.1-0.4-0.1-0.8,0-1.2
		c0-0.4,0.1-0.8,0.2-1.2c0.1-0.2,0.1-0.4,0.2-0.5c0.1-0.2,0.2-0.4,0.4-0.5c0.2-0.1,0.4-0.2,0.6-0.2c0.2,0,0.4,0,0.6,0
		c0.4,0,0.8,0,1.2,0.1c0.4,0.1,0.8,0.2,1.1,0.3c0.4,0.1,0.7,0.2,1.1,0.4c0.4,0.2,0.7,0.6,0.9,1c0.1,0.4,0.2,0.4,0.2,0.8L26.2,46.6z"
		/>
	<path style="fill:#C12F30;" d="M13.6,33.9c1.4-0.3,2.9-0.4,4.4-0.2c1.6,0.2,3.2,0.6,4.6,1.3c-0.9,0.9-2.2,1.4-3.5,1.4
		C17.1,36.3,14.4,35.2,13.6,33.9z"/>
	<path style="fill:#C12F30;" d="M26.9,35.7c1.3-0.4,2.7-0.5,4.1-0.3c1.9,0,3.7,0.4,5.4,1.2c2.1,0.9-3.3,1.1-3.3,1.1
		S26.7,37.8,26.9,35.7z"/>
	<path style="fill:#99242C;" d="M12.1,43.2l1.6,1.3c0.5,0.4,1.1,0.8,1.6,1.2c1.1,0.8,2.3,1.4,3.4,2.3c-0.7-0.1-1.4-0.3-2-0.6
		c-0.6-0.3-1.3-0.6-1.8-1c-0.6-0.4-1.1-0.9-1.6-1.4C12.8,44.4,12.4,43.8,12.1,43.2z"/>
	<path style="fill:#FFFFFF;" d="M19.8,31.4c0,0,0.1-0.6,0.5-0.7s1.1,0.1,1.2,0.6s-0.2,0.9-0.6,1c-0.5,0.1-1-0.2-1.1-0.7
		C19.8,31.5,19.8,31.5,19.8,31.4z"/>
	<path style="fill:#FFFFFF;" d="M32.7,33c0-0.3,0.1-0.6,0.4-0.8c0.5-0.3,1-0.1,1.3,0.3c0.3,0.6,0,0.9-0.4,1.1
		c-0.5,0.2-1,0.1-1.3-0.4C32.7,33.1,32.7,33.1,32.7,33z"/>
	<path style="fill:#FFFFFF;" d="M18.6,32c0,0,0-0.3,0.3-0.3s0.6,0,0.6,0.3s-0.1,0.4-0.3,0.5c-0.3,0.1-0.5-0.1-0.6-0.3
		C18.6,32.1,18.6,32,18.6,32z"/>
	<path style="fill:#FFFFFF;" d="M31.5,33.4c0,0,0-0.3,0.3-0.3s0.6,0,0.6,0.3s-0.1,0.5-0.3,0.5c-0.3,0.1-0.5-0.1-0.6-0.3
		C31.5,33.5,31.5,33.5,31.5,33.4z"/>
	<path style="fill:#D35B5B;" d="M15.4,33.9c0.4-0.1,0.7-0.2,1.1-0.2c0.4,0,0.8,0,1.1,0c0.4,0.1,0.7,0.1,1.1,0.3
		c0.3,0.1,0.7,0.3,1,0.4c-0.8-0.1-1.5-0.2-2.2-0.3S16.1,34,15.4,33.9z"/>
	<path style="fill:#D35B5B;" d="M30.1,35.7c0.4-0.1,0.7-0.2,1.1-0.2c0.4,0,0.8,0,1.1,0c0.4,0.1,0.7,0.1,1.1,0.3
		c0.3,0.1,0.7,0.3,1,0.4c-0.8-0.1-1.5-0.2-2.2-0.3S30.9,35.8,30.1,35.7z"/>
	<path style="fill:#D04B4A;" d="M16.4,35.8c0,0,2.8,1.5,3.8,1.9c2,0.5,4,0.8,6,0.9c0.9-0.1,2.7,0,2.2,0.2s-6.2,1.3-9.4-0.7
		c-0.9-0.5-1.7-1-2.5-1.6L16,37.7l-4.2-1.2C11.8,36.5,13.2,33.7,16.4,35.8z"/>
	<path style="fill:#7E1E2F;" d="M42.2,42.5c0,0,1.8,1.5,2.8,0.2c0.7-0.9-0.2,3.6-1.1,3.8S42.1,42.8,42.2,42.5z"/>
	<path style="fill:#99242C;" d="M29.9,36.9c0,0,4.3,0.6,4.8,0s0.4-0.8,0.4-0.8c0.5,0.1,0.9,0.3,1.4,0.4c0.2,0.1,0.9,0.5-0.3,0.8
		l-1.7,0.4C34.6,37.8,31.2,38,29.9,36.9z"/>
	<path style="fill:#99242C;" d="M21.7,34.6c0,0-4.2,1.2-5.6,0.3c-1.2-0.5-1.6-0.6-1.2-0.2c1.6,1.2,3.7,1.6,5.6,1
		c0.4-0.1,0.7-0.3,1.1-0.4l0.3-0.5L21.7,34.6z"/>
	<path style="fill:#C3C4C4;" d="M17.5,37.2c0,0-0.2,0.1,0.1,0.9c1.6,1,3.5,1.5,5.4,1.7c2.4,0.1,4.8-0.1,7.2-0.4c-1,1.7-2.4,3-4.1,4
		c2.4-0.8,4.4-2.6,5.5-4.8c-1.5,0-2.9,0.2-4.4,0.5c-1.7,0.2-3.4,0.2-5.1,0.1c-1.1-0.1-2.1-0.5-3.1-1C18.5,37.8,18,37.5,17.5,37.2z"
		/>
	<path style="fill:#580E20;" d="M16,36.8c0-0.2,0.2-0.4,0.4-0.6c0.1-0.1,0.3-0.1,0.4,0c0.2,0.1,0.2,0.1,0.2,0.2s-0.2-0.1-0.3,0
		c0,1.6,0.1,3.2,0.3,4.8c0.1,0.7,0.5,2.8,1.9,3.6c0.4,0.3,0.9,0.5,1.4,0.7v0.2c-1.1-0.4-2.1-1.2-2.6-2.2c-0.6-1.3-0.9-2.6-0.9-4
		c-0.1-1.7-0.1-3.1-0.1-3.1c-0.1,0-0.3,0.1-0.3,0.3C16.2,36.9,16,36.9,16,36.8z"/>
	<path style="fill:#D6706D;" d="M16.4,36.8c-0.1,0-0.2,0.1-0.2,0.2c0,0,0,0,0,0.1c-0.2,1.6-0.2,3.2,0.1,4.8c0.2,1,0.7,1.9,1.4,2.7
		c0.2,0.1,0.2,0.1-0.2-0.5s-1.1-2.2-1-5.2C16.4,37.3,16.5,36.9,16.4,36.8z"/>
	<path style="fill:#D04B4A;" d="M13.9,35c-0.1,0-2.8,0.4-2.7,4.1c0.4,2.2,2.6,4.3,3.4,4.8c0.8,0.6,1.7,1,2.6,1.4
		c0.3,0,0.3-0.4-0.4-1.1c-0.9-1.2-1.4-2.6-1.4-4.1c0.2-0.9,0.4-1.8,0.5-2.7C16,36.2,15.1,35.1,13.9,35C13.9,35,13.9,35,13.9,35z"/>
	<path style="fill:#580E20;" d="M24.5,46.5c0,0,0.4-0.2,0.2-0.3c-0.6-0.2-1.2,0.1-1.4,0.7c-0.4,1.1-0.8,2.3-1.1,2.4
		c-0.6,0.2-1.2,0-1.6-0.5c-0.6-0.8-0.6-0.7-0.4-0.2c0.3,0.7,0.9,1.1,1.6,1.2c0.7,0,1.3-0.6,1.3-1.4C23.4,47.5,23.9,46.1,24.5,46.5z"
		/>
	<path style="fill:#99242C;" d="M24.5,47.1c0,0-0.6,0-0.7,1.1s-0.6,1.8-1.2,1.5c0.5-0.5,0.7-1.2,0.8-1.9c0.3-0.6,0.4-0.8,0.4-0.8
		C24,46.9,24.2,47,24.5,47.1z"/>
	<path style="fill:#C3C4C4;" d="M22.4,43.7c0,0,0.1-2.8,0.2-3c0.1,1,0.1,2.1,0,3.1L22.4,43.7z"/>
	<path style="fill:#C12F30;" d="M46,35.3c0,0.1-0.6,1.8-0.9,3s-1.3,5-2,4.7S42,40.5,41.9,40c-0.1-0.3-0.1-0.7,0-1
		c0,0,0.6,1.4,1.4,0.7S45.9,33.8,46,35.3z"/>
	<path style="fill:#C12F30;" d="M26.9,29.2c1-0.9,2.2-1.5,3.5-1.8c1.4-0.2,6.1,0.7,7.3,2.4c1.1,1.5,1.3,3.6,0.5,5.3
		c-0.7,0.1-1-1.3-1-2s-0.5-3.8-4.8-4.4c-1.7-0.1-3.4,0.6-4.5,1.9C27.6,30.8,26.5,30.2,26.9,29.2z"/>
	<path style="fill:#D04B4A;" d="M30.3,27.7c0,0-0.6,1.1,0,1.3c1.4-0.4,3-0.3,4.3,0.3c0-0.1,1.5-1-1.1-1.8S30.3,27.7,30.3,27.7z"/>
	<path style="fill:#C12F30;" d="M22.5,28.3c0,0,0.4-0.1,0.5-0.4s-2-3.1-4.8-2.2s-3.7,1.9-4.3,4.5c0.1,0.3,0.3-0.3,0.4-0.5
		c0.6-0.9,1.4-1.5,2.4-1.7C18.6,27.4,20.7,27.5,22.5,28.3z"/>
	<path style="fill:#D04B4A;" d="M21.6,26.5c0,0,0.6,1.5-0.3,1.2c-1.9-0.7-4.1-0.6-5.9,0.4c-1,0.7,0.2-0.9,0.8-1.1
		S19.9,24.9,21.6,26.5z"/>
	<path style="fill:#D6706D;" d="M20,25.7c0,0-3.6-0.2-4.7,2.2c0.6-0.6,3.6-1.9,4.6-1.7C20.5,26.2,21.2,26.1,20,25.7z"/>
	<path style="fill:#D6706D;" d="M31,27.5c-0.2,0.1-0.4,0.3-0.5,0.5c-0.1,0.3-0.2,0.7,0.1,0.6c0.5-0.1,0.9-0.2,1.4-0.2
		c0.4,0,0.5,0.2,0.8,0s0.5-0.3,0.1-0.6C32.4,27.5,31.7,27.3,31,27.5z"/>
	<path style="fill:#580E20;" d="M22.5,26.8c0,0.1,0.5-0.3,0.1-0.6c-1.1-0.7-2.3-0.9-3.6-0.8c-0.1,0.1-0.3,0.2-0.5,0.2
		C18.6,25.6,21.8,25.3,22.5,26.8z"/>
	<path style="fill:#580E20;" d="M31.5,26.9c1.4,0,2.9,0.1,4.3,0.5c1.3,0.4,2.5,1.2,3.3,2.2c0.7,1,1,2.1,1,3.3
		c-0.2,0.6-0.2-0.6-0.2-0.8s-0.8-3-2.8-3.9C35.3,27.4,33.5,27,31.5,26.9z"/>
	<path style="fill:#580E20;" d="M18.3,46.7c0,0-0.3-0.5-0.2,0c0.2,1.4,1,2.7,2.2,3.6c0.7,0.5,1.5,0.9,2.4,1.2
		C22.7,51.4,18.9,49.5,18.3,46.7z"/>
	<path style="fill:#99242C;" d="M24.9,51.9c0,0,4.1-0.8,5.2-1.8c1.1-0.7,1.5,0.1,1,0.6c1.1,0.4,3,1.1,7.3,0.6
		c-4.8,0.9-6.7,0.3-8.3-0.2C28.7,51.4,26.4,52.1,24.9,51.9z"/>
	<path style="fill:#580E20;" d="M31.1,50.3c-0.3,0-0.5,0.1-0.7,0.3c-0.7,0.4-1.5,0.8-2.3,1C29.8,51.2,30.6,51,31.1,50.3z"/>
	<path style="fill:#580E20;" d="M9.8,30.8c0,0-0.3-1.4,0.1-1.5s0.2-0.1,0.2,0.3S10.2,31.2,9.8,30.8z"/>
	<path style="fill:#580E20;" d="M6.7,29.7c0.7,0,1.4,0.2,2.1,0.4c0.3,0.2,0.6,0.3,0.5,0.5s-0.6-0.2-0.8-0.3S6.1,29.8,6.7,29.7z"/>
	<path style="fill:#580E20;" d="M44,33.8c-0.1,0.2-0.3,0.4-0.4,0.6c-0.4,0.9-0.8,1.7-1.3,2.6C43.1,35.9,44,35,44,33.8z"/>
	<path style="fill:#BDBEBE;" d="M15.4,29.6c0,0,4.3-3,6.8,0.9c0.5,1.4,0.2,3-0.9,4c0.2,0.1,0.3,0.1,0.5,0.2c0,0,1.6-1.1,0.9-4.3
		c-0.5-1.3-1.8-2.7-4.7-2.2C17,28.4,16.1,28.9,15.4,29.6z"/>
	<path style="fill:#BDBEBE;" d="M34.3,30.1c0,0,1.9,2.3,1.6,3.7s-0.8,1.9-1.1,2.1c0.4,0.1,0.7,0.3,1,0.4c0,0,1.4-0.5,0.7-3.1
		C36.2,32,35.4,30.8,34.3,30.1z"/>
	<path style="fill:#580E20;" d="M14.5,34.5c0.5,0.3,1,0.6,1.6,0.8c0.5,0.2,1.1,0.3,1.7,0.4c0.6,0,1.2,0,1.8,0c0.6,0,1.2-0.1,1.8-0.2
		c-0.5,0.3-1.1,0.4-1.7,0.5c-0.6,0.1-1.2,0.1-1.8,0.1C16.5,35.9,15.4,35.4,14.5,34.5z"/>
	<path style="fill:#580E20;" d="M29.1,36.3c0.5,0.3,1,0.6,1.6,0.8c0.5,0.2,1.1,0.3,1.7,0.4c0.6,0,1.2,0,1.8,0c0.6,0,1.2-0.1,1.8-0.2
		c-0.5,0.3-1.1,0.4-1.7,0.5c-0.6,0.1-1.2,0.1-1.8,0.1C31,37.8,29.9,37.3,29.1,36.3z"/>
	<path style="fill:#D6706D;" d="M15.1,39.4c-0.8,0.8-2.1,0.8-2.8,0c-0.2-0.2-0.3-0.4-0.4-0.6c-1-1.9,1.1-3.1,2.1-3.2
		S17.8,37,15.1,39.4z"/>
	<path style="fill:#D04B4A;" d="M23.6,34c0,0,2.7,0,2.9,1.9s-2.7,1.5-3.2,1.4c-1-0.1-1.7-1-1.6-2C21.8,33.9,23.6,34,23.6,34z"/>
	<path style="fill:#D6706D;" d="M22.7,34.5c-0.1,0.2-0.1,0.3-0.1,0.5c0,0.1,0,0.1,0,0.2v0.1c0,0,0,0,0,0c0.1,0.1,0.1,0.2,0.2,0.3
		c0.1,0.1,0.2,0.3,0.4,0.5c-0.5,0.2-1,0.1-1.3-0.4c0-0.1-0.1-0.1-0.1-0.2c0-0.1,0-0.1,0-0.2c0-0.1,0-0.3,0.1-0.4
		C22.1,34.6,22.4,34.4,22.7,34.5z"/>
	<path style="fill:#99242C;" d="M22.4,36.9c1,0.8,2.3,1.1,3.5,0.8c1.2-0.1,1.6-1,1.5-1.3s-0.3-0.8-0.8-0.6S26.2,37.8,22.4,36.9z"/>
	<path style="fill:#99242C;" d="M22.7,36.7c0.5,0,0.9-0.1,1.4-0.1c0.4,0,0.8-0.1,1.2-0.2c0.2-0.1,0.3-0.1,0.4-0.3
		c0.1-0.1,0.2-0.3,0.2-0.4c0-0.4-0.2-0.8-0.4-1.2c0.2,0.1,0.4,0.2,0.6,0.4c0.2,0.2,0.3,0.4,0.4,0.7c0,0.3,0,0.6-0.2,0.9
		c-0.2,0.2-0.4,0.4-0.7,0.5c-0.5,0.2-1,0.2-1.5,0.1C23.5,37.1,23.1,37,22.7,36.7z"/>
	<path style="fill:#580E20;" d="M32.8,38.4c0,0-0.2-0.2,0.2-0.3s1.4,0.1,1.7,0.5c-0.1,0.2-0.3-0.1-0.5-0.2s-0.5-0.2-0.6-0.1
		s-3,5.2-3.4,5.9c-0.9,1.4-2.3,2.3-3.9,2.6c-0.8,0.1-1.6,0.1-2.4,0l0.2-0.1c0,0,3.1,0.4,4.4-0.9c1.3-1.2,2.4-2.6,3.1-4.2
		c0.9-1.6,1.9-3.2,1.9-3.2H32.8z"/>
	<path style="fill:#580E20;" d="M21.8,35.9c0,0-0.1-0.6-0.2-0.4c0,0.8,0.6,1.5,1.3,1.7c1.2,0.3,2.7,0.2,3.2-0.4s0.3-0.5,0.3-0.6
		s-0.1-0.1-0.2,0c-0.4,0.6-1,0.9-1.7,0.9C23.4,37.1,22.2,37.1,21.8,35.9z"/>
	<path style="fill:#D6706D;" d="M33.6,38.8c-0.2,0.1-0.4,0.2-0.5,0.4c-0.1,0.3-1.8,3.8-2.2,4.5s-1,1.4-1.1,1.6
		c1.2-1.6,2.2-3.3,3.2-5C33.1,39.7,33.3,39.2,33.6,38.8z"/>
	<path style="fill:#C12F30;" d="M20.7,46c0,0,0.6-0.3,0.9,0.2c0.5,0.1,1.1-0.5,1.3,0c-0.1,0.7-0.8,2.5-1.3,2.4s-1.1-1.5-0.9-2.3"/>
	<path style="fill:#D04B4A;" d="M21.3,44.7c-0.1,0.6-0.2,1.1-0.3,1.7c0,0.3,0,0.5,0,0.8c0,0.2,0.1,0.5,0.2,0.7c0,0,0.1,0.1,0.1,0.1
		c0,0,0.1,0.1,0.1,0.1c0.1,0.1,0.2,0.1,0.2,0.2c0,0,0,0,0.1,0c0.1-0.1,0.2-0.2,0.2-0.3c0.3-0.5,0.6-1,0.9-1.5
		c-0.1,0.6-0.2,1.2-0.4,1.8c-0.1,0.2-0.2,0.3-0.3,0.5c-0.2,0.2-0.5,0.3-0.7,0.2c-0.2-0.1-0.4-0.1-0.5-0.3c-0.1-0.1-0.1-0.1-0.2-0.2
		c-0.1-0.1-0.1-0.1-0.2-0.2c-0.2-0.3-0.3-0.6-0.3-1c0-0.3,0-0.7,0.1-1C20.6,45.7,20.9,45.2,21.3,44.7z"/>
	<path style="fill:#D04B4A;" d="M21.8,44.1c0.1,0-1.5-0.2-1.7,2.3c0,1.5,0.3,2.5,1.6,2.7c0.6-0.1,1-0.4,0.9-1.2
		c-0.5,0.5-0.4,0.9-0.9,0.7c-0.7-0.5-1-1.4-0.9-2.3C20.9,45.5,21.2,44.7,21.8,44.1z"/>
</g>
</svg>
