<?xml version="1.0" encoding="utf-8"?>
<!-- Generator: Adobe Illustrator 22.0.0, SVG Export Plug-In . SVG Version: 6.00 Build 0)  -->
<svg version="1.1" id="Слой_1" xmlns="http://www.w3.org/2000/svg" xmlns:xlink="http://www.w3.org/1999/xlink" x="0px" y="0px"
	 viewBox="0 0 55.8 62.9" style="enable-background:new 0 0 55.8 62.9;" xml:space="preserve">
<title>Artboard 1 копия 19</title>
<g id="Слой_22">
	<path style="fill:#B69136;" d="M20.7,61.3H18c-0.3,0-0.5-0.2-0.5-0.5c0-0.1,0-0.2,0.1-0.3l0.5-0.6c0.4-0.5,0.8-0.9,1.3-1.3
		c0.5-0.4,0.9-0.7,1.4-1c0.5-0.3,1-0.6,1.6-0.8c0.4-0.2,0.7-0.3,1.1-0.4V56c0.1-1.9,0.1-3.9,0.1-5.9c-0.6-0.2-1.1-0.5-1.6-0.8
		c-1-0.7-1.9-1.5-2.6-2.5c-1-1.4-1.7-2.9-2.2-4.5L17,42.1c-0.2,0-0.3-0.2-0.4-0.3l-0.1-0.2c-1.2-3.2-0.9-4.9-0.8-5.1v-0.2
		c0,0,0-0.1,0-0.1c-0.1,0-0.3-0.1-0.4-0.2c-0.2-0.2-0.3-0.4-0.4-0.6c-0.1-0.4-0.1-0.8,0-1.2l0.1-0.5c0-0.2,0.1-0.4,0.1-0.6
		c0-0.1,0-0.1,0-0.2l-0.1-0.1l-0.3-0.3c-0.2-0.2-0.4-0.3-0.5-0.5c-0.3-0.3-0.6-0.8-0.7-1.2c-0.1-0.4-0.2-0.8-0.2-1.2
		c0-0.3,0-0.5,0-0.8c0.1-0.2,0.2-0.5,0.3-0.7c0.1-0.2,0.3-0.4,0.4-0.5l0.3-0.4c0.1-0.1,0.2-0.3,0.3-0.4c0.1-0.1,0.1-0.2,0.2-0.4
		L15,26c0.1-0.2,0.1-0.4,0.2-0.6c0.1-0.4,0.4-0.8,0.7-1.2c0.3-0.3,0.6-0.6,1-0.8c0.5-0.3,1.1-0.5,1.7-0.6l0.1-0.1
		c0.1-0.4,0.3-0.8,0.5-1.1l0.2-0.5l0.3-0.5l0.2-0.3c0-0.4,0.1-0.9,0.3-1.3c0.2-0.4,0.6-0.7,1-0.9c0.4-0.5,0.7-1,1.1-1.5
		c0-0.1,0-0.3,0-0.4c-0.1-0.4,0.3-1.2,1.4-1.4H24c0.3-0.3,0.5-0.5,0.8-0.8c0.4-0.4,0.9-0.8,1.4-1.1l0.7-0.5l0.2-0.2v-0.1h-0.2
		c-0.2,0-0.4,0-0.5-0.1c-0.2-0.1-0.3-0.2-0.5-0.3c-0.2-0.2-0.3-0.4-0.3-0.7c0-0.3,0-0.6,0.2-0.9l0.1-0.1c0.5-0.6,1.1-1.2,1.8-1.6
		c0.7-0.5,1.5-0.8,2.3-0.9c0.2,0,0.4,0,0.6,0c0.7,0,1.3,0.1,1.9,0.4l0.5,0.3l0.8,0.5l0.4,0.4c0.8-0.4,1.7-0.6,2.7-0.8
		c0.4-0.1,0.7-0.1,1.1-0.1c0.7,0,1.3,0.1,2,0.3c1,0.4,1.8,1,2.4,1.9c0.2,0.3,0.3,0.5,0.3,0.9c0,0.3,0,0.5,0,0.8
		c-0.1,0.5-0.2,1-0.5,1.5c-0.2,0.4-0.5,0.8-0.8,1.2c-0.2,0.3-0.4,0.5-0.7,0.7L40.4,16l-0.2,0.3c0.3,0.3,0.5,0.8,0.6,1.2
		c0.1,0.4,0.1,0.9,0.1,1.3c0,0.5-0.2,1-0.5,1.4c-0.2,0.3-0.5,0.5-0.8,0.6c-0.1,0-0.3,0.1-0.4,0.1l0,0c-0.1,0-0.2,0-0.3-0.1
		c-0.1,0-0.2-0.1-0.3-0.2c-0.1-0.1-0.2-0.2-0.2-0.3c0-0.1-0.1-0.2-0.1-0.3c0-0.1,0-0.2,0-0.3s0-0.2,0-0.2c0-0.1,0-0.2-0.1-0.2h-0.1
		c-0.2,0.2-0.4,0.4-0.6,0.7c-0.7,1-1.4,2-2,3c0.2,0.3,0.3,0.6,0.3,1c0,0.2-0.1,0.4-0.2,0.6l0,0.1c-0.1,0.1-0.1,0.2-0.1,0.3
		c0,0.1,0,0.2-0.1,0.3c0.2,0.1,0.3,0.3,0.5,0.4c0.7,0.4,1.3,0.9,1.7,1.6c0.3,0.4,0.4,0.8,0.5,1.3c0.1,0.4,0,0.9-0.1,1.3
		c-0.1,0.4-0.2,0.8-0.4,1.1c-0.1,0.3-0.3,0.6-0.5,0.8l-0.1,0.1c-0.4,0.6-1,1.1-1.6,1.6c-1,0.8-2.1,1.4-3.3,1.8l-0.1,0.6
		c0.1,0.1,0.3,0.2,0.4,0.4c0.1,0.2,0.3,0.5,0.1,3.2v0.2c0,0.2-0.1,0.3-0.3,0.4l-0.4,0.2l0,0c0.2,1.8,1.1,3.4,2.5,4.5
		c0.3,0.2,0.6,0.4,1,0.6c0.2,0,0.3,0.1,0.5,0.1h0.8c0.5,0,0.9,0.2,1.2,0.5c0.3,0.3,0.5,0.8,0.5,1.3c0,0.4-0.1,0.8-0.2,1.2
		c0,0.2-0.1,0.3-0.1,0.4c-0.1,0.6-0.4,1.2-0.9,1.7c-0.2,0.2-0.4,0.4-0.7,0.6c-0.1,0.1-0.3,0.2-0.5,0.3c-0.2,0.1-0.3,0.1-0.5,0.1
		h-0.1c-0.1,0-0.2,0-0.3,0c-0.3-0.1-0.6-0.2-0.8-0.3c-0.3-0.1-0.5-0.2-0.7-0.4s-0.7-0.4-1-0.6c-1,0.3-2.1,0.5-3.1,0.6
		c0,0.8,0,1.6,0.1,2.3c0,1.1,0,2.2,0,3.3c0.4,0.1,0.9,0.2,1.3,0.3c0.6,0.2,1.3,0.5,1.9,0.8c0.6,0.3,1.2,0.7,1.7,1.1
		c0.3,0.2,0.5,0.4,0.8,0.6l0.1,0.1l0.3,0.3l0.3,0.3l0,0c0.1,0.1,0.2,0.3,0.2,0.5c0,0.3-0.2,0.5-0.5,0.5c0,0,0,0,0,0l-4,0.1l-4.1,0.1
		c-1.4,0-2.8,0.1-4.2,0.1L20.7,61.3z"/>
	<path style="fill:#FFFFFF;" d="M30.5,8.1c0.6,0,1.2,0.1,1.7,0.4l0.5,0.3l0.5,0.3l0.2,0.2l0.2,0.2L34,9.8l0,0l0.2-0.1
		c0.8-0.4,1.7-0.7,2.6-0.8c0.3-0.1,0.7-0.1,1-0.1c0.6,0,1.2,0.1,1.8,0.3c0.9,0.3,1.6,0.9,2.2,1.7c0.1,0.2,0.2,0.4,0.3,0.7
		c0,0.2,0,0.5,0,0.7c-0.1,0.5-0.2,0.9-0.4,1.3c-0.2,0.4-0.5,0.8-0.8,1.1c-0.3,0.4-0.6,0.7-0.9,1l-0.6,0.6c0.1,0.1,0.2,0.1,0.2,0.2
		c0.3,0.3,0.5,0.7,0.5,1.1c0.1,0.4,0.1,0.8,0,1.2c0,0.4-0.2,0.8-0.4,1.1c-0.1,0.2-0.3,0.3-0.5,0.4c-0.1,0-0.2,0-0.2,0
		c-0.1,0-0.1,0-0.2,0c0,0-0.1,0-0.1-0.1c0,0-0.1-0.1-0.1-0.1c0-0.1,0-0.1,0-0.2c0-0.2-0.1-0.4-0.1-0.5c0-0.2-0.1-0.3-0.2-0.4
		c-0.1-0.1-0.2-0.2-0.3-0.2h-0.2c-0.1,0-0.1,0.1-0.2,0.1c-0.3,0.2-0.5,0.5-0.7,0.8c-0.8,1.1-1.6,2.3-2.3,3.5
		c0.3,0.2,0.5,0.5,0.5,0.9c0,0.2-0.1,0.4-0.2,0.5c-0.1,0.1-0.1,0.3-0.2,0.4c-0.1,0.3-0.1,0.6,0,0.7c0.2,0.2,0.4,0.4,0.7,0.5
		c0.6,0.4,1.1,0.8,1.5,1.4c0.2,0.3,0.3,0.7,0.4,1c0,0.4,0,0.7-0.1,1.1c-0.1,0.3-0.2,0.7-0.4,1c-0.2,0.3-0.3,0.6-0.5,0.9
		c-0.4,0.6-0.9,1-1.5,1.5c-1,0.8-2.2,1.4-3.4,1.8l-0.3,1.2c0.2,0.1,0.4,0.2,0.5,0.4c0,0.1,0.2,0.3,0,2.9v0.2l-0.2,0.1L31,40
		c0,0.1,0,0.3,0.1,0.4c0.2,1.9,1.2,3.6,2.7,4.8c0.4,0.3,0.8,0.5,1.3,0.6c0.2,0.1,0.4,0.1,0.7,0.1h0.8c0.3,0,0.7,0.1,0.9,0.4
		c0.2,0.2,0.3,0.6,0.3,0.9c0,0.5-0.1,1-0.3,1.5c-0.1,0.5-0.4,1-0.8,1.5c-0.2,0.2-0.4,0.4-0.6,0.5c-0.1,0.1-0.2,0.2-0.4,0.2
		c-0.1,0-0.2,0.1-0.3,0.1c-0.1,0-0.2,0-0.3,0c-0.3-0.1-0.5-0.2-0.8-0.3c-0.2-0.1-0.5-0.2-0.7-0.3c-0.4-0.2-0.8-0.5-1.2-0.7
		c-1.1,0.4-2.2,0.6-3.3,0.7h-0.4c0,0.9,0.1,1.9,0.1,2.8c0,1.2,0,2.5,0,3.7c0.6,0.1,1.1,0.2,1.7,0.4c0.6,0.2,1.2,0.5,1.8,0.8
		c0.6,0.3,1.1,0.6,1.7,1c0.3,0.2,0.5,0.4,0.8,0.6L35,60l0.2,0.2l0.1,0.1l0,0c0,0,0,0.1,0,0.1l-4,0.1l-4.1,0.1
		c-1.4,0-2.8,0.1-4.2,0.1H18l0.5-0.6c0.4-0.4,0.8-0.8,1.3-1.1c0.4-0.4,0.9-0.7,1.4-1c0.5-0.3,1-0.6,1.5-0.8c0.5-0.2,0.9-0.3,1.4-0.5
		c0.1-2.3,0.1-4.7,0.1-7c-0.7-0.2-1.3-0.6-1.9-0.9c-1-0.6-1.8-1.5-2.5-2.4c-1-1.4-1.7-3-2.2-4.7l-0.4-0.1h-0.2L17,41.4
		c-1.2-3.1-0.8-4.8-0.8-4.8v-0.2l0.4-0.2v-0.3c0-0.1,0-0.2,0-0.3c-0.2,0.1-0.3,0.2-0.5,0.2h-0.1c-0.1,0-0.3-0.1-0.4-0.1
		c-0.1-0.1-0.2-0.2-0.2-0.4c-0.1-0.4-0.1-0.8,0-1.2c0.1-0.4,0.1-0.7,0.1-1c0-0.1,0-0.3,0-0.4c-0.1-0.1-0.1-0.2-0.2-0.3
		c-0.2-0.2-0.5-0.5-0.8-0.8c-0.3-0.3-0.5-0.6-0.6-1c-0.1-0.4-0.2-0.7-0.2-1.1c0-0.2,0-0.4,0-0.6c0.1-0.2,0.1-0.4,0.3-0.5
		c0.2-0.3,0.5-0.6,0.7-0.9c0.1-0.1,0.2-0.3,0.3-0.4c0.1-0.1,0.2-0.3,0.2-0.5l0.1-0.5c0.1-0.2,0.1-0.4,0.2-0.5c0.1-0.4,0.3-0.7,0.6-1
		c0.3-0.3,0.6-0.5,0.9-0.7c0.6-0.3,1.3-0.5,2-0.6l0.2-0.4c0.2-0.5,0.5-1.1,0.7-1.6c0.1-0.3,0.3-0.5,0.4-0.8l0.1-0.2v-0.1
		c0-0.4,0-0.8,0.2-1.1c0.2-0.3,0.5-0.6,0.9-0.7h0.1c0.4-0.6,0.9-1.2,1.3-1.8c-0.1-0.2-0.1-0.3-0.1-0.5c0,0-0.1-0.7,0.9-0.9l0.5-0.1
		c0.3-0.3,0.6-0.6,0.9-0.9s0.9-0.8,1.3-1.1l0.7-0.5l0.3-0.3l0.1-0.1l0.1-0.2c0.1-0.1,0.1-0.2,0.2-0.4c0-0.1,0.1-0.1,0.1-0.2h-0.5
		h-0.4h-0.2c-0.1,0-0.3,0-0.4-0.1c-0.1,0-0.2-0.1-0.3-0.2c-0.1-0.1-0.2-0.2-0.2-0.3c0-0.2,0-0.4,0.1-0.6l0,0l0,0
		c0.5-0.6,1.1-1.1,1.7-1.5c0.6-0.4,1.4-0.7,2.1-0.8C30.2,8.2,30.3,8.2,30.5,8.1 M30.5,7.2L30.5,7.2c-0.2,0-0.4,0-0.6,0
		c-0.9,0.1-1.8,0.5-2.5,0.9c-0.7,0.5-1.4,1-1.9,1.7c-0.1,0.1-0.1,0.1-0.1,0.2c-0.2,0.4-0.3,0.8-0.3,1.2c0,0.4,0.2,0.7,0.5,0.9l0,0
		c0.1,0.1,0.3,0.2,0.4,0.3l-0.1,0.1c-0.4,0.3-0.9,0.7-1.4,1.2c-0.2,0.2-0.5,0.4-0.7,0.7h-0.2c-1,0-1.8,0.9-1.8,1.9
		c0,0.1,0,0.2,0,0.2c-0.3,0.4-0.6,0.8-0.9,1.2c-0.5,0.2-0.9,0.6-1.1,1c-0.2,0.4-0.4,0.9-0.4,1.5l-0.1,0.2l-0.3,0.5l-0.2,0.5
		c-0.2,0.3-0.3,0.7-0.5,1c-0.6,0.1-1.1,0.3-1.6,0.6c-0.4,0.2-0.9,0.6-1.2,0.9c-0.3,0.4-0.6,0.8-0.8,1.3c-0.1,0.2-0.1,0.4-0.2,0.6
		l-0.1,0.5c0,0.1-0.1,0.1-0.1,0.2l-0.1,0.1c-0.1,0.1-0.1,0.2-0.2,0.3l-0.3,0.3c-0.1,0.2-0.3,0.3-0.4,0.5c-0.2,0.3-0.3,0.5-0.4,0.9
		c-0.1,0.3-0.1,0.6,0,0.9v0.1c0,0.5,0.1,1,0.3,1.5c0.2,0.5,0.4,1,0.8,1.4c0.2,0.2,0.4,0.4,0.5,0.5l0.2,0.2c0,0.2,0,0.3-0.1,0.5
		s0,0.2-0.1,0.4v0.2c-0.1,0.4-0.1,0.9,0,1.4v0.1c0.1,0.3,0.3,0.6,0.6,0.9l0.1,0.1c-0.2,1.8,0.1,3.6,0.9,5.3l0.1,0.2
		c0.1,0.3,0.4,0.6,0.7,0.6l0,0c0.5,1.6,1.2,3,2.1,4.4c0.8,1.1,1.7,2,2.8,2.7c0.4,0.3,0.9,0.5,1.4,0.8c0,1.8-0.1,3.7-0.1,5.5V56
		c-0.3,0.1-0.6,0.2-0.9,0.3c-0.6,0.2-1.1,0.5-1.7,0.8c-0.5,0.3-1,0.7-1.5,1.1c-0.5,0.4-0.9,0.8-1.4,1.3l-0.5,0.6
		c-0.4,0.4-0.3,1.1,0.1,1.4c0.2,0.2,0.4,0.2,0.7,0.2h5c1.4,0,2.8,0,4.2-0.1l4.1-0.1l4-0.1c0.6,0,1-0.4,1-1c0-0.3-0.1-0.6-0.3-0.8
		l0,0l-0.1-0.1l-0.2-0.2l-0.3-0.3L35.3,59c-0.3-0.2-0.6-0.5-0.8-0.7c-0.6-0.4-1.2-0.8-1.8-1.1c-0.6-0.3-1.3-0.6-2-0.8
		c-0.3-0.1-0.6-0.2-1-0.3c0-1,0-2,0-2.9c0-0.6,0-1.3,0-1.9c0.9-0.1,1.7-0.3,2.6-0.5l0.8,0.5c0.3,0.2,0.5,0.3,0.8,0.4
		c0.3,0.2,0.7,0.3,1,0.3c0.1,0,0.2,0,0.3,0h0.1c0.3,0,0.5-0.1,0.7-0.2c0.2-0.1,0.3-0.2,0.5-0.3c0.3-0.2,0.5-0.4,0.8-0.7
		c0.5-0.5,0.8-1.2,1-1.9c0-0.1,0.1-0.3,0.1-0.4c0.1-0.4,0.2-0.8,0.2-1.3c0.1-1.2-0.9-2.2-2.1-2.3c0,0-0.1,0-0.1,0h-0.8
		c-0.1,0-0.3,0-0.4,0c-0.3-0.1-0.6-0.3-0.9-0.5c-1.2-1-2-2.4-2.3-3.9h0.1c0.3-0.2,0.5-0.5,0.5-0.8v-0.2c0.2-2.9,0-3.2-0.2-3.5
		c-0.1-0.1-0.2-0.2-0.3-0.3l0,0c1.1-0.4,2.2-1,3.2-1.7c0.6-0.5,1.2-1,1.7-1.7l0,0l0.1-0.1c0.2-0.3,0.4-0.6,0.5-0.9
		c0.2-0.4,0.4-0.8,0.5-1.3c0.1-0.5,0.1-1,0.1-1.5C38.2,28,38,27.5,37.7,27c-0.5-0.7-1.1-1.2-1.8-1.6l-0.6,0.8l0.6-0.8l-0.2-0.1
		l0.1-0.2l0-0.1c0.1-0.2,0.2-0.5,0.3-0.7v-0.1c0-0.4,0-0.7-0.2-1.1c0.5-1,1.2-1.9,1.8-2.7l0,0c0,0.1,0,0.2,0.1,0.2
		c0.1,0.1,0.1,0.3,0.2,0.4l0.1,0.1c0.1,0.1,0.3,0.2,0.4,0.3c0.2,0.1,0.3,0.1,0.5,0.1c0.2,0,0.4,0,0.5-0.1c0.4-0.1,0.7-0.4,1-0.8
		c0.3-0.5,0.6-1,0.6-1.6c0-0.5,0-1-0.1-1.5c-0.1-0.4-0.2-0.7-0.4-1.1l0.2-0.2c0.2-0.2,0.5-0.5,0.7-0.8c0.3-0.4,0.6-0.9,0.9-1.4
		c0.3-0.5,0.4-1.1,0.5-1.7c0-0.3,0-0.7,0-1c-0.1-0.4-0.2-0.7-0.4-1c-0.6-1-1.5-1.7-2.6-2.1c-0.7-0.2-1.4-0.4-2.1-0.4
		c-0.4,0-0.8,0-1.2,0.1c-0.8,0.1-1.7,0.4-2.5,0.7l-0.1-0.1L34,8.4l-0.2-0.2L33.3,8l-0.1-0.1l-0.5-0.3C32,7.4,31.2,7.2,30.5,7.2
		L30.5,7.2z"/>
	<path style="fill:#E5C234;" d="M35.3,60.4c-1.9-1.7-4.3-2.9-6.9-3.2v-7.9h-4.1V57c-2.2,0.6-4.1,1.8-5.5,3.4L35.3,60.4z"/>
	<path style="fill:#B69136;" d="M35.3,60.4L35.3,60.4L35.3,60.4L35.3,60.4L35,60.2l-0.4-0.3c-0.3-0.2-0.5-0.4-0.8-0.5
		c-0.6-0.3-1.2-0.6-1.8-0.9c-1.1-0.5-2.4-0.8-3.6-1h-0.3v-0.3c0-1.3,0-2.6,0-4s0.1-2.6,0.1-4l0.2,0.2c-1.4,0-2.7-0.1-4.1-0.1
		l0.1-0.1c0,2.6,0.1,5.2,0.1,7.7v0.2l-0.2,0.1c-0.5,0.1-1,0.3-1.5,0.5c-0.5,0.2-1,0.5-1.4,0.8c-0.4,0.3-0.9,0.6-1.3,1
		c-0.4,0.3-0.8,0.7-1.1,1.1L18.8,60c1.4,0,2.7,0,4,0s2.7,0,4,0.1l4.1,0.1L35.3,60.4z M35.3,60.4l-4,0.1l-4.1,0.1
		c-1.4,0-2.8,0.1-4.2,0.1s-2.8,0-4.2,0H18l0.5-0.6c0.4-0.4,0.8-0.8,1.3-1.2c0.4-0.4,0.9-0.7,1.4-1c0.5-0.3,1-0.6,1.5-0.8
		c0.5-0.2,1.1-0.4,1.6-0.5L24.1,57c0.1-2.6,0.2-5.2,0.1-7.7v-0.1h0.1c1.4,0,2.7,0,4.1-0.1h0.2v0.2c0,1.3,0.1,2.6,0.1,4s0,2.6,0,4
		L28.5,57c0.6,0.1,1.3,0.3,1.9,0.5c0.6,0.2,1.2,0.5,1.8,0.8c0.6,0.3,1.1,0.6,1.7,1c0.3,0.2,0.5,0.4,0.8,0.6L35,60l0.2,0.2l0.1,0.1
		l0,0C35.3,60.3,35.3,60.3,35.3,60.4L35.3,60.4z"/>
	<path style="fill:#EED886;" d="M21,59.5c0.6-0.6,1.3-1.1,2.1-1.5c0.4-0.2,0.8-0.3,1.3-0.4c0.4-0.1,0.9-0.1,1.3-0.1
		c0.8,0,1.7,0,2.5,0.2c0.8,0.1,1.6,0.4,2.4,0.9c-0.9,0-1.6,0-2.5,0h-2.4c-0.4,0-0.8,0-1.2,0.1s-0.8,0.1-1.2,0.2
		C22.6,59,21.8,59.2,21,59.5z"/>
	<path style="fill:#E5C234;" d="M19.3,23.4c0,0-2.4,0.4-3.2,2s-0.3,1-0.9,1.9s-1.3,1.4-1.2,2.1c0.1,0.6,0.3,1.2,0.6,1.7
		c0.4,0.6,1.2,1.1,1.4,1.5c0.4,0.7-0.7,2.8,0.1,3.1c0.8,0.2,1.2-1,1.2-1"/>
	<path style="fill:#B69136;" d="M19.3,23.4c-1.3,0.5-2.6,1.2-3.1,2.5l-0.3,0.5c-0.1,0.2-0.1,0.3-0.3,0.5c-0.1,0.2-0.2,0.3-0.3,0.5
		L15,27.7c-0.4,0.5-1,1.1-0.7,1.8c0.1,0.3,0.2,0.7,0.3,1c0.1,0.3,0.3,0.5,0.6,0.8c0.2,0.2,0.5,0.4,0.8,0.7c0.2,0.1,0.3,0.3,0.4,0.6
		c0.1,0.2,0.1,0.5,0.1,0.7c0,0.4-0.1,0.7-0.2,1.1c-0.1,0.3-0.1,0.6-0.1,0.9c0,0,0,0.1,0,0.1c0,0,0,0,0.1,0.1c0.1,0,0.3,0,0.4,0
		c0.3-0.2,0.5-0.4,0.7-0.7h0.1c0,0.2-0.1,0.4-0.2,0.5c-0.1,0.2-0.2,0.3-0.4,0.5c-0.2,0.2-0.4,0.2-0.6,0.2c-0.1,0-0.3-0.1-0.4-0.1
		c-0.1-0.1-0.2-0.2-0.2-0.4c-0.1-0.4-0.1-0.8,0-1.2c0.1-0.4,0.1-0.7,0.1-1c0-0.1,0-0.3,0-0.4c-0.1-0.1-0.1-0.2-0.2-0.3
		c-0.2-0.2-0.5-0.5-0.8-0.8c-0.3-0.3-0.5-0.6-0.6-1c-0.1-0.4-0.2-0.7-0.2-1.1c0-0.2,0-0.4,0-0.6c0.1-0.2,0.1-0.4,0.3-0.5
		c0.2-0.3,0.5-0.6,0.7-0.9c0.1-0.1,0.2-0.3,0.3-0.4c0.1-0.1,0.2-0.3,0.2-0.5l0.1-0.5c0.1-0.2,0.1-0.4,0.2-0.5c0.1-0.4,0.3-0.7,0.6-1
		c0.3-0.3,0.6-0.5,0.9-0.7C17.7,23.6,18.5,23.4,19.3,23.4L19.3,23.4z"/>
	<path style="fill:#B69136;" d="M16.5,27.6c0.5-0.1,0.9,0.3,1,0.7c0,0.2,0,0.3-0.1,0.5c-0.1-0.1-0.1-0.2-0.2-0.4
		c-0.1-0.1-0.1-0.2-0.2-0.3C16.9,27.9,16.7,27.8,16.5,27.6z"/>
	<path style="fill:#F2E1A4;" d="M31.9,11.1c0,0,6.4-4.3,9.7-0.3c0.8,0.9,0.4,2.7-1.3,4.3c-1.4,1.3-2.8,2.8-4.1,4.3L31.9,11.1z"/>
	<path style="fill:#E5C234;" d="M31.9,11.1C31.9,11.1,31.9,11.1,31.9,11.1L32,11l0.1-0.1l0.3-0.2l0.6-0.4c0.4-0.2,0.8-0.4,1.2-0.6
		c0.8-0.4,1.7-0.7,2.6-0.8c0.9-0.2,1.9-0.1,2.8,0.2c0.9,0.3,1.6,0.9,2.2,1.7c0.1,0.2,0.2,0.4,0.3,0.7c0,0.2,0,0.5,0,0.7
		c-0.1,0.5-0.2,0.9-0.4,1.3c-0.2,0.4-0.5,0.8-0.8,1.1c-0.3,0.4-0.6,0.7-0.9,1c-0.6,0.6-1.2,1.3-1.8,2s-1.1,1.3-1.7,2l-0.3,0.4
		l-0.3-0.5c-0.8-1.4-1.5-2.9-2.1-4.3c-0.3-0.7-0.7-1.4-1-2.1C32.5,12.5,32.2,11.8,31.9,11.1z M31.9,11.1c0.4,0.7,0.8,1.4,1.2,2.1
		s0.8,1.4,1.2,2c0.8,1.3,1.5,2.7,2.2,4l-0.6-0.1c1.2-1.4,2.4-2.7,3.8-3.9c0.3-0.3,0.7-0.6,1-0.9c0.3-0.3,0.6-0.6,0.8-1
		c0.2-0.4,0.4-0.8,0.4-1.2c0-0.4-0.1-0.9-0.3-1.2c-0.6-0.6-1.3-1.1-2.1-1.3c-0.8-0.2-1.7-0.3-2.5-0.1C35.2,9.8,33.5,10.4,31.9,11.1
		L31.9,11.1z"/>
	<path style="fill:#E5C234;" d="M40.5,10.3c-0.5,0.1-1,0.2-1.5,0.3s-1,0.3-1.5,0.4c-1,0.4-1.9,0.8-2.8,1.2c0.3-0.4,0.7-0.8,1.2-1.1
		c0.4-0.3,0.9-0.6,1.5-0.8c0.5-0.2,1.1-0.3,1.6-0.3C39.5,10,40,10.1,40.5,10.3z"/>
	<path style="fill:#E5C234;" d="M41.1,10.8c-0.5,0.4-0.9,0.8-1.4,1.1c-0.2,0.2-0.5,0.3-0.7,0.5s-0.5,0.4-0.7,0.5L37,14.1l-1.4,1.1
		c0.3-0.6,0.6-1.1,1-1.5c0.4-0.5,0.8-0.9,1.3-1.3c0.2-0.2,0.5-0.4,0.7-0.5c0.3-0.2,0.5-0.3,0.8-0.4C40,11.2,40.5,11,41.1,10.8z"/>
	<path style="fill:#E5C234;" d="M34.6,17.5c0,0,4.1-3.6-1.3-8.1c-3.6-2.9-6.9,1.2-6.9,1.2s-0.5,0.8,0.6,0.8s1.6-0.1,0.8,1.2
		c-0.6,0.9-5.2,3.3-8.2,10.2c-2.3,4.6-3.2,9.9-2.6,15c1.9,17,15.5,11.7,15.5,11.7s2.4,1.6,3,1.3c0.8-0.4,1.3-1.2,1.6-2
		c0.1-0.8,0.5-1.7,0-2.2s-1.2,0-2.2-0.3s-5.9-3-3.6-11.6c0,0,4.2-1.1,5.6-4.3s-2.4-3.8-2.4-4.8s0.6-1.3,0.5-1.8
		c-0.1-0.3-0.3-0.4-0.6-0.5c0,0,2.6-4.6,3.6-4.7c1.2-0.1,0.9,1.3,1.1,1.5s1.3-0.1,1.2-2.1c-0.1-1.3-1.2-2.2-2.5-2.2
		C36.5,16.1,35.5,16.7,34.6,17.5z"/>
	<path style="fill:#B69136;" d="M34.6,17.5L34.6,17.5L34.6,17.5l0.1-0.1l0.2-0.2c0.1-0.1,0.2-0.3,0.3-0.4c0.2-0.3,0.4-0.7,0.5-1
		c0.2-0.7,0.3-1.4,0.2-2.1c-0.1-0.3-0.2-0.7-0.3-1l-0.2-0.5l-0.1-0.2l-0.2-0.2l-0.3-0.4c-0.1-0.1-0.2-0.3-0.3-0.4l-0.4-0.4
		c-0.1-0.1-0.3-0.2-0.4-0.4l-0.4-0.4l-0.2-0.2l-0.2-0.1l-0.4-0.3L32,8.9c-0.6-0.3-1.3-0.4-2-0.3c-0.7,0.1-1.3,0.4-1.9,0.8
		c-0.6,0.4-1.1,0.8-1.5,1.4l0,0c0,0.1-0.1,0.2-0.1,0.2c0,0,0,0,0.1,0.1c0.1,0,0.2,0,0.3,0h0.4c0.2,0,0.3,0,0.5,0
		c0.1,0,0.2,0,0.3,0.1c0.1,0.1,0.3,0.2,0.3,0.4c0,0.2,0,0.4-0.1,0.6c-0.1,0.1-0.1,0.3-0.2,0.4L28,12.7l-0.2,0.2l-0.3,0.3l-0.7,0.6
		c-0.4,0.4-0.9,0.7-1.3,1.1c-1.7,1.5-3.1,3.3-4.3,5.3c-0.1,0.2-0.3,0.5-0.4,0.7s-0.3,0.5-0.4,0.8c-0.2,0.5-0.5,1-0.7,1.5
		c-0.5,1-0.9,2.1-1.3,3.2c-0.7,2.2-1.2,4.4-1.3,6.7c-0.1,2.3,0.1,4.6,0.5,6.9c0.4,2.3,1.3,4.4,2.6,6.3c0.7,0.9,1.5,1.7,2.5,2.3
		c1,0.6,2,1,3.1,1.2c1.1,0.2,2.3,0.2,3.4,0.1c1.1-0.1,2.2-0.4,3.3-0.7h0.1l0.1,0.1c0.4,0.3,0.8,0.5,1.3,0.8c0.2,0.1,0.4,0.2,0.7,0.3
		c0.2,0.1,0.4,0.2,0.6,0.2h0.2c0.1,0,0.2-0.1,0.3-0.2c0.2-0.1,0.3-0.3,0.5-0.5c0.3-0.3,0.5-0.7,0.6-1.2c0.1-0.5,0.2-0.9,0.2-1.4
		c0-0.2,0-0.3-0.2-0.5c-0.1-0.1-0.3-0.2-0.5-0.2c-0.5,0-1,0-1.5-0.1c-0.3-0.1-0.5-0.2-0.8-0.3l-0.3-0.2l-0.3-0.2
		c-1.7-1.3-2.7-3.2-3-5.3c-0.3-2-0.1-4.1,0.4-6v-0.2l0.2-0.1c1.2-0.3,2.4-0.9,3.4-1.7c0.5-0.4,0.9-0.8,1.3-1.3
		c0.2-0.2,0.3-0.5,0.5-0.8c0.1-0.3,0.3-0.6,0.3-0.9c0.2-0.6,0.1-1.2-0.2-1.6c-0.4-0.5-0.8-1-1.3-1.3c-0.3-0.2-0.6-0.4-0.8-0.7
		c-0.1-0.1-0.1-0.2-0.2-0.4v-0.3c0-0.2,0.1-0.4,0.1-0.5c0.1-0.2,0.1-0.3,0.2-0.5c0.1-0.1,0.1-0.2,0.2-0.4c0,0,0-0.1,0-0.1
		c0,0,0-0.1-0.1-0.1c-0.1-0.1-0.1-0.1-0.2-0.1l-0.4-0.1l0.2-0.4c0.4-0.7,0.8-1.3,1.2-1.9c0.4-0.6,0.9-1.3,1.3-1.9
		c0.2-0.3,0.5-0.6,0.9-0.8c0.1-0.1,0.2-0.1,0.3-0.1c0.1,0,0.2,0,0.3,0c0.2,0,0.5,0.1,0.6,0.3c0.2,0.4,0.3,0.7,0.3,1.1
		c-0.1,0.2,0.3,0.1,0.5-0.2c0.4-0.6,0.5-1.3,0.3-2c-0.1-0.3-0.2-0.7-0.4-0.9c-0.2-0.3-0.5-0.5-0.9-0.6c-0.3-0.1-0.7-0.2-1-0.2
		c-0.3,0.1-0.7,0.2-1,0.4c-0.3,0.2-0.7,0.3-1,0.5c-0.2,0.1-0.3,0.2-0.5,0.3l-0.2,0.2L34.6,17.5L34.6,17.5z M34.6,17.5
		c0.1-0.1,0.1-0.2,0.2-0.3L35,17c0.1-0.1,0.3-0.2,0.5-0.4c0.3-0.2,0.7-0.4,1-0.6c0.3-0.2,0.7-0.3,1.1-0.4c0.2,0,0.4,0,0.6,0
		c0.2,0,0.4,0.1,0.6,0.1c0.4,0.1,0.7,0.3,1,0.6c0.3,0.3,0.5,0.7,0.5,1.1c0.1,0.4,0.1,0.8,0,1.2c0,0.4-0.2,0.8-0.4,1.1
		c-0.1,0.2-0.3,0.3-0.5,0.4c-0.1,0-0.3,0-0.4,0c0,0-0.1,0-0.1-0.1c0,0-0.1-0.1-0.1-0.1c0-0.1,0-0.1,0-0.2c0-0.2-0.1-0.4-0.1-0.5
		c0-0.2-0.1-0.3-0.2-0.4c-0.1-0.1-0.2-0.2-0.3-0.2c-0.1,0-0.1,0-0.2,0c-0.1,0-0.1,0.1-0.2,0.1c-0.3,0.2-0.5,0.5-0.7,0.8
		c-0.9,1.2-1.7,2.5-2.4,3.8L34.3,23c0.5,0,0.9,0.5,0.8,1c0,0.2-0.1,0.4-0.2,0.5c-0.1,0.1-0.1,0.3-0.2,0.4c-0.1,0.3-0.1,0.6,0,0.7
		c0.2,0.2,0.4,0.4,0.7,0.5c0.6,0.4,1.1,0.8,1.5,1.4c0.2,0.3,0.3,0.7,0.4,1c0,0.4,0,0.7-0.1,1.1c-0.1,0.3-0.2,0.7-0.4,1
		c-0.2,0.3-0.3,0.6-0.5,0.9c-0.4,0.6-0.9,1-1.5,1.5c-1.1,0.8-2.3,1.5-3.6,1.8l0.3-0.3l-0.3,1.4c-0.1,0.5-0.1,1-0.2,1.4s0,1,0,1.5
		c0,0.5,0.1,1,0.1,1.4c0.2,1.9,1.2,3.6,2.7,4.8c0.3,0.3,0.7,0.5,1.2,0.6c0.2,0.1,0.4,0.1,0.7,0.1c0.2,0,0.5,0,0.8,0
		c0.3,0,0.7,0.1,0.9,0.4c0.2,0.2,0.3,0.6,0.3,0.9c0,0.5-0.1,1-0.3,1.5c-0.1,0.5-0.4,1-0.8,1.5c-0.2,0.2-0.4,0.4-0.6,0.5
		c-0.1,0.1-0.2,0.2-0.4,0.2c-0.1,0-0.2,0.1-0.3,0.1c-0.1,0-0.2,0-0.3,0c-0.3-0.1-0.5-0.2-0.8-0.3c-0.2-0.1-0.5-0.2-0.7-0.3
		c-0.4-0.3-0.9-0.5-1.3-0.8h0.3c-1.1,0.4-2.3,0.6-3.5,0.7c-1.2,0.1-2.4,0-3.5-0.2c-1.2-0.2-2.3-0.7-3.2-1.3c-1-0.6-1.8-1.5-2.5-2.4
		c-1.3-1.9-2.2-4.1-2.6-6.4c-0.5-2.3-0.6-4.6-0.6-6.9c0.1-2.3,0.5-4.6,1.2-6.9c0.4-1.1,0.8-2.2,1.3-3.3c0.2-0.5,0.5-1.1,0.7-1.6
		c0.1-0.3,0.3-0.5,0.4-0.8s0.3-0.5,0.4-0.8c1.2-2,2.7-3.8,4.4-5.4c0.4-0.4,0.9-0.8,1.3-1.1l0.7-0.5l0.3-0.3l0.1-0.1l0.1-0.2
		c0.1-0.1,0.1-0.2,0.2-0.4c0-0.1,0.1-0.2,0.1-0.3c0,0,0,0.1,0,0h-0.5H27c-0.2,0-0.4,0-0.5-0.1c-0.1,0-0.2-0.1-0.3-0.2
		c-0.1-0.1-0.2-0.2-0.2-0.3c0-0.2,0-0.4,0.1-0.6l0,0l0,0c0.5-0.6,1.1-1.1,1.8-1.5c0.6-0.4,1.4-0.7,2.1-0.8c0.8-0.1,1.5,0,2.2,0.3
		l0.5,0.3l0.5,0.3l0.2,0.2l0.2,0.2L34,9.8c0.1,0.1,0.3,0.2,0.4,0.4l0.4,0.4c0.1,0.1,0.2,0.3,0.3,0.4l0.3,0.5l0.2,0.2l0.1,0.3
		l0.2,0.5c0.1,0.3,0.2,0.7,0.3,1.1c0.1,0.7,0,1.5-0.3,2.2c-0.2,0.5-0.5,1-0.9,1.4l-0.2,0.2L34.6,17.5L34.6,17.5
		C34.7,17.5,34.6,17.5,34.6,17.5L34.6,17.5z"/>
	<path style="fill:#B69136;" d="M39.3,19.3c-0.1-0.6-0.2-1.2-0.5-1.8c-0.1-0.2-0.3-0.4-0.5-0.5c-0.3-0.1-0.5-0.1-0.8,0
		c-0.6,0.1-1.1,0.4-1.6,0.8c-0.5,0.4-1,0.8-1.5,1.1c0.3-0.6,0.7-1.1,1.2-1.6c0.5-0.5,1.1-0.8,1.8-1c0.4-0.1,0.8-0.1,1.1,0.1
		c0.4,0.2,0.7,0.5,0.8,0.9C39.5,17.9,39.5,18.6,39.3,19.3z"/>
	<path style="fill:#FFFFFF;" d="M21.9,23.5c0.8,0.6,1.8,1,2.8,1.3c1,0.1,3.7-0.3,4,0s0,1.3,0,2.1s0.3,1.6,0.1,1.9
		c-1.5,1-3.3,1.3-5.1,0.9c-2.7-0.6-2.3-2.4-2.3-2.4L21.9,23.5z"/>
	<path style="fill:#B69136;" d="M21.9,23.5c0.1,0,0.1,0,0.1,0h0.1l0.1,0.1l0.3,0.1l0.6,0.3c0.4,0.2,0.8,0.3,1.1,0.5
		c0.2,0.1,0.4,0.1,0.5,0.1c0.2,0,0.4,0,0.6,0c0.4,0,0.8,0,1.2-0.1c0.4,0,0.8,0,1.3,0c0.2,0,0.5,0,0.7,0.1h0.1c0.1,0,0.1,0.1,0.1,0.1
		c0.1,0.1,0.1,0.1,0.1,0.2c0,0.1,0,0.2,0,0.4c0,0.5-0.1,0.9-0.2,1.3c-0.1,0.4-0.1,0.8,0,1.2c0,0.2,0.1,0.4,0.1,0.6
		c0,0.1,0,0.2,0,0.3c0,0.1,0,0.1-0.1,0.2c0,0.1-0.1,0.1-0.1,0.1c-0.4,0.3-0.7,0.5-1.1,0.6c-0.8,0.3-1.7,0.5-2.5,0.5
		c-0.4,0-0.9,0-1.3-0.1c-0.2,0-0.4-0.1-0.6-0.1c-0.2-0.1-0.4-0.2-0.6-0.3c-0.4-0.2-0.8-0.5-1.1-1c-0.1-0.2-0.2-0.5-0.3-0.7
		c0-0.3,0-0.5,0-0.8l0,0c0.1-0.7,0.3-1.4,0.4-2L21.9,23.5z M21.9,23.5l-0.1,1v1c0,0.6-0.1,1.3-0.1,1.9l0,0c0,0.2,0,0.3,0,0.5
		c0,0.2,0.1,0.3,0.2,0.5c0.2,0.3,0.5,0.5,0.8,0.7c0.7,0.3,1.5,0.5,2.3,0.5c0.8,0,1.6-0.1,2.4-0.3c0.4-0.1,0.8-0.3,1.1-0.5
		c0.1-0.1,0.1,0,0.1-0.1c0-0.1,0-0.2,0-0.3c0-0.2,0-0.4-0.1-0.6c-0.1-0.9,0.1-1.7,0-2.5c0-0.1,0-0.2-0.1-0.3v-0.1l0,0l0,0
		c-0.2,0-0.4,0-0.6,0L26.7,25c-0.4,0-0.8,0-1.3,0c-0.2,0-0.4,0-0.7,0c-0.2,0-0.4-0.1-0.7-0.2c-0.4-0.2-0.8-0.4-1.1-0.6l-0.5-0.4
		l-0.3-0.2l-0.1-0.1L21.9,23.5C22,23.6,21.9,23.6,21.9,23.5L21.9,23.5z"/>
	<path style="fill:#CEA949;" d="M27.2,11.1c1.9-0.7,4-0.4,5.8,0.6c2.7,1.8,1.2,5.6,0.5,6.3s-0.4-3.4-5.9-4.4
		C26.9,13.4,30.3,11,27.2,11.1z"/>
	<path style="fill:#FFFFFF;" d="M29.5,18.6c1.5-0.2,2.9,0.8,3.1,2.2c0,0.2,0,0.4,0,0.6c0.2,3.1-3.8,2.7-4.1,2.6
		c-1.4-0.5-2-2.1-1.5-3.5C27.2,19.5,28.2,18.7,29.5,18.6z"/>
	<path style="fill:#B69136;" d="M29.5,18.6c0.8-0.1,1.6,0.1,2.2,0.5c0.3,0.2,0.6,0.6,0.7,0.9c0.1,0.2,0.1,0.4,0.2,0.6l0.1,0.3
		c0,0.1,0,0.2,0,0.3c0,0.2,0,0.4,0,0.6v0.3c0,0.1,0,0.2-0.1,0.3c-0.1,0.4-0.3,0.7-0.6,1c-0.6,0.5-1.3,0.8-2.1,0.9
		c-0.4,0-0.8,0-1.2,0c-0.1,0-0.2,0-0.3,0c-0.1,0-0.2-0.1-0.3-0.1c-0.2-0.1-0.4-0.2-0.5-0.3c-0.3-0.2-0.6-0.6-0.8-0.9
		c-0.2-0.4-0.3-0.8-0.3-1.2c0-0.4,0.1-0.8,0.2-1.2c0.1-0.4,0.3-0.7,0.6-1C27.9,19,28.7,18.6,29.5,18.6z M29.5,18.6
		c-0.8,0-1.5,0.4-1.9,1c-0.2,0.3-0.4,0.6-0.4,1C27,21,27,21.4,27,21.7c0,0.7,0.3,1.4,0.9,1.9c0.1,0.1,0.3,0.2,0.5,0.3
		c0.1,0.1,0.3,0.1,0.5,0.2c0.4,0,0.7,0,1.1,0c0.7,0,1.5-0.3,2-0.8c0.1-0.1,0.1-0.1,0.2-0.2c0.1-0.1,0.1-0.2,0.1-0.2
		c0.1-0.2,0.1-0.3,0.2-0.5c0-0.1,0-0.2,0-0.3v-0.3c0-0.2,0-0.4,0-0.5c-0.1-0.7-0.4-1.4-0.9-1.9C30.9,18.8,30.2,18.6,29.5,18.6
		L29.5,18.6z"/>
	<path style="fill:#FFFFFF;" d="M23.5,18.3c0,0,2.5,0.1,2.9,1.9s-2.2,2.7-3.3,2.6s-3.1-1.7-2.5-3.4C21.2,18.2,23.5,18.3,23.5,18.3z"
		/>
	<path style="fill:#B69136;" d="M23.5,18.3c0.7,0,1.4,0.2,2,0.5c0.7,0.4,1.1,1,1.1,1.8c0,0.4-0.2,0.7-0.4,1
		c-0.2,0.3-0.5,0.5-0.8,0.7c-0.6,0.4-1.3,0.6-2,0.6c-0.3,0-0.7-0.1-1-0.2c-0.3-0.1-0.6-0.3-0.9-0.6c-0.6-0.4-1-1.1-1.1-1.8
		c0-0.4,0-0.8,0.2-1.1c0.2-0.3,0.5-0.6,0.9-0.7C22.2,18.4,22.8,18.3,23.5,18.3z M23.5,18.3c-0.7,0-1.4,0.1-2,0.4
		c-0.6,0.3-0.9,0.9-0.8,1.5c0.1,0.6,0.5,1.2,1,1.6c0.2,0.2,0.5,0.4,0.8,0.6c0.3,0.2,0.6,0.3,0.9,0.3c0.7,0,1.3-0.2,1.9-0.5
		c0.6-0.3,1-0.9,1-1.6c0-0.3-0.1-0.6-0.3-0.9c-0.2-0.3-0.4-0.5-0.6-0.7C24.9,18.6,24.2,18.4,23.5,18.3L23.5,18.3z"/>
	<path style="fill:#B69136;" d="M31.9,19.4c-0.7-0.9-2-1-2.9-0.3c-1.3,0.9-1.7,2.6-0.9,4c0.4,0.8,1.3,1.2,2.1,1
		c1-0.1,1.9-0.7,2.3-1.7C33.1,21.3,31.9,19.4,31.9,19.4z"/>
	<path style="fill:#262424;" d="M28.2,21.6c-0.1-1.3,0.8-2.4,2.1-2.5c0,0,0,0,0,0c2,0,2.2,1.4,2.3,2.6s-1.5,2-2,2
		c-1.1,0.2-2.2-0.6-2.4-1.8C28.2,21.9,28.2,21.7,28.2,21.6z"/>
	<path style="fill:#B69136;" d="M24,18.4c-1.1-0.3-2.2,0.4-2.5,1.5c0,0.1-0.1,0.2-0.1,0.4c-0.2,1.2,0.6,2.4,1.8,2.6
		c0.1,0,0.2,0,0.3,0c0.2,0,3-0.4,3-2.3S24,18.4,24,18.4z"/>
	<path style="fill:#262424;" d="M23.9,18.5c-0.7,0.1-2.2,0.3-2.1,2.1c0.2,2.2,2.1,1.9,2.9,1.6c1-0.1,1.7-1,1.6-2
		c0-0.2-0.1-0.4-0.2-0.6C25.8,19,24.9,18.5,23.9,18.5z"/>
	<circle style="fill:#B69136;" cx="28" cy="33" r="0.3"/>
	<circle style="fill:#B69136;" cx="29.5" cy="44.3" r="0.3"/>
	
		<ellipse transform="matrix(0.1611 -0.9869 0.9869 0.1611 -19.7734 69.5634)" style="fill:#B69136;" cx="31" cy="46.4" rx="0.4" ry="0.3"/>
	<ellipse style="fill:#B69136;" cx="28.9" cy="35.1" rx="0.3" ry="0.4"/>
	
		<ellipse transform="matrix(0.7803 -0.6254 0.6254 0.7803 -19.9735 26.8106)" style="fill:#B69136;" cx="28.2" cy="41.8" rx="0.4" ry="0.4"/>
	<path style="fill:#B69136;" d="M27.2,40.3c0.1,0.6,0.2,1.3,0.4,1.9c0.1,0.6,0.3,1.2,0.4,1.8c0.2,0.6,0.4,1.2,0.7,1.7
		c0.3,0.6,0.7,1.1,1.1,1.5c-0.6-0.3-1-0.8-1.4-1.4c-0.3-0.6-0.6-1.1-0.8-1.8c-0.2-0.6-0.3-1.2-0.4-1.9
		C27.2,41.6,27.2,40.9,27.2,40.3z"/>
	<path style="fill:#EED886;" d="M31.7,27.5c-0.1-0.4-0.2-0.8-0.1-1.3c0-0.4,0.2-0.8,0.4-1.2c0.2-0.4,0.5-0.7,0.9-0.9
		c0.4-0.2,0.8-0.3,1.2-0.3c-0.8,0.2-1.4,0.7-1.9,1.4c-0.2,0.3-0.3,0.7-0.4,1.1C31.7,26.7,31.7,27.1,31.7,27.5z"/>
	<path style="fill:#EED886;" d="M29.7,29.2c0.1-0.4,0.3-0.8,0.6-1.1c0.2-0.1,0.4-0.2,0.6-0.3c0.2,0,0.4,0,0.7,0
		c0.4,0.1,0.8,0.4,1.1,0.7c0.3,0.3,0.5,0.6,0.7,1c-0.3-0.3-0.6-0.6-0.9-0.8c-0.3-0.3-0.6-0.4-1-0.6c-0.3-0.1-0.7,0-1,0.1
		C30.1,28.5,29.9,28.8,29.7,29.2z"/>
	<path style="fill:#EACD61;" d="M27,14.2c0.7,0.2,1.4,0.4,2,0.7c0.3,0.3-2.9,3.6-2.9,3.6c-0.9-0.4-1.8-0.7-2.8-0.9
		C23,17.8,27,14.2,27,14.2z"/>
	<path style="fill:#EACD61;" d="M34.5,17.5c0.5-1,0.7-2.2,0.7-3.3c0-0.1,0-0.3-0.1-0.4s-0.1-0.2-0.1-0.4s-0.2-0.5-0.3-0.8
		c-0.2-0.5-0.5-1-0.9-1.4c-0.4-0.4-0.8-0.7-1.3-0.9c-0.5-0.2-1-0.3-1.5-0.3c-0.6,0-1.1,0-1.7,0c-0.3,0-0.6,0-0.9,0.1
		c-0.3,0-0.6,0.1-0.8,0.2l-0.1-0.1c0.2-0.2,0.5-0.4,0.8-0.5c0.3-0.1,0.6-0.3,0.9-0.3C29.7,9.1,30.3,9,30.9,9c0.7,0,1.3,0.1,1.9,0.4
		c0.3,0.2,0.5,0.4,0.8,0.6c0.3,0.2,0.5,0.4,0.7,0.7c0.4,0.5,0.7,1.1,0.9,1.7c0.1,0.3,0.2,0.6,0.3,0.9c0,0.1,0.1,0.3,0.1,0.5
		c0,0.2,0,0.3,0,0.5c0,0.6-0.1,1.2-0.3,1.8C35.2,16.5,34.9,17.1,34.5,17.5L34.5,17.5z"/>
	<path style="fill:#B69136;" d="M32.4,15.1c0.6,0.3,1,1,1,1.7c0,1.2-0.8,0.9-1,0.6c-0.4-0.6-1.1-0.9-1.8-0.9c-1,0.1-0.6-1.3-0.4-1.7
		C30.7,14.1,31.9,14.7,32.4,15.1z"/>
	<path style="fill:#B69136;" d="M22.8,16.3c0,0-0.1-0.7,0.9-0.9s2.9-0.5,2.9,0.7s-0.4,1.6-1,1.5c-0.5-0.2-1-0.4-1.5-0.5
		C23.4,17.1,22.8,17.3,22.8,16.3z"/>
	<path style="fill:#FFFFFF;" d="M28.9,21.2c0,0-0.4-0.7-0.1-0.8s0.5,0.3,0.6,0.5s0.4,0.6,0.1,0.8S28.9,21.2,28.9,21.2z"/>
	<path style="fill:#FFFFFF;" d="M22.6,19.4c0,0-0.4-0.7-0.1-0.8s0.5,0.3,0.6,0.5s0.4,0.6,0.1,0.8S22.6,19.4,22.6,19.4z"/>
	<circle style="fill:#FFFFFF;" cx="30.4" cy="22.9" r="0.3"/>
	<circle style="fill:#FFFFFF;" cx="24" cy="21.6" r="0.3"/>
	<polygon style="fill:#EED886;" points="25.1,50.8 25,57.8 27.4,57.8 26.2,51 	"/>
	<path style="fill:#EED886;" d="M19.3,44.6c0.7,1,1.6,1.9,2.5,2.7c0.9,0.8,2,1.4,3.2,1.8c0.3,0.1,0.6,0.1,0.9,0.2s0.6,0.1,0.9,0.1
		c0.6,0.1,1.2,0.1,1.8,0c0.6-0.1,1.2-0.2,1.8-0.3c0.6-0.1,1.2-0.4,1.7-0.6h0.1l0,0l1.4,0.8L35,50l-1.5-0.7l-1.4-0.7h0.1
		c-1.1,0.6-2.3,1-3.6,1.1c-0.6,0.1-1.3,0.1-1.9,0c-0.3,0-0.6-0.1-0.9-0.1c-0.3-0.1-0.6-0.1-0.9-0.2c-1.2-0.4-2.3-1.1-3.2-1.9
		C20.7,46.6,20,45.7,19.3,44.6z"/>
	<path style="fill:#EED886;" d="M31.4,44.3c0.3,0.4,0.6,0.9,0.9,1.3c0.3,0.4,0.7,0.7,1.1,1c0.2,0.1,0.5,0.2,0.7,0.2L35,47l1.5,0.4
		c-0.5,0-1.1,0-1.6-0.1c-0.3,0-0.5-0.1-0.8-0.1c-0.8-0.1-1.6-0.6-2-1.3C31.9,45.3,31.6,44.8,31.4,44.3z"/>
	<path style="fill:#EACD61;" d="M29,48.7c0,0-2.7-1.4-3.9-7s-4,0-4,0c0.4,1.7,1.2,3.3,2.3,4.6C25,48,27.2,49.2,29,48.7z"/>
	<path style="fill:#E5C234;" d="M17,36.5l-0.5,0.2c0,0-0.4,1.6,0.8,4.6c0,0,7.8,1.6,14-1.9c0.1-0.9,0.1-1.8,0-2.8
		c-0.1-0.3-0.7-0.3-0.7-0.3s-0.1,0.3-0.5,0.3s-2.3-1.5-4.1-2.2S17,36.5,17,36.5z"/>
	<path style="fill:#B69136;" d="M21.6,42c-1.5,0-2.9-0.1-4.3-0.4h-0.2L17,41.4c-1.2-3.1-0.8-4.8-0.8-4.8v-0.2l0.6-0.3
		c0.8-0.3,7.4-2.8,9.3-2.1c1,0.4,1.9,0.9,2.8,1.5c0.4,0.3,0.7,0.5,1.1,0.7c0.2,0,0.2-0.1,0.2-0.1l0.1-0.3l0.3,0.1
		c0.4,0,0.7,0.2,0.9,0.5c0,0.1,0.2,0.3,0,2.9v0.2l-0.2,0.1C28.4,41.3,25,42.1,21.6,42z M17.6,41c1.2,0.2,7.9,1.2,13.4-1.8
		c0.1-0.8,0.1-1.6,0-2.4c-0.1,0-0.1-0.1-0.2-0.1c-0.2,0.2-0.4,0.2-0.7,0.2c-0.3,0-0.7-0.2-1.5-0.8c-0.9-0.6-1.8-1.1-2.7-1.5
		c-1.4-0.5-6.8,1.3-8.8,2.1l-0.3,0.1C16.8,38.3,17,39.7,17.6,41L17.6,41z"/>
	<path style="fill:#E5C234;" d="M21.6,32c0,0,5.1,0,5.6,5.2c0.3,4-3.4,5.3-5.6,5.2s-5-1.9-4.6-5.9C17.1,34,19.1,32,21.6,32z"/>
	<path style="fill:#B69136;" d="M21.6,31.9c0.3,0,0.7,0,1,0.1c0.3,0.1,0.7,0.1,1,0.2c0.7,0.2,1.3,0.5,1.9,0.9c0.6,0.4,1,1,1.4,1.6
		c0.1,0.2,0.1,0.3,0.2,0.5s0.1,0.3,0.1,0.5c0.3,1,0.3,2.1,0,3.2c-0.2,0.7-0.6,1.3-1.1,1.8c-0.5,0.5-1.1,0.9-1.7,1.2
		c-0.6,0.3-1.3,0.5-2,0.6c-0.7,0.1-1.4,0.1-2.1-0.1c-1.4-0.4-2.6-1.4-3.2-2.8c-0.3-0.7-0.5-1.4-0.5-2.1c0-0.4,0-0.7,0-1.1
		c0-0.4,0.1-0.7,0.2-1c0.4-1.4,1.4-2.6,2.8-3c0.3-0.1,0.7-0.2,1-0.3C20.9,32,21.3,31.9,21.6,31.9z M21.6,32c-0.7,0-1.3,0.2-1.9,0.5
		c-0.6,0.3-1.1,0.7-1.5,1.3c-0.4,0.5-0.6,1.1-0.7,1.8c0,0.2-0.1,0.3-0.1,0.5l-0.1,0.5c0,0.3,0,0.7,0,1c0,1.3,0.6,2.5,1.5,3.4
		c0.5,0.4,1,0.8,1.6,1c0.6,0.2,1.3,0.3,1.9,0.3c1.4,0,2.7-0.6,3.6-1.6c0.4-0.5,0.8-1.1,0.9-1.7c0-0.2,0.1-0.3,0.1-0.5v-0.5
		c0-0.2,0-0.3,0-0.5v-0.2v-0.2c-0.1-1.3-0.7-2.5-1.6-3.4C24.4,32.6,23,32,21.6,32L21.6,32z"/>
	<path style="fill:#EED886;" d="M27,35.5c0.7,0.3,1.3,0.8,2,1.1c0.3,0.2,0.6,0.4,1,0.5c0.2,0.1,0.3,0.1,0.5,0.1c0.2,0,0.4,0,0.5-0.2
		c-0.1,0.2-0.3,0.3-0.5,0.3c-0.2,0-0.4,0-0.6,0c-0.4-0.1-0.8-0.2-1.1-0.5c-0.3-0.2-0.6-0.4-0.9-0.7C27.6,36,27.3,35.8,27,35.5z"/>
	<path style="fill:#EED886;" d="M26.5,40.3c0.8-0.3,1.6-0.5,2.4-0.7c0.4-0.1,0.8-0.3,1.2-0.4s0.8-0.3,1.1-0.5
		c-0.6,0.5-1.4,0.9-2.2,1.2c-0.4,0.1-0.8,0.2-1.2,0.3C27.3,40.3,26.9,40.3,26.5,40.3z"/>
	<path style="fill:#B69136;" d="M34.2,23.3l-1.3,0.6c-0.2,0.1-0.4,0.2-0.7,0.3c-0.2,0.2-0.3,0.3-0.5,0.6c-0.2,0.4-0.3,0.9-0.3,1.4
		c0,0.5,0,1,0,1.5l0,0c-0.2-0.5-0.3-1-0.3-1.5c0-0.3,0.1-0.5,0.1-0.8c0.1-0.3,0.2-0.5,0.4-0.7c0.2-0.2,0.3-0.4,0.5-0.5
		c0.2-0.2,0.4-0.4,0.6-0.5C33.2,23.3,33.7,23.2,34.2,23.3L34.2,23.3z"/>
	<path style="fill:#B69136;" d="M32.8,28.4c-0.4-0.3-0.9-0.5-1.4-0.6c-0.2-0.1-0.5-0.1-0.8,0c-0.1,0.1-0.2,0.1-0.3,0.2
		c-0.1,0.1-0.2,0.2-0.3,0.3c-0.1,0.2-0.2,0.4-0.3,0.7c-0.1,0.2-0.1,0.5-0.2,0.8c-0.1,0.5-0.1,1.1-0.1,1.6l0,0
		c-0.2-0.5-0.3-1.1-0.2-1.6c0-0.6,0.3-1.1,0.7-1.5c0.2-0.2,0.4-0.3,0.7-0.5c0.3-0.1,0.5-0.2,0.8-0.2c0.3,0,0.6,0.1,0.8,0.3
		C32.5,27.8,32.7,28,32.8,28.4L32.8,28.4z"/>
	<path style="fill:#EACD61;" d="M20.4,40.9l-1-6c0,0-0.4-1.6,0.6-1.9c0.8-0.3,2.3-0.5,3.1,0.3s1.6,7,1.6,7
		C23.5,41.3,21.8,41.5,20.4,40.9z"/>
	<path style="fill:#B69136;" d="M22.3,33.8c-0.6-0.1-1.2-0.1-1.9,0c-0.6,0.2-1.1,0.5-1.5,1L18.9,35l-0.1,0.2
		c-0.1,0.1-0.2,0.3-0.2,0.4L18.4,36c0,0.2-0.1,0.3-0.1,0.5c-0.2,0.6-0.1,1.3,0.1,1.9c0.4,1.2,1.4,2.1,2.6,2.5
		c1.2,0.4,2.5,0.2,3.6-0.5l0,0c-0.5,0.4-1.1,0.7-1.7,0.9c-0.3,0.1-0.7,0.1-1,0.1c-0.3,0-0.7-0.1-1-0.2c-0.6-0.2-1.2-0.5-1.7-1
		c-0.5-0.5-0.8-1.1-1-1.7c-0.1-0.6-0.1-1.3,0-1.9c0.1-0.7,0.3-1.3,0.6-1.8c0.4-0.6,1-1,1.6-1.1C21,33.4,21.6,33.5,22.3,33.8
		L22.3,33.8z"/>
	<path style="fill:#B69136;" d="M23.4,34.1c0.5,0.1,1,0.3,1.4,0.7c0.3,0.4,0.6,0.9,0.8,1.4c0.1,0.2,0.2,0.5,0.3,0.7
		c0.1,0.3,0.1,0.5,0.1,0.8c0,0.5-0.2,1.1-0.5,1.5l0,0c0.1-0.5,0.2-1,0.2-1.5c0-0.5-0.1-1-0.2-1.5c-0.1-0.2-0.1-0.5-0.3-0.7
		c-0.1-0.2-0.3-0.4-0.5-0.5C24.2,34.7,23.8,34.4,23.4,34.1L23.4,34.1z"/>
	<path style="fill:#EED886;" d="M23.7,33c0.9,0.5,1.6,1.2,2.2,2c0.3,0.4,0.5,0.9,0.6,1.4c0.1,0.3,0.1,0.5,0.1,0.8
		c0,0.3,0,0.5-0.1,0.8c-0.2,1-0.7,2-1.4,2.7c-0.4,0.3-0.8,0.6-1.3,0.8c-0.5,0.2-0.9,0.4-1.4,0.4c0.5-0.2,0.9-0.4,1.4-0.6
		c0.4-0.2,0.8-0.5,1.2-0.9c0.7-0.7,1.1-1.6,1.3-2.5c0.2-0.9,0-1.9-0.5-2.8c-0.2-0.4-0.5-0.8-0.9-1.2C24.5,33.6,24.1,33.3,23.7,33z"
		/>
	<path style="fill:#EED886;" d="M22.1,23.2l1.4,0.5c0.2,0.1,0.5,0.2,0.7,0.2c0.2,0.1,0.5,0.1,0.7,0.1l1.5,0c0.5,0,1,0,1.5,0.1
		c-1,0.2-2,0.2-3,0.2c-0.3,0-0.5,0-0.8-0.1c-0.2-0.1-0.5-0.2-0.7-0.3C23,23.8,22.5,23.5,22.1,23.2z"/>
	<path style="fill:#EED886;" d="M20.7,21.9c-0.3,1-0.6,1.9-0.9,2.9c-0.2,0.5-0.3,1-0.5,1.4s-0.3,1-0.5,1.4c-0.3,1-0.5,1.9-0.7,2.9
		s-0.5,2-0.6,3c-0.1-1-0.1-2,0.1-3.1c0.1-1,0.3-2,0.6-3c0.3-1,0.7-1.9,1.1-2.9C19.6,23.7,20.1,22.8,20.7,21.9z"/>
	<path style="fill:#B69136;" d="M33.6,17.9c0.5-1.1,0.8-2.2,1.1-3.4c0.2-0.6,0.2-1.2,0-1.7c-0.2-0.5-0.6-1-1.2-1.3
		c-0.3-0.1-0.5-0.2-0.8-0.4l-0.4-0.1L31.9,11c-0.6-0.1-1.1-0.2-1.7-0.3c-1.2-0.1-2.4,0-3.5,0.2v-0.1c1.1-0.6,2.3-0.9,3.6-0.9
		c1.3,0,2.5,0.5,3.5,1.3c0.5,0.4,0.9,0.9,1.2,1.5c0.3,0.6,0.4,1.2,0.4,1.9c0,0.6-0.2,1.3-0.5,1.8C34.5,17,34.1,17.5,33.6,17.9
		L33.6,17.9z"/>
</g>
</svg>
