<?xml version="1.0" encoding="utf-8"?>
<!-- Generator: Adobe Illustrator 22.0.0, SVG Export Plug-In . SVG Version: 6.00 Build 0)  -->
<svg version="1.1" id="Слой_1" xmlns="http://www.w3.org/2000/svg" xmlns:xlink="http://www.w3.org/1999/xlink" x="0px" y="0px"
	 viewBox="0 0 55.8 62.9" style="enable-background:new 0 0 55.8 62.9;" xml:space="preserve">
<title>09_1</title>
<path style="fill:#391C46;" d="M28.6,61.3h-2.9l-3.8-0.1c-0.3,0-0.5-0.2-0.5-0.4c0,0,0,0,0-0.1c0-0.1,0-0.2,0.1-0.3l0.6-0.7
	c0.3-0.4,0.6-0.7,1-1c0.4-0.3,0.8-0.5,1.2-0.7c0.4-0.2,0.8-0.4,1.3-0.5c0.2-0.1,0.5-0.1,0.7-0.2v-5.1c0-0.9-0.1-1.7-0.1-2.6h-0.1
	c-1.9-0.7-3.3-2.4-3.7-4.4c-0.4,0.2-0.8,0.4-1.2,0.5c-0.6,0.2-1.2,0.3-1.8,0.4h-1.2c-0.2,0-0.3-0.1-0.5-0.2l-0.3-0.2
	c-0.9-0.5-1.4-1.5-1.4-2.6c-0.9-0.7-1.6-1.6-2.1-2.7l0.4-0.3L14,40.3c-0.2-0.4-0.3-0.8-0.4-1.2c-0.2-0.7-0.3-1.3-0.4-2
	c0-0.2,0-0.3,0.1-0.5v-0.3c-0.3-0.2-0.7-0.4-1-0.6l-0.6-0.4l-0.2-0.2V35c-1.3-1.3-2.1-3.1-2.2-5c-0.1-1.9,0.6-3.8,2-5.2
	c0.7-0.7,1.5-1.3,2.4-1.6c0.5-0.2,1.1-0.4,1.6-0.5c0.2-0.5,0.5-0.9,0.9-1.3c0.5-0.5,1.1-1,1.8-1.3c0.7-0.3,1.4-0.5,2.2-0.5h0.7v-0.1
	c0.4-1,1-1.9,1.7-2.6c0.7-0.8,1.5-1.4,2.5-1.8c0.3-0.1,0.6-0.2,0.9-0.2v-2.2h-0.3c-0.2,0-0.4,0-0.5-0.1H25c-0.5-0.2-1-0.5-1.3-0.9
	c-0.4-0.4-0.6-1-0.5-1.6c0-0.5,0.2-1.1,0.5-1.5c0.1-0.1,0.1-0.2,0.2-0.2L24,8.3c0.1-0.1,0.2-0.1,0.2-0.2L24.3,8
	c0.1-0.1,0.3-0.1,0.4-0.2h0.1L25,7.7h0.3l-1-0.4C24.1,7.2,23.9,7,24,6.7c0,0,0,0,0,0c0-0.1,0.1-0.2,0.2-0.2l0.6-0.4
	c0.4-0.3,0.9-0.5,1.4-0.6c0.2,0,0.4-0.1,0.6-0.1c0.3,0,0.7,0.1,1,0.2C28.2,5.8,28.6,6,29,6.4c0.1,0.1,0.2,0.2,0.2,0.3
	s0.1,0.2,0.2,0.3l0.1,0.1c0.1,0.2,0.2,0.4,0.2,0.6c0.2,0.9,0.1,1.9-0.3,2.7c-0.1,0.1-0.1,0.3-0.2,0.4l0,0l0.1,0.1
	c0.1,0.1,0.2,0.3,0.3,0.4c0.1,0.3,0.2,0.6,0.3,0.9C30,13.1,30,14,30,14.9c0.4,0.1,0.9,0.3,1.3,0.4c1,0.5,1.8,1.1,2.5,1.9
	c0.4,0.4,0.7,0.9,1,1.5l0.4-0.2c1.5-0.7,3.1-0.7,4.6,0c0.7,0.3,1.4,0.8,1.9,1.4c1,1.2,1.5,2.7,1.5,4.2v0.2c0.7,0.3,1.3,0.8,1.7,1.4
	c2.2,2.6,2.2,6.3,0,8.9l0,0c-0.5,0.7-1.2,1.2-2,1.6c-0.2,0.1-0.5,0.2-0.7,0.2c0.1,0.7,0.2,1.3,0.1,2v0.2c-0.1,0.5-0.3,1-0.5,1.5
	l-0.1,0.2c-0.1,0.2-0.2,0.3-0.2,0.4l-0.1,0.1L41,41.1c-0.3,0.5-0.7,0.9-1.2,1.3c0.1,0.5,0,1.1-0.2,1.6v0.1l0,0v0.1
	c-0.2,0.3-0.4,0.6-0.7,0.8c-0.5,0.5-1.2,0.7-1.9,0.7c-0.3,0-0.6,0-0.9-0.1l-0.5-0.1L35,45.3c-0.2,0.6-0.5,1.2-0.8,1.7
	c-0.1,0.2-0.2,0.4-0.4,0.5c-0.4,0.6-1,1.1-1.6,1.4c-0.3,0.2-0.6,0.3-0.9,0.5v1c0,0.5,0,1.1-0.1,1.6c-0.1,1.1-0.1,4.2-0.2,5.5
	l0.3,0.1l0.4,0.1c0.4,0.1,0.8,0.2,1.1,0.4c0.4,0.2,0.7,0.4,1.1,0.6c0.4,0.2,0.7,0.5,1,0.8l0.5,0.6c0.2,0.2,0.2,0.5,0,0.7
	c0,0,0,0,0,0c-0.1,0.1-0.2,0.1-0.3,0.1h-0.8c-1,0-1.9,0.1-2.9,0.1S29.7,61.2,28.6,61.3L28.6,61.3z"/>
<path style="fill:#FFFFFF;" d="M26.8,5.9c0.3,0,0.5,0,0.8,0.1c0.4,0.2,0.8,0.4,1.1,0.8C28.8,6.9,28.8,7,28.9,7s0.1,0.2,0.2,0.3
	c0.1,0.2,0.2,0.4,0.2,0.6c0.2,0.8,0.1,1.6-0.2,2.4c-0.1,0.2-0.2,0.3-0.3,0.5L28.7,11l0,0l0.1,0.1l0.1,0.2c0.1,0.1,0.2,0.2,0.2,0.4
	c0.1,0.3,0.2,0.5,0.3,0.8c0.1,0.9,0.1,1.9,0,2.8c0.6,0.1,1.1,0.3,1.6,0.5c0.9,0.4,1.7,1,2.3,1.7c0.5,0.6,0.9,1.2,1.2,1.9
	c0.2-0.2,0.5-0.3,0.8-0.4c1.3-0.6,2.9-0.6,4.2,0c0.7,0.3,1.3,0.7,1.7,1.3c1,1.1,1.5,2.5,1.5,3.9v0.5l0,0c0.7,0.3,1.3,0.8,1.8,1.4
	c2,2.4,2,5.9,0,8.3c-0.5,0.6-1.2,1.1-1.9,1.5l-1.1,0.3V36c0.2,0.7,0.2,1.5,0.2,2.2v0.2l0,0c-0.1,0.4-0.2,0.9-0.4,1.3L41.1,40l0,0
	c-0.1,0.1-0.1,0.2-0.2,0.4l-0.1,0.2l-0.2,0.3l0,0c-0.4,0.5-0.8,0.9-1.3,1.3l0,0c0.1,0.5,0.1,1.1-0.1,1.6l0,0L39.1,44
	c-0.1,0.3-0.3,0.5-0.6,0.7c-0.4,0.4-1,0.6-1.6,0.6c-0.3,0-0.5,0-0.8-0.1l-0.5-0.1l-1-0.3l0,0c-0.1,0.7-0.4,1.4-0.8,2
	c-0.1,0.2-0.2,0.3-0.3,0.5l0,0v0.1c-0.4,0.5-0.8,0.9-1.4,1.2c-0.4,0.2-0.7,0.4-1.1,0.6v1.2c0,0.6,0,3.2-0.1,3.9
	c-0.1,1.3-0.2,2.5-0.3,3.9c0.2,0,0.4,0,0.5,0.1c0.1,0.1,0.4,0.1,0.5,0.1c0.4,0.1,0.8,0.2,1.1,0.4c0.3,0.2,0.7,0.4,1,0.6
	c0.3,0.2,0.6,0.5,0.9,0.8l0.5,0.6h-0.8c-1,0-1.9,0.1-2.9,0.1h-5.7l-2.9-0.1h-1l0.6-0.7c0.3-0.3,0.6-0.6,1-0.9
	c0.3-0.3,0.7-0.5,1.1-0.7c0.4-0.2,0.8-0.3,1.2-0.5c0.3-0.1,0.7-0.2,1-0.2v-5.6c0-1-0.1-2-0.1-2.9l-0.4-0.1c-2-0.8-3.4-2.7-3.6-4.8
	l-0.2,0.2c-0.5,0.3-1,0.6-1.5,0.8c-0.5,0.2-1.1,0.3-1.6,0.3h-0.8c-0.2,0-0.3-0.1-0.5-0.1l-0.3-0.2c-0.8-0.5-1.3-1.5-1.2-2.5
	c-0.9-0.7-1.7-1.6-2.2-2.6v-0.1c-0.2-0.3-0.3-0.6-0.5-0.9c-0.2-0.6-0.3-1.3-0.3-1.9v-0.2l0.1,0.1c0-0.3,0-0.6,0.1-0.9
	c-0.4-0.2-0.8-0.5-1.2-0.8L12,34.9l0.2,0.1l-0.4-0.4c-1.2-1.3-1.9-2.9-2-4.7c-0.1-1.8,0.6-3.6,1.8-4.9c0.6-0.6,1.4-1.2,2.2-1.5
	c0.6-0.2,1.2-0.4,1.8-0.5c0.2-0.5,0.5-1,0.9-1.4c0.5-0.5,1.1-0.9,1.7-1.2c0.6-0.3,1.3-0.4,2-0.4c0.3,0,0.7,0,1,0.1
	c0-0.2,0.1-0.3,0.1-0.5c0.3-0.9,0.9-1.7,1.5-2.4c0.7-0.7,1.5-1.3,2.4-1.7c0.4-0.2,0.8-0.3,1.2-0.4v-2.8h-0.7c-0.2,0-0.4-0.1-0.6-0.1
	c-0.4-0.1-0.8-0.4-1.1-0.7c-0.3-0.3-0.4-0.8-0.4-1.2c0-0.5,0.1-0.9,0.4-1.3c0.1-0.1,0.1-0.2,0.2-0.2s0.2-0.1,0.3-0.2
	c0.1-0.1,0.2-0.1,0.3-0.1l0.3-0.1h0.5c0.2,0,0.5,0,0.7,0.1c0.3,0.1,0.6,0.3,0.8,0.5c0-0.2-0.1-0.4-0.2-0.6c-0.2-0.3-0.4-0.5-0.7-0.6
	c-0.3-0.2-0.7-0.3-1-0.4l-0.7-0.2l0.6-0.4c0.4-0.2,0.8-0.4,1.2-0.5C26.4,6.1,26.6,6,26.8,5.9 M26.3,9.8c0.2-0.1,0.3-0.1,0.4-0.2
	S27,9.4,27,9.2V9.1L26.3,9.8 M26.8,4.9c-0.2,0-0.5,0-0.7,0.1c-0.6,0.1-1.1,0.3-1.5,0.7L24,6.1c-0.4,0.3-0.5,1-0.2,1.4
	c0.1,0.1,0.1,0.2,0.2,0.2l0,0c-0.1,0.1-0.2,0.2-0.3,0.2L23.6,8l0,0l-0.3,0.3c-0.4,0.5-0.6,1.2-0.5,1.8c0,0.7,0.2,1.4,0.7,1.9
	c0.4,0.5,0.9,0.8,1.5,1h0.1c0.2,0,0.3,1.3,0.5,1.3v0.1L25,14.7c-1,0.4-1.9,1.1-2.7,1.9c-0.7,0.7-1.2,1.6-1.6,2.5h-0.3
	c-0.8,0-1.6,0.2-2.4,0.5c-0.8,0.3-1.4,0.8-2,1.4c-0.4,0.4-0.7,0.8-0.9,1.3c-0.5,0.1-1,0.3-1.5,0.5c-1,0.4-1.8,1-2.5,1.8
	c-1.5,1.5-2.2,3.5-2.1,5.6c0.1,2,0.9,3.9,2.3,5.3l0.1,0.1l0.3,0.3l0.6,0.5c0.2,0.2,0.5,0.4,0.7,0.5v0.5c0,0.7,0.2,1.4,0.4,2.1
	c0.1,0.4,0.3,0.8,0.5,1.2v0.1c0.5,1,1.2,2,2.1,2.7c0,1.2,0.7,2.2,1.7,2.8l0.3,0.2l0,0c0.2,0.1,0.4,0.2,0.6,0.2h0.1
	c0.2,0.1,0.4,0.1,0.6,0.1H20c0.6-0.1,1.3-0.2,1.9-0.4c0.3-0.1,0.5-0.2,0.8-0.3c0.6,1.8,1.9,3.2,3.6,4c0,0.8,0.1,3.5,0.1,4.3v2.7
	L26,57.2c-0.5,0.1-0.9,0.3-1.3,0.5c-0.5,0.2-0.9,0.5-1.3,0.8c-0.4,0.3-0.8,0.7-1.1,1.1L21.2,60c-0.4,0.4-0.3,1,0.1,1.4
	c0.2,0.1,0.4,0.2,0.6,0.2h1l2.9,0.1h5.8c0.9,0,1.9-0.1,2.9-0.1h0.8c0.5,0,0.9-0.4,0.9-0.9c0-0.1,0-0.1,0-0.2c0-0.2-0.1-0.4-0.3-0.6
	l-0.5-0.6c-0.3-0.3-0.7-0.6-1.1-0.9c-0.4-0.2-0.8-0.5-1.2-0.7s-0.8-0.3-1.2-0.5l-0.3-0.1c0.1-1,0.2-4,0.2-5c0-0.5,0-1.1,0.1-1.6
	v-0.8c0.9-0.4,1.7-1.1,2.3-1.9l0,0c0.1-0.2,0.2-0.4,0.4-0.5c0.3-0.4,0.5-0.8,0.6-1.3h0.1l0.5,0.1c0.3,0.1,0.7,0.1,1,0.1
	c0.9,0,1.7-0.3,2.3-0.9c0.3-0.3,0.6-0.6,0.8-1l0.1-0.2l0,0c0.2-0.5,0.3-1.1,0.3-1.6c0.4-0.3,0.7-0.7,1-1.1l0,0l0.2-0.3l0,0l0.1-0.2
	c0.1-0.2,0.2-0.3,0.2-0.5l0.1-0.3c0.2-0.5,0.4-1,0.5-1.6v-0.2c0.1-0.6,0.1-1.1,0-1.7l0.3-0.1h0.1c0.9-0.4,1.6-1,2.2-1.7
	c2.3-2.8,2.3-6.8,0-9.6c-0.5-0.5-1-1-1.6-1.4c0.1-1.6-0.5-3.2-1.5-4.5c-0.6-0.7-1.3-1.2-2.1-1.6c-1.6-0.7-3.4-0.7-5,0
	c-0.2-0.4-0.5-0.8-0.8-1.1c-0.7-0.9-1.6-1.5-2.6-2c-0.3-0.1-0.7-1.5-1-1.6c0-0.3,0-0.7-0.1-1c-0.1-0.4-0.2-0.7-0.3-1
	c-0.1-0.1-0.1-0.2-0.2-0.3c0-0.1,0-0.1,0.1-0.2c0.4-0.9,0.5-2,0.3-3c-0.1-0.2-0.1-0.4-0.2-0.6V6.7c-0.1-0.1-0.1-0.2-0.2-0.3v0.1
	c-0.1-0.1-0.2-0.3-0.3-0.4c-0.4-0.5-0.9-0.8-1.5-1c-0.4-0.1-0.7-0.2-1.1-0.2L26.8,4.9z"/>
<path style="fill:#694C76;" d="M27.3,9.1c-0.7-0.6-1.6-0.7-2.4-0.4c-1.3,0.4-1.6,3.1,1.1,3.4s3.8-3.3,2.4-4.9
	c-0.8-0.9-2.1-1.1-3.1-0.4c0,0,1.6,0.5,1.9,1.3s0.3,1.6-1,1.8"/>
<path style="fill:#573E67;" d="M27.3,9.1c-0.6-0.4-1.3-0.5-2-0.3L25,8.9L24.8,9l-0.2,0.1c0,0.1-0.1,0.1-0.1,0.2
	c-0.2,0.3-0.2,0.6-0.2,0.9c0,0.3,0.1,0.6,0.3,0.9c0.2,0.3,0.4,0.5,0.7,0.6c0.6,0.3,1.3,0.3,2,0.1c0.6-0.3,1.1-0.9,1.3-1.6
	c0.2-0.7,0.2-1.3,0-2c-0.1-0.2-0.1-0.3-0.2-0.4s-0.1-0.1-0.1-0.2s-0.1-0.1-0.2-0.2c-0.2-0.2-0.5-0.4-0.8-0.5c-0.3-0.1-0.6-0.1-0.9,0
	c-0.3,0.1-0.6,0.2-0.9,0.4l-0.1-0.7c0.4,0.1,0.8,0.3,1.1,0.6c0.2,0.1,0.4,0.2,0.5,0.4c0.1,0.1,0.2,0.2,0.2,0.3
	c0.1,0.1,0.1,0.2,0.1,0.3c0.1,0.2,0.1,0.5,0.1,0.7c0,0.2-0.1,0.5-0.2,0.7c-0.1,0.2-0.3,0.3-0.5,0.4c-0.2,0.1-0.4,0.1-0.6,0.1V10
	c0.2-0.1,0.4-0.1,0.5-0.2s0.3-0.2,0.3-0.4c0.1-0.3,0-0.7-0.1-1c-0.2-0.3-0.4-0.5-0.7-0.6c-0.3-0.2-0.7-0.3-1-0.4l-0.7-0.2L25,6.8
	c0.4-0.2,0.8-0.4,1.2-0.5c0.4-0.1,0.9-0.1,1.3,0.1c0.4,0.2,0.8,0.4,1.1,0.8c0.1,0.1,0.1,0.2,0.2,0.2s0.1,0.2,0.2,0.3
	c0.1,0.2,0.2,0.4,0.2,0.6c0.2,0.8,0.1,1.6-0.3,2.3c-0.1,0.2-0.2,0.3-0.3,0.5l-0.2,0.2c-0.1,0.1-0.1,0.2-0.2,0.2
	c-0.3,0.3-0.6,0.5-0.9,0.7c-0.3,0.2-0.7,0.3-1.1,0.3h-0.5c-0.2,0-0.4-0.1-0.6-0.1c-0.4-0.1-0.8-0.4-1.1-0.7
	c-0.3-0.3-0.4-0.8-0.4-1.2c0-0.5,0.1-0.9,0.4-1.3C24.1,9.1,24.1,9,24.2,9s0.2-0.1,0.3-0.2c0.1-0.1,0.2-0.1,0.3-0.1l0.3-0.1
	c0.4-0.1,0.8-0.1,1.2,0.1C26.7,8.5,27.1,8.7,27.3,9.1C27.3,9.1,27.3,9.1,27.3,9.1L27.3,9.1z"/>
<path style="fill:#694C76;" d="M28.6,11c0.6,1.6,0.8,3.3,0.4,4.9c-0.6,2.4-1.6,1.4-1.6,1.4L27,16.1c0-1,0-3.1-0.1-4.1
	C26.8,11.9,27.5,12.4,28.6,11z"/>
<path style="fill:#573E67;" d="M28.6,11L28.6,11l0.1,0.1l0.1,0.2c0.1,0.1,0.2,0.2,0.2,0.4c0.1,0.3,0.2,0.5,0.3,0.8
	c0.1,1,0.1,2,0,2.9c-0.2,0.5-0.4,1.1-0.6,1.5c-0.1,0.3-0.3,0.5-0.6,0.7c-0.1,0.1-0.3,0.1-0.5,0.1c-0.2,0-0.3-0.1-0.5-0.2l0,0v-0.1
	c-0.2-0.4-0.4-0.8-0.5-1.2l0,0v-4l0,0v-0.2c0-0.1,0-0.2,0.1-0.3h0.1l0.1-0.1H27c0.2,0,0.3,0,0.5-0.1c0.2-0.1,0.3-0.2,0.5-0.3
	l0.2-0.2C28.3,11.2,28.4,11.1,28.6,11z M28.6,11.1c0,0.1-0.1,0.2-0.1,0.3l-0.2,0.3c-0.1,0.2-0.3,0.3-0.5,0.5
	c-0.2,0.1-0.5,0.2-0.7,0.3l0,0c0.1-0.1,0.1-0.1,0.1-0.2l0,0v-0.1l0,0v0.5c0.1,1.2,0.1,2.5,0,3.7v-0.1l0.3,1.2l-0.1-0.1
	c0.1,0.2,0.3,0.2,0.5,0.1c0.2-0.1,0.4-0.3,0.5-0.5c0.2-0.5,0.3-1,0.2-1.5c0-0.9,0-1.8,0-2.7c0-0.3,0-0.5-0.1-0.8
	c-0.1-0.3,0-0.3-0.1-0.4v-0.3l0,0C28.6,11.2,28.5,11.1,28.6,11.1L28.6,11.1z"/>
<path style="fill:#7C598E;" d="M30.5,58v-9.7H27v9.5c-1.6,0.3-3,1.1-4.1,2.3h11.5C33.3,59.1,32,58.4,30.5,58z"/>
<path style="fill:#573E67;" d="M30.5,58.1c-0.1-1.2-0.2-2.5-0.3-3.8c0-0.7-0.1-3.3-0.1-4v-2l0.5,0.5h-1.8c-0.6,0-1.1,0-1.7-0.1
	l0.4-0.4c-0.1,1.2-0.2,2.5-0.2,3.7v3.9c0,0.6,0,1.3,0.1,1.9V58h-0.2c-0.4,0.1-0.8,0.2-1.1,0.3c-0.4,0.1-0.7,0.3-1,0.5
	c-0.3,0.2-0.6,0.4-0.9,0.7c-0.3,0.2-0.6,0.5-0.8,0.8L23,59.6l2.9-0.1h5.8c1,0,1.9,0.1,2.9,0.1l-0.3,0.6c-0.2-0.3-0.4-0.5-0.7-0.7
	l-0.9-0.6c-0.3-0.2-0.6-0.4-1-0.5c-0.2-0.1-0.3-0.2-0.5-0.2L30.5,58.1z M30.6,58c0.2,0,0.4,0,0.5,0.1c0.1,0.1,0.4,0.1,0.5,0.1
	c0.4,0.1,0.8,0.2,1.1,0.4c0.3,0.2,0.7,0.4,1,0.6c0.3,0.2,0.6,0.5,0.9,0.8l0.5,0.6h-0.8c-1,0-1.9,0.1-2.9,0.1h-5.8l-2.9-0.1h-1
	l0.6-0.7c0.3-0.3,0.6-0.6,1-0.9c0.3-0.3,0.7-0.5,1.1-0.7c0.4-0.2,0.8-0.3,1.2-0.5c0.4-0.1,0.9-0.2,1.3-0.2l-0.2,0.2
	c0-0.6,0-1.3,0.1-1.9c0.1-0.7,0-3.2,0-3.9c0-1.2-0.1-2.5-0.2-3.7V48H27c0.6,0,1.2-0.1,1.7-0.1H31v2.3c0,0.6,0,1.3-0.1,1.9
	C30.8,53.4,30.7,56.7,30.6,58z"/>
<circle style="fill:#7C598E;" cx="28.8" cy="43.3" r="5.8"/>
<path style="fill:#473248;" d="M23,42c0.3-1.5,1.2-2.9,2.4-3.9c0.7-0.5,1.4-0.8,2.2-1c0.8-0.2,1.6-0.2,2.4,0c0.8,0.2,1.5,0.5,2.1,1
	c0.6,0.5,1.2,1.2,1.6,1.9c0.8,1.3,1.2,2.9,0.9,4.5c-0.2,1.6-1.1,3.1-2.5,4c-0.7,0.5-1.4,0.8-2.2,1c-1.6,0.3-3.3,0-4.7-1
	c-0.7-0.5-1.2-1.1-1.6-1.8C22.9,45.3,22.6,43.6,23,42z M23.1,42c-0.2,0.7-0.2,1.5,0,2.2c0.2,0.7,0.5,1.4,1,2
	c0.9,1.1,2.1,1.9,3.5,2.2c1.4,0.3,2.9,0,4.1-0.7c1.2-0.8,2.1-2,2.5-3.4c0.2-0.7,0.2-1.5,0.1-2.2c-0.1-0.7-0.4-1.5-0.8-2.1
	c-0.9-1.2-2.2-2-3.6-2.2c-1.4-0.2-2.9,0-4.2,0.7C25,38.9,24.5,39.4,24,40C23.5,40.6,23.2,41.3,23.1,42z"/>
<path style="fill:#8B6D9A;" d="M23.9,43.9c0.1,0.5,0.3,1.1,0.5,1.6c0.1,0.3,0.2,0.5,0.4,0.7l0.6,0.6c-0.3,0-0.6-0.1-0.8-0.3
	c-0.3-0.2-0.5-0.4-0.6-0.7c-0.1-0.3-0.2-0.6-0.2-0.9C23.8,44.6,23.8,44.2,23.9,43.9z"/>
<circle style="fill:#7C598E;" cx="20.2" cy="25.4" r="4.9"/>
<path style="fill:#573E67;" d="M25.1,25.4c0,1.3-0.5,2.6-1.3,3.6c-0.9,1-2.2,1.6-3.6,1.6c-0.7,0-1.3-0.2-1.9-0.5
	c-0.6-0.3-1.1-0.7-1.6-1.2c-0.9-0.9-1.5-2.2-1.5-3.5c-0.1-1.4,0.4-2.7,1.4-3.7c0.5-0.5,1.1-0.9,1.7-1.2c1.3-0.6,2.7-0.6,4,0
	c0.6,0.3,1.2,0.7,1.6,1.2C24.7,22.8,25.1,24.1,25.1,25.4z M25.1,25.4c0-0.6-0.2-1.2-0.4-1.8c-0.3-0.5-0.7-1-1.1-1.5
	c-0.9-0.8-2.1-1.2-3.3-1.2c-1.2,0-2.3,0.5-3.2,1.3c-0.9,0.8-1.4,2-1.5,3.2c0,0.6,0.1,1.2,0.3,1.8c0.2,0.6,0.6,1.1,1,1.5
	c0.9,0.9,2.1,1.3,3.4,1.2c1.2,0,2.4-0.5,3.3-1.3c0.5-0.4,0.9-0.9,1.1-1.5C25,26.6,25.1,26,25.1,25.4z"/>
<path style="fill:#8B6D9A;" d="M21.4,21.7c-0.7-0.1-1.5,0-2.2,0.2c-0.4,0.1-0.7,0.3-1,0.5c-0.3,0.2-0.6,0.5-0.8,0.8
	c0.2-0.8,0.8-1.4,1.6-1.6c0.4-0.1,0.8-0.2,1.2-0.1C20.6,21.4,21,21.5,21.4,21.7z"/>
<circle style="fill:#7C598E;" cx="28.2" cy="22.6" r="6.9"/>
<path style="fill:#573E67;" d="M35.2,22.6c0,1.9-0.6,3.7-1.8,5.1c-0.6,0.7-1.4,1.3-2.3,1.7c-0.9,0.4-1.8,0.6-2.8,0.5
	c-1,0-1.9-0.3-2.8-0.7c-0.8-0.4-1.6-1-2.3-1.6c-1.3-1.3-2.1-3.1-2.2-5c-0.1-1.9,0.6-3.8,2-5.2c0.7-0.7,1.5-1.3,2.4-1.7
	c1.8-0.8,3.9-0.8,5.7,0c0.9,0.4,1.7,1,2.3,1.7C34.6,18.9,35.2,20.7,35.2,22.6z M35.1,22.6c0-0.9-0.2-1.8-0.6-2.6
	c-0.4-0.8-0.9-1.5-1.6-2c-1.3-1.1-3-1.7-4.7-1.7c-1.7,0-3.3,0.7-4.6,1.8c-1.2,1.2-2,2.9-2.1,4.6c0,0.9,0.1,1.8,0.4,2.6
	c0.6,1.7,2,3,3.7,3.6c0.8,0.3,1.6,0.4,2.5,0.4c0.9,0,1.7-0.2,2.5-0.5c0.8-0.3,1.5-0.8,2.2-1.3c0.7-0.6,1.2-1.3,1.6-2.1
	C34.9,24.5,35.1,23.6,35.1,22.6z"/>
<path style="fill:#8B6D9A;" d="M29.9,17.3c-0.6,0.1-1.1,0.1-1.6,0.2s-1,0.2-1.4,0.3c-0.5,0.1-0.9,0.3-1.3,0.6
	c-0.5,0.3-0.9,0.6-1.3,1c0.1-0.6,0.3-1.2,0.8-1.6c0.4-0.5,0.9-0.8,1.5-1c0.6-0.2,1.2-0.2,1.8-0.1C28.9,16.8,29.4,17,29.9,17.3z"/>
<circle style="fill:#7C598E;" cx="21.2" cy="37" r="6.9"/>
<path style="fill:#573E67;" d="M21,30c1.9-0.1,3.7,0.5,5.2,1.7c0.8,0.6,1.4,1.3,1.8,2.2c0.8,1.8,0.8,3.8,0,5.6
	c-0.4,0.9-0.9,1.6-1.6,2.3c-1.3,1.4-3,2.2-4.9,2.4c-1.9,0.2-3.9-0.5-5.3-1.8c-0.7-0.7-1.3-1.4-1.7-2.3c-0.9-1.8-0.9-3.9-0.2-5.7
	c0.4-0.9,0.9-1.7,1.6-2.4C17.3,30.7,19.1,30,21,30z M21,30.1c-0.9,0-1.8,0.3-2.6,0.7c-0.8,0.4-1.5,1-2,1.7c-1.1,1.3-1.6,3-1.6,4.7
	c0.1,1.7,0.8,3.3,2,4.5c1.2,1.2,2.9,1.9,4.6,1.9c0.9,0,1.8-0.2,2.6-0.5c1.7-0.7,2.9-2.1,3.4-3.8c0.2-0.9,0.3-1.7,0.3-2.6
	c-0.1-0.9-0.3-1.7-0.6-2.5c-0.3-0.8-0.8-1.6-1.4-2.2c-0.6-0.7-1.3-1.2-2.1-1.5C22.8,30.2,21.9,30.1,21,30.1z"/>
<path style="fill:#8B6D9A;" d="M15.9,35.5c0.1,0.6,0.2,1.1,0.3,1.6c0.1,0.5,0.2,1,0.4,1.4c0.2,0.5,0.4,0.9,0.6,1.3
	c0.3,0.4,0.6,0.8,1,1.2c-0.6-0.1-1.1-0.3-1.6-0.7c-0.5-0.4-0.8-0.9-1-1.5c-0.2-0.5-0.3-1.1-0.2-1.7C15.4,36.5,15.6,36,15.9,35.5z"/>
<circle style="fill:#7C598E;" cx="35.9" cy="37.4" r="5.4"/>
<path style="fill:#573E67;" d="M33.1,42.1c-1.3-0.7-2.2-1.9-2.7-3.3c-0.5-1.4-0.3-3,0.6-4.3c0.4-0.7,0.9-1.2,1.6-1.6
	c0.6-0.4,1.3-0.7,2-0.8c1.4-0.3,2.9-0.1,4.2,0.5c1.3,0.7,2.3,1.9,2.7,3.4c0.2,0.7,0.2,1.5,0.2,2.2c-0.2,1.5-1,2.9-2.3,3.8
	c-0.6,0.4-1.3,0.7-2.1,0.8C35.9,43.1,34.4,42.8,33.1,42.1z M33.1,42c0.6,0.4,1.3,0.6,2,0.6c0.7,0.1,1.4,0,2-0.2
	c1.3-0.4,2.3-1.3,3-2.4c0.7-1.1,0.9-2.5,0.6-3.8c-0.3-1.3-1.1-2.4-2.2-3.2c-0.6-0.4-1.2-0.6-1.9-0.8c-0.7-0.1-1.3-0.1-2,0.1
	c-1.3,0.4-2.4,1.3-3.1,2.5c-0.6,1.2-0.7,2.6-0.5,3.9c0.1,0.7,0.4,1.3,0.7,1.9C32.1,41.1,32.6,41.6,33.1,42z"/>
<path style="fill:#8B6D9A;" d="M38.8,40.6c0.3-0.7,0.6-1.5,0.8-2.2c0.1-0.4,0.1-0.7,0.1-1.1c0-0.4-0.1-0.8-0.1-1.2
	c0.4,0.3,0.6,0.7,0.8,1.1c0.1,0.5,0.1,0.9,0,1.4c-0.1,0.4-0.3,0.9-0.6,1.2C39.6,40.2,39.2,40.5,38.8,40.6z"/>
<circle style="fill:#7C598E;" cx="28.2" cy="31" r="6.9"/>
<path style="fill:#573E67;" d="M35.2,31c0,1.9-0.6,3.7-1.8,5.1c-0.6,0.7-1.4,1.3-2.3,1.7c-0.9,0.4-1.8,0.6-2.8,0.5
	c-1,0-1.9-0.3-2.8-0.7c-0.8-0.4-1.6-1-2.2-1.7c-1.3-1.4-2.1-3.1-2.2-5c-0.1-1.9,0.6-3.8,2-5.2c0.7-0.7,1.5-1.3,2.4-1.7
	c1.8-0.8,3.9-0.8,5.7,0c0.9,0.4,1.7,1,2.3,1.7C34.6,27.3,35.2,29.1,35.2,31z M35.1,31c0-0.9-0.2-1.8-0.6-2.6
	c-0.4-0.8-0.9-1.5-1.6-2.1c-1.3-1.1-3-1.7-4.7-1.7c-1.7,0-3.3,0.7-4.6,1.8c-1.2,1.2-2,2.9-2.1,4.6c0,0.9,0.1,1.8,0.4,2.6
	c0.6,1.7,2,3,3.7,3.6c0.8,0.3,1.6,0.4,2.5,0.4c0.9,0,1.7-0.2,2.5-0.5c0.8-0.3,1.5-0.8,2.2-1.3c0.7-0.6,1.2-1.3,1.6-2.1
	C34.9,32.9,35.1,31.9,35.1,31z"/>
<path style="fill:#8B6D9A;" d="M29.9,25.6c-0.6,0.1-1.1,0.1-1.6,0.2s-1,0.2-1.4,0.3c-0.5,0.1-0.9,0.3-1.3,0.6
	c-0.5,0.3-0.9,0.6-1.3,1c0.1-0.6,0.3-1.2,0.8-1.6c0.4-0.5,0.9-0.8,1.5-1c0.6-0.2,1.1-0.2,1.7-0.2C28.9,25.1,29.4,25.3,29.9,25.6z"/>
<circle style="fill:#7C598E;" cx="37.4" cy="24" r="5.1"/>
<path style="fill:#573E67;" d="M42.6,24c0,1.4-0.5,2.7-1.4,3.8c-0.9,1.1-2.4,1.7-3.8,1.6c-0.7,0-1.4-0.2-2-0.5
	c-0.6-0.3-1.2-0.7-1.7-1.2c-1-1-1.6-2.3-1.7-3.7c-0.1-1.5,0.5-2.9,1.5-3.9c0.5-0.5,1.1-0.9,1.8-1.2c1.3-0.6,2.9-0.6,4.2,0
	c0.7,0.3,1.3,0.7,1.7,1.3C42.1,21.3,42.6,22.6,42.6,24z M42.5,24c0-0.7-0.2-1.3-0.5-1.9c-0.3-0.6-0.7-1.1-1.2-1.5
	c-1-0.8-2.2-1.3-3.5-1.3c-1.3,0-2.5,0.5-3.4,1.4c-0.9,0.9-1.4,2.1-1.5,3.4c0,0.6,0.1,1.3,0.3,1.9c0.2,0.6,0.6,1.2,1.1,1.6
	c0.9,0.9,2.2,1.4,3.5,1.3c2-0.1,3.8-1.2,4.7-2.9C42.4,25.4,42.5,24.7,42.5,24z"/>
<path style="fill:#8B6D9A;" d="M36.6,20.4c-0.3,0.1-0.6,0.2-0.8,0.4c-0.3,0.1-0.5,0.3-0.7,0.5c-0.2,0.2-0.4,0.4-0.7,0.5L34,22.1
	c-0.1,0.1-0.3,0.2-0.4,0.3c0-0.2,0-0.3,0.1-0.5c0.1-0.2,0.1-0.3,0.2-0.5c0.2-0.3,0.4-0.6,0.7-0.8c0.3-0.2,0.6-0.4,1-0.4
	C35.9,20.1,36.3,20.2,36.6,20.4z"/>
<circle style="fill:#7C598E;" cx="40.3" cy="30" r="5.6"/>
<path style="fill:#573E67;" d="M46,30c0,1.5-0.5,3-1.5,4.1c-1.1,1.2-2.6,1.9-4.2,1.9c-0.8,0-1.5-0.2-2.2-0.6
	c-0.7-0.3-1.3-0.8-1.8-1.3c-1-1.1-1.7-2.5-1.8-4c-0.1-1.6,0.5-3.1,1.6-4.2c0.5-0.6,1.2-1.1,1.9-1.4c1.5-0.6,3.1-0.6,4.6,0
	c0.7,0.3,1.3,0.8,1.8,1.4C45.4,27,46,28.5,46,30z M45.9,30c0-0.7-0.2-1.4-0.5-2.1c-0.3-0.6-0.8-1.2-1.3-1.7
	c-1.1-0.9-2.4-1.4-3.8-1.4c-1.4,0-2.7,0.5-3.7,1.5c-1,1-1.6,2.3-1.7,3.7c0,0.7,0.1,1.4,0.3,2.1c0.3,0.7,0.7,1.3,1.2,1.8
	c1,1,2.5,1.5,3.9,1.4c1.4-0.1,2.7-0.6,3.8-1.5c0.5-0.5,1-1.1,1.3-1.7C45.7,31.4,45.9,30.7,45.9,30z"/>
<path style="fill:#8B6D9A;" d="M41.7,26.4c-0.4,0.2-0.9,0.3-1.3,0.4l-1.1,0.3c-0.3,0.1-0.7,0.2-1,0.4c-0.4,0.2-0.8,0.4-1.2,0.6
	c0-0.5,0.1-1,0.5-1.4c0.3-0.4,0.8-0.7,1.3-0.9c0.5-0.2,1-0.2,1.5-0.1C40.9,25.8,41.3,26.1,41.7,26.4z"/>
<circle style="fill:#7C598E;" cx="16.5" cy="30" r="6.4"/>
<path style="fill:#573E67;" d="M23,30c0,1.7-0.6,3.4-1.7,4.8c-0.6,0.7-1.3,1.2-2.1,1.5c-0.8,0.4-1.7,0.5-2.6,0.5
	c-0.9,0-1.8-0.2-2.6-0.6c-0.8-0.4-1.5-0.9-2.1-1.5c-1.2-1.3-1.9-2.9-2-4.6c-0.1-1.8,0.6-3.6,1.8-4.9c0.6-0.6,1.4-1.2,2.2-1.5
	c1.7-0.7,3.6-0.7,5.3,0c0.8,0.4,1.5,0.9,2.1,1.6C22.4,26.6,23,28.3,23,30z M22.9,30c0-0.8-0.2-1.7-0.6-2.4c-0.4-0.7-0.9-1.4-1.5-1.9
	c-1.2-1-2.7-1.6-4.3-1.6c-1.6,0-3.1,0.6-4.2,1.7c-1.2,1.1-1.8,2.6-1.9,4.2c0,0.8,0.1,1.6,0.4,2.4c0.3,0.8,0.8,1.4,1.4,2
	c1.2,1.1,2.8,1.7,4.4,1.6c1.6-0.1,3.1-0.7,4.3-1.7c0.6-0.5,1.1-1.2,1.5-1.9C22.7,31.6,22.8,30.8,22.9,30z"/>
<path style="fill:#8B6D9A;" d="M18,25.1c-0.8,0.1-1.6,0.2-2.4,0.4c-0.8,0.2-1.5,0.5-2.1,1c-0.2,0.1-0.3,0.2-0.4,0.4
	c-0.2,0.1-0.3,0.2-0.4,0.4l-0.4,0.4L12,28.2l-0.2,0.2l-0.1,0.3l-0.3,0.5c-0.2,0.4-0.4,0.7-0.6,1.1c0-0.4,0.1-0.9,0.2-1.3l0.2-0.6
	c0-0.1,0.1-0.2,0.1-0.3l0.1-0.3l0.3-0.6l0.4-0.5c0.1-0.2,0.3-0.3,0.5-0.5c0.1-0.2,0.3-0.3,0.5-0.4c0.7-0.5,1.6-0.9,2.5-1
	C16.4,24.6,17.3,24.7,18,25.1z"/>
<path style="fill:#7C598E;" d="M16.8,41.9c0,0-0.1,3.2,2.4,3.4s3.9-1.6,3.7-2.1c-0.2-0.6-0.7-0.9-1.3-0.8c-0.7,0.1-1.3,0.5-1.6,1.2
	c0,0-1.1-0.1-1.2-1.6"/>
<path style="fill:#473248;" d="M16.8,41.9c0.1,0.5,0.3,1,0.5,1.5c0.2,0.4,0.5,0.8,0.8,1.1c0.4,0.3,0.8,0.5,1.3,0.5
	c1.1,0.2,2.1-0.3,2.8-1.1l0.3-0.6v-0.1l0,0c0-0.1-0.1-0.2-0.2-0.2c-0.1-0.1-0.2-0.2-0.4-0.2h-0.3L21.3,43c-0.4,0.1-0.8,0.4-1,0.8
	L20.2,44H20c-0.2,0-0.4-0.1-0.6-0.3c-0.2-0.1-0.3-0.3-0.4-0.5c-0.1-0.2-0.2-0.4-0.2-0.6V42h0.1l0.1,0.2c0,0.1,0,0.1,0.1,0.2
	c0.1,0.1,0.2,0.3,0.3,0.4c0.1,0.1,0.2,0.2,0.4,0.2l0.2,0.1l0,0l-0.4,0.2c0.1-0.3,0.3-0.6,0.5-0.9c0.2-0.2,0.5-0.4,0.8-0.5
	c0.1-0.1,0.3-0.1,0.5-0.1H22c0.4,0,0.8,0.2,1,0.6c0.1,0.1,0.2,0.3,0.2,0.5v0.4c0,0.1,0,0.2-0.1,0.3c-0.1,0.3-0.3,0.6-0.6,0.8
	c-0.5,0.3-1,0.6-1.5,0.8c-0.5,0.2-1.1,0.3-1.6,0.3h-0.9c-0.2,0-0.3-0.1-0.5-0.1s-0.3-0.1-0.4-0.2c-0.5-0.4-0.9-0.9-1-1.5
	c-0.1-0.6-0.1-1.1,0-1.7L16.8,41.9z"/>
<path style="fill:#FFFFFF;" d="M17.5,34.4c0,0-5.1-4.7,1.2-8.2c6.1-3.4,9.3,2.9,7.5,6.1C24.4,35.2,20.4,35.8,17.5,34.4z"/>
<path style="fill:#473248;" d="M17.5,34.7c-0.3-0.2-0.5-0.5-0.8-0.8c-0.2-0.3-0.4-0.5-0.6-0.8c-0.4-0.6-0.7-1.3-0.8-2V30
	c0-0.4,0.1-0.7,0.2-1.1c0.3-0.7,0.8-1.3,1.3-1.8c1.1-1,2.4-1.6,3.8-1.9c1.4-0.4,2.9-0.1,4.1,0.6c1.2,0.9,2,2.2,2.1,3.7
	c0.1,0.8,0,1.5-0.2,2.2c-0.1,0.4-0.3,0.7-0.5,1.1c-0.2,0.3-0.4,0.6-0.8,0.8c-1.1,1-2.5,1.6-3.9,1.8C20.2,35.7,18.7,35.4,17.5,34.7z
	 M17.5,34.3c1.2,0.6,2.6,0.8,4,0.6c1.3-0.3,2.5-0.9,3.5-1.8c0.4-0.4,0.8-1,1-1.6c0.2-0.6,0.3-1.3,0.2-1.9c-0.1-1.3-0.7-2.5-1.7-3.4
	c-0.5-0.4-1.1-0.7-1.8-0.9c-0.7-0.1-1.4-0.1-2,0.1c-0.6,0.2-1.3,0.5-1.8,0.9c-0.6,0.4-1.1,0.8-1.6,1.3c-0.5,0.4-0.8,1-1.1,1.6
	c-0.2,0.6-0.3,1.3-0.2,1.9c0.1,0.7,0.3,1.3,0.5,1.9C16.8,33.6,17.1,34,17.5,34.3L17.5,34.3z"/>
<path style="fill:#391C46;" d="M18.2,26.1c1.3-0.7,2.9-0.3,3.8,0.9c1.3,1.5,0.7,4.1-0.9,4.8c-1.5,0.8-3.4,0.2-4.2-1.3
	c0,0,0-0.1-0.1-0.1C16.3,29,16.1,27.1,18.2,26.1z"/>
<path style="fill:#FFFFFF;" d="M29.8,25.9c1.5-2,5.9-4,9.5,1.2c4.2,5.9-1.4,8.9-4.7,8.8C30.3,35.5,26.2,30.6,29.8,25.9z"/>
<path style="fill:#473248;" d="M35.1,36h-0.4c-2.5-0.2-4.8-1.7-5.9-4c-0.8-2.1-0.5-4.4,0.9-6.2l0,0c1.1-1.3,2.7-2.1,4.5-2.2
	c1.4,0,3.5,0.6,5.5,3.3s1.7,5,1,6.2C39.4,35,37.3,36,35.1,36z M30,26c-1.4,1.6-1.7,3.8-0.9,5.7c1,2.2,3.2,3.6,5.6,3.8
	c2.2,0.2,4.3-0.9,5.5-2.7c0.9-1.6,0.5-3.6-1-5.7c-1.1-1.8-3-3-5.1-3.1C32.5,24,31,24.7,30,26z"/>
<path style="fill:#391C46;" d="M30.4,25.8c1.4-0.6,2.9-0.2,3.9,0.8c1.6,1.8,1.3,5.4-1.6,5.9c-2.9,0.5-3.5-1-4-2.7
	S30.4,25.8,30.4,25.8z"/>
<path style="fill:#FFFFFF;" d="M18.1,28c-0.4-0.4-0.2-1.1,0.5-1.4s1.4-0.3,1.5,0.2s-0.2,0.8-0.7,0.9S18.6,28.4,18.1,28z"/>
<path style="fill:#FFFFFF;" d="M20.9,30.4c0,0,0.4-0.4,0.7-0.2c0.2,0.2,0.2,0.5,0,0.7c0,0.1-0.1,0.1-0.2,0.1
	C21,31.1,20.6,30.9,20.9,30.4z"/>
<path style="fill:#FFFFFF;" d="M33.2,30.7c0,0,0.5-0.5,0.7-0.2c0.2,0.2,0.3,0.5,0.2,0.7c-0.1,0.1-0.2,0.2-0.3,0.2
	C33.3,31.5,32.8,31.3,33.2,30.7z"/>
<path style="fill:#FFFFFF;" d="M30.1,27.1c0,0,0.9-0.9,1.5-0.5c0.6,0.4-0.2,0.8-0.6,1.1s-0.8,0.9-1.3,0.5S30.1,27.1,30.1,27.1z"/>
<path style="fill:#391C46;" d="M26.2,35.7c0,0-1.2-1.6-0.2-1.7s1.8,0.8,2.5,0.9s1.5-0.5,2.2-0.5s1.5,0.6,0.3,1.4
	S27.4,37.2,26.2,35.7z"/>
<path style="fill:#81569A;" d="M34,43.8c0.4-0.7,0.5-1.5,0.5-2.3c-0.1-0.7-0.3-1.4-0.7-2.1c-0.2-0.3-0.4-0.6-0.7-0.9l-0.8-0.8
	c-0.3-0.3-0.6-0.6-0.9-0.8l-0.9-0.7h0.1c-0.1,0-0.1,0.1-0.2,0.1s-0.1,0.1-0.1,0.2c-0.1,0.2-0.1,0.4-0.1,0.6v0.2l-0.2-0.1
	c-0.7-0.4-1.4-0.6-2.2-0.7c-0.4-0.1-0.8-0.1-1.1-0.1c-0.4,0-0.8,0-1.1,0.1l0.1-0.1c0,0.6,0.1,1.2,0.2,1.8c0.1,0.3,0.3,0.6,0.5,0.9
	c0.2,0.3,0.4,0.5,0.7,0.7l-0.1,0.1c-0.5-0.3-1.1-0.4-1.7-0.5c-0.3,0-0.6,0-0.9,0.1c-0.3,0.2-0.5,0.4-0.7,0.6c-0.4,0.5-0.6,1-0.9,1.6
	c-0.1,0.3-0.3,0.6-0.5,0.8c-0.2,0.3-0.5,0.5-0.8,0.6l0.1-0.2c0.6,0.6,1.2,1.1,1.9,1.5c0.3,0.2,0.6,0.4,1,0.6c0.3,0.2,0.6,0.3,1,0.3
	h0.4l-0.1,0.2c-0.3,0.4-0.5,0.8-0.6,1.3c-0.2,0.4-0.3,0.8-0.4,1.3V48c0.3,0.3,0.7,0.5,1.1,0.6c0.5,0.1,0.9,0.1,1.4,0.1
	c0.5,0,0.9-0.1,1.4-0.1l0.7-0.2l0.7-0.2l0.3-0.1v1.7h-0.2c0.6-0.2,1.2-0.5,1.7-0.9c0.6-0.3,1.1-0.8,1.4-1.4c0.4-0.5,0.6-1.1,0.8-1.7
	c0.1-0.3,0.1-0.6,0.1-0.9C34,44.4,34,44.1,34,43.8z M34,43.8v1c0,0.3,0,0.7-0.1,1c-0.1,0.7-0.4,1.3-0.8,1.8
	c-0.4,0.6-0.8,1.1-1.4,1.5c-0.6,0.4-1.2,0.7-1.9,0.9l-0.2,0.1v-1.7l0.2,0.2l-0.7,0.2l-0.7,0.2c-0.5,0.1-1,0.1-1.5,0.2
	c-0.5,0-1,0-1.5-0.1c-0.2-0.1-0.5-0.1-0.7-0.2c-0.3-0.1-0.5-0.3-0.7-0.5l0,0v-0.1c0-0.5,0.1-1,0.4-1.5c0.2-0.4,0.4-0.9,0.7-1.3
	l0.1,0.2c-0.4,0-0.9-0.1-1.2-0.3l-1-0.7c-0.7-0.5-1.3-1-1.9-1.6L21,42.8h0.2c0.3-0.1,0.5-0.3,0.7-0.5c0.2-0.2,0.4-0.5,0.5-0.8
	c0.3-0.6,0.6-1.1,0.9-1.6c0.2-0.2,0.4-0.4,0.7-0.6c0.3-0.1,0.6-0.1,0.9-0.1c0.6,0.1,1.2,0.3,1.7,0.6L26.5,40l-0.7-0.7
	c-0.2-0.3-0.4-0.6-0.5-0.9c-0.2-0.6-0.4-1.3-0.4-2v-0.1h0.1c0.4-0.1,0.8-0.1,1.1-0.1h1.1c0.4,0,0.8,0.1,1.1,0.2
	c0.4,0.1,0.8,0.3,1.1,0.5l-0.2,0.1c0-0.2,0-0.5,0.1-0.7c0.1-0.1,0.1-0.2,0.2-0.3s0.2-0.1,0.4-0.2h0.4l0.9,0.7
	c0.4,0.2,0.6,0.6,0.9,0.8c0.3,0.2,0.6,0.6,0.8,0.9l0.7,1c0.5,0.7,0.7,1.5,0.7,2.3C34.6,42.2,34.4,43,34,43.8z"/>
<path style="fill:#523856;" d="M34,43.9c0,0,2.5-3.7-3.5-7.7c-0.4,0.1-0.7,0.6-0.6,1c-1.4-0.7-3-0.9-4.6-0.7c0,0-0.1,2.4,1.4,3.5
	c0,0-2.3-1.4-3.3,0s-1.1,2.8-2.2,3c0,0,2.4,2.5,4,2.5c-0.5,0.8-0.9,1.7-1,2.7c0,0,1.5,1.6,5.6,0.2v1.5C32.5,49.1,34.3,46.6,34,43.9z
	"/>
<path style="fill:#7C598E;" d="M39.2,42.1c0.2,1.3-0.7,2.5-2,2.7c0,0,0,0-0.1,0h-0.2c-2.6,0.3-4.7-1.6-4.7-2.5
	c-0.1-0.5,0.3-1,0.9-1.1c0,0,0,0,0,0c0.3,0,0.6,0.1,0.8,0.3c0.5,0.4,0.8,0.9,1,1.5c0.9,0.3,1.8,0,2.3-0.8"/>
<path style="fill:#473248;" d="M39.3,42.1c0.2,0.6,0.1,1.3-0.2,1.8c-0.3,0.6-0.9,1-1.6,1.2c-0.6,0.1-1.3,0.1-1.9-0.1
	c-0.6-0.2-1.1-0.4-1.6-0.6c-0.6-0.3-1.1-0.6-1.5-1c-0.3-0.2-0.5-0.5-0.6-0.8V42c0-0.2,0.1-0.4,0.2-0.5c0.3-0.3,0.7-0.5,1.1-0.6
	c0.4,0,0.8,0.1,1.1,0.4c0.3,0.2,0.5,0.5,0.6,0.8c0.1,0.1,0.1,0.3,0.2,0.5l0.1,0.2v0.1l-0.1-0.1H35c0.2,0.1,0.4,0.1,0.5,0.2h0.6
	c0.2,0,0.4-0.1,0.5-0.2c0.2-0.1,0.3-0.3,0.5-0.4h0.1L36.9,43c-0.2,0.2-0.4,0.3-0.6,0.4c-0.2,0.1-0.5,0.1-0.7,0.1
	c-0.3,0-0.5,0-0.8-0.1l0,0c-0.1-0.1-0.2-0.1-0.2-0.2L34.4,43l-0.1-0.2c-0.1-0.1-0.1-0.2-0.2-0.3c-0.1-0.2-0.3-0.4-0.5-0.5
	c-0.1-0.1-0.3-0.2-0.5-0.2c-0.2,0-0.3,0.1-0.5,0.2s-0.1,0.1-0.1,0.2v0.3c0.1,0.2,0.2,0.5,0.3,0.7c0.3,0.4,0.7,0.8,1.2,1.1
	c0.5,0.3,1,0.4,1.6,0.4c0.5,0,1.1-0.1,1.6-0.2c0.2-0.1,0.5-0.2,0.7-0.3c0.2-0.1,0.4-0.3,0.6-0.5C38.8,43.2,39.1,42.7,39.3,42.1z"/>
<path style="fill:#694C76;" d="M24.6,35.1c0.6,0.4,1.3,0.7,2,0.9l0.3,0.3h-0.5l0.1,1.2c-1.2-0.3-2.3-0.9-3.3-1.7"/>
<path style="fill:#694C76;" d="M29.6,36.5c0.2,0.1,0.5,0.2,0.7,0.3c0.2-0.4,0.3-0.7,0.8-0.8c0.3,0.1,0.5,0.3,0.7,0.5
	c0,0,1.4-0.8,1.5-0.9l-1.2-0.4C31.4,35.8,30.5,36.2,29.6,36.5z"/>
<path style="fill:#8B6D9A;" d="M25.8,34.8c0,0,0.1,1.2,0.6,1.6h0.4C26.3,35.9,26,35.4,25.8,34.8z"/>
<path style="fill:#8B6D9A;" d="M29.4,36.4c0.4-0.1,0.8-0.3,1.2-0.5c0.2-0.2,0.4-0.4,0.5-0.6c0,0,0.3,0,0,0.3
	c-0.4,0.4-0.8,0.7-1.3,0.9L29.4,36.4z"/>
<path style="fill:#694C76;" d="M37.2,42.3c0,0,0.8-0.8,1.2-0.8s1,0.2,0.9,0.5s-1,0.9-1,0.9L37.2,42.3z"/>
<polygon style="fill:#6F467C;" points="17,41.5 16.8,41.9 17.3,42.1 "/>
<path style="fill:#573E67;" d="M23,44l-0.2,0.2c0.3,3.1,3,5.5,6.2,5.2c0,0,0,0,0,0h0.1c2.8-0.1,5.1-2.1,5.6-4.8
	c1.3,0.4,3.2,1.3,4.5-0.9c-0.6,0.6-1.3,1.8-4.9,0.6c-0.8,1.8-2.1,4.4-5.9,4.2C25.6,48.5,23.9,46.5,23,44z"/>
<path style="fill:#573E67;" d="M39,41.7l0.3,0.5c1.2-0.9,2-2.2,2.3-3.7C41,39.7,40.1,40.8,39,41.7z"/>
<path style="fill:#27172F;" d="M37.5,35.1c1.5,1,3.4,1.2,5,0.5c0.8-0.3,1.4-0.8,1.9-1.5c0,0-3.1,2.9-6.7,0.8L37.5,35.1z"/>
<path style="fill:#573E67;" d="M32.5,36.9c0.5-0.4,0.9-0.8,1.2-1.3L33,35.5c0,0-0.7,1.1-1,1.1L32.5,36.9z"/>
<path style="fill:#573E67;" d="M23,35.8c1,1.1,2.3,1.9,3.8,2.3c-0.3-0.6-0.1-0.5-0.2-0.8c-1.1-0.4-2.1-0.9-3-1.6
	C23.4,35.7,23.2,35.7,23,35.8z"/>
<polygon style="fill:#27172F;" points="23.3,43.3 23,44 24.3,43.3 24.1,43.1 "/>
<path style="fill:#573E67;" d="M13.7,37.1c0.1,2.2,1.2,4.3,3,5.7c0,1.3,0.5,2.9,2.8,2.8c-1.1-0.3-2.5-0.2-2.7-3.5
	c-0.9-0.4-2.1-1-2.7-4.2C13.8,37.2,13.7,36.6,13.7,37.1z"/>
<path style="fill:#391C46;" d="M19.7,36c-0.2-0.1-0.5-0.2-0.7-0.3c-0.8,0.4-2.8,2-7-0.8C13.7,36.2,16.5,37.9,19.7,36z"/>
<path style="fill:#391C46;" d="M33,41.2c0.1-0.9-0.1-1.9-0.7-2.6c-0.5-0.4-0.2-0.1,0,0.3c0.4,0.7,0.5,1.5,0.4,2.3H32
	c0,0-0.5-1.7-1.3-2.1c0.1-0.2,0.1-0.5,0-0.7l-0.1,0.5c-0.6-0.4-1.2-0.7-1.8-1c-0.5-0.1-0.6-0.1,0,0.2c0.6,0.3,1.2,0.7,1.7,1.2
	c0,0.2-0.8,0.1-0.9,0.2s0.1,0.2,0.4,0.2s0.8-0.3,1.1,0.1c0.4,0.5,0.6,1.2,0.7,1.8c-0.1,0.1-0.1,0.3-0.2,0.4s-0.3-0.1-0.4-0.1
	s-0.2-0.5-0.4-0.5s0.2,0.5,0.2,0.5s-1.5-0.3-1.6-0.3c-0.4-0.8-1.2-1.3-2.1-1.3c-0.2,0.1,0.1,0.1,0.3,0.1c0.7,0.1,1.3,0.5,1.6,1.1
	c-1.6-0.2-3.2-0.1-4.8,0.3c-0.4,0.3,0.9-0.2,1.6-0.2c1.1-0.1,2.1,0,3.2,0.2c-0.4,0.4-0.9,0.8-1.4,1.2c-0.1,0.2,0.9-0.2,1.6-1.1
	c0.2-0.1,1.5,0,1.6,0.3c0,0.3-0.1,0.6-0.3,0.8c-0.2,0.2,0.3,0.1,0.6-0.6c0.1-0.1,0.3-0.1,0.4,0c0.1,0.4,0.2,0.7,0.4,1
	c-0.8,1.1-1.9,2-3,2.8c-0.3,0.2,0.8-0.3,1.4-0.7c0.1,0.1-0.2,0.8-0.4,1s0.5-0.1,0.6-1.1c0.1-0.2,0.2-0.2,0.3-0.3
	c0.5-0.4,0.9-0.9,1.3-1.4c0.4,0.2,0.8,0.3,1.2,0.4c0.2,0.3,0.2,0.7,0.2,1c0,0.2,0.2-0.5,0.1-0.7s0-0.4-0.2-0.4s-1.9-0.4-1.7-1.8
	c0.1-0.5,0.6-0.9,1.1-0.8C32.9,41.2,33,41.2,33,41.2z"/>
</svg>
