<?xml version="1.0" encoding="utf-8"?>
<!-- Generator: Adobe Illustrator 22.0.0, SVG Export Plug-In . SVG Version: 6.00 Build 0)  -->
<svg version="1.1" id="Слой_1" xmlns="http://www.w3.org/2000/svg" xmlns:xlink="http://www.w3.org/1999/xlink" x="0px" y="0px"
	 viewBox="0 0 55.8 62.9" style="enable-background:new 0 0 55.8 62.9;" xml:space="preserve">
<title>02_1</title>
<path style="fill:#AE3A6F;" d="M20.8,61.3c-0.4,0-0.7-0.2-0.9-0.5c-0.1-0.4,0-0.8,0.4-1c0.3-0.2,3.7-2.5,4.9-3.2v-12
	c-1,0.6-2.1,1.1-3.2,1.4l-1,0.2l-0.6,0.2c-0.9,0.2-1.7,0.3-2.6,0.3c-2,0-3.9-0.4-5.7-1.2l-0.5-0.3c-1.1,0-2.1-0.4-3-1
	c-0.2-0.1-0.3-0.2-0.5-0.3s-0.3-0.3-0.5-0.5l-0.1-0.2l-0.2-0.3c-0.3-0.3-0.4-0.5-0.6-0.7c-0.4-0.6-0.5-1.4-0.3-2.1
	c0-0.2,0.1-0.4,0.2-0.6c-0.3-0.6-0.5-1.2-0.7-1.9c-0.6-1.7-0.7-3.5-0.3-5.3c0.1-0.6,0.3-1.2,0.5-1.8l0,0c0.1-0.2,0.2-0.5,0.3-0.7
	s0.1-0.1,0.1-0.2c0.3-0.7,0.7-1.4,1.1-2C7.8,27.3,8,27,8.2,26.7c0.9-1.3,2.2-2.2,3.7-2.7c0.5-0.2,1-0.4,1.6-0.4l0,0
	c0.1-2.5,0.7-8.2,4.3-12c1.3-1.4,2.8-2.7,4.3-3.9c1-0.9,2.1-1.6,3.4-2.1c0.5-0.2,0.9-0.3,1.4-0.5c0.7-0.3,1.5-0.4,2.3-0.4
	c1.4,0,2.8,0.4,4,1.1L33.6,6l1.2,0.9c0.2,0.2,0.4,0.5,0.6,0.8L36,8.4l0.2,0.2c2.1,1.2,3.4,3.4,3.6,5.8c0.2,1,0.2,2.1,0,3.1
	c-0.1,1-0.5,1.9-1,2.7c0.7,1.1,1.2,2.3,1.4,3.5c1.8,0.2,3.6,0.8,5.2,1.8c2.6,1.8,4.4,4.5,5,7.6c0.5,4.8-0.5,6.5-1.6,8l0,0L48,42.2
	c-0.2,2.2-2.2,3.8-4.4,3.6c0,0,0,0,0,0h-0.9c-1.6,0.6-3.4,0.9-5.1,0.9c-1.1,0-2.2-0.1-3.2-0.4h-0.2c-0.5,0.3-1.1,0.5-1.7,0.5h-0.6
	l-0.1,9.8c1,0.6,4.4,2.7,5,3.1c0.4,0.4,0.5,0.7,0.4,1c-0.1,0.3-0.3,0.5-0.6,0.5L20.8,61.3z"/>
<path style="fill:#FFFFFF;" d="M29.2,5.2c1.3,0,2.6,0.4,3.7,1l0.4,0.2l0,0c0.4,0.2,0.8,0.5,1.1,0.8c0.3,0.4,0.7,0.9,1.2,1.5L35.8,9
	c2,1.1,3.3,3.1,3.5,5.4l0,0c0.2,1,0.2,1.9,0,2.9c0,1.1-0.4,2.1-1.1,2.9c0,0,1,0.7,1.6,4c1.9,0.2,3.8,0.8,5.4,1.8
	c2.5,1.7,4.2,4.4,4.6,7.4c0.5,4.7-0.5,6.3-1.5,7.7l0,0v0.1l0,0c-0.2,0.3-0.4,0.7-0.7,1c-0.2,2-1.9,3.5-3.9,3.3c0,0,0,0,0,0l0,0
	c-0.3,0-0.5,0-0.8-0.1l-0.2,0.1l0,0c-1.6,0.6-3.3,0.9-5,0.9c-1,0-2-0.1-3-0.4h-0.1l-0.3-0.1c-0.5,0.4-1,0.5-1.6,0.5
	c-0.4,0-0.7-0.1-1.1-0.2l-0.1,10.7c0,0,4.6,2.8,5.2,3.2s0,0.6,0,0.6l-15.8,0.2c-0.5,0-0.5-0.4-0.2-0.7s5-3.3,5-3.3V43.6
	c-1.1,0.9-2.4,1.5-3.8,1.9L21,45.7l0,0l-0.6,0.1c-0.8,0.2-1.7,0.3-2.5,0.3c-1.9,0-3.8-0.4-5.5-1.2l0,0l-0.6-0.3l0,0
	c-1,0-2-0.4-2.8-0.9c-0.1-0.1-0.3-0.2-0.4-0.3S8.1,43.1,8,42.9l-0.1-0.2l-0.2-0.2l-0.1-0.1v-0.1c-0.1-0.2-0.2-0.3-0.3-0.5
	c-0.4-0.5-0.5-1.1-0.4-1.7C7,39.8,7,39.6,7.1,39.3c-0.3-0.6-0.6-1.3-0.7-2c-0.5-1.6-0.7-3.4-0.3-5.1c0.1-0.6,0.3-1.2,0.5-1.7l0,0
	c0.1-0.2,0.2-0.5,0.3-0.7L7,29.6v-0.1c0.3-0.7,0.6-1.3,1-1.9c0.2-0.3,0.4-0.5,0.6-0.7c0.9-1.2,2.1-2.1,3.5-2.6l0,0
	c0.6-0.2,1.2-0.4,1.8-0.4c0.1-0.1,0.2-0.3,0.3-0.4c0.1-2.2,0.6-8.1,4.2-11.9c1.3-1.4,2.7-2.7,4.2-3.8c1-0.8,2.1-1.5,3.3-2
	c0.4-0.2,0.9-0.3,1.3-0.5C27.7,5.3,28.4,5.2,29.2,5.2 M48.2,41L48.2,41 M29.2,4.2L29.2,4.2c-0.9,0-1.7,0.1-2.5,0.4
	c-0.5,0.1-1,0.3-1.4,0.5c-1.3,0.5-7.1,3.8-8.4,5.2c-3.6,3.7-5.7,8.5-5.8,11.2c-0.5,0.1,2.8,1.4,2.4,1.6l-1.8,0.3
	c-1.5,0.5-2.8,1.5-3.8,2.8c-0.2,0.3-0.4,0.5-0.6,0.8c-0.5,0.6-1,1.3-1.3,2.1l0,0c0,0.1,0,0.1-0.1,0.2c-0.1,0.2-0.2,0.5-0.3,0.7l0,0
	c-0.2,0.6-0.4,1.3-0.5,1.9c-0.4,1.9-0.3,3.8,0.3,5.6L6,39.3c-0.1,0.2-0.1,0.3-0.1,0.5c-0.2,0.8,0,1.7,0.4,2.4
	c0.1,0.2,0.2,0.4,0.4,0.6l0,0L6.8,43L7,43.2l0.2,0.2c0.1,0.2,0.3,0.3,0.4,0.5L7.7,44c0.1,0.2,0.2,0.4,0.4,0.5c0.9,0.7,2,1,3.1,1.1
	l0.5,0.2c1.9,0.8,3.9,1.3,5.9,1.3c0.9,0,1.9-0.1,2.8-0.3l0.6-0.1l0,0l1-0.3c0.9-0.3,1.7-0.6,2.5-1v10.8c-1.6,1-4.4,2.9-4.7,3.1
	c-0.6,0.4-0.8,1.3-0.4,1.9c0.3,0.4,0.7,0.6,1.2,0.6l15.8-0.2h0.2c0.5-0.1,0.8-0.4,1-0.8c0.1-0.5-0.1-1.1-0.5-1.4L37,59.3
	c-0.5-0.3-3.5-2.2-4.8-2.9v-9h0.1c0.6,0,1.3-0.2,1.8-0.5c1.1,0.3,2.2,0.4,3.3,0.4c1.8,0,3.5-0.3,5.2-0.9h0.7
	c2.4,0.2,4.5-1.5,4.9-3.9l0.5-0.8l0,0l0.1-0.1c1.2-1.6,2.1-3.4,1.7-8.3C50,30,48.1,27,45.4,25.1c-1.5-1-3.2-1.6-5-1.8
	c-0.2-1.1-0.6-2.1-1.2-3.1c0.5-0.8,0.7-1.7,0.8-2.6c0.2-1.1,0.2-2.1,0-3.2c-0.2-2.5-1.6-4.7-3.8-6l-0.1-0.1l-0.5-0.7
	C35.4,7.3,35.2,7,35,6.8c-0.4-0.4-0.8-0.7-1.3-1l-0.5-0.3C32.1,4.6,30.6,4.2,29.2,4.2z"/>
<path style="fill:#7A1D39;" d="M13.7,24c0,0-3.2,0.1-5.8,3.7c-1.5,2.2-2.2,4.8-2,7.4C6,36.6,6.4,38,7,39.3c-0.3,0.8-0.8,2,1.2,4
	c0.9,0.8,2.1,1.2,3.3,1.3c2.7,1.4,5.7,1.8,8.7,1.2c3.9-0.8,5.4-2.4,5.4-2.4v13.2l-5,3.3c-0.3,0.2-0.3,0.7,0.2,0.7l15.8-0.2
	c0,0,0.5-0.1,0-0.6s-5.2-3.2-5.2-3.2l0.1-10.7c0.9,0.3,1.9,0.2,2.7-0.3c2.8,0.8,5.9,0.7,8.6-0.5c1.4,0.2,4.3,0,4.8-3.3
	c1.2-1.8,2.8-2.8,2.3-8.7c-0.5-3-2.1-5.6-4.6-7.4c-1.6-1-3.5-1.6-5.4-1.8c-0.3-1.4-0.8-2.8-1.6-4c0.8-1.6,2.2-3.9,0.2-8.2
	c-0.6-1.2-1.5-2.2-2.6-3c-0.6-0.7-1-1.3-1.4-1.7s-3.6-3.3-8.7-1.3c-1.9,0.8-3.6,2.1-4.9,3.7c-1.4,2.6-6.1,11.4-6.4,13.3
	C14.3,23.2,14.1,23.6,13.7,24z"/>
<path style="fill:#5B002E;" d="M25.2,6.6c0,0,3.3-3.1,8.1-0.1c0.9,0.8,1.7,1.7,2.5,2.6c2,1.1,3.3,3.1,3.5,5.4
	c0.6,4.1-1.1,5.7-1.1,5.7s1,0.7,1.6,4c-0.9,0-1.7,0.1-2.6,0.2c0,0,0.1-1.8-0.5-2.2c-1.6,1.3-3.3,2.5-5.1,3.4
	c-0.5,0.2-0.7,1.4-0.7,1.4c-1.3,0.5-2.6,0.9-4,1.2c-0.3-0.5-0.7-0.9-1.1-1.2c-1.8,0.2-3.5,0.2-5.3,0c-0.1,0-0.4-0.4,0.3-0.1
	c2.1,0.2,4.3,0.2,6.4-0.2c2.6-0.5,5-1.5,7.2-3c1.8-1.5,4.2-2.7,4.7-7.8c0.1-2.7-1.4-5.3-3.9-6.4c-0.8-0.9-4.8-3-7-2.8
	C27.2,6.6,26.2,6.6,25.2,6.6z"/>
<path style="fill:#5B002E;" d="M27.9,40.2c-0.2,1.4-1.1,2.6-2.3,3.3v1.4c0,0,2.8-0.2,3,0.3c0.3,0.8,0.4,1.7,0.5,2.5
	c0.1,0.7,0.1,8.3,0,9c0.2,0.4,0.4,0.7,0.8,0.9c1.6,1,3.4,1.9,5.2,2.5c0.5,0,1.5,0.1,1-0.2l-5.2-3.2c0,0-0.1,0.2-0.1-0.6V45.7
	c0,0-2-1.3-1.9-2.4c0-0.5,0.1-1,0.3-1.5C28.7,41.4,28.2,40.8,27.9,40.2z"/>
<path style="fill:#5B002E;" d="M35.5,43.4C35.4,44,35.2,44.5,35,45c0.8,0.4,2.9,1.3,6.9,0.2c-0.9-0.2-3.6-1-4.2-2
	c-0.4,0.6-0.7,1-1.1,1C36.1,44.1,35.7,43.8,35.5,43.4z"/>
<path style="fill:#5B002E;" d="M37.4,39.8c0,0-0.2-1.3-1.3-1.3c-0.7,0-1,1.6-0.9,2.6c0.4,0.4,0.6,1,0.5,1.6c0.3,0.3,0.6,0.5,0.9,0.4
	c0.4-0.2,0.6-0.5,0.6-0.9c-0.1-0.4-0.3-1.6,0.2-1.7V39.8z"/>
<path style="fill:#5B002E;" d="M48.2,41c0,0-1.9,1.2-4.7-0.5c-0.5-0.4-1-0.7-1.6-1c-0.2-0.1-0.4-0.1-0.6,0c-0.1,0.1-0.2,0.2-0.2,0.3
	c0,0.5,2.2,1.7,3.2,2.1s2.5,0.7,3,0.2S48.2,41,48.2,41z"/>
<path style="fill:#5B002E;" d="M41.2,39.4c0,0-0.4,0.1-0.4,0.3v0.5c-0.7-0.4-1.4-0.7-2.1-1c-0.2,0.1-0.3,0.3-0.2,0.5c0,0,0,0,0,0
	l0,0c-0.3-0.3-0.7-0.3-1-0.2c-0.2,0.4-0.2,1,0,1.4c0.2,0.6,0.4,0.8,0.6,0.9s0-0.2-0.1-0.4s-0.5-1.6-0.3-1.7s1,0.3,1.3,0.7
	c0.2,0.2,0.2,0,0.1-0.2s-0.4-0.8-0.2-0.8s2.9,1.5,3.1,1.6s0.3,0-0.1-0.3l-1-0.5c0,0-0.2-1.2,0.6-0.4c0.2,0.2,0.1-0.2,0-0.2
	S41.4,39.4,41.2,39.4z"/>
<path style="fill:#5B002E;" d="M29.1,42.1c0.2,0.1,0.4,0.3,0.6,0.3l-0.5-0.5L29.1,42.1z"/>
<path style="fill:#5B002E;" d="M29.5,42.9c0,0-0.1,0.2,0.1,0.2s0.7-0.8,0.9-1.1s0.8-1.5,1.3-1.5c0.1,0.2,0.2,0.3,0.1,0.5
	s-0.2,0.3-0.2,0.5s-0.3,0.6-0.1,0.6s0.3-0.2,0.4-0.4c0.3-0.8,0.9-1.5,1.7-2c0.3-0.1,0.5-0.2,0.5,0.1c0,0.7-0.2,1.4-0.7,2
	c-0.2,0.3-0.5,0.7-0.2,0.5c0.7-0.4,1.1-1.2,1.1-2c0-0.1,0.2-0.2,0.3,0.1c0.2,0.5,0.1,1.1-0.2,1.6c-0.3,0.5-0.5,0.9-0.3,0.8
	c0.4-0.3,0.7-0.7,0.9-1.2c0.1-0.1,0.2-0.2,0.3-0.1s0-0.4-0.3-0.1c0-0.4,0.1-1.5-0.5-1.3c-0.1-0.3-0.1-0.8-0.7-0.6
	c-0.6,0.3-1.2,0.8-1.6,1.4c-0.1-0.2-0.1-0.8-0.8-0.2c-0.5,0.6-1,1.2-1.4,1.9C29.7,42.7,29.6,43,29.5,42.9z"/>
<path style="fill:#5B002E;" d="M7.6,42.5c0,0,0-0.4,0.3-0.2c0.3,0.2,1.9,1.9,3.2,1.5s2-0.8,2.4-2c0.1-0.5,0.1-1.3,0.6-1.4
	c0.2,0,0.3,0,0.4,0.1c-0.1-0.3-0.4-0.5-0.7-0.6c-0.2,0.1-0.4,0.3-0.5,0.5c-0.1,0.2-0.2,0.4-0.2,0.2c0-0.4,0.3-0.8,0.7-1
	c-0.1-0.2-0.4-0.7-0.7-0.7c-0.2,0.1-0.3,0.2-0.4,0.3c0,0-0.3,0.2-0.3,0l0,0c0,0,0.2-1.8-0.4-2.3c0,0.1-0.2,0.1-0.1,0.6
	c0,0.6,0,1.3-0.1,1.9c-0.1,0.5-0.4,0.9-0.7,1.3c-0.2,0.1-0.3-0.1-0.2-0.4c0-0.4,0-0.8,0-1.2c0-0.3,0.1-0.6,0.4-0.6s0.5-0.1,0.5,0.1
	s-0.1,0.3-0.2,0.2s-0.4-0.1-0.4,0.1s-0.2,1.3,0,1.2c0.3-0.6,0.5-1.2,0.6-1.9c0-0.5-0.1-1.4,0.3-1.5s0.5-0.2,0.8,0.3
	c0.4,0.5,0.5,1.2,0.4,1.8V39c0,0,1.2-0.1,1.3,0.6c0.5,0,1,0.4,1.2,0.9c0.2,0.7,0,1.5-0.4,2.1c-0.2,0.2-0.4,0.3-0.6,0.5
	c-0.6,0.8-1.3,1.5-2.2,2L12,44.8C10.3,44.7,8.6,43.9,7.6,42.5z"/>
<path style="fill:#5B002E;" d="M31.3,26.7c0,0,0.1,0.1-0.1,0.2c-0.9,0.5-1.6,1.3-2.2,2.1c-0.6,1-1.1,2-1.4,3.1
	c-0.1,0.8-0.3,0.4-0.2-0.1c0.1-0.5,0.3-1.1,0.5-1.6c-0.2-0.9-0.5-1.7-1.1-2.4c-0.1-0.3,0.1-0.2,0.2,0c0.5,0.6,0.8,1.3,1,2
	c0.5-1.2,1.3-2.2,2.3-3C30.8,27,31.2,26.5,31.3,26.7z"/>
<path style="fill:#8F1F43;" d="M25.7,26.9c0,0-0.8,0.1-1.2,0.1c1.1,0.9,2,2,2.6,3.3c0.3,0.9,0.4,1.3,0.4,1.3
	c0.1-0.4,0.2-0.8,0.4-1.1C27.6,29.1,26.8,27.8,25.7,26.9z"/>
<path style="fill:#8F1F43;" d="M27.7,40.1l-0.3-0.6c-0.3,0.5-2.1,4.7-5.9,5.3c-0.7,0.1-1.5,0.8-0.7,0.9c1.8-0.4,3.5-1.2,5-2.4
	C26.9,42.6,27.6,41.4,27.7,40.1z"/>
<path style="fill:#8F1F43;" d="M10.5,39c0,0-2.1,1.2-3-0.8c-1-2.4-1.4-5.1-1-7.7C6,32.4,5,34.6,7.1,39.4c-0.6,1-0.4,2.3,0.4,3.1
	c0.1-0.2,0.1-0.5,0.8,0.3c0.6,0.5,1.9,1.9,3.8,0.6c0.9-0.5,1.4-1.4,1.4-2.4c0.2-0.4-0.3-0.6-0.4-0.4s-0.2,0.4-0.2-0.1
	c0.3-0.4,0.2-0.5,0.7-0.7c-0.1-0.1-0.2-0.3-0.3-0.4s-0.3-0.2-0.5-0.2l-0.6,0.3c0,0-0.2,0-0.1-0.4v-0.7c0,0-0.1,0-0.2,0.4
	c-0.1,0.3-0.3,0.5-0.6,0.7c0,0-0.3,1.1-0.7,1.1s-0.2-0.4-0.2-0.9v-0.5L10.5,39z"/>
<path style="fill:#8F1F43;" d="M23.1,31.1c0.6,0.5,1.1,1.2,1.2,2c0.2,1.4,0.2,5.3-1.5,6.4c0,1-0.8,4.5-3.4,4.3
	c-0.7,0-1.4,0.1-2.1,0.3c-1.1-0.1-2.5-1-2.3-1.5s1.2-2.8-0.8-3.2c-0.2-0.5-0.8-0.7-1.3-0.5c0-0.7-0.4-2.6-1.1-2.4s0.4-4.6,0.4-4.6
	s-0.7-1,0.1-1.1c1.4-0.2,2.6-1,3.4-2.1c0.5-0.7,1.1-1.3,1.7-1.9c-1.5,0-2.9-0.4-4.2-1c-0.8-0.8-1.3-0.8-0.9-1.1s0.8-0.5,1.2-0.2
	c1.9,1,3.9,1.7,6,2.1c-0.5,0.3-1,0.8-1.5,1.2c0,0-2,2.5-2.2,2.7c0.2,0.2,0.2,0.4,1-0.2c0.4-0.3,1.7-0.4,1.9,0.2
	C20.3,30.6,21.7,30.9,23.1,31.1z"/>
<path style="fill:#972144;" d="M27.5,32.7c-0.6,2.7-0.4,5.5,0.7,8.1c0.4,0.7,1,1.3,1.7,1.8c0.4-0.6,0.4-1.1,1-1.5
	c-2.4-1.7-3.5-4.6-3-7.5c0.3-1.3,0.7-2.6,1.2-3.8c0.3-0.8,0.4-1.4-0.1-0.5C28.3,30.3,27.8,31.5,27.5,32.7z"/>
<path style="fill:#8F1F43;" d="M37.1,24.3c0.7-0.2,1.5-0.3,2.2-0.2c1.8,0.7,5.6,4.7,6,7.5c1.3,3.9,0.4,7.2-1.8,8.9l-1.6-1
	c1.6-2.1,2.2-4.7,1.8-7.3C42.8,28.7,40.4,25.8,37.1,24.3z"/>
<path style="fill:#8F1F43;" d="M29.4,43.1c-0.1,0.1-0.4,0.8,0,0.8c0.8-0.2,1.5-0.6,1.9-1.3c0.5,0.6,2.7,2,3.9,0.6
	c0.3-0.4,0.4-1,0.3-1.5c-0.1-0.4-0.3-0.5-0.4-0.4c-0.2,0.4-0.4,1.2-0.9,1.3c0.1-0.3,0.2-0.5,0.3-0.8c0.3-0.6,0.5-2.1,0-1.7
	c-0.1,0.7-0.5,1.4-1,1.9c-0.1,0.1-0.4,0.4-0.2-0.1c0.5-0.4,0.8-1,0.9-1.7c-0.2,0-0.2-0.2-0.6,0.4c-0.5,0.8-0.8,1.2-1.1,1
	s-0.2-0.1-0.3-0.6c-0.2,0.5-0.3,1-0.6,0.9c0-0.3,0.1-0.6,0.3-0.9c0.1-0.1,0.1-0.3,0.1-0.5c0-0.1-0.1,0-0.3,0.3
	c-0.2,0.3-0.9,1.8-1.4,1.7c-0.4,0.3-0.4,0.4-0.6,0.4L29.4,43.1z"/>
<path style="fill:#8F1F43;" d="M39.7,39.9c0,0-0.3,0,0,0.3s0.7,0.5,0.5,0.8s-0.8-0.3-1.1-0.5c-0.1,0.1-0.2,0-0.4-0.3
	c-0.3-0.1-0.8-0.3-0.3,0.6s0.9,1.1,0.5,1.4c-0.2,0-0.8-0.6-0.8-0.6s0,0.4-0.2,0.2c0.2,0.4,0.4,0.7,0.7,1c0.1,0.2,0.1,0.3-0.1,0.5
	c0.1,0.2,0,0.1,0.3,0.3c1.2,0.8,2.6,1.3,4.1,1.5c1,0.1,2-0.2,2.9-0.6c0.1-0.1,0.2-0.3-0.3-0.2s-3.3,0.2-4.4-0.7
	c-0.3-0.4-0.2-0.2,0-0.5s1-1.8,0.6-2L39.7,39.9z"/>
<path style="fill:#972144;" d="M35.7,42.7c0,0.3-0.1,0.5-0.2,0.8c0.2,0.2,0.7,0.8,1.3,0.6s0.5-0.4,0.5-0.6s-0.1-0.6-0.4-0.5
	s-0.4,0.3-0.8,0.1C36,42.9,35.9,42.8,35.7,42.7z"/>
<path style="fill:#AE3A6F;" d="M6.9,29.7c0,0-0.9,1.8-0.2,5.7c0.6,2.3,0.7,5.1,3.8,3.7c0-0.2,0-0.9,0.8-0.7c0-0.7-0.3-1.8,0.4-1.9
	c0.3,0,0.7,0.1,0.9,1c0.1,0.3,0.2,0.7,0.2,1c0,0,0.8-0.4,1.2,0s0.4,0.8,0.6,0.8s1.1,1,2.6-0.8c0.6-0.8,1.4-1.3,1.2-1.9
	s-0.1-1-0.9-1.3s-2.6-1.5-2.1-3c0.2-0.7,0.4-1,0.4-1.1s-0.4-0.3-0.4-0.3s-0.4-0.2,0.1-0.5c0.9-1,1.7-2,2.4-3.1
	c0-0.2-0.5-0.3-0.5-0.3s-3-0.2-4.2-1c-0.4-0.3-0.7-0.6-1-1L12,24.4C12,24.4,8.9,25.2,6.9,29.7z"/>
<path style="fill:#AE3A6F;" d="M20,38.4l0.6-0.3c0,0-0.1-0.2-0.6,0c-1.1,0.2-2,0.7-2.7,1.6c-0.4,0.5-0.6,0.8-0.4,0.9
	c0.3-0.1,0.5-0.3,0.7-0.5c0.3-0.4,0.6-0.7,1-1L20,38.4z"/>
<path style="fill:#AE3A6F;" d="M19.8,42.6c-0.1,0-0.4,0.2-0.1,0.4c1.1,0.1,2.1-0.5,2.5-1.5c0.3-0.7,0.5-1.4,0.5-2.1
	c0-0.5-0.6-0.4-0.5-0.2c0.2,1-0.1,2-0.7,2.7C21,42.3,20.4,42.6,19.8,42.6z"/>
<path style="fill:#AE3A6F;" d="M41.9,39.5c1.7-2.2,2.4-5,1.7-7.7c-0.6-1.6-1.7-4.8-4.9-6.6c-0.4-0.2-1.1-0.6-0.4,0
	c1.5,1,0.3,1.5-0.1,1.3c-0.7-0.6-1.4-1.2-2.2-1.8c-0.6-0.3-1.5-0.8-2-0.6c-0.8,0.5-1.6,1-2.5,1.5c-0.3,0.4-0.7,0.9-0.6,1.4
	c0.2-0.2,0.4-0.3,0.4-0.2s0.2,0.2-0.4,0.4c-0.6,0.5-1.1,1-1.6,1.5c-0.2,0.9-0.5,1.9-0.8,2.8c-0.4,1.5-1.6,4.1,0.6,7.4
	c0.6,0.7,1.2,1.4,1.9,2c0,0,0.6-1,1-0.7l0.3,0.3c0,0,1.4-1.6,2-1.3c0.1,0.2,0.2,0.5,0.2,0.7c0.2,0,0.3-0.1,0.4,0.1s0.2,0.1,0.3-0.1
	s0.1-1.4,1-1.7c0.3,0,0.8,0.2,1.2,1.1l0.1,0.3c0,0,0.2-0.5,0.5-0.3c0.2,0.1,0.4,0.2,0.6,0.3c0,0-0.2-0.6,0.4-0.5
	c0.7,0.3,1.4,0.6,2,1c-0.1-0.6-0.2-0.9,0.4-0.9C41.5,39.3,41.8,39.3,41.9,39.5z"/>
<path style="fill:#8F1F43;" d="M34.2,24c0,0,1-0.9,1.7-0.4c0.6,0.4,1.3,0.7,2,0.9c0.3,0.1,3.3,2.3,3.3,2.3s-2,0.5-2.9-0.2
	C37.2,25.4,35.7,24.5,34.2,24z"/>
<path style="fill:#AE3A6F;" d="M35,25.2c-0.5-0.3-1.1-0.3-1.6-0.1c-0.7,0.4-1.2,1-1.4,1.8c0,0.6,0.1,0.8,0,0.8
	c-1.2,1.1-2.1,2.4-2.7,3.8c-0.7,2.4-1.4,6.1,2.1,8.2c0.5,0.2,1.1,0,1.4-0.5c0.6-0.2,1.6-0.7,1.9,0c0.1,0.4-0.1,0.5,0.2,0.6
	c0.1,0.2,0.5-0.1,0.7-0.8c0.2-0.4,0.7-1.3,1.4-0.5c0.3,0.4,0.7,1,0.7,1s0.1-0.6,1,0c0.1-0.2,0.1-0.7,0.8-0.2c0.5,0.2,2-1,2.4-2.9
	c0.6-3.2-0.4-6.6-2.8-8.9C37.8,26.6,36.5,25.8,35,25.2z"/>
<path style="fill:#AE3A6F;" d="M31.7,40.8c0,0,0.2-0.4-0.1-0.3s-0.5,0.3-0.9,1s-0.4,1-0.1,0.7s0.5-0.8,0.8-1.2
	C31.5,40.8,31.5,40.7,31.7,40.8z"/>
<path style="fill:#AE3A6F;" d="M34.1,40.3c0,0,0.1-0.8-0.2-0.8c-0.5,0.2-0.9,0.5-1.2,0.9c-0.2,0.4-0.8,0.6-0.3,1.1
	c0.3,0.1,0.3,0.3,0.9-0.6C33.6,40.5,33.7,40,34.1,40.3z"/>
<path style="fill:#AE3A6F;" d="M33.8,41.7c0.1,0.1,0.3,0.1,0.4,0c0,0,0,0,0-0.1v-0.1c0.3-0.4,0.4-0.8,0.5-1.2c0-0.1-0.2-0.6-0.4,0.2
	C34.2,40.9,34,41.3,33.8,41.7z"/>
<path style="fill:#AE3A6F;" d="M35.8,42.8c-0.1-0.1-0.2,0.4,0,0.6s0.8,0.5,1.1,0.2c0.1-0.2,0-0.4-0.2-0.4
	C36.4,43.2,36,43.1,35.8,42.8z"/>
<path style="fill:#AE3A6F;" d="M37.4,40.5c-0.3,0.4-0.3,1,0,1.4c0.5,0.8,0.8,1.3,1,0.7C38.3,42.2,37.3,41.4,37.4,40.5z"/>
<path style="fill:#AE3A6F;" d="M38.5,40c0,0-0.7-0.5-0.8-0.3c-0.1,0.7,0.1,1.5,0.6,2c0.5,0.4,0.9,0.8,1,0.3
	c-0.1-0.5-0.4-0.9-0.7-1.2C38.3,40.5,38.2,40.1,38.5,40z"/>
<path style="fill:#AE3A6F;" d="M39,39.5c0,0-0.4-0.1-0.2,0.3c0.3,0.5,0.7,0.9,1.2,1.2c0.3,0,0.6,0,0-0.7c-0.2-0.1-0.3-0.3-0.4-0.4
	L39,39.5z"/>
<path style="fill:#AE3A6F;" d="M10.6,40.6c0-0.1-0.5,0.2-0.2,0.5s1-0.2,1.2-0.6c0.5-0.8,0.7-1.8,0.6-2.8c-0.1-0.5-0.2-1.2-0.4-0.8
	c-0.1,0.4-0.2,0.7-0.1,1.1c0,0.8-0.2,1.6-0.6,2.3C10.6,40.7,10.7,40.7,10.6,40.6z"/>
<path style="fill:#AE3A6F;" d="M13.2,39.2c0-0.1-0.5-0.2-0.8,0.2s0.1,0.8,0.3,0.7S13.3,39.5,13.2,39.2z"/>
<path style="fill:#AE3A6F;" d="M13.8,40.5c0,0,0.7-0.2-0.1-0.5c-0.2,0.2-0.9,0.5-0.5,1c0.1,0.1,0.2,0,0.4-0.2S13.8,40.6,13.8,40.5z"
	/>
<path style="fill:#AE3A6F;" d="M14.9,31.6c0.1-0.1-0.9,1.7,0.4,2.8s1.5,1.7,1.1,2.3s-3,1.6-3.4,1.3c-0.2-0.6-0.4-1.7-1.1-1.5
	c-0.3,0.2-0.6,0.3-0.4,1.1c0,0.2-1.7,0.1-2-1.8s-0.2-4.7,0.9-6.2c1-1.3,2.6-1.9,4.2-1.7c0.7,0.3,1.2,1,0.6,1.5s-3,1.8-2.3,2.5
	C13.5,32.3,14.4,32.2,14.9,31.6z"/>
<path style="fill:#5B002E;" d="M16.8,41.7l-0.2,0.4c-0.1,0.1-0.4,0.3-0.2-0.2c0.5-1,1.3-2,2.2-2.7c0.7-0.4,2.2-1.5,3-1
	c0.6,0.5,0.9,1.4,0.7,2.2c-0.2,1-0.7,2.3-2.2,2.4c-0.9,0.1-1.9,0-2.8-0.3C17,42.2,16.8,42,16.8,41.7z"/>
<path style="fill:#7A1D39;" d="M36.3,27.5c-1.4-1-3.4-1-4.7,0.2c-1.2,1.2-2.3,2.3-0.7,5.8c1.8,3,1.8,4,3.2,4.2s3.4,0.5,4.7-1.1
	c1.2-1.2,1.7-2.9,1.3-4.6c-0.1-0.4-0.4-0.8-0.7-1.1C38.6,29.6,37.5,28.4,36.3,27.5z"/>
<path style="fill:#7A1D39;" d="M22.7,32.3c0,0,0.6,0.1,0.5,0.5c-0.4,2-1.9,3.5-3.9,3.9c-3.1,0.6-5.1-0.9-5.6-2.1
	c-0.4-0.8-0.5-1.7-0.4-2.6c-0.2,0-1.3,0.2-1.6-0.1s-0.3-0.3,0.2-0.2c0.9,0.1,1.8-0.1,2.6-0.6c1.3-0.8,2.4-1.8,3.3-3
	c0.1,0.4,0,0.9-0.4,1.2c-0.5,0.4-2,2.1-3.8,2.6c-0.3,1.5,0.3,3,1.6,3.9c1.6,0.8,3.8,1.1,5.1,0.3S22.8,33.4,22.7,32.3z"/>
<path style="fill:#5B002E;" d="M20.5,26.6c0.1,0-0.6-0.3-0.9,0C19,27,18.4,27.5,17.8,28c-0.3,0.4,0.1,0.5-0.4,1.2
	c0.3-0.3,1.3-1.2,1.3-1.2s2.6,0.8,3.2,1.9c0.4,0.8,0.5,0.8,0.6,1.1s0.4,0.1,0.4,0.1c-0.2-1.3-1.1-2.4-2.4-2.8l-1.7-0.6
	C19.3,27.3,19.9,26.9,20.5,26.6z"/>
<path style="fill:#3F0020;" d="M17.2,41.2c0.1,0,1.4-1.9,2.3-2.3c0.7-0.2,1.7-0.7,1.9-0.4c0.5,0.8,0.6,1.8,0.1,2.6
	c-0.7,0.9-1.7,1.3-2.8,1.2c-0.8-0.1-0.7,0.2-0.3,0.2s2.2,0.6,3.4-0.8c0.6-1.2,0.9-2.4,0.5-3c-0.4-0.4-0.9-0.6-1.4-0.5
	c-0.9,0.2-1.8,0.6-2.5,1.3C17.5,40.5,16.9,41,17.2,41.2z"/>
<path style="fill:#3F0020;" d="M36.5,38.8c0.3,0.3,0.4,0.6,0.5,1c0,0.4-0.1,0.7-0.3,0.2s-0.5-1.1-0.7-1c-0.4,0.4-0.6,0.9-0.6,1.5
	c0.1,0.3-0.2,0.5-0.2,0.2s0.1-2,0.8-2.1C36.2,38.5,36.3,38.7,36.5,38.8z"/>
<path style="fill:#3F0020;" d="M35.5,41.6c-0.1,0.2-0.2,0.4-0.2,0.6c-0.1,0.9-0.3,1.8-0.6,2.7l-0.6,0.8l0.4,0.1
	c0.7-0.7,1.1-1.6,1.2-2.6C35.7,42.7,35.7,42.1,35.5,41.6z"/>
<path style="fill:#5B002E;" d="M37.2,42.2l-0.1,0.3c0.5,0.7,1.2,1.3,1.9,1.8c1.1,0.5,2.3,0.8,3.5,1l0.2-0.1c0,0-2.7-0.7-3.2-0.9
	C38.6,43.8,37.8,43.1,37.2,42.2z"/>
<path style="fill:#5B002E;" d="M41.6,39.6c0.4,0.3,0.8,0.5,1.2,0.8c0.9,0.6,1.9,1.1,2.9,1.5c0.3,0.1,0.7,0.2,1,0.3
	c-0.6,0-1.2-0.1-1.8-0.3c-1.1-0.4-2-1-2.9-1.8C41.8,39.9,41.2,39.8,41.6,39.6z"/>
<path style="fill:#3F0020;" d="M11.6,44.6c0.9-0.2,1.7-0.8,2.2-1.6c0.4-0.9,0.7-2,0.4-1.9c-0.2,1.7-1.5,3.1-3.2,3.4
	C11.2,44.6,11.4,44.6,11.6,44.6z"/>
<path style="fill:#3F0020;" d="M13.8,39.7c-0.1,0-0.4,0.1,0,0.3c0.5-0.1,1,0.2,1.1,0.7c0,0,0,0,0,0v0.1c0,0.4-0.1,0.8-0.4,1.1
	c-0.2,0.2-0.1,0.4,0.1,0.2c0.5-0.5,0.6-1.4,0.2-2C14.6,39.7,14.2,39.6,13.8,39.7z"/>
<path style="fill:#5B002E;" d="M8.7,40.4c-0.1-0.1-0.7-0.2-0.1,0.2c0.6,0.5,1.6,0.5,2.2,0c0.4-0.6,0.7-1.3,0.9-2
	c-0.1-0.1-0.2-0.3-0.3,0.1s-0.7,1.9-1.4,1.9C9.6,40.6,9.1,40.5,8.7,40.4z"/>
<path style="fill:#FFFFFF;" d="M23.6,30.8c-1-1.2-2.7-1.7-4.2-1.2c-2.6,0.9-4.8,2.5-4.6,5.8c1.6,1.6,4.2,1.9,6,0.5
	C22.4,34.7,24.2,32.9,23.6,30.8z"/>
<path style="fill:#FFFFFF;" d="M38.2,28.5c0,0-3.3-3.2-6.7-0.5c-1.9,1.2-2.8,3.5-2.1,5.7c0.6,3,4.6,4.7,7,3.7s3.7-2.1,3.7-5.5
	C39.8,30.6,39.2,29.4,38.2,28.5z"/>
<path style="fill:#81BA50;" d="M12,21.2c0,0,1.4-7.9,6.8-11.5S27,5.4,31,6.2c2.3,0.5,4,2.3,4.5,4.6c1.9,1.8,2.6,4.5,2,7
	c-1,4.5-7,7.9-12.7,7.9S12,21.2,12,21.2z"/>
<path style="fill:#6EB35B;" d="M31.7,7.8c0,0-1.3-0.2-0.9,0.8c0.6,1.3,0.2,2.8-0.9,3.6c-1.5,1.3-7.1,4.2-7.9,4.7s-1.2,1.8,0.2,1.5
	s7.8-3.9,8.7-4.4s3.4-0.3,3.8,0.5c0.3,1.4,0,2.9-0.9,4c-0.8,0.9-7.1,5.2-9.2,5.2s-1.9,0.3-1.4,0.5s6,1.3,11-3.4
	c2.6-3.3,3.9-7.5,1-9.6c-0.3-0.4-0.5-0.8-0.7-1.3C34,8.7,32.9,7.9,31.7,7.8z"/>
<path style="fill:#48A955;" d="M32.3,7.8c-0.2-0.1,1.6,2,0.3,3.5s-1.4,2.3-9.4,6.6c0,0,7.3-3.3,9-4.6s4.4,1.6,3.1,4s-0.4,1-1,1.7
	c0.9-0.8,1.5-1.8,1.7-2.9c0.2-1.5-0.5-3-1.8-3.9C33.5,11.9,34.3,9.5,32.3,7.8z"/>
<path style="fill:#AE3A6F;" d="M37.1,29.2c-0.1,0-1.7,0-1.6,2.1S37,34,38,33.6c0.7-0.3,1.3-1.1,1-2.9C38.6,29.8,38.3,29.3,37.1,29.2
	z"/>
<path style="fill:#AE3A6F;" d="M21.2,30.9c-1.3-0.3-2.7,0.3-3.5,1.4c-0.8,1.5-0.8,2.8,0.3,3.8c0.8,0.4,1.5,0.8,3.7-1
	c0.7-1,1.6-2.7,0.6-3.6C22,31.2,21.6,31,21.2,30.9z"/>
<path style="fill:#262424;" d="M20.8,31.2c0,0-3.4-0.2-3.5,3.1c0,0.9,1,2.3,2.2,1.9c1.1-0.3,2-0.9,2.6-1.9c0.5-1,0.9-2,0-2.6
	C21.7,31.4,21.3,31.3,20.8,31.2z"/>
<path style="fill:#262424;" d="M37.9,29.6c-0.7-0.4-1.6-0.1-2,0.6c-0.1,0.1-0.1,0.2-0.1,0.4c-0.4,1.6,0.9,3,1.9,2.7s1.4-1,1-2.6
	C38.6,30.2,38.3,29.8,37.9,29.6z"/>
<circle style="fill:#FFFFFF;" cx="36.1" cy="30.3" r="0.6"/>
<circle style="fill:#FFFFFF;" cx="37.2" cy="30.6" r="0.3"/>
<circle style="fill:#FFFFFF;" cx="39" cy="32" r="0.4"/>
<circle style="fill:#FFFFFF;" cx="18.1" cy="33" r="0.7"/>
<circle style="fill:#FFFFFF;" cx="19.3" cy="33.5" r="0.3"/>
<path style="fill:#FFFFFF;" d="M19.2,38.8c-0.1,0-0.9,0.5-0.5,0.9c0.4,0.5,1.1,0.6,1.6,0.3c0.5-0.4,0.6-1.3-0.2-1.5
	C19.8,38.6,19.5,38.7,19.2,38.8z"/>
<path style="fill:#5B002E;" d="M35.5,23.6c1.2,0.5,2.4,1.1,3.5,1.8c0.3,0.3,0.6,0.5,0.9,0.7l0.7,0.4c0.3,0.2-0.4,0.1-0.9-0.2
	s-1.9-1.3-2.3-1.5S35.2,23.7,35.5,23.6z"/>
<path style="fill:#8F1F43;" d="M26.9,57.3c-0.2,0-0.9-0.5-2.8,0.9s-2.7,2-1.8,2h11.8c0.5,0-0.2-0.3-1-0.6L26.9,57.3z"/>
<path style="fill:#AE3A6F;" d="M25.6,58.6c0,0,1-0.5,0.5-1.1s-3.3,2-3.5,2.2s-0.2,1.1,0.6,0.7L25.6,58.6z"/>
</svg>
