<?xml version="1.0" encoding="utf-8"?>
<!-- Generator: Adobe Illustrator 22.0.0, SVG Export Plug-In . SVG Version: 6.00 Build 0)  -->
<svg version="1.1" id="Слой_1" xmlns="http://www.w3.org/2000/svg" xmlns:xlink="http://www.w3.org/1999/xlink" x="0px" y="0px"
	 viewBox="0 0 55.8 62.9" style="enable-background:new 0 0 55.8 62.9;" xml:space="preserve">
<title>Artboard 1 копия 4</title>
<g id="Слой_15">
	<path style="fill:#C0D99C;" d="M27.5,61.3l-4.8,0c-1.6,0-3.2,0-4.8-0.1h-0.5c-0.3,0-0.5-0.2-0.5-0.5c0-0.1,0-0.2,0.1-0.3l0.3-0.4
		c0.2-0.3,0.5-0.6,0.7-0.9c0.2-0.2,0.5-0.4,0.8-0.6c0.5-0.4,1.1-0.7,1.7-1c0.6-0.3,1.2-0.5,1.8-0.7l0.9-0.2l0.4-0.1
		c0-1.2,0-2.5-0.1-3.7l-0.1-2.1c-1-0.1-2-0.4-2.9-0.7c-1.2-0.4-2.3-1.1-3.2-1.8c-0.1,0.3-0.3,0.5-0.4,0.7c-0.4,0.5-0.9,0.8-1.4,1.1
		c-0.5,0.3-1.2,0.5-1.8,0.5h-0.1c-0.2,0-0.3,0-0.5-0.1c-0.3-0.1-0.5-0.2-0.7-0.4c-0.1-0.2-0.2-0.3-0.3-0.5l-0.1-0.1
		c-0.2-0.1-0.4-0.3-0.4-0.5c0-0.1-0.1-0.2-0.1-0.3l-0.2-0.1c-0.2-0.1-0.4-0.3-0.5-0.5c0-0.2,0-0.3,0-0.5v-0.1l-0.2-0.1
		c-0.3-0.1-0.6-0.2-0.9-0.4c-0.3-0.2-0.6-0.4-0.8-0.6c-0.2-0.2-0.5-0.5-0.6-0.8c-0.4-0.7-0.5-1.4-0.4-2.2c0.1-0.6,0.2-1.3,0.4-1.9
		c0.2-0.6,0.5-1.1,0.7-1.7c0.4-0.8,0.9-1.5,1.4-2.3c-0.1-0.4-0.3-0.8-0.4-1.2c-0.4-1.1-0.6-2.3-0.8-3.4c-0.4-2.4-0.3-4.8,0.3-7.2
		c0.1-0.3,0.2-0.5,0.3-0.8c0.1-0.3,0.3-0.6,0.4-0.9c0.1-0.3,0.3-0.5,0.5-0.8c0.1-0.3,0.3-0.5,0.5-0.7c0.7-1,1.4-1.9,2.3-2.8
		c0.9-0.8,1.9-1.5,3-2.1c0.5-0.3,1.1-0.5,1.7-0.7c0.6-0.2,1.2-0.3,1.9-0.4c0.3,0,0.6,0,1,0h0.4c-0.1-0.2-0.3-0.4-0.4-0.6
		c-0.4-0.7-0.7-1.5-0.8-2.3c-0.1-0.4-0.1-0.8-0.2-1.2v-0.6v-0.6c0.1-0.8,0.3-1.7,0.6-2.5c0.4-0.7,0.8-1.4,1.4-2
		c0.3-0.3,0.6-0.6,0.9-0.8c0.1-0.1,0.3-0.2,0.5-0.3l0.3-0.2L24,5.4c0.1,0,0.2-0.1,0.3-0.1h0.1c0.1,0,0.3,0.1,0.4,0.2
		c0.6,0.7,1.6,1.7,2.6,2.8l0.2,0.3c0.3-0.2,0.7-0.3,1.1-0.3h0.1c0.7,0,1.5,0.2,2,0.7c0.4,0.4,0.6,1,0.5,1.6c-0.1,1.2,0,4.7,0,6.7
		c0.6,0,1.1-0.1,1.6-0.1h0.9c1.2,0.1,2.4,0.3,3.5,0.8c1.1,0.5,2.1,1.2,3,2c0.9,0.8,1.7,1.7,2.3,2.6c0.7,1,1.3,2,1.7,3.1
		c0.5,1.1,0.8,2.2,1,3.4c0.1,0.6,0.2,1.2,0.2,1.9c0,0.6-0.1,1.2-0.2,1.8c-0.2,1.1-0.5,2.3-0.8,3.4c0,0.2-0.1,0.3-0.1,0.4
		c0.4,0.3,0.8,0.6,1.2,1c0.9,0.9,1.6,1.9,2.1,3.1c0.5,1.3,0.4,2.7-0.1,3.9c0,0.1-0.1,0.3-0.2,0.4c-0.1,0.2-0.2,0.3-0.3,0.5
		c-0.2,0.3-0.5,0.5-0.8,0.8c-0.4,0.3-0.7,0.5-1.1,0.6c0,0.3-0.2,0.5-0.4,0.7c-0.2,0.1-0.3,0.3-0.5,0.3c-0.1,0.2-0.3,0.4-0.5,0.5
		c0,0.1,0,0.2,0,0.3c0,0.2-0.1,0.4-0.3,0.6c-0.1,0.1-0.3,0.2-0.4,0.3c-0.1,0-0.3,0.1-0.4,0.1h-0.3c-0.7,0-1.3-0.2-1.9-0.4
		c-0.7-0.3-1.3-0.8-1.6-1.5v-0.1c-0.3,0.3-0.5,0.6-0.8,0.8c-0.9,0.9-2,1.5-3.2,2c-0.6,0.2-1.2,0.3-1.8,0.4c-0.5,0.1-0.9,0.1-1.4,0.2
		l0,0c0,0.6,0,1.2-0.1,1.8l-0.2,3.8l0.5,0l0.3,0.1l0.6,0.1c0.7,0.2,1.3,0.4,1.9,0.6c0.6,0.3,1.2,0.6,1.8,1c0.6,0.4,1.1,1,1.5,1.6
		l0.3,0.5c0.1,0.2,0.1,0.5-0.2,0.7c-0.1,0-0.2,0.1-0.2,0.1h-0.6c-1.6,0-3.2,0.1-4.8,0.1h-3.2L27.5,61.3z"/>
	<path style="fill:#FFFFFF;" d="M24.4,5.8c0.8,0.9,1.7,1.8,2.5,2.8l0.5,0.6c0.3-0.3,0.7-0.4,1.2-0.4h0.1c0.6-0.1,1.2,0.1,1.7,0.6
		c0.3,0.3,0.4,0.8,0.4,1.2c-0.1,1.4,0,5.5,0,7.3c0.7-0.1,1.4-0.1,2.1-0.1h0.8c1.1,0.1,2.3,0.3,3.3,0.8c1,0.5,2,1.1,2.9,1.9
		c0.8,0.8,1.6,1.6,2.3,2.5c0.7,0.9,1.2,1.9,1.7,3c0.5,1.1,0.8,2.2,1,3.3c0.1,0.6,0.1,1.1,0,1.7c0,0.6-0.1,1.2-0.2,1.7
		c-0.2,1.1-0.5,2.2-0.8,3.3c-0.1,0.3-0.2,0.5-0.3,0.8c0.5,0.4,1,0.7,1.4,1.2c0.9,0.8,1.6,1.8,2,2.9c0.4,1.2,0.4,2.4-0.2,3.5
		c-0.1,0.1-0.1,0.3-0.2,0.4c-0.1,0.1-0.2,0.3-0.3,0.4c-0.2,0.3-0.4,0.5-0.7,0.7c-0.4,0.3-0.9,0.5-1.3,0.7c0,0,0,0.1,0,0.1
		c0,0.2-0.1,0.4-0.2,0.5c-0.1,0.1-0.3,0.2-0.5,0.2h-0.1c0,0,0,0.1,0,0.1c-0.1,0.2-0.2,0.3-0.4,0.3c-0.1,0-0.2,0-0.3,0h-0.1L43,48
		c0.1,0.2,0.1,0.3,0.1,0.5c0,0.1-0.1,0.2-0.1,0.3c-0.1,0.1-0.2,0.1-0.3,0.1c-0.1,0-0.2,0-0.3,0h-0.2c-0.6,0-1.2-0.2-1.8-0.4
		c-0.6-0.2-1.1-0.7-1.4-1.3c-0.1-0.3-0.2-0.5-0.3-0.8c-0.4,0.5-0.9,1.1-1.4,1.6c-0.9,0.8-1.9,1.4-3,1.8c-0.6,0.2-1.1,0.3-1.7,0.3
		c-0.5,0.1-1,0.1-1.5,0.2l-0.3,0.2c0,0.7,0,1.4-0.1,2.1l-0.2,4.2l0.9,0.1c0.3,0.1,0.6,0.1,0.9,0.2c0.6,0.1,1.2,0.3,1.8,0.6
		c0.6,0.3,1.2,0.6,1.7,1c0.5,0.4,1,0.9,1.4,1.5l0.3,0.5h-0.6c-1.6,0-3.2,0.1-4.8,0.1H29h-1.5l-4.8,0c-1.6,0-3.2,0-4.8-0.1h-0.5
		l0.3-0.4c0.2-0.3,0.4-0.5,0.7-0.8c0.2-0.2,0.5-0.4,0.7-0.6c0.5-0.4,1.1-0.7,1.6-0.9c0.6-0.2,1.2-0.5,1.8-0.6l0.9-0.2l0.8-0.2
		c0-1.4,0-2.8-0.1-4.2L24,50.3c-1.1-0.1-2.2-0.4-3.2-0.8c-1.3-0.5-2.6-1.3-3.6-2.2c-0.1,0.5-0.3,0.9-0.6,1.3
		c-0.3,0.4-0.8,0.8-1.2,1.1c-0.5,0.3-1,0.5-1.6,0.5h-0.1c-0.1,0-0.2,0-0.4,0c-0.2,0-0.4-0.1-0.5-0.3c-0.1-0.1-0.2-0.3-0.2-0.5
		c0,0,0-0.1,0-0.1h0c-0.1,0-0.2,0-0.3-0.1c-0.1-0.1-0.2-0.1-0.2-0.3c-0.1-0.2-0.1-0.4,0-0.5l0,0H12c-0.2,0-0.4,0-0.5-0.1
		c-0.1-0.1-0.2-0.1-0.2-0.2c0-0.1,0-0.2,0-0.3c0-0.1,0-0.3,0.1-0.4l0,0h-0.2c-0.1,0-0.3-0.1-0.4-0.1c-0.3-0.2-0.5-0.3-0.8-0.5
		c-0.3-0.2-0.5-0.4-0.7-0.6c-0.2-0.2-0.4-0.5-0.6-0.7c-0.3-0.6-0.4-1.2-0.3-1.8c0.1-0.6,0.2-1.2,0.4-1.8c0.2-0.6,0.4-1.1,0.7-1.6
		c0.4-0.8,1-1.6,1.5-2.4c-0.2-0.5-0.4-0.9-0.5-1.4c-0.4-1.1-0.6-2.2-0.8-3.4C9.3,30.6,9.4,28.2,10,26c0.1-0.3,0.2-0.6,0.3-0.8
		c0.1-0.3,0.2-0.6,0.4-0.8c0.1-0.3,0.3-0.5,0.4-0.8c0.1-0.3,0.3-0.5,0.5-0.7c0.6-1,1.4-1.9,2.2-2.7c0.9-0.8,1.8-1.5,2.9-2
		c0.5-0.3,1.1-0.5,1.6-0.6c0.6-0.2,1.2-0.3,1.7-0.3c0.3,0,0.6,0,0.9,0c0.5,0,1,0,1.5,0.1c-0.4-0.4-0.7-0.9-1-1.5
		c-0.4-0.7-0.6-1.4-0.8-2.2c-0.1-0.4-0.1-0.8-0.1-1.1v-0.6v-0.6c0.1-0.8,0.2-1.6,0.6-2.3c0.3-0.7,0.8-1.3,1.3-1.9
		c0.3-0.3,0.6-0.5,0.9-0.7c0.1-0.1,0.3-0.2,0.5-0.3l0.3-0.1l0.1-0.1C24.3,5.8,24.4,5.8,24.4,5.8 M27.2,18L27.2,18L27.2,18L27.2,18
		 M42,41.6L42,41.6 M11.5,47.2L11.5,47.2 M24.4,4.8h-0.2c-0.1,0-0.2,0.1-0.3,0.1l0,0L23.7,5l-0.3,0.2c-0.2,0.1-0.4,0.2-0.5,0.4
		c-0.4,0.2-0.7,0.5-1,0.8c-0.6,0.6-1.2,1.4-1.5,2.2c-0.4,0.8-0.6,1.7-0.6,2.6v0.6c0,0,0,0.1,0,0.1v0.6c0,0.4,0.1,0.9,0.2,1.3
		c0.2,0.8,0.4,1.6,0.8,2.4H20c-0.7,0.1-1.3,0.2-1.9,0.4c-0.6,0.2-1.2,0.4-1.8,0.7c-1.2,0.5-2.2,1.3-3.2,2.2
		c-0.9,0.9-1.7,1.8-2.4,2.9c-0.2,0.3-0.3,0.5-0.5,0.8c-0.2,0.3-0.3,0.5-0.5,0.8c-0.2,0.3-0.3,0.6-0.4,0.9l0,0
		C9.2,25,9.1,25.3,9,25.6C8.4,28,8.3,30.5,8.7,33c0.2,1.2,0.5,2.4,0.9,3.5c0.1,0.3,0.2,0.6,0.3,1c-0.5,0.7-0.9,1.4-1.3,2.1
		c-0.3,0.6-0.6,1.1-0.8,1.8c-0.2,0.6-0.4,1.3-0.5,2c-0.1,0.8,0.1,1.7,0.5,2.5c0.2,0.3,0.4,0.6,0.7,0.9c0.3,0.3,0.6,0.5,0.9,0.7
		c0.3,0.2,0.6,0.3,0.9,0.4c0,0.1,0,0.2,0.1,0.3c0.1,0.4,0.4,0.6,0.7,0.8l0,0v0.1c0.1,0.3,0.3,0.6,0.6,0.8c0.1,0.2,0.2,0.4,0.3,0.5
		c0.3,0.3,0.6,0.5,1,0.6c0.2,0,0.4,0.1,0.6,0.1h0.2c0.7,0,1.4-0.3,2-0.6c0.6-0.3,1.1-0.8,1.6-1.3l0.2-0.3c0.9,0.7,1.9,1.2,2.9,1.6
		c0.8,0.3,1.7,0.5,2.6,0.7l0,1.7c0,1.2,0.1,2.3,0.1,3.3H23l-0.9,0.2c-0.6,0.2-1.2,0.4-1.8,0.7c-0.6,0.3-1.2,0.6-1.8,1
		c-0.3,0.2-0.6,0.4-0.9,0.7c-0.3,0.3-0.6,0.6-0.8,0.9L16.6,60c-0.3,0.5-0.2,1.1,0.3,1.4c0.2,0.1,0.3,0.2,0.5,0.2h0.5
		c1.6,0,3.2,0.1,4.8,0.1l4.8,0H29h3.3c1.6,0,3.3,0,4.8-0.1h0.6c0.6,0,1-0.5,1-1c0-0.2-0.1-0.4-0.2-0.5l-0.3-0.5
		c-0.4-0.7-1-1.3-1.6-1.7c-0.6-0.4-1.2-0.8-1.9-1.1c-0.6-0.3-1.3-0.5-2-0.7L32.1,56h-0.3h-0.1l0.1-3.3c0-0.5,0-0.9,0-1.4l1-0.1
		c0.6-0.1,1.2-0.2,1.8-0.4c1.3-0.4,2.4-1.1,3.4-2.1l0.4-0.4c0.4,0.5,1,1,1.6,1.2c0.7,0.3,1.3,0.4,2,0.4h0.3c0.2,0,0.3,0,0.5-0.1H43
		c0.2-0.1,0.5-0.2,0.7-0.4c0.2-0.2,0.4-0.5,0.4-0.8l0,0c0.2-0.1,0.3-0.2,0.4-0.4c0.2-0.1,0.4-0.2,0.6-0.4c0.2-0.2,0.3-0.4,0.4-0.7
		c0.4-0.2,0.7-0.4,1-0.6c0.3-0.2,0.6-0.5,0.9-0.9c0.1-0.2,0.3-0.4,0.4-0.6c0.1-0.2,0.1-0.3,0.2-0.5c0.6-1.4,0.7-3,0.1-4.4
		c-0.5-1.2-1.2-2.3-2.2-3.2c-0.3-0.3-0.6-0.5-0.9-0.8v-0.1c0.3-1.1,0.6-2.3,0.8-3.5c0.1-0.6,0.2-1.2,0.3-1.8c0-0.7,0-1.3-0.1-2
		c-0.2-1.2-0.5-2.4-1-3.5c-0.5-1.1-1.1-2.2-1.8-3.2c-0.7-1-1.5-1.9-2.4-2.7c-0.9-0.8-2-1.5-3.1-2c-1.2-0.5-2.4-0.8-3.7-0.8H33
		c-0.4,0-0.7,0-1.1,0c0-2,0-5,0-6.1c0.1-0.7-0.2-1.5-0.7-2c-0.6-0.6-1.5-0.9-2.4-0.9h-0.1c-0.3,0-0.6,0.1-0.9,0.2
		c-1-1.1-1.9-2.2-2.6-2.8C25,4.9,24.7,4.8,24.4,4.8L24.4,4.8z"/>
	<path style="fill:#A4C971;" d="M27.5,10c0,0,0.1-0.8,1.2-0.9s1.9,0.4,1.8,1.4c-0.1,1.8,0,8.1,0,8.1h-2.8L27.5,10z"/>
	<path style="fill:#93C156;" d="M30.9,19h-3.6l-0.2-9l0,0c0.2-0.7,0.8-1.2,1.6-1.2c0.7-0.1,1.3,0.1,1.8,0.6c0.3,0.3,0.4,0.8,0.4,1.2
		c-0.1,1.7,0,8,0,8.1L30.9,19z M28,18.2h2c0-1.4-0.1-6.2,0-7.7c0-0.2,0-0.5-0.2-0.6c-0.3-0.3-0.8-0.4-1.2-0.3
		c-0.7,0-0.8,0.4-0.8,0.5L28,18.2z"/>
	<path style="fill:#A4C971;" d="M30.6,56.9v-8.4h-6.3V57c-5,0.9-6.4,3.3-6.4,3.3h19.2C37.1,60.3,35.7,57.6,30.6,56.9z"/>
	<path style="fill:#93C156;" d="M30.6,56.9c-0.1-1.3-0.1-2.7-0.2-4.1s-0.1-2.8-0.1-4.3l0.3,0.3h-3.2c-1,0-2.1,0-3.2,0l0.3-0.3
		l-0.1,4.3c0,1.4-0.1,2.8-0.1,4.3v0.1h-0.1l-0.9,0.2l-0.9,0.2c-0.6,0.2-1.1,0.4-1.7,0.7c-0.5,0.3-1.1,0.6-1.5,1
		c-0.2,0.2-0.5,0.4-0.7,0.6c-0.2,0.2-0.4,0.4-0.5,0.7l-0.2-0.4c1.6-0.1,3.2-0.1,4.8-0.1l4.8,0c1.6,0,3.2,0,4.8,0
		c1.6,0,3.2,0,4.8,0.1l-0.3,0.5c-0.1-0.3-0.3-0.5-0.5-0.7c-0.2-0.2-0.4-0.4-0.6-0.6c-0.5-0.4-1-0.7-1.5-1c-0.3-0.1-0.6-0.3-0.8-0.4
		c-0.3-0.1-0.6-0.2-0.9-0.3s-0.6-0.2-0.9-0.3L30.6,56.9z M30.6,56.9l0.9,0.1c0.3,0.1,0.6,0.1,0.9,0.2c0.6,0.1,1.2,0.3,1.8,0.6
		c0.6,0.3,1.2,0.6,1.7,1c0.5,0.4,1,0.9,1.4,1.5l0.3,0.5h-0.6c-1.6,0-3.2,0.1-4.8,0.1c-1.6,0-3.2,0-4.8,0l-4.8,0
		c-1.6,0-3.2,0-4.8-0.1h-0.5l0.3-0.4c0.2-0.3,0.4-0.5,0.7-0.8c0.2-0.2,0.5-0.4,0.7-0.6c0.5-0.3,1.1-0.6,1.6-0.9
		c0.6-0.2,1.2-0.5,1.8-0.6l0.9-0.2l0.9-0.2l-0.1,0.1c0-1.4,0-2.8-0.1-4.3L24,48.5v-0.3h0.3c1,0,2.1,0,3.2,0h3.2H31v0.3
		c0,1.4-0.1,2.7-0.1,4.1L30.6,56.9z"/>
	<path style="fill:#A4C971;" d="M40,20.4c3,2.6,4.7,6.2,4.9,10.1c0,3.5-4.6,17.9-11.1,19.2c-4.4,0.9-10.3,1.1-14.2-1
		c-3.2-1.8-5.8-5.5-7.9-10.6c-1.7-4.1-2.7-10-0.3-13.9s4.7-5.3,6.7-6.1c3.4-1.3,6.2-0.2,8.8,0.1C30.1,18.7,35.1,16,40,20.4z"/>
	<path style="fill:#93C156;" d="M40,20.4c0.8,0.8,1.6,1.6,2.3,2.5c0.7,0.9,1.2,1.9,1.7,3c0.5,1.1,0.8,2.2,1,3.3
		c0.1,0.6,0.1,1.1,0,1.7c0,0.6-0.1,1.2-0.2,1.7c-0.2,1.1-0.5,2.2-0.8,3.3c-0.3,1.1-0.7,2.2-1.1,3.3c-0.8,2.1-1.9,4.2-3.2,6.1
		c-0.7,1-1.4,1.9-2.3,2.7c-0.9,0.8-1.9,1.4-3,1.8c-0.6,0.2-1.1,0.3-1.7,0.3c-0.6,0.1-1.1,0.2-1.7,0.2c-1.1,0.1-2.3,0.2-3.4,0.2
		c-1.1,0-2.3-0.1-3.4-0.2c-1.1-0.1-2.3-0.4-3.3-0.8c-2.2-0.8-4-2.3-5.4-4.1c-1.4-1.8-2.6-3.8-3.6-5.9c-0.5-1-0.9-2.1-1.3-3.2
		c-0.4-1.1-0.6-2.2-0.8-3.4c-0.4-2.3-0.3-4.7,0.3-7c0.1-0.3,0.2-0.6,0.3-0.8c0.1-0.3,0.2-0.6,0.4-0.8c0.1-0.3,0.3-0.5,0.4-0.8
		c0.1-0.3,0.3-0.5,0.5-0.7c0.6-1,1.4-1.9,2.2-2.7c0.9-0.8,1.8-1.5,2.9-2c0.5-0.3,1.1-0.5,1.6-0.6c0.6-0.2,1.2-0.3,1.7-0.3
		c1.2-0.1,2.3,0,3.5,0.2c1.1,0.2,2.2,0.5,3.3,0.6c1.1,0.1,2.2,0,3.4-0.2c1.1-0.1,2.3-0.2,3.4-0.1c1.1,0.1,2.3,0.3,3.3,0.8
		C38.1,19,39.1,19.6,40,20.4z M40,20.4c-0.8-0.8-1.8-1.4-2.8-1.8c-1-0.4-2.2-0.6-3.3-0.6c-1.1,0-2.3,0.1-3.4,0.3
		c-1.1,0.2-2.3,0.3-3.4,0.3c-1.2-0.1-2.3-0.3-3.4-0.5c-1.1-0.2-2.2-0.2-3.3-0.1c-0.5,0.1-1.1,0.2-1.6,0.4c-0.5,0.2-1,0.4-1.5,0.6
		c-1,0.5-1.9,1.1-2.7,1.9c-0.8,0.8-1.5,1.6-2.1,2.6c-0.6,0.9-1.1,1.9-1.5,2.9c-0.6,2.1-0.8,4.4-0.4,6.6c0.4,2.2,1,4.4,2,6.4
		c0.9,2.1,2,4.1,3.3,5.9c1.3,1.8,3.1,3.3,5.2,4.1c2.1,0.7,4.4,1.1,6.7,1c1.1,0,2.2-0.1,3.3-0.3c0.6-0.1,1.1-0.2,1.7-0.3
		c0.6-0.1,1.1-0.2,1.6-0.4c1-0.4,1.9-1,2.7-1.8c0.8-0.8,1.5-1.6,2.1-2.6c1.2-1.9,2.3-3.9,3.1-6c0.9-2.1,1.6-4.2,2.1-6.4
		c0.1-0.5,0.2-1.1,0.3-1.6c0.1-0.6,0.1-1.1,0-1.7c-0.1-1.1-0.4-2.2-0.9-3.3c-0.4-1.1-0.9-2.1-1.6-3C41.5,22.1,40.8,21.2,40,20.4
		L40,20.4z"/>
	<path style="fill:#A4C971;" d="M24.4,5.8c0,0,2.8,3.5,3.7,4.7s3.9,7.1-0.9,7.3c-0.4,0.4-0.9,0.7-1.4,0.7c-2.3,0-4.6-2.5-4.8-6.6
		C21,9.4,22.3,7.1,24.4,5.8z"/>
	<path style="fill:#689A4C;" d="M24.4,5.8c0.8,0.9,1.7,1.8,2.5,2.8c0.4,0.5,0.9,1,1.3,1.5c0.4,0.5,0.7,1.1,1,1.7
		c0.3,0.6,0.5,1.2,0.6,1.9c0.2,0.7,0.2,1.3,0.1,2c0,0.7-0.4,1.3-0.9,1.7c-0.6,0.4-1.2,0.6-1.9,0.6l0.1-0.1c-0.3,0.3-0.6,0.6-1,0.7
		c-0.2,0.1-0.4,0.1-0.6,0.1c-0.2,0-0.4,0-0.6,0c-0.8-0.1-1.5-0.5-2.1-1c-0.6-0.5-1.1-1.2-1.4-1.9c-0.4-0.7-0.6-1.4-0.8-2.2
		c-0.1-0.4-0.1-0.8-0.1-1.1v-0.6v-0.6c0.1-0.8,0.3-1.6,0.6-2.4c0.3-0.7,0.8-1.3,1.3-1.9c0.3-0.3,0.6-0.5,0.9-0.7
		c0.1-0.1,0.3-0.2,0.5-0.3l0.3-0.1l0.1-0.1C24.3,5.8,24.4,5.8,24.4,5.8z M24.4,5.9c-1.2,0.9-2.1,2-2.6,3.4c-0.2,0.7-0.4,1.4-0.4,2.1
		c0,0.7,0.1,1.4,0.2,2.1c0.2,1.4,0.9,2.7,1.9,3.7c0.5,0.5,1.1,0.8,1.8,1c0.2,0,0.3,0.1,0.5,0.1c0.2,0,0.3,0,0.5,0
		c0.3-0.1,0.6-0.3,0.9-0.5l0.1-0.1h0.1c0.6,0,1.2-0.1,1.8-0.5c0.2-0.2,0.4-0.4,0.6-0.7c0.1-0.3,0.2-0.6,0.2-0.9
		c-0.1-1.2-0.4-2.4-1.1-3.5c-0.3-0.5-0.6-1.1-0.9-1.6c-0.4-0.5-0.7-1-1.1-1.5C25.9,8.1,25.2,7,24.4,5.9L24.4,5.9z"/>
	<path style="fill:#689A4C;" d="M27.2,17.8c-0.4-0.1-0.9-0.3-1.2-0.6c-0.4-0.3-0.7-0.6-1-1c-0.1-0.2-0.2-0.4-0.3-0.6
		c-0.1-0.2-0.2-0.4-0.3-0.6c-0.2-0.4-0.4-0.8-0.7-1.2l-0.2-0.3l-0.1-0.3c-0.1-0.2-0.2-0.4-0.2-0.7c0-0.2-0.1-0.5-0.1-0.7
		c0-0.2,0-0.5,0-0.7c0-0.5,0.1-0.9,0.2-1.4c0.1-0.4,0.3-0.9,0.6-1.3h0.1c0,0.5,0,0.9,0,1.3s0,0.9,0,1.3c0,0.2,0,0.4,0,0.6
		s0,0.4,0,0.6S24,12.8,24,13s0,0.2,0,0.3l0.1,0.3c0.1,0.4,0.2,0.8,0.5,1.2c0.1,0.2,0.3,0.3,0.4,0.5c0.2,0.1,0.3,0.3,0.5,0.4
		c0.6,0.6,1.2,1.2,1.8,1.9L27.2,17.8z"/>
	<path style="fill:#93C156;" d="M29.3,21.2c1.2-1.7,6-2.9,9.8-0.1s5.3,8.2,3.3,14.8c-1.9,6.2-4.9,10.6-7.5,11.8
		c-3.1,1.5-6.6,1.8-9.9,0.8c2.8-1.6,5.4-3.6,7.7-6c2.8-3.2,5.3-13.9,2.9-15.7S27.1,24.4,29.3,21.2z"/>
	<path style="fill:#689A4C;" d="M19.9,39.7c0.2,0.9,0.8,1.8,1.5,2.4c0.8,0.6,1.6,1,2.5,1.2c0.9,0.3,1.9,0.5,2.9,0.6
		c1,0,2-0.1,2.9-0.4c0.9-0.3,1.8-0.8,2.6-1.3c0.8-0.6,1.5-1.2,2-2c0.6-0.8,1.1-1.6,1.5-2.5c0.1-0.2,0.2-0.4,0.3-0.7
		c0-0.1,0.1-0.1,0.1-0.2c0.1-0.1,0.1-0.2,0.3-0.2c0.2,0,0.3,0,0.5,0c0.3,0.1,0.5,0.2,0.7,0.4c0.1,0.1,0.2,0.2,0.2,0.3
		c0.1,0.1,0,0.3-0.1,0.4H38c0.1-0.2-0.1-0.4-0.3-0.5c-0.2-0.1-0.4-0.2-0.6-0.2c-0.1,0-0.2,0-0.2,0l0,0c0,0,0,0.1,0,0.2
		c0,0.2-0.1,0.5-0.2,0.7c-0.3,1-0.8,1.9-1.4,2.8c-1.3,1.7-3.1,2.8-5.2,3.2c-1,0.2-2,0.3-3,0.3c-0.3,0-0.5,0-0.8,0h-0.8
		c-0.5,0-1-0.1-1.5-0.2c-1-0.2-2-0.7-2.8-1.4C20.3,41.8,19.8,40.8,19.9,39.7L19.9,39.7z"/>
	<path style="fill:#689A4C;" d="M37.1,34.3c0.5-0.3,1.1-0.4,1.6-0.3c0.3,0.1,0.5,0.2,0.8,0.3c0.3,0.1,0.5,0.2,0.8,0.4
		c0.5,0.3,0.8,0.8,0.9,1.4c0.1,0.6,0.1,1.1-0.1,1.7l0,0c0-0.5-0.1-1-0.3-1.6c-0.1-0.2-0.1-0.5-0.3-0.7c-0.1-0.2-0.3-0.4-0.4-0.6
		c-0.2-0.2-0.4-0.3-0.7-0.4c-0.3-0.1-0.5-0.1-0.8-0.1C38.2,34.3,37.8,34.3,37.1,34.3L37.1,34.3z"/>
	<path style="fill:#B8D490;" d="M24.5,20.1c-1.6-2.8-6.5-1.3-9.9,2c-4.9,4.8-3.5,14.6,2.2,20.6c1,1.1-1.5-4.8-1.3-7.6
		C15.8,27.7,26.9,24.3,24.5,20.1z"/>
	<path style="fill:#B4D28A;" d="M21,39.5c-0.4,1,0.3,2.6,3,3.4c3.4,1,5.3,0.3,7.2-1.9s-0.8,0.2-3.8-0.3C25.7,40.5,22.1,37.2,21,39.5
		z"/>
	<path style="fill:#FFFFFF;" d="M21.9,37.9c-1.5,0.2-6.6,0.4-7.7-8.6s6.5-8.3,7.2-7.9s3.1,1.2,3.1,10C24.5,36.4,23.7,37.7,21.9,37.9
		z"/>
	<path style="fill:#689A4C;" d="M21.9,37.9c-0.9,0.1-1.9,0-2.8-0.2c-0.9-0.3-1.8-0.8-2.5-1.5c-0.2-0.2-0.3-0.3-0.5-0.5l-0.2-0.3
		l-0.2-0.3c-0.1-0.2-0.3-0.4-0.4-0.6L15,33.9c-0.4-0.9-0.7-1.8-0.9-2.7c-0.1-0.2-0.1-0.5-0.1-0.7l-0.1-0.7c-0.1-0.5-0.1-0.9-0.1-1.4
		c0-0.9,0.1-1.9,0.3-2.8c0.2-0.9,0.6-1.8,1.3-2.5c0.6-0.7,1.4-1.3,2.3-1.6c0.9-0.3,1.9-0.5,2.9-0.4c0.3,0,0.5,0,0.8,0.1
		c0.1,0,0.1,0,0.2,0.1l0.2,0.1l0.3,0.2c0.4,0.3,0.8,0.6,1.1,1c0.6,0.8,1,1.7,1.2,2.7c0.1,0.5,0.2,0.9,0.3,1.4l0.1,0.7l0.1,0.7
		c0,0.5,0.1,0.9,0.1,1.4s0,0.9,0,1.4c0,0.9-0.1,1.9-0.2,2.8c-0.1,0.9-0.3,1.9-0.6,2.8c-0.2,0.4-0.5,0.8-0.8,1.2
		C22.9,37.7,22.4,37.9,21.9,37.9z M21.9,37.9c0.5,0,0.9-0.2,1.3-0.5c0.3-0.3,0.6-0.7,0.7-1.2c0.2-0.9,0.4-1.8,0.3-2.7
		c0-0.9,0-1.9-0.1-2.8c0-0.5,0-0.9-0.1-1.4S24,28.4,24,28c-0.1-0.9-0.2-1.8-0.4-2.7c-0.2-0.9-0.5-1.7-1-2.5
		c-0.2-0.3-0.5-0.6-0.9-0.9l-0.3-0.2l-0.1-0.1h-0.1c-0.2-0.1-0.4-0.1-0.6-0.1c-0.9-0.1-1.8,0-2.7,0.2c-0.9,0.2-1.7,0.7-2.3,1.4
		c-0.6,0.7-1,1.5-1.1,2.5c-0.2,1.8-0.1,3.6,0.4,5.3c0.4,1.8,1.1,3.5,2.2,5c0.6,0.7,1.3,1.3,2.2,1.6C20,37.9,21,38,21.9,37.9
		L21.9,37.9z"/>
	<path style="fill:#93C156;" d="M21,24.7c1.2,0.8,2.5,1.5,2.7,5.9s-1.5,5.4-2.4,5.6s-3.9,0.4-4.8-5.4C15.6,24,19.8,23.9,21,24.7z"/>
	<path style="fill:#FFFFFF;" d="M28.6,26.5c0,0,0.7-8.6,8-4.3c6.5,3.7,0.6,13.4-2.7,15.6C31.3,39.4,28,38.4,28.6,26.5z"/>
	<path style="fill:#689A4C;" d="M28.6,26.5c0.1-0.9,0.3-1.9,0.6-2.8c0.3-0.9,0.9-1.8,1.7-2.4c0.8-0.6,1.9-0.8,2.9-0.6
		c1,0.2,1.9,0.5,2.7,1c0.9,0.5,1.6,1.2,2.2,2c0.5,0.8,0.8,1.8,0.9,2.8c0.1,1.9-0.3,3.8-1.1,5.6c-0.7,1.8-1.8,3.4-3.1,4.8
		c-0.7,0.8-1.5,1.3-2.5,1.7c-0.3,0.1-0.5,0.1-0.8,0.2c-0.3,0-0.6,0-0.8-0.1c-0.5-0.2-1-0.5-1.3-0.9c-0.3-0.4-0.6-0.8-0.8-1.3
		c-0.2-0.5-0.3-0.9-0.4-1.4c-0.2-0.9-0.3-1.9-0.3-2.9C28.3,30.3,28.5,28.4,28.6,26.5z M28.7,26.5c-0.1,1.9,0,3.8,0.2,5.6
		c0.1,0.9,0.3,1.8,0.5,2.7c0.2,0.9,0.6,1.7,1.1,2.4c0.5,0.6,1.4,0.9,2.1,0.6c0.8-0.3,1.6-0.8,2.2-1.4c1.3-1.3,2.4-2.8,3.3-4.5
		c0.4-0.8,0.8-1.7,1-2.6c0.2-0.9,0.3-1.8,0.2-2.8c-0.1-0.9-0.4-1.8-1-2.5c-0.6-0.7-1.3-1.3-2.1-1.7c-0.8-0.4-1.7-0.8-2.5-0.9
		c-0.4-0.1-0.9-0.1-1.3,0c-0.4,0.1-0.9,0.2-1.2,0.4c-0.8,0.5-1.4,1.2-1.8,2C29,24.7,28.8,25.6,28.7,26.5z"/>
	<path style="fill:#93C156;" d="M29.4,27.3c0,0,0.6-3.7,3.1-3.6s4.3,1.7,4.2,4s-1,8.4-4.3,7.8S29.1,29.9,29.4,27.3z"/>
	<path style="fill:#262424;" d="M19.5,25.3c0,0,2.5-0.4,3.2,3.1s0.2,6.8-1.3,7.1s-3.7-0.6-4.2-5.1S18.6,25.5,19.5,25.3z"/>
	<path style="fill:#262424;" d="M33.7,24.5c1.8,0.6,2.9,2.5,2.5,4.3c-0.6,3.5-2.2,6.5-3.7,6.2s-3.1-2.9-2.5-7
		C30.5,23.6,32.7,24.4,33.7,24.5z"/>
	<path style="fill:#FFFFFF;" d="M19.3,27.8c0.2-0.2,0.5-0.2,0.7,0c0.1,0.1,0.1,0.2,0.1,0.3c0.1,0.3-0.1,0.6-0.4,0.6
		c-0.1,0-0.2,0-0.3,0c-0.3-0.1-0.4-0.4-0.3-0.6C19.1,28,19.2,27.9,19.3,27.8z"/>
	<path style="fill:#FFFFFF;" d="M32,27.3c0.2-0.2,0.5-0.2,0.7,0c0.1,0.1,0.1,0.2,0.1,0.3c0.1,0.3-0.1,0.6-0.4,0.6
		c-0.1,0-0.2,0-0.3,0c-0.3-0.1-0.4-0.4-0.3-0.6C31.8,27.4,31.9,27.3,32,27.3z"/>
	<path style="fill:#FFFFFF;" d="M17.4,25.8c0.3-0.4,0.9-0.4,1.3,0c0.1,0.1,0.2,0.3,0.3,0.5c0.1,0.5-0.2,1-0.7,1.1
		c-0.2,0-0.4,0-0.5,0c-0.5-0.1-0.7-0.6-0.6-1.1C17.1,26.1,17.2,25.9,17.4,25.8z"/>
	<path style="fill:#FFFFFF;" d="M30.3,25.7c0.3-0.4,0.9-0.4,1.3,0c0.1,0.1,0.2,0.3,0.3,0.5c0.1,0.5-0.2,1-0.7,1.1
		c-0.2,0-0.4,0-0.5,0c-0.5-0.1-0.7-0.6-0.6-1.1C30,26,30.1,25.8,30.3,25.7z"/>
	<path style="fill:#FFFFFF;" d="M22.5,34.3c0,0-0.8-1.2-0.1-1.6s1.2,0.7,1.4,1.4S23.4,35.6,22.5,34.3z"/>
	<path style="fill:#FFFFFF;" d="M34.9,32.5c0,0-0.8-1.2-0.1-1.6s1.2,0.7,1.4,1.4C36.3,33.1,35.8,33.8,34.9,32.5z"/>
	<path style="fill:#B8D490;" d="M27.9,52.8c-0.1-0.8-0.7-1.3-1.5-1.2c-0.7,0.1-1.2,0.6-1.2,1.2c-0.2,1.1-0.5,4.7,0,5
		c1.1,0.7,3.2,1,3.5-0.2C28.7,57.2,27.9,52.8,27.9,52.8z"/>
	<path style="fill:#689A4C;" d="M29.6,50.1c-1.2,0.3-2.5,0.3-3.7-0.1c-1.2-0.5-2.2,0.7-1.1,1.2c1.7,0.6,3.6,0.7,5.3,0.2
		C31.4,51.1,30.9,49.8,29.6,50.1z"/>
	<path style="fill:#C0D99C;" d="M22.1,48.5c0.9,0.5,1.8,0.9,2.7,1.2c0.9,0.3,1.8,0.4,2.8,0.5c0.9,0,1.9-0.1,2.8-0.3
		c0.4-0.1,0.9-0.3,1.3-0.5c0.2-0.1,0.4-0.3,0.6-0.4c0.2-0.2,0.3-0.4,0.4-0.6c0,0.3,0,0.5-0.2,0.8c-0.1,0.2-0.3,0.5-0.5,0.7
		c-0.4,0.4-0.8,0.8-1.3,1c-1,0.5-2.1,0.7-3.1,0.6c-1.1,0-2.1-0.3-3.1-0.8C23.5,50.1,22.7,49.4,22.1,48.5z"/>
	<path style="fill:#C0D99C;" d="M37.8,34.5c0.4-0.2,0.9-0.3,1.3-0.2c0.5,0.1,1,0.3,1.3,0.8c0.1,0.1,0.2,0.2,0.2,0.4
		c0,0.1,0.1,0.2,0.1,0.3c0.1,0.2,0.1,0.4,0.1,0.7c0,0.5-0.1,0.9-0.4,1.3l-0.5-1.1l-0.2-0.5c0-0.1-0.1-0.2-0.1-0.2
		c0,0-0.1-0.1-0.1-0.1c-0.2-0.2-0.4-0.4-0.7-0.6C38.5,35,38.2,34.8,37.8,34.5z"/>
	<path style="fill:#C0D99C;" d="M24.8,8.6c0.3,0.7,0.5,1.4,0.7,2.1c0.2,0.7,0.3,1.3,0.5,1.9s0.3,1.2,0.5,1.8
		c0.2,0.6,0.5,1.3,0.9,1.9c-0.8,0-1.6-0.4-2.2-1c-0.5-0.6-0.9-1.3-1.1-2.1c-0.2-0.8-0.2-1.5-0.1-2.3C24.1,10,24.4,9.3,24.8,8.6z"/>
	<path style="fill:#C0D99C;" d="M22.6,9.6c0.1,0.5,0.2,1,0.2,1.5c0,0.5,0.1,0.9,0.1,1.4c0,0.4,0.1,0.9,0.2,1.3
		c0.1,0.5,0.3,0.9,0.5,1.4c-0.6-0.1-1-0.5-1.4-0.9c-0.3-0.5-0.5-1-0.6-1.6c-0.1-0.5,0-1.1,0.1-1.6C22,10.6,22.3,10.1,22.6,9.6z"/>
	<path style="fill:#A4C971;" d="M41.1,40.5c-0.2,1,0.5,0.7,1,0.9S39,43,39,44.8s0.2,3.9,3.4,4c1.2,0,0.3-1.1,0.3-1.1
		s1.2,0.2,0.8-0.5c0,0,1.1,0.1,0.7-0.9c1-0.3,1.8-0.9,2.3-1.8c0.5-1.2,1.8-4.3-4.1-8.6"/>
	<path style="fill:#93C156;" d="M41.1,40.5c0,0.1,0,0.3,0,0.4c0,0.1,0.1,0.2,0.2,0.2c0.1,0,0.3,0,0.4,0c0.1,0,0.2,0,0.3,0h0.1l0.1,0
		c0.1,0.1,0.1,0.3,0,0.4c-0.1,0.1-0.2,0.2-0.4,0.3l-0.4,0.3l-0.7,0.5c-0.4,0.3-0.8,0.7-1.2,1.2c-0.1,0.2-0.2,0.4-0.3,0.7
		c0,0.1,0,0.1,0,0.2V45c0,0.1,0,0.3,0,0.4c0,0.5,0.1,1.1,0.2,1.6c0.2,0.5,0.6,0.9,1.1,1.2c0.5,0.3,1.1,0.4,1.7,0.4
		c0.3,0,0.6,0,0.6-0.2c0-0.3-0.1-0.5-0.3-0.7l-0.2-0.3h0.4c0.2,0,0.4,0,0.6,0c0.1,0,0.1-0.1,0.1-0.1c0-0.1,0-0.1-0.1-0.2L43.1,47
		h0.4c0.1,0,0.2,0,0.3,0c0.1,0,0.1-0.1,0.2-0.1c0,0,0-0.1,0-0.1c0,0,0-0.1,0-0.1l0-0.1l-0.1-0.3l0.3-0.1c0.5-0.2,0.9-0.4,1.4-0.8
		c0.2-0.2,0.4-0.3,0.5-0.5c0.1-0.1,0.1-0.2,0.2-0.3c0-0.1,0.1-0.3,0.1-0.4c0.2-0.5,0.3-1,0.3-1.5c0-0.5-0.1-1-0.2-1.5
		c-0.4-1-0.9-1.9-1.6-2.8l-0.5-0.6c-0.2-0.2-0.4-0.4-0.6-0.6c-0.4-0.4-0.8-0.8-1.2-1.2V36c1,0.6,1.9,1.2,2.7,2
		c0.9,0.8,1.6,1.8,2,2.9c0.4,1.2,0.4,2.4-0.1,3.5c-0.1,0.1-0.1,0.3-0.2,0.4c-0.1,0.1-0.2,0.3-0.3,0.4c-0.2,0.3-0.4,0.5-0.7,0.7
		c-0.5,0.4-1,0.6-1.6,0.8l0.2-0.4l0.1,0.2c0,0.1,0,0.2,0,0.3c0,0.2-0.1,0.4-0.2,0.5c-0.1,0.1-0.3,0.2-0.5,0.2c-0.1,0-0.3,0-0.4,0
		l0.2-0.3c0.1,0.1,0.1,0.3,0.1,0.5c-0.1,0.2-0.2,0.3-0.4,0.3c-0.2,0-0.5,0-0.7,0l0.2-0.3c0.1,0.1,0.2,0.2,0.2,0.4
		c0.1,0.2,0.1,0.3,0.1,0.5c0,0.1-0.1,0.2-0.1,0.3c-0.1,0.1-0.2,0.1-0.3,0.1c-0.2,0-0.3,0-0.5,0c-0.6,0-1.2-0.2-1.8-0.4
		c-0.6-0.2-1.1-0.7-1.4-1.3c-0.3-0.6-0.4-1.2-0.5-1.8c0-0.2,0-0.3,0-0.5v-0.2c0-0.1,0-0.2,0-0.3c0.1-0.3,0.2-0.7,0.4-0.9
		c0.4-0.5,0.9-0.9,1.4-1.2c0.3-0.2,0.5-0.3,0.8-0.5l0.4-0.2c0.1-0.1,0.2-0.1,0.3-0.2c0,0,0,0,0,0.1c0,0,0,0,0,0.1l0,0l0,0l-0.2-0.1
		c-0.1,0-0.3-0.1-0.4-0.1C41.1,41.3,41,41.1,41,41c0-0.2,0-0.3,0-0.5L41.1,40.5z"/>
	<path style="fill:#A4C971;" d="M11.5,37.2c0,0-3.8,5.6-2.6,8c0.5,1,1.5,1.6,2.6,1.8c0.2,0-0.3,0.8,0.1,1c0.3,0.1,0.6,0.1,0.9,0
		c0,0-0.7,1.1,0.5,0.8c0,0-0.4,1.2,1.1,0.8c1.8-0.3,2.9-2,2.6-3.7c-0.1-0.4-0.2-0.8-0.4-1.1c-0.6-1.1-1.8-1.9-3.1-2
		c0.5-0.3,0.9-0.8,1-1.3"/>
	<path style="fill:#93C156;" d="M11.5,37.2c-0.5,1-1,2.1-1.5,3.1c-0.5,1-0.8,2.1-1,3.2c-0.1,0.5-0.1,1,0.1,1.5
		c0.2,0.5,0.6,0.9,1,1.3c0.2,0.2,0.5,0.3,0.7,0.4c0.1,0.1,0.3,0.1,0.4,0.1h0.2c0,0,0.1,0,0.1,0.1c0,0,0,0.1,0,0.1c0,0,0,0.1,0,0.1
		c0,0.1-0.1,0.3-0.1,0.4c0,0.1,0,0.2,0.1,0.2c0.2,0.1,0.5,0.1,0.7,0l0.5-0.2l-0.2,0.5c-0.1,0.1-0.1,0.2-0.1,0.3c0,0.1,0,0.2,0,0.2
		s0,0,0.1,0c0.1,0,0.2,0,0.3,0l0.4-0.1L13.2,49c0,0.2,0,0.4,0.1,0.4c0.1,0.1,0.3,0.1,0.4,0.1c0.5,0,0.9-0.2,1.3-0.4
		c0.8-0.4,1.3-1.2,1.4-2.1c0.1-0.4,0-0.9-0.1-1.3c0-0.1-0.1-0.2-0.1-0.3c0-0.1-0.1-0.2-0.1-0.3c-0.1-0.2-0.2-0.4-0.4-0.6
		c-0.6-0.7-1.4-1.2-2.3-1.4L12.6,43l0.6-0.3c0.1-0.1,0.2-0.1,0.3-0.2c0.1-0.1,0.2-0.2,0.3-0.3c0.2-0.2,0.3-0.4,0.4-0.7h0.1
		c-0.1,0.3-0.2,0.6-0.3,0.8c-0.1,0.1-0.2,0.3-0.3,0.4c-0.1,0.1-0.2,0.2-0.4,0.3l-0.1-0.4c0.5,0,1.1,0.1,1.5,0.3
		c0.5,0.2,0.9,0.5,1.3,0.9c0.2,0.2,0.4,0.4,0.5,0.6c0.1,0.2,0.3,0.5,0.4,0.7c0.2,0.5,0.3,1.1,0.2,1.7c-0.1,0.6-0.3,1.1-0.6,1.5
		c-0.3,0.4-0.8,0.8-1.2,1.1c-0.5,0.3-1,0.5-1.6,0.5c-0.2,0-0.3,0-0.5,0c-0.2,0-0.4-0.1-0.5-0.3c-0.1-0.1-0.2-0.3-0.2-0.5
		c0-0.2,0-0.3,0.1-0.5l0.3,0.3c-0.1,0-0.3,0-0.4,0c-0.1,0-0.2,0-0.3-0.1c-0.1-0.1-0.2-0.1-0.2-0.3c-0.1-0.2-0.1-0.4,0-0.5
		c0-0.1,0.1-0.3,0.2-0.4l0.2,0.3c-0.3,0.1-0.7,0.1-1,0c-0.1-0.1-0.2-0.1-0.2-0.2c0-0.1,0-0.2,0-0.3c0-0.1,0-0.3,0.1-0.4
		c0,0,0-0.1,0-0.1l0,0l0,0l0,0h-0.2c-0.1,0-0.3-0.1-0.4-0.1c-0.3-0.1-0.5-0.3-0.7-0.4c-0.3-0.2-0.5-0.4-0.7-0.6
		c-0.2-0.2-0.4-0.5-0.6-0.7c-0.3-0.6-0.4-1.2-0.3-1.8c0.1-0.6,0.2-1.2,0.4-1.8c0.2-0.6,0.4-1.1,0.7-1.6C10.1,39,10.7,38,11.5,37.2
		L11.5,37.2z"/>
	<path style="fill:#689A4C;" d="M11.5,47c0.2,0,0.4,0,0.6,0c0.2,0,0.4,0,0.6,0c0.2,0.1,0.4,0.1,0.6,0.1c0.2,0,0.4-0.1,0.5-0.2
		l0.2-0.1V47c0,0.2,0,0.3,0,0.5c0,0.1,0.1,0.3,0.1,0.4c0,0,0,0,0.1,0.1l0,0h0.1c0.1,0.1,0.2,0.2,0.2,0.3c0,0.1,0,0.3-0.1,0.3
		c-0.1,0.1-0.2,0.1-0.3,0.2l0,0c0.1-0.2,0.2-0.3,0.1-0.4c0,0-0.1-0.1-0.1-0.1l0,0h-0.1c-0.1,0-0.1-0.1-0.1-0.1
		c-0.1-0.2-0.2-0.4-0.2-0.6c0-0.2,0-0.4,0.1-0.6l0.2,0.2c-0.2,0-0.4,0-0.6,0.1s-0.4,0.1-0.6,0.1c-0.2,0-0.4,0-0.6,0
		C11.9,47.2,11.7,47.1,11.5,47L11.5,47z"/>
	<path style="fill:#689A4C;" d="M44.2,46.3c-0.2,0.2-0.4,0.3-0.7,0.3c-0.2,0.1-0.5,0.1-0.8,0c-0.2,0-0.5,0-0.8,0
		c-0.3,0-0.5,0-0.8-0.1l0.2-0.3c0.1,0.1,0.1,0.2,0.2,0.3c0,0.1,0.1,0.2,0.1,0.4c0,0.3,0,0.5-0.1,0.7l0,0c0-0.2-0.1-0.4-0.2-0.7
		l-0.1-0.3l-0.1-0.3L40.9,46l0.4,0.2l0.7,0.3c0.2,0.1,0.5,0.1,0.7,0.1l0.3-0.1c0.1,0,0.2,0,0.3,0C43.7,46.4,43.9,46.4,44.2,46.3
		L44.2,46.3z"/>
	<path style="fill:#C0D99C;" d="M19.6,59.7c0.9-0.9,2-1.6,3.2-2c1.2-0.4,2.4-0.7,3.7-0.8c0.6,0,1.3,0,1.9,0l1,0.1
		c0.3,0,0.6,0.1,0.9,0.2c0.6,0.1,1.2,0.3,1.8,0.5c0.3,0.1,0.6,0.2,0.9,0.4c0.3,0.1,0.6,0.3,0.8,0.4c-0.6,0.1-1.3,0.1-1.9,0.2
		s-1.2,0-1.8,0.1c-1.2,0-2.4,0.1-3.5,0.2s-2.3,0.2-3.5,0.4S20.8,59.5,19.6,59.7z"/>
	<path style="fill:#689A4C;" d="M29.5,51.5c0.1,1,0,1.8,0.1,2.8c0,0.5,0,0.9,0.1,1.3s0.1,0.9,0.1,1.4c-0.6-0.8-0.9-1.7-0.9-2.7
		c0-0.5,0-1,0.1-1.4C29.1,52.3,29.3,51.9,29.5,51.5z"/>
	<path style="fill:#C0D99C;" d="M42.3,42.4c-0.3,0.4-0.6,0.7-1,1c-0.3,0.3-0.6,0.6-0.8,1c-0.1,0.1-0.1,0.2-0.2,0.2
		c0,0.1-0.1,0.2-0.1,0.3c-0.1,0.2-0.1,0.4-0.2,0.6c-0.1,0.4-0.1,0.9,0,1.3c-0.2-0.2-0.3-0.4-0.4-0.6c-0.1-0.2-0.2-0.5-0.2-0.8
		c0-0.3,0-0.5,0.1-0.8c0-0.1,0.1-0.2,0.1-0.4c0.1-0.1,0.1-0.2,0.2-0.4c0.3-0.4,0.7-0.7,1.1-1C41.4,42.7,41.8,42.5,42.3,42.4z"/>
	<path style="fill:#C0D99C;" d="M11.8,38.7c-0.3,0.5-0.6,1.1-0.9,1.7c-0.2,0.6-0.4,1.2-0.6,1.8c-0.2,0.6-0.3,1.2-0.4,1.8
		c0,0.3,0,0.6,0,0.9c0.1,0.3,0.1,0.6,0.2,0.9c-0.3-0.2-0.5-0.5-0.7-0.8c-0.2-0.3-0.2-0.7-0.3-1c0-0.7,0.1-1.4,0.3-2
		c0.2-0.6,0.5-1.3,0.8-1.8C10.8,39.6,11.3,39.1,11.8,38.7z"/>
</g>
</svg>
