<?xml version="1.0" encoding="utf-8"?>
<!-- Generator: Adobe Illustrator 22.0.0, SVG Export Plug-In . SVG Version: 6.00 Build 0)  -->
<svg version="1.1" id="Слой_26" xmlns="http://www.w3.org/2000/svg" xmlns:xlink="http://www.w3.org/1999/xlink" x="0px"
	 y="0px" viewBox="0 0 55.8 62.9" style="enable-background:new 0 0 55.8 62.9;" xml:space="preserve">
<title>16_1</title>
<path style="fill:#ECC477;" d="M29.4,61.3h-3c-2.5,0-5.2-0.1-7.8-0.2h-0.5c-0.3,0-0.5-0.2-0.5-0.5v-0.2l0.2-0.4
	c0.3-0.7,0.7-1.3,1.2-1.8c0.5-0.5,1-0.9,1.6-1.3c0.6-0.4,1.2-0.7,1.8-0.9c0.4-0.2,0.9-0.3,1.4-0.5c0-1.1-0.1-4.5-0.1-5.6
	c0-0.5,0-0.9-0.1-1.4c-9.7-1.7-10.8-9.4-11.4-13.6c0-0.3-0.1-0.6-0.1-0.9c-0.7-3-0.3-6.2,1.1-8.9c0.9-1.9,2.3-3.5,4.1-4.6
	c0-0.1-0.1-0.2-0.1-0.3c-0.1-0.2-0.1-0.5,0-0.7c-0.2-0.1-0.5-0.1-0.7-0.2H16c-0.2,0-0.4,0.1-0.5,0.2c-0.2,0.1-0.4,0.2-0.6,0.4
	c0,0.2-0.1,0.4-0.6,0.4h-0.7C13,20.3,13,20,13,19.8c0-0.2,0.1-0.3,0.2-0.4v-0.3c0-0.2,0.1-0.5,0.1-0.7c0.1-0.5,0.2-1,0.4-1.4
	l0.1-0.3l-0.1-0.1c-0.3-0.3-0.5-0.6-0.8-0.9c-0.4-0.6-0.7-1.3-1-2l-0.1-0.2c-0.1-0.2,0-0.4,0.1-0.5l0.1-0.3c0.4-0.6,1-1.1,1.7-1.4
	c0.6-0.4,1.4-0.7,2.1-0.8h0.1c0-0.1,0-0.1,0.1-0.1h0l0.5-0.6c0.2-0.4,0.5-0.7,0.8-1c0.3-0.3,0.6-0.6,1-0.8c0.4-0.3,0.8-0.5,1.2-0.6
	c0.4-0.2,0.9-0.2,1.3-0.2h0.1c0.5,0,1,0.1,1.4,0.4c0.3,0.2,0.6,0.4,0.8,0.6h0.5c0.3,0,0.7,0,1,0.1c0.5,0.1,1.1,0.3,1.6,0.5V8.4
	c0-0.4-0.2-0.7-0.4-1c-0.2-0.3-0.5-0.6-0.8-0.8l-0.5-0.3c-0.2-0.2-0.3-0.4-0.2-0.7c0-0.1,0.1-0.1,0.2-0.2L25,5
	c0.7-0.4,1.5-0.6,2.3-0.6h0.2c0.8,0.1,1.7,0.3,2.4,0.7c0.4,0.2,0.8,0.5,1.1,0.8c0.3,0.3,0.5,0.7,0.7,1.1c0.1,0.2,0.1,0.3,0.2,0.5
	l0.3-0.2c0.1-0.1,0.2-0.1,0.3-0.2L32.6,7c0.2-0.1,0.3-0.2,0.5-0.3l0.5-0.2l0.5-0.2c0.6-0.2,1.3-0.3,2-0.3h0.8c0.4,0,0.9,0,1.3,0.1
	c0.7,0.1,1.5,0.4,2.1,0.8c0.6,0.4,1.2,0.8,1.7,1.2l1.4,1.1c0.2,0.2,0.2,0.5,0.1,0.7c-0.1,0.1-0.2,0.2-0.4,0.2L41.3,10h-0.4
	c-0.6,0.1-1.1,0.3-1.6,0.6l-0.1,0.1c0.4,0.1,0.9,0.2,1.3,0.4c1.1,0.4,2,1.2,2.6,2.2c0.3,0.5,0.5,1,0.7,1.5c0.1,0.3,0.2,0.6,0.2,0.9
	v0.8c0,0.5-0.1,1-0.2,1.5c0,0.3-0.1,0.5-0.2,0.8c-0.1,0.3-0.2,0.6-0.4,0.9l-0.3,0.4c-0.1,0.1-0.2,0.2-0.3,0.2h-0.1
	c-0.1,0-0.2,0-0.3-0.1l-0.4-0.4c-0.5-0.4-1-0.8-1.6-1c-0.4-0.1-0.8-0.1-1.2-0.2c-0.2,0-0.3,0-0.5,0.1c-0.7,0.2-1.3,0.4-1.9,0.7
	c-0.1,0.1-0.3,0.2-0.4,0.3c0.2,0.2,0.2,0.5,0.2,0.8c0,0.1,0,0.2-0.1,0.2c5.8,3.5,5.2,10,4.9,13.2v0.6c-0.3,3.8-1,12.5-10.9,13.8
	c-0.1,1.5-0.2,5.2-0.3,6.9c0.2,0,0.4,0,0.6,0.1h0.2c0.3,0.1,0.6,0.1,0.9,0.2c0.7,0.2,1.4,0.5,2.1,0.9c0.7,0.4,1.3,0.8,1.8,1.4
	c0.6,0.6,1,1.2,1.4,1.9l0.4,0.7c0.1,0.2,0,0.6-0.2,0.7c-0.1,0-0.1,0-0.2,0.1h-0.8c-1.5,0-2.9,0.1-4.4,0.1H29.4z"/>
<path style="fill:#FFFFFF;" d="M27.4,4.8h0.2c0.8,0,1.5,0.2,2.2,0.6c0.4,0.2,0.7,0.4,0.9,0.8c0.3,0.3,0.5,0.6,0.6,1
	c0.2,0.3,0.3,0.7,0.3,1.1c0.3-0.2,0.5-0.4,0.8-0.6c0.1-0.1,0.2-0.2,0.4-0.2c0.1-0.1,0.3-0.2,0.5-0.2l0.5-0.2L34.3,7
	c0.7-0.2,1.3-0.3,2-0.4H37c0.4,0,0.8,0,1.2,0.1c0.7,0.1,1.3,0.4,1.9,0.7c0.6,0.3,1.1,0.7,1.6,1.1l1.3,1l-1.7-0.1h-0.6
	c-0.7,0.1-1.3,0.3-1.8,0.7c-0.4,0.2-0.7,0.5-0.9,0.9c0.8,0,1.5,0.2,2.2,0.5c1,0.4,1.8,1.1,2.4,2c0.3,0.4,0.5,0.9,0.7,1.4
	c0.1,0.3,0.1,0.5,0.2,0.8v0.8c0,0.5-0.1,1-0.2,1.5c0,0.2-0.1,0.5-0.2,0.7c-0.1,0.3-0.2,0.5-0.3,0.8l-0.3,0.4l-0.4-0.4
	c-0.5-0.5-1.1-0.9-1.8-1.1c-0.4-0.2-0.9-0.3-1.4-0.3c-0.2,0-0.4,0-0.6,0.1c-0.7,0.2-1.4,0.4-2,0.8c-0.3,0.2-0.6,0.5-0.8,0.8
	c0.6,0.6,0.3,1,0,1.2c6.1,3.2,5.5,9.7,5.1,13c0,0.2,0,0.5-0.1,0.7c-0.3,3.8-1,12.2-10.9,13.4c-0.1,1.8-0.2,5.8-0.3,7.8
	c0.3,0,0.7,0,1,0.1c0.3,0.1,0.7,0.1,1,0.2c0.7,0.2,1.4,0.5,2,0.8c0.6,0.4,1.2,0.8,1.7,1.3c0.6,0.5,1.1,1.1,1.5,1.7l0.4,0.7h-0.8
	c-1.5,0-2.9,0.1-4.4,0.1h-4.4c-2.9,0-5.8-0.1-8.8-0.2H18l0.2-0.4c0.3-0.6,0.7-1.2,1.1-1.7c0.4-0.5,1-0.9,1.5-1.2
	c0.5-0.3,1.1-0.6,1.7-0.9c0.6-0.2,1.1-0.4,1.7-0.5c0-1.2-0.1-4.8-0.1-6.1c0-0.6-0.1-1.2-0.1-1.8c-9.7-1.4-10.8-9-11.3-13.2
	c0-0.3-0.1-0.6-0.1-0.9C12,31,12.4,28,13.7,25.3c0.9-2,2.4-3.6,4.3-4.6l-0.3-0.6c-0.1-0.3,0-0.6,0.3-0.8c-0.4-0.2-0.9-0.4-1.3-0.5
	H16c-0.2,0-0.5,0.1-0.7,0.2c-0.4,0.2-0.8,0.4-1.1,0.7l0,0v-0.1h-0.6v-0.3l0,0v-0.2c0-0.2,0.1-0.5,0.1-0.7c0.1-0.5,0.2-0.9,0.4-1.4
	c0.1-0.2,0.1-0.4,0.2-0.6L14,16.1c-0.3-0.3-0.5-0.6-0.7-0.9c-0.4-0.6-0.7-1.2-1-1.9l-0.1-0.2l0.1-0.1c0.5-0.5,1-1,1.6-1.3
	c0.6-0.4,1.2-0.6,1.9-0.7H16c0.6,0,1.3,0.2,1.8,0.6c0.2,0.2,0.5,0.3,0.7,0.5c-0.1-0.1-0.1-0.2-0.2-0.4s-0.3-0.4-0.5-0.5
	s-0.2-0.1-0.3-0.2s-0.2-0.1-0.3-0.1l-0.8-0.2l0.5-0.6c0.2-0.3,0.5-0.6,0.8-0.9c0.3-0.3,0.6-0.5,0.9-0.8C19,8.2,19.3,8,19.7,7.8
	c0.4-0.1,0.7-0.2,1.1-0.2h0.1c0.8,0,1.5,0.4,2,1c0.2,0,0.5-0.1,0.8-0.1c0.3,0,0.6,0,0.9,0.1c0.6,0.1,1.2,0.3,1.8,0.6l0.3,0.1
	c0.1-0.4,0.1-0.8,0.1-1.2c0-0.4-0.2-0.9-0.5-1.2c-0.2-0.3-0.6-0.7-0.9-0.9l-0.6-0.3l0.5-0.3C26,5.1,26.7,4.9,27.4,4.8 M27.4,3.9
	L27.4,3.9c-0.9,0-1.8,0.3-2.6,0.7l-0.5,0.3c-0.4,0.3-0.6,0.8-0.3,1.3c0,0,0,0,0,0c0.1,0.1,0.2,0.3,0.3,0.3l0.5,0.3
	c0.3,0.2,0.5,0.4,0.7,0.6c0.1,0.1,0.1,0.2,0.2,0.3c-0.3,0-0.7,0-1-0.1c-0.4-0.1-0.7-0.1-1.1-0.1h-0.4C23,7.3,22.8,7.1,22.5,7
	c-0.5-0.3-1.1-0.4-1.7-0.4h-0.1c-0.5,0-1,0.1-1.5,0.3c-0.5,0.2-0.9,0.4-1.3,0.7c-0.4,0.2-0.7,0.5-1,0.9c-0.3,0.3-0.6,0.6-0.9,1
	l-0.4,0.6c-0.8,0.1-1.5,0.4-2.1,0.8c-0.7,0.4-1.3,0.9-1.8,1.6l-0.1,0.1c-0.2,0.3-0.3,0.7-0.2,1l0.1,0.2c0.3,0.7,0.7,1.4,1.1,2.1
	c0.2,0.3,0.4,0.6,0.7,0.9l0,0c-0.2,0.5-0.3,1-0.4,1.5c-0.1,0.3-0.1,0.5-0.1,0.8v0.1c-0.1,0.2-0.2,0.4-0.2,0.6c0,0.5,0.4,1,0.9,1
	c0,0,0.1,0,0.1,0H14c0.2,0.1,0.5,0.1,0.7,0c0.3-0.1,0.6-0.3,0.8-0.6c0.1-0.1,0.2-0.2,0.4-0.2c0.1-0.1,0.3-0.1,0.4-0.1h0.6v0.4
	c-1.8,1.1-3.2,2.7-4,4.6c-1.4,2.8-1.9,6.1-1.2,9.2c0.1,0.3,0.1,0.6,0.1,0.9c0.5,3.9,1.6,12,11.4,13.9v1c0.1,1,0.1,4.3,0.1,5.2
	c-0.3,0.1-0.7,0.2-1,0.4c-1.4,0.5-2.6,1.4-3.6,2.4c-0.5,0.6-1,1.3-1.3,2L17.2,60c-0.2,0.5,0,1.1,0.5,1.3c0.1,0,0.2,0.1,0.4,0.1h0.5
	c2.6,0.1,5.2,0.2,7.8,0.2h5.4c1.3,0,2.7,0,4.4-0.1H37c0.6,0,1-0.4,1-1c0-0.2-0.1-0.3-0.1-0.5l-0.4-0.7c-0.4-0.7-1-1.4-1.6-1.9
	c-0.6-0.6-1.3-1.1-2-1.5c-0.7-0.4-1.4-0.7-2.2-0.9c-0.3-0.1-0.6-0.2-0.9-0.2h-0.4c0.1-1.3,0.2-4.8,0.2-6c10-1.6,10.7-10.3,11-14.2
	c0-0.2,0-0.5,0.1-0.7c0.3-3.2,0.9-9.8-4.8-13.5c0-0.2,0-0.5-0.1-0.7h0.1c0.5-0.3,1.1-0.5,1.7-0.7H39c0.3,0,0.7,0.1,1,0.2
	c0.5,0.2,1,0.5,1.5,0.9l0.4,0.4c0.2,0.2,0.4,0.2,0.7,0.2h0.1c0.3,0,0.5-0.2,0.7-0.5l0.3-0.4c0.2-0.3,0.4-0.6,0.5-1l0,0
	c0.1-0.3,0.2-0.5,0.2-0.8c0.1-0.5,0.2-1.1,0.2-1.6v-0.9c0-0.3-0.1-0.7-0.2-1c-0.2-0.6-0.4-1.2-0.8-1.7c-0.7-1.1-1.6-1.9-2.8-2.3
	h-0.1l0.4-0.1h0.5l1.4,0.3l0,0c0.6,0,1-0.4,1-1c0-0.3-0.1-0.6-0.4-0.8l-1.3-1V7.7c-0.5-0.4-1.1-0.8-1.6-1.2
	c-0.7-0.4-1.4-0.7-2.2-0.8c-0.5-0.1-1-0.1-1.5-0.1h-0.8l-2.1,0.3L33.6,6h-0.1L33,6.3l-0.6,0.3v0.1h-0.1c-0.2-0.4-0.4-0.8-0.7-1.2
	c-0.4-0.4-0.8-0.7-1.3-1c-0.8-0.4-1.7-0.7-2.6-0.7L27.4,3.9z"/>
<path style="fill:#ECC477;" d="M14.3,20.1c-0.3,0-0.5-0.2-0.5-0.5s0.2-0.5,0.5-0.5s0.5,0.2,0.5,0.5C14.8,19.9,14.6,20.1,14.3,20.1
	C14.3,20.1,14.3,20.1,14.3,20.1z"/>
<path style="fill:#FFFFFF;" d="M14.3,19.6L14.3,19.6 M14.3,18.6c-0.6,0-1,0.4-1,1s0.4,1,1,1l0,0c0.4,0,0.7-0.2,0.9-0.5
	c0.2-0.3,0.2-0.7,0-1C15,18.8,14.7,18.6,14.3,18.6z"/>
<path style="fill:#ECC477;" d="M13.6,20.1c-0.3,0-0.5-0.2-0.5-0.5s0.2-0.5,0.5-0.5s0.5,0.2,0.5,0.5C14.1,19.9,13.9,20.1,13.6,20.1
	C13.6,20.1,13.6,20.1,13.6,20.1z"/>
<path style="fill:#E2A731;" d="M17.9,14c0,0,4.8-2.9,4.9-2.9l5.7-1.9l4.1,0.4c0,0,1.5,5.8,1.6,5.8S32.9,19,32.9,19l-12.6,0.7
	l-2.4-2.3L17.9,14z"/>
<path style="fill:#E2A731;" d="M31.8,9.4c0,0-0.1-2.8-2.2-3.7c-1.3-0.7-2.8-0.7-4.1,0c0.8,0.5,1.3,1.3,1.4,2.2c0,1-0.3,2-0.9,2.9"/>
<path style="fill:#A57631;" d="M31.8,9.4c-0.1-0.7-0.4-1.4-0.7-2c-0.2-0.3-0.4-0.6-0.6-0.8C30.3,6.4,30,6.2,29.7,6
	c-0.6-0.3-1.3-0.5-2-0.5c-0.7,0-1.3,0.1-1.9,0.5V5.5c0.4,0.3,0.8,0.7,1.1,1.1c0.3,0.5,0.4,1,0.4,1.5c0,0.5-0.2,1-0.4,1.5
	c-0.2,0.4-0.5,0.8-0.8,1.2c0.2-0.4,0.4-0.9,0.5-1.3c0.1-0.5,0.2-0.9,0.2-1.4c0-0.4-0.2-0.9-0.5-1.2c-0.2-0.3-0.6-0.7-0.9-0.9
	l-0.6-0.3l0.5-0.3C26,5,26.8,4.8,27.6,4.8c0.8,0,1.5,0.2,2.2,0.6c0.4,0.1,0.7,0.4,0.9,0.7c0.3,0.3,0.5,0.6,0.6,1
	C31.6,7.8,31.8,8.6,31.8,9.4z"/>
<path style="fill:#E2A731;" d="M29.4,55.8v-10h-4.8v10.1c-1,0.2-1.9,0.5-2.8,1c-1.4,0.7-2.5,1.9-3.1,3.3h17.5
	C34.8,57.7,32.2,56.1,29.4,55.8z"/>
<path style="fill:#A57631;" d="M29.3,55.8c-0.2-2.4-0.4-7.3-0.4-10l0.4,0.4h-4.8l0.5-0.5c0,1.3-0.1,2.6-0.1,3.9s-0.1,4.9-0.1,6.2V56
	h-0.1c-0.6,0.1-1.2,0.3-1.8,0.5c-0.6,0.2-1.1,0.5-1.6,0.9c-0.5,0.3-0.9,0.8-1.3,1.2c-0.4,0.5-0.7,1-0.9,1.5l-0.3-0.4
	c2.9-0.1,5.8-0.2,8.8-0.2H32c1.5,0,2.9,0,4.4,0.1L36,60.3c-0.3-0.6-0.7-1.1-1.1-1.6c-0.4-0.5-0.9-1-1.5-1.3c-0.6-0.4-1.2-0.7-1.8-1
	c-0.3-0.1-0.7-0.3-1-0.4c-0.1-0.1-0.4-0.1-0.5-0.2L29.3,55.8z M29.4,55.8c0.3,0,0.7,0,1,0.1c0.3,0.1,0.7,0.1,1,0.2
	c0.7,0.2,1.4,0.5,2,0.8c0.6,0.4,1.2,0.8,1.7,1.3c0.6,0.5,1.1,1.1,1.5,1.8l0.4,0.7h-0.8c-1.5,0-2.9,0.1-4.4,0.1h-4.4
	c-2.9,0-5.8-0.1-8.8-0.2h-0.5l0.2-0.4c0.3-0.6,0.7-1.2,1.1-1.7c0.4-0.5,1-0.9,1.5-1.2c0.5-0.3,1.1-0.6,1.7-0.9l1.8-0.6L24.3,56
	c0-1.3-0.1-4.9-0.1-6.2s-0.1-2.6-0.1-3.9v-0.5h5.8v0.4C29.7,48.3,29.6,53,29.4,55.8z"/>
<path style="fill:#E2A731;" d="M13.3,34.6c0.6,4.6,1.8,12.5,13.4,12.9c13,0.4,13.1-9.9,13.5-13.7s0.8-10.2-6-13
	c-7.9-3.2-17-1.9-19.9,4.5C12.2,30,13,32.3,13.3,34.6z"/>
<path style="fill:#A57631;" d="M27.5,48.1h-0.8c-12.1-0.4-13.3-8.9-13.9-13.4c0-0.3-0.1-0.6-0.1-0.9c-0.6-2.9-0.2-5.9,1.1-8.6
	c3.1-6.9,12.9-7.8,20.6-4.7c7.3,3,6.7,10.1,6.3,13.5c0,0.2,0,0.5-0.1,0.7C40.3,38.7,39.5,48.1,27.5,48.1z M25.7,19.8
	c-4.8,0-9.2,1.8-11,5.8c-1.3,2.5-1.6,5.3-1,8c0.1,0.3,0.1,0.7,0.1,1l0,0c0.6,4.5,1.7,12.1,12.9,12.5c11.8,0.4,12.5-8.3,12.8-12.5
	c0-0.2,0-0.5,0.1-0.7c0.5-5.1,0.1-10.1-5.7-12.4C31.3,20.4,28.5,19.8,25.7,19.8z"/>
<path style="fill:#E2A731;" d="M29,12.2c0,0,2.1-4.3,5.6-4.9c3.8-0.7,5.1,0.3,6.8,1.6c0,0-3.5-0.3-4.8,3.8s-0.8,5.2-0.8,5.2"/>
<path style="fill:#A57631;" d="M29,12.2c0.5-1.2,1.2-2.3,2-3.2c0.5-0.5,1-0.9,1.5-1.3c0.1-0.1,0.2-0.2,0.4-0.2
	c0.1-0.1,0.3-0.2,0.5-0.2l0.5-0.2L34.4,7c0.6-0.3,1.2-0.4,1.9-0.4c0.7-0.1,1.3,0,2,0.1c0.7,0.1,1.3,0.4,1.9,0.7
	c0.6,0.3,1.1,0.7,1.6,1.1l1.3,1l-1.7-0.1h-0.6c-0.2,0-0.4,0.1-0.7,0.1c-0.4,0.1-0.8,0.3-1.2,0.6c-0.7,0.6-1.3,1.3-1.7,2.1
	c-0.1,0.2-0.2,0.5-0.3,0.7l-0.2,0.7c-0.2,0.5-0.3,0.9-0.4,1.4c-0.1,0.5-0.2,1-0.3,1.4c0,0.2-0.1,0.5-0.1,0.7v0.7
	c-0.1-0.5-0.2-1-0.1-1.5c0-0.5,0.1-1,0.2-1.5l0.3-1.5l0.2-0.7c0.1-0.2,0.2-0.5,0.2-0.7c0.1-0.2,0.2-0.5,0.3-0.7
	c0.1-0.2,0.3-0.5,0.4-0.7c0.3-0.4,0.7-0.8,1.1-1.2c0.4-0.3,0.9-0.5,1.4-0.7c0.3-0.1,0.5-0.1,0.8-0.2h0.9l-0.4,0.9
	c-0.5-0.4-1-0.7-1.5-1c-0.5-0.3-1-0.6-1.6-0.8c-1.2-0.2-2.4-0.2-3.5,0.1c-1.2,0.2-2.2,0.8-3.1,1.6C30.6,10.1,29.7,11.1,29,12.2z"/>
<path style="fill:#E2A731;" d="M29.4,18.4c0,0,2.1-6.2,7.2-6.8s6.2,3,6.4,3.9c0.1,1.2-0.1,2.4-0.5,3.6c0,0-2.2-1.9-4.3-1.2
	s-2.5,1.2-3.1,2.8"/>
<path style="fill:#A57631;" d="M30,18.2c0-0.8,0.2-1.6,0.4-2.4c0.5-0.8,1-1.6,1.7-2.3c0.2-0.2,0.3-0.4,0.5-0.5s0.4-0.3,0.6-0.5
	l0.6-0.4l0.7-0.3c0.9-0.4,1.9-0.6,2.9-0.6c1-0.1,2.1,0.1,3,0.5c1,0.4,1.8,1.1,2.4,2c0.3,0.4,0.5,0.9,0.7,1.4
	c0.1,0.3,0.1,0.5,0.2,0.8v0.8c0,0.5-0.1,1-0.2,1.5c0,0.2-0.1,0.5-0.2,0.7c-0.1,0.3-0.2,0.5-0.3,0.8l-0.3,0.4l-0.4-0.4
	c-0.5-0.5-1.1-0.9-1.8-1.1c-0.6-0.3-1.3-0.4-2-0.2c-0.7,0.2-1.4,0.4-2,0.8c-0.6,0.4-1.1,1-1.4,1.7c0.1-0.4,0.2-0.8,0.4-1.1
	c0.1-0.4,0.4-0.7,0.7-0.9c0.3-0.3,0.6-0.5,1-0.6c0.3-0.2,0.7-0.3,1.1-0.4c0.8-0.3,1.6-0.3,2.4,0c0.8,0.2,1.5,0.6,2.1,1.1L42,18.9
	c0.1-0.2,0.1-0.3,0.2-0.5s0.1-0.4,0.1-0.6c0.1-0.4,0.1-0.9,0.1-1.3v-0.6c0-0.2-0.1-0.4-0.1-0.6c-0.1-0.4-0.3-0.8-0.5-1.1
	c-0.5-0.7-1.1-1.2-1.9-1.6c-0.8-0.3-1.6-0.5-2.5-0.5c-0.9,0-1.8,0.1-2.6,0.4c-0.8,0.3-1.6,0.8-2.2,1.4C31.2,15.1,30.8,16.5,30,18.2z
	"/>
<path style="fill:#E2A731;" d="M23.7,10.8c0,0-0.6-2.6-2.6-2.8s-3.8,2.3-3.8,2.3c1,0.3,1.8,1.2,2,2.2c0.5,1.9,1,3.1,1.9,3.9"/>
<path style="fill:#A57631;" d="M23.7,10.8c-0.3-0.6-0.7-1.2-1.2-1.7c-0.2-0.2-0.5-0.4-0.8-0.5c-0.3-0.1-0.6-0.1-0.9-0.1
	c-0.6,0.1-1.2,0.4-1.7,0.8c-0.5,0.4-1,0.9-1.4,1.4l-0.3-0.8c0.2,0,0.4,0.1,0.6,0.2c0.2,0.1,0.3,0.2,0.5,0.3c0.3,0.2,0.5,0.5,0.7,0.8
	c0.2,0.3,0.3,0.6,0.4,1c0.1,0.4,0.1,0.6,0.2,0.9c0.2,1.2,0.6,2.4,1.4,3.4c-0.6-0.3-1.1-0.8-1.4-1.4c-0.3-0.6-0.6-1.2-0.8-1.8
	c-0.1-0.6-0.4-1.1-0.7-1.6c-0.2-0.2-0.3-0.4-0.5-0.5s-0.2-0.1-0.3-0.2s-0.2-0.1-0.3-0.1l-0.8-0.2l0.5-0.6c0.2-0.3,0.5-0.6,0.8-0.9
	c0.3-0.3,0.6-0.5,0.9-0.8C19,8.2,19.3,8,19.7,7.8c0.4-0.2,0.8-0.2,1.2-0.2c0.8,0,1.6,0.4,2.1,1.1C23.4,9.3,23.7,10,23.7,10.8z"/>
<path style="fill:#E2A731;" d="M19.3,12.8c0,0-1.9-2-3.7-1.6c-1.1,0.3-2.2,1-2.9,1.9c0.4,1.1,1.1,2.1,1.9,3c1.3,0.9,2.8,1.4,4.4,1.4
	"/>
<path style="fill:#A57631;" d="M19.3,12.8c-0.5-0.4-1-0.7-1.6-1c-0.5-0.3-1.1-0.4-1.7-0.3c-0.3,0.1-0.5,0.2-0.8,0.3
	c-0.3,0.1-0.5,0.3-0.8,0.4c-0.5,0.3-1,0.7-1.4,1.2v-0.3c0.2,0.6,0.5,1.2,0.9,1.8c0.2,0.3,0.4,0.5,0.6,0.8s0.5,0.4,0.7,0.6
	s0.6,0.3,0.9,0.5c0.3,0.2,0.6,0.3,0.9,0.4c0.6,0.3,1.3,0.4,2,0.5c-0.7,0.1-1.4,0.1-2.1-0.1c-0.7-0.2-1.4-0.4-2-0.7L14,16.3
	c-0.3-0.3-0.5-0.6-0.7-0.9c-0.4-0.6-0.7-1.2-1-1.9l-0.1-0.2l0.1-0.1c0.5-0.5,1-1,1.6-1.3c0.6-0.4,1.2-0.6,1.9-0.7
	c0.7,0,1.4,0.2,2,0.6C18.4,11.9,19,12.3,19.3,12.8z"/>
<path style="fill:#E2A731;" d="M20.3,14.7c-0.7-1.2-2.2-1.7-3.4-1.1c-2.3,0.9-3,5.8-3,6v-0.1c0.8-0.8,1.9-1.2,3-1
	c1,0.2,1.9,0.9,2.4,1.8"/>
<path style="fill:#A57631;" d="M20.3,14.7c-0.5-0.8-1.4-1.2-2.3-1.1c-0.4,0-0.8,0.2-1.2,0.4c-0.2,0.1-0.4,0.2-0.5,0.4
	c-0.1,0.2-0.3,0.3-0.4,0.5c-0.5,0.7-0.9,1.5-1.1,2.4c-0.1,0.4-0.2,0.9-0.3,1.3c0,0.2-0.1,0.4-0.1,0.7l-0.1,0.3v0.1h-0.7v-0.3
	l0.1-0.1c0.4-0.4,0.9-0.7,1.4-0.9c0.3-0.1,0.6-0.2,0.9-0.2c0.3,0,0.6,0,0.9,0.1c0.5,0.2,1,0.4,1.5,0.7c0.4,0.4,0.8,0.8,1,1.3
	c-0.3-0.4-0.7-0.8-1.1-1.1c-0.5-0.3-1-0.4-1.5-0.5h-0.7c-0.2,0-0.5,0.1-0.7,0.2c-0.4,0.2-0.8,0.5-1.2,0.8l0.1-0.2v0.1h-0.7v-0.2
	l0.1-0.4c0-0.2,0.1-0.5,0.1-0.7c0.1-0.5,0.2-0.9,0.4-1.4c0.3-0.9,0.7-1.8,1.3-2.6c0.1-0.1,0.2-0.2,0.2-0.3l0.3-0.3
	c0.6-0.5,1.3-0.7,2.1-0.7c0.5,0,1,0.2,1.4,0.4C19.8,13.9,20.1,14.3,20.3,14.7z"/>
<path style="fill:#A57631;" d="M20,20.6c1.9,0.9,3.6,2,5.2,3.4c0.8,0.7,1.6,1.4,2.3,2.2c0.4,0.4,0.7,0.8,1,1.2
	c0.2,0.2,0.3,0.4,0.5,0.6c0.2,0.2,0.3,0.4,0.4,0.6l1.5,2.7l1.5,2.7c0.5,0.9,0.9,1.9,1.3,2.8s0.7,1.9,1.1,2.9
	c-0.8-1.9-1.6-3.8-2.6-5.6l-1.5-2.7l-1.5-2.7c-1.1-1.7-2.5-3.3-4.1-4.6c-0.8-0.7-1.6-1.3-2.4-1.9C21.8,21.6,20.9,21.1,20,20.6z"/>
<path style="fill:#A57631;" d="M25.5,19.8c2.1,0.8,4,2,5.7,3.4l1.2,1.2c0.2,0.2,0.4,0.4,0.5,0.6l0.5,0.7c0.2,0.2,0.3,0.5,0.5,0.7
	s0.3,0.5,0.5,0.7l0.4,0.7l0.2,0.4l0.2,0.4l0.3,0.8c0.1,0.3,0.2,0.5,0.3,0.8l0.5,1.6c0.3,1,0.7,2.1,1,3.2s0.6,2.1,0.8,3.2
	c0.1,0.5,0.2,1.1,0.3,1.6c0.1,0.6,0.1,1.1,0,1.7c0-0.5,0-1.1-0.1-1.6c-0.1-0.5-0.2-1.1-0.4-1.6c-0.3-1.1-0.6-2.1-0.9-3.2
	s-0.7-2.1-1-3.2l-0.5-1.6c-0.1-0.3-0.2-0.5-0.3-0.8l-0.3-0.8c-0.9-2-2.2-3.8-3.8-5.3c-0.8-0.7-1.7-1.4-2.6-2
	C27.5,20.9,26.5,20.3,25.5,19.8z"/>
<path style="fill:#A57631;" d="M23.1,28c1.5,1,2.7,2.4,3.7,3.9c0.5,0.8,0.9,1.5,1.4,2.3c0.5,0.8,0.9,1.6,1.2,2.4
	c0.7,1.7,1.2,3.4,1.5,5.2c0.3,1.8,0.5,3.5,0.6,5.3L31,44.5c-0.1-0.9-0.3-1.7-0.5-2.6c-0.3-1.8-0.8-3.5-1.5-5.1l-1.2-2.4
	c-0.4-0.8-0.8-1.6-1.3-2.3c-0.5-0.8-1-1.5-1.5-2.2C24.4,29.2,23.8,28.6,23.1,28z"/>
<path style="fill:#A57631;" d="M21.4,34.1c0.8,1,1.5,2,2.1,3.1c0.6,1.1,1.2,2.2,1.6,3.4c0.4,1.2,0.7,2.4,1,3.6
	c0.1,0.6,0.3,1.2,0.4,1.8l0.3,1.8c-0.3-1.2-0.6-2.4-1-3.6s-0.7-2.4-1.1-3.5c-0.4-1.2-0.9-2.3-1.5-3.4c-0.3-0.5-0.6-1.1-0.9-1.6
	S21.8,34.7,21.4,34.1z"/>
<path style="fill:#A57631;" d="M17.8,35.8l1.3,3.1c0.5,1,0.9,2,1.4,3s1,2,1.5,3c0.6,0.9,1.3,1.8,2.1,2.5c-0.5-0.3-0.9-0.6-1.3-1
	c-0.4-0.4-0.8-0.8-1.1-1.3c-0.7-0.9-1.2-1.9-1.6-3c-0.5-1-0.9-2-1.3-3.1C18.4,37.9,18.1,36.9,17.8,35.8z"/>
<path style="fill:#A57631;" d="M26.8,20c-0.3,0.1-0.7,0.2-1,0.4c-0.4,0.2-0.7,0.4-1,0.6c-0.6,0.4-1.2,0.9-1.8,1.4
	c-0.6,0.5-1.1,1-1.7,1.5c-0.6,0.5-1.1,1-1.6,1.6c0.2-0.3,0.5-0.6,0.7-0.9s0.5-0.6,0.7-0.9c0.2-0.3,0.5-0.6,0.8-0.8s0.6-0.5,0.8-0.8
	c0.6-0.5,1.2-1,1.9-1.3C25.3,20.4,26,20.1,26.8,20z"/>
<path style="fill:#A57631;" d="M31.3,20.3c-0.6,0.4-1.1,0.7-1.7,1.1c-0.6,0.4-1.1,0.8-1.6,1.3c-1,0.9-1.9,1.9-2.6,3
	c-0.7,1.1-1.3,2.4-1.9,3.6l-0.9,1.8c-0.3,0.6-0.5,1.2-0.8,1.9c0.4-1.3,0.9-2.6,1.4-3.8c0.5-1.3,1.1-2.5,1.8-3.6l0.6-0.9
	c0.2-0.3,0.4-0.6,0.7-0.8c0.5-0.5,1-1,1.5-1.4C28.9,21.7,30.1,20.9,31.3,20.3z"/>
<path style="fill:#A57631;" d="M30.3,25.6c-0.6,1.6-1.3,3.1-2.1,4.6l-0.3,0.5l-0.3,0.5c-0.2,0.4-0.5,0.7-0.7,1.1
	c-0.2,0.3-0.4,0.7-0.7,1c-0.2,0.4-0.5,0.7-0.8,1l-0.9,0.9c-0.2,0.1-0.3,0.3-0.5,0.4L23.5,36c-0.7,0.5-1.4,0.9-2.1,1.3
	c-1.4,0.9-2.9,1.6-4.5,2.2c0.8-0.3,1.5-0.7,2.2-1.2c0.7-0.5,1.5-0.8,2.1-1.3s1.4-0.9,2.1-1.4l0.5-0.4c0.2-0.1,0.3-0.3,0.5-0.4
	l0.9-0.9c1.1-1.2,2.1-2.6,2.9-4c0.4-0.7,0.8-1.5,1.2-2.2S29.9,26.3,30.3,25.6z"/>
<path style="fill:#A57631;" d="M32.5,34.4c-0.6,1.2-1.4,2.4-2.4,3.3c-0.5,0.5-1,0.9-1.6,1.2c-0.6,0.3-1.2,0.6-1.8,0.8
	c0.6-0.3,1.2-0.7,1.7-1.1c0.5-0.4,1-0.8,1.5-1.3l1.4-1.4C31.7,35.4,32.1,34.9,32.5,34.4z"/>
<path style="fill:#A57631;" d="M38.3,33.5c-0.5,1.2-1.1,2.2-1.9,3.2c-0.4,0.5-0.8,0.9-1.3,1.3c-0.5,0.4-1,0.7-1.6,0.8
	c0.5-0.3,1-0.6,1.4-1c0.4-0.4,0.8-0.8,1.2-1.3c0.4-0.4,0.8-0.9,1.1-1.4C37.5,34.6,38,34,38.3,33.5z"/>
<path style="fill:#A57631;" d="M40,35.2c-0.5,1.7-1.3,3.3-2.3,4.7c-1,1.5-2.2,2.7-3.6,3.8L32,45.2c-0.7,0.5-1.5,0.9-2.3,1.2
	c-1.7,0.5-3.4,0.9-5.1,1.1l2.5-0.6c0.8-0.2,1.7-0.4,2.5-0.7c0.8-0.3,1.5-0.7,2.2-1.2l2.1-1.5c0.7-0.5,1.3-1.1,1.9-1.7
	c0.6-0.6,1.1-1.3,1.7-2c0.5-0.7,1-1.4,1.4-2.2C39.3,36.8,39.7,36,40,35.2z"/>
<path style="fill:#FFFFFF;" d="M23.7,34.8c0,0,1.2-6-1.4-9.4s-4-3.4-5-3s-4.1,1.7-4.1,7.8c0,5.2,3.5,6.5,3.5,6.5
	S18.5,34.9,23.7,34.8z"/>
<path style="fill:#A57631;" d="M23.7,34.7c0.2-2.7-0.1-5.4-1-7.9l-0.2-0.4c-0.1-0.1-0.2-0.2-0.2-0.4c-0.2-0.3-0.4-0.6-0.6-0.8
	c-0.4-0.6-0.8-1.1-1.3-1.6c-0.2-0.3-0.5-0.5-0.8-0.6c-0.3-0.2-0.6-0.3-0.9-0.4c-0.6-0.2-1.3-0.1-1.9,0.3c-1.2,0.6-2.1,1.7-2.5,3
	c-0.4,1.3-0.6,2.6-0.6,3.9c0,1.3,0.2,2.6,0.7,3.8c0.3,0.6,0.6,1.1,1,1.6c0.2,0.2,0.4,0.4,0.7,0.6c0.3,0.2,0.5,0.4,0.8,0.5l-0.6,0.1
	c0.1-0.1,0.3-0.2,0.4-0.3l0.4-0.3c0.3-0.2,0.6-0.3,0.9-0.4c0.6-0.2,1.2-0.4,1.8-0.5c0.6-0.1,1.3-0.1,1.9-0.1L23.7,34.7L23.7,34.7z
	 M23.8,34.8c-0.3,0-0.6,0.1-0.9,0.1L22,35.1c-0.6,0.1-1.1,0.2-1.7,0.4c-0.6,0.2-1.1,0.4-1.6,0.6c-0.2,0.1-0.5,0.2-0.7,0.4l-0.3,0.2
	l-0.1,0.1l-0.1,0.1l-0.2,0.3l-0.4-0.1c-0.4-0.1-0.7-0.3-1-0.5c-0.3-0.2-0.6-0.5-0.9-0.7c-0.5-0.5-1-1.2-1.3-1.9
	c-0.7-1.3-1-2.8-0.9-4.3c0-1.5,0.4-2.9,1-4.2c0.6-1.3,1.6-2.4,2.9-3.1c0.3-0.2,0.7-0.3,1-0.4c0.4-0.1,0.7-0.1,1.1,0
	c0.7,0.2,1.4,0.5,1.9,1c0.6,0.4,1.1,0.9,1.5,1.5c0.5,0.5,0.9,1.1,1.2,1.8c0.6,1.3,0.8,2.8,0.8,4.2c0,0.7-0.1,1.4-0.2,2.1
	c0,0.3-0.1,0.7-0.2,1l-0.1,0.5l-0.1,0.2v0.4C23.8,34.7,23.8,34.8,23.8,34.8z"/>
<path style="fill:#8A5C2A;" d="M16,26.5c0.5-1.3,1.5-2.3,2.8-2.9c2.2-1,4.4,3,4.7,4.9c0.5,1.5,0.5,3.2,0,4.7
	c-0.1,0.6-0.5,1.3-2.3,1.8C19.6,35.7,13.4,33.6,16,26.5z"/>
<path style="fill:#262424;" d="M17.8,25.9c0,0,0.9-2,3.5-0.9s2.4,6.2,2.2,6.8c-0.1,1.2-1,2.2-2.2,2.4C19.5,34.8,14.8,31.9,17.8,25.9
	z"/>
<path style="fill:#FFFFFF;" d="M29,34.6c0,0-1.9-9.1,2.4-11.3s6.7,1.3,7.3,2.1s2.7,6.6-1.8,9.6C34.3,34.2,31.6,34.1,29,34.6z"/>
<path style="fill:#A57631;" d="M29,34.7L29,34.7v-0.2l-0.1-0.2l-0.2-0.6c-0.1-0.3-0.1-0.6-0.2-1c-0.1-0.7-0.2-1.3-0.2-2
	c-0.1-1.3,0-2.7,0.3-4c0.2-0.7,0.4-1.3,0.8-1.9c0.4-0.6,0.9-1.1,1.5-1.5c0.1-0.1,0.3-0.2,0.5-0.2l0.5-0.2c0.2-0.1,0.3-0.1,0.5-0.2
	l0.5-0.1c0.7-0.2,1.3-0.2,2-0.1c1.3,0.2,2.6,0.9,3.5,1.9l0.7,0.7l0.1,0.1l0.1,0.1c0.1,0.1,0.1,0.2,0.2,0.2c0.1,0.2,0.2,0.3,0.2,0.5
	c0.3,0.6,0.5,1.3,0.6,2c0.1,0.7,0.2,1.4,0.2,2.1c0,0.7-0.2,1.4-0.4,2.1c-0.2,0.7-0.6,1.3-1,1.9c-0.2,0.3-0.5,0.5-0.7,0.8l-0.8,0.7
	l-0.2,0.2l-0.3-0.1c-0.6-0.2-1.2-0.3-1.8-0.5l-1.9-0.3c-0.8-0.1-1.6-0.2-2.4-0.2C31,34.7,29,34.7,29,34.7z M29.1,34.6
	c0.3-0.1,0.6-0.2,0.9-0.2c0.3,0,0.7-0.1,1-0.2c0.7-0.1,1.3-0.2,2-0.2c0.7,0,1.3,0,2,0.1c0.7,0.1,1.4,0.2,2.1,0.4l-0.5,0.1l0.7-0.6
	c0.2-0.2,0.4-0.4,0.6-0.7c0.4-0.5,0.7-1,0.9-1.6c0.2-0.6,0.3-1.2,0.4-1.8c0.1-0.6,0.1-1.2,0-1.8c-0.1-0.6-0.2-1.2-0.4-1.8
	c0-0.2-0.1-0.3-0.2-0.4c0-0.1,0-0.1-0.1-0.2v-0.1l-0.1-0.1c-0.2-0.3-0.4-0.5-0.6-0.8c-0.4-0.5-0.9-0.9-1.4-1.3
	c-0.5-0.4-1.2-0.6-1.8-0.6c-1.3-0.1-2.5,0.3-3.5,1.1c-0.9,0.8-1.5,1.9-1.7,3.1C29,29.5,28.9,32.1,29.1,34.6z"/>
<path style="fill:#8A5C2A;" d="M34.4,23.2c2.1,1,3.6,3.1,3.7,5.5c0,2.5-2.1,6.3-5.5,5.7s-3.7-2.3-3.8-3.9c0-1.9,0.4-3.8,1.1-5.6
	C30.6,23.4,32,22.1,34.4,23.2z"/>
<path style="fill:#262424;" d="M29.7,26.5c0.3-0.9,1-1.6,1.8-2.1c1.5-0.8,3.8-0.1,4.7,2.8s-0.9,6.5-3.6,6.6S28.5,31.5,29.7,26.5z"/>
<path style="fill:#FFFFFF;" d="M32.2,25.6c0,0,1.1-1.2,1.9-0.6s-0.2,1.6-0.6,1.9s-1.5,1-1.8,0.3C31.4,26.7,31.6,25.9,32.2,25.6
	C32.2,25.6,32.2,25.6,32.2,25.6z"/>
<path style="fill:#FFFFFF;" d="M19.4,26.7c0,0,0.9-1.5,1.6-1s0.2,1.1,0,1.7s-0.7,1.7-1.7,1.4S19.4,26.7,19.4,26.7z"/>
<path style="fill:#FFFFFF;" d="M31,30.7c0.3,0,0.5,0.1,0.7,0.3c0.2,0.5,0,0.9-0.3,0.9c-0.3,0.1-0.7-0.1-0.8-0.4s0.1-0.7,0.4-0.8
	C30.9,30.7,30.9,30.7,31,30.7L31,30.7z"/>
<path style="fill:#FFFFFF;" d="M18.9,31.4c0.3,0,0.5,0.1,0.7,0.3c0.2,0.5,0,0.9-0.3,0.9c-0.3,0.1-0.7,0-0.9-0.3
	c-0.1-0.3,0-0.7,0.3-0.9C18.8,31.5,18.9,31.4,18.9,31.4L18.9,31.4z"/>
<path style="fill:#E2A731;" d="M13.4,35.2c0,0,2.6,4.8,6.1,6.2c2.3,0.9,4.7,1.7,7.1,2.3c0,0-3.6,1.6-5.9,1.3c-2-0.2-3.9-1.3-5.1-2.9
	"/>
<path style="fill:#A57631;" d="M13.4,35.2c0.8,1.1,1.7,2.1,2.6,3.1c0.9,1,1.9,1.8,3,2.5c0.6,0.3,1.2,0.6,1.8,0.8
	c0.6,0.2,1.3,0.5,1.9,0.7c1.3,0.4,2.6,0.7,3.9,1.1l0.8,0.2l-0.8,0.3c-0.9,0.4-1.9,0.8-2.9,1c-1,0.3-2.1,0.4-3.1,0.3
	c-1.1-0.1-2.1-0.5-3-1.1c-0.4-0.3-0.8-0.6-1.2-1c-0.4-0.4-0.7-0.8-1-1.2h0.1c0.7,0.7,1.5,1.3,2.4,1.8c0.9,0.4,1.8,0.7,2.8,0.8
	c1,0,1.9-0.1,2.9-0.3c1-0.2,2-0.5,2.9-0.9v0.6c-1.3-0.5-2.5-1-3.8-1.4c-0.6-0.2-1.3-0.5-1.9-0.7s-1.3-0.4-2-0.6
	c-1.3-0.6-2.3-1.5-3.1-2.7C14.7,37.6,13.9,36.5,13.4,35.2z"/>
<path style="fill:#E2A731;" d="M17.9,40.5c0.7-1,1.9-1.6,3.2-1.6c2.2,0.1,5,0.2,10.2,3.2s6.6-0.4,6.6-0.4s-1.8,3.1-4.8,3.2
	c-2.2-0.1-4.4-0.5-6.4-1.4c0,0-3.1-0.8-4.9-1.4C20.4,41.7,19.1,41.2,17.9,40.5z"/>
<path style="fill:#A57631;" d="M17.9,40.5L17.9,40.5l0.1-0.2l0.2-0.3l0.5-0.5c0.4-0.3,0.8-0.5,1.3-0.6c0.5-0.2,1-0.2,1.5-0.2
	c0.5,0,0.9,0,1.4,0.1c1.9,0.2,3.7,0.7,5.4,1.5c0.8,0.4,1.7,0.9,2.4,1.3s1.6,0.9,2.4,1.3c0.8,0.4,1.7,0.5,2.6,0.3
	c0.9-0.2,1.6-0.7,2-1.5l0.4,0.2c-0.5,1-1.3,1.8-2.2,2.4c-0.9,0.7-2,1-3.1,1c-1.1,0-2.2-0.1-3.2-0.4c-1-0.2-2-0.6-3-1l0,0l-2.3-0.7
	l-2.2-0.7c-0.8-0.2-1.5-0.5-2.2-0.8c-0.3-0.2-0.7-0.4-1-0.5l-0.5-0.3l-0.3-0.2L17.9,40.5C18,40.6,17.9,40.5,17.9,40.5z M17.9,40.5
	L17.9,40.5l0.2,0.1l0.3,0.1l0.5,0.2l1.1,0.4c0.7,0.3,1.5,0.5,2.2,0.7l2.3,0.6l2.3,0.6l0,0c1,0.4,1.9,0.7,2.9,1c1,0.3,2,0.4,3,0.4
	c1,0,2-0.3,2.8-0.8c0.9-0.5,1.6-1.2,2.2-2.1l0.4,0.2c-0.5,0.9-1.3,1.5-2.3,1.6c-0.9,0.1-1.9,0-2.8-0.3c-0.4-0.2-0.9-0.3-1.3-0.5
	l-1.2-0.6c-0.8-0.4-1.6-0.8-2.5-1.1c-0.8-0.4-1.7-0.7-2.6-0.9c-0.9-0.3-1.8-0.4-2.6-0.6c-0.5,0-0.9-0.1-1.4-0.1
	c-0.4-0.1-0.9-0.1-1.3,0c-0.4,0.1-0.8,0.2-1.2,0.4c-0.2,0.1-0.4,0.2-0.5,0.4l-0.2,0.2C18.2,40.4,17.9,40.5,17.9,40.5z"/>
<path style="fill:#E2A731;" d="M27.5,40.2c1.7-1,3.7-1.6,5.7-1.5c3.1,0.2,5,0.6,4.8,3.3c-0.8,1.1-2.2,1.6-3.5,1.4
	C32.4,43.1,30.5,41,27.5,40.2z"/>
<path style="fill:#A57631;" d="M27.5,40.2L27.5,40.2l0.1-0.1l0.2-0.1l0.3-0.2c0.2-0.1,0.5-0.3,0.7-0.4c1-0.5,2-0.8,3.1-0.9
	c0.5-0.1,1.1-0.1,1.6,0c1.1,0.1,2.1,0.4,3.1,0.8c0.6,0.2,1,0.6,1.2,1.2c0.2,0.5,0.3,1.1,0.3,1.6l0,0v0.1c-0.6,0.9-1.6,1.4-2.6,1.6
	c-0.6,0.1-1.1,0.1-1.7,0c-0.5-0.1-1-0.3-1.4-0.6c-0.9-0.5-1.7-1-2.5-1.5c-0.4-0.3-0.8-0.5-1.2-0.7l-0.6-0.3L28,40.5l-0.2-0.1
	L27.5,40.2z M27.6,40.2h0.8c0.2,0.1,0.5,0.1,0.7,0.2c0.5,0.2,1,0.4,1.4,0.6c0.9,0.4,1.7,0.9,2.6,1.3c0.8,0.4,1.7,0.7,2.6,0.6
	c0.9-0.1,1.7-0.5,2.3-1.2v0.1c0.1-0.5,0.1-1-0.1-1.5c-0.2-0.5-0.5-0.8-1-1c-0.5-0.2-1-0.3-1.5-0.3h-3.1c-0.5,0-1,0.1-1.5,0.2
	c-0.5,0.1-1,0.2-1.5,0.4l-0.8,0.3L28,40l-0.2,0.1h-0.1C27.7,40.1,27.6,40.2,27.6,40.2z"/>
<path style="fill:#ECC477;" d="M20.9,58.4c0.7-0.7,1.5-1.3,2.4-1.7c0.9-0.4,1.9-0.6,2.9-0.7c1-0.1,2,0,3,0.2c1,0.2,1.9,0.6,2.7,1.2
	C31,57.3,30,57.1,29.1,57c-0.9-0.1-1.8-0.1-2.7,0c-0.9,0.1-1.8,0.2-2.7,0.5C22.7,57.7,21.8,58,20.9,58.4z"/>
<path style="fill:#ECC477;" d="M18.6,40.3c0.6-0.4,1.3-0.7,2-0.8c0.7-0.1,1.5-0.1,2.2,0c0.7,0.1,1.4,0.2,2.1,0.4
	c0.7,0.2,1.4,0.4,2,0.7c0.6,0.3,1.3,0.5,2,0.8s1.3,0.7,1.9,1c0.3,0.2,0.6,0.4,0.9,0.5c0.3,0.2,0.7,0.3,1,0.4l2,0.8
	c-0.7-0.1-1.4-0.3-2.1-0.4l-1-0.3c-0.4-0.1-0.7-0.3-1-0.5c-1.2-0.6-2.5-1.2-3.8-1.7c-0.6-0.2-1.3-0.5-2-0.7c-0.7-0.2-1.3-0.4-2-0.5
	c-0.7-0.1-1.4-0.2-2.1-0.2C20,39.9,19.3,40,18.6,40.3z"/>
<path style="fill:#ECC477;" d="M14.6,38.1l1.7,1.6c0.5,0.5,1.1,1,1.8,1.4c0.3,0.2,0.7,0.3,1,0.4c0.3,0.2,0.7,0.3,1.1,0.4
	c0.7,0.3,1.4,0.5,2.2,0.8c-0.8,0-1.6-0.1-2.3-0.3c-0.4-0.1-0.8-0.2-1.1-0.3s-0.8-0.3-1.1-0.4c-0.7-0.4-1.3-1-1.8-1.6
	C15.4,39.6,14.9,38.9,14.6,38.1z"/>
<path style="fill:#A57631;" d="M17.8,19.9c0,0-0.3-0.7,0.8-1.1c2.6-0.8,5.3-1.2,8-1.1c4.4-0.1,8.3,1.4,8.8,1.9c1,0.9,0.4,1.4,0,1.5
	s-2.8-1.9-8.8-1.7s-7.5,1.3-8,1.4S17.8,19.9,17.8,19.9z"/>
<path style="fill:#E2A731;" d="M30,17.8c0,0,1.1-6.5-4.2-8.4c-4.3-1.6-6,1.7-5.7,4s1,6.2,2.7,7.8c0,0,0.9-6.4,3.2-6.8
	c1.9-0.3,2.8,1,3.1,2.8"/>
<path style="fill:#A57631;" d="M30,18.4c0.1-1.1,0-2.3-0.2-3.4c-0.2-1.1-0.6-2.2-1.3-3.1c-1.3-1.8-3.4-2.7-5.6-2.4
	c-0.5,0.1-0.9,0.4-1.3,0.7c-0.3,0.4-0.6,0.8-0.8,1.2c-0.2,0.5-0.2,1-0.2,1.5c0,0.3,0,0.5,0.1,0.8s0.1,0.5,0.1,0.8
	c0.2,1.1,0.4,2.2,0.8,3.3c0.3,1,0.8,2,1.5,2.8l-0.8,0.3c0.2-1,0.4-2.1,0.7-3.1c0.3-1,0.8-2,1.4-2.9c0.3-0.5,0.9-0.9,1.5-1
	c0.6-0.1,1.2,0,1.7,0.2c0.5,0.3,0.9,0.7,1.1,1.2c0.2,0.5,0.3,1,0.4,1.5c-0.1-0.5-0.3-1-0.5-1.5c-0.2-0.5-0.6-0.8-1.1-1
	c-0.5-0.1-0.9-0.1-1.4,0c-0.4,0.1-0.8,0.4-1.1,0.8c-0.3,0.4-0.5,0.9-0.7,1.4c-0.2,0.5-0.3,1-0.5,1.5c-0.3,1-0.5,2-0.6,3l-0.1,0.9
	l-0.7-0.6c-0.5-0.4-0.9-0.9-1.1-1.5c-0.3-0.5-0.5-1.1-0.7-1.7c-0.4-1.1-0.7-2.2-0.8-3.4c0-0.3-0.1-0.6-0.1-0.9s-0.1-0.6-0.1-0.9
	c0-0.6,0.1-1.3,0.3-1.9c0.2-0.6,0.6-1.2,1.1-1.6c0.5-0.5,1.1-0.8,1.8-0.9c0.6-0.1,1.3-0.1,1.9,0c0.6,0.1,1.2,0.3,1.8,0.6
	c1.1,0.5,2.1,1.3,2.7,2.4c0.6,1,1,2.2,1.1,3.4C30.3,16.1,30.2,17.2,30,18.4z"/>
<path style="fill:#ECC477;" d="M29.2,40.1c0.8-0.3,1.6-0.5,2.4-0.6c0.8-0.2,1.7-0.2,2.5-0.2c0.4,0,0.8,0,1.2,0.1
	c0.4,0.1,0.8,0.2,1.2,0.4c0.4,0.2,0.7,0.5,1,0.8c0.2,0.4,0.3,0.8,0.2,1.2c-0.1-0.4-0.3-0.7-0.5-1c-0.3-0.2-0.6-0.4-0.9-0.5
	c-0.4-0.1-0.7-0.2-1.1-0.2h-2.4l-1.2,0.1C30.8,40.1,30,40.2,29.2,40.1z"/>
<path style="fill:#ECC477;" d="M25.7,18.8c0.9-0.2,1.9-0.3,2.9-0.3c1-0.1,2,0,3,0.1c0.5,0.1,0.9,0.2,1.4,0.3
	c0.5,0.1,0.9,0.3,1.4,0.6c0.4,0.2,0.8,0.5,1.1,0.9c0.2,0.4,0.2,0.8,0.1,1.2c-0.1-0.4-0.3-0.8-0.5-1.1c-0.3-0.3-0.6-0.5-1-0.6
	c-0.4-0.2-0.8-0.3-1.3-0.4l-1.4-0.2L30,19.3l-1.4-0.1C27.6,19,26.7,19,25.7,18.8z"/>
<path style="fill:#ECC477;" d="M31,11.9c0.3-0.8,0.7-1.6,1.3-2.2c0.6-0.7,1.3-1.2,2.2-1.5C34.7,8.1,35,8.1,35.2,8s0.4-0.1,0.7-0.1
	h1.2c0.8,0.1,1.7,0.3,2.4,0.7c-0.8,0.2-1.6,0.3-2.4,0.4c-0.7,0.1-1.4,0.2-2.1,0.4c-0.7,0.3-1.3,0.6-1.9,1C32.5,11,31.8,11.5,31,11.9
	z"/>
<path style="fill:#ECC477;" d="M26.6,13.4c-0.6,0-1.1,0.2-1.6,0.4c-0.5,0.3-0.9,0.7-1.3,1.1c-0.3,0.5-0.6,1-0.8,1.5
	c-0.1,0.3-0.1,0.5-0.2,0.8c-0.1,0.3-0.1,0.5-0.1,0.8l-0.2,1.3L22,18.1c-0.3-0.9-0.6-1.7-0.8-2.6c-0.2-0.9-0.3-1.9-0.2-2.8
	c0-0.2,0.1-0.5,0.2-0.7l0.2-0.4l0.2-0.3c0.3-0.4,0.6-0.7,1-1c0.4-0.3,0.8-0.5,1.3-0.5c0.5,0,0.9,0.1,1.3,0.3c-0.4-0.1-0.9-0.1-1.3,0
	c-0.4,0.1-0.8,0.3-1.1,0.6c-0.3,0.3-0.6,0.6-0.8,1L21.9,12l-0.1,0.3c0,0.1,0,0.2-0.1,0.3v0.3c0,0.8,0.1,1.7,0.3,2.5
	c0.2,0.8,0.4,1.7,0.7,2.5L22,18c0-0.3,0.1-0.6,0.2-0.9l0.3-0.9c0.2-0.6,0.6-1.1,1-1.6c0.4-0.5,0.9-0.8,1.5-1
	C25.5,13.4,26.1,13.3,26.6,13.4z"/>
<path style="fill:#ECC477;" d="M15.1,17.7c0-0.5,0.1-1,0.3-1.5c0.2-0.5,0.5-0.9,0.8-1.3c0.4-0.4,0.9-0.7,1.4-0.8
	c0.5-0.1,1.1,0,1.5,0.3c-0.5,0-1,0.1-1.4,0.3c-0.4,0.2-0.7,0.4-1,0.7c-0.3,0.3-0.6,0.7-0.8,1.1C15.6,16.9,15.4,17.3,15.1,17.7z"/>
<path style="fill:#ECC477;" d="M13.6,13.2c0.3-0.4,0.6-0.8,1-1.1c0.2-0.2,0.4-0.3,0.7-0.4c0.2-0.1,0.5-0.2,0.8-0.1
	c0.5,0,1,0.1,1.4,0.3c0.5,0.2,0.9,0.5,1.2,0.9c-0.4-0.2-0.9-0.3-1.3-0.4c-0.4-0.1-0.9-0.1-1.3-0.1c-0.4,0-0.8,0.1-1.2,0.3
	C14.5,12.8,14.1,13,13.6,13.2z"/>
<path style="fill:#A57631;" d="M41.8,17.9c0,0-1-4.4-5.2-3.3s-4.4,3.5-3.1,3.7s3.4-1.1,4.7-1.3C39.5,16.7,40.8,17,41.8,17.9z"/>
<path style="fill:#ECC477;" d="M26.8,6c0.4-0.2,0.8-0.3,1.3-0.3c0.5,0,1,0.2,1.4,0.4c0.4,0.3,0.7,0.6,0.9,1c0.2,0.4,0.4,0.8,0.5,1.3
	L30,7.5c-0.3-0.3-0.6-0.5-0.9-0.8c-0.3-0.2-0.6-0.4-1-0.5C27.7,6.2,27.2,6.1,26.8,6z"/>
<path style="fill:#ECC477;" d="M31.8,16.5c0.2-1.1,0.8-2.2,1.7-2.9c1-0.7,2.1-1.1,3.3-1.2c0.6-0.1,1.2,0,1.8,0.1
	c0.6,0.1,1.2,0.3,1.7,0.7c0.5,0.4,0.9,0.8,1.2,1.4c0.2,0.5,0.4,1,0.4,1.6c-0.3-0.5-0.6-0.9-1-1.3c-0.3-0.3-0.7-0.6-1.1-0.8
	c-0.9-0.3-1.9-0.4-2.8-0.3c-1,0.1-1.9,0.3-2.8,0.7C33.3,15,32.4,15.7,31.8,16.5z"/>
<path style="fill:#ECC477;" d="M22.1,12.2c0.3-0.8,1-1.4,1.8-1.7c0.9-0.2,1.8-0.2,2.6,0.2c0.8,0.3,1.5,0.9,2,1.6
	c0.4,0.7,0.7,1.5,0.8,2.3c-0.3-0.2-0.6-0.5-0.8-0.8c-0.2-0.3-0.5-0.5-0.8-0.7c-0.5-0.4-1.1-0.8-1.7-1C24.8,11.5,23.3,11.6,22.1,12.2
	z"/>
<path style="fill:#ECC477;" d="M26,25.2c-0.7,0.9-1.3,1.9-1.9,2.9c0.1,0.3,0.2,0.6,0.4,0.8c0,0,1.1,1.2,1.1,1.6c0.5,0,1.5-1,2,0.1
	l0.5-0.8c0-0.7,0-1.4,0.1-2.1C27.7,26.7,26.9,25.8,26,25.2z"/>
<path style="fill:#ECC477;" d="M17.8,36.5c0,0-0.6,0.6-0.1,0.5s3.4-1.9,6-1.7c0.7-0.2,0.5-0.6-0.5-0.6
	C21.4,35.2,19.6,35.8,17.8,36.5z"/>
<path style="fill:#ECC477;" d="M29.5,34.7c0,0-0.4,0.2,0,0.3s6.2,0.1,7.1,0.8c0.4-0.2,0.5-0.6-0.6-0.7S31.9,34.3,29.5,34.7z"/>
<path style="fill:#ECC477;" d="M28.3,26.5c0.4-1.3,1.2-2.5,2.2-3.4l-0.6-0.5c-0.6,0.5-1.1,1.1-1.6,1.7c-0.2,0.4-0.9,1.3-1.2,1.3
	C27.5,25.9,27.9,26.2,28.3,26.5z"/>
<path style="fill:#ECC477;" d="M21.9,23.2l-0.2,0.3c0,0,2.3,2,2.4,3.7c0.7-1,1.1-1.7,1.1-1.7c-0.6,0-1.1-0.2-1.5-0.6
	C23.2,24.3,22.6,23.7,21.9,23.2z"/>
<path style="fill:#ECC477;" d="M26.6,24.5c0,0,1.7-2.3,2.4-2.3C29.2,22.5,26.6,24.5,26.6,24.5z"/>
<path style="fill:#ECC477;" d="M23.1,22.7c0.4,0.5,0.8,0.9,1.2,1.3c0.3,0.3,0.7,0.6,1.1,0.8C24.9,23.9,24.1,23.1,23.1,22.7z"/>
<path style="fill:#ECC477;" d="M23.5,19.9l-0.1,0.5c0,0,3.6-1.2,11.3,1.5C34,21.4,30.5,19.3,23.5,19.9z"/>
<path style="fill:#ECC477;" d="M24.4,29.4l1.9,2.7C26.1,31,25.4,30,24.4,29.4z"/>
<path style="fill:#ECC477;" d="M25.7,34.3l1.1-1.4c0,0,0.9,1.7,1.1,2c-0.4-0.4-0.8-0.9-1.1-1.4L25.7,34.3z"/>
<path style="fill:#ECC477;" d="M23.5,22.3c0.8-0.7,1.7-1.3,2.7-1.7c0.7,0.4,1.4,0.9,2.1,1.4L26,21L23.5,22.3z"/>
<path style="fill:#ECC477;" d="M30.9,22.3c0.7-0.6,1.7-0.7,2.6-0.4c-1,0.4-2.5,0.8-2.5,0.8S30.3,22.7,30.9,22.3z"/>
<path style="fill:#ECC477;" d="M18.7,21.7c1-0.1,2,0.2,2.7,0.9c0.1,0.7-0.6,0.1-0.6,0.1C20.2,22.3,19.4,21.9,18.7,21.7z"/>
<polygon style="fill:#ECC477;" points="32.5,35.2 33.5,38.3 33.9,38.1 "/>
<path style="fill:#ECC477;" d="M35,38.3c0.8-0.6,1.5-1.3,2-2.2c-0.2,0.9-0.6,1.7-1.2,2.4L35,38.3z"/>
<path style="fill:#ECC477;" d="M30.2,38.1c0.1-0.2,1.9-2.2,2.1-2.6c-0.5,1-1.1,2-1.8,2.9L30.2,38.1z"/>
<polygon style="fill:#ECC477;" points="22.5,37.2 23.3,38.3 22.7,36.5 "/>
<polygon style="fill:#ECC477;" points="25.3,44.8 25.9,44.2 26.4,46.7 "/>
<polygon style="fill:#ECC477;" points="26.4,44.2 26.8,44.2 26.8,45.8 "/>
<path style="fill:#4A3517;" d="M23.6,36c0.8-0.1,0.8,2.2,2.9,1.5s0.7-2.5,1.3-3c0.1-0.3,0.5,0.1,0.8,0.7c0.5,1.4,0.7,3.9-1.7,4.4
	C22.5,40.4,22.8,36.3,23.6,36z"/>
</svg>
