<?xml version="1.0" encoding="utf-8"?>
<!-- Generator: Adobe Illustrator 22.0.0, SVG Export Plug-In . SVG Version: 6.00 Build 0)  -->
<svg version="1.1" id="Слой_1" xmlns="http://www.w3.org/2000/svg" xmlns:xlink="http://www.w3.org/1999/xlink" x="0px" y="0px"
	 viewBox="0 0 55.8 62.9" style="enable-background:new 0 0 55.8 62.9;" xml:space="preserve">
<title>21_1</title>
<path style="fill:#7CBA7B;" d="M25.5,61.3c-4.2,0-4.4,0-4.5-0.1c-0.3,0-0.5-0.2-0.6-0.5c-0.1-0.3,0-0.6,0.2-0.8l0.1-0.1l4.9-3.1V49
	c-1.7-0.3-3.2-1.5-3.8-3.1c-0.6-0.2-0.9-0.8-0.7-1.3c0,0,0,0,0-0.1c0-0.1,0-0.1,0.1-0.2c-0.2-0.8-0.4-1.6-0.6-2.5
	c-0.1-0.1-0.2-0.1-0.3-0.2c-0.4-0.5-0.4-1.1,0-1.6c-0.1-0.7-0.2-1.3-0.3-1.9v-0.2c-0.5,0.3-1,0.4-1.5,0.4c-0.7,0-1.3-0.3-1.7-0.8
	c-1-1.5,0.5-4.5,0.5-4.7c0.3-1.1,0.4-2.2,0.4-3.3c-0.1-0.4-0.3-0.7-0.5-1c-0.1-0.2-0.2-0.3-0.3-0.5c-0.1-0.4-0.1-0.8,0.1-1.1
	c0.1-0.2,0.4-0.3,0.6-0.3h0.1v-0.3c0-0.2,0-0.3,0.1-0.4c0.2-0.4,0.6-0.7,1-0.8l0,0V25c0.1-0.1,0.3-0.2,0.4-0.3l0.1-0.1
	c0.1-0.1,0.2-0.1,0.3-0.1l0.1-1.6c0-0.6,0-1.3,0.1-1.9c-0.5-0.3-0.7-1-0.4-1.5c0.1-0.2,0.3-0.4,0.6-0.5c0-0.3,0.1-0.7,0.1-1v-0.1
	c0-0.3,0.1-0.6,0.1-0.9s0.1-0.6,0.1-0.9c-0.4-0.4-0.5-1.1-0.1-1.5c0.1-0.2,0.3-0.3,0.5-0.3c0.1-0.4,0.2-0.7,0.3-1.1
	c0.3-1,0.6-1.9,0.9-2.7l0.2-0.4l0.1-0.2c0.1-0.3,0.2-0.5,0.3-0.8c-0.4-0.5-0.4-1.2,0-1.7c0.2-0.2,0.5-0.3,0.8-0.3h0.3
	c0.4-0.6,1-1,1.7-1.2V3c0-0.4,0.2-0.7,0.6-0.9c0.1,0,0.2-0.1,0.3-0.1h0.6c0.5,0,1,0.4,1,0.9c0,0,0,0.1,0,0.1V6c1.8,0.8,3.3,3,4.3,5
	c0.5,0.2,0.8,0.8,0.7,1.3c0,0.1,0,0.1-0.1,0.2c0.1,0.4,0.3,0.9,0.4,1.3c0.4,0.3,0.7,0.8,0.6,1.3c0,0.2-0.2,0.4-0.3,0.6
	c0.2,1.8,0.4,4.1,0.7,6.3c0.4,0.1,0.6,0.4,0.7,0.8c0.1,0.5-0.1,0.9-0.5,1.2l0.1,0.7c0.5,0.1,0.9,0.3,1.3,0.6
	c0.1,0.2,0.3,0.3,0.3,0.5c0.1,0,0.2,0,0.3,0.1c0.8,0.2,0.6,1.3,0.5,2l0,0v1.7c0,0.5,0.1,1,0.3,1.4c0.9,1.4,1.6,2.9,2,4.5
	c0.1,0.7-0.2,1.4-0.6,1.9c-0.3,0.3-0.7,0.5-1.1,0.5c-0.7,0-1.3-0.1-1.9-0.4v0.8c0.2,0.2,0.4,0.4,0.4,0.7c0.1,0.4-0.1,0.8-0.4,1.1
	v1.3c0.1,0.1,0.1,0.2,0.2,0.4c0.1,0.3,0,0.6-0.2,0.8c0,0.7,0,1.3-0.1,2c0.2,0.2,0.3,0.4,0.4,0.6c0.1,0.3,0,0.7-0.2,0.9
	c-0.1,0.2-0.3,0.3-0.5,0.4c-0.2,0.6-0.5,1.1-1,1.4c-0.6,0.3-1.2,0.6-1.9,0.9v7.9c1.3,0.9,4.6,3,4.9,3.3c0.3,0.2,0.4,0.6,0.4,0.9
	c-0.1,0.3-0.3,0.5-0.5,0.6h-0.2C36.9,61.2,30.2,61.3,25.5,61.3z"/>
<path style="fill:#FFFFFF;" d="M27.1,2.5c0.3,0,0.5,0.2,0.5,0.4c0,0,0,0,0,0.1v3.4c1.7,0.5,3.4,2.7,4.4,5c0.4,0.1,0.6,0.4,0.6,0.8
	c0,0.1,0,0.1-0.1,0.2c0.2,0.6,0.4,1.1,0.5,1.7c0.4,0.1,0.6,0.4,0.6,0.8c-0.1,0.2-0.2,0.4-0.4,0.4c0.2,2,0.5,4.8,0.7,6.9
	c0.3,0,0.6,0.2,0.7,0.5c0,0.4-0.2,0.7-0.6,0.8c0,0.4,0.1,0.8,0.1,1.1l0,0v0.3h0.2c0.4,0,0.9,0.2,1.2,0.5c0.2,0.2,0.3,0.5,0.3,0.8
	l0,0C35.9,26,36,26,36.1,26h0.2c0.4,0.1,0.1,1.4,0.1,1.4v1.9l0,0c0,0.6,0.1,1.2,0.3,1.7c0.9,1.3,1.5,2.8,1.9,4.3
	c0.1,0.9-0.5,1.9-1.2,1.9c-1,0.1-1.9-0.4-2.5-1.2c0.1,1.1,0.1,2,0.1,2.2v0.1c0.2,0.1,0.4,0.2,0.4,0.5c0,0.3-0.1,0.6-0.4,0.7
	c0,0.6,0,1.2,0.1,1.8c0.1,0.1,0.1,0.2,0.2,0.3s0,0.4-0.2,0.5c0,0.8,0,1.7-0.1,2.5c0.2,0.1,0.4,0.2,0.4,0.5c0,0.4-0.3,0.8-0.7,0.8
	l0,0c-0.1,0.5-0.4,1-0.8,1.3c-0.7,0.4-1.4,0.7-2.1,1l0,0v8.5c0,0,4.8,3.1,5,3.4c0.5,0.4,0,0.6,0,0.6H21c-0.4-0.1-0.1-0.5-0.1-0.5
	l5.1-3.3v-8.3l0,0c-1.7-0.2-3.1-1.3-3.8-2.9l-0.1-0.2l0,0c-0.3,0-0.6-0.3-0.6-0.6c0-0.2,0.1-0.3,0.2-0.4c-0.3-1-0.6-2-0.7-3
	c-0.2,0-0.3-0.1-0.4-0.2c-0.2-0.2-0.3-0.5-0.1-0.8c0,0,0.1-0.1,0.1-0.1c0.1,0,0.1-0.1,0.2-0.1v-0.1l-0.3-2.1l0,0
	c0-0.3-0.1-0.6-0.1-0.8l0,0V37c-0.4,0.6-1.2,0.9-1.9,0.9c-2.6,0-1-4-0.7-4.8c0.3-1.1,0.5-2.3,0.5-3.5c0-0.6-0.7-1.4-0.8-1.7
	s0-0.8,0.3-0.8H18c0.4,0,0.3-0.8,0.4-0.9s0.4-0.5,0.6-0.5s0.3-0.3,0.6-0.4s0.3-0.2,0.4-0.2s0.1,0,0.2,0.2c0-0.7,0.1-1.4,0.1-2.1l0,0
	c0-0.1,0-1.1,0.1-2.4c-0.4,0-0.6-0.3-0.6-0.7c0-0.4,0.3-0.6,0.7-0.6l0,0c0-0.4,0.1-0.9,0.1-1.3l0,0V18c0-0.2,0.1-0.5,0.1-0.8
	c0-0.4,0.1-0.8,0.2-1.2c-0.3-0.1-0.5-0.4-0.4-0.7c0,0,0,0,0,0c0.1-0.2,0.3-0.4,0.5-0.4h0.1c0.1-0.5,0.3-0.9,0.4-1.4
	c0.3-1,0.6-1.9,0.9-2.7l0,0l0.2-0.4l0,0l0.1-0.2l0,0c0.1-0.4,0.3-0.8,0.5-1.1c-0.4-0.1-0.5-0.5-0.4-0.9s0.5-0.5,0.9-0.4
	c0.1,0,0.1,0.1,0.2,0.1c0.4-0.7,1.1-1.2,1.9-1.4h0.1V3c0-0.2,0.1-0.4,0.3-0.5L27.1,2.5 M27.1,1.5h-0.6c-0.1,0-0.3,0-0.4,0.1H26
	c-0.6,0.2-1,0.8-1,1.4v2.5c-0.5,0.2-1,0.6-1.4,1h-0.1c-0.9,0-1.7,0.7-1.7,1.7c0,0,0,0,0,0c0,0.3,0.1,0.6,0.2,0.9
	c-0.1,0.2-0.1,0.3-0.2,0.5l-0.1,0.2l-0.2,0.4l0,0c-0.3,0.8-0.6,1.7-0.9,2.8l-0.3,0.9c-0.8,0.4-1.1,1.3-0.7,2.1c0,0,0,0,0,0
	c0,0.1,0,0.1,0.1,0.2c0,0.2-0.1,0.4-0.1,0.7s-0.1,0.6-0.1,0.8v0.2l0,0c0,0.3,0,0.5-0.1,0.8c-0.7,0.5-0.9,1.5-0.4,2.2
	c0.1,0.1,0.1,0.2,0.2,0.3c0,0.7-0.1,1.3-0.1,1.6V23l0,0c0,0.4,0,0.8-0.1,1.2h-0.1c-0.2,0.1-0.4,0.2-0.5,0.4c-0.5,0.2-0.9,0.5-1.1,1
	c-0.1,0.1-0.1,0.2-0.1,0.4c-0.3,0.1-0.5,0.3-0.7,0.5c-0.3,0.5-0.4,1.1-0.2,1.6l0.3,0.6c0.2,0.2,0.3,0.5,0.4,0.8c0,1-0.1,2-0.4,3
	c-0.2,0.3-1.6,3.4-0.5,5.2c0.5,0.7,1.3,1.1,2.1,1c0.4,0,0.7-0.1,1.1-0.2c0.1,0.4,0.1,0.9,0.2,1.3c-0.6,0.6-0.6,1.7,0.1,2.3
	c0,0,0,0,0,0c0.1,0,0.1,0,0.1,0.1l0.2,0.2c0.1,0.7,0.3,1.4,0.5,2.1c-0.3,0.7,0,1.6,0.7,2c0.7,1.5,2.1,2.7,3.7,3.1v7l-4.6,3
	c-0.1,0-0.1,0.1-0.2,0.2c-0.5,0.5-0.5,1.3,0,1.7c0.2,0.2,0.4,0.3,0.7,0.4c1.5,0.1,3.1,0.1,4.6,0.1H37c0.4-0.1,0.8-0.5,0.9-0.9
	c0.1-0.5-0.1-1-0.5-1.3c-0.2-0.2-2.6-1.8-4.7-3.2v-7.3c0.6-0.2,1.1-0.5,1.6-0.8c0.6-0.3,1-0.9,1.2-1.5c0.6-0.4,1-1.1,0.9-1.8
	c-0.1-0.3-0.2-0.5-0.4-0.7c0-0.5,0.1-1.1,0.1-1.7c0.2-0.3,0.2-0.7,0.1-1c0-0.2-0.1-0.3-0.2-0.4v-1c0.3-0.4,0.4-0.8,0.3-1.3
	c0-0.2-0.1-0.4-0.2-0.6c0.4,0.1,0.8,0.1,1.2,0.1c0.6,0,1.1-0.3,1.4-0.8c0.6-0.6,0.9-1.5,0.8-2.3c-0.4-1.7-1.1-3.2-2-4.7l0,0
	c-0.1-0.4-0.2-0.7-0.2-1.1V28c0.4-1.9-0.4-2.4-0.8-2.5h-0.1c-0.1-0.1-0.2-0.3-0.3-0.4c-0.3-0.4-0.7-0.6-1.2-0.7l0,0
	c0.4-0.4,0.6-0.9,0.5-1.5c-0.1-0.4-0.4-0.8-0.8-1.1c-0.2-1.7-0.4-4-0.6-5.8c0.2-0.2,0.3-0.4,0.3-0.7c0.1-0.7-0.1-1.3-0.7-1.7
	c-0.1-0.3-0.2-0.7-0.3-1v-0.3c0.1-0.7-0.2-1.4-0.8-1.8c-0.6-1.2-2.1-3.9-4.2-5V3C28.7,2.2,28,1.5,27.1,1.5L27.1,1.5z"/>
<path style="fill:#4A804E;" d="M24.9,26c0,0,0.9,2.3-0.6,3.5c1.3-0.7,2.1-2,2.2-3.4C26,26,25.4,25.9,24.9,26z"/>
<path style="fill:#397B46;" d="M38.7,35.3c-0.4-1.5-1-2.9-1.9-4.2c-0.5-0.7-0.4-3.5-0.4-3.5s0.3-1.3-0.1-1.4s-0.6,0.2-0.5,0
	c0-0.3-0.1-0.6-0.3-0.8c-0.3-0.3-0.7-0.5-1.2-0.5c-0.7-0.1-0.9,0.5-0.8,1.1c0.3,1.4,0.4,2.9,0.3,4.3c0,1.8,0.3,3.6,1,5.3
	c0.5,1,1.6,1.6,2.7,1.5C38.3,37.2,38.8,36.2,38.7,35.3z"/>
<path style="fill:#377845;" d="M26.7,2.5H27c0.3,0,0.6,0.2,0.6,0.6c0,0,0,0,0,0v4.4c0,0.3-0.2,0.6-0.6,0.6c0,0,0,0,0,0h-0.3
	c-0.3,0-0.6-0.2-0.6-0.6c0,0,0,0,0,0V3.2C26.1,2.8,26.3,2.5,26.7,2.5z"/>
<ellipse transform="matrix(0.2108 -0.9775 0.9775 0.2108 13.4849 40.432)" style="fill:#528454;" cx="31.8" cy="11.9" rx="0.7" ry="0.8"/>
<ellipse transform="matrix(0.2108 -0.9775 0.9775 0.2108 11.4414 43.6094)" style="fill:#528454;" cx="32.7" cy="14.7" rx="0.7" ry="0.8"/>
<ellipse transform="matrix(0.9804 -0.1968 0.1968 0.9804 -3.8444 7.0984)" style="fill:#3C7F48;" cx="33.8" cy="22.9" rx="0.8" ry="0.7"/>
<ellipse transform="matrix(0.9804 -0.1968 0.1968 0.9804 -6.9964 7.591)" style="fill:#377845;" cx="34.7" cy="39" rx="0.8" ry="0.7"/>
<ellipse transform="matrix(0.9804 -0.1968 0.1968 0.9804 -7.5484 7.6262)" style="fill:#377845;" cx="34.6" cy="41.8" rx="0.8" ry="0.7"/>
<ellipse transform="matrix(0.9804 -0.1968 0.1968 0.9804 -8.2169 7.7104)" style="fill:#377845;" cx="34.7" cy="45.2" rx="0.8" ry="0.7"/>
<path style="fill:#528454;" d="M26.2,48.5V57l-5.1,3.3c0,0-0.3,0.4,0.1,0.5s15.7,0,15.7,0s0.5-0.2,0-0.6l-5-3.4v-9.5h-5.7V48.5z"/>
<path style="fill:#2F6A3B;" d="M25.5,45.2c-0.6,1.8,0.4,3.8,2.2,4.5c0.4,0.1,0.7,0.2,1.1,0.2c0.5,0,0.8,2.1,1,2.3c0.7,0.5,2,0,2-0.3
	v-3.6c1.1-1.1,1.6-2.7,1.3-4.3L25.5,45.2z"/>
<path style="fill:#4A804E;" d="M31.1,30.5c-0.8,0.5-2.5,0.9-6.2,0.8S20.4,26,20.4,26l13.7-0.6l0,0c-0.2-1.1-0.7-7.4-1.1-10.8
	S29.6,6,26.8,6S23,9.3,23,9.3c-1.2,2.7-2,5.5-2.4,8.4C20.4,20.2,20,29.5,20,32.3s1,10.2,2.3,13.4s5,3.1,6.5,3.1h-0.1
	C32.9,45.5,31.1,30.5,31.1,30.5z"/>
<path style="fill:#377845;" d="M34,47.3c1.9-1,1.1-7.9,1.1-9s-0.8-11.6-0.9-12.7l-13.7,0.6c0,0,0.7,5.2,4.7,5.5
	c3.5,0.2,5.1-0.5,5.9-1c0,0,1.8,14.9-2.5,18.2h0.2C30.6,48.7,32.4,48.2,34,47.3z"/>
<path style="fill:#367542;" d="M20.1,31c-0.1,0.1-1.3,5.2-1.3,5.2l2-0.7v-2.2c-0.1-0.1,0.1-0.4,0-0.9c0-0.6-0.1-1.1-0.4-1.6
	C20.1,30.3,20.1,31,20.1,31z"/>
<path style="fill:#3C7F48;" d="M33.1,14.7c-0.4-3.4-3.4-8.6-6.2-8.6s-3.8,3.3-3.8,3.3c-0.3,0.5-0.5,1-0.7,1.6c0.9-1,2.4-4.8,3.7-4.8
	c2.1,0,4.1,4.7,4.1,12.3c0,4.8,1.8,6.5,3,7h1C34,24.4,33.5,18.1,33.1,14.7z"/>
<path style="fill:#377845;" d="M20.5,26.1c0-0.1-0.6-8.9,6.4-8.9s6.8,7.3,6.8,9.4S20.4,26.1,20.5,26.1L20.5,26.1z"/>
<path style="fill:#377845;" d="M24.2,19.7c0.7-0.6,1.6-1,2.5-0.9c1.1,0,2.1,0.3,3,0.8L28,25.4h-2.2L24.2,19.7z"/>
<ellipse style="fill:#4A804E;" cx="23.8" cy="24.4" rx="2.8" ry="5"/>
<ellipse style="fill:#4A804E;" cx="30.2" cy="24.3" rx="2.8" ry="5.2"/>
<path style="fill:#2F6A3B;" d="M27.3,32.1c0.7-0.1,1.4,2.5,1.5,5.8s-0.4,6-1.1,6s-1.4-2.5-1.5-5.8S26.6,32.2,27.3,32.1z"/>
<path style="fill:#4A804E;" d="M28.3,18.4c-0.1,0-1.1-0.3-1.3,0.4s-0.2,1.1,0.1,1.3c0.4,0.2,0.8,0.2,1.2,0.2c0.2,0,3.3,0,3.7,0.6
	C32.4,21.5,31.6,19,28.3,18.4z"/>
<path style="fill:#FFFFFF;" d="M33.1,24.4c0,2.8-1.3,5.1-2.8,5.1s-2.8-2.3-2.8-5.1s1.3-4.8,2.8-4.8S33.1,21.6,33.1,24.4z"/>
<path style="fill:#377845;" d="M27.5,32.5c0.6,0,1.2,2.5,1.3,5.7s-0.3,5.8-0.9,5.8s-1.2-2.5-1.3-5.7S26.9,32.5,27.5,32.5z"/>
<path style="fill:#528454;" d="M21.1,34c0-0.5-0.1-1-0.2-1.5c0,0.4,0,0.8-0.1,1.2c-0.1,1-0.4,2.3-1.4,2.3s-0.4-0.9,0.2-2.2
	c0.5-1,0.9-2,1.1-3.1c0.1-1.1,0.2-2.3,0.2-3.4c-0.1-0.7-0.4-1.4-0.7-2.1c-0.2-0.4-0.4-0.1-0.6,0s-0.4,0.4-0.6,0.4s-0.5,0.4-0.6,0.5
	s0,1.1-0.5,0.9s-0.5,0.5-0.5,0.8s0.8,1,0.8,1.7c0,1.2-0.1,2.4-0.5,3.5c-0.4,0.8-2,4.8,0.7,4.8S21.1,34.5,21.1,34z"/>
<path style="fill:#417C49;" d="M19.4,36c1,0,1.3-1.4,1.4-2.3c0-0.4,0-0.8,0.1-1.2c0.1-0.5-0.1-0.6-0.1-0.5c-0.1,1.1-0.3,2.2-0.7,3.3
	c-0.3,0.5-0.5-0.1-0.4-0.3c0.4-1.1,0.7-2.3,1-3.4c0-0.3,0-0.5,0.1-0.8c-0.2,1.1-0.6,2.1-1.1,3.1C19,35.1,18.4,36,19.4,36z"/>
<path style="fill:none;" d="M35.1,38.2c0-0.3,0-1.1-0.1-2.2c-0.1-0.1-0.1-0.2-0.2-0.4c-0.7-1.7-1-3.5-1-5.3c0-1.4-0.1-2.9-0.3-4.3
	c-0.1-0.5,0.1-1.1,0.6-1.1v-0.3L20.5,26c0,0,0.9,5.3,4.5,5.3s5.4-0.3,6.2-0.8c0,0,1.8,14.9-2.5,18.2h0.2c1.8-0.1,3.5-0.6,5.1-1.5
	C35.9,46.2,35.1,39.3,35.1,38.2z"/>
<path style="fill:#367542;" d="M33.5,26.1c0.3,1.4,0.4,2.9,0.3,4.3c-0.1,1.8,0.2,3.7,0.7,5.4c0.1,0.1,0.4,0.1,0.4,0.2
	c-0.2-3.4-0.7-9.4-0.9-11C33.6,25,33.4,25.5,33.5,26.1z"/>
<ellipse style="fill:#5B9F56;" cx="20.6" cy="20" rx="0.7" ry="0.6"/>
<circle style="fill:#5B9F56;" cx="21.2" cy="15.3" r="0.6"/>
<circle style="fill:#5B9F56;" cx="23.6" cy="8.2" r="0.7"/>
<ellipse transform="matrix(0.7071 -0.7071 0.7071 0.7071 -22.6182 26.9309)" style="fill:#5B9F56;" cx="21.2" cy="40.8" rx="0.7" ry="0.6"/>
<circle style="fill:#5B9F56;" cx="22.2" cy="44.8" r="0.6"/>
<path style="fill:#5B9F56;" d="M26.1,6.2c0,0-1.8,0-3.2,3.7c-1.1,2.6-1.8,5.3-2.2,8.1c-0.2,2.3-0.3,4.8-0.3,5s0.1,1.9,0.6,1.8
	c-0.1-1.3,0.1-2.7,0.7-3.9c0.7-1.5,2.1-2.6,3.8-3c1-0.1,2-0.1,3,0.2c0.2,0.1,1.1-0.6,0.7-0.9c-0.3-0.2-0.7-0.3-1.1-0.4
	C27.6,16.7,28,15.5,28,15S27.9,6.4,26.1,6.2z"/>
<ellipse style="fill:#FFFFFF;" cx="23.8" cy="24.4" rx="2.8" ry="4.9"/>
<path style="fill:#67B06B;" d="M20.8,20.9c0,0.2-0.3,1.5,0,1.6c0.1-0.3,0.9-3.6,2.8-4.5c0.9-0.5,1.9-0.8,3-0.8
	c0.3,0,0.7-0.5,0.2-0.6c-1.6-0.3-3.3,0.2-4.4,1.4C21.6,18.8,21.1,19.8,20.8,20.9z"/>
<path style="fill:#5B9F56;" d="M26.1,8.9c0-0.3-0.2-1-0.7-0.7c-0.9,0.5-1.5,1.4-1.7,2.4c-0.4,1.9-0.7,3.8-0.8,5.7
	c0.1,0.2,0.8-0.1,1.3-0.4c0.5-0.2,1-0.4,1.5-0.5c0.4-0.1,0.2-0.6,0.3-0.9S26.1,8.9,26.1,8.9z"/>
<path style="fill:#4A804E;" d="M32.6,21.1c0.1,0.3,0.3,0.2,0.2-0.2c-0.2-1.8-1.5-3.3-3.2-3.9c-0.8-0.3-1.7-0.6-1.7-0.2
	c0.6,0.4,1.2,0.7,1.9,1C31.3,18.2,32.4,19.5,32.6,21.1z"/>
<path style="fill:#2F6A3B;" d="M32.8,22.3c0,0,0.5-0.5,0-1.9c-0.2-0.8-0.6-1.5-1.2-2c0,0,1.5,2.3,1.1,2.9l-0.2,0.2L32.8,22.3z"/>
<path style="fill:#2F6A3B;" d="M32.9,26c0,0,0.7,0.3,0.1,0.6c-0.1,0.4-0.3,2.1-1.7,2.5c0.9-0.6,1.4-1.6,1.6-2.6
	C33,26.5,33.2,26.3,32.9,26z"/>
<path style="fill:#2F6A3B;" d="M26.5,25.6c0,0,0.5,0.3,0.2,0.7c-0.1,0.4-0.6,2.9-2.2,3.3c1.2-0.8,2-2,2.1-3.4c0.1,0,0.2-0.4-0.1-0.4
	V25.6z"/>
<path style="fill:#68B25F;" d="M27.9,26.6c0.5-0.2,1-0.2,1.5-0.1c0.3,0.2,0.8,1,0.6,1.3s-0.8,1.1-1.2,0.7S27.7,27.3,27.9,26.6z"/>
<path style="fill:#68B25F;" d="M21.8,27.2c0.2-0.2,0.5-0.4,0.8-0.5c0.3,0,0.6,0.1,0.8,0.3c0.2,0.3,0.4,0.7,0.4,1.1
	c-0.1,0.2-0.3,0.4-0.5,0.5c-0.3,0.1-0.6,0.1-0.8-0.1C22.3,28.3,21.5,27.7,21.8,27.2z"/>
<path style="fill:#2F6A3B;" d="M28.2,6.9c-0.3,0,0.9,1.3,0.9,1.8s2.1,2,2.4,4.7c0.3,1.7,0,2.9,0.5,2.9s0.8-3-1-5.8
	C29.7,8.6,28.9,6.9,28.2,6.9z"/>
<path style="fill:#4A804E;" d="M32.4,29.4c0,0-0.6,1.5-3.5,2c-0.6,0.1-1.5,0.3-1.5,0.3l0.4,0.7c1.4,1.7,2,3.8,1.9,6
	c-0.3,3.6-0.6,8.8-1.4,9.3c-0.6,0.4-1.4,0.5-2.1,0.5c-0.3,0-0.3,0.7,1.1,0.7s2.3,0.5,3.5-1.1C32,46.2,33.7,36.6,32.4,29.4z"/>
<path style="fill:#2F6A3B;" d="M33.5,37.8c0.1-0.7,0.9-0.8,1.1-0.4s-0.2,8.2-1.1,9s-0.8-0.1-0.5-1.1S33.4,38.5,33.5,37.8z"/>
<path style="fill:#BDBEBE;" d="M20.9,24.4c0,0,0.8-3.5,2-3.8s2.3-0.5,3.7,2.8c-0.2-1.4-1-4.2-3.1-3.8C21.9,19.9,20.9,22.3,20.9,24.4
	z"/>
<path style="fill:#BDBEBE;" d="M27.4,23.6c0,0,0.4-4.7,3.3-4.1c1.8,0.6,2.3,3,2.3,4.3c-0.1-0.9-1.6-3.3-2.5-3.4S28.4,20,27.4,23.6z"
	/>
<path style="fill:#BDBEBE;" d="M27.5,25.8v-0.3c1.8-0.4,3.8-0.2,5.5,0.5c0,0.1,0,0.2-0.1,0.3C31.2,25.7,29.3,25.5,27.5,25.8z"/>
<path style="fill:#BDBEBE;" d="M21.2,26.7l-0.1-0.4c0,0,1.4-0.9,5.4-0.8v0.4C24.7,25.6,22.8,25.9,21.2,26.7z"/>
<circle style="fill:#4A804E;" cx="23.6" cy="24.8" r="1.3"/>
<circle cx="23.6" cy="24.8" r="1.1"/>
<circle style="fill:#FFFFFF;" cx="22.6" cy="24.3" r="0.5"/>
<circle style="fill:#FFFFFF;" cx="23.1" cy="24.9" r="0.2"/>
<circle style="fill:#4A804E;" cx="29.9" cy="24.7" r="1.3"/>
<circle cx="29.9" cy="24.7" r="1.1"/>
<circle style="fill:#FFFFFF;" cx="29.1" cy="24.3" r="0.5"/>
<circle style="fill:#FFFFFF;" cx="29.6" cy="24.9" r="0.2"/>
<path style="fill:#68B25F;" d="M26.6,25.7c-1.9-0.3-3.8,0-5.5,0.8c-0.1,0-0.2,0.1-0.1,0.2c0,0,0,0,0,0.1c0,0.1,0,0.1,0.1,0.1l0,0
	c0.1,0.3,0.8,3.1,3.2,2.6c0.9-0.3,1.9-1.8,2.2-3.4C26.7,26.1,26.7,25.8,26.6,25.7z"/>
<path style="fill:#68B25F;" d="M27.4,25.7c-0.1,0.1-0.2,0.3-0.1,0.4s0.3,3.2,2.8,3.5c1.1,0,2.2-0.9,2.7-2.9c0.3-0.1,0.2-0.3,0-0.4
	C31.1,25.6,29.2,25.4,27.4,25.7z"/>
<path style="fill:#7CBA7B;" d="M27.7,25.7c-0.2,0-0.1,0.3,0,0.3c0.7-0.1,1.3-0.1,2-0.1c0.2,0,0.3-0.2,0.1-0.3
	C29.1,25.6,28.4,25.6,27.7,25.7z"/>
<path style="fill:#7CBA7B;" d="M21.3,26.6c-0.1,0.1-0.2,0.3,0,0.3c0.8-0.3,1.6-0.5,2.4-0.7c0.1-0.1,0.1-0.3-0.1-0.2
	C22.8,26.1,22,26.3,21.3,26.6z"/>
<path style="fill:#4A804E;" d="M24.9,26c0,0,1.1,1.4-0.6,3.5c1.3-0.7,2.1-2,2.2-3.4C26,26,25.4,25.9,24.9,26z"/>
<path style="fill:#4A804E;" d="M31.6,26.3c0,0-0.1,3.2-1.8,3.2c0.9,0.1,2.3,0.3,3-2.9L31.6,26.3z"/>
<path style="fill:#7CBA7B;" d="M21.5,27c0,0,0.5,1.7,1.3,1.9c0.5,0.2,0.5-0.2,0.5-0.2s-0.4-1.8-0.5-2C22.4,26.8,21.9,26.9,21.5,27z"
	/>
<path style="fill:#7CBA7B;" d="M27.9,26.4c0,0,0.1,1.8,0.8,2.1c0.5,0.3,0.5-0.1,0.5-0.1c0-0.7,0-1.4-0.1-2.1
	C28.7,26.3,28.3,26.3,27.9,26.4z"/>
<path style="fill:#4A804E;" d="M26.1,6.2V3c0,0,0.1-0.5,0.5-0.5s0.3,4,0.3,4L26.1,6.2z"/>
<path style="fill:#5B9F56;" d="M21.8,30.7c-0.2,0.4-0.4,0.9-0.5,1.3c0.1,1.2,1.1,4.6-0.7,6c0.8,4.1,1,10,5.6,10.5
	c1.1,0,1.7-1.4,1.7-2.7c-0.1-2.2-0.3,0-0.6-2.2c-1-0.3-1.6-1.3-1.6-2.3c-0.1-1.8-0.1-9.2,0.5-9.4C25.1,32,23.3,32.3,21.8,30.7z"/>
<path style="fill:#5B9F56;" d="M27.9,32.5c0.6,0.5,1,1.2,1.1,2c0.1,1.3,1,8.5-0.9,9.2c0.5-1.9,0.8-3.8,0.7-5.8
	C28.6,36,28.4,33,27.9,32.5z"/>
<path style="fill:#5B9F56;" d="M23.9,32.8c0,0-1.2-0.4-1.4,1.5s0.3,11.7,1.9,12s2.1-0.4,2.1-0.9s-0.5-5.6-0.4-6.1s-1-1.4-1-1.9
	S25.3,33.1,23.9,32.8z"/>
<path style="fill:#67B06B;" d="M26.6,32c0,0-0.9-0.4-1,3.2s0.1,7,0.4,7.2s0-0.4,0-1.1s-0.5-5,0.2-8.1C26.6,32.8,26.9,31.7,26.6,32z"
	/>
<circle style="fill:#67B06B;" cx="22.1" cy="16.6" r="0.4"/>
<circle style="fill:#67B06B;" cx="22.1" cy="41.9" r="0.4"/>
<circle style="fill:#67B06B;" cx="27" cy="47.1" r="0.5"/>
<circle style="fill:#5B9F56;" cx="31.8" cy="32.8" r="0.5"/>
<circle style="fill:#5B9F56;" cx="31.8" cy="39.3" r="0.6"/>
<circle style="fill:#5B9F56;" cx="30.7" cy="40.9" r="0.4"/>
<circle style="fill:#5B9F56;" cx="29.5" cy="15.9" r="0.4"/>
<circle style="fill:#67B06B;" cx="25.9" cy="7.3" r="0.4"/>
<circle style="fill:#67B06B;" cx="27.3" cy="9.6" r="0.6"/>
<path style="fill:#2F6A3B;" d="M27,32.5c0,0-1.2,3.8-0.1,10.4c0.6,0.9,0.8,2,1.4,0c-0.6-0.7-2-3.2-1-10.4C27.3,32.6,27,32.5,27,32.5
	z"/>
<path style="fill:#2F6A3B;" d="M34.8,26.9c0.3-0.3-0.2-1.6-1-1.6c-0.5,0.2-0.2,0.8-0.3,2.2c0.1,1.8,0,3.9,0.1,4.2
	c0.4,1.1,0.9,2.2,1.6,3.2c0-0.2-0.1-0.3-0.2-0.6c-0.7-1.2-1.1-2.6-1.2-4c0.1-2.2-0.4-4.7-0.1-4.9s0.4,0.5,0.6,0.6S34.6,27,34.8,26.9
	z"/>
<path style="fill:#2F6A3B;" d="M35.8,26.3c0.5,1,0.7,2.1,0.7,3.2c0,0.5-0.4-0.4-0.3-0.5C36.1,28.1,36,27.2,35.8,26.3z"/>
<path style="fill:#2F6A3B;" d="M34.8,25.1c-0.3-0.1,0.5,1.5,0.5,1.6s0.3,1.1,0.2,0.7S35.4,25.2,34.8,25.1z"/>
<path style="fill:#2F6A3B;" d="M33.8,32.5c0,0,0.2,3.4,1.3,3.5c-0.1-0.2-0.3-0.4-0.4-0.6S34,32.8,34,32.8L33.8,32.5z"/>
<path style="fill:#2F6A3B;" d="M26,43c0.2,1,1.2,1.6,2.2,1.4c0,0,0,0,0,0h0.1c0.2,0.1,0.3,0.4,0,0.5S26,44.5,26,43z"/>
<path style="fill:#2F6A3B;" d="M20.7,31.5c0,0,1.6-3.8-0.3-6.2c-0.5,0-1,1.4-0.9,2.1c0.2,0.4,0.3-0.4,0.3-0.6s0.3-1.5,0.5-1.2
	c0.5,1,0.8,2,0.8,3.1C20.9,29.6,20.4,31.3,20.7,31.5z"/>
<path style="fill:#2F6A3B;" d="M20.8,32.4c0,0,0.1-0.2,0.3,0.1s0.2,3.9-0.8,4.6c0-0.1,0-0.3-0.1-0.4C21,35.4,21.2,33.9,20.8,32.4z"
	/>
<path style="fill:#2F6A3B;" d="M19,25.6c-0.1,0.5-0.2,1.1-0.1,1.6C18.7,26.7,18.8,26.1,19,25.6z"/>
<path style="fill:#5B9F56;" d="M26.6,57v-7.9c0,0,1.4,0.3,1.5,1.5s0,6.6,0,6.6l3.7,2.4c0,0,1.1,0.5-0.3,0.6s-10.4,0.1-10.4,0.1
	l5.1-3.3H26.6z"/>
<path style="fill:#7CBA7B;" d="M27.4,56.8l-0.1-5.2c0,0-0.4-0.8-0.7,0.2v5.1l-3.5,2.6c0,0-0.4,0.4,0.5,0.4h7.5
	c0.5,0,0.1-0.3-0.4-0.4s-5.5-0.1-5.8-0.1s-0.5-0.3,0-0.6s2.1-1.4,2.1-1.4C27.3,57.4,27.4,57.1,27.4,56.8z"/>
</svg>
