<?xml version="1.0" encoding="utf-8"?>
<!-- Generator: Adobe Illustrator 22.0.0, SVG Export Plug-In . SVG Version: 6.00 Build 0)  -->
<svg version="1.1" id="Слой_1" xmlns="http://www.w3.org/2000/svg" xmlns:xlink="http://www.w3.org/1999/xlink" x="0px" y="0px"
	 viewBox="0 0 55.8 62.9" style="enable-background:new 0 0 55.8 62.9;" xml:space="preserve">
<title>03_1</title>
<path style="fill:#475670;" d="M19.6,61.3c-0.4,0.1-0.8-0.2-0.9-0.6c0,0,0,0,0-0.1c0-0.3,0-0.5,0.2-0.7c0.3-0.3,0.6-0.6,0.9-0.8
	c1.2-0.9,2.6-1.5,4-1.8h0.1v-12c-0.6-0.1-1.4-0.4-2.3-0.6c-0.9,0.4-4,2.3-5,2.3c-0.7,0-1.3-0.2-1.9-0.5c-0.9-0.7-1.4-1.8-1.4-3
	C11,42.1,9.1,40,7.7,37.6c-1.6-0.8-2.7-2.3-3-4c0-0.2-0.1-0.3-0.1-0.5l0,0c-0.2-0.9,0.1-1.9,0.8-2.5l0,0c0.2-0.2,0.5-0.3,0.8-0.4
	c0-0.3,2.1-2.4,2.1-2.6c-0.2-1.2-0.2-2.3,0-3.5c0.4-1.9,1.4-3.6,2.8-4.9c0-0.1-0.1-0.2-0.1-0.3c-0.1-0.7,0.2-1.5,0.8-1.9
	c2.1-1.6,4.4-3,6.8-4c-0.3-0.5-0.4-1-0.3-1.6c0.1-0.3,0.3-0.6,0.5-0.8c0.2-0.1,0.4-0.1,0.6-0.1c0.5,0,1.2,0.4,1.5,1.9
	c0.1,0,0.1,0,0.2-0.1c1.7-0.8,3.6-1.4,5.5-1.6h0.2c1.4,0,2.7,0.4,3.9,1.1c0-0.3,0-0.5,0.1-0.8v-0.1c0-0.4,0.1-0.8,0.3-1.1l0.3-0.6
	l0.1-0.1l0.4,0.2L31.5,9c0.2-0.3,0.6-0.6,1-0.6h0.4c0.3,0.1,0.5,0.2,0.7,0.5c0.1,0.1,0.1,0.3,0.2,0.5v0.8c0.2-0.2,0.4-0.5,0.6-0.6
	s0.3-0.2,0.4-0.3l0.1-0.1c0.2-0.1,0.3-0.1,0.5-0.1c0.4,0,0.7,0.3,0.9,0.6c0.1,0.3,0.1,0.6-0.1,0.9c0.2,0,0.3,0.1,0.5,0.1l0.1,0.1
	c0.2,0.1,0.3,0.2,0.4,0.4l0,0v0.1l0,0c0.1,0.2,0.1,0.5,0,0.7c0,0.1-0.1,0.4-2,1.8c0.7,0.3,1.4,0.6,2,1l0.2,0.1
	c0.4,0.2,0.8,0.5,1.3,0.7c1.3,0.8,2.6,1.7,3.7,2.7c1.1,1,2.1,2.2,3,3.4c1.2,2,1.7,4.4,1.6,6.7v0.1c0.1,1.7,3.1,4.6,3.1,5.4l0.2,0.1
	c0.2,0.1,0.3,0.1,0.5,0.2c0.7,0.3,1.2,0.8,1.4,1.5c0.1,0.7-0.1,1.4-0.6,1.9c-1,1.3-2.3,2.2-3.8,2.8c-0.3,0.6-0.7,1.1-1.2,1.6
	l-0.8,0.8c-1.3,1.3-2.9,2.3-4.7,2.9c-0.2,0.5-0.6,1-1,1.4c-0.8,0.6-1.8,0.9-2.8,0.9c-1,0-5.2-1.7-6.1-2.1h-1V57
	c1.9,0.2,3.7,1,5.1,2.3l0.2,0.2c0.3,0.2,0.5,0.6,0.5,1c0,0.3-0.2,0.6-0.5,0.8c-0.1,0-0.1,0-0.2,0.1L19.6,61.3z"/>
<path style="fill:#FFFFFF;" d="M32.7,8.8L32.7,8.8c0.3,0,0.4,0.1,0.5,0.3v0.3l0,0c-0.1,0.9-0.2,2-0.4,3c0,0,0.7-1.2,1.3-2l0,0
	c0.1-0.2,0.3-0.4,0.5-0.6c0.1-0.1,0.2-0.2,0.3-0.2l0,0c0.1,0,0.2-0.1,0.3-0.1s0.3,0.1,0.4,0.4S35.3,11,35,11.4l-0.1,0.1
	c0.3-0.3,0.7-0.5,1.1-0.5c0.1,0,0.2,0,0.3,0.1h0.1c0.1,0.1,0.2,0.1,0.2,0.2l0,0v0.4c-0.8,0.7-1.6,1.4-2.5,2l0.3,0.1
	c0.9,0.3,1.7,0.7,2.5,1.1l0.2,0.1c0.4,0.2,0.8,0.4,1.2,0.7l0,0c1.2,0.7,2.4,1.6,3.4,2.6c1.1,1,2.1,2.1,3,3.3l0,0
	c1.9,2.3,1.8,6.4,1.8,6.7l0,0c0,1.4,3.1,4.3,3,5.7c0.3,0.1,0.6,0.2,0.9,0.4c0.8,0.4,1.8,1.2,0.7,2.7c-1.1,1.3-2.5,2.3-4.1,2.8h0.3
	c-0.5,0.9-1.1,1.8-1.9,2.5c-1.4,1.2-3,2.2-4.7,2.8c-0.2,0.5-0.5,1-1,1.4c-0.7,0.5-1.5,0.8-2.4,0.8c-1,0-5.1-1.7-6-2.1
	c-0.5,0-1.1,0-1.6,0.1v12c2.1,0.1,4,1,5.5,2.4c0.7,0.6,0,1,0,1H19.6c-0.4,0-0.5-0.2-0.3-0.5c0.2-0.3,0.5-0.5,0.8-0.7l0,0
	c0.5-0.4,1.1-0.7,1.7-1c0.7-0.3,1.4-0.6,2.1-0.7c0.2-0.1,0.3-0.1,0.5-0.1V45c-0.9-0.2-1.9-0.5-2.8-0.8c-0.9,0.4-4,2.3-5,2.5
	c-0.6,0.1-1.1,0-1.6-0.3c-0.9-0.6-1-1.7-1.2-2.8c-2.4-1.5-4.4-3.5-5.8-6h0c-1.5-0.7-2.6-2.1-2.8-3.7c0-0.2-0.1-0.3-0.1-0.5l0,0
	c0,0-0.3-1.4,0.6-2l0,0C6,31.1,6.4,31,6.8,30.9c0-0.5,2.1-2.6,2.1-3.1c-0.2-1.1-0.2-2.3,0-3.4c0.4-1.8,1.3-3.5,2.7-4.7
	c0.5-0.5,0.9-0.9,1.4-1.3c-0.5,0.3-0.9,0.6-1.3,1c-0.1-0.2-0.2-0.2-0.1-0.3c-0.1-0.6,0.1-1.2,0.6-1.5c2.2-1.7,4.6-3.1,7.2-4.1
	c0,0-1.1-1.7-0.2-2.2c0.1,0,0.2-0.1,0.3-0.1c0.4,0,0.9,0.5,1.1,1.9h0.3c0.2,0,0.4-0.1,0.6-0.2c1.7-0.7,3.4-1.3,5.2-1.6h0.1
	c1.4,0,4.1,0.7,4.4,2.1c-0.1-0.8-0.1-1.5,0-2.3l0,0v-0.1c0-0.3,0.1-0.7,0.2-1c0.1-0.2,0.2-0.3,0.3-0.5l0,0V9.3l0.1-0.1l0,0
	c0.1-0.2,0.4-0.4,0.7-0.4l0,0 M22.3,14c2.1-0.5,4.3-0.8,6.5-0.8c0.8,0,1.5,0,2.3,0.1h-0.3c-0.7-0.1-1.3-0.1-2-0.1
	c-1.9,0-3.9,0.2-5.8,0.6L22.3,14 M32.6,7.8L32.6,7.8c-0.6,0.1-1.1,0.4-1.4,0.8l0,0L31,8.7v0.1c-0.2,0.2-0.3,0.5-0.4,0.8l-0.3,1.2V11
	c-1.1-0.5-2.2-0.8-3.4-0.8h-0.2c-1.8,0.3-3.6,0.8-5.3,1.5c-0.5-1.5-1.3-1.7-1.9-1.7c-0.2,0-0.5,0.1-0.7,0.2l-0.1,0.1
	c-0.4,0.2-0.7,0.6-0.8,1.1c-0.1,0.5,0,0.9,0.1,1.4c-2.3,1-4.5,2.3-6.5,3.9c-0.7,0.5-1.1,1.3-1,2.2V19c-1.4,1.4-2.3,3.1-2.7,5
	c-0.3,1.2-0.3,2.5-0.1,3.7c0,0.2-2.1,2.1-2.1,2.3C5.4,30,5.2,30.2,5,30.4c-0.9,0.7-1.3,1.9-1,3c0,0.2,0.1,0.3,0.1,0.5
	c0.3,1.8,1.5,3.4,3.1,4.2c1.4,2.3,3.3,4.3,5.6,5.7c0,1.2,0.6,2.3,1.5,3.1c0.7,0.4,1.4,0.6,2.2,0.6c1,0,4.1-2,5-2.3
	c0.6,0.2,1.1,0.4,1.7,0.5v11.1c-1.4,0.3-2.7,1-3.9,1.8l0,0c-0.3,0.3-0.6,0.5-0.9,0.8l-0.1,0.1c-0.4,0.6-0.3,1.3,0.2,1.8
	c0.3,0.2,0.6,0.3,0.9,0.3h15.7c0.2,0,0.3,0,0.5-0.1c0.4-0.3,0.7-0.7,0.8-1.2c0-0.6-0.2-1.1-0.7-1.4l-0.2-0.2c-1.4-1.3-3.1-2.1-5-2.4
	V46h0.4c1,0.5,5.1,2.1,6.2,2.1c1.1,0,2.1-0.3,3-1l0,0c0.4-0.4,0.8-0.8,1.1-1.3c1.8-0.6,3.4-1.6,4.7-2.9c0.2-0.3,0.5-0.6,0.8-0.8
	c0.5-0.4,0.9-0.9,1.2-1.5c1.5-0.6,2.9-1.6,3.9-2.9c1-1,1-2.6,0-3.6c0,0,0,0,0,0c-1.3-0.8-2.7-1.4-4.1-2l-0.3-0.2
	c0-0.8,0.1-2.1,0-3.6v0.1c0-3.1-0.7-5.7-2-7.2c-0.9-1.3-1.9-2.5-3.1-3.5c-1.1-1.1-2.3-2-3.6-2.7c-0.5-0.3-0.9-0.5-1.3-0.7l-0.2-0.1
	L36,13.6c1.3-1,1.4-1.3,1.5-1.5c0.1-0.4,0.1-0.8-0.1-1.1c0-0.1,0-0.1-0.1-0.1c-0.1-0.2-0.3-0.4-0.5-0.6l-0.2-0.1h-0.1
	c0.1-0.3,0-0.6-0.1-0.8c-0.2-0.6-0.7-0.9-1.3-0.9c-0.2,0-0.5,0.1-0.7,0.2h-0.1L34,8.9c0-0.1-0.1-0.2-0.1-0.3V8.4
	c-0.3-0.4-0.8-0.7-1.3-0.7L32.6,7.8z"/>
<path style="fill:#495B80;" d="M31.3,13.3c-6.3-0.6-12.7,1-17.9,4.6c-3.3,2.6-6.9,6.8-6.6,12.8c-0.5,0.1-2.2,0.5-1.6,2.9
	s2.1,3.8,3.7,3.9c0.8,1.3,7.4,5.8,13.3,6.7c6.5,1,15.9,2.4,21.4-0.6c1.2-0.8,2.2-2,2.7-3.4c1.9-0.3,3.6-1.3,4.7-2.9
	c1.7-2.3-1.6-3-1.6-3s-2.6-8.2-4-11.1c-2-3.4-5-6.2-8.5-8c-2.2-1-3-1.4-3-1.4c0.9-0.6,1.7-1.3,2.5-2c0.1-0.4-0.1-0.7-0.5-0.8
	c0,0,0,0,0,0h-0.2c-0.4,0.1-0.7,0.3-1,0.6c0,0,1-1.4,0.8-1.8s-0.5-0.5-1.1,0c-0.7,0.8-1.3,1.7-1.8,2.6C32.9,11.2,33,10.1,33,9
	c-0.2-0.3-0.7-0.7-1.3,0.2S31.2,12.2,31.3,13.3z"/>
<path style="fill:#3F5072;" d="M27.4,15c-0.1,0-2,0.2-2.3,0.9c-0.3,0.7,1.2,3,2.8,3.1s6.5,0.4,7.9,1.3s3.1,0.7,3.3,0s-0.2-2.8-4.2-4
	C32.5,15.4,30,15,27.4,15z"/>
<path style="fill:#1F2B4B;" d="M32.4,10.1c-0.4,0.2-0.7,0.6-0.7,1.1c-0.1,0.6-0.1,1.1,0,1.7c0.4-0.6,0.7-1.2,0.9-1.9
	C32.6,10.5,32.6,10.2,32.4,10.1z"/>
<path style="fill:#1F2B4B;" d="M32.4,13.3c0-0.1,1.7-2.5,2.2-2.6s0.6,0.4,0.3,0.8c-0.7,0.6-1.4,1.2-2.1,1.8
	C32.8,13.3,32.4,13.6,32.4,13.3z"/>
<path style="fill:#1F2B4B;" d="M33,13.5c0.8-0.5,1.6-1,2.5-1.4c0.2,0.1-1.1,1.2-1.4,1.4H33z"/>
<path style="fill:#475670;" d="M33,9.4c0,0-0.5-0.6-1,0.3c-0.2,0.5-0.4,1-0.6,1.5c0,0.1-0.2,0.1-0.2-0.1s0.2-2,1.3-2.3
	c0.3,0,0.6,0.2,0.6,0.5l0,0C33.2,9.3,33.2,9.5,33,9.4z"/>
<path style="fill:#475670;" d="M35.7,9.8c0,0,0,0.3-0.2,0.1c-0.5,0-0.9,0.2-1.2,0.6c-0.3,0.3-0.5,0.1-0.3-0.1S35.3,8.8,35.7,9.8z"/>
<path style="fill:#475670;" d="M36.5,11.7c0,0,0-0.4-0.3-0.3c-0.6,0.2-1.1,0.4-1.6,0.7c-0.3,0.2-0.3,0,0-0.2s1.4-1.5,2-0.5
	C36.7,11.8,36.6,11.7,36.5,11.7z"/>
<path style="fill:#586A8F;" d="M32.8,13.7c-0.1,0-0.5,0.1,0.1,0.2c2.3,0.8,4.5,2,6.5,3.4c1.7,1.5,4.9,3.6,5.8,6.4
	c0.5,1.7,0.9,3.4,1.2,5.1c0.1,0.3,0.2,0,0.2-0.3s0.1-4.4-1.8-6.7s-3.6-4.4-6.4-5.9S34,13.5,32.8,13.7z"/>
<path style="fill:#586A8F;" d="M43.8,37.6c0,0-0.3,0.8-0.1,0.6s2.2-2.8,3.8-3.2s3.2-0.4,3.7,0.9c0.1,0.2,0.5,0,0.3-0.3
	S51,34.4,49,34.2C47.2,34.2,45.3,35.4,43.8,37.6z"/>
<path style="opacity:0.5;fill:#334462;enable-background:new    ;" d="M48.8,36c-1.3,0.3-2.4,1-3.4,1.9c-1.5,1.5-1.7,2.2-0.9,2.2
	c2-0.2,3.8-1,5.4-2.2c0.8-0.9,1-1.8,0.4-1.9C49.8,35.9,49.3,35.9,48.8,36z"/>
<path style="fill:#33435F;" d="M43,40.2c0,0-0.3,0,0,0.2c1,0.3,2,0.4,3,0.2c-0.9,0.9-2.2,2.7-8,4.2c-4.9,0.8-9.5-0.4-14.6-1.2
	c-4.9-1.3-7.4,0.8-13.3-4.5c-0.5-0.6-1.2-1.5-1.2-1.5c0.3,0.1,0.7,0.2,1,0.2c0.2,0,0.5-0.3,0.2-0.3c-0.7,0-1.5-0.1-2.2-0.2
	c1.4,2.5,3.4,4.5,5.8,6c0,1.1,0.4,2.1,1.2,2.8c0.9,0.6,4.6-1.2,6.6-2c1.1,0.3,2.4,0.7,2.8,0.8v12.8c-1.9,0.3-3.7,1.2-5.1,2.5
	c-0.2,0.3-0.1,0.5,0.3,0.5h15.8c0,0,0.7-0.4,0-1c-1.5-1.5-3.4-2.3-5.5-2.4v-12c0.5-0.1,1.1-0.1,1.6-0.1c1,0.5,6.6,2.8,8.4,1.4
	c0.5-0.4,0.8-0.8,1-1.4c1.7-0.6,3.3-1.6,4.7-2.8c1.2-1.3,1.5-1.4,1.9-2.5C46.7,40.1,44.1,40.6,43,40.2z"/>
<path style="fill:#405175;" d="M31.4,44.4c1.8-0.2,6.7,0.9,8.5,0.4c0.4-0.1,0.4,0.2,0.2,0.5c-0.6,1.1-1.8,1.7-3,1.5
	C35,46.5,31,44.6,31.4,44.4z"/>
<path style="fill:#405175;" d="M15,43.5c0,0-0.5-0.4-0.4,0.4s0.2,1.7,1.4,1.9c0.9,0.2,3.9-1.7,4.6-2c0.3-0.2,0.6-0.2-0.2-0.5
	C19.3,42.9,16,44.2,15,43.5z"/>
<path style="opacity:0.5;fill:#334462;enable-background:new    ;" d="M6.5,32c0,0-0.9-0.2-0.9,0.9c0.3,1.6,1.2,3,2.6,3.8
	c1.3,0.6,2,0.5,1.8-0.2S8.9,32.5,6.5,32z"/>
<path style="fill:#586A8F;" d="M11.2,35c0,0,0.2,0.8-0.3,0s-2.2-4-4.3-3.8c-1.3,0.2-1.4,2-1.4,2s-0.3-1.4,0.6-2s3.7-2.7,5.1-1.4
	C11.9,30.8,10.6,33.7,11.2,35z"/>
<path style="opacity:0.5;fill:#334462;enable-background:new    ;" d="M11.2,36.3c0,0-1.1-0.8-0.4,0.7s5.8,2.5,8.5,3.8
	c3.4,1.5,7.1,2.3,10.9,2.4c2.6,0,5.1-0.1,7.6-0.4c-1.4-0.9-3-1.6-4.6-1.9c-1.4,0-8-0.3-10.9-1.4C19.1,38.3,14,38.5,11.2,36.3z"/>
<path style="fill:#586A8F;" d="M12,19.5c0,0,0.5-0.5,0.2-0.4s-2.4,1.5-3.3,5.1c-0.4,1.5-0.3,3.2,0.4,4.6c0.1,0.1,0.3,0,0.1-0.7
	C8.8,25,9.7,21.8,12,19.5z"/>
<path style="fill:#243256;" d="M20.6,34.4c-0.2,0-1.1,0.8-0.5,2.6c0.9,2.3,3.2,3.8,5.8,3.7c3.1-0.2,5-0.9,5.9-2.8
	c0-0.8,0.6-2.8-0.6-2.6c-2.2,0.3-4.5,0.3-6.7,0C22.6,34.8,21.4,33.7,20.6,34.4z"/>
<path style="fill:#586A8F;" d="M19.6,34.4c-0.5,1.2-0.5,2.5,0,3.7c1,1.8,2.7,3,4.7,3.4c2.1,0.5,4.3,0.2,6.2-0.9
	c0.9-0.8,1.5-1.7,1.2-2.2s-0.5,1.2-2.2,1.9c-2.2,0.9-4.7,0.9-6.8,0c-1.7-1.5-3.4-2.8-2.5-5.1c0.2-0.3,0.3-0.5,0.5-0.8
	C20.7,34,20.4,33.7,19.6,34.4z"/>
<path style="fill:#1F2B4B;" d="M20.1,36.1c0,0.2,0.2,0,0.3-0.6s0.3-1.1,0.9-0.8c1.1,0.5,2.2,0.9,3.4,1.4c1.4,0.3,2.8,0.4,4.2,0.3
	c1.1-0.2,2.2-0.5,2.3,0c0.2,0.5,0.2,1,0,1.5c-0.2,0.5,0.2,0.2,0.3,0c0.2-0.5,0.3-1,0.3-1.5c0-0.3,0.2-0.9-0.6-0.9
	c-1.8,0.3-3.6,0.4-5.4,0.3c-1.5-0.4-2.9-0.9-4.4-1.5c-0.6-0.1-1.3,0.3-1.4,0.9C20,35.4,20,35.8,20.1,36.1z"/>
<path style="fill:#3F5072;" d="M22.2,37c0.1,0,0.7,0.1,0.8-0.4s0.3-1-0.6-1S21.8,37.1,22.2,37z"/>
<path style="fill:#3F5072;" d="M25.1,37.8c0.4,0,0.8-0.6,0.8-1s-0.6-0.6-1.1-0.4S24.4,37.8,25.1,37.8z"/>
<path style="fill:#3F5072;" d="M28.5,38.1c0.3,0,0.4-0.1,0.4-0.3s0.6-1.3-0.4-1.3S27.7,38.1,28.5,38.1z"/>
<path style="fill:#405175;" d="M27.3,46.6c-0.5-0.1-1.9,2.4-2.2,5.5c-0.2,1.9-0.2,3.7-0.2,5.6c-1.8,0.1-3.5,0.7-4.9,1.8
	c-0.5,0.4-0.4,0.8,0.4,0.8H34c-1.1-1.4-2.7-2.3-4.5-2.5c-0.5-0.2-0.4-0.3-0.4-1S29.7,47,27.3,46.6z"/>
<path style="fill:#243256;" d="M19.4,13.3c0,0-1.1-1.7-0.2-2.2c0.5-0.2,1.1,0.1,1.4,1.8c0.3,0.1,0.6,0,0.9-0.1
	c1.7-0.7,3.4-1.3,5.2-1.6c1.4-0.1,4.2,0.7,4.6,2.1c-0.6-0.1-5.3-1-12.8,1.8c-3.1,1.2-5.9,3-6.7,4c-0.2-0.4-0.4-1,0.5-1.8
	C14.5,15.7,16.9,14.3,19.4,13.3z"/>
<path style="fill:#1F2B4B;" d="M11.8,18.8c1.1-1.2,2.4-2.2,3.8-3c1.7-0.8,6.1-2.8,8-3.1s5.5-0.9,6.5-0.1c0.3,0.3,0.6,0.5,0.9,0.7
	c-3.9-0.3-7.7,0.2-11.4,1.5c-3.7,1.6-6.1,2.8-7.8,4.4C11.7,18.9,11.5,19,11.8,18.8z"/>
<path style="fill:#1F2B4B;" d="M15.9,17.9c-0.1,0-3.6,1.4-4.2,4.6c-0.7,2.6-0.4,5.3,1,7.6c1.7,2.4,4.6,3.6,7.5,3.1
	c2.5-0.6,5.6-1.2,7.7-5.4c-0.2,1.3-0.5,4.3,1.4,5.6c2.3,1.9,5.3,2.7,8.3,2.4c3-0.8,5.8-2.1,6.7-6.9c0.1-2.6-0.2-6.6-3.5-8.3
	c-4.9,0.7-10.8,6-15.3,2.5C22.5,21.1,19.3,19.3,15.9,17.9z"/>
<path style="fill:#586A8F;" d="M11.1,26.2c0,0,0.2,3.5,1.8,5c1.2,1.1,2.7,1.9,4.3,2.3c0.6,0.1,0.8-0.1-0.2-0.4
	c-1.9-0.5-3.6-1.7-4.6-3.4c-0.9-1.5-1.3-3.3-1.2-5C11.3,24.6,11.1,24.9,11.1,26.2z"/>
<path style="fill:#586A8F;" d="M30.6,34.6c0,0,2.5,1.8,4.6,1.7c1.5,0,6,1.2,7.4,0.8c0.4-0.2-2.4-2-3.3-1.7c-1.3,0.5-2.7,0.8-4.1,0.7
	c-1.7-0.3-3.3-0.9-4.8-1.6C30.3,34.4,30.6,34.6,30.6,34.6z"/>
<path style="fill:#FFFFFF;" d="M22.5,14.6c-1.9,0.2-3.8,0.9-5.4,2c-2.7,1.9-5.4,3.6-5.7,9c0.2,2.7,1.7,5.1,4.1,6.4
	c4.4,2.2,9.8,0.3,12-4.1c0.2-0.3,0.3-0.6,0.4-0.9c0.2,0.4-0.3,0.3-0.3,1.5s0,3.6,2.1,5.1c2.1,1.7,4.9,2.4,7.6,1.9
	c2.5-0.7,4.9-1.3,6-4.8c0.6-2.8,1.6-6-1.6-9.4c-1.7-1.3-3.1-3-7.8-2.4c-1.9,0.5-3.6,1.6-4.8,3.1c0.3-1.9-0.2-3.8-1.4-5.3
	C26.8,15.6,25.6,14.6,22.5,14.6z"/>
<path style="fill:#4F526C;" d="M14.9,19.5c-0.1,0.1-2.1,3.7-1,6.8c0.9,2.9,3.5,5,6.5,5.2c2.3,0.2,4.6-0.7,6.2-2.4
	c0.6-0.6,1-1.3,1.3-2.1c-0.1,1.4,0.2,2.8,0.8,4.1c1.5,2.6,4.5,4,7.5,3.5c4-0.5,5.6-1.7,7-4.9c1.4-3.5,0.2-7.4-2.9-9.5
	c-3.8-2.4-8.8-1.3-11.3,2.4c0,0.1,0,0.1-0.1,0.1l0,0c-0.1-2.4,0.4-6.8-5-7.9C20.3,14.8,16.9,16.5,14.9,19.5z"/>
<path style="fill:#0F1C35;" d="M15.4,20.5c0,0.1-1.5,4,0.4,6.1c1.6,1.8,4,2.8,6.4,2.5c1.9-0.2,4.3-1,5-3.6s1.6-7.4-1.1-8.9
	c-2.7-1.3-5.8-0.9-8.1,0.9C16.1,19.1,15.8,19.6,15.4,20.5z"/>
<path style="fill:#0F1C35;" d="M29.4,25.2c-0.4,1.5-0.1,3.1,0.8,4.4c1.5,1.9,3.8,3.3,6,2.9c2.8-0.3,5.2-2.3,6-5c0.7-2.7-0.5-5.6-3-7
	c-2.5-0.9-5.4-0.7-7.7,0.7C30.2,22.2,29.4,25.2,29.4,25.2z"/>
<path style="fill:#FFFFFF;" d="M20.5,17.9c-0.1,0.1-1,0.5-0.8,1.2s0.1,1.3,1.2,1.5s1.5-0.9,1.8-1c0.8-0.3,1.6-0.7,2.3-1.2
	c0.2-0.2,0.8-0.6-0.1-1S23.2,16.4,20.5,17.9z"/>
<path style="fill:#FFFFFF;" d="M24.8,26.7c-0.1,0-0.5,0-0.5,0.6c-0.1,0.7,0,1.4,0.2,2.1c0.2,0.3,0.6,0.4,0.7,0S25.7,27.3,24.8,26.7z
	"/>
<path style="fill:#FFFFFF;" d="M33,24c-0.2,0-1.9,2-3,0.8c-0.6-0.8-0.7-1.5,1.3-3.2c1.7-1.1,2.7-1.3,3.4-0.5
	c0.4,0.7,0.1,1.1-0.5,1.5C33.8,23.1,33.4,23.5,33,24z"/>
<path style="fill:#FFFFFF;" d="M40.1,29.5c-0.1-0.1-0.4-0.2-0.7,0.6s0.2,2.3,0.7,2.2S40.9,30.5,40.1,29.5z"/>
<path style="fill:#586A8F;" d="M25.6,52.7c0-0.1-0.4-0.4-0.4,1.7s0.1,3.4,0.1,3.4s-2.6,1.4-2.9,1.7s-0.4,0.5,0,0.6s9.5,0,9.7,0
	s1.7-0.6-7.4-0.7c-0.5-0.2,0.3-0.6,0.5-1s0.4-0.5,0.4-1L25.6,52.7z"/>
</svg>
