<svg xmlns="http://www.w3.org/2000/svg" xmlns:xlink="http://www.w3.org/1999/xlink"
     viewBox="0 0 235.9 290">
    <path class="cls-1" style="fill: #fff;"
          d="M101.21,188.14c-2,2-7.78,2.35-10.46,2.9-5,1-10.12,1.53-15.15.32-7-1.68-13.45-4.44-13.11-12.72-13.14,3.87-26.94-5.59-33-12.79-10.62-12.59-14.82-33.1-7-48.06C7,108.5,6,90.27,7.66,79.42c1.62-10.63,6.2-19,13.69-26.62C26.15,47.9,35.13,37.18,43,38.32c1.75-7.1,11.06-18.07,15-20.69C69.53,10,84.84,6.57,98.38,5.11c12.57-1.36,27.41-1.39,39.19,3.77,8.67,3.8,18.77,11.63,19.37,21.87a17.15,17.15,0,0,1,9.79-3c9.68-.09,17.43,1.43,25.77,6.59C206.42,43,214.8,55.15,214,71.75c13.25.26,14.33,25.89,15,35.53.77,10.54,1.43,20.15-4.41,29.53-2.76,4.44-6.34,9.21-11.38,11.09,7.49,7.2,2.34,18.49-2.1,22.25-8.18,6.92-24.73,11.42-34,3.93,2,6.81-11.42,12.48-15.84,14.93a41.69,41.69,0,0,1-19,4.87c-8.88.27-19.56-1.34-27.35-5.81Z"/>
    <circle class="cls-1" style="fill: #fff;" cx="36.2" cy="22.24" r="10.99"/>
    <circle class="cls-1" style="fill: #fff;" cx="22.8" cy="37.61" r="5.7"/>
    <circle class="cls-1" style="fill: #fff;" cx="224.32" cy="150.23" r="3.89"/>
    <path style="fill: #489d45;"
          d="M96.55,231.84c-9.44.36-18.83-.52-28.2,1.23-6.86,1.28-19.07,11.34-5.47,12.18-6.87,2.33-16,3.78-21.79,8.32-7.94,6.25,1.23,12,7.52,14.67,23.31,9.9,51.55,3.65,76.06,3-11.8,9.44,25.86,7.81,28.75,7.42,4.95-.66,20.66-1.75,23.26-7.23,1.69-3.56-1.45-5.06-4.86-5.51a121.47,121.47,0,0,0,16.74-1.5c5.35-.82,19.41-1.84,22.39-7.48,5-9.41-22-13.1-27.58-13.53,3.18-1,6.68-3.85,4.52-7.27-2.82-4.47-16.1-4.22-20.65-4.75-9.92-1.17-18.19-1.42-27.94.45Z"/>
    <ellipse style="fill: #489d45;" cx="96.9" cy="280.97" rx="18.14" ry="3.83"/>
    <ellipse style="fill: #489d45;" cx="60.18" cy="279.81" rx="8.29" ry="2.67"/>
    <ellipse style="fill: #489d45;" cx="191.66" cy="269.6" rx="6.55" ry="1.52"/>
    <ellipse style="fill: #489d45;" cx="203.14" cy="240.3" rx="10.43" ry="2.51"/>
</svg>