<?xml version="1.0" encoding="utf-8"?>
<!-- Generator: Adobe Illustrator 22.0.0, SVG Export Plug-In . SVG Version: 6.00 Build 0)  -->
<svg version="1.1" id="Слой_1" xmlns="http://www.w3.org/2000/svg" xmlns:xlink="http://www.w3.org/1999/xlink" x="0px" y="0px"
	 viewBox="0 0 55.8 62.9" style="enable-background:new 0 0 55.8 62.9;" xml:space="preserve">
<title>Artboard 1 копия 5</title>
<g id="Слой_18">
	<path style="fill:#F4E599;" d="M32.1,61.3H18.8c-0.1,0-0.2,0-0.3-0.1c-0.3-0.2-0.4-0.6-0.5-0.9c0-0.3,0.2-0.6,0.5-0.8l6.4-4v-3.9
		c-0.3,0-0.5-0.2-0.7-0.4c-0.2-0.2-0.3-0.5-0.3-0.9c0-0.1,0-0.2,0-0.3c-0.4-0.5-0.6-1.1-0.8-1.7c-1.1-0.6-3.4-2.1-3.5-2.1
		s-1-0.6-1.7-1.1l0.7,1.2c0.3,0.4,0.4,1,0.2,1.5c-0.1,0.3-0.4,0.4-0.7,0.5c0.4,0.8,0.4,1.7,0.2,2.6c-0.1,0.2-0.3,0.4-0.5,0.5
		c-0.1,0.1-0.3,0.1-0.4,0.1c-0.1,0-0.3-0.1-0.4-0.2l-0.2,0.1c-0.1,0-0.2,0-0.3,0c-0.2,0-0.4,0-0.6-0.1c-0.1,0-0.2-0.1-0.3-0.1
		c-0.1,0.1-0.3,0.1-0.4,0.1l0,0c-0.4,0-0.7-0.2-0.9-0.5c-2.6-2.2-3.9-11.2-3.9-11.6c0-0.2,0-0.3,0-0.4c0,0,0,0,0-0.1v-1.3
		c0-0.1,0-0.2,0.1-0.3l-0.1-0.1c-1.9-3.3-2.6-7.2-1.9-11c-0.2-0.3-0.2-0.7-0.1-1c0.1-0.3,0.4-0.6,0.7-0.8c0.5-1,1.3-1.8,2.3-2.3
		c1.8-3.6,3.9-6.1,6.3-7.5c0.2-0.6,0.5-0.9,1.3-0.9c0.3-0.2,0.9-0.5,1.4-0.8l1.1-0.6l0.5-0.9c0.3-0.6,0.6-1.1,0.7-1.4
		c-0.1-0.4,0-0.8,0.3-1.1c0.2-0.2,0.5-0.4,0.8-0.4l0,0C24.3,7.6,25.1,7,26,6.7c0.3-0.1,0.5-0.2,0.8-0.2c0.4,0,0.8,0.1,1.2,0.2
		c1.1,0.4,2,1.2,2.5,2.2l0.1,0.2c0.3,0.1,0.6,0.4,0.7,0.7c0.1,0.2,0.1,0.4,0.1,0.6c0,0.1,0.1,0.2,0.1,0.3c0.6,0.8,1.4,1.6,2.2,2.1
		c0.2,0.1,0.3,0.1,0.5,0.2c0.2,0.1,0.4,0.2,0.6,0.3c0.1,0.1,0.3,0.1,0.4,0.2l0.6,0.3c0.2-0.1,0.4-0.1,0.7-0.1c0.6,0,1,0.4,1,1
		c0.4,0.3,0.7,0.6,1.1,1c1.7,1,3.1,2.5,4.1,4.3c0.3,0.1,0.6,0.3,0.8,0.5c0.2,0.3,0.3,0.7,0.2,1.1c0.6,1.1,1,2.3,1.4,3.5
		c0.1,0.3,0.1,0.4,0.2,0.5l0,0.1c0.1,0.3,0.3,0.6,0.5,0.8c1.2,0.8,1.7,2.4,1.5,4.9c0.2,0.3,0.3,0.7,0.2,1.1
		c-0.1,0.4-0.4,0.7-0.8,0.9c-0.2,0.7-0.5,1.4-0.9,2.1c-0.2,0.4-0.4,0.9-0.7,1.3c0,0.1,0,0.1,0.1,0.2c0,0.1,1.2,3.8-0.5,6.5
		c-1.2,2.2-3.6,3.6-6.1,3.5l0,0c-0.6,0-1.2-0.1-1.7-0.4c-0.2,0.7-0.9,1.2-1.6,1.2h-0.1c-0.8,0.5-2.7,1.5-3.3,1.8
		c-0.2,0.6-0.6,1.1-1,1.5l0.1,4.3l6.6,4c0,0,0.1,0.1,0.1,0.1c0.3,0.3,0.4,0.8,0.3,1.2c-0.1,0.3-0.4,0.5-0.8,0.5L32.1,61.3z"/>
	<path style="fill:#FFFFFF;" d="M26.8,7.1c0.4,0,0.7,0.1,1.1,0.1c1.2,0.2,1.8,1.4,2.5,2.3c0.9,0.3,0.6,0.9,0.6,0.9
		c0.1,0.1,0.1,0.3,0.2,0.4c0.7,0.9,1.5,1.8,2.5,2.4c0.3,0.2,0.8,0.3,1.1,0.5s0.6,0.3,1.3,0.6c0.2-0.1,0.5-0.2,0.7-0.2
		c0.7,0,0.5,0.8,0.5,0.8c0.5,0.3,0.9,0.6,1.2,1.1c1.7,1,3.1,2.5,4.1,4.3c1,0.1,0.9,0.9,0.8,1.3c0.7,1.3,1.2,2.7,1.6,4.1
		c0.1,0.4,0.4,0.8,0.6,1.1c1.7,1,1.5,3.7,1.4,4.6c0.7,1-0.5,1.6-0.5,1.6c-0.2,0.8-0.5,1.6-0.9,2.4c-0.3,0.6-0.6,1.2-1,1.8l0,0V37
		l0,0c0.1-0.1,0.1-0.2,0.2-0.2s0.1,0.1,0.2,0.2c0,0,1.1,3.6-0.4,6.1c-1.1,2.1-3.3,3.3-5.7,3.3h-0.1c-0.6,0-1.2-0.2-1.7-0.6l-0.3,0.3
		c0,0.6-0.5,1.1-1.2,1.1c-0.1,0-0.2,0-0.2,0c0,0.1-2.5,1.5-3.6,2c-0.2,0.6-0.5,1.2-1,1.7l0.1,4.8l6.8,4.1c0,0,0.7,0.8-0.2,0.9H18.8
		c0,0-0.6-0.5,0-0.9l6.6-4.2l0.1-4.7h-0.1c-1.2,0-0.9-1.2-0.9-1.2l0,0c-0.5-0.6-0.8-1.3-0.9-2c-1-0.5-3.7-2.3-3.7-2.3
		s-1.1-0.7-1.8-1.2l0,0l-0.4-0.3c-0.3-0.2-0.7-0.4-1-0.6h-0.2c0.4,0.8,1.6,2.8,1.6,2.8c0.2,0.3,0.6,1.3-0.2,1.3c-0.1,0-0.2,0-0.3,0
		l0,0h-0.2c0.5,1.5,0.9,3,0.1,3.2c-0.1,0-0.1,0.1-0.2,0.1c-0.2,0-0.3-0.1-0.4-0.2c-0.1,0-0.3,0.1-0.4,0.1h-0.1c-0.2,0-0.3,0-0.4-0.1
		l0,0c-0.2,0-0.3-0.1-0.5-0.2c-0.1,0.1-0.3,0.2-0.4,0.2l0,0c-0.1,0-0.3-0.1-0.6-0.3c-2.4-2.2-3.7-11.3-3.7-11.3c0-0.2,0-0.3,0-0.5
		v-1.3c0-0.2,0.1-0.3,0.2-0.4l-0.3-0.2c-1.8-3.3-2.5-7.1-1.8-10.8c-0.2-0.4-0.5-0.9,0.4-1.4c0.4-1,1.2-1.8,2.3-2.3
		c0.6-1.2,2.7-5.6,6.4-7.6c0.1-0.5,0.1-0.7,1-0.7c0.6-0.3,2.5-1.5,2.8-1.6c0.4-0.7,1.1-2.2,1.3-2.5C23,9.4,23,8.7,23.8,8.7l0,0
		c0.5-0.5,1.4-1.4,2.2-1.5l0,0C26.2,7.1,26.5,7,26.8,7.1 M44.2,37.7l0.2-0.3C44.2,37.5,44.1,37.6,44.2,37.7 M26.8,6.1
		c-0.3,0-0.7,0.1-1,0.2c-0.9,0.3-1.7,0.8-2.3,1.5c-0.4,0.1-0.7,0.3-1,0.6c-0.3,0.4-0.4,0.8-0.4,1.3c-0.2,0.3-0.4,0.7-0.7,1.2
		L21,11.6l-1,0.6l-1.3,0.8c-0.7,0-1.3,0.4-1.5,1.1c-3.4,2.1-5.5,5.9-6.3,7.5c-1,0.5-1.8,1.3-2.3,2.3c-0.4,0.2-0.6,0.6-0.8,1
		c-0.1,0.4-0.1,0.9,0.1,1.3c-0.6,3.8,0.1,7.8,2,11.1c0,0.1,0,0.2,0,0.3v1.3c0,0,0,0.1,0,0.1s0,0.2,0,0.4c0,0,0,0.1,0,0.1
		c0.1,1,1.4,9.6,4.1,11.9c0.3,0.3,0.7,0.5,1.2,0.6h0.2c0.1,0,0.2,0,0.3-0.1h0.2c0.2,0.1,0.5,0.1,0.7,0.1c0.1,0,0.3,0,0.4-0.1l0,0
		c0.2,0.1,0.3,0.1,0.5,0.1c0.2,0,0.4-0.1,0.6-0.2c0.3-0.1,0.6-0.4,0.8-0.7c0.3-0.8,0.3-1.7,0-2.5c0.2-0.1,0.4-0.3,0.5-0.6
		c0.2-0.4,0.2-1,0-1.4l0,0c0.1,0.1,2.1,1.4,3.3,2c0.1,0.5,0.4,1.1,0.7,1.5c0,0.4,0.1,0.7,0.2,1.1c0.2,0.3,0.5,0.6,0.8,0.7V55l-6.1,4
		c-0.4,0.2-0.7,0.7-0.7,1.2c0,0.5,0.2,1,0.6,1.3c0.2,0.1,0.4,0.2,0.6,0.2h18.7c0.5,0,1-0.3,1.2-0.8c0.2-0.6,0-1.2-0.4-1.7
		c-0.1-0.1-0.2-0.2-0.3-0.2l-6.3-3.8l-0.1-3.9c0.3-0.4,0.6-0.9,0.8-1.3c1-0.5,2-1.1,3-1.7c0.8,0,1.5-0.4,1.9-1.1
		c0.4,0.1,0.9,0.2,1.4,0.2h0.1c2.7,0,5.2-1.4,6.5-3.8c1.6-2.7,0.7-6.3,0.5-6.8c0.3-0.4,0.5-0.8,0.6-1.2c0.3-0.7,0.5-1.4,0.8-2.1
		c0.4-0.3,0.7-0.7,0.8-1.1c0.1-0.4,0.1-0.9-0.1-1.3c0.2-2.5-0.4-4.3-1.7-5.1c-0.1-0.2-0.3-0.4-0.3-0.6l-0.1-0.1l-0.2-0.4
		c-0.4-1.2-0.8-2.3-1.3-3.4c0.1-0.5,0-0.9-0.2-1.3c-0.2-0.3-0.5-0.6-0.9-0.7c-1-1.7-2.4-3.2-4.1-4.2c-0.3-0.3-0.6-0.6-0.9-0.9
		c-0.1-0.7-0.8-1.2-1.5-1.2c-0.2,0-0.4,0-0.7,0.1L35.5,13c-0.2-0.1-0.3-0.1-0.4-0.2c-0.2-0.1-0.4-0.2-0.7-0.3
		c-0.1-0.1-0.3-0.1-0.4-0.2c-0.8-0.5-1.4-1.2-2-1.9l0-0.1c0-0.2,0-0.5-0.1-0.7c-0.2-0.4-0.5-0.7-0.9-0.9l-0.1-0.1
		c-0.6-1.1-1.6-2-2.8-2.4C27.7,6.1,27.2,6.1,26.8,6.1L26.8,6.1z"/>
	<path style="fill:#7C6D2E;" d="M30.6,50.8l0.1,4.9l6.8,4.1c0,0,0.7,0.8-0.2,0.9c-1,0-18.5,0-18.5,0s-0.6-0.5,0-0.9l6.6-4.2l0.1-4.7
		L30.6,50.8z"/>
	<path style="fill:#A18E35;" d="M26.4,51.7c0,0-0.6,4.5,0.3,4.5s3.5,0.3,3.6-0.2s0-4.8,0-4.8S27.3,52.2,26.4,51.7z"/>
	<path style="fill:#A18E35;" d="M34.8,59.8c0,0,1.1,0.1,0.2-0.6S30.3,56,30.3,56s-3.6-0.5-4.1,0.2s-2,3.2-2,3.2s-0.2,0.2,0.7,0.2
		S34.8,59.8,34.8,59.8z"/>
	<path style="fill:#C6AE3A;" d="M20.3,59.5c-0.1,0-0.5-0.1,0.1-0.4s6.1-3.6,6.1-3.6s0.5,0.2,0,0.7s-2.2,3.2-2.2,3.2L20.3,59.5z"/>
	<path style="fill:#F5DA31;" d="M38.1,30.1c0,0,2.2-3.9,3.8-3.8s4.2,1.3,3.4,4.4s-5,10.1-7,11.9s-6.4,3.9-6.7,4.5s-2.6,4.4-4.7,4.1
		c-1.7-0.3-3-1.6-3.3-3.3c-1-0.5-3.7-2.3-3.7-2.3c-0.7-1.2-1.4-2.3-2.3-3.4c-0.6-0.5-7-5.6-7-5.6c-1.8-3.3-2.5-7.1-1.8-10.8
		c-0.2-0.4-0.5-0.9,0.4-1.4c0.4-1,1.2-1.8,2.3-2.3c0.6-1.2,2.7-5.6,6.4-7.6c0.1-0.5,0.1-0.7,1-0.7c0.6-0.3,2.5-1.5,2.8-1.6
		c0.4-0.7,1.1-2.2,1.3-2.5C23,9.4,23,8.7,23.9,8.7c0.5-0.5,1.6-1.6,2.5-1.5s2.2,1.7,2.1,3.6s0,8.9,0,8.9S44.7,19.4,38.1,30.1z"/>
	<path style="fill:#C6AE3A;" d="M27.9,7.2c0,0-1.3-0.3-1.7,0c0,0.2,0.5,0.3,0.9,0.6c0.3,0.3,0.4,5.5,0.4,6.7s0.5,5.1-0.9,5.3
		s-3.4,0.6-2.9,0.9c2.4-0.3,4.8-0.4,7.2-0.3c1.8,0.3,13.1,3,4.5,6.4c-6.7,1.9-2,1.1-1.6,1.1c0.6,0,3,3.6,0.3,5.1
		c-4.8,1.9-10.3,1.4-14.7-1.4c-2.6-2.2-4.3-4.1-4.2-4.5s0.8-1.1,0-1.4s-2.3-0.3-3.4,2.3c-0.4,1.4,0.1,2,0.8,1.5
		c0.4,1.7,1.3,6.3,4.5,8.9s5.7,6.8,10.1,6c3.6-1.2,6.8-3.4,9-6.5c1.4-1.8,2.7-3.8,3.7-5.8c0.3,0.3,0.5,0.8,0.5,1.2
		c0,0.3,0.3,0.4,0.4-0.1s0.8-1.5-1.2-3.1L38.8,30c0,0,1.3-2.7,2.3-3.1c1.3-0.4,2.7,0.3,3.2,1.6c0.3,1.3-0.5,5.8-4.2,9.8
		c-2.6,2.9-5.6,5.4-8.8,7.4c-0.8,0.8-1.4,1.7-2,2.7c-0.6,0.9-1.5,1.6-2.6,1.9c-0.8,0.1-1.6-0.1-2.3-0.5c0-0.1-0.4,1.2,1,1.2
		c0.7,1.3,2.3,1.7,3.6,0.9c0.1-0.1,0.2-0.1,0.3-0.2c0.9-0.1,2.1-1.8,2.3-2.5c1.1-0.5,3.6-1.9,3.6-2c0.6,0.1,1.3-0.3,1.4-0.9
		c0-0.1,0-0.1,0-0.2c0.7-0.6,8.3-9,8.9-10.8c0.3-0.8,0.6-1.6,0.9-2.4c0,0,1.2-0.5,0.5-1.6c0.1-1,0.3-3.7-1.4-4.6
		c-0.3-0.3-0.5-0.7-0.6-1.1c-0.4-1.4-1-2.8-1.6-4.1c0.1-0.4,0.3-1.2-0.8-1.3c-1-1.8-2.4-3.3-4.1-4.3c-0.4-0.4-0.8-0.8-1.2-1.1
		c-0.1,0,0.2-1.2-1.3-0.6c-0.7-0.4-1.1-0.5-1.3-0.6s-0.8-0.3-1.1-0.5c-1-0.6-1.8-1.4-2.5-2.4c0-0.1-0.1-0.3-0.2-0.4
		c0,0,0.3-0.6-0.6-0.9C29.7,8.6,29,7.4,27.9,7.2z"/>
	<path style="fill:#A18E35;" d="M28.1,7.6c0,0,2,3.1,2.3,3.3c0.4,0.4,0.8,0.8,1.2,1.3c1,1.1,2.3,2,3.7,2.7c1.4,0.5,5.4,3,6.7,5.4
		c0.8,1.5,1.5,3,2,4.5c0.1,0.3,0.1,0.5-0.6,0.4c-1.1,0-2.2,0.3-3.2,0.8c-1.1,0.6-2.2,1-3.4,1.4c-0.8,0.2-0.7-0.4,0.4-0.8
		c2.1-1.1,2.9-3.8,1.8-5.9c-0.1-0.2-0.3-0.4-0.4-0.6c-2.3-3.2-7-5.4-8.1-5.8s-1.8-2.1-2.2-4c-0.1-1.2-0.7-2.2-1.5-3
		C26.3,7.2,27.5,6.8,28.1,7.6z"/>
	<path style="fill:#F5DA31;" d="M39.6,23.2c0,0,0.8-0.8-0.8-1.6c-2.4-1-5-1.6-7.6-1.9c-1.1-0.2-2.1,0.1-3,0.7c2-0.1,3.9,0.1,5.8,0.5
		C35.9,21.6,37.8,22.3,39.6,23.2z"/>
	<path style="fill:#A18E35;" d="M43.1,26.6c1.3-0.1,2.4,0.8,2.7,2c0.6,2.2,0.4,5.2-3.1,9.5c-0.8,0.8-1,1.2-1.1,1.2
		c-0.3-0.2-0.6-0.4-0.9-0.6c0,0,3.9-5.6,4.1-7.8s-0.3-3.4-1.1-4S42.7,26.6,43.1,26.6z"/>
	<path style="fill:#C6AE3A;" d="M17.8,22.5c-0.5-0.3-1-0.6-1.6-0.7c-0.7-0.2-2.7-0.1-2,0.2s3,1.1,3.6,1.8S17.8,22.5,17.8,22.5z"/>
	<path style="fill:#F4E599;" d="M23.1,14.8c0,0-2.6-0.6-4.3,3.1s-1.7,4.6-1.4,5.2c0.6,0,7.5-1.9,7.8-2.3S26.9,15.2,23.1,14.8z"/>
	<path style="fill:#F4E599;" d="M26.7,10c0,0-1.3,2.7-2.6,1.9s-0.3-2.8,0-3.1s1.4-1.7,2.2-1C27,8.3,27.1,9.2,26.7,10z"/>
	<path style="fill:#F4E599;" d="M26,12.9c0,0-0.6,0-0.6,0.5s0.2,0.9,0.6,0.6S26.5,13.1,26,12.9z"/>
	<path style="fill:#F4E599;" d="M15.7,18.1c0,0-0.5-0.6-0.9,0s0.1,0.9,0.5,0.9c0.3-0.1,0.6-0.4,0.5-0.7
		C15.8,18.1,15.8,18.1,15.7,18.1z"/>
	<path style="fill:#C6AE3A;" d="M29,10c0,0-0.6,0.1-0.3,0.7s0.8,0.2,0.8,0C29.6,10.4,29.3,10.1,29,10z"/>
	<path style="fill:#F5DA31;" d="M29.3,18.2c0,0-0.8,0.4-0.2,0.9s1,0.1,1-0.2S30.1,18.2,29.3,18.2z"/>
	<path style="fill:#F5DA31;" d="M34.2,17.5c-0.1,0-0.7,0.5,0,1s1-0.2,0.9-0.5C35,17.7,34.6,17.4,34.2,17.5z"/>
	<path style="fill:#C6AE3A;" d="M40.7,20.3c-0.3,0.1-0.4,0.3-0.4,0.6c0,0.1,0.1,0.2,0.1,0.2c0.4,0.5,0.9,0.3,0.9,0
		S41.3,20.3,40.7,20.3z"/>
	<path style="fill:#F4E599;" d="M31.7,29.2c-0.1,0-0.8,0.6-0.2,1c0.6,0.4,0.9-0.4,0.8-0.5S32.3,29.1,31.7,29.2z"/>
	<path style="fill:#F4E599;" d="M30.3,33c0,0-0.7,0-0.6,0.5c0,0.3,0.3,0.5,0.6,0.4c0.1,0,0.3-0.1,0.3-0.2C30.8,33.5,30.7,33,30.3,33
		z"/>
	<path style="fill:#F4E599;" d="M26.1,28.7c0,0-0.6-0.5-0.9,0.1c-0.1,0.2,0,0.5,0.2,0.6c0.1,0.1,0.3,0.1,0.5,0
		C26.2,29.3,26.3,29,26.1,28.7z"/>
	<path style="fill:#F4E599;" d="M20.4,28.2c0,0-0.8-0.1-0.6,0.4s0.7,0.6,0.9,0.3S20.7,28.2,20.4,28.2z"/>
	<path style="fill:#F4E599;" d="M9.4,27c0,0-0.9,0.2-0.5,0.8s0.7,0.2,0.7,0S9.9,27.1,9.4,27z"/>
	<path style="fill:#F4E599;" d="M10.8,33.5c0,0-1.1,0.4-0.4,1s0.8,0.3,0.9,0S11.3,33.5,10.8,33.5z"/>
	<path style="fill:#F4E599;" d="M14.3,23c-0.1,0-2.9-0.1-3.6,1.7s-0.4,3.4,0.6,3.2c0.9-0.7,0.9-1,1.8-1.8s1.6-0.6,1.9-0.9
		S15.8,23.3,14.3,23z"/>
	<path style="fill:#F4E599;" d="M17.1,26.4c-0.6-0.4-1.4-0.2-1.8,0.3c-0.1,0.1-0.1,0.2-0.2,0.3c0.2,0.7,1.6,2.7,4.2,4.1
		c2.6,1.4,4,2,4.8,1.8c0.5-0.1,0.8-0.5,0.7-1c0-0.3-0.2-0.5-0.5-0.6c-0.8-0.5-3.9-1.6-5.7-3.2S17.1,26.4,17.1,26.4z"/>
	<path style="fill:#F5DA31;" d="M21,43.4c1.5,0.2,3.1,0.4,4.6,0.4c0.9-0.1,4.5-0.3,6.8-2.3s2.4-2.3,2.8-2.9s0.3-0.6-0.6,0.3
		s-4.7,4.7-10,3.7S18.7,42.5,21,43.4z"/>
	<path style="fill:none;stroke:#CA0088;stroke-width:0.25;stroke-miterlimit:10;" d="M17.2,34.5c0,0-1.4,1.7,0.8,3.6
		s3.9,2.8,5.9,2.6S18.7,34.6,17.2,34.5z"/>
	<path style="fill:#F4E599;" d="M15.5,37.8c0,0-1.2-0.5-0.3,0.8s3.3,3.6,5.5,4.1s4.1,0.7,4.7,0.4s0.1-0.9-0.5-0.9
		c-2.2-0.3-4.3-1-6.3-2C17.5,39.5,16.5,38.7,15.5,37.8z"/>
	<path style="fill:#A18E35;" d="M37.8,30.7c0.1,0-0.1-0.9,1-0.6s2.4,2.4,1.6,2.7c-0.6,0.2-0.6-1-1-1s-1.6,2.6-1.9,3.2
		s-3,4.9-5.7,6.1s-5.6,2-10.8,0.1c-3.9-2.1-5.4-3.9-6.6-6.1c-1-2.4-1.7-5-1.3-7c-0.4,0.4-0.5,1-0.8,1.1s-0.6-0.4,0-1.2s2-2,2.7-1.8
		s-0.1,0.7-0.2,0.8c0,1.3,0.4,2.6,0.9,3.9c0.7,0.9,9.1,10.5,11.3,10s6.4-5.7,6.5-5.8c0.9-0.6,1.8-1.3,2.7-2c-0.5,0.3-4,2.3-6.3,2.3
		s-5.6-0.2-7.6-1.1c-1.8-0.8-3.5-1.9-5-3.2c-0.5-0.5-0.3-0.9,0.5-0.3c3,3,7.3,4.4,11.5,3.6C35.6,33.2,35.9,32.1,37.8,30.7z"/>
	<path style="fill:#7C6D2E;" d="M14.4,27.3c0,0-0.8,0.6-0.9,1.1s-1,0.4-0.2-0.7s2.1-1.1,1.8-0.7c-0.2,0.1-0.3,0.3-0.4,0.4
		c1.1,1.6,2.4,3.1,3.9,4.3c1.7,1.2,5.4,3.5,5.7,3.6s-5.3-1.1-9.6-7.4c0-0.1,0-0.2,0-0.3c-0.9,1.8-1.1,3.9-0.6,5.9
		c0.7,2,1.7,3.9,3,5.6c-0.5-0.4-0.9-0.9-1.3-1.4C15.3,36.9,11.7,32.5,14.4,27.3z"/>
	<path style="fill:#7C6D2E;" d="M38.1,31h-0.5c-0.2,0,0-0.5,1-0.3s1.1,0.7,1.2,0.8s-0.8-0.5-1-0.4c-0.2,0.4-1.1,4.2-3.7,6.1
		c1.2-1.8,3.3-5.1,3.2-5.3s0.4-1.1-0.5-0.1c-0.9,0.9-1.3,1.2-1.3,1.2s0-0.3,0.7-1C37.5,31.7,37.8,31.4,38.1,31z"/>
	<path style="fill:#FFFFFF;" d="M28.5,39.4c0,0,0.2,2.1,0.5,2.4s0.9,0.9,3-1s5.2-4.9,6.3-9.2c-2,2-6.1,6.5-11.6,5.3
		s-10.5-4.9-12-9.1c-0.1,0.2-0.2,0.3-0.3,0.5c0,0,3,7.6,6.2,10.3s3.6,2.8,5,3.2s2.5,0.6,2.9,0.1C28.6,41,28.6,40.2,28.5,39.4z"/>
	<path style="fill:#CCCECE;" d="M36.3,33c0,0-4.8,4.2-10.1,2.8c-4.6-1.4-7.6-2.7-11.1-7.3c0.6,1.3,2.4,5.5,10.5,8.2
		c3.9,0.8,5.9,0.9,11.1-3.3c0.6-0.5,1.1-1,1.6-1.6v-0.6C38.3,31.2,36.6,32.8,36.3,33z"/>
	<path style="fill:#7C6D2E;" d="M17.2,23.5c0,0-0.2-0.7,0.9-1.2c2.8-1,5.8-1.6,8.9-1.8c2.6-0.2,5.2,0.1,7.7,0.7
		c1.2,0.4,4.9,1.6,4.9,2.1s-0.7,1.5-1.7,1.8s-4.5,2.3-7.8,2.4s-6.3-0.1-8.5-1.2S18.2,24.7,17.2,23.5z"/>
	<path style="fill:#FFFFFF;" d="M18.4,23.1c-0.1,0-0.7,0.3,0.1,1l0.2,0.1c1,0.8,4,2.7,6.6,2.9s7.4,0,10.3-1.2
		c2.8-0.9,4.5-1.9,3.9-2.5c-4-1.7-8.4-2.5-12.8-2.2C23.8,21.5,21,22.1,18.4,23.1z"/>
	<path style="fill:#CCCECE;" d="M18.8,23.7c1.6-0.6,3.2-0.9,4.9-1.1c3.1-0.4,15,1.2,15.3,1.5c0.1,0,0.3,0,0.4-0.1
		c0,0,0.7-0.5-0.3-0.8c-2.3-0.9-4.8-1.5-7.2-1.7c-3.1-0.1-9.4,0.4-9.4,0.4s-4.6,1.1-4.3,1.5C18.2,23.7,18.6,23.8,18.8,23.7z"/>
	<path style="fill:#7C6D2E;" d="M22.5,22.1c0,0.1-0.5,2.7,0.8,3.8c0.4,0.4,0.8,0.8,1.4,1.1c2.6,0.4,5.1,0.3,7.7-0.2
		c0.3-0.3,1.6-2,1.5-3.1s0-1.8-0.6-2.5C31.7,20.8,23.3,20.7,22.5,22.1z"/>
	<path style="fill:#F5DA31;" d="M22.6,22.8c0,0,0.1,3,2.1,3.9c0.4,0.2,0.9,0.4,1.4,0.5c0.3,0,4.3,0.3,5.5-0.3
		c1.6-1.2,2.3-3.3,1.8-5.2c-3.2-0.2-6.4-0.2-9.6,0.1l-0.9,0.1C22.5,22.6,22.6,22.8,22.6,22.8z"/>
	<path style="fill:#0F1C35;" d="M23.7,22c-0.3,2.3,1.3,4.4,3.5,4.7c1.3,0.2,2.6-0.3,3.6-1.2c1-1,1.5-2.3,1.4-3.7c0-0.1,0-0.2,0-0.2
		s-5-1-8.3,0.2L23.7,22z"/>
	<path style="fill:#FFFFFF;" d="M24.9,23.2c-0.1,0-1.3,0.2-1.2,1.1s0.9,1.4,1.8,0.8c0.5-0.3,0.6-1,0.2-1.5
		C25.5,23.4,25.2,23.2,24.9,23.2z"/>
	<path style="fill:#FFFFFF;" d="M26.9,22.8c0,0-0.9,0-0.9,0.6c0,0.4,0.2,0.7,0.6,0.7c0.1,0,0.2,0,0.4-0.1
		C27.1,24,27.7,23.1,26.9,22.8z"/>
	<path style="fill:#FFFFFF;" d="M31.9,22.1c-0.3,0.1-0.5,0.4-0.4,0.8c0,0.1,0.1,0.3,0.3,0.3c0.7,0.5,1.3-0.4,1.1-0.8
		S32.3,22,31.9,22.1z"/>
	<path style="fill:#F4E599;" d="M22.7,44.8c-0.1,0-0.8,0.2-0.3,0.7s0.9-0.2,0.9-0.3S23.1,44.7,22.7,44.8z"/>
	<path style="fill:#F4E599;" d="M25,46.5c-0.1,0-1.2,0.2-1.1,1.1c0.2,1.2,1.2,2,2.4,2.1c1.1-0.1,1.9-0.2,2-1s0-1.1-0.5-1.1
		s-1.1,0.4-1.5,0S26,46.6,25,46.5z"/>
	<path style="fill:#C6AE3A;" d="M10.8,37.3c0-0.1,0.5-1.2,1-0.9s6.5,6,6.8,6.5s1.4,2.8,1.4,2.8s-2.2-1.4-2.5-1.7
		c-0.3-0.2-0.6-0.4-0.9-0.4c0,0,1.4,2.5,1.6,2.8s0.8,1.6-0.7,1.2c0.5,1.5,0.9,3,0.1,3.2c-0.7-0.7-1-2.5-1.4-3.5s-2.7-6.6-3.2-7.4
		s-1.4-3-1.7-2.7c-0.3,0.5-0.4,1-0.6,1.5L10.8,37.3z"/>
	<path style="fill:#7C6D2E;" d="M16.2,40.8l1.9,3.7c-0.5-0.4-1-0.7-1.5-0.9c0.4,0.8,1.6,2.8,1.6,2.8c-0.8-0.8-1.4-1.8-1.9-2.8
		c-0.4-1.1-2.7-5.2-3.6-5.9s-0.7-0.8-0.3-0.5S15.8,40.7,16.2,40.8z"/>
	<path style="fill:#A18E35;" d="M16.6,46.2l0.3-0.5l0.7,1.9h-0.2C17.5,47.6,16.9,46.1,16.6,46.2z"/>
	<path style="fill:#F5DA31;" d="M10.8,39.1c0,0,1.3,9.2,3.7,11.3c0.6,0.5,0.7,0.4,1,0.2c0.3,0.2,0.7,0.3,1.1,0.3
		c0.1,0,0.3-0.1,0.4-0.1c0,0,0.4,0.3,0.6,0.1c-0.6-1.1-1.3-4.5-1.6-4.9s-4-8.7-4.3-8.9S10.8,37.3,10.8,39.1z"/>
	<path style="fill:#A18E35;" d="M14.9,49.2c0,0-0.1,0.1,0,0.6s0.2,1,0.2,1l0.4-0.2c0.2,0.1,0.3,0.2,0.5,0.2
		C16.3,50.8,15.4,50.2,14.9,49.2z"/>
	<path style="fill:#A18E35;" d="M16.5,49.2c0,0-0.3-0.6-0.4,0c-0.1,0.6,0.1,1.2,0.5,1.6l0.4-0.1C17.1,50.7,16.4,49.8,16.5,49.2z"/>
	<path style="fill:#A18E35;" d="M36.4,45.3c0,0-4,2.6-4.4,3s-1.5,2.7-3.6,3s-2.1,0-2.5-0.4c1.5-0.2,2.9,0.1,3.8-1.7s1.7-3.2,2.5-3.5
		c1.4-0.8,2.8-1.7,4-2.8C36.2,42.7,36.4,45.3,36.4,45.3z"/>
	<path style="fill:#F5DA31;" d="M36.3,40.5c-0.5,0.5-0.6,1.3-0.1,1.8c0,0,0.1,0.1,0.1,0.1c-0.5,0.9-0.9,1.4-0.2,1.8
		c-0.1,0.9-0.4,1.2,0.6,1.9l0.3-0.3C37,45.8,36.9,40.9,36.3,40.5z"/>
	<path style="fill:#7C6D2E;" d="M44.2,37.7c0-0.1,0.8-1,0-0.6s-1.6,1.9-3.8,1.5c-0.1,0.2-0.1,0.4,0,0.6c0,0,1.6,1.3,2.6,0.3
		C43.5,38.9,43.9,38.3,44.2,37.7z"/>
	<path style="fill:#C6AE3A;" d="M44.9,37c0,0,1.1,3.6-0.4,6.1c-1.1,2.1-3.3,3.3-5.7,3.3c-2.2,0-3.2-1.9-1.9-2.2
		c-0.6-0.2-1.4-0.8-0.2-2.2c-0.5-0.5-0.9-1.7,0-2s1.8-0.1,1.8-0.4s-0.8-1.4-0.2-2.4s0.9-0.9,0.8,0s1.1,4.3,2.6,3.8s2.6-3.8,2.7-4
		S44.8,36.7,44.9,37z"/>
	<path style="fill:#A18E35;" d="M44,41.1c0,0.1-1.5,3.4-4.1,3.5s-2.4-1.4-1.9-2.2c-0.5-0.7-0.7-2.7,0.7-2.3c0.7-0.2,0.6-1.3,0.4-1.6
		s-0.3-2.6,0.3-1.9c0.3,0.3,0.4,0.7,0.6,1.1c0.1,0.3,0.4,1.8,1.9,2.1c1.1-0.4,1.3-0.4,2.7-2.8C44.9,38.4,44.7,39.8,44,41.1z"/>
	<path style="fill:#F4E599;" d="M42.3,29.5c-0.1,0-0.8,0.6-0.2,1S43,30.1,43,30S42.9,29.4,42.3,29.5z"/>
	<path style="fill:#F4E599;" d="M32.3,43.2c-0.1,0-0.8,0.6-0.2,1s0.9-0.4,0.8-0.5S32.8,43.1,32.3,43.2z"/>
</g>
</svg>
