<?xml version="1.0" encoding="utf-8"?>
<!-- Generator: Adobe Illustrator 22.0.0, SVG Export Plug-In . SVG Version: 6.00 Build 0)  -->
<svg version="1.1" id="Слой_1" xmlns="http://www.w3.org/2000/svg" xmlns:xlink="http://www.w3.org/1999/xlink" x="0px" y="0px"
	 viewBox="0 0 55.8 62.9" style="enable-background:new 0 0 55.8 62.9;" xml:space="preserve">
<title>06_1</title>
<path style="fill:#DEEDDE;" d="M18.5,59c-0.3,0-0.5-0.2-0.5-0.4c0,0,0,0,0-0.1c0-0.1,0-0.2,0.1-0.3v-0.1c0.2-0.2,0.5-0.3,0.7-0.1
	c0,0,0,0,0,0c0.2,0.1,0.3,0.4,0.1,0.7c0,0,0,0,0,0l0,0C18.8,58.9,18.7,59,18.5,59z"/>
<path style="fill:#FFFFFF;" d="M18.5,58.5L18.5,58.5 M18.5,58.5L18.5,58.5 M18.5,58.5L18.5,58.5 M18.5,57.5c-0.3,0-0.6,0.2-0.8,0.4
	l0,0c-0.3,0.5-0.2,1.1,0.3,1.4c0.5,0.3,1.1,0.2,1.4-0.3l0,0c0.3-0.5,0.2-1-0.2-1.4C18.9,57.5,18.7,57.4,18.5,57.5z"/>
<path style="fill:#DEEDDE;" d="M34.7,61.3h-7.2l-8.1-0.1h-0.3l-0.6-0.3l-0.6-0.6c-0.2-0.4-0.3-0.9-0.2-1.3c0.1-0.2,0.2-0.5,0.3-0.7
	c0.2-0.3,0.5-0.6,0.7-0.9l0.8-0.8c0.6-0.5,1.2-0.9,1.8-1.3c0.6-0.4,1.3-0.7,2-0.9l1.2-0.3c0-1,3-5,3.1-6l0.1-6.4
	c-2.9-0.6-5.7-2-7.9-4c-0.5-0.4-0.9-0.9-1.4-1.3h-0.8c-0.4,0-0.8-0.1-1.1-0.3c-0.4-0.2-0.8-0.4-1.1-0.8c-0.3-0.3-0.5-0.7-0.6-1.1
	l-0.1-0.4h-0.4c-0.4-0.1-0.8-0.3-1.1-0.5c-0.6-0.4-1-1-1.3-1.7c-0.2-0.3-0.3-0.7-0.3-1.1c0-0.4,0-0.8,0.2-1.2
	c0.1-0.2,0.2-0.4,0.4-0.6l0.1-0.1l0.1-0.1v-0.1c0-0.1,0-0.3,0.1-0.4c0.1-0.2,0.1-0.3,0.3-0.4c0.3-0.3,0.7-0.5,1.2-0.6h0.3
	c0-0.3-0.1-0.6-0.1-0.9l-0.6-0.3c-0.5-0.1-0.9-0.4-1.3-0.8c-0.4-0.4-0.6-0.9-0.7-1.4c-0.1-0.5-0.1-0.9-0.1-1.4c0-0.9,0-1.7,0.2-2.6
	c0.1-0.4,0.1-0.9,0.2-1.3c0.1-0.5,0.2-1,0.5-1.4c0.4-0.8,1-1.6,1.7-2.2c0.4-0.3,0.8-0.6,1.3-0.8c0.2-0.1,0.5-0.1,0.7-0.1h0.1
	c0.2,0,0.3,0,0.5,0.1l0.4,0.1c0.2,0.1,0.5,0.1,0.7,0.1H18c0.2-0.2,0.3-0.4,0.5-0.6s0.1-0.5,0.1-0.7s0.1-0.5,0.1-0.7v-0.3
	c0,0,0-0.3,0.1-0.4c0.1-0.3,0.2-0.5,0.3-0.8c0.3-0.5,0.8-1,1.3-1.3c0.5-0.3,1-0.5,1.5-0.6c0.3-0.1,0.7-0.1,1-0.1
	c0.3,0,0.6,0,0.9,0.1c0.3,0.1,0.6,0.2,0.9,0.4l0.1,0.1l0.3-0.1c0.1-0.4,0.3-0.8,0.5-1.2l0.2-0.4l0.3-0.3c0.3-0.2,0.6-0.3,1-0.3l0,0
	c0.5,0,0.9,0.1,1.4,0.2c0.6,0.2,1.2,0.5,1.8,0.8h0.8L32.6,8H33l0.6,0.1c0.7,0.1,1.5,0.3,2.2,0.5c0.4-0.2,0.9-0.4,1.3-0.5
	C37.3,8,37.6,8,37.8,8c0.5,0,1,0.1,1.5,0.4c0.3,0.2,0.6,0.4,0.8,0.7c0.2,0.2,0.4,0.5,0.5,0.8l0.1,0.1c0.1,0.2,0.2,0.3,0.3,0.5
	c0.1,0.1,0.2,0.2,0.4,0.2c0.3,0.1,0.5,0.1,0.8,0.1l0.5,0.1c0.2,0.1,0.5,0.2,0.7,0.3c0.2,0.1,0.3,0.3,0.3,0.5c1.1,0.4,2.1,0.9,3,1.7
	c1,0.9,1.7,2.1,2,3.4c0.3,1.2,0.4,2.5,0.2,3.8c-0.1,0.7-0.2,1.3-0.5,1.9c-0.1,0.4-0.3,0.7-0.5,1v0.7c0.4,0.1,0.7,0.2,1,0.5
	c0.4,0.3,0.7,0.7,0.9,1.1c0.3,0.7,0.4,1.5,0.3,2.2v0.7c0,0.1,0,0.1,0.2,0.3c0.2,0.2,0.4,0.5,0.4,0.8c0.1,0.7-0.3,1.3-0.9,1.6
	c-0.2,0.1-0.4,0.1-0.5,0.2l-0.5,0.1c0.1,0.4,0.2,0.7,0.2,1.1c-0.1,0.5-0.3,1-0.7,1.3c-0.3,0.2-0.7,0.4-1,0.6l-1,0.3
	c-0.3,0-0.6,0.1-0.8,0.1H45c-0.3,0.4-0.6,0.8-0.9,1.2c-2.4,3-5.8,5-9.5,5.8c0,1.6,0.1,3.1,0.1,4.7c0,1.3-3,5.8-3,7v0.6
	c1.1,0.3,2.1,0.7,3.1,1.3c0.7,0.5,1.3,1.1,1.8,1.8c0.1,0.1,0.1,0.3,0.2,0.4l0.1,0.2v0.2c0.1,0.2,0.1,0.5,0.1,0.7v0.7
	c0,0.1,0,0.3-0.1,0.4v0.2c0,0.1-0.1,0.2-0.1,0.3L36.4,61c-0.1,0.2-0.3,0.3-0.5,0.3L34.7,61.3z"/>
<path style="fill:#FFFFFF;" d="M26.8,6.9C27.2,7,27.6,7,28,7.1c0.7,0.2,1.3,0.5,1.9,0.9h1.2l1.2,0.1h0.6l0.6,0.1
	c0.8,0.1,1.6,0.3,2.3,0.6c0.4-0.2,0.8-0.4,1.3-0.6c0.2,0,0.4-0.1,0.6-0.1c0.4,0,0.8,0.1,1.2,0.3c0.3,0.1,0.5,0.3,0.7,0.6
	c0.2,0.2,0.3,0.5,0.5,0.7c0.1,0.3,0.3,0.5,0.5,0.7c0.2,0.2,0.4,0.3,0.7,0.4c0.3,0.1,0.5,0.1,0.8,0.1l0.4,0.1c0.2,0,0.3,0.1,0.5,0.2
	c0.1,0.2,0.2,0.3,0.3,0.5c1.1,0.3,2.2,0.9,3.1,1.7c0.9,0.9,1.6,2,1.9,3.2c0.3,1.2,0.4,2.4,0.2,3.6c-0.1,0.6-0.2,1.2-0.4,1.8
	c-0.2,0.4-0.4,0.7-0.6,1.1c0,0.4,0.1,0.8,0.1,1.2h0.2c0.4,0.1,0.7,0.2,1,0.4c0.3,0.2,0.6,0.5,0.7,0.9c0.2,0.6,0.3,1.3,0.2,2
	c0,0.2,0,0.3-0.1,0.5v0.4c0,0.2,0.1,0.4,0.3,0.6s0.3,0.4,0.3,0.6c0,0.2,0,0.5-0.1,0.7c-0.1,0.2-0.3,0.3-0.5,0.4
	c-0.2,0.1-0.3,0.1-0.5,0.2c-0.3,0.1-0.6,0.2-0.8,0.3c-0.1-0.2-0.1-0.2-0.1-0.1c0,0.1,0,0.2,0.1,0.3c0.1,0.3,0.2,0.7,0.2,1
	c0,0.4-0.2,0.7-0.5,0.9c-0.2,0.2-0.5,0.4-0.8,0.5l-0.9,0.3c-0.2,0-0.5,0.1-0.8,0.1h-0.7c-2.5,3.7-6.3,6.3-10.7,7.3
	c0,1.7,0.1,3.4,0.1,5.1S31,53,31,54.7c1.2,0.3,2.4,0.7,3.5,1.4c0.7,0.4,1.3,1,1.7,1.7c0.1,0.1,0.1,0.2,0.2,0.3l0.1,0.2v0.2
	c0,0.2,0.1,0.4,0.1,0.6v1.2c0,0.1,0,0.1-0.1,0.2L36,60.8h-8.5l-8-0.1h-0.2c-0.2-0.1-0.3-0.1-0.5-0.2s-0.3-0.3-0.5-0.5
	c-0.1-0.2-0.2-0.5-0.1-0.8c0-0.2,0.1-0.4,0.3-0.6c0.2-0.3,0.4-0.6,0.7-0.8c0.7-0.8,1.6-1.5,2.5-2c0.6-0.3,1.2-0.6,1.9-0.8
	c0.5-0.2,1.1-0.3,1.6-0.4c0-1.7,3.1-6.3,3.1-8l0.1-5.2c-3-0.6-5.8-1.9-8.1-3.9c-0.5-0.5-1-0.9-1.5-1.5h-1.1c-0.3,0-0.7-0.1-1-0.2
	c-0.3-0.1-0.7-0.3-0.9-0.6c-0.2-0.3-0.4-0.6-0.5-1c0-0.2-0.1-0.5-0.2-0.7c-0.1-0.1-0.1-0.1-0.2-0.1h-0.5c-0.3-0.1-0.7-0.2-0.9-0.5
	c-0.5-0.4-0.9-0.9-1.2-1.5c-0.2-0.3-0.3-0.6-0.3-1c0-0.3,0-0.7,0.1-1c0.1-0.1,0.2-0.3,0.3-0.4l0.3-0.3c0.1-0.1,0.1-0.2,0.1-0.4V28
	c0-0.1,0-0.1,0.1-0.2c0.2-0.2,0.6-0.4,0.9-0.4h0.9c-0.1-0.5-0.1-1.1-0.2-1.6c-0.3-0.2-0.6-0.4-0.9-0.5c-0.4-0.1-0.8-0.4-1.1-0.7
	c-0.3-0.3-0.5-0.8-0.6-1.2c-0.1-0.5-0.1-0.9-0.1-1.4c0-0.8,0-1.7,0.1-2.5c0-0.4,0.1-0.9,0.2-1.3c0.1-0.4,0.2-0.8,0.4-1.2
	c0.4-0.8,0.9-1.5,1.6-2c0.3-0.3,0.7-0.5,1.1-0.7c0.2-0.1,0.4-0.1,0.6-0.1H16c0.1,0,0.3,0,0.4,0.1l0.3,0.1c0.3,0.1,0.6,0.2,0.9,0.2
	h0.5c0.2-0.3,0.5-0.6,0.7-0.9v-0.3c0.1-0.5,0.2-0.9,0.3-1.4v-0.3c0-0.1,0-0.3,0.1-0.4c0.1-0.2,0.1-0.5,0.2-0.7
	c0.2-0.5,0.6-0.8,1-1.1c0.4-0.2,0.8-0.4,1.3-0.6c0.3-0.1,0.5-0.1,0.8-0.1c0.2,0,0.5,0,0.7,0.1c0.2,0.1,0.5,0.2,0.7,0.3
	c0.1,0.1,0.2,0.2,0.3,0.2L25,9V8.8c0.1-0.4,0.3-0.8,0.5-1.1l0.1-0.2l0.1-0.1c0-0.1,0.1-0.1,0.2-0.2C26.1,7,26.3,7,26.6,7l0,0
	 M46.6,19.6c0-0.1,0-0.2-0.1-0.2L46.6,19.6 M26.8,5.9L26.8,5.9c-0.5,0-1,0.1-1.4,0.4c-0.1,0.1-0.3,0.2-0.4,0.4v0.2l-0.2,0.3
	c-0.2,0.3-0.4,0.6-0.5,1c-0.3-0.1-0.5-0.2-0.8-0.3c-0.3-0.1-0.7-0.1-1-0.1c-0.4,0-0.7,0.1-1.1,0.2c-0.6,0.2-1.1,0.4-1.6,0.7
	c-0.6,0.4-1.1,0.9-1.4,1.5c-0.2,0.3-0.3,0.6-0.3,1c0,0.1-0.1,0.3-0.1,0.4v0.3c0,0.2-0.1,0.5-0.1,0.7s-0.1,0.4-0.1,0.6l0,0l-0.3,0.4
	c-0.1,0-0.3,0-0.4-0.1l-0.3-0.1h-0.1c-0.2-0.1-0.4-0.1-0.6-0.1h-0.2c-0.3,0-0.6,0-0.9,0.1c-0.6,0.2-1.1,0.5-1.5,0.9
	c-0.8,0.7-1.4,1.5-1.8,2.4c-0.2,0.5-0.4,1-0.5,1.5c0,0.4-0.1,0.7-0.2,1.1c-0.1,0.9-0.2,1.8-0.2,2.7c0,0.5,0.1,1,0.2,1.5
	c0.1,0.6,0.4,1.2,0.9,1.7c0.4,0.4,0.9,0.7,1.5,0.9l0.3,0.1v0.2c-0.5,0.1-1,0.3-1.3,0.7c-0.2,0.2-0.3,0.4-0.4,0.6
	c-0.1,0.2-0.1,0.3-0.1,0.5l0,0l-0.1,0.1c-0.2,0.2-0.3,0.5-0.5,0.7c-0.1,0.5-0.2,0.9-0.2,1.4c0.1,0.4,0.2,0.9,0.4,1.3
	c0.4,0.7,0.9,1.4,1.5,1.9c0.4,0.3,0.8,0.5,1.3,0.7h0.1v0.1c0.1,0.5,0.3,1,0.7,1.4c0.3,0.4,0.8,0.7,1.3,0.9c0.4,0.2,0.8,0.3,1.3,0.3
	L18,37h0.3c0.4,0.4,0.8,0.8,1.3,1.2c2.2,1.9,4.8,3.3,7.7,4l-0.1,4.4v1.6c0,0.9-3,4.8-3,5.7c-0.3,0.1-0.6,0.1-0.9,0.2
	c-0.7,0.2-1.4,0.5-2.1,0.9c-1,0.6-1.9,1.3-2.7,2.1c-0.3,0.3-0.6,0.6-0.8,1c-0.2,0.3-0.3,0.6-0.4,0.9c-0.1,0.6,0,1.1,0.3,1.6
	c0.2,0.3,0.4,0.6,0.7,0.8c0.2,0.2,0.4,0.3,0.7,0.4l0,0c0.1,0,0.2,0.1,0.3,0.1h0.1l8,0.1H36c0.4,0,0.8-0.2,0.9-0.6l0.2-0.5
	c0-0.1,0.1-0.2,0.1-0.3l0,0c0-0.1,0-0.2,0.1-0.2c0-0.2,0.1-0.3,0.1-0.5V59c0-0.3-0.1-0.5-0.1-0.8v-0.3l-0.1-0.2
	c-0.1-0.1-0.1-0.3-0.2-0.4v-0.1c-0.5-0.8-1.2-1.5-2-2c-0.9-0.6-1.9-1-2.9-1.3v-0.3c0-1.3,3-5.7,3-7s0-2.7-0.1-4.3
	c3.7-0.9,7-3,9.4-5.9c0.3-0.3,0.5-0.7,0.8-1h0.2c0.3,0,0.6,0,0.9-0.1l1-0.3c0.4-0.2,0.8-0.4,1.1-0.7c0.7-0.6,1-1.5,0.8-2.4
	c0.2-0.1,0.4-0.1,0.6-0.2c0.4-0.2,0.7-0.5,0.9-0.9c0.4-0.8,0.3-1.7-0.3-2.4v-0.7c0.1-0.8,0-1.7-0.3-2.5c-0.2-0.5-0.6-1-1-1.3
	c-0.2-0.2-0.5-0.3-0.8-0.4v-0.2c0.2-0.3,0.3-0.6,0.5-0.9c0.3-0.6,0.4-1.3,0.5-2c0.2-1.3,0.1-2.7-0.2-4c-0.4-1.4-1.1-2.7-2.2-3.7
	c-0.9-0.8-1.9-1.4-3-1.8c-0.1-0.2-0.2-0.3-0.4-0.4c-0.3-0.2-0.6-0.4-0.9-0.4L42.2,10h-0.1c-0.3,0-0.5-0.1-0.8-0.1
	c-0.1,0-0.1,0-0.1-0.1c-0.1-0.1-0.2-0.3-0.3-0.4L41,9.3l-0.6-0.9c-0.3-0.3-0.6-0.6-1-0.8c-0.5-0.3-1.1-0.4-1.7-0.4
	c-0.3,0-0.5,0-0.8,0.1c-0.4,0.1-0.8,0.2-1.2,0.4c-0.7-0.2-1.4-0.4-2.1-0.5L33,7.1h-0.7L31.1,7H30c-0.6-0.3-1.2-0.6-1.8-0.8L26.8,5.9
	z"/>
<path style="fill:#C9E1CA;" d="M47.3,25c0.1-9-7.2-16.4-16.2-16.4s-16.4,7.2-16.4,16.2c-0.1,8.1,5.9,15,13.9,16.2l-3,14
	c-2.7,0.3-5.1,1.7-6.7,3.9c-0.6,0.7,0.5,1.1,0.5,1.1h16c0.2-0.5,0.2-1.1,0-1.6c-0.2-0.8-1.6-2.4-5.2-3.1l3-14.3
	C41.3,39.9,47.3,33.1,47.3,25z"/>
<path style="fill:#B5D6B6;" d="M47.3,25l-0.1-1.1v-0.6l-0.1-0.7c-0.1-0.4-0.1-0.8-0.2-1.1l-0.3-1.1c0-0.2-0.1-0.4-0.2-0.5l-0.2-0.5
	l-0.1-0.6c-0.1-0.2-0.2-0.3-0.2-0.5c-0.2-0.3-0.3-0.7-0.5-1l-0.6-1c-1.7-2.5-4.2-4.5-7-5.7c-1.4-0.6-2.8-1-4.3-1.1L33,9.3h-1.7
	l-1.1,0.1h-0.6l-0.5,0.1c-3,0.4-5.7,1.7-8,3.6l-1,0.7l-0.8,0.8c-0.3,0.3-0.5,0.6-0.7,0.9c-0.2,0.3-0.5,0.6-0.7,0.9l-0.6,1
	c-0.2,0.3-0.3,0.7-0.5,1s-0.2,0.3-0.2,0.5l-0.2,0.5l-0.2,0.5c-0.1,0.2-0.1,0.3-0.2,0.5l-0.3,1.1c-0.1,0.4-0.1,0.7-0.2,1.1l-0.1,0.6
	v0.6l-0.1,1.1c0,1.5,0.2,3,0.6,4.5c0.4,1.5,1,2.9,1.9,4.2c0.8,1.3,1.8,2.5,3,3.4l0.4,0.4l0.5,0.3l0.5,0.3l0.2,0.2l0.2,0.2l1,0.6
	l1,0.5c1.4,0.6,2.9,1,4.4,1.2h0.3V41l0.1,5.5c0,1.8-3,6.8-3,8.5v0.5l-0.5,0.1c-0.6,0.1-1.2,0.3-1.8,0.5c-0.6,0.2-1.2,0.5-1.7,0.8
	c-0.5,0.3-1,0.7-1.5,1.1c-0.2,0.2-0.4,0.4-0.6,0.7c-0.2,0.2-0.4,0.4-0.5,0.7v0.1l0,0v-0.1l0,0l0.1,0.1h-0.2l8-0.1h8L35,59.9l0,0
	v-0.6c0-0.1,0-0.3-0.1-0.4v-0.1l0,0l-0.1-0.1c-0.3-0.4-0.7-0.8-1.1-1.1c-1.1-0.7-2.3-1.2-3.6-1.4l-0.6-0.1v-0.6c0-1.9,3-6.8,3-8.7
	s0.1-3.7,0.1-5.6v-0.5l0.5-0.1c1.9-0.2,3.7-0.7,5.4-1.6c1.7-0.8,3.3-2,4.6-3.4c1.3-1.4,2.4-3.1,3.1-4.9C46.9,28.9,47.2,26.9,47.3,25
	z M47.5,25c0,2-0.3,3.9-1,5.8c-0.7,1.8-1.7,3.6-2.9,5.1C41,39,37.3,41,33.3,41.6l0.5-0.6c0,1.9,0.1,3.7,0.1,5.6s-3,6.8-3,8.7
	l-0.6-0.8c1.4,0.2,2.8,0.7,4,1.5c0.7,0.4,1.3,0.9,1.7,1.6c0.1,0.1,0.1,0.2,0.2,0.3l0.1,0.2v0.2c0,0.2,0.1,0.4,0.1,0.6v1.2
	c0,0.1,0,0.1-0.1,0.2L36,60.8h-8.5l-8-0.1h-0.2c-0.2-0.1-0.3-0.1-0.5-0.2s-0.3-0.3-0.5-0.5c-0.1-0.2-0.2-0.5-0.1-0.8
	c0-0.2,0.1-0.4,0.3-0.6v0.1c0.2-0.3,0.4-0.6,0.7-0.9c0.7-0.8,1.6-1.5,2.5-2c0.6-0.3,1.2-0.6,1.9-0.8c0.7-0.2,1.4-0.4,2.1-0.4
	L25.2,55c0-1.8,3.1-6.8,3.1-8.5l0.1-5.6l0.3,0.4c-3.1-0.5-6-1.9-8.4-4c-0.6-0.5-1.2-1.1-1.7-1.7l-0.7-0.9c-0.2-0.4-0.4-0.7-0.7-1
	c-0.9-1.3-1.5-2.7-2-4.2c-0.4-1.5-0.7-3-0.8-4.6V23l0.1-0.6c0.1-0.4,0.1-0.8,0.2-1.2l0.3-1.1c0.9-3.1,2.6-5.9,5-8.1
	c1.2-1.1,2.5-2,4-2.6c1.5-0.7,3-1.1,4.6-1.3L29.2,8H31l1.2,0.1h0.6l0.6,0.1C35,8.4,36.6,8.9,38,9.6c2.9,1.4,5.2,3.6,6.9,6.3
	c0.8,1.4,1.4,2.8,1.9,4.3C47.3,21.8,47.5,23.3,47.5,25z"/>
<path style="fill:#DEEDDE;" d="M14.9,27.4c0,0-1.8,0-1.8,0.9s-0.6,0.6-0.7,1.8s1.3,3,2.5,3s0.4,1.5,1.8,2.2s2.3-0.1,3.4,0.4
	s2.1,2.6,3.8,2.6s3.4-1.4,4.9-1s2,1.4,3.4,1.4c1.4,0,1.5-1.7,3.1-1.7s1.7,0.7,2.8,0.8s1-1.3,2.1-1.4s1,0.4,2,0.1s0.2-1.5,0.8-2
	s2.3,0.1,3.4-0.2s1.7-0.8,1.7-1.6s-0.7-1.2,0-1.5s1.5-0.3,1.6-1s-0.8-0.6-0.6-1.9s0.1-2.9-1.6-3.2c0,0-0.6,4.7-2.9,6.7
	s-9.2,3.9-16,3.4S15.9,32.5,14.9,27.4z"/>
<path style="fill:#B5D6B6;" d="M14.9,27.4c-0.5,0-1.1,0.2-1.5,0.5c-0.1,0.1-0.1,0.2-0.1,0.3c0,0.2,0,0.3-0.1,0.5
	c-0.1,0.1-0.2,0.3-0.3,0.4s-0.1,0.2-0.2,0.3c-0.1,0.3-0.1,0.5,0,0.8c0.1,0.3,0.2,0.5,0.3,0.8c0.3,0.5,0.6,0.9,1.1,1.2
	c0.2,0.2,0.4,0.3,0.7,0.3h0.3c0.1,0,0.2,0,0.3,0.1l0.2,0.1l0.1,0.1c0.1,0.2,0.2,0.3,0.3,0.5c0.1,0.1,0.1,0.3,0.1,0.4
	c0.1,0.2,0.2,0.4,0.3,0.6c0.4,0.3,0.8,0.5,1.3,0.5h1.8c0.4,0.1,0.7,0.2,1,0.4c0.3,0.2,0.5,0.4,0.7,0.7l1.2,1.2
	c0.2,0.2,0.4,0.3,0.6,0.4h0.8c0.5-0.1,1.1-0.2,1.6-0.4c0.6-0.2,1.2-0.4,1.8-0.5c0.3-0.1,0.7-0.1,1-0.1c0.4,0,0.7,0.1,1,0.3
	c0.6,0.3,1.1,0.6,1.6,0.9c0.2,0.1,0.5,0.2,0.7,0.3h0.4c0.1,0,0.2,0,0.3-0.1c0.4-0.1,0.8-0.6,1.3-1.1c0.3-0.2,0.6-0.4,0.9-0.5
	c0.2,0,0.3-0.1,0.5,0h0.5c0.3,0,0.6,0.1,0.9,0.2c0.3,0.1,0.5,0.2,0.8,0.4c0.2,0.1,0.5,0.2,0.8,0.2c0.3,0,0.5-0.2,0.6-0.4
	c0.2-0.3,0.4-0.5,0.6-0.7c0.2-0.1,0.3-0.2,0.5-0.3c0.2,0,0.3-0.1,0.5-0.1c0.3,0,0.6,0,0.9,0.2c0.3,0.1,0.5,0.1,0.8,0
	c0.1,0,0.2-0.1,0.3-0.2c0.1-0.1,0.1-0.2,0.1-0.3c0-0.3,0-0.6,0.1-0.9c0-0.2,0.1-0.4,0.3-0.5c0.1-0.1,0.3-0.2,0.5-0.2h1
	c0.6,0.1,1.1,0.1,1.7,0c0.5-0.1,1.1-0.4,1.5-0.7c0.2-0.2,0.3-0.4,0.3-0.6c0-0.2-0.1-0.5-0.2-0.7c-0.1-0.2-0.1-0.4-0.1-0.6
	c0-0.2,0.1-0.3,0.2-0.4l0.1-0.1l0.1-0.1c0.3-0.2,0.6-0.3,0.9-0.4c0.3-0.1,0.5-0.2,0.5-0.3v-0.2c0-0.1,0-0.1-0.1-0.2
	c-0.1-0.1-0.2-0.3-0.3-0.4c-0.1-0.2-0.2-0.4-0.2-0.6v-0.9c0.1-0.5,0-1-0.2-1.5c-0.2-0.4-0.6-0.7-1.1-0.7l0.5-0.4
	c-0.1,0.9-0.3,1.7-0.5,2.6c-0.2,0.9-0.6,1.7-1,2.5c-0.4,0.8-1,1.6-1.7,2.2c-0.7,0.5-1.5,1-2.3,1.3c-3.2,1.3-6.7,2-10.2,2.1
	c-1.7,0.1-3.3,0-5-0.2c-1.7-0.2-3.4-0.6-5.1-1.1c-1.7-0.5-3.2-1.3-4.6-2.4c-0.7-0.5-1.3-1.2-1.7-2l-0.3-0.6
	c-0.1-0.2-0.2-0.4-0.2-0.6l0.1-0.4L15,28L14.9,27.4z M14.9,27.3l0.2,0.6l0.1,0.3l0.1,0.3l0.3,0.6l0.3,0.5c0.5,0.7,1.1,1.3,1.8,1.8
	c1.3,1,2.9,1.7,4.5,2c1.6,0.4,3.3,0.7,5,0.9c1.7,0.2,3.3,0.2,5,0.1c1.7-0.1,3.3-0.3,5-0.6c1.6-0.3,3.2-0.8,4.8-1.4
	c0.7-0.3,1.4-0.7,2.1-1.1c0.6-0.5,1.1-1.1,1.5-1.8c0.8-1.5,1.3-3.1,1.5-4.7l0.1-0.5l0.5,0.1c0.4,0.1,0.7,0.2,1,0.4
	c0.3,0.2,0.6,0.5,0.7,0.9c0.2,0.6,0.3,1.3,0.2,2c0,0.2,0,0.3-0.1,0.5v0.4c0,0.2,0.1,0.4,0.3,0.6s0.3,0.4,0.3,0.6
	c0,0.2,0,0.5-0.1,0.7c-0.1,0.2-0.3,0.3-0.5,0.4C49.3,31,49.2,31,49,31.1c-0.3,0.1-0.6,0.2-0.8,0.3l-0.1,0.1c0,0.1,0,0.2,0.1,0.3
	c0.1,0.3,0.2,0.7,0.2,1c0,0.4-0.2,0.7-0.5,0.9c-0.2,0.2-0.5,0.4-0.8,0.5l-0.9,0.3c-0.6,0.1-1.2,0.1-1.8,0c-0.6,0-1.3-0.1-1.3,0.4
	c0,0.3,0,0.6-0.1,0.9c0,0.2-0.1,0.4-0.2,0.5c-0.2,0.1-0.3,0.2-0.5,0.3c-0.2,0-0.3,0.1-0.5,0.1c-0.2,0-0.3,0-0.5-0.1
	c-0.3-0.1-0.5-0.1-0.8-0.1c-0.3,0-0.5,0.1-0.7,0.3c-0.2,0.2-0.4,0.4-0.5,0.7c-0.2,0.3-0.5,0.5-0.9,0.5c-0.3,0-0.7,0-1-0.2
	c-0.3-0.1-0.5-0.2-0.8-0.4c-0.3-0.1-0.5-0.1-0.8-0.2c-0.3,0-0.5,0-0.8,0.1c-0.3,0.1-0.5,0.2-0.7,0.4l-0.6,0.6
	c-0.2,0.3-0.5,0.5-0.8,0.6c-0.2,0.1-0.3,0.1-0.5,0.1h-0.5c-0.4,0-0.7-0.1-1-0.3c-0.5-0.3-1-0.6-1.6-0.8c-0.2-0.1-0.5-0.1-0.7-0.2
	c-0.3,0-0.5,0-0.8,0.1c-0.6,0.2-1.1,0.3-1.6,0.5c-0.6,0.2-1.3,0.4-1.9,0.5h-0.6c-0.2,0-0.3-0.1-0.5-0.1c-0.3-0.1-0.6-0.3-0.9-0.5
	c-0.5-0.4-1-0.8-1.4-1.3l-0.6-0.6L19.7,36c-0.4-0.1-1.1,0.1-1.8,0c-0.3,0-0.7-0.1-1-0.2c-0.3-0.1-0.7-0.3-0.9-0.6
	c-0.2-0.3-0.4-0.6-0.5-1c0-0.2-0.1-0.5-0.2-0.7c-0.1-0.1-0.1-0.1-0.2-0.1h-0.5c-0.3-0.1-0.7-0.2-0.9-0.5c-0.5-0.4-0.9-0.9-1.2-1.5
	c-0.2-0.3-0.4-0.6-0.4-1c0-0.3,0-0.7,0.1-1c0.1-0.1,0.2-0.3,0.3-0.4l0.3-0.3c0.1-0.1,0.1-0.2,0.1-0.4V28c0-0.1,0-0.1,0.1-0.2
	c0.2-0.2,0.6-0.4,0.9-0.4h0.9C14.8,27.3,14.8,27.3,14.9,27.3C14.9,27.3,14.9,27.3,14.9,27.3z"/>
<path style="fill:#DEEDDE;" d="M32.3,32.8c0,0,0.4-0.2-0.4-2.2s-1.1-1.7-2-1.9s-1.7,0.6-2.9,0.7s-1-0.9-1.7-1.3s-0.7,0.4-1.7,1
	s-4.5,0.2-5.8-0.5c-1.1-0.8-2.2-1.9-3-3c-0.7-0.8-1.9-0.5-2.6-1.7s-0.3-4.2,0-5.9s2.5-4.3,4.1-3.5c0.8,0.5,1.8,0.4,2.5-0.3
	c0,0-3.1,4.5-2.7,5.2c0,0-1.6,1.5-1.1,2.7s0.5,1.3,0.7,1.3c1.4,0,2-1.2,2.9-1.3c0,0-2.2,1.4-2,1.7s2.7,2.2,3.8,2.3s6.5,0.5,7.4,0.9
	s2.6,0.2,4.5,2"/>
<path style="fill:#B5D6B6;" d="M32.3,32.8v-0.6c0-0.2-0.1-0.4-0.2-0.6c-0.1-0.4-0.3-0.8-0.5-1.2c-0.2-0.4-0.4-0.7-0.6-1.1
	c-0.1-0.1-0.2-0.3-0.4-0.3H30c-0.8-0.2-1.5,0.3-2.4,0.6c-0.2,0.1-0.5,0.1-0.7,0.1c-0.3,0-0.5,0-0.8-0.1c-0.2-0.1-0.4-0.3-0.6-0.5
	c-0.1-0.2-0.2-0.4-0.4-0.5l-0.2-0.2c-0.1,0-0.1-0.1-0.2-0.1h-0.1c-0.1,0-0.1,0.1-0.2,0.1c-0.3,0.4-0.6,0.7-1,0.9
	c-0.2,0.1-0.5,0.2-0.7,0.3s-0.4,0.1-0.7,0.1h-1.3c-0.9-0.1-1.8-0.2-2.6-0.5l-0.6-0.3c-0.2-0.1-0.4-0.2-0.6-0.4
	c-0.4-0.3-0.7-0.6-1-0.9c-0.6-0.6-1.1-1.3-1.6-2c-0.3-0.3-0.6-0.5-1-0.6c-0.4-0.1-0.8-0.4-1.1-0.7c-0.3-0.3-0.5-0.8-0.6-1.2
	c-0.1-0.4-0.1-0.9-0.1-1.3c0-0.8,0-1.7,0.1-2.5c0.3-0.3,0.4-0.7,0.5-1.1c0.1-0.4,0.2-0.8,0.4-1.2c0.4-0.8,0.9-1.5,1.6-2
	c0.3-0.3,0.7-0.5,1.1-0.7c0.2-0.1,0.5-0.1,0.7-0.1c0.1,0,0.3,0,0.4,0.1l0.3,0.1c0.4,0.1,0.7,0.2,1.1,0.1c0.4,0,0.7-0.2,0.9-0.5
	l0.4,0.3c-0.5,0.8-1.1,1.7-1.5,2.5c-0.2,0.4-0.5,0.9-0.7,1.3c-0.1,0.2-0.2,0.5-0.3,0.7c0,0.1-0.1,0.2-0.1,0.3v0.1l-0.1,0.4
	c-0.4,0.4-0.7,0.9-0.9,1.5c-0.1,0.3-0.1,0.5,0,0.8c0,0.2,0.1,0.3,0.2,0.4l0.2,0.5c0.1,0.1,0.1,0.3,0.2,0.4l0,0
	C16,23.1,16,23.1,16,23c0,0,0,0,0,0h0.1c0.3,0,0.5-0.1,0.8-0.2c0.3-0.2,0.5-0.3,0.8-0.5c0.1-0.2,0.3-0.3,0.5-0.4
	c0.2-0.1,0.4-0.2,0.6-0.2l1.5-0.1l-1.2,0.8c-0.4,0.2-0.7,0.4-1,0.7c-0.3,0.2-0.6,0.5-0.9,0.8l0,0v-0.2l0.2,0.2
	c0.1,0.1,0.3,0.2,0.4,0.4c0.3,0.3,0.7,0.5,1,0.7c0.3,0.2,0.7,0.4,1,0.6s0.3,0.2,0.5,0.2l0.2,0.1h0.2c0.8,0.1,1.6,0.1,2.5,0.2
	l2.5,0.3c0.4,0.1,0.8,0.1,1.2,0.2c0.4,0,0.8,0.1,1.2,0.3c0.4,0.1,0.7,0.2,1.1,0.3c0.4,0.1,0.8,0.2,1.2,0.4c0.8,0.3,1.4,0.8,2,1.4
	l0,0c-0.6-0.6-1.3-1-2.1-1.2l-1.2-0.3l-1.2-0.3c-0.4-0.1-0.8-0.2-1.1-0.3h-1.2c-0.8-0.1-1.6-0.1-2.4-0.2s-1.6-0.1-2.5-0.2h-0.3
	c-0.1,0-0.2,0-0.3-0.1c-0.2-0.1-0.4-0.1-0.6-0.2c-0.4-0.2-0.7-0.4-1.1-0.6c-0.3-0.2-0.7-0.4-1-0.7c-0.2-0.1-0.3-0.3-0.5-0.4
	l-0.3-0.3c0-0.1-0.1-0.1-0.1-0.2v-0.3c0-0.1,0-0.1,0.1-0.2l0.5-0.5l0.5-0.4l1-0.7l0.2,0.7c-0.2,0.1-0.5,0.2-0.7,0.3l-0.9,0.6
	c-0.3,0.2-0.7,0.3-1.1,0.4h-0.5c-0.1,0-0.1-0.1-0.2-0.1s-0.1-0.1-0.1-0.2s-0.2-0.3-0.2-0.5l-0.2-0.5c-0.1-0.2-0.1-0.3-0.2-0.5
	c-0.1-0.4-0.1-0.8,0.1-1.2c0.2-0.7,0.6-1.3,1.2-1.8l-0.1,0.4c-0.1-0.2-0.1-0.4-0.1-0.6c0-0.1,0.1-0.3,0.1-0.4s0.2-0.5,0.3-0.7
	c0.2-0.5,0.5-0.9,0.7-1.3c0.5-0.9,1.1-1.7,1.6-2.5l0.4,0.3c-0.3,0.4-0.8,0.6-1.3,0.6c-0.5,0-1,0-1.4-0.2c-0.8-0.3-1.6-0.1-2.2,0.4
	c-0.6,0.5-1.2,1.2-1.6,1.9c-0.2,0.4-0.3,0.8-0.4,1.2c-0.1,0.4-0.1,0.8-0.2,1.2c0.2,0.8,0.3,1.7,0.3,2.5c0,0.8,0.2,1.6,0.7,2.3
	c0.3,0.3,0.6,0.4,1,0.5c0.4,0.1,0.9,0.3,1.2,0.6c0.6,0.6,1.1,1.3,1.7,1.9c0.3,0.3,0.6,0.5,0.9,0.8c0.2,0.1,0.3,0.2,0.5,0.3
	c0.2,0.1,0.4,0.2,0.6,0.2c0.8,0.2,1.6,0.4,2.4,0.4h1.2c0.4,0,0.7-0.1,1.1-0.2c0.3-0.2,0.6-0.5,0.9-0.8l0.3-0.3
	c0.2-0.1,0.3-0.1,0.5,0c0.2,0,0.3,0.1,0.4,0.2l0.3,0.3c0.3,0.4,0.5,0.8,0.7,0.9c0.1,0.1,0.3,0.1,0.5,0.1c0.2,0,0.4-0.1,0.6-0.1
	c0.4-0.1,0.8-0.3,1.2-0.4c0.2-0.1,0.5-0.1,0.7-0.1h0.7c0.2,0,0.5,0.1,0.7,0.1c0.2,0.1,0.4,0.3,0.6,0.5l0.6,1.2
	c0.1,0.4,0.3,0.8,0.4,1.2c0.1,0.2,0.1,0.4,0.1,0.6v0.3C32.4,32.5,32.4,32.6,32.3,32.8L32.3,32.8z"/>
<path style="fill:#DEEDDE;" d="M30.1,8.3c0,0-3.4-1.6-4-0.7s-1.5,1.8-0.4,3.1c0.9,1,2,1.8,3.2,2.5c0.3,0.1-2.4-3-2.2-3.9
	s2-0.4,2-0.4"/>
<path style="fill:#B5D6B6;" d="M30,8.4c-0.7-0.2-1.5-0.4-2.2-0.5c-0.4-0.1-0.7-0.1-1.1-0.1c-0.1,0-0.3,0-0.4,0.1l0,0L26.2,8L26,8.2
	l-0.6,0.9c-0.1,0.3-0.1,0.7,0,1c0.2,0.3,0.4,0.6,0.7,0.9c0.3,0.3,0.6,0.5,0.9,0.7c0.6,0.4,1.3,0.8,1.9,1.2h-0.1
	c-0.1,0-0.2,0-0.2,0.1s-0.1,0.1-0.1,0.2v0.1l0,0l-0.2-0.2L28,12.6c-0.2-0.3-0.5-0.6-0.7-0.9s-0.4-0.7-0.6-1
	c-0.1-0.2-0.2-0.4-0.2-0.6c-0.1-0.2-0.1-0.5-0.1-0.7c0-0.1,0.1-0.3,0.1-0.4l0.1-0.2l0.2-0.1c0.2-0.1,0.5-0.2,0.7-0.1
	c0.4,0,0.8,0.1,1.2,0.3V9c-0.4-0.1-0.7-0.1-1.1,0c-0.2,0-0.3,0.1-0.4,0.2H27v0.2c0,0.2,0.1,0.3,0.2,0.4c0.1,0.2,0.2,0.3,0.3,0.5
	l0.6,0.9l0.7,0.9l0.3,0.5l0.2,0.3v0.4c0,0.1-0.1,0.1-0.1,0.2c-0.1,0.1-0.2,0.1-0.3,0.1h-0.2c-0.7-0.4-1.3-1-1.9-1.6
	c-0.3-0.3-0.5-0.6-0.8-0.9c-0.3-0.3-0.5-0.6-0.7-1c-0.2-0.4-0.2-0.8-0.1-1.2c0.1-0.4,0.3-0.8,0.5-1.1l0.1-0.2l0.1-0.1
	c0-0.1,0.1-0.1,0.2-0.2c0.2-0.2,0.4-0.2,0.7-0.2c0.4,0,0.8,0.1,1.2,0.2c0.7,0.2,1.5,0.6,2.1,1L30,8.4z"/>
<path style="fill:#DEEDDE;" d="M41.3,15.6c0-0.7-0.6-0.9-0.2-1.5S43,12.9,43,12s-0.5-0.7-1.7-1.1s-1-1.8-2.5-2.3
	c-1.1-0.3-2.2,0-3,0.7c1.1,0,2.1,0.5,2.9,1.2c0.7,0.6,1.2,1.5,1.3,2.4"/>
<path style="fill:#B5D6B6;" d="M41.3,15.6c-0.1-0.3-0.2-0.5-0.4-0.7c-0.3-0.3-0.3-0.7,0-1c0.2-0.2,0.4-0.5,0.6-0.7l0.6-0.6
	c0.2-0.1,0.3-0.3,0.4-0.5v-0.4l-0.6-0.3c-0.3-0.1-0.5-0.2-0.8-0.3c-0.3-0.1-0.5-0.3-0.7-0.5c-0.2-0.2-0.3-0.5-0.5-0.7
	c-0.2-0.5-0.7-0.8-1.2-1c-1-0.3-2.1,0-2.8,0.7l-0.2-0.7c0.3,0,0.5,0,0.8,0.1c0.3,0.1,0.5,0.1,0.8,0.2c0.5,0.2,1,0.5,1.4,0.9
	c0.4,0.4,0.7,0.8,1,1.2c0.1,0.2,0.2,0.5,0.2,0.8c0,0.3,0,0.5,0.1,0.8h0c-0.1-0.5-0.3-0.9-0.6-1.3c-0.2-0.2-0.3-0.4-0.5-0.5l-0.5-0.5
	c-0.4-0.3-0.8-0.5-1.3-0.7c-0.2-0.1-0.5-0.1-0.7-0.2c-0.2,0-0.4-0.1-0.7-0.1l-1.1-0.1l0.8-0.6c0.5-0.4,1.1-0.6,1.7-0.8
	c0.6-0.1,1.2-0.1,1.8,0.2c0.3,0.1,0.5,0.3,0.7,0.6c0.2,0.2,0.3,0.5,0.5,0.7c0.1,0.3,0.3,0.5,0.5,0.7c0.2,0.2,0.4,0.3,0.7,0.4
	c0.3,0.1,0.5,0.1,0.8,0.1l0.4,0.1c0.2,0,0.3,0.1,0.5,0.2c0.2,0.1,0.3,0.4,0.3,0.6v0.6c-0.1,0.3-0.3,0.6-0.6,0.8
	c-0.4,0.4-0.9,0.7-1.2,1c-0.1,0.1-0.1,0.2-0.2,0.3v0.3C41.4,15,41.4,15.3,41.3,15.6L41.3,15.6z"/>
<path style="fill:#DEEDDE;" d="M36.2,27.1c0.4,0.5,1.1,0.8,1.7,0.7c1.2-0.2,2-1.8,2.8-1.8c0.9,0,1.8-0.2,2.6-0.6
	c0.4-0.4,0.2-1.8,0.6-2s0.2,1.6,0.8,1.4c1.5-0.5,2.7-1.7,3.2-3.2c0.7-2.2,1-8-5-9.5l-0.7,1c0,0,2.5,3.2,2.6,3.9c0,0.5-0.1,1-0.3,1.4
	c0,0,2.5-0.2,2.3,1.7s-2.1,2.7-5,0.7"/>
<path style="fill:#B5D6B6;" d="M36.3,27.1c0.4,0.4,0.9,0.6,1.5,0.6c0.6-0.1,1.1-0.4,1.4-0.9c0.2-0.2,0.4-0.4,0.7-0.6
	c0.1-0.1,0.3-0.2,0.4-0.3c0.2-0.1,0.3-0.1,0.5-0.1c0.6,0,1.2-0.1,1.7-0.3c0.1,0,0.3-0.1,0.4-0.1s0.2-0.1,0.3-0.2s0.1-0.2,0.1-0.3
	c0-0.1,0-0.3,0.1-0.4c0-0.3,0.1-0.7,0.2-1c0-0.2,0.1-0.3,0.2-0.4H44c0.1,0,0.2,0,0.3,0.1l0.2,0.2c0.1,0.2,0.1,0.3,0.1,0.5
	c0,0.1,0,0.3,0.1,0.4c0,0.1,0,0.1,0.1,0.2l0,0l0.2-0.1l0.4-0.2c0.5-0.3,1-0.6,1.4-1c0.4-0.4,0.8-0.9,1-1.4c0.2-0.5,0.4-1.1,0.5-1.7
	c0.2-1.2,0.1-2.4-0.3-3.5c-0.4-1.1-1-2.1-1.9-2.9c-0.9-0.7-2-1.2-3.1-1.5l0.4-0.1l-0.7,1v-0.4c0.6,0.8,1.2,1.6,1.8,2.5
	c0.2,0.2,0.3,0.5,0.4,0.7c0.2,0.2,0.3,0.5,0.4,0.8c0.1,0.3,0.1,0.7,0,1c-0.1,0.3-0.2,0.5-0.3,0.8L44.6,18c0.4,0,0.9,0,1.3,0.1
	c0.5,0.1,1,0.4,1.2,0.9c0.2,0.4,0.3,0.9,0.1,1.4c-0.1,0.5-0.3,0.9-0.7,1.2c-0.3,0.3-0.8,0.5-1.2,0.5c-0.4,0-0.9,0-1.3-0.1
	c-0.8-0.3-1.5-0.7-2.1-1.2v-0.1c0.7,0.4,1.4,0.7,2.2,0.9c0.7,0.2,1.4,0,2-0.4c0.2-0.3,0.4-0.6,0.5-0.9c0.1-0.3,0-0.6-0.1-0.9
	c-0.5-0.5-1.2-0.7-1.9-0.5h-0.7l0.4-0.6c0.2-0.3,0.3-0.7,0.2-1.1l-0.3-0.6c-0.1-0.2-0.3-0.4-0.4-0.6c-0.6-0.8-1.2-1.7-1.8-2.5
	l-0.2-0.2l0.1-0.2l0.7-1l0.1-0.2l0.2,0.1c1.2,0.3,2.4,0.9,3.3,1.8c0.9,0.9,1.6,2,1.9,3.2c0.3,1.2,0.4,2.4,0.2,3.6
	c-0.1,0.6-0.2,1.2-0.5,1.8c-0.2,0.6-0.6,1.1-1,1.6c-0.4,0.5-0.9,0.9-1.5,1.2l-0.2-0.1l-0.2,0.1c-0.2,0.1-0.3,0.1-0.5,0
	c-0.2-0.1-0.3-0.2-0.3-0.3S44,24.7,44,24.6s-0.1-0.3-0.1-0.5s-0.1-0.3-0.1-0.4l0,0c0.1,0,0.1,0.1,0.2,0.1h0.1C44,24,44,24.3,44,24.6
	c0,0.2,0,0.3-0.1,0.5c0,0.2-0.1,0.4-0.3,0.5c-0.2,0.1-0.3,0.2-0.5,0.3c-0.2,0.1-0.3,0.1-0.5,0.2c-0.6,0.2-1.3,0.2-1.9,0.2
	c-0.3,0-0.5,0.1-0.7,0.3c-0.2,0.2-0.5,0.4-0.7,0.6c-0.2,0.2-0.5,0.4-0.8,0.5c-0.3,0.2-0.6,0.3-0.9,0.3c-0.6,0-1.2-0.3-1.6-0.8
	L36.3,27.1z"/>
<path style="fill:#83BE8D;" d="M26.6,23.1c1.4-0.7,2.9-1,4.5-0.9c1.9,0.3,3.5,1.8,4,1.8c0,0-1.3,3.9-4.4,3.6S26.6,23.1,26.6,23.1z"
	/>
<path style="fill:#83BE8D;" d="M23.8,21.2c0.1,0.4,0.2,0.6,0.3,1c0.1,0.2,0.3,0.4,0.6,0.5l0.5,0.1h0.4c0.3,0,0.6-0.1,0.9-0.2
	c0.6-0.1,1.3-0.4,2-0.5l2.1-0.2c0.7,0,1.5,0,2.2,0.2l1,0.4c0.3,0.1,0.6,0.4,0.9,0.5c0.2,0.1,0.5,0.2,0.8,0.3h0.9
	c0.7-0.1,1.2-0.6,1.5-1.2H38c0,0.8-0.5,1.5-1.3,1.8c-0.8,0.3-1.6,0.2-2.3-0.2c-0.5-0.4-1.1-0.7-1.7-1c-0.6-0.3-1.3-0.5-2-0.6
	c-0.7-0.2-1.4-0.2-2.1,0c-0.4,0.1-0.7,0.2-1,0.4c-0.4,0.2-0.6,0.3-1,0.5l-1.1,0.3c-0.2,0-0.4,0-0.6-0.1L24.5,23
	c-0.4-0.1-0.7-0.5-0.8-1c-0.2-0.3-0.2-0.6-0.1-0.9L23.8,21.2z"/>
<path style="fill:#FFFFFF;" d="M23.4,13.4c1.9-0.8,4.1-0.2,5.4,1.4c1.5,1.6,1.4,4.2-0.2,5.7c-0.1,0.1-0.2,0.2-0.3,0.2
	c-1,0.6-4.5-1.1-5.2-2.6c-0.2-0.4-0.3-0.7-0.5-1.1C21.9,15.7,22.3,14.2,23.4,13.4z"/>
<path style="fill:#83BE8D;" d="M24,14.6c1.2-0.7,2.6-0.9,3.9-0.5c1.5,0.4,2.2,2.8,2,3.6s-1,3-1.8,3s-4-0.5-4.8-2.6
	C22.5,17,22.9,15.4,24,14.6z"/>
<path style="fill:#262424;" d="M25.9,15.3c1-0.5,2.2-0.1,2.7,0.9c0,0,0,0,0,0.1l0,0c0.5,0.9,0.3,2-0.6,2.6c-0.1,0.1-0.2,0.2-0.4,0.2
	c-1.2,0.3-2.4-0.3-2.8-1.5c0-0.1,0-0.2-0.1-0.2c-0.3-0.8,0.1-1.7,0.9-2c0,0,0,0,0,0C25.6,15.4,25.8,15.3,25.9,15.3z"/>
<path style="fill:#FFFFFF;" d="M33,18.8c-0.6-1.9,0.4-4,2.3-4.7c0.1,0,0.2-0.1,0.3-0.1c3.9-1.3,4.7,1.3,4.8,2.4
	c-0.1,1.7-1.1,3.2-2.6,4C36,21.3,33.3,20.5,33,18.8z"/>
<path style="fill:#83BE8D;" d="M38.5,15.1c0.6,0.5,2.1,2,1.2,3.7c-1.3,2.2-5.2,2.5-6.2,0.9s-1-4.5,1.8-5.3
	C36.5,14,37.7,14.3,38.5,15.1z"/>
<path style="fill:#262424;" d="M34,17.5c-0.1-0.9,0.5-1.8,1.4-1.9c1.1-0.4,2.4,0.2,2.8,1.3c0,0.1,0,0.1,0.1,0.2
	c0.1,0.9-0.8,2.8-2.3,2.7S34,18,34,17.5z"/>
<path style="fill:#B5D6B6;" d="M17.3,31.4c-0.2,0-0.3,0.1-0.5,0.1l-0.4,0.2L16,31.9c-0.2,0.1-0.3,0.1-0.5,0.1
	c0.2-0.3,0.5-0.5,0.8-0.7c0.2-0.1,0.3-0.1,0.5-0.1C17,31.1,17,31.3,17.3,31.4z"/>
<path style="fill:#B5D6B6;" d="M15.6,29.5L15,29.8c-0.2,0.1-0.4,0.1-0.6,0.2s-0.4,0.1-0.6,0.1h-0.7c0.1-0.2,0.2-0.4,0.4-0.6l0.6-0.3
	h0.7C15.1,29.2,15.4,29.3,15.6,29.5z"/>
<path style="fill:#B5D6B6;" d="M24,34.3c-0.1,0.3-0.2,0.7-0.3,1l-0.2,0.5c-0.1,0.2-0.1,0.3-0.2,0.5c-0.1-0.4-0.1-0.7,0-1.1
	c0.1-0.2,0.1-0.4,0.2-0.5C23.7,34.5,23.9,34.4,24,34.3z"/>
<path style="fill:#B5D6B6;" d="M21.8,34c-0.3,0.2-0.7,0.3-1,0.4l-0.5,0.2c-0.2,0.1-0.3,0.1-0.5,0.2c0.2-0.3,0.5-0.6,0.9-0.7
	c0.2-0.1,0.4-0.1,0.6-0.1C21.4,33.8,21.6,33.8,21.8,34z"/>
<path style="fill:#B5D6B6;" d="M16.4,19c-0.5,0.2-0.9,0.4-1.4,0.5l-0.7,0.2c-0.2,0.1-0.5,0.2-0.8,0.2c0.3-0.5,0.8-0.8,1.3-1
	c0.3-0.1,0.5-0.1,0.8-0.2C15.8,18.9,16.1,19,16.4,19z"/>
<path style="fill:#B5D6B6;" d="M16.4,18c-0.5-0.1-1-0.2-1.5-0.4l-0.8-0.1c-0.2-0.1-0.5-0.1-0.8-0.2c0.5-0.2,1.1-0.2,1.6-0.1
	c0.3,0.1,0.5,0.2,0.8,0.3C15.9,17.6,16.2,17.7,16.4,18z"/>
<path style="fill:#B5D6B6;" d="M43,24.3c-0.3-0.4-0.5-0.9-0.7-1.4L42,22.1c-0.1-0.2-0.2-0.5-0.3-0.7c0.5,0.2,0.9,0.6,1.1,1.1
	c0.1,0.3,0.2,0.5,0.3,0.8C43.1,23.7,43.1,24,43,24.3z"/>
<path style="fill:#B5D6B6;" d="M29,35.3c0.3-0.1,0.6-0.1,0.9,0c0.3,0.1,0.5,0.3,0.7,0.5c0.2,0.2,0.3,0.4,0.4,0.7
	c0,0.1,0.1,0.3,0.1,0.4v0.4c-0.2-0.2-0.4-0.3-0.6-0.5L30,36.3l-0.5-0.5C29.4,35.7,29.3,35.5,29,35.3z"/>
<path style="fill:#B5D6B6;" d="M45.5,30.6c0.2-0.1,0.3-0.1,0.5-0.1c0.6,0.1,1,0.6,1,1.2c-0.1-0.1-0.3-0.2-0.4-0.3l-0.3-0.3
	C46.1,30.9,45.8,30.7,45.5,30.6z"/>
<path style="fill:#B5D6B6;" d="M36.2,34.5h0.7c0.2,0.1,0.4,0.1,0.6,0.3c0.2,0.1,0.4,0.2,0.5,0.4c0.2,0.2,0.3,0.4,0.3,0.6
	c-0.2-0.1-0.3-0.3-0.5-0.4s-0.3-0.2-0.5-0.3C36.8,35,36.5,34.8,36.2,34.5z"/>
<path style="fill:#DEEDDE;" d="M28,21c-0.6-0.1-4.2,0.1-5.4-1.1s-0.9-1.5-2-2.4c-0.8-0.5-1.4-1.2-1.8-2c-0.6-1.1,0.2-2.8,0.4-4
	s0.9-1.9,2.5-2.4c0.9-0.3,1.9,0,2.6,0.7c-1,0.4-1.8,1.3-2,2.3c-0.4,1.5-0.4,3.1,0,4.6"/>
<path style="fill:#B5D6B6;" d="M28,21.1h-2.8c-0.5,0-0.9-0.1-1.4-0.2c-0.5-0.1-1-0.3-1.4-0.6c-0.4-0.3-0.7-0.7-1-1.1
	c-0.2-0.4-0.4-0.7-0.7-1.1c-0.3-0.3-0.6-0.6-1-0.9c-0.4-0.3-0.7-0.7-0.9-1.1l-0.3-0.6c-0.1-0.2-0.1-0.5-0.1-0.7
	c0-0.5,0.1-0.9,0.2-1.4c0.1-0.5,0.2-0.9,0.3-1.4v-0.3c0-0.1,0-0.3,0.1-0.4c0.1-0.2,0.1-0.5,0.3-0.7c0.2-0.5,0.6-0.8,1-1.1
	c0.4-0.2,0.8-0.4,1.3-0.6c0.5-0.1,1.1-0.1,1.6,0C23.5,9,23.7,9.1,24,9.2c0.2,0.1,0.4,0.3,0.6,0.5l0.4,0.4l-0.6,0.2
	c-0.3,0.1-0.6,0.2-0.8,0.4c-0.5,0.4-0.8,0.8-1,1.4c-0.1,0.3-0.2,0.6-0.2,0.9c-0.1,0.6-0.2,1.2-0.2,1.8c-0.1,0.6,0,1.3,0.2,1.9h-0.1
	c-0.3-0.6-0.5-1.3-0.5-2c0-0.7,0-1.3,0.1-2c0-0.3,0.1-0.7,0.2-1c0.2-0.7,0.6-1.4,1.2-1.8c0.3-0.2,0.7-0.4,1-0.6l-0.2,0.8l-0.4-0.4
	c-0.2-0.1-0.3-0.2-0.5-0.2c-0.4-0.1-0.7-0.1-1.1,0c-0.8,0.2-1.6,0.6-2.1,1.3l-0.3,0.6c0,0.1-0.1,0.2-0.1,0.3c0,0.1,0,0.2-0.1,0.3
	c-0.1,0.4-0.3,0.9-0.4,1.3c-0.4,0.8-0.3,1.8,0.1,2.6c0.1,0.2,0.2,0.4,0.4,0.5c0.1,0.2,0.3,0.3,0.5,0.4c0.4,0.3,0.8,0.6,1.1,0.9
	l0.5,0.5c0.1,0.2,0.3,0.4,0.4,0.6c0.2,0.4,0.5,0.7,0.9,1c0.3,0.3,0.7,0.4,1.1,0.5l1.3,0.3c0.4,0.1,0.9,0.1,1.4,0.2l0.7,0.1
	C27.6,21,27.8,21,28,21.1z"/>
<path style="fill:#FFFFFF;" d="M25.1,14.1c0,0,0.4-0.3,0.9,0.5s0.8,1.4,0.5,1.6s-1-0.1-1.3-1.1S25.1,14.1,25.1,14.1z"/>
<path style="fill:#FFFFFF;" d="M27.5,18.1c0.2-0.2,0.4,0,0.8,0.4s0.5,0.7,0.3,0.9S27,18.5,27.5,18.1z"/>
<path style="fill:#FFFFFF;" d="M34.8,14.6c0,0,0.4-0.3,0.9,0.5s0.8,1.4,0.5,1.6s-1-0.1-1.3-1.1S34.8,14.6,34.8,14.6z"/>
<path style="fill:#FFFFFF;" d="M37.3,18.1c0.2-0.2,0.4,0,0.8,0.4s0.5,0.7,0.3,0.9S36.8,18.5,37.3,18.1z"/>
<path style="fill:#93C699;" d="M28.3,25.5c-0.1-0.4,0.1-0.8,0.5-0.9c0.1,0,0.2,0,0.3,0c1,0,4.1-0.3,4.7,0.6c0.3,0.4-1.2,2-3,1.9
	C29.8,27,28.8,26.4,28.3,25.5z"/>
<path style="fill:#DEEDDE;" d="M28.9,22.4c0.7-0.3,1.4-0.4,2.1-0.2c0.7,0.2,1.5,0.4,2.2,0.7l-0.1,1.4c0,0-3.7,0.2-4.1-0.2
	S28.9,22.4,28.9,22.4z"/>
<path style="fill:#DEEDDE;" d="M21,58.4c0.3-0.6,0.7-1.1,1.2-1.5c0.5-0.4,1.1-0.7,1.8-0.9c1.2-0.4,2.5-0.6,3.8-0.6
	c1.3-0.1,2.6,0.1,3.9,0.4c0.6,0.2,1.2,0.5,1.8,0.8c0.5,0.3,1,0.8,1.2,1.4c-0.4-0.5-0.9-0.9-1.5-1.1c-0.6-0.3-1.2-0.4-1.8-0.5
	c-1.2-0.2-2.5-0.3-3.7-0.2c-0.6,0-1.2,0.1-1.9,0.1c-0.3,0-0.6,0.1-0.9,0.1L24,56.6c-0.6,0.1-1.2,0.3-1.7,0.6
	C21.8,57.5,21.3,57.9,21,58.4z"/>
<path style="fill:#DEEDDE;" d="M29.3,54c-0.1-0.4-0.2-0.7-0.3-1.1c-0.1-0.8,3-4.7,3-5.5v-0.7c0.1-1.7-1.8-1.7-1.9,0
	c-0.1,1.5-3.5,6-3.6,7.3s0.6,1.9,1.5,2S29.6,55.3,29.3,54z"/>
</svg>
