<?xml version="1.0" encoding="utf-8"?>
<!-- Generator: Adobe Illustrator 22.0.0, SVG Export Plug-In . SVG Version: 6.00 Build 0)  -->
<svg version="1.1" id="Слой_1" xmlns="http://www.w3.org/2000/svg" xmlns:xlink="http://www.w3.org/1999/xlink" x="0px" y="0px"
	 viewBox="0 0 55.8 62.9" style="enable-background:new 0 0 55.8 62.9;" xml:space="preserve">
<title>07_1</title>
<path style="fill:#F8E5AA;" d="M27.5,61.3c-1.5,0-3,0-4.4-0.1h-1.2l-3.2-0.1L18,61c-0.3,0-0.5-0.2-0.5-0.4c0,0,0,0,0-0.1
	c0-0.1,0.1-0.2,0.1-0.3l0.5-0.5c0.4-0.4,0.9-0.8,1.4-1.1c0.5-0.3,1-0.6,1.5-0.8c0.5-0.2,1-0.4,1.6-0.6c0.4-0.1,0.7-0.2,1.1-0.2v-8.4
	h-0.8c-0.6,0-2.2,0.9-2.8,0.7l-0.8-0.2l-0.7-0.2l-0.7-0.2l-0.3-0.1l-1-0.4l-0.3-0.3c-0.4-0.2-0.8-0.5-1.2-0.8
	c-0.5-0.4-1-0.8-1.5-1.3c-0.3,0.1-0.5,0.1-0.8,0.1C12.1,46,11.4,46,10.7,46c-0.2,0-0.3-0.1-0.4-0.2l-0.1-0.1
	c-0.1-0.1-0.3-0.2-0.4-0.3l-0.2-0.2c-0.1-0.1-0.2-0.3-0.4-0.4l-0.1-0.2C9,44.5,9,44.4,8.9,44.3c-0.6-1-0.8-2.2-0.7-3.4
	c-0.2-0.1-0.3-0.2-0.5-0.3c-0.2-0.1-0.5-0.3-0.7-0.4l-0.3-0.3c-0.1-0.1-0.1-0.2-0.2-0.3l-0.1-0.2c-0.1-0.3-0.2-0.6-0.1-0.9
	c0.1-0.3,0.2-0.6,0.4-0.8c-0.1-0.1-0.1-0.2-0.1-0.3v-0.6c0-0.3,0.1-0.6,0.3-0.8c0.2-0.3,0.6-0.5,1-0.5h0.4c0-0.2,0-0.4,0.1-0.6
	c0.1-0.3,1.3-0.8,1.6-0.9c0.2-0.1,0.5-0.2,0.7-0.2c0.4,0,0.7,0.2,1,0.4l0.2-0.8c0.7-1.5,1.6-3,2.6-4.3c0.4-0.6,0.8-1.2,1.1-1.8
	l0.2-0.3c0-1.2,0.4-2.3,1.1-3.3c0.3-0.4,0.8-0.9,1.2-1.2c0.2-0.8,0.3-1.5,0.4-2.3c0-0.3,0.1-0.6,0.1-0.9l-0.3-0.1h-0.1
	c-0.5-0.1-2.6,1-3,0.7c-0.2-0.2-0.3-0.4-0.4-0.6c-0.1-0.3,0-0.6,0.1-0.8c0.1-0.2,0.3-0.4,0.5-0.5l0.1-0.1c0.6-0.5,2.7-1.6,3-2.3
	c0.2-0.3,0.3-0.7,0.4-1.1c0.1-0.3,0.2-0.7,0.2-1l0.5-0.1h-0.5c0.1-0.8,0.2-1.7,0.4-2.5c0.2-0.9,0.6-1.8,1.1-2.6L20.8,8L21,7.8
	l0.1-0.1l0.3-0.2l0.3-0.2c0.2-0.1,0.4-0.3,0.6-0.4l0.6-0.3c0.5-0.2,1-0.2,1.5-0.2h0.1c0.5,0,1,0.2,1.5,0.4c0.3,0.1,0.6,0.3,0.8,0.6
	l0,0c0-0.4-0.1-0.9-0.1-1.3c0-0.3,0-0.5,0.1-0.8c0.2-0.8,0.7-1.5,1.4-1.9c0.3-0.2,0.6-0.3,0.9-0.3h0.1c0.2,0,0.5,0,0.7,0.1
	c0.3,0.1,0.6,0.3,0.8,0.5c0.2,0.2,0.2,0.5,0.2,0.8v1.4c0,0.8,0,1.6-0.1,2.4s-0.1,1.6-0.1,2.4v0.2c0.4,0.1,0.7,0.3,1,0.6
	c0.5,0.4,1,0.9,1.3,1.5c0.3,0.6,0.5,1.2,0.6,1.8c0.3,1.1,0.5,2.3,0.6,3.5c0.1,0.9,0.3,1.8,0.6,2.6c0.3,1,0.7,2,1.3,2.9
	c0.5,0.8,1.1,1.5,1.6,2.3l0.5,0.6v-1c0-0.6,1.8-2.8,2-3.3l0.1-0.3c0.1-0.1,0.1-0.2,0.2-0.4c0.1-0.4,0.1-0.8,0-1.2V20
	c0-0.2,0.1-0.4,0.2-0.5c0.1-0.2,0.2-0.3,0.4-0.3c0.1-0.1,0.3-0.1,0.4-0.1h0.4c0.2,0.1,0.4,0.1,0.6,0.3c0.3,0.2,0.5,0.5,0.6,0.8
	l0.2-0.3c0.1-0.1,0.1-0.2,0.1-0.3l0.1-0.2c0.1-0.3,0.3-0.7,0.6-0.9c0.2-0.2,0.4-0.2,0.7-0.2c0.2,0,0.4,0,0.6,0.1
	c0.1,0,0.2,0.1,0.3,0.2l0.1,0.1h0.1c0.2-0.1,0.3-0.1,0.5-0.1h0.3c0.2,0,0.5,0.1,0.7,0.2c0.2,0.1,0.3,0.3,0.4,0.5
	c0,0.1,0.1,0.2,0.1,0.3v0.6c0.6,0.1,1,0.5,1.1,1.1v0.5c0,0.1-0.1,0.2-0.1,0.3c-0.1,0.4-0.2,0.7-0.4,1c-0.3,0.7-0.6,1.4-0.9,2
	c-0.2,0.3-0.4,0.7-0.6,1c-0.1,0.1-0.2,0.2-0.2,0.3l-0.1,0.1c-0.1,0.1-0.1,0.2-0.2,0.3c-0.2,0.6-2.1,2.6-2.1,3.4v0.6
	c0,0.5-0.1,1-0.2,1.5c-0.3,1.1-0.7,2.2-1.2,3.2c0,0.2,0.1,0.4,0.1,0.7c0.2,1.2,0.3,2.4,0.2,3.6c0,1.2,0.9,3.4,0.4,4.5
	c-0.3,0.6-0.6,1.1-1,1.6c-0.2,0.3-0.4,0.5-0.7,0.7l-0.3,0.3L41.4,47l-0.1,0.1c-1,0.7-2.1,1.3-3.3,1.6c-1.1,0.4-2.3,0.6-3.5,0.6
	c-0.8,0-2.8-0.8-3.6-0.8c0,0.8-0.1,1.6-0.1,2.5l-0.1,6.1c0.3,0.1,0.6,0.1,1,0.2c0.5,0.1,1,0.3,1.4,0.5c0.3,0.1,0.7,0.3,1,0.4
	c0.3,0.1,0.6,0.3,0.9,0.5c0.3,0.2,0.6,0.4,0.9,0.7c0.3,0.2,0.6,0.5,0.8,0.8l0.2,0.2c0.2,0.2,0.1,0.5-0.1,0.7c0,0,0,0,0,0
	c-0.1,0.1-0.2,0.1-0.3,0.1h-0.3l-1.8,0.1c-0.9,0-1.7,0.1-2.6,0.1h-4.3V61.3z"/>
<path style="fill:#FFFFFF;" d="M29.4,3.6c0.2,0,0.4,0,0.5,0.1L30.5,4c0.1,0.1,0.1,0.2,0.1,0.3v0.4c0,0.4,0,0.8-0.1,1.2
	c0,0.8,0,1.6-0.1,2.4s-0.1,1.6-0.1,2.4v0.1c0.1,0.1,0.1,0.3,0.1,0.4c0.4,0.1,0.8,0.3,1.1,0.6c1,0.7,1.6,1.8,1.8,3
	c0.6,2.3,0.6,3.8,1.2,6c0.3,1.1,0.8,2.1,1.4,3.1c0.6,1,1.3,1.9,2,2.8l0.8,1.1c0.1-0.2,0.1-0.5,0.2-0.7s0.1-0.5,0.1-0.8v-0.8
	c0-0.6,1.8-2.5,2-3.1c0.1-0.2,0.2-0.5,0.3-0.7c0.2-0.4,0.2-0.9,0.1-1.4v-0.5c0-0.1,0.1-0.2,0.1-0.3l0.2-0.2h0.4
	c0.2,0,0.3,0.1,0.4,0.2c0.2,0.2,0.4,0.4,0.5,0.7c0,0.1,0.1,0.3,0.1,0.4c0,0.2,0,0.4,0.2,0.6v-0.2l0,0c0.3-0.4,0.6-0.7,0.9-1.1
	c0.1-0.2,0.2-0.4,0.2-0.6c0-0.3,0.1-0.5,0.3-0.7c0.1-0.1,0.3-0.1,0.4-0.1l0,0c0.1,0,0.3,0,0.4,0.1h0.1l0.1,0.1v0.6l0,0v-0.1l0.6-0.6
	c0.1,0,0.2-0.1,0.3-0.1h0.2c0.2,0,0.3,0.1,0.5,0.1s0.1,0.2,0.2,0.2v0.6c-0.1,0.2-0.1,0.5-0.2,0.7l-0.1,0.2c0.1-0.1,0.2-0.2,0.3-0.2
	l0.1-0.1h0.2c0.1,0,0.2,0,0.3,0.1c0.2,0.1,0.4,0.3,0.4,0.5v0.3c0,0.1,0,0.2-0.1,0.3c-0.1,0.3-0.2,0.7-0.4,1
	c-0.3,0.7-0.6,1.3-0.9,1.9l-0.6,0.9c-0.1,0.1-0.3,0.3-0.3,0.4c-0.1,0.1-0.2,0.2-0.2,0.4c-0.2,0.6-2,2.8-2.1,3.5
	c0,0.7-0.1,1.4-0.2,2.1c-0.3,1.1-0.7,2.2-1.2,3.3c0.1,0.3,0.1,0.5,0.2,0.8c0.2,1.2,0.3,2.4,0.3,3.6c-0.1,1.2,0.9,3.2,0.4,4.3
	l-0.9,1.5l-0.6,0.6l-0.3,0.3L41.3,46c-0.9,0.7-2,1.3-3.1,1.6c-1.1,0.4-2.2,0.6-3.4,0.7c-1,0.1-3.1-0.8-4.1-0.8c0,1,0,1.9-0.1,2.9
	l-0.1,6.5c0.5,0.1,0.9,0.2,1.3,0.3s0.9,0.3,1.4,0.4c0.3,0.1,0.6,0.3,0.9,0.4c0.3,0.1,0.6,0.3,0.9,0.5c0.3,0.2,0.6,0.4,0.8,0.6
	c0.3,0.2,0.5,0.5,0.8,0.7l0.2,0.2h-0.3c-1.5,0-2.9,0.1-4.4,0.1h-4.4c-1.5,0-2.9,0-4.4-0.1s-2.9-0.1-4.4-0.1h-0.7l0.5-0.5
	c0.4-0.4,0.8-0.7,1.3-1c0.4-0.3,0.9-0.6,1.4-0.8c0.5-0.2,1-0.4,1.5-0.5l1.5-0.3v-6.5c0-0.9,0-1.9-0.1-2.8h-1.2
	c-0.6,0-2.2,0.9-2.8,0.7L19.4,48c-0.3-0.1-0.5-0.2-0.8-0.3l-0.4-0.1l-0.4-0.2L17,47l-1.5-0.9c-0.6-0.4-1.1-0.9-1.6-1.5
	c-0.3,0.1-0.6,0.2-0.9,0.2c-0.6,0.1-1.3,0.1-1.9,0.1c-0.2-0.1-0.3-0.1-0.4-0.2s-0.3-0.2-0.4-0.3S10.1,44.1,10,44
	c-0.1-0.1-0.2-0.2-0.2-0.4c-0.6-1-0.8-2.2-0.7-3.4c-0.5-0.3-0.9-0.6-1.4-0.9c-0.1-0.1-0.2-0.1-0.2-0.2C7,39.7,7,39.6,7,39.5
	l-0.1-0.1c-0.1-0.2-0.1-0.5-0.1-0.7c0-0.2,0.2-0.4,0.4-0.6s0.2-0.1,0.3-0.2c-0.1-0.1-0.2-0.2-0.2-0.3c-0.1-0.1-0.1-0.2-0.1-0.3V37
	c0-0.2,0.1-0.4,0.2-0.6c0.1-0.2,0.4-0.3,0.6-0.3h0c0.2,0,0.4,0.1,0.6,0.2c0.2,0.1,0.3,0.2,0.5,0.3l0.4,0.3c-0.2-0.3-0.4-0.5-0.5-0.8
	C9,36,8.9,36,8.9,35.9v-0.2c-0.1-0.2-0.1-0.3,0-0.5c0.4-0.3,0.9-0.5,1.4-0.7c0.1-0.1,0.3-0.1,0.4-0.1h0.1c0.3,0,0.6,0.2,0.8,0.4
	c0.2,0.1,0.3,0.3,0.4,0.5c0.1-0.6,0.3-1.1,0.4-1.7c0.7-1.4,1.6-2.8,2.5-4.2c0.5-0.8,0.9-1.5,1.4-2.2l0,0c0-1.2,0.4-2.3,1.1-3.2
	c0.4-0.5,0.8-0.9,1.2-1.3c0.2-0.8,0.4-1.7,0.5-2.5c0.1-0.5,0.1-0.1,0.1-0.6c-0.2,0-0.5-0.1-0.7-0.1c-1,0.1-1.9,0.1-2.9,0
	c-0.1-0.1-0.2-0.2-0.2-0.3c0-0.1,0-0.3,0.1-0.4c0.1-0.2,0.3-0.3,0.5-0.5c0.6-0.5,2.8-1.7,3.1-2.5c0.1-0.4,0.3-0.8,0.4-1.2
	c0.1-0.4,0.2-0.8,0.2-1.2c0.1-0.8,0.2-1.7,0.3-2.5c0.2-0.8,0.6-1.6,1.1-2.3l0.2-0.3l0.2-0.2l0.2-0.2L22,7.7l0.6-0.3
	c0.2-0.1,0.4-0.2,0.6-0.2C23.6,7.1,24,7,24.4,7h0.1c0.5,0,0.9,0.1,1.3,0.4c0.4,0.2,0.7,0.5,1,0.8c0.3,0.3,0.5,0.7,0.7,1.1h0.1
	c-0.2-0.6-0.3-1.3-0.3-1.9c0-0.4-0.1-0.8-0.1-1.2c0-0.2,0-0.5,0.1-0.7l0.3-0.6c0.2-0.4,0.5-0.7,0.9-1c0.2-0.1,0.5-0.2,0.7-0.2
	L29.4,3.6 M29.4,2.7h-0.2c-0.4,0-0.8,0.2-1.1,0.4c-0.5,0.3-0.9,0.8-1.2,1.3l0,0c-0.2,0.2-0.3,0.5-0.3,0.8c-0.1,0.3-0.1,0.6-0.1,0.9
	v0.3C26,6.1,25.4,6,24.8,5.9h-0.2c-0.5,0-1.1,0.1-1.6,0.2h-0.1c-0.2,0.1-0.5,0.2-0.7,0.3s-0.5,0.3-0.7,0.5l-0.2,0.2h-0.1L21,7.3
	l-0.1,0.1l-0.1,0.1l-0.2,0.2l0,0L20.4,8c-0.6,0.8-1,1.8-1.2,2.8c-0.2,0.9-0.3,1.7-0.4,2.6v0.1c0,0.3-0.1,0.6-0.1,0.9
	c-0.1,0.4-0.2,0.8-0.4,1.1c-0.2,0.6-2.3,1.7-2.8,2.1l-0.1,0.1c-0.2,0.2-0.5,0.4-0.6,0.6c-0.2,0.4-0.3,0.8-0.2,1.2
	c0.1,0.3,0.3,0.6,0.5,0.8l0.1,0.1c0.4,0.3,2.6-0.8,3.1-0.7v0.4c-0.1,0.7-0.2,1.4-0.4,2.1c-0.4,0.4-0.8,0.8-1.1,1.2
	c-0.8,1-1.3,2.3-1.3,3.6l-0.2,0.3c-0.4,0.6-0.8,1.2-1.1,1.8c-1,1.4-1.9,2.8-2.6,4.4l-0.1,0.2c-0.2-0.1-0.4-0.1-0.6-0.1h-0.1
	c-0.3,0-0.6,0.1-0.9,0.2c-0.7,0.3-1.3,0.7-1.8,1.1C8.1,35,8,35.1,8,35.2c-0.5,0-1,0.3-1.3,0.7c-0.2,0.3-0.4,0.7-0.4,1.1
	c0,0.3,0,0.5,0.1,0.8l0,0c-0.3,0.1-0.5,0.4-0.5,0.7c-0.1,0.4,0,0.8,0.1,1.2c0,0.1,0,0.1,0.1,0.2c0.1,0.1,0.2,0.3,0.3,0.4l0.4,0.4
	C7,40.8,7.3,41,7.5,41.1l0.2,0.1c0,1.2,0.3,2.3,0.8,3.4c0.1,0.1,0.1,0.2,0.2,0.3L8.8,45c0.1,0.2,0.2,0.4,0.4,0.5l0.1,0.1l0.1,0.1
	l0.1,0.1c0.1,0.1,0.3,0.2,0.4,0.3H10v0.1c0.2,0.1,0.3,0.2,0.5,0.2c0.8,0.1,1.6,0,2.3-0.1h0.6c0.4,0.5,0.9,0.9,1.4,1.2
	c0.4,0.3,0.8,0.6,1.3,0.8l0.3,0.2h0.1l0.5,0.4l0.3,0.1l0.1,0.1l0.3,0.1l0.5,0.2l0.3,0.1l0.6,0.2l0.9,0.2c0.6,0.2,2.3-0.7,2.9-0.7
	h0.3v7.6L22.5,57c-0.6,0.2-1.1,0.4-1.7,0.6c-0.6,0.2-1.1,0.5-1.6,0.8c-0.5,0.3-1.1,0.7-1.5,1.2l-0.5,0.5c-0.4,0.4-0.3,1,0.1,1.4
	c0.2,0.2,0.4,0.3,0.6,0.3h0.7l3.2,0.1H23c1.4,0,2.8,0.1,4.4,0.1H32c0.9,0,1.7,0,2.6-0.1l1.8-0.1h0.3c0.5,0,0.9-0.4,0.9-0.9
	c0-0.1,0-0.1,0-0.2c0-0.2-0.1-0.4-0.2-0.5L37.2,60l-0.9-0.9c-0.3-0.2-0.6-0.5-0.9-0.7c-0.3-0.2-0.7-0.4-1-0.6
	c-0.3-0.2-0.7-0.3-1-0.5c-0.5-0.2-1-0.4-1.5-0.5l-0.5-0.1l0.1-5.6c0-0.7,0-1.3,0.1-2c0.6,0,2.5,0.9,3.1,0.8c1.3-0.1,2.5-0.3,3.7-0.7
	c1.2-0.4,2.4-1,3.4-1.8l0.1-0.1l0.3-0.2l0.4-0.3c0.3-0.2,0.5-0.4,0.7-0.7l0,0c0.4-0.5,0.8-1.1,1.1-1.7c0.5-1.2,0.8-2.5,0.9-3.8
	c0.1-1.2-1.2-3.4-1.5-4.6c0-0.2,0-0.3-0.1-0.5c0.4-1,0.8-2,1.1-3.1v-0.1c0.1-0.5,0.2-1.1,0.2-1.6v-0.6c0-0.6,1.8-2.6,2-3.3
	c0-0.1,0-0.1,0.1-0.1l0.1-0.1l0.3-0.3c0.2-0.3,0.5-0.7,0.7-1c0.4-0.6,0.7-1.3,1-2c0.1-0.3,0.3-0.7,0.4-1.1c0-0.1,0.1-0.2,0.1-0.3
	c0.1-0.2,0.1-0.5,0.1-0.7c-0.1-0.6-0.5-1.1-1-1.4h-0.1v-0.3c0-0.1-0.1-0.3-0.1-0.4c-0.1-0.3-0.3-0.5-0.5-0.7
	c-0.3-0.2-0.6-0.3-0.9-0.3h-0.4c-0.2,0-0.3,0-0.5,0.1l-0.2-0.1l0,0c-0.2-0.1-0.5-0.2-0.8-0.2c-0.4,0-0.7,0.1-1,0.3
	c-0.3,0.3-0.6,0.7-0.8,1.1c-0.1-0.1-0.2-0.2-0.3-0.2c-0.2-0.2-0.4-0.3-0.7-0.3c-0.2,0-0.3-0.1-0.5-0.1c-0.2,0-0.4,0-0.6,0.1
	c-0.5,0.2-0.9,0.7-1,1.3v0.1c0,0.2,0,0.4,0.1,0.6v0.7c0,0.1,0,0.3-0.1,0.4c0,0.1-0.1,0.2-0.1,0.3L38.4,24c-0.1,0.5-0.2,0.9-0.2,1.4
	c-0.4-0.6-0.8-1.1-1.2-1.7c-0.6-0.9-1-1.8-1.3-2.8c-0.2-0.8-0.4-1.7-0.5-2.5c-0.1-1.2-0.4-2.4-0.6-3.5c-0.2-0.7-0.4-1.3-0.8-1.9
	c-0.4-0.6-0.9-1.2-1.5-1.6c-0.3-0.2-0.5-0.4-0.8-0.5c0-0.7,0-1.4,0.1-2.1c0.1-0.8,0.1-1.6,0.1-2.4V4.5c0-0.4-0.1-0.8-0.3-1.1
	c-0.3-0.3-0.7-0.6-1.1-0.7L29.4,2.7z"/>
<path style="fill:#F3D677;" d="M33,58.2c-0.9-0.3-1.8-0.6-2.8-0.7v-10h-5.9v10.1H24c-2,0.3-3.8,1.2-5.2,2.7l17.7,0.2
	C35.6,59.4,34.4,58.6,33,58.2z"/>
<path style="fill:#B2934F;" d="M33,58.2c-0.9-0.4-1.8-0.6-2.8-0.6h-0.1v-0.1L30,50.9c-0.1-1.2-0.1-2.3-0.1-3.5l0.3,0.3h-2.9l-3-0.1
	l0.2-0.2c0,1.2-0.1,2.3-0.1,3.5v6.7h-0.1c-0.5,0.1-1,0.2-1.5,0.4c-0.5,0.2-1,0.4-1.4,0.6c-0.5,0.2-0.9,0.5-1.3,0.8
	c-0.4,0.3-0.8,0.6-1.1,1L18.7,60h8.8c1.5,0,2.9,0,4.4,0.1c1.5,0.1,2.9,0.2,4.4,0.2l-0.1,0.2c-0.2-0.3-0.4-0.6-0.7-0.8
	c-0.2-0.3-0.5-0.5-0.8-0.7c-0.3-0.2-0.6-0.4-0.9-0.5C33.5,58.4,33.3,58.3,33,58.2z M33,58.1c0.3,0.1,0.6,0.3,0.9,0.4
	c0.3,0.1,0.6,0.3,0.9,0.5c0.3,0.2,0.6,0.4,0.8,0.6c0.3,0.2,0.5,0.5,0.8,0.7l0.2,0.2h-0.3c-1.5,0-2.9,0.1-4.4,0.1h-4.4
	c-1.5,0-2.9,0-4.4-0.1s-2.9-0.1-4.4-0.1H18l0.5-0.5c0.4-0.4,0.8-0.7,1.3-1c0.4-0.3,0.9-0.6,1.4-0.8c0.5-0.2,1-0.4,1.5-0.5
	c0.5-0.1,1-0.2,1.6-0.3l-0.1,0.1v-6.6c0-1.2,0-2.3-0.1-3.5v-0.2h0.2l3-0.1h3.3v0.3c0,1.2,0,2.3-0.1,3.5l-0.1,6.6l-0.1-0.1l1.4,0.3
	C32.1,57.8,32.6,58,33,58.1z"/>
<path style="fill:#F3D677;" d="M28,9.7c0,0-0.5-3.4-0.2-4.3s0.9-1.7,1.7-1.7s1,0.4,1,0.6s-0.8,6.1-0.4,7.5S28,9.7,28,9.7z"/>
<path style="fill:#B2934F;" d="M27.9,9.8c-0.2-0.8-0.4-1.6-0.5-2.4c0-0.4-0.1-0.8-0.1-1.2c0-0.2,0-0.5,0.1-0.7l0.3-0.6
	c0.2-0.4,0.5-0.7,0.9-1c0.2-0.2,0.4-0.2,0.6-0.2h0.6L30.4,4c0.1,0.1,0.1,0.2,0.1,0.3v0.4c0,0.4,0,0.8-0.1,1.2c0,0.8,0,1.6-0.1,2.4
	s-0.1,1.6-0.1,2.4c0,0.4,0,0.7,0.1,1.1v0.5l-0.1,0.1l-0.1,0.1h-0.2l-0.1-0.1c-0.1,0-0.1-0.1-0.2-0.1c-0.2-0.1-0.3-0.3-0.4-0.5
	C28.7,11.1,28.3,10.5,27.9,9.8z M28,9.7c0.5,0.6,1.1,1.2,1.6,1.8l0.4,0.4l0.1,0.1h-0.2c-0.1,0-0.1,0-0.1,0.1v0l0,0v0.1l0,0v-0.1
	c-0.1-0.4-0.2-0.8-0.2-1.2c0-0.8,0-1.6,0.1-2.4c0.1-1.1,0.3-1.8,0.4-2.6c0.1-0.4,0.1-0.8,0.2-1.2V4.4c0-0.1,0-0.2-0.1-0.2
	C30,4,29.9,3.9,29.7,3.9h-0.5c-0.2,0-0.3,0.1-0.5,0.2c-0.3,0.2-0.5,0.6-0.6,0.9C28,5.2,28,5.3,27.9,5.5C28,5.7,28,5.9,28,6.1
	C28,6.1,28,9.7,28,9.7z"/>
<path style="fill:#F8E5AA;" d="M28.3,5C28,6.4,27.9,7.9,28,9.3c0.1,0.2,0.3,0.4,0.6,0.4c0.2,0,0.3-0.2,0.4-0.4
	c0-1.4,0.1-2.7,0.3-4.1C29.5,4.6,28.5,4.3,28.3,5z"/>
<path style="fill:#F3D677;" d="M28.2,10.8c0,0,3.5,0,4.6,2.9s0.7,6.1,2.2,9s6,7.7,7.2,12.1c0.7,2.7,2.6,8.6-0.8,11.4
	s-7.6,1.6-13.2,1.6c-2.2,0.2-5.4,1.1-7.5,0.8c-7.3-1.5-10.3-6.9-8-14.8c0.8-2.6,3.9-6.1,5.6-9.4c2.1-4,0.6-9.8,3-13
	C23.5,8.6,28.2,10.8,28.2,10.8z"/>
<path style="fill:#B2934F;" d="M28.2,10.8c1.2,0,2.3,0.3,3.3,1c1,0.7,1.6,1.8,1.8,3c0.6,2.3,0.6,3.8,1.2,6c0.3,1.1,0.8,2.1,1.4,3.1
	c0.6,1,1.3,1.9,2,2.8c1.4,1.8,2.7,3.8,3.7,5.9c0.5,1.1,0.8,2.2,1,3.4c0.2,1.2,0.3,2.3,0.3,3.5c-0.1,1.2,0.9,3.2,0.4,4.3l-0.9,1.5
	l-0.6,0.6l-0.3,0.3l-0.3,0.3c-0.9,0.7-2,1.3-3.1,1.6c-1.1,0.4-2.2,0.6-3.4,0.7c-2.3,0.1-5.8-0.8-8.2-0.7c-1.2,0.1-2.3,0.1-3.5,0
	c-0.6,0-2.2,0.9-2.8,0.7l-0.9-0.2c-0.3-0.1-0.5-0.2-0.8-0.3l-0.4-0.1l-0.4-0.2l-0.8-0.4l-1.5-0.9c-1-0.7-1.8-1.6-2.4-2.6
	c-0.6-1-2-1.9-2.2-3.1c-0.1-0.3-0.1-0.6-0.1-0.9v-1.9l1.1-1.2v-0.4c0-0.2,0-0.3,0.1-0.4l0.1-0.9c0.1-0.6,0.3-1.1,0.4-1.7
	c0.7-1.4,1.6-2.8,2.5-4.2c0.6-1,1.3-2,1.8-2.9l0.9-1.5l0.4-0.8l0.4-0.8c0.4-1.1,0.6-2.2,0.8-3.3c0.1-1.1,0.2-1.5,0.3-2.6
	c0.1-1.2,0.2-2.3,0.5-3.5c0.2-1.2,0.8-2.3,1.6-3.2c0.5-0.4,1-0.7,1.6-0.9c0.6-0.2,1.2-0.2,1.8-0.2C26.1,9.9,27.2,10.3,28.2,10.8z
	 M28.2,10.9c-1.1-0.5-2.2-0.7-3.4-0.8c-1.1-0.1-2.3,0.3-3.1,1.1c-0.7,0.9-1.2,1.9-1.4,3c-0.2,1.2-0.4,2.3-0.4,3.5
	c-0.1,1.1-0.1,1.5-0.3,2.7c-0.1,1.2-0.3,2.3-0.7,3.4l-0.4,0.8c-0.1,0.3-0.3,0.5-0.4,0.8l-0.9,1.5c-0.6,1-1.2,2-1.8,2.9
	c-1,1.2-1.8,2.6-2.4,4c-0.1,0.5-0.3,1.1-0.4,1.7l-0.1,0.8c0,0.1-0.1,0.3-0.1,0.4v0.4l-0.1,0.8v1.8c0,0.3,0,0.5,0.1,0.8
	c0.2,1.1,0.5,2.2,1.1,3.1c0.6,1,1.3,1.8,2.2,2.5c0.4,0.3,0.9,0.6,1.4,0.9l0.8,0.4l0.4,0.2l0.4,0.1l0.8,0.3l0.8,0.2
	c0.5,0.2,2.1-0.7,2.7-0.7c1.1,0.1,2.3,0.1,3.4,0.1c2.3-0.1,5.8,1,8.1,0.8c1.2-0.1,2.3-0.3,3.4-0.6c1.1-0.4,2.1-0.9,3-1.6
	c0.9-0.7,1.6-1.6,2.1-2.6c0.4-1.1-0.5-3.1-0.5-4.2c0-1.1-0.1-2.3-0.3-3.4c-0.2-1.1-0.5-2.1-1-3.1c-1-2-2.3-4-3.7-5.8
	c-0.7-0.9-1.3-1.9-2-2.9l-0.9-1.5c-0.2-0.5-0.4-1.1-0.6-1.7c-0.6-2.3-0.5-3.8-1.1-6.1c-0.1-0.6-0.3-1.1-0.5-1.6
	c-0.3-0.5-0.7-0.9-1.1-1.3c-0.4-0.4-1-0.6-1.5-0.8C29.3,11,28.7,10.9,28.2,10.9L28.2,10.9z"/>
<path style="fill:#F8E5AA;" d="M38.5,37.3c-1-5.1-4.3-9.5-6.4-14.1c-0.9-2-1.4-3.3-2.1-5.3l-0.2,0.1c-2.6,1.7-5.8,2.4-8.9,1.8
	c-0.2,0.8-0.4,0.9-0.6,1.7c-0.7,2.7-1.7,5.4-2.9,8c-1.8,4.2-5.3,11.4-1.2,15C22.1,49.7,40.6,48.3,38.5,37.3z"/>
<path style="fill:#F3D677;" d="M30.6,28.5c-0.4-0.5-0.9-0.9-1.5-1.2c0.3-0.4,0.4-1,0.3-1.5c-0.9-2.9-5.6-3.8-7.9-2.1
	c-0.9,0.7-1.1,2-0.4,2.9c0,0,0,0,0,0c0.2,0.3,0.4,0.5,0.7,0.6c-0.2,0.5-0.2,1.2,0,1.7c0.1,0.2,0.2,0.3,0.3,0.4
	c-0.2,0.1-0.3,0.1-0.5,0.2c-0.9,0.6-1.2,1.8-0.6,2.7l0.3,0.3c1.7,1.7,5.3,0.5,7.3,0.2c0.8-0.1,1.4-0.8,1.4-1.6
	c0.1-0.1,0.3-0.2,0.4-0.3C30.9,30.1,31,29.2,30.6,28.5z"/>
<path style="fill:#F3D677;" d="M43.2,21.1c0.4-0.3,0.7-0.7,1-1.1c0.1-0.4,0.3-0.7,0.5-1c0.2-0.3,0.6-0.4,0.9-0.2c0,0,0,0,0,0
	c0.3,0.1-0.3,2-0.3,2s0.9-1.8,1.4-1.8s0.7,0.1,0.7,0.5c-0.1,0.8-0.4,1.7-0.8,2.4c0,0,1-1.2,1.3-1.2c0.3,0,0.6,0.2,0.6,0.5v0.1
	c0,0.4-1.2,3.7-2.1,4.5S44,31,43.7,32.1S42.2,36,42.2,36L39,28.9c0.2-0.7,0.4-1.5,0.4-2.3c-0.1-0.9,1.7-3.3,2-4.1
	c0.4-0.7,0.4-1.5,0.2-2.2c-0.2-0.4,0.2-0.7,0.8-0.5c0.4,0.3,0.7,0.7,0.7,1.2c0,0.4,0.4,0.5,0.5,1c0.2,0.4,0.3,0.9,0.3,1.4"/>
<path style="fill:#B2934F;" d="M43.2,21.1c0.3-0.4,0.6-0.7,0.9-1.1c0.1-0.2,0.2-0.4,0.2-0.6c0.1-0.2,0.2-0.5,0.4-0.6
	c0.3-0.1,0.5-0.1,0.8,0h0.1l0.1,0.1v0.6c-0.1,0.5-0.2,0.9-0.3,1.4L45,20.8c0.2-0.5,0.5-0.9,0.8-1.3l0.6-0.6c0.1,0,0.2-0.1,0.3-0.1
	h0.2c0.2,0,0.3,0.1,0.5,0.1s0.1,0.2,0.2,0.2v0.6c-0.1,0.2-0.1,0.5-0.2,0.7c-0.1,0.2-0.2,0.5-0.2,0.7c-0.1,0.2-0.2,0.5-0.3,0.7
	l-0.4-0.3c0.2-0.3,0.5-0.5,0.7-0.8l0.4-0.4l0.1,0.1h0.2c0.1,0,0.2,0,0.3,0.1c0.2,0.1,0.4,0.3,0.4,0.5v0.3c0,0.1,0,0.2-0.1,0.3
	c-0.1,0.3-0.2,0.7-0.4,1c-0.3,0.7-0.6,1.3-0.9,1.9l-0.6,0.9c-0.1,0.1-0.3,0.3-0.3,0.4c-0.1,0.1-0.2,0.2-0.2,0.4
	c-0.2,0.6-2,2.8-2.1,3.5c0,0.7-0.1,1.4-0.2,2.1c-0.4,1.4-0.9,2.7-1.5,4l-0.2,0.5l-0.2-0.4l-1.6-3.6c-0.5-1.2-1.1-2.4-1.6-3.6v-0.2
	c0.2-0.5,0.3-1,0.3-1.5c0-0.2,0.1-0.5,0.1-0.8v-0.8c0-0.6,1.8-2.5,2-3c0.1-0.2,0.2-0.5,0.3-0.7c0.2-0.4,0.2-0.9,0.1-1.4v-0.5
	c0-0.1,0.1-0.2,0.1-0.3l0.2-0.2c0.2-0.1,0.3-0.1,0.5,0c0.2,0,0.3,0.1,0.4,0.2c0.2,0.2,0.4,0.4,0.5,0.7c0,0.1,0.1,0.3,0.1,0.4
	C43.1,20.9,43.1,21,43.2,21.1c0.1,0.2,0.3,0.4,0.4,0.6c0.1,0.2,0.2,0.5,0.2,0.8c0.1,0.3,0.1,0.5,0,0.8h-0.1c0-0.3,0-0.5-0.1-0.8
	c-0.1-0.2-0.2-0.5-0.3-0.7c-0.1-0.2-0.3-0.4-0.5-0.6c-0.1-0.1-0.1-0.3-0.1-0.4c0-0.1-0.1-0.2-0.1-0.3c-0.1-0.2-0.2-0.4-0.4-0.5
	c-0.2-0.1-0.4-0.2-0.6-0.1c-0.1,0-0.1,0.1-0.1,0.2v0.1c0,0.1,0,0.1,0.1,0.2c0.1,0.3,0.1,0.5,0.1,0.8c0,0.3,0,0.5-0.1,0.8
	c-0.1,0.2-0.2,0.5-0.3,0.7c-0.2,0.5-1.9,2.5-1.9,3v0.8c0,0.3,0,0.5-0.1,0.8c-0.1,0.5-0.2,1.1-0.4,1.6v-0.2c0.5,1.2,1.1,2.4,1.6,3.6
	l1.6,3.6h-0.4c0.3-0.6,0.6-1.3,0.9-1.9c0.3-0.6,0.6-1.2,0.8-1.9l0.3-2.1c0-0.7,1.9-2.9,2.1-3.5c0.1-0.2,0.2-0.3,0.3-0.5
	c0.1-0.1,0.2-0.2,0.3-0.4c0.2-0.3,0.4-0.6,0.5-0.9c0.3-0.6,0.6-1.2,0.8-1.9c0.1-0.3,0.2-0.7,0.3-1c0.1-0.1,0.1-0.3,0.1-0.4
	c0-0.1-0.1-0.2-0.2-0.3h-0.2l-0.1,0.1l-0.3,0.3c-0.3,0.2-0.5,0.5-0.7,0.8l-1.3,1.6l0.9-1.9l0.3-0.6c0.1-0.2,0.2-0.5,0.2-0.7
	c0.1-0.2,0.1-0.5,0.2-0.7v-0.1l0,0v-0.1c0-0.1,0-0.2-0.1-0.2s-0.1-0.1-0.2-0.1h-0.2c-0.2,0.1-0.3,0.3-0.4,0.4
	c-0.3,0.4-0.5,0.8-0.8,1.2L44.8,21c0.2-0.4,0.3-0.9,0.4-1.4v-0.4l0,0c-0.2-0.1-0.3-0.1-0.5,0c-0.2,0.1-0.3,0.3-0.4,0.5L44,20.3
	C43.9,20.6,43.5,20.9,43.2,21.1L43.2,21.1z"/>
<path style="fill:#FFFFFF;" d="M17.8,31.4c-0.6-1.7-0.1-3.6,1.2-4.8c1.1-1.4,3.2-1.6,4.5-0.4c0,0,0,0,0.1,0c0.5,0.5,2.5,4.2,0.4,6
	S18.4,32.9,17.8,31.4z"/>
<path style="fill:#B2934F;" d="M17.8,31.4c-0.4-1-0.4-2-0.1-3c0.3-1,0.9-1.8,1.8-2.4c0.4-0.3,0.9-0.5,1.4-0.6c1-0.2,2.1,0.1,2.8,0.8
	c0.3,0.4,0.6,0.8,0.8,1.3c0.2,0.4,0.4,0.9,0.5,1.4c0.1,0.5,0.2,1,0.1,1.5c-0.1,0.5-0.3,1-0.6,1.5c-0.3,0.4-0.8,0.7-1.3,0.9
	c-1.4,0.6-3.1,0.4-4.4-0.4C18.4,32.2,18,31.8,17.8,31.4z M17.8,31.4c0.2,0.4,0.6,0.8,1,1c0.4,0.2,0.9,0.4,1.4,0.4
	c1.4,0.4,2.9-0.1,3.9-1.1c0.3-0.4,0.5-0.8,0.5-1.3c0.1-1-0.1-2-0.4-2.9c-0.2-0.5-0.4-0.9-0.7-1.3c-0.4-0.3-0.8-0.6-1.3-0.7
	c-0.9-0.2-1.9,0-2.7,0.6c-0.2,0.1-0.4,0.3-0.5,0.5l-0.2,0.3c-0.1,0.1-0.2,0.2-0.2,0.3c-0.3,0.4-0.5,0.8-0.7,1.2
	C17.5,29.3,17.5,30.4,17.8,31.4z"/>
<path style="fill:#FFFFFF;" d="M29.4,24.9c1.6,0,3.1,0.9,3.9,2.3c1.6,2.5,0.7,4.1,0.2,4.5s-6.1,1.9-7.2-0.5S27.5,25,29.4,24.9z"/>
<path style="fill:#B2934F;" d="M29.4,24.9c1.1,0,2.1,0.3,2.9,1c0.8,0.7,1.4,1.7,1.7,2.7c0.2,0.5,0.2,1.1,0.2,1.6
	c-0.1,0.6-0.3,1.1-0.7,1.5c-0.1,0.1-0.2,0.2-0.3,0.2L32.8,32c-0.2,0.1-0.5,0.2-0.8,0.2l-1.5,0.3c-0.5,0.1-1.1,0.1-1.6,0.1
	c-0.5,0-1.1-0.1-1.6-0.3c-0.5-0.2-1-0.6-1.3-1.1c-0.4-1-0.4-2.2,0-3.2c0.2-0.5,0.5-1,0.8-1.4c0.3-0.4,0.7-0.8,1.1-1.2
	C28.4,25.2,28.9,25,29.4,24.9z M29.4,24.9c-0.5,0.1-1,0.3-1.4,0.7c-0.4,0.4-0.7,0.8-1,1.2c-0.3,0.4-0.5,0.9-0.6,1.4
	c-0.1,0.5-0.2,1-0.3,1.5c0,0.5,0.1,1,0.3,1.4c0.2,0.4,0.6,0.8,1.1,0.9c1,0.3,2,0.4,3,0.3c0.5,0,1-0.1,1.5-0.2
	c0.2-0.1,0.5-0.1,0.8-0.2l0.4-0.1c0.1,0,0.2-0.1,0.3-0.2c0.3-0.4,0.5-0.8,0.6-1.3c0-0.5-0.1-1-0.2-1.5c-0.3-1-0.9-1.9-1.6-2.6
	C31.6,25.4,30.5,24.9,29.4,24.9z"/>
<path style="fill:#F7E19E;" d="M31.6,17.6c2.3,0.5,4,2.3,4.4,4.6c0.7,4.7,0,5.9-0.2,5.9S34,25,31.9,24.6s-2.8,1.2-3.9,1
	s-3.1-1.8-1.5-5.8C27.8,17,31.6,17.6,31.6,17.6z"/>
<path style="fill:#B2934F;" d="M31.6,17.6c1.5,0.3,2.8,1.1,3.8,2.3c0.5,0.6,0.8,1.3,1,2.1c0.1,0.7,0.2,1.4,0.2,2.2
	c0,0.7,0,1.5-0.1,2.2c0,0.4-0.1,0.7-0.2,1.1c0,0.2-0.1,0.3-0.2,0.5c0,0.1-0.1,0.1-0.1,0.1c-0.1,0.1-0.1,0.1-0.2,0.1h-0.1L35.3,28
	c-0.4-0.6-0.8-1.2-1.3-1.7c-0.5-0.5-1.1-0.9-1.7-1.2C32,25,31.6,25,31.3,25c-0.3,0-0.7,0-1,0.1c-0.4,0.1-0.7,0.3-1,0.5
	c-0.4,0.2-0.8,0.4-1.2,0.5c-0.5,0-1-0.1-1.3-0.5c-0.4-0.2-0.7-0.5-1-0.9c-0.5-0.7-0.7-1.5-0.7-2.3c0-0.8,0.2-1.6,0.5-2.3
	c0.3-0.7,0.8-1.4,1.5-1.8c0.6-0.5,1.4-0.7,2.2-0.7h1.1C30.7,17.5,31.1,17.5,31.6,17.6z M31.6,17.6c-0.7-0.1-1.5-0.1-2.2,0.1
	c-0.7,0.1-1.3,0.5-1.8,1c-0.2,0.3-0.4,0.5-0.6,0.9c-0.1,0.4-0.2,0.6-0.4,1c-0.2,0.6-0.4,1.3-0.4,1.9c0,0.6,0.2,1.3,0.5,1.8
	c0.1,0.3,0.3,0.5,0.6,0.6c0.2,0.1,0.5,0.2,0.7,0.2c0.5,0,1.2-0.6,1.9-0.7c0.4-0.1,0.8-0.1,1.2-0.1c0.4,0,0.8,0.1,1.1,0.4
	c0.6,0.4,1.2,0.8,1.7,1.4c0.5,0.6,0.8,1.2,1.3,1.8l0.1,0.1l0,0v-0.1c0.1-0.1,0.1-0.3,0.1-0.5c0.1-0.4,0.1-0.7,0.1-1.1
	c0-0.7,0-1.5-0.1-2.2c-0.1-0.7-0.2-1.4-0.2-2.2c-0.1-0.7-0.3-1.4-0.6-2C34.1,18.8,32.9,17.9,31.6,17.6L31.6,17.6z"/>
<path style="fill:#F7E19E;" d="M19.9,21.9c0.7-0.5,2.8-0.8,3.8,0.4s1.7,4-0.4,3.7s-3-0.4-4.1,0.5s-1.7,3.2-1.9,3.3
	S15,25.2,19.9,21.9z"/>
<path style="fill:#B2934F;" d="M19.9,21.8c0.5-0.3,1-0.4,1.6-0.5c0.6-0.1,1.2,0,1.7,0.2c0.3,0.1,0.5,0.3,0.7,0.5
	c0.2,0.2,0.3,0.5,0.5,0.7c0.3,0.5,0.4,1.1,0.5,1.7c0,0.3,0,0.6-0.1,0.9c-0.1,0.2-0.1,0.3-0.2,0.4s-0.3,0.2-0.4,0.3
	c-0.3,0.1-0.6,0.1-0.9,0l-0.9-0.1c-0.5-0.1-1.1-0.1-1.6-0.1c-0.5,0.1-1,0.3-1.4,0.6c-0.4,0.3-0.7,0.7-0.9,1.2l-0.6,1.5
	c0,0.1-0.1,0.3-0.1,0.4c0,0.1,0,0.1-0.1,0.2l-0.1,0.1l-0.1,0.1h-0.3c-0.2,0-0.2,0-0.3-0.1c-0.2-0.2-0.3-0.5-0.4-0.8
	c-0.2-0.6-0.2-1.1-0.2-1.7c0-1.2,0.4-2.3,1.1-3.2C18.1,23.2,19,22.4,19.9,21.8z M19.9,21.9c-0.9,0.6-1.6,1.4-2.1,2.4
	c-0.5,0.9-0.7,2-0.8,3c0,0.5,0.1,1,0.2,1.5c0.1,0.2,0.1,0.5,0.2,0.7h-0.3l0.1-0.1l0.2-0.4c0.2-0.5,0.5-1,0.7-1.5
	c0.3-0.5,0.7-0.9,1.1-1.3c0.2-0.2,0.5-0.3,0.8-0.4c0.3-0.1,0.5-0.2,0.8-0.2c0.5,0,1.1,0,1.6,0.1c0.5,0.1,1,0.1,1.5,0
	c0.4-0.2,0.4-0.7,0.4-1.2c-0.1-0.8-0.4-1.5-0.8-2.1c-0.1-0.2-0.3-0.4-0.5-0.5c-0.4-0.3-1-0.4-1.5-0.4C20.9,21.5,20.4,21.6,19.9,21.9
	z"/>
<path style="fill:#B2934F;" d="M35.1,35.6c0.2-0.3,0.5-0.6,0.9-0.7c0.4-0.2,0.9-0.1,1.3,0.1c0.4,0.2,0.7,0.5,1,0.8
	c0.2,0.4,0.3,0.8,0.2,1.2l-0.6-0.9c-0.3-0.2-0.6-0.4-0.9-0.5c-0.1-0.1-0.3-0.1-0.4-0.2h-0.5C35.8,35.5,35.4,35.5,35.1,35.6z"/>
<path style="fill:#B2934F;" d="M32.8,32c0.3-0.4,0.7-0.7,1.2-0.8c0.4-0.2,0.9-0.3,1.4-0.4c0.5-0.1,1,0,1.5,0.1
	c0.5,0.1,0.9,0.3,1.3,0.6h-1.4c-0.4,0-0.9,0-1.3,0.1c-0.4,0-0.9,0.1-1.3,0.2C33.8,31.9,33.3,31.9,32.8,32z"/>
<path style="fill:#F3D677;" d="M20.1,28.6c0.6-1.1,1.9-1.6,3.1-1.1c0.1,0,0.1,0.1,0.2,0.1c2.1,0.9,1.1,4.7-0.9,5
	c-1.4,0.1-2.6-0.9-2.8-2.2C19.5,29.8,19.7,29.1,20.1,28.6z"/>
<path style="fill:#F3D677;" d="M28.9,27.9c0,0,0.9-2,3.5-1c2.2,0.9,1.2,4.7-1,5c-1.4,0.2-2.7-0.7-2.9-2.1c0,0,0,0,0,0
	C28.3,29.1,28.4,28.4,28.9,27.9z"/>
<path style="fill:#0B0A0F;" d="M20.6,29.2c0.4-0.9,1.5-1.3,2.4-1c1.7,0.4,1.3,2.3,1.1,2.7s-1.8,2-3.1,1
	C20.3,31.1,20.2,30.1,20.6,29.2z"/>
<path style="fill:#0B0A0F;" d="M29.4,28.2c0.4-0.9,1.5-1.3,2.4-1c1.7,0.4,1.5,2.7,1.3,3c-0.5,0.9-2.1,1.9-3.4,0.9
	S29.4,28.2,29.4,28.2z"/>
<path style="fill:#FFFFFF;" d="M23.5,39.5c0,0-0.3,0.7,0.1,0.9c0.5,0.3,1.1,0.3,1.7,0.2c0.3-0.2,0.3-1,0.3-1s-0.1,0.9,0.1,1
	s1.6,0.3,1.8,0c0.1-0.4,0.2-0.8,0.1-1.2C26.2,39.6,24.9,39.6,23.5,39.5z"/>
<path style="fill:#B2934F;" d="M23.5,39.5V40c0,0.1,0,0.3,0.1,0.3c0.3,0.1,0.6,0.2,0.9,0.2h0.7l0.1-0.1c0.1-0.3,0.2-0.6,0.2-0.9h0.2
	V40c0,0.2,0,0.3,0.1,0.5c0.1,0.1,0.3,0.1,0.5,0.1h0.5c0.2,0,0.3,0,0.5-0.1c0.1,0,0.1,0,0.2-0.1l0.1-0.1c0.1-0.3,0.1-0.7,0-1l0.2,0.1
	c-0.3,0.1-0.7,0.1-1,0.2h-1c-0.3,0-0.7,0-1-0.1L23.5,39.5L23.5,39.5z M23.5,39.5h2l1-0.1c0.3,0,0.7-0.1,1-0.1h0.2v0.2
	c0.1,0.4,0.1,0.7,0,1.1c0,0.1-0.1,0.2-0.2,0.3S27.3,41,27.2,41h-0.5c-0.2,0-0.4,0-0.5-0.1c-0.2,0-0.4-0.1-0.5-0.2
	c-0.1-0.2-0.2-0.3-0.2-0.5v-0.5h0.2v0.5c0,0.2-0.1,0.3-0.1,0.5c-0.1,0.1-0.1,0.2-0.2,0.2S25.2,41,25.1,41h-0.5c-0.4,0-0.7-0.2-1-0.4
	c-0.1-0.1-0.2-0.3-0.2-0.5C23.3,39.9,23.3,39.6,23.5,39.5z"/>
<path style="fill:#FFFFFF;" d="M35.3,40.3c-0.3,0.1-0.6,0.4-0.8,0.7c-0.2,0.5,0.5,1.3,0.5,1.3c-0.1-0.5-0.6-0.9-1.2-0.8c0,0,0,0,0,0
	c-0.8,0.1-0.6,1.2-0.6,1.2c-0.1-0.3-0.2-0.6-0.3-0.9c-0.2-0.3-0.8-0.3-1.4-0.1s-0.5,1-0.5,1c0.1-0.3,0-0.6-0.1-0.9
	c-0.2-0.5-0.9-0.5-1.5-0.3S29,42.6,29,42.6c0.3,0.2,0.6,0.3,0.9,0.3c1.3,0.1,2.7,0.1,4-0.1c0.5-0.2,1-0.1,1.1-0.6
	C35.3,41.6,35.4,40.9,35.3,40.3z"/>
<path style="fill:#B2934F;" d="M35.3,40.3c-0.2,0.1-0.4,0.2-0.5,0.4c-0.3,0.3-0.3,0.7,0,1c0.1,0.2,0.2,0.3,0.3,0.5l-0.2,0.1
	c-0.1-0.2-0.2-0.4-0.4-0.5c-0.2-0.1-0.4-0.2-0.6-0.1c-0.2,0-0.4,0.2-0.4,0.4v0.7h-0.3c0-0.3-0.1-0.5-0.2-0.8
	c-0.1-0.1-0.2-0.2-0.3-0.2h-0.4c-0.1,0-0.3,0-0.4,0.1c-0.2,0-0.3,0.1-0.4,0.2c-0.2,0.2-0.2,0.5-0.2,0.8h-0.1c0.1-0.3,0-0.7-0.2-0.9
	c-0.2-0.2-0.5-0.4-0.8-0.3c-0.2,0-0.3,0-0.5,0.1c-0.2,0-0.3,0.1-0.4,0.2c-0.1,0.2-0.2,0.5-0.1,0.8v-0.1h0.2l0.2,0.1
	c0.2,0,0.3,0.1,0.5,0.1H34c0.1,0,0.2-0.1,0.3-0.1c0.2,0,0.3-0.1,0.5-0.1c0.1,0,0.2-0.1,0.3-0.3c0.1-0.3,0.1-0.7,0.2-1V40.3z
	 M35.3,40.3c0,0.2,0.1,0.3,0.1,0.5v0.5c0,0.4,0,0.7-0.1,1.1c0,0.1-0.1,0.2-0.1,0.3s-0.2,0.1-0.3,0.2C34.7,43,34.6,43,34.4,43
	l-0.2,0.1c-0.1,0-0.2,0.1-0.3,0.1l-0.5,0.1h-2.1c-0.4,0-0.7,0-1.1-0.1c-0.2,0-0.3-0.1-0.5-0.1L29.4,43l-0.2-0.1
	c-0.1,0-0.1,0-0.1-0.1l0,0v-0.5c0-0.2,0.1-0.4,0.2-0.5c0.1-0.1,0.2-0.1,0.2-0.2c0.1,0,0.2,0,0.3-0.1h0.5c0.2,0,0.3,0,0.5,0.1
	c0.2,0.1,0.3,0.2,0.4,0.4c0.1,0.3,0.2,0.7,0.1,1l-0.1,0.3V43c0-0.3,0-0.6,0.2-0.9c0.1-0.1,0.2-0.2,0.4-0.2c0.1,0,0.3-0.1,0.4-0.1
	h0.5c0.2,0,0.4,0.1,0.5,0.2c0.1,0.3,0.2,0.6,0.3,0.9h-0.3c-0.1-0.3-0.1-0.5,0-0.8c0-0.2,0.1-0.3,0.2-0.4c0.1-0.1,0.2-0.2,0.4-0.2
	c0.3,0,0.6,0,0.8,0.2c0.2,0.2,0.4,0.4,0.5,0.7l0.2,0.7L35,42.4l-0.3-0.6c-0.1-0.2-0.1-0.4-0.2-0.6c0-0.2,0.1-0.4,0.3-0.6
	C34.9,40.4,35.1,40.3,35.3,40.3L35.3,40.3z"/>
<path style="fill:#F7E19E;" d="M20.9,59.4c0.5-0.4,1-0.7,1.6-0.9c0.6-0.2,1.1-0.4,1.7-0.5c0.6-0.1,1.2-0.2,1.7-0.3
	c0.3,0,0.6-0.1,0.9-0.1h0.9c1.2,0,2.4,0.2,3.5,0.5c1.2,0.3,2.3,0.8,3.3,1.4L31,59.2c-1.2-0.1-2.3-0.2-3.4-0.2h-1.7l-1.7,0.1
	l-1.7,0.1C22,59.2,21.4,59.3,20.9,59.4z"/>
<path style="fill:#F7E19E;" d="M28.6,55.4c0-0.2-0.1-3.4-0.1-3.6s-0.1-0.5-0.1-0.4c0.1-0.4,0.1-0.7,0-1.1c0-0.9-0.7-1.7-1.6-1.8
	c-0.9,0.1-1.6,0.9-1.6,1.8c0,0.9-0.1,5-0.2,5.9c-0.2,0.9,0.2,1.9,1.1,2.2c1,0.4,2.1-0.1,2.5-1.1c0,0,0,0,0,0c0-0.1,0.1-0.2,0.1-0.4
	C28.8,56.4,28.8,55.9,28.6,55.4z"/>
<path style="fill:#FFFFFF;" d="M21.6,31.1c0-0.2,0.3-0.4,0.5-0.4h0.1c0.3,0.1,0.4,0.2,0.3,0.6s-0.3,0.4-0.5,0.4S21.5,31.6,21.6,31.1
	z"/>
<path style="fill:#FFFFFF;" d="M20.4,31.7c-0.2-0.3-0.1-0.6,0.2-0.8c0,0,0,0,0,0c0.2-0.2,0.4-0.1,0.6,0c0,0,0.1,0.1,0.1,0.2
	c0,0.1,0,0.1,0.1,0.1l0,0c0,0.2,0,0.5-0.2,0.6C21,32,20.7,32,20.5,31.9C20.5,31.8,20.4,31.8,20.4,31.7z"/>
<path style="fill:#FFFFFF;" d="M30.5,30.3c0-0.2,0.2-0.4,0.4-0.4H31c0.3,0.1,0.4,0.2,0.3,0.6s-0.3,0.4-0.5,0.4S30.4,30.8,30.5,30.3z
	"/>
<path style="fill:#FFFFFF;" d="M29.3,31c-0.2-0.3-0.1-0.6,0.2-0.8c0,0,0,0,0,0c0.2-0.2,0.4-0.1,0.6,0c0,0,0.1,0.1,0.1,0.2
	c0,0.1,0,0.1,0.1,0.1l0,0c0,0.2,0,0.5-0.2,0.6C29.8,31.3,29.5,31.2,29.3,31z"/>
<path style="fill:#8BC084;" d="M27.6,9.2c-0.8-1.7-2.8-2.5-4.5-1.7c0,0,0,0,0,0c-3.1,1.3-2.9,5.8-3.3,7s-2.8,3-3.8,4
	c-1,0.8,1.9,0.7,2.7,0.9c3,0.5,6.1-0.2,8.6-2c4.1-2.7,3-6.8,2.3-7.4C29,9.5,28.3,9.2,27.6,9.2z"/>
<path style="fill:#598B4C;" d="M27.6,9.2c-0.4-0.7-1-1.3-1.8-1.6c-0.4-0.1-0.7-0.2-1.1-0.2c-1.2,0-2.3,0.6-2.9,1.6
	c-0.5,0.7-0.8,1.4-1,2.2c-0.2,0.8-0.4,1.6-0.5,2.4c0,0.2-0.1,0.4-0.1,0.6c0,0.2-0.1,0.4-0.2,0.6c-0.1,0.4-0.3,0.8-0.5,1.2
	c-0.3,0.8-2.6,2-3.2,2.5c-0.2,0.1-0.3,0.3-0.4,0.4s0,0.2,0.1,0.4c0.3,0.2,2.4-0.2,2.8-0.1c0.8,0.1,1.6,0.2,2.4,0.1
	c0.8-0.1,1.6-0.2,2.4-0.4c1.6-0.5,3-1.2,4.3-2.2c0.6-0.5,1.1-1.1,1.5-1.8c0.6-1,0.8-2.2,0.6-3.4c0-0.4-0.1-0.8-0.3-1.1
	c-0.1-0.2-0.2-0.3-0.4-0.4c-0.2-0.1-0.3-0.2-0.5-0.3C28.4,9.5,28,9.3,27.6,9.2z M27.6,9.2c0.4,0,0.8,0.1,1.2,0.2
	c0.2,0.1,0.4,0.1,0.6,0.2c0.2,0.1,0.4,0.2,0.5,0.4c0.2,0.4,0.4,0.8,0.5,1.2c0.1,0.4,0.1,0.9,0.1,1.3c0,0.9-0.2,1.8-0.7,2.5
	c-0.4,0.8-1,1.5-1.7,2c-0.7,0.5-1.4,1-2.2,1.4c-0.8,0.4-1.6,0.7-2.4,0.9c-0.8,0.2-1.7,0.3-2.5,0.4c-0.8,0-1.7-0.1-2.5-0.3
	c-1,0.1-1.9,0.1-2.9,0c-0.1-0.1-0.2-0.2-0.2-0.3c0-0.1,0-0.3,0.1-0.4c0.1-0.2,0.3-0.3,0.5-0.5c0.6-0.5,2.8-1.7,3.1-2.5
	c0.2-0.4,0.3-0.7,0.5-1.1c0.1-0.4,0.2-0.8,0.2-1.2c0.1-0.8,0.2-1.7,0.3-2.5c0.2-0.8,0.6-1.6,1.1-2.3l0.2-0.3l0.2-0.2l0.2-0.2
	l0.3-0.2l0.6-0.3c0.2-0.1,0.4-0.2,0.6-0.2C23.7,7.1,24.2,7,24.6,7c0.5,0,0.9,0.1,1.3,0.4c0.4,0.2,0.7,0.5,1,0.8
	C27.2,8.5,27.5,8.8,27.6,9.2L27.6,9.2z"/>
<path style="fill:#598B4C;" d="M27.6,9.3c-0.7,0.3-1.2,0.8-1.6,1.4c-0.2,0.3-0.4,0.7-0.6,1l-0.3,1.2l-0.3,1.2
	c-0.1,0.4-0.3,0.8-0.5,1.1c-0.2,0.4-0.5,0.7-0.9,0.9c-0.3,0.3-0.8,0.4-1.2,0.4v-0.1c0.6-0.4,1.1-1,1.5-1.7c0.2-0.3,0.4-0.7,0.6-1
	c0.2-0.3,0.4-0.7,0.5-1.1c0.2-0.3,0.3-0.7,0.4-1.1c0.1-0.4,0.1-0.8,0.2-1.2C25.8,9.5,26.7,9.1,27.6,9.3z"/>
<path style="fill:#FBF1D3;" d="M17.5,34c-0.1,0.6-0.1,1.1,0,1.7c0.1,0.5,0.4,0.9,0.9,1.1l0.4,0.1l0.4,0.1c0.3,0.1,0.5,0.2,0.8,0.2
	l1.7,0.3c1.1,0.2,2.3,0.2,3.5,0.3s2.4,0,3.6,0c-1.1,0.4-2.3,0.7-3.5,0.8c-1.2,0.1-2.5,0.1-3.7,0c-1.3-0.1-2.5-0.5-3.6-1.1
	c-0.3-0.2-0.6-0.5-0.8-0.8c-0.2-0.3-0.3-0.6-0.3-1C17,35.1,17.2,34.5,17.5,34z"/>
<path style="fill:#F3D677;" d="M14.8,38.6c0.4,1.5,0.7,3,0.7,4.5c-0.1,1.9-4.2,3.1-5.5,1.3c-0.8-1.2-1.2-2.6-1.1-4"/>
<path style="fill:#B2934F;" d="M14.8,38.6c0.3,0.5,0.5,1.1,0.6,1.7c0.2,0.6,0.3,1.2,0.3,1.8c0,0.3,0,0.6-0.1,0.9
	c-0.1,0.3-0.2,0.6-0.4,0.9c-0.4,0.5-0.9,0.9-1.5,1.1c-0.9,0.3-1.9,0.4-2.9,0.3c-0.2-0.1-0.3-0.1-0.4-0.2s-0.3-0.2-0.4-0.3
	s-0.2-0.3-0.3-0.4c-0.1-0.1-0.2-0.2-0.2-0.4c-0.6-1.1-0.8-2.4-0.6-3.7H9c0.1,1.2,0.5,2.4,1.1,3.4c0.1,0.1,0.1,0.2,0.2,0.4
	s0.2,0.2,0.2,0.3l0.3,0.3c0.1,0.1,0.2,0.1,0.4,0.2c0.9,0.1,1.8,0.1,2.6-0.1c0.6-0.1,1.1-0.4,1.4-0.9c0.2-0.5,0.3-1.1,0.1-1.7
	C15.1,41,14.9,39.8,14.8,38.6L14.8,38.6z"/>
<path style="fill:#F3D677;" d="M13.8,41.6C12.9,42,12,42.3,11,42.4c-0.9-0.1-1.7-1.2-2.1-1.8s-1.6-0.9-1.8-1.3c-0.2-0.3-0.2-0.7,0-1
	c0.2-0.2,0.4-0.3,0.6-0.4c0,0-0.6-0.5-0.6-0.9c-0.1-0.4,0.2-0.9,0.6-1c0.5-0.1,0.8,0.3,1.1,0.5s1,0.8,1,0.8c-0.4-0.5-0.7-1-1-1.5
	c0.3-0.6,0.8-1,1.4-1.2c0.7-0.3,1.3,0.7,1.5,1.2l0.6,1.2c-0.2-0.5-0.3-1-0.3-1.5c0.1-0.5,0.4-0.8,0.8-0.5c0.4,0.3,0.7,0.7,0.7,1.2
	c0.1,0.4,0.7,1.4,0.9,2.1c0.3,0.9,0.2,1.8-0.3,2.6"/>
<path style="fill:#B2934F;" d="M13.8,41.7c-0.3,0.3-0.6,0.4-1,0.5c-0.7,0.2-1.4,0.3-2.1,0.3C10,42.2,9.4,41.7,9,41
	c-0.5-0.5-1-0.9-1.7-1.2c-0.1-0.1-0.2-0.1-0.2-0.2c-0.1,0-0.1,0-0.1-0.1l-0.1-0.1c-0.1-0.2-0.1-0.5-0.1-0.7c0-0.2,0.2-0.4,0.4-0.6
	s0.3-0.2,0.5-0.2v0.3c-0.2-0.1-0.3-0.3-0.4-0.5c-0.1-0.1-0.1-0.2-0.1-0.3v-0.3c0-0.2,0.1-0.4,0.2-0.6c0.1-0.2,0.4-0.3,0.6-0.3
	c0.2,0,0.4,0,0.6,0.2c0.2,0.1,0.3,0.2,0.5,0.3c0.3,0.2,0.6,0.5,0.9,0.8l-0.2,0.1c-0.3-0.4-0.6-0.9-0.8-1.4c0-0.1-0.1-0.1-0.1-0.2
	v-0.2c-0.1-0.2-0.1-0.3,0-0.5c0.4-0.3,0.9-0.5,1.4-0.7c0.2-0.1,0.3-0.1,0.5-0.1c0.3,0,0.6,0.2,0.8,0.4c0.2,0.2,0.4,0.4,0.5,0.7
	c0.1,0.3,0.2,0.5,0.4,0.7c0.2,0.2,0.3,0.4,0.4,0.6l-0.5,0.3c-0.2-0.4-0.4-0.8-0.5-1.2v-0.7c0.1-0.3,0.3-0.5,0.5-0.6
	c0.2-0.1,0.3-0.1,0.5,0c0.1,0,0.2,0.1,0.3,0.2c0.2,0.1,0.3,0.3,0.4,0.5c0.1,0.2,0.2,0.4,0.2,0.6v0.3c0,0.1,0,0.1,0.1,0.2
	c0.4,0.7,0.6,1.4,0.8,2.2c0.1,0.4,0.1,0.8,0,1.2c-0.1,0.4-0.2,0.8-0.5,1.1l0,0c0.2-0.3,0.3-0.6,0.4-1c0-0.4,0-0.7-0.1-1.1
	c-0.1-0.4-0.2-0.7-0.4-1c-0.2-0.3-0.4-0.6-0.5-1c0-0.1-0.1-0.2-0.1-0.3v-0.3c0-0.2-0.1-0.3-0.2-0.5s-0.2-0.3-0.3-0.4
	c-0.1-0.1-0.2-0.1-0.3-0.1c-0.1,0.1-0.1,0.2-0.2,0.3V36c0.1,0.3,0.2,0.7,0.3,1l0.9,2.3l-1.4-2.1c-0.1-0.2-0.3-0.5-0.4-0.7
	s-0.2-0.5-0.3-0.7s-0.3-0.4-0.4-0.6c-0.1-0.2-0.3-0.3-0.5-0.3c-0.5,0.1-1,0.3-1.5,0.5v0.5l0,0c0,0.1,0,0.1,0.1,0.2
	c0.2,0.5,0.5,0.9,0.7,1.4l0.4,0.6l-0.5-0.5c-0.3-0.3-0.6-0.5-0.9-0.8c-0.2-0.1-0.3-0.3-0.5-0.3c-0.2-0.1-0.3-0.1-0.5-0.1
	c-0.4,0-0.6,0.4-0.6,0.8S7.7,37.8,8,38l0.2,0.2H7.9c-0.2,0.1-0.3,0.1-0.4,0.2s-0.2,0.2-0.2,0.3c0,0.1,0,0.3,0.1,0.4l0.1,0.1v0.1
	l0.2,0.1c0.3,0.2,0.6,0.3,0.9,0.5s0.3,0.2,0.5,0.3l0.2,0.2l0.2,0.2c0.2,0.3,0.4,0.6,0.6,0.8c0.2,0.3,0.5,0.5,0.8,0.6
	C11.4,42.4,13.1,42,13.8,41.7L13.8,41.7z"/>
<path style="fill:#F3D677;" d="M17.2,28c0-0.8,0.1-1.6,0.5-2.3c0.2-0.4,0.4-0.7,0.7-1c0.1-0.2,0.3-0.3,0.5-0.4
	c0.2-0.1,0.4-0.2,0.5-0.4l1.2-0.6c0.4-0.1,0.9-0.2,1.3-0.1c0.9,0.1,1.7,0.6,2.2,1.3L24,24.7c-0.7,0.2-1.4,0.4-2.1,0.5
	c-0.3,0.1-0.6,0.1-0.9,0.1s-0.6,0-0.9,0.1c-0.1,0-0.3,0.1-0.4,0.1c-0.4,0.2-0.8,0.4-1.1,0.7c-0.5,0.5-0.9,1-1.1,1.7L17.2,28z"/>
<path style="fill:#F3D677;" d="M35.5,26.3c-0.4-0.8-1-1.4-1.7-1.8c-0.7-0.4-1.4-0.7-2.2-0.9h-2.2c-0.4,0-0.8-0.1-1.2-0.2
	c-0.5-0.1-0.6-0.1-1.2-0.2L26.9,23c0.2-0.6,0.5-1.1,1-1.5c0.4-0.3,0.9-0.6,1.5-0.7c0.6-0.1,1.1-0.1,1.7,0c0.5,0.1,1.1,0.4,1.6,0.6
	c0.5,0.2,0.9,0.5,1.3,0.9c0.4,0.4,0.8,0.8,1.1,1.2c0.6,0.9,0.9,1.9,0.8,2.9H35.5z"/>
<path style="fill:#C2A366;" d="M21.1,34c-0.2-0.1-0.5-0.1-0.6,0.1c-0.2,0.2-0.2,0.5,0,0.7c0,0,0,0,0,0c0.1,0.1,0.3,0.2,0.5,0.2
	c0.2-0.1,0.4-0.3,0.4-0.6C21.4,34.2,21.2,34.1,21.1,34z"/>
<path style="fill:#C2A366;" d="M25.1,33.8c-0.1-0.2-0.3-0.4-0.6-0.4c-0.2,0-0.3,0.1-0.4,0.2c-0.2,0.1-0.3,0.5-0.2,0.7
	s0.5,0.3,0.7,0.2l0.2-0.1C25,34.4,25.2,34.1,25.1,33.8z"/>
<path style="fill:#C2A366;" d="M23.3,34.9c-0.3,0-0.5,0.2-0.5,0.4c0,0,0,0,0,0.1v0.4c0,0.3,0.2,0.5,0.4,0.5c0,0,0,0,0.1,0
	c0.4,0,0.7-0.2,0.9-0.5C24.4,35.2,23.8,34.9,23.3,34.9z"/>
<path style="fill:#C2A366;" d="M19,34.4c-0.1-0.1-0.2-0.2-0.3-0.2l0,0c0-0.1-0.1-0.1-0.2-0.1h-0.1c-0.1,0.1-0.1,0.1-0.1,0.2v0.2
	c0.1,0.2,0.2,0.3,0.4,0.2c0.1,0,0.1-0.1,0.2-0.1C19,34.5,19,34.5,19,34.4z"/>
<path style="fill:#C2A366;" d="M28.4,33.8c-0.1-0.2-0.2-0.3-0.3-0.3c-0.4-0.1-0.8-0.1-1,0.3c-0.2,0.3-0.1,0.7,0.2,0.9c0,0,0,0,0,0
	c0.2,0.2,0.4,0.3,0.7,0.3c0.4,0,0.7-0.3,0.7-0.7l0,0C28.6,34.1,28.5,33.9,28.4,33.8z"/>
<path style="fill:#C2A366;" d="M30.9,34.9c0.1-0.3-0.1-0.5-0.4-0.6c-0.5-0.1-0.9,0.1-1.2,0.5c-0.1,0.2-0.1,0.6,0.2,0.7
	c0.3,0.2,0.7,0.2,1,0.1C30.8,35.4,31,35.2,30.9,34.9z"/>
<path style="fill:#C2A366;" d="M33,33.6v-0.3c-0.1-0.2-0.3-0.4-0.6-0.4c-0.3,0.1-0.6,0.3-0.7,0.6c-0.1,0.3,0,0.5,0.2,0.7
	c0.3,0.2,0.6,0.2,0.9,0.1C33,34.1,33.1,33.8,33,33.6z"/>
<path style="fill:#C2A366;" d="M34.3,32.2c-0.3-0.1-0.6,0-0.8,0.2c-0.1,0.2-0.1,0.3,0,0.5c0.1,0.1,0.3,0.2,0.5,0.2
	c0.2,0,0.4-0.1,0.4-0.2l0,0c0.1,0,0.2-0.1,0.2-0.2C34.6,32.5,34.5,32.3,34.3,32.2z"/>
<path style="fill:#FCF4DE;" d="M21.4,40.8c1.6,0.6,3.2,1.2,4.8,1.7c1.6,0.5,3.2,0.8,4.8,0.9c0.8,0,1.6,0,2.4,0l0.6-0.1l0.6-0.1
	c0.3-0.1,0.7-0.2,1-0.4c0.2-0.2,0.4-0.4,0.5-0.6c0-0.4,0-0.7-0.1-1.1c-0.2-0.8-0.5-1.6-0.7-2.5c0.5,0.8,1,1.4,1.4,2.2
	c0.3,0.4,0.4,1,0.4,1.5c0,0.3-0.1,0.6-0.2,0.9c-0.1,0.3-0.3,0.5-0.5,0.7c-0.4,0.3-0.8,0.6-1.3,0.7l-0.7,0.2
	c-0.2,0.1-0.5,0.1-0.7,0.2c-0.9,0.2-1.9,0.3-2.8,0.2c-1.8-0.1-3.6-0.6-5.2-1.4C24.1,43,22.7,42,21.4,40.8z"/>
<path style="fill:#FCF4DE;" d="M26.9,21c0.1-0.8,0.5-1.6,1.1-2.2l1.1-0.7c1.3-0.5,2.7-0.3,3.8,0.5c0.7,0.5,1.2,1.1,1.6,1.8
	c-0.6-0.5-1.2-1-1.9-1.3c-0.6-0.3-1.4-0.4-2.1-0.4h-0.5c-0.2,0-0.3,0-0.5,0.1c-0.4,0.1-0.7,0.3-1,0.5C27.7,19.7,27.2,20.3,26.9,21z"
	/>
<path style="fill:#FCF4DE;" d="M22.6,21.9c-0.5,0.1-1.1,0.2-1.6,0.4c-0.5,0.2-1,0.5-1.4,0.8c-0.8,0.7-1.5,1.6-2,2.6
	c0-0.6,0.2-1.1,0.4-1.7c0.3-0.5,0.6-1,1.1-1.4c0.5-0.4,1-0.7,1.6-0.8C21.3,21.7,22,21.7,22.6,21.9z"/>
<path style="fill:#F7E19E;" d="M44.5,23h-0.4c-0.2-0.3-0.4-0.5-0.6-0.7c-0.4-0.5-0.7-1.1-0.8-1.8c-0.1-0.3-0.2-0.5-0.4-0.7
	c-0.5-0.3-0.6,0-0.5,0.4c0,0.2,0.1,1.2,0.1,1.5c-0.2,0.5-0.4,1.1-0.5,1.7c-0.1,0.3-1.7,2.1-1.5,2.5c0.4,0.5,2.5-1.4,3-1.1
	c0.3,0.1,0.3,0.5,0.7,0.7c0.4,0.2,0.9,0.2,1.4,0.1c0.9-0.1,1.7-0.7,2-1.6C47.2,22.2,45.5,22.3,44.5,23z"/>
<path style="fill:#F7E19E;" d="M45.2,19l-0.1-0.1h-0.2c-0.1,0-0.2,0.1-0.2,0.2c-0.1,0.3-0.2,0.5-0.4,0.7c-0.2,0.2-0.4,0.6-0.1,0.8
	h0.1c0.3,0.2,0.5-0.2,0.6-0.5S45.5,19.4,45.2,19z"/>
<path style="fill:#F7E19E;" d="M46.8,19.3h-0.2c-0.2,0.1-0.3,0.2-0.4,0.4c-0.1,0.2-0.3,0.4-0.4,0.6s-0.5,0.7-0.1,1s0.6-0.1,0.8-0.4
	c0.2-0.4,0.4-0.9,0.5-1.4C47,19.4,46.9,19.3,46.8,19.3z"/>
<path style="fill:#F7E19E;" d="M48.2,21c-0.1-0.1-0.1-0.1-0.2-0.1h-0.1c-0.4,0.1-0.6,0.6-0.9,0.9s-0.4,0.6-0.1,0.8
	c0.3,0.2,0.6,0.1,0.8-0.1l0,0c0.2-0.4,0.4-0.8,0.5-1.3V21z"/>
<path style="fill:#F8E5AA;" d="M13.8,37.2c-0.1-0.6-0.2-1.1-0.4-1.7c-0.1-0.1-0.2-0.2-0.3-0.2c-0.2-0.1-0.3-0.1-0.5,0
	c-0.7,0.6,0.2,1.5,0.1,2.2s-0.6,1.4-0.4,2c-0.3-0.1-1.5,0.2-1.8,0.1c-0.4-0.1-0.8-0.3-1.2-0.5c-0.4-0.1-0.8-0.3-1.2-0.5l0,0
	c0-0.2-0.2-0.3-0.4-0.3H7.6c-0.8,0.5,0.3,1.2,0.7,1.5c0.5,0.3,0.9,0.7,1.3,1.1c0.3,0.6,0.9,0.9,1.6,1c0.8,0.1,2.9-1,2.2-1.8
	c0.5-0.1,0.8-0.5,0.8-1C14.2,38.4,14,37.8,13.8,37.2z"/>
<path style="fill:#F8E5AA;" d="M8.9,37.3c-0.3-0.3-0.3-0.8-0.7-0.9c-0.2-0.1-0.4,0-0.5,0.2c0,0,0,0,0,0c-0.1,0.1-0.2,0.2-0.2,0.3
	c0,0.3,0.1,0.5,0.3,0.7c0.3,0.5,0.8,0.8,1.3,1c0.2,0,0.4-0.1,0.4-0.2v-0.1C9.6,37.8,9.1,37.6,8.9,37.3z"/>
<path style="fill:#F8E5AA;" d="M11.6,36.6c-0.1-0.2-0.2-0.3-0.3-0.5c-0.1-0.2-0.1-0.4-0.1-0.6l0,0c0.1-0.2,0-0.4-0.2-0.5h-0.1
	c-0.6-0.1-1.6,0.9-1.5,1.3c0.2,0.3,0.4,0.7,0.6,1l0,0l0.1,0.1C10.3,37.6,11.8,36.9,11.6,36.6z"/>
<path style="fill:#B2934F;" d="M17,33.6c-0.4,0.9-0.6,1.9-0.4,2.9c0.1,0.4,0.3,0.8,0.6,1.2c0.3,0.3,0.7,0.6,1.1,0.8
	c0.9,0.3,1.8,0.6,2.7,0.8c0.9,0.1,2-0.1,2.9,0c0.9,0.1,1.9,0.1,2.8,0.1c0.5,0,0.9,0,1.4-0.1l1.4-0.3c1.8-0.4,3.6-0.9,5.3-1.5
	l0.3-0.1h0.4l0.1,0.1v0.3l-0.1,0.2l-0.3,0.6v0.2c0,0.1,0.1,0.2,0.1,0.3l0.3,0.8c0.2,0.5,0.4,1,0.5,1.5c0.1,0.2,0.1,0.5,0.2,0.9
	c0,0.3,0,0.7-0.1,1c-0.2,0.4-0.5,0.6-0.9,0.6c-0.2,0.1-0.5,0.1-0.7,0.2c-0.5,0.1-1,0.2-1.5,0.2c-1,0.1-1.9,0.1-2.9,0
	c-1-0.1-2-0.3-2.9-0.6l-2.7-1c-0.9-0.4-1.7-0.9-2.5-1.4l-2.4-1.6v-0.4c0.8,0.4,1.7,1,2.5,1.4c0.4,0.2,0.9,0.4,1.3,0.6
	s0.9,0.3,1.3,0.5c0.9,0.3,1.8,0.6,2.7,0.9c0.9,0.2,1.8,0.4,2.7,0.5c0.9,0.1,1.9,0.1,2.8,0c0.5,0,0.9-0.1,1.4-0.2
	c0.2,0,0.5-0.1,0.7-0.2c0.2,0,0.3-0.2,0.3-0.3c0.1-0.4,0.1-0.9,0-1.3c-0.1-0.5-0.3-0.9-0.5-1.4l-0.2-0.5L34.6,39
	c0-0.1-0.1-0.1-0.1-0.2c0-0.2,0-0.4,0.1-0.5c0.1-0.2,0.3-0.5,0.4-0.8l0.1-0.1l0,0v0.1c0,0,0,0.1,0.1,0.1h0.1L35,37.7l-5.4,1.3
	c-0.9,0.3-1.8,0.5-2.8,0.6c-1,0.1-1.9,0.1-2.9,0.1c-1,0.1-2,0.1-3,0c-1-0.1-1.9-0.4-2.8-0.9l-0.3-0.2c-0.1-0.1-0.2-0.1-0.3-0.2
	l-0.3-0.2l-0.3-0.3c-0.3-0.4-0.6-1-0.6-1.5c-0.1-0.5,0-1.1,0.1-1.6c0.1-0.5,0.3-1,0.6-1.4L17,33.6z"/>
</svg>
