<?xml version="1.0" encoding="utf-8"?>
<!-- Generator: Adobe Illustrator 22.0.0, SVG Export Plug-In . SVG Version: 6.00 Build 0)  -->
<svg version="1.1" id="Слой_1" xmlns="http://www.w3.org/2000/svg" xmlns:xlink="http://www.w3.org/1999/xlink" x="0px" y="0px"
	 viewBox="0 0 55.8 62.9" style="enable-background:new 0 0 55.8 62.9;" xml:space="preserve">
<title>13_1</title>
<path style="fill:#262424;" d="M20.3,61.3c-0.4,0-0.8-0.2-1-0.5c-0.1-0.4,0-0.8,0.3-1.1c0-0.1,0.1-0.1,0.2-0.1s4.3-1.9,5.4-2.4V50
	h-0.3c-0.4,0-0.7,0-1.1-0.1c-0.3,0-0.5-0.1-0.8-0.2c-0.7-0.3-1.2-0.7-1.6-1.3c-0.4-0.1-0.8-0.3-1.1-0.5c-0.2-0.1-0.4-0.3-0.6-0.5
	c-0.7-0.6-1.2-1.4-1.4-2.3c-0.4-0.1-0.8-0.2-1.1-0.4c-0.5-0.2-0.9-0.5-1.2-0.9l-0.2-0.2c-0.3-0.3-1.3-0.6-1.5-1
	c0-0.1-0.1-0.1-0.1-0.2v-0.1C14,41.7,13.9,41,14,40.4v-0.3l-0.9-0.6l-0.2-0.2c-0.5-0.5-0.9-1.2-1.1-1.9l-0.1-0.2
	c-0.1-0.3-0.1-0.5-0.1-0.8c0-0.3,0-0.6,0.1-0.9c0-0.2,0.1-0.3,0.1-0.5l-0.6-0.7c-0.4-0.7-0.7-1.5-0.6-2.3c-0.4-0.5-0.6-1.2-0.7-1.8
	c0-0.6,0.2-1.1,0.4-1.6c-0.2-0.6-0.2-1.3-0.1-1.9c-0.2-0.6-0.3-1.3-0.3-2c0.1-0.9,0.5-1.8,1.1-2.5c0-0.5,0.1-1,0.3-1.5
	c0.4-1,1.3-1.8,2.3-2.1l0,0c0.2-0.7,1.3-1.4,1.9-2c0.2-0.2,0.4-0.4,0.7-0.6c0.4-0.4,1-0.5,1.5-0.5h1c0.2,0,0.3,0.1,0.5,0.1l-0.5-0.4
	l-0.1-0.1C17,13.7,17,13.3,17,12.3c0-0.4,0-0.7,0.1-1.1c0.1-0.4,0.5-0.7,0.9-0.8l0,0c0.3,0,0.5,0.2,0.5,0.4c0,0,0,0,0,0.1V11
	c0,0.1-0.1,0.4,0,0.5c0.4,0.3,0.8,0.5,1.2,0.6h0.1c0.6,0.2,1.3,0.4,1.9,0.6c-0.3-0.6-0.5-1.3-0.5-2c0.2-1.3,0.7-2,1.5-2.1
	c0.2-0.1,0.5-0.1,0.7-0.1c0.4-0.1,0.8,0.2,0.9,0.6c0,0,0,0.1,0,0.1v0.1c0,0.2-0.2,0.4-0.4,0.5h-0.1c-0.1,0-0.2,0-0.3-0.1
	c-0.1,0-0.1,0-0.1,0.1v0c0,0.1,0,0.3,0.1,0.4l0.1,0.2c0.1,0.3,0.3,0.5,0.6,0.6c0.2,0.1,0.4,0.2,0.6,0.2c0.5,0.1,0.3-0.4,0.7-0.1
	l0.2,0.1c0-0.1,0.1-0.2,0.1-0.3s0.1-0.3,0.1-0.4c0.2-0.4,0.7-0.7,1.2-0.7h0.5c0.1,0,0.3,0,0.4,0.1l-0.1-0.1
	c-0.1-0.1-0.1-0.1-0.1-0.2c-0.1-0.2-0.1-0.3,0-0.5c0.1-0.3,0.4-0.4,0.7-0.5c0.2-0.1,0.3-0.1,0.5-0.1c0.3,0,0.5,0.1,0.8,0.2
	c0.1-0.3,0.4-0.5,0.7-0.6c0.3-0.1,0.7-0.2,1-0.2c0.7,0,1.3,0.3,1.7,0.8c0.7,1,0.9,2.2,0.7,3.4l-0.1,0.4c0.2-0.1,0.4-0.2,0.6-0.4
	l0.2-0.1c0.4-0.4,0.5-0.8,0.4-0.9C35,11,35,11,35,10.9c0,0,0,0,0,0h-0.3c-0.1,0-0.2,0-0.3-0.1c-0.2-0.2-0.3-0.4-0.2-0.6
	c0.2-0.4,0.6-0.7,1.1-0.7c0.7,0,1.2,0.4,1.7,1.3c0.7,1.3,0.5,2.8-0.4,3.9l-0.3,0.4c0.6,0.3,1.2,0.8,1.6,1.3h1c0.4,0,0.8,0.1,1.2,0.3
	l0.6,0.3c0.9,0.6,1.6,1.3,2.1,2.3c0.3,0.1,0.6,0.3,0.8,0.5l0.2,0.2c0.3,0.2,0.5,0.5,0.6,0.8c0.3,0.4,0.4,0.9,0.4,1.4
	c0,0.3,0,0.5-0.1,0.8c0,0.2-0.1,0.3-0.1,0.5l-0.3,0.9c0.4,0.3,0.7,0.7,0.9,1.2l0.1,0.1l0.1,0.2c0,0.1,0.1,0.2,0.1,0.4
	c0.1,0.3,0.1,0.6,0.1,0.9c0,0.7-0.2,1.3-0.5,1.9c-0.1,0.3-0.3,0.6-0.5,0.9c0.3,0.6,0.4,1.3,0.3,2c0,1.2-0.6,2.4-1.6,3.1
	c0,0.4,0.1,0.7,0.1,1.1c-0.1,1.2-0.6,2.3-1.4,3.2c0.3,0.9-0.2,2-0.6,2.9c-0.4,0.9-1.1,1.6-2,1.9c0,0.6-0.2,1.2-0.4,1.7
	c-0.4,0.7-1.2,1.1-2,1.1c0,0.6-0.3,1.2-0.7,1.7c-0.2,0.3-0.5,0.6-0.8,0.8l-0.1,0.1c-0.4,0.4-1,0.6-1.6,0.5c-0.3,0-0.5,0-0.8-0.1
	h-0.1v7.4c0.5,0.2,1.6,0.6,2.6,0.9c1.4,0.5,2.9,1,3.5,1.3c0.2,0.1,0.8,0.4,0.8,1s-0.7,0.8-0.9,0.9h-0.2L20.3,61.3z M28.3,9.9
	c0.1,0.1,0.2,0.1,0.3,0.2c0.1,0.2,0.2,0.4,0.1,0.6v-0.1c0.1-0.2,0.1-0.5,0-0.7l0,0c-0.1,0-0.1,0-0.2,0.1L28.3,9.9z M30.9,9.5
	L30.9,9.5z"/>
<path style="fill:#FFFFFF;" d="M31.7,8.3c0.5,0,0.9,0.2,1.2,0.6c0.6,0.9,0.8,2,0.6,3v0.2c-0.1,0.2-0.1,0.4-0.2,0.6l0,0v0.1l0,0
	c0,0.2-0.1,0.3-0.2,0.5c0.6-0.2,1.2-0.5,1.8-0.8l0.1-0.1c0.5-0.5,0.8-1.2,0.4-1.5c-0.1-0.2-0.3-0.3-0.5-0.3h-0.3
	c0,0-0.3-0.2,0.2-0.4c0.1,0,0.2-0.1,0.3-0.1c0.4,0,0.8,0.2,1.3,1c0.6,1.1,0.5,2.4-0.4,3.3c-0.3,0.3-0.6,0.7-0.9,1
	c1,0.3,1.8,0.9,2.4,1.7C37.7,17,38,17,38.2,17h0.5c0.6,0,0.8,0.1,1,0.3l0.6,0.3c0.8,0.6,1.5,1.4,2,2.3c0.3,0.1,0.6,0.3,0.8,0.5
	l0.3,0.2c0.2,0.2,0.3,0.4,0.4,0.6c0.2,0.4,0.4,0.8,0.4,1.2c0,0.2,0,0.5-0.1,0.7l0,0c0,0.1,0,0.3-0.1,0.4l0,0
	c-0.1,0.4-0.3,0.8-0.5,1.1h0.1l0.1,0.1c0.4,0.3,0.8,0.7,1,1.2l0.1,0.1l0.1,0.2c0,0.1,0.1,0.2,0.1,0.3c0.1,0.3,0.1,0.5,0.1,0.8
	c0,0.5-0.1,1.1-0.3,1.6c-0.1,0.4-0.4,0.7-0.7,1c0.1,0,0.5,0.3,0.5,2c0,1.2-0.6,2.3-1.7,2.8c0,0,0.1,0.1,0.2,1.3s-1.9,2.9-1.9,2.9
	c0.9,2,0.9,0.8-0.2,2.9c-0.4,0.9-1.2,1.5-2.1,1.7c0.1,0.7-0.1,1.3-0.4,1.9c-0.5,0.6-1.2,0.9-1.9,0.9h-0.2c0,0.7-0.2,1.3-0.6,1.9
	c-0.2,0.3-0.4,0.5-0.7,0.7H35c-0.4,0.3-0.8,0.4-1.3,0.4c-0.2,0-0.5,0-0.7-0.1c-0.3,0-0.5-0.1-0.8-0.2v8.4c0,0.1,5.2,1.9,6.4,2.4
	s0,0.9,0,0.9H20.3c-1,0-0.3-0.7-0.3-0.7l5.6-2.5h0.1v-8.1c-0.3,0-0.5,0.1-0.8,0.1c-0.4,0-0.7,0-1.1-0.1h-0.1c-0.2,0-0.4-0.1-0.6-0.1
	c-0.8-0.2-1.4-1.3-1.4-1.3c-0.4-0.1-0.8-0.3-1.1-0.5l0,0c-0.2-0.1-0.4-0.2-0.6-0.4c-0.7-0.6-1.1-1.4-1.2-2.3c-0.5,0-0.9-0.2-1.3-0.4
	c-0.4-0.2-0.8-0.5-1.1-0.8l-0.2-0.2c-0.3-0.2-0.5-0.6-0.6-0.9l-0.1-0.2v-0.1c-0.2-0.5-1.1-1.1-1-1.7c0-0.2,0.9-0.5,0.9-0.7
	c-0.4-0.2-1.6-0.4-1.9-0.7l-0.1-0.2c-0.5-0.5-0.9-1.1-1.1-1.8c0-0.2-0.1-0.4-0.1-0.7v-0.8c0.1-0.3,0.1-0.5,0.1-0.8l-0.8-1
	c-0.4-0.6-0.6-1.4-0.5-2.1c-0.3-0.5-0.6-1.1-0.7-1.7c0-0.6,0.2-1.1,0.4-1.6c-0.2-0.6-0.2-1.3-0.1-1.9c-0.2-0.6-0.3-1.3-0.3-2
	c0.1-0.9,0.5-1.7,1.1-2.3c0,0-0.2-0.1,0.2-1.5s2.3-1.8,2.3-1.8h0.3v-0.1c0.2-0.7,1.3-1.2,1.7-1.7c0.2-0.2,0.4-0.4,0.6-0.5
	c0.3-0.3,0.8-0.5,1.2-0.5h1c1.1,0.1,1.3,0.5,1.3,0.5c0.2-0.2,0.4-0.4,0.7-0.6c-0.6-0.2-1.1-0.6-1.5-1.1L19,14.7
	c-1.3-1.2-1.4-1.6-1.4-2.4c0-0.3,0-0.6,0.1-0.9c0.1-0.3,0.3-0.5,0.5-0.5c-0.2,0.4-0.1,0.8,0.2,1.1c0.4,0.3,0.9,0.5,1.4,0.6h0.1
	c1,0.3,2,0.6,3,1l0,0l-0.2-0.1c-0.5-0.8-0.7-1.7-0.8-2.6C22,9.9,22.3,9.2,23,9.1c0.2,0,0.4-0.1,0.6-0.1S24,9.1,24,9.3
	c-0.1-0.1-0.2-0.1-0.3-0.1h-0.2c-0.4,0.2-0.6,0.7-0.5,1.1c0,0.1,0.1,0.1,0.1,0.2l0.1,0.2c0.2,0.3,0.5,0.6,0.8,0.8
	c0.7,0.2,0.7-0.3,1.3,0.1c0.3,0.2,0.6,0.4,0.9,0.7l0,0v-0.4c0-0.3,0-0.5,0.1-0.8c0-0.1,0-0.2,0.1-0.3c0.1-0.3,0.4-0.4,0.7-0.4l0,0
	c0,0.1,0,0.1-0.1,0.2l0,0c0-0.1,0.1-0.1,0.1-0.2v-0.1h0.4c0.3,0,0.6,0.1,0.5,0.6c-0.2,0.8-0.4,1.5-0.5,2.3c0,0,0.9-0.5,1.1-1.1
	c0.1-0.3,0.2-0.5,0.3-0.8C29,11.1,29,11,29,10.8c0.1-0.3,0.1-0.7-0.1-1c-0.2-0.3-0.3-0.4-0.5-0.4s-0.2,0-0.2,0.1V9.4
	c0-0.1,0-0.2,0.4-0.4c0.1,0,0.3-0.1,0.4-0.1c0.6,0,1.2,0.4,1.7,1.7c0,0,0.7-1,0.5-1.4l0,0c0.1-0.2,0-0.3-0.2-0.3l0,0
	c-0.1,0-0.1,0-0.2,0.1s-0.2,0.4-0.3,0.4l0,0c-0.1-0.3,0-0.6,0.3-0.8h0.1c0.3-0.1,0.6-0.1,0.9-0.1 M31.6,10.4
	c0.1-0.1,0.1-0.2,0.2-0.2C31.7,10.2,31.7,10.3,31.6,10.4 M31.3,10.6l0.2-0.1L31.3,10.6 M31.1,10.8L31.1,10.8 M26.9,11.2
	c0.1-0.1,0.2-0.2,0.3-0.4C27.2,11,27.1,11.1,26.9,11.2 M30.8,10.9L30.8,10.9L30.6,11l0,0L30.8,10.9L30.8,10.9 M23.7,11.9L23.7,11.9
	 M23.8,12.3L23.8,12.3 M29.7,11.7l0.1-0.1l0,0L29.7,11.7 M23.7,12.7L23.7,12.7 M23.5,13.2L23.5,13.2 M23.7,14.5L23.7,14.5
	 M24.3,14.5L24.3,14.5 M23.1,14.5L23.1,14.5 M24.7,14.5L24.7,14.5 M25.1,14.6L25.1,14.6 M22.5,14.6L22.5,14.6 M25.5,14.6L25.5,14.6
	 M25.7,14.7L25.7,14.7 M22,14.9l0.1-0.1L22,14.9 M25.9,14.9L25.9,14.9 M21.6,15.2l0.2-0.2L21.6,15.2 M21,15.8
	c0.1-0.1,0.2-0.3,0.4-0.4C21.3,15.5,21.1,15.6,21,15.8 M32.3,16.4L32.3,16.4 M44,29.7L44,29.7 M27,58L27,58l-0.8-0.2L27,58
	 M28.2,58.4l-0.9-0.3L28.2,58.4 M30.7,59.1l-2.3-0.7L30.7,59.1 M31.7,59.5l0.3,0.1L31.7,59.5L31,59.2L31.7,59.5 M33.1,59.9l-0.9-0.3
	l0.3,0.1L33.1,59.9 M34.2,60.3L34,60.2L34.2,60.3 M31.7,7.3L31.7,7.3c-0.4,0-0.8,0.1-1.2,0.2c-0.3,0.1-0.6,0.3-0.8,0.5
	c-0.2,0-0.3-0.1-0.5-0.1c-0.2,0-0.5,0-0.7,0.1c-0.4,0.1-0.8,0.4-1,0.8c-0.1,0.2-0.1,0.3-0.1,0.5h-0.1c-0.7,0-1.3,0.4-1.6,1
	c0,0.1-0.1,0.2-0.1,0.3c-0.3-0.1,0,0.4-0.3,0.4s-0.4-0.1-0.5-0.2c-0.2-0.1-0.3-0.2-0.4-0.4l0,0c0.5-0.1,0.8-0.5,0.8-1
	c0-0.7-0.6-1.3-1.3-1.3h-0.1c-0.3,0-0.5,0-0.8,0.1c-0.7,0.1-1.7,0.7-1.9,2.6c0,0.4,0,0.9,0.1,1.3l-1-0.3h-0.1
	c-0.3-0.1-0.6-0.2-0.9-0.4c0.2-0.5-0.1-1.1-0.6-1.3c0,0,0,0,0,0c-0.1,0-0.2-0.1-0.4-0.1h-0.1c-0.6,0-1.2,0.5-1.4,1.1
	c-0.1,0.4-0.2,0.8-0.2,1.2c0,1-0.1,1.4,1.3,2.8h-0.1c-0.7,0-1.3,0.2-1.8,0.7c-0.3,0.2-0.5,0.4-0.7,0.6c-0.5,0.5-1.7,1.2-1.9,1.9
	c-1.2,0.3-2.1,1.2-2.4,2.4c-0.1,0.5-0.2,0.9-0.3,1.4c-0.7,0.7-1.1,1.7-1.1,2.7c0,0.7,0.1,1.4,0.3,2c-0.1,0.6-0.1,1.2,0.1,1.8
	c-0.2,0.5-0.3,1.1-0.3,1.6c0.1,0.7,0.3,1.4,0.7,2c0,0.9,0.3,1.7,0.7,2.5l0.5,0.6v0.3c-0.1,0.4-0.2,0.7-0.2,1.1
	c0,0.3,0.1,0.6,0.2,0.9l0.1,0.2c0.3,0.7,0.7,1.4,1.2,2l0.2,0.2c0.2,0.2,0.5,0.4,0.7,0.5l0,0c-0.1,0.7,0,1.5,0.2,2.2v0.1
	c0,0.1,0.1,0.2,0.1,0.3c0.2,0.4,1.3,0.8,1.6,1.2l0.2,0.2l0,0c0.4,0.4,0.9,0.8,1.4,1c0.3,0.1,0.5,0.3,0.8,0.3
	c0.2,0.9,0.7,1.7,1.5,2.3c0.2,0.2,0.5,0.3,0.6,0.5c0.4,0.2,0.7,0.4,1.1,0.6c0.4,0.6,1,1.1,1.7,1.4c0.2,0.1,0.5,0.1,0.7,0.2h0.1
	c0.3,0,0.7,0.1,1,0.1v6.3c-1.5,0.6-5,2.2-5.1,2.3s-0.2,0.1-0.3,0.2c-0.4,0.4-0.6,1-0.4,1.6c0.3,0.5,0.8,0.8,1.4,0.8h18.8
	c0.6-0.2,1.1-0.7,1.2-1.3c0-0.7-0.5-1.2-1.1-1.4c-0.6-0.3-2.1-0.8-3.5-1.3l-2.3-0.8v-6.5h0.5c0.7,0,1.4-0.2,1.9-0.7l0.1-0.1l0,0
	c0.4-0.2,0.7-0.5,0.9-0.9c0.4-0.4,0.6-0.9,0.7-1.5c0.8-0.1,1.6-0.5,2.1-1.2c0.3-0.5,0.5-1,0.5-1.6c1-0.4,1.9-1.1,2.4-2
	c0.4-0.9,0.5-2,0.3-3c0.8-0.9,1.3-2.1,1.3-3.4c0-0.3,0-0.5-0.1-0.8c1-0.8,1.6-2,1.5-3.3c0-0.7-0.1-1.4-0.3-2
	c0.2-0.3,0.3-0.5,0.4-0.8c0.3-0.6,0.4-1.3,0.4-2c0-0.3-0.1-0.7-0.1-1c0-0.1-0.1-0.3-0.1-0.4l-0.1-0.2l-0.1-0.2
	c-0.2-0.4-0.4-0.8-0.7-1.1c0.1-0.2,0.1-0.4,0.2-0.5v-0.1c0-0.2,0.1-0.3,0.1-0.5v-0.1c0-0.3,0.1-0.5,0.1-0.8c0-0.6-0.2-1.1-0.5-1.6
	c-0.1-0.4-0.4-0.7-0.7-1l-0.2-0.2c-0.2-0.2-0.5-0.4-0.7-0.5c-0.5-1-1.3-1.8-2.2-2.4l-0.6-0.3c-0.4-0.3-0.9-0.4-1.4-0.3h-1
	c-0.3-0.4-0.6-0.7-1-1c1.1-1.2,1.3-3,0.5-4.4c-0.4-0.9-1.2-1.5-2.2-1.6c-0.2,0-0.5,0-0.7,0.1c-0.1,0-0.2,0.1-0.3,0.1
	c-0.1-0.4-0.3-0.7-0.5-1C33.4,7.6,32.6,7.2,31.7,7.3z"/>
<path style="fill:#4E8549;" d="M26.5,12.3L26.5,12.3c-0.3-0.2-0.6-0.5-0.9-0.7c-0.6-0.3-0.6,0.1-1.3-0.1c-0.3-0.2-0.6-0.5-0.8-0.8
	l0.1,0.4c0,0.2,0.1,0.3,0.1,0.5c0.3,0.4,0.7,0.7,1.1,1c2,1.3,1.3,2.1,1.2,2.1s-3.1-1.5-5,0.9c-0.1,0.1-0.2,0.2-0.2,0.4
	c0.1,0.1,0.3,0.1,0.5,0.1l5.7,0.1l0.2-1.1C27.3,14.2,27,13.2,26.5,12.3z"/>
<path style="fill:#8AA67E;" d="M23.3,13.4c0.6-0.5,0.5-1.2,0.3-2.3l-0.1-0.4l-0.1-0.2c-0.3-0.4-0.2-0.9,0.1-1.2
	c0.1-0.1,0.1-0.1,0.2-0.1c0.4-0.1,0.5,0.1,0.5,0.1c0-0.4-0.4-0.4-1.1-0.2s-1,0.8-1.1,1.7c0.1,0.9,0.3,1.8,0.8,2.6
	C22.9,13.6,23.1,13.6,23.3,13.4z"/>
<path style="fill:#8AA67E;" d="M19.9,14.6c0.3-0.7,0.5-0.4-0.4-1.1c-0.6-0.5-1.1-1-1.5-1.6l-0.3-0.3c-0.1,0.3-0.1,0.6-0.1,0.9
	c0,0.9,0.1,1.3,1.4,2.4C19.4,14.9,19.8,14.9,19.9,14.6z"/>
<path style="fill:#608C53;" d="M21.3,13.8c-0.5-0.2-1-0.5-1.4-1h-0.1c-0.5-0.1-1-0.3-1.4-0.6c-0.5-0.3-0.2-1.1-0.2-1.1
	c-0.2,0-0.4,0.2-0.5,0.5l0.3,0.3c0.4,0.6,0.9,1.2,1.5,1.6c0.9,0.8,0.7,0.4,0.4,1.1c-0.1,0.3-0.4,0.4-0.7,0.3c0,0-0.1,0-0.1-0.1
	l0.2,0.1c0.5,0.5,1,0.8,1.6,1.1c0-0.2,0.1-0.3,0.2-0.4c0.4-0.5,0.9-0.9,1.5-1.1C22.1,13.9,22.1,14.1,21.3,13.8z"/>
<path style="fill:#608C53;" d="M24.8,12.6c-0.4-0.3-0.8-0.6-1.1-1c0.2,0.6,0.1,1.3-0.4,1.8c-0.2,0.1-0.3,0.1-0.5,0l0.1,0.3l0,0
	c0.3,0.5-0.1,0.3,0.3,0.6c0.9-0.1,1.9,0,2.7,0.4C26,14.9,26.8,14.1,24.8,12.6z"/>
<path style="fill:#4C7144;" d="M19.9,12.8c0.4,0.5,0.8,0.8,1.4,1c0.8,0.3,0.8,0,1.3,0.8c0.2-0.1,0.5-0.1,0.7-0.2
	c-0.4-0.5,0-0.1-0.3-0.6C22,13.2,20.9,12.9,19.9,12.8z"/>
<path style="fill:#608C53;" d="M30.5,15.3c1.3-0.4,2.3-1.3,2.8-2.6l0,0v-0.1l0,0c0.1-0.2,0.1-0.3,0.1-0.5v-0.3c0.2-1,0-2.1-0.6-3
	c-0.5-0.6-1.4-0.8-2.1-0.4c-0.3,0.1-0.5,0.4-0.4,0.7c0,0,0,0,0,0v0.1c0.1,0.1,0.2-0.3,0.4-0.4c0.1-0.1,0.1-0.1,0.2-0.1
	c-0.1-0.1-0.2-0.1-0.1-0.1c0.5-0.2,1.3-0.3,1.6,0.1c0.3,0.5,0.4,1.1,0.2,1.7c-0.1,0.8-0.6,1.1-1.3,1.7s-1,1.4-1.8,1.3
	s-0.1-1.4,0.3-1.8l0.1-0.1c-0.6,0.6-1.1,1.2-1.5,1.9c-0.3,0.5-0.4,1.1-0.3,1.7c0,0-0.9,1.1-0.8-0.2c0-1.1-0.3-2.1-0.8-3v0.2
	C27,13,27.3,14,27.1,15L27,16.3h3.4C29.6,16.1,29.3,15.8,30.5,15.3z"/>
<path style="fill:#608C53;" d="M36.7,11c-0.5-1-1.1-1.1-1.6-1s-0.2,0.4-0.2,0.4c0.3-0.1,0.6,0,0.8,0.2c0.3,0.3,0.1,1-0.4,1.5
	l-0.2,0.2c-0.3,1.4-2.3,3.7-2.3,3.8c0,0.1,0,0.1,0.1,0.2h1.5c0.7-0.6,1.4-1.3,2-2.1C37.1,13.3,37.2,12,36.7,11z"/>
<path style="fill:#4C7144;" d="M32.6,16.2c0,0,2-2.4,2.3-3.8c-0.6,0.3-1.2,0.6-1.8,0.8c0.1-0.1,0.2-0.3,0.2-0.5
	c-0.5,1.2-1.5,2.2-2.8,2.6c-1.2,0.4-0.9,0.8-0.2,1h2.4L32.6,16.2z"/>
<path style="fill:#608C53;" d="M27.4,10.4c-0.1,0.3-0.2,0.5-0.5,0.7c-0.2,0.2-0.3,0.1-0.4-0.1c0,0.3-0.1,0.5-0.1,0.8l0.6,0.8
	C27.2,11.9,27.3,11.1,27.4,10.4z"/>
<path style="fill:#608C53;" d="M29.6,11c0.3-0.5,0.3-1.2,0-1.7c0.8,0.2,1,1.4,1,1.7c0.4-0.3,0.8-0.6,1.2-0.9c0.2-0.3,0-0.6-0.3-0.9
	l0,0c0.2,0.5-0.5,1.4-0.5,1.4c-0.6-1.7-1.5-1.8-2.1-1.7c-0.4,0.1-0.4,0.3-0.4,0.4C28.7,9,29.1,9,29.4,9.1c0.3,0.2,0.4,0.9-0.1,1.6
	c0,0.2-0.1,0.3-0.1,0.5S29.5,11.2,29.6,11z"/>
<path style="fill:#4C7144;" d="M29.8,11.5c0.1-0.1,0.2-0.2,0.3-0.2l0.5-0.3v-0.1C30.4,11.1,30.1,11.3,29.8,11.5z"/>
<path style="fill:#4C7144;" d="M27.3,15c-0.1,1.3,0.8,0.2,0.8,0.2c-0.2-0.6-0.1-1.2,0.3-1.7c0.4-0.7,0.9-1.3,1.5-1.9
	c0.2-0.2,0.5-0.4,0.8-0.6c0-0.3-0.1-1.4-1-1.7c0.3,0.5,0.3,1.2,0,1.7c-0.2,0.2-0.3,0.3-0.4,0.3c-0.1,0.3-0.2,0.5-0.3,0.8
	c-0.2,0.6-1.1,1.1-1.1,1.1c0.1-0.8,0.3-1.5,0.5-2.3c0.2-0.6-0.4-0.6-0.7-0.5h-0.2v0.1c-0.1,0.7-0.2,1.5-0.3,2.2l-0.6-0.8v0.2
	C27,13,27.3,14,27.3,15z"/>
<path style="fill:#8AA67E;" d="M31.8,10c-0.4,0.6-1.7,1.1-2,1.6s-1,1.8-0.3,1.8s1.2-0.8,1.8-1.3s1.2-0.9,1.3-1.7s0.1-1.4-0.2-1.7
	c-0.5-0.3-1.1-0.3-1.6-0.1l0.1,0.1c0.1,0.1,0.4,0.1,0.5,0.4S32,9.7,31.8,10z"/>
<path style="fill:#8AA67E;" d="M27,11c0.2-0.2,0.4-0.5,0.5-0.8c-0.3-0.1-0.7,0.1-0.8,0.4c0,0.1-0.1,0.2-0.1,0.3S26.8,11.2,27,11z"/>
<path style="fill:#8AA67E;" d="M29.4,9.1c-0.3-0.1-0.7,0-0.9,0.2v0.1c0,0,0.3-0.4,0.7,0.3c0.1,0.3,0.2,0.7,0.1,1
	C29.9,10,29.8,9.3,29.4,9.1z"/>
<path style="fill:#4C7144;" d="M33.4,12.7c0-0.2,0.1-0.4,0.2-0.6v0.1C33.5,12.3,33.5,12.5,33.4,12.7z"/>
<path style="fill:#4F446E;" d="M44,29.7c0.7-0.7,1.1-1.7,1.1-2.7c0-1.1-0.5-2.1-1.4-2.7c0.4-0.7,0.6-1.4,0.7-2.2
	c-0.1-1.1-0.8-2.1-1.9-2.5c-0.4-0.9-1.1-1.7-2-2.3c-0.8-0.5-1.8-0.7-2.7-0.5c0,0-1.2-1.6-2.4-1.7s-2.5,0.1-3,1.1
	c-1.1-1.8-3.4-2.3-5.2-1.2c-0.3,0.2-0.6,0.5-0.9,0.7c0,0-0.6-0.9-2.6-0.9c-1.4,0.1-2.7,0.7-3.6,1.7c0,0-0.4-0.5-2.2-0.5
	s-3.6,3-3.6,3s-1.9,0.4-2.3,1.8s-0.2,1.5-0.2,1.5c-0.7,0.6-1.1,1.4-1.1,2.3c0,0.7,0.1,1.4,0.3,2c-0.1,0.6-0.1,1.3,0.1,1.9
	c-0.2,0.5-0.3,1.1-0.4,1.6c0.1,0.6,0.3,1.1,0.7,1.6c0,0.7,0.2,1.5,0.6,2.1l0.8,1c-0.2,0.7-0.2,1.5-0.1,2.2c0.3,1.2,2,2.2,3.2,2.7
	c-0.4,1.3-0.1,2.6,0.8,3.6c0.7,0.8,1.6,1.3,2.6,1.4c0.1,0.9,0.5,1.7,1.2,2.3c0.5,0.5,1.1,0.8,1.7,1c0,0,0.6,1.1,1.4,1.3
	c0.8,0.2,1.7,0.3,2.5,0.2v0.6c0.9,0.8,3.1,7.4,4.7,6.9c0,0,1.8,2.2,2.9,2.6h0.2c0.3,0-0.2,0.1-1,0.1l3.4,1.1h2.8c0,0,1.2-0.4,0-0.9
	s-6.3-2.3-6.4-2.4s0-8.5,0-8.5c0.8,0.6,1.9,0.6,2.7,0c0.9-0.6,1.5-1.6,1.5-2.7c0.8,0.1,1.6-0.3,2.1-0.9c0.3-0.6,0.5-1.2,0.4-1.9
	c1-0.2,2-0.8,2.5-1.7c0.4-0.9,0.4-1.9,0.1-2.8c0,0,1.6-1.8,1.5-3.1s-0.2-1.3-0.2-1.3c1-0.6,1.6-1.6,1.7-2.8
	C44.5,29.8,44,29.7,44,29.7z"/>
<path style="fill:#4F446E;" d="M33.6,59.6h-0.2c-1.1-0.4-2.9-2.6-2.9-2.6c-1.6,0.6-3.8-6.1-4.7-6.9v7.2c0.2,0.1,0.4,0.3,0.5,0.5
	l6.2,1.9C33.4,59.7,33.8,59.7,33.6,59.6z"/>
<path style="fill:#5E5481;" d="M18.4,21.2c0.9,0.3,1.9,0.3,2.8,0.1c0.8-0.3,1.6-0.6,2.4-0.8c0.9,0.6,1.8,1.1,2.8,1.6
	c0.8,0,1.7,0,2.5-0.2l1.4-1l1.2,0.5l1.5,0.5l2.4-0.3l0.3-0.4l0.6,0.9l0.8,1l1.2,0.9l0.6,0.8l0.2,0.9l0.1,1l0.5,1.1l-0.5,1.1l-0.3,2
	l0.4,2.2l0.3,0.7c0,0-1-0.5-1.4,0.2s-1.5,3.3-2.1,2.6c-1.2-1-2.8-1.3-4.3-0.8c-1.4,0.8-1.7,3.9-3.8,4.5c-1.8,0.6-3.9,0.5-5.6-0.4
	c-2-0.9-2.8-1.4-3.7-3.1s-2.1-1.5-2.3-3.3c-0.2-1.1-1.3-2.1-1.9-2.9c0.5-0.9,0.8-1.9,0.9-2.9c0-1-0.9-2-1-3c0.8-0.8,2.3-1.7,3-2.7
	C17.9,21,18.4,21.2,18.4,21.2z"/>
<path style="fill:#6A628C;" d="M19,32.6c0,0,2.7,0.5,2.7,1.4s-1.5,1.1-2.5,0.9s-1.9-0.7-1.9-1.5S19,32.5,19,32.6z"/>
<path style="fill:#504264;" d="M28.6,30c-0.3,0.7-0.2,1.5,0.3,2c0.7,1,1,1.5,1.7,1.5s-0.6-1.3-1-2.1S28.9,30.1,28.6,30z"/>
<path style="fill:#504264;" d="M16.4,28.6c0,0.8,0.2,1.5,0.5,2.2c0.5,0.8,0.9,1.6,1.8,1.7s1.1-0.4,0.5-1s-1.4-1-1.7-1.8
	C17.3,29.2,16.9,28.8,16.4,28.6z"/>
<path style="fill:#6A628C;" d="M31.7,33.7c0.7-0.1,1.3-0.2,2-0.2c0.3,0.1,1.6,0.7,1,1.3c-0.7,0.5-1.6,0.7-2.4,0.6
	c-1.1,0-1.1,0.1-1.7-0.2s-1-1-0.7-1.2C30.4,33.6,31.1,33.5,31.7,33.7z"/>
<path style="fill:#4F446E;" d="M28.4,29.9c0.4,0.6,0.7,1.2,1,1.9c0.2,0.6,0.6,1.2,1.1,1.6c-0.4,0.1-0.8,0-1.2-0.2
	c-0.3-0.3-0.6-0.6-0.8-1c-0.2-0.4-0.3-0.8-0.3-1.2C28.2,30.6,28.2,30.2,28.4,29.9z"/>
<path style="fill:#4F446E;" d="M38.2,30.8c0.1,0.3,0.1,0.6,0.1,0.9c0,0.3-0.1,0.6-0.3,0.8c-0.1,0.3-0.4,0.5-0.6,0.7
	c-0.3,0.2-0.6,0.3-0.9,0.3l0.3-0.8c0.1-0.2,0.2-0.5,0.3-0.7C37.4,31.6,37.8,31.2,38.2,30.8z"/>
<path style="fill:#4F446E;" d="M16.4,28.7c0.4,0.7,0.7,1.3,1,1.9c0.1,0.3,0.3,0.6,0.5,0.9c0.2,0.3,0.4,0.6,0.5,1
	c-0.4,0-0.8-0.2-1.1-0.5c-0.3-0.3-0.6-0.6-0.8-0.9c-0.2-0.4-0.3-0.8-0.3-1.2C16.1,29.5,16.2,29.1,16.4,28.7z"/>
<path style="fill:#4F446E;" d="M25.9,29.7c0.2,0.6,0.2,1.2-0.1,1.8c-0.2,0.3-0.4,0.5-0.6,0.7c-0.3,0.2-0.6,0.3-1,0.3
	c0.1-0.3,0.2-0.5,0.4-0.8c0.1-0.2,0.2-0.5,0.3-0.7C25.1,30.5,25.5,30.1,25.9,29.7z"/>
<path style="fill:#FFFFFF;" d="M20.8,32.6c0,0-3.6-0.5-4.4-3c-0.1-1.9,0.8-3.8,2.5-4.8c2.7-1.6,3.6-1.5,4-1.3s3.3,1.2,3.3,6.2
	c0,0-0.1,1.8-0.7,2.2C24.1,32.8,22.4,33,20.8,32.6z"/>
<path style="fill:#FFFFFF;" d="M28.7,31.8c-0.3-0.9-0.4-1.8-0.3-2.7c0.2-1.9,1.2-3.6,2.8-4.6c1.1-0.3,2.4-0.2,3.4,0.4
	c2.2,1.1,3.6,3.3,3.4,5.8c0,0,0.1,1.7-0.5,2.2c-1.2,0.6-2.6,0.9-4,0.8C31.7,33.8,30,33.1,28.7,31.8z"/>
<path style="fill:#3C2E55;" d="M14.2,19.1c0.8-0.2,1.7-0.2,2.5-0.2c0.7,0,1.3,0.4,1.6,1c0.2,0.6,0.1,1.3-0.1,1.9
	c-0.2,0.5-0.5,1-0.8,1.5c-0.3,0.5-0.7,1-1.1,1.4c-0.3,0.2-0.6,0.4-0.9,0.5c-0.6,0.1-1.2,0-1.8-0.2c-0.2-0.1-0.5-0.2-0.7-0.3
	c-0.3-0.1-0.6-0.3-0.8-0.5c-0.4-0.5-0.5-1.1-0.3-1.7c0.1,0.5,0.3,1,0.7,1.3c0.2,0.1,0.4,0.2,0.6,0.2c0.3,0,0.6,0.1,0.8,0.2
	c0.2,0.1,0.4,0.1,0.6,0c0.2-0.1,1.1-0.2,1.3-0.3l0.9-1.2c0.3-0.4,0.5-0.9,0.8-1.3c0.2-0.4,0.3-0.8,0.3-1.2c-0.2-0.4-0.5-0.7-0.9-0.8
	C16,19.2,15.1,19.1,14.2,19.1z"/>
<path style="fill:#3C2E55;" d="M18.1,18.4c0.9-1.3,2.5-2.1,4.1-2c0.4,0,0.8,0.2,1.2,0.4c0.4,0.3,0.7,0.7,0.9,1.2
	c0.1,0.4,0.1,0.9,0,1.3c-0.1,0.4-0.2,0.8-0.5,1.2c-0.6,0.7-1.3,1.1-2.2,1.3C20.8,22,20,22,19.2,22c-0.5,0-0.9-0.2-1.2-0.5
	c-0.1-0.2-0.3-0.4-0.3-0.6c-0.1-0.2-0.2-0.3-0.2-0.5c-0.1-0.4-0.2-0.8-0.1-1.2c0.1-0.2,0.2-0.3,0.3-0.5l0.2-0.2
	C17.9,18.5,18.1,18.4,18.1,18.4z M18.1,18.4L18.1,18.4l-0.2,0.3c-0.1,0.1-0.2,0.3-0.2,0.5c0,0.4,0.1,0.7,0.3,1
	c0.1,0.3,0.3,0.6,0.5,0.8c0.2,0.2,0.5,0.2,0.8,0.2c0.7,0,1.4-0.1,2.1-0.3c0.6-0.1,1.2-0.5,1.6-1c0.2-0.2,0.3-0.5,0.3-0.8
	c0.2-0.8-0.2-1.6-0.9-1.8c-0.1,0-0.2-0.1-0.4-0.1C20.6,17,19.2,17.4,18.1,18.4z"/>
<path style="fill:#3C2E55;" d="M26.2,17.4c0.7-0.3,1.5-0.3,2.2-0.2c0.8,0.2,1.5,0.8,1.8,1.5c0.4,0.8,0.4,1.7,0.1,2.5
	c-0.2,0.4-0.5,0.8-0.9,1c-0.4,0.2-0.8,0.4-1.2,0.5c-0.8,0.2-1.7,0.1-2.5-0.3c-0.3-0.2-0.7-0.4-1-0.6c-0.2-0.1-0.3-0.3-0.4-0.4
	l-0.2-0.2c-0.1-0.3-0.1-0.4-0.2-0.5c-0.3-0.8-0.2-1.6,0.3-2.3c0.3-0.3,0.6-0.5,0.9-0.7C25.5,17.6,25.8,17.5,26.2,17.4z M26.2,17.4
	c-0.7,0.2-1.4,0.6-1.9,1.1c-0.3,0.6-0.2,1.4,0.1,2c0.2,0.2,0.4,0.5,0.7,0.6c0.3,0.2,0.6,0.3,1,0.4c0.7,0.2,1.3,0.2,2,0.1
	c1.1-0.2,2-1.2,1.9-2.3c0-0.2-0.1-0.3-0.1-0.5c-0.2-0.7-0.7-1.3-1.4-1.5C27.8,17,26.9,17.1,26.2,17.4z"/>
<path style="fill:#3C2E55;" d="M32.3,17c0.4-0.1,0.7-0.1,1.1-0.2c0.4,0,0.8,0,1.1,0.2c0.7,0.3,1.3,0.8,1.8,1.4
	c0.3,0.3,0.4,0.8,0.4,1.2c0,0.4-0.1,0.8-0.3,1.2c-0.2,0.4-0.5,0.7-0.8,1c-0.4,0.2-0.8,0.4-1.2,0.5c-0.8,0-1.6-0.1-2.4-0.3
	c-0.8-0.3-1.4-0.9-1.8-1.6c-0.5-1.2,0-2.7,1.3-3.2C31.7,17.1,32,17,32.3,17z M32.3,17c-0.7,0.1-1.4,0.5-1.8,1.1
	c-0.3,0.6-0.2,1.4,0.1,2c0.4,0.5,1,0.9,1.6,1c0.7,0.2,1.3,0.2,2,0.2c0.6-0.1,1.2-0.4,1.5-0.9c0.2-0.3,0.3-0.6,0.3-0.9
	c0.1-0.3,0-0.6-0.1-0.9c-0.4-0.6-0.9-1.1-1.5-1.5C33.7,16.8,33,16.8,32.3,17z"/>
<path style="fill:#3C2E55;" d="M36.8,19.8c0.5-0.5,1.1-0.8,1.8-0.7c0.7,0.1,1.4,0.4,1.9,0.9c0.5,0.5,1.3,1.1,1.4,1.9
	c0.1,0.4,0.1,0.8,0,1.2c-0.1,0.4-0.7,0.8-1.1,1.1c-0.6,0.5-1.5,0.7-2.3,0.5c-0.6-0.3-1.2-0.7-1.7-1.2c-0.5-0.5-0.9-1.1-1.1-1.8
	C35.7,20.9,36.1,20.2,36.8,19.8z M36.8,19.8c-0.5,0.4-0.6,1-0.5,1.6c0.3,0.5,0.7,1,1.1,1.4c0.4,0.4,0.9,0.7,1.5,0.9
	c0.5,0.1,0.9,0,1.3-0.3c0.7-0.5,0.4-2-0.3-2.8C39.2,19.6,37.9,19.2,36.8,19.8z"/>
<path style="fill:#3C2E55;" d="M13.9,24.7c0.5,0.2,1.8,0.7,2,1.2c0.2,0.5,0.3,1.1,0.3,1.7c0,0.5-0.1,1.1-0.2,1.6
	c-0.1,0.3-0.2,0.5-0.3,0.8c-0.1,0.1-0.2,0.3-0.3,0.4c-0.4,0.1-0.9,0.1-1.3,0.1c0.2-0.1,0.3-0.4,0.3-0.6v-2.3c0-0.5,0-1-0.1-1.5
	C14.3,25.6,14.2,25.1,13.9,24.7z"/>
<path style="fill:#3C2E55;" d="M38.3,39.5c0.7,0,1.3-0.4,1.5-1c0.2-0.6,0.3-1.3,0.3-2c0.1-0.7,0.1-1.3,0-2c0-0.3-0.2-0.5-0.5-0.6
	c-0.3-0.2-0.7-0.3-1-0.4c0.4-0.1,0.8-0.1,1.2-0.1c0.4,0.1,0.8,0.4,1,0.8c0.3,0.7,0.4,1.5,0.3,2.3c0,0.8-0.2,1.6-0.6,2.3
	c-0.2,0.4-0.6,0.7-1,0.8C39.1,39.8,38.7,39.7,38.3,39.5z"/>
<path style="fill:#3C2E55;" d="M40,33.9c1,0,1.9-0.4,2.5-1.2c0.2-0.4,0.3-0.8,0.3-1.2c0.1-0.4,0.1-0.9,0.1-1.3c0-0.4,0-0.8-0.2-1.1
	c-0.2-0.3-0.5-0.5-0.8-0.5c-0.6-0.1-1.2-0.1-1.7,0c-0.4,0-0.9,0.2-1.2,0.5c0.1-0.5,0.6-0.8,1-1c0.6-0.2,1.3-0.3,1.9-0.3
	c0.6,0,1.2,0.3,1.6,0.8c0.3,0.5,0.4,1,0.4,1.6c0,0.5-0.1,1-0.2,1.5c-0.1,0.5-0.3,1-0.6,1.4C42.4,34,41.1,34.3,40,33.9z"/>
<path style="fill:#3C2E55;" d="M39,43.5c-0.4-0.2-0.6-0.3-0.7-0.5c-0.1-0.3-0.1-0.6,0.1-0.8c0.3-0.1,0.7,0.1,0.8,0.4
	C39.4,42.9,39.3,43.3,39,43.5C39,43.5,39,43.5,39,43.5z"/>
<path style="fill:#3C2E55;" d="M15.9,35c0,0.3-0.2,0.5-0.4,0.6c-0.5,0.1-1,0.2-1.5,0.2c-0.5,0-0.9-0.3-1-0.8
	c0.2-0.1,0.4-0.1,0.6-0.2h0.5C14.7,34.8,15.3,34.9,15.9,35z"/>
<path style="fill:#3C2E55;" d="M41.2,28.2c-0.2,0.2-0.4,0.4-0.7,0.4c-0.3,0-0.6-0.2-0.8-0.4c-0.4-0.4-0.6-0.9-0.7-1.4
	c-0.1-0.5-0.2-1-0.1-1.5c0-0.3,0.2-0.6,0.4-0.8c0.2-0.2,0.5-0.3,0.8-0.3c-0.3,0.3-0.4,0.7-0.3,1.1c0.1,0.4,0.2,0.8,0.3,1.3l0.3,1.2
	C40.4,28,40.8,28.3,41.2,28.2z"/>
<path style="fill:#3C2E55;" d="M13.5,30.4c0.8-0.3,1.7-0.3,2.4,0.1c0.5,0.3,0.8,0.8,0.9,1.4c0.1,0.5,0.2,0.9,0.2,1.4
	c0,0.3,0,0.5-0.1,0.8c0,0.2-0.2,0.6-0.5,0.6c0.1-0.2,0.1-0.4,0-0.6c-0.1-0.2-0.1-0.4-0.2-0.6c-0.2-0.4-0.3-0.9-0.4-1.3
	c-0.1-0.4-1.1-0.7-1.3-1C14.3,30.8,13.9,30.5,13.5,30.4z"/>
<path style="fill:#3C2E55;" d="M16.2,34.8c0.2-0.2,0.6-0.4,0.9-0.3c0.3,0.1,0.6,0.2,0.9,0.4c1,0.7,1.6,1.8,1.8,3
	c0.1,0.6-0.2,1.3-0.6,1.7c0.1-0.5,0.1-1.1-0.1-1.6c-0.2-0.5-0.4-1-0.7-1.4c-0.3-0.4-0.6-0.9-0.9-1.3C17.2,35,16.7,34.8,16.2,34.8z"
	/>
<path style="fill:#3C2E55;" d="M17.4,22.4c-0.2-0.3-0.2-0.7,0.1-1c0.2-0.3,0.7-0.3,0.9-0.1c0,0,0,0,0.1,0.1l0,0
	c-0.1,0.3-0.2,0.5-0.4,0.7C17.9,22.2,17.6,22.3,17.4,22.4z"/>
<path style="fill:#3C2E55;" d="M38.3,24c0.2-0.1,0.4,0,0.6,0.1c0.2,0.1,0.3,0.2,0.4,0.4c0.2,0.4,0.1,0.8-0.1,1.1
	c-0.2-0.1-0.3-0.2-0.5-0.3L38.4,25C38.3,24.7,38.2,24.3,38.3,24z"/>
<path style="fill:#3C2E55;" d="M39.3,26.5c0.4,0.4,0.6,1,0.6,1.6c0,0.3-0.1,0.6-0.2,0.8c-0.2,0.3-0.4,0.5-0.7,0.7
	c-0.1-0.5-0.2-1-0.1-1.5C38.9,27.5,39.1,27,39.3,26.5z"/>
<path style="fill:#3C2E55;" d="M11.9,24.7c-0.2,0.4-0.3,0.8-0.4,1.2c-0.1,0.3-0.2,0.7-0.2,1c0,0.4,0,0.7,0.1,1.1
	c0.1,0.3,0.2,0.7,0.3,1v0.1c0,0.2,0.1,0.3,0.2,0.4c0.1,0.2,0.2,0.3,0.4,0.4c0.3,0.2,0.7,0.4,1.1,0.5c-0.4,0.2-0.9,0.2-1.4,0.1
	c-0.3-0.1-0.5-0.2-0.7-0.4c-0.2-0.2-0.4-0.4-0.5-0.7v0.1c-0.5-0.8-0.7-1.7-0.5-2.6c0.1-0.4,0.3-0.8,0.5-1.2
	C11.1,25.3,11.4,24.9,11.9,24.7z"/>
<path style="fill:#3C2E55;" d="M40.2,24c0.7-0.6,1.6-0.8,2.4-0.5c0.6,0.4,1.1,1,1.3,1.7c0.2,0.7,0.2,1.4,0,2.1
	c-0.1,0.4-0.4,0.7-0.7,0.9c-0.3,0.2-0.7,0.2-1,0c0.5-0.1,0.9-0.6,1-1.1c0-0.5-0.1-1.1-0.2-1.6c-0.1-0.5-0.3-1-0.7-1.3
	C41.7,23.9,40.9,23.9,40.2,24z"/>
<path style="fill:#4F446E;" d="M17.4,32.3c0.3-0.1,0.6-0.2,0.9-0.2h0.9c0.3,0.1,0.5,0.2,0.8,0.3c0.3,0.2,0.5,0.4,0.6,0.7h-0.9
	c-0.3,0-0.5,0-0.8-0.1h-0.3c-0.2,0-0.3-0.1-0.4-0.2C17.9,32.7,17.6,32.5,17.4,32.3z"/>
<path style="fill:#3C2E55;" d="M40.2,28.4c-0.4,0.2-0.7,0.6-0.7,1.1v2.8c-0.1,0.5,0,1,0.2,1.4c-0.3-0.1-0.5-0.3-0.7-0.5
	c-0.1-0.3-0.2-0.5-0.3-0.8c-0.1-0.5-0.2-1-0.2-1.5c-0.1-0.6,0-1.2,0.2-1.7C39,28.6,39.6,28.3,40.2,28.4z"/>
<path style="fill:#3C2E55;" d="M22.8,20.8c0.2-0.3,0.6-0.5,1-0.4c0.4,0.1,0.7,0.4,0.7,0.8C23.9,21.6,23.2,21.4,22.8,20.8
	C22.8,20.8,22.8,20.8,22.8,20.8z"/>
<path style="fill:#3C2E55;" d="M29.4,21.5c-0.1-0.2,0-0.5,0.1-0.7c0.2-0.2,0.4-0.3,0.6-0.3c0.4,0,0.8,0.2,1,0.6
	c-0.2,0.1-0.3,0.2-0.5,0.3s-0.2,0.1-0.4,0.1C30.2,21.5,29.4,21.5,29.4,21.5z"/>
<path style="fill:#3C2E55;" d="M26.2,15.8c0.2,0.2,0.3,0.5,0.3,0.8c-0.1,0.3-0.2,0.5-0.4,0.7c-0.4-0.1-0.7-0.5-0.6-0.9
	C25.6,16.1,25.9,15.9,26.2,15.8z"/>
<path style="fill:#3C2E55;" d="M37.7,16.9c0,0.3-0.1,0.6-0.2,0.9c-0.2,0.2-0.5,0.4-0.8,0.5c-0.3-0.3-0.3-0.8,0-1.1
	C37,16.9,37.3,16.8,37.7,16.9z"/>
<path style="fill:#4F446E;" d="M30.5,34.5c0-0.4,0.2-0.7,0.6-0.8c0.2-0.1,0.4-0.1,0.6,0c0.1,0.1,0.2,0.3,0.2,0.5
	c0,0.3-0.1,0.7-0.2,1c-0.3,0.2-0.5,0.4-0.8,0.5c-0.1,0.1-0.2,0.1-0.4,0.1c-0.1,0,0-0.1,0-0.2C30.6,35.1,30.6,34.8,30.5,34.5z"/>
<path style="fill:#4F446E;" d="M22.8,35c-0.4-0.1-0.7-0.2-0.8-0.6c-0.1-0.2-0.1-0.4,0-0.6c0.2-0.4,0.8-0.5,1.5,0.4
	c0,0.3,0.1,0.6,0.4,0.8c0.1,0.1,0.1,0.1,0.2,0.1c0,0,0-0.1-0.2-0.1L22.8,35z"/>
<path style="fill:#4F446E;" d="M25.1,37.6c0.6-0.2,1-0.4,1.2-0.5c0.3-0.1,0.6-0.1,0.8-0.1c0.2,0,0.5,0.1,0.7,0.1
	c0.4,0.2,0.8,0.4,1.2,0.4c0.1,0.6-0.1,1.1-0.6,1.5c-0.8,0.6-1.9,0.6-2.6,0C25.4,38.6,25.1,38.1,25.1,37.6z"/>
<path style="fill:#3C2E55;" d="M12.3,30.2c0,0.3-0.1,0.6-0.3,0.9c-0.2,0.2-0.4,0.4-0.7,0.6c-0.2-0.1-0.3-0.4-0.3-0.6
	c0-0.5,0.3-0.9,0.7-1C11.9,30.1,12.1,30.1,12.3,30.2z"/>
<path style="fill:#3C2E55;" d="M21.9,48c0.6-0.3,1.2-0.5,1.8-0.6l0.9-0.2l1-0.2c-0.1,0.4-0.3,0.7-0.6,0.9c-0.3,0.2-0.6,0.4-1,0.5
	c-0.4,0.1-0.7,0.1-1.1,0C22.5,48.3,22.2,48.2,21.9,48z"/>
<path style="fill:#2F2547;" d="M34.4,35.5c0.1-0.3,0.2-0.5,0.5-0.7c0.2-0.1,0.5-0.1,0.7,0c0.1,0,0.1,0.1,0.2,0.2l0.1,0.1
	c0.1,0.1,0.1,0.1,0.1,0.2c0.1,0.4,0,0.7-0.3,1c-0.3,0.2-0.6,0.2-0.9,0.1c0.1-0.2,0.2-0.3,0.3-0.5c0-0.1,0-0.2-0.1-0.2h0.1
	C34.9,35.6,34.6,35.5,34.4,35.5z"/>
<path style="fill:#3C2E55;" d="M35.2,36.4c0.2-0.4,0.4-0.4,0.6-0.3s0.2,0.2,0.2,0.3s-0.1,0.4-0.3,0.4s-0.3,0-0.4,0.1s0,0.1-0.1,0.1
	V36.4z"/>
<path style="fill:#2F2547;" d="M35.5,36c0.5-0.1,1,0.2,1.2,0.7c0.1,0.5,0.1,0.9,0,1.4c-0.1,0.4-0.4,0.8-0.7,1.1
	c-0.3,0.3-0.8,0.5-1.2,0.5c0.5-0.6,0.8-1.2,1-1.9c0.1-0.3,0.2-0.6,0.2-0.9C36,36.5,35.8,36.2,35.5,36z"/>
<path style="fill:#2F2547;" d="M35.7,38.9c0.4,0.8,0.4,1.7,0,2.4c-0.2,0.4-0.5,0.7-0.8,0.9c-0.3,0.3-0.8,0.4-1.2,0.3
	c0.3-0.2,0.5-0.5,0.7-0.8c0.2-0.3,0.3-0.5,0.5-0.8C35.2,40.1,35.5,39.5,35.7,38.9z"/>
<path style="fill:#3C2E55;" d="M37.6,35.6c0.3,1,0.4,2.1,0.3,3.2c0,1.2-0.4,2.3-1.1,3.2c-0.4,0.4-0.8,0.8-1.2,1.1
	c-0.5,0.4-1.1,0.7-1.7,0.7c-0.3,0-0.6-0.1-0.9-0.2c-0.3-0.1-0.6-0.3-0.8-0.6c-0.2-0.5-0.3-1.1-0.2-1.6c0.1,0.5,0.3,1,0.7,1.4
	c0.1,0.2,0.3,0.3,0.5,0.3h0.7c0.4-0.1,0.8-0.3,1.1-0.7c0.4-0.3,0.7-0.7,1-1.1c0.3-0.4,0.5-0.8,0.7-1.2c0.2-0.5,0.3-0.9,0.4-1.4
	C37.3,37.7,37.5,36.6,37.6,35.6z"/>
<path style="fill:#2F2547;" d="M38.8,32.9c0,0.3-0.1,0.6-0.1,0.8s-0.1,0.3-0.1,0.4c-0.1,0.1-0.1,0.3-0.1,0.4c-0.2,0.5-0.3,1-0.5,1.5
	c-0.1,0.3-0.2,0.5-0.4,0.8c-0.1,0.3-0.3,0.5-0.5,0.7l-1.2,1.2c0.1-0.6,0.3-1.1,0.6-1.6c0.1-0.3,0.3-0.5,0.3-0.7l0.3-0.7
	c0.2-0.5,0.5-1,0.8-1.5l0.3-0.3c0.1-0.1,0.2-0.2,0.2-0.3C38.4,33.3,38.6,33.1,38.8,32.9z"/>
<path style="fill:#3C2E55;" d="M25.8,49.4c0.1-0.4,0.1-0.5,0.2-0.6s0.2,0,0.6,0.1c0.2,0.4,0.1,0.6-0.1,0.7S26,49.7,25.8,49.4z"/>
<path style="fill:#4F446E;" d="M30.2,33.6c0.6-0.1,1.2-0.2,1.8-0.4c0.3-0.1,0.6-0.2,0.9-0.2h1c1.3,0.1,2.5,0.7,3.4,1.6l-1.8-0.3
	c-0.6-0.1-1.1-0.2-1.7-0.2h-1.7C31.4,34,30.8,33.9,30.2,33.6z"/>
<path style="fill:#504264;" d="M21.4,25.2c-2-0.1-3.8,1.5-3.8,3.5c0,0,0,0,0,0c-0.1,1,0.1,1.9,0.4,2.8l0.7,0.3
	c-0.5-0.9-0.8-1.8-0.8-2.8c0-1.9,1.5-3.4,3.4-3.4c0,0,3.3-0.5,3.3,3.7c0.1,1.4-0.7,2.7-1.9,3.3h0.8c1-1,1.6-2.3,1.6-3.7
	C24.9,27,23.4,25.4,21.4,25.2z"/>
<path style="fill:#09002F;" d="M24.5,29.3c0-4.2-3.3-3.7-3.3-3.7c-1.9,0-3.4,1.6-3.4,3.4c0,1,0.3,2,0.8,2.8c0.7,0.3,1.5,0.4,2.3,0.6
	c0.6,0.1,1.1,0.1,1.7,0.1C23.9,32,24.7,30.7,24.5,29.3z"/>
<path style="fill:#504264;" d="M36.5,29.2c0.1-1.8-1.3-3.4-3.1-3.5c-1.8-0.2-3.4,1.1-3.6,2.9c0,0,0,0,0,0v0.5
	c-0.1,0.9,0.1,1.9,0.6,2.7l0.9,0.3c-0.7-0.8-1.1-1.8-1.1-2.9c0-1.6,1.4-3,3-3c0,0,2.9-0.4,2.9,3.3c0.1,1.1-0.3,2.2-1.2,2.9l0.6-0.1
	C36.2,31.4,36.6,30.3,36.5,29.2z"/>
<path style="fill:#09002F;" d="M36,29.5c0-3.7-2.8-3.3-2.8-3.3c-1.6,0-3,1.4-3,3c0,1.1,0.4,2.1,1.1,2.9c0.5,0.1,0.9,0.2,1.4,0.2
	c0.7,0.1,1.5,0.1,2.2,0C35.7,31.6,36.1,30.6,36,29.5z"/>
<polygon style="fill:#ABA3B4;" points="33.5,28.3 34.5,27.3 35.2,28.1 34.3,29 "/>
<polygon style="fill:#ABA3B4;" points="21.5,28.4 22.8,27.2 23.6,28.1 22.4,29.2 "/>
<circle style="fill:#FFFFFF;" cx="23.5" cy="27.2" r="1.1"/>
<circle style="fill:#FFFFFF;" cx="35.2" cy="27.2" r="1"/>
<circle style="fill:#FFFFFF;" cx="33.9" cy="28.6" r="0.5"/>
<circle style="fill:#FFFFFF;" cx="32.5" cy="31.6" r="0.4"/>
<circle style="fill:#FFFFFF;" cx="20" cy="31.8" r="0.5"/>
<circle style="fill:#FFFFFF;" cx="22.1" cy="28.8" r="0.6"/>
<path style="fill:#3C2E55;" d="M32.3,16.4c0.4-0.1,0.6,0,0.6,0.2s0,0.3-0.5,0.4c-0.4-0.1-0.5-0.1-0.5-0.2S32,16.7,32.3,16.4z"/>
<path style="fill:#554C6E;" d="M17.9,40.9c0,0,0.5-1.1,1.4-0.4s2.9,2.3,1.8,3.2c-0.7,0.7-1.8,0.7-2.5,0c0,0,0,0,0,0l-0.1-0.1
	C17.7,42.9,17.5,41.8,17.9,40.9z"/>
<path style="fill:#554C6E;" d="M14.2,35.8c0.8-0.4,1.7-0.5,2.5-0.3c0.4,0.3,2,2.9,1.2,3.6c-0.6,0.6-1.7,0.6-2.3-0.1c0,0,0,0,0,0
	l-0.1-0.1c-0.6-0.6-1.7-1.4-1.7-2.3C13.9,36.3,14,36.1,14.2,35.8z"/>
<path style="fill:#554C6E;" d="M11.6,30.7c0.3-0.4,0.8-0.5,1.2-0.3c0.8,0.4,2.1,2.5,1.6,3.5s-1.2,1.3-1.9,0.8
	c-0.9-0.7-1.3-1.9-1.2-3C11.6,30.6,11.6,30.7,11.6,30.7z"/>
<path style="fill:#554C6E;" d="M11.6,25.2c0.4-0.5,0.9-0.9,1.4-0.6c0.9,0.9,1.1,2.3,0.7,3.5c-0.6,1.2-1.1,1.6-1.7,1.4
	c-0.8-0.3-1.3-1.2-1.1-2.1C11,26.6,11.2,25.9,11.6,25.2z"/>
<path style="fill:#554C6E;" d="M11.8,23.1c0.1,0.7,0.7,1.2,1.4,1.1c0,0,0,0,0,0h0.1c1.2-0.5,2.9-1.5,3.3-2.7s0.2-2.6-0.6-2.6
	c-1.2,0-2.3,0.4-3.3,1C12.2,20.4,11.7,21.2,11.8,23.1z"/>
<path style="fill:#554C6E;" d="M17.8,19.5c0.2,0.5,0.7,0.9,1.3,1c1,0.1,2.1-0.2,3-0.7c1-0.6,1.6-1.4,1-2.1s-0.5-1.1-1.7-0.8
	c-1.1,0.2-2.2,0.7-3.1,1.4C17.8,18.8,17.7,19,17.8,19.5z"/>
<path style="fill:#554C6E;" d="M24.2,19c0.5-0.8,1.4-1.3,2.4-1.3c1.2,0,2.7,1,2.1,2s-1.5,1.8-2.5,1.6S24,20.6,24,19.9
	S24.2,19,24.2,19z"/>
<path style="fill:#554C6E;" d="M30.5,18.4c0.6-0.6,1.3-0.8,2.1-0.8c1,0.1,1.8,0.9,1.8,1.9c0,1.3-1.1,1.8-2.5,1.8s-1.8-1.5-1.8-2.1
	C30.1,18.9,30.3,18.6,30.5,18.4z"/>
<path style="fill:#554C6E;" d="M37.8,19.9c0.9,0.1,1.6,0.8,1.7,1.7c0,0.9-1,1.2-1.7,1.2c-0.9-0.2-1.6-0.9-1.7-1.8
	C36.3,20.2,37,19.7,37.8,19.9C37.8,19.9,37.8,19.9,37.8,19.9z"/>
<path style="fill:#554C6E;" d="M39.9,24.2c0.8,0,2.5,0.3,2.5,1.4c0.1,0.9-0.6,1.8-1.5,1.9c-0.8,0.1-1.6-0.5-1.7-1.4c0,0,0-0.1,0-0.1
	v-0.2C39.2,24.5,39.6,24.2,39.9,24.2z"/>
<path style="fill:#554C6E;" d="M23.2,44.1c0.5-0.1,1.8,0.3,1.8,0.7c0.1,0.6-0.4,1.1-1,1.2h-0.1c-0.7,0-1.2-0.5-1.2-1.2
	C22.7,44.4,23.2,44.1,23.2,44.1z"/>
<path style="fill:#554C6E;" d="M39.7,29.4c0,0.4-0.2,3.2,1.1,3.2s1.7-2.2,1.7-2.7c-0.1-0.8-1.1-1.4-1.9-1.5S39.7,29.4,39.7,29.4z"/>
<path style="fill:#554C6E;" d="M27.1,15.3c0.3-0.4,0.7-0.6,1.2-0.5c0.7-0.1,1.4,0.4,1.5,1.1c0,0.1,0,0.1,0,0.2c0,0.8-1,0.9-1.9,0.9
	S26.2,16.2,27.1,15.3z"/>
<path style="fill:#554C6E;" d="M16,17.1c0.6-0.7,1.5-1,2.4-1c1.7,0-0.4,1.9-1,2.2s-3.3,1.1-3.2,0.5S15.5,17.6,16,17.1z"/>
<path style="fill:#554C6E;" d="M37.4,17.5c0,0-0.3,1.2,1.3,1.2s1.9-1.1,1.5-1.4s-0.3-0.4-1.4-0.4S37.4,17.5,37.4,17.5z"/>
<path style="fill:#3C2E55;" d="M16.9,34.4c-0.6,0.5-2,1.1-2.4,1.9c-0.3,0.6,0.6,1.4,1.1,1.9c0.5,0.6,1.1,1.1,1.8,1.5
	c0.7,0.4,1.6,0.3,2.2-0.3c-0.2,0.5-0.5,0.8-1,1c-0.5,0.2-1,0.2-1.5,0c-1.1-0.3-2.2-0.9-3.1-1.6c-0.3-0.4-0.5-0.9-0.6-1.4
	c0-0.5,0.1-1.1,0.4-1.5C14.7,35.1,15.8,34.6,16.9,34.4z"/>
<path style="fill:#6A628C;" d="M25.6,36.6c0.5,0,0.8,0.2,1.3,0.1c0.5-0.2,1.1-0.2,1.6,0c0.5,0.2,0.5,0.6,0,0.8
	c-0.5,0.3-1,0.3-1.6,0.2c-0.3-0.1-0.7-0.1-1-0.1c-0.4,0-0.8-0.4-0.7-0.6S25.3,36.8,25.6,36.6z"/>
<path style="fill:#3C2E55;" d="M31.7,37.1c0.2-0.2,0.4-0.4,0.7-0.5h0.3c0.1,0,0.2,0.1,0.5,0.2c0,0.2-0.1,0.4-0.2,0.5
	c-0.3,0.3-0.7,0.3-1,0c0,0-0.1-0.1-0.1-0.1C31.7,37.3,31.7,37.2,31.7,37.1z"/>
<path style="fill:#6A628C;" d="M17.2,23.8c0.7-0.7,1.6-1.2,2.5-1.6c1-0.4,3.2-0.9,3.4-0.3s-1.5,1.5-2.3,1.7
	c-0.9,0.3-1.8,0.7-2.6,1.1C17.8,24.8,16.4,24.6,17.2,23.8z"/>
<path style="fill:#6A628C;" d="M30.9,22.1c0.5-0.1,1,0,1.4,0.3c0.8,0.4,1.6,0.6,2.5,0.8c0.5,0,2.2,1,1.7,1.5s-1.9,0.1-3-0.3
	c-0.9-0.2-1.7-0.6-2.5-1C30.5,22.9,30.5,22.3,30.9,22.1z"/>
<path style="fill:#4F446E;" d="M17.7,25.3c0.2-0.7,0.6-1.3,1.2-1.7c0.5-0.4,1.1-0.7,1.7-0.9c0.6-0.2,1.2-0.3,1.8-0.4h0.9
	c0.3,0.1,0.6,0,0.9-0.1c0,0.2,0,0.4-0.1,0.6c-0.1,0.2-0.2,0.3-0.4,0.4c-0.2,0.2-0.5,0.4-0.8,0.6c-0.5,0.3-1.1,0.6-1.7,0.8
	c-0.6,0.2-1.1,0.3-1.7,0.5C18.9,25.1,18.3,25.2,17.7,25.3z"/>
<path style="fill:#4F446E;" d="M38.2,28.8c-0.5-0.6-1.1-1.2-1.7-1.8c-0.5-0.4-1.2-0.8-1.8-1.1c-0.6-0.4-1.3-0.7-2-1
	c-0.2-0.1-0.5-0.2-0.7-0.3s-0.4-0.3-0.6-0.4c-0.4-0.3-0.6-0.8-0.7-1.3c0.4,0.2,0.8,0.3,1.2,0.4h1.2c1,0,1.9,0.3,2.7,0.8
	c0.4,0.2,0.8,0.5,1.2,0.8c0.4,0.3,0.7,0.7,0.9,1.1C38.2,26.9,38.3,27.9,38.2,28.8z"/>
<path style="fill:#554C6E;" d="M33.2,38.1c0,0-0.5,1.4,0.4,1.5c0.7,0,1.4-0.5,1.4-1.3c0,0,0,0,0,0v-0.1c0-0.5-0.1-1-0.5-1.4
	c-0.2-0.1-0.5-0.2-0.8-0.1c-0.2,0.1-0.6,0.4-0.5,0.5s0.1,0.3,0.4,0.1C33.6,37.6,33.5,37.9,33.2,38.1z"/>
<path style="fill:#3C2E55;" d="M34.4,36.7c0.1-0.2,0.4-0.3,0.6-0.2c0,0,0.1,0.1,0.1,0.1c0.1,0.1,0.1,0.2,0.1,0.4s-0.2,0.3-0.4,0.3
	c-0.4-0.2-0.5,0-0.5,0C34.3,37.1,34.3,36.9,34.4,36.7z"/>
<path style="fill:#2F2547;" d="M32.7,43.2c-0.5-0.2-0.8-0.6-1-1.1c-0.2-0.5-0.2-1-0.1-1.5c0.1-0.5,0.3-0.9,0.6-1.3
	c0.3-0.4,0.6-0.7,1-1c-0.1,0.9-0.3,1.8-0.6,2.6c-0.1,0.4-0.1,0.7-0.1,1.1C32.5,42.4,32.5,42.8,32.7,43.2z"/>
<path style="fill:#2F2547;" d="M33.4,35.7c0.2-0.3,0.5-0.5,0.9-0.6h0.4c0.2,0,0.3,0.1,0.4,0.2c0.2,0.2,0.3,0.4,0.3,0.7
	c0,0.5-0.4,1-0.9,1c0,0-0.1,0-0.1,0c-0.4,0.1-0.8-0.1-1-0.5c0.3,0,0.6-0.1,0.8-0.3c0.2-0.2,0.2-0.2,0.2-0.3v-0.1l0,0l-0.1-0.1
	C34,35.8,33.7,35.8,33.4,35.7z"/>
<ellipse style="fill:#645875;" cx="31.6" cy="19.2" rx="0.7" ry="0.6"/>
<ellipse transform="matrix(0.9204 -0.3909 0.3909 0.9204 -5.588 11.5217)" style="fill:#645875;" cx="25.5" cy="19.5" rx="1.1" ry="0.7"/>
<ellipse transform="matrix(0.968 -0.2511 0.2511 0.968 -4.0447 5.699)" style="fill:#645875;" cx="20.3" cy="18.7" rx="1.6" ry="0.8"/>
<path style="fill:#645875;" d="M13,20.7c0.7-0.4,2.7-0.5,2.4,0.2c-0.2,0.5-1.3,0.9-1.7,1.3s-0.7,0.9-1.1,0.5s-0.6-0.8-0.4-1.2
	C12.4,21.2,12.7,20.9,13,20.7z"/>
<path style="fill:#645875;" d="M11.4,26.6c0.1-0.3,0.4-0.7,0.7-0.6c0.4,0.2,0.6,0.6,0.5,1c-0.2,0.3-0.3,0.6-0.3,1
	c0.1,0.2-1.1,0.6-1.1-0.2C11.2,27.4,11.3,27,11.4,26.6z"/>
<path style="fill:#645875;" d="M12.5,32.1c0,0,0.7,0,0.7,0.5c0.1,0.4-0.3,0.8-0.7,0.9c-0.4,0-0.5-0.5-0.5-1S12.5,32.1,12.5,32.1z"/>
<path style="fill:#645875;" d="M16.1,36.2c0.6,0.3,0.8,0.9,0.6,1.5c-0.1,0.4-0.5,0.8-0.9,0.7c0,0-0.1,0-0.1,0
	c-0.5,0-0.9-0.1-1.3-0.3c-0.1-0.2-0.8-1.4-0.1-1.9C14.9,35.9,15.5,35.9,16.1,36.2z"/>
<path style="fill:#645875;" d="M19,41.1c0.4,0.1,0.7,0.5,0.7,0.9c0,0.7-0.3,1-1,1S18,42.3,18,41.7S19,41.1,19,41.1z"/>
<path style="fill:#645875;" d="M23.6,44.5c0,0,0.6,0.1,0.6,0.6s-0.2,0.5-0.5,0.5c-0.3,0-0.5-0.3-0.5-0.6
	C23.1,44.7,23.6,44.5,23.6,44.5z"/>
<path style="fill:#645875;" d="M37.9,20.5c0,0,0.7,0.1,0.7,0.7c0,0.4-0.3,0.8-0.7,0.8l0,0c-0.4,0-0.8-0.4-0.8-0.8
	C37,20.7,37.9,20.5,37.9,20.5z"/>
<path style="fill:#645875;" d="M40.2,24.7c0,0,1,0,1,0.8s-0.4,0.9-0.7,0.9c-0.4,0-0.8-0.4-0.9-0.8C39.6,25.1,40.2,24.7,40.2,24.7z"
	/>
<path style="fill:#645875;" d="M40.8,28.9c0.5,0.2,0.8,0.8,0.6,1.3c0,0,0,0,0,0c0,0.1,0,0.1-0.1,0.1c-0.3,0.3-0.6,0.7-1,0.4
	c-0.4-0.3-0.6-0.8-0.4-1.2C40.1,29.1,40.4,28.9,40.8,28.9z"/>
<path style="fill:#645875;" d="M27.5,15.3c0,0,0.7,0.1,0.7,0.5c0,0.4-0.2,0.8-0.5,0.8c-0.4,0-0.7-0.3-0.7-0.7c0,0,0-0.1,0-0.1
	C26.8,15.4,27.5,15.3,27.5,15.3z"/>
<path style="fill:#645875;" d="M16,17.5c0.4-0.3,0.9-0.7,1.2-0.5s-0.4,0.8-0.7,1c-0.2,0.2-0.5,0.2-0.8,0.1
	C15.6,18,15.6,17.7,16,17.5z"/>
<path style="fill:#645875;" d="M21.3,15.8c0.3-0.3,0.8-0.5,1.2-0.5c0.3,0.1-0.2,0.9-0.5,1c-0.3,0.2-0.7,0.2-1.1,0.2
	C20.6,16.4,21,16,21.3,15.8z"/>
<path style="fill:#5D516F;" d="M33.6,38.6c0,0,0.5-0.5,0.4-0.8c0-0.2-0.2-0.3-0.4-0.3c0,0-0.1,0-0.1,0c0,0,0.3-0.5,0.6-0.3
	s0.8,0.7,0.5,1.1c-0.3,0.4-0.7,0.8-1.2,1C33,39.4,33.6,38.6,33.6,38.6z"/>
<path style="fill:#706C8C;" d="M18.1,23c0,0,1.2-0.6,1.5-0.2s-0.2,1-0.8,1.2s-0.7,0.8-1.1,0.7s-0.8-0.6-0.5-1
	C17.5,23.4,17.8,23.2,18.1,23z"/>
<path style="fill:#706C8C;" d="M30.8,22.2c0.4-0.2,0.9-0.1,1.3,0.2c0.5,0.3,1,0.5,1.5,0.7c0.3,0.2,0.4,0.8-0.6,0.8
	c-0.7,0-1.3-0.1-1.9-0.4C30.9,23.2,30.2,22.4,30.8,22.2z"/>
<path style="fill:#645875;" d="M33.4,15.7c0.5-0.2,1.2-0.5,1.4-0.3s0.2,0.8-0.5,1s-1,0.4-1.3,0.2S32.6,16,33.4,15.7z"/>
<path style="fill:#645875;" d="M38.7,17.2c0,0,1.2,0,1.2,0.5s-0.5,0.6-1.1,0.6s-1-0.3-1-0.7S38.7,17.2,38.7,17.2z"/>
<path style="fill:#504264;" d="M30.2,38.8c0,0.2,0.1,0.5,0.3,0.5s0.5-0.7,0.7-1.4c0.1-0.7,0.6-1.2,1.2-1.4c0.7-0.2,1-0.3,1-0.5
	s0-0.4-0.9-0.2c-0.7,0.1-1.3,0.4-1.7,1c-0.3,0.5-0.5,1-0.7,1.6C30.1,38.5,30.1,38.7,30.2,38.8z"/>
<path style="fill:#3C2E55;" d="M19.6,38.1c1.3,1,2.8,1.7,4.4,2.1c0.8,0.2,1.6,0.2,2.4,0.2c0.8,0,1.5-0.1,2.2-0.5
	c0.5-0.3,0.8-1.2,1.2-1.9c0.4-0.8,0.9-1.5,1.5-2.2c0.2-0.2,0.4-0.3,0.7-0.4c0.2-0.1,0.5-0.1,0.7-0.1h0.7c0.2,0,0.3,0.1,0.4,0.2
	c0.1,0.1,0.2,0.3,0.2,0.5c0,0.3-0.1,0.5-0.3,0.7c-0.2,0.2-0.4,0.3-0.6,0.3c-0.4,0.1-0.9,0.1-1.3,0.1l1.2-0.3
	c0.2-0.1,0.3-0.2,0.4-0.3c0.1-0.1,0.1-0.3,0.1-0.5c0-0.2,0-0.1-0.2-0.2h-0.5c-0.2,0-0.4,0.1-0.6,0.2c-0.1,0.1-0.3,0.1-0.4,0.3
	c-0.5,0.6-0.9,1.3-1.2,2L30,39.5c-0.1,0.2-0.2,0.4-0.4,0.6c-0.2,0.2-0.4,0.4-0.6,0.6c-0.8,0.5-1.8,0.7-2.7,0.7
	C23.7,41.3,21.3,40.1,19.6,38.1z"/>
<path style="fill:#6A628C;" d="M22.8,34.3c1.2,0.6,2.6,0.9,4,0.8c1.3,0.1,2.5,0,3.7-0.4c0.4-0.1,0.8-0.2,0.1-0.2s-1.9,0.2-3.4,0.2
	c-1.2,0-2.4-0.2-3.6-0.5C22.9,34.2,22.8,34.2,22.8,34.3z"/>
<path style="fill:#4F446E;" d="M23.2,34.6l2.2,0.4c0.6,0.1,1.2,0.1,1.7,0.2s1.1,0,1.8,0.1c0.7,0.1,1.4,0.1,2.2,0
	c-0.4,0.5-1,0.7-1.6,0.7c-0.9,0.2-1.8,0.2-2.6,0.1c-0.9,0-1.7-0.2-2.5-0.6C23.8,35.4,23.4,35.1,23.2,34.6z"/>
<path style="fill:#554C6E;" d="M15.7,39.9c-0.4,1-0.2,2,0.3,2.9c0.4,0.7,1.1,1.3,1.9,1.6c0.3,0.1,0.8-0.1,0-0.8s-1.4-0.9-1.6-1.7
	S16.1,39.9,15.7,39.9z"/>
<path style="fill:#554C6E;" d="M12.4,36.8c0.3,1,0.8,1.8,1.6,2.5c1.1,0.6,0.1-0.5-0.4-1.2s-0.3-1.8-0.4-2.1s-0.2-1-0.4-1
	S12.2,35.6,12.4,36.8z"/>
<path style="fill:#554C6E;" d="M19.2,45c-0.1,0-0.1,0.8,0.5,1.5c0.5,0.6,1.2,1.1,1.9,1.4c0.6,0.1,1.2-0.3,0.6-0.5
	c-0.7-0.1-1.3-0.4-1.8-0.8C20,45.9,19.8,45,19.2,45z"/>
<path style="fill:#554C6E;" d="M22.9,48.5c-0.2-0.1-0.3-0.5-0.5-0.3s0,0.5,0.4,0.8c0.5,0.4,1.1,0.5,1.7,0.5c0.6,0,1.2-0.1,1.7-0.3
	c0.3-0.2,0.3-0.6-0.1-0.5c-0.5,0.2-1,0.3-1.5,0.3C24,48.9,23.4,48.8,22.9,48.5z"/>
<path style="fill:#554C6E;" d="M38.6,34.6c0,0-0.5,1.5,0,2.1s0.9,0.1,1.1-0.7s0.4-1.3,0.1-1.7s-0.5-0.8-0.7-0.5
	C38.9,34,38.7,34.3,38.6,34.6z"/>
<path style="fill:#554C6E;" d="M42.3,19.8c-0.1,0.3,0,0.5,0.2,0.7c0.5,0.4,0.9,1,1.1,1.6c0.1,0.5,0.1,1.1,0,1.6
	c-0.1,0.2,0.1,0.5,0.2,0.2c0.3-0.5,0.4-1,0.4-1.5c0-0.7-0.3-1.4-0.7-2C43.1,20.1,42.4,19.6,42.3,19.8z"/>
<path style="fill:#3C2E55;" d="M42.4,19.7c0.3,0.2,0.4,0.7,0.2,1c-0.3,0.4-0.9,0.6-1.4,0.4c0-0.3,0-0.6,0.1-0.9
	C41.6,20,42,19.8,42.4,19.7z"/>
<path style="fill:#554C6E;" d="M28.9,43.7c0,0,0.6,2.1,2.3,2.3s2.6-1,2.1-1.6c-0.6-0.7-1.5-0.9-2.3-0.6C30.3,44,29.6,44,28.9,43.7z"
	/>
<path style="fill:#3C2E55;" d="M19.5,38.4c0.4,1.2,1.2,2.2,2.3,2.9c1,0.7,2.1,1.3,3.2,1.8c0.5,0.2,1.1,0.4,1.7,0.4
	c0.6,0.1,1.2,0.1,1.8,0c0.6-0.1,1.2-0.2,1.8-0.4c0.6-0.2,1.1-0.5,1.6-0.9c-0.8,1.1-2,1.9-3.3,2.1c-0.7,0.2-1.3,0.2-2,0.2
	c-0.7,0-1.4-0.2-2-0.5c-1.2-0.5-2.4-1.2-3.4-2.1c-0.5-0.4-1-1-1.3-1.6C19.7,39.7,19.5,39,19.5,38.4z"/>
<path style="fill:#564969;" d="M32.2,37.8c0.2-0.2,0.7-0.4,0.8-0.1s0.3,0.5-0.2,0.9s-0.8,0.4-1,0.2S32,37.9,32.2,37.8z"/>
<path style="fill:#2F2547;" d="M32.5,37.1c-0.1,0.3-0.2,0.7-0.4,1c-0.1,0.3,0,0.2,0,0.3s0,0,0.1,0h0.1c0.1,0,0.2,0,0.3-0.1
	c0.3-0.2,0.6-0.4,0.9-0.5c0,0.4-0.2,0.8-0.4,1.2c-0.2,0.2-0.4,0.4-0.6,0.5c-0.3,0.1-0.6,0-0.9-0.1c-0.3-0.2-0.5-0.5-0.5-0.8
	c0-0.3,0.1-0.5,0.3-0.7C31.6,37.5,32,37.2,32.5,37.1z"/>
<path style="fill:#3C2E55;" d="M33.2,37.5c0.2,0.1,0.3,0.1,0.3,0.2c0.1,0,0.1,0,0.1,0.1h-0.1c-0.1,0-0.2,0.1-0.3,0.2
	c-0.2,0.1-0.3,0.1-0.5,0l-0.2-0.2c0-0.1,0-0.2,0.1-0.2C32.8,37.5,33,37.5,33.2,37.5z"/>
<path style="fill:#564969;" d="M27.2,49.7c1.6,0.4,3.4-0.1,4.6-1.2c-0.2,0.9-0.9,1.5-1.8,1.6C29.1,50.4,28,50.2,27.2,49.7z"/>
<path style="fill:#3C2E55;" d="M26.5,48c0.1,0.6,0.5,1.2,1.1,1.4c0.6,0.2,1.2,0.3,1.8,0.2c0.6,0,1.1-0.2,1.6-0.5
	c0.5-0.4,0.8-1,0.9-1.7c0.3,0.8,0.1,1.6-0.4,2.2c-0.5,0.6-1.3,1-2.1,1c-0.8,0.1-1.6-0.1-2.2-0.6C26.5,49.6,26.2,48.7,26.5,48z"/>
<path style="fill:#554C6E;" d="M31.6,46.4c0,0,2.2,1.7,3.6,0.3c0.8-0.8,1.3-1.9,1.2-3h0.5c0,0,0.5,2.3-1,3.2s-2.5,1.1-3.2,0.7
	C32.2,47.3,31.8,46.9,31.6,46.4z"/>
<path style="fill:#554C6E;" d="M38.5,42.5c0,0,0.5,2.4-0.7,3.2s-1.2,0.6-1.2,0.6c0.8,0.1,1.5-0.2,2-0.8
	C39.2,44.6,39.1,43.4,38.5,42.5z"/>
<path style="fill:#554C6E;" d="M40.5,39.2l0.6-0.1c0,0,0.6,2-0.2,2.9c-0.4,0.4-0.8,0.8-1.2,1.2c0.5-0.8,0.8-1.6,1.1-2.4
	C40.9,40.2,40.8,39.7,40.5,39.2z"/>
<path style="fill:#554C6E;" d="M40.2,33.9c1.1,0.2,2.2,1.2,2.1,2.3c-0.3,1.1-0.8,2.1-1.5,3c0,0,0.8,0.3,1.5-1c0.7-0.9,0.9-2,0.6-3.1
	c-0.2-0.7-0.9-1.2-1.6-1.2H40.2z"/>
<path style="fill:#554C6E;" d="M43.6,29.5c0.7,0.5,1,1.4,0.9,2.2c-0.2,1.5-0.4,1.9-1,2.4s-0.8,0.5-0.8,0.5l-0.2-0.2
	c0.8-0.5,1.3-1.3,1.3-2.2C44,30.5,43.9,29.8,43.6,29.5z"/>
<path style="fill:#554C6E;" d="M43,24.6l0.7-0.2c0.7,0.5,1.1,1.3,1.3,2.1c0.1,1.2-0.2,2.3-1,3.2c0,0,0.8-2.3,0.4-3.4
	C44.1,25.6,43.6,25,43,24.6z"/>
<path style="fill:#3C2E55;" d="M42.9,34.7c-0.3,0-0.5-0.1-0.8-0.2c-0.3-0.2-0.5-0.4-0.7-0.7c0.4-0.3,0.9-0.3,1.3-0.1l0.1,0.1
	C43,34.1,43.1,34.4,42.9,34.7z"/>
<path style="fill:#3C2E55;" d="M41.2,39.1c0,0.4-0.3,0.7-0.7,0.7s-0.7-0.3-0.7-0.7c0.2-0.2,0.4-0.3,0.7-0.4
	C40.7,38.6,40.8,38.8,41.2,39.1z"/>
<path style="fill:#3C2E55;" d="M31.5,46.2c0.4,0.6,1,1,1.7,1.1c0.6,0,1.3-0.2,1.8-0.5c0.6-0.3,1.1-0.7,1.5-1.2
	c0.3-0.6,0.5-1.3,0.4-2c0.5,0.7,0.5,1.6,0.2,2.3c-0.3,0.8-0.9,1.4-1.7,1.8c-0.3,0.2-0.7,0.3-1.1,0.4c-0.4,0.1-0.9,0.1-1.3-0.1
	C32.2,47.8,31.6,47,31.5,46.2z"/>
<path style="fill:#554C6E;" d="M35.8,46.9c0,0,0.7-0.6,0.8-0.7c0,1.1-0.6,2.2-1.5,2.8c-0.9,0.5-2.1,0.5-3-0.1
	c-0.1-0.1,0-0.6,0.2-0.6s1.3,0.9,2.2,0.4C35.1,48.3,35.6,47.6,35.8,46.9z"/>
<path style="fill:#3C2E55;" d="M32.4,48.9c-0.3,0.3-0.5,0.2-0.6,0.1s-0.2-0.3,0.1-0.7c0.2-0.1,0.4-0.1,0.6-0.1
	C32.6,48.2,32.5,48.5,32.4,48.9z"/>
<path style="fill:#554C6E;" d="M38,39.3c-0.3,0.6-0.5,1.3-0.7,2c0,0.2,0.1,0.3,0.3,0.4c0.1,0,0.2,0,0.3-0.1c0.2-0.4,0.4-0.8,0.5-1.2
	c0.2,0.8-0.1,1.7-0.7,2.3c-1.1,0.8-0.2,0.6,0,0.5c0.4-0.3,0.8-0.7,1-1.2C38.9,41.3,39.2,39.8,38,39.3z"/>
<path style="fill:#564969;" d="M25.7,47.1c0.3,0,0.7,0,1,0.1c0.6,0.7,1.5,1,2.4,1c0.9-0.1,1.9-0.4,2.7-0.8c0.2-0.1,0.5,0.2,0,0.6
	C31,48.5,30,48.9,29,48.9C27.6,49,26.4,48.3,25.7,47.1z"/>
<path style="fill:#3C2E55;" d="M18.7,39.9c-0.7,0.6-1,1.5-0.8,2.4c0.3,0.8,0.9,1.5,1.6,2c0.6,0.6,1.5,0.7,2.2,0.4
	c0.6-0.6,1-1.3,1.2-2.1l0.8,0.3c-0.5,0.7-0.6,1.7-0.3,2.5c0.2,0.3,0.5,0.6,0.9,0.7c0.5,0.2,0.9,0.3,1.4,0.4c0.5,0.1,0.9,0.2,1.4,0.2
	c0.2,0,0.4-0.1,0.6-0.1s0.4-0.1,0.5-0.2c0.7-0.5,0.8-1.4,0.4-2.1l0.9-0.4c0.3,0.6,0.8,1.2,1.4,1.6c0.6,0.4,1.2,0.5,1.9,0.4
	c0.7-0.1,1.3-0.4,1.8-0.9c0.5-0.5,0.7-1.3,0.7-2v-1.2l0.6,1c0.2,0.5,0.8,0.7,1.3,0.6c0.5-0.3,1-0.7,1.3-1.2c0.4-0.5,0.5-1.1,0.5-1.7
	c-0.2-0.6-0.7-1.1-1.3-1.3c0.7,0.1,1.2,0.6,1.5,1.2c0.2,0.7,0.1,1.4-0.3,2c-0.3,0.6-0.8,1.2-1.4,1.5c-0.4,0.2-0.8,0.2-1.2,0
	c-0.4-0.2-0.7-0.4-0.9-0.8l0.6-0.2c0,0.9-0.2,1.7-0.8,2.4c-0.6,0.7-1.3,1.1-2.2,1.3c-0.9,0.2-1.8,0-2.6-0.5
	c-0.7-0.5-1.3-1.2-1.7-1.9l0.9-0.4c0.3,0.5,0.4,1.1,0.3,1.7c-0.1,0.6-0.5,1.2-1,1.6c-1,0.6-2.2,0.7-3.3,0.3c-0.5-0.1-1-0.3-1.5-0.5
	c-0.6-0.2-1.1-0.6-1.4-1.2c-0.2-0.6-0.3-1.2-0.1-1.8c0.1-0.5,0.3-1,0.6-1.5l1.6-2.7l-0.8,3c-0.1,0.5-0.3,1-0.6,1.4
	c-0.3,0.5-0.6,0.8-1.1,1.1c-0.5,0.3-1.1,0.3-1.6,0.1c-0.5-0.2-0.9-0.4-1.3-0.7c-0.8-0.6-1.3-1.4-1.6-2.3
	C17.5,41.4,17.9,40.4,18.7,39.9z"/>
<path style="fill:#3C2E55;" d="M25.8,47.1c0.4,0.4,0.9,0.8,1.4,1c0.5,0.2,1.1,0.3,1.6,0.3c0.6,0,1.1,0,1.7-0.2
	c0.6-0.1,1.1-0.4,1.5-0.8c-0.2,0.7-0.6,1.2-1.3,1.5c-0.6,0.3-1.3,0.4-2,0.4c-0.7,0-1.4-0.2-1.9-0.6C26.3,48.3,25.9,47.7,25.8,47.1z"
	/>
<path style="fill:#4C3E6B;" d="M24.2,59.5c-1.1,0.4-2,0.9-2.9,1.3H36l-9.6-3C26.5,58.2,26,58.8,24.2,59.5z"/>
<path style="fill:#645875;" d="M25.7,57.6l0.7,0.2c-0.1-0.2-0.3-0.4-0.5-0.5v0.3H25.7z"/>
<path style="fill:#554C6E;" d="M20.1,60c0,0-0.6,0.7,0.3,0.7h1c0.8-0.4,1.8-0.8,2.9-1.3c1.8-0.7,2.2-1.3,2.1-1.7l-0.7-0.2L20.1,60z"
	/>
</svg>
