<?xml version="1.0" encoding="utf-8"?>
<!-- Generator: Adobe Illustrator 22.0.0, SVG Export Plug-In . SVG Version: 6.00 Build 0)  -->
<svg version="1.1" id="Слой_1" xmlns="http://www.w3.org/2000/svg" xmlns:xlink="http://www.w3.org/1999/xlink" x="0px" y="0px"
	 viewBox="0 0 55.8 62.9" style="enable-background:new 0 0 55.8 62.9;" xml:space="preserve">
<title>Artboard 1 копия 14</title>
<g id="Слой_17">
	<path style="fill:#C95251;" d="M22,61.3h-0.9c-0.6,0-0.8-0.3-0.9-0.5c-0.2-0.5,0.3-1,0.4-1.1l5.3-3.5v-5.3l0,0
		c-0.4,0-0.9,0-1.3-0.1c-1.2-0.2-2.2-1.2-2.4-2.4c0-0.1-0.1-0.2-0.1-0.3c0-0.3,0-0.7,0-1c0-0.3,0-0.6,0.1-0.8v-0.3
		c-0.4-0.8-0.7-1.6-0.9-2.5c-0.2-0.5-0.3-1-0.5-1.5c-0.4,0-0.7-0.1-1.1-0.2c-0.2,0-0.4-0.1-0.6-0.2c-0.8-0.1-1.6-0.4-2.3-0.8
		c-0.8-0.4-1.7-0.9-2.4-1.5c-1.4-1-3.5-3.3-3.6-4.8c0-0.1,0-0.3,0-0.4V34c0-0.2,0.1-0.3,0.2-0.5l0.1-0.1l0,0
		c0.1-0.2,0.3-0.3,0.6-0.3h0.2h0.2l0,0c-0.1-0.7,0-1.4,0.4-2l0.1-0.2l0.1-0.1l0.4,0.4l-0.2-0.4l0.1,0l0.2-0.1h0.1h0.2
		c0.1,0,0.2,0.1,0.4,0.1c0.3,0.2,0.5,0.4,0.7,0.7c0.1,0.1,0.2,0.5,0.3,0.8l0.1-0.2c0.5-0.5,1.1-0.7,1.8-0.7c0.4,0,0.7,0.1,1,0.3
		c-0.1-0.3-0.2-0.7-0.3-1.1c-0.1-0.9,0.1-1.9,0.5-2.7v-0.1c0.1-0.1,0.2-0.3,0.2-0.4l0-0.2c-0.2-0.4-0.3-0.8-0.5-1.2
		c-0.1-0.1-0.1-0.2-0.1-0.4c0-0.2-0.1-0.4-0.1-0.5c-0.2-1-0.3-2-0.1-3c0-0.7,0.1-1.4,0.3-2c0-0.7,0.2-1.3,0.5-1.9
		c0.3-0.7,0.7-1.4,1.3-1.9c0.8-0.9,1.9-1.4,3.1-1.5c0.4-0.1,0.7-0.1,1.1-0.1h0.1c0.3,0,0.6,0,0.8,0h0.1l0.5,0.1h0.1
		c0.1-0.1,0.2-0.1,0.3-0.2c0.1-0.1,0.3-0.1,0.4-0.2l0.2-0.1c0.2-0.1,0.4-0.1,0.6-0.1l0.4-0.2c0.3-0.2,0.6-0.4,0.8-0.6
		c0.1-0.1,0.1-0.2,0.1-0.3c-0.1-0.1-0.2-0.2-0.3-0.3l-0.2,0.1c-0.3,0.3-0.8,0.6-1.3,0.6h-0.1c-0.7-0.1-1.6-1.3-1.6-1.3l-0.1-0.1
		c-0.3-0.3-0.4-0.7-0.5-1.1c0-0.1,0-0.3,0-0.4l0,0c0-0.1,0-0.1,0-0.2c0-0.1,0-0.1,0-0.2c0-0.6,0.5-1,0.8-1.1L24.6,9l0.3-0.2
		c1.2-0.6,2.6-1,3.9-1c0.6,0,1.2,0.1,1.8,0.1c2.4,0.4,3.2,2.7,3.5,3.5l0.1,0.2c0.4,0.6,0.9,1.2,1.4,1.8c0.3,0.3,0.7,0.4,1.1,0.6
		c0.4,0,0.8-0.1,1.3-0.1c1.4,0,2.7,0.4,3.7,1.3c3.1,2.9,2.5,8.5,2.3,10.4c0,0,0,0.1,0,0.1c0,0.2,0,0.5-0.1,0.6c1,1.1,2,3.1-0.2,6.2
		c-0.1,0.6-0.5,2.2-0.9,3.3l0,0c0.2,0.1,0.5,0.3,0.6,0.5c0.4,0.4,0.7,0.7,1,1.2c0.1,0.1,0.2,0.3,0.3,0.5c0.6,0.9,0.7,2,0.3,3.1
		c-0.2,0.8-0.5,1.5-1,2.1l-0.1,0.1c-0.2,0.4-0.6,0.7-1,1l-0.2,0.1c-1,0.6-2.2,0.9-3.4,0.9l0,0c-0.3,0-0.7,0-1-0.1
		c-0.3,0.4-0.7,0.8-1.1,1.2c-0.4,0.4-0.8,0.8-1.3,1.2l-0.2,0.2l-0.1,0.1c-0.7,0.6-1.4,1.1-2.2,1.5h-0.1l0,0c0,0,0,0-0.1,0.1L33.2,56
		c1,0.6,4.9,3.1,5.5,3.5c0.4,0.3,0.6,0.6,0.5,0.9c-0.1,0.3-0.4,0.6-0.7,0.6h-0.1C38.3,61.1,25.5,61.3,22,61.3z M19,36.4h0.6
		c-0.3-1.1-0.4-2.1-0.5-2.7L19,33.4c-0.2-0.1-0.5-0.2-0.7-0.4c0.2,0.4,0.2,0.8,0,1.2C18.9,34.7,19.1,35.6,19,36.4z M16.4,35L16.4,35
		l-0.1-0.1L16.4,35z"/>
	<path style="fill:#FFFFFF;" d="M28.7,8.3c0.6,0,1.1,0.1,1.7,0.1c2.3,0.4,2.9,2.8,3.1,3.3c0.4,0.7,0.9,1.4,1.6,2
		c0.4,0.3,0.9,0.5,1.3,0.7c0.4,0,0.9-0.1,1.3-0.1c1.2,0,2.4,0.4,3.4,1.2c2.8,2.6,2.5,7.5,2.2,10c0,0,0,0.1,0,0.1
		c0,0.3-0.1,0.5-0.1,0.8l0,0c2.5,2.4,0.3,5.2-0.1,5.8c-0.3,1.3-0.6,2.5-1,3.7c0.1,0.1,0.3,0.1,0.4,0.2l0,0c0.2,0.1,0.4,0.3,0.5,0.4
		c0.3,0.3,0.6,0.7,0.9,1.1c0.1,0.1,0.1,0.2,0.2,0.4l0.1,0.1c0.5,0.8,0.5,1.8,0.2,2.6c-0.2,0.7-0.4,1.4-0.9,2l-0.1,0.1
		c-0.2,0.3-0.5,0.6-0.8,0.8l0,0l-0.1,0.1c-0.9,0.6-2,0.8-3.1,0.8c-0.5,0-0.9,0-1.3-0.1c0,0,0,0.2-0.1,0.3s-0.5,0.6-1,1.1
		c-0.4,0.4-0.8,0.8-1.3,1.1l-0.2,0.1h-0.1c-0.7,0.6-1.4,1-2.2,1.4l0,0c-0.2,0.1-0.3,0.2-0.5,0.3l-0.1,7.3c0,0,5,3.2,5.7,3.6
		s0,0.7,0,0.7S25.5,60.7,22,60.7h-0.9c-1,0-0.2-0.8-0.2-0.8l5.5-3.5v-6.1c-0.2,0-0.4,0-0.5,0c-0.4,0-0.8,0-1.2-0.1c-1-0.2-1.8-1-2-2
		l0,0c0-0.1-0.1-0.2-0.1-0.3c0-0.3,0-0.6,0-0.9c0-0.3,0-0.6,0.1-0.8s0.1-0.5,0.1-0.5c-0.4-0.8-0.8-1.6-1-2.5l0,0
		c-0.2-0.6-0.4-1.2-0.6-1.8c-0.5,0-0.9-0.1-1.4-0.2c-0.2,0-0.4,0-0.5-0.1l0,0h-0.1c-0.8-0.1-1.5-0.4-2.2-0.8
		c-0.8-0.4-1.6-0.9-2.3-1.4c-1.5-1-3.3-3.3-3.4-4.5c0-0.1,0-0.2,0-0.3v-0.1c0-0.1,0.1-0.2,0.1-0.3l0,0l0,0l0,0
		c0.1-0.1,0.2-0.2,0.3-0.2h0.2c0.1,0,0.1,0,0.2,0.1c0.3,0.3,0.5,0.5,0.7,0.8c0,0,0,0,0-0.1v-0.1c-0.1-0.4-0.1-0.8-0.2-1.2l0,0
		c-0.1-0.6,0-1.2,0.3-1.8l0,0l0.1-0.1l0,0l0,0l0,0h0.1l0,0h0.1h0.2c0.1,0,0.1,0,0.2,0.1c0.2,0.1,0.4,0.3,0.5,0.5
		c0.1,0.2,0.6,1.8,0.6,1.8v-0.1c0.1-0.2,0.2-0.4,0.3-0.5l0,0c0.1-0.2,0.2-0.3,0.3-0.5c0.4-0.4,0.9-0.6,1.4-0.6
		c0.5,0,0.9,0.3,1.1,0.7c0.5,1,0.5,1.4,0,1.7l0.2,0.1c0.7,0.6,0.9,1.6,0.7,2.5l0,0c0.3,0.1,0.5,0.2,0.8,0.2c0.3,0,0.6,0,0.9-0.1
		c-0.5-2-0.7-3.6-0.7-3.8l0,0c-0.7-0.3-1.3-0.5-1.7-2.5c-0.1-0.8,0.1-1.6,0.5-2.3c0.1-0.3,0.3-0.5,0.4-0.7c-0.2-0.5-0.5-1.1-0.7-1.8
		c0-0.1-0.1-0.1-0.1-0.2c0-0.2-0.1-0.4-0.1-0.6c-0.2-1-0.3-1.9-0.1-2.9c0.1-0.8,0.3-1.5,0.6-2.2c0-0.6,0.2-1.2,0.4-1.7
		c0.2-0.7,0.6-1.3,1.2-1.8c0.7-0.8,1.7-1.3,2.7-1.4l0,0c0.4-0.1,0.7-0.1,1.1-0.1l0,0c0.3,0,0.6,0,0.9,0.1l0,0l0.5,0.1
		c0.1,0,0.2,0,0.3-0.1c0.1-0.1,0.2-0.1,0.3-0.2c0.1-0.1,0.2-0.1,0.3-0.1c0.2-0.1,0.5-0.1,0.7-0.2l0.5-0.2c0.4-0.2,0.7-0.4,1-0.7
		c0.3-0.4,0.3-0.9-0.1-1.3c-0.1-0.1-0.3-0.2-0.5-0.2l0,0c-0.1,0-0.1,0-0.2,0.1l0,0L27,12.5L27,12.5C26.7,12.8,26.4,13,26,13H26
		c-0.3,0-1.1-0.9-1.3-1.1c-0.3-0.3-0.4-0.6-0.5-1c0-0.2,0-0.3,0-0.5v-0.1c0,0,0-0.1,0-0.1l0,0c0,0,0,0,0-0.1c0-0.4,0.4-0.7,0.6-0.8
		L25,9.4l0.3-0.2c1.1-0.6,2.4-0.9,3.7-0.9 M16.5,35.7c0.3,0,0.4-0.5,0.4-0.8c0-0.1,0-0.1,0-0.2h-0.1c-0.2,0-0.3-0.2-0.4-0.4v-0.1
		l0,0c0-0.1,0-0.2,0-0.4c0,0,0-0.1,0-0.1l0,0c0-0.1-0.1-0.1-0.1-0.1c-0.2,0-0.3,0.1-0.5,0.2c-0.3,0.4-0.3,1.1,0,1.5
		C16.1,35.6,16.3,35.7,16.5,35.7 M28.7,7.3L28.7,7.3c-1.4,0-2.8,0.4-4,1l-0.2,0.1l-0.3,0.2l-0.2,0.1c-0.6,0.3-1,1-1,1.6
		c0,0,0,0.1,0,0.1c0,0,0,0.1,0,0.1c0,0.1,0,0.1,0,0.2c0,0.1,0,0.3,0,0.4c0,0.5,0.3,1,0.6,1.4l0.1,0.1c0.4,0.6,1,1.1,1.6,1.4
		c-0.1,0-0.3,0.1-0.4,0.2l-0.2,0.1h-0.3h-0.1c-0.3,0-0.5,0-0.8,0h-0.2c-0.4,0-0.8,0-1.2,0.1c-1.3,0.1-2.5,0.7-3.4,1.7
		c-0.6,0.6-1.1,1.2-1.4,2c-0.3,0.6-0.5,1.3-0.5,2c-0.2,0.7-0.3,1.3-0.3,2c-0.1,1.1-0.1,2.1,0.1,3.2c0,0.1,0.1,0.3,0.1,0.5
		c0,0.2,0.1,0.3,0.1,0.5c0.1,0.5,0.3,0.9,0.5,1.2l-0.1,0.2v0.1c-0.5,0.9-0.7,2-0.6,3v0.2h-0.3c-0.6,0-1.2,0.2-1.7,0.5l-0.1-0.1
		c-0.2-0.4-0.5-0.7-0.9-0.9c-0.1-0.1-0.3-0.1-0.4-0.2h-0.1h-0.2h-0.1h-0.2l-0.2,0.1l-0.1,0.1l-0.1,0.1l-0.1,0.1l-0.1,0.1l-0.1,0.1
		L12,30.7l-0.1,0.1c-0.3,0.5-0.5,1.1-0.4,1.8c-0.3,0.1-0.6,0.2-0.8,0.5l-0.1,0.1l-0.1,0.1l-0.1,0.1c-0.1,0.2-0.2,0.4-0.2,0.6v0.2
		c0,0.2,0,0.3,0,0.5c0.2,1.7,2.4,4.1,3.8,5.2c0.8,0.6,1.6,1.1,2.5,1.5c0.8,0.4,1.6,0.7,2.5,0.9c0.2,0.1,0.4,0.1,0.7,0.1l0.8,0.1
		c0.1,0.4,0.3,0.8,0.4,1.2c0.2,0.8,0.5,1.6,0.9,2.3v0.2c0,0.2-0.1,0.5-0.1,0.9c0,0.4,0,0.7,0,1.1c0,0.1,0,0.3,0.1,0.4
		c0.3,1.4,1.4,2.5,2.8,2.8c0.3,0,0.6,0.1,0.9,0.1v4.6l-5,3.3l-0.1,0.1c-0.5,0.4-0.7,1-0.5,1.6c0.2,0.6,0.8,0.9,1.4,0.8H22
		c3.5,0,16.4-0.1,16.5-0.1h0.2c0.5-0.1,0.9-0.5,1.1-1c0.1-0.6-0.2-1.2-0.8-1.5c-0.6-0.4-4-2.5-5.3-3.3l0.1-6.3
		c0.8-0.4,1.6-0.9,2.3-1.5l0.1-0.1l0.2-0.2c0.4-0.4,0.9-0.8,1.3-1.3c0.5-0.5,0.8-0.8,0.9-1c0.3,0,0.5,0,0.8,0c1.3,0,2.6-0.3,3.7-1
		l0.1-0.1h0.1c0.4-0.3,0.8-0.7,1.1-1.1l0.1-0.1c0.5-0.7,0.8-1.5,1-2.3c0.4-1.1,0.3-2.3-0.3-3.3l0,0c-0.1-0.1-0.1-0.3-0.2-0.4v0
		c-0.3-0.4-0.6-0.8-1-1.2c-0.1-0.1-0.3-0.3-0.4-0.4c0.3-1,0.6-2.2,0.8-2.8c2.3-3.2,1.3-5.4,0.3-6.6c0-0.2,0-0.3,0-0.5s0-0.1,0-0.1
		c0.2-2,0.8-7.7-2.5-10.8l0,0c-1.1-0.9-2.5-1.4-4-1.4c-0.4,0-0.8,0-1.2,0.1c-0.3-0.1-0.6-0.2-0.8-0.4c-0.5-0.5-0.9-1-1.3-1.6l0-0.2
		c-0.3-0.8-1.1-3.4-3.8-3.8c-0.6-0.1-1.2-0.1-1.8-0.1L28.7,7.3z"/>
	<path style="fill:#912327;" d="M26.4,50.1v6.4L20.9,60c0,0-0.8,0.7,0.2,0.8s17.3-0.1,17.3-0.1s0.7-0.2,0-0.7s-5.7-3.6-5.7-3.6
		l0.1-7.5c2.1-0.9,3.9-2.5,5.2-4.4c1.7,0.2,3.9,0.2,5.1-1.2c1.5-1.5,1.8-3.7,0.8-5.5c-0.5-0.7-1.1-1.3-1.9-1.7
		c0.4-1.2,0.7-2.5,1-3.7c0.4-0.6,2.7-3.4,0.1-5.8c0.2-2,1.2-7.9-2.1-10.9c-1.3-1-3.1-1.4-4.7-1.1c-0.5-0.1-0.9-0.4-1.3-0.7
		c-0.6-0.6-1.1-1.3-1.6-2c-0.2-0.5-0.8-3-3.1-3.3C28.5,8,26.6,8.3,25,9.1c-0.9,0.6-1.2,1-1,1.3s1.8,2.6,2.1,2.5s0.8-0.6,1-0.6
		c0.5,0,0.9,0.4,0.9,0.9c0,0.2-0.1,0.4-0.2,0.6c-0.5,0.5-1.1,0.9-1.9,1c-0.4,0-0.8,0.2-1,0.5c0,0-2.8-0.7-4.7,0.7
		c-1.4,0.9-2.2,2.4-2.2,4.1c-0.8,2.4-0.6,5.1,0.6,7.4c-0.9,1.1-1.1,2.6-0.7,4c0.4,0.6,0.9,1.2,1.5,1.6c0.1,0.7,0.5,3.3,0.7,3.8
		c-0.6,0.2-1.2,0.2-1.8,0c0.3-0.9,0-1.9-0.7-2.5c-0.4-0.2-1,0-0.9,0.5s-0.3,1.4-1,0.4c-0.3-0.4-0.3-1.1,0-1.5c0.2-0.2,0.7-0.4,0.6,0
		s-0.1,1.3,0.7,0.8s1-0.8,0.4-2s-2.1-0.5-2.5-0.1c-0.3,0.3-0.5,0.6-0.7,1c0,0-0.4-1.6-0.6-1.8s-0.9-1.1-1.3,0.1
		c-0.2,0.9-0.1,1.8,0.1,2.7c0,0,0,0.1,0,0.1c-0.4-0.5-0.7-1.3-1.3-0.7s0.2,2,0.9,2.8c2.1,2.8,5.3,4.6,8.8,4.9
		c0.4,1.5,0.9,2.9,1.6,4.3c-0.1,0.9-0.8,3.6,1.9,4.4C25.2,50.3,25.8,50.3,26.4,50.1z"/>
	<path style="fill:#912327;" d="M42.4,36.1c-0.1,0-0.3,0.3,0,0.7s2.5,3.2,0.4,5.4c-0.8,0.9-1.9,1.6-3,2c-0.5,0.1-0.8,0.4-0.1,0.3
		s2.7-0.2,3.7-1.7s1.5-3.5,0.7-4.7C43.7,37.4,43.1,36.7,42.4,36.1z"/>
	<path style="fill:#C2312B;" d="M40.3,37.2c-0.4,0.7,0,2.6,0,2.6c-0.1,0.2-0.4,0.2-0.6,0c0,0,0,0,0,0c-0.4-0.3-2,1.5-2,2.5
		s-1.9,1.8,1.2,1.5c1.8-0.3,3.2-1.7,3.5-3.5c0.2-1-0.1-2-0.8-2.7c-0.3-0.4-0.5-0.4-0.4-0.9S40.7,36.5,40.3,37.2z"/>
	<path style="fill:#912327;" d="M41.9,27c0,0-0.1-0.3,0.4-0.3c0.5,0,0.9,0.3,1.3,0.6c0.4,0.6,0.5,1.3,0.3,2
		c-0.2,0.7-0.3,1.5-0.5,1.6s-0.4,0-0.2-0.5c0.3-0.7,0.5-1.4,0.4-2.1c-0.2-0.6-0.2-0.9-0.6-1c-0.3-0.1-0.6-0.2-0.8-0.1L41.9,27z"/>
	<path style="fill:#912327;" d="M43,24.3c0.1-1,0.1-2,0-2.9c-0.2-0.7-0.5-4.3-2.2-5.4C40,15.2,39,14.8,38,14.8
		c-0.8,0-1.6-0.2-2.4-0.5c-0.5-0.3-1-0.7-1.5-1.1c-0.4-0.5-0.8-1.1-1.1-1.7c-0.2-0.5,0.2-0.2,0.3,0c0.4,0.7,0.9,1.4,1.4,2.1
		c0.9,0.6,1.9,0.9,3,1c1,0,2.1,0.3,2.9,0.9c0.6,0.5,1.9,1.1,2.5,4.3c0.2,1.7,0.2,3.3,0.1,5C43.2,25.1,42.9,24.7,43,24.3z"/>
	<path style="fill:#C2312B;" d="M37.8,17c0,0-0.5-0.2-0.2,0.1s2,1.3,2.3,2.4s0.8,2.6,0.9,2.8c0.1,0.1,0.3,0.2,0.4,0.1
		c0.1-0.1,0.1-0.1,0.1-0.2c0-1.3-0.6-2.6-1.5-3.5C39.2,18,38.5,17.4,37.8,17z"/>
	<path style="fill:#C2312B;" d="M36.9,23.1c0.2,0,0.3-0.1,0.3-0.3c0.4-1.9-0.5-3.8-2.2-4.7c-3.1-1.7-4.8,0-5.3,0.6
		c-1,0.8-1.6,2.1-1.4,3.4c0.3,1.7,0.6,3.3,1.5,3.6c0-0.2,0.1-0.4,0.8-0.8s1.3-0.8,1.3-0.8c-0.3,0.6-0.3,1.3,0,1.9
		c-0.6,0-1.5,0-1.7-0.1s0,0.3,0.4,0.4s4.5,0,5,0c1.3,0,2.7-0.1,4-0.2c-1.4,0.5-2.8,0.8-4.2,1.1c-0.7,0.1-1.1,0.1-0.9,0.3
		c1.5,0,3-0.2,4.4-0.7c1.4-0.6,2.2-1,2.3-1.1s0.2-0.4,0-0.4c-0.2,0.1-0.4,0.2-0.6,0.3c-0.9,0.1-1.8,0.1-2.8,0.1
		c0.2-0.7,0.2-1.4-0.3-2c-0.5,0-1-0.2-1.4-0.2c-0.3-0.2-0.2-0.3,0-0.4C36.4,23.1,36.7,23.1,36.9,23.1z"/>
	<path style="fill:#C2312B;" d="M28,10.9c0.4-0.2,0.9-0.3,1.3-0.2c0.6,0,1.1,0.2,1.6,0.6c0.5,0.4,0.9,1.1,0.9,1.7
		c0,0.8-0.2,1.7-0.5,2.5c-0.1,0.4-0.3,1.3,0.2,1.6c-1,0.6-2.2,0.8-3.4,0.7c-1.7-0.3-3.8-0.7-3.9-0.9s0.4-1.2,0.8-1.5
		c0.4-0.3,0.8-0.4,1.2-0.5c0.7-0.3,2.2-0.7,2.2-1.6c-0.1-0.6-0.6-1.1-1.3-1.2C26.6,11.9,28,10.9,28,10.9z"/>
	<path style="fill:#C2312B;" d="M23.4,15.1c0.1,0-1.1,1.5-0.1,2c0.1,0.1,0.3,0.2,0.5,0.2c0,0,2.5,0.3,3.3,1c0.4,0.3,0.8,0.8,1,1.3
		c0,0.2-0.1,0.3-0.4,0c-0.3-0.3-0.7-0.6-1.1-0.8c-0.6-0.5-1.3-0.8-2-1c-0.7-0.1-1.3-0.1-1.3,0.2s2.8,0.9,2.8,2.3s0,3.1-0.7,3.6
		c-0.5-0.1-1.1-0.2-1.6-0.2c0.1,0.2,0.4,0.4,0.4,0.4c0.4,0,0.8,0.1,1.2,0.2c0.5,0.5,0.7,1.2,0.6,1.9c0.4,0,1.5,0.1,1.7,0.1
		s0.1,0.1-0.2,0.3c-1.7,0.1-3.3,0.1-5,0.1c-0.8,0-2.6,0.1-2.7,0.2s0.3,0.3,0.4,0.5s-1-0.1-1.5,0.2c-0.5-0.9-0.8-2-1-3
		c-0.2-0.8-0.2-1.6-0.1-2.5c0.1-0.4,0.2-0.2,0.2,0.1c0,1,0.2,1.9,0.5,2.9c-0.1,0.4,0.2,0.9,0.6,1c0.4,0,1.3,0.2,1.3,0.2
		c-0.3-0.5-0.3-1.2-0.1-1.7c0.1-0.3,0.4-0.5,0.7-0.6c0.4-0.1,2.2-0.2,2.2-0.2s1.5-0.8,1.5-2.1c-0.2-1.3-1.1-2.4-2.3-2.9
		c-1-0.2-0.9-1-0.7-1.2c-0.5-0.4-0.7-1.2,0.3-2.1C22.3,15.2,22.8,15.1,23.4,15.1z"/>
	<path style="fill:#C2312B;" d="M34.9,31.5c0.6-0.4,0.7-1.3,0.3-1.8c-0.1-0.1-0.2-0.2-0.3-0.3c-1.3-0.8-4.2-2.3-6.3-2.4
		c-1.8,0.5-3.6,0.7-5.5,0.7c-1,0-1.9-0.1-2.9-0.4c-1.7-0.7-2.1,1.4-1.9,2c0.1,0.3,0.6-0.1,1.3-0.3c0.4-0.1-0.6,1.8,1.2,2.5
		c0.4,0.5,0.6,0.5,0.7,0.8c0.2,0.7,1.1,4.5,1.3,5.3s0.2,1.3,0.3,1.6s-0.7,1.3,0.7,2.2c2,0.9,4.3,0.9,6.3,0.1c1.6-0.5,3.2-1.2,4.7-2
		c0.2-0.2-0.3-0.9-1.1-0.5c-1.9,0.6-3.8,1.1-5.7,1.4c-0.8-0.1-2.8,0.2-3.9-1.5c-0.7-1.3-1.2-2.6-1.5-4c-0.2-1.2-0.4-3.1-0.4-3.3
		c0-0.3-0.2-0.5-0.4-0.7c-0.3-0.2-0.9-0.9-0.7-1.3s0.1-1,0.5-1s0.7,0.4,0.7,0.7s-0.5,0.9,0.2,1.5c1.6,1.1,3.5,1.8,5.4,1.7
		C30.8,32.3,33.5,32.3,34.9,31.5z"/>
	<path style="fill:#C2312B;" d="M23.9,41.5c0,0-0.6-0.3-0.4,0.3s0.1,1.8,1.3,2.2s3.6,1,4.2,1.7c0.3,0.4,0.9,2-0.1,2.5
		s-1.8,0.8-2.5,0.2c-0.3-0.3-0.6-0.2-1,0c-1,0.1-1.9-0.2-2.6-0.8c-0.2-0.2-0.1,0.5,0,0.9c0.6,1.1,1.8,1.7,3,1.6
		c0.6-0.1,1.1-0.2,1.3-0.1c0.4,0.2,0.8,0.4,1.2,0.3c0.3,0.1,0.7,0.1,1,0c-0.5-0.2-0.6-0.8-0.4-1.3c0,0,0-0.1,0.1-0.1
		c0.4-0.6,1.6-0.4,2.3-1.3c0.9-1.2,0.6-2-0.2-3c-0.5-0.6-2.1-0.8-3.3-0.9c-1-0.2-1.9-0.7-2.7-1.3C24.7,42.3,24,41.8,23.9,41.5z"/>
	<path style="fill:#C2312B;" d="M26.7,50.8h-0.3v5.6l-4.2,2.7c0,0-1.4,1.1,0,1.2c1.5,0,13.6-0.3,13.6-0.3s0.6-0.1,0.5-0.4
		s-0.7-0.3-1.1-0.3H29c-0.3,0-0.2-0.2-0.1-0.4s0.8-1,1.1-1.5c0.1-0.2,0.2-0.4,0.3-0.6c0-0.2-0.8,0-0.9-0.2c-0.1-0.1-0.1-0.1-0.1-0.2
		c0-0.9,0.3-4.4,0.1-4.6C29.1,51.2,27.5,51.5,26.7,50.8z"/>
	<path style="fill:#C2312B;" d="M17.9,35.2c-0.1-0.2-0.2-0.8-0.4-0.8s-0.5,0-0.5,0.2s0.1,0.7,0,0.9c-0.1,0.1-0.2,0.2-0.3,0.3
		c0,0,0,1-0.6,1.1c-0.8,0.3-1.6,0.1-2.3-0.4c-0.6-0.5-1.2-1.1-1.6-1.7c-0.2-0.4-0.4-0.7,0-0.7s0.2-0.2-0.1-0.5
		c-0.2-0.2-0.4-0.1-0.4,0.4c0.2,1.2,0.9,2.3,1.8,3c1.7,1.1,3.5,2,5.4,2.8c0.8,0.3,0.9,0.9,0.5,1.4c0.4,0.2,1.3,0.2,1.3-0.3
		s-0.4-1.6-2.2-2c-0.2-0.3-0.3-0.1-0.2-0.6s0.4-1.2,0.3-1.5s-0.4-0.5-0.4-0.6S18,35.4,17.9,35.2z"/>
	<path style="fill:#C2312B;" d="M14.8,32.9c0.2-0.2,0.9-0.8,1.4-0.5c0.4,0.2,0.7,0.6,0.9,1.1c0.1,0.4,0.1,0.8-0.1,0.9
		c-0.1,0.1-0.3,0.1-0.4,0c-0.1-0.1-0.1-0.1-0.1-0.2c0-0.3,0.1-0.8-0.3-0.8s-0.8,0.3-0.8,0.7s0.1,0.8-0.3,0.8s-0.7-0.7-0.6-1.2
		C14.5,33.3,14.6,33.1,14.8,32.9z"/>
	<path style="fill:#C2312B;" d="M13.7,31.7c0,0,0-0.6-0.3-0.5s-0.5,1.2-0.4,1.9s0.5,1.2,0.4,1.3s-0.4-0.7-0.5-0.8s-0.1,0.9-0.1,1
		s0.8,0.8,0.9,0.8s0.4-0.1,0.2-0.8c-0.3-0.6-0.5-1.2-0.6-1.8C13.2,32.4,13.1,31.5,13.7,31.7z"/>
	<path style="fill:#C95251;" d="M31,32.2c0,0,1.3,0,1.5-1.1s-0.1-1.4-0.7-1.6s-2.1-0.2-2.9-0.4s-4.1-0.5-4.5-0.7s-1-0.5-1.4-0.3
		c-0.7,0.4-0.9,1.3-0.5,2c0.2,0.3,0.4,0.5,0.7,0.6C25.5,31.9,28.2,32.4,31,32.2z"/>
	<path style="fill:#C95251;" d="M20,29.3c0.2-0.2,0-0.6-0.6-0.5s-2.3,0.8-1.1,3.2c0.3,0.5,0.7,0.8,1.3,1l0.7,3.8c0,0,1,4.8,1.4,6.1
		c0.3,1,0.6,1.9,1.1,2.8c0,0-0.3,2.1-0.1,2.3s1.8,1.4,3.4,0.5c0.4,0,0.5,0.2,0.8,0.3c0.9,0.1,1.8-0.2,2.5-0.9c0.4-0.6,0.4-2-0.1-2.4
		c-1-0.5-2-0.8-3-1.1c-1.1-0.1-2-0.8-2.5-1.8c-0.1-0.9,0.1-0.8,0.1-1s0.2-0.1,0.5,0c0.6,0.2,1.3,0.4,2,0.4c0.9,0.1,1.7-0.1,2.5-0.4
		c0.4-0.3,0.3-0.8-0.2-0.7c-0.7,0.2-1.4,0.2-2.2,0.1c-1-0.2-1.9-0.6-2.7-1.2c-0.4-0.5-0.4-0.2-0.5-1s-1.1-4.5-1.2-5
		c-0.2-0.8-0.4-1.5-0.8-2.2c-0.4-0.2-0.8-0.5-1.2-0.8C19.9,30.5,19.6,29.6,20,29.3z"/>
	<path style="fill:#C95251;" d="M21.6,29c0.1,0,0.4-0.7-0.2-0.7c-0.6,0.1-1.1,0.6-1,1.2c0,0.5,0,1.4,0.7,1.4c0.2,0,0.4-0.3,0.4-0.5
		c0-0.1,0-0.1-0.1-0.2C21.1,29.8,21.1,29,21.6,29z"/>
	<path style="fill:#C95251;" d="M17.1,38c0.4-0.4,0.7-0.9,0.8-1.4c0.1-0.8-0.4-2.2-0.7-2.1s0,1.2-0.1,1.5s-0.9,1.6-1.4,1.6
		s-1.2,0-0.8,0.4S16.5,38.8,17.1,38z"/>
	<path style="fill:#C95251;" d="M19.7,41.2c0,0,0.7-0.7-0.5-1.2s-4.5-2.2-5.1-3s-2.9-1.8-2.1-3.4c-0.1,0-0.2-0.1-0.2-0.1
		c-0.4,0-0.6,0.4-0.6,0.9c0.1,1.2,2.1,3.6,3.7,4.6S18.2,41.3,19.7,41.2z"/>
	<path style="fill:#C95251;" d="M14.5,33.4c0,0,0,0.9,0.4,0.7s0.4-0.8,0.7-1s0.6-0.2,0.8,0s0.1-0.5-0.4-0.6S14.9,32.6,14.5,33.4z"/>
	<path style="fill:#C95251;" d="M40.7,37c-0.2-0.2-0.7,0.3-0.7,1.1c0,0.5,0.1,1.1,0.2,1.6c-0.2,0-0.4,0-0.6,0c-0.3,0-0.7-0.8-1.3,0
		c-0.4,0.1-1.5-0.3-1.6,0.3s1.1,1.1,1.1,1.1c-0.1,0.4-0.8,0-1.1-0.2s-1-0.1-0.9,0.3c0.3,0.7,1,1.2,1.8,1.3c0.7,0,0.8-0.6,0.5-0.8
		c-0.1-0.1-0.3-0.2-0.4-0.3c0,0,0-0.4,0.5-0.3s0.7-0.5,0.8-0.5c0.3-0.2,0.9,0.2,1.1,0.1s1.6-0.1,1.7-1.1
		C41.9,38.6,41.5,37.6,40.7,37z"/>
	<path style="fill:#C95251;" d="M36.3,42.6c-0.2,0-0.9,0.1-0.6,0.8c0.5,0.6,1.7,0.4,2,0.4s0.3-0.4,0-0.6
		C37.3,42.9,36.8,42.7,36.3,42.6z"/>
	<path style="fill:#C95251;" d="M39,28.5c-0.1,0-0.4-0.5,0-0.5c0.7-0.1,1.5,0,2.2,0.3c0.4,0.3,1,1,0.7,1.3c-0.1,0.2-0.3,0.5-0.4,0.5
		s-0.1-0.3-0.3-0.5C40.8,29.3,40.2,28.3,39,28.5z"/>
	<path style="fill:#C95251;" d="M34.5,23.1c0.7-0.5,1.1-1.3,1-2.2c-0.3-1.3-1.2-2.4-2.5-2.8c-1.1-0.3-2.2,0-3,0.9
		c-0.7,0.9-1.3,2.8-0.4,3.8c0.8,0.9,1.4,1.1,1.2,1.1c-0.5,0.2-1,0.5-1.4,1c-0.1,0.3,0,0.3,0.1,0.4c0.2-0.3,0.4-0.6,0.8-0.8
		c0.5-0.3,1-0.5,1.6-0.7c0.3-0.1,1-0.4,1.4-0.5S34.5,23.1,34.5,23.1z"/>
	<path style="fill:#C95251;" d="M23,23.6c1-0.3,1.7-1.3,1.6-2.4c-0.2-1.7-1.9-2.3-2.2-2.5s-0.2-0.6-0.6-0.9l-0.3-0.3
		c0,0-0.5-0.7-0.3-1.2c0.1-0.3,0.2-0.5,0.4-0.8c-1.1,0.5-2,1.3-2.5,2.3c-0.5,1.5-0.4,1.7-0.4,1.9c-0.4,1-0.6,2-0.7,3
		c0.1,0.7,0.2,1.3,0.4,2c0.1,0.2-0.2,0.4-0.2,0.5c0,0.1,0,0.1,0,0.2c0,0,0.1,0.2,0.1,0.1c0.1-0.3,0.3-0.5,0.6-0.6
		c0.6-0.3,1.1-0.5,1.7-0.8c0,0-0.1-0.5,0.2-0.5l1-0.1L23,23.6z"/>
	<path style="fill:#C95251;" d="M24.3,15.2c-0.2,0.2-0.4,0.4-0.6,0.6c-0.1,0.3-0.2,0.6-0.2,0.9c0,0.2,0,0.5,0.2,0.6
		c0.2,0.1,0.4,0.1,0.6,0c0.1-0.1,0-0.5,0-0.7s0.1-0.5,0.3-0.8s0.4-0.5,0.4-0.5L24.3,15.2z"/>
	<path style="fill:#C2312B;" d="M25.2,15.6c0,0-0.5,0.4-0.5,0.6c0.2,0.3,0.5,0.5,0.9,0.6c0.8,0.1,1.5,0.2,2.3,0.3c0.8,0,1.6,0,2.4,0
		c0.5-0.1,1.6-0.4,1.9-0.5c0.3-0.1,0.2-0.8-0.3-0.8c-1.1,0.2-2.2,0.4-3.3,0.5c-0.5,0-2.4-0.3-2.8-0.4S25.3,15.5,25.2,15.6z"/>
	<path style="fill:#7E1F21;" d="M36.5,14.5c0,0,1.4,0.2,1.5,0.7c0.1,0.4,0.1,0.8,0,1.1c-0.2,0.2-0.2,0.4-0.4,0.3s0.1-0.2,0-0.6
		s0.1-0.5-0.3-0.7s-0.4-0.4-0.6-0.5S36.4,14.5,36.5,14.5z"/>
	<path style="fill:#C2312B;" d="M33,12.4c-0.1-0.2-0.1-0.4-0.2-0.6c-0.1-0.2-0.2-0.3-0.4-0.3c-0.2,0,0,0.5,0.1,0.8
		c0.2,0.4,0.4,0.7,0.7,1.1c0.4,0.3,0.8,0.5,1.2,0.6c0.3,0.1,0.7,0.3,0.8,0.6s0.4,0.4,0.5,0.6s0.4,0.2,0.4,0s0-0.4-0.3-0.6
		c-0.2-0.3-0.5-0.6-0.9-0.8c-0.4-0.2-0.8-0.4-1.1-0.7C33.4,12.8,33.1,12.7,33,12.4z"/>
	<path style="fill:#7E1F21;" d="M41.3,24.9c0.2-0.5,0.4-1,0.5-1.5c0-0.9-0.1-1.8-0.3-2.7c-0.4-1.1-1-2.1-1.8-3
		c-0.7-0.5-1.2-1-1.2-1.2s0-0.8,0.2-1s0.4-0.4,0.1-0.5s-1-0.2-1.2,0c0.2,0.4,0.4,1.1,0.3,1.2s-0.2,0.5-0.4,0.4
		c-0.5-0.2-1-0.3-1.6-0.4c-0.8-0.1-1.7,0-2.5,0.1C32.2,16.6,31,17.2,30,18c-1.1,1-1.3,1.1-1.4,1.2c-0.2-0.1-1-0.8-1.5-1.1
		c-0.8-0.4-1.6-0.7-2.5-0.8c-0.9-0.1-1.9-0.1-2.8,0.1c-0.8,0.2-1.6,0.7-1.5,0.8s0.3-0.1,0.4-0.2c0.9-0.5,1.9-0.7,2.9-0.5
		c1.5,0.3,3.3,0.5,4,1.7c0.2,0.3,0.5,0.4,0.4,0.6s-0.2,0.1-0.3,0l-0.3-0.2c0,0-1.3,3.1,0.9,4.8c0.7,1.2,1,1.6,1.4,1.7
		c0.2,0.1,0.3,0,0.3,0l-0.1-0.2c0,0-0.6,0.1-1.1-1.2S28,21,28.4,20.3c0.5-0.9,1.2-1.7,2-2.3c1-0.6,2-1.1,3.1-1.4
		c1.3,0,2.6,0,3.9,0.2c0.8,0.4,1.5,1,2.2,1.6c0.8,0.7,1.3,1.7,1.5,2.7c0.3,0.9,0.4,1.8,0.3,2.6C41.4,24.3,41.1,24.9,41.3,24.9z"/>
	<path style="fill:#7E1F21;" d="M41,25.4c0.1-0.2-0.1-0.8-0.6-1c-0.6-0.5-1.4-0.9-2.2-1c-0.9-0.1-1.1-0.1-1.1,0s0.3,0.2,0.6,0.3
		c0.6,0.2,1.2,0.5,1.8,0.8c0.3,0.2,0.6,0.5,0.8,0.8c0,0.1-0.2,0.4-0.2,0.5S40.8,25.6,41,25.4z"/>
	<path style="fill:#7E1F21;" d="M32.6,27.5c0.8-0.1,1.7-0.1,2.5,0c1.1-0.1,2.2-0.3,3.3-0.6c0.4-0.1,1.9-0.8,2.1-0.9l0.8-0.5
		c0.2-0.1,0.5-0.2,0.8-0.3c0.3-0.1,0.6-0.1,0.9-0.1c0.3,0,0.3,0.1,0.3,0.3c0,0.3-0.1,0.5-0.1,0.8c-0.1,0-0.3,0.1-0.4,0
		c-0.4,0-0.8,0-1.1,0.1c-0.2,0.1-0.8,0.3-1,0.4c-0.1,0.1-0.3,0.2-0.4,0.2c-0.6,0.2-1.2,0.3-1.9,0.4c-0.4,0-2.8,0.1-3.2,0.2
		s-1.6,0-1.8,0S32.4,27.6,32.6,27.5z"/>
	<path style="fill:#7E1F21;" d="M38.5,28.4c-0.2,0.1-0.4,0.1-0.6,0.2c-0.2,0.1-0.4,0.2-0.3,0.3c0.3,0.1,0.5,0.1,0.8,0
		c0.3-0.1,0.7-0.2,1-0.1c0.2,0.1,0.4,0.2,0.6,0.3c0.3,0.2,0.6,0.5,0.8,0.8c0.1,0.3,0.1,0.6,0.3,0.9c0.1,0.1,0.4,0.2,0.5,0
		c0,0,0,0,0,0c0.2-0.2,0.1-0.4,0-0.7c-0.1-0.3-0.3-0.5-0.5-0.6c-0.3-0.5-0.9-0.9-1.5-1C38.5,28.4,38.7,28.4,38.5,28.4z"/>
	<path style="fill:#7E1F21;" d="M19.5,26.9c0.2-0.2,0.9,0.3,1.1,0.4s2.6,0.3,3,0.2s1.8-0.1,2.1-0.1s0.7-0.1,0.9-0.1s0.3,0.1,0.1,0.1
		c-1.3,0.2-2.7,0.3-4.1,0.3C21.1,27.7,19.3,27.1,19.5,26.9z"/>
	<path style="fill:#7E1F21;" d="M27.6,26.3c0.3-0.1,0.6-0.3,0.5-0.5c-0.1-0.3-0.4-0.6-0.6-0.8c-0.4-0.3-0.8-0.6-1.3-0.8
		c-0.4-0.1-0.5-0.2-0.8-0.2s-0.1,0.4,0,0.5c0.3,0.1,0.6,0.2,0.9,0.3c0.2,0.1,1.2,0.6,1.3,0.9s0,0.3-0.2,0.4c-0.2,0-0.3,0.1-0.5,0.1
		C27,26.2,27.5,26.4,27.6,26.3z"/>
	<path style="fill:#7E1F21;" d="M22.1,29.2c0.1-0.2,0.2-0.2,0.2-0.4s-0.1-0.1-0.3-0.1s-0.3,0.6-0.4,0.8c0.2,0.6,0.5,1.1,1,1.4
		c0.5,0.4,1.7,1.2,4.7,1.5c2.3,0.3,4.6,0.3,6.8-0.2c1.6-0.4,3.2-1.1,4.6-2.1c0.3-0.4,0.6-0.7,1-1.1c0.2-0.1,0.1,0,0,0.4
		c-0.6,2.1-1.3,4.1-2.2,6.1c-1.1,1.1-2.2,2.1-3.4,3c-0.3,0.1-0.8,0.5-1.1,0.5s0.1,0.2,0.3,0.2c0.9-0.5,1.8-1,2.6-1.7
		c0.9-0.8,1.7-1.6,2.4-2.6c0.5-1,0.8-1.2,0.7-0.8c-0.1,0.7-0.4,1.4-0.7,2c-0.3,0.4-1.2,1.8-1.5,2S36.3,39,36.7,39s1.7-1.4,1.9-1.7
		c0.6-1,1-2,1.3-3.1c0.3-1.2,0.5-2.4,0.6-3.6c0-0.5,0.2-1.3-0.3-1.4s-0.3-0.5-1,0c-1,0.7-2.1,1.4-3.2,2c-0.5,0.2-1.3,1.7-7.3,1.2
		c-4.1-0.5-4.1-0.4-6.1-1.5C22.1,30.4,21.7,30,22.1,29.2z"/>
	<path style="fill:#7E1F21;" d="M23.9,34.9c0.1-0.3,0.3-0.6,0-0.5s-0.4,0.6-0.5,0.8c-0.1,0.5-0.1,1-0.1,1.5c0,0.1,0.3,0.9,0.5,1
		s0.3-0.5,0.3-1C23.9,36.1,23.9,35.5,23.9,34.9z"/>
	<path style="fill:#7E1F21;" d="M22.9,40.3c-0.1-0.1-0.1-0.2-0.2-0.4s-0.1-0.4-0.2-0.3s0,0.4,0.1,0.6c0.4,0.8,1.1,1.4,1.9,1.8
		c1.3,0.6,2.6,0.8,4,0.8c1.4-0.3,2.8-0.6,4.2-1.1c0.4-0.2,1.3-0.6,1.5-0.7s0.7-0.6-0.1-0.2c-1.5,0.7-3,1.2-4.6,1.6
		c-1.3,0.2-2.6,0.1-3.8-0.2c-0.7-0.3-1.4-0.6-2.1-1.1C23.3,40.8,23.1,40.5,22.9,40.3z"/>
	<path style="fill:#C2312B;" d="M27.1,49.9c0.1-0.1-0.5-0.3-0.6-0.8c-0.1-0.3-0.1-0.7-0.1-1.1c0-0.3,0.2-0.6,0.1-0.5
		s-0.2,0.4-0.3,0.7c-0.2,0.3-0.3,0.7-0.2,1c0.1,0.4,0.2,0.7,0.4,0.7S26.7,50,27.1,49.9z"/>
	<path style="fill:#7E1F21;" d="M39.9,39.8c-0.1,0-0.2-0.4,0.1-0.3c0.3,0.1,0.6,0.2,0.9,0.1c0.3-0.1,0.7-0.2,0.9-0.5
		c0.1-0.1,0.1,0.2-0.1,0.3c-0.3,0.2-0.5,0.3-0.8,0.4C40.5,39.9,40.2,39.9,39.9,39.8z"/>
	<path style="fill:#7E1F21;" d="M39.3,40.3c0.2,0,0.4,0,0.5-0.1s0-0.2-0.4-0.2c-0.3,0.1-0.7,0-1-0.2c-0.2-0.1-0.5-0.2-0.8-0.2
		c-0.3,0,0,0.1,0.2,0.2C38.2,40.2,38.7,40.3,39.3,40.3z"/>
	<path style="fill:#7E1F21;" d="M38.2,41.2c-0.4,0-0.8-0.2-1.1-0.4c-0.2-0.2-0.4-0.5-0.2,0c0.2,0.4,0.7,0.7,1.2,0.8
		C38.4,41.4,38.2,41.2,38.2,41.2z"/>
	<path style="fill:#7E1F21;" d="M38.1,42.9c-0.1-0.1-0.3-0.2-0.5-0.3c-0.4-0.1-0.8-0.3-1.2-0.5c-0.2-0.2-0.3-0.2-0.1,0.1
		c0.2,0.3,0.4,0.5,0.8,0.7c0.4,0.2,0.4,0.3,0.6,0.4s0.4,0.1,0.4,0C38.1,43.1,38.1,43,38.1,42.9z"/>
	<path style="fill:#7E1F21;" d="M37.5,44.3c0.3,0,0.4,0.1,0.5,0.1s0,0.1-0.1,0.3s-2.1,2.3-2.4,2.4s-0.5,0.2-0.4,0s0.7-0.7,1-1
		c0.3-0.3,0.6-0.6,0.8-1c0.2-0.3-0.2-0.5-0.5-0.8s-0.6-0.5-0.8-0.7s0-0.6,0-0.6c0.1,0.4,0.3,0.7,0.7,0.8
		C36.8,44.1,37.5,44.3,37.5,44.3z"/>
	<path style="fill:#7E1F21;" d="M24,10.3c-0.1-0.4,0.4-0.7,0.6-0.9s0.3-0.1,0.5,0s0.5,0.3,0.7,0.4s0.2,0,0.4-0.3
		c0.2-0.2,0.3-0.4,0.5-0.6c0.3-0.3,0.4-0.3,0.6-0.4c0.3-0.1,0.6-0.2,0.9-0.2c0.1,0,0.1,0.1-0.2,0.3c-0.4,0.1-0.7,0.3-1,0.5
		c-0.2,0.2-0.5,0.4-0.4,0.5c0.2,0,0.3,0,0.5,0c0.1,0,0.3,0,0.4,0c0.2,0.1,0.3,0,0.5-0.2C28.4,9.2,28.9,9,29.4,9c0.4,0,0.7,0,1.1,0
		c0.5,0.1,1,0.2,1.5,0.4c0.2,0.1,0.4,0.3,0.6,0.4c0.1,0.1,0.2,0.4-0.2,0.1c-0.3-0.2-0.6-0.4-0.9-0.5c-0.3-0.1-0.5-0.1-0.8-0.2
		c-0.5-0.1-1-0.1-1.6,0c-0.3,0.1-0.6,0.2-0.9,0.4C27.9,9.8,28,9.9,27.9,10s0.2,0.4,0.2,0.6c0.6-0.5,1.4-0.7,2.1-0.6
		c0.5,0,1,0.2,1.4,0.5c0.4,0.2,0.5,0.8,0.6,1.1c0.1,0.3,0.2,0.7,0.3,1c0.2,0.4,0.3,1,1.1,1.3s1.2,0.4,1.5,0.9s0.7,0.8,0.7,0.9
		c0.1,0.2,0.2,0.3,0.2,0.5c0,0.2,0.1,0.4-0.1,0.4s-0.3-0.3-0.4-0.6c-0.1-0.5-0.4-0.9-0.8-1.2c-0.5-0.3-1.3-0.5-1.6-0.7
		c-0.7-0.4-1.1-1.2-1.2-2c-0.1-0.5-0.4-1-0.9-1.3c-0.5-0.2-0.9-0.3-1.5-0.4c-0.4,0-0.8,0.1-1.2,0.3c-0.3,0.2-0.6,0.3-0.6,0.4
		s-0.1,0.4,0,0.4s0.1-0.1,0.5,0c0.3,0,0.6,0.1,1,0.1c0.4,0.1,0.7,0.2,1,0.5c0.4,0.3,0.6,0.8,0.8,1.2c0.1,0.5,0.2,1.1,0.1,1.6
		c0,0.4-0.3,0.5-0.4,0.8s-0.3,0.5-0.1,0.7c0.1,0.2,0.3,0.4,0.5,0.6c0.1,0.1,0.4,0.1,0.3,0.2s-0.4,0.2-0.6,0.1
		c-0.3-0.2-0.4-0.5-0.5-0.9c0-0.3,0.1-0.7,0.2-1c0.1-0.3,0.2-0.7,0.3-1c0.1-0.4,0-0.9-0.2-1.3c-0.2-0.5-0.6-0.9-1-1.2
		c-0.5-0.3-1.1-0.4-1.7-0.2c-0.5,0.3-0.6,0.4-0.4,0.4c0.3,0,0.6,0,0.9,0c0.3,0.1,0.6,0.3,0.8,0.7c0.2,0.3,0.3,0.6,0.2,0.9
		c-0.3,0.8-0.8,1.4-1.4,2c-0.4,0.3-1.5,0.8-1.4,1.5s0.1,1,0.4,1.2s-0.5-0.3-0.7-0.3s-0.1-0.9,0-1.1s0.5-0.8,0.8-0.9
		c0.5-0.3,0.9-0.7,1.3-1.1c0.2-0.3,0.9-1,0.7-1.5c-0.1-0.4-0.3-0.7-0.7-0.9c-0.3-0.2-0.6-0.3-0.9-0.3c-0.3,0-0.3,0.2-0.6,0.4
		s-0.6,0.4-0.9,0s-1.5-1.1-1.7-1.3C24.3,11,24.1,10.7,24,10.3z"/>
	<path style="fill:#C3C4C4;" d="M22.6,31c0,0,0.4,2.8,1.4,3.5c-0.4,0.8-0.6,1.7-0.4,2.6c0.1,1.5,1.2,2.7,2.7,3
		c2.3,0.4,4.7,0.1,6.9-0.9c2.2-0.9,4-2.6,5.2-4.7c0.6-1.4,1.1-2.8,1.5-4.3c0.1-0.3,0.1-0.6,0.1-0.9c0-0.1,0.1-0.5-0.3-0.1
		c-0.7,0.9-1.6,1.6-2.7,2.1c-1.8,0.6-5.1,2.1-8.8,1.4S24.6,32.4,22.6,31z"/>
	<path style="fill:#C3C4C4;" d="M30.2,25.9c-0.3-0.1-0.4-0.1-0.4-0.3s0.3-0.6,0.5-0.7c0.5-0.4,1-0.6,1.5-0.8c-0.3,0.6-0.3,1.3,0,1.9
		C31.3,26,30.8,26,30.2,25.9z"/>
	<path style="fill:#C3C4C4;" d="M37.6,23.7c-0.2,0,0.3,0.2,0.3,0.9c0,1-0.1,1-0.2,1.2c0.5,0,2.2,0,2.4-0.1s0.4-0.1,0.4-0.3
		S39.8,24.1,37.6,23.7z"/>
	<path style="fill:#C3C4C4;" d="M25.3,24.4c0.2,0.2,0.3,0.5,0.4,0.8c0.1,0.3,0.3,0.9,0.1,1.1c0.6,0,1.2-0.1,1.7-0.1
		c0.2,0,0.3-0.4,0.1-0.5C27,25,26.2,24.6,25.3,24.4z"/>
	<path style="fill:#C3C4C4;" d="M20.1,24.5c-0.1,0.2-0.2,0.5-0.2,0.7c0.1,0.4,0.2,0.8,0.3,1.2c-0.4,0-1.1-0.1-1.4-0.1
		s-0.5-0.1-0.5-0.4C18.7,25.1,19.3,24.6,20.1,24.5z"/>
	<path style="fill:#262424;" d="M20.6,24.3c-0.2,0.1-0.3,0.6-0.4,0.7s-0.2,1,0.2,1.4c0.9,0,5-0.1,5-0.1c0.1-0.7-0.1-1.4-0.5-2
		C23.5,24,22,24,20.6,24.3z"/>
	<path style="fill:#262424;" d="M32.2,23.9c-0.1,0-0.7,1.5,0.2,2.1c1.2-0.1,4.3-0.2,4.6-0.1c0.5-0.4,1-1.6,0.1-2.2
		C35.5,23.3,33.8,23.4,32.2,23.9z"/>
	<path style="fill:#FFFFFF;" d="M19.8,25.1c-0.3,0.1-0.5,0.3-0.8,0.5c-0.2,0.1-0.2,0.4,0,0.4s0.7-0.1,0.9,0c0.2,0.1,0.5,0.1,0.7,0
		c0.2-0.1,0.2-0.3,0.2-0.5c0-0.2-0.1-0.3-0.3-0.4C20.3,25,20,25,19.8,25.1z"/>
	<circle style="fill:#FFFFFF;" cx="21.2" cy="25.5" r="0.3"/>
	<path style="fill:#FFFFFF;" d="M25.1,25c-0.2,0-0.4,0.1-0.4,0.2s0,0.3,0.5,0.3c0.3,0,0.5,0.1,0.7,0.3c0.1,0.1,0.4,0.1,0.5,0
		s0.1-0.2,0-0.3C26.1,25.2,25.6,25.1,25.1,25z"/>
	<path style="fill:#FFFFFF;" d="M37.5,24.4c-0.2,0-0.4,0.1-0.6,0.1c-0.1,0-0.1,0.1,0,0.3c0.2,0.2,0.4,0.2,0.6,0.2c0.2,0,0.3,0,0.5,0
		c0.2,0.1,0.3,0,0.5,0.1s0.4,0.2,0.5,0s0-0.4-0.2-0.4C38.4,24.5,38,24.4,37.5,24.4z"/>
	<path style="fill:#FFFFFF;" d="M31.7,24.8c0.2,0,0.8-0.1,0.9,0.4c0,0.3-0.3,0.6-0.6,0.6c-0.1,0-0.1,0-0.2,0c0,0.1,0,0.1,0.1,0.2
		c0,0-1.5,0-1.6,0s-0.5-0.2-0.4-0.4C30.4,25.2,31,25,31.7,24.8z"/>
	<circle style="fill:#FFFFFF;" cx="33.1" cy="24.9" r="0.3"/>
	<path style="fill:#FFFFFF;" d="M23.5,32.7c0.4,0.9,1,1.7,1.6,2.5c2.3,0.9,4.9,1.2,7.4,0.8c1.1-0.2,2.2-0.6,3.2-1.1
		c0.4-0.3,0.8-0.5,1.2-0.8c0.1-0.1-0.4,0.7-0.6,0.8s-3.3,2-6.5,1.6s-4.1-0.5-5.7-1.6c-0.3,0.6-0.9,2.7,0,3.8s2.4,2.1,5.2,1.6
		s5.7-1.8,7-3.4c1-1.4,1.7-3,2.2-4.6c0.1-0.4-0.2-0.2-0.7,0.1s-5.2,2.4-8.5,1.9C27.2,34,25.3,33.5,23.5,32.7z"/>
	<path style="fill:#CE7055;" d="M30.4,20.6c0.2-0.4,0.5-0.7,0.8-1c0.3-0.2,0.6-0.4,1-0.5c0.3-0.1,0.8-0.3,0.8-0.6s0-0.7-0.4-0.7
		c-0.6,0-1.2,0.1-1.7,0.4c-0.7,0.3-1.3,0.9-1.6,1.7c-0.3,0.9-0.6,1.9,0,2s0.5,0.1,0.7-0.1C30.1,21.4,30.3,21,30.4,20.6z"/>
	<path style="fill:#CE7055;" d="M20.2,20.2c0.4-0.4,0.8-0.7,1.2-1c0.4-0.2,0.6-1.4,0-1.4c0.3-0.2,0.6-0.4,0.9-0.5
		c-0.7,0.1-1.4,0.4-2,0.8c-0.6,0.4-1.1,0.8-1.5,1.3c0.2-1.3,0.9-2.4,1.9-3.2c0.5-0.4,1.1-0.7,1.6-1c-1.1,0.1-2.1,0.7-2.9,1.5
		c-0.9,1.3-1.5,2-1.5,3.4c-0.5,1.6-0.4,3.2,0.3,4.7c-0.2,0.2-0.6,0.8-0.1,1c0.3-0.5,0.5-1.4,2.5-2c0.3-0.1,0.6-0.2,0.9-0.4
		c0.1,0-0.2-0.3-0.7-0.2c-0.8,0.2-1.6,0.6-2.3,1.1c-0.2-0.8-0.3-1.6-0.3-2.4c0.2,0.5,0.7,0.7,1,0.6c0.3-0.2,0.5-0.5,0.5-0.9
		C19.8,21.2,19.9,20.6,20.2,20.2z"/>
	<path style="fill:#C2312B;" d="M27.3,15.2c-0.3,0.2-0.9,0.7-1,0.9c-0.2,0.2-0.3,0.4-0.3,0.6c0,0.2-0.1,0.8,0.1,0.9s0.3,0.4,0.5,0.2
		s0-0.5,0-0.8c0-0.4,0.2-0.8,0.5-1c0.4-0.2,0.7-0.5,1-0.8C28.4,14.9,27.8,14.8,27.3,15.2z"/>
	<path style="fill:#C2312B;" d="M31.4,14.5c0.2-0.1,0.4-0.3,0.3,0s-0.1,0.5-0.2,0.8s-0.3,0.4-0.1,0.7s0.4,0.4,0.4,0.5s0,0.5-0.2,0.4
		s-0.6,0-0.7-0.6s-0.1-0.6,0.1-1C31.1,15.1,31.3,14.8,31.4,14.5z"/>
	<path style="fill:#CE7055;" d="M24.8,15.6c-0.3,0.2-0.6,0.4-0.6,0.6s0,0.4,0,0.6s0.1,0.3-0.4,0.3c-0.3,0-0.3-0.4-0.2-0.7
		s0.1-0.7,0.4-0.8s0.4-0.3,0.6-0.4c0.2,0,0.5-0.1,0.7-0.1c0.2-0.1,0.3-0.2,0.5-0.3c0.3-0.1,0.5-0.2,0.8-0.2c0.3,0,0.9,0,0.5,0.2
		c-0.5,0.2-0.9,0.4-1.5,0.6C25.4,15.4,25.1,15.5,24.8,15.6z"/>
	<path style="fill:#CE7055;" d="M18.8,28.3c0.1-0.2,0.2-0.3,0.3-0.5c0-0.2-0.1-0.4-0.3-0.4s-0.4,0.6-0.5,0.7
		c-0.4,0.7-0.6,1.5-0.5,2.3c0.4,2.1,1,2.2,1.7,2.5c0-0.2,0.3,1.9,0.9,4.2c0.3,2,0.7,4.1,1.4,6c0.5,1.3,0.6,1.2,0.5,1s-1.4-5-1.5-5.6
		S20.1,34.3,20,34s-0.2-0.9-0.2-0.9s0.4,0.1,0.5,0s0.2-0.2-0.2-0.4c-0.4-0.2-0.7-0.5-1-0.8c-0.4-0.5-0.6-1-0.8-1.6
		c-0.1-0.4,0-0.9,0.1-1.3C18.5,28.8,18.6,28.6,18.8,28.3z"/>
	<path style="fill:#CE7055;" d="M21.4,28.3c-0.3,0-0.5,0.1-0.7,0.3c-0.2,0.2-0.3,0.5-0.4,0.7c-0.1,0.4-0.1,0.8,0.1,1.1
		c0.2,0.3,0.5,0.6,0.8,0.5s0.1-0.5,0-0.9c-0.1-0.3-0.1-0.5,0-0.8c0.1-0.3,0.2-0.1,0.4-0.3s0.3-0.4,0.1-0.5
		C21.6,28.4,21.5,28.3,21.4,28.3z"/>
	<path style="fill:#CE7055;" d="M22.7,48.2c0.2,1,1,1.8,2,2c0.8,0.2,1.6,0.1,2.3-0.1c1.1,0.6,2.4,0.7,3.6,0.3c1-0.5,1.9-1.1,2.7-1.8
		c0.2-0.1,0-0.5-0.2-0.3s-2.6,2-3.9,1.9c-0.8,0-1.6-0.1-2.3-0.4c-0.3-0.2-0.3,0.1-0.8,0.1c-0.8,0.2-1.6-0.1-2.3-0.6
		C23.1,48.8,22.6,48,22.7,48.2z"/>
	<path style="fill:#CE7055;" d="M28.4,54.6c0-0.5,0-0.7,0-1.2s0-1.2-0.5-1s-0.5,0.6-0.5,1.1s0,2.5,0,2.7c0,0.2-0.1,0.4-0.2,0.5
		c-0.2,0.2-2.9,2.2-3.4,2.5s-1.8,1.2-1.3,1.2s9.3,0,9.8,0s1.8,0,1.8-0.2s-0.4-0.2-0.8-0.2s-6.9-0.2-7.2-0.3s-0.8-0.3-0.4-0.7
		s2.4-2.2,2.5-2.3C28.4,55.9,28.4,55.3,28.4,54.6z"/>
	<path style="fill:#81BA50;" d="M25.8,13c-0.3,0-1.1-0.9-1.3-1.1c-0.3-0.3-0.4-0.6-0.5-1c0-0.5,0-1.3,0.9-1.3c0.6-0.1,1,0.8,1,0.8
		c0.1-0.1,0.2-0.3,0.3-0.4c0.3-0.3,0.8-0.3,1.2-0.1c0.6,0.5,0.6,1.3,0.1,1.9c0,0-0.1,0.1-0.1,0.1C26.9,12.5,26.4,13.1,25.8,13z"/>
	<path style="fill:#C2312B;" d="M13.5,31.2c-0.2-0.1-0.4-0.1-0.6,0c-0.4,0.5-0.6,1.3-0.4,1.9c0.1,1,0.2,1.3,0.2,1.3l0.7,0.1
		l-0.3-1.2V32c0.1-0.2,0.3-0.3,0.4-0.5C13.5,31.4,13.5,31.3,13.5,31.2z"/>
	<path style="fill:#C95251;" d="M12.7,34.1c0,0,0.4,0.4,0.6,0.4s0-0.5,0-1s-0.3-1.3,0-1.7s0.2-0.8-0.2-0.5
		C12.6,32.1,12.5,33.1,12.7,34.1z"/>
</g>
</svg>
