<?xml version="1.0" encoding="utf-8"?>
<!-- Generator: Adobe Illustrator 22.0.0, SVG Export Plug-In . SVG Version: 6.00 Build 0)  -->
<svg version="1.1" id="Слой_3" xmlns="http://www.w3.org/2000/svg" xmlns:xlink="http://www.w3.org/1999/xlink" x="0px" y="0px"
	 viewBox="0 0 235.9 290" style="enable-background:new 0 0 235.9 290;" xml:space="preserve">
<title>Монтажная область 1</title>
<path style="fill:#77BE30;" d="M101.2,188.1c-2,2-7.8,2.4-10.5,2.9c-5,1-10.1,1.5-15.2,0.3c-7-1.7-13.5-4.4-13.1-12.7
	c-13.1,3.9-26.9-5.6-33-12.8c-10.6-12.6-14.8-33.1-7-48.1C7,108.5,6,90.3,7.7,79.4c1.6-10.6,6.2-19,13.7-26.6
	c4.8-4.9,13.8-15.6,21.7-14.5c1.8-7.1,11.1-18.1,15-20.7C69.5,10,84.8,6.6,98.4,5.1c12.6-1.4,27.4-1.4,39.2,3.8
	c8.7,3.8,18.8,11.6,19.4,21.9c2.9-2,6.3-3,9.8-3c9.7-0.1,17.4,1.4,25.8,6.6c13.9,8.7,22.3,20.8,21.5,37.4
	c13.3,0.3,14.3,25.9,15,35.5c0.8,10.5,1.4,20.2-4.4,29.5c-2.8,4.4-6.3,9.2-11.4,11.1c7.5,7.2,2.3,18.5-2.1,22.3
	c-8.2,6.9-24.7,11.4-34,3.9c2,6.8-11.4,12.5-15.8,14.9c-5.9,3.1-12.4,4.8-19,4.9c-8.9,0.3-19.6-1.3-27.3-5.8L101.2,188.1z"/>
<circle style="fill:#77BE30;" cx="36.2" cy="22.2" r="11"/>
<circle style="fill:#77BE30;" cx="22.8" cy="37.6" r="5.7"/>
<circle style="fill:#77BE30;" cx="224.3" cy="150.2" r="3.9"/>
<path style="fill:#489D45;" d="M96.6,231.8c-9.4,0.4-18.8-0.5-28.2,1.2c-6.9,1.3-19.1,11.3-5.5,12.2c-6.9,2.3-16,3.8-21.8,8.3
	c-7.9,6.3,1.2,12,7.5,14.7c23.3,9.9,51.5,3.6,76.1,3c-11.8,9.4,25.9,7.8,28.8,7.4c4.9-0.7,20.7-1.8,23.3-7.2
	c1.7-3.6-1.4-5.1-4.9-5.5c5.6-0.1,11.2-0.6,16.7-1.5c5.4-0.8,19.4-1.8,22.4-7.5c5-9.4-22-13.1-27.6-13.5c3.2-1,6.7-3.9,4.5-7.3
	c-2.8-4.5-16.1-4.2-20.6-4.8c-9.9-1.2-18.2-1.4-27.9,0.4H96.6z"/>
<ellipse style="fill:#489D45;" cx="96.9" cy="281" rx="18.1" ry="3.8"/>
<ellipse style="fill:#489D45;" cx="60.2" cy="279.8" rx="8.3" ry="2.7"/>
<ellipse style="fill:#489D45;" cx="191.7" cy="269.6" rx="6.6" ry="1.5"/>
<ellipse style="fill:#489D45;" cx="203.1" cy="240.3" rx="10.4" ry="2.5"/>
</svg>
