<?xml version="1.0" encoding="utf-8"?>
<!-- Generator: Adobe Illustrator 22.0.0, SVG Export Plug-In . SVG Version: 6.00 Build 0)  -->
<svg version="1.1" id="Слой_1" xmlns="http://www.w3.org/2000/svg" xmlns:xlink="http://www.w3.org/1999/xlink" x="0px" y="0px"
	 viewBox="0 0 55.8 62.9" style="enable-background:new 0 0 55.8 62.9;" xml:space="preserve">
<title>15_1</title>
<path style="fill:#CF76AB;" d="M34.1,61.3H19.9c-0.4,0.1-0.9-0.1-1.1-0.5c-0.1-0.4,0-0.8,0.3-1.1l0.1-0.1l5.5-3.6
	c-0.1-1.5-0.1-3,0-4.5v-0.2h-0.2c-0.9,0-1.8-0.3-2.5-0.8c-0.3-0.4-0.7-0.7-1.1-0.9L20.5,49c-0.3-0.2-0.7-0.4-1.1-0.4h-3.8
	c-1.1-0.1-2.1-0.9-2.3-2c-0.2-0.7,0.1-1.4,0.7-1.8c0.2-0.1,0.4-0.2,0.6-0.4c1-0.5,1.9-1.3,2.5-2.3c-0.6-0.6-1-1.4-1.3-2.2
	c-1-0.7-4.6-3.9-4.6-8.3v-0.2c0-2.1,0.4-4.2,1.3-6.2l0.1-0.2c1.3-3.1,4-5.5,5.9-7c1.1-0.8,2-1.7,2.8-2.8l0.4-0.7
	c0.2-0.4,0.4-0.9,0.5-1.3l0.2-0.6c0.5-1.8,1.1-3.5,1.9-5.1c0.3-0.6,0.6-1.2,1-1.7c1.1-1.7,2.7-3,4.6-3.7l0.3,0.4L30,2l0.2-0.1
	l0.9-0.4c0.8-0.4,1.6-0.6,2.4-0.7c0.2,0,0.4,0.1,0.5,0.2c0.3,0.2,0.4,0.6,0.4,0.9c-0.1,0.4-0.4,0.6-0.8,0.7c-1.2,0.4-2.4,1-3.5,1.7
	c-2.2,2.1-2.6,3.5-2.8,6.2c0.1,0.8,0.3,1.6,0.6,2.4l0,0c0.8,0.8,1.7,1.5,2.7,2c1.4,0.5,3,1,4.1,1.3l0.9,0.3c1.9,0.7,3.6,1.8,5,3.3
	c1.7,1.8,2.9,4,3.6,6.3l0,0c0.1,0.3,0.2,0.6,0.2,0.9c0.3,1.8,0.8,6.3-2.3,9.7c-1.1,1-1.6,1.6-1.9,1.9l0,0c-0.1,1.1-0.6,2.1-1.4,2.9
	c-0.1,0.2-0.2,0.4-0.4,0.5c0.5,0.5,0.7,0.6,1,0.6h1.5c2.5,0.5,2.8,1.8,2.7,2.9c-0.4,1.6-1.8,2.7-3.5,2.7l0,0c-0.3,0-0.5,0-0.8-0.1
	c-0.4-0.1-0.9-0.2-1.3-0.2c-0.3,0-0.7,0.1-0.9,0.4c-0.1,0.2-0.2,0.3-0.3,0.4v0.1l-0.2,0.4C36,50,35,50.5,34,50.6
	c-0.4,0-0.8-0.1-1.2-0.2v5.5c1.1,0.7,5.3,3.4,5.9,3.8c0.3,0.2,0.5,0.5,0.5,0.8c-0.1,0.3-0.3,0.5-0.5,0.7c-0.1,0-0.1,0.1-0.2,0
	C38.5,61.2,34.1,61.3,34.1,61.3z"/>
<path style="fill:#FFFFFF;" d="M33.3,1.5h0.2c0.4,0.4,0.2,0.7-0.2,0.8c-1.3,0.4-2.5,1-3.6,1.7c-2.5,2.3-2.8,4-3,6.6
	c0.1,0.9,0.3,1.8,0.7,2.6l0,0c0.8,0.9,1.8,1.7,3,2.2c2,0.7,4.5,1.4,5.1,1.6c1.8,0.6,3.5,1.7,4.8,3.1c1.6,1.8,2.8,3.9,3.5,6.2l0,0
	c0.1,0.3,0.2,0.6,0.2,0.9c0.5,2.6,0.4,6.5-2.2,9.3c-1.2,1.1-1.7,1.7-2,2c0,0.1,0,0.1-0.1,0.1c-0.1,1-0.5,2-1.3,2.7
	c-0.2,0.3-0.5,0.6-0.8,0.8c0-0.1,0.1-0.2,0.1-0.3l0,0c-0.1,0.1-0.1,0.2-0.1,0.3c0.8,0.9,1.2,1.1,1.7,1.1c0.3,0,0.7-0.1,1.3-0.1h0.3
	c2.1,0.4,2.3,1.5,2.2,2.3c-0.3,1.4-1.6,2.4-3.1,2.3c-0.2,0-0.5,0-0.7-0.1c-0.5-0.1-0.9-0.2-1.4-0.2c-0.5,0-1,0.2-1.3,0.6l-0.3,0.4
	c-0.1,0.2-0.2,0.3-0.3,0.5c-0.5,0.7-1.3,1.1-2.2,1.2c-0.6-0.1-1.2-0.3-1.8-0.6l0,0l0.1,0.1v6.5c0.7,0.4,5.5,3.5,6.1,3.9s0,0.7,0,0.7
	H19.9c-1.1,0-0.4-0.8-0.4-0.8l5.8-3.8c-0.1-1.6-0.1-3.1,0-4.7v-0.8c-0.2,0.1-0.5,0.1-0.7,0.1c-0.8,0-1.5-0.2-2.1-0.7
	c-0.5-0.5-1.1-1-1.7-1.4l0,0c-0.4-0.3-0.9-0.5-1.4-0.5h-0.1L19,48h-3.4c-0.9-0.1-1.6-0.7-1.8-1.5c-0.1-0.5,0.1-1,0.5-1.3
	c1.4-0.7,2.6-1.8,3.4-3.2l0,0l-0.1-0.1l0,0c-0.6-0.7-1.1-1.5-1.4-2.3l0,0c-0.5-0.2-4.5-3.4-4.5-7.9l0,0v-0.2c0-2.1,0.4-4.2,1.3-6.1
	c1.3-3.1,4.1-5.4,5.8-6.8c1.2-0.8,2.2-1.8,2.9-3l0,0l0.4-0.7c0.2-0.6,0.4-1,0.5-1.4c0.5-1.9,1.2-3.8,2-5.7c0.3-0.6,0.6-1.1,0.9-1.6
	l0,0c1-1.7,2.6-2.9,4.4-3.5H30l1-0.4C31.7,1.8,32.5,1.6,33.3,1.5 M27.4,13.3l0.1,0.1L27.4,13.3L27.4,13.3 M36.4,18.1
	c-0.4-0.3-0.9-0.5-1.4-0.7l0,0C35.5,17.6,36,17.8,36.4,18.1 M37.7,42.1L37.7,42.1 M33.3,0.5L33.3,0.5c-0.9,0.1-1.9,0.4-2.7,0.8
	L30,1.5l-0.5,0.2l-0.1,0.1c-2.1,0.7-3.8,2.1-4.9,4c-0.4,0.5-0.7,1.1-1,1.7v0.1c-0.7,1.7-1.4,3.4-1.9,5.2l-0.2,0.6
	c-0.1,0.4-0.3,0.8-0.5,1.2l-0.3,0.7c-0.7,1-1.6,1.9-2.6,2.6l0,0c-2.6,1.9-4.7,4.3-6.1,7.2l-0.1,0.2c-0.9,2-1.3,4.2-1.3,6.4v0.2
	c0,4.2,3.2,7.6,4.7,8.6c0.2,0.7,0.6,1.3,1.1,1.8c-0.6,0.8-1.3,1.5-2.2,1.9c-0.2,0.1-0.4,0.2-0.6,0.4c-0.8,0.5-1.1,1.5-0.9,2.4
	c0.3,1.3,1.4,2.3,2.8,2.3h2.7L19,49h0.4c0.3,0.1,0.6,0.2,0.9,0.3l0.5,0.4c0.4,0.3,0.7,0.6,1,0.9c0.7,0.6,1.6,1,2.5,1v4L19,59.1
	c-0.1,0-0.1,0.1-0.2,0.2c-0.5,0.4-0.6,1.1-0.4,1.7c0.3,0.6,0.9,0.9,1.5,0.8h18.2c0.2,0,0.3,0,0.4-0.1c0.5-0.2,0.8-0.6,0.8-1.1
	c0-0.5-0.2-1-0.7-1.3c-0.5-0.3-4-2.6-5.6-3.7V51c0.2,0.1,0.5,0.1,0.7,0.1c1.1-0.1,2.2-0.6,2.9-1.5c0.1-0.1,0.1-0.1,0.1-0.2l0.2-0.4
	v-0.1l0.2-0.4c0.1-0.1,0.3-0.2,0.5-0.2c0.4,0,0.8,0.1,1.2,0.2h0.1c0.3,0,0.6,0.1,0.9,0.1c1.9,0.2,3.7-1.1,4.1-3v-0.1
	c0.2-1,0-2.9-3-3.5h-1.8c-0.1,0-0.2,0-0.3-0.1l0.1-0.2c0.8-0.8,1.3-1.9,1.5-3l1.8-1.8l0,0c3.3-3.5,2.8-8.2,2.5-10.1
	c-0.1-0.3-0.1-0.6-0.2-0.9l0,0c-0.7-2.4-1.9-4.6-3.6-6.5v-0.1c-1.4-1.6-3.2-2.8-5.2-3.5l-1-0.3c-1.1-0.3-2.7-0.8-4.1-1.3
	c-1-0.4-1.8-1-2.5-1.8c-0.3-0.7-0.5-1.4-0.5-2.1c-0.1-2.2,0.9-4.4,2.6-5.8c1-0.6,2.2-1.2,3.3-1.6c0.5-0.1,0.9-0.5,1.1-1
	c0.1-0.6-0.1-1.2-0.6-1.5C33.9,0.6,33.6,0.5,33.3,0.5z"/>
<path style="fill:#AA1F61;" d="M25.3,49.8v6.3L19.5,60c0,0-0.8,0.8,0.4,0.8h18.2c0,0,0.6-0.3,0-0.7l-6.1-4v-5.4c0,0-4.2-0.5-5.2,0
	S25.3,49.8,25.3,49.8z"/>
<path style="fill:#640E3D;" d="M32,49.5v-0.9c0,0-5.2-0.6-6,0.2c-0.5,0.6-0.7,1.3-0.7,2.1v2.6c1.1-0.4,2.1-0.9,3-1.5
	c0.7-0.7,1.1-0.7,1.2-0.3s0,4.6,0,4.6H32V49.5z"/>
<path style="fill:#AA1F61;" d="M33.5,1.5c0,0-0.2-0.3-2.5,0.7s-4.5,1.5-6.5,5.6c-0.8,1.8-1.5,3.7-2,5.7c-0.4,1.6-1.2,3.1-2.3,4.3
	c-1,0.9-4.5,3.4-6,6.7s-3.2,8,0.6,13.4c1.5,1.3,1.6,1.8,1.6,1.8c0.3,0.9,0.7,1.7,1.4,2.4c-0.3,0.8-0.2,1.7-4.1,4.3
	c0.2,0.9,1,1.5,1.9,1.6c0.8,0,4.3-0.3,5,0.3s1.3,1,2,1.6c0.4,0.5,2.6,1.2,3.7,0.1s1.6-2.5,5-1c1.7,1,2.7,1.9,4.7-0.1
	c0.6-1,0.8-1.9,3.3-1.2c1.4,0.2,3.4-0.1,3.8-2.2c0.1-0.8,0-1.9-2.2-2.3c-1.7-0.1-2,0.5-3.3-1c0-0.4,0.9-1.2,0.9-1.9s0-1-0.9-1.2
	s-3.1,0.2-3.2-0.7c0-0.7,0.2-1.4,0.5-2.1c0.2-0.7,3.7-0.8,5.5-3c1.5-1.9,2.1-2.5,1.7-6.3s-5.6-7.6-8.7-9s-6.4-3.6-6.6-7.5
	c0-2.5,1.1-5,3-6.6c1.1-0.7,2.3-1.3,3.6-1.7C33.7,2.2,33.9,1.9,33.5,1.5z"/>
<path style="fill:#942240;" d="M24.8,38.5c0.2-0.6,0.8-1,1.4-1c0.9,0,2,0.3,2.5,0s0.8-0.6,0.3-0.6s-2.5,0.2-3.4-0.6
	c-0.1-0.1-0.2-0.1-0.3,0c0,0,0,0,0,0c-0.1,0.1-0.4,0.4-0.4,0.3s0.5-1,1.1-0.9c0.1,0,0,0.2-0.1,0.3s-0.2,0.2,0,0.3
	c0.9,0.5,2,0.7,3,0.5c0.9-0.3,1-0.5,1-0.6s-0.2-0.5,0.3-0.5c0.4,0,0.7,0.1,1.1,0.2c0.2,0,0.5-0.2,0.2-0.4c-0.7-0.7-1.3-1.5-1.7-2.4
	c-0.1-0.6-0.1-0.6,0-0.5s1.1,2.7,3.5,3s3.2,0.1,3.7-0.5c1.6-2.3,2.6-4.9,3-7.6c0.5-0.1-6.4-4.1-8-2.6c-1.3,1.5-2.2,3.2-2.8,5
	c0,0.2-0.4-0.6-0.4-1.6s0.3-4.6,2.9-5.2c2.4-0.7,4.3-1.2,6.2-0.2s3.2,1.4,0.6-1c-2.3-1.7-6-2.3-7.5-1.8c-0.8,0.2-1.5,0.5-2.1,1
	c-0.2,0.1-0.8-0.5,0.1-1.2c0.4-0.4,0.9-0.6,1.4-0.7c0.4-0.1,0.3-0.5-0.4-1.1c-1.1-0.8-1.9-1.9-2.4-3.2c-0.3-0.9-0.5-1.8-0.6-2.8
	c0.5,1.8,1.9,3.3,3.7,3.9c3.1,1.1,6.4,2,8.4,4s4.5,4.7,5,7.3s0.4,6.5-2.2,9.2c-0.8,0.7-1.6,1.5-2.3,2.3c-0.2,1.3-0.9,2.5-1.9,3.4
	c0.6-1.5,0.2-2.3-0.2-2.3s-2.7,3.7-6.8,2.1c-2.2-0.8-2.3-1.5-3.3-0.7c-1.5,1.4-3.5,2.2-5.6,2.2c-3.2,0-3.4-0.9-2.9-0.8
	s3.8,1.3,5.9-0.2C26.6,41,24.8,38.5,24.8,38.5z"/>
<path style="fill:#942240;" d="M20.7,20.7c0,0-0.1-1.1,1.8-0.8s4.1,0.9,4.1,3.4c0.1,1,0,2.1-0.3,3.1c1.5,1.9,0.9,5.1,0,6.9
	c-1.4,2.7-4.5,4.2-7.5,3.5c-2.5-0.9-4.1-1.6-5.1-4.6c-0.6-1.7-0.3-3.7,0.7-5.2c1.2-1.6,3-3.3,5.1-3.6s4,0.5,4.6,0.4s1.6-1.5,1.1-2
	c-0.5-0.6-1.2-1-1.9-1.1C22.4,20.6,21.6,20.6,20.7,20.7z"/>
<path style="fill:#640E3D;" d="M14,27.9c0.7-1.4,1.8-2.5,3.2-3.2c2.1-1,4.5-1.2,6.8-0.6c1.1,0.4,0.2,1.6-0.1,1.4S18.5,22.5,14,27.9z
	"/>
<path style="fill:#FFFFFF;" d="M13.6,29.3c0,0,7-1,12.9,2.2c-0.1-1.9-0.1-3.2-1.3-4.6c-1.5-2-4-3-6.5-2.5
	C16.2,24.8,14.1,26.8,13.6,29.3z"/>
<path style="fill:#AA1F61;" d="M16.6,28.9c-0.2-1.3,0.3-2.6,1.3-3.5c1.5-1,3.5-1,5,0c1.6,1.1,2.4,2.3,1.9,4.2s-0.4,0.9-0.4,0.9h-4.3
	c0,0-3.4-1.1-3.4-1.2C16.7,29.2,16.6,29,16.6,28.9z"/>
<path d="M17.5,29.3c-0.7-1.1-0.5-2.5,0.4-3.4c1.6-1.4,4-1.3,5.5,0.2c0,0,0.1,0.1,0.1,0.2l0,0c1.4,1.7,1,3.1,0,4
	C22.7,30.3,17.5,29.3,17.5,29.3z"/>
<path style="fill:#FFFFFF;" d="M19,26.9c-0.3,0-0.5,0.2-0.6,0.5c0,0.3,0.2,0.6,0.5,0.6c0.2,0,0.4-0.1,0.5-0.3
	C19.7,27.2,19,26.9,19,26.9z"/>
<path style="fill:#FFFFFF;" d="M24,27.7c-0.1,0-0.6,0.4-0.3,0.7c0.5,0.3,1,0.6,1.5,0.8c0.3,0.2,0.5-0.4,0.3-0.7
	C25.3,27.9,24.6,27.5,24,27.7C24,27.7,24,27.7,24,27.7z"/>
<path style="fill:#FFFFFF;" d="M17.9,27.2c0,0-0.4-0.7-1.5-0.1s0.1,1.4,0.5,1.5s1-0.1,1.1-0.5C18.2,27.8,18.1,27.4,17.9,27.2z"/>
<path style="fill:#AA1F61;" d="M15.7,29.3c0,0-0.4,5,1.8,6c1.4,0.7,3,0.8,4.4,0.3c0.6-0.3,2.7-2.3,2.9-3.4c0.2-0.5,0.2-1.1,0.2-1.6
	c-0.3-0.1-0.6-0.2-0.9-0.4c-2.7-0.9-5.5-1.3-8.3-1.2C15.7,29.1,15.7,29.2,15.7,29.3z"/>
<path style="fill:#942240;" d="M15,34.2c0,0,2.3,2.3,4.4,2.5c2.3,0,3.9,0.1,6-2.5c0.5-0.9,0.9-1.9,1-2.9c-0.9-0.4-1.7-0.8-2.6-1.1
	C23.7,32,22.9,38,15,34.2z"/>
<path style="fill:#CD4795;" d="M16.3,29.2c0,0-0.5,5.1,3.2,6.3c-1.1-0.1-2.2-0.3-3.3-0.7c-1.1-1.7-1.5-3.6-1.3-5.6
	C15.4,29.1,15.8,29.1,16.3,29.2z"/>
<path style="fill:#CF76AB;" d="M15,34.2c-1.2-1.4-1.7-3.2-1.4-5c0.6-0.1,1.1-0.1,1.7-0.1c-0.4,2,0,4,1,5.7
	C15.8,34.6,15,34.2,15,34.2z"/>
<path style="fill:#CD4795;" d="M15,25.3c-2,2-2.7,4.9-1.8,7.6c1.6,4.3,2.6,5.6,3,5.9s0.3,0.9-0.1,0.8s-4.5-3.4-4.5-7.9
	c0.3-2.3,2.3-8.1,4.1-10s4.8-4,5.3-4.7c0.3-0.5,0.7-1,1.1-1.5c0.3-0.3,0.8,0.3,0.3,1c-0.5,0.7-4.2,3.9-4.7,5.3
	c0.1,0.2,0.1,0.3,0.4,0.2c1.4-1,3.2-1.4,4.9-1.1c0.9,0.3,0.8,1.8-0.6,1.8C19.7,22.6,17.1,23.6,15,25.3z"/>
<path style="fill:#CD4795;" d="M28.4,21.3c0,0-0.6,0.7-0.2,1.2s0.9,0.8,1.4,0.4c1.1-1,2.6-1.4,4.1-1.3c1.9,0.3,1.8-0.3,1.8-0.5
	c-1.4-0.9-3.2-1.1-4.8-0.6C29.9,20.6,29.1,20.9,28.4,21.3z"/>
<path style="fill:#CD3483;" d="M27.4,13.2c0.8,0.9,1.8,1.7,3,2.2c2,0.7,4.5,1.4,5.1,1.6c1.8,0.6,3.5,1.7,4.8,3.1
	c1.6,1.8,2.8,3.9,3.5,6.2c-1.9-3.3-4.7-7.5-8.8-8.9S28.8,16,27.4,13.2z"/>
<path style="fill:#CD4795;" d="M23.3,11.1c0,0.1-0.4,1.7,0.2,1.8c0.5,0.1,1.1-0.2,1.2-0.8c0,0,0,0,0,0V12c0.2-0.6,0.4-4.1,2.4-6.3
	s1.9-2.2,2.6-2.6s0.8-0.8,0.2-0.5c-1.9,0.6-3.5,1.9-4.6,3.6C24.4,7.7,23.7,9.4,23.3,11.1z"/>
<path style="fill:#CF76AB;" d="M24.9,7.8c0,0-0.4-0.1-0.7,0.9s-1.1,2.6-0.5,2.9s0.8-0.8,0.9-1.2c0.1-0.7,0.3-1.3,0.5-2
	C25.3,8.1,25.1,7.7,24.9,7.8z"/>
<path style="fill:#CD4795;" d="M22.3,14.5c0.3,0.4,0.8,0.6,1.3,0.7c0.6,0,1,0.4,1,1c0,0,0,0.1,0,0.1c0,0.1,0,0.2-0.1,0.3
	c-0.4,0.7-0.6,1.3-1.6,1c-0.7-0.2-1.4-0.1-2,0.3c-0.4,0.2-0.3,0-0.7,0.2s-0.5,0-0.5,0c0.6-0.4,1-0.9,1.4-1.5
	c0.3-0.7,0.7-1.4,1.1-2.1L22.3,14.5z"/>
<path style="fill:#CF76AB;" d="M23.4,16.8c0.2-0.3,0.4-0.5,0-0.7c-0.6-0.2-1.2-0.4-1.8-0.5h-0.1c-0.7,1.2-1.7,2.2-2.9,3
	c-1.7,1.4-4.5,3.7-5.8,6.8c-0.9,1.9-1.3,4.1-1.3,6.2c0.1,2.9,0.7,2.4,0.8,2.5c0-0.5-0.1-1.1-0.2-1.6C12,32,12,27.6,14.3,25.8
	c1.2-1.1,2.7-2,4.2-2.6c0.6-0.1,1.2-0.3,1.6-0.8c0.2-0.4,0-1.1-1.5-0.4c-1.3,0.6-2.5,1.3-3.6,2.1c-0.5,0.4-0.5,0-0.2-0.5
	s3.8-4.7,5.9-5.9c0.5-0.4,1.2-0.6,1.9-0.6C22.9,17,23.2,17,23.4,16.8z"/>
<path style="fill:#640E3D;" d="M40.6,24.7c-0.8-1-1.9-1.7-3.1-2.1c-1.6-0.5-3.2-0.5-4.8,0c-0.8,0.4-0.3,1.1,0.1,1
	c1.2-0.5,2.4-0.6,3.7-0.5c1.4,0.4,2.8,1.1,4,2C40.8,25.3,40.6,24.7,40.6,24.7z"/>
<path style="fill:#FFFFFF;" d="M29.3,31.1c-0.4-1.7-0.2-3.5,0.7-5c1.4-2.2,3.8-4,7.9-2.9c1.9,0.7,3.4,2.1,4.1,4
	c-1,0-6.7-0.3-10.5,2.3C30.7,30,30,30.5,29.3,31.1z"/>
<path style="fill:#AA1F61;" d="M39.9,27c0,0,0.5-2.4-1.4-3.2s-4.1-1.6-6.4,1.1c-0.8,1.3-0.6,2.9,0.3,4.1C33.7,29.2,39.6,29,39.9,27z
	"/>
<path d="M34.2,23.6c1.4-0.6,3.1-0.4,4.3,0.5c1,0.8,1.3,2.2,0.8,3.4c-2,0.6-4.1,1-6.2,1.4c-0.8-0.6-1.3-1.5-1.3-2.5
	C32,25.1,32.9,24,34.2,23.6z"/>
<path style="fill:#FFFFFF;" d="M38.8,25.1c-0.3,0.2-0.4,0.5-0.2,0.8c0.1,0.1,0.1,0.2,0.2,0.2c0.5,0.2,1.2,0.2,1.7,0
	c0,0,0.2-0.7-0.3-0.9C39.8,25,39.3,25,38.8,25.1z"/>
<path style="fill:#FFFFFF;" d="M34,26c-0.3,0.1-0.5,0.3-0.4,0.6c0,0.2,0.2,0.4,0.4,0.4h0.2c0.3-0.1,0.6-0.2,0.5-0.6S34,26,34,26z"/>
<path style="fill:#FFFFFF;" d="M32.5,26.6c-0.5,0-0.9,0.4-1,0.9c-0.2,0.8,0.9,0.9,1.2,0.8c0.4-0.2,0.7-0.6,0.6-1.1
	C33.3,26.8,32.9,26.6,32.5,26.6C32.5,26.6,32.5,26.6,32.5,26.6z"/>
<path style="fill:#AA1F61;" d="M31.6,29.6c0,0,0.9,3.2,2.5,4.1c0.8,0.3,1.5,0.9,1.9,1.7c1.2-0.1,2.3-0.5,3.2-1.2
	c1.4-1.2,2.2-1.7,2.8-3.8c0.2-1.1,0.2-2.1,0-3.2h-0.7c-2,0-6.3,0-9.8,2.3L31.6,29.6z"/>
<path style="fill:#942240;" d="M41.4,27.5c0-0.1,0.7,2.9-0.7,4.8c-0.7,1.1-1.8,2-3,2.5c-0.3,0.1-0.1-0.4,0.2-0.9
	c1.2-2,1.8-4.2,1.9-6.5v-0.2h1.6V27.5z"/>
<path style="fill:#CD4795;" d="M30.1,30.5c0,0,2.1,4.4,5.4,5c0.6,0,1.1-0.2,1.6-0.5c0.2-0.2,0.1-0.2-0.2-0.4s-2.9-0.8-3.6-1.7
	c-0.8-1-1.3-2.2-1.7-3.4C31.1,29.8,30.6,30.1,30.1,30.5z"/>
<path style="fill:#CF76AB;" d="M29.3,31.3c0.2,1.1,0.8,2.1,1.6,2.9c0.7,0.6,1.6,1.6,4.9,1.2c0.3-0.2-0.5-0.2-0.8-0.4
	c-2.2-0.8-3.9-2.5-4.7-4.7c-0.5,0.4-1.1,0.8-1.1,0.8L29.3,31.3z"/>
<path style="fill:#640E3D;" d="M32.6,35.5c-0.7-0.5-1.3-1-1.9-1.6c-0.4-0.5-0.7-1-1-1.6C29.9,33,30,34.4,32.6,35.5z"/>
<path style="fill:#CF76AB;" d="M26,36c0-0.1,0.1-0.2,0.2-0.2h0c0.2,0,0.2,0.4,0.8,0.4c0.4,0,0.7,0,1.1,0.1c0.1,0.1,0,0.2-0.3,0.3
	C27.5,36.7,26.2,36.4,26,36z"/>
<path style="fill:#CD4795;" d="M26,36.5c-0.2,0-0.2,0.1-0.1,0.2c0.3,0.2,0.7,0.3,1.1,0.3h0.6c0.1,0-0.1-0.1-0.6-0.2
	C26.6,36.8,26.3,36.7,26,36.5z"/>
<path style="fill:#640E3D;" d="M25.1,36.3c0.1-0.2,0.2-0.3,0.4-0.4c0.2-0.1,0.4-0.3,0.5-0.3s-0.1,0.2-0.1,0.3S25.7,36,26,36.1
	c0.7,0.3,1.5,0.5,2.3,0.4c1.2-0.1,1.8-0.3,1.9-0.5l0,0c0,0-0.2-0.2,0.5,0c0.2,0.1,0.4,0.2,0.5,0.4c0,0-0.6-0.3-0.7-0.2
	c-0.3,0.2-1,0.7-3.3,0.5c-0.6-0.1-1.1-0.3-1.5-0.7h-0.2C25.3,36.1,25,36.3,25.1,36.3z"/>
<path style="fill:#CF76AB;" d="M13.7,46.5c-0.1-0.5,0.1-1,0.5-1.3c1.4-0.7,2.6-1.8,3.4-3.2c0.1,0.1,0.2,0.1,0.3,0.1
	C17.1,44,15.6,45.6,13.7,46.5z"/>
<path style="fill:#CD4795;" d="M18.2,47.9c1.1-1,2-2.1,2.7-3.4c0.4-0.7,2.6-0.7,1.8,1c-0.5,1.1-1.2,2.1-1.9,3.1
	c-0.4-0.3-1-0.5-1.5-0.5C18.9,48.1,18.6,48,18.2,47.9z"/>
<path style="fill:#CD4795;" d="M27.2,49.1c0,0,0.6-2.8,0.6-3.4s2.1-1,2.2,0.5c0,0.9-0.1,1.7-0.4,2.5C28.8,48.4,27.9,48.5,27.2,49.1z
	"/>
<path style="fill:#CD4795;" d="M36.1,48.6c0,0-2.9-2.7-1.4-3.6c1.3-0.8,2,0.9,2.4,1.3l1.2,1.2c-0.6-0.2-1.3,0-1.7,0.5
	C36,48.9,36.1,48.6,36.1,48.6z"/>
<path style="fill:#640E3D;" d="M42,27.2c0,0,1.1,4.8-2.8,7c-0.7,0.4-1.4,0.8-2.1,1.1c0,0,3.5-0.8,4.6-3C42.8,30.6,42.9,25.7,42,27.2
	z"/>
<path style="fill:#640E3D;" d="M26.6,29c0.3,2.7-0.8,5.3-2.9,7C26.2,34.7,27.5,31.7,26.6,29z"/>
<path style="fill:#640E3D;" d="M14,27.9c0,0-2,3.7,1.8,7.4c1.3,0.9,2.7,1.5,4.3,1.6c-0.5,0.3-4.7-0.2-6.1-3.4S13.3,28.8,14,27.9z"/>
<path style="fill:#AA1F61;" d="M39,39.6c-0.3,1.3-1.2,2.4-2.3,3.2c-1.6,1-3.5,2-5.4,1.3c-1.5-0.5-2.1-1-1.7-1.3
	c0.1-0.1,0.3-0.1,0.4,0.1c0,0,0,0,0,0.1c0.2,0.1,0.4,0.3,0.4,0.1s-0.2-0.2-0.4-0.3s-0.8-0.9-0.6-1.2s0.4-0.2,0.6-0.1
	c0,0-0.1-0.3,0-0.4c0.2-0.2,0.5-0.2,0.7,0c0.3,0.2,1,0.6,1.1,0.3s-0.2-0.3-0.4-0.6s-0.4-0.5-0.2-0.6s0.5-0.2,1,0.3
	c0.8,0.5,1.8,0.6,2.7,0.4c1.1-0.3,2.1-0.9,2.9-1.8c0.3-0.3,0.8-0.1,0.8,0.7C38.8,40.1,39,39.6,39,39.6z"/>
<path style="fill:#640E3D;" d="M37.8,39c-0.4,0.4-0.9,0.7-1.4,1c-0.9,0.6-1.9,0.8-2.9,0.5c-1.1-0.4-1.5-0.6-1.8-0.7
	s-0.4-0.1-0.5,0.1S31,40.2,31,40.2s0.6,0.7,0.6,0.8S31.2,41,31,41s-0.8-0.5-1-0.1s-0.1,0.3-0.1,0.3c-0.2-0.1-0.5,0-0.5,0.3l0,0
	c-0.2,0.5,0.1,1.1,0.6,1.3c0.1,0-0.1-0.3-0.1-0.3s-0.5-0.9-0.2-1c0.1-0.1,0.3-0.2,0.5-0.2c0.2,0.3,0.4,0.6,0.7,0.8
	c0-0.1,0-0.1-0.2-0.2c-0.3-0.2-0.5-0.4-0.6-0.7c0-0.1,0-0.5,0.6-0.3c0.5,0.2,1.1,0.7,1.3,0.4c0-0.1,0-0.2-0.2-0.3s-0.7-0.6-0.2-0.8
	c0.3,0.1,0.6,0.2,0.9,0.4c0.7,0.4,1.6,0.5,2.4,0.4c1.2-0.2,2.2-0.8,3.1-1.7C37.9,39.1,38.1,39,37.8,39z"/>
<path style="fill:#CF76AB;" d="M31,43.8c0,0,0.1-0.2-0.1-0.3s-1.2-0.6-1.2-0.9c0-0.1-0.3,0.1-0.3,0.4C29.8,43.5,30.4,43.8,31,43.8z"
	/>
<path style="fill:#CF76AB;" d="M29.6,41.9v-0.2c0-0.1-0.1-0.2-0.2,0s-0.3,0.4,0.5,1c0.1,0,0.1,0,0-0.1v-0.1L29.6,41.9z"/>
<path style="fill:#CF76AB;" d="M30.2,41.2l0.1-0.3c0,0-0.1,0-0.1,0L30,41c0,0.1,0.2,0.9,0.7,1c0.2-0.1-0.1-0.3-0.1-0.3
	S30.2,41.4,30.2,41.2z"/>
<path style="fill:#CD4795;" d="M38.8,37.2c0,0-0.1-0.5-0.2-0.2c-0.1,0.3-0.1,0.6,0.1,0.8c0.3,1.1,0.1,2.3-0.5,3.2
	c-0.8,1-1.8,1.9-2.9,2.6c1.2-0.4,2.2-1.1,3-2C39.3,40.3,39.5,38.6,38.8,37.2z"/>
<path style="fill:#640E3D;" d="M30.7,44c1.6,0.5,3.3,0.3,4.7-0.4C36.2,43.3,33.4,45.8,30.7,44z"/>
<path style="fill:#AA1F61;" d="M17.9,39.6c-0.1,0-1.4-0.2-0.6,0.7c1.3,1.6,3.4,2.5,5.5,2.3c1.8-0.3,4.5-0.7,5.4-4.3
	c0.3-1,0.2-2.1-0.1-3.1c-0.3-0.2-0.6-0.3-0.8-0.1c0-0.1-0.5-0.7-0.7-0.4c-0.1,0.5-0.3,0.3-0.3,0.3s-0.5-0.7-0.8,0.1
	c0.1,0.5,0.1,1.1,0,1.6c-0.1,0.3-0.5-1.2-0.5-1.2l-1.1-0.3l-1.7,1.9C22,38,21.6,38.5,21,38.8c-0.6,0.3-1.2,0.5-1.9,0.6
	C18.7,39.5,18.3,39.6,17.9,39.6z"/>
<path style="fill:#CF76AB;" d="M18,39.8c1.4,0.2,2.8,0.1,4.1-0.5c1.2-0.8,1.6-0.8,2.1-2.5c0.1-0.5,0.2-0.9,0.5-0.7
	c0.2,0.3,0.3,0.7,0.3,1.1c0.1,0.3,0.2,0.3,0.4,0.2s0.4-0.7,0.3-1.1s-0.2-1.3,0.1-1.4s0.4,0,0.4,0s-0.3-0.5-0.5-0.2
	c-0.3,0.3-0.4,0.7-0.2,1.1c0.1,0.3,0.4,1.2-0.1,1.4c-0.2-0.2-0.1-0.3-0.2-0.7s-0.3-0.8-0.8-0.6s-0.1,0.9-0.7,1.7
	c-0.9,1.3-2.4,2-3.9,2C18.6,39.8,17.8,39.5,18,39.8z"/>
<path style="fill:#CD3483;" d="M26.8,35.3c0,0,0.3,1.4-0.1,1.9c-0.1-0.1,0.2-0.8,0.1-1.2s-0.4-0.9-0.3-1.2s0.4-0.3,0.5,0
	C26.7,34.8,26.5,35,26.8,35.3z"/>
<path style="fill:#640E3D;" d="M25.6,42c1.3-0.7,2.3-1.8,2.8-3.2c0.3-1,0.2-2.1-0.2-3.1c-0.1-0.3-0.5-0.8-0.9-0.7
	c-0.1-0.1-0.4-0.4-0.6-0.3c0.5,0.3,0.7,0.8,0.7,1.4c0,0.6-0.1,0.9,0,0.9c0.2-0.2,0.3-0.5,0.2-0.8c0-0.3-0.3-0.9-0.1-0.8
	s0.8,0.5,0.6,2.2C28.1,39.3,27.2,41,25.6,42z"/>
<path style="fill:#640E3D;" d="M26.4,35c0,0-0.5-0.5-0.4,0c0.3,0.5,0.4,1.2,0.3,1.8c0.1,0.3,0.3,0,0.3,0S27,36.3,26.4,35z"/>
<path style="fill:#CD4795;" d="M17.8,39.9c0-0.1-0.9-1-1.2-0.4c0.5,1.3,1.5,2.3,2.7,2.9c0.8,0.3,1.7,0.5,2.6,0.4
	c0.5,0,0.9-0.2,0.9-0.3s-0.6,0-1.2,0c-0.7,0-1.4-0.3-2-0.7C19,41.1,18.4,40.6,17.8,39.9z"/>
<path style="fill:#640E3D;" d="M22.7,42.7c0,0,3.5-0.1,4.7-2.5C27.7,40.7,26,42.9,22.7,42.7z"/>
<path style="fill:#942240;" d="M25.4,51.3c-0.1,1.6-0.1,3.2,0,4.8h1.4c0,0-0.3-2.9,1.9-2.5c0.4,0.8,0.4,1.7,0.2,2.5
	c-0.1,0,3.1,2.2,3.4,2.7s2.3,1.3,1.8,1.9c4.1,0,4.7,0.1,4.1-0.7c-1.3-0.9-6.1-4-6.1-4S32,47.8,25.4,51.3z"/>
<path style="fill:#CF76AB;" d="M27.2,51.5c-0.3-0.2-0.9-0.5-1,0.1s0,4.7,0,4.7s-4.7,3.4-4.8,3.4s-0.7,0.5,0.4,0.6s10.3,0.2,10.4,0.1
	s2-0.4-2.2-0.4s-5.5-0.1-5.6-0.5s3.1-3.2,3.1-3.2v-2.9C27.5,52.8,27.4,52.1,27.2,51.5z"/>
</svg>
