<?xml version="1.0" encoding="utf-8"?>
<!-- Generator: Adobe Illustrator 22.0.0, SVG Export Plug-In . SVG Version: 6.00 Build 0)  -->
<svg version="1.1" id="Слой_1" xmlns="http://www.w3.org/2000/svg" xmlns:xlink="http://www.w3.org/1999/xlink" x="0px" y="0px"
	 viewBox="0 0 55.8 62.9" style="enable-background:new 0 0 55.8 62.9;" xml:space="preserve">
<title>Artboard 1 копия 11</title>
<g id="Слой_21">
	<path style="fill:#57401B;" d="M23.7,61.3c-4.8,0-4.9,0-5.1-0.2c-0.2-0.1-0.3-0.3-0.3-0.5c0-0.3,0.1-0.6,0.3-0.9l0.1-0.1L24,56
		v-3.9h-0.5l0,0c-1,0-6.2-1.2-8.4-3.5L15,48.5l-0.7-0.8c-0.4-0.2-0.7-0.5-0.9-0.8c-0.2-0.2-0.4-0.4-0.5-0.6l-0.2-0.3
		c-0.1-0.2-0.2-0.4-0.3-0.6c-2-2.8-3-6.2-2.9-9.6c0.2-7.1,1.3-11.6,3.4-14.1s8.5-7.6,10-8.7s3.1-2.4,3.1-2.4c0.4-0.5,1-0.7,1.6-0.7
		c0.4,0,0.8,0.1,1.2,0.4c2,1.3,7,4.5,8.6,5.7s7.7,6.7,8.5,11.8c0.9,5.1,0.4,10.3-1.2,15.2c-0.2,0.7-0.5,1.3-0.7,1.9
		c-0.1,1.1-0.6,2.2-1.5,2.9c-1.6,2.3-4,3.7-6.7,4c-1.3,0.2-2.7,0.4-4,0.5v4.2c2.1,1.3,5.2,3.2,5.4,3.3s0.5,0.7,0.3,1.3
		c-0.1,0.2-0.3,0.4-0.5,0.4C37,61.2,29.1,61.3,23.7,61.3z"/>
	<path style="fill:#FFFFFF;" d="M27.6,10.3c0.3,0,0.7,0.1,0.9,0.3c1.9,1.2,7,4.5,8.6,5.7c2,1.5,7.5,6.8,8.3,11.5
		c0.8,5,0.4,10.1-1.2,14.9c-0.2,0.7-0.5,1.3-0.7,1.9c-0.1,1-0.6,2-1.4,2.6c-1.5,2.2-3.9,3.6-6.5,3.8c-1.5,0.3-3,0.4-4.5,0.5l0,5
		c0,0,5.4,3.4,5.6,3.5s0.1,0.7,0.1,0.7s-7.9,0.1-13.3,0.1c-2.7,0-4.7,0-4.8-0.1c-0.3-0.2,0.1-0.6,0.1-0.6l5.5-3.8v-4.8
		c-0.3,0-0.6,0.1-1.1,0.1l0,0c-1,0-5.9-1.2-7.9-3.3l-0.9-1c-0.4-0.2-0.7-0.5-0.9-0.8c-0.2-0.1-0.3-0.3-0.4-0.5L13,45.6
		c-0.1-0.2-0.2-0.4-0.3-0.6c-2-2.7-3-6-2.8-9.4c0.2-6.8,1.2-11.3,3.3-13.8c3.1-3.1,6.4-6,9.9-8.6c1.7-1.2,3.1-2.4,3.1-2.4l0,0
		C26.6,10.5,27.1,10.3,27.6,10.3 M27.5,9.3c-0.8,0-1.5,0.3-2,0.9c-0.3,0.2-1.5,1.3-3,2.3s-7.9,6.2-10.1,8.8s-3.3,7.1-3.5,14.3
		c-0.1,3.5,0.9,7,2.9,9.9c0.1,0.2,0.2,0.4,0.4,0.6l0.2,0.3c0.1,0.3,0.3,0.5,0.6,0.7c0.3,0.4,0.6,0.7,1,0.9l0.7,0.7l0.1,0.2
		c2.2,2.3,7.4,3.7,8.7,3.7h0.1v3.1l-5.1,3.5c-0.1,0-0.1,0.1-0.2,0.2c-0.3,0.3-0.5,0.8-0.4,1.3c0.1,0.4,0.3,0.7,0.6,0.8
		c0.3,0.2,0.4,0.2,5.3,0.2c5.3,0,13.2-0.1,13.3-0.1c0.4,0,0.8-0.3,1-0.7c0.3-0.7,0.1-1.5-0.6-1.8c-0.2-0.1-3.1-1.9-5.1-3.2v-3.5
		c1-0.1,2.2-0.2,3.6-0.5c2.8-0.3,5.4-1.8,7-4.1c0.9-0.8,1.5-1.9,1.6-3.1c0.2-0.6,0.5-1.2,0.7-1.8c1.7-5,2.1-10.3,1.2-15.4
		c-0.9-5.3-7.1-10.9-8.7-12.1s-6.6-4.5-8.7-5.8C28.6,9.4,28.1,9.3,27.5,9.3L27.5,9.3z"/>
	<path style="fill:#C89936;" d="M24.5,50.7v5.5L19,60.1c0,0-0.4,0.5-0.1,0.6s18.1,0,18.1,0s0.2-0.6-0.1-0.7s-5.6-3.5-5.6-3.5
		l-0.1-5.3l-3.5-1.6L24.5,50.7z"/>
	<path style="fill:#C89936;" d="M26.3,10.9c0.6-0.6,1.5-0.8,2.2-0.3c1.9,1.2,7,4.5,8.6,5.7c2,1.5,7.5,6.8,8.3,11.5
		c0.8,5,0.4,10.1-1.2,14.9c-1.7,5.1-3.8,7.6-8.5,8.4s-6.1,0.5-8,0.1c-1.4-0.3-1.6,0.4-4.2,0.5c-0.8,0-5.9-1.2-8-3.3
		s-5.8-5.9-5.6-12.6s1.2-11.3,3.3-13.8c3.1-3.1,6.4-6,9.9-8.6C24.9,12.1,26.3,10.9,26.3,10.9L26.3,10.9z"/>
	<path style="fill:#6A5223;" d="M27.2,13.6c1.5,1,3.1,1.9,4.8,2.8c1.4,0.6,5,3.6,6.5,4.7c1.9,1.7,3.2,3.9,3.9,6.4
		c0.7,2.5,1.6,7,1.1,10.1s-3,9.2-4.2,10s-2.3,2.3-5.3,2.3s-4.4-0.7-6.5-0.7S23.6,50,22,49.7s-3.9-0.7-5.4-2.4
		c-2-2.3-3.2-5.1-3.5-8.1c-0.1-3-0.3-8.1,0.1-9.8s1.4-5.1,3.2-6.8c2.4-2.3,5.1-4.4,7.8-6.3C25.3,15.6,26.4,14.7,27.2,13.6z"/>
	<path style="fill:#644D1A;" d="M25.2,16.9c0.5-0.6,0.7-0.8,1.2-0.8s0.6-0.1,0.9-0.4s0.4,0.2,0.6,0.2s0.3-0.3,0.3-0.3
		c0.1,0.1,0.2,0.1,0.3,0.2c0.1,0.1,0.4,0.1,0.9,0.1s0.6,0.8,0.6,0.8s-0.4-0.8-0.9-0.3c-0.5,0.5-0.9,0.7-1,1S28,19.1,27.5,18
		s-0.3-1.4-0.7-1.3s-0.8-0.2-1.2,0.1S25.2,16.9,25.2,16.9z"/>
	<path style="fill:#C89936;" d="M17.1,46.6c1.6,1.1,3.8,2.6,6.1,2.3c1.3-0.2,2.5-0.5,3.6-1c0.7-0.1,1.9,0.4,3.1,0.7
		c1.9,0.4,4,0.3,5.8-0.5c2.4-1,3.7-3,4.4-4c0.2-0.2,0-0.1,0.2-0.5s-0.2-0.5-0.1-0.8s-0.6-0.4-1-0.6c-0.3-0.2-0.4-0.5-0.3-0.8
		c0.1-0.6,2.6-2.3,2.7-3l0.1-0.5c0.2-3.6-0.4-7.1-1.5-10.5c-0.8-1.5-7.5-9-8.5-9.4s-1.6-1-3.7-0.9c-0.1,0-0.2,0.4-0.3,0.4
		s-0.2-0.4-0.3-0.4h-0.3c-2.3,0.5-4.4,1.6-6.1,3.2c-2,2.2-3.5,4.7-4.4,7.5c-0.6,2.4-1.6,8.2-1.2,10.2S15.8,45.7,17.1,46.6z"/>
	<path style="fill:#C89936;" d="M42.7,42.1c-0.3-0.3-0.8-0.4-1.2-0.3c-0.5,0.1-0.9,1.3-1,1.7c0-0.1-0.2-0.5-0.2-0.6
		c-0.1-0.5-0.2-0.8-0.5-0.8s-1.4-0.5-0.5-1.3c0.1-0.1,0,0.4,0.1,0.2s0.2-0.4,0.5-0.6c1.1-0.9,2-2,2.6-3.2c0.4-0.9,0.1-1.8-0.7-2.4
		c-0.2-0.1-0.4-0.2-0.6-0.2c0.2-0.3,0.4-0.7,0.5-1c0.3-0.8,0.1-1.8-0.5-2.5l0.4-0.6c0.7-1.1-0.2-2.3-0.9-3c-0.3-0.2-0.5-0.4-0.9-0.5
		c0.1,0,0.2-0.1,0.3-0.2c0.1-0.1,0.2-0.3,0.3-0.5c0.1-0.3,0.2-0.7,0.3-1c0.1-0.3,0.1-0.7,0.1-1c0-0.3,0-0.7,0-1c0-0.3-0.1-0.7-0.2-1
		c-0.1-0.4-0.2-0.7-0.4-1c-0.4-0.6-0.9-1.1-1.5-1.5c-0.3-0.2-0.7-0.2-1-0.3c-0.2,0-0.3,0-0.5,0c-0.1,0-0.3,0-0.4,0.1
		c0,0,0-0.1,0-0.1c0-0.1,0-0.2,0-0.3c0-0.2,0-0.5-0.1-0.7c0-0.1-0.1-0.2-0.1-0.3l-0.1-0.3c-0.1-0.2-0.2-0.4-0.3-0.6
		c-0.1-0.2-0.3-0.4-0.5-0.5c-0.2-0.1-0.5-0.1-0.8,0c-0.2,0.1-0.4,0.2-0.6,0.4l0,0c-0.1,0.1-0.2,0.3-0.3,0.4c0-0.4,0-0.7-0.1-1.1
		c0-0.1-0.1-0.2-0.1-0.3c0-0.1-0.1-0.1-0.2-0.2c-0.1-0.1-0.3-0.2-0.5-0.2c-0.2,0-0.4,0-0.5,0c-0.2,0-0.3,0.1-0.5,0.1
		c-0.3,0.1-0.6,0.3-0.9,0.6c-0.1,0.1-0.2,0.2-0.3,0.4H31c-0.1,0-0.3,0-0.4,0l-0.2,0c0-0.1,0-0.3-0.1-0.4c-0.1-0.1-0.2-0.2-0.3-0.3
		c-0.1-0.1-0.2-0.1-0.3-0.2c-0.1-0.1-0.2-0.1-0.4-0.1c0.1,0,0.1,0,0.2,0c-0.1,0-0.1,0-0.2,0c-0.1,0-0.1,0-0.2,0l-0.2,0.1
		c-0.1,0-0.2,0.1-0.4,0.2c-0.2,0.1-0.4,0.3-0.6,0.6c-0.1,0.2-0.2,0.3-0.2,0.5c-0.1-0.2-0.1-0.4-0.2-0.5c-0.2-0.2-0.3-0.4-0.6-0.6
		c-0.1-0.1-0.2-0.1-0.4-0.2l0,0c-0.1-0.1-0.2-0.1-0.4-0.1c-0.1,0-0.2,0-0.3,0.1c-0.1,0.1-0.2,0.1-0.3,0.2c-0.1,0.1-0.2,0.2-0.3,0.3
		c-0.1,0.1-0.1,0.3-0.1,0.5v0L25,17.3h-0.1c-0.1-0.2-0.2-0.3-0.3-0.4c-0.2-0.3-0.5-0.5-0.9-0.6c-0.2-0.1-0.3-0.1-0.5-0.1
		c-0.2,0-0.4,0-0.5,0c-0.2,0-0.4,0.1-0.5,0.2c-0.1,0.1-0.1,0.1-0.2,0.2c0,0.1-0.1,0.2-0.1,0.3c-0.1,0.4-0.1,0.7-0.1,1.1
		c-0.1-0.1-0.2-0.3-0.3-0.4l0,0c-0.2-0.1-0.4-0.3-0.6-0.4c-0.2-0.1-0.5-0.1-0.8,0c-0.2,0.1-0.4,0.3-0.5,0.5
		c-0.1,0.2-0.2,0.4-0.3,0.6l-0.1,0.3c0,0.1-0.1,0.2-0.1,0.3c-0.1,0.2-0.1,0.4-0.1,0.7c0,0.1,0,0.2,0,0.3c0,0,0,0.1,0,0.1
		c-0.1,0-0.3-0.1-0.4-0.1c-0.2,0-0.3,0-0.5,0c-0.3,0-0.7,0.1-1,0.3c-0.6,0.4-1.1,0.8-1.5,1.4c-0.2,0.3-0.3,0.6-0.4,1
		c-0.1,0.3-0.1,0.7-0.2,1c0,0.3,0,0.7,0,1c0,0.3,0.1,0.7,0.1,1c0.1,0.3,0.2,0.7,0.3,1c0.1,0.2,0.2,0.3,0.3,0.5c0,0,0.1,0.1,0.1,0.1
		c-0.4,0.1-0.7,0.3-1,0.6c-0.7,0.7-1.8,2.4-1.3,3.4c-0.4,0.5-0.5,1.1-0.3,1.7h0.2h-0.2l0,0c0,0.2,0,0.4,0,0.5c0,0.3,0.1,0.5,0.2,0.8
		c-0.2,0-0.4,0.2-0.5,0.3c-0.2,0.4-0.3,0.8-0.2,1.2l0.1,0.3c0.1,0.9,0.5,1.8,1.1,2.5c0.6,0.6,0.9,1.5,0.5,2.3
		c-0.1,0.4-0.2,0.7-0.2,1.1c-0.1,0-0.2,0-0.3,0c-0.2,0.1-0.4,0.2-0.5,0.4c-0.9,0.9-1.1,2.3-0.5,3.5c0.9,1.3,1.4,1.9,2.7,1.9h0.2
		c0.9,0,1.7-0.3,2.4-0.8c0.1-0.1,0.3-0.1,0.5-0.1c0.3,0,0.6,0,0.9-0.1c0.7-0.3,1.2-1,1.3-1.8c0.2-0.7,0.2-1.4-0.1-2
		c0-0.1-0.1-0.2-0.1-0.3c0.4,0.2,0.9,0.2,1.4,0.2c1.7-0.1,3.2-1.2,4-2.7c0.4-0.7,0.6-1.5,0.7-2.2c0.1-0.5,0.2-1,0.1-1.6h0.4
		c0.2,0,0.4,0,0.7,0c-0.1,0.3-0.1,0.6-0.2,0.9c0,0.1,0,0.1,0,0.2c-0.1,0.9,0.1,1.7,0.5,2.5c0.1,0.4,0.4,0.7,0.7,0.9h0.1
		c0.2,0.2,0.5,0.5,0.8,0.7c1.4,1,3.2,0.8,4.8,0.1c0.1,0,0.3,0,0.4,0.1l-0.1,0.1c-0.2,0.1-0.2,0.4-0.1,0.6c0,0,0,0.1,0.1,0.1
		c0.1,0.1,0.1,0.2,0.2,0.3v0.2c0.1,0.6,0.1,1.2,0.1,1.7c0,1.7,3.3,3.3,5.1,3.3c1.9-0.1,3.3-1.6,3.3-3.5
		C43.6,43.4,43.3,42.6,42.7,42.1z"/>
	<path style="fill:#DBBC7C;" d="M20.5,28.3c0.4-0.6,1.1-1,1.9-1.1c0.8-0.2,1.7-0.1,2.4,0.2c1,0.4,1.2,0.8,2,1
		c-0.8,0.1-1.7,0-2.5-0.3c-0.6-0.4-1.3-0.4-2-0.2c-0.7,0.1-0.6,0.6-1,0.8s-0.7,0.2-0.8,0C20.4,28.6,20.4,28.5,20.5,28.3z"/>
	<path style="fill:#DBBC7C;" d="M18.6,26.2c0.3-0.7,0.4-1.2,1.1-1.5c0.5-0.3,1.1-0.4,1.7-0.3c-0.6,0.1-1.1,0.5-1.4,1
		c-0.6,0.9-0.2,1.4-0.4,1.5s-0.8,0.4-0.9-0.1S18.5,26.5,18.6,26.2z"/>
	<path style="fill:#DBBC7C;" d="M17.6,23.4c0.2-0.7,0.4-0.6,1-0.8c0.3-0.1,0.7-0.1,1.1-0.1c0.1,0-1.1,0.6-1.1,1.4s0.5,1.5-0.1,1.3
		s-1-0.4-1-1C17.4,23.9,17.5,23.6,17.6,23.4z"/>
	<path style="fill:#DBBC7C;" d="M22,16.6c0.1-0.1,0.4-0.5,1-0.4s-0.3,0.8-0.3,1.2s-0.2,0.9-0.2,1.3s0,0.7-0.3,0.9s-0.3-1.1-0.4-1.6
		S21.7,16.8,22,16.6z"/>
	<path style="fill:#9D7533;" d="M34,28.9c-0.2,0,3.3,0.7,2.8,2.1c-0.2,0.8-1,1.4-1.8,1.3c-0.2,0-0.3-0.1-0.4-0.1
		c-0.7-0.3,1.8,1.2,2.7,0.7s1.4-1.5,0.6-2.3S36.8,28.8,34,28.9z"/>
	<path style="fill:#644D1A;" d="M27.5,20.8c0.1,0.9-0.1,1.9-0.5,2.7c-0.4,0.5-0.7,0.9-0.8,1c-0.1,0.3,0,0.6,0.3,0.7
		c0.3,0.2,0.5,0.2,0.6,0.7s0.1,0.5,0,0.9c-0.2,0.5-0.7,0.8-1.2,0.8c0.6,0.4,1.3,0.7,2.1,0.7c0.7-0.1,1.4-0.3,2-0.6
		c0.3-0.1-0.5-0.2-0.9-0.3c-0.4-0.1-0.7-0.4-0.8-0.8c0-0.4,0-0.7,0.2-1c0.2-0.4,0.6-0.7,0.7-1c0.1-0.4,0-0.7-0.2-1
		c-0.4-0.5-0.7-1.1-1-1.7c-0.1-0.4-0.1-0.8-0.1-1.1C27.9,20.5,27.5,20.8,27.5,20.8z"/>
	<path style="fill:#DBBC7C;" d="M42.3,42.2c-0.2-0.2-0.5-0.3-0.8-0.2c-0.5,0.2-0.8,0.8-0.4,1s0.5-0.3,1.3,0.1s0.3,2.2,0.4,2.9
		s0.5-1.4,0.4-0.9s0.3-0.7,0.2-1.2c-0.1-0.5-0.3-0.9-0.5-1.3C42.6,42.5,42.3,42.2,42.3,42.2z"/>
	<path style="fill:#DBBC7C;" d="M32,29.4c0.8-0.5,1.7-0.7,2.7-0.6c1.5,0.1,2,0.2,2.1,0.5s-0.3,1.2-0.9,0.8s-0.5-0.8-1.5-0.8
		C33.6,29.2,32.8,29.3,32,29.4z"/>
	<path style="fill:#DBBC7C;" d="M14.3,42.1c-0.1-0.2-0.3-0.3-0.5-0.2c-0.4,0.3-0.8,0.8-0.9,1.3c-0.3,0.6-0.3,1.4,0.1,2
		c0.5,0.7,0,0.9,1.1,1.5c0.5,0.3,1.1,0.5,1.7,0.7c0,0-0.1,0.4-1.3-0.9s-1.4-2.2-1.1-2.6s0.2-1,0.7-1S14.5,42.2,14.3,42.1z"/>
	<path style="fill:#9D7533;" d="M19.1,33.2c-0.6-0.5-0.9-1.5-0.3-1.9c0.8-0.4,1.7-0.5,2.6-0.4c1,0,2.3-0.1,3-0.1s0.3,0.2-1.2,0.4
		s-0.9,0.3-1.6,0.9c-0.4,0.3-0.8,0.5-1.2,0.6C19.7,33,19.1,33.2,19.1,33.2z"/>
	<path style="fill:#DBBC7C;" d="M27.9,17.7c0.2-0.6,0.7-1.5,1.3-1.4s0.6,0.2,0.7,0.5s-0.4,0.5-0.8,0.4s-0.4,0-0.8,0.3
		c-0.3,0.2-0.5,0.5-0.7,0.8C27.6,18.4,27.9,17.7,27.9,17.7z"/>
	<path style="fill:#57401B;" d="M21.6,29.2c-0.4,0-0.8,0-1.2,0c-0.4,0-0.8,0.1-1.2,0.2c-0.4,0.1-0.7,0.3-1,0.5
		c-0.3,0.2-0.5,0.6-0.6,0.9c-0.1,0.4-0.2,0.7-0.2,1.1c0,0.4,0.1,0.7,0.3,1c0.2,0.2,0.6,0.3,0.9,0.2c0.4-0.1,0.7-0.2,1.1-0.4
		c0.7-0.3,1.4-0.8,2.1-1.2c0.4-0.2,0.7-0.4,1.1-0.6c0.4-0.2,0.8-0.2,1.3-0.2c0.4,0,0.9,0.2,1.3,0.4c0.3,0.2,0.7,0.4,1,0.7l0.2,0.1
		c0.1,0,0.2,0.1,0.2,0.1l0.6,0.2c0.4,0.1,0.7,0.1,1.1,0h0.1h0.1c0.1,0,0.2-0.1,0.2-0.1c0.2-0.1,0.3-0.2,0.5-0.3
		c0.2-0.1,0.3-0.3,0.5-0.4c0.2-0.1,0.4-0.2,0.6-0.3c0.2-0.1,0.4-0.1,0.6-0.1c0.1,0,0.2,0,0.3,0l0.4,0c0.4,0.1,0.8,0.2,1.2,0.4
		c0.4,0.2,0.7,0.5,1,0.7c0.3,0.2,0.6,0.4,1,0.5l0.3,0.1h0.3h0.6c0.4,0,0.7-0.1,1.1-0.2c0.1-0.1,0.3-0.2,0.4-0.3
		c0.1-0.1,0.1-0.3,0.2-0.4c0-0.4,0-0.7-0.2-1.1c-0.1-0.3-0.3-0.7-0.6-0.9L37,29.6l-0.2-0.1l-0.3-0.1l-0.3-0.1
		c-0.4-0.1-0.8-0.2-1.2-0.2c-0.4,0-0.8-0.1-1.2-0.1s-0.8,0-1.2,0c-0.4,0-0.8,0-1.2,0.1c0.8-0.2,1.6-0.3,2.4-0.3c0.4,0,0.8,0,1.2,0
		c0.4,0,0.8,0,1.3,0.1c0.9,0.2,1.6,0.9,1.9,1.7c0.1,0.2,0.1,0.4,0.2,0.6c0,0.2,0,0.4,0,0.7c0,0.2-0.1,0.5-0.3,0.7
		c-0.2,0.2-0.3,0.3-0.6,0.4c-0.2,0.1-0.4,0.2-0.6,0.2c-0.2,0-0.4,0.1-0.6,0.1h-0.6h-0.3l-0.3-0.1c-0.4-0.1-0.8-0.3-1.1-0.6
		c-0.3-0.2-0.7-0.5-1-0.6c-0.3-0.2-0.6-0.3-1-0.4h-0.3c-0.1,0-0.2,0-0.3,0c-0.2,0-0.4,0.1-0.5,0.1c-0.4,0.1-0.7,0.3-1,0.6
		c-0.2,0.1-0.3,0.3-0.5,0.4c-0.1,0.1-0.2,0.1-0.3,0.1h-0.2h-0.2c-0.2,0-0.4,0.1-0.7,0.1c-0.2,0-0.4,0-0.6-0.1l-0.6-0.2
		c-0.1,0-0.2-0.1-0.3-0.1c-0.1,0-0.2-0.1-0.3-0.2c-0.3-0.2-0.7-0.4-1-0.6c-0.3-0.2-0.6-0.3-1-0.3c-0.4,0-0.7,0-1.1,0.2
		c-0.4,0.1-0.7,0.3-1.1,0.5c-0.7,0.4-1.4,0.8-2.1,1.2c-0.4,0.2-0.8,0.3-1.2,0.4c-0.2,0-0.5,0-0.7,0c-0.3,0-0.5-0.2-0.7-0.3
		c-0.2-0.2-0.3-0.4-0.3-0.6c0-0.2,0-0.4,0-0.6c0-0.2,0-0.4,0-0.6c0-0.2,0.1-0.4,0.1-0.6c0.2-0.4,0.5-0.7,0.8-1
		c0.4-0.2,0.7-0.4,1.2-0.5C19.9,29.1,20.8,29.1,21.6,29.2z"/>
	<path style="fill:#9D7533;" d="M13.7,34.7c0.1,1,0.5,2,1.3,2.8c0.8,0.6,1.4,1.5,1.6,2.5c0.3,1,1.2-0.2,0.6-1.3
		c-0.7-0.9-1.5-1.8-2.4-2.6C14.4,35.6,13.7,34.7,13.7,34.7z"/>
	<path style="fill:#DBBC7C;" d="M17.3,20.3c0.5-0.1-2.1,2.1-1.7,3.5c0.3,1.2,0.8,2.2,1.5,3.2c-0.4,0.2-0.8,0.2-1.2,0
		c-0.6-0.4-1-1-0.9-2.7C15.1,22.1,15.6,20.9,17.3,20.3z"/>
	<path style="fill:#DBBC7C;" d="M13.5,31.1c-0.3,0.1,0.6-3.3,2.2-3.7c0.7-0.3,1.5-0.3,2.3-0.2c0,0-2.6,0.8-2.6,2.2s0.2,1.9,0.1,1.8
		C14.9,30.9,14.1,30.9,13.5,31.1z"/>
	<path style="fill:#DBBC7C;" d="M13.2,31.5c0,0,1.2-0.5,1.3,0.3c0,0-0.7,0-0.5,1.2c0,0.7,0.1,1.3,0.3,2
		C14.5,35.9,12.9,33.4,13.2,31.5z"/>
	<path style="fill:#DBBC7C;" d="M13.4,34.7c0,0,0.4,0,0.5,0.5c0.2,0.8,0.5,1.6,0.9,2.4c0.4,0.9,0.5,1.9,0.1,2.8
		c-0.1-0.9-0.4-1.8-1-2.5C12.9,36.5,12.4,35.5,13.4,34.7z"/>
	<path style="fill:#9D7533;" d="M18.3,22.4c0.9,0.2,1.9,0,2.7-0.4c1-0.7,1.2-0.8,1.4-1.8s-0.1-1.1-0.5-1.8s0.4,0.6-0.1,1.6
		s-0.3,1.4-1.4,1.5C19.6,21.7,18.9,22,18.3,22.4z"/>
	<path style="fill:#9D7533;" d="M25,17.9c0.9,0.6,1.5,1.6,1.8,2.6c0.2,1,0.2,2,0,3.1c0.3-0.6,0.6-1.2,0.8-1.8
		c0.1-0.8,0.2-1.6,0.2-2.4c0-0.7-0.2-1.4-0.6-2c0,0-0.2-0.2,0,1.4s0.3,1.5-0.1,0.9c-0.2-0.5-0.5-0.9-0.9-1.2
		C25.8,18.3,25.4,18.1,25,17.9z"/>
	<path style="fill:#9D7533;" d="M21.5,24.2c1.3,0.1,2.6,0.5,3.8,1.2c0.7,0.5,1.1,1.2,1.3,2c0.1-0.1,0.8-0.9,0.2-1.6
		C26,25,25,24.5,24,24.3C23.2,24.2,22.3,24.2,21.5,24.2z"/>
	<path style="fill:#9D7533;" d="M20.5,18.2c-0.1,0.5-0.1,1.1-0.1,1.6c0,0.4,0.5,0.7-0.5,1.1c-0.8,0.3-1.6,0.7-2.2,1.3
		c-0.6,0.7-0.9,1.4-0.7,2s-0.2-0.6,0.7-1.3s1.9-0.7,2.6-1.1c0.5-0.2,1-0.7,1.1-1.3c0.3-0.5,0.3-1.2,0-1.8
		C21.3,18.5,20.9,18.3,20.5,18.2z"/>
	<path style="fill:#9D7533;" d="M31.2,18.1c-1.2,0.2-2,1.4-1.8,2.6c0,0.2,0.1,0.3,0.1,0.4c0.7,2.1,2,2.4,2,2.4
		c-0.8-0.7-1.1-1.7-0.9-2.7C30.7,19.9,30.9,19,31.2,18.1z"/>
	<path style="fill:#9D7533;" d="M32.9,24.3c-0.4,0.1,3.5,0.3,3.5,3.7c0,0,3.9-1.5,4.9,3.1c0.3-0.4,0.5-0.9,0.5-1.4
		c-0.2-1.4-1.4-2.5-2.8-2.5c-0.6-0.1-1.2-0.1-1.8,0c0.3-0.5,0.4-1.1,0.1-1.6C36.2,24.2,34.5,23.7,32.9,24.3z"/>
	<path style="fill:#DBBC7C;" d="M31,18.1c0.6-1.3,0.6-1.6,1.6-1.8s1.1,0.2,0.2,0.8c-0.8,0.4-1.2,1.3-1.2,2.1
		c-0.2,0.7-0.1,1.5,0.1,2.3C31.7,21.6,30.6,19.2,31,18.1z"/>
	<path style="fill:#9D7533;" d="M40.5,32.3c0.1,1.2-0.4,2.3-1.2,3.2c-0.8,0.7-1.4,1.6-1.7,2.7c1-0.4,2-1.2,2.6-2.1
		c1.3-1.6,1.5-2.2,1.4-3.5s0.2-1.3-0.5-1.1S40.5,32.3,40.5,32.3z"/>
	<path style="fill:#DBBC7C;" d="M36.6,27.6c0.7-0.1,1.4,0.2,2,0.6c0.8,0.7,1.1,1,1.5,0.7s0.5-1.5-0.9-1.7
		C38.3,27.1,37.4,27.3,36.6,27.6z"/>
	<path style="fill:#9D7533;" d="M34.9,17.4c0.1,0.3,0.8,0.7,1.1,1.5c0.2,0.7,0.5,1.4,0.8,2.1c0.3-0.6,0.3-1.4,0-2
		c-0.5-1.3-1-1.9-1.5-1.8S34.9,17.4,34.9,17.4z"/>
	<path style="fill:#9D7533;" d="M40.3,36.7c0,0,0.3-0.5,0.6-0.1s0.5,1-0.6,1.7c-0.9,0.6-1.5,1.5-1.9,2.5c-0.1,0.7,0,1.5,0.4,2.1
		c0.2,0.3,0.4,0.7,0.6,1.1c0,0,1.3,0,0.9-0.9c-0.2-0.3-0.4-0.6-0.6-0.9c-0.1-0.1-0.3,0.1-0.4,0s0.1-0.5,0-0.5s-0.1,0-0.1-0.1
		c-0.1-0.5,0.3-1,1.3-1.8c0.8-0.6,1.5-1.4,1.9-2.3c0.4-0.6,0.4-1.4,0-2c-0.2-0.3-0.1-0.7-0.8-0.4C41,35.5,40.5,36,40.3,36.7z"/>
	<path style="fill:#DBBC7C;" d="M34.2,18.3c0.3-0.7,0.6-1,0.8-0.8s0.4,0.5-0.1,1s-0.9,1-0.8,1.4C34.1,19.4,34.1,18.9,34.2,18.3z"/>
	<path style="fill:#FFFFFF;" d="M18.6,33.8c1.4-1,3-1.3,4.7-1c1.8,0.4,3.7,2,3.6,4.1s-1.3,5.1-4.6,5.4c-2.4,0.1-4.5-1.4-5.2-3.7
		C16.6,36.8,17.2,34.9,18.6,33.8z"/>
	<path style="fill:#C89936;" d="M17.7,41.7c0,0,0.1-1.6,0.9-1.5s0.5,1.7,0.5,1.7s0.2-0.1,0.3-0.1s0.6-0.6,0.6-0.6s0.3-0.1,0.5,0.3
		c0.2,0.5,0.3,1,0.4,1.5c0.1,0.3,0.4,1.3,0.1,1.6s-2.6-0.1-2.6-0.1L17.7,41.7z"/>
	<path style="fill:#57401B;" d="M37.7,37.7l0.1-1.7c0-1.9,0.3-3.4,1.1-4.1s2-1.1,2.4-0.7c0.6,0.7,0.9,1.7,0.5,2.6
		c-0.5,1.3-1.4,2.5-2.5,3.4c-0.4,0.3-0.9,0.5-1.4,0.6L37.7,37.7z M40.8,31.4c-0.6,0.1-1.2,0.3-1.7,0.8c-0.7,0.6-1,2-1,3.8l0,0v1.4
		c0.4-0.1,0.7-0.3,1.1-0.5c1.1-0.8,1.9-2,2.4-3.2c0.3-0.8,0-1.6-0.5-2.2C40.9,31.4,40.9,31.4,40.8,31.4L40.8,31.4z"/>
	<path style="fill:#FFFFFF;" d="M29.8,33.3c1.3-1,3-1.2,4.5-0.8c1.9,0.6,3.3,1.5,3.7,3.1c0.3,2.1-0.6,4.2-2.4,5.3
		c-1.7,0.9-4.1,1.6-5.7,0.3s-2.3-2.6-2.1-4.1C27.8,35.6,28.5,34.2,29.8,33.3z"/>
	<path style="fill:#826FAE;" d="M32,42.4c-0.9,0-1.8-0.3-2.5-0.8c-1.7-1.3-2.4-2.8-2.2-4.5c0.3-2,1-3.5,2.2-4.2l0,0
		c1.4-1,3.2-1.3,4.8-0.8c1.8,0.6,3.5,1.4,4,3.4c0.4,2.3-0.7,4.6-2.6,5.8C34.6,42,33.3,42.4,32,42.4z M30,33.6
		c-1,0.6-1.6,1.8-1.8,3.6c-0.2,1.4,0.4,2.6,1.9,3.8c1.7,1.3,4.2,0.2,5.3-0.3c1.6-1.1,2.4-3,2.2-4.9c-0.3-1.3-1.3-2.1-3.4-2.8
		C32.7,32.5,31.2,32.7,30,33.6L30,33.6z"/>
	<path style="fill:#09002F;" d="M34.2,34.7c-0.9-0.2-1.8,0-2.5,0.4c0.3,0.4,0.2,0.9-0.1,1.1c-0.3,0.2-0.7,0.2-1,0
		c-0.2,0.3-0.3,0.6-0.4,1c-0.4,1.7,0.6,3.4,2.3,3.8c0.1,0,0.1,0,0.2,0c1.9,0.3,3.8-0.9,4.3-2.7c0.4-1.6-0.7-3.2-2.3-3.6
		C34.4,34.7,34.3,34.7,34.2,34.7z M32.5,37.1c-0.3,0-0.5-0.2-0.6-0.5c0-0.3,0.2-0.5,0.5-0.6c0.3,0,0.5,0.2,0.6,0.5c0,0,0,0,0,0
		C33,36.9,32.8,37.1,32.5,37.1z"/>
	<path style="fill:#09002F;" d="M22.8,34.5c-0.8,0-1.6,0.3-2.3,0.9c0.4,0.1,0.7,0.6,0.6,1c-0.1,0.4-0.6,0.7-1,0.6
		c-0.2-0.1-0.3-0.2-0.5-0.3c-0.2,0.4-0.3,0.9-0.3,1.4c-0.1,1.8,1.3,3.2,3.1,3.3c0.1,0,0.1,0,0.2,0c1.9,0,3.4-1.6,3.4-3.5
		c0,0,0,0,0,0c0.1-1.8-1.3-3.2-3.1-3.3C22.9,34.4,22.9,34.4,22.8,34.5z M21.8,37.5c-0.3,0-0.5-0.2-0.5-0.5c0-0.3,0.2-0.5,0.5-0.5
		s0.5,0.2,0.5,0.5l0,0C22.3,37.2,22.1,37.5,21.8,37.5C21.8,37.5,21.8,37.5,21.8,37.5L21.8,37.5z"/>
	<path style="fill:#826FAE;" d="M26.1,35.5c0-0.1,0.1-0.5,0.9-0.4c0.7,0,1.4,0,2,0.2c0.2,0.2,0.3,0.6-0.1,0.7
		c-0.6,0.1-1.1,0.1-1.7,0c-0.3,0-1.2,0-1.2-0.2C26,35.7,26.1,35.6,26.1,35.5z"/>
	<path style="fill:#DBBC7C;" d="M37.4,42.5c0-0.1,0.2-0.9,0.6-1.1s0.8-0.5,0.8,0c0.1,0.4,0.1,0.7,0,1.1c0,0.2,0.1,0,0.5-0.1
		s0.3-0.3,0.7,0s0.2,0.6,0.4,1s0.3-0.2,0.3,0.5s0.1,0.4-0.1,0.9s-0.2,0.8-0.3,0.8s-0.1,0.4-0.4,0c-0.3-0.3-0.3-0.6-0.2-1
		c0.1-0.5,0.1-0.4,0.2-0.7s0-0.3,0-0.5s0,0.3-0.4,0.5s-0.1-0.2-0.3,0s0,0.1-0.2,0.1c-0.6-0.1-0.6,0-0.8-0.4s-0.3-0.1-0.6-0.2
		s-0.5-0.2-0.4-0.4S37.4,42.5,37.4,42.5z"/>
	<path style="fill:#DBBC7C;" d="M25.8,56.4c-1.7,1.1-3.3,2.2-4.9,3.5c-0.2,0.4,0.4,0.5,1.3,0.5s8.4,0.1,9.2-0.1s0.8-0.5-0.3-0.6
		s-3.7-0.2-4.9-0.3s-2.2,0.1-2.4,0s1.4-1.8,1.8-2.3S25.8,56.4,25.8,56.4z"/>
	<path style="fill:#57401B;" d="M24.8,43.3c-0.2,0.3-0.2,0.6-0.1,0.9c0.2,0.3,0.4,0.5,0.7,0.6c0.1,0,0.1,0.1,0.2,0.1l0.2,0.1
		l0.5,0.1l0.5,0.1l0.5,0c0.6,0,1.3-0.1,1.8-0.3c0.3-0.1,0.5-0.3,0.8-0.5c0.2-0.2,0.5-0.5,0.6-0.7l0,0c-0.1,0.7-0.6,1.3-1.2,1.7
		l-0.2,0.1l-0.3,0.1c-0.2,0.1-0.4,0.1-0.5,0.1h-0.5h-0.5l-0.5-0.1l-0.5-0.1l-0.5-0.2l-0.2-0.1c-0.1,0-0.2-0.1-0.2-0.1
		c-0.3-0.2-0.6-0.4-0.7-0.8c-0.1-0.2-0.1-0.4,0-0.5C24.6,43.6,24.6,43.4,24.8,43.3L24.8,43.3z"/>
	<path style="fill:#57401B;" d="M30.2,43.4c0.1,0.1,0.1,0.3,0.2,0.4l0,0l0,0l0,0l0,0h0.1c0.1-0.1,0.3-0.1,0.4-0.2h0.5
		c0,0.1-0.1,0.2-0.1,0.2c-0.1,0.1-0.1,0.1-0.2,0.2c-0.1,0.1-0.3,0.2-0.4,0.2h-0.1h-0.1c0,0-0.1,0-0.1,0c-0.1,0-0.1,0-0.1-0.1
		c0,0-0.1-0.1-0.1-0.1c0-0.1-0.1-0.1-0.1-0.2c0-0.1,0-0.2,0-0.3C30.1,43.5,30.1,43.4,30.2,43.4z"/>
	<path style="fill:#57401B;" d="M26.5,45.2c0.1,0.2,0.2,0.4,0.3,0.6c0.1,0.1,0.2,0.1,0.3,0.2l0.1,0.1l0.2,0.1c-0.1,0-0.1,0-0.2,0H27
		c-0.1,0-0.3-0.1-0.4-0.2c-0.1-0.1-0.2-0.2-0.2-0.4C26.4,45.5,26.4,45.4,26.5,45.2z"/>
	<path style="fill:#C89936;" d="M36.7,41.9c-0.1-0.9-0.2-1.7-0.1-2.6c0.2-0.5,0.5-1.4,1.2-1.5s0.7-0.2,0.9,0.2
		c0.2,0.5,0.2,1.1,0,1.5c-0.3,0.4-0.3,0.9-0.3,1.3C38.4,41.3,36.7,41.9,36.7,41.9z"/>
	<path style="fill:#7D6127;" d="M26.1,51.3c1.2,0.2,2.3,0.2,3.5,0.2l0.2,4.8c-0.7-0.1-1.2-0.7-1.3-1.4c-0.1-1,0-1.9,0.2-2.9
		C27.8,51.9,26.9,51.6,26.1,51.3z"/>
	<path style="fill:#57401B;" d="M34.3,28.8c0-0.2,0-0.4,0-0.5c0-0.1,0-0.2,0-0.3c0-0.1,0-0.2-0.1-0.2c-0.2-0.3-0.4-0.5-0.7-0.5
		c-0.6-0.2-1.3-0.3-2-0.1c-0.3,0.1-0.6,0.2-0.9,0.4c-0.3,0.2-0.6,0.4-0.9,0.6c-0.3,0.2-0.7,0.3-1.1,0.4h-0.3H28c-0.2,0-0.4,0-0.6,0
		c-0.4,0-0.8-0.1-1.1-0.3c-0.4-0.2-0.6-0.4-0.9-0.5c-0.2-0.1-0.3-0.1-0.5-0.2l-0.5-0.1c-0.3-0.1-0.7-0.1-1-0.1c-0.3,0-0.7,0.1-1,0.1
		l-0.5,0.1l-0.3,0.1c-0.1,0-0.2,0.1-0.2,0.1c-0.3,0.1-0.6,0.2-0.9,0.4c-0.1,0.1-0.2,0.3-0.3,0.4c-0.1,0.2-0.1,0.4,0,0.5
		c-0.1-0.2-0.1-0.4-0.1-0.5c0-0.2,0.1-0.4,0.2-0.5c0.2-0.3,0.6-0.6,0.9-0.7c0.2-0.1,0.3-0.1,0.5-0.2l0.5-0.1
		c0.4-0.1,0.7-0.1,1.1-0.1c0.4,0,0.7,0.1,1.1,0.2l0.5,0.1c0.2,0.1,0.4,0.1,0.5,0.2c0.4,0.2,0.6,0.4,0.9,0.5c0.3,0.1,0.7,0.2,1,0.2
		H28h0.3h0.3c0.3-0.1,0.6-0.2,0.9-0.3c0.3-0.2,0.6-0.4,0.9-0.5c0.3-0.2,0.6-0.4,1-0.5c0.4-0.1,0.8-0.2,1.1-0.1
		c0.4,0,0.8,0.1,1.2,0.2c0.2,0.1,0.3,0.2,0.5,0.4c0.1,0.2,0.2,0.3,0.3,0.5c0,0.1,0,0.2,0,0.3c0,0.1,0,0.2,0,0.3
		C34.4,28.5,34.4,28.7,34.3,28.8z"/>
	<path style="fill:#DBBC7C;" d="M16.2,41.9c0.3-0.6,1.2-0.8,1.4-0.2s0,0.7-0.4,1.5s-0.5,1.2-1.1,1.4c0,0,0.5-0.1,0.4-1
		C16.4,42.9,16.3,42.4,16.2,41.9z"/>
	<path style="fill:#826FAE;" d="M22,42.8c-2.4-0.1-4.6-1.7-5.2-4.1c-0.6-1.9,0-4,1.6-5.2c1.5-1,3.3-1.4,5-1c2,0.4,4.1,2.3,4,4.5
		c-0.1,2.6-1.8,5.5-5,5.8L22,42.8z M22.1,33.1c-1.2,0-2.3,0.3-3.2,1l0,0c-1.3,1-1.9,2.7-1.3,4.3c0.6,2.1,2.6,3.5,4.8,3.4
		c3.1-0.2,4.1-3.2,4.2-5s-1.6-3.3-3.3-3.7C22.8,33.2,22.5,33.1,22.1,33.1L22.1,33.1z"/>
	<path style="fill:#DBBC7C;" d="M17.8,41.2c0.1-0.8,0.4-1,0.6-1s0.7,0.2,0.6,0.8c0,0.6-0.3,1.1-0.7,1.4l-0.6,0.6
		c0,0,0.1-0.8,0.1-1.2S17.8,41.2,17.8,41.2z"/>
	<path style="fill:#DBBC7C;" d="M20,41.3c0.3,0,0.5,0.3,0.5,0.6c0,0.1,0,0.1,0,0.2c-0.1,0.4-0.1,0.6-0.4,0.8
		c-0.2,0.1-0.5,0.3-0.7,0.5l0.1-0.8c0.1-0.3-0.1-0.2,0-0.6c0.1-0.2,0.1-0.3,0.3-0.5C19.7,41.4,19.8,41.3,20,41.3z"/>
	<path style="fill:#9D7533;" d="M13.5,31.3c1.4,0,2.6,1,2.9,2.3c0.2,0.8,0.3,1.6,0.2,2.4c0.3-0.7,0.6-1.5,0.7-2.2
		c0.1-1,0.1-2.5-2.1-2.9S13.5,31.3,13.5,31.3z"/>
	<path style="fill:#57401B;" d="M16.5,37.9l-0.2-0.2c-1-0.7-1.9-1.7-2.6-2.8c-0.6-1.2-0.7-1.3-0.7-1.7c0-0.1,0-0.3,0-0.5l0,0h0.2
		h-0.2c-0.1-0.8,0-1.8,0.9-2c0.9-0.1,1.8,0.1,2.6,0.6c0.4,0.2,0.6,0.6,0.7,1c0,0.2,0.1,0.4,0.1,0.7c0,0.7-0.1,1.4-0.4,2
		c-0.1,0.3-0.2,0.7-0.4,1c-0.2,0.4-0.2,0.8,0,1.1L16.5,37.9z M14.5,31.1c-0.1,0-0.3,0-0.4,0c-0.8,0.2-0.7,1.3-0.6,1.6l0,0
		c0,0.2,0,0.4,0.1,0.5c0,0.3,0,0.4,0.7,1.6c0.5,0.9,1.3,1.7,2.1,2.4c0-0.4,0.2-0.8,0.4-1.2c0.1-0.3,0.2-0.7,0.2-1
		c0.2-0.6,0.3-1.3,0.2-1.9c0-0.2-0.1-0.4-0.1-0.7c-0.1-0.3-0.3-0.6-0.6-0.8C15.8,31.3,15.2,31.1,14.5,31.1z"/>
	<path style="fill:#57401B;" d="M36.9,20.8c0-0.2,0-0.4,0-0.6c0-0.1,0-0.2,0-0.3c0-0.1,0-0.2,0-0.3c-0.1-0.2-0.1-0.4-0.2-0.6
		c0-0.1-0.1-0.2-0.1-0.3l-0.1-0.3c-0.2-0.4-0.4-0.8-0.7-0.9c-0.2-0.1-0.3-0.1-0.5,0c-0.2,0.1-0.4,0.2-0.5,0.3l0,0
		c-0.5,0.6-0.6,1.5-0.4,2.3c0.3,0.8,0.9,1.4,1.8,1.6c0.5,0.1,0.9,0.2,1.3,0.4c0.2,0.1,0.4,0.3,0.6,0.5c0.2,0.3,0.4,0.6,0.5,0.9
		c0,0.1,0.1,0.2,0.1,0.3c0.1,0.2,0.1,0.5,0.1,0.7c0,0.5,0,0.9-0.2,1.3c0.1-0.4,0.1-0.9,0-1.3c0-0.2-0.1-0.4-0.2-0.6
		c0-0.1-0.1-0.2-0.1-0.3c-0.1-0.3-0.3-0.6-0.5-0.8c-0.1-0.2-0.3-0.3-0.5-0.4c-0.4-0.2-0.8-0.3-1.2-0.4c-0.9-0.2-1.7-0.9-2-1.8
		c-0.1-0.2-0.1-0.5-0.1-0.7c0-0.2,0-0.5,0-0.7c0-0.2,0.1-0.4,0.2-0.7c0.1-0.2,0.2-0.4,0.4-0.6l0,0c0.2-0.1,0.4-0.3,0.6-0.4
		c0.2-0.1,0.5-0.1,0.8,0c0.2,0.1,0.4,0.3,0.5,0.5c0.1,0.2,0.2,0.4,0.3,0.6l0.1,0.3c0,0.1,0.1,0.2,0.1,0.3c0.1,0.2,0.1,0.4,0.1,0.7
		c0,0.1,0,0.2,0,0.3c0,0.1,0,0.2-0.1,0.3C37,20.4,36.9,20.6,36.9,20.8z"/>
	<path style="fill:#57401B;" d="M37,20c0.2-0.1,0.3-0.1,0.5-0.1c0.2,0,0.3,0,0.5,0c0.3,0,0.7,0.1,1,0.3c0.6,0.4,1.1,0.8,1.5,1.4
		c0.2,0.3,0.3,0.6,0.4,1c0.1,0.3,0.1,0.7,0.2,1c0,0.3,0,0.7,0,1c0,0.3-0.1,0.7-0.1,1c-0.1,0.3-0.2,0.7-0.3,1
		c-0.1,0.2-0.2,0.3-0.3,0.5c-0.1,0.1-0.3,0.2-0.5,0.3c-0.2,0-0.4,0-0.5,0h-0.5c-0.2,0-0.3,0-0.5,0h-0.4c-0.1,0-0.1-0.1-0.2-0.1
		c-0.1-0.1-0.1-0.2-0.2-0.3l-0.1-0.2l-0.2-0.5c-0.1-0.3-0.2-0.6-0.4-0.9c-0.2-0.2-0.5-0.4-0.7-0.6c-0.3-0.2-0.6-0.3-0.9-0.5
		c-0.3-0.1-0.6-0.2-0.9-0.2c-0.3,0-0.6,0.1-0.9,0.2c-0.2,0-0.3,0.1-0.5,0.1h-0.2c-0.1,0-0.2,0-0.3,0c-0.1,0-0.1,0-0.2,0
		c-0.1,0-0.1-0.1-0.1-0.1c-0.1-0.1-0.1-0.1-0.2-0.2c-0.1-0.1-0.2-0.3-0.3-0.4L31,22.8c-0.2-0.3-0.3-0.6-0.4-1
		c-0.2-0.7-0.2-1.3-0.1-2c0-0.3,0.1-0.7,0.1-1c0-0.2,0-0.3,0.1-0.5c0-0.2,0-0.4,0.1-0.5c0.1-0.3,0.3-0.7,0.5-0.9
		c0.2-0.3,0.5-0.5,0.9-0.6c0.2-0.1,0.3-0.1,0.5-0.1c0.2,0,0.4,0,0.5,0c0.2,0,0.4,0.1,0.5,0.2c0.1,0.1,0.1,0.1,0.2,0.2
		c0,0.1,0.1,0.2,0.1,0.3c0.2,0.7,0.2,1.3,0,2c0.1-0.3,0.1-0.7,0.1-1c0-0.3-0.1-0.7-0.2-1c-0.1-0.3-0.4-0.5-0.7-0.5
		c-0.3,0-0.6,0.1-0.9,0.2c-0.3,0.1-0.5,0.3-0.8,0.5c-0.2,0.2-0.4,0.5-0.5,0.8c0,0.1-0.1,0.3-0.1,0.5c0,0.2,0,0.3-0.1,0.5
		c0,0.3-0.1,0.7-0.1,1c-0.1,0.6-0.1,1.3,0.1,1.9c0.1,0.3,0.2,0.6,0.4,0.9l0.5,0.8c0.1,0.1,0.2,0.3,0.3,0.4c0,0.1,0.1,0.1,0.1,0.2
		c0,0,0.1,0.1,0.1,0.1h0.2h0.3l0.5-0.1c0.3-0.1,0.7-0.2,1-0.2c0.3,0,0.7,0.1,1,0.2c0.3,0.1,0.6,0.3,0.9,0.5c0.3,0.2,0.6,0.4,0.8,0.6
		c0.1,0.1,0.2,0.3,0.3,0.5c0.1,0.2,0.1,0.3,0.2,0.5l0.2,0.5l0.1,0.2c0,0.1,0,0.1,0.1,0.2h0.4c0.2,0,0.3,0,0.5,0c0.3,0,0.7,0,1,0
		c0.1,0,0.3-0.1,0.3-0.2c0.1-0.1,0.2-0.2,0.2-0.4c0.1-0.3,0.2-0.6,0.3-0.9c0.1-0.3,0.1-0.7,0.1-1c0-0.3,0-0.7,0-1
		c0-0.3-0.1-0.7-0.2-1c-0.1-0.3-0.2-0.6-0.3-0.9c-0.3-0.6-0.8-1.1-1.3-1.4C38.6,20.1,38.3,20,38,20c-0.2,0-0.3,0-0.5,0
		C37.3,20,37.2,20,37,20z"/>
	<path style="fill:#57401B;" d="M29.2,16.3c0.1,0,0.3,0,0.4,0.1c0.1,0.1,0.2,0.1,0.3,0.2c0.1,0.1,0.2,0.2,0.3,0.3
		c0.1,0.1,0.1,0.3,0.1,0.5c0,0.1-0.1,0.2-0.1,0.2L30,17.7c-0.1,0.1-0.2,0.2-0.3,0.3s-0.4,0.3-0.6,0.5c-0.2,0.2-0.3,0.3-0.5,0.5
		c-0.1,0.2-0.2,0.4-0.3,0.6c-0.2,0.5-0.3,0.9-0.4,1.4v0.2v0.1v0c0,0-0.1,0-0.1,0c0,0-0.1,0-0.1,0c0,0-0.1,0-0.1-0.1l0,0v-0.1
		c0-0.1,0-0.3,0-0.4v-0.4v-0.4c0-0.5,0-1,0-1.5c0-0.1,0-0.3,0-0.4c0-0.1,0-0.1,0-0.2s0-0.1,0-0.2c0.1-0.3,0.2-0.5,0.3-0.7
		c0.2-0.2,0.3-0.4,0.6-0.6c0.1-0.1,0.2-0.1,0.4-0.2C29.1,16.3,29.2,16.3,29.2,16.3z M29.2,16.3c-0.3,0-0.5,0.2-0.6,0.4
		c-0.1,0.2-0.3,0.4-0.4,0.6c-0.1,0.2-0.2,0.4-0.3,0.7c0,0.1,0,0.1,0,0.2s0,0.1,0,0.2c0,0.1,0,0.2,0,0.4c0,0.5,0,1,0,1.5v0.4v0.4
		c0,0.1,0,0.3,0,0.4l0,0l0,0l0,0c0,0,0,0-0.1-0.1c-0.1,0-0.1,0-0.2,0l0,0l0,0l0,0V21c0.1-0.5,0.2-1,0.4-1.5c0.1-0.2,0.2-0.5,0.4-0.7
		c0.1-0.2,0.3-0.4,0.5-0.6c0.2-0.2,0.4-0.3,0.6-0.5l0.3-0.3l0.1-0.1c0,0,0-0.1,0.1-0.1c0-0.1,0-0.1,0-0.2c0-0.1-0.1-0.2-0.1-0.3
		C29.8,16.4,29.5,16.3,29.2,16.3z"/>
	<path style="fill:#57401B;" d="M34.3,27.6c-0.1-0.2-0.3-0.4-0.6-0.5C33.5,27.1,33.2,27,33,27c-0.2,0-0.5,0-0.8,0l-0.4,0.1l-0.4,0.1
		c-0.2,0.1-0.5,0.2-0.7,0.3c-0.2,0.1-0.5,0.2-0.8,0.3c-0.3,0.1-0.6,0.1-0.9,0c-0.1,0-0.3-0.1-0.4-0.1c-0.1-0.1-0.3-0.2-0.4-0.3
		c-0.1-0.1-0.2-0.3-0.2-0.4c0-0.1,0-0.3,0-0.4c0-0.1,0-0.3,0-0.4V26c0,0,0-0.1,0-0.1c0-0.1,0-0.1,0.1-0.2c0.1-0.2,0.3-0.5,0.4-0.7
		c0.1-0.1,0.1-0.2,0.2-0.3c0-0.1,0.1-0.2,0.1-0.3c0-0.2-0.1-0.4-0.3-0.6l-0.1-0.1c-0.1-0.1-0.1-0.1-0.1-0.2
		c-0.1-0.1-0.2-0.2-0.2-0.4c-0.1-0.2-0.2-0.5-0.3-0.7c0-0.1-0.1-0.3-0.1-0.4l0-0.2v-0.1v-0.1l0,0l0,0c0,0,0,0,0-0.1v0.1
		c0-0.3,0-0.5,0-0.8c0-0.3,0.1-0.5,0.2-0.8c0.2-0.5,0.4-1,0.7-1.4c0.2-0.2,0.3-0.4,0.5-0.6c0.2-0.2,0.4-0.3,0.6-0.5
		c0.2-0.1,0.5-0.3,0.7-0.3c0.1,0,0.3,0,0.4,0h0.2c0.1,0,0.1,0,0.2,0.1c-0.1,0-0.1-0.1-0.2-0.1h-0.2c-0.1,0-0.3,0-0.4,0.1
		c-0.2,0.1-0.4,0.2-0.6,0.4c-0.2,0.2-0.4,0.3-0.5,0.5l-0.3,0.3l-0.2,0.3c-0.3,0.4-0.5,0.8-0.7,1.3c-0.1,0.2-0.1,0.5-0.2,0.7
		c0,0.2,0,0.5,0,0.7v0.1l0,0l0,0l0,0l0,0v0.1v0.2c0,0.1,0.1,0.2,0.1,0.4c0.1,0.2,0.2,0.5,0.3,0.7c0.1,0.1,0.1,0.2,0.2,0.3
		c0,0,0.1,0.1,0.1,0.1l0.1,0.2c0.2,0.2,0.3,0.5,0.4,0.8c0,0.2,0,0.3-0.1,0.5c-0.1,0.1-0.1,0.2-0.2,0.4c-0.1,0.2-0.3,0.4-0.4,0.6
		c0,0.1,0,0.1-0.1,0.2c0,0,0,0.1,0,0.1v0.1c0,0.1,0,0.3,0,0.4c0,0.2,0,0.5,0.1,0.6c0.1,0.1,0.2,0.1,0.3,0.2c0.1,0,0.2,0.1,0.3,0.1
		c0.2,0,0.5,0,0.7,0c0.5-0.1,0.9-0.4,1.4-0.6c0.3-0.1,0.5-0.2,0.8-0.2c0.3,0,0.5,0,0.8,0.1c0.3,0.1,0.5,0.2,0.8,0.3
		C34,27.2,34.2,27.4,34.3,27.6z"/>
	<path style="fill:#57401B;" d="M19,20.8c-0.1-0.2-0.1-0.4-0.2-0.6c0-0.1,0-0.2-0.1-0.3c0-0.1,0-0.2,0-0.3c0-0.2,0.1-0.5,0.1-0.7
		c0-0.1,0.1-0.2,0.1-0.3l0.1-0.3c0.1-0.2,0.2-0.4,0.3-0.6c0.1-0.2,0.3-0.4,0.5-0.5c0.2-0.1,0.5-0.1,0.8,0c0.2,0.1,0.4,0.2,0.6,0.4
		l0,0c0.2,0.2,0.3,0.4,0.4,0.6c0.1,0.2,0.2,0.4,0.2,0.7c0,0.2,0.1,0.5,0,0.7c0,0.2-0.1,0.5-0.1,0.7c-0.3,0.9-1.1,1.6-2,1.8
		c-0.4,0.1-0.8,0.2-1.2,0.4c-0.2,0.1-0.3,0.2-0.5,0.4c-0.2,0.2-0.4,0.5-0.5,0.8c0,0.1-0.1,0.2-0.1,0.3c-0.1,0.2-0.1,0.4-0.2,0.6
		c-0.1,0.4-0.1,0.9,0,1.3c-0.1-0.4-0.2-0.9-0.2-1.3c0-0.2,0-0.5,0.1-0.7c0-0.1,0.1-0.2,0.1-0.3c0.1-0.3,0.3-0.6,0.5-0.9
		c0.2-0.2,0.3-0.3,0.6-0.5c0.4-0.2,0.9-0.3,1.3-0.4c0.8-0.2,1.5-0.8,1.8-1.6c0.1-0.2,0.1-0.4,0.1-0.6c0-0.6-0.2-1.2-0.6-1.7l0,0
		c-0.2-0.1-0.3-0.2-0.5-0.3c-0.2-0.1-0.3-0.1-0.5,0c-0.3,0.1-0.5,0.5-0.7,0.9l-0.1,0.3c0,0.1-0.1,0.2-0.1,0.3
		c-0.1,0.2-0.2,0.4-0.2,0.6c0,0.1,0,0.2,0,0.3c0,0.1,0,0.2,0,0.3C19,20.4,19,20.6,19,20.8z"/>
	<path style="fill:#57401B;" d="M18.9,20c-0.2-0.1-0.3-0.1-0.5-0.1c-0.2,0-0.3,0-0.5,0c-0.3,0-0.6,0.1-0.9,0.3
		c-0.5,0.4-1,0.9-1.3,1.4c-0.2,0.3-0.3,0.6-0.3,0.9c-0.1,0.3-0.1,0.7-0.1,1c0,0.3,0,0.7,0,1c0,0.3,0.1,0.7,0.1,1
		c0.1,0.3,0.2,0.6,0.3,0.9c0.1,0.1,0.1,0.3,0.2,0.4c0.1,0.1,0.2,0.2,0.3,0.2c0.3,0,0.7,0,1,0c0.2,0,0.3,0,0.5,0H18
		c0,0,0.1-0.1,0.1-0.2l0.1-0.2l0.2-0.5c0-0.2,0.1-0.3,0.2-0.5c0.1-0.2,0.2-0.3,0.3-0.5c0.2-0.3,0.5-0.5,0.8-0.6
		c0.3-0.2,0.6-0.3,0.9-0.5c0.3-0.1,0.7-0.2,1-0.2c0.3,0,0.7,0.1,1,0.2l0.5,0h0.3h0.2c0,0,0.1,0,0.1,0c0.1-0.1,0.1-0.1,0.1-0.2
		c0.1-0.1,0.2-0.3,0.3-0.4l0.5-0.8c0.2-0.3,0.3-0.6,0.4-0.9c0.2-0.6,0.2-1.3,0.1-1.9c0-0.3-0.1-0.6-0.1-1c0-0.2,0-0.3-0.1-0.5
		c0-0.2,0-0.3-0.1-0.5c-0.1-0.3-0.3-0.6-0.5-0.8c-0.2-0.2-0.5-0.4-0.8-0.5c-0.3-0.2-0.6-0.2-0.9-0.2c-0.3,0-0.6,0.2-0.7,0.5
		c-0.1,0.3-0.2,0.7-0.2,1c0,0.3,0,0.7,0.1,1c-0.2-0.7-0.2-1.3,0-2c0-0.1,0.1-0.2,0.1-0.3c0-0.1,0.1-0.1,0.2-0.2
		c0.1-0.1,0.3-0.2,0.5-0.2c0.2,0,0.4,0,0.5,0c0.2,0,0.3,0.1,0.5,0.1c0.3,0.1,0.6,0.3,0.9,0.6c0.2,0.3,0.4,0.6,0.5,0.9
		c0.1,0.2,0.1,0.3,0.1,0.5c0,0.2,0,0.3,0.1,0.5c0,0.3,0.1,0.7,0.1,1c0.1,0.7,0.1,1.3-0.1,2c-0.1,0.4-0.2,0.7-0.4,1l-0.5,0.8
		c-0.1,0.1-0.2,0.3-0.3,0.4c-0.1,0.1-0.1,0.1-0.2,0.2c0,0-0.1,0.1-0.1,0.1c-0.1,0-0.1,0-0.2,0c-0.1,0-0.2,0-0.3,0H23
		c-0.2,0-0.3-0.1-0.5-0.1c-0.3-0.1-0.6-0.1-0.9-0.2c-0.3,0-0.6,0.1-0.9,0.2c-0.3,0.1-0.6,0.3-0.9,0.5c-0.3,0.1-0.5,0.3-0.7,0.6
		c-0.2,0.3-0.3,0.6-0.4,0.9l-0.2,0.5l-0.1,0.2c0,0.1-0.1,0.2-0.1,0.3c-0.1,0.1-0.1,0.1-0.2,0.1h-0.4c-0.2,0-0.3,0-0.5,0h-0.5
		c-0.2,0-0.4,0-0.5,0c-0.2,0-0.4-0.1-0.5-0.3c-0.1-0.1-0.2-0.3-0.3-0.5c-0.1-0.3-0.2-0.7-0.3-1c-0.1-0.3-0.1-0.7-0.1-1
		c0-0.3,0-0.7,0-1c0-0.3,0.1-0.7,0.2-1c0.1-0.4,0.2-0.7,0.4-1c0.4-0.6,0.9-1.1,1.5-1.4c0.3-0.2,0.7-0.2,1-0.3c0.2,0,0.3,0,0.5,0
		C18.5,19.9,18.7,19.9,18.9,20z"/>
	<path style="fill:#57401B;" d="M26.2,16.3c-0.3,0-0.5,0.2-0.6,0.4c-0.1,0.1-0.1,0.2-0.1,0.3c0,0.1,0,0.2,0,0.3c0,0,0,0.1,0.1,0.1
		l0.1,0.1l0.3,0.3c0.2,0.2,0.4,0.3,0.6,0.5c0.2,0.2,0.4,0.4,0.5,0.6c0.1,0.2,0.3,0.5,0.4,0.7c0.2,0.5,0.3,0.9,0.4,1.4v0.2l0,0l0,0
		l0,0c-0.1,0-0.1,0-0.2,0c0,0,0,0-0.1,0.1l0,0l0,0l0,0c0-0.1,0-0.2,0-0.4v-0.4v-0.4c0-0.5,0-1,0-1.5c0-0.1,0-0.2,0-0.4
		c0,0,0-0.1,0-0.2s0-0.1,0-0.2c-0.1-0.2-0.2-0.5-0.3-0.7c-0.1-0.2-0.2-0.4-0.4-0.6C26.7,16.4,26.4,16.3,26.2,16.3z M26.2,16.3
		c0.1,0,0.3,0,0.4,0.1c0.1,0,0.2,0.1,0.4,0.2c0.2,0.1,0.4,0.3,0.6,0.6c0.1,0.2,0.2,0.5,0.3,0.7c0,0.1,0,0.1,0,0.2s0,0.1,0,0.2
		c0,0.1,0,0.3,0,0.4c0,0.5,0,1,0,1.5v0.4v0.4c0,0.1,0,0.3,0,0.4v0.1l0,0c0,0,0,0.1-0.1,0.1c0,0-0.1,0-0.1,0c0,0-0.1,0-0.1,0v0v-0.1
		v-0.2c-0.1-0.5-0.2-1-0.4-1.4c-0.1-0.2-0.2-0.4-0.3-0.6c-0.1-0.2-0.3-0.4-0.5-0.5c-0.2-0.2-0.4-0.3-0.6-0.5s-0.2-0.2-0.3-0.3
		l-0.1-0.2c-0.1-0.1-0.1-0.1-0.1-0.2c0-0.2,0-0.3,0.1-0.5c0.1-0.1,0.2-0.2,0.3-0.3c0.1-0.1,0.2-0.1,0.3-0.2
		C26,16.3,26.1,16.3,26.2,16.3z"/>
	<path style="fill:#57401B;" d="M21.2,27.6c0.1-0.3,0.3-0.5,0.5-0.6c0.2-0.1,0.5-0.3,0.8-0.3l0.4-0.1c0.1,0,0.3,0,0.4,0
		c0.3,0,0.6,0.1,0.8,0.2c0.3,0.1,0.5,0.2,0.7,0.4c0.2,0.1,0.5,0.2,0.7,0.3c0.2,0,0.5,0,0.7,0c0.1,0,0.2-0.1,0.3-0.1
		c0.1,0,0.2-0.1,0.2-0.2c0.1-0.2,0.1-0.5,0.1-0.7v-0.2c0,0,0-0.1,0-0.1c0-0.1-0.1-0.2-0.2-0.3c-0.2-0.2-0.4-0.4-0.6-0.6
		C26.1,25.1,26,25.1,26,25c-0.1-0.1-0.1-0.2,0-0.3c0-0.1,0.1-0.2,0.2-0.3l0.2-0.1l0.3-0.2l0.1-0.1c0,0,0.1-0.1,0.1-0.1
		c0.1-0.2,0.2-0.5,0.3-0.7c0.1-0.3,0.1-0.5,0.2-0.8s0.1-0.3,0.1-0.4v-0.2v-0.2l0,0l0,0v-0.1c0.1-0.2,0.1-0.4,0.1-0.7
		c0-0.2,0-0.5-0.1-0.7c-0.1-0.4-0.3-0.9-0.6-1.2c-0.2-0.2-0.3-0.3-0.5-0.5c-0.2-0.1-0.4-0.3-0.5-0.5c-0.2-0.2-0.4-0.3-0.6-0.4
		l-0.3-0.2l-0.2-0.1h-0.1h-0.1l0,0h0.2h0.2c0.1,0,0.2,0.1,0.4,0.1c0.2,0.1,0.4,0.2,0.7,0.3l0.3,0.2c0.1,0.1,0.2,0.1,0.3,0.2
		c0.2,0.2,0.4,0.3,0.5,0.5c0.5,0.6,0.8,1.3,0.8,2.1c0,0.3,0,0.5-0.1,0.8v-0.1c0,0,0,0,0,0v0.2V22c0,0.1,0,0.3-0.1,0.4
		c-0.1,0.3-0.1,0.5-0.2,0.8c-0.1,0.3-0.2,0.5-0.3,0.8c0,0.1-0.1,0.1-0.1,0.2l-0.2,0.1l-0.3,0.3c-0.1,0.1-0.2,0.2-0.2,0.2
		c0,0,0,0.1,0,0.1c0,0,0.1,0.1,0.1,0.1c0.2,0.2,0.4,0.4,0.6,0.6c0.1,0.1,0.2,0.2,0.3,0.4c0,0.1,0,0.2,0,0.3v0.2c0,0.3,0,0.6-0.1,0.9
		c0,0.1-0.1,0.1-0.1,0.2c-0.1,0.1-0.1,0.1-0.2,0.2c-0.1,0.1-0.3,0.1-0.4,0.2c-0.3,0.1-0.6,0.1-0.9,0c-0.3-0.1-0.5-0.2-0.8-0.3
		c-0.2-0.1-0.5-0.3-0.7-0.4c-0.2-0.1-0.5-0.2-0.7-0.2H23h-0.2h-0.4c-0.3,0-0.5,0.1-0.8,0.2C21.5,27.2,21.3,27.4,21.2,27.6z"/>
	<path style="fill:#57401B;" d="M41,31.5c-0.1-0.1-0.1-0.1,0.4-1s-0.3-2-0.8-2.5c-0.6-0.5-1.3-0.7-2-0.7v-0.3c0.8,0,1.6,0.3,2.2,0.8
		c0.6,0.6,1.6,1.9,0.9,3c-0.4,0.6-0.5,0.7-0.5,0.7L41,31.5h0.2H41z"/>
	<path style="fill:#57401B;" d="M13.5,31.3c-0.7-1,0.4-2.8,1.2-3.6c0.6-0.5,1.4-0.8,2.2-0.8v0.3c-0.7,0-1.4,0.2-2,0.7
		c-0.8,0.8-1.7,2.4-1.1,3.1L13.5,31.3z"/>
	<path style="fill:#57401B;" d="M39.1,41.2c0.1-0.4,0.3-0.7,0.7-0.8c1-0.8,1.9-1.9,2.5-3.1c0.3-0.7,0.1-1.6-0.5-2
		c-0.4-0.2-0.6,0-0.6,0L40.9,35c0.3-0.3,0.8-0.3,1,0c0.8,0.5,1.1,1.5,0.7,2.4c-0.6,1.2-1.5,2.3-2.6,3.2c-0.3,0.2-0.5,0.4-0.5,0.6
		S39.1,41.4,39.1,41.2z"/>
	<path style="fill:#57401B;" d="M15.7,47.5c-1.3,0-1.7-0.6-2.7-1.9c-0.7-1.1-0.5-2.5,0.3-3.5c0.1-0.2,0.3-0.3,0.5-0.4
		c0.1,0,0.2,0,0.3,0c0-0.4,0.1-0.7,0.2-1.1c0.3-0.8,0.1-1.7-0.5-2.3c-0.6-0.6-1-1.5-1.1-2.4l-0.1-0.3c-0.1-0.4-0.1-0.9,0.2-1.2
		c0.2-0.2,0.5-0.3,0.8-0.3v0.3c-0.2,0-0.4,0.1-0.5,0.2c-0.2,0.3-0.2,0.6-0.1,0.9l0.1,0.3c0.1,0.9,0.4,1.7,1,2.3
		c0.7,0.7,1,1.7,0.6,2.6c-0.1,0.3-0.2,0.7-0.2,1c0,0.1,0,0.1,0,0.2c0,0.1-0.1,0.1-0.1,0.2c-0.1,0-0.2,0-0.2,0
		c-0.1,0-0.1-0.1-0.2-0.1s-0.1,0-0.3,0.2c-0.8,0.8-0.9,2.1-0.3,3.1c1,1.4,1.3,1.8,2.6,1.8c0.8,0,1.6-0.2,2.2-0.8
		c0.2-0.2,0.5-0.2,0.7-0.2c0.2,0,0.5,0,0.7-0.1c0.6-0.3,1-0.9,1.1-1.6c0.2-0.6,0.1-1.2-0.1-1.8c-0.1-0.2-0.1-0.4-0.1-0.7
		c0-0.2,0-0.3-0.1-0.5l0,0c-0.2-0.3-0.3-0.3-0.4-0.2c-0.2,0.2-0.4,0.4-0.4,0.7l-0.1,0.2c0,0.1-0.1,0.2-0.1,0.3v0.1
		c0,0.1-0.1,0.3-0.1,0.4L19,43.3l-0.2-0.1V43c0-0.1,0-0.2,0.1-0.3c0.1-0.6,0.2-1.2,0.1-1.8c-0.3-0.4-0.3-0.5-0.6-0.4
		s-0.5,1.1-0.5,1.4c0,0.4,0,0.8-0.1,1.2v0.2h-0.3v-0.2c0.1-0.4,0.1-0.9-0.1-1.3c0-0.1-0.1-0.1-0.2-0.1c-0.5,0-0.7,0.1-0.7,0.2
		s-0.1,0.1,0,0.3v0.1c0.2,0.5,0.2,1.1,0,1.6c0,0.1-0.1,0.2-0.1,0.3c-0.1,0.3-0.2,0.6-0.8,0.6c-0.5,0-0.7-0.2-0.8-0.3
		c0-0.1,0-0.2,0-0.2l0.3,0.2c0,0,0-0.1,0-0.1c0,0,0.1,0.1,0.6,0.2c0.5,0.1,0.4,0,0.5-0.3c0-0.1,0.1-0.3,0.1-0.4
		c0.1-0.5,0.1-0.9-0.1-1.4v-0.1c-0.1-0.2,0-0.4,0.1-0.6c0.3-0.2,0.6-0.3,1-0.3c0.1,0,0.3,0.1,0.4,0.1c0-0.5,0.3-0.9,0.6-1.2
		c0.5-0.3,0.8,0.2,1,0.5c0.1,0.3,0.1,0.6,0.1,0.9c0.1-0.2,0.2-0.3,0.4-0.4c0.5-0.3,0.7,0,0.9,0.3l0,0c0.1,0.2,0.2,0.4,0.1,0.7
		c0,0.2,0,0.4,0.1,0.5c0.3,0.6,0.3,1.3,0.1,2c-0.1,0.8-0.6,1.4-1.3,1.8c-0.3,0.1-0.6,0.2-0.9,0.1c-0.2,0-0.4,0-0.5,0.1
		c-0.7,0.6-1.5,0.9-2.4,0.8L15.7,47.5z"/>
	<path style="fill:#57401B;" d="M40.3,47.8c-1.8,0-5.1-1.7-5.1-3.3c0-0.6,0-1.2-0.1-1.7v-0.2c0-0.1-0.1-0.2-0.2-0.3
		c-0.2-0.1-0.2-0.4-0.1-0.6c0,0,0-0.1,0.1-0.1c0.4-0.4,0.7-0.6,1.5,0l0.1,0.1c0-0.3-0.1-0.7-0.1-0.9c-0.2-1,0.2-2.1,0.9-2.8
		c0.5-0.3,0.7-0.3,1-0.3h0.1c0.1,0,0.2,0,0.3,0.1C39,38.2,39,38.6,39,39v0c0,0.2-0.1,0.5-0.2,0.7c-0.1,0.1-0.1,0.3-0.2,0.4
		c-0.1,0.3-0.1,0.7-0.1,1c0.1,0,0.3,0,0.6,0.3c0.2,0.2,0.4,0.5,0.3,0.8c0.2-0.1,0.5-0.1,0.8,0c0.3,0.4,0.5,0.8,0.4,1.3
		c0-0.3,0.2-1.4,1-1.6c0.4-0.1,0.8,0,1.2,0.3c0.6,0.6,0.9,1.4,0.9,2.2C43.6,46.2,42.2,47.7,40.3,47.8C40.3,47.8,40.3,47.8,40.3,47.8
		z M35.6,41.6c-0.2,0-0.3,0.1-0.5,0.3s-0.1,0.1-0.1,0.1c0,0,0,0.1,0.1,0.1c0.1,0.1,0.2,0.3,0.2,0.5v0.2c0.1,0.6,0.1,1.2,0.1,1.8
		c0,1.4,2.9,3,4.8,3c1.7-0.1,3-1.5,2.9-3.2c0.1-0.7-0.2-1.4-0.7-1.9c-0.2-0.2-0.6-0.3-0.9-0.2c-0.7,0.2-0.8,1.4-0.8,1.4v0l0,0
		c-0.1,0.1-0.3,0.3-0.5,0.2s-0.2-0.3-0.2-0.4c0.1-0.4,0-0.8-0.3-1.1c-0.1-0.1-0.4,0-0.6,0.1s-0.3,0.1-0.3,0l-0.1-0.1v-0.1
		c0,0,0-0.1,0-0.1c0.1-0.2,0.1-0.5-0.1-0.6c-0.2-0.2-0.3-0.2-0.3-0.2c-0.1,0-0.2,0-0.3-0.1C38,41,38,40.7,38.2,40
		c0-0.2,0.1-0.4,0.2-0.5c0.1-0.1,0.2-0.3,0.2-0.5v-0.1c0-0.3,0-0.8-0.1-0.9c0,0,0,0-0.1,0h-0.2c-0.2,0-0.3,0-0.8,0.3
		c-0.7,0.7-0.9,1.6-0.8,2.5c0.2,0.9,0.3,2.5,0.3,2.5l0.1,1.1l-0.4-1c-0.1-0.2-0.1-0.3-0.1-0.5c0-0.2-0.1-0.4-0.2-0.6
		c-0.1-0.1-0.2-0.2-0.3-0.3C36,41.7,35.8,41.6,35.6,41.6z"/>
	<ellipse style="fill:#7D6127;" cx="26.5" cy="43.6" rx="0.4" ry="0.2"/>
	<ellipse style="fill:#7D6127;" cx="27.5" cy="43.6" rx="0.3" ry="0.1"/>
	<path style="fill:#DBBC7C;" d="M17.4,31.4c-0.1,0.7-0.1,1.2,0.3,1.4s0.9,0.1,0.8-0.6s-0.3-1.1,0.6-1.7c0.7-0.5,1.5-0.9,2.4-1
		c-0.7-0.1-1.3-0.1-2,0c-0.6,0.1-1.1,0.5-1.6,0.9C17.7,30.6,17.5,31,17.4,31.4z"/>
	<path style="fill:#57401B;" d="M34.9,41.9c0-0.1,0-0.2,0.1-0.3c0.1-0.1,0.2-0.2,0.3-0.2c0.2-0.1,0.5-0.1,0.7,0
		c0.2,0,0.5,0.2,0.7,0.3c0.2,0.1,0.3,0.3,0.5,0.5l0,0.1l0.1,0.1c0,0.1,0.1,0.1,0.1,0.2c0.1,0.1,0.1,0.3,0.1,0.4c0,0.1,0,0.2,0,0.3
		c0,0.1,0,0.2,0.1,0.2c0,0,0.1,0.1,0.1,0.1c0.1,0,0.1,0,0.2,0c0.1,0,0.1,0,0.2-0.1l0.1-0.1l0-0.1l0.6-1.3l-0.2,1.5
		c0,0.2,0,0.3,0,0.5c0,0.1,0.1,0.2,0.1,0.3c0,0,0.1,0,0.1,0h0.2c0.1-0.1,0.3-0.1,0.4-0.2c0.1-0.1,0.2-0.2,0.3-0.4v0l0,0l0,0
		c0,0,0.1-0.1,0.2,0c0,0,0.1,0,0.1,0.1l0,0l0,0l0,0v0.1l-0.1,0.3c0,0.2-0.1,0.3-0.1,0.5c0,0.1,0,0.2,0,0.3c0,0.1,0,0.2,0.1,0.3
		c-0.1-0.1-0.1-0.1-0.1-0.2c0-0.1,0-0.2,0-0.3c0-0.2,0-0.4,0-0.5c0-0.1,0-0.2,0-0.3v-0.1l0,0l0,0c0,0,0,0.1,0.1,0.1c0,0,0.2,0,0.2,0
		l0,0l0,0v0.1c-0.1,0.2-0.2,0.4-0.3,0.5c-0.1,0.2-0.3,0.3-0.5,0.4c-0.1,0-0.2,0.1-0.3,0.1c-0.1,0-0.3,0-0.4,0
		c-0.1-0.1-0.2-0.2-0.3-0.3c-0.1-0.1-0.1-0.2-0.1-0.3c0-0.2,0-0.4,0-0.6l0.5,0.1c-0.1,0.1-0.1,0.3-0.3,0.3c-0.1,0.1-0.2,0.2-0.4,0.2
		c-0.1,0-0.3,0-0.4,0c-0.2,0-0.3-0.2-0.4-0.3C37,43.6,37,43.4,37,43.2c0-0.1,0-0.2,0-0.4c0-0.1,0-0.2,0-0.2c0,0,0-0.1-0.1-0.1v0
		l0-0.1c-0.1-0.2-0.2-0.3-0.4-0.5c-0.1-0.1-0.3-0.2-0.5-0.3c-0.2-0.1-0.4-0.1-0.6-0.1C35.2,41.5,35,41.7,34.9,41.9z"/>
</g>
</svg>
