<?xml version="1.0" encoding="utf-8"?>
<!-- Generator: Adobe Illustrator 22.0.0, SVG Export Plug-In . SVG Version: 6.00 Build 0)  -->
<svg version="1.1" id="Слой_26" xmlns="http://www.w3.org/2000/svg" xmlns:xlink="http://www.w3.org/1999/xlink" x="0px"
	 y="0px" viewBox="0 0 55.8 62.9" style="enable-background:new 0 0 55.8 62.9;" xml:space="preserve">
<title>Artboard 1 копия 16</title>
<path style="fill:#ECC477;" d="M29.4,61.3h-2h-1c-2.5,0-5.2-0.1-7.8-0.2h-0.5c-0.3,0-0.5-0.3-0.5-0.5c0-0.1,0-0.1,0-0.2l0.2-0.4
	c0.3-0.7,0.7-1.3,1.2-1.8c0.5-0.5,1-0.9,1.6-1.3c0.6-0.4,1.2-0.7,1.8-0.9c0.4-0.2,0.9-0.3,1.4-0.5c0-1.1-0.1-2.2-0.1-3.3
	c0-0.5,0-1-0.1-1.4c-9.7-1.7-10.8-9.4-11.4-13.6c0-0.3-0.1-0.6-0.1-0.9c-0.7-3-0.3-6.2,1.1-8.9c0.9-1.9,2.3-3.5,4.1-4.6
	c0-0.1-0.1-0.2-0.1-0.3c-0.1-0.2-0.1-0.5,0-0.7c-0.2-0.1-0.4-0.1-0.7-0.2c-0.1,0-0.2,0-0.3,0h-0.3c-0.2,0-0.4,0.1-0.5,0.2
	c-0.2,0.1-0.4,0.2-0.6,0.4c0,0.2-0.1,0.4-0.6,0.4h-0.1h-0.1h-0.5c-0.6,0-0.6-0.3-0.6-0.5c0-0.1,0.1-0.3,0.2-0.4c0-0.1,0-0.1,0-0.2
	v-0.1c0-0.3,0.1-0.5,0.1-0.7c0.1-0.5,0.2-1,0.4-1.4l0.1-0.3l-0.1-0.1c-0.3-0.3-0.5-0.6-0.8-0.9c-0.4-0.6-0.7-1.3-1-2l-0.1-0.2
	c-0.1-0.2,0-0.4,0.1-0.5L12,15c0.5-0.6,1-1.1,1.7-1.4c0.7-0.4,1.4-0.7,2.1-0.8h0.1c0,0,0-0.1,0.1-0.1l0.5-0.6c0.2-0.4,0.5-0.7,0.8-1
	c0.3-0.3,0.6-0.6,1-0.8c0.4-0.3,0.8-0.5,1.2-0.6c0.4-0.2,0.9-0.2,1.3-0.3h0.1c0.5,0,1,0.1,1.4,0.4c0.3,0.2,0.6,0.4,0.8,0.6h0.5
	c0.3,0,0.7,0,1,0.1c0.5,0.1,1.1,0.3,1.6,0.5c0-0.1,0-0.3,0-0.4c0-0.4-0.2-0.7-0.4-1c-0.2-0.3-0.5-0.6-0.8-0.8l-0.5-0.3
	c-0.2-0.1-0.3-0.5-0.2-0.7c0-0.1,0.1-0.1,0.2-0.2L25,7.3c0.7-0.4,1.5-0.6,2.3-0.6h0.3c0.9,0.1,1.7,0.3,2.4,0.7
	c0.4,0.2,0.8,0.5,1.1,0.8c0.3,0.3,0.5,0.7,0.7,1.1c0.1,0.2,0.1,0.3,0.2,0.5l0.3-0.2c0.1-0.1,0.2-0.1,0.3-0.2l0.1-0.1
	c0.2-0.1,0.3-0.2,0.5-0.3l0.5-0.2l0.5-0.2c0.7-0.2,1.3-0.3,2-0.3c0.3,0,0.5,0,0.8,0c0.5,0,0.9,0,1.3,0.1c0.7,0.1,1.4,0.4,2.1,0.8
	C41,9.6,41.5,10,42,10.4l1.4,1.1c0.2,0.2,0.2,0.5,0.1,0.7c-0.1,0.1-0.2,0.2-0.4,0.2l-1.8-0.1c-0.1,0-0.3,0-0.4,0
	c-0.6,0.1-1.1,0.3-1.6,0.6L39.2,13c0.5,0.1,0.9,0.2,1.3,0.4c1.1,0.4,2,1.2,2.6,2.2c0.3,0.5,0.5,1,0.7,1.5c0.1,0.3,0.2,0.6,0.2,0.9
	c0,0.3,0,0.5,0,0.8c0,0.5-0.1,1-0.2,1.5c0,0.3-0.1,0.5-0.2,0.8c-0.1,0.3-0.2,0.6-0.4,0.9l-0.3,0.4c-0.1,0.1-0.2,0.2-0.3,0.2h-0.1
	c-0.1,0-0.2,0-0.3-0.1l-0.4-0.4c-0.5-0.4-1-0.8-1.6-1C39.8,21,39.4,21,39,20.9c-0.2,0-0.3,0-0.5,0.1c-0.7,0.2-1.3,0.4-1.9,0.7
	c-0.1,0.1-0.3,0.2-0.4,0.3c0.2,0.2,0.2,0.5,0.2,0.8c0,0.1,0,0.2-0.1,0.2c5.8,3.5,5.2,10,4.9,13.2l0,0.6c-0.3,3.8-1,12.5-10.9,13.8
	c-0.1,1.5-0.2,2.9-0.3,4.6c0.2,0,0.4,0,0.6,0.1h0.3c0.3,0.1,0.6,0.1,0.9,0.2c0.7,0.2,1.4,0.5,2.1,0.9c0.7,0.4,1.3,0.8,1.8,1.4
	c0.6,0.6,1,1.2,1.4,1.9l0.4,0.7c0.1,0.2,0.1,0.5-0.2,0.7c-0.1,0-0.2,0.1-0.2,0.1h-0.8c-1.5,0-2.9,0.1-4.4,0.1L29.4,61.3L29.4,61.3z"
	/>
<path style="fill:#FFFFFF;" d="M27.4,7.1h0.2c0.8,0,1.5,0.3,2.2,0.6c0.4,0.2,0.7,0.4,0.9,0.8c0.3,0.3,0.5,0.6,0.6,1
	c0.2,0.4,0.3,0.8,0.3,1.1c0.3-0.2,0.5-0.4,0.8-0.6c0.1-0.1,0.3-0.2,0.4-0.3c0.1-0.1,0.3-0.2,0.5-0.2l0.5-0.2l0.5-0.1
	C35,9.1,35.7,9,36.3,8.9c0.2,0,0.5,0,0.7,0c0.4,0,0.8,0,1.2,0.1c0.7,0.1,1.3,0.4,1.9,0.7c0.6,0.3,1.1,0.7,1.6,1.1l1.3,1l-1.7-0.1
	h-0.1c-0.2,0-0.3,0-0.5,0c-0.7,0.1-1.3,0.3-1.8,0.7c-0.3,0.2-0.7,0.5-0.9,0.9c0.8,0,1.5,0.2,2.2,0.5c1,0.4,1.8,1.1,2.4,2
	c0.3,0.4,0.5,0.9,0.7,1.4c0.1,0.3,0.1,0.5,0.2,0.8c0,0.3,0,0.5,0,0.8c0,0.5-0.1,1-0.2,1.5c0,0.2-0.1,0.5-0.2,0.7
	c-0.1,0.3-0.2,0.5-0.3,0.8l-0.3,0.4l-0.4-0.4c-0.5-0.5-1.1-0.8-1.8-1.1c-0.4-0.2-0.9-0.3-1.4-0.3c-0.2,0-0.4,0-0.6,0.1
	c-0.7,0.2-1.4,0.4-2,0.8c-0.3,0.2-0.6,0.5-0.8,0.8c0.6,0.6,0.3,1,0,1.2c6.1,3.2,5.5,9.7,5.1,13c0,0.2,0,0.5-0.1,0.7
	c-0.3,3.8-1,12.3-10.9,13.4c-0.1,1.8-0.2,3.5-0.3,5.5c0.4,0,0.7,0,1,0.1c0.3,0.1,0.7,0.1,1,0.2c0.7,0.2,1.4,0.5,2,0.8
	c0.6,0.4,1.2,0.8,1.7,1.3c0.6,0.5,1.1,1.1,1.5,1.7l0.4,0.7h-0.8c-1.5,0-2.9,0.1-4.4,0.1h-2.4h-2c-2.9,0-5.8-0.1-8.8-0.2h-0.5
	l0.2-0.4c0.3-0.6,0.7-1.2,1.1-1.7c0.5-0.5,1-0.9,1.5-1.2c0.5-0.3,1.1-0.6,1.7-0.9c0.6-0.2,1.1-0.4,1.7-0.5c0-1.3-0.1-2.5-0.1-3.8
	c0-0.6-0.1-1.2-0.1-1.8c-9.7-1.4-10.8-9-11.3-13.2c0-0.3-0.1-0.6-0.1-0.9c-0.6-2.9-0.2-6,1.1-8.6c0.9-2,2.4-3.6,4.3-4.6
	c-0.1-0.2-0.2-0.4-0.3-0.6c-0.1-0.3,0-0.6,0.3-0.8c-0.4-0.2-0.9-0.4-1.3-0.5c-0.1,0-0.3,0-0.4,0h-0.3c-0.2,0-0.5,0.1-0.7,0.2
	c-0.4,0.2-0.8,0.4-1.1,0.7l0,0c0.2,0,0.2,0,0,0l0,0L14.2,22v-0.1h-0.6c-0.2,0-0.2,0,0,0c0,0,0-0.1,0-0.1v-0.2l0,0v-0.2
	c0-0.2,0.1-0.5,0.1-0.7c0.1-0.5,0.2-0.9,0.4-1.4c0.1-0.2,0.1-0.4,0.2-0.6c-0.1-0.1-0.2-0.2-0.3-0.3c-0.3-0.3-0.5-0.5-0.7-0.9
	c-0.4-0.6-0.7-1.2-1-1.9l-0.1-0.2l0.1-0.1c0.5-0.5,1-1,1.6-1.3c0.6-0.4,1.3-0.6,1.9-0.7h0.2c0.6,0,1.3,0.2,1.8,0.6
	c0.2,0.2,0.5,0.3,0.7,0.5c-0.1-0.1-0.1-0.2-0.2-0.4c-0.2-0.2-0.3-0.4-0.5-0.5c-0.1-0.1-0.2-0.1-0.3-0.2c-0.1,0-0.2-0.1-0.3-0.1
	L16.4,13l0.5-0.6c0.2-0.3,0.5-0.6,0.8-0.9c0.3-0.3,0.6-0.5,0.9-0.8c0.3-0.2,0.7-0.4,1.1-0.6c0.4-0.1,0.7-0.2,1.1-0.2h0.1
	c0.8,0,1.5,0.4,2,1c0.2,0,0.5-0.1,0.8-0.1c0.3,0,0.6,0,0.9,0.1c0.6,0.1,1.2,0.3,1.8,0.6l0.3,0.1c0.1-0.4,0.1-0.8,0.1-1.2
	c0-0.4-0.2-0.8-0.5-1.2c-0.3-0.4-0.6-0.7-0.9-0.9L24.8,8l0.5-0.3C26,7.4,26.7,7.2,27.4,7.1 M27.4,6.2L27.4,6.2
	c-0.9,0-1.8,0.3-2.6,0.7l-0.5,0.3C23.9,7.4,23.7,8,24,8.5c0.1,0.1,0.2,0.3,0.3,0.3l0.5,0.3c0.3,0.2,0.5,0.4,0.7,0.6
	c0.1,0.1,0.1,0.2,0.2,0.3C25.3,10,25,10,24.7,9.9c-0.4-0.1-0.7-0.1-1.1-0.1h-0.4c-0.2-0.2-0.5-0.4-0.7-0.5C22,9,21.4,8.9,20.8,8.9
	h-0.1c-0.5,0-1,0.1-1.5,0.3c-0.5,0.2-0.9,0.4-1.3,0.7c-0.4,0.3-0.7,0.5-1,0.9c-0.3,0.3-0.6,0.6-0.9,1l-0.4,0.6
	c-0.8,0.1-1.5,0.4-2.1,0.8c-0.7,0.4-1.3,0.9-1.8,1.6l-0.1,0.1c-0.2,0.3-0.3,0.7-0.2,1l0.1,0.2c0.3,0.7,0.6,1.4,1.1,2.1
	c0.2,0.3,0.4,0.6,0.7,0.9l0,0c-0.2,0.5-0.3,1-0.4,1.5c-0.1,0.3-0.1,0.5-0.1,0.8v0.1c-0.1,0.2-0.2,0.4-0.2,0.6c0,0.6,0.4,1,1,1
	c0,0,0.1,0,0.1,0h0.3c0.2,0.1,0.5,0.1,0.7,0c0.3-0.1,0.6-0.3,0.8-0.6c0.1-0.1,0.3-0.2,0.4-0.2c0.1-0.1,0.3-0.1,0.4-0.1h0.2h0.2h0.2
	c0,0.1,0,0.3,0,0.4c-1.8,1.1-3.1,2.7-4,4.6c-1.4,2.8-1.9,6.1-1.2,9.2c0.1,0.3,0.1,0.6,0.1,0.9c0.5,3.9,1.6,12,11.4,13.9
	c0,0.3,0,0.7,0,1c0.1,1,0.1,2,0.1,2.9c-0.3,0.1-0.7,0.2-1,0.4c-0.7,0.3-1.3,0.6-1.9,1c-0.6,0.4-1.2,0.9-1.7,1.4
	c-0.5,0.6-1,1.2-1.3,2L17.2,60c-0.2,0.5,0,1.1,0.5,1.3c0.1,0,0.2,0.1,0.4,0.1h0.5c2.6,0.1,5.2,0.2,7.8,0.2h1h2h2.4
	c1.3,0,2.7,0,4.4-0.1h0.8c0.6,0,1-0.5,1-1c0-0.2-0.1-0.3-0.1-0.5l-0.4-0.7c-0.4-0.7-1-1.4-1.6-1.9c-0.6-0.6-1.2-1.1-2-1.5
	c-0.7-0.4-1.4-0.7-2.2-0.9c-0.3-0.1-0.6-0.2-0.9-0.2h-0.2h-0.2c0.1-1.3,0.2-2.5,0.2-3.7c10-1.6,10.7-10.3,11-14.2
	c0-0.3,0-0.5,0.1-0.7c0.3-3.2,0.9-9.8-4.8-13.5c0-0.2,0-0.5-0.1-0.7h0.1c0.5-0.3,1.1-0.5,1.7-0.7c0.1,0,0.2,0,0.4,0
	c0.3,0,0.7,0.1,1,0.2c0.5,0.2,1,0.5,1.5,0.9l0.4,0.4c0.2,0.2,0.4,0.2,0.7,0.3h0.1c0.3,0,0.5-0.2,0.7-0.5l0.3-0.4
	c0.2-0.3,0.4-0.6,0.5-1v0c0.1-0.3,0.2-0.5,0.2-0.8c0.1-0.5,0.2-1,0.2-1.6c0-0.3,0-0.6,0-0.9c0-0.3-0.1-0.7-0.2-1
	c-0.2-0.6-0.4-1.2-0.8-1.7c-0.7-1.1-1.7-1.9-2.8-2.3h-0.1l0.4-0.1h0.4h0.1L43,13h0c0.6,0,1-0.5,1-1c0-0.3-0.1-0.6-0.4-0.8l-1.3-1
	L42.3,10c-0.5-0.4-1.1-0.8-1.6-1.2C40,8.4,39.3,8.1,38.5,8c-0.5-0.1-1-0.1-1.5-0.1c-0.3,0-0.5,0-0.8,0c-0.7,0.1-1.4,0.2-2.1,0.3
	l-0.5,0.1h-0.1L33,8.6c-0.2,0.1-0.4,0.2-0.6,0.3L32.4,9h-0.1c-0.2-0.4-0.4-0.8-0.7-1.2c-0.4-0.4-0.8-0.7-1.3-1
	c-0.8-0.4-1.7-0.7-2.6-0.7L27.4,6.2z"/>
<path style="fill:#ECC477;" d="M14.3,22.4c-0.3,0-0.5-0.2-0.5-0.5s0.2-0.5,0.5-0.5s0.5,0.2,0.5,0.5S14.6,22.4,14.3,22.4z"/>
<path style="fill:#FFFFFF;" d="M14.3,21.9L14.3,21.9L14.3,21.9 M14.3,20.9c-0.6,0-1,0.4-1,1s0.4,1,1,1l0,0c0.4,0,0.7-0.2,0.9-0.5
	c0.2-0.3,0.2-0.7,0-1C15,21.1,14.7,20.9,14.3,20.9z"/>
<path style="fill:#ECC477;" d="M13.6,22.4c-0.3,0-0.5-0.2-0.5-0.5s0.2-0.5,0.5-0.5s0.5,0.2,0.5,0.5S13.9,22.4,13.6,22.4z"/>
<path style="fill:#FFFFFF;" d="M13.6,21.9L13.6,21.9L13.6,21.9"/>
<path style="fill:#E2A731;" d="M17.9,16.3c0,0,4.8-2.9,4.9-2.9l5.7-1.9l4.1,0.4c0,0,1.5,5.8,1.6,5.8s-1.3,3.6-1.3,3.6L20.3,22
	l-2.4-2.3L17.9,16.3z"/>
<path style="fill:#E2A731;" d="M31.8,11.7c0,0-0.1-2.8-2.2-3.7c-1.3-0.7-2.8-0.7-4.1,0c0.8,0.5,1.3,1.3,1.4,2.2c0,1-0.3,2-0.9,2.9"
	/>
<path style="fill:#A57631;" d="M31.8,11.7c-0.1-0.7-0.4-1.4-0.7-2c-0.2-0.3-0.4-0.6-0.6-0.8c-0.2-0.2-0.5-0.4-0.8-0.6
	c-0.6-0.3-1.3-0.5-2-0.5c-0.7,0-1.3,0.1-1.9,0.5V7.8c0.4,0.3,0.8,0.7,1.1,1.1c0.3,0.5,0.4,1,0.4,1.5c0,0.5-0.2,1-0.4,1.5
	c-0.2,0.4-0.5,0.8-0.8,1.2c0.2-0.4,0.4-0.9,0.5-1.3c0.1-0.4,0.2-0.9,0.2-1.4c0-0.4-0.2-0.8-0.5-1.2c-0.3-0.4-0.6-0.7-0.9-0.9L24.8,8
	l0.5-0.3c0.7-0.4,1.5-0.6,2.3-0.6c0.8,0,1.5,0.3,2.2,0.6c0.4,0.2,0.7,0.4,0.9,0.7c0.3,0.3,0.5,0.6,0.6,1
	C31.7,10.2,31.8,11,31.8,11.7z"/>
<path style="fill:#E2A731;" d="M29.4,55.8v-7.7h-4.8v7.8c-1,0.2-1.9,0.5-2.8,1c-1.4,0.7-2.5,1.8-3.1,3.3h17.5
	C34.7,57.7,32.2,56.1,29.4,55.8z"/>
<path style="fill:#A57631;" d="M29.3,55.8c-0.2-2.4-0.4-5-0.4-7.7l0.4,0.4c-0.8,0-1.6,0-2.4,0h-2.4l0.5-0.5c0,1.3-0.1,2.6-0.1,3.9
	s-0.1,2.6-0.1,3.9V56h-0.1c-0.6,0.1-1.2,0.3-1.8,0.5c-0.6,0.2-1.1,0.5-1.6,0.9c-0.5,0.4-1,0.8-1.3,1.3c-0.4,0.5-0.7,1-0.9,1.5
	l-0.3-0.4c2.9-0.1,5.8-0.2,8.8-0.2h2.2c0.7,0,1.5,0,2.2,0c1.5,0,2.9,0,4.4,0.1l-0.4,0.7c-0.3-0.6-0.7-1.1-1.1-1.6
	c-0.4-0.5-0.9-1-1.5-1.3c-0.6-0.4-1.1-0.7-1.8-1c-0.3-0.1-0.7-0.3-1-0.4c-0.1-0.1-0.4-0.1-0.5-0.2L29.3,55.8z M29.4,55.8
	c0.4,0,0.7,0,1,0.1c0.3,0.1,0.7,0.1,1,0.2c0.7,0.2,1.4,0.5,2,0.8c0.6,0.4,1.2,0.8,1.7,1.3c0.6,0.5,1.1,1.1,1.5,1.8l0.4,0.7h-0.8
	c-1.5,0-2.9,0.1-4.4,0.1c-0.7,0-1.5,0-2.2,0h-2.2c-2.9,0-5.8-0.1-8.8-0.2h-0.5l0.2-0.4c0.3-0.6,0.7-1.2,1.1-1.7
	c0.5-0.5,1-0.9,1.5-1.2c0.5-0.3,1.1-0.6,1.7-0.9c0.6-0.2,1.2-0.4,1.8-0.6l-0.1,0.2c0-1.3-0.1-2.6-0.1-3.9s-0.1-2.6-0.1-3.9v-0.5H27
	c0.8,0,1.6,0,2.4,0h0.5v0.4C29.7,50.6,29.6,53,29.4,55.8L29.4,55.8z"/>
<path style="fill:#E2A731;" d="M13.3,36.9c0.6,4.6,1.8,12.5,13.4,12.9c13,0.4,13.1-9.9,13.5-13.7s0.8-10.2-6-13
	c-7.9-3.2-17-1.9-19.9,4.5C12.2,32.3,13,34.6,13.3,36.9z"/>
<path style="fill:#A57631;" d="M27.5,50.4h-0.8C14.6,50,13.4,41.5,12.8,37c0-0.3-0.1-0.6-0.1-0.9c-0.6-2.9-0.2-6,1.1-8.6
	c3.1-6.9,12.9-7.8,20.6-4.7c7.3,3,6.7,10.1,6.3,13.5c0,0.2,0,0.5-0.1,0.7C40.3,41,39.5,50.4,27.5,50.4z M25.7,22.1
	c-4.8,0-9.2,1.8-11,5.8c-1.3,2.5-1.6,5.3-1,8c0.1,0.3,0.1,0.7,0.1,1l0,0c0.6,4.5,1.7,12.1,12.9,12.5c11.8,0.4,12.5-8.3,12.8-12.5
	c0-0.3,0-0.5,0.1-0.7c0.5-5.1,0.1-10.1-5.7-12.4C31.4,22.7,28.6,22.1,25.7,22.1z"/>
<path style="fill:#E2A731;" d="M29,14.5c0,0,2.1-4.3,5.6-4.9c3.8-0.7,5.1,0.3,6.8,1.6c0,0-3.5-0.3-4.8,3.8s-0.8,5.2-0.8,5.2"/>
<path style="fill:#A57631;" d="M29,14.5c0.5-1.2,1.2-2.3,2-3.2c0.5-0.5,1-0.9,1.5-1.3c0.1-0.1,0.3-0.2,0.4-0.3
	c0.1-0.1,0.3-0.2,0.5-0.2l0.5-0.2l0.5-0.1C35,9,35.7,8.9,36.3,8.9c0.7-0.1,1.3,0,2,0.1c0.7,0.1,1.3,0.4,1.9,0.7
	c0.6,0.3,1.1,0.7,1.6,1.1l1.3,1l-1.7-0.1c-0.2,0-0.4,0-0.6,0c-0.2,0-0.4,0.1-0.7,0.1c-0.4,0.1-0.8,0.3-1.2,0.6
	c-0.7,0.5-1.3,1.3-1.7,2.1c-0.1,0.2-0.2,0.4-0.3,0.7l-0.2,0.7c-0.2,0.5-0.3,0.9-0.4,1.4c-0.1,0.5-0.3,1-0.3,1.4
	c0,0.2-0.1,0.5-0.1,0.7c0,0.2,0,0.5,0,0.7c-0.1-0.5-0.2-1-0.1-1.5c0-0.5,0.1-1,0.2-1.5c0.1-0.5,0.2-1,0.3-1.5l0.2-0.7
	c0.1-0.2,0.2-0.5,0.2-0.7s0.2-0.5,0.3-0.7s0.3-0.5,0.4-0.7c0.3-0.4,0.7-0.8,1.1-1.2c0.4-0.3,0.9-0.5,1.4-0.7
	c0.3-0.1,0.5-0.1,0.8-0.2c0.3,0,0.6,0,0.9,0l-0.4,0.9c-0.5-0.4-1-0.7-1.5-1c-0.5-0.3-1-0.6-1.6-0.8c-1.2-0.2-2.4-0.2-3.5,0.1
	c-1.2,0.2-2.2,0.8-3.1,1.6C30.5,12.5,29.7,13.5,29,14.5z"/>
<path style="fill:#E2A731;" d="M29.4,20.7c0,0,2.1-6.3,7.2-6.8s6.2,3,6.4,3.9c0.1,1.2-0.1,2.5-0.5,3.6c0,0-2.2-1.9-4.3-1.2
	s-2.5,1.2-3.1,2.8"/>
<path style="fill:#A57631;" d="M30,20.5c0.2-0.9,0-1.6,0.4-2.4c0.5-0.8,1-1.6,1.7-2.3c0.2-0.2,0.3-0.4,0.5-0.5
	c0.2-0.2,0.4-0.3,0.6-0.5l0.6-0.4l0.7-0.3c0.9-0.4,1.9-0.6,2.9-0.6c1-0.1,2,0.1,3,0.5c1,0.4,1.8,1.1,2.4,2c0.3,0.4,0.5,0.9,0.7,1.4
	c0.1,0.3,0.1,0.5,0.2,0.8c0,0.3,0,0.5,0,0.8c0,0.5-0.1,1-0.2,1.5c0,0.2-0.1,0.5-0.2,0.7c-0.1,0.3-0.2,0.5-0.3,0.8l-0.3,0.4l-0.4-0.4
	c-0.5-0.5-1.1-0.8-1.8-1.1c-0.6-0.3-1.3-0.4-2-0.2c-0.7,0.2-1.4,0.4-2,0.8c-0.6,0.4-1.1,1-1.4,1.7c0.1-0.4,0.2-0.7,0.4-1.1
	c0.2-0.4,0.4-0.7,0.7-0.9c0.3-0.3,0.6-0.5,1-0.6c0.3-0.2,0.7-0.3,1.1-0.4c0.8-0.3,1.6-0.3,2.4,0c0.8,0.3,1.5,0.6,2.1,1.1L42,21.2
	c0.1-0.2,0.1-0.3,0.2-0.5c0-0.2,0.1-0.4,0.1-0.6c0.1-0.4,0.1-0.9,0.1-1.3c0-0.2,0-0.4,0-0.6c0-0.2-0.1-0.4-0.1-0.6
	c-0.1-0.4-0.3-0.8-0.5-1.1c-0.5-0.7-1.1-1.2-1.9-1.6c-0.8-0.3-1.7-0.5-2.5-0.5c-0.9,0-1.7,0.1-2.6,0.4c-0.8,0.3-1.6,0.8-2.2,1.4
	C31.2,17.4,30.8,18.8,30,20.5z"/>
<path style="fill:#E2A731;" d="M23.7,13.1c0,0-0.6-2.6-2.6-2.8s-3.8,2.3-3.8,2.3c1,0.3,1.8,1.2,2,2.3c0.5,1.9,1,3.1,1.9,3.9"/>
<path style="fill:#A57631;" d="M23.7,13.1c-0.3-0.7-0.7-1.2-1.2-1.7c-0.2-0.2-0.5-0.4-0.8-0.5c-0.3-0.1-0.6-0.1-0.9-0.1
	c-0.6,0.1-1.2,0.3-1.7,0.8c-0.5,0.4-1,0.9-1.4,1.4l-0.3-0.8c0.2,0,0.4,0.1,0.6,0.2c0.2,0.1,0.3,0.2,0.5,0.3c0.3,0.2,0.5,0.5,0.7,0.8
	c0.2,0.3,0.3,0.6,0.4,1c0.1,0.4,0.1,0.6,0.2,0.9c0.2,1.2,0.6,2.4,1.4,3.4c-0.6-0.3-1-0.8-1.4-1.4c-0.3-0.6-0.6-1.2-0.8-1.8
	c-0.1-0.5-0.4-1.1-0.7-1.6c-0.2-0.2-0.3-0.4-0.5-0.5c-0.1-0.1-0.2-0.1-0.3-0.2c-0.1,0-0.2-0.1-0.3-0.1L16.4,13l0.5-0.6
	c0.2-0.3,0.5-0.6,0.8-0.9c0.3-0.3,0.6-0.5,0.9-0.8c0.3-0.2,0.7-0.4,1.1-0.6c0.4-0.2,0.8-0.2,1.2-0.2c0.4,0,0.9,0.1,1.2,0.3
	c0.4,0.2,0.7,0.5,0.9,0.8C23.4,11.6,23.7,12.3,23.7,13.1z"/>
<path style="fill:#E2A731;" d="M19.3,15.1c0,0-1.9-2-3.7-1.6c-1.1,0.3-2.2,1-2.9,1.9c0.4,1.1,1.1,2.1,1.9,3c1.3,0.9,2.8,1.4,4.4,1.4
	"/>
<path style="fill:#A57631;" d="M19.3,15.1c-0.5-0.4-1-0.7-1.6-1c-0.5-0.3-1.1-0.4-1.7-0.3c-0.3,0.1-0.6,0.2-0.8,0.3
	c-0.3,0.1-0.5,0.3-0.8,0.4c-0.5,0.3-1,0.7-1.4,1.2v-0.3c0.2,0.6,0.5,1.2,0.9,1.8c0.2,0.3,0.4,0.5,0.6,0.8c0.2,0.2,0.5,0.4,0.7,0.6
	c0.3,0.2,0.6,0.3,0.9,0.5c0.3,0.1,0.6,0.3,0.9,0.4c0.6,0.3,1.3,0.4,2,0.5c-0.7,0.1-1.4,0.1-2.1-0.1c-0.7-0.2-1.4-0.4-2-0.7
	c-0.3-0.2-0.6-0.4-0.9-0.6c-0.3-0.3-0.5-0.5-0.7-0.9c-0.4-0.6-0.7-1.2-1-1.9l-0.1-0.2l0.1-0.1c0.5-0.5,1-1,1.6-1.3
	c0.6-0.4,1.3-0.6,1.9-0.7c0.7,0,1.4,0.2,2,0.6C18.5,14.2,18.9,14.6,19.3,15.1z"/>
<path style="fill:#E2A731;" d="M20.3,17c-0.7-1.2-2.1-1.7-3.4-1.1c-2.3,0.9-3,5.8-3,6v-0.1c0.8-0.8,1.9-1.2,3-1
	c1,0.2,1.9,0.9,2.4,1.8"/>
<path style="fill:#A57631;" d="M20.3,17c-0.5-0.8-1.4-1.2-2.3-1.1c-0.4,0-0.8,0.2-1.2,0.4c-0.2,0.1-0.3,0.2-0.5,0.4
	c-0.1,0.2-0.3,0.3-0.4,0.5c-0.5,0.7-0.9,1.5-1.1,2.4c-0.1,0.4-0.2,0.9-0.3,1.3c0,0.2-0.1,0.4-0.1,0.7l-0.1,0.3c0,0,0,0.1,0,0.1h-0.7
	v-0.3l0.1-0.1c0.4-0.4,0.9-0.7,1.4-0.9c0.3-0.1,0.6-0.2,0.9-0.2c0.3,0,0.6,0,0.9,0.1c0.5,0.2,1,0.4,1.5,0.7c0.4,0.4,0.8,0.8,1,1.3
	c-0.3-0.4-0.7-0.8-1.1-1.1c-0.5-0.3-0.9-0.4-1.5-0.5c-0.2,0-0.5,0-0.7,0c-0.2,0-0.5,0.1-0.7,0.2c-0.4,0.2-0.8,0.5-1.2,0.8l0.1-0.2
	v0.1h-0.7c0-0.1,0-0.1,0-0.2l0.1-0.4c0-0.2,0.1-0.5,0.1-0.7c0.1-0.5,0.2-0.9,0.4-1.4c0.3-0.9,0.7-1.8,1.3-2.6
	c0.1-0.1,0.2-0.2,0.2-0.3c0.1-0.1,0.2-0.2,0.3-0.3c0.6-0.5,1.3-0.7,2.1-0.7c0.5,0,1,0.2,1.4,0.4C19.8,16.2,20.1,16.6,20.3,17z"/>
<path style="fill:#A57631;" d="M20,22.9c1.9,0.9,3.6,2,5.2,3.4c0.8,0.7,1.6,1.4,2.3,2.2c0.4,0.4,0.7,0.8,1,1.2
	c0.2,0.2,0.3,0.4,0.5,0.6s0.3,0.4,0.4,0.6c0.5,0.9,1,1.8,1.5,2.7s1,1.8,1.5,2.7c0.5,0.9,0.9,1.9,1.3,2.8s0.7,1.9,1.1,2.9
	c-0.8-1.9-1.6-3.8-2.6-5.6l-1.5-2.7c-0.5-0.9-1-1.8-1.5-2.7c-1.1-1.7-2.5-3.3-4.1-4.6c-0.8-0.7-1.6-1.3-2.4-1.9
	C21.8,23.9,20.9,23.3,20,22.9z"/>
<path style="fill:#A57631;" d="M25.5,22.1c2.1,0.8,4,2,5.7,3.4c0.4,0.4,0.8,0.8,1.2,1.2c0.2,0.2,0.4,0.4,0.5,0.6l0.5,0.7
	c0.2,0.2,0.3,0.5,0.5,0.7c0.2,0.2,0.3,0.5,0.5,0.7l0.4,0.7l0.2,0.4l0.2,0.4l0.3,0.8c0.1,0.3,0.2,0.5,0.3,0.8l0.5,1.6
	c0.3,1,0.7,2.1,1,3.2s0.6,2.1,0.8,3.2c0.1,0.5,0.2,1.1,0.3,1.6c0.1,0.5,0.1,1.1,0,1.7c0-0.5,0-1.1-0.1-1.6c-0.1-0.5-0.2-1.1-0.4-1.6
	c-0.3-1.1-0.6-2.1-0.9-3.2s-0.7-2.1-1-3.2l-0.5-1.6c-0.1-0.3-0.2-0.5-0.3-0.8l-0.3-0.8c-0.9-2-2.2-3.8-3.8-5.3
	c-0.8-0.7-1.7-1.4-2.6-2C27.5,23.2,26.5,22.6,25.5,22.1z"/>
<path style="fill:#A57631;" d="M23.1,30.3c1.5,1,2.7,2.4,3.7,3.9c0.5,0.8,0.9,1.5,1.4,2.3s0.9,1.6,1.2,2.4c0.7,1.7,1.2,3.4,1.5,5.2
	c0.3,1.8,0.5,3.5,0.6,5.3L31,46.8c-0.1-0.9-0.3-1.8-0.5-2.6c-0.3-1.8-0.8-3.5-1.5-5.1c-0.4-0.8-0.8-1.6-1.2-2.4s-0.8-1.6-1.3-2.3
	c-0.5-0.8-1-1.5-1.5-2.2C24.4,31.5,23.8,30.9,23.1,30.3z"/>
<path style="fill:#A57631;" d="M21.4,36.4c0.8,1,1.5,2,2.1,3.1c0.6,1.1,1.2,2.2,1.6,3.4c0.4,1.2,0.7,2.4,1,3.6
	c0.1,0.6,0.3,1.2,0.4,1.8s0.2,1.2,0.3,1.8c-0.3-1.2-0.6-2.4-1-3.6s-0.7-2.4-1.1-3.5c-0.4-1.2-0.9-2.3-1.5-3.4
	c-0.3-0.5-0.6-1.1-0.9-1.6S21.8,37,21.4,36.4z"/>
<path style="fill:#A57631;" d="M17.8,38.1l1.3,3.1c0.5,1,0.9,2,1.4,3c0.4,1,1,2,1.5,3c0.6,1,1.3,1.8,2.1,2.5c-0.5-0.3-0.9-0.6-1.3-1
	c-0.4-0.4-0.7-0.8-1.1-1.3c-0.6-0.9-1.2-1.9-1.6-3c-0.5-1-0.9-2-1.3-3.1S18.1,39.2,17.8,38.1z"/>
<path style="fill:#A57631;" d="M26.8,22.3c-0.3,0.1-0.7,0.2-1,0.4c-0.3,0.2-0.7,0.3-1,0.6c-0.6,0.4-1.2,0.9-1.8,1.4
	c-0.6,0.5-1.1,1-1.7,1.5s-1.1,1-1.6,1.6c0.2-0.3,0.5-0.6,0.7-0.9s0.5-0.6,0.7-0.9s0.5-0.5,0.8-0.8s0.6-0.5,0.8-0.8
	c0.6-0.5,1.2-1,1.9-1.3C25.3,22.6,26.1,22.4,26.8,22.3z"/>
<path style="fill:#A57631;" d="M31.3,22.6c-0.6,0.4-1.1,0.7-1.7,1.1c-0.5,0.4-1.1,0.8-1.6,1.3c-1,0.9-1.9,1.9-2.6,3
	c-0.7,1.1-1.3,2.4-1.9,3.6c-0.3,0.6-0.6,1.2-0.9,1.8s-0.5,1.2-0.8,1.9c0.4-1.3,0.9-2.6,1.4-3.8c0.5-1.3,1.1-2.5,1.8-3.6
	c0.2-0.3,0.4-0.6,0.6-0.9s0.4-0.5,0.7-0.8c0.5-0.5,1-1,1.5-1.4C29,23.9,30.1,23.2,31.3,22.6z"/>
<path style="fill:#A57631;" d="M30.3,27.9c-0.6,1.6-1.3,3.1-2.1,4.6L27.9,33l-0.3,0.5c-0.2,0.4-0.5,0.7-0.7,1.1s-0.5,0.7-0.7,1
	s-0.5,0.7-0.8,1c-0.3,0.3-0.6,0.6-0.9,0.9c-0.2,0.1-0.3,0.3-0.5,0.4l-0.5,0.4c-0.7,0.5-1.4,0.9-2.1,1.3c-1.4,0.9-3,1.6-4.5,2.2
	c0.8-0.3,1.5-0.7,2.2-1.2s1.5-0.8,2.1-1.3s1.4-0.9,2.1-1.4l0.5-0.4c0.2-0.1,0.3-0.3,0.5-0.4c0.3-0.3,0.6-0.6,0.9-0.9
	c1.1-1.2,2.1-2.6,2.9-4c0.4-0.7,0.8-1.5,1.2-2.2S29.9,28.6,30.3,27.9z"/>
<path style="fill:#A57631;" d="M32.5,36.7c-0.6,1.2-1.4,2.4-2.4,3.3c-0.5,0.5-1,0.9-1.6,1.2c-0.6,0.4-1.2,0.6-1.8,0.8
	c0.6-0.3,1.1-0.7,1.7-1.1c0.5-0.4,1-0.8,1.5-1.3c0.5-0.5,0.9-0.9,1.4-1.4S32.1,37.3,32.5,36.7z"/>
<path style="fill:#A57631;" d="M38.3,35.8C37.8,37,37.2,38,36.4,39c-0.4,0.5-0.8,0.9-1.3,1.3c-0.5,0.4-1,0.7-1.6,0.8
	c0.5-0.3,1-0.7,1.4-1c0.4-0.4,0.8-0.8,1.2-1.3c0.4-0.5,0.8-0.9,1.1-1.4S38,36.3,38.3,35.8z"/>
<path style="fill:#A57631;" d="M40,37.5c-0.5,1.7-1.3,3.2-2.3,4.7c-1,1.5-2.2,2.7-3.6,3.8L32,47.5c-0.7,0.5-1.5,0.9-2.3,1.2
	c-1.7,0.5-3.4,0.9-5.1,1.1l2.5-0.6c0.8-0.2,1.7-0.4,2.5-0.7c0.8-0.3,1.5-0.7,2.2-1.3l2.1-1.5c0.7-0.5,1.3-1.1,1.9-1.7
	c0.6-0.6,1.1-1.3,1.7-2c0.5-0.7,1-1.4,1.4-2.2C39.3,39.1,39.7,38.3,40,37.5z"/>
<path style="fill:#FFFFFF;" d="M23.7,37.1c0,0,1.2-6-1.4-9.4s-4-3.4-5-3s-4.1,1.7-4.1,7.8c0,5.2,3.5,6.5,3.5,6.5
	S18.5,37.2,23.7,37.1z"/>
<path style="fill:#A57631;" d="M23.7,37c0.1-2.7,0-5.5-1-7.9l-0.2-0.4c-0.1-0.1-0.2-0.3-0.3-0.4c-0.2-0.3-0.4-0.6-0.6-0.8
	c-0.4-0.5-0.8-1.1-1.3-1.6c-0.2-0.2-0.5-0.5-0.8-0.6c-0.3-0.2-0.6-0.3-0.9-0.4c-0.6-0.2-1.3-0.1-1.9,0.3c-1.2,0.6-2.1,1.7-2.5,3
	c-0.4,1.3-0.6,2.6-0.6,3.9c0,1.3,0.2,2.6,0.7,3.8c0.3,0.6,0.6,1.1,1,1.6c0.2,0.2,0.4,0.4,0.7,0.6c0.2,0.2,0.5,0.3,0.8,0.5l-0.6,0.1
	c0.1-0.1,0.3-0.2,0.4-0.3l0.4-0.3c0.3-0.2,0.6-0.3,0.9-0.4c0.6-0.2,1.2-0.4,1.8-0.5c0.6-0.1,1.3-0.1,1.9-0.1h0.9H23.7z M23.8,37.1
	c-0.3,0-0.6,0.1-0.9,0.1L22,37.4c-0.6,0.1-1.2,0.3-1.7,0.4c-0.6,0.2-1.1,0.4-1.6,0.6c-0.3,0.1-0.5,0.3-0.7,0.4l-0.3,0.2l-0.1,0.1
	l-0.1,0.1l-0.2,0.3l-0.4-0.1c-0.4-0.1-0.7-0.3-1-0.5c-0.3-0.2-0.6-0.5-0.9-0.7c-0.5-0.5-1-1.2-1.3-1.9C13,35,12.7,33.5,12.8,32
	c0-1.4,0.4-2.9,1-4.2c0.6-1.3,1.6-2.4,2.9-3.1c0.3-0.2,0.7-0.3,1-0.4c0.4-0.1,0.7-0.1,1.1,0c0.7,0.2,1.4,0.5,1.9,1
	c0.6,0.4,1.1,0.9,1.5,1.5c0.5,0.5,0.9,1.2,1.2,1.8c0.6,1.3,0.8,2.8,0.8,4.2c0,0.7-0.1,1.4-0.2,2.1c0,0.3-0.1,0.7-0.2,1l-0.1,0.5
	l-0.1,0.3v0.1V37C23.8,37,23.8,37.1,23.8,37.1L23.8,37.1z"/>
<path style="fill:#8A5C2A;" d="M17.1,29c0.5-1.1,1.3-2,2.4-2.5c1.9-0.9,3.8,2.6,4.1,4.3c0.4,1.4,0.4,2.8,0,4.1
	c-0.1,0.5-0.4,1.1-2,1.6C20.2,37,14.8,35.2,17.1,29z"/>
<path style="fill:#262424;" d="M18.6,28.5c0,0,0.8-1.7,3-0.8s2.1,5.4,1.9,5.9c-0.1,1-0.9,1.9-1.9,2.1C20.1,36.2,16,33.7,18.6,28.5z"
	/>
<path style="fill:#FFFFFF;" d="M29,36.9c0,0-1.9-9.1,2.4-11.3s6.7,1.3,7.3,2.1s2.7,6.6-1.8,9.6C34.3,36.5,31.6,36.4,29,36.9z"/>
<path style="fill:#A57631;" d="M29,37C29,37,29,37,29,37L29,37v-0.1v-0.1l-0.1-0.2L28.7,36c-0.1-0.3-0.1-0.6-0.2-1
	c-0.1-0.7-0.2-1.3-0.3-2c-0.1-1.3,0-2.7,0.3-4c0.2-0.7,0.4-1.3,0.8-1.9c0.4-0.6,0.9-1.1,1.5-1.5c0.1-0.1,0.3-0.2,0.5-0.3l0.5-0.2
	c0.2-0.1,0.3-0.1,0.5-0.2l0.5-0.1c0.7-0.2,1.3-0.2,2-0.1c1.3,0.2,2.6,0.9,3.5,1.9c0.2,0.2,0.5,0.5,0.7,0.7l0.1,0.1l0.1,0.1
	c0.1,0.1,0.1,0.2,0.2,0.2c0.1,0.2,0.2,0.3,0.2,0.5c0.3,0.6,0.5,1.3,0.6,2c0.1,0.7,0.2,1.4,0.2,2.1c0,0.7-0.2,1.4-0.4,2.1
	c-0.2,0.7-0.6,1.3-1,1.9c-0.2,0.3-0.5,0.5-0.7,0.8l-0.8,0.7l-0.2,0.2l-0.3-0.1c-0.6-0.2-1.2-0.3-1.8-0.5c-0.6-0.1-1.3-0.2-1.9-0.3
	S31.7,37,31,37c-0.3,0-0.7,0-1,0h-0.5L29,37z M29.1,36.9c0.4-0.1,0.6-0.2,0.9-0.2s0.7-0.1,1-0.2c0.7-0.1,1.3-0.2,2-0.2
	c0.7,0,1.3,0,2,0.1c0.7,0.1,1.4,0.2,2.1,0.4l-0.5,0.1l0.7-0.6c0.2-0.2,0.4-0.4,0.6-0.7c0.4-0.5,0.7-1,0.9-1.6
	c0.2-0.6,0.3-1.2,0.4-1.8c0.1-0.6,0.1-1.2,0-1.8c-0.1-0.6-0.2-1.2-0.4-1.8c0-0.1-0.1-0.3-0.2-0.4c0-0.1,0-0.1-0.1-0.2v-0.1l-0.1-0.1
	c-0.2-0.3-0.4-0.5-0.6-0.8c-0.4-0.5-0.9-0.9-1.4-1.3c-0.5-0.3-1.1-0.6-1.8-0.6c-1.3-0.1-2.5,0.3-3.5,1.1c-0.9,0.8-1.5,1.9-1.7,3.1
	C29,31.8,28.9,34.3,29.1,36.9L29.1,36.9z"/>
<path style="fill:#8A5C2A;" d="M33.9,25.9c1.9,0.9,3.2,2.8,3.3,4.9c0,2.2-1.9,5.6-4.9,5.1s-3.3-2.1-3.4-3.5c0-1.7,0.3-3.4,1-5
	C30.5,26.1,31.7,24.9,33.9,25.9z"/>
<path style="fill:#262424;" d="M29.7,28.8c0.3-0.8,0.9-1.5,1.6-1.9c1.3-0.7,3.4-0.1,4.2,2.5s-0.8,5.8-3.2,5.9S28.6,33.3,29.7,28.8z"
	/>
<path style="fill:#FFFFFF;" d="M31.9,28c0,0,1-1.1,1.7-0.5s-0.2,1.4-0.5,1.7s-1.3,0.9-1.6,0.3C31.2,28.9,31.4,28.2,31.9,28z"/>
<path style="fill:#FFFFFF;" d="M20,29.2c0,0,0.8-1.3,1.4-0.9s0.2,1,0,1.5s-0.6,1.5-1.5,1.2S20,29.2,20,29.2z"/>
<path style="fill:#FFFFFF;" d="M30.8,32.6c0.2,0,0.5,0.1,0.6,0.3c0.2,0.4,0,0.8-0.3,0.8c-0.3,0.1-0.6-0.1-0.7-0.4
	C30.3,33,30.5,32.7,30.8,32.6C30.8,32.6,30.8,32.6,30.8,32.6z"/>
<path style="fill:#FFFFFF;" d="M19.6,33.3c0.2,0,0.5,0.1,0.6,0.3c0.2,0.4,0,0.8-0.3,0.8c-0.3,0.1-0.6-0.1-0.7-0.4
	C19.1,33.7,19.3,33.4,19.6,33.3C19.6,33.3,19.6,33.3,19.6,33.3z"/>
<path style="fill:#4A3517;" d="M25.1,37.6c0.6-0.1,0.6,1.6,2.1,1.1s0.5-1.8,0.9-2.2c0.1-0.2,0.4,0.1,0.6,0.5c0.4,1,0.5,2.8-1.2,3.2
	C24.3,40.8,24.5,37.8,25.1,37.6z"/>
<path style="fill:#E2A731;" d="M13.4,37.5c0,0,2.6,4.8,6.1,6.2s7.1,2.3,7.1,2.3s-3.6,1.6-5.9,1.3c-2-0.2-3.9-1.3-5.1-2.9"/>
<path style="fill:#A57631;" d="M13.4,37.5c0.8,1.1,1.6,2.1,2.6,3.1c0.9,1,1.9,1.8,3,2.5c0.6,0.3,1.2,0.6,1.8,0.8
	c0.6,0.3,1.3,0.5,1.9,0.7c1.3,0.4,2.6,0.7,3.9,1.1l0.8,0.2l-0.8,0.3c-0.9,0.4-1.9,0.8-2.9,1c-1,0.3-2.1,0.4-3.1,0.3
	c-1.1-0.1-2.1-0.5-3-1.1c-0.4-0.3-0.8-0.6-1.2-1c-0.4-0.4-0.7-0.8-1-1.2h0.1c0.7,0.7,1.5,1.3,2.4,1.8c0.9,0.4,1.8,0.7,2.8,0.8
	c1,0,1.9-0.1,2.9-0.3c1-0.2,1.9-0.5,2.9-0.9v0.6c-1.3-0.5-2.5-1-3.8-1.4c-0.6-0.2-1.3-0.5-1.9-0.7s-1.3-0.4-2-0.6
	c-1.2-0.6-2.3-1.5-3.1-2.7C14.7,39.9,13.9,38.8,13.4,37.5L13.4,37.5z"/>
<path style="fill:#E2A731;" d="M17.9,42.8c0.7-1,1.9-1.6,3.2-1.6c2.2,0.1,5,0.2,10.3,3.2s6.6-0.4,6.6-0.4s-1.8,3.1-4.8,3.2
	c-2.2-0.1-4.4-0.5-6.4-1.4c0,0-3.1-0.8-4.9-1.4C20.5,44.1,19.2,43.5,17.9,42.8z"/>
<path style="fill:#A57631;" d="M17.9,42.8L17.9,42.8L17.9,42.8L17.9,42.8L17.9,42.8l0.1-0.2l0.2-0.3c0.2-0.2,0.3-0.3,0.5-0.5
	c0.4-0.3,0.8-0.5,1.3-0.6c0.5-0.2,1-0.2,1.5-0.3c0.5,0,0.9,0,1.4,0.1c1.9,0.2,3.7,0.7,5.4,1.5c0.8,0.4,1.7,0.9,2.4,1.3
	c0.8,0.5,1.6,0.9,2.4,1.3c0.8,0.3,1.7,0.5,2.6,0.3c0.9-0.2,1.6-0.7,2-1.5l0.4,0.2c-0.5,1-1.3,1.8-2.2,2.4c-0.9,0.7-2,1-3.1,1
	c-1.1,0-2.2-0.1-3.2-0.4c-1-0.2-2-0.6-3-1h0l-2.3-0.7l-2.3-0.7c-0.8-0.2-1.5-0.5-2.2-0.8c-0.4-0.2-0.7-0.4-1-0.5l-0.5-0.3L18.1,43
	L18,42.9L17.9,42.8C17.9,42.9,17.9,42.8,17.9,42.8z M17.9,42.8L17.9,42.8L17.9,42.8l0.2,0.1l0.3,0.1l0.5,0.2l1.1,0.4
	c0.7,0.3,1.5,0.5,2.2,0.7l2.3,0.6l2.3,0.6h0c1,0.4,1.9,0.7,2.9,1c1,0.3,2,0.4,3,0.4c1,0,2-0.3,2.8-0.8c0.9-0.5,1.6-1.2,2.2-2.1
	l0.4,0.2c-0.5,0.9-1.3,1.5-2.3,1.6c-0.9,0.1-1.9,0-2.8-0.3c-0.4-0.2-0.9-0.3-1.3-0.5c-0.4-0.2-0.8-0.4-1.2-0.6
	c-0.8-0.4-1.6-0.8-2.5-1.1c-0.8-0.3-1.7-0.7-2.6-0.9c-0.9-0.3-1.8-0.4-2.6-0.6c-0.5,0-0.9-0.1-1.4-0.1c-0.4-0.1-0.9-0.1-1.3,0
	c-0.4,0.1-0.9,0.2-1.2,0.4c-0.2,0.1-0.4,0.2-0.5,0.4l-0.3,0.2L17.9,42.8L17.9,42.8L17.9,42.8L17.9,42.8L17.9,42.8z"/>
<path style="fill:#E2A731;" d="M27.5,42.5c1.7-1,3.7-1.6,5.7-1.5c3.1,0.2,5,0.6,4.8,3.3c-0.8,1-2.1,1.6-3.5,1.4
	C32.4,45.4,30.5,43.3,27.5,42.5z"/>
<path style="fill:#A57631;" d="M27.5,42.5C27.5,42.5,27.5,42.5,27.5,42.5L27.5,42.5l0.1-0.1l0.2-0.1l0.3-0.2
	c0.2-0.1,0.5-0.3,0.7-0.4c1-0.5,2-0.8,3.1-0.9c0.5-0.1,1.1-0.1,1.6,0c1.1,0.1,2.1,0.4,3.1,0.8c0.5,0.2,1,0.6,1.2,1.2
	c0.2,0.5,0.3,1.1,0.3,1.6v0v0.1c-0.6,0.9-1.6,1.4-2.6,1.6c-0.6,0.1-1.1,0.1-1.7,0c-0.5-0.1-1-0.3-1.4-0.6c-0.9-0.5-1.7-1-2.5-1.5
	c-0.4-0.3-0.8-0.5-1.3-0.7l-0.6-0.3L28,42.8l-0.2-0.1L27.5,42.5z M27.6,42.5h0.4h0.2h0.2c0.2,0.1,0.5,0.1,0.7,0.2
	c0.5,0.2,0.9,0.3,1.4,0.6c0.9,0.4,1.7,0.9,2.6,1.3c0.8,0.4,1.7,0.7,2.6,0.6c0.9-0.1,1.7-0.5,2.3-1.2v0.1c0.1-0.5,0.1-1-0.1-1.5
	c-0.2-0.5-0.5-0.8-1-1c-0.5-0.2-1-0.3-1.5-0.3c-0.5,0-1,0-1.6,0s-1,0-1.5,0c-0.5,0-1,0.1-1.5,0.2c-0.5,0.1-1,0.2-1.5,0.4l-0.8,0.3
	L28,42.3l-0.2,0.1h-0.1l0,0C27.7,42.4,27.6,42.5,27.6,42.5L27.6,42.5z"/>
<path style="fill:#ECC477;" d="M20.9,58.4c0.7-0.7,1.5-1.3,2.4-1.7c0.9-0.4,1.9-0.6,2.9-0.7c1-0.1,2,0,3,0.2c1,0.2,1.9,0.6,2.7,1.2
	C31,57.3,30,57.1,29.1,57c-0.9-0.1-1.8-0.1-2.7,0c-0.9,0.1-1.8,0.2-2.7,0.5C22.7,57.7,21.8,58,20.9,58.4z"/>
<path style="fill:#ECC477;" d="M18.6,42.6c0.6-0.4,1.3-0.7,2-0.8c0.7-0.1,1.4-0.1,2.2,0c0.7,0.1,1.4,0.2,2.1,0.4
	c0.7,0.2,1.4,0.4,2,0.7s1.3,0.5,2,0.8s1.3,0.7,1.9,1c0.3,0.2,0.6,0.4,0.9,0.5c0.3,0.2,0.7,0.3,1,0.4l2,0.8c-0.7-0.1-1.4-0.3-2.1-0.4
	c-0.3-0.1-0.7-0.2-1-0.3c-0.3-0.1-0.7-0.3-1-0.5c-1.2-0.6-2.5-1.2-3.8-1.7c-0.6-0.3-1.3-0.5-2-0.7c-0.7-0.2-1.3-0.4-2-0.5
	c-0.7-0.1-1.4-0.2-2.1-0.2C20,42.2,19.3,42.3,18.6,42.6z"/>
<path style="fill:#ECC477;" d="M14.6,40.4l1.7,1.6c0.5,0.5,1.1,1,1.8,1.4c0.3,0.2,0.7,0.3,1,0.4c0.4,0.2,0.7,0.3,1.1,0.4
	c0.7,0.3,1.4,0.5,2.2,0.8c-0.8,0-1.6-0.1-2.3-0.3c-0.4-0.1-0.8-0.2-1.1-0.3c-0.4-0.1-0.8-0.3-1.1-0.4c-0.7-0.4-1.3-1-1.8-1.6
	C15.3,41.8,14.9,41.1,14.6,40.4z"/>
<path style="fill:#A57631;" d="M17.8,22.3c0,0-0.3-0.7,0.8-1.1c2.6-0.8,5.3-1.2,8-1.1c4.4-0.1,8.3,1.4,8.8,1.9c1,0.9,0.4,1.4,0,1.5
	s-2.8-1.9-8.8-1.7s-7.5,1.3-8,1.4S17.8,22.3,17.8,22.3z"/>
<path style="fill:#E2A731;" d="M30,20.1c0,0,1.1-6.5-4.2-8.4c-4.3-1.6-6,1.7-5.7,4s1,6.2,2.7,7.8c0,0,0.9-6.4,3.3-6.8
	c1.9-0.3,2.8,1,3.1,2.8"/>
<path style="fill:#A57631;" d="M30,20.7c0.1-1.1,0-2.3-0.3-3.4c-0.2-1.1-0.6-2.1-1.3-3.1c-0.6-0.9-1.5-1.6-2.5-2
	c-1-0.4-2-0.6-3.1-0.4c-0.5,0.1-0.9,0.4-1.3,0.7c-0.4,0.4-0.6,0.8-0.8,1.3c-0.2,0.5-0.2,1-0.2,1.5c0,0.2,0,0.5,0.1,0.8
	c0.1,0.3,0.1,0.6,0.1,0.8c0.2,1.1,0.4,2.2,0.8,3.3c0.3,1,0.8,2,1.5,2.8l-0.8,0.3c0.2-1,0.4-2.1,0.7-3.1c0.3-1.1,0.8-2,1.4-2.9
	c0.3-0.5,0.9-0.9,1.5-1c0.6-0.1,1.2,0,1.7,0.2c0.5,0.3,0.9,0.7,1.1,1.2c0.2,0.5,0.3,1,0.4,1.5c-0.1-0.5-0.3-1-0.5-1.5
	c-0.2-0.4-0.6-0.8-1.1-1c-0.5-0.1-1-0.1-1.4,0c-0.4,0.1-0.8,0.4-1.1,0.8c-0.3,0.4-0.5,0.9-0.7,1.4c-0.2,0.5-0.3,1-0.5,1.5
	c-0.3,1-0.5,2-0.6,3l-0.1,0.9l-0.7-0.6c-0.5-0.4-0.8-0.9-1.1-1.5c-0.3-0.5-0.5-1.1-0.7-1.7c-0.4-1.1-0.7-2.3-0.8-3.4
	c0-0.3-0.1-0.6-0.1-0.9c0-0.3-0.1-0.6-0.1-0.9c0-0.6,0.1-1.3,0.3-1.9c0.2-0.6,0.6-1.2,1.1-1.6c0.5-0.5,1.1-0.8,1.8-0.9
	c0.6-0.1,1.3-0.1,1.9,0c0.6,0.1,1.2,0.3,1.8,0.6c1.1,0.5,2.1,1.3,2.7,2.4c0.6,1,1,2.2,1.1,3.4C30.3,18.4,30.2,19.5,30,20.7z"/>
<path style="fill:#ECC477;" d="M29.2,42.4c0.8-0.3,1.5-0.5,2.4-0.6c0.8-0.2,1.6-0.2,2.5-0.2c0.4,0,0.8,0,1.3,0.1
	c0.4,0.1,0.8,0.2,1.2,0.4c0.4,0.2,0.8,0.5,1,0.8c0.2,0.4,0.3,0.8,0.2,1.2c-0.1-0.4-0.3-0.7-0.5-1c-0.3-0.3-0.6-0.4-0.9-0.5
	c-0.4-0.1-0.7-0.2-1.1-0.2c-0.4,0-0.8,0-1.2,0s-0.8,0-1.2,0l-1.2,0.1C30.8,42.4,30,42.5,29.2,42.4z"/>
<path style="fill:#ECC477;" d="M31,14.2c0.3-0.8,0.7-1.6,1.3-2.2c0.6-0.7,1.3-1.2,2.2-1.5c0.2-0.1,0.5-0.1,0.7-0.2
	c0.2,0,0.4-0.1,0.7-0.1c0.4,0,0.8,0,1.3,0c0.8,0.1,1.7,0.3,2.4,0.7c-0.8,0.2-1.6,0.3-2.4,0.4c-0.7,0.1-1.4,0.2-2.1,0.4
	c-0.7,0.3-1.3,0.6-1.9,1C32.4,13.3,31.8,13.8,31,14.2z"/>
<path style="fill:#ECC477;" d="M26.6,15.7c-0.6,0-1.1,0.2-1.6,0.4c-0.5,0.3-0.9,0.6-1.3,1.1c-0.3,0.4-0.6,0.9-0.8,1.5
	c-0.1,0.3-0.1,0.5-0.2,0.8s-0.1,0.6-0.1,0.8l-0.2,1.3l-0.4-1.2c-0.3-0.9-0.6-1.7-0.8-2.6C21,16.9,20.9,15.9,21,15
	c0-0.2,0.1-0.5,0.2-0.7l0.2-0.4l0.2-0.3c0.3-0.4,0.6-0.7,1-1c0.4-0.3,0.8-0.5,1.3-0.5c0.5,0,0.9,0.1,1.3,0.3c-0.4-0.1-0.9-0.1-1.3,0
	c-0.4,0.1-0.8,0.3-1.1,0.6c-0.3,0.3-0.6,0.6-0.8,1l-0.1,0.3l-0.1,0.3c0,0.1,0,0.2-0.1,0.3c0,0.1,0,0.2,0,0.3c0,0.9,0.1,1.7,0.3,2.5
	c0.2,0.9,0.4,1.7,0.7,2.5L22,20.3c0-0.3,0.1-0.6,0.2-0.9s0.2-0.6,0.3-0.9c0.2-0.6,0.6-1.1,1-1.6c0.4-0.5,1-0.8,1.5-1
	C25.5,15.7,26.1,15.6,26.6,15.7z"/>
<path style="fill:#ECC477;" d="M15.1,20c0-0.5,0.1-1,0.3-1.5c0.2-0.5,0.5-0.9,0.8-1.3c0.4-0.4,0.9-0.7,1.4-0.8
	c0.5-0.1,1.1,0,1.5,0.3c-0.5,0-0.9,0.1-1.4,0.3c-0.4,0.2-0.7,0.4-1,0.7c-0.3,0.3-0.6,0.7-0.8,1.1C15.6,19.2,15.4,19.6,15.1,20z"/>
<path style="fill:#ECC477;" d="M13.6,15.5c0.3-0.4,0.6-0.8,1-1.1c0.2-0.2,0.4-0.3,0.7-0.4c0.3-0.1,0.5-0.2,0.8-0.1
	c0.5,0,1,0.1,1.4,0.3c0.5,0.2,0.9,0.5,1.2,0.9c-0.4-0.2-0.9-0.3-1.3-0.4c-0.4-0.1-0.9-0.1-1.3-0.1c-0.4,0-0.8,0.1-1.2,0.3
	C14.5,15.1,14.1,15.3,13.6,15.5z"/>
<path style="fill:#A57631;" d="M41.8,20.2c0,0-1-4.4-5.2-3.3s-4.4,3.5-3.1,3.7s3.4-1.1,4.7-1.3C39.5,19,40.8,19.3,41.8,20.2z"/>
<path style="fill:#ECC477;" d="M26.8,8.3C27.2,8.1,27.6,8,28.1,8c0.5,0,1,0.2,1.4,0.4c0.4,0.3,0.7,0.6,0.9,1
	c0.2,0.4,0.4,0.8,0.5,1.3c-0.3-0.3-0.6-0.6-0.9-0.9c-0.3-0.3-0.6-0.5-0.9-0.8c-0.3-0.2-0.6-0.4-1-0.5C27.6,8.5,27.2,8.4,26.8,8.3z"
	/>
<path style="fill:#ECC477;" d="M31.8,18.8c0.2-1.2,0.8-2.2,1.7-2.9c1-0.7,2.1-1.1,3.3-1.2c0.6-0.1,1.2,0,1.8,0.1
	c0.6,0.1,1.2,0.3,1.7,0.7c0.5,0.4,0.9,0.8,1.2,1.4c0.2,0.5,0.4,1.1,0.4,1.6c-0.3-0.4-0.6-0.9-1-1.3c-0.3-0.3-0.7-0.6-1.1-0.8
	c-0.9-0.3-1.9-0.4-2.8-0.3c-1,0.1-1.9,0.3-2.8,0.7C33.2,17.3,32.4,18,31.8,18.8z"/>
<path style="fill:#ECC477;" d="M22.1,14.5c0.3-0.8,1-1.4,1.8-1.7c0.9-0.2,1.8-0.2,2.6,0.2c0.8,0.3,1.5,0.9,2,1.6
	c0.4,0.7,0.7,1.5,0.8,2.3c-0.3-0.3-0.6-0.5-0.8-0.8c-0.2-0.3-0.5-0.5-0.8-0.7c-0.5-0.4-1.1-0.8-1.7-1C24.7,13.8,23.3,13.9,22.1,14.5
	z"/>
<path style="fill:#ECC477;" d="M26,27.5c-0.7,0.9-1.3,1.9-1.9,2.9c0.1,0.3,0.2,0.6,0.4,0.8c0,0,1.1,1.2,1.1,1.6c0.5,0,1.5-1,2,0.1
	l0.5-0.8c0-0.7,0-1.4,0.1-2.1C27.8,29.2,26.5,27.6,26,27.5z"/>
<path style="fill:#ECC477;" d="M17.8,38.8c0,0-0.6,0.6-0.1,0.5s3.4-1.9,6-1.7c0.7-0.2,0.5-0.6-0.5-0.6
	C21.4,37.5,19.6,38.1,17.8,38.8z"/>
<path style="fill:#ECC477;" d="M29.5,37c0,0-0.4,0.2,0,0.3s6.2,0.1,7.1,0.8c0.4-0.3,0.5-0.6-0.6-0.7S31.9,36.6,29.5,37z"/>
<path style="fill:#ECC477;" d="M28.3,28.8c0.4-1.3,1.2-2.5,2.2-3.4l-0.6-0.5c-0.6,0.5-1.1,1.1-1.6,1.7c-0.2,0.4-0.9,1.3-1.3,1.3
	C27.4,28.2,27.9,28.5,28.3,28.8z"/>
<path style="fill:#ECC477;" d="M21.9,25.5l-0.2,0.3c0,0,2.3,2,2.4,3.7c0.7-1,1.1-1.7,1.1-1.7c-0.5,0-1.1-0.2-1.5-0.6
	C23.2,26.6,22.6,26,21.9,25.5z"/>
<path style="fill:#ECC477;" d="M26.6,26.8c0,0,1.7-2.3,2.4-2.3C29.2,24.8,26.6,26.8,26.6,26.8z"/>
<path style="fill:#ECC477;" d="M23.1,25c0.4,0.5,0.8,0.9,1.3,1.3c0.3,0.3,0.7,0.6,1.1,0.8C24.9,26.2,24.1,25.4,23.1,25z"/>
<path style="fill:#ECC477;" d="M23.5,22.2l-0.1,0.5c0,0,3.6-1.2,11.3,1.5C34,23.7,30.5,21.6,23.5,22.2z"/>
<path style="fill:#ECC477;" d="M24.4,31.7l1.9,2.7C26.2,34.5,26.4,33.2,24.4,31.7z"/>
<path style="fill:#ECC477;" d="M25.7,36.6l1.1-1.4c0,0,0.9,1.7,1.1,2c-0.5-0.4-0.8-0.9-1.1-1.4L25.7,36.6z"/>
<path style="fill:#ECC477;" d="M23.5,24.6c0.8-0.7,1.7-1.3,2.7-1.7c0.7,0.4,1.4,0.9,2.1,1.4L26,23.3L23.5,24.6z"/>
<path style="fill:#ECC477;" d="M30.9,24.6c0.8-0.6,1.7-0.7,2.6-0.4C32.5,24.6,31,25,31,25S30.3,25,30.9,24.6z"/>
<path style="fill:#ECC477;" d="M18.7,24c1-0.1,2,0.2,2.7,0.9c0.1,0.7-0.6,0.1-0.6,0.1C20.2,24.6,19.4,24.2,18.7,24z"/>
<polygon style="fill:#ECC477;" points="32.5,37.5 33.5,40.6 33.9,40.4 "/>
<path style="fill:#ECC477;" d="M35,40.6c0.8-0.6,1.5-1.3,2-2.2c-0.2,0.9-0.6,1.7-1.2,2.4L35,40.6z"/>
<path style="fill:#ECC477;" d="M30.2,40.4c0.1-0.2,1.9-2.2,2.1-2.6c-0.5,1-1.1,2-1.8,2.9L30.2,40.4z"/>
<polygon style="fill:#ECC477;" points="22.5,39.5 23.3,40.6 22.7,38.8 "/>
<polygon style="fill:#ECC477;" points="25.3,47.1 25.9,46.5 26.4,49 "/>
<polygon style="fill:#ECC477;" points="26.4,46.5 26.8,46.5 26.8,48.1 "/>
</svg>
