<?xml version="1.0" encoding="utf-8"?>
<!-- Generator: Adobe Illustrator 22.0.0, SVG Export Plug-In . SVG Version: 6.00 Build 0)  -->
<svg version="1.1" id="Слой_1" xmlns="http://www.w3.org/2000/svg" xmlns:xlink="http://www.w3.org/1999/xlink" x="0px" y="0px"
	 viewBox="0 0 55.8 62.9" style="enable-background:new 0 0 55.8 62.9;" xml:space="preserve">
<title>Artboard 1 копия 22</title>
<g id="Слой_23">
	<path style="fill:#FFFFFF;" d="M21.9,61.3c-0.3,0-0.5-0.2-0.5-0.5c0-0.1,0-0.2,0.1-0.3c1.1-1.4,2.6-2.5,4.4-3v-4.9l-0.5-0.4
		l-0.9-0.7l-0.4-0.4l-0.8-0.8L22.9,50l-0.2-0.2l-0.4-0.4l-0.5-0.7l-0.5-0.7l-0.1-0.1c-0.1,0-0.2,0.1-0.3,0.1h-0.1
		c-0.1,0-0.3,0-0.4-0.1c-0.1,0-0.2-0.1-0.2-0.1c-0.1-0.1-0.3-0.2-0.4-0.3c-0.2-0.2-0.3-0.4-0.5-0.7c0-0.1-0.1-0.2-0.1-0.2v-0.1v-0.1
		c0-0.1-0.1-0.2-0.1-0.3c-0.1-0.5-0.2-1-0.2-1.5c0-0.5,0-1,0.1-1.4l0.1-0.3c0-0.1,0-0.2-0.1-0.2c-0.1-0.3-0.1-0.7-0.2-1
		c-0.4-2.2-0.5-4.5-0.4-6.8c0-0.3,0-0.6,0-1v0c-0.2-0.5-0.3-1-0.3-1.5c0-0.3,0-0.6,0.1-0.8c0.1-0.3,0.1-0.5,0.2-0.8
		c0.1-0.3,0.2-0.5,0.4-0.7l0,0c0.1-0.6,0.2-1.2,0.3-1.8c0.2-1.2,0.5-2.3,0.8-3.3c0.3-1.1,0.7-2.2,1.2-3.2c0.5-1.2,1.1-2.5,1.8-4
		c-0.1-0.2-0.1-0.3-0.1-0.5c0-0.2,0-0.4,0-0.5c0.1-0.3,0.2-0.6,0.3-0.8c0.1-0.2,0.3-0.5,0.5-0.7l0.2-0.2l0.2-0.2l0.1-0.1l0.1-0.2
		l0.1-0.2l0.1-0.2c0.2-0.4,0.4-0.8,0.5-1.2c0.1-0.4,0.3-0.8,0.4-1.3c0.1-0.2,0.1-0.4,0.1-0.6c0-0.3,0.1-0.6,0.3-0.9
		c0.3-0.4,0.6-0.7,1-1l0,0c0-0.1,0-0.1,0-0.2c0-0.1,0-0.3,0.1-0.4l0-0.5c0-0.1,0-0.2,0.1-0.3c0.1-0.2,0.2-0.4,0.4-0.5
		c0.2-0.1,0.4-0.2,0.7-0.2h0.2c0.3,0,0.5,0.2,0.7,0.3c0.1,0.1,0.2,0.3,0.3,0.4c0,0.1,0.1,0.2,0.1,0.3c0,0.1,0,0.3,0,0.4l-0.5,0.2
		h0.5c0,0.2,0,0.4,0.1,0.6l0.1,0.1l0.1,0.1c0.2,0.2,0.3,0.3,0.5,0.5c0.2,0.3,0.3,0.7,0.4,1.1c0,0.2,0.1,0.4,0.1,0.5
		c0,0.1,0,0.2,0,0.3v0.2c0,0.3,0.1,0.5,0.2,0.7c0.1,0.3,0.2,0.6,0.3,0.8c0.2,0.6,0.5,1.1,0.8,1.6l0.1,0.2c0,0.1,0.1,0.2,0.1,0.3
		c0.1,0.2,0.1,0.4,0.2,0.6c0,0.3,0,0.5-0.1,0.8c0,0.1-0.1,0.1-0.1,0.2c0.3,0.6,0.5,1.3,0.6,1.9l1.9,4.9c0.2,0.5,0.3,0.9,0.5,1.3
		c0.7,0.9,1.1,1.9,1.3,2.9c0.3,0.3,0.5,0.6,0.7,1c0.3,0.5,0.6,1.1,0.7,1.7c0.1,0.4,0.1,0.7,0,1.1c-0.1,0.4-0.3,0.7-0.6,1l-0.1,0.1
		v0.1c0,0.3-0.1,0.4-0.1,0.5c0,0.1,0,0.2-0.1,0.3c0,0.1-0.1,0.2-0.1,0.3c-0.1,0.1-0.1,0.2-0.2,0.3L36,34.9L35.9,35
		c0,0.8,0.1,1.6,0.1,2.5c0,0.3,0,0.6,0,0.9c0.2,0.2,0.4,0.5,0.6,0.7c0.2,0.3,0.4,0.6,0.6,1c0.3,0.7,0.4,1.5,0.4,2.3
		c0,0.8-0.2,1.5-0.4,2.3c-0.1,0.4-0.3,0.7-0.5,1.1c-0.1,0.2-0.3,0.4-0.4,0.5l-0.1,0.1L35.7,46l0.3,0.4l-0.2,0.1
		c-0.1,0-0.2,0.1-0.3,0.1h-0.1c-0.1,0.5-0.1,1-0.2,1.4c0,0.1,0,0.2,0,0.2c0.1,0.7,0,1.3-0.2,2c0,0.1-0.1,0.2-0.2,0.3v0.2
		c0,0.2-0.1,0.4-0.1,0.6c0,0.2-0.1,0.4-0.2,0.6v0.2c-0.1,0.5-0.3,1-0.5,1.5L34,53.8l-0.2,0.4l-0.1,0.2c0,0.1-0.1,0.2-0.2,0.2
		c-0.1,0.1-0.1,0.1-0.2,0.2C33.2,54.9,33.1,55,33,55l-0.1,0h-0.1h-0.1l0,0l-0.1,0c-0.1,0-0.2,0.1-0.3,0.1c-0.1,0-0.2,0-0.3,0H32v1.8
		c4.4,0.9,4.4,3.5,4.4,3.6c0,0.3-0.2,0.5-0.5,0.5L21.9,61.3z"/>
	<path style="fill:#FFFFFF;" d="M27.8,7.6h0.1c0.2,0,0.3,0.1,0.5,0.2c0.1,0.1,0.1,0.1,0.1,0.2c0,0.1,0,0.2,0.1,0.2
		c0,0.2,0,0.3,0,0.5c0,0.3,0.1,0.6,0.2,0.9l0,0l0,0c0,0,0,0.1,0.1,0.1l0.1,0.1L29,9.8c0.1,0.1,0.2,0.3,0.3,0.4
		c0.2,0.3,0.3,0.6,0.3,0.9c0,0.2,0,0.3,0,0.5c0,0.1,0,0.2,0,0.2v0.2c0,0.3,0.1,0.6,0.2,0.9c0.1,0.3,0.2,0.6,0.3,0.9
		c0.2,0.6,0.5,1.1,0.8,1.7l0.1,0.2c0,0.1,0.1,0.2,0.1,0.2c0.1,0.2,0.1,0.3,0.1,0.5c0,0.2,0,0.4-0.1,0.5c-0.1,0.1-0.1,0.2-0.2,0.3
		c0.4,0.6,0.6,1.3,0.7,2.1l0.3,0.8l1,2.8l0.5,1.4c0.2,0.5,0.3,0.9,0.5,1.4l0,0c0.7,0.8,1.1,1.9,1.3,2.9c0.3,0.3,0.5,0.6,0.8,1
		c0.3,0.5,0.5,1,0.7,1.5c0.1,0.3,0.1,0.6,0,0.9c-0.1,0.3-0.2,0.6-0.4,0.8C36.1,33,36,33,36,33.1c0,0.1,0,0.2,0,0.3v0.1
		c0,0.2-0.1,0.3-0.1,0.3c0,0.1,0,0.1-0.1,0.2l0,0c0,0.1,0,0.1-0.1,0.2l0,0l-0.1,0.1l0,0l-0.1,0.1l0,0l0,0h-0.1
		c0.1,0.9,0.1,1.8,0.1,2.7c0,0.4,0,0.7,0,1.1l0,0c0.3,0.2,0.5,0.5,0.7,0.8c0.2,0.3,0.4,0.6,0.5,0.9c0.3,0.7,0.4,1.4,0.4,2.1
		c0,0.7-0.2,1.4-0.4,2.1c-0.1,0.3-0.3,0.7-0.5,1c-0.1,0.2-0.2,0.3-0.4,0.4l-0.1,0h-0.1h-0.1h-0.1l-0.1,0.1h-0.2h-0.2h-0.1
		c-0.1,0.6-0.2,1.3-0.3,1.9c0,0.1,0,0.2,0,0.2c0.1,0.7,0,1.5-0.3,2.1c0,0.1-0.1,0.2-0.2,0.4l0,0.3c0,0.2-0.1,0.4-0.1,0.6
		c0,0.2-0.1,0.4-0.2,0.6L34,52c-0.1,0.5-0.3,1-0.5,1.4l-0.1,0.2l-0.1,0.2l-0.1,0.2l-0.1,0.2c0,0.1-0.1,0.1-0.1,0.2
		c0,0.1-0.1,0.1-0.1,0.2c-0.1,0.1-0.1,0.1-0.2,0.2l0,0h-0.1h-0.1l0,0h-0.1h-0.1c-0.1,0-0.2,0-0.2,0.1c-0.1,0-0.2,0-0.2,0h-0.4v2.8
		c4.4,0.7,4.4,3.1,4.4,3.1h-14c1.1-1.5,2.7-2.5,4.5-3v-5.2l0,0l-0.6-0.5l-0.6-0.5c-0.2-0.2-0.4-0.4-0.6-0.5l-0.6-0.6
		c-0.2-0.2-0.4-0.4-0.6-0.6L22.7,49l-0.5-0.7l-0.5-0.7c-0.2-0.2-0.3-0.5-0.5-0.7c-0.2-0.4,0,0.1,0,0.1c0,0.1-0.1,0.1-0.1,0.2
		c0,0-0.1,0.1-0.1,0.1c0,0-0.1,0.1-0.2,0.1h-0.1c-0.1,0-0.1,0-0.2,0l-0.2-0.1c-0.1-0.1-0.2-0.2-0.3-0.3c-0.2-0.2-0.3-0.4-0.4-0.6
		c-0.1-0.1-0.1-0.2-0.1-0.3s-0.1-0.2-0.1-0.3c-0.1-0.4-0.2-0.9-0.2-1.3c0-0.4,0-0.9,0.1-1.3l0.1-0.3c0-0.1,0.1-0.2,0.1-0.3l0,0
		c-0.1-0.4-0.2-0.7-0.2-1.1c-0.4-2.2-0.5-4.4-0.4-6.6c0-0.4,0-0.7,0.1-1.1l0,0c-0.2-0.5-0.3-1-0.3-1.5c0-0.2,0-0.5,0.1-0.7
		c0-0.2,0.1-0.5,0.2-0.7c0.1-0.2,0.2-0.4,0.3-0.7l0.1-0.1c0.1-0.6,0.2-1.2,0.3-1.9c0.2-1.1,0.5-2.2,0.8-3.2c0.3-1.1,0.7-2.1,1.1-3.1
		c0.6-1.4,1.2-2.9,1.9-4.3l-0.1-0.1c-0.1-0.1-0.1-0.3-0.2-0.4c0-0.1,0-0.3,0-0.4c0.1-0.2,0.2-0.5,0.3-0.7c0.1-0.2,0.3-0.4,0.4-0.6
		l0.2-0.3l0.1-0.1l0.1-0.1c0.1-0.1,0.1-0.2,0.2-0.3s0.1-0.2,0.1-0.3c0.2-0.4,0.4-0.8,0.5-1.3c0.1-0.4,0.3-0.9,0.4-1.3
		c0.1-0.2,0.1-0.4,0.1-0.7c0-0.2,0.1-0.5,0.2-0.7c0.2-0.3,0.5-0.6,0.9-0.8l0.1-0.1C27,9.4,27,9.3,27,9.1c0-0.1,0-0.3,0.1-0.5
		s0-0.3,0-0.5c0-0.1,0-0.2,0-0.2c0-0.1,0.1-0.2,0.1-0.2C27.4,7.7,27.6,7.6,27.8,7.6 M27.7,6.7c-0.4,0-0.7,0.1-1,0.3
		c-0.3,0.2-0.5,0.5-0.5,0.8c0,0.1,0,0.2-0.1,0.3c0,0.2,0,0.3,0,0.4v0.1c0,0.1,0,0.2,0,0.4c-0.4,0.3-0.7,0.7-1,1.1
		c-0.2,0.3-0.3,0.6-0.3,1c0,0.2-0.1,0.4-0.1,0.5c-0.1,0.4-0.2,0.8-0.4,1.2c-0.1,0.4-0.3,0.8-0.5,1.2l-0.1,0.2v0.1v0.1l-0.1,0.1
		l-0.1,0.1l-0.1,0.1l-0.1,0.1l-0.2,0.2c-0.2,0.2-0.4,0.5-0.5,0.7c-0.2,0.3-0.3,0.6-0.4,0.9c-0.1,0.2-0.1,0.5,0,0.7
		c0,0.1,0,0.3,0.1,0.4c-0.7,1.4-1.2,2.6-1.7,3.8c-0.5,1.1-0.8,2.1-1.2,3.3c-0.3,1-0.5,2.1-0.8,3.3c-0.1,0.5-0.2,1.1-0.3,1.7
		c-0.1,0.2-0.3,0.5-0.4,0.7c-0.1,0.3-0.2,0.6-0.3,0.9c-0.1,0.3-0.1,0.7-0.1,1c0,0.5,0.1,1.1,0.3,1.6c0,0.3,0,0.6,0,0.9
		c-0.1,2.3,0,4.6,0.5,6.9c0.1,0.3,0.1,0.6,0.2,0.9c0,0.1,0,0.1,0,0.2L18.6,43c-0.1,0.5-0.1,1-0.1,1.5c0,0.5,0.1,1.1,0.3,1.6
		c0,0.1,0.1,0.2,0.1,0.3v0.1v0.1v0.1c0,0.1,0.1,0.2,0.1,0.3c0.1,0.3,0.3,0.5,0.5,0.8c0.1,0.1,0.3,0.3,0.4,0.4l0,0
		c0.1,0.1,0.2,0.1,0.3,0.2c0.2,0.1,0.4,0.1,0.6,0.1H21l0.4,0.5V49l0.5,0.7l0.4,0.5l0.2,0.2l0.4,0.4l0.2,0.2l0.6,0.6l0.4,0.4l0.2,0.2
		l0.2,0.2l0.4,0.4l0.3,0.2v4.3c-1.7,0.6-3.2,1.7-4.3,3.1c-0.3,0.5-0.2,1.1,0.3,1.4c0.2,0.1,0.4,0.2,0.5,0.2h13.9c0.6,0,1-0.4,1-1
		c0-0.1,0-2.9-4.4-4v-1c0.1,0,0.2-0.1,0.3-0.1l0.2-0.1H33l0.1-0.1l0.1-0.1l0,0c0.2-0.1,0.4-0.3,0.5-0.5c0.1-0.1,0.1-0.2,0.2-0.3
		l0.1-0.2v-0.1l0.1-0.2l0.1-0.2v-0.1l0.1-0.2c0.2-0.5,0.4-1,0.5-1.5v-0.2l0,0c0.1-0.2,0.1-0.4,0.2-0.6c0-0.2,0.1-0.4,0.1-0.6v-0.2
		l0.1-0.3c0.3-0.7,0.4-1.4,0.3-2.2c0-0.1,0-0.1,0-0.2c0.1-0.4,0.1-0.7,0.2-1L36,47h0c0.1,0,0.1-0.1,0.2-0.1h0.1l0,0l0.1-0.1
		c0.2-0.2,0.4-0.5,0.6-0.8c0.2-0.4,0.4-0.8,0.6-1.2c0.3-0.8,0.4-1.6,0.5-2.4c0-0.9-0.1-1.7-0.4-2.5c-0.1-0.4-0.3-0.8-0.6-1.2
		c-0.2-0.2-0.3-0.4-0.5-0.6c0-0.2,0-0.5,0-0.7c0-0.7,0-1.5-0.1-2.3l0,0c0.1-0.1,0.1-0.2,0.2-0.3v-0.1c0.1-0.1,0.1-0.2,0.1-0.3v-0.1
		c0-0.1,0.1-0.2,0.1-0.3c0-0.1,0-0.2,0.1-0.4l0,0c0.3-0.4,0.6-0.8,0.7-1.3c0.1-0.4,0.1-0.9,0-1.3c-0.1-0.7-0.4-1.3-0.8-1.9
		c-0.2-0.3-0.4-0.6-0.7-0.9c-0.2-1.1-0.7-2.1-1.3-3c-0.1-0.4-0.3-0.8-0.4-1.2L34,22.7L33,20l-0.2-0.7c0-0.6-0.2-1.3-0.5-1.8
		c0.1-0.3,0.2-0.7,0.1-1c0-0.3-0.1-0.5-0.2-0.8c0-0.1-0.1-0.2-0.2-0.3l-0.1-0.2c-0.3-0.5-0.5-1-0.8-1.6c-0.1-0.3-0.2-0.5-0.3-0.8
		c-0.1-0.2-0.1-0.4-0.1-0.6V12c0-0.1,0-0.2,0-0.3c0-0.2,0-0.4-0.1-0.6c-0.1-0.4-0.2-0.9-0.4-1.3c-0.1-0.2-0.3-0.5-0.5-0.6h0h-0.1
		c0-0.1,0-0.2,0-0.4V8.6c0-0.1,0-0.3,0-0.5c0-0.2-0.1-0.3-0.1-0.4C29.4,7.4,29.2,7.2,29,7c-0.3-0.3-0.6-0.4-1-0.4L27.7,6.7z"/>
	<circle style="fill:none;" cx="30.4" cy="30.2" r="3.4"/>
	<rect x="26.4" y="49.3" style="fill:#385737;" width="5" height="9.4"/>
	<path style="fill:#385737;" d="M21.9,60.8c0,0,2.5-3.7,8.2-3.3s5.7,3.3,5.7,3.3H21.9z"/>
	<path style="fill:#6EAD51;" d="M34.1,59c-0.7-0.4-1.4-0.6-2.2-0.7c-0.5-0.2-1.2-0.1-1.5-0.5s0-2.5,0-3.1c0-0.5,0.4-3.4-0.2-4.9
		c-0.1-0.2-2.3-1.2-2.7,0.6c-0.4,2,0.3,6.7,0.1,7.2c-0.4,0.8-2.1,1.3-2.1,1.3c-0.4,0.1-1.8,0.8-1.7,1.1s1.4,0.3,1.7,0.3
		c1.3,0,2.7-0.1,4-0.1h2.6c0.6,0.1,1.1,0.1,1.7,0.1C34.4,60.3,34.6,59.3,34.1,59z"/>
	<path style="fill:#A3C68B;" d="M24.5,59.4c2.7-1.7,6.1-1.9,9-0.6"/>
	<path style="fill:#6EAD51;" d="M27.3,9.9l-0.1,0.2c-0.8,1.5-5.3,10.4-6.5,14.3c-1.3,4.3-4,18.5,2.8,25.2s9,5,9,5s1.3,0.2,2.4-8.3
		s0.3-16.7-1.1-20.9S28.2,9.3,28.2,9.3h-0.9L27.3,9.9z"/>
	<path style="fill:#385737;" d="M27.3,9.9c-0.5,1-1,2-1.5,3s-1,2-1.4,3c-0.9,2-1.9,4-2.7,6.1c-0.4,1-0.8,2-1.1,3.1
		c-0.3,1.1-0.5,2.1-0.7,3.2c-0.4,2.2-0.6,4.4-0.7,6.6c-0.1,2.2,0.1,4.4,0.5,6.6c0.4,2.2,1.2,4.2,2.3,6.1l0.5,0.7l0.5,0.6l0.6,0.6
		c0.2,0.2,0.4,0.4,0.6,0.6l0.6,0.6c0.2,0.2,0.4,0.4,0.6,0.5l0.6,0.5l0.6,0.5c0.9,0.7,1.8,1.3,2.7,1.8l0.4,0.2c0.1,0,0.2,0.1,0.4,0.2
		l0.4,0.1h0.1h0.1h0.2h0.2h0.2h0.2h0.4c0.1,0,0.1,0,0.2,0h0.2h0.1h0.1h0.1l0,0l0,0c0,0,0.1-0.1,0.1-0.1c0,0,0.1-0.1,0.1-0.1
		c0,0,0.1-0.1,0.1-0.1l0.1-0.2l0.1-0.2l0.1-0.2l0.1-0.2c0.2-0.4,0.3-0.9,0.5-1.4c0.3-0.9,0.4-1.9,0.6-2.8c0.3-1.9,0.6-3.8,0.7-5.8
		c0.3-3.9,0.3-7.8-0.1-11.7c-0.1-0.5-0.1-1-0.2-1.5s-0.1-1-0.2-1.4c-0.2-1-0.4-1.9-0.7-2.8c-0.1-0.5-0.3-0.9-0.5-1.4l-0.5-1.4
		l-0.9-2.8L28.2,9.3h-0.8L27.3,9.9z M27.3,9.9l0.1-0.6h0.9l3.9,11l1,2.8l0.5,1.4c0.2,0.5,0.3,0.9,0.5,1.4c0.3,0.9,0.5,1.9,0.7,2.9
		c0.1,0.5,0.2,1,0.3,1.5s0.1,1,0.2,1.5c0.2,1.9,0.3,3.9,0.3,5.9c0,2-0.1,3.9-0.2,5.9c-0.2,2-0.4,3.9-0.7,5.8c-0.2,1-0.4,1.9-0.6,2.9
		c-0.1,0.5-0.3,1-0.5,1.4l-0.1,0.2l-0.1,0.2L33.3,54l-0.1,0.2c0,0.1-0.1,0.1-0.1,0.2c0,0.1-0.1,0.1-0.1,0.2
		c-0.1,0.1-0.1,0.1-0.2,0.2l0,0h-0.1h-0.1c0,0-0.1,0-0.1,0h0.1l-0.1,0.1h-0.1c-0.1,0-0.2,0-0.2,0.1c-0.1,0-0.2,0-0.2,0h-0.5h-0.2
		h-0.2h-0.2l-0.2,0h-0.1h-0.1L30,54.5c-0.1,0-0.3-0.1-0.4-0.2l-0.4-0.2c-1-0.5-1.9-1.1-2.8-1.8l-0.6-0.5l-0.6-0.5
		c-0.2-0.2-0.4-0.4-0.6-0.5L24,50.2c-0.2-0.2-0.4-0.4-0.6-0.6L22.7,49l-0.5-0.7l-0.5-0.7c-1.2-1.9-2-4-2.4-6.2
		c-0.4-2.2-0.5-4.4-0.4-6.6c0.1-2.2,0.3-4.4,0.8-6.6c0.2-1.1,0.5-2.2,0.8-3.2c0.3-1.1,0.7-2.1,1.1-3.1c0.9-2,1.8-4,2.8-6
		S26.2,11.8,27.3,9.9z"/>
	<path style="fill:#377845;" d="M33.7,25.3c-1-3-3.4-9.8-4.6-13.5h-1.3l-0.6,1.7c0,0-4.1,5.5-4.9,15.2s-0.1,15.4,3.2,20
		c4,5.7,7.3,4.6,7.6,4.3c0.5-0.4,0.8-1,0.9-1.6c0.4-1.7,0.7-3.4,0.9-5.2C35.8,37.7,35.2,29.5,33.7,25.3z"/>
	<path style="fill:#385737;" d="M33.7,25.3l-2.3-6.7l-1.2-3.4c-0.4-1.1-0.8-2.2-1.2-3.4H29h-1.3l0.1-0.1l-0.6,1.7l0,0l0,0
		c-0.4,0.6-0.8,1.3-1.2,2L26,15.8L25.8,16l-0.3,0.5c-0.2,0.4-0.3,0.7-0.5,1.1C24.5,19,24,20.5,23.7,22l-0.1,0.3l-0.1,0.3l-0.1,0.6
		l-0.1,0.6c0,0.2-0.1,0.4-0.1,0.6c-0.1,0.4-0.1,0.8-0.2,1.1l-0.2,1.1c-0.1,0.4-0.1,0.8-0.1,1.1s-0.1,0.8-0.1,1.1
		c0,0.8-0.1,1.5-0.1,2.3c-0.1,1.5-0.1,3.1-0.1,4.6c0,0.4,0,0.8,0,1.2l0.1,1.2l0.1,1.2c0,0.4,0.1,0.8,0.1,1.1c0.2,1.5,0.6,3,1.1,4.4
		c0.5,1.4,1.3,2.8,2.2,4c0.9,1.3,1.9,2.4,3.1,3.3c0.6,0.4,1.3,0.7,2,0.9c0.2,0,0.4,0.1,0.5,0.1c0.2,0,0.4,0,0.5,0
		c0.2,0,0.3-0.1,0.5-0.1h0.1l0,0l0,0l0.2-0.2c0.3-0.3,0.5-0.6,0.6-0.9c0.1-0.2,0.1-0.3,0.2-0.5l0.1-0.6c0.2-0.8,0.3-1.5,0.4-2.3
		c0.3-1.5,0.5-3.1,0.6-4.6c0.1-0.8,0.1-1.5,0.2-2.3s0.1-1.5,0.1-2.3c0-1.5,0-3.1,0-4.6s-0.2-3.1-0.5-4.6
		C34.4,28.4,34.1,26.8,33.7,25.3z M33.7,25.3c0.5,1.5,0.8,3,1.1,4.5c0.2,1.5,0.4,3.1,0.5,4.6s0.1,3.1,0.1,4.7c0,0.8,0,1.5,0,2.3
		s-0.1,1.5-0.1,2.3c-0.1,1.5-0.3,3.1-0.5,4.6c-0.1,0.8-0.2,1.5-0.4,2.3c0,0.2-0.1,0.4-0.1,0.6c0,0.2-0.1,0.4-0.2,0.6
		c-0.2,0.4-0.4,0.7-0.6,1l-0.2,0.2l-0.1,0.1l-0.1,0l-0.2,0.1c-0.2,0.1-0.4,0.1-0.6,0.2c-0.2,0-0.4,0-0.6,0c-0.2,0-0.4,0-0.6-0.1
		c-0.8-0.2-1.5-0.5-2.2-0.9c-0.7-0.4-1.3-0.9-1.9-1.4c-0.6-0.6-1.1-1.2-1.5-1.8c-0.2-0.3-0.5-0.6-0.7-1L24.5,48l-0.1-0.3l-0.3-0.5
		c-0.2-0.3-0.4-0.7-0.5-1s-0.3-0.7-0.5-1.1c-0.6-1.5-0.9-3-1.2-4.6c0-0.4-0.1-0.8-0.1-1.2l-0.1-1.2L21.6,37c0-0.4,0-0.8,0-1.2
		c0-1.6,0-3.1,0.2-4.7c0-0.8,0.1-1.5,0.2-2.3c0-0.4,0.1-0.8,0.1-1.2s0.1-0.8,0.2-1.2l0.2-1.1c0.1-0.4,0.2-0.8,0.2-1.1
		c0-0.2,0.1-0.4,0.1-0.6l0.1-0.6l0.1-0.6l0.1-0.3l0.1-0.3c0.4-1.5,1-3,1.6-4.4c0.2-0.4,0.3-0.7,0.5-1.1l0.3-0.5l0.1-0.3l0.1-0.3
		c0.4-0.7,0.8-1.4,1.2-2l0,0l0.6-1.7v-0.1h1.4l0,0c0.4,1.1,0.7,2.3,1.1,3.4l1.1,3.4L33.7,25.3z"/>
	<circle style="fill:#89B96A;" cx="28.8" cy="39.8" r="6"/>
	<path style="fill:#385737;" d="M34.7,39.8c0,3.4-2.6,6.1-6,6.2c-1.6,0-3.1-0.6-4.3-1.7c-0.6-0.6-1.1-1.2-1.4-2
		c-0.6-1.5-0.7-3.2,0-4.7c1.3-3.1,4.8-4.6,7.9-3.4C33.2,35.1,34.7,37.3,34.7,39.8L34.7,39.8z M34.7,39.8c0-0.8-0.2-1.6-0.5-2.3
		c-1.3-2.9-4.7-4.3-7.7-3c-0.7,0.3-1.4,0.8-1.9,1.3c-2.2,2.3-2.1,6,0.2,8.3c2.3,2.2,6,2.1,8.3-0.2c0.5-0.6,0.9-1.2,1.2-1.9
		C34.6,41.3,34.7,40.5,34.7,39.8z"/>
	<path style="fill:#385737;" d="M23.4,41.9c-0.5,0.6-0.9,1.3-1.2,2.1c-0.6,1.4-1.1,3-1.1,3l-0.3-3.8l1.8-2.6l1,1L23.4,41.9z"/>
	<path style="fill:#A3C68B;" d="M29.9,43c0.2-0.5,0.1-1-0.1-1.5c-0.4-0.5-1.3,0-1.3,0s-0.5,0.3-0.2,1.4S29.8,43.3,29.9,43z"/>
	<path style="fill:#A3C68B;" d="M25.5,40.8c0,0-0.1-0.7-0.5-0.9s-0.7,0.4-0.7,0.4s-0.2,0.3,0.3,0.9S25.5,41,25.5,40.8z"/>
	<ellipse style="fill:#377845;" cx="29.3" cy="42.5" rx="0.6" ry="0.8"/>
	<path style="fill:#385737;" d="M29.9,42.5c0,0.2,0,0.4-0.1,0.5c-0.1,0.2-0.3,0.3-0.5,0.3c-0.2,0-0.4-0.1-0.5-0.3
		c-0.2-0.3-0.2-0.8,0-1.1c0.1-0.2,0.3-0.3,0.5-0.3c0.2,0,0.4,0.1,0.5,0.3C29.8,42.1,29.9,42.3,29.9,42.5z M29.9,42.5
		c0-0.2,0-0.4-0.1-0.5c-0.1-0.2-0.2-0.3-0.4-0.3c-0.2,0-0.3,0.1-0.4,0.3c-0.2,0.3-0.2,0.7,0,1c0.1,0.2,0.2,0.3,0.4,0.3
		c0.2,0,0.3-0.1,0.4-0.3C29.8,42.8,29.9,42.7,29.9,42.5z"/>
	<path style="fill:#385737;" d="M28.9,41.5c-0.2,0-0.3,0.2-0.4,0.3c0,0.1-0.1,0.2-0.1,0.2c0,0,0,0.1,0,0.1c0,0,0,0.1,0,0.1
		c0,0,0-0.1,0-0.1c0,0,0-0.1,0-0.1c0-0.1,0-0.2,0-0.3c0-0.1,0.1-0.2,0.2-0.2C28.8,41.5,28.9,41.5,28.9,41.5z"/>
	<path style="fill:#A3C68B;" d="M26.3,35.3c-0.8,1.2-1,2.8-0.5,4.2c0.7,1.2,2,1.9,3.4,1.7L27,34.5L26.3,35.3z"/>
	
		<ellipse transform="matrix(0.9999 -1.448573e-02 1.448573e-02 0.9999 -0.5514 0.423)" style="fill:#FFFFFF;" cx="28.9" cy="38.3" rx="2.6" ry="2.8"/>
	<path style="fill:#385737;" d="M26.3,38.3c0-0.7,0.2-1.4,0.7-2c0.2-0.3,0.5-0.5,0.9-0.7c0.3-0.2,0.7-0.3,1.1-0.3
		c0.8,0,1.5,0.3,2,0.8c0.3,0.3,0.5,0.6,0.6,0.9c0.3,0.7,0.3,1.5,0,2.2c-0.1,0.4-0.3,0.7-0.6,1c-0.5,0.6-1.2,0.9-2,0.9
		c-0.4,0-0.7-0.1-1.1-0.2c-0.3-0.2-0.6-0.4-0.9-0.7C26.5,39.8,26.3,39,26.3,38.3z M26.3,38.3c0,0.3,0.1,0.7,0.2,1
		c0.1,0.3,0.3,0.6,0.6,0.9c0.5,0.5,1.2,0.8,1.9,0.8c0.3,0,0.7-0.1,1-0.3c0.3-0.2,0.6-0.4,0.8-0.6c0.9-1.1,0.9-2.7,0-3.8
		c-0.2-0.3-0.5-0.5-0.8-0.6c-0.3-0.1-0.7-0.2-1-0.2c-0.7,0-1.4,0.3-1.9,0.8c-0.2,0.3-0.4,0.6-0.5,0.9C26.4,37.6,26.3,37.9,26.3,38.3
		z"/>
	<path style="fill:#6EAD51;" d="M29.3,39.1c-0.4,0.2-0.8,0-1-0.3c0,0,0-0.1,0-0.1c-0.2-0.5,0-1,0.4-1.2c0.4-0.2,0.8,0,1,0.3
		c0,0,0,0.1,0,0.1C29.8,38.3,29.7,38.8,29.3,39.1z"/>
	<path style="fill:#1E1D21;" d="M29.2,39c-0.4,0.2-0.8,0-1-0.3c0,0,0-0.1,0-0.1c-0.2-0.4,0-0.9,0.4-1.1c0.4-0.2,0.8,0,1,0.3
		c0,0,0,0.1,0,0.1C29.8,38.3,29.6,38.8,29.2,39z"/>
	<path style="fill:#FFFFFF;" d="M28.9,37.8c-0.1,0.1-0.3,0.1-0.4-0.1c0,0,0,0,0,0c-0.1-0.1,0-0.3,0.1-0.4c0.1-0.1,0.3-0.1,0.4,0.1
		c0,0,0,0,0,0C29.1,37.5,29,37.7,28.9,37.8z"/>
	<path style="fill:#FFFFFF;" d="M29.4,39c0,0.2,0,0.3-0.1,0.4S29,39.3,29,39.1s0-0.3,0.1-0.4S29.4,38.8,29.4,39z"/>
	<path style="fill:#FFFFFF;" d="M29,38.2c0,0-0.1,0.1-0.2,0c0,0,0,0,0,0c0-0.1,0-0.2,0-0.2c0,0,0.1-0.1,0.2,0c0,0,0,0,0,0
		C29.1,38,29.1,38.1,29,38.2z"/>
	<path style="fill:#6EAD51;" d="M34.3,40.5c0.6,0.4,1,1,1,1.7c0.1,1,0,2.1-0.3,3.1c-0.2,0.2-0.3,1.1,0.6,0.6s2.9-5.5-1.1-7.9
		c-0.7-0.4-0.8-0.5-0.8-0.5"/>
	<path style="fill:#385737;" d="M34.3,40.5c0.3,0.2,0.6,0.4,0.8,0.7c0.1,0.2,0.2,0.3,0.2,0.5c0.1,0.2,0.1,0.3,0.1,0.5
		c0.1,0.7,0.1,1.4,0,2.1c0,0.2,0,0.3-0.1,0.5c0,0.1,0,0.2-0.1,0.3c0,0,0,0.1-0.1,0.1l-0.1,0.1l0,0l0,0c0,0.1,0,0.2,0,0.3
		c0,0,0,0.1,0.1,0.1h0.1h0.1h0.1l0.1,0l0,0l0,0c0.1-0.1,0.2-0.2,0.3-0.4c0.2-0.3,0.3-0.6,0.4-0.9c0.2-0.6,0.4-1.3,0.4-2
		c0-0.3,0-0.7,0-1c0-0.3-0.1-0.7-0.2-1c-0.1-0.3-0.3-0.6-0.4-0.9c-0.2-0.3-0.4-0.6-0.6-0.8l-0.2-0.2L35,38.4
		c-0.1-0.1-0.3-0.2-0.4-0.3s-0.3-0.2-0.4-0.3l-0.4-0.3c0.3,0.2,0.6,0.3,0.9,0.5c0.2,0.1,0.3,0.2,0.5,0.3l0.2,0.2l0.2,0.2
		c0.3,0.2,0.5,0.5,0.7,0.8c0.2,0.3,0.4,0.6,0.5,0.9c0.3,0.7,0.4,1.4,0.4,2.1c0,0.7-0.2,1.4-0.4,2.1c-0.1,0.3-0.3,0.7-0.5,1
		c-0.1,0.2-0.2,0.3-0.4,0.4l-0.1,0h-0.1h-0.1h-0.1l-0.1,0.1h-0.2c-0.1,0-0.1,0-0.2,0c-0.1,0-0.1,0-0.2,0c-0.1-0.1-0.2-0.2-0.3-0.3
		c0-0.1,0-0.2,0-0.3c0-0.1,0.1-0.2,0.1-0.3l0,0l0,0l0,0c0,0,0-0.1,0-0.1c0-0.1,0-0.2,0.1-0.2s0.1-0.3,0.1-0.5c0.1-0.3,0.1-0.7,0.1-1
		c0-0.3,0-0.7,0-1c0-0.2,0-0.3-0.1-0.5c0-0.2-0.1-0.3-0.2-0.5c-0.1-0.2-0.2-0.3-0.3-0.4C34.6,40.7,34.5,40.6,34.3,40.5z"/>
	<path style="fill:#89B96A;" d="M23.4,38.2c0,0-3.2,2.1-3.7,4.6s0.4,4,0.9,4.3c0.3,0.2,0.4,0.2,0.5-0.3c0.1-0.3,0.1-0.8,0.2-1.5
		c0.2-1.6,0.9-3,2-4.2C23.6,40.9,23.4,38.2,23.4,38.2z"/>
	<path style="fill:#385737;" d="M23.4,38.2c-0.4,0.3-0.7,0.5-1,0.8s-0.6,0.6-0.9,0.9c-0.1,0.2-0.3,0.3-0.4,0.5l-0.2,0.3l-0.2,0.3
		c-0.1,0.2-0.2,0.4-0.3,0.5s-0.1,0.2-0.1,0.3c0,0.1-0.1,0.2-0.1,0.3c-0.3,0.8-0.4,1.6-0.4,2.5c0,0.4,0.1,0.8,0.2,1.2
		c0,0.1,0.1,0.2,0.1,0.3s0.1,0.2,0.1,0.3c0.1,0.2,0.2,0.3,0.3,0.5c0.1,0.1,0.1,0.1,0.2,0.2l0.1,0.1l0,0l0,0l0,0c0,0,0-0.1,0-0.1
		c0-0.1,0.1-0.2,0.1-0.3c0.1-0.4,0.1-0.8,0.1-1.3c0-0.4,0.1-0.9,0.3-1.3c0.1-0.4,0.3-0.8,0.5-1.2c0.2-0.4,0.4-0.8,0.7-1.1
		c0.1-0.2,0.3-0.4,0.4-0.5c0,0,0.1-0.1,0.1-0.1l0.1,0l0,0l0,0c0-0.1,0.1-0.2,0.1-0.3c0.1-0.4,0.1-0.8,0.1-1.3
		C23.4,39,23.4,38.6,23.4,38.2z M23.4,38.2c0,0.4,0.1,0.9,0.1,1.3c0,0.4,0,0.9,0,1.3c0,0.1-0.1,0.2-0.1,0.3l0,0h0h-0.1
		c0,0-0.1,0.1-0.1,0.1c-0.1,0.2-0.3,0.3-0.4,0.5c-0.3,0.4-0.5,0.8-0.7,1.3c-0.4,0.8-0.6,1.6-0.7,2.4c0,0.4-0.1,0.9-0.1,1.3
		c0,0.1,0,0.2-0.1,0.3c0,0.1-0.1,0.1-0.1,0.2c0,0-0.1,0.1-0.1,0.1c0,0-0.1,0.1-0.2,0.1c-0.1,0-0.2,0-0.3,0l-0.2-0.1
		c-0.1-0.1-0.2-0.2-0.3-0.3c-0.2-0.2-0.3-0.4-0.4-0.6c-0.1-0.1-0.1-0.2-0.1-0.3s-0.1-0.2-0.1-0.3c-0.1-0.4-0.2-0.9-0.2-1.3
		c0-0.4,0-0.9,0.1-1.3l0.1-0.3c0-0.1,0.1-0.2,0.1-0.3v-0.2v-0.1v-0.1l0.1-0.3c0-0.1,0.1-0.2,0.1-0.3c0-0.1,0.1-0.2,0.2-0.3
		s0.2-0.4,0.4-0.5l0.2-0.3l0.2-0.3l0.2-0.2l0.2-0.2C21.9,39.2,22.6,38.6,23.4,38.2z"/>
	<path style="fill:#6EAD51;" d="M26.4,45.4c-0.4,2.1,0.9,4.1,2.9,4.7c3.6,1.1,5.9-2,4.4-4.2S27.3,42.5,26.4,45.4z"/>
	<path style="fill:#6EAD51;" d="M35,28.5c0,0,3.5,3.9,0.1,5c-1.1,0.3-1.8,0.5-1.1,0C35.5,32.4,35,28.5,35,28.5z"/>
	<path style="fill:#385737;" d="M35,28.5c0.4,0.4,0.7,0.8,1,1.3c0.3,0.5,0.5,1,0.7,1.5c0.1,0.3,0.1,0.6,0,0.9
		c-0.1,0.3-0.2,0.6-0.4,0.8c-0.2,0.2-0.5,0.4-0.7,0.5l-0.4,0.2l-0.4,0.1l-0.4,0.1c-0.1,0-0.3,0.1-0.5,0.1h-0.2l0,0l0,0l0,0v-0.1
		c0,0,0,0,0-0.1c0,0,0,0,0-0.1c0,0,0-0.1,0-0.1c0,0,0.1-0.1,0.1-0.1l0.1-0.1l0.2-0.1l0.1-0.1l0.1-0.1c0.2-0.2,0.3-0.4,0.4-0.6
		c0.1-0.2,0.2-0.5,0.3-0.8c0.1-0.6,0.1-1.1,0.1-1.7C35,29.6,35.1,29.1,35,28.5z M35,28.5c0.1,0.5,0.2,1.1,0.2,1.6
		c0,0.6,0,1.1-0.1,1.7c0,0.3-0.1,0.6-0.2,0.8c-0.1,0.3-0.3,0.5-0.5,0.8l-0.1,0.1l-0.1,0.1L34,33.7l-0.1,0.1l0,0l0,0l0,0l0,0l0,0
		c0.1,0,0.2,0,0.4,0l0.4-0.1l0.4-0.1l0.4-0.1c0.2-0.1,0.4-0.2,0.6-0.4c0.2-0.2,0.3-0.4,0.4-0.6c0-0.2,0-0.5,0-0.8
		c-0.1-0.5-0.3-1-0.5-1.5C35.6,29.5,35.3,29,35,28.5z"/>
	<polygon style="fill:#89B96A;" points="22.8,33.5 23.6,31.2 22,27.9 20.5,29.8 20.5,33.3 	"/>
	<path style="fill:#89B96A;" d="M21.8,28c1-2.7,3.5-4.5,6.3-4.6c3.6-0.2,6.8,2.5,7,6.1c0,3.6-2.9,6.6-6.6,6.6
		c-2.3,0.1-4.5-0.9-5.9-2.8"/>
	<path style="fill:#A3C68B;" d="M23.6,28.5c0,0-0.4,1.6,1.2,1.4S25.8,26.4,23.6,28.5z"/>
	<path style="fill:#A3C68B;" d="M32.3,28.5c0,0-0.3,1.3,1,1.1S34,26.8,32.3,28.5z"/>
	
		<ellipse transform="matrix(0.9994 -3.594604e-02 3.594604e-02 0.9994 -0.9542 1.0414)" style="fill:#FFFFFF;" cx="28.5" cy="27.1" rx="3.2" ry="2.6"/>
	<path style="fill:#385737;" d="M25.3,27.2c0-0.4,0.1-0.8,0.2-1.1c0.2-0.3,0.4-0.7,0.7-0.9c0.6-0.5,1.4-0.8,2.1-0.9
		c0.8-0.1,1.6,0.1,2.3,0.6c0.3,0.2,0.6,0.5,0.9,0.9c0.5,0.7,0.5,1.6,0.1,2.4c-0.2,0.4-0.5,0.7-0.8,0.9c-0.6,0.5-1.4,0.7-2.2,0.7
		c-0.8,0-1.6-0.2-2.2-0.7c-0.3-0.2-0.6-0.5-0.8-0.9C25.4,27.9,25.3,27.6,25.3,27.2z M25.3,27.2c0,0.4,0.1,0.8,0.3,1.1
		c0.2,0.3,0.5,0.6,0.8,0.8c0.6,0.4,1.4,0.6,2.2,0.5c0.7-0.1,1.4-0.3,2-0.8c1-0.7,1.2-2.1,0.4-3.1c-0.2-0.2-0.3-0.4-0.6-0.5
		c-0.6-0.4-1.3-0.7-2.1-0.7c-0.8,0-1.5,0.2-2.1,0.7c-0.3,0.2-0.6,0.5-0.7,0.9C25.4,26.4,25.3,26.8,25.3,27.2z"/>
	
		<ellipse transform="matrix(0.1302 -0.9915 0.9915 0.1302 -1.8989 51.2733)" style="fill:#6EAD51;" cx="28.3" cy="26.7" rx="1.6" ry="1.8"/>
	
		<ellipse transform="matrix(0.1297 -0.9916 0.9916 0.1297 -1.8415 51.1441)" style="fill:#1E1D21;" cx="28.2" cy="26.6" rx="1.5" ry="1.7"/>
	<circle style="fill:#FFFFFF;" cx="26.9" cy="26.2" r="0.6"/>
	
		<ellipse transform="matrix(0.3102 -0.9507 0.9507 0.3102 -5.037 47.0518)" style="fill:#FFFFFF;" cx="29.9" cy="27" rx="0.4" ry="0.6"/>
	<circle style="fill:#FFFFFF;" cx="28" cy="26.4" r="0.3"/>
	<path style="fill:#385737;" d="M24,28.2c-0.1,0.1-0.2,0.3-0.2,0.4c-0.1,0.1-0.1,0.2,0,0.3c0,0.1,0.1,0.2,0.2,0.3
		c0.1,0.1,0.2,0.2,0.4,0.3c-0.1,0.1-0.2,0.1-0.3,0.1c-0.1,0-0.2,0-0.3-0.1c-0.1-0.1-0.2-0.1-0.2-0.2c-0.1-0.1-0.1-0.2-0.1-0.3
		c0-0.1,0-0.2,0-0.3c0-0.1,0.1-0.2,0.2-0.3C23.6,28.3,23.8,28.2,24,28.2z"/>
	<path style="fill:#CE3638;" d="M27.5,30.9c0,0,0.1,1.3,1,1.3s1.6-0.5,1.4-1.4c-0.9,0-2.5-0.1-2.5-0.1L27.5,30.9z"/>
	<path style="fill:#99242C;" d="M27.5,30.9c0,0.3,0.2,0.7,0.4,1c0.1,0.1,0.2,0.2,0.4,0.3c0.2,0,0.3,0,0.5,0c0.3,0,0.6-0.2,0.9-0.4
		c0.1-0.1,0.2-0.3,0.2-0.4c0-0.2,0-0.3,0-0.5h0.1h-1.2l-1.2-0.1l0,0L27.5,30.9z M27.5,30.9l-0.1-0.2h1.2h1.2h0l0,0
		c0,0.2,0,0.4,0,0.5c0,0.2-0.1,0.4-0.2,0.5c-0.3,0.3-0.6,0.4-1,0.5h-0.4h-0.1c-0.2-0.1-0.3-0.2-0.4-0.3c-0.1-0.1-0.2-0.3-0.2-0.5
		C27.5,31.2,27.5,31.1,27.5,30.9z"/>
	<path style="fill:#D5654D;" d="M27.6,30.7c-0.1,0.4,0.1,0.9,0.4,1.2c0.5,0.4,0.4-0.7,0.4-0.7v-0.5L27.6,30.7z"/>
	<path style="fill:#385737;" d="M24.9,30c0.1,0.1,0.1,0.1,0.2,0.2c0.1,0.1,0.2,0.1,0.3,0.1c0.2,0.1,0.4,0.1,0.5,0.2
		c0.2,0,0.4,0,0.6,0H27h1.2h1.2c0.4,0,0.8,0,1.2,0h0.3l0.3-0.1c0.2,0,0.4-0.1,0.5-0.2c0.3-0.2,0.6-0.4,0.8-0.7
		c0.2-0.3,0.4-0.6,0.6-1c-0.1,0.4-0.2,0.8-0.4,1.1c-0.2,0.4-0.5,0.7-0.9,0.9c-0.2,0.1-0.4,0.2-0.6,0.3l-0.3,0.1
		c-0.1,0-0.2,0-0.3,0.1c-0.4,0-0.8,0-1.2,0c-0.8,0-1.6,0-2.4-0.1h-0.6c-0.2,0-0.4,0-0.6-0.1c-0.2-0.1-0.4-0.1-0.6-0.3
		C25,30.4,24.9,30.2,24.9,30z"/>
	<path style="fill:#89B96A;" d="M21.9,27.8c0,0-3.4,1.8-3,4.8s3.2,2.9,3.3,2.7c0.1-0.1,0.1-0.2,0-0.3c0,0,0.6,0,0.6-0.2
		c0-0.1,0-0.2,0-0.3c0,0,0.5,0.1,0.6,0c0.2-0.1,0.2-0.4,0-0.5c0,0,0,0,0,0c-0.8-0.4-1.4-1-1.9-1.8c-0.8-1.3,0.1-1.6,0.1-1.6"/>
	<path style="fill:#385737;" d="M21.9,27.8c-0.4,0.3-0.8,0.5-1.1,0.9c-0.3,0.3-0.6,0.6-0.9,1c-0.3,0.4-0.5,0.8-0.6,1.2
		c-0.1,0.4-0.2,0.9-0.2,1.3c0,0.4,0.1,0.9,0.3,1.3c0.1,0.2,0.2,0.4,0.3,0.6c0.1,0.2,0.3,0.3,0.4,0.5c0.3,0.3,0.7,0.5,1.1,0.6
		c0.2,0.1,0.4,0.1,0.6,0.1H22l0,0l0,0l0,0v-0.1l0,0l0,0l0.2-0.4h0.2h0.2l0,0l0,0l0,0l0,0l0,0l0,0c0,0,0,0,0-0.1l0,0l0,0l0.3-0.3
		c0.1,0,0.2,0,0.3,0h0.1l0,0c0,0,0,0,0-0.1c0,0,0,0,0-0.1c0,0,0-0.1-0.1-0.1l0-0.1c-0.2-0.1-0.4-0.3-0.6-0.4
		c-0.2-0.2-0.4-0.3-0.5-0.5c-0.3-0.4-0.6-0.8-0.8-1.2c-0.1-0.2-0.1-0.5-0.1-0.7c0-0.1,0.1-0.2,0.2-0.3c0.1-0.1,0.2-0.2,0.3-0.2
		c-0.1,0.1-0.2,0.1-0.3,0.2c-0.1,0.1-0.1,0.2-0.1,0.3c0,0.2,0.1,0.5,0.2,0.6c0.2,0.4,0.5,0.8,0.8,1.1c0.2,0.2,0.3,0.3,0.5,0.4
		c0.2,0.1,0.4,0.2,0.6,0.4l0.1,0.1l0.1,0.1c0.1,0.1,0.1,0.1,0.1,0.2c0,0.1,0.1,0.2,0,0.3c0,0.1,0,0.2-0.1,0.3l-0.1,0.1l0,0l0,0l0,0
		h-0.1c-0.1,0-0.2,0.1-0.3,0c-0.1,0-0.3,0-0.4-0.1l0.3-0.3c0,0,0,0.1,0,0.1c0,0,0,0.1,0,0.1c0,0.1,0,0.1,0,0.2v0.1L23,35l-0.1,0.1
		c-0.1,0-0.1,0.1-0.2,0.1c-0.1,0-0.2,0.1-0.3,0.1h-0.3l0.2-0.4l0,0l0,0l0,0v0.1c0,0.1,0,0.1,0,0.2c0,0,0,0.1,0,0.1v0.1l0,0l0,0l0,0
		l0,0l0,0l0,0l0,0l0,0l0,0l0,0h-0.1h-0.2c-0.3,0-0.5,0-0.8-0.1c-0.5-0.1-1-0.3-1.4-0.7c-0.2-0.2-0.4-0.4-0.5-0.6
		c-0.1-0.2-0.3-0.4-0.3-0.7c-0.2-0.5-0.3-1-0.3-1.5c0-0.2,0-0.5,0.1-0.7c0-0.2,0.1-0.5,0.2-0.7c0.1-0.2,0.2-0.4,0.3-0.7
		c0.1-0.2,0.3-0.4,0.4-0.6c0.3-0.4,0.6-0.7,1-1C21.2,28,21.6,27.9,21.9,27.8z"/>
	<path style="fill:#385737;" d="M21.4,34.3c0.1,0,0.2,0.1,0.3,0.1l0.3,0.2l0.2,0.2l0.2,0.3c-0.1,0-0.3,0-0.4,0
		c-0.1,0-0.2-0.1-0.3-0.2c-0.1-0.1-0.2-0.2-0.2-0.3C21.5,34.6,21.4,34.5,21.4,34.3z"/>
	<path style="fill:#385737;" d="M21.9,33.9c0.1,0,0.3,0.1,0.4,0.1c0.1,0.1,0.2,0.1,0.3,0.2l0.3,0.2h0.1H23c0.1,0,0.1,0.1,0.2,0.1
		c-0.1,0-0.1,0-0.2,0.1h-0.1h-0.1c-0.1,0-0.3-0.1-0.4-0.2c-0.1-0.1-0.2-0.2-0.3-0.3C22,34.1,22,34,21.9,33.9z"/>
	<path style="fill:#385737;" d="M21.8,28c0.5-1.4,1.4-2.7,2.7-3.5c1.3-0.8,2.8-1.3,4.3-1.2c1.5,0.1,3,0.6,4.2,1.6
		c1.2,1,2,2.4,2.3,3.9c0.2,1.5-0.1,3.1-0.9,4.4c-0.8,1.3-2.1,2.3-3.5,2.8c-0.4,0.1-0.7,0.2-1.1,0.3c-0.4,0.1-0.8,0.1-1.1,0.1
		c-0.8,0-1.5-0.1-2.2-0.3c-0.7-0.2-1.4-0.6-2-1c-0.6-0.4-1.1-1-1.5-1.6c0.4,0.6,0.9,1.1,1.5,1.5c0.6,0.4,1.3,0.7,2,0.9
		c1.4,0.4,2.9,0.3,4.3-0.2c1.4-0.5,2.5-1.4,3.3-2.7c0.8-1.2,1.1-2.7,0.9-4.1c-0.2-1.4-1-2.7-2.1-3.7c-1.1-0.9-2.5-1.5-4-1.6
		c-1.5-0.1-2.9,0.2-4.2,1c-0.6,0.4-1.2,0.9-1.7,1.4C22.4,26.6,22.1,27.3,21.8,28z"/>
	<ellipse style="fill:#89B96A;" cx="27.8" cy="19.6" rx="3.8" ry="3.9"/>
	<path style="fill:#385737;" d="M24,19.6c0-1,0.4-2,1.1-2.8c0.7-0.8,1.7-1.2,2.7-1.3c0.5,0,1,0.1,1.5,0.3c0.5,0.2,0.9,0.5,1.3,0.9
		c0.7,0.8,1.2,1.8,1.2,2.9c0,1.1-0.4,2.1-1.1,2.9c-0.4,0.4-0.8,0.7-1.3,0.9c-0.5,0.2-1,0.3-1.6,0.3c-0.5,0-1.1-0.1-1.5-0.4
		c-0.5-0.2-0.9-0.6-1.2-1c-0.3-0.4-0.6-0.8-0.8-1.3C24.1,20.6,24,20.2,24,19.6z M24,19.6c0,2,1.7,3.7,3.7,3.6c0,0,0,0,0,0
		c0.9,0,1.8-0.4,2.5-1.1c0.3-0.3,0.6-0.8,0.8-1.2c0.6-1.4,0.3-2.9-0.7-4c-0.7-0.7-1.6-1.1-2.6-1.1c-1,0-2,0.4-2.7,1.1
		C24.4,17.7,24,18.7,24,19.6L24,19.6z"/>
	<path style="fill:#385737;" d="M25.4,19.3c0.4,0.2,0.8,0.3,1.2,0.4c0.4,0.1,0.8,0.2,1.2,0.2c0.4,0,0.8-0.1,1.2-0.2
		c0.2-0.1,0.4-0.1,0.6-0.2c0.2-0.1,0.4-0.2,0.5-0.4c0,0.1-0.1,0.2-0.2,0.3c-0.1,0.1-0.2,0.2-0.3,0.2c-0.2,0.1-0.4,0.3-0.6,0.4
		c-0.4,0.2-0.9,0.3-1.3,0.3c-0.5,0-0.9-0.1-1.3-0.3C26.2,19.8,25.8,19.6,25.4,19.3z"/>
	<path style="fill:#385737;" d="M25.5,19.9c0-0.1-0.1-0.1-0.1-0.2c0,0,0-0.1,0-0.1c0,0,0.1-0.1,0.1-0.1c0.1-0.1,0.2-0.1,0.2,0
		c0,0,0.1,0.1,0,0.2c0,0,0,0.1,0,0.1c0,0-0.1,0.1-0.1,0.1C25.7,19.9,25.6,19.9,25.5,19.9z"/>
	<path style="fill:#385737;" d="M26.5,19.9c0,0,0.1,0.1,0.1,0.1c0,0,0,0.1,0,0.1c0,0,0,0.1-0.1,0.1c-0.1,0.1-0.2,0.1-0.3,0
		c0,0,0,0,0-0.1c0,0,0-0.1,0-0.1c0,0,0-0.1,0.1-0.1C26.4,19.9,26.5,19.9,26.5,19.9z"/>
	<path style="fill:#385737;" d="M27.4,20.1c0.1,0,0.1,0.1,0.1,0.1c0,0,0,0.1,0,0.1c0,0,0,0.1,0,0.1c0,0.1-0.1,0.1-0.1,0.1
		c-0.1,0-0.1-0.1-0.1-0.1c0,0,0-0.1,0-0.1c0,0,0-0.1,0-0.1C27.3,20.2,27.3,20.1,27.4,20.1z"/>
	<path style="fill:#385737;" d="M28.4,20.1c0.1,0,0.1,0.1,0.2,0.1c0,0,0.1,0.1,0.1,0.1c0,0,0,0.1,0,0.1c0,0.1-0.1,0.1-0.1,0.2
		c-0.1,0-0.1-0.1-0.2-0.1c0,0-0.1-0.1-0.1-0.1c0,0,0-0.1,0-0.1C28.3,20.2,28.3,20.1,28.4,20.1z"/>
	<path style="fill:#385737;" d="M29.6,19.6c0.1,0,0.1,0,0.2,0c0,0,0.1,0,0.1,0c0,0,0,0.1,0,0.1c0,0.1,0,0.2-0.1,0.2c0,0-0.1,0-0.1,0
		c0,0-0.1,0-0.1-0.1c0,0,0-0.1,0-0.1C29.6,19.7,29.6,19.7,29.6,19.6z"/>
	<path style="fill:#385737;" d="M29,19.9c0.1,0,0.1,0,0.2,0c0,0,0.1,0,0.1,0.1c0,0,0,0.1,0,0.1c0,0.1,0,0.2-0.1,0.2c0,0-0.1,0-0.1,0
		c0,0-0.1,0-0.1-0.1c0,0,0-0.1,0-0.1C28.9,20,28.9,20,29,19.9z"/>
	<path style="fill:#6EAD51;" d="M26.9,9.5c-0.6,0.3-1,0.9-1.2,1.6c-0.2,1.5-0.7,2.9-1.5,4.2c-0.7,0.7-1.1,1.7-0.7,2.2
		c0.6,0.3,1.3,0.2,1.7-0.4c0.3,0.3,0.7,0.5,1.1,0.6c0.5,0.1,1.1-0.7,1.1-0.7c0.2,0.3,0.6,0.5,0.9,0.5c0.6,0,0.8-0.6,0.9-0.8
		c0.3,0.4,0.7,0.7,1.2,0.8c0.4,0,1.1-0.6,0.4-1.7c-0.7-1.2-1.2-2.4-1.4-3.8c0.1-0.8-0.2-1.6-0.7-2.2c-0.6-0.4-0.2-1.6-0.5-2
		s-0.9-0.3-1,0C27.3,8.4,27.1,9,26.9,9.5z"/>
	<path style="fill:#385737;" d="M26.9,9.5c-0.4,0.3-0.7,0.6-0.9,1c-0.1,0.2-0.2,0.4-0.2,0.6c0,0.2-0.1,0.5-0.1,0.7
		c-0.2,0.9-0.4,1.8-0.8,2.6c0,0.1-0.1,0.2-0.1,0.3s-0.1,0.2-0.2,0.3l-0.1,0.1l-0.1,0.1l-0.2,0.3c-0.3,0.3-0.5,0.7-0.6,1.1
		c-0.1,0.2,0,0.4,0.1,0.5c0.1,0.1,0.3,0.2,0.5,0.2c0.2,0,0.4,0,0.6-0.1c0.1,0,0.2-0.1,0.3-0.1c0.1,0,0.1-0.1,0.1-0.2l0.1-0.3
		l0.2,0.2c0.1,0.1,0.3,0.3,0.5,0.3l0.3,0.1h0.1h0.1c0.1,0,0.2,0,0.2,0c0.1,0,0.2-0.1,0.3-0.1c0.2-0.1,0.3-0.3,0.4-0.4l0.2-0.2
		l0.1,0.2c0,0.1,0.1,0.1,0.2,0.2c0.1,0.1,0.1,0.1,0.2,0.1c0.1,0,0.1,0.1,0.2,0.1c0.1,0,0.2,0,0.2,0c0.1,0,0.1,0,0.2-0.1
		c0.1,0,0.1-0.1,0.2-0.1c0.1-0.1,0.2-0.3,0.2-0.5l0.1-0.4l0.2,0.4c0.1,0.1,0.2,0.2,0.3,0.3c0.1,0.1,0.2,0.2,0.3,0.3
		c0.1,0.1,0.2,0.1,0.4,0.1c0.1,0,0.2,0,0.3-0.1c0.2-0.2,0.3-0.4,0.3-0.6c0-0.1,0-0.3-0.1-0.4c0-0.1-0.1-0.1-0.1-0.2l-0.1-0.2
		c-0.3-0.6-0.6-1.1-0.8-1.7c-0.1-0.3-0.2-0.6-0.3-0.9c0-0.1-0.1-0.3-0.1-0.5c0-0.2-0.1-0.3-0.1-0.5V12c0-0.1,0-0.1,0-0.2
		c0-0.1,0-0.3,0-0.4c0-0.1,0-0.3-0.1-0.4c0-0.1-0.1-0.3-0.2-0.4c-0.1-0.1-0.2-0.2-0.3-0.3L28.8,10l-0.1-0.1c0,0-0.1-0.1-0.1-0.1V9.8
		V9.7c-0.1-0.2-0.1-0.3-0.1-0.5c0-0.2,0-0.3,0-0.5c0-0.2,0-0.3,0-0.5c0-0.1,0-0.1,0-0.2c0,0,0-0.1,0-0.1c0,0,0-0.1-0.1-0.1
		c-0.1-0.1-0.2-0.2-0.4-0.2c-0.1,0-0.3,0-0.4,0.1c-0.1,0-0.1,0.1-0.1,0.2c0,0.1,0,0.1,0,0.2l-0.1,0.5c0,0.1-0.1,0.3-0.1,0.5
		C27.2,9.3,27.1,9.4,26.9,9.5z M26.9,9.5C27,9.4,27,9.2,27.1,9.1c0-0.1,0-0.3,0.1-0.5s0-0.3,0-0.5c0-0.1,0-0.2,0-0.2
		c0-0.1,0.1-0.2,0.1-0.2c0.1-0.1,0.3-0.1,0.5-0.1c0.2,0,0.3,0.1,0.5,0.2c0.1,0.1,0.1,0.1,0.1,0.2c0,0.1,0,0.2,0.1,0.2
		c0,0.2,0,0.3,0,0.5c0,0.3,0.1,0.6,0.2,0.9l0,0l0,0c0,0,0,0.1,0.1,0.1l0.1,0.1l0.1,0.1c0.1,0.1,0.2,0.3,0.3,0.4
		c0.2,0.3,0.3,0.6,0.3,0.9c0,0.2,0,0.3,0,0.5c0,0.1,0,0.2,0,0.2v0.2c0,0.3,0.1,0.6,0.2,0.9c0.1,0.3,0.2,0.6,0.3,0.9
		c0.2,0.6,0.5,1.1,0.8,1.7l0.1,0.2c0,0.1,0.1,0.2,0.1,0.2c0.1,0.2,0.1,0.3,0.1,0.5c0,0.2,0,0.4-0.1,0.5c-0.1,0.2-0.2,0.3-0.4,0.5
		c-0.2,0.1-0.4,0.2-0.6,0.2c-0.2,0-0.4-0.1-0.5-0.2c-0.1-0.1-0.3-0.2-0.4-0.3c-0.1-0.1-0.2-0.3-0.3-0.4h0.4
		c-0.1,0.2-0.2,0.4-0.3,0.6c-0.1,0.1-0.2,0.2-0.3,0.2c-0.1,0.1-0.2,0.1-0.4,0.1c-0.1,0-0.2,0-0.4,0c-0.1,0-0.2-0.1-0.3-0.1
		c-0.1-0.1-0.2-0.1-0.3-0.2c-0.1-0.1-0.2-0.2-0.2-0.3h0.3c-0.2,0.2-0.3,0.4-0.5,0.5c-0.1,0.1-0.2,0.1-0.3,0.2
		c-0.1,0.1-0.3,0.1-0.4,0.1h-0.2h-0.2c-0.1,0-0.2-0.1-0.3-0.1c-0.2-0.1-0.4-0.3-0.6-0.4l0.3-0.1c0,0.1-0.1,0.3-0.3,0.4
		c-0.1,0.1-0.2,0.1-0.3,0.2c-0.2,0.1-0.5,0.1-0.7,0.1c-0.1,0-0.3,0-0.4-0.1c-0.1,0-0.3-0.1-0.4-0.2c-0.1-0.1-0.1-0.3-0.2-0.4
		c0-0.1,0-0.3,0-0.4c0.1-0.2,0.2-0.5,0.3-0.7c0.1-0.2,0.3-0.4,0.4-0.6l0.2-0.3l0.1-0.1l0.1-0.1c0.1-0.1,0.1-0.2,0.2-0.3
		s0.1-0.2,0.1-0.3c0.2-0.4,0.4-0.8,0.5-1.3c0.1-0.4,0.3-0.9,0.4-1.3c0.1-0.2,0.1-0.4,0.1-0.7c0-0.2,0.1-0.5,0.2-0.7
		C26,10,26.4,9.7,26.9,9.5z"/>
	<path style="fill:#377845;" d="M29.6,12.1c0.1-0.8-0.2-1.6-0.7-2.2c-0.6-0.4-0.2-1.6-0.5-2l-0.1-0.1l-0.4-0.2l0,0
		c-0.2,0,0.2,2.4,0,3.5s1.4,5.2,1.4,5.2s0.9,1.2,1.3,1.2s1.1-0.6,0.4-1.7C30.3,14.7,29.8,13.4,29.6,12.1z"/>
	<path style="fill:#385737;" d="M27.6,17c-0.1-0.3-0.1-0.5-0.2-0.8s-0.1-0.5-0.1-0.8s-0.1-0.6-0.1-0.8c0-0.1,0-0.3,0-0.4
		c0-0.1,0.1-0.3,0.1-0.4l0,0c0.1,0.1,0.1,0.3,0.2,0.4c0,0.1,0,0.3,0,0.4c0,0.3,0,0.6,0,0.8C27.5,15.9,27.5,16.5,27.6,17L27.6,17z"/>
	<path style="fill:#385737;" d="M29.3,16.4c-0.1-0.3-0.3-0.6-0.4-0.9l-0.4-0.9c-0.1-0.3-0.3-0.6-0.4-0.9C28,13.3,28,13,28,12.6l0,0
		c0.2,0.3,0.4,0.6,0.5,0.9c0.1,0.3,0.2,0.7,0.3,1c0.1,0.3,0.2,0.7,0.3,1c0.1,0.3,0.2,0.6,0.2,1V16.4z"/>
	<path style="fill:#385737;" d="M25.1,17.1c0-0.3,0-0.6,0-0.9c0-0.3,0.1-0.6,0.1-0.9c0-0.1,0-0.3,0.1-0.4c0-0.1,0.1-0.3,0.1-0.4
		c0.1-0.3,0.3-0.5,0.5-0.8l0,0c0,0.3,0,0.6-0.1,0.9c0,0.1-0.1,0.3-0.1,0.4c0,0.1-0.1,0.3-0.1,0.4s-0.1,0.6-0.2,0.8
		S25.1,16.8,25.1,17.1L25.1,17.1z"/>
	<path style="fill:#385737;" d="M21.8,28c0.1-0.3,0.2-0.7,0.4-1c0.2-0.4,0.4-0.7,0.6-1c0.5-0.6,1-1.1,1.7-1.5
		c1.3-0.8,2.8-1.2,4.4-1.1c0.7,0,1.5,0.2,2.2,0.5c0.7,0.3,1.4,0.7,2,1.2c0.6,0.5,1.1,1.1,1.5,1.7c0.4,0.6,0.7,1.4,0.8,2.1
		c0.3,1.5,0,3.1-0.8,4.4c-0.8,1.3-2.1,2.3-3.5,2.8c-0.7,0.3-1.5,0.4-2.3,0.4c-0.8,0-1.5-0.1-2.3-0.3c-0.7-0.2-1.4-0.6-2-1
		c-0.6-0.4-1.1-1-1.5-1.7l0,0c0.2,0.3,0.5,0.6,0.7,0.8c0.3,0.3,0.6,0.5,0.9,0.7c0.6,0.4,1.3,0.7,2,0.8c0.7,0.2,1.4,0.2,2.2,0.2
		c0.4,0,0.7-0.1,1.1-0.1c0.3-0.1,0.7-0.2,1-0.3c1.4-0.5,2.6-1.4,3.4-2.6c0.8-1.2,1.2-2.7,1-4.2c-0.1-0.7-0.3-1.4-0.7-2.1
		c-0.4-0.6-0.8-1.2-1.4-1.7c-0.3-0.2-0.6-0.4-0.9-0.6c-1-0.5-2-0.8-3.1-0.9c-0.7,0-1.5,0-2.2,0.2c-0.7,0.2-1.4,0.5-2,0.9
		C23.4,25.4,22.4,26.6,21.8,28L21.8,28z"/>
	<path style="fill:#89B96A;" d="M36,33.9c0,0.6-0.5,1-1.1,0.9c-0.1,0-0.3,0-0.4-0.1c-1.1-0.5-1.9-1.5-1.9-2.7c0-0.7,0.2-1.5,0.3-1.1
		c0.2,0.8,0.2,0.3,0.2,0.3s0-0.2,0-1c0-0.4,0.5-0.5,0.5,0.1c0.1,1.7,0,0.3,0,0.3s-0.1-1.1,0.1-1.1s0.4,0.4,0.5,0.9s0.5,0.8,0.6,0.4
		s0-1,0.2-1.1s0.1,0.1,0.3,0.7s0.1,1.2,0.5,1.7S36,33.9,36,33.9z"/>
	<path style="fill:#385737;" d="M36,33.9c0,0.3-0.2,0.6-0.5,0.8c-0.3,0.1-0.6,0.2-0.9,0.1c-0.3-0.1-0.6-0.2-0.8-0.4
		c-0.2-0.2-0.5-0.4-0.6-0.7c-0.2-0.3-0.3-0.6-0.4-0.8c-0.1-0.3-0.2-0.6-0.2-0.9c0-0.3,0-0.7,0.1-1c0,0,0-0.1,0.1-0.1l0,0
		c0,0,0.1,0,0.1,0c0,0,0.1,0,0.1,0l0,0c0,0,0,0.1,0,0.1L33,31c0,0.1,0,0.1,0.1,0.2l0,0l0,0c0,0,0,0-0.1,0c0,0,0,0-0.1,0l0,0l0,0
		c0,0,0-0.1,0-0.1l0,0c0-0.3,0-0.5,0-0.8v-0.1c0-0.1,0-0.1,0-0.2c0-0.1,0.1-0.2,0.2-0.2c0.1,0,0.2,0,0.3,0c0.1,0.1,0.1,0.1,0.2,0.2
		c0,0.1,0.1,0.1,0.1,0.2c0,0.1,0,0.1,0,0.2v0.2v0.4v0.1c0,0,0,0.1,0,0.1c0,0-0.1,0.1-0.1,0.1h-0.1l0,0c0,0,0,0,0-0.1l0,0l0,0v-0.2
		v-0.4c0-0.1,0-0.3,0-0.4c0-0.1,0-0.3,0-0.4c0-0.1,0-0.1,0.1-0.2c0,0,0-0.1,0.1-0.1c0,0,0.1,0,0.1,0h0.1c0.1,0,0.2,0.1,0.2,0.1
		c0,0.1,0.1,0.1,0.1,0.2c0,0.1,0.1,0.3,0.1,0.4l0.1,0.4c0,0.1,0.1,0.2,0.1,0.3c0,0,0.1,0.1,0.1,0.1c0,0,0.1,0,0.1,0
		c0.1-0.1,0.1-0.2,0.1-0.3c0-0.2,0-0.5,0.1-0.8c0,0,0-0.1,0-0.1c0,0,0,0,0,0h0.1c0,0,0.1,0,0.1,0c0,0,0,0,0,0.1c0,0,0,0.1,0,0.1
		c0,0.1,0.1,0.3,0.1,0.4s0.1,0.2,0.1,0.4c0,0.1,0.1,0.3,0.1,0.4c0,0.3,0.1,0.5,0.1,0.8c0,0.1,0.1,0.2,0.2,0.4l0.1,0.2
		c0,0.1,0.1,0.1,0.1,0.2c0.1,0.2,0.1,0.5,0.1,0.8C36,33.5,36,33.7,36,33.9z M36,33.9c0.1-0.2,0.1-0.5,0.1-0.8c0-0.3,0-0.5-0.1-0.8
		c0-0.1,0-0.1-0.1-0.2l-0.1-0.2c-0.1-0.1-0.1-0.2-0.2-0.4c-0.1-0.2-0.1-0.5-0.2-0.8c0-0.1-0.1-0.2-0.1-0.4c0-0.1-0.1-0.2-0.1-0.4
		s-0.1-0.3-0.1-0.4v-0.1l0,0l0,0l0,0l0,0c0,0,0,0,0,0.1c0,0.2,0,0.5,0,0.8c0,0.1,0,0.1,0,0.2c0,0.1-0.1,0.1-0.1,0.2c0,0-0.1,0-0.1,0
		c0,0-0.1,0-0.1,0c-0.1,0-0.1-0.1-0.2-0.1c-0.1-0.1-0.1-0.2-0.2-0.4c0-0.1-0.1-0.3-0.1-0.4c-0.1-0.1-0.2-0.2-0.3-0.3
		c0-0.1-0.1-0.2-0.2-0.2l0,0l0,0c0,0.1,0,0.1,0,0.2c0,0.1,0,0.2,0,0.4c0,0.1,0,0.3,0,0.4s0,0.3,0,0.4v0.2l0,0l0,0l0,0l0,0h-0.1
		c0,0-0.1,0-0.1,0.1c0,0,0,0,0,0.1V31v-0.4v-0.2c0-0.1,0-0.1,0-0.2c0-0.1,0-0.2-0.1-0.3c0,0-0.1,0-0.2,0c0,0,0,0.1,0,0.1v0.2
		c0,0.3,0,0.5,0,0.8l0,0c0,0,0,0.1,0,0.1c0,0,0,0,0,0.1l0,0c0,0,0,0-0.1,0c0,0-0.1,0-0.1,0l0,0c0,0,0-0.1,0-0.1
		c0-0.1-0.1-0.2-0.1-0.2v-0.1c0,0,0-0.1,0-0.1l0,0l0,0c0,0,0,0,0,0l0,0c0,0,0,0.1,0,0.1c-0.1,0.3-0.1,0.6-0.1,0.9
		c0,0.3,0,0.6,0.1,0.9c0.1,0.3,0.2,0.6,0.4,0.8c0.2,0.3,0.4,0.5,0.6,0.7c0.2,0.2,0.5,0.4,0.8,0.4c0.1,0,0.3,0.1,0.5,0.1
		c0.2,0,0.3-0.1,0.4-0.1C36,34.3,36,34.1,36,33.9z"/>
	<path style="fill:#89B96A;" d="M26.3,46.1c0,0-0.8,4.5,3.1,5.8c1.9,0.8,4,0,4.8-1.9c0.5-1.1,0.4-2.3-0.2-3.3
		C32.5,44,27.2,42.4,26.3,46.1z"/>
	<path style="fill:#385737;" d="M26.3,46.1c-0.1,1.1,0,2.2,0.4,3.2c0.2,0.5,0.5,1,0.9,1.3c0.4,0.4,0.8,0.7,1.3,0.9
		c0.5,0.2,1,0.4,1.5,0.4c0.5,0.1,1,0,1.5-0.1c1-0.3,1.8-1,2.1-2c0.4-1,0.3-2.1-0.2-3c-0.5-0.9-1.3-1.7-2.2-2.2
		c-0.5-0.3-1-0.5-1.5-0.6c-0.5-0.1-1.1-0.2-1.6-0.1c-0.5,0.1-1.1,0.3-1.5,0.7L27,44.7l-0.1,0.1L26.8,45c-0.1,0.1-0.2,0.2-0.2,0.3
		C26.4,45.5,26.3,45.8,26.3,46.1z M26.3,46.1c0.1-0.3,0.2-0.5,0.3-0.8c0.1-0.1,0.1-0.2,0.2-0.3l0.1-0.2l0.1-0.1l0.1-0.1
		c0.4-0.4,0.9-0.6,1.5-0.7c0.3,0,0.5-0.1,0.8-0.1c0.3,0,0.5,0,0.8,0.1c0.5,0.1,1.1,0.3,1.6,0.5c1,0.5,1.9,1.2,2.5,2.2
		c0.1,0.3,0.3,0.5,0.3,0.8c0.1,0.3,0.1,0.6,0.2,0.9c0,0.6,0,1.1-0.2,1.7c-0.1,0.3-0.2,0.5-0.4,0.8c-0.2,0.2-0.4,0.5-0.6,0.7
		c-0.2,0.2-0.5,0.4-0.7,0.5c-0.3,0.1-0.5,0.2-0.8,0.3h-0.2h-0.2h-0.2h-0.2c-0.1,0-0.3,0-0.4,0l-0.4,0c-0.6-0.1-1.1-0.3-1.6-0.6
		c-0.5-0.3-0.9-0.6-1.3-1c-0.4-0.4-0.6-0.9-0.8-1.4c-0.2-0.5-0.3-1.1-0.4-1.6C26.2,47.1,26.2,46.6,26.3,46.1z"/>
	
		<ellipse transform="matrix(0.6188 -0.7855 0.7855 0.6188 -25.4846 41.7058)" style="fill:#FFFFFF;" cx="30.2" cy="47.1" rx="1.4" ry="1.5"/>
	<path style="fill:#385737;" d="M29.4,48.2c-0.3-0.2-0.5-0.6-0.6-1c0-0.2,0-0.4,0-0.6c0-0.2,0.1-0.4,0.2-0.5c0.2-0.3,0.6-0.5,1-0.5
		c0.4,0,0.8,0.1,1.1,0.3c0.3,0.2,0.5,0.6,0.6,1c0,0.2,0,0.4,0,0.6c0,0.2-0.1,0.4-0.3,0.5c-0.1,0.2-0.3,0.3-0.5,0.4
		c-0.2,0.1-0.4,0.1-0.6,0.1C30,48.6,29.7,48.5,29.4,48.2z M29.4,48.2c0.1,0.1,0.3,0.2,0.5,0.2c0.2,0,0.4,0,0.5,0
		c0.3,0,0.7-0.2,0.9-0.5c0.2-0.3,0.3-0.6,0.2-1c-0.1-0.3-0.2-0.7-0.5-0.9c-0.3-0.2-0.6-0.3-1-0.3c-0.4,0-0.7,0.2-0.9,0.5
		c-0.2,0.3-0.3,0.6-0.3,1c0,0.2,0.1,0.4,0.2,0.5C29.1,47.9,29.2,48.1,29.4,48.2L29.4,48.2z"/>
	
		<ellipse transform="matrix(0.6815 -0.7318 0.7318 0.6815 -25.2441 37.1274)" style="fill:#1E1D21;" cx="30" cy="47.6" rx="0.9" ry="0.9"/>
	
		<ellipse transform="matrix(0.5 -0.866 0.866 0.5 -26.1775 49.1711)" style="fill:#FFFFFF;" cx="29.5" cy="47.3" rx="0.3" ry="0.3"/>
	<path style="fill:#A3C68B;" d="M28.4,47.9c0,0-0.1-0.7-0.5-0.9s-0.7,0.4-0.7,0.4s-0.2,0.3,0.3,0.9S28.5,48.1,28.4,47.9z"/>
	<circle style="fill:#FFFFFF;" cx="30.1" cy="47.6" r="0.1"/>
	<path style="fill:#6EAD51;" d="M27.6,47.6c0,0,1,2.9,3,3.1s3.1-0.7,2.7-2.8c-0.7,1.1-1.9,1.7-3.1,1.6
		C29.1,49.4,28.1,48.6,27.6,47.6z"/>
	<path style="fill:#385737;" d="M27.6,47.6c0.3,0.7,0.7,1.4,1.2,2c0.3,0.3,0.5,0.5,0.9,0.7c0.3,0.2,0.7,0.3,1.1,0.3
		c0.4,0.1,0.7,0.1,1.1,0c0.4-0.1,0.7-0.2,0.9-0.5c0.2-0.3,0.4-0.6,0.4-1c0.1-0.4,0.1-0.7,0-1.1l0.2,0c-0.2,0.3-0.4,0.5-0.6,0.7
		c-0.2,0.2-0.5,0.4-0.7,0.5c-0.5,0.3-1.2,0.4-1.8,0.4l-0.5-0.1c-0.1,0-0.3-0.1-0.4-0.1c-0.3-0.1-0.6-0.2-0.8-0.4
		C28.2,48.6,27.9,48.1,27.6,47.6z M27.6,47.6l0.1,0.2l0.1,0.2c0.1,0.1,0.2,0.2,0.3,0.4c0.2,0.2,0.4,0.4,0.6,0.6
		c0.2,0.2,0.5,0.3,0.8,0.4c0.3,0.1,0.6,0.1,0.9,0.2c0.6,0,1.1-0.1,1.6-0.4c0.5-0.3,0.9-0.7,1.2-1.2l0.2-0.3v0.3
		c0.1,0.4,0.1,0.8,0,1.2c0,0.4-0.2,0.8-0.4,1.1l0,0.1l-0.1,0l-0.1,0.1l-0.3,0.2l-0.3,0.1l-0.3,0.1c-0.4,0.1-0.8,0.1-1.2,0
		c-0.4,0-0.8-0.2-1.1-0.4c-0.3-0.2-0.6-0.5-0.9-0.8c-0.2-0.3-0.5-0.6-0.6-1C27.9,48.3,27.7,47.9,27.6,47.6z"/>
	<path style="fill:#385737;" d="M27.4,47.9c0-0.1,0-0.1,0-0.2c0-0.1,0-0.1,0.1-0.2c0.1-0.1,0.2-0.1,0.3-0.1c0,0.1,0,0.1-0.1,0.2
		l-0.1,0.1l-0.1,0.1L27.4,47.9z"/>
	<path style="fill:#385737;" d="M33.3,47.3l0.1,0.1l0.1,0.1h0.1c0.1,0,0.1,0,0.2,0c0,0.1-0.1,0.1-0.2,0.2c-0.1,0-0.2,0-0.3-0.1
		c-0.1-0.1-0.1-0.1-0.1-0.2C33.2,47.4,33.2,47.4,33.3,47.3z"/>
	<path style="fill:#FFFFFF;" d="M29.9,49.6c-0.1,0.2,0,0.4,0.2,0.5c0.3,0.2,0.5-0.3,0.3-0.5H29.9L29.9,49.6z"/>
</g>
</svg>
