<?xml version="1.0" encoding="utf-8"?>
<!-- Generator: Adobe Illustrator 22.0.0, SVG Export Plug-In . SVG Version: 6.00 Build 0)  -->
<svg version="1.1" id="Слой_1" xmlns="http://www.w3.org/2000/svg" xmlns:xlink="http://www.w3.org/1999/xlink" x="0px" y="0px"
	 viewBox="0 0 55.8 62.9" style="enable-background:new 0 0 55.8 62.9;" xml:space="preserve">
<title>08_1</title>
<path style="fill:#420019;" d="M22,61.3c-0.3,0-0.5-0.2-0.5-0.4c0,0,0,0,0-0.1c0-0.1,0-0.2,0.1-0.3c1-1.3,2.3-2.2,3.9-2.6v-5.6
	c-0.3-0.1-0.6-0.2-0.9-0.4c-0.7,0.3-1.5,0.5-2.3,0.5h-0.6c-0.6,0-1.3-0.2-1.9-0.4c-0.6-0.3-1.2-0.7-1.7-1.2c-0.4-0.5-0.8-1.1-1-1.8
	c-0.2-0.6-0.3-1.3-0.4-1.9v-0.9c-1.5-1.4-2.9-3-4.1-4.7c-1.3-1.7-2.4-3.6-3.1-5.6c-0.4-1.1-0.6-2.3-0.4-3.4c0.1-0.6,0.3-1.2,0.6-1.7
	c0.2-0.5,0.5-1,0.9-1.5c1.4-1.7,3.2-3,5.3-3.8c1.6-0.7,3.3-1.2,5-1.5c-0.3-1-2.2-3.7-2.3-4.7c0-0.3,0.2-0.5,0.4-0.5c0,0,0,0,0.1,0
	c0.1,0,0.2,0,0.3,0.1c0.8,0.4,1.8,0.6,2.7,0.7c1.3,0.3,4.1,2.5,5,3.5V16c0-0.7,0.6-1.3,1.3-1.3H29c0.7,0,1.3,0.6,1.3,1.3l0,0v6.7
	c0.1-0.1,0.2-0.2,0.4-0.3c1-0.7,2.1-1.1,3.3-1.4c0.6,0,1.3,0.1,1.9,0.2c0.3,0.1,0.4,0.3,0.4,0.6c0,0.2-0.1,0.3-0.3,0.3
	c-0.6,0.5-1.1,1.2-1.6,1.8l0,0c2.1,0.4,4.1,1,6.1,1.8c1,0.4,2,0.9,2.8,1.6c0.9,0.6,1.7,1.5,2.3,2.4l0.1,0.2l0.3,0.6l0.2,0.4
	c0,0.1,0.1,0.2,0.1,0.3l0.1,0.5v1.4c0,1.1-0.2,2.2-0.6,3.3c-0.4,1-0.9,2-1.4,2.9c-0.5,0.9-1.1,1.8-1.7,2.7c-1,1.3-2,2.5-3.1,3.7l0,0
	c0.1,0.6,0.1,1.3,0.1,1.9c0,0.7-0.2,1.3-0.5,1.9c-0.3,0.6-0.7,1.2-1.3,1.6c-0.5,0.4-1.2,0.7-1.8,0.8c-0.6,0.2-1.2,0.2-1.8,0.2l0,0
	c-0.7,0-1.4-0.1-2-0.3l-0.2-0.1c-0.5,0.2-0.9,0.5-1.3,0.7l-0.6,0.2V58c3.6,0.8,3.6,3,3.6,3c0,0.3-0.2,0.5-0.4,0.5c0,0,0,0-0.1,0
	L22,61.3z"/>
<path style="fill:#FFFFFF;" d="M29.1,15.1c0.4,0,0.8,0.3,0.8,0.8c0,0,0,0,0,0l0,0v7.8h0.2c0.3-0.4,0.6-0.7,0.9-1
	c0.9-0.6,1.9-1.1,3-1.3c0.6,0,1.2,0.1,1.8,0.2c-0.9,0.7-1.6,1.6-2.1,2.6l0.6,0.1c2.1,0.3,4.1,0.9,6,1.7c1,0.4,1.9,0.9,2.8,1.5
	c0.9,0.6,1.6,1.4,2.2,2.3c0.1,0.2,0.3,0.5,0.4,0.7l0.2,0.4c0,0.1,0.1,0.3,0.1,0.4l0.1,0.4v1.2C46,34,45.8,35,45.4,36
	c-0.4,1-0.8,1.9-1.4,2.8c-0.5,0.9-1.1,1.8-1.7,2.6c-1,1.3-2.1,2.6-3.2,3.8v0.3c0.1,0.6,0.1,1.2,0.1,1.8c0,0.6-0.2,1.2-0.4,1.7
	c-0.3,0.5-0.7,1-1.1,1.4c-0.5,0.3-1,0.6-1.6,0.7c-0.5,0.1-1.1,0.2-1.6,0.2c-0.6,0-1.2-0.1-1.8-0.3l-0.4-0.1c-0.5,0.3-1,0.5-1.5,0.8
	L29.9,52v6.1c3.7,0.6,3.6,2.6,3.6,2.6H22c1-1.3,2.4-2.2,4-2.5v-6.3c-0.4-0.1-0.8-0.3-1.2-0.5l-0.2-0.1c-0.7,0.3-1.5,0.5-2.3,0.5
	h-0.5c-0.6,0-1.2-0.2-1.8-0.4c-0.6-0.2-1.1-0.6-1.5-1.1c-0.8-0.9-1.2-2.1-1.2-3.3v-1l-0.1-0.1c-1.5-1.5-2.9-3.1-4.2-4.7
	c-1.3-1.7-2.3-3.5-3-5.5c-0.4-1-0.5-2.1-0.4-3.2c0.1-0.5,0.3-1.1,0.5-1.6c0.2-0.5,0.5-1,0.8-1.4c1.4-1.6,3.1-2.9,5.1-3.6
	c1.9-0.7,3.8-1.3,5.8-1.6c-0.2-0.1-0.3-0.3-0.4-0.5c-0.3-1-2.2-3.6-2.2-4.6c0.9,0.4,1.9,0.7,2.9,0.8c1.2,0.1,4.4,3,5.1,3.6h0.5v-7.7
	c0-0.4,0.3-0.8,0.8-0.8c0,0,0,0,0,0L29.1,15.1 M29.1,14.1h-0.6c-1,0-1.8,0.8-1.8,1.8c0,0,0,0,0,0l0,0v6c-0.8-0.7-3.4-2.7-4.5-2.9
	c-0.9-0.1-1.7-0.3-2.5-0.7c-0.4-0.3-1-0.2-1.2,0.2c0,0-0.1,0.1-0.1,0.2c-0.1,0.2-0.1,0.4-0.1,0.6c0.1,0.9,1.9,3.4,2.1,4.3
	c-1.6,0.3-3.2,0.8-4.7,1.4c-2.1,0.8-4,2.1-5.5,3.9c-0.4,0.5-0.7,1-1,1.6c-0.3,0.6-0.5,1.2-0.6,1.8l0,0c-0.1,1.2,0,2.5,0.5,3.6
	c0.7,2.1,1.8,4.1,3.2,5.8c1.2,1.6,2.6,3.2,4.1,4.6V47c0,0.7,0.2,1.4,0.4,2c0.2,0.7,0.5,1.4,1,1.9c0.5,0.6,1.1,1.1,1.9,1.3
	c0.6,0.2,1.3,0.4,2,0.4h0.6c0.8,0,1.6-0.1,2.3-0.4l0.4,0.2v4.9c-1.5,0.5-2.8,1.4-3.8,2.7c-0.3,0.5-0.2,1.1,0.3,1.4c0,0,0,0,0,0
	c0.2,0.1,0.4,0.2,0.6,0.2h11.6c0.5,0,1-0.4,1-0.9c0,0,0-0.1,0-0.1c0-0.1,0-2.5-3.6-3.5v-4.6l0.3-0.1c0.4-0.2,0.7-0.4,1.1-0.6l0,0
	c0.7,0.2,1.4,0.3,2.1,0.3c0.6,0,1.3-0.1,1.9-0.2c0.7-0.2,1.3-0.5,1.9-0.9c0.6-0.5,1.1-1.1,1.5-1.8c0.3-0.7,0.5-1.4,0.5-2.1
	c0-0.6,0-1.2-0.1-1.8c1-1.1,2-2.3,2.9-3.5l1.8-2.7c0.5-1,1-2,1.4-3c0.4-1.1,0.7-2.2,0.8-3.4v-1.5l-0.1-0.4v-0.1
	c0-0.2-0.1-0.3-0.1-0.5h-0.3l-0.3-0.6l-0.1-0.2l0,0c-0.6-1-1.5-1.9-2.5-2.6c-0.9-0.7-1.9-1.2-3-1.6c-1.8-0.7-3.7-1.3-5.6-1.7
	c0.4-0.4,0.8-0.7,1.2-1c0.5-0.2,0.7-0.8,0.4-1.2c0,0,0-0.1,0-0.1c-0.1-0.3-0.4-0.5-0.7-0.5c-0.7-0.1-1.3-0.2-2-0.2
	c-1.1,0.3-2.2,0.7-3.2,1.2V16C30.9,15,30.2,14.1,29.1,14.1C29.1,14.1,29.1,14.1,29.1,14.1L29.1,14.1z"/>
<rect x="25.9" y="51.2" style="fill:#6D1927;" width="4" height="7.5"/>
<path style="fill:#99242C;" d="M32.2,59.3c-0.6-0.3-1.2-0.5-1.8-0.6c-0.4-0.2-1-0.1-1.2-0.5c-0.1-0.9-0.1-1.7,0-2.6
	c0.2-1.4,0.1-2.7-0.1-4.1c-0.1-0.2-1.9-1-2.2,0.5s0.3,5.6,0.1,6c-0.3,0.7-1.7,1.1-1.8,1.1c-0.3,0.1-1.5,0.7-1.4,0.9s1.1,0.3,1.4,0.3
	c1.1,0,2.2-0.1,3.3-0.1c0.5,0,1.1-0.1,1.6-0.1l0.5,0.1c0.5,0.1,0.9,0.1,1.4,0.1C32.4,60.4,32.6,59.6,32.2,59.3z"/>
<path style="fill:#81BA50;" d="M28.8,15.1L28.8,15.1c0.6,0,1.1,0.5,1.1,1.1v7.6c0,0.6-0.5,1.1-1.1,1.1l0,0c-0.6,0-1.1-0.5-1.1-1.1
	v-7.6C27.7,15.6,28.2,15.1,28.8,15.1z"/>
<path style="fill:#48A955;" d="M27.5,23.9c0,0-3.8-3.8-5.4-4c-1-0.1-1.9-0.4-2.8-0.8c0.1,1,2,3.6,2.2,4.6c0.4,1,4.7,3.2,4.7,3.2
	s5.3,1.3,6.4-0.2s2.3-4.8,3.3-5.3c0,0-3.7,0.3-4.8,1.1c-0.8,0.8-1.5,1.8-1.9,2.9L27.5,23.9z"/>
<path style="fill:#C3402B;" d="M28.3,23.6c0,0,13.9,0.5,17.1,6.9S34.6,52.2,28.3,52.2S8.3,38,10.2,32S22.2,23.9,28.3,23.6z"/>
<path style="fill:#99242C;" d="M28.3,23.5c1,0,2.1,0.1,3.1,0.3c1,0.1,2,0.3,3.1,0.5c2.1,0.3,4.1,0.9,6,1.7c1,0.4,1.9,0.9,2.8,1.5
	c0.9,0.6,1.6,1.4,2.2,2.3c0.1,0.2,0.3,0.5,0.4,0.7l0.2,0.4c0,0.1,0.1,0.3,0.1,0.4l0.1,0.4v1.2C46.2,34,46,35,45.6,36
	c-0.4,1-0.8,1.9-1.4,2.8c-0.5,0.9-1.1,1.8-1.7,2.6c-1.2,1.7-2.6,3.3-4,4.8c-0.7,0.7-1.5,1.4-2.3,2.1s-1.6,1.3-2.4,1.9
	c-0.9,0.6-1.8,1.1-2.7,1.5c-1,0.5-2,0.7-3.1,0.6c-1-0.1-2.1-0.4-3-0.9c-1-0.5-1.9-1-2.8-1.6c-1.7-1.2-3.3-2.5-4.8-4
	c-1.5-1.4-2.9-3-4.1-4.7c-1.3-1.7-2.3-3.5-3-5.5c-0.4-1-0.5-2.1-0.4-3.2c0.1-0.5,0.3-1.1,0.5-1.6c0.2-0.5,0.5-1,0.8-1.4
	c1.4-1.6,3.1-2.9,5.1-3.6c1.9-0.8,3.9-1.3,6-1.7C24.2,23.9,26.2,23.6,28.3,23.5z M28.3,23.6c-2.1,0.1-4.1,0.4-6.1,0.9
	c-2,0.4-3.9,1.1-5.8,1.9c-1.9,0.8-3.5,2-4.8,3.6c-0.3,0.4-0.5,0.8-0.7,1.2c-0.1,0.2-0.2,0.5-0.3,0.7c0,0.1-0.1,0.2-0.1,0.3
	s-0.1,0.2-0.1,0.3c-0.1,1,0.1,2,0.4,2.9c0.7,1.9,1.7,3.7,2.9,5.3c1.2,1.7,2.5,3.3,4,4.7c0.7,0.7,1.5,1.4,2.2,2.1s1.6,1.3,2.4,1.9
	c0.8,0.6,1.7,1.1,2.6,1.6c0.9,0.5,1.9,0.8,2.9,1c1,0.1,2-0.1,2.9-0.5c0.9-0.4,1.8-0.9,2.7-1.5c1.7-1.2,3.3-2.5,4.7-4
	c0.7-0.7,1.4-1.5,2.1-2.3c0.7-0.8,1.3-1.6,1.8-2.5c0.6-0.8,1.1-1.7,1.6-2.6c0.5-0.9,0.9-1.8,1.2-2.8c0.4-0.9,0.6-1.9,0.6-2.9v-1.1
	l-0.1-0.4c0-0.1-0.1-0.2-0.1-0.4l-0.1-0.3l-0.3-0.6c-0.5-0.8-1.2-1.6-2-2.2c-0.8-0.6-1.7-1.1-2.6-1.6c-1.8-0.9-3.8-1.5-5.8-1.9
	C32.4,24,30.4,23.7,28.3,23.6L28.3,23.6z"/>
<path style="fill:#81BA50;" d="M29.4,33.4c0.2-2,0.5-4.9,5.7-5.1s5.9,3.6,6,5.7s-0.8,5.8-6,5.8C30.6,39.8,29.1,35.5,29.4,33.4z"/>
<path style="fill:#99242C;" d="M29.4,33.3c0.1-0.8,0.2-1.5,0.4-2.3c0.2-0.8,0.7-1.5,1.4-2c0.7-0.5,1.4-0.8,2.2-1
	c0.4-0.1,0.8-0.1,1.2-0.1h1.8L37,28l0.6,0.2c0.2,0.1,0.4,0.1,0.6,0.2c0.8,0.4,1.4,0.9,1.9,1.6c0.5,0.7,0.8,1.4,1,2.2
	c0.2,0.8,0.3,1.6,0.3,2.4c0,0.8-0.1,1.6-0.4,2.4c-0.3,0.8-0.8,1.5-1.5,2c-1.3,1-3,1.5-4.6,1.3c-0.8,0-1.7-0.2-2.4-0.6
	c-0.7-0.4-1.3-1-1.8-1.6c-0.5-0.7-0.8-1.4-1-2.2C29.4,35.1,29.3,34.2,29.4,33.3z M29.4,33.3c-0.1,1.5,0.4,3.1,1.5,4.2
	c1,1.1,2.3,1.8,3.8,1.8h1.1c0.2,0,0.4,0,0.5-0.1c0.2,0,0.4,0,0.6-0.1c0.7-0.1,1.4-0.4,2-0.9c0.6-0.4,1.1-1,1.4-1.7
	c0.3-0.7,0.5-1.4,0.6-2.1v-1.1c0-0.4-0.1-0.8-0.2-1.2c-0.2-0.7-0.5-1.4-0.9-2c-0.5-0.6-1.1-1-1.8-1.3c-0.2-0.1-0.4-0.1-0.5-0.2
	L37,28.5h-1.2c-1.5-0.1-3,0.2-4.3,0.9c-0.6,0.4-1.1,0.9-1.5,1.6c-0.2,0.3-0.3,0.7-0.4,1C29.6,32.4,29.5,32.9,29.4,33.3L29.4,33.3z"
	/>
<path style="fill:#81BA50;" d="M14.6,32.8c0.6-1.8,2.2-4.8,6.2-4.3s5.9,4.7,5.5,6.3c-0.6,2.3-4.3,6.9-8.2,5.2
	C15.4,38.8,13.9,35.8,14.6,32.8z"/>
<path style="fill:#99242C;" d="M14.6,32.8c0.3-0.7,0.6-1.4,1-2.1c0.4-0.7,0.9-1.3,1.6-1.7c0.7-0.5,1.5-0.7,2.3-0.8
	c0.8-0.1,1.6,0,2.4,0.3c0.8,0.2,1.5,0.6,2.1,1.2c0.6,0.5,1.1,1.1,1.5,1.8c0.4,0.7,0.7,1.4,0.9,2.1c0.1,0.4,0.1,0.8,0.1,1.2
	c-0.1,0.4-0.2,0.8-0.4,1.1c-0.7,1.5-1.7,2.7-3,3.7c-0.6,0.5-1.4,0.9-2.2,1.1c-0.8,0.2-1.7,0.2-2.5,0c-0.2-0.1-0.4-0.1-0.6-0.2
	l-0.5-0.3c-0.2-0.1-0.3-0.2-0.5-0.3l-0.2-0.2l-0.2-0.2c-0.6-0.6-1.1-1.2-1.4-2c-0.3-0.7-0.5-1.5-0.6-2.3V34
	C14.4,33.6,14.5,33.2,14.6,32.8z M14.6,32.8c-0.2,0.8-0.2,1.5,0,2.3c0.1,0.7,0.4,1.5,0.8,2.1c0.7,1.3,1.9,2.2,3.3,2.7
	c1.4,0.4,2.9,0.1,4.1-0.8c1.2-0.9,2.2-2,3-3.3c0.9-1.3,0.3-3-0.5-4.2c-0.4-0.6-1-1.2-1.6-1.6c-0.6-0.4-1.3-0.7-2-0.9
	c-1.4-0.4-3-0.3-4.3,0.4C16.1,30.2,15,31.4,14.6,32.8L14.6,32.8z"/>
<path d="M20.6,28.5c0,0,3.5,1,4.9,3.2S25,37.5,22.7,38c-3.4,0.7-7.2,0.3-7.6-4.5S18.9,28.3,20.6,28.5z"/>
<path d="M34.3,28.3c0,0,3.8-0.3,4.8,1.7s1.8,7.9-3.7,7.6s-5.8-4.8-5.2-6.9S34.3,28.3,34.3,28.3z"/>
<path style="fill:#FFFFFF;" d="M37.8,35c0,0-0.7-0.8-0.3-1c0.4-0.1,0.8,0,1,0.4c0.2,0.3,0.6,0.7,0.2,1S37.8,35,37.8,35z"/>
<path style="fill:#6D1927;" d="M27.7,40.4c0,0,0.4,0,0.5-0.2s0.1-0.4,0.4-0.4s0.7,2-0.8,2s-1.5-2.1-1.1-2.2S27,40.3,27.7,40.4z"/>
<path style="fill:#99242C;" d="M22,60.8c0,0,2-3.1,6.9-2.8s4.7,2.8,4.7,2.8H22z"/>
<path style="fill:#6D1927;" d="M28,44.6c0.1-0.3,0.3-0.6,0.5-0.9l0.7-0.7c0.6-0.5,1.4-0.6,2.1-0.5h0.5c0.2,0,0.4,0.1,0.5,0.3
	c0.4,0.1,0.7,0.4,0.9,0.7c0.4,0.6,0.5,1.4,0.4,2.1c-0.3,1.4-1,2.6-2,3.6c-0.5,0.5-1,0.9-1.5,1.4c-0.5,0.5-1.3,0.8-2,0.7
	c-0.7,0-1.4-0.2-2-0.6c-0.6-0.3-1.2-0.8-1.6-1.4c-1-1-1.7-2.3-2-3.7c-0.1-0.7,0-1.5,0.4-2.1c0.2-0.3,0.5-0.5,0.9-0.6
	c0.1-0.1,0.3-0.1,0.5-0.1l0.3-0.1h0.3c0.7-0.1,1.5,0,2.1,0.4C27.3,43.4,27.8,44,28,44.6z M28,44.6c-0.3-0.6-0.8-1.1-1.4-1.5
	c-0.6-0.3-1.2-0.4-1.9-0.3c-0.6,0.1-1.2,0.4-1.6,0.9c-0.3,0.6-0.4,1.2-0.3,1.9c0.5,1.9,1.7,3.6,3.3,4.7c0.6,0.4,1.2,0.6,1.9,0.7
	c0.7,0,1.3-0.2,1.9-0.6c0.5-0.4,1-0.9,1.5-1.4c0.9-1,1.5-2.3,1.7-3.6v-1c0-0.3-0.1-0.6-0.3-0.9c-0.4-0.5-1-0.8-1.6-0.9
	c-0.6-0.1-1.3,0-1.9,0.4C28.8,43.4,28.3,43.9,28,44.6z"/>
<path style="fill:#D66A49;" d="M28,45.1c0.1-0.3,0.3-0.5,0.5-0.7c0.5-0.8,1.4-1.4,2.4-1.6c0.7,0,1.3,0.3,1.7,0.7
	c0.4,0.5,0.5,1.2,0.4,1.9c-0.3,1.2-0.8,2.4-1.6,3.3c-0.3,0.5-0.8,0.9-1.2,1.3c-0.5,0.4-1.1,0.7-1.7,0.9c-0.7,0-1.3-0.2-1.9-0.5
	c-0.5-0.4-1-0.8-1.5-1.2c-0.9-1-1.5-2.1-1.9-3.3c-0.2-0.7-0.2-1.4,0.1-2c0.2-0.3,0.4-0.6,0.7-0.7c0.3-0.2,0.7-0.2,1-0.3
	c0.7-0.1,1.3,0.1,1.9,0.5C27.4,43.8,27.8,44.4,28,45.1z M28,45.1c-0.3-0.6-0.7-1.1-1.2-1.5c-0.5-0.4-1.1-0.5-1.8-0.4l-0.7,0.4
	c-0.3,0.1-0.5,0.4-0.6,0.6c-0.2,0.6-0.2,1.2,0,1.7c0.3,1.1,0.9,2.2,1.8,3c0.4,0.5,0.8,0.9,1.4,1.2c0.5,0.3,1,0.5,1.6,0.5
	c0.6-0.1,1.2-0.4,1.6-0.7c1.5-1.2,2.4-2.9,2.7-4.7c0.1-0.6,0-1.3-0.5-1.7c-0.4-0.4-1-0.6-1.5-0.6c-0.6,0-1.2,0.2-1.6,0.6
	C28.6,44,28.2,44.5,28,45.1z"/>
<path style="fill:#FFFFFF;" d="M17,32.3c-0.3-0.1-0.7-1.2,0.6-2s2-0.6,2.1-0.2S18,32.6,17,32.3z"/>
<path style="fill:#FFFFFF;" d="M23.5,35.2c0,0-0.7-0.8-0.3-1c0.4-0.1,0.8,0,1,0.4c0.2,0.3,0.6,0.7,0.2,1S23.5,35.2,23.5,35.2z"/>
<path style="fill:#FFFFFF;" d="M32,30.1c0,0,1.4-0.8,2-0.3s-0.5,1.2-0.9,1.6s-1,1.3-1.8,0.7S32,30.1,32,30.1z"/>
<path style="fill:#D66A49;" d="M14.3,32.8c0,1.6,0.2,3.1,0.6,4.6c0.2,0.6,0.6,1.1,1,1.5c0.4,0.5,0.9,0.9,1.5,1.2
	c1.1,0.5,2.4,0.7,3.6,0.6c0.5-0.1,1-0.3,1.4-0.6c0.8-0.5,1.6-1.1,2.2-1.8c-0.4,0.9-1,1.8-1.7,2.5c-0.6,0.4-1.2,0.6-1.9,0.7
	c-0.7,0.1-1.4,0.1-2.1,0c-0.7-0.1-1.3-0.3-1.9-0.6c-0.8-0.3-1.4-0.8-2-1.4c-0.4-0.6-0.7-1.3-0.9-2c-0.2-0.7-0.2-1.3-0.2-2
	C13.9,34.6,14.1,33.7,14.3,32.8z"/>
<path style="fill:#D66A49;" d="M30.2,37.7c0.4,0.5,0.9,1,1.5,1.3c0.4,0.3,0.9,0.6,1.4,0.7c1.1,0.3,2.3,0.4,3.5,0.3l0.9-0.1
	c0.2-0.1,0.4-0.2,0.6-0.3c0.5-0.3,1-0.6,1.5-1c0.9-1,1.5-2.3,1.6-3.6c0.2,1.6-0.2,3.2-1.2,4.5c-0.8,0.9-1.9,1.4-3.1,1.4
	c-0.6,0.1-1.2,0.1-1.8,0c-0.3,0-0.7,0-1-0.1l-1-0.3c-0.6-0.1-1.1-0.4-1.6-0.8C30.9,39.1,30.5,38.5,30.2,37.7z"/>
<path style="fill:#D66A49;" d="M26.3,39.7c-0.1,0.4-0.1,0.7,0,1.1c0,0.3,0.2,0.7,0.5,0.9c0.1,0.1,0.3,0.2,0.5,0.3
	c0.2,0.1,0.3,0.1,0.5,0.1c0.4,0,0.7-0.1,1-0.3c-0.4,0.5-1,0.7-1.6,0.4c-0.2-0.1-0.4-0.2-0.5-0.3c-0.3-0.3-0.5-0.7-0.5-1.1
	C26.1,40.4,26.1,40,26.3,39.7z"/>
<path style="fill:#B55061;" d="M23.9,59.7c0.5-0.5,1.1-0.8,1.7-1.1c0.6-0.3,1.3-0.4,2-0.5c0.7-0.1,1.4,0,2,0.2
	c0.6,0.2,1.2,0.5,1.8,0.8c-0.7-0.1-1.3-0.2-1.9-0.3c-0.6-0.1-1.3-0.1-1.9,0C26.3,59,25.1,59.3,23.9,59.7z"/>
<path style="fill:#FFFFFF;" d="M14.5,34.7c0.3,1.2,0.9,2.4,1.9,3.2c0.7,0.7,1.6,1.1,2.5,1.2c1,0.2,2,0.1,3-0.2
	c1.2-0.4,2.3-1.1,3.1-2.1c-0.4,0.6-0.9,1.2-1.4,1.8c-0.4,0.4-0.9,0.8-1.4,1.1c-0.6,0.2-1.2,0.4-1.8,0.4c-0.6,0-1.2,0-1.8-0.1
	c-0.6-0.1-1.2-0.4-1.7-0.8c-0.5-0.3-0.9-0.8-1.2-1.3C15.1,37,14.7,35.9,14.5,34.7z"/>
<path style="fill:#FFFFFF;" d="M29.7,35.6c0.6,1,1.5,1.9,2.5,2.6c0.5,0.3,1.1,0.5,1.7,0.7c0.1,0,0.3,0.1,0.4,0.1h1.2
	c0.3,0,0.6-0.1,0.9-0.2l0.4-0.1l0.4-0.2c0.3-0.1,0.6-0.2,0.8-0.4c0.1-0.1,0.2-0.2,0.4-0.2c0.1-0.1,0.2-0.2,0.4-0.2
	c1-0.7,1.7-1.9,1.8-3.1c0.1,1.4-0.5,2.7-1.5,3.6c-0.5,0.4-1.1,0.8-1.7,1l-0.5,0.2l-0.5,0.1c-0.3,0.1-0.7,0.2-1,0.2
	c-1.3,0.2-2.7-0.2-3.8-1C30.8,37.8,30.1,36.8,29.7,35.6z"/>
<path style="fill:#420019;" d="M26.1,38.9c0.3,0.2,0.5,0.5,0.8,0.7c0.2,0.2,0.5,0.4,0.8,0.5h0.4c0.2,0,0.3-0.1,0.4-0.1
	c0.3-0.2,0.5-0.4,0.6-0.7c0,0.2,0,0.4-0.1,0.5c-0.1,0.2-0.2,0.4-0.4,0.5c-0.2,0.1-0.3,0.2-0.5,0.2c-0.2,0.1-0.4,0.1-0.6,0
	c-0.4-0.1-0.7-0.4-0.9-0.7C26.5,39.6,26.3,39.3,26.1,38.9z"/>
<path style="fill:#C3402B;" d="M17.7,43.6c0,0-1.3,6.7,3,7.9s6.5-2.8,6-4c-0.2-0.8-1-1.2-1.7-1c0,0,0,0-0.1,0
	c-0.2,0-0.3,0.1-0.4,0.2c-0.9,0.5-1.5,1.2-2.3,0.9s-2.1-1.2-1.1-3.7"/>
<path style="fill:#99242C;" d="M17.8,43.6c-0.1,1.1,0,2.3,0.1,3.4c0.1,1.1,0.5,2.1,1.1,3c0.6,0.9,1.6,1.5,2.7,1.6
	c1.1,0.1,2.2-0.2,3.1-0.9c0.4-0.3,0.8-0.7,1.1-1.2c0.3-0.4,0.5-0.9,0.5-1.4v-0.5c0-0.1-0.1-0.1-0.1-0.2c-0.3-0.5-0.9-0.8-1.5-0.5
	c-0.1,0-0.1,0-0.2,0.1c-0.2,0.1-0.5,0.3-0.7,0.4c-0.2,0.2-0.5,0.3-0.8,0.4c-0.2,0.1-0.3,0.1-0.5,0.1c-0.2,0-0.4,0-0.5-0.1
	c-0.3-0.1-0.6-0.3-0.8-0.6c-0.2-0.2-0.4-0.5-0.5-0.8c-0.1-0.3-0.1-0.6-0.1-0.9c0-0.6,0.2-1.2,0.5-1.7h0.1C21.1,44.4,21,45,21,45.6
	c0,0.3,0.1,0.5,0.2,0.8c0.1,0.2,0.3,0.4,0.4,0.6c0.2,0.2,0.4,0.3,0.6,0.4c0.2,0.1,0.4,0.1,0.6,0c0.4-0.2,0.9-0.6,1.4-0.8
	c0.3-0.2,0.6-0.3,0.9-0.3c0.4-0.1,0.8,0,1.1,0.2c0.3,0.2,0.5,0.5,0.7,0.8c0,0.1,0.1,0.1,0.1,0.2v0.8c-0.1,0.6-0.3,1.2-0.7,1.7
	c-0.4,0.5-0.8,0.9-1.3,1.2c-1,0.6-2.2,0.9-3.4,0.8c-0.6,0-1.2-0.2-1.7-0.4c-0.6-0.2-1.1-0.6-1.5-1.1c-0.8-0.9-1.2-2.1-1.2-3.3
	C17.2,46,17.4,44.8,17.8,43.6L17.8,43.6z"/>
<path style="fill:#C3402B;" d="M38.1,42.3c0,0,2.7,6.4-1.1,8.4s-8.6-1.7-6.5-4c1.6-1.8,3.7,0.9,4.6,0.9c1.1,0.1,1.5-1.2,1.4-1.9"/>
<path style="fill:#99242C;" d="M38.1,42.3c0.5,1,0.9,2.1,1.1,3.2c0.1,0.6,0.1,1.2,0.1,1.8c0,0.6-0.2,1.2-0.4,1.7
	c-0.3,0.5-0.7,1-1.1,1.4c-0.5,0.3-1,0.6-1.6,0.7c-1.1,0.3-2.3,0.3-3.4,0c-1.2-0.3-2.2-1.1-2.8-2.1c-0.3-0.6-0.4-1.3-0.1-1.9
	c0.1-0.3,0.3-0.6,0.6-0.8c0.5-0.5,1.2-0.7,1.9-0.5c0.3,0.1,0.6,0.2,0.9,0.4c0.5,0.3,1,0.6,1.4,1c0.1,0.1,0.2,0.2,0.3,0.2
	c0.1,0.1,0.2,0.1,0.3,0.1c0.2,0,0.4-0.1,0.6-0.2c0.4-0.4,0.6-0.9,0.6-1.5h0.1c0.1,0.3,0.1,0.6,0,0.9c-0.1,0.3-0.2,0.6-0.4,0.8
	C36,47.8,35.7,48,35.3,48c-0.2,0-0.4,0-0.5-0.1c-0.1-0.1-0.3-0.1-0.4-0.2c-0.5-0.3-1-0.6-1.4-0.8c-0.4-0.2-0.9-0.3-1.4-0.2
	c-0.4,0.2-0.8,0.5-1,0.9c-0.2,0.4-0.2,0.9,0,1.3c0.2,0.5,0.6,0.9,1,1.2c0.4,0.3,0.9,0.6,1.4,0.8c1,0.4,2.1,0.5,3.2,0.2
	c0.5-0.2,1-0.4,1.4-0.8c0.4-0.3,0.7-0.8,0.8-1.3c0.3-1,0.4-2.1,0.3-3.2C38.6,44.7,38.4,43.5,38.1,42.3L38.1,42.3z"/>
<path style="fill:#6D1927;" d="M14,28.1c0.2,0.1,0.5,0.1,0.8,0.2s0.4,0.1,0.7,0.1H17l-0.3,0.3c-0.1,0.1-0.2,0.2-0.4,0.2
	c-0.3,0.1-0.6,0.2-0.9,0.1c-0.3,0-0.6-0.1-0.8-0.3C14.3,28.6,14.1,28.4,14,28.1z"/>
<path style="fill:#6D1927;" d="M23,26.5c0.1,0.3,0.3,0.7,0.4,1c0,0.1,0.1,0.2,0.1,0.4s0.1,0.3,0.2,0.5c-0.2,0.1-0.4,0-0.6-0.1
	c-0.2-0.1-0.3-0.3-0.4-0.5c-0.1-0.2-0.1-0.4,0-0.6C22.7,27,22.8,26.7,23,26.5z"/>
<path style="fill:#6D1927;" d="M42.2,28.3c-0.1,0.3-0.3,0.5-0.5,0.7c-0.2,0.2-0.5,0.3-0.8,0.3c-0.3,0-0.6,0-0.9-0.1
	c-0.1-0.1-0.3-0.1-0.4-0.2l-0.3-0.3h1.5c0.2,0,0.5,0,0.7-0.1C41.7,28.5,42,28.4,42.2,28.3z"/>
<path style="fill:#6D1927;" d="M39,26.3c0,0.3-0.1,0.5-0.3,0.7c-0.2,0.2-0.4,0.3-0.7,0.4c-0.3,0.1-0.5,0.1-0.8,0.1
	c-0.3,0-0.5-0.1-0.8-0.2c0.2-0.2,0.5-0.3,0.7-0.4c0.2-0.1,0.4-0.2,0.6-0.2l0.6-0.2C38.5,26.5,38.8,26.4,39,26.3z"/>
<path style="fill:#99242C;" d="M35.2,25.4c0.2,0.2,0.2,0.5,0.2,0.8c0,0.3-0.1,0.5-0.3,0.7c-0.2,0.2-0.4,0.4-0.6,0.5
	c-0.1,0-0.2,0.1-0.4,0.1h-0.4c0.1-0.1,0.1-0.2,0.2-0.3l0.2-0.2l0.4-0.4c0.1-0.1,0.2-0.3,0.3-0.4L35.2,25.4z"/>
<path style="fill:#6D1927;" d="M32.8,25.6c0.2,0.1,0.3,0.3,0.3,0.5c0.1,0.2,0.1,0.4,0,0.6c-0.1,0.2-0.2,0.4-0.4,0.5
	c-0.2,0.1-0.5,0.2-0.7,0.1c0.1-0.2,0.2-0.3,0.2-0.5c0-0.2,0.1-0.3,0.2-0.4C32.6,26.2,32.7,25.9,32.8,25.6z"/>
<path style="fill:#D66A49;" d="M30.8,47.4c0.1-0.2,0.2-0.4,0.4-0.5c0.2-0.1,0.4-0.2,0.6-0.2c0.4,0,0.8,0.2,1.2,0.4
	c0.6,0.4,1.2,0.8,1.9,1h0.5c0.1,0,0.3-0.1,0.4-0.1c0.3-0.2,0.5-0.5,0.6-0.8c0.2-0.7,0.4-1.5,0.4-2.3c0.2,0.8,0.2,1.6,0.1,2.4
	c-0.1,0.5-0.3,0.9-0.7,1.2c-0.2,0.1-0.5,0.2-0.7,0.3h-0.7c-0.4-0.1-0.8-0.2-1.2-0.5c-0.3-0.3-0.7-0.5-1-0.7
	c-0.3-0.2-0.6-0.4-0.9-0.5C31.4,47,31,47.1,30.8,47.4z"/>
<path style="fill:#D66A49;" d="M25.2,25.3c-0.2,0-0.4,0.1-0.6,0.3c-0.2,0-0.4,0.1-0.6,0.2c-0.2,0.2-0.3,0.6-0.2,0.9
	c0.1,0.6,0.5,1.2,1,1.6c0.3,0.2,0.7,0.2,1,0.1c0.4-0.2,0.6-0.5,0.7-0.9C26.8,26.6,26.4,25.1,25.2,25.3z"/>
<path style="fill:#D66A49;" d="M32.2,26.4c-0.1-0.4-0.5-0.8-0.9-0.9c0-0.2-0.1-0.3-0.3-0.3c-0.6-0.2-1.2,0-1.5,0.5
	c-0.2,0.5-0.1,1,0.2,1.4c0.3,0.5,0.9,0.7,1.4,0.6c0.6,0,1.1-0.5,1.1-1.2c0,0,0,0,0,0V26.4z"/>
<path style="fill:#D66A49;" d="M36.5,26.2c0-0.2-0.1-0.4-0.2-0.6c-0.1-0.2-0.2-0.3-0.3-0.5c-0.2-0.2-0.6-0.3-0.9-0.2
	c-0.1-0.1-0.3-0.1-0.4,0c-0.6,0.3-1,0.9-0.8,1.6c0.1,0.7,0.8,1.2,1.5,1.1l0,0c0.1,0,0.2-0.1,0.4-0.1c0.2-0.1,0.4-0.2,0.5-0.4
	C36.4,26.8,36.6,26.5,36.5,26.2z"/>
<path style="fill:#D66A49;" d="M45.3,31c-0.2-0.7-0.8-1.3-1.6-1.5h-0.4c-0.2-0.2-0.4-0.1-0.6,0c0,0-0.1,0.1-0.1,0.2l0,0
	c-0.2,0.6-0.2,1.3,0.2,1.8c0.2,0.6,0.8,1,1.4,1.1c0.7-0.1,1.2-0.6,1.1-1.3V31z"/>
<path style="fill:#D66A49;" d="M34.5,42c-0.2,0-0.4,0.1-0.6,0.2c-0.1,0-0.2,0.1-0.3,0.2l0,0c-0.2,0.2-0.3,0.4-0.3,0.7
	c-0.3,0.7-0.1,1.5,0.5,2c0.7,0.4,1.7,0.1,2.1-0.6c0.1-0.2,0.2-0.4,0.2-0.6c0.2-0.9-0.4-1.8-1.3-2C34.7,42,34.6,42,34.5,42z"/>
<path style="fill:#D66A49;" d="M20.4,25.4c-0.7-0.2-1.4-0.1-2,0.1c-0.1,0-0.3,0.1-0.3,0.2c-0.2,0.1-0.4,0.3-0.4,0.6
	c-0.2,0.5,0.1,1.1,0.6,1.3c0,0,0,0,0,0c0.1,0,0.2,0.1,0.3,0.1c0.6,0.1,1.3-0.2,1.6-0.8v-0.1c0.2-0.1,0.4-0.3,0.5-0.6
	C20.8,25.9,20.7,25.6,20.4,25.4z"/>
<path style="fill:#D66A49;" d="M13.7,30.3c-0.2-0.5-0.8-0.7-1.2-0.4c0,0-0.1,0-0.1,0c-0.1,0-0.1,0-0.1,0.1l0,0c-0.1,0-0.2,0-0.3,0.1
	c-0.6,0.3-0.9,1-0.7,1.7c0,0,0,0.1,0.1,0.1l0,0c0.4,0.6,1.1,0.8,1.7,0.5C13.7,31.9,14,31.1,13.7,30.3z"/>
<path style="fill:#D66A49;" d="M44.1,34.7h-0.2c-0.1-0.1-0.3-0.2-0.4-0.1c-1,0.2-1.3,2.2-0.2,2.5c0.6,0.2,1.2-0.5,1.4-1
	C44.9,35.6,44.6,35,44.1,34.7z"/>
<path style="fill:#D66A49;" d="M41.9,39.6c-0.6-0.1-1.1,0.2-1.4,0.7c-0.5,0.2-0.8,0.8-0.6,1.3c0,0,0,0,0,0c0,0.1,0.1,0.2,0.2,0.3
	c0.7,0.6,1.6,0,2-0.6c0.2-0.2,0.3-0.5,0.4-0.8C42.6,40.1,42.3,39.7,41.9,39.6z"/>
<path style="fill:#D66A49;" d="M18.1,42.6c-0.4-0.4-1.1-0.9-1.6-0.4l0,0c-0.3,0-0.5,0.2-0.5,0.4c0,0,0,0,0,0.1v0.2
	c0.1,0.4,0.4,0.9,0.7,1.2c0.3,0.5,0.9,0.6,1.4,0.3c0,0,0,0,0,0c0.1,0,0.1,0,0.1-0.1C18.6,43.8,18.6,43.1,18.1,42.6z"/>
<path style="fill:#99242C;" d="M25.7,26.1c-0.2-0.2-0.8-0.2-0.9-0.2c-0.3,0-0.5,0.2-0.5,0.4c0,0,0,0,0,0.1c-0.1,0.4,0,0.8,0.3,1.1
	c0.2,0.2,0.6,0.3,0.9,0.2c0.3-0.1,0.5-0.4,0.6-0.7C26.1,26.7,25.9,26.4,25.7,26.1z"/>
<path style="fill:#99242C;" d="M13,30.6c-0.1-0.1-0.7-0.1-0.7-0.1c-0.2,0-0.4,0.2-0.4,0.4c0,0.3,0,0.6,0.2,0.9
	c0.2,0.2,0.4,0.3,0.7,0.2c0.2-0.1,0.4-0.3,0.5-0.5C13.3,31.2,13.2,30.9,13,30.6z"/>
<path style="fill:#99242C;" d="M31.2,25.7c-0.1-0.2-0.8-0.1-0.8-0.1c-0.3,0-0.5,0.2-0.5,0.4c0,0,0,0,0,0.1c-0.1,0.3,0,0.7,0.2,1
	c0.2,0.2,0.5,0.3,0.8,0.2c0.3-0.1,0.5-0.3,0.6-0.6C31.6,26.4,31.5,26,31.2,25.7z"/>
<path style="fill:#99242C;" d="M35.7,25.5c-0.1-0.2-0.7-0.1-0.7-0.1c-0.2,0-0.4,0.3-0.4,0.5c-0.1,0.3,0,0.7,0.2,1
	c0.2,0.2,0.4,0.3,0.7,0.2c0.3-0.1,0.4-0.3,0.5-0.6C36,26.2,35.9,25.8,35.7,25.5z"/>
<path style="fill:#99242C;" d="M16.9,42.5c-0.2-0.1-0.4,0-0.5,0.2c-0.1,0.2-0.1,0.4,0,0.6c0.1,0.3,0.3,0.6,0.6,0.8
	c0.2,0.1,0.4,0.1,0.5-0.1l0,0c0.1-0.2,0.1-0.5,0-0.7C17.5,43,17.2,42.7,16.9,42.5z"/>
<path style="fill:#99242C;" d="M42.2,40.6c0-0.2-0.3-0.5-0.3-0.5c-0.2,0-0.4,0-0.6,0.1c-0.3,0.2-0.5,0.5-0.6,0.8
	c-0.1,0.2,0,0.4,0.2,0.5c0,0,0,0,0,0l0,0c0.3,0,0.5,0,0.7-0.2C41.9,41.2,42.1,40.9,42.2,40.6z"/>
<path style="fill:#99242C;" d="M44.4,35.7c0-0.2-0.3-0.4-0.3-0.5c-0.2-0.1-0.4-0.1-0.5,0.1c-0.2,0.2-0.4,0.4-0.4,0.7
	c0,0.2,0.1,0.4,0.3,0.5c0.2,0.1,0.4,0,0.6-0.1C44.3,36.2,44.4,36,44.4,35.7z"/>
<path style="fill:#99242C;" d="M44,30.1c-0.2-0.1-0.7,0.1-0.7,0.2c-0.2,0.1-0.2,0.4-0.1,0.7c0.1,0.4,0.4,0.7,0.7,0.9
	c0.2,0.1,0.5,0.1,0.7-0.1c0.2-0.3,0.2-0.6,0.1-0.9C44.6,30.6,44.4,30.3,44,30.1z"/>
<path style="fill:#99242C;" d="M18.3,26.1c-0.1,0.2-0.1,0.5,0,0.7c0.2,0.2,0.4,0.3,0.7,0.2c0.4-0.1,0.8-0.2,1.1-0.5
	c0.2-0.2,0.2-0.5,0-0.7c0,0,0,0,0,0c-0.2-0.2-0.5-0.3-0.8-0.3C18.8,25.7,18.5,25.8,18.3,26.1z"/>
<path style="fill:#99242C;" d="M35.3,43.2c0-0.2-0.5-0.4-0.6-0.5s-0.5,0.1-0.6,0.3c-0.2,0.3-0.3,0.7-0.3,1.1c0,0.3,0.2,0.5,0.4,0.5
	c0,0,0,0,0.1,0c0.3-0.1,0.6-0.2,0.7-0.5C35.2,43.9,35.3,43.6,35.3,43.2z"/>
<path style="fill:#6D1927;" d="M16.9,26.3c0.2,0.1,0.5,0.2,0.7,0.3l0.6,0.2c0.2,0.1,0.4,0.2,0.6,0.2c0.3,0.1,0.5,0.2,0.7,0.4
	c-0.2,0.1-0.5,0.2-0.8,0.2c-0.3,0-0.5,0-0.8-0.1c-0.3-0.1-0.5-0.2-0.7-0.4C17.1,26.8,17,26.6,16.9,26.3z"/>
<path style="fill:#6D1927;" d="M20.6,25.6c0.1,0.2,0.2,0.4,0.4,0.6c0.1,0.2,0.2,0.3,0.3,0.4l0.4,0.4l0.2,0.2
	c0.1,0.1,0.1,0.2,0.2,0.3h-0.4c-0.1,0-0.2-0.1-0.4-0.1c-0.2-0.1-0.4-0.3-0.6-0.5c-0.2-0.2-0.3-0.4-0.3-0.7
	C20.4,26,20.5,25.8,20.6,25.6z"/>
<path style="fill:#6D1927;" d="M43,31.3c-0.2,0.2-0.4,0.3-0.6,0.4c-0.2,0.1-0.5,0.1-0.7,0c-0.5-0.1-0.9-0.4-1.1-0.8h0.7l0.5,0.1
	l0.5,0.1C42.5,31.1,42.8,31.2,43,31.3z"/>
<path style="fill:#6D1927;" d="M29.5,35c-0.3-1-0.5-2-0.4-3c0-1.1,0.3-2.2,0.9-3.1c0.6-1,1.5-1.7,2.6-2.1c1-0.4,2.1-0.5,3.2-0.4
	c0.3,0,0.5,0,0.8,0.1c0.3,0,0.6,0.1,0.8,0.2c1.7,0.5,2.9,1.9,3.3,3.6c0.2,0.5,0.3,1,0.4,1.5c0.1,0.4,0.3,0.9,0.5,1.3
	c0.2,0.4,0.5,0.8,0.8,1.1c0.4,0.3,0.8,0.6,1.2,0.9c-0.5-0.2-0.9-0.3-1.4-0.5c-0.5-0.2-0.9-0.6-1.2-1c-0.3-0.4-0.6-0.9-0.8-1.4
	c-0.2-0.5-0.4-0.9-0.6-1.3c-0.4-0.8-0.9-1.4-1.6-1.9c-0.3-0.2-0.6-0.4-1-0.5c-0.2-0.1-0.4-0.1-0.6-0.1l-0.7-0.2
	c-0.9-0.1-1.8,0-2.6,0.2c-0.8,0.2-1.5,0.7-2,1.3c-0.5,0.7-0.9,1.5-1.2,2.4C29.7,33.1,29.5,34,29.5,35z"/>
<path style="fill:#6D1927;" d="M26.5,34.1c-0.3-1.6-1.2-3.1-2.4-4.2c-0.6-0.5-1.3-0.8-2-1c-0.8-0.2-1.5-0.2-2.3-0.1
	c-1.5,0.2-2.9,0.9-3.9,2.1c-0.5,0.6-1,1.4-1.6,2c-0.3,0.4-0.7,0.6-1.2,0.8c-0.5,0.1-1,0.1-1.4-0.1c0.4,0,0.8-0.1,1.1-0.3
	c0.3-0.3,0.5-0.6,0.7-0.9c0.4-0.7,0.7-1.5,1.2-2.3c0.3-0.4,0.6-0.8,0.9-1.1c1.5-1.4,3.5-2.1,5.5-1.8c0.5,0.1,1,0.2,1.4,0.3
	c1.9,0.6,3.4,2.2,3.8,4.1C26.6,32.4,26.7,33.3,26.5,34.1z"/>
<path style="fill:#6D1927;" d="M12.9,30.6c0.2-0.1,0.4-0.1,0.6-0.2l0.5-0.1l0.5-0.1h0.6C14.9,30.7,14.5,31,14,31
	c-0.2,0.1-0.5,0.1-0.7,0C13.2,31,13,30.8,12.9,30.6z"/>
<path style="fill:#D66A49;" d="M20.2,44.7c0,0.7,0.1,1.5,0.3,2.2c0.2,0.6,0.7,1.1,1.4,1.3c0.3,0.1,0.6,0.1,0.9,0.1
	c0.3-0.1,0.6-0.2,0.9-0.4c0.3-0.2,0.7-0.4,1-0.6c0.2-0.1,0.4-0.1,0.6-0.2c0.2,0,0.4,0,0.6,0.1c-0.4-0.1-0.7,0.1-1,0.3
	c-0.3,0.3-0.6,0.5-0.9,0.7c-0.3,0.3-0.7,0.5-1.1,0.6c-0.2,0.1-0.5,0.1-0.7,0.1c-0.2,0-0.4,0-0.6-0.1c-0.4-0.1-0.8-0.4-1.1-0.7
	c-0.3-0.3-0.5-0.7-0.6-1.1c-0.1-0.4-0.1-0.8,0-1.2C20,45.5,20.1,45.1,20.2,44.7z"/>
<path style="fill:#2F0016;" d="M29.5,35c-0.1-0.9,0-1.9,0.1-2.8c0.2-0.8,0.8-2.8,1.9-3.4c1.6-0.9,3.4-1.2,5.2-0.7
	c1.3,0.3,2.4,1.1,3.1,2.2c0.4,0.7,1,2.2,1.3,2.6c0.6,0.6,1.3,1.2,2,1.7c0.6,0.4,0.4,0.5-0.5,0c-1-0.4-1.8-1.1-2.2-2.1
	c-0.6-1.2-2.2-3.8-4.1-4.1c-2.5-0.4-4.8,0-6.1,2.8C29.9,32.4,29.6,33.7,29.5,35z"/>
<path style="fill:#2F0016;" d="M26.5,34.7c0,0-0.2-4-2.7-5.4c-1.4-1-3.2-1.3-4.9-0.9c-1.8,0.6-3.3,1.9-4.2,3.5
	c-0.6,1.1-1.8,1.7-3,1.6c0.8,0.3,1.7,0.7,3-1.1c1.4-2.2,3.8-3.6,6.4-3.8C23.9,29.4,26,31.8,26.5,34.7z"/>
<path style="fill:#420019;" d="M26.6,39.7c0,0-0.2,0.1-0.2,0.6c0,0.2,0,0.3,0.1,0.5c0,0,0.1-1,0.3-0.8c0.1,0.2,0.5,0.8,1.1,0.8
	c0.3-0.1,0.5-0.3,0.6-0.6c0.1-0.2,0.2,0,0.3,0.1c0,0.3,0.1,0.6,0.1,0.8c0,0.1,0,0.1-0.1,0.2c0.1-0.3,0.2-0.7,0.1-1
	c-0.1-0.2-0.1-0.6-0.3-0.5c-0.1,0-0.2,0.1-0.3,0.2c0,0.2-0.1,0.3-0.3,0.3c0,0,0,0,0,0c-0.3,0-0.5-0.1-0.7-0.3
	C27,39.9,26.9,39.6,26.6,39.7z"/>
</svg>
