<?xml version="1.0" encoding="utf-8"?>
<!-- Generator: Adobe Illustrator 22.0.0, SVG Export Plug-In . SVG Version: 6.00 Build 0)  -->
<svg version="1.1" id="Слой_1" xmlns="http://www.w3.org/2000/svg" xmlns:xlink="http://www.w3.org/1999/xlink" x="0px" y="0px"
	 viewBox="0 0 55.8 62.9" style="enable-background:new 0 0 55.8 62.9;" xml:space="preserve">
<title>05_1</title>
<path style="fill:#F4E599;" d="M32.1,60.9H18.8c-0.1,0-0.2,0-0.3-0.1c-0.3-0.2-0.4-0.6-0.5-0.9c0-0.3,0.2-0.6,0.5-0.8l6.4-4v-6.6
	c-0.3,0-0.5-0.2-0.7-0.4c-0.2-0.2-0.3-0.6-0.3-0.9v-0.3c-0.4-0.5-0.6-1.1-0.8-1.7c-1.1-0.6-3.4-2.1-3.5-2.1
	c-0.6-0.3-1.2-0.7-1.7-1.1l0.7,1.2c0.3,0.4,0.7-3.9,0.5-3.4c-0.1,0.3-0.4,0.4-0.7,0.5c0.4,0.8,0.4,1.7,0.2,2.6
	c-0.1,0.2-0.3,0.4-0.5,0.5c-0.1,0.1-0.3,0.1-0.4,0.1c-0.2,0-0.3-0.1-0.4-0.2l-0.2,0.1h-0.3c-0.2,0-0.4,0-0.6-0.1
	c-0.1,0-0.2-0.1-0.3-0.1c-0.1,0.1-0.3,0.1-0.4,0.1l0,0c-0.4,0-0.7-0.2-0.9-0.5c-2-1.9-3.4-4.2-4.2-6.7v-1.8c0-0.1,0-0.2,0.1-0.3
	l-0.1-0.1c-1.9-3.3-2.6-7.2-1.9-11c-0.2-0.3-0.2-0.7-0.1-1c0.1-0.3,0.4-0.6,0.7-0.8c0.5-1,1.3-1.8,2.3-2.3c1.8-3.6,3.9-6.1,6.3-7.5
	c0.1-0.6,0.7-1,1.3-0.9c0.3-0.2,0.9-0.5,1.4-0.8L21.5,9L22,8.1c0.3-0.6,0.6-1.1,0.7-1.4c-0.1-0.4,0-0.8,0.2-1.1
	c0.2-0.2,0.5-0.4,0.8-0.4l0,0c0.6-0.7,1.4-1.3,2.3-1.6c0.3-0.1,0.5-0.2,0.8-0.2c0.4,0,0.8,0.1,1.2,0.2c1.1,0.4,2,1.2,2.5,2.2L30.6,6
	c0.3,0.1,0.6,0.4,0.7,0.7c0.1,0.2,0.1,0.4,0.1,0.6c0,0.1,0.1,0.2,0.1,0.3c0.6,0.8,1.3,1.5,2.2,2.1c0.2,0.1,0.3,0.1,0.5,0.2l0.6,0.3
	c0.1,0.1,0.2,0.1,0.4,0.2l0.6,0.3c0.2-0.1,0.5-0.1,0.7-0.1c0.5,0,1,0.4,1,0.9c0,0,0,0.1,0,0.1c0.4,0.3,0.8,0.6,1.1,1
	c1.7,1,3.1,2.5,4.1,4.2c0.3,0.1,0.6,0.3,0.8,0.5c0.2,0.3,0.3,0.7,0.2,1.1c0.6,1.1,1,2.3,1.4,3.5c0.1,0.2,0.1,0.4,0.2,0.5v0.1
	c0.1,0.3,0.3,0.6,0.5,0.8c1.2,0.8,1.7,2.4,1.5,4.9c0.2,0.3,0.3,0.7,0.2,1.1c-0.1,0.4-0.4,0.7-0.8,0.9c-0.2,0.7-0.5,1.4-0.9,2.1
	c-0.2,0.4-0.4,0.8-0.7,1.2c0,0.1,0,0.1,0.1,0.2s1.2,3.8-0.5,6.5c-1.2,2.2-3.6,3.6-6.1,3.5l0,0c-0.6,0-1.2-0.1-1.7-0.4
	c-0.2,0.7-0.9,1.2-1.6,1.2h-0.1c-0.8,0.5-2.7,1.5-3.3,1.8c-0.2,0.6-0.6,1.1-1,1.5l0.1,7l6.6,4l0.1,0.1c0.3,0.3,0.4,0.8,0.3,1.2
	c-0.1,0.3-0.5,0.5-0.8,0.5L32.1,60.9z"/>
<path style="fill:#FFFFFF;" d="M26.8,4c0.4,0,0.7,0.1,1.1,0.1c1.2,0.2,1.8,1.4,2.5,2.3C31.3,6.7,31,7.3,31,7.3
	c0,0.1,0.1,0.3,0.2,0.4c0.7,0.9,1.5,1.8,2.5,2.4c0.3,0.2,0.8,0.3,1.1,0.5c0.4,0.2,0.9,0.4,1.3,0.6c0.2-0.1,0.5-0.2,0.7-0.2
	c0.7,0,0.5,0.8,0.5,0.8c0.5,0.3,0.9,0.6,1.2,1.1c1.7,1,3.1,2.5,4.1,4.3c1,0.1,0.9,0.9,0.8,1.3c0.7,1.3,1.2,2.7,1.6,4.1
	c0.1,0.4,0.3,0.8,0.6,1.1c1.7,1,1.5,3.7,1.4,4.6c0.7,1-0.5,1.6-0.5,1.6c-0.2,0.8-0.5,1.6-0.9,2.4c-0.3,0.6-0.6,1.2-1,1.8l0,0v-0.2
	l0,0c0.1-0.1,0.1-0.2,0.2-0.2s0.1,0.1,0.2,0.2s1.1,3.6-0.4,6.1c-1.1,2.1-3.3,3.4-5.7,3.3h-0.1c-0.6,0-1.2-0.2-1.7-0.6L36.8,43
	c0,0.6-0.5,1.1-1.2,1.1c0,0,0,0,0,0h-0.2c-1.2,0.8-2.4,1.4-3.6,2c-0.2,0.6-0.5,1.2-1,1.7l0.1,7.5l6.8,4.1c0,0,0.7,0.8-0.2,0.9H18.8
	c0,0-0.6-0.5,0-0.9l6.6-4.2l0.1-7.4h-0.1c-1.2,0-0.9-1.2-0.9-1.2l0,0c-0.5-0.6-0.8-1.3-0.9-2c-1-0.5-3.7-2.2-3.7-2.2
	s-1.1-0.7-1.8-1.2l0,0l-0.4-0.3c-0.3-0.2-0.7-0.4-1-0.6h-0.2c0.4,0.8,1.6,2.8,1.6,2.8c0.2,0.2,0.9-3.6,0.1-3.6h-0.5
	c0.5,1.5,0.9,3,0.1,3.2c-0.1,0-0.1,0.1-0.2,0.1c-0.2,0-0.3-0.1-0.4-0.2c-0.1,0-0.3,0.1-0.4,0.1h-0.1c-0.2,0-0.3,0-0.4-0.1l0,0
	c-0.2,0-0.3-0.1-0.5-0.2c-0.1,0.1-0.2,0.2-0.4,0.2l0,0c-0.2-0.1-0.4-0.2-0.6-0.3c-2.4-2.2-4-6.4-4-6.4v-1.8c0-0.2,0.1-0.3,0.2-0.4
	l-0.3-0.2c-1.8-3.3-2.5-7.1-1.8-10.8c-0.2-0.4-0.5-0.9,0.4-1.4c0.4-1,1.2-1.8,2.2-2.2c0.6-1.2,2.7-5.6,6.4-7.6
	c0.1-0.5,0.1-0.7,1-0.7c0.6-0.3,2.5-1.5,2.8-1.6C22.1,8.5,22.8,7,23,6.7c0-0.4,0-1.1,0.8-1.1l0,0c0.6-0.7,1.3-1.2,2.2-1.5l0,0
	C26.2,4,26.5,3.9,26.8,4 M44.2,34.6l0.2-0.3C44.2,34.4,44.1,34.5,44.2,34.6 M26.8,3c-0.3,0-0.7,0.1-1,0.2c-0.9,0.3-1.7,0.8-2.3,1.5
	c-0.4,0.1-0.7,0.3-1,0.6c-0.3,0.4-0.4,0.8-0.4,1.3c-0.2,0.3-0.4,0.7-0.7,1.2L21,8.5l-1,0.6l-1.3,0.8c-0.7,0-1.3,0.4-1.5,1.1
	c-3.4,2.1-5.5,5.9-6.3,7.5c-1,0.5-1.8,1.3-2.3,2.3c-0.4,0.2-0.7,0.6-0.8,1c-0.1,0.4-0.1,0.8,0.1,1.2c-0.6,3.8,0.1,7.7,2,11.1v2.1
	c0.1,1,0.3,4.4,3,6.7c0.4,0.3,0.8,0.6,1.2,0.8l1.5,0.1c0.1,0,0.2,0,0.3-0.1h0.2c0.2,0.1,0.5,0.1,0.7,0.1c0.1,0,0.3,0,0.4-0.1l0,0
	c0.2,0.1,0.3,0.1,0.5,0.1c0.2,0,0.4-0.1,0.6-0.2c0.3-0.1,0.6-0.4,0.8-0.7c0.3-0.8,0.3-1.7,0-2.5c0.2-0.1,0.4-0.3,0.5-0.6
	c0.2-0.5-0.1,3.9-0.3,3.5l0,0c1.1,0.7,2.2,1.4,3.3,2c0.1,0.5,0.4,1.1,0.7,1.5c0,0.4,0.1,0.7,0.2,1.1c0.2,0.3,0.5,0.6,0.8,0.7v6
	l-6.1,4c-0.4,0.2-0.7,0.7-0.7,1.2c0,0.5,0.2,1,0.6,1.3c0.2,0.1,0.4,0.2,0.6,0.2h18.7c0.5,0,1-0.3,1.2-0.8c0.2-0.6,0-1.2-0.4-1.7
	c-0.1-0.1-0.2-0.2-0.3-0.2l-6.3-3.8l-0.1-6.6c0.3-0.4,0.6-0.8,0.8-1.3c1-0.5,2-1.1,3-1.7c0.8,0,1.5-0.4,1.9-1.1
	c0.5,0.1,0.9,0.2,1.4,0.2h0.1c2.7,0,5.2-1.4,6.5-3.8c1.6-2.7,0.7-6.3,0.5-6.8c0.3-0.4,0.5-0.8,0.6-1.2c0.3-0.7,0.5-1.4,0.8-2.1
	c0.4-0.3,0.7-0.7,0.8-1.1c0.1-0.4,0.1-0.9-0.1-1.3c0.2-2.5-0.4-4.2-1.7-5.1c-0.1-0.2-0.3-0.4-0.3-0.6l-0.1-0.1l-0.2-0.4
	c-0.4-1.2-0.8-2.3-1.3-3.4c0.1-0.4,0-0.9-0.2-1.3c-0.2-0.3-0.5-0.6-0.9-0.7c-1-1.7-2.4-3.2-4.1-4.2l-0.9-0.9
	c-0.1-0.7-0.8-1.2-1.5-1.2c-0.2,0-0.5,0-0.7,0.1l-0.5-0.3c-0.2-0.1-0.3-0.1-0.4-0.2c-0.2-0.1-0.5-0.2-0.7-0.3
	c-0.1-0.1-0.3-0.1-0.4-0.2c-0.8-0.5-1.4-1.2-2-1.9V7.2c0-0.2,0-0.5-0.1-0.7c-0.2-0.4-0.5-0.7-0.9-0.9l-0.1-0.1
	c-0.6-1.1-1.6-2-2.8-2.4C27.7,3,27.3,3,26.8,3z"/>
<path style="fill:#7C6D2E;" d="M30.6,47.7l0.1,7.6l6.8,4.1c0,0,0.7,0.8-0.2,0.9H18.8c0,0-0.6-0.5,0-0.9l6.6-4.2l0.1-7.4L30.6,47.7z"
	/>
<path style="fill:#A18E35;" d="M26.4,48.6c0,0-0.6,7.2,0.3,7.2s3.5,0.3,3.6-0.2s0-7.5,0-7.5S27.3,49.1,26.4,48.6z"/>
<path style="fill:#A18E35;" d="M34.8,59.4c0,0,1.1,0.1,0.2-0.6s-4.7-3.2-4.7-3.2s-3.6-0.5-4.1,0.2s-2,3.2-2,3.2s-0.2,0.2,0.7,0.2
	S34.8,59.4,34.8,59.4z"/>
<path style="fill:#C6AE3A;" d="M20.2,59.1c-0.1,0-0.5-0.1,0.1-0.4s6.1-3.6,6.1-3.6s0.5,0.2,0,0.7c-0.8,1-1.5,2.1-2.2,3.2L20.2,59.1z
	"/>
<path style="fill:#F5DA31;" d="M38.1,27c0,0,2.2-3.9,3.8-3.8s4.2,1.3,3.4,4.4s-5,10.1-7,11.9s-6.4,3.9-6.7,4.5s-2.6,4.4-4.7,4.1
	c-1.7-0.3-3-1.6-3.3-3.3c-1-0.5-3.7-2.2-3.7-2.2c-0.7-1.2-1.4-2.3-2.2-3.4c-0.6-0.5-7-5.6-7-5.6c-1.8-3.3-2.5-7.1-1.8-10.8
	c-0.2-0.4-0.5-0.9,0.4-1.4c0.4-1,1.2-1.8,2.2-2.2c0.6-1.2,2.7-5.6,6.4-7.6c0.1-0.5,0.1-0.7,1-0.7c0.6-0.3,2.5-1.5,2.8-1.6
	c0.4-0.7,1.1-2.2,1.3-2.5c0-0.5,0-1.2,0.9-1.2c0.5-0.5,1.6-1.6,2.5-1.5s2.2,1.7,2.1,3.6s0,8.9,0,8.9S44.7,16.3,38.1,27z"/>
<path style="fill:#C6AE3A;" d="M27.9,4.1c0,0-1.3-0.3-1.7,0c0,0.2,0.5,0.3,0.9,0.6s0.4,5.5,0.4,6.7s0.5,5.1-0.9,5.3
	s-3.4,0.6-2.9,0.9c2.4-0.3,4.8-0.4,7.2-0.2c1.8,0.3,13.1,3,4.5,6.4c-6.7,1.9-2,1.1-1.6,1.1c0.6,0,3,3.6,0.2,5.1
	c-4.8,1.9-10.3,1.4-14.7-1.4c-2.6-2.2-4.3-4.1-4.2-4.5s0.8-1.1,0-1.4s-2.3-0.3-3.4,2.2c-0.4,1.4,0.1,2,0.8,1.5
	c0.4,1.7,1.3,6.3,4.5,8.9s5.7,6.8,10.1,6c3.6-1.2,6.8-3.4,9-6.5c1.4-1.8,2.7-3.8,3.7-5.8c0.3,0.3,0.5,0.8,0.5,1.2
	c0,0.2,0.3,0.4,0.4-0.1s0.8-1.5-1.2-3.1l-0.7-0.1c0,0,1.3-2.7,2.3-3.1c1.3-0.4,2.7,0.3,3.2,1.6c0.3,1.3-0.5,5.8-4.2,9.8
	c-2.6,2.9-5.5,5.4-8.8,7.4c-0.8,0.8-1.4,1.7-2,2.7c-0.6,0.9-1.5,1.6-2.6,1.9c-0.8,0.1-1.6-0.1-2.3-0.5c0-0.1-0.4,1.2,1,1.2
	c0.7,1.2,2.2,1.7,3.4,1l0.2-0.1c0.1-0.1,0.2-0.1,0.3-0.2c0.9-0.1,2.1-1.8,2.3-2.5c1.2-0.6,2.4-1.2,3.6-2c0.6,0.1,1.2-0.3,1.4-0.9V43
	c0.7-0.6,8.3-9,8.9-10.8l0.9-2.4c0.5-0.1,0.8-0.7,0.7-1.2c0-0.1-0.1-0.3-0.2-0.4c0.1-1,0.3-3.7-1.4-4.6c-0.3-0.3-0.5-0.7-0.6-1.1
	c-0.4-1.4-1-2.8-1.6-4.1c0.1-0.4,0.2-1.2-0.8-1.3c-1-1.8-2.4-3.3-4.1-4.3c-0.4-0.4-0.8-0.8-1.2-1.1c-0.1,0,0.2-1.2-1.3-0.6
	c-0.4-0.2-0.9-0.4-1.3-0.6c-0.4-0.1-0.7-0.3-1.1-0.5c-1-0.6-1.9-1.4-2.5-2.4c0-0.2-0.1-0.3-0.2-0.4c0,0,0.3-0.6-0.6-0.9
	C29.7,5.5,29,4.3,27.9,4.1z"/>
<path style="fill:#A18E35;" d="M28.1,4.5c0,0,2,3.1,2.3,3.3c0.4,0.4,0.8,0.8,1.2,1.3c1.1,1.1,2.3,2,3.7,2.7c1.4,0.5,5.4,3,6.7,5.4
	c0.8,1.4,1.5,2.9,2,4.5c0.1,0.3,0.1,0.5-0.6,0.4c-1.1,0-2.2,0.3-3.2,0.8c-1.1,0.6-2.2,1-3.4,1.4c-0.8,0.2-0.7-0.4,0.4-0.8
	c2.1-1.2,2.9-3.8,1.8-5.9c-0.1-0.2-0.3-0.4-0.4-0.6c-2.3-3.2-7-5.4-8.1-5.8s-1.8-2.1-2.2-4c-0.1-1.1-0.7-2.2-1.5-3
	C26.3,4.1,27.5,3.7,28.1,4.5z"/>
<path style="fill:#F5DA31;" d="M39.6,20.1c0,0,0.8-0.8-0.8-1.6c-2.4-1-5-1.6-7.6-1.9c-1.1-0.2-2.1,0.1-3,0.7
	c1.9-0.1,3.9,0.1,5.8,0.5C35.9,18.5,37.8,19.3,39.6,20.1z"/>
<path style="fill:#A18E35;" d="M43.1,23.5c1.3-0.1,2.4,0.8,2.7,2c0.6,2.2,0.4,5.2-3.1,9.5c-0.8,0.8-1,1.2-1.1,1.2l-0.9-0.6
	c0,0,3.9-5.6,4.1-7.8s-0.2-3.4-1.1-4S42.7,23.5,43.1,23.5z"/>
<path style="fill:#C6AE3A;" d="M17.8,19.4c-0.5-0.3-1-0.6-1.6-0.7c-0.7-0.2-2.7-0.1-2,0.2s3,1.1,3.6,1.8S17.8,19.4,17.8,19.4z"/>
<path style="fill:#F4E599;" d="M23.1,11.7c0,0-2.6-0.6-4.3,3.1s-1.7,4.6-1.4,5.2c0.6,0,7.5-1.9,7.8-2.3S26.9,12.1,23.1,11.7z"/>
<path style="fill:#F4E599;" d="M26.7,6.9c0,0-1.3,2.7-2.6,1.9s-0.2-2.8,0-3.1s1.4-1.7,2.2-1C27,5.2,27.2,6.2,26.7,6.9z"/>
<path style="fill:#F4E599;" d="M26,9.8c0,0-0.6,0-0.6,0.5s0.2,0.9,0.6,0.6S26.5,10,26,9.8z"/>
<path style="fill:#F4E599;" d="M15.7,15c0,0-0.5-0.6-0.9,0s0.1,0.9,0.5,0.9c0.3,0,0.5-0.2,0.5-0.5c0-0.1,0-0.1,0-0.2
	C15.7,14.9,15.8,15,15.7,15z"/>
<path style="fill:#C6AE3A;" d="M29,6.9c-0.2,0-0.4,0.2-0.4,0.5c0,0.1,0,0.1,0.1,0.2c0.3,0.6,0.8,0.2,0.8,0C29.5,7.3,29.3,7,29,6.9z"
	/>
<path style="fill:#F5DA31;" d="M29.3,15.1c0,0-0.8,0.4-0.2,0.9c0.6,0.5,1,0.1,1-0.2S30.1,15.1,29.3,15.1z"/>
<path style="fill:#F5DA31;" d="M34.2,14.4c-0.1,0-0.7,0.5,0,1s1-0.2,0.9-0.5C35,14.6,34.6,14.3,34.2,14.4z"/>
<path style="fill:#C6AE3A;" d="M40.7,17.2c-0.3,0.1-0.4,0.3-0.4,0.6c0,0.1,0,0.1,0.1,0.2c0.4,0.5,0.9,0.2,0.9,0S41.3,17.2,40.7,17.2
	z"/>
<path style="fill:#F4E599;" d="M31.7,26.1c-0.1,0-0.8,0.6-0.2,1s0.9-0.4,0.8-0.5S32.3,26,31.7,26.1z"/>
<path style="fill:#F4E599;" d="M30.3,29.9c0,0-0.7,0-0.6,0.5c0,0.2,0.2,0.4,0.4,0.4c0,0,0,0,0,0h0.1c0.1,0,0.3-0.1,0.3-0.2
	c0.2-0.2,0.1-0.4,0-0.6C30.5,30,30.4,30,30.3,29.9L30.3,29.9z"/>
<path style="fill:#F4E599;" d="M26.1,25.6c0,0-0.6-0.5-0.9,0.1c-0.1,0.2,0,0.5,0.2,0.6c0.2,0.1,0.3,0.1,0.5,0
	c0.2-0.1,0.4-0.3,0.3-0.5C26.2,25.7,26.2,25.7,26.1,25.6z"/>
<path style="fill:#F4E599;" d="M20.4,25.1c0,0-0.8-0.1-0.6,0.4s0.7,0.6,0.9,0.3c0.1-0.2,0.1-0.5-0.1-0.6
	C20.6,25.2,20.5,25.1,20.4,25.1z"/>
<path style="fill:#F4E599;" d="M9.4,23.9c0,0-0.9,0.2-0.5,0.8s0.7,0.2,0.7,0S9.9,24,9.4,23.9z"/>
<path style="fill:#F4E599;" d="M10.8,30.4c0,0-1.1,0.4-0.4,1s0.8,0.3,0.9,0S11.3,30.4,10.8,30.4z"/>
<path style="fill:#F4E599;" d="M14.3,19.9c-0.1,0-2.9-0.1-3.6,1.7s-0.4,3.4,0.6,3.2c0.9-0.7,0.9-1,1.8-1.8s1.6-0.6,1.9-0.9
	S15.8,20.1,14.3,19.9z"/>
<path style="fill:#F4E599;" d="M17.1,23.3c-0.6-0.4-1.4-0.2-1.8,0.3c-0.1,0.1-0.1,0.2-0.2,0.3c0.9,1.8,2.4,3.2,4.2,4.1
	c2.6,1.4,4,2,4.8,1.8c0.4-0.1,0.8-0.5,0.7-0.9c0,0,0,0,0,0v-0.1c0-0.3-0.2-0.5-0.5-0.6c-0.8-0.5-3.9-1.6-5.7-3.2
	S17.1,23.3,17.1,23.3z"/>
<path style="fill:#F5DA31;" d="M21,40.3c1.5,0.2,3.1,0.4,4.6,0.4c0.9-0.1,4.5-0.3,6.8-2.3s2.4-2.2,2.8-2.9s0.3-0.6-0.6,0.3
	s-4.7,4.7-10,3.7S18.7,39.4,21,40.3z"/>
<path style="fill:none;stroke:#CA0088;stroke-width:0.25;stroke-miterlimit:10;" d="M17.2,31.4c0,0-1.4,1.7,0.8,3.6s3.9,2.8,5.9,2.6
	S18.7,31.5,17.2,31.4z"/>
<path style="fill:#F4E599;" d="M15.5,34.7c0,0-1.2-0.5-0.3,0.8s3.3,3.6,5.5,4.1s4.1,0.7,4.7,0.4s0.1-0.9-0.5-0.9
	c-2.2-0.3-4.3-1-6.3-2C17.5,36.4,16.5,35.6,15.5,34.7z"/>
<path style="fill:#A18E35;" d="M37.8,27.6c0.1,0-0.1-0.9,1-0.6s2.4,2.4,1.6,2.7c-0.6,0.2-0.6-1-1-1s-1.6,2.6-1.9,3.2
	c-0.3,0.6-3,4.9-5.7,6.1s-5.6,2-10.8,0.1c-3.9-2.1-5.4-3.9-6.6-6.1c-1-2.4-1.7-5-1.3-7c-0.4,0.4-0.5,1-0.8,1.1s-0.6-0.4,0-1.2
	s2-2,2.7-1.8s-0.1,0.7-0.2,0.8c0.1,1.3,0.4,2.7,0.9,3.9c0.7,0.9,9.1,10.5,11.2,10s6.4-5.7,6.5-5.8c0.9-0.6,1.8-1.3,2.7-2
	c-0.5,0.3-4,2.3-6.3,2.3s-5.6-0.2-7.6-1.1c-1.8-0.8-3.5-1.9-5-3.2c-0.5-0.5-0.3-0.9,0.5-0.2c3,3,7.3,4.4,11.5,3.6
	C35.6,30.1,35.9,29,37.8,27.6z"/>
<path style="fill:#7C6D2E;" d="M14.4,24.2c0,0-0.8,0.6-0.9,1.1s-1,0.4-0.2-0.7s2.1-1.1,1.8-0.7c-0.2,0.1-0.3,0.3-0.4,0.4
	c1.1,1.6,2.4,3.1,3.9,4.3c1.7,1.2,5.4,3.5,5.7,3.6s-5.3-1.1-9.6-7.4v-0.3c-0.9,1.8-1.1,3.9-0.6,5.9c0.7,2,1.7,3.9,3,5.6
	c-0.5-0.4-0.9-0.9-1.3-1.4C15.2,33.8,11.7,29.4,14.4,24.2z"/>
<path style="fill:#7C6D2E;" d="M38.1,27.9h-0.5c-0.2,0,0-0.5,1-0.3c0.5,0,1,0.3,1.2,0.8c0.1,0.1-0.8-0.5-1-0.4
	c-0.2,0.4-1.1,4.2-3.7,6.1c1.2-1.7,2.3-3.5,3.2-5.3c-0.1-0.2,0.4-1.1-0.5-0.1c-0.4,0.4-0.8,0.8-1.3,1.2c0,0,0-0.3,0.7-1
	C37.6,28.6,37.9,28.3,38.1,27.9z"/>
<path style="fill:#FFFFFF;" d="M28.5,36.3c0.1,0.8,0.2,1.6,0.5,2.4c0.3,0.3,0.9,0.9,3-1s5.2-4.9,6.3-9.2c-2,2-6.1,6.5-11.6,5.3
	s-10.5-4.9-12-9.1c-0.1,0.2-0.2,0.3-0.3,0.5c0,0,3,7.6,6.2,10.3s3.6,2.8,5,3.2s2.5,0.6,2.9,0.1C28.6,38,28.6,37.2,28.5,36.3z"/>
<path style="fill:#CCCECE;" d="M36.3,29.9c0,0-4.8,4.2-10.1,2.8c-4.6-1.4-7.6-2.7-11.1-7.3c0.6,1.3,2.4,5.5,10.5,8.2
	c3.9,0.8,5.9,0.9,11.1-3.3c0.6-0.5,1.1-1,1.6-1.6v-0.6C38.3,28.1,36.6,29.7,36.3,29.9z"/>
<path style="fill:#7C6D2E;" d="M17.2,20.4c0,0-0.2-0.7,0.9-1.2c2.9-1,5.9-1.6,8.9-1.8c2.6-0.2,5.2,0.1,7.7,0.7
	c1.2,0.4,4.9,1.6,4.9,2.1c-0.2,0.9-0.9,1.5-1.7,1.8c-1,0.3-4.5,2.3-7.8,2.4s-6.3-0.1-8.5-1.2S18.2,21.6,17.2,20.4z"/>
<path style="fill:#FFFFFF;" d="M18.4,20c-0.1,0-0.7,0.3,0.1,1l0.2,0.1c1,0.8,4,2.7,6.6,2.9s7.4,0,10.2-1.2c2.8-0.9,4.5-1.9,3.9-2.5
	c-4-1.7-8.4-2.5-12.8-2.2C23.8,18.4,21.1,19,18.4,20z"/>
<path style="fill:#CCCECE;" d="M18.8,20.6c1.6-0.6,3.2-0.9,4.9-1.1c3.1-0.4,15,1.2,15.3,1.5c0.1,0,0.3,0,0.4-0.1
	c0,0,0.7-0.5-0.3-0.8c-2.3-0.9-4.7-1.5-7.2-1.7c-3.1-0.1-9.4,0.4-9.4,0.4s-4.6,1.1-4.3,1.5C18.2,20.6,18.6,20.7,18.8,20.6z"/>
<path style="fill:#7C6D2E;" d="M22.5,19c0,0.1-0.5,2.7,0.8,3.8c0.4,0.4,0.9,0.8,1.4,1.1c2.6,0.4,5.2,0.3,7.7-0.2
	c0.3-0.3,1.6-2,1.5-3.1s0-1.8-0.6-2.5C31.7,17.7,23.2,17.6,22.5,19z"/>
<path style="fill:#F5DA31;" d="M22.6,19.7c0,0,0.1,3,2.1,3.9c0.4,0.2,0.9,0.4,1.4,0.5c0.2,0,4.3,0.3,5.5-0.3
	c1.6-1.2,2.3-3.3,1.8-5.2c-3.2-0.2-6.4-0.2-9.6,0.1l-0.9,0.1C22.5,19.5,22.6,19.7,22.6,19.7z"/>
<path style="fill:#0F1C35;" d="M23.7,18.9c-0.3,2.3,1.2,4.4,3.5,4.7c1.3,0.2,2.6-0.3,3.6-1.2c1-1,1.5-2.3,1.4-3.7v-0.2
	c0,0-5-1-8.3,0.2L23.7,18.9z"/>
<path style="fill:#FFFFFF;" d="M24.9,20.1c-0.1,0-1.3,0.2-1.2,1.1c0,0.6,0.5,1.1,1.1,1.1c0.3,0,0.5-0.1,0.7-0.3
	c0.5-0.3,0.6-0.9,0.3-1.4l-0.1-0.1C25.5,20.3,25.2,20.1,24.9,20.1z"/>
<path style="fill:#FFFFFF;" d="M26.9,19.7c0,0-0.9,0-0.9,0.6c0,0.4,0.2,0.7,0.6,0.7c0.1,0,0.3,0,0.4-0.1
	C27.1,20.9,27.7,20,26.9,19.7z"/>
<path style="fill:#FFFFFF;" d="M31.9,19c-0.3,0.1-0.5,0.5-0.4,0.8c0,0,0,0,0,0l0,0c0,0.2,0.1,0.3,0.3,0.3c0.7,0.5,1.3-0.4,1.1-0.8
	S32.3,18.9,31.9,19z"/>
<path style="fill:#F4E599;" d="M22.7,41.7c-0.1,0-0.8,0.2-0.3,0.7s0.9-0.2,0.9-0.2S23.1,41.6,22.7,41.7z"/>
<path style="fill:#F4E599;" d="M25,43.4c-0.1,0-1.2,0.2-1.1,1.1c0.2,1.2,1.2,2,2.4,2.1c1.1-0.1,1.9-0.2,2-1s0-1.1-0.5-1.1
	s-1.1,0.4-1.5,0S26,43.5,25,43.4z"/>
<path style="fill:#7C6D2E;" d="M16.2,37.7l1.9,3.7c-0.5-0.4-1-0.7-1.5-0.9c0.4,0.8,1.6,2.8,1.6,2.8c-0.8-0.8-1.4-1.8-1.9-2.8
	c-0.4-1.1-2.7-5.2-3.6-5.9s-0.7-0.8-0.2-0.5S15.8,37.6,16.2,37.7z"/>
<path style="fill:#A18E35;" d="M16.6,43.1l0.3-0.5l1-3h-0.2C17.5,40.8,17.2,42,16.6,43.1z"/>
<path style="fill:#A18E35;" d="M15.2,41.3c0,0-0.1,0.1,0,0.6l0.2,1l0.4-0.2c0.2,0.1,0.3,0.2,0.5,0.2S15.7,42.3,15.2,41.3z"/>
<path style="fill:#A18E35;" d="M16.8,41.3c0,0-0.2-0.6-0.4,0c-0.1,0.6,0.1,1.2,0.5,1.6l0.4-0.1C17.4,42.8,16.7,41.9,16.8,41.3z"/>
<path style="fill:#A18E35;" d="M36.4,42.1c0,0-4,2.6-4.4,3s-1.5,2.7-3.6,3s-2.1,0-2.5-0.4c1.5-0.2,2.9,0.1,3.8-1.7s1.7-3.2,2.5-3.5
	c1.4-0.8,2.8-1.7,4-2.8C36.2,39.6,36.4,42.1,36.4,42.1z"/>
<path style="fill:#7C6D2E;" d="M44.2,34.6c0-0.1,0.8-1,0-0.6s-1.6,1.9-3.8,1.5c-0.1,0.2-0.1,0.4,0,0.6c0,0,1.6,1.3,2.6,0.3
	C43.5,35.9,43.9,35.3,44.2,34.6z"/>
<path style="fill:#F5DA31;" d="M36.3,37.4c-0.5,0.5-0.6,1.3-0.1,1.8l0,0l0.1,0.1c-0.5,0.9-0.9,1.4-0.2,1.8C36,42,35.7,42.3,36.7,43
	l0.3-0.3C37,42.7,36.9,37.8,36.3,37.4z"/>
<path style="fill:#C6AE3A;" d="M44.9,33.9c0,0,1.1,3.6-0.4,6.1c-1.1,2.1-3.3,3.4-5.7,3.3c-2.2,0-3.2-1.9-1.9-2.2
	c-0.6-0.2-1.4-0.8-0.2-2.2c-0.5-0.5-0.9-1.7,0-2s1.8-0.1,1.8-0.4s-0.8-1.4-0.2-2.4s0.9-0.9,0.8,0s1.1,4.3,2.6,3.8s2.6-3.8,2.7-4
	S44.8,33.6,44.9,33.9z"/>
<path style="fill:#A18E35;" d="M44,38c0,0.1-1.5,3.4-4.1,3.5s-2.4-1.4-1.9-2.2c-0.5-0.7-0.7-2.7,0.7-2.3c0.7-0.2,0.6-1.3,0.4-1.6
	s-0.2-2.6,0.3-1.9c0.3,0.3,0.5,0.7,0.6,1.1c0.2,1,0.9,1.8,1.9,2.1c1.1-0.4,1.3-0.4,2.7-2.8C44.9,35.3,44.7,36.8,44,38z"/>
<path style="fill:#F5DA31;" d="M19.3,42.7l0.3,0.3c1-0.7,0.7-1,0.6-1.9c0.7-0.4,0.3-0.9-0.2-1.8l0.1-0.1l0,0
	c0.5-0.5,0.4-1.3-0.1-1.8c0,0,0,0,0,0C19.4,37.8,19.3,42.7,19.3,42.7z"/>
<path style="fill:#C6AE3A;" d="M11.9,33.9c0.1,0.2,1.2,3.5,2.7,4s2.7-2.9,2.6-3.8s0.2-1,0.8,0s-0.2,2.1-0.2,2.4s0.9,0.1,1.8,0.4
	s0.5,1.5,0,2c1.2,1.4,0.4,2-0.2,2.2c1.3,0.3,0.3,2.2-1.9,2.2c-2.4,0.1-4.6-1.2-5.7-3.3c-1.5-2.5-0.4-6.1-0.4-6.1
	C11.5,33.6,11.8,33.7,11.9,33.9z"/>
<path style="fill:#A18E35;" d="M11.7,33.9c1.4,2.4,1.6,2.4,2.7,2.8c1-0.3,1.7-1.1,1.9-2.1c0.1-0.4,0.3-0.8,0.6-1.1
	c0.5-0.7,0.5,1.6,0.3,1.9s-0.3,1.4,0.4,1.6c1.4-0.4,1.2,1.6,0.7,2.3c0.5,0.8,0.7,2.3-1.9,2.2s-4.1-3.4-4.1-3.5
	C11.6,36.8,11.4,35.3,11.7,33.9z"/>
<path style="fill:#F4E599;" d="M42.3,26.4c-0.1,0-0.8,0.6-0.2,1S43,27,43,26.9c0-0.3-0.3-0.5-0.6-0.5c0,0,0,0,0,0L42.3,26.4z"/>
<path style="fill:#F4E599;" d="M32.3,40.1c-0.1,0-0.8,0.6-0.2,1s0.9-0.4,0.8-0.5S32.8,40,32.3,40.1z"/>
</svg>
