<?xml version="1.0" encoding="utf-8"?>
<!-- Generator: Adobe Illustrator 22.0.0, SVG Export Plug-In . SVG Version: 6.00 Build 0)  -->
<svg version="1.1" id="Слой_1" xmlns="http://www.w3.org/2000/svg" xmlns:xlink="http://www.w3.org/1999/xlink" x="0px" y="0px"
	 viewBox="0 0 55.8 62.9" style="enable-background:new 0 0 55.8 62.9;" xml:space="preserve">
<title>Artboard 1 копия 7</title>
<g id="Слой_20">
	<path style="fill:#F8E5AA;" d="M27.5,61.3c-1.5,0-3,0-4.4-0.1h-1.2l-3.2-0.1L18,61c-0.3,0-0.5-0.2-0.5-0.5c0-0.1,0.1-0.2,0.1-0.3
		l0.5-0.5c0.4-0.4,0.9-0.8,1.4-1.1c0.5-0.3,1-0.6,1.5-0.8c0.5-0.2,1-0.4,1.6-0.6c0.4-0.1,0.7-0.2,1.1-0.2c0-1,0-2,0-3
		c0-0.8,0-1.6,0-2.3h-0.8c-0.6,0-1.2-0.1-1.8-0.3l-0.8-0.2L19.6,51l-0.7-0.2l-0.3-0.1l-1-0.4L17.3,50c-0.4-0.2-0.8-0.5-1.2-0.8
		c-0.5-0.4-1-0.8-1.5-1.3c-0.2,0.1-0.5,0.1-0.8,0.1c-0.4,0-0.8-0.1-1.1-0.2c-0.1,0-0.3-0.1-0.4-0.2l-0.1-0.1
		c-0.1-0.1-0.3-0.2-0.4-0.3L11.6,47c-0.1-0.1-0.2-0.3-0.4-0.4l-0.1-0.2c-0.1-0.1-0.1-0.2-0.2-0.3c-0.6-1-0.8-2.2-0.7-3.4
		c-0.2-0.1-0.3-0.2-0.5-0.3c-0.2-0.1-0.4-0.2-0.7-0.4c-0.1-0.1-0.2-0.2-0.3-0.3c-0.1-0.1-0.1-0.2-0.2-0.3l-0.1-0.2
		c-0.1-0.3-0.2-0.6-0.1-0.9c0.1-0.3,0.2-0.6,0.4-0.8c-0.1-0.1-0.1-0.2-0.1-0.3c0-0.2,0-0.4,0-0.6c0-0.3,0.1-0.6,0.3-0.8
		c0.2-0.3,0.6-0.5,1-0.5l0,0c0.1,0,0.3,0,0.4,0c0-0.2,0-0.4,0.1-0.6c0.1-0.3,0.3-0.5,0.6-0.6c0.2-0.1,0.4-0.2,0.7-0.2
		c0.4,0,0.7,0.2,1,0.4l0.2-0.8c0.4-1.2,0.9-2.3,1.6-3.3c0.4-0.6,0.8-1.2,1.1-1.8l0.2-0.3c0-1.2,0.4-2.3,1.1-3.3
		c0.4-0.5,0.8-0.9,1.2-1.3c0.2-0.7,0.3-1.5,0.4-2.3c0-0.3,0.1-0.6,0.1-0.9l-0.3-0.1h-0.1c-0.5-0.1-0.9-0.3-1.3-0.6
		c-0.2-0.2-0.3-0.4-0.4-0.6c-0.1-0.3,0-0.6,0.1-0.8c0.1-0.2,0.3-0.4,0.5-0.5l0.1-0.1c0.6-0.5,1-1.1,1.3-1.8c0.2-0.4,0.3-0.7,0.4-1.1
		c0.1-0.3,0.2-0.7,0.2-1l0.5-0.1h-0.5c0.1-0.8,0.2-1.7,0.4-2.5c0.2-0.9,0.6-1.8,1.1-2.6l0.2-0.3l0.2-0.2l0.1-0.1l0.3-0.3l0.3-0.2
		c0.2-0.1,0.4-0.3,0.6-0.4c0.2-0.1,0.4-0.2,0.6-0.3c0.5-0.2,1-0.2,1.5-0.2h0.1c0.5,0,1,0.2,1.5,0.4c0.3,0.2,0.6,0.3,0.8,0.6l0,0
		c0-0.4-0.1-0.9-0.1-1.3c0-0.3,0-0.5,0.1-0.8c0.2-0.8,0.7-1.4,1.4-1.9c0.3-0.2,0.6-0.3,0.9-0.3h0.1c0.2,0,0.5,0,0.7,0.1
		c0.3,0.1,0.6,0.3,0.8,0.5c0.2,0.2,0.2,0.5,0.2,0.8v0.3c0,0.3,0,0.5,0,0.8v0.4c0,0.8,0,1.6-0.1,2.4s-0.1,1.6-0.1,2.4v0.1v0.1
		c0.4,0.1,0.7,0.3,1,0.6c0.5,0.4,1,0.9,1.3,1.5c0.3,0.6,0.5,1.2,0.6,1.8c0.3,1.1,0.5,2.3,0.6,3.5c0.1,1.1,0.3,2.3,0.6,3.4
		c0.3,1,0.7,2,1.3,2.9c0.5,0.8,1.1,1.5,1.6,2.3l0.5,0.6c0-0.1,0-0.1,0-0.2s0-0.3,0-0.5v-0.3c0-0.6,0.1-1.3,0.3-1.8l0.1-0.3
		c0.1-0.1,0.1-0.2,0.2-0.4c0.1-0.2,0.1-0.4,0.1-0.6c0-0.2,0-0.4-0.1-0.6v-0.2c0-0.1,0-0.3,0-0.4c0-0.2,0.1-0.4,0.2-0.5
		c0.1-0.2,0.3-0.3,0.4-0.3c0.1-0.1,0.3-0.1,0.4-0.1c0.1,0,0.3,0,0.4,0c0.2,0.1,0.4,0.1,0.6,0.3c0.3,0.2,0.5,0.5,0.6,0.8l0.2-0.3
		c0.1-0.1,0.1-0.2,0.1-0.3l0.1-0.2c0.1-0.3,0.3-0.6,0.6-0.9c0.2-0.2,0.5-0.2,0.7-0.2c0.2,0,0.4,0,0.6,0.1c0.1,0,0.2,0.1,0.3,0.2
		l0.1,0.1h0.1c0.2-0.1,0.3-0.1,0.5-0.1h0.3c0.3,0,0.5,0.1,0.7,0.2c0.2,0.1,0.3,0.3,0.4,0.5c0,0.1,0.1,0.2,0.1,0.3c0,0.1,0,0.1,0,0.2
		c0,0.1,0,0.2,0,0.3c0,0.1,0,0.1,0,0.2c0.6,0.1,1,0.5,1.1,1.1c0,0.2,0,0.3,0,0.5c0,0.1-0.1,0.2-0.1,0.3c-0.1,0.4-0.3,0.7-0.4,1
		c-0.3,0.7-0.6,1.4-0.9,2c-0.2,0.4-0.4,0.7-0.6,1c-0.1,0.1-0.2,0.2-0.2,0.3l-0.1,0.1c-0.1,0.1-0.1,0.2-0.2,0.3
		c-0.2,0.6-0.4,1.2-0.4,1.9c0,0.2,0,0.4,0,0.6c0,0.5-0.1,1-0.2,1.5c-0.3,1.1-0.7,2.2-1.2,3.2c0,0.2,0.1,0.4,0.1,0.7
		c0.2,1.2,0.3,2.4,0.3,3.6c0,1.2-0.3,2.5-0.8,3.6c-0.3,0.6-0.6,1.1-1,1.6c-0.2,0.3-0.4,0.5-0.7,0.7l-0.3,0.3l-0.3,0.2l-0.1,0.1
		c-1,0.7-2.1,1.3-3.3,1.6c-1.2,0.4-2.3,0.6-3.5,0.6c-0.8,0-1.6,0.1-2.4,0.1c0,0.8-0.1,1.6-0.1,2.5l-0.1,3c0.3,0.1,0.6,0.1,1,0.2
		c0.5,0.1,1,0.3,1.4,0.5c0.3,0.1,0.7,0.3,1,0.4s0.6,0.3,0.9,0.5c0.3,0.2,0.6,0.4,0.9,0.7c0.3,0.2,0.6,0.5,0.8,0.8l0.2,0.2
		c0.2,0.2,0.1,0.5-0.1,0.7c-0.1,0.1-0.2,0.1-0.3,0.1h-0.3l-1.8,0.1c-0.9,0-1.7,0.1-2.6,0.1h-2.1H27.5z"/>
	<path style="fill:#FFFFFF;" d="M29.4,5.9c0.2,0,0.4,0,0.5,0.1c0.2,0.1,0.4,0.2,0.6,0.3c0.1,0.1,0.1,0.2,0.1,0.3V7
		c0,0.4,0,0.8-0.1,1.2c0,0.8,0,1.6-0.1,2.4s-0.1,1.6-0.1,2.4c0,0,0,0.1,0,0.1s0.1,0.2,0.1,0.4c0.4,0.2,0.8,0.3,1.1,0.6
		c0.5,0.4,0.9,0.8,1.2,1.3c0.3,0.5,0.5,1.1,0.6,1.7c0.6,2.3,0.6,4.6,1.2,6.8c0.3,1.1,0.8,2.2,1.4,3.1c0.6,1,1.3,1.9,2,2.8l0.8,1.1
		c0.1-0.2,0.1-0.5,0.2-0.7c0-0.2,0.1-0.5,0.1-0.8c0-0.3,0-0.5,0-0.8c0-0.6,0.1-1.1,0.3-1.7c0.1-0.2,0.2-0.5,0.3-0.7
		c0.2-0.5,0.2-1,0.1-1.4c0-0.1,0-0.1,0-0.2c0-0.1,0-0.2,0-0.3c0-0.1,0.1-0.2,0.1-0.3c0.1-0.1,0.1-0.1,0.2-0.2c0.1,0,0.2,0,0.3,0
		c0.1,0,0.2,0,0.2,0c0.1,0,0.3,0.1,0.4,0.2c0.2,0.2,0.4,0.4,0.5,0.7c0,0.1,0.1,0.3,0.1,0.4c0,0.2,0,0.4,0.2,0.6v-0.2l0,0
		c0.3-0.4,0.6-0.7,0.9-1.1c0.1-0.2,0.2-0.4,0.3-0.6c0-0.2,0.1-0.5,0.3-0.7c0.1-0.1,0.3-0.1,0.4-0.1l0,0c0.1,0,0.3,0,0.4,0.1l0,0
		l0.1,0c0,0,0.1,0.1,0.1,0.1c0,0.1,0,0.1,0,0.2c0,0.1,0,0.3,0,0.4l0,0l0-0.1c0.2-0.2,0.4-0.4,0.6-0.6c0.1,0,0.2-0.1,0.3-0.1h0.2
		c0.2,0,0.3,0.1,0.5,0.1c0.1,0.1,0.1,0.2,0.2,0.3c0,0.1,0,0.1,0,0.2c0,0,0,0.1,0,0.1c0,0,0,0.1,0,0.1c0,0.1,0,0.1,0,0.2
		c-0.1,0.2-0.1,0.5-0.2,0.7l-0.1,0.2c0.1-0.1,0.2-0.2,0.3-0.2l0.1-0.1H46h0.1c0.1,0,0.2,0,0.3,0.1c0.2,0.1,0.4,0.3,0.4,0.5
		c0,0.1,0,0.2,0,0.3c0,0.1,0,0.2-0.1,0.3c-0.1,0.3-0.2,0.7-0.4,1c-0.3,0.7-0.6,1.3-0.9,1.9c-0.2,0.3-0.4,0.6-0.6,0.9
		c-0.1,0.1-0.3,0.3-0.3,0.4c-0.1,0.1-0.2,0.3-0.3,0.4c-0.2,0.6-0.3,1.3-0.4,2c0,0.7-0.1,1.4-0.2,2.1c-0.3,1.1-0.7,2.2-1.2,3.3
		c0.1,0.3,0.1,0.5,0.2,0.8c0.2,1.2,0.3,2.4,0.3,3.6c-0.1,1.2-0.3,2.3-0.8,3.4c-0.3,0.5-0.6,1-0.9,1.5c-0.2,0.2-0.4,0.4-0.6,0.6
		l-0.3,0.3l-0.3,0.3c-0.9,0.7-2,1.3-3.1,1.6c-1.1,0.4-2.3,0.6-3.4,0.7c-1,0.1-1.9,0.1-2.9,0.1c0,1,0,2-0.1,2.9l-0.1,3.4
		c0.5,0.1,0.9,0.2,1.3,0.3c0.5,0.1,0.9,0.3,1.4,0.4c0.3,0.1,0.6,0.3,0.9,0.4s0.6,0.3,0.9,0.5c0.3,0.2,0.6,0.4,0.8,0.6
		c0.3,0.2,0.5,0.5,0.8,0.7l0.2,0.2h-0.3c-1.5,0-2.9,0.1-4.4,0.1h-2.1h-2.3c-1.5,0-2.9,0-4.4-0.1c-1.5,0-2.9-0.1-4.4-0.1h-0.7
		l0.5-0.5c0.4-0.4,0.8-0.7,1.3-1c0.5-0.3,0.9-0.6,1.4-0.8c0.5-0.2,1-0.4,1.5-0.5c0.5-0.1,1-0.2,1.5-0.3c0-1.1,0-2.3,0-3.4
		c0-0.9,0-1.9-0.1-2.8c-0.4,0-0.8,0-1.2,0c-0.6,0-1.2-0.1-1.8-0.3l-0.9-0.2c-0.3-0.1-0.6-0.2-0.8-0.3l-0.4-0.1l-0.4-0.2l-0.8-0.4
		c-0.5-0.3-1-0.6-1.5-0.9c-0.6-0.4-1.2-1-1.6-1.5c-0.3,0.1-0.6,0.2-0.9,0.2c-0.3,0-0.6-0.1-0.9-0.2c-0.2-0.1-0.3-0.1-0.4-0.2
		c-0.1-0.1-0.3-0.2-0.4-0.3c-0.1-0.1-0.2-0.3-0.3-0.4c-0.1-0.1-0.2-0.3-0.3-0.4c-0.6-1-0.8-2.2-0.7-3.4c-0.5-0.3-0.9-0.6-1.4-0.9
		c-0.1-0.1-0.2-0.1-0.3-0.2C9,41.5,9,41.4,9,41.3l-0.1-0.1c-0.1-0.2-0.1-0.4-0.1-0.7c0-0.2,0.2-0.4,0.4-0.6c0.1-0.1,0.2-0.1,0.3-0.2
		c-0.1-0.1-0.2-0.2-0.2-0.3c-0.1-0.1-0.1-0.2-0.1-0.3c0-0.1,0-0.2,0-0.3c0-0.2,0.1-0.4,0.2-0.6c0.1-0.2,0.3-0.3,0.6-0.3h0
		c0.2,0,0.4,0.1,0.6,0.2c0.2,0.1,0.3,0.3,0.5,0.3l0.4,0.3c-0.2-0.3-0.3-0.5-0.5-0.8c0-0.1-0.1-0.1-0.1-0.2v-0.1v-0.1
		c-0.1-0.2-0.1-0.3,0-0.5c0.1-0.2,0.2-0.3,0.4-0.4c0.1-0.1,0.3-0.1,0.4-0.1h0.1c0.3,0,0.6,0.2,0.8,0.4c0.2,0.2,0.3,0.3,0.4,0.5
		c0.1-0.6,0.3-1.1,0.4-1.7c0.4-1.1,0.9-2.2,1.5-3.2c0.5-0.8,0.9-1.5,1.4-2.3l0,0c0-1.2,0.4-2.3,1.1-3.2c0.4-0.5,0.8-0.9,1.2-1.3
		c0.2-0.8,0.4-1.6,0.5-2.5c0.1-0.5,0.1-0.9,0.1-1.4c-0.2,0-0.5-0.1-0.7-0.1c-0.4-0.1-0.8-0.3-1.2-0.5c-0.1-0.1-0.2-0.2-0.2-0.3
		c0-0.1,0-0.3,0.1-0.4c0.1-0.2,0.3-0.3,0.5-0.5c0.6-0.5,1.1-1.2,1.4-2c0.1-0.4,0.3-0.8,0.4-1.2c0.1-0.4,0.2-0.8,0.2-1.2
		c0.1-0.8,0.2-1.7,0.3-2.5c0.2-0.8,0.6-1.6,1.1-2.3l0.2-0.3l0.2-0.2l0.2-0.2l0.3-0.2c0.2-0.1,0.4-0.2,0.6-0.3
		c0.2-0.1,0.4-0.2,0.6-0.3c0.4-0.1,0.8-0.2,1.2-0.2h0.1c0.4,0,0.9,0.1,1.3,0.4c0.4,0.2,0.7,0.5,1,0.8c0.3,0.3,0.5,0.7,0.7,1.1h0.1
		c-0.1-0.6-0.3-1.2-0.3-1.9c0-0.4-0.1-0.8-0.1-1.2c0-0.2,0-0.5,0.1-0.7c0.1-0.2,0.2-0.4,0.3-0.6c0.2-0.4,0.5-0.7,0.9-1
		C28.8,6.1,29,6,29.3,6L29.4,5.9 M29.4,5h-0.2c-0.4,0-0.8,0.2-1.1,0.4c-0.5,0.3-0.9,0.8-1.2,1.3l0,0c-0.1,0.2-0.3,0.5-0.3,0.8
		c-0.1,0.3-0.1,0.6-0.1,0.9c0,0.1,0,0.2,0,0.3c-0.5-0.3-1.1-0.4-1.7-0.5h-0.2c-0.5,0-1.1,0.1-1.6,0.2h-0.1c-0.2,0.1-0.5,0.2-0.7,0.3
		C22,8.9,21.7,9,21.5,9.2l-0.3,0.2h-0.1L21,9.6l-0.1,0.1l-0.1,0.1L20.6,10l0,0l-0.2,0.3c-0.6,0.8-1,1.8-1.2,2.8
		c-0.2,0.8-0.3,1.7-0.4,2.6v0.1c0,0.3-0.1,0.6-0.1,0.9c-0.1,0.4-0.2,0.7-0.4,1.1c-0.2,0.6-0.6,1.2-1.1,1.6l-0.1,0.1
		c-0.2,0.2-0.5,0.4-0.6,0.6c-0.2,0.4-0.3,0.8-0.2,1.2c0.1,0.3,0.3,0.6,0.5,0.8l0.1,0.1c0.4,0.3,0.9,0.5,1.4,0.6l0,0.4
		c-0.1,0.7-0.2,1.4-0.4,2.1c-0.4,0.4-0.8,0.8-1.1,1.2c-0.8,1-1.3,2.3-1.3,3.6l-0.2,0.3c-0.4,0.6-0.8,1.2-1.1,1.8
		c-0.7,1.1-1.2,2.2-1.6,3.4l-0.1,0.2c-0.2-0.1-0.4-0.1-0.6-0.1h-0.1c-0.3,0-0.6,0.1-0.9,0.2c-0.4,0.2-0.6,0.5-0.8,0.8
		c0,0.1-0.1,0.2-0.1,0.3c-0.5,0-1,0.3-1.3,0.7c-0.2,0.3-0.4,0.7-0.4,1.1c0,0.3,0,0.6,0.1,0.8l0,0C8,39.7,7.9,40,7.9,40.3
		c-0.1,0.4,0,0.8,0.1,1.2c0,0.1,0.1,0.2,0.1,0.2c0.1,0.1,0.2,0.3,0.3,0.4c0.1,0.1,0.3,0.3,0.4,0.4c0.2,0.1,0.5,0.3,0.7,0.4L9.7,43
		c0,1.2,0.3,2.3,0.8,3.4c0.1,0.1,0.1,0.2,0.2,0.3l0.1,0.1c0.1,0.2,0.2,0.3,0.4,0.5l0.1,0.1l0.1,0.1l0.1,0.1c0.1,0.1,0.3,0.2,0.4,0.3
		h0.1L12,48c0.2,0.1,0.3,0.2,0.5,0.2c0.4,0.2,0.8,0.2,1.3,0.2c0.2,0,0.4,0,0.6,0c0.4,0.4,0.9,0.9,1.4,1.2c0.4,0.3,0.8,0.6,1.3,0.8
		l0.3,0.2h0.1L18,51l0.3,0.1l0.1,0.1l0.3,0.1l0.5,0.2l0.3,0.1l0.6,0.2l0.9,0.2c0.6,0.2,1.3,0.3,1.9,0.3h0.3c0,0.6,0,1.2,0,1.9
		c0,0.8,0,1.7,0,2.6l-0.7,0.2c-0.6,0.2-1.1,0.4-1.7,0.6c-0.5,0.2-1.1,0.5-1.6,0.8c-0.5,0.3-1,0.7-1.5,1.2l-0.5,0.5
		c-0.4,0.4-0.3,1,0.1,1.4c0.2,0.2,0.4,0.3,0.6,0.3h0.7l3.2,0.1h1.2c1.4,0,2.8,0.1,4.4,0.1h2.3H32c0.9,0,1.7,0,2.6-0.1l1.8-0.1h0.3
		c0.6,0,1-0.5,0.9-1.1c0-0.2-0.1-0.4-0.2-0.5l-0.2-0.2c-0.3-0.3-0.6-0.6-0.9-0.9c-0.3-0.2-0.6-0.5-0.9-0.7c-0.4-0.2-0.7-0.4-1-0.6
		s-0.7-0.3-1-0.5c-0.5-0.2-1-0.4-1.5-0.5l-0.5-0.1l0.1-2.5c0-0.7,0-1.3,0.1-2c0.6,0,1.3,0,1.9-0.1c1.2-0.1,2.5-0.3,3.7-0.7
		c1.2-0.4,2.4-1,3.4-1.8l0.1-0.1l0.3-0.2l0.4-0.3c0.2-0.2,0.5-0.4,0.7-0.7l0,0c0.4-0.5,0.8-1.1,1.1-1.7c0.5-1.2,0.8-2.5,0.9-3.8
		c0.1-1.2,0-2.5-0.3-3.7c0-0.2,0-0.3-0.1-0.5c0.4-1,0.8-2,1.1-3.1v-0.1c0.1-0.5,0.2-1.1,0.2-1.6c0-0.2,0-0.4,0-0.6
		c0-0.6,0.1-1.2,0.3-1.8c0,0,0-0.1,0.1-0.1l0.1-0.1c0.1-0.1,0.2-0.2,0.3-0.3c0.2-0.3,0.5-0.7,0.7-1c0.4-0.6,0.7-1.3,1-2
		c0.1-0.3,0.3-0.7,0.4-1.1c0-0.1,0.1-0.2,0.1-0.3c0.1-0.2,0.1-0.5,0.1-0.7c-0.1-0.6-0.5-1.1-1-1.4h-0.1c0,0,0,0,0-0.1
		c0-0.1,0-0.2,0-0.2c0-0.1-0.1-0.3-0.1-0.4c-0.1-0.3-0.3-0.5-0.5-0.7c-0.3-0.2-0.6-0.3-0.9-0.3h-0.1h-0.3h-0.1c-0.2,0-0.3,0-0.5,0.1
		l-0.2-0.1l0,0h0c-0.2-0.1-0.5-0.2-0.8-0.2c-0.4,0-0.7,0.1-1,0.3c-0.3,0.3-0.6,0.6-0.8,1.1c-0.1-0.1-0.2-0.2-0.3-0.2
		c-0.2-0.2-0.4-0.3-0.7-0.3c-0.2,0-0.3-0.1-0.5-0.1c-0.2,0-0.4,0-0.6,0.1c-0.5,0.2-0.9,0.7-1,1.3v0.1c0,0.2,0,0.4,0.1,0.6v0.1v0.1
		c0,0.2,0,0.3,0,0.5c0,0.1,0,0.3-0.1,0.4c0,0.1-0.1,0.2-0.1,0.3l-0.2,0.3c-0.1,0.4-0.2,0.9-0.2,1.4c-0.4-0.6-0.8-1.1-1.2-1.7
		c-0.6-0.8-1-1.8-1.3-2.8c-0.2-1.1-0.4-2.2-0.5-3.3c-0.1-1.2-0.4-2.4-0.6-3.5c-0.2-0.6-0.4-1.3-0.8-1.9c-0.4-0.6-0.9-1.2-1.5-1.6
		c-0.2-0.2-0.5-0.3-0.8-0.5c0-0.7,0-1.4,0.1-2.1s0.1-1.8,0.1-2.4V7.9c0-0.3,0-0.5,0-0.8V6.8c0-0.4-0.1-0.8-0.3-1.1
		c-0.3-0.3-0.6-0.6-1.1-0.7C29.8,5,29.6,5,29.4,5L29.4,5z"/>
	<path style="fill:#F3D677;" d="M33,58.2c-0.9-0.3-1.8-0.6-2.8-0.7v-6.9h-5.9v7L24,57.6c-2,0.3-3.8,1.2-5.2,2.7l17.7,0.2
		C35.5,59.4,34.3,58.6,33,58.2z"/>
	<path style="fill:#B2934F;" d="M33,58.2c-0.9-0.3-1.8-0.6-2.8-0.6h-0.1v-0.1L30,54c-0.1-1.2-0.1-2.3-0.1-3.5l0.3,0.3h-1.4h-1.5
		l-3-0.1l0.2-0.2c0,1.2-0.1,2.3-0.1,3.5s0,2.3,0,3.5v0.1h-0.1c-0.5,0.1-1,0.2-1.5,0.4c-0.5,0.2-1,0.4-1.4,0.6
		c-0.5,0.2-0.9,0.5-1.3,0.8c-0.4,0.3-0.8,0.6-1.1,1L18.7,60c1.5,0,2.9,0,4.4,0s2.9,0,4.4,0s2.9,0,4.4,0.1s2.9,0.2,4.4,0.2l-0.1,0.2
		c-0.2-0.3-0.4-0.5-0.7-0.8c-0.2-0.2-0.5-0.5-0.8-0.7c-0.3-0.2-0.6-0.4-0.9-0.5C33.6,58.5,33.3,58.3,33,58.2z M33,58.1
		c0.3,0.1,0.6,0.3,0.9,0.4s0.6,0.3,0.9,0.5c0.3,0.2,0.6,0.4,0.8,0.6c0.3,0.2,0.5,0.5,0.8,0.7l0.2,0.2h-0.3c-1.5,0-2.9,0.1-4.4,0.1
		s-2.9,0-4.4,0s-2.9,0-4.4-0.1s-2.9-0.1-4.4-0.1H18l0.5-0.5c0.4-0.4,0.8-0.7,1.3-1c0.5-0.3,0.9-0.6,1.4-0.8c0.5-0.2,1-0.4,1.5-0.5
		c0.5-0.1,1-0.2,1.6-0.3l-0.1,0.1c0-1.2,0-2.3,0-3.5c0-1.2,0-2.3-0.1-3.5v-0.2h0.2l3-0.1h1.5h1.8v0.3c0,1.2,0,2.3-0.1,3.5l-0.1,3.5
		l-0.1-0.1c0.5,0.1,0.9,0.2,1.4,0.3C32.1,57.8,32.6,58,33,58.1z"/>
	<path style="fill:#F3D677;" d="M28,12c0,0-0.5-3.4-0.2-4.3s0.9-1.7,1.7-1.7s1,0.4,1,0.6s-0.8,6.1-0.4,7.5S28,12,28,12z"/>
	<path style="fill:#B2934F;" d="M27.9,12.1c-0.2-0.8-0.4-1.6-0.5-2.4c0-0.4-0.1-0.8-0.1-1.2c0-0.2,0-0.5,0.1-0.7
		c0.1-0.2,0.2-0.4,0.3-0.6c0.2-0.4,0.5-0.7,0.9-1C28.8,6,29,6,29.3,6c0.2,0,0.4,0,0.6,0c0.2,0.1,0.4,0.2,0.6,0.3
		c0.1,0.1,0.1,0.2,0.1,0.3V7c0,0.4,0,0.8-0.1,1.2c0,0.8,0,1.6-0.1,2.4s-0.1,1.6-0.1,2.4c0,0.4,0,0.8,0.1,1.1c0,0.1,0,0.1,0,0.2
		c0,0,0,0.1,0,0.1c0,0,0,0.1,0,0.1v0.1l-0.1,0.1l-0.1,0.1H30c0,0-0.1,0-0.1,0l-0.1-0.1c-0.1,0-0.1-0.1-0.2-0.1
		c-0.2-0.2-0.3-0.3-0.4-0.5C28.7,13.5,28.3,12.8,27.9,12.1z M28,12c0.5,0.6,1.1,1.2,1.6,1.8c0.1,0.1,0.3,0.3,0.4,0.4l0.1,0.1l0,0H30
		h-0.1c0,0-0.1,0-0.1,0.1l0,0c0,0,0,0.1,0,0.1s0,0,0,0v-0.1c-0.1-0.4-0.2-0.8-0.2-1.2c0-0.8,0-1.6,0.1-2.4C29.8,9.7,30,9,30.1,8.2
		c0.1-0.4,0.1-0.8,0.2-1.2c0-0.1,0-0.2,0-0.3c0-0.1,0-0.2-0.1-0.2c-0.1-0.1-0.3-0.2-0.5-0.3c-0.2,0-0.4,0-0.5,0
		c-0.2,0-0.3,0.1-0.5,0.3c-0.3,0.3-0.5,0.6-0.6,0.9c-0.1,0.2-0.1,0.3-0.2,0.5C28,8.1,28,8.3,28,8.4c0,0.4,0,0.8,0,1.2
		C28,10.4,28,11.2,28,12z"/>
	<path style="fill:#F8E5AA;" d="M28.3,7.3c-0.3,1.4-0.4,2.9-0.3,4.3c0.1,0.3,0.4,0.4,0.6,0.4c0.2,0,0.3-0.2,0.4-0.4
		c-0.1-1.4,0.1-2.7,0.3-4.1C29.5,6.9,28.5,6.6,28.3,7.3z"/>
	<path style="fill:#F3D677;" d="M28.2,13.1c0,0,3.5,0,4.6,2.9s0.7,6.9,2.2,9.8s6,7.7,7.2,12.1c0.7,2.7,1.4,7.7-2,10.5
		s-6.4,2.5-12,2.5c-2.2,0.2-4.4,0.1-6.5-0.2c-7.3-1.5-10.3-6.9-8-14.8c0.8-2.6,2.9-5.1,4.6-8.4c2.1-4,0.6-10.6,3-13.8
		C23.5,10.9,28.2,13.1,28.2,13.1z"/>
	<path style="fill:#B2934F;" d="M28.2,13.1c1.2,0,2.3,0.3,3.3,1c0.5,0.4,0.9,0.8,1.2,1.3c0.3,0.5,0.5,1.1,0.6,1.7
		c0.6,2.3,0.6,4.6,1.2,6.8c0.3,1.1,0.8,2.2,1.4,3.1c0.6,1,1.3,1.9,2,2.8c1.4,1.9,2.7,3.8,3.7,5.9c0.5,1.1,0.8,2.2,1,3.4
		c0.2,1.1,0.3,2.3,0.3,3.5c-0.1,1.2-0.3,2.3-0.8,3.4c-0.3,0.5-0.6,1-0.9,1.5c-0.2,0.2-0.4,0.4-0.6,0.6l-0.3,0.3l-0.3,0.3
		c-0.9,0.7-2,1.3-3.1,1.6c-1.1,0.4-2.3,0.6-3.4,0.7c-2.3,0.1-4.6,0.1-7,0.2c-1.2,0.1-2.3,0.1-3.5,0c-0.6,0-1.2-0.1-1.8-0.3l-0.9-0.2
		c-0.3-0.1-0.6-0.2-0.8-0.3l-0.4-0.1l-0.4-0.2l-0.8-0.4c-0.5-0.3-1-0.6-1.5-0.9c-1-0.7-1.8-1.6-2.4-2.7c-0.6-1-1-2.2-1.2-3.4
		c-0.1-0.3-0.1-0.6-0.1-0.9v-0.5c0-0.2,0-0.3,0-0.5v-0.9l0.1-0.9v-0.4c0-0.2,0-0.3,0.1-0.4l0.1-0.9c0.1-0.6,0.3-1.1,0.4-1.7
		c0.4-1.1,0.9-2.2,1.5-3.2c0.6-1,1.3-2,1.8-2.9c0.3-0.5,0.6-1,0.9-1.5l0.4-0.8l0.4-0.8c0.4-1.1,0.6-2.2,0.8-3.3
		c0.1-1.1,0.2-2.3,0.3-3.4c0.1-1.2,0.2-2.3,0.5-3.5c0.2-1.2,0.8-2.3,1.6-3.2c0.4-0.4,1-0.7,1.6-0.9c0.6-0.2,1.2-0.2,1.8-0.2
		C26.1,12.3,27.2,12.6,28.2,13.1z M28.2,13.2c-1.1-0.5-2.2-0.7-3.4-0.8c-1.1-0.1-2.2,0.3-3.1,1.1c-0.7,0.9-1.2,1.9-1.4,3
		c-0.2,1.1-0.4,2.3-0.4,3.5c-0.1,1.1-0.1,2.3-0.3,3.5c-0.1,1.2-0.3,2.3-0.7,3.4l-0.4,0.8c-0.1,0.3-0.3,0.5-0.4,0.8
		c-0.3,0.5-0.6,1-0.9,1.5c-0.6,1-1.3,2-1.8,2.9c-0.6,0.9-1.1,1.9-1.4,3c-0.1,0.5-0.3,1.1-0.4,1.7l-0.1,0.8c0,0.1-0.1,0.3-0.1,0.4
		v0.4l-0.1,0.8V41c0,0.1,0,0.3,0,0.4v0.4c0,0.3,0,0.6,0.1,0.8c0.2,1.1,0.5,2.2,1.1,3.1c0.6,1,1.3,1.8,2.2,2.5
		c0.4,0.3,0.9,0.6,1.4,0.9l0.8,0.4l0.4,0.2l0.4,0.1l0.8,0.3l0.8,0.2c0.5,0.2,1.1,0.3,1.7,0.3c1.1,0.1,2.3,0.1,3.4,0.1
		c2.3-0.1,4.6,0.1,6.9-0.1c1.1-0.1,2.3-0.2,3.4-0.6c1.1-0.4,2.1-0.9,3-1.6c0.9-0.7,1.7-1.6,2.1-2.6c0.4-1.1,0.7-2.2,0.7-3.3
		c0-1.1-0.1-2.3-0.3-3.4C42,38.1,41.7,37,41.2,36c-1-2-2.3-4-3.7-5.8c-0.7-0.9-1.3-1.9-2-2.9c-0.3-0.5-0.6-1-0.9-1.5
		c-0.2-0.5-0.4-1.1-0.6-1.7c-0.6-2.3-0.5-4.6-1.1-6.9c-0.1-0.6-0.3-1.1-0.5-1.6c-0.3-0.5-0.6-0.9-1.1-1.3c-0.4-0.4-1-0.6-1.5-0.8
		C29.4,13.3,28.8,13.2,28.2,13.2L28.2,13.2z"/>
	<path style="fill:#F8E5AA;" d="M38.5,40.4c-1-5.1-4.3-9.5-6.4-14.1c-0.9-2-1.4-4.1-2.1-6.1l-0.2,0.1c-2.6,1.7-5.8,2.4-8.9,1.8
		c-0.2,0.8-0.4,1.7-0.6,2.5c-0.7,2.7-1.7,5.4-2.9,8c-1.8,4.2-4.3,10.4-0.2,14C23.1,51.8,40.6,51.4,38.5,40.4z"/>
	<path style="fill:#F3D677;" d="M30.6,31.6c-0.4-0.5-0.9-0.9-1.5-1.2c0.3-0.4,0.4-1,0.3-1.5c-0.9-2.9-5.6-3.8-7.9-2.1
		c-0.9,0.7-1.1,2-0.4,2.9c0.2,0.3,0.4,0.5,0.7,0.6c-0.2,0.5-0.2,1.2,0,1.7c0.1,0.2,0.2,0.3,0.3,0.4c-0.2,0.1-0.3,0.1-0.5,0.2
		c-0.9,0.6-1.2,1.8-0.6,2.7c0.1,0.1,0.2,0.2,0.3,0.3c1.7,1.7,5.3,0.5,7.3,0.2c0.8-0.1,1.4-0.8,1.4-1.6c0.1-0.1,0.3-0.2,0.4-0.3
		C30.9,33.3,31,32.3,30.6,31.6z"/>
	<path style="fill:#F3D677;" d="M41.5,25.7c0,0,0.8-0.8,1-1.1c0.1-0.3,0.3-0.7,0.5-1c0.2-0.3,0.6-0.4,0.9-0.2c0.3,0.1-0.3,2-0.3,2
		s0.9-1.8,1.4-1.8s0.7,0.1,0.7,0.5c-0.1,0.8-0.4,1.6-0.8,2.4c0,0,1-1.3,1.3-1.3c0.3,0,0.6,0.2,0.6,0.5c0,0,0,0,0,0.1
		c0,0.4-1.2,3.7-2.1,4.5s-0.7,3.7-1,4.8s-1.5,3.9-1.5,3.9l-3.2-7.1c0.2-0.7,0.4-1.5,0.4-2.3c-0.1-0.9,0-1.8,0.3-2.6
		c0.4-0.7,0.4-1.5,0.2-2.2c-0.2-0.4,0.2-0.7,0.8-0.5c0.4,0.3,0.7,0.7,0.7,1.3c0,0.4,0.4,0.5,0.5,1c0.2,0.4,0.3,0.9,0.3,1.4"/>
	<path style="fill:#B2934F;" d="M41.5,25.7c0.3-0.4,0.6-0.7,0.9-1.1c0.1-0.2,0.2-0.4,0.3-0.6c0.1-0.2,0.2-0.5,0.4-0.6
		c0.1-0.1,0.3-0.1,0.4-0.1c0.1,0,0.3,0,0.4,0.1l0,0l0.1,0c0,0,0.1,0.1,0.1,0.1c0,0.1,0,0.1,0,0.2c0,0.1,0,0.3,0,0.4
		c-0.1,0.5-0.2,0.9-0.3,1.4l-0.4-0.1c0.2-0.5,0.5-0.9,0.8-1.3c0.2-0.2,0.4-0.4,0.6-0.6c0.1,0,0.2-0.1,0.3-0.1h0.2
		c0.2,0,0.3,0.1,0.5,0.1c0.1,0.1,0.1,0.2,0.2,0.3c0,0.1,0,0.1,0,0.2c0,0,0,0.1,0,0.1c0,0,0,0.1,0,0.1c0,0.1,0,0.1,0,0.2
		c-0.1,0.2-0.1,0.5-0.2,0.7c-0.1,0.2-0.2,0.5-0.3,0.7c-0.1,0.2-0.2,0.5-0.3,0.7l-0.4-0.3c0.2-0.3,0.5-0.5,0.7-0.8
		c0.1-0.1,0.3-0.3,0.4-0.4L46,25h0.1h0.1c0.1,0,0.2,0,0.3,0.1c0.2,0.1,0.4,0.3,0.4,0.5c0,0.1,0,0.2,0,0.3c0,0.1,0,0.2-0.1,0.3
		c-0.1,0.3-0.2,0.7-0.4,1c-0.3,0.7-0.6,1.3-0.9,1.9c-0.2,0.3-0.4,0.6-0.6,0.9c-0.1,0.1-0.3,0.3-0.3,0.4c-0.1,0.1-0.2,0.3-0.3,0.4
		c-0.2,0.6-0.3,1.3-0.4,2c0,0.7-0.1,1.4-0.2,2.1c-0.4,1.4-0.9,2.7-1.5,4l-0.2,0.5L41.9,39l-1.6-3.6c-0.5-1.2-1.1-2.4-1.6-3.6v-0.1
		v-0.1c0.2-0.5,0.3-1,0.3-1.5c0-0.2,0.1-0.5,0.1-0.8c0-0.3,0-0.5,0-0.8c0-0.6,0.1-1.1,0.3-1.6c0.1-0.2,0.2-0.5,0.3-0.7
		c0.2-0.5,0.2-1,0.1-1.4c0-0.1,0-0.1,0-0.2c0-0.1,0-0.2,0-0.3c0-0.1,0.1-0.2,0.1-0.3c0.1-0.1,0.1-0.1,0.2-0.2c0.2-0.1,0.3-0.1,0.5,0
		c0.1,0,0.3,0.1,0.4,0.2c0.2,0.2,0.4,0.4,0.5,0.7c0,0.1,0.1,0.3,0.1,0.4C41.4,25.4,41.4,25.5,41.5,25.7c0.1,0.2,0.3,0.4,0.4,0.6
		c0.1,0.2,0.2,0.5,0.2,0.8c0.1,0.3,0.1,0.5,0,0.8H42c0-0.3,0-0.5-0.1-0.8c-0.1-0.2-0.2-0.5-0.3-0.7c-0.1-0.2-0.3-0.4-0.5-0.6
		c-0.1-0.1-0.1-0.3-0.1-0.4c0-0.1-0.1-0.2-0.1-0.3c-0.1-0.2-0.2-0.4-0.4-0.5c-0.2-0.1-0.4-0.2-0.6-0.1c-0.1,0-0.1,0.1-0.1,0.2
		c0,0,0,0.1,0,0.1c0,0,0,0.1,0.1,0.2c0.1,0.3,0.1,0.5,0.1,0.8c0,0.3,0,0.6-0.1,0.8c-0.1,0.3-0.2,0.5-0.3,0.7c-0.2,0.5-0.2,1-0.2,1.5
		c0,0.3,0,0.5,0,0.8c0,0.3,0,0.5-0.1,0.8c-0.1,0.5-0.2,1.1-0.4,1.6v-0.2c0.5,1.2,1.1,2.4,1.6,3.6l1.6,3.6h-0.4
		c0.3-0.6,0.6-1.3,0.9-1.9c0.3-0.6,0.6-1.3,0.8-1.9c0.1-0.7,0.2-1.4,0.3-2.1c0-0.7,0.2-1.4,0.4-2.1c0.1-0.2,0.2-0.3,0.3-0.5
		c0.1-0.1,0.2-0.3,0.3-0.4c0.2-0.3,0.4-0.6,0.5-0.9c0.3-0.6,0.6-1.3,0.8-1.9c0.1-0.3,0.2-0.7,0.3-1c0.1-0.1,0.1-0.3,0.1-0.4
		c0-0.1-0.1-0.2-0.2-0.3c-0.1,0-0.1,0-0.2,0l0,0l0,0l-0.1,0.1c-0.1,0.1-0.2,0.2-0.3,0.3c-0.2,0.3-0.5,0.5-0.7,0.8l-1.3,1.6l0.9-1.9
		c0.1-0.2,0.2-0.4,0.3-0.6s0.2-0.5,0.2-0.7c0.1-0.2,0.1-0.4,0.2-0.7c0,0,0-0.1,0-0.1c0,0,0,0,0,0c0,0,0-0.1,0-0.1
		c0-0.1,0-0.2-0.1-0.2c-0.1,0-0.1-0.1-0.2-0.1h-0.2c-0.2,0.1-0.3,0.3-0.4,0.4c-0.3,0.4-0.5,0.8-0.8,1.2l-0.4-0.1
		c0.2-0.4,0.3-0.9,0.4-1.4c0-0.1,0-0.2,0-0.3c0,0,0-0.1,0-0.1l0,0l0,0l0,0c-0.2-0.1-0.4-0.1-0.5,0c-0.2,0.1-0.3,0.3-0.4,0.5
		c-0.1,0.2-0.2,0.4-0.3,0.6C42.2,25.1,41.8,25.4,41.5,25.7L41.5,25.7z"/>
	<path style="fill:#FFFFFF;" d="M17.8,34.5c-0.6-1.7-0.1-3.6,1.2-4.8c2.3-2.3,4.3-0.7,4.6-0.4c0.5,0.5,2.5,4.2,0.4,6
		S18.4,36,17.8,34.5z"/>
	<path style="fill:#B2934F;" d="M17.8,34.5c-0.4-1-0.4-2-0.1-3c0.3-1,0.9-1.8,1.8-2.4c0.4-0.3,0.9-0.5,1.4-0.6
		c1-0.2,2.1,0.1,2.8,0.8c0.3,0.4,0.6,0.8,0.8,1.3c0.2,0.5,0.4,0.9,0.5,1.4c0.1,0.5,0.2,1,0.1,1.5c-0.1,0.5-0.3,1-0.6,1.5
		c-0.3,0.4-0.8,0.7-1.3,0.9c-1.5,0.6-3.1,0.4-4.4-0.4C18.4,35.3,18,34.9,17.8,34.5z M17.8,34.5c0.2,0.4,0.6,0.8,1,1
		c0.4,0.2,0.9,0.4,1.4,0.4c1,0.2,1.9,0.1,2.8-0.3c0.4-0.2,0.8-0.5,1.1-0.8c0.3-0.4,0.5-0.8,0.5-1.3c0.1-1-0.1-1.9-0.4-2.9
		c-0.2-0.5-0.4-0.9-0.7-1.3c-0.3-0.3-0.8-0.6-1.3-0.7c-1-0.2-2,0-2.7,0.6c-0.2,0.1-0.4,0.3-0.5,0.5L18.8,30
		c-0.1,0.1-0.2,0.2-0.2,0.3c-0.3,0.4-0.5,0.8-0.7,1.3C17.5,32.5,17.5,33.5,17.8,34.5L17.8,34.5z"/>
	<path style="fill:#FFFFFF;" d="M29.4,28c1.6,0,3.1,0.9,3.9,2.3c1.6,2.5,0.7,4.1,0.2,4.5s-6.1,1.9-7.2-0.5S27.5,28.1,29.4,28z"/>
	<path style="fill:#B2934F;" d="M29.4,28c1.1,0,2.1,0.3,2.9,1c0.8,0.7,1.4,1.7,1.7,2.7c0.2,0.5,0.2,1.1,0.2,1.6
		c-0.1,0.5-0.3,1.1-0.7,1.5c-0.1,0.1-0.2,0.2-0.3,0.2l-0.4,0.1c-0.3,0.1-0.5,0.2-0.8,0.2c-0.5,0.1-1,0.2-1.5,0.3
		c-0.5,0.1-1.1,0.1-1.6,0.1c-0.5,0-1.1-0.1-1.6-0.3c-0.5-0.2-1-0.6-1.3-1.1c-0.2-0.5-0.3-1.1-0.3-1.6c0-0.5,0.1-1.1,0.3-1.6
		c0.2-0.5,0.5-1,0.8-1.4c0.3-0.4,0.7-0.8,1.1-1.2C28.3,28.3,28.8,28.1,29.4,28z M29.4,28c-0.5,0.1-1,0.3-1.4,0.7
		c-0.4,0.4-0.7,0.8-1,1.2c-0.3,0.4-0.5,0.9-0.6,1.4c-0.2,0.5-0.2,1-0.3,1.5c0,0.5,0.1,1,0.3,1.4c0.2,0.4,0.6,0.8,1.1,0.9
		c1,0.3,2,0.4,3,0.3c0.5,0,1-0.1,1.5-0.3c0.3-0.1,0.5-0.1,0.8-0.2l0.4-0.1c0.1,0,0.2-0.1,0.3-0.2c0.3-0.4,0.6-0.8,0.6-1.3
		c0-0.5-0.1-1-0.2-1.5c-0.3-1-0.9-1.8-1.6-2.6C31.4,28.4,30.4,28,29.4,28z"/>
	<path style="fill:#F7E19E;" d="M30.3,22.4c1.9,0.4,3.3,1.9,3.6,3.8c0.6,3.9,0,4.9-0.2,4.9s-1.4-2.6-3.1-2.9s-2.3,1-3.2,0.8
		s-2.6-1.5-1.2-4.8C27.2,21.9,30.3,22.4,30.3,22.4z"/>
	<path style="fill:#B2934F;" d="M30.3,22.4c1.2,0.3,2.3,0.9,3.1,1.9c0.4,0.5,0.6,1.1,0.8,1.7c0.1,0.6,0.2,1.2,0.2,1.8
		c0,0.6,0,1.2-0.1,1.8c0,0.3-0.1,0.6-0.2,0.9c0,0.1-0.1,0.3-0.2,0.4c0,0,0,0.1-0.1,0.1c-0.1,0.1-0.1,0.1-0.2,0.1h-0.1l0,0l0,0v0
		l-0.1-0.1c-0.3-0.5-0.7-1-1.1-1.4c-0.4-0.4-0.9-0.8-1.4-1c-0.3-0.1-0.5-0.1-0.8-0.1c-0.3,0-0.5,0-0.8,0.1c-0.3,0.1-0.5,0.2-0.8,0.4
		c-0.3,0.2-0.6,0.3-1,0.4c-0.4,0-0.8-0.1-1.1-0.4c-0.3-0.2-0.6-0.4-0.8-0.7c-0.4-0.6-0.6-1.2-0.6-1.9c0-0.6,0.2-1.3,0.4-1.9
		c0.2-0.6,0.6-1.1,1.1-1.5c0.5-0.4,1.1-0.6,1.8-0.6c0.3,0,0.6,0,0.9,0C29.7,22.3,30,22.3,30.3,22.4z M30.3,22.4
		c-0.6-0.1-1.2-0.1-1.8,0.1c-0.6,0.1-1.1,0.4-1.5,0.8c-0.2,0.2-0.3,0.4-0.5,0.7c-0.1,0.3-0.2,0.5-0.3,0.8c-0.2,0.5-0.3,1.1-0.3,1.6
		c0,0.5,0.1,1,0.4,1.5c0.1,0.2,0.3,0.4,0.5,0.5c0.2,0.1,0.4,0.2,0.6,0.2c0.4,0,1-0.5,1.6-0.6c0.3-0.1,0.7-0.1,1-0.1
		c0.3,0,0.6,0.1,0.9,0.3c0.5,0.3,1,0.7,1.4,1.2c0.4,0.5,0.7,1,1.1,1.5l0.1,0.1l0,0l0,0c-0.1,0,0,0,0,0v-0.1c0.1-0.1,0.1-0.3,0.1-0.4
		c0.1-0.3,0.1-0.6,0.1-0.9c0-0.6,0-1.2-0.1-1.8c-0.1-0.6-0.2-1.2-0.2-1.8c-0.1-0.6-0.3-1.1-0.5-1.6C32.4,23.4,31.4,22.7,30.3,22.4
		L30.3,22.4z"/>
	<path style="fill:#F7E19E;" d="M19.9,25c0.7-0.5,2.8-0.8,3.8,0.4s1.7,4-0.4,3.7s-3-0.4-4.1,0.5s-1.7,3.2-1.9,3.3S15,28.3,19.9,25z"
		/>
	<path style="fill:#B2934F;" d="M19.9,24.9c0.5-0.3,1-0.4,1.6-0.5c0.6-0.1,1.2,0,1.7,0.2c0.3,0.1,0.5,0.3,0.7,0.5
		c0.2,0.2,0.3,0.5,0.5,0.7c0.3,0.5,0.4,1.1,0.5,1.7c0,0.3,0,0.6-0.1,0.9c-0.1,0.2-0.1,0.3-0.3,0.4c-0.1,0.1-0.3,0.2-0.4,0.3
		c-0.3,0.1-0.6,0.1-0.9,0L22.4,29c-0.5-0.1-1.1-0.1-1.6-0.1c-0.5,0.1-1,0.3-1.4,0.6c-0.4,0.3-0.7,0.8-0.9,1.2
		c-0.2,0.5-0.4,1-0.6,1.5c0,0.1-0.1,0.3-0.1,0.4c0,0.1-0.1,0.2-0.1,0.2c0,0-0.1,0.1-0.1,0.1l-0.1,0.1c-0.1,0-0.2,0-0.2,0h-0.1
		C17,33,17,33,16.9,32.9c-0.2-0.3-0.3-0.5-0.4-0.8c-0.2-0.6-0.2-1.1-0.2-1.7c0-1.2,0.4-2.3,1.1-3.2C18.1,26.3,19,25.5,19.9,24.9z
		 M19.9,25c-0.9,0.6-1.6,1.4-2.1,2.4c-0.5,0.9-0.7,2-0.8,3c0,0.5,0.1,1,0.2,1.5c0.1,0.2,0.1,0.5,0.3,0.7l0,0h-0.1
		c-0.1,0-0.1,0-0.2,0h0c0,0-0.1,0.1,0,0l0.1-0.1l0.2-0.4c0.2-0.5,0.5-1,0.7-1.5c0.3-0.5,0.7-0.9,1.1-1.3c0.2-0.2,0.5-0.3,0.8-0.4
		c0.3-0.1,0.6-0.2,0.8-0.2c0.6,0,1.1,0,1.6,0.1c0.5,0.1,1,0.1,1.5,0c0.4-0.2,0.4-0.7,0.4-1.2c-0.1-0.8-0.4-1.5-0.8-2.1
		c-0.1-0.2-0.3-0.4-0.5-0.5c-0.4-0.3-1-0.4-1.5-0.4C21,24.6,20.4,24.7,19.9,25L19.9,25z"/>
	<path style="fill:#B2934F;" d="M35.1,38.7c0.2-0.3,0.6-0.6,0.9-0.7c0.4-0.2,0.9-0.1,1.3,0.1c0.4,0.2,0.8,0.5,1,0.8
		c0.2,0.4,0.3,0.8,0.2,1.2c-0.2-0.3-0.4-0.6-0.6-0.9c-0.3-0.2-0.6-0.4-0.9-0.5c-0.1-0.1-0.3-0.1-0.4-0.2c-0.2,0-0.3,0-0.5,0
		C35.8,38.6,35.4,38.6,35.1,38.7z"/>
	<path style="fill:#B2934F;" d="M32.8,35.1c0.3-0.4,0.7-0.6,1.2-0.8c0.4-0.2,0.9-0.3,1.4-0.4c0.5-0.1,1,0,1.5,0.1
		c0.5,0.1,0.9,0.3,1.3,0.6c-0.5,0-1,0-1.4,0c-0.4,0-0.9,0-1.3,0.1c-0.4,0-0.9,0.1-1.3,0.2S33.3,35,32.8,35.1z"/>
	<path style="fill:#F3D677;" d="M20.1,31.7c0.5-1.1,1.9-1.6,3.1-1.1c0.1,0,0.1,0.1,0.2,0.1c2.1,0.9,1.1,4.7-0.9,5
		c-1.4,0.1-2.6-0.9-2.8-2.2C19.5,32.8,19.7,32.2,20.1,31.7z"/>
	<path style="fill:#F3D677;" d="M28.9,31c0,0,0.9-2,3.5-1c2.3,0.9,1.2,4.7-1,5c-1.4,0.2-2.7-0.7-2.9-2.1
		C28.3,32.3,28.4,31.6,28.9,31z"/>
	<path style="fill:#0B0A0F;" d="M20.6,32.3c0.4-0.9,1.4-1.3,2.4-1c1.7,0.4,1.3,2.3,1.1,2.7s-1.8,2-3.1,1
		C20.3,34.3,20.2,33.2,20.6,32.3z"/>
	<path style="fill:#0B0A0F;" d="M29.4,31.3c0.4-0.9,1.4-1.3,2.4-1c1.7,0.4,1.5,2.7,1.3,3c-0.5,0.9-2.1,1.9-3.4,0.9
		S29.4,31.3,29.4,31.3z"/>
	<path style="fill:#FFFFFF;" d="M23.5,42.6c0,0-0.3,0.7,0.1,0.9s1.4,0.4,1.7,0.2s0.3-1,0.3-1s-0.1,0.9,0.1,1s1.6,0.3,1.8,0
		s0.1-1.2,0.1-1.2C26.2,42.7,24.8,42.8,23.5,42.6z"/>
	<path style="fill:#B2934F;" d="M23.5,42.6c0,0.2,0,0.3,0,0.5c0,0.1,0,0.3,0.1,0.3c0.3,0.1,0.6,0.2,0.9,0.2c0.1,0,0.3,0,0.5,0
		c0.1,0,0.1,0,0.2,0c0,0,0.1-0.1,0.1-0.1c0.1-0.3,0.2-0.6,0.2-0.9h0.2c0,0.2,0,0.3,0,0.5c0,0.2,0,0.3,0.1,0.5
		c0.1,0.1,0.3,0.1,0.5,0.1c0.2,0,0.3,0,0.5,0c0.2,0,0.3,0,0.5-0.1c0.1,0,0.1,0,0.2-0.1c0,0,0.1-0.1,0.1-0.1c0.1-0.3,0.1-0.7,0-1
		l0.2,0.1c-0.3,0.1-0.7,0.1-1,0.2c-0.4,0-0.7,0-1,0s-0.7,0-1-0.1l-0.7,0L23.5,42.6z M23.5,42.6H24h0.5h1l1-0.1c0.3,0,0.7-0.1,1-0.1
		h0.2v0.2c0.1,0.4,0.1,0.7,0,1.1c0,0.1-0.1,0.2-0.2,0.3c-0.1,0-0.2,0.1-0.3,0.1c-0.2,0-0.4,0-0.5,0c-0.2,0-0.4,0-0.5-0.1
		c-0.2,0-0.4-0.1-0.5-0.2c-0.1-0.2-0.2-0.3-0.2-0.5c0-0.2,0-0.4,0-0.5h0.2c0,0.2,0,0.3,0,0.5c0,0.2-0.1,0.4-0.1,0.5
		c-0.1,0.1-0.1,0.2-0.2,0.2c-0.1,0-0.2,0.1-0.3,0.1c-0.2,0-0.3,0-0.5,0c-0.4,0-0.7-0.2-1-0.4c-0.1-0.1-0.2-0.3-0.2-0.5
		C23.3,43,23.3,42.8,23.5,42.6L23.5,42.6z"/>
	<path style="fill:#FFFFFF;" d="M35.3,43.4c0,0-0.6,0.2-0.8,0.7s0.5,1.3,0.5,1.3c-0.1-0.5-0.6-0.9-1.2-0.8c-0.8,0.1-0.6,1.2-0.6,1.2
		c-0.1-0.3-0.1-0.6-0.3-0.9c-0.2-0.3-0.8-0.3-1.4-0.1s-0.5,1-0.5,1c0.1-0.3,0-0.6-0.1-0.9c-0.2-0.5-0.9-0.5-1.5-0.3
		s-0.4,1.1-0.4,1.1s0.2,0.2,0.9,0.3c1.3,0.1,2.7,0.1,4-0.1c0.5-0.2,1-0.1,1.1-0.6C35.3,44.7,35.4,44,35.3,43.4z"/>
	<path style="fill:#B2934F;" d="M35.3,43.4c-0.2,0.1-0.3,0.2-0.5,0.4c-0.1,0.1-0.2,0.3-0.2,0.5c0,0.2,0.1,0.4,0.2,0.5
		c0.1,0.2,0.2,0.3,0.3,0.5l-0.2,0.1c-0.1-0.2-0.2-0.4-0.4-0.5c-0.2-0.1-0.4-0.2-0.6-0.1c-0.2,0-0.4,0.2-0.4,0.4c0,0.2,0,0.5,0,0.7
		h-0.3c0-0.3-0.1-0.6-0.2-0.8c-0.1-0.1-0.2-0.2-0.3-0.2c-0.1,0-0.3,0-0.4,0c-0.1,0-0.3,0-0.4,0.1c-0.1,0-0.3,0.1-0.4,0.2
		c-0.2,0.2-0.2,0.5-0.2,0.8h-0.1c0.1-0.3,0-0.6-0.2-0.9c-0.2-0.2-0.5-0.4-0.8-0.3c-0.2,0-0.3,0-0.5,0.1c-0.1,0-0.3,0.1-0.4,0.2
		c-0.1,0.2-0.2,0.5-0.1,0.8v-0.1h0.1h0.1l0.2,0.1c0.2,0,0.3,0.1,0.5,0.1c0.3,0,0.7,0,1,0c0.7,0,1.4,0,2.1,0h0.5H34
		c0.1,0,0.2-0.1,0.3-0.1c0.2,0,0.4-0.1,0.5-0.1c0.1,0,0.2-0.1,0.3-0.3c0.1-0.3,0.1-0.7,0.2-1C35.3,44,35.3,43.7,35.3,43.4z
		 M35.3,43.4c0,0.2,0.1,0.4,0.1,0.5c0,0.2,0,0.3,0,0.5c0,0.4,0,0.7-0.1,1.1c0,0.1-0.1,0.2-0.1,0.3c-0.1,0.1-0.2,0.1-0.3,0.2
		c-0.2,0.1-0.4,0.1-0.5,0.1l-0.2,0.1c-0.1,0-0.2,0.1-0.3,0.1l-0.5,0.1c-0.7,0-1.4,0-2.1,0c-0.4,0-0.7,0-1.1-0.1
		c-0.2,0-0.4-0.1-0.5-0.1l-0.3-0.1L29.2,46c-0.1,0-0.1-0.1-0.1-0.1l0,0l0,0c0-0.2,0-0.4,0-0.5c0-0.2,0.1-0.4,0.2-0.5
		c0.1-0.1,0.2-0.1,0.3-0.2c0.1,0,0.2,0,0.3-0.1c0.2,0,0.3,0,0.5,0c0.2,0,0.3,0,0.5,0.1c0.2,0.1,0.3,0.2,0.4,0.4
		c0.1,0.3,0.2,0.7,0.1,1l-0.1,0.3v-0.3c0-0.3,0-0.6,0.2-0.9c0.1-0.1,0.3-0.2,0.4-0.2c0.1,0,0.3-0.1,0.4-0.1c0.2,0,0.3,0,0.5,0
		c0.2,0,0.4,0.1,0.5,0.3c0.1,0.3,0.3,0.6,0.3,0.9h-0.3c-0.1-0.3-0.1-0.6,0-0.8c0-0.2,0.1-0.3,0.2-0.4c0.1-0.1,0.3-0.2,0.4-0.2
		c0.3,0,0.6,0,0.8,0.2c0.2,0.2,0.4,0.4,0.5,0.7l0.2,0.7L35,45.5c-0.1-0.2-0.2-0.4-0.3-0.6c-0.1-0.2-0.1-0.4-0.2-0.6
		c0-0.2,0.1-0.4,0.3-0.6C34.9,43.6,35.1,43.4,35.3,43.4L35.3,43.4z"/>
	<path style="fill:#B2934F;" d="M16.7,36.8c-0.4,0.8-0.6,1.8-0.4,2.7c0.1,0.4,0.3,0.8,0.6,1.1c0.3,0.3,0.7,0.5,1.1,0.7
		c0.9,0.3,1.8,0.6,2.7,0.7c0.9,0.1,1.9,0.2,2.8,0.3s1.9,0.1,2.8,0.1c0.5,0,0.9,0,1.4-0.1c0.5-0.1,0.9-0.2,1.4-0.3
		c1.8-0.5,3.7-1,5.4-1.7l0.3-0.1H35h0.1c0,0,0.1,0,0.1,0c0,0,0.1,0.1,0.1,0.1c0,0,0,0.1,0,0.1c0,0,0,0.1,0,0.1v0.1l-0.1,0.2
		c-0.1,0.2-0.2,0.4-0.3,0.6c0,0.1,0,0.1,0,0.2c0,0,0.1,0.2,0.1,0.3l0.3,0.7c0.2,0.4,0.4,0.9,0.5,1.4c0.1,0.2,0.1,0.5,0.2,0.8
		c0,0.3,0,0.6-0.1,0.9c-0.2,0.3-0.5,0.6-0.9,0.6c-0.3,0.1-0.5,0.1-0.7,0.2c-0.5,0.1-1,0.2-1.5,0.2c-1,0.1-1.9,0.1-2.9,0
		c-1-0.1-1.9-0.3-2.9-0.6c-0.9-0.3-1.8-0.6-2.7-0.9c-0.9-0.4-1.7-0.8-2.5-1.3c-0.8-0.5-1.6-1-2.4-1.5V42c0.8,0.4,1.7,0.9,2.5,1.3
		c0.4,0.2,0.9,0.4,1.3,0.6s0.9,0.3,1.3,0.5c0.9,0.3,1.8,0.6,2.7,0.8c0.9,0.2,1.8,0.4,2.7,0.5c0.9,0.1,1.9,0.1,2.8,0
		c0.5,0,0.9-0.1,1.4-0.2c0.2,0,0.5-0.1,0.7-0.2c0.1,0,0.3-0.1,0.3-0.3c0.1-0.4,0.1-0.8,0-1.2c-0.1-0.4-0.3-0.9-0.5-1.3L34.4,42
		l-0.1-0.2c0-0.1-0.1-0.1-0.1-0.2c0-0.2,0-0.3,0.1-0.5c0.1-0.2,0.3-0.5,0.4-0.7l0.1-0.1l0,0l0,0c0,0,0,0,0,0.1c0,0,0,0.1,0.1,0.1
		c0,0,0.1,0,0.1,0l0,0l-0.3,0.1l-5.5,1.5c-0.9,0.3-1.9,0.5-2.8,0.6c-1,0.1-1.9,0.1-2.9,0.1c-1,0-1.9-0.1-2.9-0.3
		c-1-0.1-1.9-0.4-2.8-0.8l-0.3-0.2c-0.1-0.1-0.2-0.1-0.3-0.2l-0.3-0.2l-0.3-0.3c-0.3-0.4-0.6-0.9-0.6-1.4c-0.1-0.5,0-1,0.1-1.5
		c0.1-0.5,0.3-0.9,0.6-1.3L16.7,36.8z"/>
	<path style="fill:#F7E19E;" d="M20.9,59.4c0.5-0.4,1-0.7,1.6-0.9c0.6-0.2,1.1-0.4,1.7-0.5c0.6-0.1,1.2-0.3,1.7-0.3
		c0.3,0,0.6-0.1,0.9-0.1h0.9c1.2,0,2.4,0.2,3.5,0.5c1.2,0.3,2.3,0.8,3.3,1.4c-1.2-0.1-2.3-0.2-3.5-0.3s-2.3-0.2-3.4-0.2
		c-0.6,0-1.1,0-1.7,0l-1.7,0.1l-1.7,0.1C22,59.2,21.4,59.3,20.9,59.4z"/>
	<path style="fill:#F7E19E;" d="M28.6,55.4c0-0.2-0.1-0.3-0.1-0.5s-0.1-0.5-0.1-0.4c0.1-0.4,0.1-0.7,0-1.1c0-0.9-0.7-1.7-1.6-1.8
		c-0.9,0.1-1.6,0.9-1.6,1.8c0,0.9-0.1,1.9-0.2,2.8c-0.2,0.9,0.2,1.9,1.1,2.2c1,0.4,2.1-0.1,2.5-1.1c0-0.1,0.1-0.2,0.1-0.4
		C28.8,56.4,28.8,55.9,28.6,55.4z"/>
	<path style="fill:#FFFFFF;" d="M21.6,34.2c0-0.2,0.2-0.4,0.5-0.4c0,0,0,0,0.1,0c0.3,0.1,0.4,0.3,0.3,0.6s-0.3,0.4-0.5,0.4
		S21.5,34.7,21.6,34.2z"/>
	<path style="fill:#FFFFFF;" d="M20.4,34.8c0,0-0.3-0.5,0.2-0.8c0.3-0.2,0.6-0.1,0.7,0.2c0,0,0,0.1,0.1,0.1c0,0.2,0,0.5-0.2,0.6
		C20.9,35.2,20.6,35.1,20.4,34.8z"/>
	<path style="fill:#FFFFFF;" d="M30.5,33.4c0-0.2,0.2-0.4,0.4-0.4c0,0,0.1,0,0.1,0c0.3,0.1,0.4,0.3,0.3,0.6S31,34,30.8,34
		S30.4,33.9,30.5,33.4z"/>
	<path style="fill:#FFFFFF;" d="M29.3,34.1c0,0-0.3-0.5,0.2-0.8c0.3-0.2,0.6-0.1,0.7,0.2c0,0,0,0.1,0.1,0.1c0,0.2,0,0.5-0.2,0.6
		C29.8,34.4,29.5,34.3,29.3,34.1z"/>
	<path style="fill:#8BC084;" d="M27.6,11.5c-0.8-1.7-2.8-2.5-4.5-1.7c-3.1,1.3-2.9,5.8-3.3,7c-0.4,1.3-1.1,2.5-2.1,3.5
		c-1,0.8,0.2,1.2,1,1.4c3,0.5,6.1-0.2,8.6-2c4.1-2.7,3-6.8,2.3-7.4C29,11.8,28.3,11.6,27.6,11.5z"/>
	<path style="fill:#598B4C;" d="M27.6,11.5c-0.4-0.7-1.1-1.3-1.8-1.6c-0.4-0.1-0.7-0.2-1.1-0.2c-0.4,0-0.8,0.1-1.1,0.2
		c-0.7,0.3-1.4,0.7-1.8,1.4c-0.5,0.7-0.8,1.4-1,2.2c-0.2,0.8-0.4,1.6-0.5,2.4c0,0.2-0.1,0.4-0.1,0.6c0,0.2-0.1,0.4-0.2,0.6
		c-0.1,0.4-0.3,0.8-0.5,1.2c-0.3,0.8-0.9,1.5-1.5,2c-0.2,0.1-0.3,0.3-0.4,0.4c-0.1,0.1,0,0.3,0.1,0.4c0.3,0.2,0.7,0.3,1.1,0.4
		c0.8,0.1,1.6,0.2,2.4,0.1c0.8-0.1,1.6-0.2,2.4-0.4c1.6-0.5,3-1.2,4.3-2.2c0.6-0.5,1.1-1.1,1.5-1.8c0.6-1,0.8-2.3,0.6-3.4
		c0-0.4-0.2-0.8-0.3-1.1c-0.1-0.2-0.2-0.3-0.4-0.4c-0.2-0.1-0.3-0.2-0.5-0.3C28.4,11.8,28,11.6,27.6,11.5z M27.6,11.5
		c0.4,0,0.8,0.1,1.2,0.2c0.2,0.1,0.4,0.1,0.6,0.2c0.2,0.1,0.4,0.2,0.5,0.4c0.2,0.4,0.4,0.8,0.5,1.2c0.1,0.4,0.1,0.9,0.1,1.3
		c0,0.9-0.2,1.7-0.7,2.5c-0.4,0.8-1,1.4-1.7,2c-0.7,0.5-1.4,1-2.2,1.4c-0.8,0.4-1.6,0.7-2.4,0.9c-0.8,0.2-1.7,0.3-2.5,0.4
		c-0.9,0-1.7-0.1-2.5-0.3c-0.4-0.1-0.8-0.3-1.2-0.5c-0.1-0.1-0.2-0.2-0.2-0.3c0-0.1,0-0.3,0.1-0.4c0.1-0.2,0.3-0.3,0.5-0.5
		c0.6-0.5,1.1-1.2,1.4-2c0.2-0.4,0.3-0.7,0.5-1.1c0.1-0.4,0.2-0.8,0.2-1.2c0.1-0.8,0.2-1.7,0.3-2.5c0.2-0.8,0.6-1.6,1.1-2.3l0.2-0.3
		l0.2-0.2l0.2-0.2l0.3-0.2c0.2-0.1,0.4-0.2,0.6-0.3c0.2-0.1,0.4-0.2,0.6-0.3c0.4-0.1,0.9-0.2,1.3-0.2c0.4,0,0.9,0.1,1.3,0.4
		c0.4,0.2,0.7,0.5,1,0.8C27.2,10.8,27.5,11.1,27.6,11.5L27.6,11.5z"/>
	<path style="fill:#598B4C;" d="M27.6,11.6c-0.7,0.3-1.2,0.8-1.6,1.4c-0.2,0.3-0.4,0.6-0.6,1c-0.1,0.4-0.2,0.8-0.3,1.2
		c-0.1,0.4-0.2,0.8-0.3,1.2c-0.1,0.4-0.3,0.8-0.5,1.1c-0.2,0.4-0.5,0.7-0.9,0.9c-0.4,0.3-0.8,0.4-1.2,0.4v-0.1
		c0.6-0.4,1.1-1,1.5-1.7c0.2-0.3,0.4-0.7,0.6-1s0.4-0.7,0.5-1.1c0.2-0.3,0.3-0.7,0.4-1.1c0.1-0.4,0.1-0.8,0.3-1.2
		C25.8,11.9,26.7,11.4,27.6,11.6L27.6,11.6z"/>
	<path style="fill:#FBF1D3;" d="M17.5,37.1c-0.1,0.6-0.1,1.2,0,1.7c0.1,0.5,0.4,0.9,0.9,1.1l0.4,0.1l0.4,0.1
		c0.3,0.1,0.5,0.2,0.8,0.2c0.6,0.1,1.1,0.2,1.7,0.3c1.1,0.2,2.3,0.2,3.5,0.3s2.4,0,3.6,0c-1.1,0.4-2.3,0.7-3.5,0.8
		c-1.2,0.1-2.5,0.1-3.7,0c-1.3-0.1-2.5-0.5-3.6-1.1c-0.3-0.2-0.6-0.5-0.8-0.8c-0.2-0.3-0.3-0.6-0.3-1C17,38.2,17.2,37.6,17.5,37.1z"
		/>
	<path style="fill:#F3D677;" d="M15.8,40.7c0.4,1.5,0.7,3,0.7,4.5c-0.1,1.9-3.2,2.8-4.5,1c-0.8-1.2-1.2-2.5-1.1-4"/>
	<path style="fill:#B2934F;" d="M15.8,40.7c0.3,0.6,0.5,1.1,0.6,1.7c0.2,0.6,0.3,1.2,0.3,1.8c0,0.3,0,0.6-0.1,0.9
		c-0.1,0.3-0.2,0.6-0.4,0.9c-0.4,0.5-0.9,0.9-1.5,1.1c-0.6,0.2-1.3,0.2-1.9,0c-0.2-0.1-0.3-0.1-0.4-0.2c-0.1-0.1-0.3-0.2-0.4-0.3
		c-0.1-0.1-0.2-0.3-0.3-0.4c-0.1-0.1-0.2-0.3-0.3-0.4c-0.6-1.1-0.8-2.4-0.6-3.7h0.1c0.1,1.2,0.5,2.3,1.1,3.4
		c0.1,0.1,0.1,0.3,0.2,0.4s0.2,0.2,0.3,0.3c0.1,0.1,0.2,0.2,0.3,0.3c0.1,0.1,0.2,0.1,0.4,0.2c0.5,0.2,1.1,0.3,1.6,0.2
		c0.6-0.1,1.1-0.4,1.4-0.9c0.2-0.5,0.3-1.1,0.1-1.7C16.1,43.1,15.9,41.9,15.8,40.7L15.8,40.7z"/>
	<path style="fill:#F3D677;" d="M14.8,43.7c-0.5,0.4-1.1,0.5-1.7,0.5c-0.9-0.1-1.7-1.2-2.1-1.8s-1.6-0.9-1.8-1.3
		c-0.2-0.3-0.2-0.7,0-1c0.2-0.2,0.4-0.3,0.6-0.4c0,0-0.6-0.5-0.6-0.9c-0.1-0.4,0.2-0.9,0.6-1c0.5-0.1,0.8,0.3,1.1,0.5s1,0.8,1,0.8
		c-0.4-0.5-0.7-1-1-1.5c0-0.2-0.3-0.6,0.4-0.9s1.3,0.7,1.5,1.2c0.2,0.4,0.4,0.8,0.6,1.2c-0.2-0.5-0.3-1-0.3-1.5
		c0.1-0.5,0.4-0.8,0.8-0.5c0.4,0.3,0.7,0.7,0.7,1.2c0.1,0.4,0.7,1.4,0.9,2.1c0.3,0.9,0.2,1.8-0.3,2.6"/>
	<path style="fill:#B2934F;" d="M14.8,43.8c-0.3,0.3-0.6,0.4-1,0.5c-0.4,0.1-0.8,0.1-1.1,0C12,44,11.4,43.5,11,42.8
		c-0.4-0.6-1-0.8-1.7-1.2c-0.1-0.1-0.2-0.1-0.3-0.2C9,41.4,9,41.3,9,41.3l-0.1-0.1c-0.1-0.2-0.1-0.4-0.1-0.7c0-0.2,0.2-0.4,0.4-0.6
		c0.2-0.1,0.3-0.2,0.5-0.3V40c-0.2-0.1-0.3-0.3-0.4-0.5c-0.1-0.1-0.1-0.2-0.1-0.3c0-0.1,0-0.2,0-0.3c0-0.2,0.1-0.4,0.2-0.6
		c0.1-0.2,0.3-0.3,0.6-0.3c0.2,0,0.4,0,0.6,0.2c0.2,0.1,0.3,0.3,0.5,0.3c0.3,0.2,0.6,0.5,0.9,0.8l-0.2,0.1c-0.3-0.5-0.6-0.9-0.8-1.4
		c0-0.1-0.1-0.1-0.1-0.2v-0.1v-0.1c-0.1-0.2-0.1-0.3,0-0.5c0.1-0.2,0.2-0.3,0.4-0.4c0.2-0.1,0.3-0.1,0.5-0.1c0.3,0,0.6,0.2,0.8,0.4
		c0.2,0.2,0.4,0.4,0.5,0.7c0.1,0.3,0.2,0.5,0.4,0.7s0.3,0.4,0.4,0.6l-0.5,0.3c-0.2-0.4-0.4-0.8-0.5-1.2c0-0.1,0-0.2,0-0.3
		c0-0.1,0-0.1,0-0.2c0,0,0-0.1,0-0.2c0.1-0.3,0.3-0.5,0.5-0.6c0.2-0.1,0.3-0.1,0.5,0c0.1,0,0.2,0.1,0.3,0.2c0.2,0.1,0.3,0.3,0.4,0.5
		c0.1,0.2,0.2,0.4,0.2,0.6v0.2c0,0,0,0.1,0,0.1c0,0.1,0.1,0.2,0.1,0.3c0.4,0.7,0.6,1.4,0.8,2.2c0.1,0.4,0.1,0.8,0,1.2
		c-0.1,0.4-0.2,0.8-0.5,1.1l0,0c0.2-0.3,0.3-0.6,0.4-1c0-0.4,0-0.7-0.1-1.1c-0.1-0.4-0.2-0.7-0.4-1c-0.2-0.3-0.4-0.7-0.5-1
		c0-0.1-0.1-0.2-0.1-0.3c0-0.1,0-0.1,0-0.2v-0.1c0-0.2-0.1-0.3-0.2-0.5c-0.1-0.1-0.2-0.3-0.3-0.4c-0.1-0.1-0.2-0.1-0.3-0.1
		c-0.1,0.1-0.1,0.2-0.2,0.3v0.1c0,0,0,0.1,0,0.1c0,0.1,0,0.2,0,0.2c0.1,0.3,0.2,0.7,0.3,1l0.9,2.3l-1.4-2.1
		c-0.1-0.2-0.3-0.5-0.4-0.7s-0.2-0.5-0.3-0.7c-0.1-0.2-0.3-0.4-0.4-0.6c-0.1-0.2-0.3-0.3-0.5-0.3c-0.2,0-0.4,0.1-0.5,0.2
		c0,0.1,0,0.2,0,0.3v0.1v0.1l0,0c0,0.1,0,0.1,0.1,0.2c0.2,0.5,0.5,0.9,0.7,1.4l0.4,0.6l-0.5-0.5c-0.3-0.3-0.6-0.5-0.9-0.8
		c-0.2-0.1-0.3-0.3-0.5-0.3c-0.2-0.1-0.3-0.1-0.5-0.1c-0.4,0-0.6,0.4-0.6,0.8s0.3,0.6,0.6,0.8l0.2,0.2l-0.3,0
		c-0.2,0.1-0.3,0.1-0.4,0.2c-0.1,0.1-0.2,0.2-0.2,0.3c0,0.1,0,0.3,0.1,0.4l0.1,0.1v0.1l0.2,0.1c0.3,0.2,0.6,0.3,0.9,0.5
		c0.2,0.1,0.3,0.2,0.5,0.3c0.1,0.1,0.1,0.1,0.2,0.2l0.2,0.2c0.2,0.3,0.4,0.6,0.6,0.8c0.2,0.3,0.5,0.5,0.8,0.6
		C13.4,44.2,14.1,44.1,14.8,43.8L14.8,43.8z"/>
	<path style="fill:#F3D677;" d="M17.2,31.1c0-0.8,0.1-1.6,0.5-2.3c0.2-0.4,0.4-0.7,0.7-1c0.2-0.2,0.3-0.3,0.5-0.4
		c0.2-0.1,0.4-0.2,0.5-0.4c0.4-0.2,0.8-0.4,1.2-0.6c0.4-0.1,0.9-0.2,1.3-0.1c0.9,0.1,1.7,0.6,2.2,1.3l-0.1,0.2
		c-0.7,0.2-1.4,0.4-2.1,0.5c-0.3,0.1-0.6,0.1-0.9,0.1c-0.3,0-0.6,0-0.9,0.1c-0.1,0-0.3,0.1-0.4,0.1c-0.4,0.2-0.8,0.4-1.1,0.7
		c-0.5,0.5-0.9,1-1.1,1.7L17.2,31.1z"/>
	<path style="fill:#F3D677;" d="M33.5,29.6c-0.3-0.6-0.8-1.2-1.4-1.5c-0.5-0.3-1.1-0.6-1.8-0.7h-0.2h-0.2c-0.1,0-0.3,0-0.5,0
		c-0.3,0-0.6,0-0.9,0c-0.3,0-0.6-0.1-1-0.2S27,27.1,26.5,27l-0.1-0.2c0.2-0.5,0.4-0.9,0.8-1.2c0.4-0.3,0.8-0.5,1.2-0.6
		c0.5-0.1,0.9-0.1,1.4,0c0.4,0.1,0.9,0.3,1.3,0.5c0.4,0.2,0.8,0.4,1.1,0.7c0.3,0.3,0.6,0.6,0.9,1c0.5,0.7,0.7,1.5,0.7,2.4L33.5,29.6
		z"/>
	<path style="fill:#C2A366;" d="M21.1,37.1c-0.2-0.1-0.4-0.1-0.6,0.1c-0.2,0.2-0.2,0.5,0,0.7c0.1,0.1,0.3,0.2,0.5,0.2
		c0.3-0.1,0.4-0.4,0.4-0.6C21.4,37.3,21.2,37.2,21.1,37.1L21.1,37.1z"/>
	<path style="fill:#C2A366;" d="M25.1,36.9c-0.1-0.3-0.4-0.4-0.6-0.4c-0.1,0-0.3,0.1-0.4,0.2c-0.2,0.1-0.3,0.5-0.2,0.7
		c0.1,0.2,0.5,0.3,0.7,0.2l0.2-0.1C25,37.5,25.2,37.2,25.1,36.9z"/>
	<path style="fill:#C2A366;" d="M23.3,38c-0.3,0-0.5,0.2-0.5,0.5c0,0.1,0,0.1,0,0.2c0,0.1,0,0.1,0,0.2c0,0.3,0.2,0.5,0.5,0.5
		c0.4,0.1,0.7-0.2,0.9-0.5C24.4,38.3,23.8,38,23.3,38z"/>
	<path style="fill:#C2A366;" d="M19,37.5c-0.1-0.1-0.2-0.2-0.3-0.2l0,0c0-0.1-0.1-0.1-0.2-0.1l0,0c0,0-0.1,0-0.1,0
		c-0.1,0.1-0.1,0.1-0.1,0.2c0,0,0,0.1,0,0.1c0,0,0,0.1,0,0.1c0.1,0.3,0.5,0.3,0.6,0.1C19,37.6,19,37.6,19,37.5z"/>
	<path style="fill:#C2A366;" d="M28.4,36.9c-0.1-0.2-0.2-0.3-0.3-0.3c-0.4-0.1-0.8-0.1-1,0.3c-0.2,0.3-0.1,0.7,0.2,0.9
		c0.2,0.2,0.4,0.3,0.7,0.3c0.4,0,0.7-0.4,0.7-0.7c0,0,0,0,0,0C28.6,37.1,28.5,37,28.4,36.9z"/>
	<path style="fill:#C2A366;" d="M30.9,38c0.1-0.3-0.1-0.5-0.4-0.6c-0.4-0.1-0.9,0.1-1.2,0.5c-0.1,0.2-0.1,0.6,0.2,0.7
		c0.3,0.2,0.7,0.2,1,0.1C30.8,38.5,31,38.3,30.9,38z"/>
	<path style="fill:#C2A366;" d="M33,36.7c0,0,0-0.1,0-0.1c0-0.1,0-0.2,0-0.2c-0.1-0.3-0.4-0.4-0.6-0.4c-0.3,0.1-0.6,0.3-0.7,0.6
		c-0.1,0.2,0,0.6,0.2,0.7c0.3,0.2,0.6,0.2,0.9,0.1C32.9,37.3,33.1,37,33,36.7z"/>
	<path style="fill:#C2A366;" d="M34.3,35.3c-0.3-0.1-0.6,0-0.8,0.2c-0.1,0.1-0.1,0.4,0,0.5c0.1,0.1,0.3,0.2,0.5,0.2
		c0.2,0,0.4-0.1,0.4-0.2c0,0,0,0,0,0c0.1,0,0.2-0.1,0.2-0.2C34.6,35.6,34.5,35.4,34.3,35.3C34.3,35.3,34.3,35.3,34.3,35.3z"/>
	<path style="fill:#FCF4DE;" d="M21.4,43.9c1.6,0.6,3.2,1.2,4.8,1.7c1.6,0.5,3.2,0.8,4.8,0.9c0.8,0.1,1.6,0,2.4,0l0.6-0.1l0.6-0.1
		c0.3-0.1,0.7-0.2,1-0.4c0.2-0.1,0.4-0.4,0.5-0.6c0-0.4,0-0.7-0.1-1.1c-0.2-0.8-0.5-1.6-0.7-2.5c0.5,0.8,1,1.4,1.4,2.2
		c0.3,0.4,0.4,0.9,0.4,1.5c0,0.3-0.1,0.6-0.2,0.9c-0.1,0.3-0.3,0.5-0.5,0.7c-0.4,0.3-0.8,0.6-1.3,0.7l-0.7,0.2
		c-0.2,0.1-0.5,0.1-0.7,0.2c-0.9,0.2-1.8,0.3-2.8,0.2c-1.8-0.1-3.6-0.6-5.2-1.4C24.1,46.2,22.7,45.1,21.4,43.9z"/>
	<path style="fill:#FCF4DE;" d="M26.4,25.2c0.1-0.7,0.4-1.3,0.9-1.8c0.3-0.2,0.6-0.4,0.9-0.6c0.3-0.1,0.7-0.2,1.1-0.2
		c0.7,0,1.4,0.2,2,0.6c0.6,0.4,1,0.9,1.3,1.5c-0.5-0.4-1-0.8-1.6-1.1c-0.5-0.2-1.1-0.4-1.7-0.3c-0.1,0-0.3,0-0.4,0
		c-0.1,0-0.3,0-0.4,0.1c-0.3,0.1-0.5,0.2-0.8,0.4C27.1,24.2,26.7,24.6,26.4,25.2z"/>
	<path style="fill:#FCF4DE;" d="M22.6,25c-0.6,0.1-1.1,0.2-1.6,0.4c-0.5,0.2-0.9,0.5-1.4,0.8c-0.8,0.7-1.5,1.6-2,2.6
		c0-0.6,0.2-1.2,0.4-1.7c0.3-0.6,0.6-1,1.1-1.4c0.5-0.4,1-0.7,1.6-0.8C21.4,24.8,22,24.8,22.6,25z"/>
	<path style="fill:#F7E19E;" d="M42.8,27.6l-0.4,0c-0.2-0.3-0.4-0.5-0.6-0.7c-0.4-0.5-0.7-1.2-0.8-1.8c-0.1-0.3-0.2-0.5-0.4-0.7
		c-0.5-0.3-0.6,0-0.5,0.4c0,0.2,0.1,1.2,0.1,1.5c-0.2,0.6-0.5,1.3-0.5,1.7c-0.1,0.3,0,0.7,0.2,1c0.4,0.5,0.8,0.1,1.3,0.3
		c0.3,0.1,0.3,0.5,0.7,0.7c0.5,0.2,0.9,0.2,1.4,0.1c0.9-0.1,1.7-0.7,2-1.6C45.5,26.8,43.8,26.9,42.8,27.6z"/>
	<path style="fill:#F7E19E;" d="M43.5,23.6c0,0-0.1-0.1-0.1-0.1c0,0-0.1,0-0.2,0c-0.1,0-0.2,0.1-0.2,0.2s-0.3,0.5-0.4,0.7
		s-0.4,0.6-0.1,0.8c0,0,0.1,0,0.1,0c0.3,0.3,0.5-0.3,0.6-0.5S43.8,24,43.5,23.6z"/>
	<path style="fill:#F7E19E;" d="M45.1,23.9c0,0-0.1,0-0.2,0c-0.2,0.1-0.3,0.2-0.4,0.4c-0.1,0.2-0.3,0.4-0.4,0.6s-0.5,0.7-0.1,1
		s0.6-0.1,0.8-0.4c0.2-0.4,0.4-0.9,0.5-1.4C45.3,24,45.2,23.9,45.1,23.9C45.1,23.9,45.1,23.9,45.1,23.9z"/>
	<path style="fill:#F7E19E;" d="M46.5,25.6c-0.1-0.1-0.1-0.1-0.2-0.1c0,0-0.1,0-0.1,0c-0.4,0.1-0.6,0.6-0.9,0.9s-0.4,0.6-0.1,0.8
		c0.3,0.2,0.6,0.1,0.8-0.1c0,0,0,0,0,0c0.2-0.4,0.4-0.8,0.5-1.3C46.5,25.7,46.5,25.6,46.5,25.6z"/>
	<path style="fill:#F8E5AA;" d="M14.8,39.3c-0.1-0.6-0.2-1.1-0.4-1.7c-0.1-0.1-0.2-0.2-0.3-0.2c-0.1-0.1-0.3-0.1-0.5,0
		c-0.7,0.6,0.2,1.5,0.1,2.2s-0.6,1.4-0.4,2c-0.3-0.1-0.5-0.1-0.8-0.2c-0.4-0.1-0.8-0.3-1.2-0.5c-0.4-0.1-0.8-0.3-1.2-0.5l0,0
		c0-0.2-0.2-0.3-0.4-0.3c-0.1,0-0.1,0-0.1,0c-0.8,0.5,0.3,1.2,0.7,1.5c0.5,0.3,0.9,0.6,1.3,1.1c0.4,0.6,0.9,0.9,1.6,1
		c0.8,0.1,1.9-0.7,1.2-1.5c0.4-0.1,0.8-0.5,0.8-1C15.2,40.6,15.1,40,14.8,39.3z"/>
	<path style="fill:#F8E5AA;" d="M10.9,39.1c-0.3-0.3-0.3-0.8-0.7-0.9c-0.2-0.1-0.4,0-0.5,0.2c-0.1,0.1-0.2,0.2-0.2,0.3
		c0,0.2,0.1,0.5,0.3,0.7c0.3,0.5,0.8,0.8,1.3,1c0.2,0,0.4-0.1,0.4-0.2c0,0,0-0.1,0-0.1C11.6,39.6,11.2,39.4,10.9,39.1z"/>
	<path style="fill:#F8E5AA;" d="M12.6,38.7c-0.1-0.2-0.2-0.3-0.3-0.5c-0.1-0.2-0.1-0.4-0.1-0.6l0,0c0.1-0.2,0-0.4-0.2-0.5
		c0,0-0.1,0-0.1,0c-0.6-0.1-0.6,0.6-0.5,1c0.2,0.4,0.4,0.7,0.6,1l0,0l0.1,0.1C12.3,39.4,12.8,39,12.6,38.7z"/>
</g>
</svg>
