<?xml version="1.0" encoding="utf-8"?>
<!-- Generator: Adobe Illustrator 22.0.0, SVG Export Plug-In . SVG Version: 6.00 Build 0)  -->
<svg version="1.1" id="Слой_1" xmlns="http://www.w3.org/2000/svg" xmlns:xlink="http://www.w3.org/1999/xlink" x="0px" y="0px"
	 viewBox="0 0 55.8 62.9" style="enable-background:new 0 0 55.8 62.9;" xml:space="preserve">
<title>14_1</title>
<path style="fill:#C95251;" d="M22,61.3h-0.9c-0.4,0-0.7-0.2-0.9-0.5c-0.2-0.5,0.3-1,0.4-1.1l5.3-3.5l2.4-9.1l0,0
	c-0.4,0-0.9,0-1.3-0.1c-1.2-0.2-2.2-1.2-2.4-2.4c0-0.1-0.1-0.2-0.1-0.3v-1c0-0.3,0-0.5,0.1-0.8v-0.3c-0.4-0.8-0.7-1.6-0.9-2.5
	c-0.2-0.5-0.3-1-0.5-1.5c-0.4,0-0.7-0.1-1.1-0.2c-0.2,0-0.4-0.1-0.6-0.2c-0.8-0.1-1.6-0.4-2.3-0.8c-0.9-0.4-1.7-0.9-2.4-1.5
	c-1.4-1-3.5-3.3-3.6-4.8v-0.5c0-0.2,0.1-0.3,0.2-0.5l0.1-0.1l0,0c0.1-0.2,0.4-0.3,0.6-0.3h0.4c-0.1-0.7,0-1.4,0.4-2l0.1-0.2l0.1-0.1
	l0.4,0.4L15.3,27h0.1l0.2-0.1h0.3c0.1,0,0.2,0.1,0.4,0.1c0.3,0.2,0.5,0.4,0.7,0.7c0.1,0.3,0.2,0.5,0.3,0.8l0.1-0.2
	c0.5-0.5,1.1-0.7,1.8-0.7c0.4,0,0.7,0.1,1,0.3c-0.1-0.3-0.2-0.7-0.3-1.1c-0.1-0.9,0.1-1.9,0.5-2.7V24c0.1-0.1,0.2-0.2,0.2-0.4v-0.2
	c-0.2-0.4-0.3-0.8-0.5-1.2C20,22.1,20,22,20,21.8c0-0.2-0.1-0.3-0.1-0.5c-0.2-1-0.3-2-0.1-3c0-0.7,0.1-1.4,0.3-2
	c0-0.7,0.2-1.3,0.5-1.9c0.3-0.7,0.7-1.4,1.3-1.9c0.8-0.9,1.9-1.4,3.1-1.5c0.4-0.1,0.7-0.1,1.1-0.1h1l0.5,0.1h0.1
	c0.1-0.1,0.2-0.1,0.3-0.2s0.3-0.1,0.4-0.2l0.2-0.1c0.2-0.1,0.4-0.1,0.6-0.1l0.4-0.2c0.3-0.2,0.6-0.4,0.8-0.6
	c0.1-0.1,0.1-0.2,0.1-0.3c-0.1-0.1-0.2-0.2-0.3-0.2L30,9.2c-0.3,0.3-0.7,0.5-1.2,0.6h-0.1c-0.7-0.1-1.6-1.3-1.6-1.3L27,8.4
	c-0.3-0.3-0.4-0.7-0.5-1.1V6.9l0,0V6.5c0-0.5,0.3-0.9,0.8-1.1L27,5.2L27.3,5c1.2-0.6,2.5-1,3.9-1c0.6,0,1.2,0.1,1.8,0.1
	c2.4,0.4,3.2,2.7,3.5,3.5l0.1,0.2C37,8.4,37.5,9,38,9.6c0.3,0.3,0.7,0.5,1.1,0.6c0.4,0,0.8-0.1,1.3-0.1c1.4,0,2.7,0.4,3.7,1.3
	c3.1,2.9,2.5,8.5,2.3,10.4v0.1c0,0.2,0,0.5-0.1,0.6c1,1.1,2,3.1-0.2,6.2c-0.2,1.1-0.5,2.2-0.9,3.3l0,0c0.2,0.1,0.4,0.3,0.6,0.5
	c0.4,0.4,0.7,0.8,1,1.2c0.1,0.1,0.2,0.3,0.2,0.5c0.6,0.9,0.7,2.1,0.3,3.1c-0.2,0.8-0.5,1.5-1,2.1l-0.1,0.1c-0.3,0.4-0.6,0.7-1,1
	L45,40.6c-1,0.6-2.2,0.9-3.4,0.9l0,0c-0.3,0-0.7,0-1-0.1c-0.3,0.4-0.7,0.8-1.1,1.2c-0.4,0.4-0.8,0.8-1.3,1.2L38,44l-0.1,0.1
	c-0.7,0.6-1.4,1.1-2.2,1.5h-0.1l-0.1,0.1L33.2,56c1,0.6,4.9,3.1,5.5,3.5c0.4,0.3,0.6,0.6,0.5,0.9c-0.1,0.3-0.4,0.6-0.7,0.6h-0.1
	C38.3,61.1,25.5,61.3,22,61.3z M21.4,32.6H22c-0.2-1.1-0.4-2.1-0.5-2.7l-0.1-0.3c-0.3-0.1-0.5-0.2-0.7-0.4c0.2,0.4,0.2,0.8,0,1.2
	C21.3,31,21.5,31.8,21.4,32.6z M18.8,31.2L18.8,31.2l-0.1-0.1L18.8,31.2z"/>
<path style="fill:#FFFFFF;" d="M31.1,4.4c0.6,0,1.1,0.1,1.7,0.1c2.3,0.4,2.9,2.8,3.1,3.3c0.4,0.8,1,1.4,1.6,2
	c0.4,0.3,0.8,0.5,1.3,0.7c0.4,0,0.9-0.1,1.3-0.1c1.2,0,2.4,0.4,3.4,1.2c2.8,2.6,2.5,7.5,2.2,10v0.1c0,0.3-0.1,0.5-0.1,0.8l0,0
	c2.5,2.4,0.3,5.2-0.1,5.8c-0.3,1.3-0.6,2.5-1,3.7c0.1,0.1,0.3,0.1,0.4,0.2l0,0c0.2,0.1,0.4,0.2,0.5,0.4c0.3,0.3,0.6,0.7,0.9,1.1
	c0.1,0.1,0.1,0.2,0.2,0.4l0.1,0.1c0.5,0.8,0.5,1.7,0.2,2.6c-0.2,0.7-0.5,1.4-0.9,2l-0.1,0.1c-0.2,0.3-0.5,0.6-0.8,0.8l0,0l-0.1,0.1
	c-0.9,0.6-2,0.8-3.1,0.8c-0.4,0-0.9,0-1.3-0.1c0,0.1,0,0.2-0.1,0.3c-0.1,0.1-0.5,0.6-1,1.1c-0.4,0.4-0.8,0.8-1.3,1.1l-0.2,0.1h-0.1
	c-0.7,0.6-1.4,1-2.2,1.4l0,0c-0.2,0.1-0.3,0.2-0.5,0.3l-2.5,11.1c0,0,5,3.2,5.7,3.6s0,0.7,0,0.7S25.5,60.7,22,60.7h-0.9
	c-1,0-0.2-0.8-0.2-0.8l5.5-3.5l2.4-9.9h-0.5c-0.4,0-0.8,0-1.2-0.1c-1-0.2-1.8-1-2-2l0,0c0-0.1-0.1-0.2-0.1-0.3v-0.9
	c0-0.3,0-0.5,0.1-0.8c0.1-0.2,0.1-0.3,0.1-0.5c-0.4-0.8-0.8-1.6-1-2.5l0,0l-0.6-1.8c-0.5,0-0.9-0.1-1.4-0.2c-0.2,0-0.4,0-0.5-0.1
	h-0.1c-0.8-0.1-1.5-0.4-2.2-0.8c-0.8-0.4-1.6-0.9-2.3-1.4c-1.5-1-3.3-3.3-3.4-4.5v-0.4c0-0.1,0.1-0.2,0.1-0.3l0,0
	c0.1-0.1,0.2-0.2,0.3-0.2h0.2c0.1,0,0.1,0,0.2,0.1c0.3,0.2,0.5,0.5,0.7,0.8v-0.2c-0.1-0.4-0.1-0.8-0.2-1.2l0,0
	c-0.1-0.6,0-1.2,0.3-1.8l0,0l0.1-0.1h0.4c0.1,0,0.1,0,0.2,0.1c0.2,0.1,0.4,0.3,0.5,0.5c0.1,0.2,0.6,1.8,0.6,1.8v-0.1
	c0.1-0.2,0.2-0.3,0.3-0.5l0,0c0.1-0.2,0.2-0.3,0.3-0.5c0.4-0.4,0.9-0.6,1.4-0.6c0.5,0,0.9,0.3,1.1,0.7c0.5,1,0.5,1.4,0,1.7l0.2,0.1
	c0.7,0.6,0.9,1.6,0.7,2.5l0,0c0.3,0.1,0.5,0.2,0.8,0.2c0.3,0,0.6,0,0.9-0.1c-0.3-1.2-0.6-2.5-0.7-3.8l0,0c-0.7-0.3-1.3-0.5-1.7-2.5
	c-0.1-0.8,0.1-1.6,0.5-2.3c0.1-0.2,0.2-0.5,0.4-0.7c-0.3-0.6-0.5-1.2-0.7-1.8c0-0.1-0.1-0.1-0.1-0.2s-0.1-0.4-0.1-0.6
	c-0.2-0.9-0.3-1.9-0.1-2.9c0.1-0.8,0.3-1.5,0.6-2.2c0-0.6,0.2-1.2,0.4-1.7c0.2-0.7,0.6-1.3,1.2-1.8c0.7-0.8,1.7-1.3,2.7-1.4l0,0
	c0.4-0.1,0.7-0.1,1.1-0.1l0,0c0.3,0,0.6,0,0.9,0.1l0,0l0.5,0.1c0.1,0,0.2,0,0.3-0.1c0.1-0.1,0.2-0.1,0.3-0.2
	c0.1-0.1,0.2-0.1,0.3-0.1c0.2-0.1,0.5-0.1,0.7-0.2l0.5-0.2c0.4-0.2,0.7-0.4,1-0.7c0.3-0.4,0.3-1-0.1-1.3c-0.1-0.1-0.3-0.2-0.5-0.2
	l0,0c-0.1,0-0.1,0-0.2,0.1l0,0l-0.6,0.3l0,0c-0.2,0.3-0.6,0.5-1,0.5l0,0c-0.3,0-1.1-0.9-1.2-1.1c-0.3-0.3-0.4-0.6-0.5-1V6.4l0,0V6.3
	c0-0.4,0.3-0.7,0.6-0.8l0.1,0.1l0.3-0.2c1.1-0.6,2.4-0.9,3.7-0.9 M18.9,31.9c0.3,0,0.4-0.5,0.4-0.8v-0.2h-0.1
	c-0.2,0-0.3-0.2-0.4-0.4v-0.1l0,0v-0.5l0,0c0-0.1,0-0.1-0.1-0.1l0,0c-0.2,0-0.3,0.1-0.5,0.2c-0.3,0.5-0.3,1,0,1.5
	C18.5,31.8,18.7,31.9,18.9,31.9 M31.1,3.4L31.1,3.4c-1.4,0-2.8,0.4-4,1l-0.2,0.1l-0.2,0.2l-0.2,0.1c-0.6,0.3-1,0.9-1,1.6v0.8
	c0.1,0.5,0.3,1,0.6,1.4l0.1,0.1c0.4,0.6,1,1.1,1.6,1.4c-0.2,0-0.3,0.1-0.4,0.2l-0.2,0.1h-1.4c-0.4,0-0.8,0-1.2,0.1
	c-1.3,0.1-2.5,0.7-3.4,1.7c-0.6,0.6-1.1,1.2-1.4,2c-0.3,0.6-0.5,1.3-0.5,2c-0.2,0.6-0.3,1.3-0.3,2c-0.1,1.1-0.1,2.1,0.1,3.2
	c0,0.2,0.1,0.3,0.1,0.5c0,0.2,0.1,0.3,0.1,0.5c0.1,0.4,0.3,0.8,0.5,1.2l-0.1,0.2v0.1c-0.5,0.9-0.7,2-0.6,3v0.2h-0.3
	c-0.6,0-1.2,0.2-1.7,0.5L17,27.5c-0.2-0.4-0.5-0.7-0.9-0.9c-0.1-0.1-0.3-0.1-0.4-0.2h-0.6l-0.2,0.1l-0.1,0.1l-0.1,0.1l-0.1,0.1
	l-0.1,0.1L14.4,27v-0.1L14.3,27c-0.3,0.5-0.5,1.2-0.4,1.8c-0.3,0.1-0.6,0.2-0.8,0.5L13,29.4l-0.1,0.1l-0.1,0.1
	c-0.1,0.2-0.2,0.4-0.2,0.6v0.7c0.2,1.7,2.4,4.1,3.8,5.2c0.8,0.6,1.6,1.1,2.5,1.5c0.8,0.4,1.6,0.7,2.5,0.9c0.2,0.1,0.5,0.1,0.7,0.1
	l0.8,0.1c0.1,0.4,0.3,0.8,0.4,1.2c0.2,0.8,0.5,1.6,0.9,2.3v0.2c0,0.2-0.1,0.5-0.1,0.9v1.1c0,0.1,0,0.3,0.1,0.4
	c0.3,1.4,1.4,2.5,2.8,2.8c0.3,0,0.6,0.1,0.9,0.1l-2.4,8.4l-5,3.3l-0.1,0.1c-0.5,0.4-0.7,1-0.5,1.6c0.2,0.6,0.8,0.9,1.4,0.8H22
	c3.5,0,16.4-0.1,16.5-0.1h0.2c0.5-0.1,0.9-0.5,1.1-1c0.1-0.6-0.2-1.2-0.8-1.5c-0.6-0.4-4-2.5-5.3-3.3l2.5-10.1
	c0.8-0.4,1.6-0.9,2.3-1.5l0.1-0.1l0.2-0.2c0.5-0.4,0.9-0.8,1.3-1.3c0.3-0.3,0.6-0.6,0.9-1h0.8c1.3,0,2.6-0.3,3.7-1l0.1-0.1h0.1
	c0.4-0.3,0.8-0.7,1.1-1.1l0.1-0.1c0.5-0.7,0.8-1.5,1-2.3c0.4-1.1,0.3-2.3-0.3-3.3l0,0c-0.1-0.1-0.1-0.3-0.2-0.4l0,0
	c-0.3-0.4-0.6-0.8-1-1.2L46,31.9c0.3-1,0.6-2.2,0.8-2.8c2.3-3.2,1.3-5.4,0.3-6.6v-0.6c0.2-2,0.8-7.7-2.5-10.8l0,0
	c-1.1-0.9-2.5-1.4-4-1.4c-0.4,0-0.8,0-1.2,0.1c-0.3-0.1-0.6-0.2-0.8-0.4c-0.5-0.5-0.9-1-1.3-1.6V7.6c-0.3-0.8-1.1-3.4-3.8-3.8
	c-0.6-0.1-1.2-0.1-1.8-0.1L31.1,3.4z"/>
<path style="fill:#912327;" d="M28.8,46.3l-2.4,10.2L20.9,60c0,0-0.8,0.7,0.2,0.8s17.3-0.1,17.3-0.1s0.7-0.2,0-0.7s-5.7-3.6-5.7-3.6
	l2.5-11.3c2.1-0.9,3.9-2.5,5.2-4.4c1.7,0.2,3.9,0.2,5.1-1.2c1.5-1.4,1.8-3.7,0.8-5.5c-0.5-0.7-1.1-1.3-1.9-1.7
	c0.4-1.2,0.7-2.5,1-3.7c0.4-0.6,2.7-3.4,0.1-5.8c0.2-2,1.2-7.9-2.1-10.9c-1.3-1-3-1.4-4.7-1.1c-0.5-0.1-0.9-0.4-1.3-0.7
	c-0.6-0.6-1.1-1.3-1.6-2c-0.2-0.5-0.8-3-3.1-3.3c-1.8-0.5-3.7-0.4-5.3,0.5c-0.9,0.6-1.2,1-1,1.3s1.8,2.6,2.1,2.5s0.8-0.6,1-0.6
	c0.5,0,0.9,0.4,0.9,0.9c0,0.2-0.1,0.4-0.2,0.6c-0.5,0.5-1.2,0.9-1.9,1c-0.4,0-0.8,0.2-1,0.5c0,0-2.8-0.7-4.7,0.7
	c-1.4,0.9-2.2,2.4-2.2,4.1c-0.8,2.4-0.6,5.1,0.6,7.4c-0.9,1.1-1.1,2.6-0.7,4c0.4,0.6,0.9,1.2,1.5,1.6c0.2,1.3,0.4,2.5,0.7,3.8
	c-0.6,0.2-1.2,0.2-1.8,0c0.3-0.9,0-1.9-0.7-2.5c-0.4-0.2-1,0-0.9,0.5s-0.3,1.4-1,0.4c-0.3-0.5-0.3-1,0-1.5c0.2-0.2,0.7-0.4,0.6,0
	s-0.1,1.3,0.7,0.8s1-0.8,0.4-2s-2.1-0.5-2.5-0.1c-0.3,0.3-0.5,0.6-0.7,1c-0.1-0.6-0.3-1.2-0.6-1.8c-0.2-0.2-0.9-1.1-1.3,0.1
	c-0.2,0.9-0.1,1.8,0.1,2.7v0.1c-0.4-0.5-0.7-1.3-1.3-0.7s0.2,2,0.9,2.8c2.1,2.8,5.3,4.6,8.8,4.9c0.4,1.5,0.9,2.9,1.6,4.3
	c-0.1,0.9-0.8,3.6,1.9,4.4C27.4,46.5,28.1,46.5,28.8,46.3z"/>
<path style="fill:#912327;" d="M44.8,32.3c-0.1,0-0.3,0.2,0,0.7s2.5,3.2,0.4,5.4c-0.8,0.9-1.9,1.6-3,2c-0.5,0.1-0.8,0.4-0.1,0.3
	s2.7-0.2,3.7-1.7s1.5-3.5,0.7-4.7C46,33.5,45.5,32.9,44.8,32.3z"/>
<path style="fill:#912327;" d="M44.3,23.2c0,0-0.1-0.3,0.4-0.3c0.5,0.1,0.9,0.3,1.3,0.6c0.4,0.6,0.5,1.3,0.3,2
	c-0.2,0.7-0.3,1.5-0.5,1.6s-0.4,0-0.2-0.5c0.3-0.7,0.5-1.4,0.4-2.1c-0.2-0.6-0.2-0.9-0.6-1c-0.2-0.1-0.5-0.2-0.8-0.1L44.3,23.2z"/>
<path style="fill:#912327;" d="M45.4,20.5c0.1-1,0.1-1.9,0-2.9c-0.2-0.7-0.5-4.3-2.2-5.4c-0.7-0.8-1.7-1.2-2.8-1.2
	c-0.8,0-1.6-0.2-2.4-0.5c-0.5-0.3-1-0.7-1.5-1.1c-0.4-0.5-0.8-1.1-1.1-1.7c-0.2-0.5,0.2-0.2,0.2,0C36,8.4,36.5,9.1,37,9.8
	c0.9,0.6,1.9,0.9,3,1c1,0,2.1,0.3,2.9,0.9c0.6,0.5,1.9,1.1,2.5,4.3c0.2,1.7,0.2,3.3,0.1,5C45.6,21.3,45.3,20.9,45.4,20.5z"/>
<path style="fill:#C2312B;" d="M40.2,13.2c0,0-0.5-0.2-0.2,0.1s2,1.3,2.3,2.4s0.8,2.6,0.9,2.8s0.3,0.2,0.4,0.1s0.1-0.1,0.1-0.2
	c0-1.3-0.6-2.6-1.5-3.5C41.6,14.2,41,13.7,40.2,13.2z"/>
<path style="fill:#C2312B;" d="M39.3,19.3c0.1,0,0.3-0.1,0.3-0.2c0,0,0,0,0-0.1c0.4-1.9-0.5-3.8-2.2-4.7c-3.1-1.7-4.8,0-5.3,0.6
	c-1,0.8-1.6,2.1-1.4,3.4c0.3,1.7,0.6,3.3,1.5,3.6c0-0.2,0.1-0.4,0.8-0.8s1.3-0.8,1.3-0.8c-0.3,0.6-0.3,1.3,0,1.9
	c-0.6,0-1.1,0-1.7-0.1c-0.2-0.1,0,0.3,0.4,0.4s4.5,0,5,0c1.3,0,2.7-0.1,4-0.2c-1.4,0.5-2.8,0.8-4.2,1.1c-0.7,0.1-1.1,0.1-0.9,0.3
	c1.5,0,3-0.2,4.4-0.7c0.8-0.3,1.6-0.7,2.3-1.1c0.1-0.1,0.2-0.4,0-0.4L43,21.8c-0.9,0.1-1.9,0.1-2.8,0.1c0.3-0.7,0.1-1.4-0.3-2
	c-0.5,0-1-0.2-1.4-0.2c-0.3-0.2-0.2-0.3,0-0.4H39.3z"/>
<path style="fill:#C2312B;" d="M30.4,7.1c0.4-0.2,0.9-0.3,1.3-0.2c0.6,0,1.2,0.2,1.6,0.6c0.5,0.4,0.9,1,0.9,1.7
	c0,0.9-0.2,1.7-0.5,2.5c-0.1,0.4-0.2,1.3,0.2,1.6c-1,0.6-2.2,0.8-3.4,0.7c-1.3-0.2-2.6-0.5-3.9-0.9c-0.1-0.2,0.4-1.2,0.8-1.5
	c0.4-0.3,0.8-0.4,1.2-0.5c0.7-0.2,2.2-0.7,2.2-1.6c-0.1-0.6-0.7-1.1-1.3-1.2C29,8.1,30.4,7.1,30.4,7.1z"/>
<path style="fill:#C2312B;" d="M25.8,11.3c0.1,0-1.1,1.5-0.1,2c0.1,0.1,0.3,0.2,0.5,0.2c0,0,2.5,0.3,3.2,1c0.4,0.3,0.8,0.7,1,1.2
	c0,0.2-0.1,0.3-0.4,0c-0.3-0.3-0.7-0.6-1.1-0.8c-0.6-0.5-1.3-0.8-2-1c-0.7-0.1-1.3-0.1-1.2,0.2s2.8,0.9,2.8,2.3s0,3.1-0.7,3.6
	c-0.5-0.1-1.1-0.2-1.6-0.2c0.1,0.2,0.4,0.7,0.4,0.7c0.4,0,0.8,0.1,1.2,0.2c0.5,0.4,0.7,1,0.6,1.6c0.4,0,1.5,0.1,1.7,0.1
	s0.1,0.1-0.2,0.3c-1.7,0.1-3.3,0.1-5,0.1c-0.9,0-1.8,0.1-2.7,0.2c-0.1,0.1,0.3,0.3,0.4,0.5s-1-0.1-1.5,0.2c-0.5-0.9-0.8-2-1-3
	c-0.2-0.8-0.2-1.7-0.1-2.5c0.1-0.4,0.2-0.2,0.2,0.1c0,1,0.2,2,0.5,2.9c-0.1,0.4,0.2,0.9,0.6,1c0.4,0,0.9,0.1,1.3,0.2
	c-0.3-0.5-0.3-1.1-0.1-1.7c0.1-0.3,0.4-0.2,0.7-0.3s2.2-0.2,2.2-0.2s1.5-1.1,1.5-2.4c-0.2-1.3-1.1-2.4-2.3-2.9c-1-0.2-0.9-1-0.7-1.2
	c-0.5-0.4-0.7-1.2,0.3-2.1C24.7,11.4,25.3,11.3,25.8,11.3z"/>
<path style="fill:#C2312B;" d="M37.3,27.7c0.6-0.4,0.7-1.2,0.3-1.8c0,0,0,0,0,0l-0.3-0.3c-1.9-1.2-4.1-2.1-6.3-2.4
	c-1.8,0.5-3.6,0.7-5.5,0.7c-1,0-2-0.1-2.9-0.4c-1.7-0.7-2.1,1.4-1.9,2c0.1,0.3,0.6-0.1,1.3-0.3c0.4-0.1-0.6,1.8,1.2,2.5
	c0.4,0.5,0.6,0.5,0.7,0.8c0.2,0.7,1.1,4.5,1.3,5.3s0.2,1.3,0.3,1.6s-0.7,1.3,0.7,2.2c2,0.9,4.3,0.9,6.3,0.1c1.6-0.5,3.2-1.2,4.7-2
	c0.2-0.2-0.3-0.9-1.1-0.5c-1.9,0.6-3.8,1.1-5.7,1.4c-0.8-0.1-2.8,0.2-3.9-1.5c-0.7-1.3-1.2-2.6-1.5-4c-0.2-1.2-0.4-3.1-0.4-3.3
	c0-0.3-0.2-0.5-0.4-0.7c-0.2-0.2-0.9-0.9-0.7-1.3s0.1-1,0.5-1c0.4,0,0.7,0.3,0.7,0.7c0,0.3-0.5,0.9,0.2,1.5c1.6,1.1,3.5,1.7,5.4,1.7
	C33.2,28.5,35.9,28.5,37.3,27.7z"/>
<path style="fill:#C2312B;" d="M26.3,37.7c0,0-0.6-0.3-0.4,0.3s0.1,1.8,1.2,2.2s3.6,1,4.2,1.7c0.3,0.4,0.9,1.2-0.1,1.7
	s-1.8,0.8-2.5,0.2c-0.3-0.3-0.6-0.2-1,0c-0.9,0.1-1.9-0.2-2.6-0.8c-0.2-0.2-0.1,1.3,0,1.7c0.6,1.1,1.8,1.7,3,1.6
	c0.4-0.1,0.9-0.2,1.3-0.1c0.4,0.2,0.8,0.3,1.2,0.3c0.3,0.1,0.7,0.1,1,0c-0.5-0.3-0.6-0.8-0.4-1.3c0-0.1,0-0.1,0.1-0.1
	c0.4-0.6,1.6-0.4,2.2-1.2c0.9-1.2,0.6-2-0.2-3c-0.5-0.6-2.1-0.8-3.3-0.9c-1-0.2-1.9-0.7-2.7-1.3C27.1,38.4,26.4,38,26.3,37.7z"/>
<path style="fill:#C2312B;" d="M29.1,47h-0.3l-2.4,9.4l-4.2,2.7c0,0-1.4,1.1,0,1.2S35.8,60,35.8,60s0.6-0.1,0.5-0.4
	s-0.7-0.3-1.1-0.3H29c-0.3,0-0.2-0.2-0.1-0.4s0.8-1,1.1-1.5l0.3-0.6c0-0.2-0.8,0-0.9-0.2s-0.1-0.1-0.1-0.2c0-0.9,2.6-8.2,2.5-8.4
	C31.5,47.4,29.9,47.7,29.1,47z"/>
<path style="fill:#C2312B;" d="M20.3,31.4c-0.1-0.2-0.2-0.8-0.4-0.8s-0.5,0-0.5,0.2c0,0.3,0,0.6,0,0.9c-0.1,0.1-0.2,0.2-0.2,0.3
	s0,1-0.6,1.1c-0.8,0.3-1.7,0.1-2.3-0.4c-0.6-0.5-1.1-1.1-1.6-1.7c-0.2-0.4-0.4-0.7,0-0.7s0.2-0.2-0.1-0.5s-0.4-0.1-0.4,0.4
	c0.2,1.2,0.9,2.3,1.8,3c1.7,1.1,3.5,2,5.4,2.8c0.8,0.3,0.9,0.9,0.5,1.4c0.4,0.2,1.3,0.2,1.3-0.3s-0.4-1.6-2.2-2
	c-0.2-0.3-0.3-0.1-0.2-0.6s0.4-1.2,0.3-1.5s-0.4-0.5-0.4-0.6C20.6,32.1,20.5,31.7,20.3,31.4z"/>
<path style="fill:#C2312B;" d="M17.2,29.1c0.2-0.2,0.9-0.8,1.4-0.5c0.4,0.2,0.7,0.6,0.9,1.1c0.1,0.4,0.1,0.8-0.1,0.9
	c-0.1,0.1-0.3,0.1-0.4,0c-0.1-0.1-0.1-0.1-0.1-0.2c0-0.3,0.1-0.8-0.3-0.8c-0.4,0-0.8,0.3-0.8,0.7c0,0.4,0.1,0.8-0.3,0.8
	s-0.7-0.7-0.6-1.2C16.9,29.6,17,29.3,17.2,29.1z"/>
<path style="fill:#C2312B;" d="M16.1,27.9c0,0,0-0.6-0.3-0.5s-0.5,1.2-0.4,1.9s0.5,1.2,0.4,1.3s-0.4-0.7-0.5-0.8s-0.1,0.9-0.1,1
	c0.3,0.3,0.6,0.6,0.9,0.8c0.1,0,0.4-0.1,0.2-0.8c-0.3-0.6-0.5-1.2-0.6-1.8C15.6,28.6,15.5,27.7,16.1,27.9z"/>
<path style="fill:#C95251;" d="M33.4,28.4c0,0,1.3,0,1.5-1.1s-0.1-1.4-0.7-1.6s-2.1-0.2-2.9-0.4s-4.1-0.5-4.5-0.7s-1-0.5-1.4-0.3
	c-0.7,0.4-0.9,1.3-0.5,2c0.2,0.3,0.4,0.5,0.7,0.6C28,28.1,30.7,28.6,33.4,28.4z"/>
<path style="fill:#C95251;" d="M22.4,25.4c0.2-0.2,0-0.6-0.6-0.5s-2.3,0.8-1.1,3.2c0.3,0.5,0.7,0.8,1.2,1l0.7,3.8c0,0,1,4.8,1.4,6.1
	c0.3,1,0.6,1.9,1.1,2.8c0,0-0.3,1.2-0.1,1.3s1.8,1.4,3.4,0.5c0.4,0,0.5,0.2,0.8,0.2c0.9,0.1,1.9-0.2,2.5-0.9c0.4-0.6,0.4-1-0.1-1.5
	c-1-0.5-2-0.8-3-1.1c-1.1-0.1-2-0.8-2.5-1.8c-0.1-0.3,0-0.7,0.1-1c0-0.2,0.2-0.1,0.5,0c0.6,0.2,1.3,0.4,2,0.4
	c0.9,0.1,1.7-0.1,2.5-0.4c0.4-0.3,0.3-0.8-0.2-0.7c-0.7,0.2-1.5,0.2-2.2,0.1c-1-0.2-1.9-0.6-2.7-1.2c-0.4-0.5-0.4-0.2-0.5-1
	s-1.1-4.5-1.2-5c-0.2-0.8-0.4-1.5-0.8-2.2c-0.4-0.2-0.8-0.5-1.2-0.8C22.1,26.3,22.1,25.8,22.4,25.4z"/>
<path style="fill:#C95251;" d="M24,25.2c0.1,0,0.4-0.7-0.2-0.7c-0.6,0.1-1.1,0.6-1,1.2c0,0.5,0,1.4,0.7,1.4c0.2,0,0.4-0.3,0.4-0.5
	s0-0.1-0.1-0.2C23.5,26,23.5,25.2,24,25.2z"/>
<path style="fill:#C95251;" d="M19.5,34.2c0.4-0.4,0.7-0.9,0.8-1.4c0.1-0.8-0.4-2.2-0.7-2.1s0,1.2-0.1,1.5c-0.1,0.3-0.9,1.6-1.4,1.6
	s-1.2,0-0.8,0.4S18.9,35,19.5,34.2z"/>
<path style="fill:#C95251;" d="M22.1,37.4c0,0,0.7-0.7-0.5-1.2s-4.5-2.2-5.1-3s-2.9-1.8-2.1-3.4c-0.1,0-0.1,0-0.2-0.1
	c-0.4,0-0.6,0.4-0.6,0.9c0.1,1.2,2.1,3.6,3.7,4.6S20.6,37.5,22.1,37.4z"/>
<path style="fill:#C95251;" d="M16.9,29.6c0,0,0,0.9,0.4,0.7s0.4-0.8,0.7-1c0.2-0.2,0.6-0.2,0.8,0c0.2,0.2,0.1-0.5-0.4-0.6
	C17.7,28.6,17.1,29,16.9,29.6z"/>
<path style="fill:#C95251;" d="M41.4,24.7c-0.1,0-0.4-0.5,0-0.5c0.7-0.1,1.5,0,2.2,0.3c0.4,0.3,1,1,0.7,1.3
	c-0.1,0.2-0.3,0.5-0.4,0.5s-0.1-0.3-0.3-0.5C43.2,25.5,42.6,24.4,41.4,24.7z"/>
<path style="fill:#C95251;" d="M36.9,19.3c0.7-0.5,1.1-1.3,1-2.2c-0.3-1.3-1.2-2.4-2.5-2.8c-1.1-0.3-2.3,0-3,0.9
	C31.7,16.1,31.1,18,32,19s1.4,1.1,1.2,1.1c-0.5,0.2-1,0.5-1.4,1c-0.1,0.2,0,0.3,0.1,0.4c0.2-0.3,0.5-0.6,0.8-0.8
	c0.5-0.3,1-0.5,1.6-0.7c0.3-0.1,1-0.4,1.4-0.5S36.9,19.3,36.9,19.3z"/>
<path style="fill:#C95251;" d="M25.4,19.8c1-0.3,1.7-1.3,1.6-2.4c-0.2-1.7-1.9-2.3-2.2-2.5s-0.2-0.6-0.6-0.9l-0.3-0.3
	c0,0-0.5-0.7-0.3-1.2c0.1-0.3,0.2-0.6,0.4-0.8c-1.1,0.5-2,1.3-2.5,2.3c-0.3,0.6-0.4,1.2-0.4,1.9c-0.4,1-0.6,2-0.7,3
	c0.1,0.7,0.2,1.3,0.4,2c0.1,0.2-0.2,0.4-0.2,0.5v0.2c0,0,0.1,0.2,0.1,0.1c0.1-0.3,0.3-0.5,0.6-0.6c0.6-0.3,1.1-0.5,1.7-0.8
	c0,0-0.1-0.5,0.2-0.5l1-0.1L25.4,19.8z"/>
<path style="fill:#C95251;" d="M26.7,11.4L26.1,12c-0.1,0.3-0.2,0.6-0.2,0.9c0,0.2,0,0.5,0.2,0.6c0.2,0.1,0.4,0.1,0.6,0
	c0.1-0.1,0-0.5,0-0.7c0-0.3,0.1-0.6,0.3-0.8c0.1-0.2,0.3-0.3,0.4-0.5L26.7,11.4z"/>
<path style="fill:#C2312B;" d="M27.6,11.8c0,0-0.5,0.4-0.5,0.6c0.2,0.3,0.5,0.5,0.9,0.6l2.3,0.3h2.4c0.5-0.1,1.6-0.4,1.9-0.5
	s0.2-0.8-0.3-0.8c-1.1,0.2-2.2,0.4-3.3,0.5c-0.9-0.1-1.9-0.2-2.8-0.4C27.8,12,27.7,11.7,27.6,11.8z"/>
<path style="fill:#7E1F21;" d="M38.9,10.7c0,0,1.4,0.2,1.5,0.7c0.1,0.4,0.1,0.7,0,1.1c-0.2,0.2-0.2,0.4-0.4,0.2s0.1-0.2,0-0.6
	s0.1-0.5-0.3-0.7s-0.4-0.4-0.6-0.5S38.8,10.7,38.9,10.7z"/>
<path style="fill:#C2312B;" d="M35.4,8.6c-0.1-0.2-0.1-0.4-0.2-0.6S35,7.7,34.8,7.7s0,0.5,0.1,0.8c0.2,0.4,0.4,0.8,0.7,1.1
	c0.4,0.3,0.8,0.5,1.2,0.6c0.2,0.1,0.7,0.3,0.8,0.6s0.4,0.4,0.5,0.6s0.4,0.2,0.4,0c0-0.2-0.1-0.5-0.3-0.6c-0.2-0.3-0.5-0.6-0.9-0.8
	c-0.4-0.2-0.8-0.4-1.1-0.7C35.8,9,35.5,8.9,35.4,8.6z"/>
<path style="fill:#7E1F21;" d="M43.7,21.1c0.2-0.5,0.4-1,0.5-1.5c0-0.9-0.1-1.8-0.3-2.7c-0.4-1.1-1-2.1-1.8-3
	c-0.7-0.5-1.2-1-1.2-1.2s0-0.8,0.2-1s0.4-0.4,0.1-0.5s-1-0.2-1.2,0c0.2,0.4,0.4,1.1,0.3,1.2s-0.2,0.5-0.4,0.4
	c-0.5-0.2-1.1-0.3-1.6-0.4c-0.8-0.1-1.7,0-2.5,0.1c-1.2,0.3-2.4,0.9-3.4,1.7c-1.1,1-1.3,1.1-1.4,1.2c-0.2-0.1-1-0.8-1.5-1.1
	c-0.8-0.4-1.6-0.7-2.5-0.8c-0.9-0.1-1.9-0.1-2.8,0.1c-0.8,0.2-1.6,0.7-1.5,0.8s0.3-0.1,0.4-0.2c0.9-0.5,1.9-0.7,2.9-0.5
	c1.5,0.3,3.3,0.5,4,1.7c0.2,0.2,0.5,0.4,0.4,0.6s-0.2,0.1-0.3,0l-0.2-0.2c0,0-1.2,3.1,0.9,4.8c0.7,1.2,1,1.6,1.4,1.7
	c0.2,0.1,0.2,0,0.2,0l-0.1-0.2c0,0-0.6,0.1-1.1-1.2s-0.8-3.7-0.4-4.4c0.5-0.9,1.2-1.7,2-2.3c1-0.6,2-1.1,3.1-1.4
	c1.3,0,2.6,0,3.9,0.2c0.8,0.4,1.5,1,2.2,1.6c0.8,0.7,1.3,1.7,1.5,2.7c0.3,0.8,0.4,1.7,0.3,2.6C43.8,20.5,43.5,21.1,43.7,21.1z"/>
<path style="fill:#7E1F21;" d="M43.4,21.6c0-0.4-0.2-0.8-0.6-1c-0.6-0.5-1.4-0.9-2.2-1c-0.9-0.1-1.1-0.1-1.1,0s0.3,0.2,0.6,0.3
	c0.6,0.2,1.2,0.5,1.8,0.8c0.3,0.2,0.6,0.5,0.8,0.8c0,0.1-0.2,0.4-0.2,0.5S43.2,21.8,43.4,21.6z"/>
<path style="fill:#7E1F21;" d="M35,23.7c0.8-0.1,1.7-0.1,2.5,0c1.1-0.1,2.2-0.3,3.2-0.6c0.7-0.3,1.4-0.6,2.1-0.9l0.8-0.5
	c0.3-0.1,0.5-0.2,0.8-0.3c0.3-0.1,0.6-0.1,0.9-0.1c0.1,0,0.3,0.1,0.3,0.2c0,0,0,0,0,0.1c0,0.3-0.1,0.5-0.1,0.8c-0.1,0-0.3,0.1-0.4,0
	c-0.4,0-0.7,0-1.1,0.1c-0.2,0.1-0.8,0.3-1,0.4c-0.1,0.1-0.2,0.2-0.4,0.2c-0.6,0.2-1.3,0.3-1.9,0.4c-0.4,0-2.8,0.1-3.2,0.2
	c-0.6,0.1-1.2,0.1-1.8,0C35.5,23.7,34.8,23.8,35,23.7z"/>
<path style="fill:#7E1F21;" d="M40.9,24.6c-0.2,0.1-0.4,0.1-0.6,0.2S39.9,25,40,25.1c0.3,0.1,0.5,0.1,0.8,0c0.3-0.1,0.7-0.2,1-0.1
	l0.6,0.3c0.3,0.2,0.6,0.5,0.8,0.8c0.1,0.3,0.1,0.6,0.2,0.9c0.1,0.1,0.4,0.2,0.5,0l0,0c0.2-0.2,0.1-0.4,0-0.7
	c-0.1-0.3-0.3-0.5-0.5-0.6c-0.3-0.5-0.9-0.9-1.5-1C40.9,24.6,41.1,24.6,40.9,24.6z"/>
<path style="fill:#7E1F21;" d="M21.9,23.1c0.2-0.2,0.9,0.3,1.1,0.4c1,0.2,2,0.2,3,0.2c0.7-0.1,1.4-0.1,2.1-0.1
	c0.3,0,0.7-0.1,0.9-0.1s0.3,0.1,0.1,0.1c-1.4,0.2-2.7,0.3-4.1,0.3C23.5,23.9,21.7,23.3,21.9,23.1z"/>
<path style="fill:#7E1F21;" d="M30,22.5c0.3-0.1,0.6-0.3,0.5-0.5c-0.1-0.3-0.3-0.6-0.6-0.8c-0.4-0.3-0.8-0.6-1.3-0.8
	c-0.3-0.1-0.5-0.2-0.8-0.2c-0.3,0-0.1,0.4,0,0.5l0.9,0.3c0.2,0.1,1.2,0.6,1.3,0.9s0,0.3-0.2,0.4s-0.3,0.1-0.5,0.1
	C29.4,22.4,29.9,22.6,30,22.5z"/>
<path style="fill:#7E1F21;" d="M24.5,25.4c0.1-0.2,0.2-0.2,0.2-0.4s-0.1-0.1-0.3-0.1s-0.3,0.6-0.4,0.8c0.2,0.6,0.5,1.1,1,1.4
	c0.5,0.4,1.7,1.2,4.7,1.5c2.3,0.3,4.6,0.3,6.8-0.2c1.7-0.4,3.2-1.1,4.6-2.1c0.3-0.4,0.6-0.8,1-1.1c0.2-0.1,0.1,0,0,0.4
	c-0.6,2.1-1.3,4.1-2.2,6.1c-1.1,1.1-2.2,2.1-3.4,3c-0.3,0.1-0.8,0.5-1.1,0.5s0.1,0.2,0.3,0.2c0.9-0.5,1.8-1,2.6-1.7
	c0.9-0.8,1.7-1.6,2.4-2.6c0.5-1,0.8-1.2,0.7-0.8c-0.1,0.7-0.4,1.4-0.7,2c-0.5,0.7-1,1.4-1.5,2c-0.3,0.2-0.5,0.9-0.1,0.9
	s1.7-1.4,1.9-1.7c0.6-1,1-2,1.3-3.1c0.3-1.2,0.5-2.4,0.6-3.6c0-0.5,0.2-1.3-0.3-1.4s-0.3-0.5-1,0c-1,0.7-2.1,1.4-3.2,2
	c-0.5,0.2-1.3,1.7-7.3,1.2C27,28.1,27,28.2,25,27.1C24.5,26.6,24.1,26.2,24.5,25.4z"/>
<path style="fill:#7E1F21;" d="M26.3,31.1c0.1-0.3,0.2-0.6,0-0.5s-0.4,0.6-0.5,0.8c-0.1,0.5-0.1,1-0.1,1.5c0.1,0.4,0.3,0.7,0.5,1
	c0.2,0.1,0.3-0.5,0.3-1C26.3,32.3,26.3,31.7,26.3,31.1z"/>
<path style="fill:#7E1F21;" d="M25.3,36.4c-0.1-0.1-0.1-0.2-0.2-0.4s-0.1-0.4-0.2-0.3s0,0.4,0.1,0.6c0.4,0.8,1.1,1.4,1.9,1.8
	c1.3,0.6,2.6,0.8,4,0.8c1.4-0.3,2.8-0.6,4.2-1.1c0.4-0.2,1.3-0.6,1.5-0.7s0.7-0.6-0.1-0.2c-1.5,0.7-3,1.2-4.6,1.6
	c-1.3,0.2-2.6,0.1-3.8-0.2c-0.7-0.3-1.4-0.7-2.1-1.1C25.7,37,25.5,36.7,25.3,36.4z"/>
<path style="fill:#C2312B;" d="M29.1,44.3c0.1-0.1-0.5-0.3-0.6-0.8c-0.1-0.4-0.1-0.7-0.1-1.1c0-0.3,0.2-0.6,0.1-0.5
	c-0.1,0.2-0.2,0.5-0.3,0.7c-0.2,0.3-0.3,0.7-0.2,1c0.1,0.4,0.2,0.7,0.4,0.7C28.7,44.4,28.9,44.4,29.1,44.3z"/>
<path style="fill:#C2312B;" d="M43.6,34.4c-0.8,0.4-1.4,2.3-1.4,2.3c-0.2,0.1-0.5,0-0.5-0.3l0,0c-0.2-0.5-2.6,0.3-3.2,1.2
	s-2.7,0.6,0.3,2c1.8,0.7,3.8,0.2,5.1-1.2c0.7-0.8,1-1.9,0.8-2.9c0-0.5-0.2-0.6,0.1-1S44.4,34,43.6,34.4z"/>
<path style="fill:#C95251;" d="M44.2,34.5c-0.1-0.3-0.7-0.2-1.2,0.6c-0.3,0.5-0.5,1-0.7,1.6l-0.5-0.3c-0.3-0.2-0.2-1.1-1.2-0.7
	c-0.4-0.1-1.2-1.1-1.6-0.6s0.4,1.6,0.4,1.6c-0.3,0.3-0.7-0.4-0.9-0.8s-0.8-0.6-1-0.2c-0.1,0.8,0.3,1.7,1,2.1c0.6,0.4,1-0.1,0.9-0.5
	c0-0.2-0.2-0.3-0.2-0.5s0.2-0.4,0.6,0s0.9-0.1,1,0c0.4,0,0.7,0.7,0.9,0.7s1.5,0.8,2.1-0.1C44.4,36.5,44.5,35.4,44.2,34.5z"/>
<path style="fill:#C95251;" d="M37.1,37.1c-0.2-0.1-0.9-0.4-1,0.4c0.1,0.8,1.3,1.3,1.6,1.5s0.5-0.2,0.3-0.5
	C37.8,37.9,37.5,37.5,37.1,37.1z"/>
<path style="fill:#7E1F21;" d="M41.9,36.6c-0.1-0.1,0-0.5,0.3-0.2c0.2,0.3,0.4,0.5,0.8,0.6c0.3,0.1,0.7,0.2,1.1,0.1
	c0.2,0,0,0.2-0.3,0.2c-0.3,0-0.6,0-0.9-0.1C42.4,37,42.1,36.8,41.9,36.6z"/>
<path style="fill:#7E1F21;" d="M41,36.6c0.2,0.1,0.4,0.2,0.5,0.2s0.1-0.2-0.3-0.4c-0.4-0.1-0.6-0.4-0.8-0.7
	c-0.2-0.2-0.4-0.5-0.6-0.6c-0.3-0.2-0.1,0.1,0.1,0.3C40.1,35.9,40.5,36.3,41,36.6z"/>
<path style="fill:#7E1F21;" d="M39.6,36.9c-0.3-0.3-0.6-0.6-0.8-1c-0.1-0.3-0.1-0.7-0.2-0.1c0,0.5,0.2,1,0.6,1.4
	C39.7,37.2,39.6,36.9,39.6,36.9z"/>
<path style="fill:#7E1F21;" d="M38.5,38.4c-0.1-0.2-0.2-0.4-0.3-0.5c-0.3-0.3-0.6-0.7-0.8-1.1c-0.1-0.3-0.2-0.3-0.2,0
	c0,0.4,0.1,0.8,0.3,1.1c0.1,0.2,0.2,0.5,0.3,0.7c0.1,0.2,0.3,0.3,0.4,0.2L38.5,38.4z"/>
<path style="fill:#7E1F21;" d="M39.9,40.5c0.2,0,0.3,0,0.5,0.1c0.1,0,0,0.1-0.1,0.3c-0.7,0.9-1.5,1.7-2.4,2.4
	c-0.3,0.1-0.5,0.2-0.4,0c0.3-0.4,0.6-0.7,1-1c0.3-0.3,0.6-0.6,0.8-1c0.2-0.3-0.2-0.5-0.5-0.8S38.2,40,38,39.8s0-0.6,0-0.6
	c0.1,0.4,0.3,0.7,0.7,0.8C39.1,40.2,39.5,40.4,39.9,40.5z"/>
<path style="fill:#7E1F21;" d="M26.4,6.5c-0.1-0.4,0.4-0.7,0.6-0.9s0.3-0.1,0.5,0S28,5.9,28.2,6s0.2,0,0.4-0.3s0.3-0.4,0.5-0.6
	s0.4-0.3,0.6-0.4c0.3-0.1,0.6-0.2,0.9-0.2c0.1,0,0.1,0.1-0.2,0.3c-0.4,0.1-0.7,0.3-1,0.5c-0.2,0.2-0.5,0.4-0.4,0.5h0.9
	c0.2,0.1,0.3,0,0.5-0.2c0.4-0.2,0.9-0.4,1.4-0.4h1.1c0.5,0.1,1,0.2,1.5,0.4C34.6,5.7,34.8,5.9,35,6s0.2,0.4-0.2,0.1
	c-0.3-0.2-0.6-0.4-0.9-0.5c-0.3-0.1-0.5-0.1-0.8-0.2c-0.5-0.1-1.1-0.1-1.6,0c-0.3,0.1-0.6,0.2-0.9,0.4c-0.3,0.2-0.2,0.3-0.3,0.4
	s0.2,0.4,0.2,0.6c0.6-0.5,1.3-0.7,2.1-0.6c0.5,0,1,0.2,1.4,0.5c0.4,0.2,0.5,0.8,0.6,1.1s0.2,0.7,0.3,1s0.3,1,1.1,1.3
	s1.2,0.4,1.5,0.9s0.7,0.8,0.7,0.9s0.2,0.3,0.2,0.5s0.1,0.4-0.1,0.4s-0.3-0.2-0.4-0.6c-0.1-0.5-0.4-0.9-0.8-1.2
	c-0.5-0.2-1.2-0.5-1.6-0.7c-0.7-0.4-1.1-1.2-1.2-2c-0.1-0.5-0.4-1-0.9-1.3c-0.5-0.2-1-0.3-1.5-0.4c-0.4,0-0.8,0.1-1.2,0.3
	c-0.3,0.2-0.6,0.3-0.6,0.4s-0.1,0.4,0,0.4c0.2-0.1,0.3-0.1,0.5,0c0.3,0,0.6,0.1,1,0.1c0.4,0.1,0.7,0.2,1,0.5C33,8.6,33.2,9,33.4,9.5
	c0.1,0.5,0.2,1.1,0.1,1.6c0,0.4-0.3,0.5-0.4,0.8s-0.3,0.5-0.1,0.7c0.1,0.2,0.3,0.4,0.5,0.6c0.1,0.1,0.4,0.1,0.3,0.2
	c-0.2,0.1-0.4,0.2-0.6,0.1c-0.3-0.2-0.5-0.5-0.5-0.9c0-0.3,0.1-0.7,0.2-1s0.2-0.7,0.2-1c0.1-0.4,0-0.9-0.2-1.3
	c-0.2-0.5-0.6-0.9-1-1.2c-0.5-0.3-1.1-0.4-1.7-0.2c-0.5,0.2-0.6,0.4-0.4,0.4h0.9c0.4,0.1,0.6,0.4,0.8,0.7c0.2,0.2,0.3,0.6,0.2,0.9
	c-0.3,0.8-0.8,1.4-1.4,2c-0.4,0.3-1.5,0.8-1.4,1.5s0.1,1,0.4,1.2s-0.5-0.3-0.7-0.3s-0.1-0.9,0-1.1s0.5-0.8,0.8-0.9
	c0.5-0.3,0.9-0.7,1.3-1.1c0.2-0.3,0.9-1,0.7-1.5c-0.1-0.4-0.3-0.7-0.7-0.9c-0.3-0.2-0.6-0.3-0.9-0.3c-0.3,0-0.3,0.2-0.6,0.4
	s-0.6,0.4-0.9,0c-0.5-0.5-1.1-0.9-1.7-1.3C26.7,7.2,26.5,6.9,26.4,6.5z"/>
<path style="fill:#C3C4C4;" d="M25,27.2c0,0,0.4,2.8,1.4,3.5c-0.4,0.8-0.6,1.7-0.4,2.6c0.1,1.5,1.2,2.7,2.7,3
	c2.3,0.4,4.7,0.1,6.9-0.9c2.2-0.9,4-2.6,5.2-4.7c0.6-1.4,1.1-2.8,1.5-4.3c0.1-0.3,0.1-0.6,0.1-0.9c0-0.1,0.1-0.5-0.3-0.1
	c-0.7,0.9-1.6,1.6-2.7,2.1c-1.8,0.6-5.1,2.1-8.8,1.4S27,28.6,25,27.2z"/>
<path style="fill:#C3C4C4;" d="M32.6,22.1c-0.3-0.1-0.4-0.1-0.4-0.3c0.1-0.3,0.2-0.5,0.5-0.7c0.5-0.3,1-0.6,1.5-0.8
	c-0.3,0.6-0.3,1.3,0,1.9C33.7,22.2,33.1,22.2,32.6,22.1z"/>
<path style="fill:#C3C4C4;" d="M40,19.9c-0.2,0,0.3,0.2,0.3,0.9c0,1-0.1,1-0.2,1.2c0.8,0,1.6,0,2.4-0.1c0.2-0.1,0.4-0.1,0.4-0.3
	S42.2,20.3,40,19.9z"/>
<path style="fill:#C3C4C4;" d="M27.7,20.6c0.2,0.2,0.3,0.5,0.4,0.8c0.1,0.3,0.3,0.9,0.1,1.1c0.6,0,1.2-0.1,1.7-0.1
	c0.2,0,0.3-0.4,0.1-0.5C29.4,21.2,28.6,20.8,27.7,20.6z"/>
<path style="fill:#C3C4C4;" d="M22.5,21c-0.1,0.2-0.2,0.2-0.2,0.4l0.3,1.2c-0.4,0-1.1-0.1-1.4-0.1s-0.5-0.1-0.5-0.4
	C21,21.4,21.7,21,22.5,21z"/>
<path style="fill:#262424;" d="M23,20.8c-0.2,0.1-0.3,0.5-0.4,0.6c-0.2,0.4-0.1,0.8,0.2,1.1c0.9,0,5-0.1,5-0.1
	c0.1-0.6-0.1-1.2-0.5-1.6C25.9,20.6,24.4,20.6,23,20.8z"/>
<path style="fill:#262424;" d="M34.6,20.1c-0.1,0-0.7,1.5,0.2,2.1c1.5-0.1,3.1-0.2,4.6-0.1c0.5-0.4,1-1.6,0.1-2.2
	C37.9,19.5,36.2,19.6,34.6,20.1z"/>
<path style="fill:#FFFFFF;" d="M22.2,21.3c-0.3,0.1-0.6,0.3-0.8,0.5c-0.2,0.1-0.2,0.4,0,0.4c0.3,0,0.6,0,0.9,0
	c0.2,0.1,0.5,0.1,0.7,0c0.2-0.1,0.2-0.3,0.2-0.5s-0.1-0.3-0.3-0.4C22.7,21.2,22.4,21.2,22.2,21.3z"/>
<circle style="fill:#FFFFFF;" cx="23.6" cy="21.7" r="0.3"/>
<path style="fill:#FFFFFF;" d="M27.5,21.2c-0.2,0-0.4,0.1-0.4,0.2s0,0.3,0.5,0.3c0.3,0,0.5,0.1,0.7,0.3c0.2,0.1,0.3,0.1,0.5,0
	c0.1-0.1,0.1-0.2,0-0.3c0,0,0,0,0,0C28.4,21.4,28,21.2,27.5,21.2z"/>
<path style="fill:#FFFFFF;" d="M39.9,20.6c-0.2,0-0.4,0.1-0.6,0.1s-0.1,0.1,0,0.2c0.2,0.2,0.4,0.2,0.6,0.2h0.5
	c0.2,0.1,0.2,0,0.5,0.1s0.4,0.2,0.5,0s0-0.4-0.2-0.4C40.8,20.7,40.3,20.6,39.9,20.6z"/>
<path style="fill:#FFFFFF;" d="M34.1,21c0.2,0,0.8-0.1,0.9,0.4c0,0.3-0.3,0.6-0.6,0.6h-0.2c0,0.1,0,0.1,0.1,0.2h-1.6
	c-0.1,0-0.5-0.2-0.4-0.4C32.8,21.4,33.5,21.1,34.1,21z"/>
<circle style="fill:#FFFFFF;" cx="35.5" cy="21.1" r="0.3"/>
<path style="fill:#FFFFFF;" d="M25.9,28.9c0.4,0.9,1,1.7,1.6,2.5c2.4,0.9,4.9,1.2,7.4,0.8c1.1-0.2,2.2-0.6,3.2-1.1
	c0.4-0.3,0.8-0.5,1.2-0.8c-0.1,0.3-0.4,0.6-0.6,0.8c-2,1.2-4.2,1.7-6.5,1.6c-3.2-0.4-4.1-0.5-5.7-1.6c-0.3,0.6-0.9,2.7,0,3.8
	s2.4,2.1,5.2,1.6s5.7-1.8,7-3.4c1-1.4,1.7-3,2.2-4.6c0.1-0.4-0.2-0.2-0.7,0.1S35,31,31.7,30.5C29.7,30.2,27.7,29.7,25.9,28.9z"/>
<path style="fill:#CE7055;" d="M32.8,16.8c0.2-0.4,0.5-0.7,0.8-1c0.3-0.2,0.6-0.4,1-0.5c0.3-0.1,0.8-0.3,0.8-0.6s0-0.7-0.4-0.7
	c-0.6,0-1.2,0.1-1.7,0.4c-0.7,0.3-1.3,0.9-1.6,1.7c-0.3,0.9-0.6,1.9,0,2s0.5,0.1,0.7-0.1C32.5,17.6,32.7,17.2,32.8,16.8z"/>
<path style="fill:#CE7055;" d="M22.6,16.4c0.4-0.4,0.8-0.7,1.2-1c0.4-0.2,0.6-1.4,0-1.4c0.3-0.2,0.6-0.4,0.9-0.5
	c-0.7,0.1-1.4,0.4-2,0.8c-0.6,0.4-1.1,0.8-1.5,1.3c0.2-1.3,0.9-2.4,1.9-3.2c0.5-0.4,1-0.7,1.6-1c-1.1,0.1-2.1,0.7-2.9,1.5
	c-0.9,1.3-1.5,2-1.5,3.4c-0.5,1.5-0.4,3.2,0.3,4.7c-0.2,0.2-0.6,0.8-0.1,1c0.2-0.5,0.5-1.4,2.5-2c0.3-0.1,0.6-0.2,0.9-0.4
	c0.1,0-0.2-0.3-0.7-0.2c-0.8,0.2-1.6,0.6-2.3,1.1c-0.2-0.8-0.3-1.6-0.3-2.4c0.1,0.4,0.6,0.7,1,0.6c0.3-0.2,0.5-0.5,0.5-0.9
	C22.2,17.3,22.3,16.8,22.6,16.4z"/>
<path style="fill:#C2312B;" d="M29.7,11.4c-0.4,0.2-0.7,0.6-1,0.9c-0.2,0.2-0.3,0.4-0.3,0.6c0,0.2-0.1,0.8,0.1,0.9s0.3,0.4,0.5,0.2
	s0-0.5,0-0.8c0-0.4,0.2-0.8,0.5-1c0.4-0.2,0.7-0.5,1-0.8C30.8,11.1,30.2,11,29.7,11.4z"/>
<path style="fill:#C2312B;" d="M33.8,10.7c0.2-0.1,0.4-0.3,0.3,0s-0.1,0.5-0.2,0.8s-0.3,0.4-0.1,0.7s0.4,0.4,0.4,0.5s0,0.5-0.2,0.4
	s-0.6,0-0.7-0.6s-0.1-0.6,0.1-1C33.6,11.2,33.7,11,33.8,10.7z"/>
<path style="fill:#CE7055;" d="M27.2,11.8c-0.3,0.2-0.6,0.4-0.6,0.6V13c0,0.2,0.1,0.3-0.4,0.2c-0.3,0-0.3-0.4-0.2-0.7
	s0.1-0.7,0.4-0.8s0.4-0.3,0.6-0.4s0.5-0.1,0.7-0.1s0.3-0.2,0.5-0.3c0.3-0.1,0.5-0.2,0.8-0.2c0.3,0,0.9,0,0.5,0.2s-0.9,0.4-1.5,0.6
	C27.7,11.6,27.5,11.7,27.2,11.8z"/>
<path style="fill:#CE7055;" d="M21.2,24.5c0.1-0.2,0.2-0.3,0.3-0.5s-0.1-0.4-0.3-0.4s-0.4,0.6-0.5,0.7c-0.4,0.7-0.6,1.5-0.5,2.3
	c0.4,2.1,1,2.2,1.7,2.5c0-0.2,0.3,1.9,0.9,4.2c0.3,2,0.7,4.1,1.4,6c0.5,1.3,0.6,1.2,0.5,1s-1.4-5-1.5-5.6s-0.7-4.2-0.8-4.5
	c-0.1-0.3-0.2-0.6-0.2-0.9c0,0,0.4,0.1,0.5,0s0.2-0.2-0.2-0.4c-0.4-0.2-0.7-0.5-1-0.8c-0.4-0.5-0.6-1-0.8-1.6
	c-0.1-0.4,0-0.9,0.1-1.3C20.9,25,21.1,24.7,21.2,24.5z"/>
<path style="fill:#CE7055;" d="M23.8,24.5c-0.3,0-0.5,0.1-0.7,0.3c-0.2,0.2-0.3,0.4-0.4,0.7c-0.1,0.4-0.1,0.8,0.1,1.1
	c0.2,0.2,0.5,0.6,0.8,0.5s0.1-0.5,0-0.9c-0.1-0.3-0.1-0.5,0-0.8c0.1-0.3,0.2-0.1,0.4-0.3s0.3-0.4,0.1-0.5S23.9,24.5,23.8,24.5z"/>
<path style="fill:#CE7055;" d="M25.1,44.4c0.2,1,1,1.8,2,2c0.8,0.2,1.6,0.1,2.3-0.1c1.1,0.6,2.4,0.7,3.6,0.3c1-0.5,1.9-1.1,2.7-1.8
	c0.2-0.1,0-0.5-0.2-0.3s-2.6,2-3.9,1.9c-0.8,0-1.6-0.1-2.3-0.4c-0.3-0.2-0.2,0.1-0.8,0.1c-0.8,0.2-1.7-0.1-2.3-0.6
	C25.8,45.2,25.4,44.8,25.1,44.4z"/>
<path style="fill:#CE7055;" d="M30.3,48.6c-0.5,0.2-2.9,7.4-2.9,7.6c0,0.2-0.1,0.4-0.2,0.5c-0.2,0.2-2.9,2.2-3.4,2.5
	s-1.8,1.2-1.3,1.2h9.8c0.5,0,1.8,0,1.8-0.2S33.7,60,33.3,60s-6.9-0.2-7.2-0.3s-0.8-0.2-0.4-0.7s2.4-2.2,2.5-2.3
	C28.4,55.9,30.8,48.4,30.3,48.6z"/>
<path style="fill:#81BA50;" d="M28.1,9.7c-0.4,0-1.4-1.2-1.5-1.4C26.3,7.9,26.1,7.5,26,7c0-0.6,0-1.5,1.2-1.7c0.8-0.1,1.3,1,1.3,1
	s0.3-0.4,0.4-0.5c0.4-0.4,1.1-0.4,1.5-0.1c0.7,0.6,0.8,1.6,0.2,2.4c0,0-0.1,0.1-0.1,0.1l-0.1,0.1C29.5,9,28.9,9.8,28.1,9.7z"/>
<path style="fill:#C2312B;" d="M15.9,27.4c-0.2-0.1-0.4-0.1-0.6,0c-0.4,0.5-0.6,1.2-0.4,1.9c0,0.4,0.1,0.9,0.2,1.3l0.7,0.1l-0.3-1.2
	v-1.3c0.1-0.2,0.3-0.3,0.4-0.5L15.9,27.4z"/>
<path style="fill:#C95251;" d="M15.1,30.3c0,0,0.4,0.4,0.6,0.4s0-0.5,0-1s-0.3-1.3,0-1.7c0.3-0.4,0.2-0.8-0.2-0.5
	C15,28.3,14.9,29.3,15.1,30.3z"/>
</svg>
