<?xml version="1.0" encoding="utf-8"?>
<!-- Generator: Adobe Illustrator 22.0.0, SVG Export Plug-In . SVG Version: 6.00 Build 0)  -->
<svg version="1.1" id="Слой_1" xmlns="http://www.w3.org/2000/svg" xmlns:xlink="http://www.w3.org/1999/xlink" x="0px" y="0px"
	 viewBox="0 0 55.8 62.9" style="enable-background:new 0 0 55.8 62.9;" xml:space="preserve">
<title>20_1</title>
<path style="fill:#FFFFFF;" d="M22,61.3c-0.3,0-0.5-0.2-0.5-0.4c0,0,0,0,0-0.1c0-0.1,0-0.2,0.1-0.3c0.9-1.2,2.2-2.1,3.7-2.6
	c-0.1-2.3,0-11.3,0-11.4v-0.2c-0.3-0.4-0.6-0.8-0.8-1.3c-0.5-0.9-0.9-1.9-1.2-2.9c-0.6-1.9-1-3.8-1.3-5.7l-0.8,1L21,37.7
	c-0.6,0.9-2.8,3.3-2.9,3.3L18,41.4l-0.3,0.3c-0.1,0.1-0.2,0.1-0.2,0.2C17.3,42,17.1,42,17,42c-0.2,0-0.3-0.1-0.5-0.2
	s-0.2-0.2-0.2-0.3s-0.1-0.2-0.1-0.4v-0.5H15c-0.3,0-0.6-0.1-0.9-0.2c-0.3-0.1-0.6-0.2-0.9-0.4c-0.2-0.1-0.3-0.3-0.4-0.5
	c-0.1-0.1-0.1-0.2-0.1-0.3V39c0-0.1,0-0.3,0.1-0.4c0.1-0.2,0.2-0.3,0.3-0.4l0.1-0.1l0.2-0.1c0.1-0.1,0.3-0.1,0.5-0.1
	c0.4-0.1,0.8-0.1,1.2-0.2h0.4c0.5-0.1,1-0.1,1.5-0.2h0.1l0.3,0.4l-0.1-0.5c0.1,0,0.1-0.1,0.2-0.2c0.2-0.1,0.3-0.3,0.4-0.5
	c0.3-0.4,0.6-0.8,0.8-1.2c0.4-0.7,2.6-3.5,3-4.3c0-0.3-0.1-0.7-0.1-1c-0.2-2-0.3-4-0.3-6c0-2.1,0-4.1,0.1-6c0.1-1.1,0.1-2,0.2-3
	l0.3-1.8c-0.2,0.1-0.5,0.2-0.7,0.2c-0.2,0-0.3,0.1-0.5,0.1h-0.6c-0.2,0-0.5-0.1-0.7-0.1c-0.8-0.1-2.3-0.6-2.1-3.4
	c0.2-2.2,2.8-4.5,5.9-5.1l0,0C23.7,5.1,24.1,5,24.5,5h0.6c1.4,0,2.8,0.4,4,1.1C29.6,6.3,30,6.6,30.4,7c0.2-0.2,0.5-0.4,0.8-0.5
	l0.4-0.2c0.5-0.3,1-0.6,1.6-0.8c0.8-0.3,1.6-0.4,2.5-0.4c0.3,0,0.7,0,1,0.1l0.5,0.1l0.3,0.1c0.2,0,0.5,0.1,0.7,0.2l0.2,0.1
	C39,5.9,39.5,6.2,40,6.6c0.3,0.2,0.5,0.4,0.7,0.7c0.2,0.3,0.4,0.6,0.5,0.9l0.3,0.9c0.1,0.3,0.1,0.6,0.1,0.9v0.9
	c0,0.2-0.1,0.5-0.2,0.7c-0.1,0.3-0.2,0.6-0.5,0.8v0.3c0,0.3,0,0.5-0.1,0.8c-0.2,0.9-1.1,1.6-2,1.5l0,0c-0.2,0-0.4,0-0.6-0.1
	l-0.3,0.7c-0.1,0.2-0.2,0.5-0.2,0.7c0,0.2-0.2,0.5-0.2,0.7c-0.1,0.5-0.3,0.9-0.4,1.4c-0.3,1-0.5,1.9-0.8,2.9c-0.5,1.8-1,3.7-1.4,5.7
	L34,31.2l0.6,1.2c0.2,0.7,0.5,1.4,0.8,2c0.9,1.3,1.9,2.5,3.1,3.6c0.4,0.2,0.8,0.4,1.2,0.5l0.9,0.3c0.1,0,0.2,0.1,0.3,0.2l0.1,0.1
	l0.2,0.2c0.4,0.3,0.5,0.8,0.3,1.2c-0.2,0.5-0.8,0.7-1.8,0.7c-0.3,0-0.7,0-1-0.1c0,0.2,0,0.4-0.1,0.6c-0.1,0.3-0.4,0.6-0.7,0.6l0,0
	c-0.4,0-3.1-2.4-4.9-5.6l-0.1-0.2l-0.1,0.7c-0.1,0.5-0.1,1-0.2,1.5c-0.1,1-0.3,1.9-0.4,2.9l-0.4,1.3c-0.1,0.5-0.1,1-0.2,1.5
	c0,0.2-0.1,0.5-0.1,0.8s-0.1,0.5-0.2,0.8c-0.1,0.3-0.3,0.6-0.5,0.8L30.6,47v10.6c0.6,0.1,1.1,0.3,1.7,0.5c1,0.3,1.7,1.1,2,2.1
	c0,0.2,0.1,0.3,0.1,0.5c0,0.3-0.2,0.5-0.4,0.5c0,0,0,0-0.1,0L22,61.3z"/>
<path style="fill:#FFFFFF;" d="M24.7,5.6h0.1c1.3,0,2.6,0.4,3.8,1c0.4,0.3,0.9,0.6,1.3,0.9l0.3,0.2l0.1-0.1c0.1-0.1,0.1-0.2,0.2-0.3
	c0.2-0.2,0.4-0.3,0.6-0.4l0.4-0.2C32,6.4,32.5,6.2,33,6c0.8-0.3,1.6-0.4,2.4-0.4c0.3,0,0.6,0,0.9,0.1l0.4,0.1h0.4
	c0.3,0.1,0.5,0.1,0.8,0.2c0.5,0.2,1,0.5,1.5,0.9L40,7.5c0.2,0.2,0.3,0.4,0.4,0.7c0.1,0.3,0.2,0.5,0.3,0.8s0.1,0.6,0.1,0.8v0.8
	c0,0.2-0.1,0.4-0.1,0.6c0,0.2-0.1,0.4-0.3,0.5l-0.2,0.2h-0.1v0.6c0,0.2,0,0.5-0.1,0.7c-0.1,0.7-0.8,1.2-1.5,1.2
	c-0.3,0-0.6-0.1-0.9-0.2c-0.1,0.4-0.3,0.8-0.4,1.1C37.1,15.5,37,15.8,37,16c0,0.2-0.2,0.5-0.2,0.7c-0.1,0.5-0.3,1-0.4,1.4
	c-0.3,1-0.5,1.9-0.8,2.9c-0.5,1.9-1,3.9-1.4,5.8c-0.4,1.5-0.7,3-1,4.5c0.3,0.3,0.5,0.8,0.6,1.2c0.3,0.7,0.6,1.4,0.9,2.1
	c0.9,1.4,2,2.7,3.3,3.8c0.4,0.3,0.9,0.5,1.4,0.6c0.3,0.1,0.5,0.2,0.8,0.3l0.3,0.1h0.1l0.2,0.1c0.2,0.2,0.3,0.4,0.2,0.6
	s-0.8,0.4-1.3,0.4c-0.4,0-0.7,0-1.1-0.1H38v0.1c0.1,0.3,0.1,0.6,0.1,0.9c-0.1,0.2-0.2,0.3-0.3,0.3l0,0c-0.7,0-4.1-4.9-4.4-5.4
	c-0.2-0.4-0.5-0.8-0.8-1.2l0,0l-0.1,0.4L32.3,37c-0.1,0.5-0.1,1-0.2,1.5c-0.1,1-0.3,2-0.4,2.9l-0.4,1.5c-0.1,0.5-0.1,1-0.2,1.5
	c0,0.2-0.1,0.5-0.1,0.7c-0.1,0.2-0.1,0.5-0.2,0.7c-0.1,0.3-0.2,0.5-0.4,0.7l-0.3,0.3V58c0.7,0.1,1.4,0.3,2,0.6
	c0.8,0.3,1.4,1,1.7,1.8l0,0v0.3H22c1-1.2,2.3-2.1,3.8-2.5l0,0c-0.1-2.4,0-11.8,0-11.8v-0.3l0,0c-0.3-0.4-0.6-0.8-0.8-1.3
	c-0.5-0.9-0.8-1.8-1.1-2.8c-0.6-1.9-1-3.8-1.3-5.8c0-0.3-0.1-0.7-0.1-1l0,0v0.1c-0.1,0.2-0.3,0.4-0.4,0.6l-0.9,1.2L21,37.4
	c-0.9,1.1-1.8,2.2-2.9,3.3l-0.2,0.3l-0.3,0.3l-0.2,0.1c-0.1,0-0.1,0.1-0.2,0.1l0,0c-0.1,0-0.1,0-0.2-0.1l-0.1-0.1
	c0-0.1-0.1-0.1-0.1-0.2v-0.9h-1.7c-0.3,0-0.5-0.1-0.8-0.2c-0.2-0.1-0.5-0.2-0.7-0.3l-0.3-0.3c0-0.1-0.1-0.1-0.1-0.2V39
	c-0.1,0.1-0.1,0-0.1-0.1c0-0.1,0.1-0.2,0.2-0.2l0.1-0.1h0.1c0.1-0.1,0.3-0.1,0.4-0.1c0.5-0.1,1-0.2,1.5-0.2c0.5-0.1,1-0.2,1.5-0.3
	l0.2-0.1h0.2c0.1-0.1,0.2-0.1,0.3-0.2s0.4-0.3,0.5-0.5c0.3-0.4,2.5-2.8,2.6-3.3l1.2-2.4c0-0.4-0.1-0.8-0.1-1.1c-0.2-2-0.3-4-0.3-5.9
	s0-4,0.1-5.9c0-1,0.1-2,0.2-3c0.1-1,0.3-1.9,0.5-2.9c-0.2,0.1-0.3,0.3-0.5,0.4c-0.3,0.2-0.6,0.3-1,0.4c-0.2,0-0.3,0.1-0.5,0.1h-0.5
	c-0.2,0-0.4-0.1-0.6-0.1c-1-0.1-1.9-0.8-1.7-2.9s2.8-4.1,5.5-4.6l0,0c0.4-0.1,0.8-0.1,1.2-0.1L24.7,5.6 M24.6,4.6h-0.5
	c-0.5,0-0.9,0.1-1.4,0.1l0,0c-2.9,0.5-6.1,2.8-6.2,5.5c-0.2,3.2,1.7,3.8,2.5,3.9c0.3,0.1,0.5,0.1,0.8,0.2h0.7c0.2,0,0.4,0,0.6-0.1
	c0,0.3-0.1,0.7-0.1,1c-0.1,1-0.2,2-0.2,3c-0.1,1.9-0.1,3.8-0.1,6s0.2,4.1,0.3,6c0,0.3,0,0.6,0.1,0.9c-0.3,0.7-2.5,3.4-2.9,4.1
	c-0.2,0.4-0.5,0.8-0.8,1.2c-0.1,0.1-0.2,0.3-0.4,0.4L16.8,37h-0.1c-0.5,0.1-0.9,0.2-1.4,0.2h-0.4c-0.4,0-0.9,0.1-1.3,0.2
	c-0.2,0-0.4,0.1-0.6,0.2h-0.1l-0.1,0.1l-0.2,0.1c-0.2,0.2-0.4,0.4-0.5,0.6c-0.1,0.2-0.1,0.3-0.1,0.5v0.3c0,0.2,0.1,0.3,0.2,0.5
	c0.1,0.3,0.3,0.5,0.6,0.7c0.3,0.2,0.7,0.4,1.1,0.5c0.3,0.1,0.6,0.1,0.9,0.2h0.7c0,0.2,0.1,0.4,0.2,0.6c0.1,0.2,0.2,0.3,0.4,0.4
	c0.2,0.2,0.4,0.3,0.7,0.3h0.1c0.2,0,0.5-0.1,0.7-0.2c0.1-0.1,0.3-0.2,0.4-0.3l0.4-0.4l0.2-0.3l0,0c0.1-0.2,2.3-2.5,2.9-3.3l0.1-0.1
	l0.1-0.2v-0.1c0.3,1.6,0.6,3.1,1.1,4.6c0.3,1,0.7,2,1.2,2.9c0.2,0.4,0.5,0.8,0.7,1.2l0,0c0,0.1-0.1,8.8,0,11.1
	C23.2,57.8,22,58.8,21,60c-0.5,0.3-0.7,0.9-0.4,1.4c0.3,0.5,0.9,0.7,1.4,0.4h11.8c0.5,0,1-0.4,1-0.9c0,0,0-0.1,0-0.1
	c0-0.2,0-0.4-0.1-0.6c-0.3-1.1-1.2-2-2.3-2.4c-0.4-0.2-0.9-0.4-1.4-0.5v-10l0.1-0.1c0.2-0.3,0.4-0.6,0.5-0.9l0.3-0.9
	c0.1-0.3,0.1-0.5,0.1-0.8c0.1-0.5,0.1-1,0.2-1.5l0.2-1.5c0.1-1,0.2-1.9,0.4-2.9l0.2-0.8c1.6,2.6,4.3,4.9,4.7,4.9h0.2
	c0.5-0.1,1-0.5,1.1-1v-0.2h0.5c0.4,0,1.8,0,2.2-1c0.3-0.6,0.1-1.4-0.4-1.8c-0.1-0.1-0.2-0.1-0.2-0.2l-0.2-0.1l-0.3-0.2
	c-0.3-0.2-0.7-0.3-1-0.4c-0.4-0.1-0.8-0.3-1.1-0.5c-1-1.1-2-2.2-2.9-3.4c-0.3-0.6-0.6-1.3-0.8-2c-0.1-0.4-0.3-0.8-0.5-1.1
	c0.3-1.3,0.6-2.6,0.9-4c0.5-2.1,1-3.9,1.4-5.7c0.2-1,0.5-1.9,0.8-2.9c0.1-0.5,0.3-0.9,0.4-1.4c0.1-0.2,0.1-0.5,0.2-0.7
	c0.1-0.2,0.2-0.4,0.2-0.6l0.1-0.3h0.3c1.1,0,2.1-0.7,2.4-1.8c0.1-0.3,0.1-0.7,0.1-1v-0.1c0.2-0.2,0.4-0.5,0.5-0.8
	c0.1-0.2,0.1-0.5,0.2-0.7v-1c0-0.3,0-0.7-0.1-1c-0.1-0.3-0.2-0.7-0.3-1c-0.1-0.3-0.3-0.6-0.5-0.9l0,0c-0.2-0.3-0.5-0.5-0.7-0.8
	c-0.5-0.4-1.1-0.8-1.7-1H38C37.8,5.1,37.5,5,37.2,5h-0.3l-0.4-0.1c-0.4,0-0.7-0.1-1.1-0.1c-0.9,0-1.8,0.2-2.7,0.5
	c-0.6,0.1-1.2,0.3-1.7,0.6l-0.3,0.2c-0.2,0.1-0.3,0.2-0.5,0.3c-0.3-0.3-0.7-0.5-1.1-0.7c-1.3-0.7-2.7-1.1-4.2-1.1L24.6,4.6z"/>
<rect x="25.8" y="44.9" style="fill:#AF6D31;" width="4.3" height="14.1"/>
<path style="fill:#AF6D31;" d="M22,60.8c1.7-2.1,4.3-3.2,7-2.8c4.9,0.4,4.8,2.8,4.8,2.8H22z"/>
<path style="fill:#DB812D;" d="M32.4,59.3c-0.6-0.3-1.2-0.5-1.8-0.6c-0.4-0.2-1.1-0.1-1.3-0.5s0-8.2,0-8.8c0.2-1.4,0.1-2.8-0.1-4.2
	c-0.1-0.2-1.9-1.1-2.3,0.5s0.3,11.8,0.1,12.2c-0.3,0.7-1.8,1.1-1.8,1.1c-0.3,0.1-1.5,0.7-1.5,0.9s1.1,0.3,1.5,0.3
	c1.1,0,2.3-0.1,3.4-0.1c0.5,0,1.1-0.1,1.6-0.1l0.5,0.1c0.5,0.1,0.9,0.1,1.4,0.1C32.6,60.4,32.8,59.6,32.4,59.3z"/>
<path style="fill:#DB812D;" d="M22.1,31c0,0-3.5,6.7-5,7s-3.9,0.4-3.9,1s0.8,1,2.1,1.1s1.6-0.3,1.4,0.4s0,1.5,0.9,0.3
	c1.1-1.3,3.9-4.7,4.8-6c0.1-1.1,0.1-2.3,0-3.4L22.1,31z"/>
<path style="fill:#AF6D31;" d="M22.1,31c-0.2,0.5-0.3,1-0.5,1.5s-0.4,1-0.6,1.4s-2.4,3-2.6,3.3c-0.2,0.2-0.3,0.4-0.5,0.6
	S17.6,38,17.6,38h-0.4L17,38.1l-1.5,0.3c-0.5,0.1-1,0.1-1.5,0.2c-0.1,0-0.2,0.1-0.4,0.1c-0.1,0-0.2,0.1-0.2,0.2l0,0v0.3
	c0,0.1,0.1,0.2,0.2,0.2c0.2,0.1,0.5,0.2,0.7,0.3c0.2,0.1,0.5,0.1,0.7,0.1h1.7c0.1,0,0.2,0.1,0.2,0.2v1H17l0.1-0.1l0.3-0.3l0.2-0.3
	l0.2-0.3l1-1.2c0.3-0.4,2.5-2.8,2.9-3.3c0.1-0.2,0.3-0.4,0.5-0.6c0.2-0.2,0.1-0.2,0.2-0.3c0-0.1,0-0.1,0.1-0.2v-3.2l0,0L22.1,31z
	 M22.1,31l0.4,0.4l0,0c0,0.5,0.1,1,0.1,1.5v1.7c0,0.1,0,0.1-0.1,0.2s-0.1,0.2-0.2,0.3c-0.2,0.3-0.3,0.5-0.4,0.8L21,37.1
	c-0.3,0.4-2.5,2.8-2.9,3.3l-0.2,0.3L17.7,41l-0.3,0.3l-0.3,0.3c-0.1,0-0.2,0.1-0.3,0.1s-0.1,0-0.2-0.1l-0.1-0.1
	c0-0.1-0.1-0.1-0.1-0.2v-0.9h-1.5c-0.3,0-0.5-0.1-0.8-0.2c-0.2-0.1-0.5-0.2-0.7-0.3l-0.3-0.3c0-0.1-0.1-0.1-0.1-0.2V39
	c0-0.1,0.1-0.2,0.2-0.2l0.1-0.1h0.1c0.1-0.1,0.3-0.1,0.4-0.1c0.5-0.1,1-0.2,1.5-0.2c0.5-0.1,1-0.2,1.5-0.3l0.3-0.2h0.2
	c0.1-0.1,0.2-0.1,0.3-0.2s0.4-0.3,0.5-0.5c0.3-0.4,2.5-2.8,2.6-3.3C21.3,32.9,21.7,32,22.1,31z"/>
<path style="fill:#AF6D31;" d="M22.5,31.5L22.1,31c0,0-0.2,0.5-0.4,1.1l0,0c-0.2,1.9-2.5,5.8-3.5,7.3c-0.6,1.1-1.3,1.8-1.2,2h0.2
	c0.3-0.1,0.5-0.3,0.6-0.6c1.1-1.3,3.9-4.7,4.8-6L22.5,31.5z"/>
<path style="fill:#DB812D;" d="M37,9.9c2.1,2.3,0.7,4.1,0,6.3C34.9,23.1,33.3,30,32,37c-1.2,7.8-0.7,8.9-2.5,10.1s-4.8-0.5-6.5-9.2
	s-2.5-26.4,1.2-29.4c1.5-1.2,3.9-0.9,5.9-0.7C33.1,8,35.7,8.5,37,9.9z"/>
<path style="fill:#E1974F;" d="M24.8,32.2c-0.3-2.6-0.4-2.7-1.6-3.1c-1-0.3-1.3,0.1-1.3,0.1l0.3,3c0.1,1.9,0.4,3.9,0.8,5.8
	c0.4,2.2,1.1,4.4,2,6.4c1.5,2.4,3,3.4,3.2,2.9c0.5-1.1-1.1-5.3-2-8C25.5,37,25,34.6,24.8,32.2z"/>
<path style="fill:#AF6D31;" d="M37,9.9c-0.5-0.5-1.1-0.9-1.7-1.3L34.6,9l-2.3,10c1.1,0.6,1.8,1.8,1.7,3c-0.5,2.7-1.5,5.3-2.7,7.7
	c-0.6,0.8-1.8,4.2-2.1,8.6l-0.4,4.4v4.6c0.2-0.1,0.5-0.2,0.7-0.3c1.8-1.3,1.3-2.3,2.5-10.1c1.3-7,2.9-14,5-20.8
	C37.7,14,39,12.2,37,9.9z"/>
<path style="fill:#E1974F;" d="M32,19.6c0,0,1,0,1,0.8s-0.7,1.5-1.3,0.8S30.3,19.4,32,19.6z"/>
<path style="fill:#FFFFFF;" d="M27.3,9.9c0,0-2.9-0.8-3.6,4.3s1.9,5,2.7,4.7s1.7-0.9,2.4-3.4S29.3,10.3,27.3,9.9z"/>
<path style="fill:#FFFFFF;" d="M33.6,10.2c0,0-2.9-1-3.9,4s1.6,5.1,2.4,4.9s1.7-0.8,2.6-3.3S35.6,10.7,33.6,10.2z"/>
<path style="fill:#AF6D31;" d="M23.6,15.5c0,0.7,0.1,1.4,0.3,2c0.1,0.2,0.1,0.3,0.2,0.5s0.2,0.3,0.3,0.4c0.1,0.1,0.2,0.2,0.4,0.3
	c0.1,0.1,0.2,0.2,0.4,0.2c0.3,0.1,0.7,0.1,1,0c0.3-0.1,0.6-0.2,0.9-0.4c0.5-0.4,0.9-0.9,1.2-1.5c0.3-0.6,0.5-1.2,0.6-1.9
	c0.1-0.7,0.2-1.3,0.3-2v-1c0-0.2,0-0.3-0.1-0.5c0-0.2-0.1-0.3-0.2-0.5s-0.1-0.1-0.1-0.2s-0.1-0.1-0.1-0.2s-0.2-0.3-0.3-0.4
	c-0.3-0.2-0.6-0.4-1-0.5l0.2,0.1h0.3L28,10c0.1,0,0.1,0.1,0.2,0.1s0.3,0.2,0.4,0.4s0.1,0.1,0.1,0.2s0.1,0.1,0.1,0.2
	c0.1,0.3,0.2,0.7,0.3,1s0.1,0.7,0.1,1c0,0.7-0.1,1.3-0.2,2c-0.1,0.7-0.3,1.4-0.6,2c-0.2,0.3-0.3,0.6-0.5,0.9
	c-0.1,0.1-0.2,0.3-0.4,0.4s-0.3,0.2-0.4,0.3c-0.3,0.2-0.6,0.3-1,0.4h-0.5c-0.2,0-0.4,0-0.5-0.1c-0.2-0.1-0.3-0.1-0.5-0.2
	s-0.3-0.2-0.4-0.4c-0.1-0.2-0.2-0.3-0.3-0.5c-0.1-0.2-0.1-0.3-0.2-0.5s-0.1-0.7-0.2-1C23.5,16,23.6,15.8,23.6,15.5z"/>
<path style="fill:#AF6D31;" d="M29.6,14.6c-0.1,0.8-0.1,1.5,0,2.3c0,0.3,0.1,0.7,0.2,1c0.1,0.3,0.3,0.6,0.6,0.8
	c0.2,0.1,0.3,0.2,0.5,0.2l0.3,0.1h0.3c0.4,0,0.7-0.1,1-0.3c0.3-0.2,0.6-0.4,0.8-0.7l0.4-0.4l0.1-0.1l0.1-0.1l0.1-0.2
	c0.3-0.6,0.6-1.3,0.8-2c0.2-0.7,0.4-1.4,0.4-2.1V12c-0.1-0.4-0.2-0.7-0.4-1c-0.2-0.3-0.5-0.5-0.8-0.7c-0.4-0.1-0.7-0.2-1.1-0.2h0.6
	c0.2,0,0.3,0.1,0.5,0.1c0.4,0.1,0.7,0.3,0.9,0.6c0.2,0.3,0.4,0.6,0.5,1c0.1,0.4,0.1,0.7,0.1,1.1c0,0.4-0.1,0.8-0.1,1.1l-0.3,1.2
	c-0.1,0.4-0.2,0.8-0.4,1.1c-0.1,0.4-0.3,0.7-0.5,1L34,17.6l-0.1,0.1l-0.1,0.1l-0.4,0.4L33,18.6l-0.2,0.2L32.6,19
	c-0.3,0.2-0.7,0.3-1.1,0.3h-0.3l-0.3-0.1c-0.2-0.1-0.4-0.1-0.5-0.2c-0.2-0.1-0.3-0.2-0.4-0.4c-0.1-0.2-0.2-0.3-0.3-0.5
	c-0.1-0.4-0.2-0.7-0.2-1.1v-1.1C29.4,15.5,29.5,15,29.6,14.6z"/>
<path style="fill:#AF6D31;" d="M33.2,19.5c0.3,0.3,0.5,0.7,0.6,1.1c0.1,0.2,0.1,0.4,0.2,0.6s0.1,0.4,0.1,0.6c0.1,0.8,0,1.7-0.3,2.5
	c-0.3,0.8-0.6,1.5-1.1,2.2c-0.5,0.7-1.1,1.3-1.8,1.9l-0.5,0.4l-0.5,0.4c-0.3,0.3-0.7,0.5-1.1,0.7c-0.4,0.2-0.8,0.3-1.2,0.4
	c-0.4,0.1-0.9,0.1-1.3,0c-0.4-0.1-0.8-0.3-1.2-0.6c-0.3-0.3-0.6-0.6-0.9-0.9c-0.3-0.3-0.5-0.7-0.7-1.1c-0.2-0.4-0.4-0.8-0.5-1.2
	c0.4,0.8,0.8,1.5,1.4,2.1c0.3,0.3,0.6,0.6,0.9,0.8c0.3,0.2,0.7,0.4,1.1,0.5c0.8,0.1,1.6,0,2.3-0.4c0.3-0.2,0.7-0.4,1-0.6l0.5-0.4
	l0.5-0.4c0.6-0.5,1.2-1.1,1.7-1.8c0.5-0.6,0.9-1.3,1.2-2.1c0.3-0.8,0.5-1.6,0.4-2.4c0-0.4-0.1-0.8-0.2-1.2c-0.1-0.2-0.1-0.4-0.2-0.6
	C33.4,19.9,33.3,19.7,33.2,19.5z"/>
<path style="fill:#FFFFFF;" d="M24.2,21.3c1,0.7,2.2,1.1,3.4,1.2c1.2-0.1,2.3-0.4,3.4-0.9c0,0-0.6,6.3-4,5.5
	C24.5,26.4,24.4,24.4,24.2,21.3z"/>
<path style="fill:#AF6D31;" d="M24.2,21.3c0.3,0.1,0.5,0.3,0.8,0.4s0.5,0.2,0.8,0.3c0.3,0.1,0.5,0.2,0.8,0.2
	c0.3,0.1,0.6,0.1,0.9,0.1c0.3,0,0.6,0,0.9-0.1c0.3-0.1,0.6-0.1,0.8-0.2c0.3-0.1,0.5-0.2,0.8-0.3c0.3-0.1,0.6-0.2,0.8-0.4l0.3-0.1
	v0.4c0,0.3-0.1,0.6-0.1,0.9c0,0.3-0.1,0.6-0.2,0.9c-0.2,0.6-0.4,1.2-0.6,1.8c-0.1,0.3-0.3,0.6-0.5,0.8c-0.2,0.3-0.4,0.5-0.6,0.7
	c-0.5,0.4-1.2,0.6-1.9,0.6h-0.4l-0.2-0.1l-0.2-0.1c-0.3-0.1-0.6-0.3-0.8-0.5c-0.3-0.2-0.5-0.4-0.6-0.7c-0.2-0.3-0.3-0.6-0.4-0.9
	c-0.1-0.6-0.2-1.2-0.2-1.8C24.2,22.6,24.2,22,24.2,21.3z M24.2,21.3c0.1,0.6,0.1,1.2,0.2,1.8c0,0.3,0.1,0.6,0.1,0.9
	c0,0.3,0.1,0.6,0.2,0.9c0.1,0.3,0.2,0.6,0.4,0.8c0.2,0.2,0.4,0.4,0.6,0.6c0.2,0.2,0.5,0.3,0.8,0.4l0.2,0.1l0.2,0.1h0.4
	c0.6,0.1,1.1-0.1,1.5-0.5l0.6-0.6c0.2-0.2,0.3-0.5,0.4-0.8c0.3-0.5,0.5-1.1,0.6-1.7c0.2-0.6,0.3-1.2,0.3-1.8l0.3,0.2
	c-0.3,0.1-0.5,0.2-0.8,0.3c-0.3,0.1-0.6,0.2-0.9,0.3c-0.6,0.2-1.2,0.3-1.8,0.3c-0.6,0-1.2-0.2-1.8-0.4L24.2,21.3z"/>
<path style="fill:#AF6D31;" d="M24.8,20.5c0,0.1-0.1,0.3-0.1,0.4s-0.1,0.2-0.2,0.3l-0.3,0.3c-0.1,0.1-0.2,0.2-0.4,0.2
	c0-0.1,0-0.3,0.1-0.4c0.1-0.1,0.1-0.2,0.2-0.4l0.3-0.3C24.5,20.6,24.7,20.6,24.8,20.5z"/>
<path style="fill:#AF6D31;" d="M30.5,21c0.2-0.1,0.3-0.1,0.5,0c0.2,0.1,0.3,0.2,0.4,0.3c0.1,0.1,0.2,0.2,0.2,0.4
	c0,0.1,0.1,0.1,0.1,0.2V22l0,0v-0.1h-0.3l-0.3-0.3l-0.3-0.3C30.8,21.2,30.6,21.1,30.5,21z"/>
<path style="fill:#B2AA94;" d="M27.4,22.5c0.1,0.3,0.1,0.6,0.1,0.9V25c0,0.3-0.1,0.6-0.2,0.8l0,0V24c0-0.3,0-0.5,0.1-0.8
	C27.5,23,27.4,22.8,27.4,22.5L27.4,22.5z"/>
<path style="fill:#AF6D31;" d="M24.3,22.9c0,0,0.7,2.3,1.3,2.5c1.1,0.2,2.2,0.3,3.3,0.4c0.5-0.5,0.9-1.1,1.2-1.7
	c0.3-0.7-0.5,1.8-0.5,1.8s-1.2,1-2,0.8S24.5,26.8,24.3,22.9z"/>
<path style="fill:#CE3638;" d="M28.9,25.8c0,0-3.3-0.5-3.8,0s-1.4,4.4-0.6,6.1c0.5,1.1,1.6,1.7,2.5,1.1
	C27.3,32.7,30.3,25.4,28.9,25.8z"/>
<path style="fill:#99242C;" d="M28.9,25.8c-0.8,0-1.5-0.1-2.3-0.1h-1.4l-0.1,0.1c-0.1,0.2-0.2,0.3-0.2,0.5c-0.1,0.4-0.2,1-0.3,1.4
	s-0.1,1-0.2,1.4v1.4c0,0.3,0.1,0.4,0.1,0.7v0.3c0,0.1,0.1,0.1,0.1,0.3c0.2,0.4,0.5,0.7,0.9,0.8c0.3,0.2,0.7,0.2,1.1,0.1h0.3
	c0.1-0.1,0.2-0.4,0.3-0.5c0.2-0.4,0.4-0.8,0.5-1.2c0.4-0.8,0.7-1.7,1-2.6c0.1-0.4,0.3-1,0.4-1.4c0.1-0.2,0.1-0.4,0.1-0.7
	c0-0.1,0-0.3-0.1-0.3C29.1,25.7,29,25.7,28.9,25.8z M28.9,25.8H29c0,0,0.1,0,0.1,0.1c0.1,0.1,0.1,0.2,0.1,0.3c0,0.2,0,0.5-0.1,0.7
	c-0.1,0.4-0.2,1-0.3,1.4c-0.3,1-0.6,1.8-1,2.7c-0.2,0.4-0.3,0.8-0.5,1.2c-0.2,0.4-0.2,0.4-0.3,0.7L26.8,33h-0.9
	c-0.2,0-0.4-0.1-0.5-0.1c-0.5-0.2-0.8-0.5-1-1c0-0.1,0-0.2-0.1-0.3l-0.1-0.1v-0.1c-0.1-0.2-0.1-0.4-0.1-0.7v-1.5
	c0-0.5,0.1-1,0.2-1.5c0.1-0.5,0.2-0.9,0.4-1.4c0.1-0.3,0.2-0.4,0.3-0.7l0.1-0.1h1.6l1.2,0.1L28.9,25.8z"/>
<path style="fill:#99242C;" d="M28.6,25.8l-0.4,0.1c-0.7,2-1.4,4.1-1.9,6.2l0.1,0.5c0.4-0.1,0.7-0.2,1-0.4
	C27.9,31.8,30.2,25.1,28.6,25.8z"/>
<path style="fill:#D5654D;" d="M25.6,25.8L25.6,25.8c-0.1,0.6-0.3,1.2-0.5,1.8L25,27.7c-0.1-0.1-0.1-0.1-0.1-0.2
	S25.4,25.4,25.6,25.8z"/>
<path style="fill:#AF6D31;" d="M25.8,42.7c0.1-0.1,0.2-0.3,0.3-0.4c0.2-0.1,0.4-0.1,0.6,0c0.1,0.1,0.2,0.2,0.3,0.4v0.1h-0.9
	L25.8,42.7z"/>
<path style="fill:#AF6D31;" d="M25.1,38.4c0.1-0.1,0.2-0.3,0.3-0.4c0.2-0.1,0.4-0.1,0.6,0c0.1,0.1,0.2,0.2,0.3,0.4v0.1h-0.9
	L25.1,38.4z"/>
<path style="fill:#AF6D31;" d="M29.8,38.4c0-0.1,0.1-0.1,0.1-0.2h0.2c0.1,0.1,0.1,0.1,0.1,0.2C30.2,38.4,29.8,38.4,29.8,38.4z"/>
<path style="fill:#AF6D31;" d="M22.7,33.1c0.1-0.2,0.2-0.4,0.4-0.5c0.3-0.1,0.5-0.1,0.8,0c0.2,0.1,0.3,0.3,0.4,0.5v0.1h-1.4
	C22.9,33.2,22.7,33.1,22.7,33.1z"/>
<path style="fill:#AF6D31;" d="M28.6,34.7c0.1-0.2,0.2-0.4,0.4-0.5c0.3-0.1,0.5-0.1,0.8,0c0.2,0.1,0.3,0.3,0.4,0.5v0.1h-1.4
	C28.8,34.8,28.6,34.7,28.6,34.7z"/>
<path style="fill:#AF6D31;" d="M37,9.9c0.3,0.4,0.6,0.8,0.8,1.2c0.2,0.4,0.3,0.9,0.3,1.4c0,0.5-0.1,1-0.3,1.5
	c-0.2,0.5-0.3,0.9-0.5,1.4c-0.1,0.2-0.2,0.5-0.2,0.7c0,0.2-0.2,0.5-0.2,0.7c-0.1,0.5-0.3,1-0.4,1.4c-0.3,1-0.5,1.9-0.8,2.9
	c-0.5,1.9-1,3.8-1.5,5.8s-0.9,3.8-1.3,5.8l-0.3,1.5l-0.3,1.5l-0.2,1.5c-0.1,0.5-0.1,1-0.2,1.5c-0.1,1-0.3,2-0.4,2.9l-0.2,1.3
	c-0.1,0.5-0.1,1-0.2,1.5c0,0.2-0.1,0.5-0.1,0.7c-0.1,0.2-0.1,0.5-0.2,0.7c-0.1,0.3-0.2,0.5-0.4,0.7c-0.2,0.2-0.4,0.4-0.6,0.5
	l-0.3,0.2c-0.1,0.1-0.2,0.1-0.4,0.2c-0.3,0.1-0.5,0.2-0.8,0.2c-0.3,0-0.5,0-0.8-0.1c-0.3-0.1-0.5-0.2-0.7-0.4
	c-0.4-0.3-0.8-0.7-1.1-1.1c-0.3-0.4-0.6-0.8-0.8-1.3c-0.5-0.9-0.8-1.8-1.1-2.8c-0.6-1.9-1-3.8-1.3-5.8c-0.3-2-0.5-3.9-0.7-5.9
	s-0.3-4-0.3-5.9s0-4,0.1-5.9c0-1,0.1-2,0.2-3c0.1-1,0.3-1.9,0.5-2.9c0.1-0.5,0.2-1,0.4-1.4c0.2-0.5,0.4-1,0.6-1.4
	c0.2-0.5,0.5-0.9,0.9-1.2C24.6,8.2,25,8,25.5,7.8c0.5-0.1,1-0.2,1.5-0.1c0.5,0,1,0,1.5,0.1L30,8l1.5,0.1c1,0.1,1.9,0.3,2.9,0.5
	c0.5,0.1,1,0.3,1.4,0.5C36.3,9.3,36.7,9.6,37,9.9z M37,9.9c-0.3-0.4-0.7-0.6-1.2-0.8c-0.4-0.2-0.9-0.4-1.4-0.5
	c-1-0.2-1.9-0.4-2.9-0.5L30,7.9l-1.5-0.1c-0.5,0-1-0.1-1.5-0.1c-0.5,0-1,0.1-1.5,0.2c-0.5,0.1-0.9,0.4-1.3,0.7
	c-0.4,0.3-0.7,0.7-0.9,1.2c-0.2,0.4-0.4,0.9-0.5,1.4c-0.1,0.5-0.3,1-0.4,1.4c-0.2,1-0.4,1.9-0.5,2.9c-0.1,1-0.2,2-0.2,3
	c-0.1,2-0.1,3.9,0,5.9c0.1,1.9,0.2,3.9,0.4,5.9s0.4,3.9,0.7,5.9c0.3,1.9,0.7,3.8,1.3,5.7c0.3,0.9,0.7,1.8,1.1,2.7
	c0.2,0.4,0.5,0.8,0.8,1.2c0.3,0.4,0.6,0.7,1,1c0.4,0.3,0.8,0.4,1.2,0.5c0.2,0,0.4-0.1,0.6-0.1s0.2-0.1,0.3-0.2l0.3-0.2
	c0.2-0.1,0.4-0.3,0.5-0.5c0.1-0.2,0.3-0.4,0.3-0.6c0.1-0.2,0.2-0.5,0.2-0.7c0.1-0.2,0.1-0.5,0.1-0.7c0.2-1,0.3-2,0.4-2.9
	s0.3-2,0.4-2.9c0.1-0.5,0.1-1,0.2-1.5l0.3-1.5l0.3-1.5l0.3-1.5c0.8-3.9,1.8-7.7,2.9-11.5c0.3-1,0.5-1.9,0.8-2.9
	c0.1-0.5,0.3-1,0.4-1.4l0.2-0.7c0.1-0.2,0.2-0.5,0.2-0.7c0.2-0.4,0.4-0.9,0.5-1.4c0.2-0.5,0.3-1,0.3-1.5c0-0.5-0.1-1-0.3-1.4
	C37.6,10.7,37.3,10.3,37,9.9z"/>
<path style="fill:#DB812D;" d="M32.6,31.4c-0.6,0.4-1,1.1-1,1.8c0,1.1,1,1.8,1.7,3.1s4.2,6,4.5,5.1s-0.7-1.2,0.6-1s2.9,0.1,2.1-0.7
	s-4.8-2.7-6-5.1S33.4,31.1,32.6,31.4z"/>
<path style="fill:#AF6D31;" d="M37.7,41.8c-0.7,0-4.1-4.9-4.4-5.4c-0.2-0.4-0.5-0.8-0.8-1.2c-0.6-0.5-0.9-1.2-0.9-2
	c0-0.8,0.4-1.5,1-1.9l0,0c0.2-0.1,0.3-0.1,0.5,0c0.3,0.1,0.4,0.5,0.7,1.2c0.3,0.7,0.6,1.4,0.9,2.1c0.5,1.1,3.6,4.3,4.8,4.5
	c0.4,0.1,0.8,0.3,1.2,0.6c0.2,0.2,0.3,0.4,0.2,0.6c-0.3,0.6-2.2,0.3-2.4,0.3h-0.6v0.1c0.1,0.3,0.1,0.6,0.1,0.9
	C37.8,41.8,37.7,41.8,37.7,41.8z M32.7,31.5c-0.5,0.4-0.9,1-0.9,1.7c0.1,0.7,0.4,1.3,0.9,1.8c0.3,0.4,0.6,0.9,0.9,1.3
	c0.9,1.6,3.9,5.3,4.2,5.3v-0.1c0.1-0.2,0-0.5-0.1-0.7c0-0.1-0.1-0.3,0-0.4s0.3-0.1,0.8-0.1c1.2,0.2,2,0,2.1-0.2s0-0.2-0.2-0.3
	c-0.3-0.2-0.7-0.4-1.1-0.5c-1.3-0.3-4.4-3.4-5-4.6l-0.9-2.1C33.1,32,32.9,31.6,32.7,31.5L32.7,31.5z"/>
<path style="fill:#DB812D;" d="M30.2,7.8c1.6-1.5,3.8-2.2,6-2c3.7,0.4,4.3,2.7,4.4,3.4s0.2,2.7-0.7,2.8s-3.8-5.7-9.7-1.7
	c-1.4-1.4-4.5-2.8-6.1-0.1s-2.7,3.1-3.8,3.2s-2.5-0.5-2.3-3s3.8-4.9,7-4.7C26.9,5.8,28.8,6.6,30.2,7.8z"/>
<path style="fill:#AF6D31;" d="M30.2,7.8c0.4-0.4,0.8-0.7,1.3-1c0.5-0.3,1-0.5,1.5-0.7c1.1-0.4,2.2-0.5,3.3-0.3l0.4,0.1h0.4
	C37.4,6,37.6,6,37.9,6.1c0.5,0.2,1,0.5,1.5,0.9L40,7.6c0.2,0.2,0.3,0.4,0.4,0.7c0.1,0.3,0.2,0.5,0.3,0.8s0.1,0.6,0.1,0.8v0.8
	c0,0.3-0.1,0.6-0.2,0.8c-0.1,0.1-0.2,0.3-0.3,0.3s-0.1,0.1-0.2,0.1h-0.3c-0.1-0.1-0.3-0.1-0.4-0.2L39,11.5c-0.4-0.4-0.8-0.8-1.2-1.1
	c-0.4-0.4-0.9-0.7-1.4-0.9c-0.5-0.2-1-0.4-1.5-0.5c-0.5-0.1-1.1-0.1-1.6,0c-1.1,0.2-2.1,0.7-3,1.3l-0.1,0.1l-0.1-0.1
	c-0.5-0.4-1-0.8-1.6-1.1c-0.6-0.3-1.2-0.5-1.8-0.5c-0.3,0-0.6,0-0.9,0.1C25.5,8.9,25.2,9,25,9.2c-0.2,0.2-0.4,0.4-0.6,0.7l-0.1,0.2
	l-0.1,0.2c-0.1,0.1-0.2,0.3-0.3,0.4c-0.4,0.6-0.8,1.1-1.2,1.6c-0.2,0.2-0.5,0.4-0.8,0.6c-0.3,0.2-0.6,0.3-1,0.4
	c-0.2,0-0.3,0.1-0.5,0.1h-0.7c-0.4,0-0.7-0.1-1-0.3c-0.3-0.2-0.5-0.5-0.7-0.8c0-0.1,0-0.1-0.1-0.2v-1.4c0-0.4,0.1-0.7,0.3-1
	c0.3-0.6,0.7-1.1,1.2-1.6c0.5-0.4,1-0.8,1.6-1.1c0.6-0.3,1.2-0.5,1.8-0.7c0.3-0.1,0.7-0.1,1-0.2s0.7-0.1,1-0.1c1.3,0,2.6,0.4,3.8,1
	C29.2,7,29.8,7.3,30.2,7.8z M30.2,7.8c-0.5-0.4-1-0.8-1.6-1.1c-1.2-0.6-2.5-1-3.8-1c-0.3,0-0.7,0-1,0.1c-0.3,0-0.7,0.1-1,0.2
	c-0.6,0.2-1.2,0.4-1.8,0.7c-0.5,0.4-1,0.8-1.5,1.2c-0.5,0.4-0.9,1-1.1,1.6c-0.1,0.3-0.2,0.6-0.2,0.9V12c0,0.1,0.1,0.1,0.1,0.2
	c0.2,0.3,0.5,0.5,0.8,0.7c0.3,0.2,0.6,0.3,0.9,0.3h0.4c0.2,0,0.3,0,0.5-0.1l0.9-0.3c0.3-0.2,0.5-0.4,0.8-0.6c0.5-0.4,0.9-1,1.2-1.5
	c0.1-0.1,0.2-0.3,0.3-0.4l0.1-0.2l0.1-0.2c0.2-0.3,0.4-0.6,0.7-0.8c0.3-0.2,0.6-0.4,0.9-0.5c0.3-0.1,0.7-0.1,1-0.1
	c0.7,0.1,1.3,0.3,1.9,0.6c0.6,0.3,1.1,0.7,1.6,1.2h-0.2c0.5-0.3,1-0.6,1.5-0.8c0.5-0.2,1.1-0.4,1.6-0.5c0.6-0.1,1.1-0.1,1.7,0
	c0.6,0.1,1.1,0.3,1.6,0.5c0.5,0.3,1,0.6,1.4,0.9c0.4,0.4,0.8,0.8,1.2,1.1l0.3,0.3c0.1,0.1,0.2,0.2,0.3,0.2h0.1c0.1,0,0.1,0,0.2-0.1
	s0.2-0.2,0.2-0.3c0.1-0.2,0.2-0.5,0.2-0.8V10c0-0.3,0-0.5-0.1-0.8c-0.1-0.3-0.1-0.5-0.2-0.8c-0.1-0.3-0.2-0.5-0.4-0.7l-0.6-0.6
	c-0.4-0.4-0.9-0.6-1.4-0.8c-0.3-0.1-0.5-0.2-0.8-0.2h-0.4l-0.3-0.2c-1.1-0.2-2.2-0.1-3.3,0.3c-0.5,0.2-1,0.4-1.5,0.7
	C31,7.1,30.6,7.4,30.2,7.8z"/>
<path style="fill:#AF6D31;" d="M40.5,39.7c-0.8-0.8-4.8-2.7-6-5.1s-1.1-3.5-1.9-3.2c-0.1,0.1-0.2,0.1-0.3,0.2
	c1.3,2.3,2.8,4.5,4.4,6.6c1,1.2,1.1,2,3,2.2C40.5,40.5,41,40.2,40.5,39.7z"/>
<path style="fill:#E1974F;" d="M40.6,9.1c0-0.1,0-0.3-0.1-0.4l0,0C40,7.4,38.7,6.6,36,6.4c-1.7-0.1-3.3,0.6-4.3,1.9L33,8.9
	c2.8-0.6,4.6,1.1,5.7,2.2l1.6,0.6C40.7,10.9,40.8,10,40.6,9.1z"/>
<path style="fill:#AF6D31;" d="M40.6,9.1l-0.1-0.4l0,0c-0.2-0.4-0.4-0.7-0.7-1c-0.3-0.3-0.7-0.5-1.1-0.7c-0.4-0.2-0.8-0.3-1.2-0.3
	c-0.4-0.1-0.9-0.1-1.3-0.1h-1.3l-0.3,0.1H34v0.2L33.7,7c-0.4,0.2-0.7,0.4-1.1,0.6c-0.2,0.1-0.3,0.3-0.5,0.4
	c-0.2,0.1-0.3,0.3-0.4,0.5l-0.1-0.2l0.7,0.2L33,8.8l0,0c0.5-0.1,1.1-0.1,1.6-0.1c0.3,0,0.5,0.1,0.8,0.1l0.4,0.1L36.2,9
	c0.5,0.2,1,0.5,1.4,0.8c0.4,0.3,0.8,0.7,1.2,1.1l0,0l1.6,0.6l0,0l0.3-0.6c0.1-0.2,0.1-0.4,0.1-0.6C40.7,10,40.7,9.6,40.6,9.1z
	 M40.6,9.1c0.1,0.4,0.1,0.9,0.1,1.3c0,0.2,0,0.4-0.1,0.6c0,0.2-0.1,0.4-0.3,0.6l0,0L38.7,11l0,0c-0.4-0.4-0.8-0.7-1.2-1
	c-0.4-0.3-0.9-0.6-1.4-0.8c-0.5-0.2-1-0.3-1.5-0.4c-0.5,0-1,0-1.5,0.1H33l-0.7-0.2l-0.7-0.3l-0.2-0.1l0.1-0.1c0.3-0.3,0.6-0.6,1-0.9
	c0.2-0.1,0.4-0.2,0.5-0.4l0.3-0.1l0.3-0.1l0.3-0.1l0.2-0.1h0.6L35,6.4h1.4c0.4,0,0.9,0.1,1.3,0.2c0.4,0.1,0.8,0.2,1.2,0.4
	c0.4,0.2,0.8,0.4,1.1,0.7c0.3,0.3,0.6,0.7,0.7,1.1l0,0L40.6,9.1z"/>
<path style="fill:#AF6D31;" d="M36.7,7.9c-2.1-0.5-4.3-0.2-6.2,0.8l-0.4,0.2c0,0,0.1-0.1-0.2-0.5c-0.9-1.1-4-2-5.8-0.8
	c-1.7,1.6-3,3.5-3.9,5.6c0.8-0.5,1.6-1.1,2.2-1.8c0.5-0.6,0.9-1.3,1.2-2c1.6-2.7,5-0.6,6.4,0.8c5.9-4,8.8,1.9,9.7,1.7
	c0.5-0.1,0.7-0.6,0.8-1.1C40.5,9.8,39.3,8.4,36.7,7.9z"/>
<path style="fill:#A5C84B;" d="M26.7,6.8c3.6-0.5,0.2-1.1,0.2-1.1c-0.7-0.2-1.5-0.3-2.2-0.4c-3.4-0.2-7.2,2.4-7.4,5s1.2,3.2,2.4,3.1
	c1.1-0.2,2-0.9,2.3-2l0,0C22.6,9.2,24,7.2,26.7,6.8z"/>
<path style="fill:#CADB75;" d="M20,8.7c-0.2,0.4-0.3,0.8-0.5,1.2c-0.1,0.4-0.2,0.8-0.2,1.3v2.4c-0.1-0.2-0.2-0.4-0.2-0.6L19,12.6
	v-1.7c0.1-0.4,0.2-0.9,0.4-1.3C19.4,9.3,19.7,9,20,8.7z"/>
<path style="fill:#AF6D31;" d="M30.3,10.2C30.1,10,30,9.6,30,9.3c-0.1-0.3-0.1-0.7,0-1c0.2-0.7,0.7-1.2,1.3-1.4
	c-0.3,0.2-0.5,0.4-0.7,0.6c-0.2,0.2-0.3,0.5-0.4,0.8c-0.1,0.3-0.1,0.6-0.1,0.9C30.2,9.5,30.2,9.9,30.3,10.2z"/>
<path style="fill:#AF6D31;" d="M30.6,19.6c0.2-0.1,0.3-0.3,0.5-0.4c0.2-0.1,0.4-0.2,0.6-0.2h0.7c0.2,0.1,0.4,0.1,0.6,0.3
	c0.2,0.1,0.4,0.2,0.5,0.4c0.2,0.1,0.3,0.3,0.4,0.5c0.1,0.2,0.2,0.4,0.2,0.6c0.1,0.2,0.1,0.5,0,0.7c0,0.4-0.1,0.9-0.2,1.3
	c-0.1,0.4-0.2,0.8-0.4,1.2c-0.1,0.4-0.3,0.7-0.5,1.1c-0.2,0.4-0.4,0.7-0.7,1c0.1-0.4,0.3-0.7,0.5-1.1c0.1-0.2,0.1-0.4,0.2-0.6
	s0.1-0.4,0.2-0.6c0.3-0.8,0.4-1.6,0.4-2.4v-0.6c-0.1-0.6-0.4-1.1-0.9-1.4c-0.2-0.1-0.3-0.2-0.5-0.3C32,19,31.8,19,31.6,19h-0.3
	L31,19.1C31,19.4,30.8,19.5,30.6,19.6z"/>
<path style="fill:#935B2C;" d="M32.5,19.1c0.8-0.5,1.5-1.2,1.9-2c0.2-0.4,0.5-0.7,0.6-0.4c0,0.7-0.1,1.5-0.3,2.2
	c-0.1,0.4,0.2,1.2,0.2,2.4s-0.5,6-4.4,7.6c0.3-0.3,3.1-2.4,3.6-5C34.2,22.1,35.2,19.5,32.5,19.1z"/>
<path style="fill:#AF6D31;" d="M33.3,19.9c0.2,0.5,0.2,1.1,0,1.6c-0.4,0.6-0.3,3.2-1.8,4.8s-2.3,2.3-2.5,2s0.5-2,0.5-2l-0.3,0.2
	c-0.2,1.2-0.5,2.4-0.9,3.5c0.5,0,0.5-0.3,1-0.5c1.2-0.9,2.3-1.9,3.2-3.1c1-1.6,1.5-3.4,1.4-5.3C33.7,20.7,33.5,20.3,33.3,19.9z"/>
<path style="fill:#935B2C;" d="M23.9,21.7c0,0-0.2-0.2,0.1-0.5s0.5-0.7,0.8-0.6c0.1,0.1,0,0.2-0.1,0.3s-0.3,0.1-0.3,0.2
	c0.2,0.3,0.5,0.6,0.8,0.8c-0.4,0.2-0.6,0.6-0.6,1c0,0.4,0,0.9,0.1,1.3c0.1,0.3,0.3,1.3,0.6,1.5l-0.1,0.2c0,0-0.8-0.8-0.8-4v-0.5
	C24.4,21.4,23.9,21.2,23.9,21.7z"/>
<path style="fill:#935B2C;" d="M30.6,21c-0.1,0-0.2,0.2-0.1,0.2l0.6,0.3l0.5,0.5c0-0.2,0-0.4-0.2-0.5C31.2,21.3,30.9,21.1,30.6,21z"
	/>
<path style="fill:#BDBEBE;" d="M24.4,21.3c-0.1,0.1-0.2,0.3-0.1,0.5c0,0.3,2.3,1.2,3,1.2c1.1,0,2.3-0.2,3.3-0.7
	c0.1-0.2,0.1-0.3,0.1-0.5c-1,0.5-2.2,0.7-3.3,0.7C26.3,22.4,25.3,22,24.4,21.3z"/>
<path style="fill:#E1974F;" d="M24,20.8c0.3-0.2,0.7-0.3,1.1-0.4c0.5-0.1,1.2,0,1.4-0.4s0-0.8-0.4-0.8c-0.5,0.1-1.1,0-1.5-0.3
	c-0.7-0.3-1.5,0-1.9,0.6c-0.4,0.7-0.5,2.4,0,2.5S23.7,21,24,20.8z"/>
<path style="fill:#E5A469;" d="M23.8,23.7c0-0.1-0.8-0.2-0.9,0.6c-0.2,1.2,0,2.5,0.7,3.5c0.3,0.4,0.7,0.9,0.7,0.9
	c0.1-0.8,0.2-1.6,0.5-2.3C24.2,25.6,23.9,24.7,23.8,23.7z"/>
<path style="fill:#99242C;" d="M24.4,31.9c0,0,0.9,1.2,1.4,0.8c0.7-0.9,1.4-1.8,2-2.8c0.2-0.2,0.4,0.4,0.1,1.2s-1.2,2.7-2.1,2.4
	S24.8,32.8,24.4,31.9z"/>
<path style="fill:#935B2C;" d="M22,31.5c0,0,0.2,2.8,0.4,3.8c-0.5,0.8-4.4,5.5-4.4,5.5s-0.3,0,0.2-0.6c0.7-0.9,3.1-3.8,3.8-4.8
	c0-1.1,0-2.1-0.1-3.2L22,31.5z"/>
<path style="fill:#935B2C;" d="M37.8,38.4c0,0.2,0.1,0.4,0.2,0.5c0.7,0.5,1.5,0.8,2.4,1c0.3-0.1,0.2-0.4,0-0.5
	c-0.3-0.2-0.7-0.3-1-0.4c-0.5-0.2-1-0.4-1.4-0.6C37.8,38.3,37.8,38.4,37.8,38.4z"/>
<path style="fill:#935B2C;" d="M34.2,7.9c1.3-0.3,2.6-0.1,3.8,0.4c1.3,0.4,2.3,1.5,2.6,2.8c-0.1,0.4-0.1,0.7-0.6,1
	C39.7,11.1,39.8,9.5,34.2,7.9z"/>
<path style="fill:#935B2C;" d="M19.7,13.3c1-0.2,1.9-0.9,2.3-1.8c0.4-1.6,1.3-4.1,4.2-4.3c0.9,0.2,1.8,0.5,2.5,1.1
	c0.3,0.4-0.4,0.3-0.9,0s-2.6-1-3.6,0.1s-1.6,1.8-1.7,2.5C22.3,12.3,21.1,13.3,19.7,13.3z"/>
<path style="fill:#8DB14C;" d="M23,5.5c0,0,2.4-0.1,1.5,1.9c1-0.5,2.1-0.8,3.2-0.7c0.4,0,1.1-0.3,0.3-0.6C26.4,5.3,24.7,5.1,23,5.5z
	"/>
<path style="fill:#BDBEBE;" d="M28.2,16.8c0.7-1.6,0.9-3.4,0.7-5.1c0-1.1-0.9-1.9-1.9-1.9c0,0,0,0-0.1,0h-0.3
	c-1.1,0.2-1.7,0.4-2.7,2.5c-0.5,1.9-0.8,4.8,0.3,5.9c0.1-0.1,0.1-0.2-0.1-0.7s-0.2-4.5,0.5-4.6s3.5,0.2,3.7,1.1S27.8,16.7,28.2,16.8
	z"/>
<path style="fill:#BDBEBE;" d="M30.2,18.6c0,0-0.9-0.6-0.7-2.9s0.9-4.4,2.2-5.1c0.8-0.6,1.9-0.6,2.7,0c0.6,0.5,1.2,1.4,0.8,3.3
	c-0.1,0.7-0.3,1.3-0.5,2c0,0-0.1,0,0-0.6s0.7-2.9-0.1-3.7s-3.7,1.1-4,2.2c-0.3,1-0.4,2-0.5,3C30,17.7,30.6,18.8,30.2,18.6z"/>
<path style="fill:#935B2C;" d="M31.5,32.9c0.1,0.7,0.2,1.4,0.4,2.1c0,1-1,6.6-1.1,8.8c0.1,1.3-0.4,2.6-1.3,3.6
	c-0.4-0.1-0.1-0.8,0-1.2s1-5.7,1.1-7S31,32,31.5,32.9z"/>
<path style="fill:#935B2C;" d="M27.9,47.7c-0.1,0,0,10.8,0,10.8s-3.2,1.9-2.5,1.9l8.4,0.1c0,0-0.5-1.9-3.7-2.3V46.7
	C29.6,47.5,28.8,47.8,27.9,47.7z"/>
<path style="fill:#E1974F;" d="M25.8,46.5c0.4,0.3,0.9,0.6,1.3,0.9c0.1,1.3,0.2,11,0.2,11s-1.1,0.4-1.5-0.1
	C25.6,55.9,25.8,46.5,25.8,46.5z"/>
<path style="fill:#E1974F;" d="M22.8,60.3c0.9-0.9,2-1.6,3.3-1.9c0.3,0,0.7,0,1-0.1c0,0-2.3,2-2.4,2H22.8z"/>
<path style="fill:#8DB14C;" d="M32,9.2c0,0,0.2-2.1,3.5-1.1s4.9,3.2,4.5,4.9s-2.7,1.4-3.4,0S34.6,8.6,32,9.2z"/>
<path style="fill:#CADB75;" d="M36.7,13.3c0.7,1.4,3,1.7,3.4,0c0.1-0.5,0.1-1-0.1-1.4V12c0,1.1-0.3,1.7-1.3,1.9s-2.4-2.5-3.4-3.9
	S32,9.2,32,9.2C34.6,8.6,35.9,11.9,36.7,13.3z"/>
<path style="fill:#AF6D31;" d="M27.4,10.1c-0.5-0.1-1.1,0-1.5,0.3c0.3,0,0.6,0.3,0.6,0.7c0,0.3-0.3,0.6-0.7,0.6c0,0-0.1,0-0.1,0
	c-0.3,0-0.5-0.2-0.5-0.5c-0.3,0.5-0.5,1-0.6,1.6c-0.5,3,1.5,3,2.1,2.8s1.3-0.5,1.8-2S28.9,10.3,27.4,10.1z"/>
<path style="fill:#1E1D21;" d="M27.2,10.2c-0.5-0.1-0.9,0-1.3,0.3c0.3,0,0.5,0.3,0.5,0.6s-0.3,0.5-0.6,0.5c-0.2,0-0.4-0.2-0.5-0.5
	c-0.3,0.5-0.5,1-0.6,1.5c-0.5,2.8,1.3,2.7,1.8,2.6s1.1-0.5,1.6-1.9S28.6,10.4,27.2,10.2z"/>
<path style="fill:#1E1D21;" d="M26.1,15.2c-0.4,0-0.7-0.1-1-0.3c-0.5-0.6-0.7-1.5-0.5-2.3c0.1-0.5,0.3-1,0.6-1.5V11
	c0,0.3,0.2,0.5,0.5,0.5s0.5-0.2,0.5-0.5c0-0.2-0.2-0.4-0.4-0.5l0,0c0.4-0.2,0.8-0.3,1.3-0.3c0.4,0,0.8,0.3,1,0.6
	c0.3,0.8,0.3,1.6,0,2.4c-0.5,1.4-1.1,1.7-1.6,1.9C26.4,15.2,26.2,15.2,26.1,15.2z M25.3,11.1c-0.3,0.4-0.5,1-0.5,1.5
	c-0.3,0.8-0.1,1.7,0.4,2.3c0.4,0.3,0.9,0.4,1.4,0.3c0.5-0.2,1.1-0.5,1.6-1.9c0.3-0.8,0.3-1.6,0-2.4c-0.2-0.3-0.6-0.6-1-0.6l0,0
	c-0.4-0.1-0.8,0-1.2,0.2c0.3,0.1,0.5,0.4,0.4,0.7c-0.1,0.3-0.4,0.5-0.7,0.4l0,0C25.5,11.5,25.3,11.4,25.3,11.1L25.3,11.1z"/>
<circle style="fill:#FFFFFF;" cx="25.9" cy="11" r="0.8"/>
<ellipse transform="matrix(0.9384 -0.3455 0.3455 0.9384 -3.3964 10.3664)" style="fill:#FFFFFF;" cx="27.4" cy="14.7" rx="0.3" ry="0.7"/>
<path style="fill:#AF6D31;" d="M33.6,10.4c-0.5-0.1-1,0-1.5,0.2c0.3,0.1,0.5,0.4,0.4,0.7c-0.1,0.3-0.4,0.5-0.7,0.4l0,0
	c-0.3-0.1-0.4-0.3-0.4-0.6c-0.4,0.5-0.6,1-0.8,1.6c-0.7,3,1.3,3.1,1.9,2.9c0.9-0.3,1.7-1,2-1.9C35.2,12.3,35.2,10.7,33.6,10.4z"/>
<path style="fill:#1E1D21;" d="M33.5,10.4c-0.4-0.1-0.9,0-1.3,0.2c0.3,0.1,0.5,0.3,0.4,0.6s-0.3,0.5-0.6,0.4
	c-0.2-0.1-0.4-0.3-0.4-0.5c-0.4,0.4-0.6,1-0.7,1.5c-0.7,2.7,1.1,2.8,1.7,2.7s1.2-0.4,1.8-1.8S34.8,10.7,33.5,10.4z"/>
<path style="fill:#1E1D21;" d="M32.2,15.4c-0.4,0-0.8-0.2-1.1-0.5c-0.5-0.7-0.6-1.5-0.3-2.3c0.1-0.6,0.3-1.1,0.7-1.5l0,0
	c0,0.3,0.2,0.5,0.5,0.5c0.3,0,0.5-0.2,0.5-0.5c0,0,0,0,0,0c0-0.2-0.2-0.5-0.4-0.5l0,0c0.4-0.2,0.9-0.3,1.3-0.2
	c0.4,0.1,0.8,0.3,1,0.7c0.3,0.8,0.2,1.7-0.2,2.4c-0.5,1.3-1.2,1.6-1.7,1.7C32.4,15.3,32.3,15.3,32.2,15.4z M31.5,11.2
	c-0.3,0.4-0.5,0.9-0.6,1.4c-0.3,0.8-0.2,1.6,0.3,2.3c0.4,0.3,0.9,0.5,1.4,0.4c0.5-0.1,1.2-0.4,1.7-1.7c0.4-0.7,0.5-1.6,0.2-2.4
	c-0.2-0.4-0.5-0.6-0.9-0.7l0,0c-0.4-0.1-0.8,0-1.2,0.1c0.3,0.1,0.4,0.4,0.4,0.7c-0.1,0.3-0.4,0.4-0.7,0.4c0,0-0.1,0-0.1,0
	C31.7,11.7,31.5,11.5,31.5,11.2L31.5,11.2z"/>
<circle style="fill:#FFFFFF;" cx="32.1" cy="11.2" r="0.8"/>
<ellipse transform="matrix(0.96 -0.28 0.28 0.96 -2.8369 9.9262)" style="fill:#FFFFFF;" cx="33.3" cy="14.9" rx="0.3" ry="0.7"/>
<path style="fill:#E5A469;" d="M22.6,20.3c-0.1-0.5,0.1-1,0.6-1.2c0.8-0.3,1.6,0.4,1.1,1.1S22.8,22,22.6,20.3z"/>
<path style="fill:#FFFFFF;" d="M24.3,21.8c0,0.7,0.2,1.5,0.4,2.2c0.2-0.4,0.4-0.8,0.4-1.3L25,22.2C24.7,22.1,24.5,22,24.3,21.8z"/>
</svg>
