<?xml version="1.0" encoding="utf-8"?>
<!-- Generator: Adobe Illustrator 22.0.0, SVG Export Plug-In . SVG Version: 6.00 Build 0)  -->
<svg version="1.1" id="Слой_1" xmlns="http://www.w3.org/2000/svg" xmlns:xlink="http://www.w3.org/1999/xlink" x="0px" y="0px"
	 viewBox="0 0 55.8 62.9" style="enable-background:new 0 0 55.8 62.9;" xml:space="preserve">
<title>Artboard 1 копия 17</title>
<g id="Слой_7">
	<path style="fill:#A49568;" d="M24.5,61.3c-2.5,0-4.1,0-4.6,0c-0.3,0-1.1-0.1-1.3-0.7s0.5-1.1,1-1.3l4.1-2.7c0-0.6,0.1-2.4,0-4.5
		v-0.1h-0.2l-0.9-0.2h-0.1L22,51.7l-0.4-0.1c-1.8-0.3-3.5-0.8-5.2-1.5c-0.2-0.1-0.4-0.2-0.5-0.4c-0.7-0.5-1.1-1.3-1.2-2.2
		c-0.1-0.4-0.1-0.9,0-1.3c-0.2-0.3-0.3-0.7-0.2-1.1l0,0c-0.1,0-0.2-0.1-0.2-0.2C14.1,45,14,44.9,14,44.8c-0.2-0.5-0.4-1-0.5-1.6
		c-0.1-0.5-0.2-0.9-0.2-1.4c-0.1-1-0.2-3.2,0.2-3.9c0.1-0.1,0.2-0.3,0.3-0.4c0-0.2,0-0.4,0-0.6c0.1-0.5,0.3-0.9,0.6-1.4
		c-0.3-0.2-0.5-0.4-0.5-0.7c-0.1-0.8,0.2-1.5,0.7-2.1c0.3-0.2,0.7-0.4,1.1-0.6c0-0.5,0.2-0.9,0.4-1.3c0.1-0.1,0.3-0.2,0.4-0.3
		c0.1-0.1,0.2-0.1,0.3-0.2c0.7-0.3,1.4-0.6,2.2-0.8l1.1-0.3l0.6-0.2c0.4-0.2,0.7-0.4,1-0.8c0.2-0.3,0.3-0.6,0.4-0.9l0.2-0.6
		c0.1-0.3,0.2-0.6,0.3-0.9c0-0.1,0.1-0.2,0.1-0.3c0-0.1,0.1-0.2,0.1-0.3s0.1-0.3,0.2-0.4c0-0.3,0.1-0.5,0.3-0.8
		c0-0.3-0.1-0.6-0.1-0.9c0-0.5,0-1,0-1.5c0-1,0.2-2.1,0.5-3.1c0.3-1,0.7-2,1.1-2.9c0.2-0.5,0.5-0.9,0.8-1.4c0.3-0.5,0.8-0.9,1.3-1.2
		c0.2-0.1,0.4-0.2,0.6-0.2h0.2h0.1c0.1,0,0.2,0,0.3,0.1c0.1,0,0.2,0.1,0.3,0.2c0.1,0.1,0.2,0.1,0.3,0.2c0.1,0.2,0.2,0.4,0.3,0.6
		c0,0.1,0,0.1,0,0.2c0,0.1,0,0.1,0,0.2l0.2-0.2c0.4-0.5,0.9-0.9,1.4-1.1l0.3-0.1c0.1,0,0.2,0,0.2,0.1h0.1c0.1,0,0.2,0,0.3,0l0.3,0.1
		l0.2,0.1c0.2,0.1,0.3,0.3,0.4,0.5l0.2-0.2c0.4-0.5,0.9-0.9,1.4-1.3c0.2-0.1,0.3-0.2,0.5-0.3c0.1-0.1,0.3-0.1,0.5-0.1l0,0
		c0.3,0,0.5,0.1,0.7,0.3c0.1,0.1,0.2,0.3,0.3,0.5c0,0.1,0.1,0.2,0.1,0.4c0,0.2,0,0.4,0,0.6c0,0.3-0.1,0.7-0.2,1
		c0.1,0.1,0.2,0.2,0.2,0.4c0,0.1,0.1,0.2,0.1,0.3c0.1,0.5,0.1,1,0,1.6c-0.1,0.5-0.1,1-0.2,1.5c-0.2,1-0.4,1.9-0.8,2.9
		c-0.2,0.5-0.4,0.9-0.6,1.4l-0.6,1.3c-0.3,0.7-0.7,1.4-1,2l0,0c0.2,0.6,0.2,1.2,0.2,1.8c0,0.1,0.1,0.3,0.1,0.5
		c0.1,0.3,0.2,0.5,0.3,0.8c0.1,0.2,0.2,0.4,0.3,0.5c0.1,0.2,0.3,0.4,0.5,0.5c2.8,0.9,3.4,2.1,3.8,2.9l0,0c0.7,0.1,1.3,0.4,1.8,0.8
		c0.1,0,0.1,0.1,0.2,0.1c0.6,0.4,1.1,0.9,1.6,1.5c1.9,2.2,1.3,6.9,0,8.8c-0.7,1.3-2,2.2-3.4,2.5c-0.4,0.5-0.9,1-1.4,1.5l-0.5,0.5
		c-0.8,0.8-1.8,1.4-2.9,1.8c-0.1,0-0.1,0-0.2,0l0,0c-0.1,0.1-0.1,0.1-0.2,0.2c-0.1,0.1-0.2,0.2-0.3,0.3c-0.8,0.3-1.7,0.6-2.5,0.8
		v0.2c0,0,0,0.1,0,0.1v4.7c0.9,0.5,3.9,2.5,4.7,2.9c0.2,0.1,0.8,0.4,0.7,1c-0.1,0.3-0.4,0.6-0.7,0.7h-0.1
		C34.6,61.2,28.8,61.3,24.5,61.3z"/>
	<path style="fill:#FFFFFF;" d="M34.9,12.2c0.1,0,0.2,0,0.3,0.1c0.1,0.1,0.1,0.2,0.2,0.3c0,0.1,0,0.2,0,0.3c0,0.2,0,0.3,0,0.5
		c-0.1,0.4-0.2,0.9-0.3,1.3c0.1,0,0.2,0,0.2,0.1c0.1,0.1,0.1,0.2,0.2,0.3c0,0.1,0,0.1,0,0.2c0.1,0.5,0.1,1,0,1.5
		c-0.1,0.5-0.1,1-0.2,1.4C35,19,34.8,20,34.4,20.9c-0.2,0.5-0.4,0.9-0.6,1.3l-0.6,1.3c-0.4,0.7-0.7,1.5-1.1,2.2
		c0.2,0.6,0.3,1.2,0.3,1.8c0,0.2,0.1,0.4,0.1,0.7c0.1,0.3,0.2,0.6,0.3,0.8c0.1,0.2,0.2,0.4,0.4,0.6c0.2,0.2,0.4,0.4,0.6,0.7
		c3,1,3.4,2.1,3.7,2.9h0.2h0.1c0.6,0.1,1.1,0.4,1.6,0.7l0,0c0.6,0.4,1.2,0.9,1.6,1.5c1.7,2,1.2,6.5,0,8.2c-0.7,1.2-1.9,2.1-3.3,2.4
		c-0.4,0.6-0.9,1.1-1.4,1.6l-0.5,0.5l0,0c-0.7,0.7-1.6,1.3-2.6,1.7h-0.1h-0.1c-0.4,0.1-0.5,0.4-0.8,0.6c-0.9,0.3-1.8,0.6-2.8,0.9
		c0,0.2,0,0.4,0,0.7l0,0v5c0,0,4,2.5,4.9,3.1s0.1,0.7,0.1,0.7s-5.7,0-10.1,0c-2.2,0-4,0-4.6,0c-1.8-0.1-0.1-1-0.1-1l4.2-2.8
		c0,0,0.1-2.1,0-4.8c0-0.1,0-0.3,0-0.5l0,0l-0.6-0.1l0,0l-0.8-0.2h-0.2l0,0h-0.3l0,0l-0.4-0.1c-1.8-0.3-3.5-0.8-5.1-1.5
		c-0.1-0.1-0.3-0.2-0.4-0.3l0,0c-0.6-0.5-0.9-1.1-1-1.9l0,0c-0.1-0.5-0.1-0.9,0-1.4c-0.2-0.2-0.4-0.5-0.3-0.8c0-0.1,0-0.2,0-0.3
		c0-0.1,0-0.1-0.1-0.1c-0.1,0-0.2-0.1-0.3-0.2c0,0-0.1-0.1-0.1-0.1c-0.3-0.5-0.5-1-0.6-1.6c-0.1-0.4-0.2-0.9-0.2-1.3l0,0
		c-0.2-1.2-0.2-2.4,0.1-3.6c0.5-0.8,0.2-0.7,0.3-1.2c0.2-0.6,0.5-1.2,0.8-1.8c-0.1,0-0.3-0.1-0.4-0.1c-0.6-0.2-0.5-1.3,0.2-2
		c0.4-0.3,0.8-0.4,1.2-0.5c0-0.5,0.2-0.9,0.5-1.3c0.1-0.1,0.2-0.2,0.3-0.2c0.1-0.1,0.1-0.1,0.2-0.1l0,0c1-0.4,2.1-0.8,3.2-1.1
		l0.6-0.2c0.5-0.2,0.9-0.5,1.2-0.9c0.2-0.3,0.4-0.6,0.5-1c0.1-0.5,0.3-1,0.4-1.5c0-0.1,0.1-0.2,0.1-0.3l0.1-0.3
		c0.1-0.2,0.2-0.5,0.3-0.7l-0.1,0.2l0,0c0-0.3,0.1-0.6,0.3-0.8c-0.1-0.3-0.1-0.7-0.1-1c0-0.5,0-1,0-1.5c0-1,0.2-2,0.5-3
		c0.3-1,0.6-1.9,1.1-2.8c0.2-0.5,0.5-0.9,0.8-1.3c0.3-0.4,0.7-0.8,1.1-1.1c0.1-0.1,0.3-0.1,0.4-0.1h0.3c0.1,0,0.2,0,0.2,0.1
		c0.1,0,0.1,0.1,0.2,0.1c0.1,0.1,0.1,0.1,0.2,0.2c0.1,0.1,0.1,0.2,0.1,0.3c0,0.1,0,0.2,0,0.2c0,0.3-0.1,0.5-0.1,0.8
		c-0.1,0.3-0.2,0.5-0.3,0.7c-0.2,0.5-0.4,1-0.6,1.5l0.2-0.3c0.3-0.4,0.6-0.8,0.9-1.2c0.3-0.4,0.6-0.8,1-1.2c0.4-0.4,0.8-0.7,1.3-0.9
		h0.2h0.3c0.1,0,0.1,0,0.2,0h0.1l0.1,0.1c0.2,0.1,0.3,0.3,0.3,0.4c0,0.1,0,0.3,0,0.4c0,0.2-0.1,0.4-0.1,0.6l0.2-0.3l0,0l0.3-0.3
		c0.2-0.2,0.4-0.4,0.6-0.7c0.4-0.4,0.8-0.8,1.3-1.2c0.1-0.1,0.3-0.2,0.4-0.2C34.6,12.3,34.7,12.3,34.9,12.2L34.9,12.2 M25.7,20.9
		c0.1-0.3,0.2-0.6,0.3-0.9C25.9,20.3,25.8,20.6,25.7,20.9 M24.9,24.2L24.9,24.2 M34.8,11.2L34.8,11.2c-0.3,0-0.5,0.1-0.7,0.1
		c-0.2,0.1-0.4,0.2-0.7,0.4c-0.5,0.3-0.9,0.7-1.3,1.1L32,12.7l-0.2-0.1c-0.1,0-0.2-0.1-0.3-0.1h0c-0.1,0-0.3,0-0.4,0H31
		c-0.1,0-0.2,0-0.3,0l-0.2,0.1h-0.1c-0.4,0.2-0.8,0.4-1.2,0.7c0-0.1-0.1-0.2-0.1-0.2l-0.1,0c-0.1-0.1-0.2-0.2-0.3-0.3l-0.1-0.1
		c-0.1-0.1-0.3-0.2-0.5-0.2c-0.2-0.1-0.3-0.1-0.5-0.1h-0.1c-0.1,0-0.2,0-0.3,0c-0.2,0-0.4,0.1-0.6,0.2h-0.1
		c-0.6,0.4-1.1,0.9-1.4,1.4c-0.3,0.5-0.6,0.9-0.9,1.4c-0.5,1-0.9,2-1.2,3c-0.3,1-0.5,2.1-0.5,3.2c0,0.5,0,1.1,0,1.6
		c0,0.3,0,0.5,0.1,0.8c-0.1,0.2-0.2,0.5-0.2,0.7c-0.1,0.1-0.1,0.3-0.2,0.4L22,25.5c0,0.1-0.1,0.2-0.1,0.4s-0.2,0.6-0.3,0.9l-0.2,0.6
		c-0.1,0.3-0.2,0.5-0.4,0.7c-0.2,0.3-0.5,0.5-0.8,0.6l-0.5,0.2l-1,0.3c-0.8,0.2-1.5,0.5-2.2,0.8c-0.1,0.1-0.3,0.1-0.4,0.2
		c-0.5,0.3-0.9,0.9-1.1,1.5c-0.3,0.1-0.6,0.3-0.9,0.5L14,32.3c-0.7,0.6-1,1.6-0.9,2.5c0.1,0.3,0.2,0.6,0.4,0.8
		c-0.2,0.3-0.3,0.7-0.4,1.1v0.1c0,0.2,0,0.4,0,0.6L13,37.5v0.1c-0.6,1-0.3,3.7-0.3,4.2c0,0.5,0.1,1,0.2,1.5c0.1,0.6,0.3,1.2,0.6,1.7
		c0.1,0.2,0.2,0.3,0.3,0.4l0,0c0,0.4,0.1,0.7,0.3,1c0,0.4,0,0.9,0.1,1.3c0.1,1,0.6,1.9,1.4,2.5c0.1,0.1,0.3,0.2,0.4,0.3l0.1,0.1
		c1.7,0.7,3.5,1.2,5.3,1.5l0.4,0.1l0,0l0.4,0h0.1l0.7,0.1c0.1,1.7,0,3.2,0,3.9l-3.9,2.6c-0.9,0.5-1.3,1.2-1.2,1.8
		c0.2,1,1.4,1,1.8,1.1c0.6,0,2.1,0,4.7,0c4.3,0,10,0,10.1,0c0.1,0,0.2,0,0.3,0c0.5-0.1,1-0.5,1.1-1.1c0-0.4-0.1-1-0.9-1.5
		c-0.7-0.4-3.3-2-4.4-2.7V52c0.8-0.2,1.5-0.5,2.3-0.8c0.2-0.1,0.3-0.2,0.5-0.4l0,0h0.2c1.1-0.4,2.2-1.1,3-1.9l0,0l0,0l0.5-0.5
		c0.5-0.4,1-0.9,1.4-1.5c1.5-0.4,2.7-1.4,3.5-2.7c1.4-2,2-7-0.1-9.4c-0.5-0.6-1.1-1.2-1.8-1.7L40,33.1c-0.5-0.4-1.1-0.6-1.7-0.8
		c-0.5-1-1.3-2-3.9-2.9c-0.1-0.1-0.2-0.3-0.3-0.4c-0.1-0.1-0.2-0.3-0.3-0.5l0,0c0,0-0.2-0.3-0.3-0.6c0-0.1-0.1-0.3-0.1-0.4
		c0-0.6-0.1-1.1-0.2-1.7c0.3-0.6,0.6-1.2,0.9-1.8l0.6-1.3c0.2-0.5,0.5-0.9,0.6-1.4c0.3-1,0.6-1.9,0.8-2.9c0.1-0.5,0.2-1,0.2-1.5v0
		c0.1-0.6,0.1-1.1,0-1.7c0-0.1,0-0.3-0.1-0.4v-0.1c0-0.1-0.1-0.2-0.2-0.3c0.1-0.3,0.1-0.5,0.2-0.8c0-0.2,0-0.4,0-0.7
		c0-0.2,0-0.3-0.1-0.5c-0.1-0.3-0.2-0.5-0.5-0.8C35.5,11.4,35.2,11.2,34.8,11.2L34.8,11.2z"/>
	<path style="fill:#6EAD51;" d="M23.7,24.6c-0.4-2.4-0.1-4.8,0.8-7c1.5-3.7,3-4.5,3.6-3.7s-2.3,5.6-2.5,7.5l-0.2,2v0.8"/>
	<path style="fill:#385737;" d="M23.7,24.6c-0.1-0.5-0.2-1-0.2-1.5c0-0.5,0-1,0-1.5c0-1,0.2-2,0.5-3c0.3-0.9,0.6-1.9,1.1-2.7
		c0.2-0.5,0.5-0.9,0.8-1.3c0.3-0.4,0.7-0.8,1.1-1.1c0.1-0.1,0.3-0.1,0.4-0.1c0.1,0,0.2,0,0.2,0c0.1,0,0.2,0,0.2,0.1
		c0.1,0,0.1,0.1,0.2,0.1c0.1,0.1,0.1,0.1,0.2,0.2c0.1,0.1,0.1,0.2,0.1,0.3c0,0.1,0,0.2,0,0.2c0,0.3-0.1,0.5-0.1,0.8
		c-0.1,0.3-0.2,0.5-0.3,0.7c-0.4,0.9-0.8,1.8-1.2,2.7c-0.2,0.5-0.4,0.9-0.6,1.4c-0.2,0.4-0.3,0.9-0.5,1.4c0,0.2-0.1,0.5-0.1,0.7
		l-0.1,0.7l-0.2,1.5v-0.7v-0.7v-0.7c0-0.3,0-0.5,0-0.8c0.1-0.5,0.2-1,0.4-1.5c0.2-0.5,0.4-0.9,0.5-1.4c0.4-0.9,0.8-1.8,1.1-2.7
		c0.1-0.2,0.2-0.5,0.2-0.7c0.1-0.2,0.1-0.4,0.1-0.7c0-0.1,0-0.2,0-0.2c0,0-0.1-0.1-0.1-0.1c0,0-0.1-0.1-0.1-0.1
		c-0.2,0-0.4,0-0.5,0.1c-0.4,0.3-0.7,0.6-1,1c-0.3,0.4-0.5,0.8-0.8,1.2c-0.5,0.9-0.9,1.8-1.2,2.7c-0.3,0.9-0.5,1.9-0.6,2.9
		C23.4,22.6,23.5,23.6,23.7,24.6z"/>
	<path style="fill:#6EAD51;" d="M24.9,23.9c0,0,1.3-5,2.7-6.9s2.6-3.7,3.7-3.3c1.1,0.4-0.9,3.4-1.7,5.1l-0.8,1.6
		c-0.4,0.9-0.7,1.8-0.9,2.7c-0.2,1.2-0.1,0.7-0.1,0.7"/>
	<path style="fill:#385737;" d="M24.9,23.9c0.4-2,1-3.9,1.8-5.8c0.2-0.5,0.5-0.9,0.8-1.3c0.3-0.4,0.6-0.8,0.9-1.2
		c0.3-0.4,0.6-0.8,1-1.2c0.4-0.4,0.8-0.7,1.3-0.9h0.2c0.1,0,0.2,0,0.2,0c0.1,0,0.2,0,0.2,0h0.1l0.1,0.1c0.2,0.1,0.3,0.3,0.3,0.4
		c0,0.1,0,0.3,0,0.4c-0.1,0.5-0.3,1-0.5,1.5c-0.4,0.9-1,1.8-1.4,2.7l-0.7,1.3c-0.2,0.5-0.5,0.9-0.6,1.4c-0.2,0.5-0.4,0.9-0.5,1.4
		c-0.1,0.2-0.1,0.5-0.2,0.7l-0.1,0.4c0,0.1,0,0.1,0,0.2l0,0l0,0l0,0v-0.1c0,0,0,0.1,0,0.1l0,0l0,0l0,0c0,0,0-0.1,0-0.2v-0.4
		c0-0.3,0.1-0.5,0.1-0.7c0.1-0.5,0.3-1,0.4-1.5c0.2-0.5,0.4-0.9,0.6-1.4s0.4-0.9,0.6-1.4c0.4-0.9,0.9-1.8,1.4-2.7
		c0.2-0.4,0.4-0.9,0.5-1.4c0-0.1,0-0.2,0-0.3c0-0.1,0-0.1-0.1-0.2c0,0-0.1,0-0.1,0c0,0-0.1,0-0.1,0c0,0-0.1,0-0.1,0h-0.1
		c-0.4,0.2-0.8,0.5-1.1,0.8c-0.3,0.4-0.6,0.7-1,1.1s-0.6,0.8-0.9,1.2c-0.3,0.4-0.5,0.8-0.8,1.3c-0.4,0.9-0.8,1.8-1.1,2.8
		C25.5,22,25.2,23,24.9,23.9z"/>
	<path style="fill:#6EAD51;" d="M30.3,24.6c0,0,3.4-6.8,3.9-7.9s2.7-6.9-1.3-2.5s-5.2,10.7-5.2,10.7"/>
	<path style="fill:#385737;" d="M30.3,24.6c1-2.1,2-4.3,2.9-6.4c0.2-0.5,0.5-1.1,0.7-1.6s0.4-1.1,0.6-1.6c0.2-0.5,0.4-1.1,0.5-1.6
		c0-0.1,0-0.3,0-0.4c0-0.1,0-0.2-0.1-0.3h0h-0.1c-0.1,0.1-0.2,0.1-0.3,0.2c-0.5,0.3-0.9,0.7-1.3,1.1c-0.2,0.2-0.4,0.4-0.6,0.6
		L32.3,15L32,15.3c-0.2,0.2-0.4,0.4-0.5,0.7L31,16.7c-0.3,0.5-0.6,1-0.9,1.5c-0.6,1-1,2.1-1.5,3.2c-0.4,1.1-0.8,2.2-1,3.3
		c0.4-2.3,1.1-4.6,2.2-6.7c0.5-1.1,1.1-2.1,1.9-3c0.1-0.1,0.2-0.2,0.3-0.4l0.3-0.3c0.2-0.2,0.4-0.4,0.6-0.7c0.4-0.4,0.8-0.8,1.3-1.2
		c0.1-0.1,0.3-0.2,0.4-0.2c0.1,0,0.2-0.1,0.3-0.1c0.1,0,0.3,0,0.3,0.1c0.1,0.1,0.1,0.2,0.2,0.3c0,0.1,0,0.2,0,0.3c0,0.2,0,0.3,0,0.5
		c-0.1,0.6-0.2,1.2-0.5,1.7c-0.2,0.6-0.4,1.1-0.6,1.6s-0.5,1.1-0.8,1.6C32.5,20.4,31.4,22.5,30.3,24.6z"/>
	<path style="fill:#6EAD51;" d="M30.4,24.8c0,0,4.1-9.8,4.7-9.9s0,4.6-1.2,7S32,26.1,32,26.1"/>
	<path style="fill:#385737;" d="M30.4,24.8c0.7-1.8,1.4-3.6,2.1-5.3c0.4-0.9,0.8-1.8,1.2-2.6c0.2-0.4,0.4-0.9,0.7-1.3
		c0.1-0.2,0.2-0.4,0.4-0.6c0-0.1,0.1-0.1,0.2-0.2h0.1c0,0,0.1,0,0.1,0c0.1,0,0.2,0,0.2,0.1c0.1,0.1,0.1,0.2,0.2,0.3
		c0,0.1,0,0.1,0,0.2c0.1,0.5,0.1,1,0,1.5c-0.1,0.5-0.1,1-0.2,1.4c-0.2,0.9-0.4,1.9-0.8,2.8c-0.2,0.5-0.4,0.9-0.6,1.3l-0.6,1.3
		c-0.4,0.9-0.8,1.7-1.2,2.6c0.3-0.9,0.7-1.8,1-2.7c0.2-0.4,0.4-0.9,0.6-1.3c0.1-0.2,0.2-0.4,0.3-0.6s0.2-0.4,0.2-0.7
		c0.3-0.9,0.6-1.9,0.7-2.9c0.1-0.5,0.2-0.9,0.2-1.4c0-0.5,0-0.9,0-1.4c0,0,0-0.1,0-0.1c0,0,0-0.1,0-0.1c0,0,0,0,0.1,0l0,0L35,15.1
		c-0.1,0.2-0.3,0.4-0.4,0.6c-0.2,0.4-0.4,0.8-0.7,1.3c-0.4,0.9-0.8,1.7-1.2,2.6L30.4,24.8z"/>
	<path style="fill:#A2C86A;" d="M23.7,24.2c-0.3-2.1-0.1-4.3,0.6-6.4c1.3-3.3,2.8-4.4,3.3-4.3s-1.9,2.4-2.5,5.3
		c-0.4,1.8-0.6,3.6-0.7,5.4"/>
	<path style="fill:#A2C86A;" d="M25.1,24c0.4-1.8,1-3.5,1.6-5.2c1-1.9,2.2-3.5,3.7-5c0.4-0.1,0.7,0.2,0.4,0.6s-3.3,4.4-3.5,5.3
		S26.3,24,26.3,24"/>
	<path style="fill:#A2C86A;" d="M27.9,25c0.1-1.4,0.4-2.8,0.9-4.1c0.8-2,1.8-3.9,3-5.7c0.6-0.7,2.4-2.8,2.7-2.7s-1.4,2.6-2,3.6
		c-0.8,1.2-1.5,2.5-2,3.8c-0.6,1.7-1,3.4-1.2,5.1"/>
	<path style="fill:#A2C86A;" d="M30.2,25.3c0,0,1.2-3,1.6-3.9c0.4-0.9,2.8-6.3,3.2-6.5S32.7,21,32.4,22s-1.3,3.8-1.3,3.8"/>
	<path style="fill:#377845;" d="M23.7,24.6c-0.1-0.5-0.2-1-0.2-1.5c0-0.5,0-1,0-1.5c0-1,0.2-2,0.5-3c0.3-0.9,0.6-1.9,1.1-2.7
		c0.2-0.5,0.5-0.9,0.8-1.3c0.3-0.4,0.7-0.8,1.1-1.1c0.1-0.1,0.3-0.1,0.4-0.1c0.1,0,0.2,0,0.2,0c0.1,0,0.2,0,0.2,0.1
		c0.1,0,0.1,0.1,0.2,0.1c0.1,0.1,0.1,0.1,0.2,0.2c0.1,0.1,0.1,0.2,0.1,0.3c0,0.1,0,0.2,0,0.2c0,0.3-0.1,0.5-0.1,0.8
		c-0.1,0.3-0.2,0.5-0.3,0.7c-0.4,0.9-0.8,1.8-1.2,2.7c-0.2,0.5-0.4,0.9-0.6,1.4c-0.2,0.4-0.3,0.9-0.5,1.4c0,0.2-0.1,0.5-0.1,0.7
		l-0.1,0.7l-0.2,1.5v-0.7v-0.7v-0.7c0-0.3,0-0.5,0-0.8c0.1-0.5,0.2-1,0.4-1.5c0.2-0.5,0.4-0.9,0.5-1.4c0.4-0.9,0.8-1.8,1.1-2.7
		c0.1-0.2,0.2-0.5,0.2-0.7c0.1-0.2,0.1-0.4,0.1-0.7c0-0.1,0-0.2,0-0.2c0,0-0.1-0.1-0.1-0.1c0,0-0.1-0.1-0.1-0.1
		c-0.2,0-0.4,0-0.5,0.1c-0.4,0.3-0.7,0.6-1,1c-0.3,0.4-0.5,0.8-0.8,1.2c-0.5,0.9-0.9,1.8-1.2,2.7c-0.3,0.9-0.5,1.9-0.6,2.9
		C23.4,22.6,23.5,23.6,23.7,24.6z"/>
	<path style="fill:#377845;" d="M24.9,23.9c0.4-2,1-3.9,1.8-5.8c0.2-0.5,0.5-0.9,0.8-1.3c0.3-0.4,0.6-0.8,0.9-1.2
		c0.3-0.4,0.6-0.8,1-1.2c0.4-0.4,0.8-0.7,1.3-0.9h0.2c0.1,0,0.2,0,0.2,0c0.1,0,0.2,0,0.2,0h0.1l0.1,0.1c0.2,0.1,0.3,0.3,0.3,0.4
		c0,0.1,0,0.3,0,0.4c-0.1,0.5-0.3,1-0.5,1.5c-0.4,0.9-1,1.8-1.4,2.7l-0.7,1.3c-0.2,0.5-0.5,0.9-0.6,1.4c-0.2,0.5-0.4,0.9-0.5,1.4
		c-0.1,0.2-0.1,0.5-0.2,0.7l-0.1,0.4c0,0.1,0,0.1,0,0.2l0,0l0,0l0,0v-0.1c0,0,0,0.1,0,0.1l0,0l0,0l0,0c0,0,0-0.1,0-0.2v-0.4
		c0-0.3,0.1-0.5,0.1-0.7c0.1-0.5,0.3-1,0.4-1.5c0.2-0.5,0.4-0.9,0.6-1.4s0.4-0.9,0.6-1.4c0.4-0.9,0.9-1.8,1.4-2.7
		c0.2-0.4,0.4-0.9,0.5-1.4c0-0.1,0-0.2,0-0.3c0-0.1,0-0.1-0.1-0.2c0,0-0.1,0-0.1,0c0,0-0.1,0-0.1,0c0,0-0.1,0-0.1,0h-0.1
		c-0.4,0.2-0.8,0.5-1.1,0.8c-0.3,0.4-0.6,0.7-1,1.1s-0.6,0.8-0.9,1.2c-0.3,0.4-0.5,0.8-0.8,1.3c-0.4,0.9-0.8,1.8-1.1,2.8
		C25.5,22,25.2,23,24.9,23.9z"/>
	<path style="fill:#377845;" d="M27.6,24.8c0.4-2.3,1.1-4.6,2.2-6.7c0.5-1.1,1.1-2.1,1.9-3c0.1-0.1,0.2-0.2,0.3-0.4l0.3-0.3
		c0.2-0.2,0.4-0.4,0.6-0.7c0.4-0.4,0.8-0.8,1.3-1.2c0.1-0.1,0.3-0.2,0.4-0.2c0.1,0,0.2-0.1,0.3-0.1c0.1,0,0.3,0,0.3,0.1
		c0.1,0.1,0.1,0.2,0.2,0.3c0,0.1,0,0.2,0,0.3c0,0.2,0,0.3,0,0.5c-0.1,0.6-0.2,1.2-0.5,1.7c-0.2,0.6-0.4,1.1-0.6,1.6
		s-0.5,1.1-0.8,1.6c-1,2.1-2.1,4.2-3.3,6.2c1-2.1,2-4.3,3-6.4c0.2-0.5,0.5-1.1,0.7-1.6s0.4-1.1,0.6-1.6c0.2-0.5,0.4-1.1,0.5-1.6
		c0-0.1,0-0.3,0-0.4c0-0.1,0-0.2-0.1-0.3h0h-0.1c-0.1,0.1-0.2,0.1-0.3,0.2c-0.5,0.3-0.9,0.7-1.3,1.1c-0.2,0.2-0.4,0.4-0.6,0.6
		L32.3,15L32,15.3c-0.2,0.2-0.4,0.4-0.5,0.7L31,16.7c-0.3,0.5-0.6,1-0.9,1.5c-0.6,1-1,2.1-1.5,3.2C28.2,22.5,27.9,23.6,27.6,24.8z"
		/>
	<path style="fill:#377845;" d="M30.4,24.8c0.7-1.8,1.4-3.6,2.1-5.3c0.4-0.9,0.8-1.8,1.2-2.6c0.2-0.4,0.4-0.9,0.7-1.3
		c0.1-0.2,0.2-0.4,0.4-0.6c0-0.1,0.1-0.1,0.2-0.2h0.1c0,0,0.1,0,0.1,0c0.1,0,0.2,0,0.2,0.1c0.1,0.1,0.1,0.2,0.2,0.3
		c0,0.1,0,0.1,0,0.2c0.1,0.5,0.1,1,0,1.5c-0.1,0.5-0.1,1-0.2,1.4c-0.2,0.9-0.4,1.9-0.8,2.8c-0.2,0.5-0.4,0.9-0.6,1.3l-0.6,1.3
		c-0.4,0.9-0.8,1.7-1.2,2.6c0.3-0.9,0.7-1.8,1-2.7c0.2-0.4,0.4-0.9,0.6-1.3c0.1-0.2,0.2-0.4,0.3-0.6s0.2-0.4,0.2-0.7
		c0.3-0.9,0.6-1.9,0.7-2.9c0.1-0.5,0.2-0.9,0.2-1.4c0-0.5,0-0.9,0-1.4c0,0,0-0.1,0-0.1c0,0,0-0.1,0-0.1c0,0,0,0,0.1,0l0,0L35,15.1
		c-0.1,0.2-0.3,0.4-0.4,0.6c-0.2,0.4-0.4,0.8-0.7,1.3c-0.4,0.9-0.8,1.7-1.2,2.6L30.4,24.8z"/>
	<path style="fill:#B39F7D;" d="M24,56.8l-4.3,2.9c0,0-1.7,1,0.1,1s14.7,0,14.7,0s0.8-0.2-0.1-0.7s-4.9-3.1-4.9-3.1v-5
		c-1.7,0.8-3.8,0.8-5.5-0.2C24.2,54.6,24,56.8,24,56.8z"/>
	<path style="fill:#A49568;" d="M28.9,52.6c0.2-0.1,0.5-0.2,0.7-0.3c0-0.6,0-1.3,0-1.3s-4.8,0.5-5.6,0.4c0,0.4,0,0.6,0,0.6
		C25.5,53,27.3,53.2,28.9,52.6z"/>
	<path style="fill:#A49568;" d="M28.6,53.1V56c0,0,0,0.6-0.5,0.5s-0.5-0.2-0.6-2.8c0-0.8,0-1.6,0-1.6S28.7,51.3,28.6,53.1z"/>
	<path style="fill:#ECE3C3;" d="M25.7,56.8c-0.1,0,0-2.8,0-2.8s-0.1-0.6-0.5-0.5s-0.4,0.5-0.4,1s0,2.4,0,2.4l-4.1,3
		c0,0-0.2,0.4,0.6,0.4s6.4,0,7.5,0s1.9-0.4,0-0.4s-4.5-0.1-4.9-0.2s-1-0.3-0.4-0.8S25.7,56.8,25.7,56.8z"/>
	<path style="fill:#ECE3C3;" d="M28.4,24.3c0,0-0.5-1.7-1.4-1.5c-1.1,0.3-2,1.2-2.2,2.3c0-0.6-0.1-1.1-0.6-1.2s-1,1.1-1.3,1.7
		s-0.5,3-1.9,3.6s-3.8,1-4.6,1.9c-0.5,0.6-0.7,1.3-0.5,2.1c-0.7,1.1-1.4,2.3-1.9,3.6c-0.1,0.5,0.3,0.4-0.3,1.2s-0.3,4.9,0.6,6.4
		c0.3,0.4,0.4,0.2,0.5,0.5S14.5,45.6,15,46c-0.3,1.4,0.3,2.8,1.5,3.6c1.9,0.8,3.9,1.3,6,1.6c1.4,0.3,2.9,0.5,4.3,0.5
		c0.5-0.2,0.5-0.1,1.2-0.2c1.4-0.3,2.9-0.7,4.2-1.2c0.3-0.2,0.4-0.6,1-0.6c1.8-0.8,3.4-2.1,4.6-3.8c1.4-0.2,2.6-1.1,3.3-2.3
		c1.2-1.8,1.7-6.2,0-8.2s-3-2.2-3.5-2.3c-0.4-0.8-0.7-1.9-3.8-2.9c-0.8-0.7-1.3-1.7-1.4-2.8c-0.2-1.4-0.2-2.6-1.3-2.4
		c0-0.9,0.1-2.4-1-2c-0.7,0.3-1.3,0.7-1.8,1.3L28.4,24.3z"/>
	<path style="fill:#F0EDE8;" d="M26.7,24.6c0.1-0.2,0.2-0.4,0.4-0.6c0.2-0.3,0.1-0.6-0.1-0.8c0,0,0,0-0.1,0c-0.3-0.1-1,0.1-1.9,1.2
		c-0.3,0.8-0.8,3.1-0.9,3.6c-0.3,1.3-0.7,2.5-1.4,3.6c-0.7,1-0.9,1.1-0.9,1.1s2.2-0.1,2.9-1.7S26.4,25.1,26.7,24.6z"/>
	<path style="fill:#F0EDE8;" d="M28.5,24.7c0,0,0.5-0.7,1-0.5s0,1.4,0,1.8c-0.1,1.2-0.2,2.4-0.1,3.6c0.1,0.8-0.5,1.8-0.8,1.8
		s-0.6-2-0.5-2.6S28.5,25.2,28.5,24.7z"/>
	<path style="fill:#F0EDE8;" d="M24.4,24.6c-0.3,0.4-0.4,0.9-0.6,1.3c-0.1,0.6-0.4,2.9-1.9,3.8c0.5,0.1,1.1,0.4,0.8,0.8
		s-1-0.2-1.9,0s-3.1,0.3-3.7,1.5c-0.1,0.5,0.1,1.1,0.6,1.4c0.5,0.3,0.7,0.9,0.2,0.9s-2-0.5-2.4,0.5c-0.2,1,0.5,1.3,0.6,1.5
		c-0.2,1.8,0.1,3.6,0.9,5.2c0.8,1.5,1.2,2.3,1,2.6s-2.1-0.7-2.4-2.3c-0.3-1.6-0.4-3.2-0.4-4.8c0.1-0.6,0-1.1-0.2-1.7
		c-0.3-0.9,0.3-1.9,1.2-2.2c0,0,0.1,0,0.1,0c-0.2-0.7-0.4-1.9,0.5-2.2s3-1,3.6-1.3c0.9-0.3,1.6-1.1,1.9-2c0.4-1.3,0.6-2.6,1.3-3.3
		C24,24.1,24.6,24.3,24.4,24.6z"/>
	<path style="fill:#F0EDE8;" d="M19.4,34.8c0,0-0.6-0.5,0.3-0.8s2.6-0.7,3.2-0.9c1.4-0.4,2.8-0.5,4.2-0.2c0.9,0.1,0.7,0.7,0.4,0.7
		c-1.3-0.1-2.7-0.1-4,0.2C22.2,34.2,20.8,34.6,19.4,34.8z"/>
	<path style="fill:#A49568;" d="M30.3,30.7c-0.2,0.1-0.8,0.3-0.4,0.5s1.6-0.1,2-0.1s0.9,0,1.1,0s0.5-0.2-0.1-0.2
		C32.1,30.7,31.2,30.6,30.3,30.7z"/>
	<path style="fill:#F0EDE8;" d="M17.5,40.6c0,0-0.9-1.9-0.2,0.4c0.7,1.6,1.9,2.8,3.5,3.6c2,0.9,4.2,1.3,6.4,1
		c1.2-0.1,2.4-0.5,3.5-1.2c0.4-0.3,0.1-0.8-0.5-0.6c-1.5,0.7-3.2,1-4.9,1c-2.4-0.2-4-0.4-5.8-1.7C18.7,42.3,18,41.5,17.5,40.6z"/>
	<path style="fill:#F0EDE8;" d="M16.4,47c-0.1,0-0.9-0.2-0.3,0.4c0.9,0.7,2.1,0.9,3.1,0.4c0.7-0.5,1.3-1.2,1.7-2
		c0.1-0.3,0.1-0.6-0.2-0.3s-0.4,1.2-1.8,1.9C18,47.6,17.1,47.5,16.4,47z"/>
	<path style="fill:#F0EDE8;" d="M21.9,47.5c0.1,0,1.9,0,2.1,0s0.7,0.3,0,0.5S21.4,47.6,21.9,47.5z"/>
	<path style="fill:#CBBB96;" d="M18,31.8c0,0-1,0.4-0.5,0.9s0.7,0.7,1.7,0.4s2.8-1,2.9-1.1s0.6-0.6-0.2-0.9
		C20.6,31,19.2,31.2,18,31.8z"/>
	<path style="fill:#D3C39D;" d="M29.2,23.7c0,0-0.2,0.3,0.2,0.3s0.6-0.1,0.6,0.6s-1,4.8-0.1,5.8c0.6-0.1,1.2-0.2,1.8-0.1
		c-0.6-0.6-1.2-0.8-1-1.8s0.5-4.1,0.2-4.7S30,23.3,29.2,23.7z"/>
	<path style="fill:#CBBB96;" d="M35.2,31.7c-1.1-0.8-2.6-0.9-3.8-0.3c-0.1,0-0.1,0.2,0.3,0.2c1,0.2,2,0.5,2.9,0.9
		C34.9,32.8,35.5,32.2,35.2,31.7z"/>
	<path style="fill:#CBBB96;" d="M34,33.5c-0.9-0.3-1.8-0.5-2.8-0.8c-0.5,0-1,0.4-1,0.9c0,0.4,0.4,0.5,1.2,0.8
		c1.2,0.3,2.5,0.5,3.8,0.7c0.4,0,0.4-0.7,0.2-0.8s-0.3,0.1-0.6,0.2s-1,0.2-1.2-0.2S33.3,33.8,34,33.5z"/>
	<path style="fill:#CBBB96;" d="M28.9,33.5c0,0-4.5-0.3-5.4,0.2c-1.1,0.4-4.8,1.4-5.7,1.2s-1.4-0.7-1.8-0.1s0.3,0.8,0.3,0.8
		s-0.1,2.8,0.7,3.4c0-0.4,0-0.8-0.2-1.1c-0.1-0.4-0.3-2.3,0.2-2.4c1.1,0,2.2-0.1,3.3-0.4c1.2-0.4,2.5-0.7,3.7-1
		c1.1-0.1,2.3-0.1,3.4,0C28,34.3,29.1,34.1,28.9,33.5z"/>
	<path style="fill:#D3C39D;" d="M13.6,41.7c0-0.1,0.3-1,0.4-0.1s1,3.1,2.2,3.7s1.8,1.1,2.2,0.9c0.5-0.5,0.6-1.2,0.3-1.8
		c-0.3-0.6-0.6-1.2-0.7-1.8c0-0.1,0.1-0.3,0.3,0c0.9,1.1,2.1,2,3.5,2.5c0.4,0.5,0.8,1.1,0.4,1.4s-0.7-0.9-1-1s-0.7-0.3-0.9,0.4
		s-1.7,1.9-2.3,1.7c-1.1-0.2-2.2-0.7-2.9-1.5c-0.2-0.2-0.3-0.3-0.3-1.1c-0.1-0.3-0.4-0.2-0.5-0.5C13.9,43.5,13.7,42.6,13.6,41.7z"/>
	<path style="fill:#B39F7D;" d="M15.1,47.4c0-0.1,2,2.4,4.6,2.6c1.2,0.2,2.4,0.1,3.5-0.2c0,0,1.8-0.1,1.6,0.2
		c-0.1,0.2-0.3,0.3-0.5,0.4c0,0,0.9,0.1,0.2,0.4c-0.7,0.2-1.5,0.4-2.3,0.4c-2.1-0.4-4.2-1-6.2-1.9C15.5,48.9,15.1,48.2,15.1,47.4z"
		/>
	<path style="fill:#D3C39D;" d="M34.8,40.7c-0.8,1.1-1.7,2.1-2.8,3c-1.1,0.9-1.2,1.6-1.1,2s1.4,2.7,0.2,3.7s2.9-0.8,3.4-1.5
		S36.3,39.3,34.8,40.7z"/>
	<path style="fill:#B39F7D;" d="M37.2,33.1c-0.6-0.6-1.2-1.1-2-1.4c0,0.3,0.3,0.7-0.5,0.9c0.3,0.3,0.5,0.5,0.6,0.7
		C36,33.1,36.6,33,37.2,33.1z"/>
	<path style="fill:#B39F7D;" d="M38.3,35.3c0.7,1.4,1,2.9,0.9,4.5c-0.3,2.2-0.5,3.4-0.9,3.8c0.2,0.8,0,1.7-0.5,2.4
		c1.6-0.8,3.4-2,4-5.8c0.2-2.9-0.8-5.3-3.6-6.7c-0.8-0.2-0.8-0.1-0.5,0.3S38.4,34.8,38.3,35.3z"/>
	<path style="fill:#CBBB96;" d="M33.8,32.5c0.4,0.2,0.5,0.7,0.3,1c0,0,0,0,0,0c-0.3,0.1-0.8,0-0.8,0.6s0.7,0.9,1.4,0.7
		s0.8,0.4,1.1,0.6c0.2,0.1,0.3,0.1,0.5,0.2c0,0-0.2,0.5,0.6,0.6s1.2,0.2,1.4,0s0.5-0.4,0.1-0.8c0-0.4,0.5-0.9,0-1.3
		s-0.7-0.8-1.1-0.7s-1.3-0.3-2,0C34.8,32.8,33.5,32.1,33.8,32.5z"/>
	<path style="fill:#D3C39D;" d="M35.7,35.3c0.3,2.2-0.2,4.3-1.4,6.1c0,0.8,0.3,6.4,0.3,6.4c0.5-0.2,0.9-0.6,1.2-1.1
		c0.3-0.2,0.9,0.3,0.2,1.3c1-0.9,2.8-2.3,2.4-4.4c0.7-1.6,1-3.4,0.9-5.1c-0.1-0.9-0.4-1.9-0.8-2.8C37.5,35.7,36.6,35.6,35.7,35.3z"
		/>
	<path style="fill:#B39F7D;" d="M37.8,36.2c0.3,1.8,0.4,3.7,0.1,5.5c-0.4,2-0.6,2.4-0.8,2.7s-0.3-0.8-0.1-1.8c0.2-1-0.2-2-1-2.6
		c-0.3-0.3-0.2-0.5-0.1-0.9c0.1-1,0.2-2.1,0.1-3.2c-0.1-0.2-0.1-0.3-0.1-0.5C35.9,35.4,37.8,35.9,37.8,36.2z"/>
	<path style="fill:#D3C39D;" d="M22.4,46.2c0.8,0.1,1.5,0.3,2.2,0.5c0.6,0.3,1.1,0.9,0.9,1.4s-0.4,0.8-0.4,0.8s0.7,0.6,1,0.9
		c0.8,0,3.9,0.3,6-1c0.5-0.3,0.4,0.2,0,0.5c-1.9,1-4,1.5-6.1,1.6c-0.2,0-0.4,0-0.7-0.1c0.2-0.6-0.2-1.2-0.8-1.4c-0.1,0-0.2,0-0.3,0
		c-0.3-0.5-0.1-0.6,0.2-0.8s0.8-1.3-0.8-1.6C22.6,46.8,21.5,46.8,22.4,46.2z"/>
	<path style="fill:#B39F7D;" d="M24.8,47.2c0,0,0.6,1.3-0.4,1.8c0.5,0.2,0.9,0.6,1.1,1.1c0.1,0.4,0.2,1-2.1,1.3l-0.9-0.2
		c0.4-0.4,0.8-0.6,1.3-0.8c0.6,0,1.1-0.2,1.1-0.4s-0.4-0.5-1.1-0.6s-1.3,0-1-0.4s0.5-0.3,0.9-0.6s0.7-0.3,0.7-0.6s0.1-0.6-0.5-0.6
		c-0.6,0.1-1.2,0.1-1.9,0c-0.5-0.2-0.7-0.2-0.7-0.7c0-0.3,0-0.7,0.1-1c0,0,0-0.5,0.3-0.3s0.1,1.2,0.6,1.1
		C23.2,46.4,24.1,46.7,24.8,47.2z"/>
	<path style="fill:#B39F7D;" d="M33.7,30.3c0,0-1.5-0.2-2-0.1c-0.7-0.4-1.1-1.1-0.9-1.9c0.1-1,0.5-3.1,0.5-3.1s0.9-0.1,1,1.8
		c0.2,1.3,0.8,2.4,1.7,3.4L33.7,30.3z"/>
	<path style="fill:#A49568;" d="M16.9,35.8c-0.2,2.1,0.3,4.2,1.6,5.9c1.7,2,4.7,3.2,8.6,2.7c3.3-1,5.8-2.4,7-5
		c0.4-1.1,0.5-2.3,0.5-3.4c-0.8,0-5-0.7-5-0.7s-11.4,0.1-11.4,0.3S16.9,35.1,16.9,35.8z"/>
	<path style="fill:#FFFFFF;" d="M19.9,38.8c0.1,0.1-1.8,2-1.8,2.2c1.4,2.2,3.8,3.5,6.4,3.5c2.9,0,5.5-0.3,8.4-3
		c-0.5-0.9-1.1-1.7-1.8-2.4c0.8-0.8,1.5-1.7,1.9-2.8C32.2,36.1,27,35,27,35c-2.1-0.1-4.2,0.1-6.2,0.6c-0.9,0.1-1.7,0.2-2.6,0.2
		C18.5,36.9,19.1,37.9,19.9,38.8z"/>
	<path style="fill:#DCD7C5;" d="M26,38.8c0.1,0,0.9,0,1.3,0s1.2-0.1,0.5-0.4c-2.6-0.3-5.3-0.2-7.8,0.4c-0.5,0.6-0.8,1-0.8,1
		C21.3,39,23.6,38.7,26,38.8z"/>
	<path style="fill:#DCD7C5;" d="M33.7,36.1c-0.5,1.3-1.3,2.4-2.3,3.2c0.6,0.6,1.2,1.2,1.6,1.9c-0.1,0.2-0.2,0.3-0.4,0.4
		c-0.5-0.8-1.1-1.5-1.9-2.1c-0.3-0.4-0.2-0.6,0.1-0.8c0.6-0.6,1.1-1.3,1.6-2c0.1-0.2,0.2-0.3-0.3-0.4s-4.6-0.9-5.1-0.9
		c-1.6,0-3.1,0.1-4.6,0.4c-1.4,0.3-2.8,0.4-4.2,0.3c0-0.1-0.1-0.4-0.1-0.4c1.1,0,2.1-0.2,3.2-0.5c1.7-0.6,3.5-0.9,5.2-0.8
		c1.6,0.3,3.2,0.8,4.8,1.3C32.1,35.8,32.9,36,33.7,36.1z"/>
	<path style="fill:#A49568;" d="M25.9,34.7c0,0,0-0.5-0.1,0c-0.2,1.2-0.3,2.5-0.3,3.8c0.2-0.1,0.3-0.3,0.3-1.2
		C25.8,36.3,25.8,35.5,25.9,34.7z"/>
	<path style="fill:#A49568;" d="M27.2,22.7c0.5,0,0.9,0.3,1.1,0.7c0.3,0.6,0.3,1.3,0.2,1.9c-0.1,0.5-0.1-0.1-0.1-0.5s0.1-0.5,0-0.8
		s-0.5-1.1-1-1.2S27.1,22.7,27.2,22.7z"/>
	<path style="fill:#A49568;" d="M23.3,24.9c0-0.5,0.3-0.9,0.7-1.1c0.4-0.1,0.8,0,1,0.4c0.4-0.5,0.8-0.9,1.3-1.2c0.2-0.1,0.3,0,0,0.2
		c-0.8,0.5-1.4,1.3-1.5,2.2c0-0.8,0-1.3-0.6-1.4C23.9,24,23.4,24.7,23.3,24.9z"/>
	<path style="fill:#A49568;" d="M29.5,23.5c0,0-0.5,0.2-0.4,0.4c0.1,0.1,0.3-0.2,0.7-0.4s0.5-0.3,0.7-0.2s0.4,0.1,0.5,1.5
		s0.1,3.5,0.5,4.1c0.2,0.5,0.5,0.8,1,1c0.5,0.2,1,0.5,1,1.1c0,0.3,0.1,0.6,0.2,0.4c0.2-0.6,0-1.2-0.6-1.5c0,0,0,0,0,0
		c-0.8-0.5-1.3-0.5-1.5-1.6s-0.3-2.9-0.3-3s0.1-0.3,0.2-0.1c0.2,0.4,0.3,0.8,0.4,1.3c0.1,0.6,0.3,1.2,0.5,1.8
		c0.1,0.2,0.3,0.4,0.4,0.6c-0.2-0.5-0.4-1-0.5-1.5c0-0.5-0.1-2-0.6-2.3s-0.7-0.1-0.7-0.1s0.3-1.6-0.3-1.9C30.6,23,30.3,23,29.5,23.5
		z"/>
	<path style="fill:#A49568;" d="M20,29.8l0.7-0.3c0,0,1.6-0.1,2,0.3c0.2,0.1,0.4,0.3,0.2,0.3c-0.6-0.2-1.3-0.3-1.9-0.3
		C20.6,29.8,20.3,29.8,20,29.8z"/>
	<path style="fill:#A49568;" d="M18.8,31.3c0,0-0.5,0.2-0.5,0.5c0.1,0,0.1,0,0.3-0.1c0.7-0.3,1.4-0.4,2.2-0.5c0.6,0,0.9,0,1-0.1
		s0.3-0.2,0.1-0.3C20.8,30.8,19.7,30.9,18.8,31.3z"/>
	<path style="fill:#272A24;" d="M18.5,32c0,0-0.3,0.1-0.4,0.5s0.1,0.2,0.4,0c0.6-0.3,1.2-0.6,1.9-0.8c0.3-0.1,0.8-0.3,1.1-0.3
		s0.5,0,0.5-0.1s0.2-0.4-0.1-0.5C20.7,31.1,19.6,31.5,18.5,32z"/>
	<path style="fill:#A49568;" d="M21.2,34.8c0,0,0.2,0,0.1-0.1s-0.3-0.2-0.3-0.4c0.1-0.5,0.3-0.9,0.7-1.2c0.9-1,1.6-2.1,2.1-3.4
		c0.3-0.9,0.5-1.6,0.5-1.6c-0.2,0.2-0.4,0.5-0.5,0.8c-0.3,1.1-0.8,2.1-1.4,3c-0.7,0.9-1.7,0.9-1.7,2.1c0,0.5,0,0.5,0.3,0.7
		S21.2,34.8,21.2,34.8z"/>
	<path style="fill:#A49568;" d="M28.2,25.2c0,0-0.7,4.3-0.4,5.6c0.2,0.7,0.5,1.4,0.9,2c0.3,0.4,0.4,1,0.3,1.5
		c-0.1,0.2,0,0.3,0.2,0.2c0.3-0.5,0.3-1.1,0-1.6c-0.5-0.6-0.8-1.3-1-2C28,30,27.9,29.1,28,28.3c0.1-1,0.4-2.8,0.4-3
		S28.3,24.6,28.2,25.2z"/>
	<path style="fill:#272A24;" d="M31.6,31.7c0.2,0.1,0.5,0.2,0.7,0.3c0.7,0.2,1.4,0.5,2,0.9c0.1,0.1,0.3,0.2,0.5,0.3
		c0,0,0.6,0.2,0.3-0.2s-0.8-0.7-0.8-0.7s0.7,0.3,0.9,0.4s0.7,0.3,0.3-0.1c-0.6-0.5-1.4-0.9-2.2-1C32.2,31.5,31.5,31.4,31.6,31.7z"/>
	<path style="fill:#A49568;" d="M33.5,32.6c0,0,0.3,0.6,0,1s-0.5,0.3-0.3,0.8s0.4,0.9,0.3,1.3c0.2,0.1,0.3,0,0.3-0.1
		c0-0.3-0.1-0.6-0.2-0.9c-0.1-0.1-0.3-0.8,0-1c0.2-0.2,0.3-0.5,0.3-0.8C33.8,32.6,33.4,32.3,33.5,32.6z"/>
	<path style="fill:#A49568;" d="M14.1,37.1c0.1-0.1,0.2-0.2,0.3-0.2c0.2,0,0.4-0.1,0.6-0.1c0.2-0.1,0.4-0.1,0.5-0.3s0.2-0.3,0.4-0.4
		s0.4-0.2,0.5-0.1s0.1,0.2,0,0.3c-0.2,0-0.3,0.1-0.4,0.2c-0.1,0.1-0.2,0.4-0.4,0.5c-0.2,0.1-0.4,0.2-0.6,0.3c-0.4,0-0.4,0.1-0.6,0.2
		S14.1,37.2,14.1,37.1z"/>
	<path style="fill:#A49568;" d="M16.6,37.7c0,0-0.5,0-0.6,0.7c0,0.7-0.3,1.4-0.8,1.9c-0.6,0.8-0.9,1.8-0.9,2.8c0,1,0,1.5,0.1,1.4
		c0.1-0.4,0.2-0.8,0.1-1.2c0-0.8,0.2-1.6,0.6-2.3c0.4-0.4,0.7-0.9,0.9-1.4c0.1-0.5,0.2-0.9,0.3-1.4c0-0.1,0.1-0.1,0.2-0.2
		C16.6,38.1,16.8,37.8,16.6,37.7z"/>
	<path style="fill:#A49568;" d="M18,41.6c0,0-0.5,0.1-0.4,0.8s0.5,0.8,0.4,1.8s0,2.3,0.4,2.6c0.1,0,0-0.1,0-0.3
		c-0.1-0.6-0.1-1.3-0.1-1.9c0-0.4,0.1-1.2,0-1.3s-0.4-0.7-0.3-1s0.2-0.4,0.3-0.3S18.2,41.6,18,41.6z"/>
	<path style="fill:#A49568;" d="M22.9,44.5c0,0-0.3,0-0.4,0.5c0,0.3,0,0.7,0.2,1c0.1,0.3,0.2,0.7,0.2,1c0,0.1,0.1,0.2,0.1,0.1
		c0-0.4,0-0.7-0.1-1.1c-0.1-0.3-0.1-0.7,0-1C23.1,44.7,23.1,44.6,22.9,44.5z"/>
	<path style="fill:#A49568;" d="M29.4,43.8c0,0-0.4,0.3-0.2,0.4s0.5-0.2,0.6,0.1c0.1,0.4,0,0.9-0.2,1.3c0,0.5,0,1.1,0,1.6
		c0.1,0.7,0,1.4-0.2,2.2c-0.2,0.5-0.5,1.1-0.9,1.6c0,0.1,0,0.2,0.2,0c0.7-0.7,1.1-1.6,1.1-2.6c-0.1-0.9-0.1-1.7,0-2.6
		c0.2-0.3,0.3-0.6,0.3-0.9C30.2,44.5,30.3,43.7,29.4,43.8z"/>
	<path style="fill:#A49568;" d="M33.1,41.4c0,0,0-0.3,0.3-0.3s0.6,0.5,0.4,1.3c0,0.7,0.2,1.5,0.4,2.2c0.2,1,0.1,2.1-0.1,3.1
		c-0.1,0.8-0.4,1.5-0.9,2.1c-0.1,0-0.2,0-0.3,0c0.5-0.8,0.9-1.7,0.9-2.6c0.2-1.2,0.1-2.5-0.2-3.6c-0.1-0.6-0.2-1.1-0.1-1.7
		c0-0.2-0.1-0.4-0.4-0.4C33.2,41.4,33.2,41.4,33.1,41.4z"/>
	<path style="fill:#A49568;" d="M34.8,37.4c0,0,0.3-0.2,0.6,0.3s0.2,0.6,0.8,0.8c0.8,0.4,1.4,1.1,1.7,1.9c0.2,0.7,0.4,1.4,0.4,2.1
		c0,0.5,0.1,0.7,0,0.8s-0.1-0.5-0.2-0.8s-0.2-2.2-1.4-3.2c-0.7-0.5-0.8-0.6-1-0.7c-0.3-0.1-0.5-0.3-0.5-0.6
		c-0.1-0.2-0.3-0.3-0.5-0.2S34.7,37.4,34.8,37.4z"/>
	<path style="fill:#F0EDE8;" d="M18,41.6c0,0,0.1-0.2,0-0.2s-0.4,0.1-0.4,0.6c-0.1,0.5,0,1,0.3,1.5c0.1,0.5,0,1.7,0.1,1.9
		c0,0.5,0.1,1,0.3,1.5c0.1,0.3,0.2,0.3,0.3,0.3s0.1-0.1,0-0.3C18.2,46.3,18,45.7,18,45c0-0.9,0.2-1.5-0.1-1.9
		c-0.2-0.5-0.3-1-0.1-1.2C17.8,41.8,17.9,41.7,18,41.6z"/>
	<path style="fill:#F0EDE8;" d="M22.5,45.3c0,0-0.2-0.3-0.3-0.1c0,0.4,0.1,0.8,0.1,1.2c0,0.3,0,0.5,0.1,0.8c0.1,0.1,0.2,0.1,0.3,0
		s0-0.2-0.1-0.5c0-0.2,0-0.4,0-0.6C22.6,45.8,22.6,45.5,22.5,45.3z"/>
	<path style="fill:#F0EDE8;" d="M29.6,44.8c0,0-0.2,0.5-0.4,0.6s0,1.1,0,1.4c0.2,0.8,0,1.7-0.4,2.5c-0.7,1.1-0.9,1.4-0.8,1.4
		s0.3-0.1,0.4-0.2c0.3-0.4,0.6-0.9,0.8-1.4c0.3-0.8,0.4-1.8,0.2-2.6c0-0.7-0.2-0.8,0.1-1S30,44.5,29.6,44.8z"/>
	<path style="fill:#F0EDE8;" d="M33.1,41.5c0,0-0.3,0.2-0.1,0.2s0.4,0.9,0.3,1.4s0.4,0.8,0.4,1.2c0.1,1.1,0.1,2.1-0.2,3.2
		c-0.4,1.3-0.5,1.3-0.4,1.5s0.2,0.1,0.3-0.1c0.4-0.7,0.6-1.5,0.7-2.3c0.1-1.1,0-2.1-0.3-3.1c-0.1-0.4-0.1-0.9-0.1-1.3
		C33.6,41.8,33.5,41.4,33.1,41.5z"/>
	<path style="fill:#A49568;" d="M17,47.2c0,0-0.6,0-0.2,0.3c0.6,0.2,1.2,0.2,1.8,0c0.4-0.1,0.8-0.3,1.1-0.6c0.3-0.4,0.6-0.8,1-1.2
		c0.2-0.1,0.5,0,0.5,0.5s-0.1,1.2,0.6,1.3s2.2-0.1,2.4,0.2c0,0.2,0,0.3-0.5,0.5s-1.2,0.7-1.1,1s0.8,0.6,1.3,0.6s0.9,0.2,0.8,0.3
		c-0.3,0.2-0.6,0.3-0.9,0.3c-0.3,0-1-0.3-0.9,0.2c0.1,0.1,0.6,0,0.7,0s1,0,0.9,0.1c-0.1,0.2-0.3,0.3-0.5,0.3c-0.2,0-2.1,0-2,0.3
		c0.8,0.1,1.6,0,2.4-0.1c0.3-0.1,0.5-0.2,0.5-0.4s-0.2-0.3-0.1-0.3s0.4-0.1,0.4-0.3s0.1-0.4-0.6-0.6s-1.7-0.3-1.5-0.5
		c0.4-0.3,0.8-0.6,1.3-0.8c0.2-0.1,0.4-0.3,0.3-0.6s-0.2-0.4-0.6-0.4c-0.7,0-1.3,0-2,0c-0.3-0.1-0.5-0.4-0.5-0.8
		c0-0.5-0.1-1.3-0.7-1.2s-0.5,0.5-0.8,0.8s-1,1.3-2,1.3S17,47.2,17,47.2z"/>
	<path style="fill:#A49568;" d="M38.3,43.7c0.1,0,0.4-0.2,0.5-0.4c0.3-1.1,0.5-2.3,0.7-3.5c0-1.1-0.1-2.1-0.3-3.2
		c-0.2-0.7-0.5-1.5-1-1.6s-1,0.1-0.9,0.3s0.4,0,0.6,0s0.5,0.1,0.4,0.3s0,0.3-0.5,0.3S37,36,36.8,35.8s-0.5-0.4-0.2-0.8
		s0.5-0.7,0.4-0.7s-0.3,0-0.5,0.3s-0.4,0.5-0.3,0.8c-0.2-0.1-0.6-0.3-0.6-0.6c0-0.3,0.2-0.7,0.5-0.8c0.2-0.1,0.3-0.3-0.1-0.2
		c-0.4,0.1-0.7,0.5-0.7,0.9c0,0.5,0.3,1,1,0.9c0,0.4,0.3,0.7,0.6,0.7c0.5,0.2,1.2,0.2,1.4,0c0.1-0.1,0.2-0.3,0.2-0.4
		c0.2,0.5,0.4,1.1,0.5,1.6c0.1,1.1,0.1,2.3,0,3.4C38.8,41.8,38.6,42.7,38.3,43.7z"/>
	<path style="fill:#A49568;" d="M34.9,34.3c0,0,0.2-0.3,0.3-0.2c0,0.3-0.2,0.6-0.5,0.7c-0.5,0.2-1,0.2-1.4-0.2
		c-0.3-0.4-0.3-0.7,0.1-0.9c0.5-0.3,1-0.5,1.6-0.5c0.9-0.1,1.8-0.1,2.8,0.1c0.6,0.2,1.2,0.5,1.7,0.8c-0.2,0-0.3,0-0.5-0.1
		c-0.6-0.2-1.2-0.3-1.8-0.4c-1-0.1-2.1-0.1-3.1,0.1c-0.5,0.3-0.8,0.4-0.4,0.8S34.9,34.3,34.9,34.3z"/>
	<path style="fill:#A49568;" d="M16.5,35c0,0-0.3-0.2-0.3,0.1c0.1,0.2,0.4,0.5,1.3,0.5c1.2,0,2.4-0.1,3.6-0.4
		c1.4-0.5,2.9-0.8,4.4-0.9c1.5,0,2.9,0.3,4.3,0.8c1.8,0.6,4,1.2,5.2,0.9c0.3-0.1,0.6-0.4,0.4-0.5s-0.2-0.1-0.5,0.1
		c-0.8,0.1-1.6,0.1-2.4-0.1c-0.7-0.2-3.8-1.2-4.4-1.3c-1.5-0.4-3-0.4-4.5-0.2c-1.5,0.5-3,0.8-4.5,1.1C18.3,35.3,16.9,35.4,16.5,35z"
		/>
	<path style="fill:#A49568;" d="M16.9,35.9c0,0,0.4-0.3,0.2-0.4s-0.3,0.1-0.4,0.4c-0.2,1.2-0.1,2.4,0.3,3.6c0.5,1.3,1.4,3.2,2.7,3.9
		c1.9,1.1,4,1.6,6.2,1.5c2.7-0.3,4.6-0.9,6.3-2.5c1.5-1.5,2-2.1,2.4-3.6c0.2-1.2,0.4-2.6,0.4-2.9c-0.1-0.1-0.4-0.2-0.4,0
		c0,1.2-0.2,2.3-0.5,3.4c-0.8,2-2.4,3.5-4.4,4.3c-2.3,0.7-3,1.2-6.9,0.7c-2.9-1.1-3.4-1.4-4.6-3.1C17.2,39.4,17.3,39.7,16.9,35.9z"
		/>
	<path style="fill:#45AFAB;" d="M16.9,32.9c0.1,0,0.6,0,0.3-0.3c-0.9-0.4-1.8-0.3-2.6,0.3c-0.7,0.7-0.8,1.8-0.2,2s0.8,0,0.8-0.2
		c-0.1-0.4,0-0.8,0.3-1.1C15.9,33.3,16.4,33.1,16.9,32.9z"/>
	<path style="fill:#45AFAB;" d="M15.9,40.9c0,0-0.1-0.4-0.3,0.1s-0.9,2.1,0.1,2.9s1.4,0.4,1.5-0.2c-0.1-0.5-0.3-1-0.6-1.5
		C16.3,41.8,16.1,41.3,15.9,40.9z"/>
	<path style="fill:#45AFAB;" d="M36.6,36.4c0,0-0.2-0.2-0.2,0.2c0,0.8-0.1,1.7-0.4,2.4c-0.1,0.6,0.6,1.2,1.1,0.9
		c0.6-0.5,0.9-1.3,0.6-2.1C37.5,37.3,37.1,36.8,36.6,36.4z"/>
	<path style="fill:#F0EDE8;" d="M36.2,33.7c0,0,0.6-0.4,0-0.3s-2.5,0.1-2.7,0.6s0.4,0.3,0.8,0.2C34.9,33.9,35.6,33.7,36.2,33.7z"/>
	<path style="fill:#F0EDE8;" d="M36.3,34c0,0.1-0.1,0.2-0.1,0.3c-0.1,0.2-0.4,0.8-0.3,0.9s-0.7-0.1-0.3-0.9
		C35.9,33.9,36.2,33.7,36.3,34z"/>
	<path style="fill:#F0EDE8;" d="M37.2,34.8c0,0-0.1-0.6-0.3-0.3s-0.7,0.7-0.4,1.2s0.4,0,0.4-0.2C37,35.2,37.1,35,37.2,34.8z"/>
	<path style="fill:#A49568;" d="M19.9,38.8c1-0.3,2.1-0.4,3.2-0.5c0.9,0,3.4,0,3.4,0s0.5,0.1-1,0.2c-2,0-4.1,0.3-6.1,0.7
		C18.3,39.6,19.9,38.8,19.9,38.8z"/>
	<path style="fill:#A49568;" d="M31.8,39.1c-0.9-0.3-1.9-0.5-2.8-0.7c-0.4,0,0.1,0.1,0.9,0.4s2.1,0.6,2.1,0.6L31.8,39.1z"/>
</g>
</svg>
