<?xml version="1.0" encoding="utf-8"?>
<!-- Generator: Adobe Illustrator 22.0.0, SVG Export Plug-In . SVG Version: 6.00 Build 0)  -->
<svg version="1.1" id="Слой_1" xmlns="http://www.w3.org/2000/svg" xmlns:xlink="http://www.w3.org/1999/xlink" x="0px" y="0px"
	 viewBox="0 0 55.8 62.9" style="enable-background:new 0 0 55.8 62.9;" xml:space="preserve">
<title>Artboard 1 копия 20</title>
<g id="Слой_5">
	<path style="fill:#FFFFFF;" d="M22,61.3c-0.3,0-0.5-0.2-0.5-0.5c0-0.1,0-0.2,0.1-0.3c0.9-1.2,2.2-2.1,3.7-2.6c-0.1-2.3,0-5.2,0-5.3
		v-0.2c-0.3-0.4-0.6-0.8-0.8-1.3c-0.5-0.9-0.9-1.9-1.2-2.9c-0.6-1.9-1-3.7-1.3-5.7l-0.8,1l-0.2,0.3c-0.6,0.9-0.9,1.2-1,1.3l-0.2,0.3
		c-0.1,0.1-0.2,0.2-0.3,0.3c-0.1,0.1-0.2,0.1-0.3,0.2c-0.1,0.1-0.3,0.1-0.5,0.1c-0.2,0-0.3-0.1-0.5-0.2c-0.1-0.1-0.2-0.2-0.3-0.3
		c-0.1-0.1-0.1-0.2-0.1-0.4c0-0.1,0-0.3,0-0.5h-0.3c-0.3,0-0.6,0-0.8,0c-0.3,0-0.6-0.1-0.9-0.2c-0.3-0.1-0.6-0.2-0.9-0.4
		c-0.2-0.1-0.3-0.3-0.4-0.5c-0.1-0.1-0.1-0.2-0.1-0.3v-0.2c0-0.1,0-0.3,0.1-0.4c0.1-0.2,0.2-0.3,0.3-0.4l0.1-0.1l0.2-0.1
		c0.1-0.1,0.3-0.1,0.5-0.1c0.4-0.1,0.8-0.1,1.2-0.2h0.4c0.5-0.1,1-0.1,1.5-0.3h0.1l0.3,0.4l-0.1-0.5c0.1,0,0.1-0.1,0.2-0.2
		c0.2-0.1,0.3-0.3,0.4-0.5c0.3-0.4,0.6-0.8,0.8-1.2c0.4-0.7,0.8-1.5,1.1-2.3c0-0.3-0.1-0.7-0.1-1c-0.2-1.9-0.3-3.9-0.3-6
		s0-4.1,0.1-6c0.1-1.1,0.1-2,0.3-3c0.1-0.6,0.2-1.2,0.3-1.8c-0.2,0.1-0.4,0.2-0.7,0.2c-0.2,0-0.4,0.1-0.5,0.1h-0.3h-0.3
		c-0.2,0-0.5-0.1-0.7-0.1c-0.8-0.1-2.3-0.6-2.1-3.4c0.2-2.2,2.8-4.5,5.9-5.1l0,0c0.4-0.1,0.9-0.1,1.3-0.1h0.5h0.1
		c1.4,0,2.8,0.4,4,1.1c0.5,0.2,0.9,0.5,1.3,0.9c0.2-0.2,0.5-0.4,0.8-0.5l0.4-0.2c0.5-0.3,1-0.6,1.6-0.8c0.8-0.3,1.7-0.4,2.5-0.4
		c0.3,0,0.7,0,1,0.1l0.5,0.1l0.3,0.1c0.2,0,0.5,0.1,0.7,0.2l0.2,0.1c0.6,0.2,1.1,0.5,1.6,0.9c0.2,0.2,0.5,0.4,0.7,0.7
		c0.2,0.3,0.4,0.5,0.5,0.9c0.1,0.3,0.2,0.6,0.3,0.9c0.1,0.3,0.1,0.6,0.1,0.9c0,0.3,0,0.6,0,0.9c0,0.2-0.1,0.5-0.2,0.7
		c-0.1,0.3-0.2,0.6-0.5,0.8c0,0.1,0,0.2,0,0.3c0,0.3,0,0.6-0.1,0.8c-0.2,0.9-1.1,1.6-2,1.5l0,0c-0.2,0-0.4,0-0.6-0.1l-0.3,0.7
		c-0.1,0.2-0.2,0.5-0.2,0.7s-0.2,0.5-0.2,0.7c-0.1,0.5-0.3,0.9-0.4,1.4c-0.3,1-0.5,1.9-0.8,2.9c-0.5,1.8-1,3.7-1.4,5.7
		c-0.3,1.4-0.6,2.8-0.9,4.2c0.2,0.4,0.4,0.8,0.6,1.2c0.2,0.7,0.5,1.3,0.8,2c0.2,0.5,0.6,1,1.1,1.3c0.4,0.2,0.8,0.4,1.2,0.5
		c0.3,0.1,0.6,0.2,0.9,0.3c0.1,0,0.2,0.1,0.3,0.2l0.1,0.1l0.2,0.2c0.4,0.3,0.5,0.8,0.3,1.2c-0.2,0.5-0.8,0.7-1.8,0.7
		c-0.3,0-0.7,0-1-0.1c0,0.2,0,0.4-0.1,0.6c-0.1,0.3-0.4,0.6-0.7,0.6l0,0c-0.4,0-1.1-0.1-2.9-3.3l-0.1-0.2l-0.1,0.7
		c-0.1,0.5-0.1,1-0.2,1.5c-0.1,1-0.3,1.9-0.4,2.9L31.8,49c-0.1,0.5-0.1,1-0.2,1.5c0,0.3-0.1,0.5-0.1,0.8c-0.1,0.3-0.1,0.5-0.3,0.8
		c-0.1,0.3-0.3,0.6-0.5,0.8l-0.2,0.2v4.5c0.6,0.1,1.1,0.3,1.7,0.5c1,0.4,1.7,1.1,2,2.1c0,0.1,0.1,0.3,0.1,0.5c0,0.3-0.2,0.5-0.5,0.5
		L22,61.3z"/>
	<path style="fill:#FFFFFF;" d="M24.7,11.7h0.1c1.3,0,2.6,0.4,3.8,1c0.5,0.3,0.9,0.6,1.3,0.9l0.3,0.2l0.1-0.1
		c0.1-0.1,0.1-0.2,0.2-0.3c0.2-0.2,0.4-0.3,0.6-0.4l0.4-0.2c0.5-0.3,1-0.5,1.5-0.7c0.8-0.3,1.6-0.4,2.4-0.4c0.3,0,0.6,0,0.9,0.1
		l0.4,0.1h0.1h0.1h0.2c0.3,0.1,0.5,0.1,0.8,0.2c0.5,0.2,1,0.5,1.5,0.9c0.2,0.2,0.4,0.4,0.6,0.6c0.2,0.2,0.3,0.5,0.4,0.7
		c0.1,0.3,0.2,0.5,0.3,0.8c0,0.3,0.1,0.6,0.1,0.8c0,0.3,0,0.6,0,0.8c0,0.2-0.1,0.4-0.1,0.6c0,0.2-0.2,0.4-0.3,0.5L40.2,18l-0.1,0
		c0,0.2,0,0.4,0,0.6c0,0.2,0,0.5-0.1,0.7c-0.1,0.7-0.8,1.2-1.5,1.2c-0.3,0-0.6-0.1-0.9-0.2c-0.1,0.4-0.3,0.8-0.4,1.1
		c-0.1,0.2-0.2,0.5-0.3,0.7s-0.2,0.5-0.2,0.7c-0.1,0.5-0.3,1-0.4,1.4c-0.3,1-0.5,1.9-0.8,2.9c-0.5,1.9-1,3.9-1.4,5.8
		c-0.4,1.5-0.7,3-1,4.5c0.3,0.2,0.4,0.5,0.6,1.2c0.3,0.7,0.5,1.4,0.9,2.1c0.3,0.6,0.7,1.2,1.3,1.5c0.4,0.3,0.9,0.5,1.4,0.6
		c0.3,0.1,0.5,0.2,0.8,0.3l0.3,0.1l0,0l0.1,0l0.2,0.1c0.2,0.2,0.3,0.4,0.2,0.6s-0.8,0.4-1.3,0.4c-0.4,0-0.7,0-1.1-0.1
		c-0.2,0-0.3,0-0.5,0h-0.1v0.1c0.1,0.3,0.1,0.6,0.1,0.9c-0.1,0.2-0.2,0.3-0.3,0.3l0,0c-0.7,0-2.1-2.6-2.4-3.1
		c-0.2-0.4-0.5-0.8-0.8-1.2l0,0l-0.1,0.4l-0.2,1.5c-0.1,0.5-0.1,1-0.2,1.5c-0.1,1-0.3,2-0.4,2.9L31.3,49c-0.1,0.5-0.1,1-0.2,1.5
		c0,0.2-0.1,0.5-0.1,0.7c-0.1,0.3-0.1,0.5-0.2,0.7c-0.1,0.2-0.2,0.5-0.4,0.7c-0.1,0.1-0.2,0.2-0.3,0.3v5.1c0.7,0.1,1.4,0.3,2,0.6
		c0.8,0.3,1.4,1,1.7,1.8l0,0c0,0.1,0,0.2,0,0.3H22c1-1.2,2.3-2.1,3.8-2.5l0,0c-0.1-2.4,0-5.7,0-5.7v-0.3l0,0
		c-0.3-0.4-0.6-0.8-0.8-1.3c-0.5-0.9-0.8-1.8-1.1-2.8c-0.6-1.9-1-3.8-1.3-5.8c0-0.3-0.1-0.7-0.1-1v0l0,0l0,0v0.1
		c-0.1,0.2-0.3,0.4-0.4,0.6c-0.3,0.4-0.6,0.8-0.9,1.3l-0.2,0.3c-0.5,0.7-0.9,1.2-1,1.3l-0.3,0.3c-0.1,0.1-0.2,0.2-0.3,0.3l-0.2,0.1
		c-0.1,0-0.1,0.1-0.2,0.1l0,0c-0.1,0-0.1,0-0.2-0.1c0,0-0.1-0.1-0.1-0.1c0-0.1-0.1-0.1-0.1-0.2c0-0.1,0-0.3,0-0.4c0-0.1,0-0.1,0-0.2
		c0-0.1,0-0.1,0-0.2c0,0,0,0,0-0.1l0,0h-0.1h-0.4h-0.5c-0.2,0-0.5,0-0.7,0c-0.3,0-0.5-0.1-0.8-0.2c-0.3-0.1-0.5-0.2-0.7-0.3
		c-0.1-0.1-0.2-0.2-0.3-0.3c0-0.1-0.1-0.1-0.1-0.2v-0.1C15,43.2,15,43.1,15,43c0-0.1,0.1-0.2,0.2-0.2l0.1-0.1h0.1
		c0.1-0.1,0.3-0.1,0.4-0.1c0.5-0.1,1-0.2,1.5-0.2c0.5-0.1,1-0.1,1.5-0.3L19,42h0.1h0.1c0.1-0.1,0.2-0.1,0.3-0.2
		c0.2-0.2,0.4-0.3,0.5-0.5c0.3-0.4,0.6-0.8,0.8-1.3c0.4-0.8,0.8-1.6,1.2-2.4c0-0.4-0.1-0.8-0.1-1.1c-0.2-2-0.3-4-0.3-5.9
		s0-4,0.1-5.9c0-1,0.1-2,0.2-3c0.1-1,0.3-1.9,0.5-2.9c-0.2,0.1-0.3,0.3-0.5,0.4c-0.3,0.2-0.6,0.3-1,0.4c-0.2,0-0.3,0.1-0.5,0.1h-0.3
		h-0.3c-0.2,0-0.4-0.1-0.6-0.1c-1-0.1-1.9-0.8-1.7-2.9s2.8-4.1,5.5-4.6l0,0c0.4-0.1,0.8-0.1,1.2-0.1L24.7,11.7 M24.6,10.7h-0.5
		c-0.5,0-0.9,0.1-1.4,0.1h0c-2.9,0.5-6.1,2.8-6.3,5.5c-0.2,3.2,1.7,3.8,2.5,3.9c0.3,0.1,0.5,0.1,0.8,0.2h0.5h0.2
		c0.2,0,0.4,0,0.6-0.1c0,0.3-0.1,0.7-0.1,1c-0.1,0.9-0.2,1.9-0.3,3c-0.1,1.9-0.1,3.8-0.1,6s0.2,4.1,0.3,6c0,0.3,0,0.6,0.1,0.9
		c-0.3,0.7-0.6,1.4-1,2.1c-0.2,0.4-0.5,0.8-0.8,1.2c-0.1,0.1-0.2,0.3-0.4,0.4L18.6,41h0h-0.1c-0.5,0.1-0.9,0.2-1.4,0.2h-0.4
		c-0.4,0-0.8,0.1-1.3,0.2c-0.2,0-0.4,0.1-0.6,0.2l-0.1,0l-0.1,0.1l-0.2,0.1c-0.2,0.2-0.4,0.4-0.5,0.6c-0.1,0.2-0.1,0.3-0.1,0.5
		c0,0,0,0.1,0,0.1v0.1c0,0,0,0.1,0,0.1c0,0.2,0.1,0.3,0.2,0.5c0.1,0.3,0.3,0.5,0.6,0.7c0.3,0.2,0.7,0.4,1.1,0.5
		c0.3,0.1,0.6,0.1,0.9,0.2c0.3,0,0.5,0,0.7,0l0,0c0,0.2,0.1,0.4,0.2,0.6c0.1,0.2,0.2,0.3,0.4,0.4c0.2,0.2,0.5,0.3,0.7,0.3h0.1
		c0.2,0,0.5-0.1,0.7-0.2c0.1-0.1,0.3-0.2,0.4-0.3c0.1-0.1,0.3-0.3,0.4-0.4l0.2-0.3l0,0c0.1-0.2,0.4-0.5,1-1.3l0.1-0.1l0.1-0.2v-0.1
		c0.3,1.5,0.6,3.1,1.1,4.6c0.3,1,0.7,2,1.2,2.9c0.2,0.4,0.5,0.8,0.7,1.2l0,0c0,0.1-0.1,2.7,0,5C23.2,57.8,22,58.8,21,60
		c-0.5,0.3-0.7,0.9-0.4,1.4c0.3,0.5,0.9,0.7,1.4,0.4h11.8c0.6,0,1-0.4,1-1c0-0.2,0-0.4-0.1-0.6c-0.3-1.1-1.2-2-2.3-2.4
		c-0.4-0.2-0.9-0.4-1.4-0.5v-3.9l0.1-0.1c0.2-0.3,0.4-0.6,0.5-0.9c0.1-0.3,0.2-0.6,0.3-0.9c0.1-0.3,0.1-0.5,0.1-0.8
		c0.1-0.5,0.1-1,0.2-1.5l0.2-1.5c0.1-1,0.2-1.9,0.4-2.9L33,44c1.6,2.6,2.3,2.6,2.7,2.6h0.2c0.5-0.1,1-0.5,1.1-1v-0.2h0.5
		c0.4,0,1.8,0,2.3-1c0.3-0.6,0.1-1.3-0.4-1.8c-0.1-0.1-0.2-0.1-0.2-0.2l-0.2-0.1l-0.3-0.2c-0.3-0.2-0.7-0.3-1-0.4
		c-0.4-0.1-0.7-0.3-1.1-0.5c-0.4-0.3-0.7-0.7-0.9-1.1c-0.3-0.7-0.6-1.3-0.8-2c-0.1-0.4-0.3-0.8-0.5-1.1c0.3-1.3,0.6-2.6,0.9-4
		c0.5-2.1,1-3.9,1.4-5.7c0.3-1,0.5-1.9,0.8-2.9c0.1-0.5,0.3-0.9,0.4-1.4c0.1-0.2,0.1-0.5,0.2-0.7s0.2-0.4,0.2-0.6l0.1-0.3h0.3
		c1.1,0,2.1-0.7,2.4-1.8c0.1-0.3,0.1-0.7,0.1-1c0,0,0-0.1,0-0.1c0.2-0.2,0.4-0.5,0.5-0.8c0.1-0.2,0.1-0.5,0.2-0.7c0-0.3,0-0.7,0-1
		c0-0.3,0-0.7-0.1-1c-0.1-0.3-0.2-0.7-0.3-1c-0.1-0.3-0.3-0.6-0.5-0.9l0,0c-0.2-0.3-0.5-0.5-0.7-0.8c-0.5-0.4-1.1-0.8-1.7-1h-0.1
		L38,11.3c-0.2-0.1-0.5-0.2-0.8-0.2h-0.2H37h0h-0.1L36.5,11c-0.4,0-0.7-0.1-1.1-0.1c-0.9,0-1.8,0.2-2.7,0.5
		c-0.6,0.1-1.2,0.3-1.7,0.6l-0.3,0.2c-0.2,0.1-0.4,0.2-0.5,0.3c-0.4-0.3-0.7-0.5-1.1-0.7c-1.3-0.7-2.7-1.1-4.2-1.1L24.6,10.7z"/>
	<rect x="25.8" y="51" style="fill:#AF6D31;" width="4.3" height="8"/>
	<path style="fill:#AF6D31;" d="M22,60.8c0,0,2.1-3.2,7-2.8s4.8,2.8,4.8,2.8H22z"/>
	<path style="fill:#DB812D;" d="M32.4,59.3c-0.6-0.3-1.2-0.5-1.8-0.6c-0.4-0.2-1.1-0.1-1.3-0.5s0-2.1,0-2.7c0-0.4,0.3-2.9-0.1-4.2
		c-0.1-0.2-1.9-1.1-2.3,0.5s0.3,5.7,0.1,6.1c-0.3,0.7-1.8,1.1-1.8,1.1c-0.3,0.1-1.5,0.7-1.5,0.9s1.1,0.3,1.5,0.3
		c1.1,0,2.3-0.1,3.4-0.1c0.5,0,1.1-0.1,1.6-0.1l0.5,0.1c0.5,0.1,1,0.1,1.4,0.1C32.6,60.4,32.8,59.6,32.4,59.3z"/>
	<path style="fill:#DB812D;" d="M22.1,37.1c0,0-1.6,4.6-3.1,5s-3.9,0.4-3.9,1s0.8,1,2.1,1.1s1.6-0.3,1.4,0.4s0,1.5,0.9,0.3
		c1.1-1.3,2-2.6,2.9-4c0.1-1.1,0.1-2.2,0-3.4L22.1,37.1z"/>
	<path style="fill:#AF6D31;" d="M22.1,37.1c-0.2,0.5-0.3,1-0.5,1.5c-0.2,0.5-0.4,1-0.6,1.4c-0.2,0.5-0.5,0.9-0.8,1.3
		c-0.2,0.2-0.3,0.4-0.5,0.6c-0.1,0.1-0.2,0.2-0.3,0.2h-0.1H19l-0.2,0.1c-0.5,0.1-1,0.2-1.5,0.3c-0.5,0.1-1,0.1-1.5,0.2
		c-0.1,0-0.2,0.1-0.4,0.1c-0.1,0-0.2,0.1-0.2,0.2l0,0v0.1c0,0,0,0.1,0,0.2c0,0.1,0.1,0.2,0.2,0.3c0.2,0.1,0.4,0.2,0.7,0.3
		c0.2,0.1,0.5,0.1,0.7,0.1c0.3,0,0.5,0,0.8,0H18h0.4h0.1c0.1,0,0.2,0.1,0.2,0.2c0,0,0,0.1,0,0.1c0,0.1,0,0.1,0,0.2
		c0,0.1,0,0.1,0,0.2c0,0.1,0,0.2,0,0.3c0,0,0,0.1,0,0.1l0,0l0,0c0,0,0.1,0,0.1,0l0.1-0.1c0.1-0.1,0.2-0.2,0.3-0.3l0.2-0.3l0.2-0.3
		l1-1.2c0.3-0.4,0.6-0.8,1-1.2c0.1-0.2,0.3-0.4,0.5-0.6s0.1-0.2,0.2-0.3c0,0,0-0.1,0.1-0.2c0-0.1,0-0.1,0-0.2c0-0.5,0-1,0-1.5
		s0-1,0-1.5l0,0L22.1,37.1z M22.1,37.1l0.4,0.4l0,0c0,0.5,0.1,1,0.1,1.5s0,1,0,1.5c0,0.1,0,0.1,0,0.2c0,0.1,0,0.1-0.1,0.2
		c-0.1,0.1-0.1,0.2-0.2,0.3S22,41.8,21.9,42c-0.3,0.4-0.6,0.8-0.9,1.3s-0.6,0.8-1,1.2l-0.2,0.3l-0.3,0.3c-0.1,0.1-0.2,0.2-0.3,0.3
		L19,45.6c-0.1,0-0.2,0.1-0.3,0.1c-0.1,0-0.1,0-0.2-0.1c0,0-0.1-0.1-0.1-0.1c0-0.1-0.1-0.1-0.1-0.2c0-0.1,0-0.3,0-0.4
		c0-0.1,0-0.1,0-0.2c0-0.1,0-0.1,0-0.2c0,0,0,0,0-0.1l0,0h0H18h-0.4c-0.3,0-0.5,0-0.8,0c-0.3,0-0.5-0.1-0.8-0.2
		c-0.3-0.1-0.5-0.2-0.7-0.3c-0.1-0.1-0.2-0.2-0.3-0.3c0-0.1-0.1-0.1-0.1-0.2v-0.1c0-0.1,0-0.1,0-0.2c0-0.1,0.1-0.2,0.2-0.2l0.1-0.1
		h0.1c0.1-0.1,0.3-0.1,0.4-0.1c0.5-0.1,1-0.2,1.5-0.2c0.5-0.1,1-0.1,1.5-0.3L19,42h0.1h0.1c0.1-0.1,0.2-0.1,0.3-0.2
		c0.2-0.2,0.4-0.3,0.5-0.5c0.3-0.4,0.6-0.8,0.8-1.3C21.3,39,21.7,38.1,22.1,37.1z"/>
	<path style="fill:#AF6D31;" d="M22.5,37.6l-0.4-0.5c0,0-0.2,0.5-0.4,1.1l0,0c-0.2,1.9-0.7,3.7-1.7,5.3c-0.6,1.1-1.3,1.8-1.3,2h0.1
		h0.1c0.3-0.1,0.5-0.3,0.6-0.6c1.1-1.3,2-2.6,2.9-4C22.5,39.8,22.5,38.7,22.5,37.6z"/>
	<path style="fill:#DB812D;" d="M37,16c2.1,2.3,0.7,4.1,0,6.3c-2.1,6.8-3.7,13.8-5,20.8c-1.2,7.8-0.7,8.9-2.5,10.1S24.7,52.7,23,44
		s-2.5-26.4,1.2-29.4c1.5-1.2,3.9-0.9,5.9-0.7C33.1,14.1,35.7,14.6,37,16z"/>
	<path style="fill:#E1974F;" d="M24.8,38.3c-0.3-2.6-0.4-2.7-1.6-3.1c-1-0.3-1.3,0.1-1.3,0.1l0.3,3c0.1,1.9,0.4,3.9,0.8,5.8
		c0.4,2.2,1.1,4.4,2,6.4c1.5,2.4,3,3.4,3.2,2.9c0.5-1.1-1.1-5.3-2-8C25.5,43,25,40.6,24.8,38.3z"/>
	<path style="fill:#AF6D31;" d="M37,16c-0.5-0.5-1.1-0.9-1.7-1.3l-0.7,0.4l-2.3,10c1.1,0.6,1.8,1.8,1.7,3c-0.1,1.6-2.1,6.9-2.7,7.7
		s-1.8,4.2-2.1,8.6l-0.4,4.4v4.6c0.3-0.1,0.5-0.2,0.7-0.3c1.8-1.3,1.3-2.3,2.5-10.1c1.3-7,2.9-14,5-20.8C37.7,20.1,39,18.3,37,16z"
		/>
	<path style="fill:#E1974F;" d="M32,25.7c0,0,1,0,1,0.8s-0.7,1.5-1.3,0.8S30.3,25.5,32,25.7z"/>
	<path style="fill:#FFFFFF;" d="M27.3,16c0,0-2.9-0.8-3.6,4.3s1.9,5,2.7,4.7s1.7-0.9,2.4-3.4S29.3,16.4,27.3,16z"/>
	<path style="fill:#FFFFFF;" d="M33.6,16.3c0,0-2.9-1-3.9,4s1.6,5.1,2.4,4.9s1.7-0.8,2.6-3.3S35.6,16.8,33.6,16.3z"/>
	<path style="fill:#AF6D31;" d="M23.6,21.6c0,0.7,0.1,1.4,0.3,2c0.1,0.2,0.1,0.3,0.2,0.5c0.1,0.1,0.2,0.3,0.3,0.4
		c0.1,0.1,0.2,0.2,0.4,0.3c0.1,0.1,0.3,0.2,0.4,0.2c0.3,0.1,0.7,0.1,1,0c0.3-0.1,0.6-0.2,0.9-0.4c0.5-0.4,0.9-0.9,1.2-1.5
		c0.3-0.6,0.5-1.2,0.6-1.9c0.1-0.7,0.2-1.3,0.3-2c0-0.3,0-0.7,0-1c0-0.2,0-0.3-0.1-0.5c0-0.2-0.1-0.3-0.2-0.5c0-0.1-0.1-0.1-0.1-0.2
		c0-0.1-0.1-0.1-0.1-0.2c-0.1-0.1-0.2-0.3-0.3-0.4c-0.3-0.2-0.6-0.4-1-0.5l0.3,0.1h0.1h0.1l0.1,0l0.1,0.1c0.1,0,0.1,0.1,0.2,0.1
		c0.1,0.1,0.3,0.2,0.4,0.4c0.1,0.1,0.1,0.1,0.1,0.2c0,0.1,0.1,0.1,0.1,0.2c0.1,0.3,0.2,0.7,0.3,1c0,0.3,0.1,0.7,0.1,1
		c0,0.7-0.1,1.3-0.2,2c-0.1,0.7-0.3,1.4-0.6,2c-0.2,0.3-0.3,0.6-0.5,0.9c-0.1,0.1-0.2,0.3-0.4,0.4c-0.1,0.1-0.3,0.2-0.4,0.3
		c-0.3,0.2-0.6,0.3-1,0.4c-0.2,0-0.4,0-0.5,0c-0.2,0-0.4,0-0.5-0.1c-0.2-0.1-0.3-0.1-0.5-0.2c-0.1-0.1-0.3-0.2-0.4-0.4
		c-0.1-0.1-0.2-0.3-0.3-0.5c-0.1-0.2-0.1-0.3-0.2-0.5c-0.1-0.3-0.1-0.7-0.2-1C23.5,22.2,23.6,21.9,23.6,21.6z"/>
	<path style="fill:#AF6D31;" d="M29.6,20.7c-0.1,0.7-0.1,1.5,0,2.3c0,0.3,0.1,0.7,0.2,1c0.1,0.3,0.3,0.6,0.6,0.8
		c0.2,0.1,0.3,0.2,0.5,0.2l0.3,0.1h0.3c0.4,0,0.7-0.1,1-0.3c0.3-0.2,0.6-0.4,0.8-0.7l0.4-0.4l0.1-0.1l0.1-0.1l0.1-0.2
		c0.3-0.6,0.6-1.3,0.8-2c0.2-0.7,0.4-1.4,0.4-2.1c0-0.4,0-0.7,0-1.1c-0.1-0.4-0.2-0.7-0.4-1c-0.2-0.3-0.5-0.5-0.8-0.7
		c-0.3-0.1-0.7-0.2-1.1-0.2c0.2,0,0.4,0,0.6,0c0.2,0,0.4,0.1,0.5,0.1c0.4,0.1,0.7,0.3,0.9,0.6c0.2,0.3,0.4,0.6,0.5,1
		c0.1,0.4,0.1,0.8,0.1,1.1c0,0.4-0.1,0.8-0.1,1.1c-0.1,0.4-0.2,0.8-0.3,1.2c-0.1,0.4-0.2,0.7-0.4,1.1c-0.1,0.3-0.3,0.7-0.5,1
		L34,23.7l-0.1,0.1l-0.1,0.1l-0.4,0.4c-0.1,0.1-0.3,0.3-0.4,0.4l-0.2,0.2l-0.3,0.2c-0.3,0.2-0.7,0.3-1.1,0.3h-0.3l-0.3-0.1
		c-0.2-0.1-0.4-0.1-0.5-0.2c-0.2-0.1-0.3-0.2-0.4-0.4c-0.1-0.2-0.2-0.3-0.3-0.5c-0.1-0.4-0.2-0.7-0.2-1.1c0-0.4,0-0.7,0-1.1
		C29.4,21.5,29.5,21.1,29.6,20.7z"/>
	<path style="fill:#AF6D31;" d="M33.2,25.6c0.3,0.3,0.5,0.7,0.6,1.1c0.1,0.2,0.1,0.4,0.2,0.6c0,0.2,0.1,0.4,0.1,0.6
		c0.1,0.8,0,1.7-0.3,2.5c-0.3,0.8-0.6,1.5-1.1,2.2c-0.5,0.7-1.2,1.3-1.8,1.9l-0.5,0.4l-0.5,0.4c-0.3,0.3-0.7,0.5-1.1,0.7
		c-0.4,0.2-0.8,0.3-1.2,0.4c-0.4,0.1-0.9,0.1-1.3,0c-0.4-0.1-0.8-0.3-1.2-0.6c-0.3-0.3-0.7-0.6-0.9-0.9c-0.3-0.3-0.5-0.7-0.7-1.1
		c-0.2-0.4-0.4-0.8-0.5-1.2c0.3,0.7,0.8,1.4,1.4,2.1c0.3,0.3,0.6,0.6,0.9,0.8c0.3,0.2,0.7,0.4,1.1,0.5c0.8,0.1,1.6,0,2.3-0.4
		c0.4-0.2,0.7-0.4,1-0.6l0.5-0.4l0.5-0.4c0.6-0.5,1.2-1.1,1.7-1.8c0.5-0.6,0.9-1.4,1.2-2.1c0.3-0.8,0.5-1.6,0.4-2.4
		c0-0.4-0.1-0.8-0.2-1.2c-0.1-0.2-0.1-0.4-0.2-0.6C33.4,25.9,33.3,25.8,33.2,25.6z"/>
	<path style="fill:#FFFFFF;" d="M24.2,27.4c1,0.7,2.2,1.1,3.4,1.2c1.2-0.1,2.3-0.4,3.4-0.9c0,0-0.6,6.3-4,5.5
		C24.5,32.5,24.4,30.5,24.2,27.4z"/>
	<path style="fill:#AF6D31;" d="M24.2,27.4c0.3,0.1,0.5,0.3,0.8,0.4s0.5,0.2,0.8,0.3c0.3,0.1,0.6,0.2,0.8,0.2
		c0.3,0.1,0.6,0.1,0.9,0.1c0.3,0,0.6,0,0.9-0.1c0.3-0.1,0.6-0.1,0.8-0.2c0.3-0.1,0.6-0.2,0.8-0.3c0.3-0.1,0.5-0.2,0.8-0.4l0.3-0.1
		v0.4c0,0.3-0.1,0.6-0.1,0.9s-0.1,0.6-0.2,0.9c-0.1,0.6-0.4,1.2-0.6,1.8c-0.1,0.3-0.3,0.6-0.5,0.8c-0.2,0.3-0.4,0.5-0.6,0.7
		c-0.5,0.4-1.2,0.6-1.9,0.6h-0.1H27l-0.2,0l-0.2-0.1l-0.2-0.1c-0.3-0.1-0.6-0.3-0.8-0.5c-0.3-0.2-0.5-0.5-0.6-0.7
		c-0.2-0.3-0.3-0.6-0.4-0.9c-0.1-0.6-0.2-1.2-0.2-1.8C24.2,28.6,24.2,28,24.2,27.4z M24.2,27.4c0.1,0.6,0.1,1.2,0.2,1.8
		c0,0.3,0.1,0.6,0.1,0.9c0,0.3,0.1,0.6,0.2,0.9c0.1,0.3,0.2,0.5,0.4,0.8c0.2,0.2,0.3,0.4,0.6,0.6c0.2,0.2,0.5,0.3,0.8,0.4l0.2,0.1
		l0.2,0.1h0.2h0.1h0.1c0.6,0.1,1.1-0.1,1.5-0.5c0.2-0.2,0.4-0.4,0.6-0.6c0.2-0.2,0.3-0.5,0.4-0.8c0.3-0.5,0.4-1.1,0.6-1.7
		c0.2-0.6,0.3-1.2,0.3-1.8l0.3,0.2c-0.3,0.1-0.6,0.2-0.8,0.3s-0.6,0.2-0.9,0.3c-0.6,0.2-1.2,0.3-1.8,0.3c-0.6,0-1.2-0.2-1.8-0.4
		C25.2,28,24.7,27.7,24.2,27.4z"/>
	<path style="fill:#AF6D31;" d="M24.8,26.6c0,0.1-0.1,0.3-0.1,0.4c-0.1,0.1-0.1,0.2-0.2,0.3c-0.1,0.1-0.2,0.2-0.3,0.3
		c-0.1,0.1-0.2,0.2-0.4,0.2c0-0.1,0-0.3,0.1-0.4c0.1-0.1,0.1-0.2,0.2-0.4c0.1-0.1,0.2-0.2,0.3-0.3C24.5,26.7,24.6,26.7,24.8,26.6z"
		/>
	<path style="fill:#AF6D31;" d="M30.5,27.1c0.2-0.1,0.3-0.1,0.5,0c0.2,0.1,0.3,0.2,0.4,0.3c0.1,0.1,0.2,0.3,0.2,0.4
		c0,0.1,0.1,0.1,0.1,0.2c0,0,0,0.1,0,0.1l0,0l0,0l0,0l0,0v-0.1h0.1l0,0l0,0l0,0L31.7,28l-0.3,0l-0.3-0.3c-0.1-0.1-0.2-0.2-0.3-0.3
		C30.8,27.3,30.6,27.2,30.5,27.1z"/>
	<path style="fill:#B2AA94;" d="M27.4,28.6c0.1,0.3,0.1,0.6,0.1,0.9c0,0.3,0,0.6,0,0.8c0,0.1,0,0.3,0,0.4s0,0.1,0,0.2s0,0.1,0,0.2
		c0,0.3-0.1,0.6-0.2,0.8l0,0c0-0.3,0-0.6,0-0.9c0-0.3,0-0.6,0-0.9s0-0.6,0.1-0.8S27.4,28.9,27.4,28.6L27.4,28.6z"/>
	<path style="fill:#AF6D31;" d="M24.3,29c0,0,0.7,2.3,1.3,2.5c1.1,0.2,2.2,0.3,3.3,0.4c0.5-0.5,0.9-1.1,1.2-1.7
		c0.3-0.7-0.5,1.8-0.5,1.8s-1.3,1-2,0.8S24.5,32.9,24.3,29z"/>
	<path style="fill:#CE3638;" d="M28.9,31.8c0,0-3.1-0.4-3.6,0S24,35,24.7,36.2c0.5,0.8,1.5,1.2,2.3,0.8
		C27.4,36.8,30.2,31.5,28.9,31.8z"/>
	<path style="fill:#99242C;" d="M28.9,31.8c-0.7,0-1.4-0.1-2.1-0.1c-0.3,0-0.7,0-1,0h-0.3h-0.1l-0.1,0.1c-0.1,0.1-0.2,0.3-0.3,0.4
		c-0.1,0.3-0.2,0.7-0.3,1c-0.1,0.3-0.1,0.7-0.2,1c0,0.3,0,0.7,0,1c0,0.2,0.1,0.3,0.1,0.5v0.1l0,0.1c0,0.1,0.1,0.1,0.1,0.2
		c0.2,0.3,0.5,0.5,0.8,0.6c0.3,0.1,0.7,0.2,1,0.1h0.1h0.1h0l0,0l0.1,0c0.1-0.1,0.2-0.3,0.3-0.4c0.2-0.3,0.4-0.6,0.5-0.9
		c0.3-0.6,0.7-1.3,0.9-1.9c0.1-0.3,0.3-0.7,0.4-1c0.1-0.2,0.1-0.3,0.1-0.5c0-0.1,0-0.2-0.1-0.2C29.1,31.7,29,31.7,28.9,31.8z
		 M28.9,31.8c0,0,0.1,0,0.1,0c0,0,0.1,0,0.1,0.1c0.1,0.1,0.1,0.2,0.1,0.3c0,0.2,0,0.4-0.1,0.5c-0.1,0.3-0.2,0.7-0.3,1
		c-0.3,0.7-0.6,1.3-0.9,2c-0.2,0.3-0.3,0.6-0.5,0.9c-0.1,0.2-0.2,0.3-0.3,0.5l-0.1,0.1l0,0l0,0l0,0H27h-0.1h-0.1c-0.2,0-0.4,0-0.6,0
		c-0.2,0-0.4-0.1-0.5-0.1c-0.4-0.1-0.7-0.4-0.9-0.7c0-0.1-0.1-0.2-0.1-0.2l-0.1-0.1v-0.1c-0.1-0.2-0.1-0.4-0.1-0.5
		c0-0.4,0-0.7,0-1.1c0-0.4,0.1-0.7,0.2-1.1c0.1-0.3,0.2-0.7,0.4-1c0.1-0.2,0.2-0.3,0.3-0.5c0,0,0.1-0.1,0.1-0.1h0.1h0.3
		c0.4,0,0.7,0,1.1,0l1.1,0.1L28.9,31.8z"/>
	<path style="fill:#99242C;" d="M28.9,31.8h-0.3c-0.9,1.6-1.7,3.3-2.4,5c0,0.1,0,0.3,0,0.4c0.3,0,0.5-0.1,0.8-0.2
		C27.4,36.8,30.2,31.5,28.9,31.8z"/>
	<path style="fill:#D5654D;" d="M25.6,31.9L25.6,31.9c-0.1,0.7-0.3,1.3-0.5,1.8c0,0-0.1,0.1-0.1,0.1c-0.1-0.1-0.1-0.1-0.1-0.2
		C24.8,33.5,25.4,31.5,25.6,31.9z"/>
	<path style="fill:#AF6D31;" d="M25.8,48.8c0.1-0.1,0.2-0.3,0.3-0.4c0.1-0.1,0.2-0.1,0.3-0.1c0.1,0,0.2,0,0.3,0.1
		c0.1,0.1,0.2,0.2,0.3,0.4v0.1h-0.3h-0.6L25.8,48.8L25.8,48.8z"/>
	<path style="fill:#AF6D31;" d="M25.1,44.5c0.1-0.1,0.2-0.3,0.3-0.4c0.1-0.1,0.2-0.1,0.3-0.1c0.1,0,0.2,0,0.3,0.1
		c0.1,0.1,0.2,0.2,0.3,0.4v0.1h-0.3h-0.6L25.1,44.5L25.1,44.5z"/>
	<path style="fill:#AF6D31;" d="M29.8,44.5c0-0.1,0.1-0.1,0.1-0.2c0,0,0.1,0,0.1,0c0.1,0,0.1,0,0.1,0c0.1,0.1,0.1,0.1,0.1,0.2l0,0
		H29.8z"/>
	<path style="fill:#AF6D31;" d="M22.7,39.2c0.1-0.2,0.2-0.3,0.4-0.5c0.1-0.1,0.3-0.1,0.4-0.1c0.1,0,0.3,0,0.4,0.1
		c0.2,0.1,0.3,0.3,0.4,0.5v0.1h-0.2h-1.2L22.7,39.2L22.7,39.2z"/>
	<path style="fill:#AF6D31;" d="M28.6,40.8c0.1-0.2,0.2-0.3,0.4-0.5c0.1-0.1,0.3-0.1,0.4-0.1c0.1,0,0.3,0,0.4,0.1
		c0.2,0.1,0.3,0.3,0.4,0.5v0.1h-0.2h-1.2L28.6,40.8L28.6,40.8z"/>
	<path style="fill:#AF6D31;" d="M37,16c0.3,0.4,0.6,0.8,0.8,1.2c0.2,0.5,0.3,0.9,0.3,1.4c0,0.5-0.1,1-0.3,1.5
		c-0.2,0.5-0.3,0.9-0.5,1.4c-0.1,0.2-0.2,0.5-0.3,0.7s-0.2,0.5-0.2,0.7c-0.1,0.5-0.3,1-0.4,1.4c-0.3,1-0.5,1.9-0.8,2.9
		c-0.5,1.9-1,3.8-1.5,5.8c-0.5,1.9-0.9,3.8-1.3,5.8l-0.3,1.5l-0.3,1.5l-0.2,1.5c-0.1,0.5-0.1,1-0.2,1.5c-0.1,1-0.3,2-0.4,2.9
		L31.3,49c-0.1,0.5-0.1,1-0.2,1.5c0,0.3-0.1,0.5-0.1,0.7c-0.1,0.3-0.1,0.5-0.2,0.7c-0.1,0.2-0.2,0.5-0.4,0.7
		c-0.2,0.2-0.4,0.4-0.6,0.5l-0.3,0.2c-0.1,0.1-0.2,0.1-0.4,0.2c-0.3,0.1-0.5,0.2-0.8,0.2c-0.3,0-0.5,0-0.8-0.1
		c-0.2-0.1-0.5-0.2-0.7-0.4c-0.4-0.3-0.8-0.7-1.1-1.1c-0.3-0.4-0.6-0.8-0.8-1.3c-0.5-0.9-0.8-1.8-1.1-2.8c-0.6-1.9-1-3.8-1.3-5.8
		c-0.3-2-0.5-3.9-0.7-5.9s-0.3-4-0.3-5.9s0-4,0.1-5.9c0-1,0.1-2,0.2-3c0.1-1,0.3-2,0.5-2.9c0.1-0.5,0.2-1,0.4-1.4
		c0.2-0.5,0.3-0.9,0.6-1.4c0.2-0.5,0.5-0.9,0.9-1.2c0.4-0.3,0.8-0.5,1.3-0.7c0.5-0.1,1-0.2,1.5-0.1c0.5,0,1,0,1.5,0.1l1.5,0.2
		l1.5,0.1c1,0.1,2,0.3,2.9,0.5c0.5,0.1,0.9,0.3,1.4,0.5C36.2,15.3,36.6,15.6,37,16z M37,16c-0.3-0.4-0.8-0.6-1.2-0.8
		c-0.5-0.2-0.9-0.4-1.4-0.5c-1-0.2-1.9-0.4-2.9-0.5L30,14l-1.5-0.1c-0.5,0-1-0.1-1.5-0.1c-0.5,0-1,0.1-1.5,0.2
		c-0.5,0.1-0.9,0.4-1.3,0.7c-0.4,0.3-0.7,0.7-0.9,1.2c-0.2,0.4-0.4,0.9-0.5,1.4c-0.1,0.5-0.3,1-0.4,1.4c-0.2,1-0.4,1.9-0.5,2.9
		c-0.1,1-0.2,2-0.2,3c-0.1,2-0.1,4,0,5.9s0.2,3.9,0.4,5.9s0.4,3.9,0.7,5.9c0.3,1.9,0.7,3.9,1.3,5.7c0.3,0.9,0.7,1.8,1.1,2.7
		c0.2,0.4,0.5,0.8,0.8,1.2c0.3,0.4,0.6,0.7,1,1c0.4,0.3,0.8,0.4,1.3,0.5c0.2,0,0.4-0.1,0.6-0.1c0.1,0,0.2-0.1,0.3-0.2l0.3-0.2
		c0.2-0.1,0.4-0.3,0.5-0.5c0.1-0.2,0.3-0.4,0.3-0.6c0.1-0.2,0.2-0.4,0.2-0.7c0.1-0.2,0.1-0.5,0.1-0.7c0.2-1,0.3-2,0.4-2.9
		s0.3-2,0.4-2.9c0.1-0.5,0.1-1,0.2-1.5l0.3-1.5l0.3-1.5l0.3-1.5c0.8-3.9,1.8-7.7,2.9-11.5c0.3-1,0.5-1.9,0.8-2.9
		c0.1-0.5,0.3-1,0.4-1.4l0.2-0.7c0.1-0.2,0.2-0.5,0.3-0.7c0.2-0.5,0.4-0.9,0.5-1.4c0.2-0.5,0.3-1,0.3-1.5c0-0.5-0.1-1-0.3-1.4
		C37.6,16.8,37.3,16.4,37,16z"/>
	<path style="fill:#DB812D;" d="M32.6,37.5c-0.6,0.4-1,1.1-1,1.8c0,1.1,1,1.8,1.7,3.1s2.2,3.7,2.5,2.8s-0.7-1.2,0.6-1
		s2.9,0.1,2.1-0.7s-2.8-0.4-4-2.8S33.4,37.2,32.6,37.5z"/>
	<path style="fill:#AF6D31;" d="M35.7,45.6c-0.7,0-2.1-2.6-2.4-3.1c-0.2-0.4-0.5-0.8-0.8-1.2c-0.5-0.5-0.9-1.2-0.9-2
		c0-0.8,0.4-1.5,1-1.9l0,0c0.2-0.1,0.4-0.1,0.5,0c0.3,0.1,0.4,0.5,0.7,1.2c0.3,0.7,0.5,1.4,0.9,2.1c0.5,1.1,1.6,2,2.8,2.2
		c0.4,0.1,0.8,0.3,1.2,0.6c0.2,0.2,0.3,0.4,0.2,0.6c-0.3,0.6-2.2,0.3-2.4,0.3c-0.2,0-0.4,0-0.6,0v0.1c0.1,0.3,0.1,0.6,0.1,0.9
		C35.8,45.6,35.7,45.6,35.7,45.6L35.7,45.6z M32.7,37.6c-0.5,0.4-0.9,1-0.9,1.7c0.1,0.7,0.4,1.3,0.9,1.8c0.3,0.4,0.6,0.8,0.9,1.3
		c0.9,1.6,1.9,3,2.2,3c0,0,0,0,0-0.1c0.1-0.2,0-0.5-0.1-0.7c0-0.1-0.1-0.3,0-0.4s0.3-0.1,0.8-0.1c1.2,0.2,2,0,2.1-0.2s0-0.2-0.2-0.3
		c-0.3-0.2-0.7-0.4-1.1-0.5c-1.3-0.3-2.4-1.1-3-2.3c-0.3-0.7-0.6-1.4-0.9-2.1c-0.2-0.6-0.4-1-0.6-1.1C32.8,37.6,32.7,37.6,32.7,37.6
		L32.7,37.6z"/>
	<path style="fill:#DB812D;" d="M30.2,13.9c1.6-1.5,3.8-2.2,6-2c3.7,0.4,4.3,2.7,4.4,3.4s0.2,2.7-0.7,2.8s-3.8-5.7-9.7-1.7
		c-1.4-1.4-4.5-2.8-6.1-0.1s-2.7,3.1-3.8,3.2S17.8,19,18,16.5s3.8-4.9,7-4.7C26.9,11.9,28.7,12.6,30.2,13.9z"/>
	<path style="fill:#AF6D31;" d="M30.2,13.9c0.4-0.4,0.8-0.7,1.3-1c0.5-0.3,1-0.5,1.5-0.7c1.1-0.4,2.2-0.5,3.3-0.3l0.4,0.1h0.1h0.1
		h0.2c0.3,0.1,0.5,0.1,0.8,0.2c0.5,0.2,1,0.5,1.5,0.9c0.2,0.2,0.4,0.4,0.6,0.6c0.2,0.2,0.3,0.5,0.4,0.7c0.1,0.3,0.2,0.5,0.3,0.8
		c0,0.3,0.1,0.6,0.1,0.8c0,0.3,0,0.6,0,0.8c0,0.3-0.1,0.6-0.2,0.8c-0.1,0.1-0.2,0.3-0.3,0.3c-0.1,0-0.1,0.1-0.2,0.1h-0.2h-0.1
		c-0.1-0.1-0.3-0.1-0.4-0.2L39,17.6c-0.4-0.4-0.8-0.8-1.2-1.1c-0.4-0.3-0.9-0.7-1.4-0.9c-0.5-0.2-1-0.4-1.5-0.5
		c-0.5-0.1-1.1-0.1-1.6,0c-1.1,0.2-2.1,0.7-3,1.3l-0.1,0.1l-0.1-0.1c-0.5-0.4-1-0.8-1.6-1.1c-0.6-0.3-1.2-0.5-1.8-0.5
		c-0.3,0-0.6,0-0.9,0.1c-0.3,0.1-0.6,0.2-0.8,0.4c-0.2,0.2-0.4,0.4-0.6,0.7l-0.1,0.2l-0.1,0.2c-0.1,0.1-0.2,0.3-0.3,0.4
		c-0.4,0.6-0.8,1.1-1.2,1.6c-0.2,0.2-0.5,0.4-0.8,0.6c-0.3,0.2-0.6,0.3-1,0.4c-0.2,0-0.3,0.1-0.5,0.1H20h-0.3c-0.4,0-0.7-0.1-1-0.3
		c-0.3-0.2-0.5-0.5-0.7-0.8c0-0.1-0.1-0.2-0.1-0.2l0-0.1v-0.1c0-0.1,0-0.2,0-0.3v-0.3c0-0.1,0-0.2,0-0.3c0-0.1,0-0.2,0-0.3v-0.3
		c0-0.1,0-0.2,0-0.3c0-0.3,0.1-0.7,0.3-1c0.3-0.6,0.7-1.1,1.2-1.6c0.5-0.4,1-0.8,1.6-1.1c0.6-0.3,1.2-0.5,1.8-0.7
		c0.3-0.1,0.7-0.1,1-0.2c0.3,0,0.7-0.1,1-0.1c1.3,0,2.6,0.4,3.8,1C29.2,13.1,29.7,13.4,30.2,13.9z M30.2,13.9
		c-0.5-0.4-1-0.8-1.6-1.1c-1.2-0.6-2.4-1-3.8-1c-0.3,0-0.7,0-1,0.1c-0.3,0-0.7,0.1-1,0.2c-0.6,0.2-1.2,0.4-1.8,0.7
		c-0.5,0.3-1,0.8-1.5,1.2c-0.5,0.4-0.9,1-1.1,1.6c-0.1,0.3-0.2,0.6-0.3,0.9c0,0.1,0,0.2,0,0.2v0.2c0,0.1,0,0.2,0,0.2
		c0,0.1,0,0.2,0,0.2v0.2c0,0.1,0,0.1,0,0.2V18v0.1c0,0.1,0.1,0.1,0.1,0.2c0.2,0.3,0.4,0.5,0.8,0.7c0.3,0.2,0.6,0.3,0.9,0.3h0.2h0.2
		c0.2,0,0.3,0,0.5-0.1c0.3-0.1,0.6-0.2,0.9-0.3c0.3-0.2,0.5-0.4,0.8-0.6c0.5-0.5,0.9-1,1.2-1.5c0.1-0.1,0.2-0.3,0.3-0.4l0.1-0.2
		l0.1-0.2c0.2-0.3,0.4-0.5,0.7-0.8c0.3-0.2,0.6-0.4,0.9-0.5c0.3-0.1,0.7-0.1,1-0.1c0.3,0,0.7,0.1,1,0.2c0.3,0.1,0.6,0.2,0.9,0.4
		c0.6,0.3,1.1,0.7,1.6,1.2h-0.2c0.5-0.3,1-0.6,1.5-0.8c0.5-0.2,1.1-0.4,1.6-0.5c0.6-0.1,1.1-0.1,1.7,0c0.6,0.1,1.1,0.3,1.6,0.5
		c0.5,0.3,1,0.6,1.4,0.9c0.4,0.4,0.8,0.8,1.2,1.1l0.3,0.3c0.1,0.1,0.2,0.2,0.3,0.2h0.1c0.1,0,0.1,0,0.2-0.1c0.1-0.1,0.2-0.2,0.3-0.3
		c0.1-0.2,0.2-0.5,0.2-0.8c0-0.3,0-0.5,0-0.8c0-0.3,0-0.5-0.1-0.8c-0.1-0.3-0.1-0.5-0.2-0.8c-0.1-0.2-0.2-0.5-0.4-0.7
		c-0.2-0.2-0.4-0.4-0.6-0.6c-0.4-0.4-0.9-0.6-1.4-0.8c-0.3-0.1-0.5-0.2-0.8-0.2h-0.2h-0.1h-0.1L36.3,12c-1.1-0.2-2.2-0.1-3.3,0.3
		c-0.5,0.2-1,0.4-1.5,0.7C31,13.2,30.6,13.5,30.2,13.9z"/>
	<path style="fill:#AF6D31;" d="M38.5,43.5c-0.8-0.8-2.8-0.4-4-2.8s-1.1-3.5-1.9-3.2c-0.1,0.1-0.2,0.1-0.3,0.2
		c0.7,1.5,1.5,3,2.4,4.3c1,1.2,1.1,2,3,2.2C38.5,44.3,39,44,38.5,43.5z"/>
	<path style="fill:#E1974F;" d="M40.6,15.2c0-0.1,0-0.2-0.1-0.4l0,0c-0.5-1.3-1.8-2.1-4.5-2.3c-1.7-0.1-3.3,0.6-4.3,1.9L33,15
		c2.8-0.6,4.6,1.1,5.7,2.2l1.6,0.6C40.7,17,40.8,16.1,40.6,15.2z"/>
	<path style="fill:#AF6D31;" d="M40.6,15.2l-0.1-0.4l0,0c-0.2-0.4-0.4-0.7-0.7-1c-0.3-0.3-0.7-0.5-1.1-0.7c-0.4-0.2-0.8-0.3-1.2-0.3
		c-0.4-0.1-0.8-0.1-1.3-0.1c-0.2,0-0.4,0-0.6,0c-0.1,0-0.2,0-0.3,0h-0.2h-0.2l-0.3,0.1h-0.2h-0.2h-0.2L34,13l-0.3,0.1
		c-0.4,0.2-0.7,0.4-1.1,0.6c-0.2,0.1-0.3,0.3-0.5,0.4c-0.2,0.1-0.3,0.3-0.4,0.5l-0.1-0.2l0.7,0.3l0.7,0.3h0c0.5-0.1,1.1-0.1,1.6-0.1
		c0.3,0,0.5,0.1,0.8,0.1l0.4,0.1l0.4,0.1c0.5,0.2,1,0.5,1.4,0.8c0.4,0.3,0.8,0.7,1.2,1.1l0,0l1.6,0.6l0,0c0.1-0.2,0.2-0.4,0.3-0.6
		c0.1-0.2,0.1-0.4,0.1-0.6C40.7,16.1,40.7,15.7,40.6,15.2z M40.6,15.2c0.1,0.4,0.1,0.9,0.1,1.3c0,0.2,0,0.4-0.1,0.6
		c0,0.2-0.1,0.4-0.3,0.6l0,0l-1.6-0.6l0,0c-0.4-0.4-0.8-0.7-1.2-1c-0.4-0.3-0.9-0.6-1.4-0.8c-0.5-0.2-1-0.3-1.5-0.4
		c-0.5,0-1,0-1.5,0.1H33l-0.7-0.3l-0.7-0.3l-0.2-0.1l0.1-0.1c0.3-0.3,0.6-0.6,1-0.9c0.2-0.1,0.4-0.3,0.5-0.4l0.3-0.1l0.3-0.1
		l0.3-0.1l0.2-0.1h0.2h0.2h0.2l0.3-0.1h0.2h0.2c0.1,0,0.2,0,0.3,0c0.2,0,0.4,0,0.7,0c0.4,0,0.9,0.1,1.3,0.2c0.4,0.1,0.8,0.2,1.2,0.4
		c0.4,0.2,0.8,0.4,1.1,0.7c0.3,0.3,0.6,0.7,0.7,1.1l0,0L40.6,15.2z"/>
	<path style="fill:#AF6D31;" d="M36.7,14c-2.1-0.5-4.3-0.2-6.2,0.8l-0.4,0.2c0,0,0.1-0.1-0.2-0.5c-0.9-1.1-4-2-5.8-0.8
		c-1.7,1.5-3,3.5-3.9,5.6c0.9-0.5,1.6-1.1,2.2-1.8c0.4-0.5,0.8-1.2,1.2-2c1.6-2.7,5-0.6,6.4,0.8c5.9-4,8.8,1.9,9.7,1.7
		c0.5-0.1,0.7-0.6,0.8-1.1C40.5,15.9,39.3,14.5,36.7,14z"/>
	<path style="fill:#A5C84B;" d="M26.4,13.2c3.4-0.5,0.2-1,0.2-1c-0.7-0.2-1.4-0.3-2.1-0.4c-3.2-0.2-6.8,2.3-7,4.7s1.1,3,2.3,2.9
		c1-0.1,1.9-0.9,2.2-1.9l0,0C22.5,15.4,23.8,13.5,26.4,13.2z"/>
	<path style="fill:#CADB75;" d="M20.5,14.6c-0.2,0.4-0.3,0.8-0.5,1.1c-0.1,0.4-0.2,0.8-0.2,1.2v0.3c0,0.1,0,0.2,0,0.3s0,0.2,0,0.3
		s0,0.2,0,0.3s0,0.1,0,0.1v0.1c0,0.1,0,0.2,0,0.3c0,0.2,0,0.4,0,0.6c-0.1-0.2-0.2-0.4-0.2-0.6l-0.1-0.3v-0.2c0,0,0-0.1,0-0.2
		s0-0.2,0-0.3s0-0.2,0-0.3c0-0.2,0-0.4,0-0.6c0.1-0.4,0.2-0.8,0.4-1.2C19.9,15.2,20.2,14.9,20.5,14.6z"/>
	<path style="fill:#AF6D31;" d="M30.3,16.3C30.1,16,30,15.7,30,15.4c-0.1-0.3-0.1-0.7,0-1c0.2-0.7,0.7-1.2,1.3-1.4
		c-0.3,0.2-0.5,0.4-0.7,0.6c-0.2,0.2-0.3,0.5-0.4,0.8c-0.1,0.3-0.1,0.6-0.1,0.9C30.2,15.6,30.2,16,30.3,16.3z"/>
	<path style="fill:#AF6D31;" d="M30.6,25.7c0.2-0.1,0.3-0.3,0.5-0.4c0.2-0.1,0.4-0.2,0.6-0.2c0.2,0,0.4,0,0.7,0
		c0.2,0.1,0.4,0.1,0.6,0.3c0.2,0.1,0.4,0.3,0.5,0.4c0.2,0.2,0.3,0.3,0.4,0.5c0.1,0.2,0.2,0.4,0.2,0.6c0,0.2,0.1,0.4,0,0.7
		c0,0.4-0.1,0.9-0.2,1.3c-0.1,0.4-0.2,0.8-0.4,1.2c-0.2,0.4-0.3,0.8-0.5,1.1c-0.2,0.4-0.4,0.7-0.7,1c0.2-0.4,0.3-0.8,0.5-1.1
		c0.1-0.2,0.1-0.4,0.2-0.6s0.1-0.4,0.2-0.6c0.3-0.8,0.4-1.6,0.4-2.4c0-0.2,0-0.4,0-0.6c-0.1-0.6-0.4-1.1-0.9-1.4
		c-0.2-0.1-0.3-0.2-0.5-0.3c-0.2-0.1-0.4-0.1-0.6-0.1h-0.3l-0.3,0.1C31,25.5,30.8,25.6,30.6,25.7z"/>
	<path style="fill:#935B2C;" d="M32.5,25.2c0.8-0.4,1.5-1.2,1.9-2c0.2-0.4,0.5-0.7,0.6-0.4c0,0.7-0.1,1.5-0.3,2.2
		c-0.1,0.4,0.2,1.3,0.2,2.4s-0.5,6-4.4,7.6c0.3-0.3,3.1-2.4,3.6-5C34.2,28.2,35.2,25.6,32.5,25.2z"/>
	<path style="fill:#AF6D31;" d="M33.3,26c0,0,0.4,1,0,1.6s-0.3,3.2-1.8,4.8s-2.3,2.3-2.5,2s0.5-2,0.5-2l-0.3,0.2
		c-0.3,1.1-0.7,2.2-1.3,3.3c0.5,0,0.9-0.1,1.4-0.3c1.2-0.9,2.3-1.9,3.2-3.1c1-1.6,1.5-3.4,1.4-5.3C33.7,26.7,33.5,26.3,33.3,26z"/>
	<path style="fill:#935B2C;" d="M23.9,27.8c0,0-0.2-0.2,0.1-0.5s0.5-0.7,0.8-0.6c0.1,0.1,0,0.2-0.1,0.3s-0.3,0.1-0.3,0.2
		c0.2,0.3,0.4,0.6,0.8,0.8c-0.4,0.2-0.6,0.6-0.6,1c0,0.4,0,0.9,0.1,1.3c0.1,0.3,0.3,1.3,0.6,1.5l-0.1,0.2c0,0-0.8-0.8-0.8-4
		c0-0.1,0-0.5,0-0.5S23.9,27.3,23.9,27.8z"/>
	<path style="fill:#935B2C;" d="M30.6,27.1c-0.1,0-0.2,0.2-0.1,0.3c0.2,0.1,0.4,0.2,0.6,0.3c0.2,0.2,0.5,0.5,0.5,0.5
		c0-0.2,0-0.4-0.2-0.5C31.2,27.4,31,27.2,30.6,27.1z"/>
	<path style="fill:#BDBEBE;" d="M24.4,27.4c-0.1,0.1-0.2,0.3-0.1,0.5c0,0.3,2.3,1.2,3,1.3c1.1,0,2.3-0.2,3.3-0.7
		c0.1-0.2,0.1-0.3,0.1-0.5c-1.1,0.5-2.2,0.7-3.3,0.7C26.3,28.5,25.3,28.1,24.4,27.4z"/>
	<path style="fill:#E1974F;" d="M24,26.9c0.4-0.2,0.7-0.3,1.1-0.4c0.5-0.1,1.3,0,1.4-0.4s0-0.8-0.4-0.8c-0.5,0.1-1,0-1.5-0.3
		c-0.7-0.3-1.5,0-1.9,0.6c-0.4,0.7-0.5,2.4,0,2.5S23.7,27.1,24,26.9z"/>
	<path style="fill:#E5A469;" d="M23.8,29.8c0-0.1-0.8-0.2-0.9,0.6c-0.2,1.2,0,2.5,0.7,3.5c0.3,0.4,0.7,0.9,0.7,0.9
		c0.1-0.8,0.2-1.5,0.5-2.3C24.2,31.7,23.9,30.7,23.8,29.8z"/>
	<path style="fill:#99242C;" d="M24.7,36c0,0,0.8,0.6,1.3,0.2c0.7-0.9,1.4-1.8,2-2.8c0.2-0.2,0.4,0.4,0.1,1.2S26.9,37.3,26,37
		S25.1,36.9,24.7,36z"/>
	<path style="fill:#935B2C;" d="M22,37.6c0,0,0.2,2.8,0.4,3.8c-0.5,0.8-2.5,3.5-2.6,3.5s-0.3,0,0.2-0.6c0.7-0.9,1.3-1.8,1.9-2.8
		c0.1-0.5-0.1-3.2-0.1-3.2L22,37.6z"/>
	<path style="fill:#935B2C;" d="M35.8,42.2c0,0.2,0.1,0.4,0.2,0.5c0.7,0.5,1.5,0.8,2.4,1c0.3-0.1,0.2-0.4,0-0.5
		c-0.3-0.2-0.7-0.3-1-0.4c-0.5-0.2-1-0.4-1.4-0.6C35.8,42.1,35.8,42.2,35.8,42.2z"/>
	<path style="fill:#935B2C;" d="M34.2,14c1.3-0.3,2.6-0.1,3.8,0.4c1.3,0.4,2.3,1.4,2.6,2.8c-0.1,0.4-0.1,0.7-0.6,1
		C39.7,17.2,39.8,15.6,34.2,14z"/>
	<path style="fill:#935B2C;" d="M19.7,19.4c1-0.2,1.9-0.9,2.3-1.8c0.4-1.6,1.3-4.1,4.2-4.3c0.9,0.2,1.8,0.5,2.5,1.1
		c0.3,0.4-0.4,0.3-0.9,0s-2.6-1-3.6,0.1s-1.6,1.8-1.7,2.5C22.4,18.3,21.2,19.3,19.7,19.4z"/>
	<path style="fill:#8DB14C;" d="M22.9,11.9c0,0,2.3-0.1,1.4,1.8c0.9-0.5,2-0.7,3-0.7c0.4,0,1-0.3,0.3-0.6
		C26.2,11.8,24.5,11.6,22.9,11.9z"/>
	<path style="fill:#BDBEBE;" d="M28.2,22.9c0.7-1.6,0.9-3.3,0.7-5.1c0-1.1-0.9-1.9-2-1.9c-0.1,0-0.2,0-0.3,0
		c-1.1,0.2-1.7,0.4-2.7,2.5c-0.5,1.9-0.8,4.8,0.3,5.9c0.1-0.1,0.1-0.3-0.1-0.7s-0.2-4.5,0.5-4.6s3.5,0.2,3.7,1.1
		S27.8,22.8,28.2,22.9z"/>
	<path style="fill:#BDBEBE;" d="M30.2,24.7c0,0-0.9-0.6-0.7-2.9s0.9-4.4,2.2-5.1c0.8-0.6,1.9-0.6,2.7,0c0.6,0.5,1.2,1.4,0.8,3.3
		c-0.1,0.7-0.3,1.4-0.5,2c0,0-0.1,0,0-0.6s0.7-2.9-0.1-3.7s-3.7,1.1-4,2.2c-0.3,1-0.4,2-0.5,3C30,23.8,30.6,24.9,30.2,24.7z"/>
	<path style="fill:#935B2C;" d="M31.5,39c0,0,0.2,1.5,0.4,2.1c0,1-1,6.6-1.1,8.8c0.1,1.3-0.4,2.6-1.3,3.6c-0.4-0.1-0.1-0.8,0-1.2
		s1-5.7,1.1-7S31,38.1,31.5,39z"/>
	<path style="fill:#935B2C;" d="M27.9,53.8c-0.1,0,0,4.7,0,4.7s-3.2,1.9-2.5,1.9s8.4,0.1,8.4,0.1s-0.5-1.9-3.7-2.3
		c0-3.1,0-5.4,0-5.4C29.7,53.5,28.8,53.9,27.9,53.8z"/>
	<path style="fill:#E1974F;" d="M25.8,52.6c0.4,0.3,0.9,0.6,1.3,0.9c0.1,1.3,0.2,4.9,0.2,4.9s-1.1,0.4-1.5-0.1
		C25.6,55.9,25.8,52.6,25.8,52.6z"/>
	<path style="fill:#E1974F;" d="M22.8,60.3c0.9-0.9,2-1.6,3.3-1.9c0.3,0,0.7,0,1-0.1c0,0-2.3,2-2.4,2S22.8,60.3,22.8,60.3z"/>
	<path style="fill:#8DB14C;" d="M32,15.3c0,0,0.2-2.1,3.5-1.1s4.9,3.2,4.5,4.9s-2.7,1.4-3.4,0S34.6,14.7,32,15.3z"/>
	<path style="fill:#CADB75;" d="M36.7,19.4c0.7,1.4,3,1.7,3.4,0c0.1-0.5,0.1-1-0.1-1.4c0,0,0,0,0,0.1c0,1.1-0.3,1.7-1.3,1.9
		s-2.4-2.5-3.4-3.9S32,15.3,32,15.3C34.6,14.7,35.9,18,36.7,19.4z"/>
	<path style="fill:#AF6D31;" d="M27.4,16.2c-0.5-0.1-1,0-1.5,0.3c0.3,0.1,0.5,0.3,0.5,0.7c-0.1,0.3-0.3,0.5-0.7,0.5
		c-0.3,0-0.5-0.3-0.5-0.5c-0.3,0.5-0.6,1.1-0.6,1.6c-0.5,3,1.5,3,2.1,2.8s1.3-0.5,1.8-2S28.9,16.4,27.4,16.2z"/>
	<path style="fill:#1E1D21;" d="M27.2,16.3c-0.4-0.1-0.9,0-1.3,0.3c0.3,0,0.5,0.3,0.5,0.6s-0.3,0.5-0.6,0.5c-0.2,0-0.4-0.2-0.5-0.5
		c-0.3,0.5-0.5,1-0.6,1.5c-0.5,2.8,1.3,2.7,1.8,2.6s1.1-0.5,1.6-1.9S28.6,16.5,27.2,16.3z"/>
	<path style="fill:#1E1D21;" d="M26.1,21.3c-0.4,0-0.7-0.1-1-0.3c-0.5-0.6-0.7-1.5-0.5-2.3c0.1-0.5,0.3-1.1,0.6-1.5V17v0.1
		c0,0.3,0.3,0.5,0.5,0.5c0.3,0,0.5-0.3,0.5-0.5c0-0.2-0.2-0.4-0.4-0.5h-0.1h0.1c0.4-0.2,0.9-0.3,1.3-0.3c0.4,0,0.8,0.3,1,0.6
		c0.3,0.8,0.3,1.7,0,2.4c-0.5,1.4-1.1,1.7-1.6,1.9C26.4,21.3,26.2,21.3,26.1,21.3z M25.3,17.2c-0.3,0.4-0.5,0.9-0.5,1.5
		c-0.3,0.8-0.1,1.6,0.4,2.3c0.4,0.3,0.9,0.4,1.4,0.3c0.5-0.2,1.1-0.5,1.6-1.9c0.3-0.8,0.3-1.6,0-2.4c-0.2-0.3-0.6-0.6-1-0.6l0,0
		c-0.4-0.1-0.8,0-1.2,0.2c0.3,0.1,0.5,0.4,0.4,0.7c-0.1,0.3-0.4,0.5-0.7,0.4C25.5,17.6,25.3,17.4,25.3,17.2z"/>
	<circle style="fill:#FFFFFF;" cx="25.9" cy="17.1" r="0.8"/>
	
		<ellipse transform="matrix(0.9384 -0.3455 0.3455 0.9384 -5.5073 10.7316)" style="fill:#FFFFFF;" cx="27.4" cy="20.8" rx="0.3" ry="0.7"/>
	<path style="fill:#AF6D31;" d="M33.6,16.5c-0.5-0.1-1,0-1.5,0.2c0.3,0.1,0.5,0.4,0.4,0.7c-0.1,0.3-0.4,0.5-0.7,0.4
		c-0.3-0.1-0.4-0.3-0.4-0.6c-0.4,0.5-0.6,1-0.8,1.6c-0.7,3,1.3,3.1,1.9,2.9s1.3-0.5,2-1.9S35.2,16.8,33.6,16.5z"/>
	<path style="fill:#1E1D21;" d="M33.5,16.5c-0.4-0.1-0.9,0-1.3,0.2c0.3,0.1,0.5,0.3,0.4,0.6c-0.1,0.3-0.3,0.5-0.6,0.4
		c-0.2-0.1-0.4-0.3-0.4-0.5c-0.3,0.4-0.6,0.9-0.7,1.5c-0.7,2.7,1.1,2.8,1.7,2.7s1.2-0.4,1.8-1.8S34.8,16.8,33.5,16.5z"/>
	<path style="fill:#1E1D21;" d="M32.2,21.5c-0.4,0-0.8-0.2-1.1-0.5c-0.5-0.7-0.6-1.6-0.3-2.3c0.1-0.5,0.3-1,0.7-1.5v-0.1v0.1
		c0,0.3,0.2,0.5,0.5,0.5c0.3,0,0.5-0.2,0.5-0.5c0-0.3-0.2-0.5-0.4-0.5H32h0.1c0.4-0.2,0.9-0.3,1.3-0.2c0.4,0.1,0.8,0.3,1,0.7
		c0.3,0.8,0.2,1.7-0.2,2.4c-0.5,1.3-1.2,1.6-1.7,1.7C32.4,21.4,32.3,21.4,32.2,21.5z M31.5,17.3c-0.3,0.4-0.5,0.9-0.6,1.4
		c-0.3,0.8-0.2,1.6,0.3,2.3c0.4,0.3,0.9,0.5,1.4,0.4c0.5-0.1,1.2-0.4,1.7-1.7c0.4-0.7,0.5-1.6,0.2-2.4c-0.2-0.4-0.5-0.6-0.9-0.7l0,0
		c-0.4-0.1-0.8,0-1.2,0.1c0.3,0.1,0.4,0.4,0.3,0.7c-0.1,0.3-0.4,0.4-0.7,0.3C31.7,17.7,31.5,17.5,31.5,17.3z"/>
	<circle style="fill:#FFFFFF;" cx="32.1" cy="17.3" r="0.8"/>
	
		<ellipse transform="matrix(0.961 -0.2766 0.2766 0.961 -4.5266 10.0305)" style="fill:#FFFFFF;" cx="33.3" cy="21.1" rx="0.3" ry="0.7"/>
	<path style="fill:#E5A469;" d="M22.6,26.4c0,0-0.3-0.9,0.6-1.2s1.6,0.4,1.1,1.1S22.8,28.1,22.6,26.4z"/>
	<path style="fill:#FFFFFF;" d="M24.3,27.9c0,0.7,0.2,1.5,0.4,2.2c0.3-0.3,0.4-1.3,0.4-1.3L25,28.3C24.7,28.2,24.5,28.1,24.3,27.9z"
		/>
</g>
</svg>
