<?xml version="1.0" encoding="utf-8"?>
<!-- Generator: Adobe Illustrator 22.0.0, SVG Export Plug-In . SVG Version: 6.00 Build 0)  -->
<svg version="1.1" id="Слой_1" xmlns="http://www.w3.org/2000/svg" xmlns:xlink="http://www.w3.org/1999/xlink" x="0px" y="0px"
	 viewBox="0 0 55.8 62.9" style="enable-background:new 0 0 55.8 62.9;" xml:space="preserve">
<title>Artboard 1 копия 2</title>
<g id="Слой_24">
	<path style="fill:#AE3A6F;" d="M20.8,61.3c-0.4,0-0.7-0.2-0.9-0.5c-0.1-0.4,0-0.8,0.4-1c0.3-0.2,3.7-2.5,4.9-3.2v-5.2
		c-1,0.6-2.1,1.1-3.2,1.4L21,53l-0.6,0.2c-0.9,0.2-1.8,0.3-2.6,0.3c-2,0-3.9-0.4-5.7-1.2l-0.5-0.3c-1.1,0-2.1-0.4-3-1
		c-0.2-0.1-0.3-0.2-0.5-0.3s-0.3-0.3-0.5-0.5l-0.1-0.2l-0.3-0.3C7,49.4,6.9,49.2,6.7,49c-0.4-0.6-0.5-1.4-0.3-2.1
		c0-0.2,0.1-0.4,0.2-0.6c-0.3-0.6-0.5-1.2-0.7-1.9c-0.6-1.7-0.7-3.6-0.3-5.3c0.1-0.6,0.3-1.2,0.5-1.8l0,0c0.1-0.2,0.2-0.5,0.3-0.7
		c0-0.1,0.1-0.1,0.1-0.2c0.3-0.7,0.7-1.4,1.1-2C7.8,34,8,33.8,8.2,33.5c0.9-1.3,2.2-2.2,3.7-2.7c0.5-0.2,1.1-0.4,1.6-0.4l0,0
		c0.1-2.5,0.7-8.3,4.3-12c1.3-1.4,2.7-2.7,4.3-3.9c1-0.9,2.1-1.6,3.4-2.1c0.5-0.2,0.9-0.3,1.4-0.5c0.7-0.3,1.5-0.4,2.3-0.4
		c1.4,0,2.8,0.4,4,1.1l0.4,0.2c0.4,0.3,0.8,0.6,1.2,0.9c0.2,0.2,0.4,0.5,0.6,0.8l0.6,0.7l0.2,0.2c2.1,1.2,3.4,3.4,3.6,5.8
		c0.2,1,0.2,2.1,0,3.1c-0.1,1-0.5,1.9-1,2.7c0.7,1.1,1.2,2.3,1.4,3.5c1.8,0.2,3.6,0.8,5.2,1.8c2.6,1.8,4.4,4.5,5,7.6
		c0.5,4.8-0.5,6.5-1.6,8l0,0L48,49c-0.2,2.2-2.2,3.8-4.4,3.6l0,0c-0.3,0-0.5,0-0.8,0h-0.1c-1.6,0.6-3.4,0.9-5.1,0.9
		c-1.1,0-2.1-0.1-3.2-0.4h-0.2c-0.5,0.3-1.1,0.5-1.7,0.5c-0.2,0-0.4,0-0.6,0l-0.1,3c1,0.6,4.4,2.7,5,3.1c0.4,0.4,0.5,0.7,0.4,1
		c-0.1,0.3-0.3,0.5-0.6,0.5L20.8,61.3z"/>
	<path style="fill:#FFFFFF;" d="M29.2,12c1.3,0,2.6,0.4,3.7,1l0.4,0.2l0,0c0.4,0.2,0.7,0.5,1.1,0.8c0.3,0.4,0.7,0.9,1.2,1.5l0.2,0.3
		c0,0,2.9,1.3,3.5,5.4l0,0c0.2,1,0.2,2,0,2.9c0,1-0.4,2-1.1,2.9c0,0,1,0.7,1.6,4c1.9,0.2,3.7,0.8,5.4,1.8c2.5,1.7,4.2,4.4,4.6,7.4
		c0.5,4.7-0.5,6.3-1.5,7.7l0,0l0,0.1l0,0c-0.1,0.2-0.4,0.6-0.7,1c-0.2,2-1.9,3.5-3.9,3.3c0,0,0,0,0,0c-0.3,0-0.6,0-0.8-0.1l-0.2,0.1
		l0,0c-1.6,0.6-3.3,0.9-5,0.9c-1,0-2.1-0.1-3-0.4l0,0h-0.1l-0.3-0.1c-0.5,0.4-1,0.5-1.6,0.5c-0.4,0-0.8-0.1-1.1-0.2l-0.1,3.9
		c0,0,4.6,2.8,5.2,3.2s0,0.6,0,0.6l-15.8,0.2c-0.5,0-0.5-0.4-0.2-0.7s5-3.3,5-3.3v-6.5c-1.1,0.9-2.4,1.5-3.8,1.9l-0.9,0.3l0,0
		l-0.6,0.1c-0.8,0.2-1.7,0.3-2.5,0.3c-1.9,0-3.8-0.4-5.5-1.2l0,0l-0.6-0.3l0,0c-1,0-2-0.4-2.8-0.9c-0.1-0.1-0.3-0.2-0.4-0.3
		S8.1,49.9,8,49.7l-0.1-0.2l-0.2-0.2l-0.1-0.1v-0.1c-0.1-0.2-0.2-0.3-0.3-0.5c-0.4-0.5-0.5-1.1-0.4-1.7c0.1-0.3,0.1-0.5,0.2-0.8
		c-0.3-0.6-0.6-1.3-0.7-2c-0.6-1.7-0.6-3.4-0.3-5.1c0.1-0.6,0.3-1.2,0.5-1.7l0,0c0.1-0.2,0.2-0.5,0.3-0.7s0.1-0.2,0.1-0.2v-0.1
		c0.3-0.6,0.6-1.3,1-1.9c0.2-0.3,0.4-0.5,0.6-0.7c0.9-1.2,2.1-2.1,3.5-2.6l0,0c0.6-0.2,1.2-0.4,1.8-0.4c0,0,0.1-0.1,0.3-0.4
		c0.1-2.2,0.6-8.1,4.2-11.9c1.3-1.4,2.7-2.7,4.2-3.8c1-0.8,2.1-1.5,3.3-2c0.4-0.2,0.9-0.3,1.3-0.5C27.7,12.1,28.4,12,29.2,12
		 M48.2,47.8L48.2,47.8 M29.2,11L29.2,11c-0.8,0-1.7,0.1-2.5,0.4c-0.5,0.1-1,0.3-1.4,0.5c-1.3,0.5-2.5,1.2-3.5,2.1
		c-1.6,1.2-3,2.5-4.3,3.9c-3.6,3.7-4.3,9.3-4.4,12c-0.5,0.1-1,0.2-1.4,0.4l0,0c-1.5,0.6-2.9,1.5-3.8,2.8c-0.2,0.3-0.4,0.5-0.6,0.8
		C6.7,34.6,6.3,35.3,6,36l0,0l0,0c0,0,0,0.1-0.1,0.3s-0.2,0.5-0.3,0.7l0,0c-0.2,0.6-0.4,1.2-0.5,1.9c-0.4,1.9-0.3,3.8,0.3,5.6
		C5.6,45,5.8,45.6,6,46.2c-0.1,0.2-0.1,0.3-0.1,0.5c-0.2,0.8,0,1.7,0.4,2.4c0.1,0.2,0.2,0.4,0.4,0.6l0,0l0.1,0.1l0.2,0.2l0.2,0.2
		c0.1,0.2,0.3,0.3,0.4,0.5l0.1,0.1C7.8,51,8,51.2,8.1,51.3c0.9,0.7,2,1,3.1,1.1l0.5,0.2c1.9,0.8,3.9,1.3,5.9,1.3
		c0.9,0,1.8-0.1,2.8-0.3l0.6-0.1H21l1-0.3c0.9-0.3,1.7-0.6,2.5-1v4c-1.6,1-4.4,2.9-4.7,3.1c-0.5,0.4-0.7,1-0.5,1.6
		c0.2,0.5,0.7,0.9,1.3,0.9l15.8-0.2h0.2c0.5-0.1,0.9-0.4,1-0.8c0.1-0.5-0.1-1.1-0.5-1.4l-0.1-0.1c-0.5-0.3-3.5-2.2-4.8-2.9v-2.2h0.1
		c0.6,0,1.2-0.1,1.8-0.5c1.1,0.3,2.2,0.4,3.3,0.4c1.8,0,3.5-0.3,5.2-0.9l0,0c0.2,0,0.5,0,0.7,0c2.4,0.2,4.5-1.5,4.9-3.9l0.5-0.8v0
		l0.1-0.1c1.2-1.6,2.1-3.4,1.7-8.3c-0.5-3.3-2.4-6.3-5.1-8.2c-1.5-0.9-3.2-1.6-5-1.8c-0.2-1.1-0.6-2.1-1.2-3.1
		c0.5-0.8,0.7-1.7,0.8-2.6c0.2-1.1,0.2-2.2,0-3.3c-0.2-2.5-1.6-4.7-3.8-6l-0.1-0.1l-0.5-0.7c-0.2-0.3-0.4-0.6-0.6-0.8
		c-0.4-0.4-0.8-0.7-1.3-1l-0.5-0.3C32.1,11.4,30.7,11,29.2,11z"/>
	<path style="fill:#7A1D39;" d="M13.7,30.8c0,0-3.2,0.1-5.8,3.7c-1.5,2.2-2.2,4.8-2,7.4c0.1,1.5,0.5,2.9,1.1,4.2
		c-0.3,0.8-0.8,2,1.2,4c0.9,0.8,2.1,1.2,3.3,1.3c2.7,1.4,5.7,1.8,8.7,1.2c3.9-0.8,5.4-2.4,5.4-2.4v6.4c0,0-4.7,3.1-5,3.3
		s-0.3,0.7,0.2,0.7l15.8-0.2c0,0,0.5-0.1,0-0.6s-5.2-3.2-5.2-3.2l0.1-3.9c0.9,0.3,1.9,0.2,2.7-0.3c2.8,0.8,5.9,0.7,8.6-0.5
		c1.4,0.2,4.3,0,4.8-3.3c1.2-1.8,2.8-2.8,2.3-8.7c-0.5-3-2.2-5.7-4.6-7.4c-1.6-1-3.5-1.6-5.4-1.8c-0.3-1.4-0.8-2.8-1.6-4
		c0.8-1.6,2.2-3.9,0.3-8.2c-0.6-1.2-1.5-2.3-2.6-3c-0.6-0.7-1-1.3-1.4-1.7s-3.6-3.3-8.7-1.3c-1.9,0.8-3.6,2.1-4.9,3.7
		c-1.4,2.6-6.1,11.4-6.4,13.3C14.3,30.1,14,30.5,13.7,30.8z"/>
	<path style="fill:#5B002E;" d="M25.2,13.4c0,0,3.3-3.1,8.1-0.1c0.9,0.8,1.7,1.7,2.5,2.6c0,0,2.9,1.3,3.5,5.4S38.2,27,38.2,27
		s1,0.7,1.6,4c-0.9,0-1.7,0.1-2.6,0.2c0,0,0.1-1.8-0.5-2.3c-1.6,1.3-3.3,2.5-5.1,3.4c-0.5,0.2-0.7,1.4-0.7,1.4
		c-1.3,0.5-2.6,0.9-4,1.2c-0.3-0.5-0.7-0.9-1.1-1.2c-1.8,0.2-3.5,0.2-5.3,0c-0.1,0-0.4-0.4,0.3-0.1c2.1,0.2,4.3,0.2,6.4-0.2
		c2.6-0.5,5-1.5,7.2-3c1.8-1.5,4.2-2.7,4.7-7.8c0.1-2.7-1.4-5.3-3.9-6.4c-0.8-0.9-4.8-3-7-2.8C27.2,13.4,26.2,13.4,25.2,13.4z"/>
	<path style="fill:#5B002E;" d="M27.9,47c-0.2,1.4-1.1,2.6-2.3,3.3v1.4c0,0,2.8-0.3,3,0.3c0.3,0.8,0.4,1.7,0.5,2.5
		c0.1,0.7,0.1,1.5,0,2.3c0.2,0.4,0.4,0.7,0.8,0.9c1.6,1,3.4,1.9,5.2,2.5c0.5,0,1.5,0.1,1-0.2s-5.2-3.2-5.2-3.2s-0.1,0.3-0.1-0.6
		s0-3.6,0-3.6s-2-1.3-1.9-2.4c0-0.5,0.1-1,0.3-1.5C28.7,48.2,28.2,47.6,27.9,47z"/>
	<path style="fill:#5B002E;" d="M35.5,50.2c-0.1,0.6-0.3,1.1-0.5,1.6c0.8,0.4,2.9,1.3,6.9,0.2c-0.9-0.3-3.6-1-4.2-2
		c-0.4,0.6-0.7,1-1.1,1C36.2,50.9,35.7,50.6,35.5,50.2z"/>
	<path style="fill:#5B002E;" d="M37.4,46.6c0,0-0.2-1.3-1.3-1.3c-0.7,0-1,1.6-0.9,2.6c0.4,0.4,0.6,1,0.5,1.6
		c0.3,0.3,0.6,0.5,0.9,0.4c0.4-0.2,0.6-0.5,0.6-0.9c-0.1-0.4-0.3-1.6,0.2-1.7V46.6z"/>
	<path style="fill:#5B002E;" d="M48.2,47.8c0,0-1.9,1.2-4.7-0.5c-1-0.7-1.4-0.9-1.6-1c-0.2-0.1-0.4-0.1-0.6,0
		c-0.1,0.1-0.2,0.2-0.2,0.3c0,0.5,2.2,1.7,3.3,2.1s2.5,0.7,3,0.2C47.8,48.3,48.2,47.8,48.2,47.8z"/>
	<path style="fill:#5B002E;" d="M41.2,46.2c0,0-0.4,0.1-0.4,0.3s0,0.5,0,0.5c-0.7-0.4-1.4-0.7-2.1-1c-0.2,0.1-0.3,0.3-0.2,0.5
		c0,0,0,0,0,0c-0.2-0.2-0.7-0.4-1-0.2c-0.2,0.5-0.2,1,0,1.4c0.2,0.6,0.4,0.8,0.6,0.9s0-0.2-0.1-0.4s-0.5-1.6-0.3-1.7s1,0.3,1.3,0.7
		c0.2,0.2,0.2,0,0.1-0.2s-0.4-0.8-0.3-0.8s2.9,1.5,3.1,1.6s0.3,0-0.1-0.3L40.9,47c0,0-0.2-1.2,0.6-0.4c0.2,0.2,0.1-0.2,0-0.3
		S41.4,46.2,41.2,46.2z"/>
	<path style="fill:#5B002E;" d="M29.1,48.9c0.2,0.1,0.4,0.3,0.6,0.3c-0.2-0.2-0.5-0.5-0.5-0.5L29.1,48.9z"/>
	<path style="fill:#5B002E;" d="M29.5,49.7c0,0-0.1,0.2,0.1,0.2s0.7-0.8,0.9-1.1s0.8-1.5,1.3-1.5c0.1,0.2,0.2,0.3,0.1,0.5
		c-0.1,0.2-0.2,0.3-0.3,0.5s-0.3,0.6-0.1,0.6s0.3-0.2,0.4-0.4c0.3-0.8,0.9-1.5,1.7-2c0.3-0.1,0.5-0.2,0.5,0.1c0,0.7-0.2,1.4-0.7,2
		c-0.2,0.3-0.5,0.7-0.2,0.5c0.7-0.5,1.1-1.2,1.1-2c0-0.1,0.2-0.2,0.3,0.1c0.2,0.6,0.1,1.2-0.3,1.6c-0.3,0.5-0.5,0.9-0.3,0.8
		c0.4-0.3,0.7-0.8,0.9-1.3c0.1-0.1,0.2-0.2,0.3-0.1c0.1,0,0-0.4-0.3-0.1c0-0.4,0.1-1.5-0.5-1.3c-0.1-0.3-0.1-0.8-0.7-0.6
		c-0.6,0.3-1.2,0.8-1.6,1.4c-0.1-0.3-0.1-0.8-0.8-0.2c-0.5,0.6-1,1.2-1.4,1.9C29.7,49.5,29.6,49.8,29.5,49.7z"/>
	<path style="fill:#5B002E;" d="M7.6,49.3c0,0,0-0.4,0.3-0.2c0.3,0.2,1.9,1.9,3.2,1.5s2-0.8,2.4-2c0.1-0.5,0.1-1.3,0.6-1.4
		c0.2,0,0.3,0,0.4,0.1c0-0.1-0.3-0.6-0.7-0.6c-0.2,0.1-0.4,0.3-0.5,0.5c-0.1,0.2-0.2,0.4-0.3,0.3c0-0.4,0.3-0.8,0.7-1
		c-0.1-0.2-0.4-0.7-0.7-0.7c-0.2,0.1-0.3,0.2-0.4,0.3c0,0-0.3,0.2-0.3,0V46c0,0,0.2-1.8-0.4-2.3c0,0.1-0.2,0.1-0.1,0.6
		c0,0.6,0,1.3-0.1,1.9c-0.1,0.5-0.4,1-0.7,1.3c-0.2,0.1-0.3-0.1-0.3-0.4s0-0.9,0-1.2s0.1-0.6,0.4-0.6s0.5-0.1,0.5,0.1
		s-0.1,0.3-0.2,0.2s-0.4-0.1-0.4,0.1s-0.2,1.3,0,1.2c0.3-0.6,0.5-1.3,0.6-1.9c0-0.5-0.1-1.4,0.3-1.5s0.5-0.2,0.8,0.3
		c0.4,0.5,0.5,1.2,0.4,1.8c0,0.1,0,0.1,0,0.2c0,0,1.2-0.1,1.3,0.6c0.5,0,1,0.4,1.2,0.9c0.2,0.7,0,1.5-0.4,2.1
		c-0.2,0.2-0.4,0.3-0.6,0.5c-0.6,0.8-1.3,1.5-2.2,2l-0.6-0.3C10,51.4,8.5,50.6,7.6,49.3z"/>
	<path style="fill:#5B002E;" d="M31.3,33.5c0,0,0.1,0.1-0.1,0.2c-0.9,0.5-1.6,1.3-2.2,2.1c-0.6,1-1.1,2-1.4,3.1
		c-0.1,0.8-0.3,0.4-0.2-0.1c0.1-0.5,0.3-1.1,0.5-1.6c-0.2-0.9-0.5-1.7-1.1-2.4c-0.1-0.3,0.1-0.2,0.3,0c0.5,0.6,0.8,1.3,1,2
		c0.5-1.2,1.3-2.2,2.3-3C30.8,33.8,31.2,33.3,31.3,33.5z"/>
	<path style="fill:#8F1F43;" d="M25.7,33.7c0,0-0.8,0.1-1.2,0.1c1.1,0.9,2,2.1,2.6,3.3c0.3,0.9,0.4,1.3,0.4,1.3
		c0.1-0.4,0.2-0.7,0.4-1.1C27.6,35.9,26.8,34.6,25.7,33.7z"/>
	<path style="fill:#8F1F43;" d="M27.7,46.9c-0.1-0.2-0.2-0.4-0.3-0.6c-0.3,0.5-2.1,4.7-5.9,5.3c-0.7,0.1-1.5,0.8-0.7,0.9
		c1.8-0.4,3.5-1.2,5-2.4C27,49.1,27.6,48.4,27.7,46.9z"/>
	<path style="fill:#8F1F43;" d="M10.5,45.8c0,0-2.1,1.2-3-0.8s-1.5-5.6-1-7.7C6,39.2,5,41.4,7.1,46.2c-0.3,1-0.7,1.5,0.4,3.1
		c0.1-0.2,0.1-0.5,0.8,0.3c0.6,0.5,1.9,1.9,3.8,0.6c0.6-0.5,1.1-0.6,1.4-2.4c0.2-0.4-0.3-0.6-0.4-0.4s-0.2,0.4-0.2-0.1
		c0.3-0.4,0.2-0.5,0.7-0.7c-0.1-0.1-0.2-0.3-0.3-0.4C13.2,46,13,46,12.8,46c-0.2,0.1-0.4,0.2-0.6,0.3c0,0-0.2,0-0.1-0.4
		c0-0.2,0-0.7,0-0.7s-0.1,0-0.2,0.4s-0.6,0.7-0.6,0.7s-0.3,1.1-0.7,1.1s-0.2-0.4-0.2-0.9s0-0.5,0-0.5L10.5,45.8z"/>
	<path style="fill:#8F1F43;" d="M23.1,37.9c0.6,0.5,1.1,1.2,1.2,2c0.2,1.4,0.3,5.3-1.5,6.4c0,1-0.8,4.5-3.4,4.3
		c-0.7,0-1.4,0.1-2.1,0.3c-1.1-0.1-2.5-1-2.3-1.5s1.2-2.8-0.8-3.2c-0.3-0.5-0.8-0.7-1.3-0.5c0-0.7-0.4-2.6-1.1-2.4s0.4-4.6,0.4-4.6
		s-0.7-1,0.1-1.1c1.4-0.2,2.6-1,3.4-2.1c0.5-0.7,1-1.3,1.7-1.9c-1.5,0-2.9-0.4-4.2-1c-0.8-0.8-1.3-0.8-0.9-1.1s0.8-0.5,1.3-0.2
		c1.9,1,3.9,1.7,6,2.1c-0.8,0.5-1.5,1.2-1.5,1.2s-2,2.5-2.2,2.7c0.2,0.2,0.3,0.4,1-0.2c0.4-0.3,1.7-0.4,1.9,0.2
		C20.3,37.4,21.7,37.7,23.1,37.9z"/>
	<path style="fill:#972144;" d="M27.5,39.5c-0.6,2.7-0.4,5.5,0.7,8.1c0.6,0.8,1.2,1.6,1.7,1.8c0.4-0.6,0.4-1.1,1-1.5
		c-2.4-1.7-3.5-4.7-3-7.5c0.3-1.3,0.7-2.5,1.2-3.8c0.3-0.8,0.4-1.4-0.1-0.5C28.3,37,27.8,38.2,27.5,39.5z"/>
	<path style="fill:#8F1F43;" d="M37.1,31.1c0.7-0.2,1.5-0.3,2.2-0.2c1.8,0.7,5.6,4.7,6,7.5c1.3,3.9,0.4,7.2-1.8,8.9l-1.6-1
		c1.6-2.1,2.2-4.7,1.8-7.3C42.8,35.5,40.4,32.6,37.1,31.1z"/>
	<path style="fill:#8F1F43;" d="M29.4,49.9c-0.1,0.1-0.4,0.8,0,0.8c0.8-0.2,1.4-0.6,1.9-1.3c0.5,0.6,2.7,2,3.9,0.6
		c0.3-0.4,0.4-1,0.3-1.5c-0.1-0.4-0.3-0.5-0.4-0.4c-0.2,0.4-0.4,1.2-0.9,1.3c0.1-0.3,0.2-0.5,0.3-0.8c0.3-0.6,0.5-2.1,0-1.7
		c-0.1,0.7-0.5,1.4-1,1.9c-0.1,0.1-0.4,0.4-0.2-0.1c0.5-0.4,0.8-1,0.9-1.7c-0.2,0-0.3-0.2-0.6,0.4c-0.5,0.8-0.8,1.2-1.1,1
		c-0.2-0.2-0.2-0.1-0.3-0.6c-0.2,0.5-0.3,1-0.6,0.9c0-0.3,0.1-0.6,0.3-0.9c0.1-0.1,0.1-0.3,0.1-0.5c0-0.1-0.1,0-0.3,0.3
		s-0.9,1.8-1.4,1.7c-0.4,0.3-0.4,0.4-0.6,0.4L29.4,49.9z"/>
	<path style="fill:#8F1F43;" d="M39.7,46.7c0,0-0.3,0,0,0.3s0.7,0.5,0.5,0.8s-0.8-0.3-1.1-0.5c-0.1,0.1-0.2,0-0.4-0.3
		c-0.3-0.1-0.8-0.3-0.3,0.6s0.9,1.1,0.5,1.4c-0.3,0-0.8-0.6-0.8-0.6s0,0.4-0.2,0.2c0.2,0.4,0.4,0.7,0.7,1c0.1,0.2,0.1,0.3-0.1,0.5
		c0.1,0.2,0,0.1,0.3,0.3c1.2,0.8,2.6,1.3,4.1,1.5c1,0.1,2-0.2,2.9-0.6c0.1-0.1,0.2-0.3-0.3-0.2s-3.3,0.2-4.4-0.7
		c-0.3-0.4-0.2-0.2,0-0.5s1-1.8,0.6-2L39.7,46.7z"/>
	<path style="fill:#972144;" d="M35.7,49.5c0,0.3-0.1,0.5-0.2,0.8c0.2,0.2,0.7,0.8,1.3,0.6s0.5-0.4,0.5-0.6s-0.1-0.6-0.4-0.5
		s-0.4,0.3-0.8,0.1C36,49.7,35.9,49.6,35.7,49.5z"/>
	<path style="fill:#AE3A6F;" d="M6.9,36.5c0,0-0.9,1.8-0.2,5.7c0.6,2.3,0.7,5.1,3.8,3.7c0-0.2,0-0.9,0.8-0.7c0-0.7-0.3-1.8,0.4-1.9
		c0.3,0,0.7,0.1,0.9,1s0.2,1,0.2,1s0.8-0.4,1.2,0s0.4,0.8,0.6,0.8s1.1,1,2.6-0.8c0.6-0.8,1.4-1.3,1.2-1.9s-0.1-1-0.9-1.3
		s-2.6-1.5-2.1-3c0.2-0.7,0.4-1,0.4-1.1s-0.4-0.3-0.4-0.3s-0.4-0.2,0.1-0.5c0.9-1,1.7-2,2.4-3.1c0-0.2-0.5-0.3-0.5-0.3s-3-0.2-4.2-1
		c-0.4-0.3-0.7-0.6-1-1L12,31.2C12,31.2,8.9,32,6.9,36.5z"/>
	<path style="fill:#AE3A6F;" d="M20,45.2l0.6-0.3c0,0-0.1-0.2-0.6,0c-1.1,0.2-2,0.7-2.7,1.6c-0.4,0.5-0.6,0.8-0.4,0.9
		c0.3-0.1,0.5-0.3,0.7-0.5c0.3-0.4,0.6-0.7,1-1C18.8,45.8,19.6,45.4,20,45.2z"/>
	<path style="fill:#AE3A6F;" d="M19.8,49.4c-0.1,0-0.4,0.2-0.1,0.4c1.1,0.1,2.2-0.5,2.5-1.5c0.3-0.7,0.5-1.4,0.5-2.1
		c0-0.5-0.6-0.4-0.5-0.2c0.2,1-0.1,2-0.7,2.7C21,49.1,20.4,49.4,19.8,49.4z"/>
	<path style="fill:#AE3A6F;" d="M41.9,46.3c1.7-2.2,2.4-5,1.7-7.7C43,37,41.9,33.8,38.7,32c-0.4-0.3-1.1-0.6-0.4,0
		c1.5,1,0.3,1.5-0.1,1.3c-0.7-0.6-1.4-1.2-2.2-1.8c-0.6-0.3-1.5-0.8-2-0.6c-0.8,0.5-1.6,1-2.5,1.5c-0.3,0.4-0.7,0.9-0.6,1.4
		c0.2-0.2,0.4-0.3,0.4-0.2s0.2,0.2-0.4,0.4c-0.6,0.5-1.1,1-1.6,1.5c-0.2,1-0.5,1.9-0.8,2.8c-0.4,1.5-1.6,4.1,0.6,7.4
		c0.6,0.7,1.2,1.4,1.9,2c0,0,0.6-1,1-0.7c0.1,0.1,0.3,0.3,0.3,0.3s1.4-1.6,2-1.3c0.1,0.2,0.2,0.4,0.2,0.7c0.2,0,0.3-0.1,0.4,0.1
		s0.2,0.1,0.3-0.1s0.1-1.4,1-1.7c0.3,0,0.8,0.2,1.2,1.1l0.1,0.3c0,0,0.2-0.5,0.5-0.3s0.6,0.3,0.6,0.3s-0.2-0.6,0.4-0.5
		c0.7,0.3,1.4,0.6,2,1c-0.1-0.6-0.3-0.9,0.4-0.9C41.5,46.1,41.8,46.1,41.9,46.3z"/>
	<path style="fill:#8F1F43;" d="M34.2,30.8c0,0,1-0.9,1.7-0.4c0.6,0.4,1.3,0.7,2,0.9c0.3,0.1,3.3,2.3,3.3,2.3s-2,0.5-2.9-0.2
		C37.1,32.2,35.7,31.3,34.2,30.8z"/>
	<path style="fill:#AE3A6F;" d="M35,32c-0.5-0.3-1.1-0.3-1.6-0.1c-0.7,0.4-1.2,1-1.4,1.8c0,0.6,0.1,0.8,0,0.8
		c-1.2,1.1-2.1,2.4-2.7,3.8c-0.7,2.4-1.4,6.1,2.1,8.2c0.5,0.2,1.1,0,1.4-0.5c0.6-0.3,1.6-0.7,1.9,0c0.1,0.4-0.1,0.5,0.2,0.6
		c0.1,0.2,0.5-0.1,0.7-0.8c0.2-0.4,0.7-1.3,1.4-0.5c0.3,0.4,0.7,1,0.7,1s0.1-0.6,1,0c0.1-0.2,0.1-0.7,0.8-0.2c0.5,0.3,2-1,2.4-2.9
		c0.6-3.2-0.4-6.6-2.8-8.9C37.8,33.4,36.4,32.5,35,32z"/>
	<path style="fill:#AE3A6F;" d="M31.7,47.6c0,0,0.2-0.4-0.1-0.3s-0.5,0.3-0.9,1s-0.4,1-0.1,0.7c0.3-0.4,0.5-0.8,0.8-1.2
		C31.5,47.6,31.5,47.5,31.7,47.6z"/>
	<path style="fill:#AE3A6F;" d="M34.1,47.1c0,0,0.1-0.8-0.2-0.8c-0.5,0.2-0.9,0.5-1.2,0.9c-0.3,0.4-0.8,0.6-0.3,1.1
		c0.3,0.1,0.3,0.3,0.9-0.6C33.6,47.3,33.7,46.8,34.1,47.1z"/>
	<path style="fill:#AE3A6F;" d="M33.8,48.5c0.1,0.1,0.3,0.1,0.4-0.1c0,0,0,0,0-0.1c0.3-0.4,0.4-0.8,0.5-1.2c0-0.1-0.3-0.6-0.4,0.2
		C34.2,47.7,34,48.1,33.8,48.5z"/>
	<path style="fill:#AE3A6F;" d="M35.8,49.6c-0.1-0.1-0.2,0.4,0,0.6s0.8,0.5,1.1,0.2c0.1-0.2,0-0.4-0.2-0.4
		C36.4,50,36,49.9,35.8,49.6z"/>
	<path style="fill:#AE3A6F;" d="M37.4,47.3c0,0-0.5,0.5,0,1.4c0.5,0.8,0.8,1.3,1,0.7C38.3,49,37.3,48.2,37.4,47.3z"/>
	<path style="fill:#AE3A6F;" d="M38.5,46.8c0,0-0.7-0.5-0.8-0.3c-0.1,0.7,0.1,1.5,0.6,2c0.5,0.4,0.9,0.8,1,0.3
		c-0.1-0.5-0.4-0.9-0.7-1.2C38.3,47.3,38.2,46.9,38.5,46.8z"/>
	<path style="fill:#AE3A6F;" d="M39,46.3c0,0-0.4-0.1-0.2,0.3c0.3,0.5,0.7,0.9,1.2,1.2c0.3,0,0.6,0,0-0.7c-0.2-0.1-0.3-0.3-0.4-0.4
		L39,46.3z"/>
	<path style="fill:#AE3A6F;" d="M10.6,47.4c0-0.1-0.5,0.2-0.2,0.5s1-0.2,1.2-0.6c0.5-0.9,0.7-1.9,0.6-2.8c-0.1-0.5-0.2-1.2-0.4-0.8
		c-0.1,0.4-0.2,0.7-0.1,1.1c0,0.8-0.2,1.6-0.6,2.3C10.6,47.5,10.7,47.5,10.6,47.4z"/>
	<path style="fill:#AE3A6F;" d="M13.2,46c0-0.1-0.5-0.2-0.8,0.2s0.1,0.8,0.3,0.7S13.3,46.3,13.2,46z"/>
	<path style="fill:#AE3A6F;" d="M13.8,47.3c0,0,0.7-0.3-0.1-0.5c-0.3,0.2-0.9,0.5-0.5,1c0.1,0.1,0.2,0,0.4-0.2
		C13.7,47.5,13.8,47.4,13.8,47.3z"/>
	<path style="fill:#AE3A6F;" d="M14.9,38.4c0.1-0.1-0.9,1.7,0.4,2.8s1.5,1.7,1.1,2.3s-3,1.6-3.4,1.3c-0.2-0.6-0.4-1.7-1.1-1.5
		c-0.3,0.2-0.6,0.3-0.4,1.1c0,0.2-1.7,0.1-2-1.8s-0.2-4.7,0.9-6.2c1-1.3,2.6-1.9,4.2-1.7c0.7,0.3,1.2,1,0.6,1.5
		c-0.7,0.6-3,1.8-2.3,2.5C13.5,39.1,14.3,39,14.9,38.4z"/>
	<path style="fill:#5B002E;" d="M16.9,48.4l-0.2,0.4c-0.1,0.1-0.4,0.3-0.2-0.2c0.5-1,1.2-1.9,2.1-2.6c0.7-0.4,2.1-1.4,2.9-1
		c0.6,0.5,0.9,1.3,0.7,2.1c-0.3,1-0.7,2.2-2.1,2.3c-0.9,0.1-1.8,0-2.7-0.3C17.1,48.9,16.9,48.7,16.9,48.4z"/>
	<path style="fill:#7A1D39;" d="M36.3,34.3c-1.4-1-3.3-1-4.7,0.2c-1.2,1.2-2.3,2.3-0.7,5.8c1.8,3,1.8,4,3.2,4.2s3.4,0.5,4.7-1.1
		c1.2-1.2,1.7-3,1.3-4.6c-0.1-0.4-0.4-0.8-0.7-1.1C38.6,36.4,37.5,35.2,36.3,34.3z"/>
	<path style="fill:#7A1D39;" d="M22.7,39.1c0,0,0.6,0.1,0.5,0.5c-0.4,2-1.9,3.5-3.9,3.9c-3.1,0.6-5.1-0.9-5.6-2.1
		c-0.4-0.8-0.5-1.7-0.4-2.6c-0.3,0-1.3,0.2-1.6-0.1c-0.2-0.2-0.3-0.3,0.2-0.3c0.9,0.1,1.8-0.1,2.6-0.6c1.3-0.8,2.4-1.8,3.3-3
		c0.1,0.1,0.1,0.8-0.4,1.3s-2,2.1-3.8,2.6c-0.3,1.5,0.3,3,1.6,3.9c1.6,0.8,3.8,1.1,5.1,0.3S22.8,40.2,22.7,39.1z"/>
	<path style="fill:#5B002E;" d="M20.5,33.4c0.1,0-0.6-0.3-0.9,0s-1.5,1-1.8,1.4s0.1,0.5-0.4,1.3c0.3-0.3,1.3-1.3,1.3-1.3
		s2.6,0.8,3.2,1.9c0.4,0.8,0.5,0.8,0.6,1.1s0.4,0.1,0.4,0.1c-0.2-1.3-1.1-2.3-2.4-2.8l-1.7-0.6C19.3,34.1,19.9,33.7,20.5,33.4z"/>
	<path style="fill:#3F0020;" d="M17.3,48c0.1,0,1.3-1.8,2.2-2.2c0.7-0.3,1.6-0.7,1.8-0.4c0.5,0.7,0.6,1.7,0.1,2.5
		c-0.6,0.8-1.7,1.3-2.7,1.1c-0.8-0.1-0.7,0.2-0.3,0.2s2.1,0.6,3.2-0.8c0.6-1.1,0.9-2.3,0.5-2.9c-0.5-0.4-0.9-0.6-1.3-0.5
		c-0.9,0.2-1.7,0.6-2.4,1.2C17.6,47.3,17,47.8,17.3,48z"/>
	<path style="fill:#3F0020;" d="M36.5,45.6c0.3,0.3,0.4,0.6,0.5,1c0,0.4-0.1,0.7-0.3,0.2s-0.5-1.1-0.7-1s-0.7,1.2-0.6,1.5
		s-0.2,0.5-0.2,0.2s0.1-2,0.8-2.1C36.2,45.3,36.3,45.5,36.5,45.6z"/>
	<path style="fill:#3F0020;" d="M35.5,48.4c-0.1,0.2-0.2,0.4-0.2,0.6c-0.1,0.9-0.3,1.8-0.6,2.7l-0.6,0.8l0.4,0.1
		c0.7-0.7,1.1-1.6,1.2-2.6C35.7,49.5,35.7,49,35.5,48.4z"/>
	<path style="fill:#5B002E;" d="M37.2,49l-0.1,0.3c0.5,0.7,1.2,1.3,1.9,1.8c1.1,0.5,2.3,0.8,3.5,1l0.2-0.1c0,0-2.7-0.7-3.2-0.9
		C38.6,50.7,37.8,49.9,37.2,49z"/>
	<path style="fill:#5B002E;" d="M41.6,46.4c0.4,0.3,0.8,0.5,1.2,0.8c0.9,0.6,1.9,1.1,2.9,1.5c0.4,0.2,1,0.3,1,0.3
		c-0.6,0-1.2-0.1-1.8-0.3c-1-0.4-2-1-2.9-1.8C41.8,46.7,41.2,46.6,41.6,46.4z"/>
	<path style="fill:#3F0020;" d="M11.6,51.4c0.9-0.2,1.7-0.8,2.2-1.6c0.4-0.9,0.7-2,0.4-1.9c-0.3,1.7-1.5,3.1-3.2,3.4
		C11.2,51.4,11.4,51.4,11.6,51.4z"/>
	<path style="fill:#3F0020;" d="M13.8,46.5c-0.1,0-0.4,0.1,0,0.3c0.5-0.1,1,0.2,1.1,0.7c0,0,0,0.1,0,0.1c0,0.4-0.1,0.8-0.4,1.1
		c-0.2,0.2-0.1,0.4,0.1,0.2c0.5-0.5,0.6-1.4,0.2-2C14.6,46.6,14.3,46.3,13.8,46.5z"/>
	<path style="fill:#5B002E;" d="M8.7,47.2c-0.1-0.1-0.7-0.2-0.1,0.2c0.6,0.5,1.5,0.5,2.2,0c0.4-0.6,0.7-1.3,0.9-2
		c-0.1-0.1-0.2-0.3-0.3,0.1s-0.7,1.9-1.4,1.9C9.5,47.4,9.1,47.3,8.7,47.2z"/>
	<path style="fill:#FFFFFF;" d="M22.9,38.1C22,37,20.4,36.5,19,37c-2.4,0.8-4.4,2.3-4.2,5.3c1.5,1.5,3.8,1.7,5.5,0.5
		C21.8,41.7,23.4,40,22.9,38.1z"/>
	<path style="fill:#FFFFFF;" d="M38,35.5c0,0-3.1-3-6.4-0.5c-1.5,1.1-2.6,2.6-2,5.4s4.4,4.5,6.6,3.5s3.5-2,3.5-5.2
		C39.5,37.5,38.9,36.3,38,35.5z"/>
	<path style="fill:#81BA50;" d="M14,31.3c0,0-0.3-8,4.2-12.7s7.2-6,11.2-6c2.3,0,4.5,1.4,5.4,3.5c2.2,1.4,3.5,3.8,3.4,6.4
		c0,4.6-5.2,9.2-10.8,10.4S14,31.3,14,31.3z"/>
	<path style="fill:#6EB35B;" d="M30.5,14c0,0-1.3,0.1-0.7,1c0.9,1.1,0.8,2.7-0.1,3.7c-1.2,1.6-6.1,5.6-6.7,6.3s-0.8,2,0.5,1.4
		s6.8-5.5,7.6-6.1s3.3-1,3.8-0.3c0.6,1.3,0.6,2.8,0,4.1c-0.6,1-5.8,6.6-7.9,7s-1.8,0.7-1.3,0.8s6.1,0,10-5.6c1.8-3.8,2.2-8.1-1-9.6
		c-0.4-0.3-0.8-0.7-1-1.1C33.5,15.2,32,13.7,30.5,14z"/>
	<path style="fill:#48A955;" d="M31.1,13.9c-0.2-0.1,2,1.6,1,3.4s-0.9,2.5-7.8,8.4c0,0,6.4-4.8,7.8-6.4s4.6,0.6,3.9,3.2
		s-0.2,1.1-0.6,1.9c0.7-0.9,1-2.1,1-3.2c-0.1-1.8-1.8-3.3-2.6-3.4S33.4,15.1,31.1,13.9z"/>
	<path style="fill:#AE3A6F;" d="M37.1,36c-0.1,0-1.7,0-1.6,2.1s1.5,2.7,2.5,2.3c0.7-0.3,1.3-1.1,1-2.9C38.6,36.6,38.3,36.1,37.1,36z
		"/>
	<path style="fill:#AE3A6F;" d="M21.2,37.7c-1.3-0.3-2.7,0.3-3.5,1.4c-0.8,1.5-0.8,2.8,0.3,3.8c0.8,0.4,1.5,0.8,3.7-1
		c0.7-1,1.6-2.7,0.6-3.6C22,38,21.6,37.8,21.2,37.7z"/>
	<path style="fill:#262424;" d="M20.8,38c0,0-3.4-0.3-3.5,3.1c0,0.9,1,2.3,2.2,1.9c1.1-0.3,2-0.9,2.6-1.9c0.5-1,0.9-2,0-2.6
		C21.7,38.2,21.3,38.1,20.8,38z"/>
	<path style="fill:#262424;" d="M37.9,36.4c-0.7-0.4-1.6-0.1-2,0.6c-0.1,0.1-0.1,0.2-0.1,0.4c-0.4,1.6,0.9,3,1.9,2.7s1.4-1,1-2.6
		C38.5,36.9,38.3,36.5,37.9,36.4z"/>
	<circle style="fill:#FFFFFF;" cx="36.1" cy="37.1" r="0.6"/>
	<circle style="fill:#FFFFFF;" cx="37.3" cy="37.4" r="0.3"/>
	<circle style="fill:#FFFFFF;" cx="39" cy="38.8" r="0.4"/>
	<circle style="fill:#FFFFFF;" cx="18.1" cy="39.8" r="0.7"/>
	<circle style="fill:#FFFFFF;" cx="19.3" cy="40.3" r="0.3"/>
	<path style="fill:#FFFFFF;" d="M19.2,45.7c-0.1,0-0.9,0.5-0.5,0.9s1,0.7,1.5,0.3s0.6-1.2-0.2-1.4C19.7,45.5,19.5,45.6,19.2,45.7z"
		/>
	<path style="fill:#5B002E;" d="M35.5,30.4c1.2,0.5,2.4,1.1,3.5,1.8c0.3,0.3,0.6,0.5,0.9,0.7l0.7,0.4c0.3,0.2-0.4,0.1-0.9-0.2
		s-1.9-1.3-2.3-1.5S35.2,30.5,35.5,30.4z"/>
	<path style="fill:#8F1F43;" d="M26.9,57.3c-0.2,0-0.9-0.5-2.8,0.9s-2.7,2-1.8,2s11.3,0,11.8,0s-0.2-0.3-1-0.6S26.9,57.3,26.9,57.3z
		"/>
	<path style="fill:#AE3A6F;" d="M25.6,58.6c0,0,1-0.5,0.5-1.1s-3.3,2-3.5,2.2s-0.2,1.1,0.6,0.7C24,59.8,24.8,59.2,25.6,58.6z"/>
</g>
</svg>
