<?xml version="1.0" encoding="utf-8"?>
<!-- Generator: Adobe Illustrator 22.0.0, SVG Export Plug-In . SVG Version: 6.00 Build 0)  -->
<svg version="1.1" id="Слой_1" xmlns="http://www.w3.org/2000/svg" xmlns:xlink="http://www.w3.org/1999/xlink" x="0px" y="0px"
	 viewBox="0 0 55.8 62.9" style="enable-background:new 0 0 55.8 62.9;" xml:space="preserve">
<title>Artboard 1 копия 23</title>
<g id="Слой_3">
	<path style="fill:#64946E;" d="M21.8,61.3c-0.1,0-0.1,0-0.2,0c-0.2-0.1-0.4-0.3-0.5-0.5c-0.1-0.2,0-0.5,0.2-0.7l0.1-0.1l4.4-3.1V53
		c-1.5-0.3-2.8-0.9-4-1.8c-0.8-0.6-1.5-1.4-2-2.3l0,0c-1.2-1.4-1.6-3.4-1.4-6.5h-0.2c-1.2,0-2.3-0.5-3.1-1.5c-0.5-0.7-0.8-1.6-1-2.4
		c0-0.1,0-0.1,0-0.2c-0.1-0.3-0.1-0.6-0.1-0.9l0,0c-0.2-1.2-0.1-3.2,1.4-4.3c0.7-0.6,1.6-0.9,2.5-1h0.2c0.8,0,1.5,0.3,1.8,1l0,0
		c0.2,0.2,0.3,0.5,0.3,0.7c0,0.2,0,0.5-0.2,0.7c-0.1,0.2-0.1,0.4-0.3,0.5c-0.2,0.4-0.6,0.6-1,0.8c-0.1,0-0.2,0.1-0.4,0.1h0.3
		c0.5,0,0.9,0.1,1.3,0.4c0-0.3,0.1-0.7,0.2-1.3c0-0.1,0-0.2,0-0.4c0.1-0.9,0.2-1.9,0.3-2.8s0.1-1.4,0.2-1.7c0-0.1,0-0.2,0-0.3
		c0-0.2-0.1-0.4-0.1-0.6c0-0.1-0.1-0.3-0.1-0.5L20.1,28c-0.3-1-0.1-2.1,0.4-3c0.4-1.1,0.5-2.2,0.6-3.4c0-0.3,0-0.5,0-0.7
		c0.1-0.8,0.3-3.2,2-4.5c0-0.1,0.1-0.1,0.1-0.1l0,0c0-0.1,0-0.2,0-0.4c0.1-1.4,0.4-4.1,1.9-4.5c0.5-0.1,1.1-0.3,1.7-0.4l0.5-0.1
		c0.2,0,0.4,0,0.6,0c0.4,0,0.9,0.1,1.2,0.3c0.6,0.5,1,1.8,1.3,3.3c0.1,0.5,0.2,1,0.2,1.4v0.3l0.3,0.1c0.9,0.3,1.6,0.8,2.1,1.5
		c0.4,0.8,0.5,2.7,0.6,4.9c0,0.6,0,1.3,0.1,1.5c0,0,0,0.1,0,0.1c0.5,0.7,0.7,1.5,0.7,2.3c0,0.1,0,0.2-0.1,0.4l0,0c0,0.1,0,0.1,0,0.2
		c0,0.1-0.1,0.2-0.1,0.3c-0.1,1-0.1,2.1,0,3.1l0.2,0.9c0,0.1,0,0.2,0.1,0.3l0.1,0.2c0.1,0.1,0.2,0.3,0.2,0.5v0.1
		c0.1,0.3,0.2,0.5,0.2,0.8v0.1c0-0.2,0.1-0.4,0.3-0.6c0.1-0.1,0.2-0.2,0.3-0.3c0-0.1,0.1-0.1,0.2-0.2c0.1-0.1,0.2-0.2,0.3-0.3
		l0.1-0.1c0.4-0.3,0.8-0.4,1.3-0.4h0.3c1.1,0,2.2,0.5,2.9,1.3c0.3,0.5,0.5,1,0.7,1.5c0.6,1.9,0.8,4.6-0.8,6l-0.2,0.1
		c-0.7,0.7-1.6,1.2-2.6,1.4c0.4,1.6,1.1,5.6-2,8.5c-1.1,1.1-2.5,1.9-4,2.4V57c0.8,0.5,3.4,2.2,4.3,2.7c0.4,0.2,0.5,0.7,0.3,1.1
		c0,0.1-0.1,0.2-0.2,0.2c-0.1,0.1-0.2,0.1-0.3,0.1c-1.6,0-5.8,0-9.1,0L21.8,61.3z M17.5,35.9c-0.1,0.1-0.1,0.2-0.1,0.3
		c0,0.1,0,0.1-0.1,0.2c0.3-0.3,0.6-0.4,1-0.4H18h-0.1L17.5,35.9L17.5,35.9z M35.4,35.1c0,0.1,0.2,0.5,0.3,0.8c0.3-0.1,0.7-0.2,1-0.2
		l-0.3-0.1c-0.4-0.1-0.8-0.4-1-0.8l0,0L35.4,35.1z M37.6,35.7c0.1,0,0.2,0,0.3,0.1c0-0.1,0-0.1,0-0.2l0,0
		C37.9,35.6,37.8,35.6,37.6,35.7L37.6,35.7z"/>
	<path style="fill:#FFFFFF;" d="M27.9,11.4c0.3,0,0.6,0.1,0.9,0.2c0.6,0.4,0.9,2,1.1,3c0.1,0.4,0.2,0.9,0.2,1.4l0,0v0.1
		c0,0.2,0,0.3,0,0.4v0.1c0.1,0,0.3,0.1,0.4,0.2c0.8,0.2,1.5,0.7,2,1.4c0.6,1.2,0.5,5.9,0.6,6.3v0.1c0,0,0,0,0,0.1
		c0.5,0.6,0.7,1.4,0.7,2.2c0,0.1,0,0.2-0.1,0.4l0,0c0,0.1-0.1,0.2-0.1,0.3c-0.2,1.1-0.2,2.3,0,3.4c0.1,0.4,0.1,0.7,0.2,0.9
		S34,32,34,32.1l0.1,0.4h0.1h-0.1c0.1,0.4,0.3,0.8,0.3,1l0,0l0.2,0.7l0,0l0,0l0.3,0.9c0.1,0.2,0.3,1,0.4,1.5
		c0.5-0.4,1.2-0.6,1.8-0.5h0.1c0.4,0,0.8,0.2,1,0.5c0.1-0.4,0.2-1.5-0.2-1.6c-0.1,0-0.3-0.1-0.4-0.1l0,0c-0.1,0.1-0.1,0.1-0.2,0.2
		h-0.1H37c-0.2,0-0.3,0-0.5-0.1c-0.3-0.1-0.6-0.3-0.8-0.6c-0.1-0.1-0.2-0.3-0.2-0.5c-0.1-0.1-0.1-0.3-0.1-0.4c0-0.2,0.1-0.3,0.2-0.5
		c0.1,0,0.2-0.1,0.3-0.1c0.1-0.2,0.3-0.3,0.4-0.4l0,0c0.3-0.2,0.7-0.4,1.1-0.4h0.2c1,0,1.9,0.4,2.5,1.2c0.3,0.4,0.5,0.9,0.6,1.4
		c0.6,1.7,0.8,4.2-0.6,5.5L40,40.4c-0.6,0.2-1.2,0.3-1.8,0.2l0,0c0.6,0,1.2,0,1.8-0.2c-0.7,0.7-1.6,1.1-2.5,1.3h-0.2H37l0,0
		c0,0,2,5.2-1.7,8.6c-1.1,1.2-2.6,2-4.1,2.4v4.7l0,0c0,0,3.5,2.2,4.5,2.9c0.2,0.1,0.2,0.3,0.2,0.4c0,0-0.1,0.1-0.1,0.1
		c-1.6,0-5.7,0-9.1,0h-4.9c-0.1,0-0.2-0.2-0.2-0.3c0,0,0-0.1,0.1-0.1c0.8-0.6,4.6-3.3,4.6-3.3v-4.5c-1.5-0.2-2.9-0.8-4.2-1.7
		c-0.7-0.6-1.4-1.3-1.9-2.2h0.1c-1.3-1.4-1.7-3.3-1.3-6.9v-0.1l-0.1,0l0,0c-0.2,0.1-0.5,0.1-0.8,0.1c-1,0-2-0.4-2.6-1.3
		c-0.5-0.7-0.8-1.4-1-2.3v0.1c-0.1-0.3-0.1-0.7-0.2-1l0,0c-0.1-0.8-0.1-2.8,1.2-3.9c0.6-0.5,1.4-0.9,2.2-0.9h0.2
		c0.6-0.1,1.2,0.2,1.5,0.8l0,0c0.1,0.1,0.2,0.3,0.2,0.5c0,0.1,0,0.3-0.1,0.4c0,0.2-0.1,0.3-0.2,0.5c-0.2,0.3-0.5,0.5-0.8,0.6
		c-0.2,0.1-0.3,0.1-0.5,0.1h-0.4h-0.1c-0.1,0-0.2-0.1-0.2-0.2c-0.3,0.2-0.5,0.5-0.5,0.8c-0.1,0.2-0.1,0.4-0.1,0.7
		c0.1,0.4,0.3,0.5,0.5,0.5c0.1,0,0.2,0,0.2,0c0-0.2,0.1-0.6,1-0.7h0.2c1.4,0,1.3,0.9,1.4,1c0,0,0,0,0.1,0.1l0,0c0-0.1,0-0.2,0.1-0.4
		l0.1-0.2c0.2-0.7,0.3-1.4,0.3-2.1l0,0c0.2-1.7,0.4-4,0.5-4.6l0,0c0-0.1,0-0.2,0-0.4c-0.1-0.3-0.2-0.7-0.3-1.1l-0.3-0.9
		c-0.2-0.9-0.1-1.8,0.3-2.6c0.5-0.7,0.6-3.5,0.7-4.3s0.3-3.2,2-4.3c0.2,0,0.4-0.1,0.6-0.1l0,0c-0.2,0-0.4,0-0.6,0.1l0.2-0.1
		c0,0,0-0.1,0-0.1c0.1-0.8,0.2-4.1,1.6-4.5c0.6-0.1,1.1-0.3,1.6-0.4l0.4-0.1h0.5 M28.3,16.8h0.4l0,0H28.3 M32,28.5L32,28.5
		 M37.6,34.8c0.1-0.1,0.3-0.1,0.4-0.1l0,0C37.9,34.7,37.7,34.7,37.6,34.8L37.6,34.8 M17.2,37.7c0.1,0,0.2-0.1,0.3-0.1
		C17.4,37.7,17.3,37.7,17.2,37.7c-0.1,0-0.2-0.1-0.5-0.3C16.9,37.6,17,37.7,17.2,37.7 M37.8,37.7L37.8,37.7c0,0.1,0.1,0.1,0.2,0.1
		l0,0C37.9,37.8,37.8,37.8,37.8,37.7L37.8,37.7 M34.7,38.6c0-0.1,0-0.2,0-0.3l0,0C34.7,38.4,34.7,38.5,34.7,38.6 M34.7,39.5
		c0,0.2,0,0.4,0.1,0.6C34.7,39.9,34.7,39.7,34.7,39.5c0-0.2,0-0.4,0-0.5l0,0C34.7,39.1,34.7,39.3,34.7,39.5 M16.3,40.3
		c0.4,0.1,0.8,0.2,1.2,0.3C17.1,40.6,16.7,40.5,16.3,40.3L16.3,40.3L16.3,40.3 M17.7,40.6L17.7,40.6 M25.5,41.1L25.3,41h0L25.5,41.1
		 M19,41.7L19,41.7v-0.2v0C19,41.6,19,41.7,19,41.7 M18.8,42L18.8,42 M27.9,10.4L27.9,10.4c-0.2,0-0.4,0-0.6,0l-0.5,0.1
		c-0.6,0.1-1.2,0.2-1.7,0.4c-1.9,0.5-2.1,3.3-2.3,4.9v0.2V16c-1.7,1.4-2,3.9-2.1,4.8c0,0.2,0,0.4,0,0.7c0,1.1-0.2,2.1-0.5,3.1
		c-0.6,1.1-0.8,2.3-0.5,3.5l0.2,0.6L20,29c0,0.1,0.1,0.3,0.1,0.5c0.1,0.2,0.1,0.3,0.1,0.5c0,0,0,0.1,0,0.1l0,0
		c0,0.3-0.1,0.9-0.2,1.6L20,32.3c-0.5-0.4-1.2-0.7-1.8-0.7H18c-1,0-2,0.4-2.8,1.1c-1.7,1.3-1.8,3.6-1.6,4.8l0,0
		c0,0.3,0.1,0.5,0.1,0.8c0,0.1,0,0.2,0,0.3c0.2,0.9,0.6,1.8,1.1,2.6c0.7,1,1.9,1.6,3.1,1.7c-0.2,2.9,0.3,4.8,1.5,6.3
		c0.5,0.9,1.3,1.7,2.1,2.4c1.1,0.9,2.4,1.5,3.8,1.8v3.2l-4.2,3c-0.1,0.1-0.2,0.1-0.2,0.2c-0.3,0.3-0.4,0.7-0.3,1.1
		c0.1,0.4,0.4,0.7,0.7,0.9c0.1,0.1,0.3,0.1,0.4,0.1h4.9c3.3,0,7.5,0,9.1,0c0.2,0,0.5-0.1,0.6-0.2c0.6-0.5,0.7-1.3,0.2-1.9
		c-0.1-0.1-0.2-0.2-0.3-0.3c-0.8-0.5-3.1-2-4.1-2.6v-3.4c1.4-0.5,2.7-1.3,3.8-2.4c2.2-2.2,3.1-5.5,2.3-8.5c0.9-0.3,1.7-0.7,2.3-1.3
		l0.1-0.1l0.1-0.1c1.8-1.5,1.6-4.4,0.9-6.5c-0.2-0.6-0.5-1.1-0.8-1.6c-0.8-1-2-1.6-3.3-1.6h-0.3c-0.6,0-1.1,0.2-1.6,0.5l-0.2,0.1
		c-0.1,0.1-0.2,0.2-0.3,0.3l-0.2,0.2l0,0c0-0.1-0.1-0.2-0.2-0.4v-0.1c0-0.1,0-0.2-0.1-0.3l-0.2-0.9c-0.1-1-0.1-2,0-2.9
		c0-0.1,0.1-0.2,0.1-0.3c0,0,0-0.1,0-0.1v0c0-0.1,0.1-0.3,0.1-0.4c0-0.9-0.2-1.8-0.8-2.6v-0.1c0-0.2,0-0.8,0-1.3
		c-0.1-2.4-0.2-4.3-0.6-5.1c-0.5-0.8-1.3-1.5-2.3-1.8l0,0v-0.1c-0.1-0.5-0.1-1-0.2-1.4c-0.4-1.6-0.7-2.9-1.5-3.5
		C29.1,10.5,28.5,10.4,27.9,10.4L27.9,10.4z"/>
	<path style="fill:#7FB38B;" d="M40.9,34.7c-0.1-0.5-0.4-0.9-0.6-1.4c-0.7-0.8-1.7-1.3-2.7-1.2c-0.5,0-1,0.3-1.4,0.6
		c-0.1,0.1-0.2,0.2-0.3,0.3c-0.6,1,0.5,1.7,0.7,1.9s0.4,0.1,0.7,0.1c0.3-0.3,0.7-0.5,1.1-0.6c0.6,0,0.6,0.3,0.7,1s0.1,1.4-0.1,1.7
		s-0.7,0.8-0.9,0.3s0-0.2,0.2-0.2s0.3-0.1,0.2-0.4l0,0c0,0,0,0,0-0.1v-0.1c-0.1-0.2-0.4-0.4-1.1-0.4c-0.6,0-1.2,0.1-1.8,0.5l0,0
		c-0.3,0.6-0.5,1.3-0.5,2c0.2,1,1,1.7,2,1.8c1,0.1,2.1,0.1,3.1-0.2l0.2-0.1C41.7,38.9,41.4,36.4,40.9,34.7z"/>
	<path style="fill:none;" d="M32.1,28.1L32.1,28.1C32.1,28.1,32,28.1,32.1,28.1z"/>
	<path style="fill:#9DCAA2;" d="M32.6,24.9c-0.5,0.1,0-0.1,0-0.6s0.6-1.6,0.3-2.7s-0.1-1.8-0.5-2.4c-0.5-0.6-1-1-1.6-1.4
		c-0.1-0.1-1.8-0.2-1.9-0.8c-0.1,0,0-0.1-0.1-0.1l-0.3,0.1V17c-0.1-0.1-0.1-0.2-0.2-0.2c-0.1-0.1-0.2-0.1-0.3-0.2
		c-0.2-0.1-0.5-0.3-0.7-0.3s-0.4,0.2-0.6,0.4c-0.2,0.1-0.4,0.3-0.5,0.4L26,17.2l-0.1-0.1c-0.3-0.2-0.7-0.4-1.1-0.5
		c-0.4-0.1-0.8-0.1-1.2,0c-1.6,1.1-1.9,3.5-2,4.3s-0.2,3.6-0.7,4.3c-0.4,0.8-0.5,1.7-0.3,2.6c0.3,0.8,0.6,1.6,0.6,2.4
		c-0.1,0.9-0.5,5.8-0.8,6.6l-0.1,0.2c0,0.2-0.1,0.3-0.1,0.4s-0.1-0.1-0.5,0s-0.3,0-0.5-0.2s-0.2-0.2-0.8-0.2s-0.4,0.2-0.7,0.4
		s-0.4,0.2-0.8-0.1s-0.2-0.8,0-1.2c0-0.1,0-0.1,0.1-0.2c0.2-0.5,0.6-1,1-0.8c0.7,0.2,1.4-0.3,1.6-1.3s-1-1.6-2.4-1.1
		c-0.8,0.3-1.6,0.9-2,1.6c-0.8,0.8-0.9,2.6-0.5,4.1c0.3,0.7,1,1.3,1.7,1.6c2,0.6,2.7,0.2,3.4-0.5s-0.1,1.1-0.8,2.2
		c-0.4,3.6,0.1,5.6,1.4,7c1.7,1.7,3.9,2.8,6.3,3.2c2.1,0.2,5.2-0.8,5.8-3.5c0.9-4.1-1.1-6.3-2.3-6.3c-1.7-0.1-3.3-0.5-4.8-1.3
		c0.8,0.3,1.6,0.5,2.5,0.5c3,0.2,4.9-3.1,5-5.7c0.1-2.4-0.2-4.9-0.7-7.2c0,0.5-0.1-0.1-0.1,0l0.2,0.1c0.1,0.1,0.3,0.2,0.9-0.4
		c0.3-0.4,0.5-0.8,0.6-1.3c-0.1-0.9-0.4-1.8-1-2.5C32.9,24.3,33.3,24.7,32.6,24.9z"/>
	<path style="fill:#B8D8BB;" d="M24.1,16.6c-0.2,0-0.3,0.1-0.6,0.5c-0.4,0.4-0.7,0.8-1,1.2c-0.4,0.8-0.7,1.7-0.7,2.6
		c-0.1,0.8-0.3,4.5-0.3,4.5s0.7-2.9,1-4c0.1-0.8,0.4-1.5,0.8-2.1c0.4-0.5,1.1-0.9,1.8-0.9c0.5,0,1,0.3,1.3,0.7c0-0.6,0-1.2-0.2-1.8
		c-0.3-0.5-0.6-0.5-1.4-0.7L24.1,16.6z"/>
	<path style="fill:#7FB38B;" d="M24.8,26c0,0,0.4,2.1,2.2,2.1s2.5-2.5,2.5-2.5l-1.9-2.8h-2.1L24.8,26z"/>
	<path style="fill:#9DCAA2;" d="M26.4,52.3l-0.1,0.1L26.4,52.3l0,4.7c0,0-3.8,2.7-4.6,3.3c-0.1,0.1-0.1,0.3,0,0.4c0,0,0.1,0,0.1,0.1
		c0,0,11.1,0,14,0c0.1-0.1,0.2-0.3,0.1-0.5c0,0-0.1-0.1-0.1-0.1c-1-0.7-4.5-2.9-4.5-2.9v-4.7l-1.9,0.2L26.4,52.3z"/>
	<path style="fill:#7FB38B;" d="M37.5,41.6l-0.6-0.2c-1.1-0.1-2-1-2-2.1c-0.1-0.9,0.1-1.8,0.5-2.6c-0.2-0.7-1.1-3.5-1.4-4.6
		c-0.4-1.5-0.5-3.1-0.3-4.7c0,0,0.1-0.3,0.1-0.3c-0.1,0.4-0.3,0.7-0.5,1c-0.3,0.4-0.9,0.5-1.3,0.2c0.3,2.2,0.4,4.4,0.4,6.7
		c0,3.3-1,6.1-4.5,6.1c-0.8,0-1.7-0.1-2.5-0.3c-0.2,0.4,0.1,0.6,0.6,0.8c1.4,0.4,2.8,0.6,4.2,0.6c1.2,0,3.2,2.2,2.3,6.3
		c-0.6,2.7-3.7,3.4-5.8,3.2c-2.5-0.2-5-1.9-6.4-3c0.5,0.8,1.1,1.6,1.9,2.2c1.2,0.9,2.7,1.5,4.2,1.7c1.2,0.1,2.3,0.3,3,0.3
		c0.6,0,1.3-0.1,1.9-0.2c1.6-0.4,3-1.2,4.2-2.4c3.7-3.4,1.7-8.6,1.7-8.6C37.2,41.6,37.4,41.6,37.5,41.6z M28,52.2L28,52.2z M27,51.7
		v0.4l0.4,0.1L27,51.7z"/>
	<ellipse style="fill:#7FB38B;" cx="25" cy="22.5" rx="2.4" ry="3.9"/>
	<ellipse style="fill:#7FB38B;" cx="30" cy="22.4" rx="2.4" ry="3.9"/>
	<ellipse style="fill:#CBE2CC;" cx="24.8" cy="22.8" rx="2.4" ry="3.9"/>
	<ellipse style="fill:#CBE2CC;" cx="29.9" cy="22.7" rx="2.4" ry="3.9"/>
	<ellipse style="fill:#FFFFFF;" cx="24.8" cy="23" rx="2.4" ry="3.7"/>
	<ellipse style="fill:#FFFFFF;" cx="29.9" cy="23" rx="2.4" ry="3.7"/>
	<path style="fill:#7FB38B;" d="M26.3,52.5c0,0,1.3,0,2.5,0s2.5,0,2.5,0v4.7c-0.2,0-0.4,0-0.6,0c-0.3-0.1-0.6-0.3-0.9-0.5
		c-0.5-0.6-0.2-2.9-0.9-3.1C28,53.5,27.1,53.1,26.3,52.5z"/>
	<path style="fill:#AFD3B2;" d="M27.1,53.4c0.3,0.1,0.6,0.2,0.9,0.3c0.1,1.2,0.1,2.5,0,3.7c-0.7,0.8-1.5,1.5-2.3,2.2
		c-0.4,0.4,0.3,0.3,1,0.4c1.6,0,3.1,0,4.7,0.2c0.1,0.1-0.1,0.2-0.1,0.2l-8.4,0.1c0,0,3.8-2.6,3.9-2.7s0.3-0.1,0.4-0.5
		C27.2,55.8,27.2,54.6,27.1,53.4z"/>
	<path style="fill:#64946E;" d="M26.3,52.5c0.9,0.2,1.7,0.2,2.6,0.2c0.8,0,1.5,0,2.3-0.2c0,0,0,0.3,0,1c0,0.3-1.3-0.1-1.9-0.2
		C28.3,53.2,27.3,52.9,26.3,52.5z"/>
	<path style="fill:#7FB38B;" d="M28,34.6h0.2V32h-0.1c-0.3,0-0.5,0-0.8,0v2.7h-0.2v0.2c0.3,0,0.6,0.1,0.9,0.1V34.6z"/>
	<path style="fill:#64946E;" d="M31.8,32.8c0-0.5,0-0.9-0.1-1.4c-0.5,1.3-1.5,2.3-2.9,2.7v0.1C30,34.2,31.1,33.7,31.8,32.8z"/>
	<path style="fill:#64946E;" d="M24.3,34c-0.4-0.2-0.7-0.5-0.9-0.9c0.1,1.5,0.2,3.5,1.7,4.7c0.8,0.7,1.9,1,2.9,0.9
		c-0.8-0.1-1.5-0.4-2.1-0.9C24.9,36.8,24.3,35.4,24.3,34z"/>
	<path style="fill:#CBE2CC;" d="M28.9,34.1v-2.5c-0.2,0-0.4,0-0.6,0h-0.2v2.6C28.4,34.2,28.6,34.2,28.9,34.1z"/>
	<path style="fill:#7FB38B;" d="M31.8,32.8c-0.6,0.7-1.5,1.2-2.4,1.4c-0.8,0.4-1.1,0.1-1.1,0.1l-0.4-2.6l0,0
		c-0.4,0.1-0.8,0.2-1.2,0.3l-2-0.2c-1-0.1,0.1,2.5-0.4,2.2c0,1.4,0.6,2.8,1.6,3.8c0.6,0.5,1.3,0.8,2.1,0.9c1-0.1,1.9-0.5,2.6-1.1
		C31.6,36.8,31.9,34.7,31.8,32.8z"/>
	<path style="fill:#64946E;" d="M27.9,31.7c-0.1,0.9,0,1.8,0.2,2.7c0,0.1,0.1,0.2,0.3,0.2c1.4,0,2.7-0.7,3.5-1.8
		c-0.1-1.4-0.5-3.4-0.5-3.4S30,31.6,27.9,31.7z"/>
	<path style="fill:#FFFFFF;" d="M28.1,31.7c0,0,0,1.6,0,2.3c0,0.2,0.2,0.3,0.3,0.3c1.6-0.1,3-1.2,3.4-2.8c-0.1-1.4-0.3-2.4-0.3-2.4
		C30.8,30.4,29.6,31.4,28.1,31.7z"/>
	<path style="fill:#64946E;" d="M26.7,31.7c0.4,0.1,0.8,0.1,1.3,0v0.8l-1.3,0.4V31.7z"/>
	<path style="fill:#7CA688;" d="M32.1,28.1L32.1,28.1C32.1,28.1,32,28.1,32.1,28.1z"/>
	<path style="fill:none;" d="M32.1,28.1L32.1,28.1C32.1,28.1,32,28.1,32.1,28.1z"/>
	<path style="fill:#7FB38B;" d="M30.2,16.6v-0.1h-0.1c-0.5,0-1,0.1-1.5,0.2c-0.1-0.1-0.1-0.2-0.2-0.2c-0.1-0.1-0.2-0.2-0.4-0.2
		c-0.3-0.1-0.5-0.1-0.8-0.1c-0.3,0-0.6,0.1-0.8,0.2c-0.2,0.1-0.4,0.3-0.5,0.4c-0.3-0.2-0.7-0.4-1.1-0.4c-0.3-0.1-0.7-0.1-1,0
		c0,0.1,0,0.1,0,0.1l-0.2,0.1c0.4-0.1,0.8-0.1,1.2,0c0.4,0.1,0.8,0.3,1.1,0.5l0.3,0l0.2-0.2c0.1-0.2,0.3-0.3,0.5-0.4
		c0.2-0.1,0.2-0.1,0.4-0.1c0.2,0,0.5,0,0.7,0.1c0.1,0,0.2,0.1,0.3,0.2c0.1,0.1,0.2,0.1,0.2,0.2l0.1,0.1h0.1c0.5-0.1,1-0.2,1.5-0.2
		h0.5C30.5,16.7,30.4,16.7,30.2,16.6z"/>
	<path style="fill:#7FB38B;" d="M30.2,16.5c0-0.6-0.1-1.3-0.3-1.9c-0.2-1-0.6-2.5-1.1-3c-0.4-0.2-0.9-0.3-1.4-0.2
		c0.6,0.8,1,1.8,1.2,2.8c0.2,0.8,0.3,1.7,0.4,2.5c0.4,0,0.7-0.1,1-0.2L30.2,16.5z"/>
	<path style="fill:#9DCAA2;" d="M25,40.7c-0.1,0-1.9-0.9-3-4s0.5,6.7-0.9-5.1c0-0.1-0.3,5.9-0.8,6.8c-0.6,1.2-1,2.4-1.2,3.8
		c-0.2,1.6,0.1,3.1,0.8,4.5c0.9,1.9,4.3,2.5,5-1.2S25,40.7,25,40.7z"/>
	<path style="fill:none;" d="M32.1,28.1L32.1,28.1C32.1,28.1,32,28.1,32.1,28.1z"/>
	<path style="fill:#7FB38B;" d="M19.2,41.4c0.2-0.7,0.3-1.2,0.5-1.7c-0.7,0.6-1.3,1.1-3.3,0.4c-0.8-0.3-1.4-1-1.8-1.8
		c0.2,0.8,0.5,1.6,1,2.3c0.8,1,2.1,1.5,3.3,1.2l0,0C19.2,41.7,19.2,41.6,19.2,41.4z"/>
	<path style="fill:none;" d="M32.1,28.1L32.1,28.1C32.1,28.1,32,28.1,32.1,28.1z"/>
	<path style="fill:#7FB38B;" d="M21.6,31.1c0.3-1.2,0.8-0.8,1.2-1.8c0.3-0.6,0.4-1.2,0.3-1.9c0,0,0.3,2.5-2.1,1.3h-0.1
		c0.2,0.5,0.3,1,0.3,1.5c-0.1,0.5-0.2,1.8-0.3,3.2C20.9,33.5,21.4,32.2,21.6,31.1z"/>
	<path style="fill:none;" d="M38.4,36.8L38.4,36.8L38.4,36.8L38.4,36.8z"/>
	<path style="fill:#64946E;" d="M38.2,35.1c0.4,0.2,0.2,1.5,0.2,1.7s0,0.3-0.2,0.4s-0.4-0.3-0.2,0.2s0.7,0,0.9-0.3s0.1-1,0.1-1.7
		s-0.1-1-0.7-1c-0.4,0.1-0.8,0.3-1.1,0.6C37.5,35,37.9,35,38.2,35.1z"/>
	<path style="fill:#7CA688;" d="M38.3,36.7L38.3,36.7C38.3,36.7,38.3,36.7,38.3,36.7z"/>
	<path style="fill:#9DCAA2;" d="M28.6,14.2c-0.2-1-0.6-1.9-1.2-2.8L27,11.5c-0.4,1.5-0.5,3.1-0.3,4.7c0.2-0.1,0.4-0.1,0.5-0.1
		c0.3,0,0.6,0,0.8,0.1c0.1,0.1,0.2,0.1,0.4,0.2c0.1,0.1,0.2,0.1,0.2,0.2l0.4-0.1C28.9,15.8,28.8,15,28.6,14.2z"/>
	<path style="fill:#CBE2CC;" d="M27,11.5c-0.5,0.1-1,0.2-1.6,0.4c-1.4,0.4-1.5,3.7-1.6,4.5c0.3-0.1,0.7-0.1,1,0
		c0.4,0.1,0.8,0.2,1.1,0.4c0.1-0.2,0.3-0.3,0.5-0.4c0.1,0,0.2-0.1,0.3-0.1C26.5,14.7,26.6,13,27,11.5z"/>
	<path style="fill:#7FB38B;" d="M26,11.7c-0.1,0.2-0.1,0.3-0.2,0.5c-0.1,0.5-0.3,1-0.4,1.5c0,0.3-0.1,0.5-0.1,0.8s-0.1,0.5-0.1,0.8
		c0,0.3,0,0.5,0,0.8c0,0.1,0,0.3,0.1,0.4c0,0.1,0.1,0.2,0.2,0.4c0-0.1-0.1-0.2-0.1-0.4c0-0.1,0-0.3,0-0.4c0-0.1,0-0.3,0-0.4
		s0-0.3,0-0.4c0.1-0.5,0.2-1,0.3-1.5c0-0.3,0.1-0.5,0.1-0.8l0.1-0.8l0.1-0.6L26,11.7z"/>
	<path style="fill:#9DCAA2;" d="M37,41.6h0.6c0.9-0.2,1.8-0.6,2.5-1.3c-1,0.3-2,0.3-3.1,0.2c-1-0.1-1.9-0.8-2.1-1.8
		c0,0.2,0,0.4,0,0.6C35,40.4,35.9,41.4,37,41.6z"/>
	<path style="fill:none;" d="M32.1,28.1L32.1,28.1C32.1,28.1,32,28.1,32.1,28.1z"/>
	<path style="fill:#64946E;" d="M16.9,37.3c0.5,0.3,0.5,0.4,0.8,0.1s0.1-0.4,0.7-0.4s0.6,0,0.8,0.2s0.1,0.3,0.5,0.2s0.5,0.3,0.5,0
		s0.1-0.2,0.1-0.4c-0.2,0.6-0.1,0.4-0.2,0.4s0-1.1-1.6-1c-1,0-1,0.5-1,0.7c-0.3,0.1-0.6,0.1-0.7-0.5c0-0.2,0-0.5,0.1-0.7
		c-0.1,0.1-0.1,0.1-0.1,0.2C16.6,36.7,16.4,37,16.9,37.3z"/>
	<path style="fill:#7FB38B;" d="M33.2,24.5c-0.2-0.4,0-5.2-0.6-6.3c-0.5-0.7-1.2-1.2-2-1.4H30c-0.4,0-0.9,0-1.4,0.1
		c0.1,0.3,0.2,1,0.3,1.5c0.3-0.3,0.7-0.4,1.2-0.4c1.4,0,2.6,1.9,2.6,4.2c0,1-0.2,1.9-0.6,2.7c0.1,0,0.3,0.2,0.5,0.1
		C33.3,25,33.2,24.6,33.2,24.5L33.2,24.5z"/>
	<path style="fill:#64946E;" d="M18.8,33.1c0.2,0,0.3,0,0.5,0.1c0.1,0.1,0.3,0.2,0.4,0.3c0.1,0.1,0.2,0.3,0.2,0.5
		c0,0.2,0,0.4-0.2,0.5c-0.1-0.1-0.1-0.3-0.2-0.4l-0.2-0.3L19,33.5C18.9,33.3,18.8,33.2,18.8,33.1z"/>
	<path style="fill:#64946E;" d="M18.5,33.9c0.1,0,0.3,0,0.4,0c0.1,0.1,0.2,0.1,0.3,0.2c0.2,0.2,0.2,0.5,0,0.7
		c-0.1-0.1-0.2-0.2-0.2-0.2l-0.1-0.2c0-0.1-0.1-0.1-0.1-0.2C18.6,34.1,18.5,34,18.5,33.9z"/>
	<path style="fill:#64946E;" d="M17.5,34.5c0,0.1,0.1,0.3,0.1,0.4c0,0,0.1,0.1,0.1,0.1c0,0,0.1,0,0.1,0l0.2,0h0.2
		c0.1,0,0.2-0.1,0.4-0.1c0.2-0.1,0.5-0.2,0.6-0.4c0.2-0.7,0.4-0.6,0.6-0.6c0,0.3-0.1,0.6-0.3,0.9c-0.2,0.3-0.5,0.5-0.8,0.6
		c-0.2,0.1-0.3,0.1-0.5,0.1h-0.4h-0.1c-0.1,0-0.2-0.1-0.3-0.2c0-0.1-0.1-0.2-0.1-0.3C17.4,34.8,17.4,34.6,17.5,34.5z"/>
	<path style="fill:#64946E;" d="M36.5,32.8c-0.2,0-0.3,0-0.5,0.1c-0.1,0.1-0.3,0.2-0.4,0.3c-0.1,0.1-0.2,0.3-0.2,0.5
		c0,0.2,0,0.4,0.2,0.5c0.1-0.1,0.1-0.3,0.2-0.4l0.2-0.3l0.2-0.3C36.4,33.1,36.4,32.9,36.5,32.8z"/>
	<path style="fill:#64946E;" d="M36.8,33.7c-0.1,0-0.3,0-0.4,0c-0.1,0.1-0.2,0.1-0.3,0.2c-0.2,0.2-0.2,0.5,0,0.7
		c0.1-0.1,0.2-0.2,0.2-0.2l0.2-0.2c0.1-0.1,0.1-0.1,0.2-0.2C36.7,33.9,36.8,33.8,36.8,33.7z"/>
	<path style="fill:#64946E;" d="M37.8,34.2c0,0.1-0.1,0.3-0.1,0.4c0,0-0.1,0.1-0.1,0.1c0,0-0.1,0-0.1,0h-0.2h-0.2
		c-0.1,0-0.2-0.1-0.4-0.1c-0.2-0.1-0.5-0.2-0.7-0.4c-0.2-0.7-0.4-0.6-0.6-0.6c0,0.3,0.1,0.6,0.3,0.9c0.2,0.3,0.5,0.5,0.8,0.6
		c0.2,0.1,0.3,0.1,0.5,0.1h0.4h0.1c0.1,0,0.2-0.1,0.3-0.2c0-0.1,0.1-0.2,0.1-0.3C37.9,34.6,37.9,34.4,37.8,34.2z"/>
	<path style="fill:#64946E;" d="M26.4,34.6c0.2-0.1,0.4-0.3,0.4-0.5c0-0.2,0.1-1.3,0.1-1.6c-2-0.4-3.4,0.3-3.5-0.3
		c0,0.1,0,0.3,0,0.4v0.4C24,34.1,25.2,34.7,26.4,34.6z"/>
	<path style="fill:#FFFFFF;" d="M26.4,34.3c0.1,0,0.1-0.1,0.2-0.3c0.1-0.8,0.1-2.4,0.1-2.4c-1.4-0.2-2.6-0.9-3.2-2.1
		c-0.1,0.9-0.2,1.8-0.1,2.7C23.5,32.8,25.6,34.4,26.4,34.3z"/>
	<path style="fill:#64946E;" d="M25.1,26.7l0.1,0.3c0,0,1.8-0.1,1.9-2.5C26.8,25.2,26.3,26.5,25.1,26.7z"/>
	<path style="fill:#64946E;" d="M28,25.3c0.4,0.9,1.2,1.4,2.2,1.4C29.8,26.9,28.5,27.5,28,25.3z"/>
	<path style="fill:#64946E;" d="M24.2,16.3c0,0,1.1-0.3,1.6,0.2c0.8-0.7,2-0.8,2.9-0.2c0.5-0.1,0.9-0.2,1.4-0.3v0.5
		c0,0-1.4,0.1-1.6,0.2c-0.7-0.7-1.9-0.8-2.6,0c0,0-0.1,0.1-0.1,0.1C25.3,16.5,24.8,16.3,24.2,16.3z"/>
	<path style="fill:#64946E;" d="M28,11.7c-0.1-0.1,0.4-0.1,0.5,0.1c0.7,1.1,1.1,2.3,1.3,3.5c0.1,0.4,0.1,0.7,0.1,0.8
		s-0.5,0.1-0.6-0.8C29.1,14.1,28.7,12.9,28,11.7z"/>
	<path style="fill:#7FB38B;" d="M26.3,17c0.9-0.3,1.9,0.2,2.2,1.1c0.1,0.2,0.1,0.4,0.1,0.6c0.2-0.2,0.5-0.3,0.8-0.5
		c-0.3-0.6-0.3-1.1-1.3-1.5S26.6,16.3,26.3,17z"/>
	<path style="fill:#AFD3B2;" d="M22.4,19.3c0,0.2,0,0.9,0.2,0.7c0.3-0.6,0.7-1.1,1.1-1.5c0.3-0.2,0.4-0.6,0.3-0.8
		S22.7,17.6,22.4,19.3z"/>
	<path style="fill:#AFD3B2;" d="M21.9,25.7c0-0.2-0.4-0.5-0.6-0.3c-0.5,0.6-0.7,1.5-0.4,2.3c0.4,1.1,0.7,0.8,0.8,0.8
		c0.2-0.1,0.3-0.3,0.2-0.5c-0.2-0.5-0.3-1-0.2-1.5C21.7,25.9,21.9,25.9,21.9,25.7z"/>
	<path style="fill:#AFD3B2;" d="M23.7,29.3l0.9-1.8c0.1-0.1,0.2-0.1,0.4,0.1s1.2,1.3,1.8,1.4c0.5,0.1,0.9,0,1.4-0.1
		c0.2-0.1,0.6,0.1,0.8,0.5s0.5,0.9,0.6,1.1s-0.1,0.5-0.7,0.6s-2.6,1.1-5-1.4C23.7,29.5,23.6,29.4,23.7,29.3z"/>
	<path style="fill:#64946E;" d="M26.5,41c-0.2,0.1-0.2,0.3,0,0.3c1.2,0.2,2.5,0.3,3.7,0.2c0.7-0.2,3.1-0.5,3.3,0.2s1.8,3.2,1.1,5.4
		s-1.5,2.7-1.4,3s0.9,0.4,1.7-0.3c1.2-0.9,2.1-2.3,2.3-3.8c0.1-1.4-0.1-2.7-0.6-4c0-0.1,0.4-0.4,0.5-0.2l-0.1-0.3
		c-0.8-0.1-1.5-0.6-1.9-1.3c-0.7-1.2,0.1-3.4,0.3-3.6c-0.1-0.4-0.4-1.3-0.5-1.5c-0.1-0.2-0.1-0.4-0.2-0.6c0-0.1-0.3-0.7-0.3-1.1
		s-0.5-1.5-0.5-1.7s-0.3-1.9-0.3-2s0-0.8,0-0.8c0-0.2,0-0.4,0-0.6c-0.3,0.5-1,0.7-1.5,0.4c0.1,1.6,0.6,6.4,0.1,9
		c-0.6,2.4-2.9,3.8-5.3,3.3C26.8,41.1,26.7,41,26.5,41z"/>
	<path style="fill:#AFD3B2;" d="M25.2,40c0.3,0.1,0.8,0.3,0.9,0.2s0.4-0.6,0.3-0.8s-0.8-0.3-1.3-0.7c-0.8-0.5-1.3-1.2-1.7-2.1
		c-0.2-1.1-0.4-2.2-0.4-3.4c0-0.5,0-1.1,0-1.6c0-0.1-0.4-0.2-0.5,0.1c-0.1,0.4-0.5,3.8,0.1,5.2C23.1,38.2,24,39.3,25.2,40z"/>
	<path style="fill:#AFD3B2;" d="M21.2,40c-0.3,0.5-2.2,5.5,0,7.6c1.3,1.4,3.2,2.1,5.1,1.8c0.4-0.2,0.6-0.6,0.6-1
		c-0.4-1.7-0.7-3.4-0.9-5.1c0.1-0.9,0.6-1.3-0.3-1.6c-1.3-0.4-2.6-1-3.9-1.6C21.5,39.7,21.4,39.7,21.2,40z"/>
	<path style="fill:#9DCAA2;" d="M36,33.3c-0.1,0.2-0.5,0.4-0.2,0.7s0.1,0.3,0.3,0s0.5-0.6,0.7-0.8s0.1-0.3-0.1-0.3S36,33.3,36,33.3z
		"/>
	<path style="fill:#9DCAA2;" d="M37.2,33.2c-0.3-0.2-0.9,0.9-0.9,1.1s-0.2,0.2,0.2,0.5c0.3,0.2,0.7,0.3,1,0.2
		c0.2-0.1,0.3-0.1,0.2-0.3s-0.3-0.2-0.5-0.1s-0.5-0.1-0.4-0.3c0.1-0.2,0.2-0.4,0.4-0.6C37.2,33.5,37.5,33.3,37.2,33.2z"/>
	<path style="fill:#9DCAA2;" d="M35.8,33.3c0.1,0.2,0.3-0.2,0.5-0.3c0.1-0.1,0.2-0.2,0.3-0.3c0,0-0.1-0.3-0.3,0.1
		S35.7,33.2,35.8,33.3z"/>
	<path style="fill:#AFD3B2;" d="M18.1,32.6c0,0,0.3,0.3-0.4,0.7s-2.3,1.2-2.5,2.6c-0.2,0.7-0.2,1.4,0,2.1c0.1,0.3-0.5,0-0.6-0.8
		s-0.1-2.8,1.2-3.9C16.4,32.9,17.2,32.6,18.1,32.6z"/>
	<path style="fill:#7FB38B;" d="M24.9,21.4c0,0-1.1-0.1-1.5,1.7s0.3,3,1.1,3.1s1.5,0,1.9-1.5s0.1-2.4-0.5-2.9
		C25.6,21.5,25.3,21.3,24.9,21.4z"/>
	<path style="fill:#7FB38B;" d="M29.7,21.3c0,0-1-0.1-1.3,1.4s-0.1,2.8,0.6,3.1c0.6,0.4,1.5,0.3,1.9-0.4c0,0,0-0.1,0.1-0.1
		c0.4-0.9,0.6-2,0.4-3C31.2,21.6,30.5,21.2,29.7,21.3z"/>
	<path style="fill:#0F1C35;" d="M25,21.7c0,0-0.8-0.2-1.2,1s-0.2,2.6,0.3,2.9c0.4,0.3,1,0.3,1.4,0c0.6-0.7,0.8-1.6,0.7-2.5
		C26.1,21.9,25.5,21.7,25,21.7z"/>
	<path style="fill:#0F1C35;" d="M30.1,21.6c0,0-0.8-0.2-1.2,0.8c-0.3,0.7-0.4,1.5-0.3,2.3c0.1,0.5,0.6,1.1,1.2,1
		c0.7-0.1,1.2-0.7,1.2-1.3c0.1-0.8,0.3-2-0.4-2.5C30.6,21.8,30.4,21.7,30.1,21.6z"/>
	<circle style="fill:#FFFFFF;" cx="25.7" cy="22.7" r="0.5"/>
	<circle style="fill:#FFFFFF;" cx="30.7" cy="22.5" r="0.5"/>
	<circle style="fill:#FFFFFF;" cx="25" cy="23.2" r="0.2"/>
	<circle style="fill:#FFFFFF;" cx="30.1" cy="23.1" r="0.2"/>
	<path style="fill:#FFFFFF;" d="M24,24.5c0,0-0.2-0.1-0.3,0.1s-0.3,0.6-0.2,0.7s0.4,0,0.5-0.5S24,24.5,24,24.5z"/>
	<path style="fill:#FFFFFF;" d="M29,24.4c0,0-0.2-0.1-0.3,0.1s-0.3,0.6-0.2,0.7s0.4,0,0.5-0.5S29,24.4,29,24.4z"/>
	<path style="fill:#7FB38B;" d="M20.8,34.8c0.2-0.1,0.3-0.1,0.4-0.2c0.1-0.1,0.2-0.2,0.3-0.3c0.1-0.2,0.1-0.3,0.2-0.5
		c0-0.2,0.1-0.3,0.2-0.5c0.1-0.2,0.2-0.3,0.3-0.5c0.1-0.2,0.2-0.3,0.4-0.3c0.3-0.1,0.7-0.2,1-0.2c-0.3,0.1-0.6,0.2-0.9,0.3
		c-0.1,0.1-0.2,0.2-0.3,0.3c-0.1,0.1-0.2,0.3-0.2,0.4c-0.1,0.3-0.2,0.6-0.4,0.9C21.4,34.6,21.1,34.8,20.8,34.8z"/>
	<path style="fill:#7FB38B;" d="M20.4,37.4c0.2,0,0.3-0.1,0.5-0.2c0.2-0.1,0.3-0.1,0.5-0.2l0.1-0.1c0,0,0-0.1,0-0.1l0.1-0.3
		c0.1-0.2,0.1-0.3,0.2-0.5c0.1-0.2,0.2-0.3,0.3-0.5c0.1-0.1,0.1-0.1,0.2-0.2l0.2-0.2c0.1-0.1,0.3-0.2,0.5-0.3c0.2-0.1,0.4-0.1,0.5,0
		c-0.1,0-0.2,0-0.3,0c-0.1,0-0.2,0-0.3,0.1c-0.2,0.1-0.3,0.2-0.4,0.3l-0.2,0.2c-0.1,0.1-0.1,0.1-0.2,0.2c-0.1,0.1-0.2,0.3-0.3,0.5
		c-0.1,0.2-0.1,0.3-0.2,0.5l-0.1,0.2c0,0,0,0.1-0.1,0.1c0,0-0.1,0.1-0.1,0.1C21.1,37.3,20.8,37.4,20.4,37.4z"/>
	<path style="fill:#7FB38B;" d="M23.9,35.9c-0.2,0-0.4,0-0.6,0.1c-0.2,0.1-0.3,0.3-0.4,0.5c-0.1,0.2-0.1,0.4-0.1,0.6
		c0,0.2,0,0.4,0,0.6c0,0.2,0.1,0.4,0.3,0.5c0.1,0.1,0.2,0.1,0.2,0.2c0.1,0.1,0.1,0.2,0.2,0.3c0.1,0.1,0.1,0.2,0.1,0.3
		c0,0.1,0,0.2,0,0.3c0,0.2-0.1,0.4-0.2,0.6c-0.2,0.4-0.4,0.7-0.6,1.1c-0.2,0.3-0.5,0.7-0.7,1c-0.2,0.4-0.4,0.7-0.5,1.1
		c-0.1,0.4-0.2,0.8-0.2,1.2c0,0.4,0.1,0.8,0.2,1.2c0.1,0.4,0.2,0.8,0.4,1.2s0.3,0.8,0.4,1.2c0.2,0.4,0.3,0.8,0.5,1.1
		c0.4,0.7,1,1.4,1.6,1.9c0.6,0.5,1.3,1,2,1.4c-0.7-0.4-1.4-0.8-2.1-1.4c-0.7-0.5-1.2-1.2-1.6-1.9c-0.4-0.7-0.7-1.5-1-2.3
		c-0.3-0.8-0.5-1.6-0.6-2.4c0-0.4,0.1-0.8,0.2-1.3c0.1-0.4,0.3-0.8,0.6-1.2c0.4-0.7,1-1.4,1.3-2.1c0.1-0.2,0.1-0.4,0.2-0.6
		c0-0.2,0-0.4-0.1-0.6c0-0.1-0.1-0.2-0.1-0.3c-0.1-0.1-0.1-0.2-0.2-0.2c-0.1-0.1-0.1-0.2-0.2-0.3c0-0.1-0.1-0.2-0.1-0.3
		c0-0.2,0-0.4,0-0.6c0-0.2,0-0.4,0.1-0.6c0.1-0.2,0.2-0.4,0.4-0.5C23.5,35.9,23.7,35.9,23.9,35.9z"/>
	<path style="fill:#7FB38B;" d="M25,37.8c-0.2,0.1-0.3,0.2-0.4,0.3c-0.1,0.1-0.2,0.3-0.2,0.5c0,0.2,0,0.4,0,0.5
		c0,0.2,0.1,0.3,0.1,0.5c0.1,0.2,0.1,0.3,0.2,0.5c0,0.1,0.1,0.2,0.1,0.3c0,0.1,0,0.2,0,0.3c0,0.4-0.1,0.7-0.1,1.1
		c-0.1,0.7-0.2,1.4-0.3,2.1c0,0.2,0,0.4,0,0.5c0,0.1,0,0.2,0,0.3v0.3c0,0.4,0.1,0.7,0.2,1.1c0.2,1.4,0.8,2.8,1.6,3.9
		c0.4,0.6,0.9,1.1,1.5,1.5c0.3,0.2,0.5,0.5,0.8,0.7s0.3,0.2,0.4,0.3l0.2,0.1c0.1,0,0.2,0.1,0.3,0c-0.1,0-0.2,0-0.3,0l-0.2-0.1
		c-0.2-0.1-0.3-0.2-0.5-0.3s-0.6-0.4-0.9-0.7c-0.6-0.5-1.1-1-1.5-1.6c-0.4-0.6-0.8-1.2-1-1.9c-0.3-0.7-0.5-1.4-0.6-2.1
		c-0.1-0.4-0.1-0.7-0.1-1.1v-0.3c0-0.1,0-0.2,0-0.3c0-0.2,0-0.4,0-0.5c0.1-0.7,0.2-1.4,0.3-2.1c0-0.4,0.1-0.7,0.1-1.1
		c0-0.3-0.1-0.7-0.3-1c-0.1-0.2-0.1-0.3-0.1-0.5c0-0.2,0-0.4,0-0.5C24.4,38.2,24.7,37.9,25,37.8z"/>
	<path style="fill:#7FB38B;" d="M28.3,38.3c-0.1,0.1-0.1,0.1-0.1,0.2c0,0.1-0.1,0.1-0.1,0.2c0,0.1-0.1,0.3-0.1,0.5
		c0,0.1,0,0.3,0,0.5c0,0.2,0.1,0.3,0.1,0.4s0.2,0.6,0.3,0.9c0,0.2,0.1,0.3,0.1,0.5c0,0.2,0,0.3,0,0.5c0.1,1.2,0.3,2.5,0.5,3.7
		c0.1,0.6,0.2,1.2,0.3,1.8c0.1,0.3,0.2,0.6,0.3,0.9c0.1,0.3,0.2,0.6,0.3,0.9c0.4,1.2,0.7,2.4,1,3.6l-1.1-3.5l-0.3-0.9
		c-0.1-0.3-0.2-0.6-0.3-0.9c-0.1-0.6-0.3-1.2-0.4-1.8c-0.2-1.2-0.3-2.5-0.5-3.7c0-0.6-0.2-1.2-0.4-1.8c0-0.2-0.1-0.3-0.1-0.5
		c0-0.2,0-0.3,0-0.5c0-0.2,0-0.3,0.1-0.5c0-0.1,0.1-0.1,0.1-0.2C28.2,38.4,28.2,38.3,28.3,38.3z"/>
	<path style="fill:#64946E;" d="M30.4,37.6c0.3,0,0.7,0.1,0.9,0.4c0.2,0.3,0.3,0.6,0.2,1c0,0.2,0,0.3-0.1,0.5l-0.1,0.2
		c0,0,0,0.1,0,0.1v0.1c0.1,0.3,0.3,0.6,0.4,0.9l0.5,0.8c0.1,0.1,0.2,0.3,0.2,0.4s0.2,0.3,0.2,0.5c0.3,0.6,0.5,1.2,0.7,1.8
		s0.4,1.2,0.6,1.9c0,0.2,0.1,0.3,0.1,0.5s0,0.3,0.1,0.5c0,0.3,0,0.7,0,1c0,0.6-0.1,1.3-0.2,1.9c-0.2,0.6-0.4,1.2-0.8,1.8
		c0.6-1.2,0.9-2.5,0.9-3.8c0-0.3,0-0.6-0.1-1c0-0.2,0-0.3-0.1-0.5s-0.1-0.3-0.1-0.5c-0.2-0.6-0.4-1.2-0.6-1.8s-0.4-1.2-0.7-1.8
		c-0.1-0.2-0.1-0.3-0.2-0.4s-0.2-0.3-0.2-0.4s-0.3-0.6-0.5-0.9s-0.3-0.6-0.4-0.9c0,0,0-0.1,0-0.1c0,0,0-0.1,0-0.1l0.1-0.2
		c0.1-0.2,0.1-0.3,0.1-0.5c0-0.3,0-0.6-0.2-0.9C31,37.7,30.7,37.5,30.4,37.6z"/>
	<path style="fill:#7FB38B;" d="M31.4,36.2c0.2-0.1,0.4-0.1,0.6-0.1c0.1,0,0.2,0.1,0.3,0.1c0.1,0.1,0.2,0.2,0.2,0.3
		c0.1,0.2,0.1,0.4,0.2,0.6c0.1,0.2,0.2,0.3,0.4,0.4c0.2,0.1,0.3,0.2,0.5,0.3c0.2,0.1,0.4,0.2,0.6,0.3c0.4,0.2,0.7,0.5,0.9,0.8
		c-0.1-0.2-0.3-0.3-0.5-0.4c-0.2-0.1-0.3-0.2-0.5-0.3c-0.2-0.1-0.4-0.2-0.6-0.2c-0.2-0.1-0.4-0.2-0.6-0.3c-0.2-0.1-0.3-0.3-0.4-0.5
		c-0.1-0.2-0.1-0.4-0.2-0.6c0-0.1-0.1-0.2-0.2-0.2c-0.1-0.1-0.2-0.1-0.3-0.1C31.8,36.2,31.6,36.2,31.4,36.2z"/>
	<path style="fill:#7FB38B;" d="M32.1,34.6c0-0.1,0.1-0.3,0.2-0.3c0.1,0,0.1,0,0.2,0l0.2,0.1c0.1,0,0.2,0.2,0.3,0.2c0,0,0.1,0,0.1,0
		l0.2-0.1c0.2-0.1,0.5-0.2,0.7-0.2c0.3,0,0.5,0,0.7,0.2c-0.2-0.1-0.5-0.1-0.7,0c-0.2,0.1-0.5,0.1-0.7,0.3l-0.2,0.1
		c-0.1,0-0.1,0.1-0.2,0c-0.1,0-0.1-0.1-0.2-0.1l-0.2-0.1c-0.1-0.1-0.2-0.1-0.3-0.1C32.2,34.4,32.1,34.5,32.1,34.6z"/>
	<path style="fill:#7FB38B;" d="M31.9,32c0.2-0.1,0.4-0.3,0.6-0.3c0.1,0,0.1,0,0.2,0c0.1,0,0.1,0,0.2,0.1l0.3,0.2
		c0.2,0.1,0.3,0.3,0.5,0.4c0.2,0.1,0.4,0.2,0.6,0.3c-0.2,0-0.4-0.1-0.6-0.2c-0.2-0.1-0.4-0.2-0.6-0.3l-0.3-0.2c0,0-0.1,0-0.1-0.1
		h-0.1C32.3,31.9,32.1,31.9,31.9,32z"/>
	<path style="fill:#7FB38B;" d="M24.9,26.8c-0.1,0.6-0.2,1.3-0.3,1.9c0,0.2,0,0.3,0,0.5v0.1v0.1c0,0.1,0,0.1,0.1,0.2
		c0.1,0.3,0.2,0.6,0.3,0.9c-0.1-0.3-0.3-0.6-0.4-0.9c0-0.1-0.1-0.1-0.1-0.2v-0.1v-0.1c0-0.2,0-0.3,0-0.5c0-0.3,0.1-0.7,0.2-1
		C24.7,27.5,24.8,27.1,24.9,26.8z"/>
	<path style="fill:#7FB38B;" d="M26.7,27c0,0.4,0,0.7-0.1,1.1s-0.1,0.7-0.1,1.1s-0.1,0.7-0.2,1.1v0.3c0,0.1,0,0.2,0,0.3
		c0,0.2,0.1,0.4,0.1,0.5c-0.1-0.1-0.2-0.3-0.2-0.5c0-0.1,0-0.2,0-0.3v-0.3c0-0.4,0.1-0.7,0.1-1.1s0.1-0.7,0.2-1.1S26.6,27.4,26.7,27
		z"/>
	<path style="fill:#7FB38B;" d="M28,27.1l0.2,1c0.1,0.3,0.1,0.7,0.3,1c0,0.1,0.1,0.2,0.1,0.2c0,0.1,0.1,0.2,0.1,0.2
		c0.1,0.2,0.1,0.3,0.2,0.5c0,0.2,0.1,0.3,0.1,0.5c0,0.1,0,0.2,0,0.3c0,0.1,0,0.2,0,0.3c0-0.2,0-0.3,0-0.5c0-0.2-0.1-0.3-0.1-0.5
		c-0.1-0.2-0.1-0.3-0.2-0.5l-0.1-0.2c0-0.1-0.1-0.2-0.1-0.3c-0.1-0.3-0.2-0.7-0.2-1C28,27.9,28,27.5,28,27.1z"/>
	<path style="fill:#7FB38B;" d="M30.2,26.5c0,0.1,0,0.2,0.1,0.4c0,0.1,0.1,0.2,0.1,0.3c0,0.1,0.1,0.2,0.1,0.3
		c0.1,0.1,0.1,0.2,0.2,0.3c0.1,0.2,0.3,0.4,0.4,0.6c0.1,0.2,0.2,0.5,0.2,0.7c-0.1-0.2-0.2-0.4-0.3-0.6l-0.4-0.6
		c-0.1-0.1-0.1-0.2-0.2-0.3c-0.1-0.1-0.1-0.2-0.1-0.4C30.2,27,30.2,26.7,30.2,26.5z"/>
	<path style="fill:#7FB38B;" d="M27.4,16.2c0,0.4,0,0.7,0,1v1c0,0.2,0,0.3,0,0.5c0,0.2,0,0.3,0.1,0.5c0,0.2,0.1,0.3,0.1,0.5
		c0,0.2,0.1,0.3,0.1,0.5c-0.2-0.3-0.3-0.6-0.4-1c0-0.2-0.1-0.3-0.1-0.5c0-0.2,0-0.4,0-0.5c0-0.4,0-0.7,0.1-1S27.3,16.5,27.4,16.2z"
		/>
	<path style="fill:#64946E;" d="M29,16.7c0.1,0.1,0.2,0.3,0.3,0.5s0.2,0.3,0.3,0.5c0.1,0.2,0.2,0.3,0.2,0.5c0.1,0.2,0.1,0.4,0.1,0.5
		c-0.1-0.2-0.2-0.3-0.3-0.5l-0.3-0.5c-0.1-0.2-0.2-0.3-0.2-0.5C29.1,17,29,16.8,29,16.7z"/>
	<path style="fill:#64946E;" d="M29.9,16.7c0.2,0.3,0.4,0.6,0.6,0.9c0.2,0.3,0.2,0.7,0.2,1.1c-0.1-0.4-0.2-0.7-0.4-1l-0.2-0.5
		C30,17,30,16.9,29.9,16.7z"/>
	<path style="fill:#7FB38B;" d="M21.3,31.4c0.1-0.2,0.2-0.4,0.3-0.6c0.1-0.2,0.3-0.4,0.5-0.6c0.2-0.2,0.4-0.3,0.6-0.4
		c0.1,0,0.2,0,0.4,0c0.1,0,0.2,0.1,0.3,0.1c-0.2-0.1-0.5-0.1-0.7,0c-0.2,0.1-0.4,0.2-0.6,0.4c-0.2,0.2-0.3,0.3-0.5,0.5
		C21.6,31,21.5,31.2,21.3,31.4z"/>
	<path style="fill:#64946E;" d="M35.3,36.7c0,0-0.2,0.9-0.3,1.3c0.2,0.2,0.5,0.1,0.7,0c0.4-0.6,1.1-1,1.8-1c0.4,0.2,0.4,0.4,0.6,0.5
		s0.5-0.4,0.5-0.5c-0.2-0.6-0.7-1-1.3-0.9C36.5,36.1,35.8,36.3,35.3,36.7z"/>
</g>
</svg>
