<?xml version="1.0" encoding="utf-8"?>
<!-- Generator: Adobe Illustrator 22.0.0, SVG Export Plug-In . SVG Version: 6.00 Build 0)  -->
<svg version="1.1" id="Слой_1" xmlns="http://www.w3.org/2000/svg" xmlns:xlink="http://www.w3.org/1999/xlink" x="0px" y="0px"
	 viewBox="0 0 55.8 62.9" style="enable-background:new 0 0 55.8 62.9;" xml:space="preserve">
<title>Artboard 1 копия 15</title>
<g id="Слой_16">
	<path style="fill:#CF76AB;" d="M34.1,61.3H19.9c-0.6,0-0.9-0.2-1.1-0.5c-0.1-0.4,0-0.8,0.3-1.1l0.1-0.1l5.5-3.6
		c-0.1-1.2-0.1-2.4,0-3.5v-0.2h-0.2c-0.9,0-1.8-0.3-2.5-0.8c-0.3-0.3-0.7-0.7-1.1-0.9L20.5,50c-0.3-0.2-0.7-0.4-1.1-0.4H19h-0.9
		c-0.5,0-1,0-1.5,0h-0.8h-0.3c-1.1-0.1-2.1-0.9-2.3-2c-0.2-0.7,0.1-1.4,0.7-1.8c0.2-0.1,0.4-0.2,0.6-0.4c1-0.5,1.9-1.3,2.5-2.3
		c-0.6-0.6-1-1.4-1.3-2.2c-1-0.7-4.6-3.9-4.6-8.3v-0.2c0-2.1,0.4-4.2,1.3-6.2l0.1-0.2c1.3-3.1,4-5.5,5.9-7c1.1-0.7,2-1.7,2.8-2.8
		l0.4-0.7c0.2-0.4,0.4-0.9,0.5-1.3l0.2-0.6c0.5-1.7,1.1-3.5,1.9-5.1c0.3-0.6,0.6-1.1,1-1.7c1.1-1.7,2.7-3.1,4.6-3.7l0.3,0.4
		l-0.2-0.5l0.2-0.1l0.9-0.4c0.8-0.4,1.6-0.6,2.4-0.7c0.2,0,0.4,0.1,0.5,0.2c0.3,0.2,0.4,0.6,0.4,0.9c-0.1,0.3-0.4,0.6-0.8,0.7
		c-1.2,0.4-2.4,1-3.5,1.7c-2.2,2.1-2.6,3.5-2.8,6.2c0.1,0.8,0.3,1.6,0.6,2.4l0,0c0.8,0.8,1.7,1.5,2.7,2c1.4,0.5,3,1,4.1,1.3l0.9,0.3
		c1.9,0.7,3.6,1.8,5,3.3c1.7,1.8,2.9,4,3.6,6.3l0,0c0.1,0.3,0.2,0.6,0.2,0.9c0.3,1.8,0.8,6.3-2.3,9.7c-1.1,1-1.6,1.6-1.9,1.9l0,0
		c-0.1,1.1-0.6,2.1-1.4,2.9c-0.1,0.2-0.3,0.4-0.4,0.5c0.5,0.5,0.7,0.6,1,0.6h0.4c0.2,0,0.5,0,0.8,0h0.3c2.5,0.5,2.8,1.8,2.7,2.9
		c-0.4,1.6-1.9,2.8-3.5,2.7l0,0c-0.3,0-0.5,0-0.8-0.1c-0.4-0.1-0.9-0.2-1.3-0.2c-0.4,0-0.7,0.1-0.9,0.4c-0.1,0.2-0.2,0.3-0.3,0.4
		v0.1l-0.2,0.4c-0.6,0.8-1.6,1.3-2.6,1.4c-0.4,0-0.8-0.1-1.2-0.3v4.5c1.1,0.7,5.3,3.4,5.9,3.8c0.3,0.2,0.5,0.5,0.5,0.8
		c-0.1,0.3-0.3,0.6-0.5,0.7c-0.1,0-0.1,0.1-0.2,0L34.1,61.3L34.1,61.3z"/>
	<path style="fill:#FFFFFF;" d="M33.3,2.5c0.2,0,0.2,0,0.2,0c0.4,0.4,0.2,0.7-0.2,0.8c-1.3,0.4-2.5,1-3.6,1.7c-2.5,2.3-2.8,4-3,6.6
		c0.1,0.9,0.3,1.8,0.7,2.6l0,0c0.8,0.9,1.8,1.7,3,2.2c2,0.7,4.5,1.4,5.1,1.6c1.8,0.6,3.5,1.7,4.8,3.1c1.6,1.8,2.8,3.9,3.5,6.2l0,0
		c0.1,0.3,0.2,0.6,0.2,0.9c0.5,2.6,0.4,6.5-2.2,9.3c-1.2,1.1-1.7,1.7-2,2c0,0,0,0.1-0.1,0.1c-0.1,1-0.5,2-1.3,2.7
		c-0.2,0.3-0.5,0.6-0.8,0.8c0-0.1,0.1-0.2,0.1-0.3l0,0c-0.1,0.1-0.1,0.2-0.1,0.3c0.8,0.9,1.2,1.1,1.7,1.1c0.3,0,0.7-0.1,1.3-0.1h0.3
		c2.1,0.4,2.3,1.5,2.2,2.3c-0.3,1.4-1.6,2.4-3.1,2.3c-0.2,0-0.5,0-0.7-0.1c-0.5-0.1-0.9-0.2-1.4-0.2c-0.5,0-1,0.2-1.3,0.6l-0.3,0.4
		c-0.1,0.2-0.2,0.3-0.3,0.5c-0.5,0.7-1.3,1.1-2.2,1.2c-0.6-0.1-1.3-0.3-1.8-0.6l0,0l0.1,0.1v5.5c0.7,0.4,5.5,3.5,6.1,3.9
		s0,0.7,0,0.7H19.9c-1.1,0-0.4-0.8-0.4-0.8l5.8-3.8c-0.1-1.2-0.1-2.5,0-3.7v-0.5c0,0,0-0.1,0-0.2v-0.1c-0.2,0.1-0.5,0.1-0.7,0.1
		c-0.8,0-1.5-0.2-2.1-0.7c-0.5-0.5-1.1-1-1.7-1.4l0,0c-0.4-0.3-0.9-0.5-1.4-0.5h-0.1L19,49h-0.9c-0.9,0-1.8,0-2.3,0h-0.2
		c-0.9-0.1-1.6-0.7-1.8-1.5c-0.1-0.5,0.1-1.1,0.5-1.3c1.4-0.7,2.6-1.8,3.4-3.2l0,0l-0.1-0.1l0,0c-0.6-0.7-1.1-1.5-1.4-2.3l0,0
		c-0.5-0.2-4.5-3.4-4.5-7.9l0,0c0-0.1,0-0.1,0-0.2c0-2.1,0.4-4.2,1.3-6.1c1.3-3.1,4.1-5.4,5.8-6.8c1.2-0.8,2.2-1.8,2.9-3l0,0
		l0.4-0.7c0.2-0.6,0.4-1,0.5-1.4c0.5-1.9,1.2-3.8,2-5.7c0.3-0.6,0.6-1.1,0.9-1.6l0,0c1-1.7,2.6-2.9,4.4-3.5l0.1,0l0,0l1-0.4
		C31.7,2.8,32.5,2.6,33.3,2.5 M27.4,14.3l0.1,0.1L27.4,14.3L27.4,14.3L27.4,14.3 M36.4,19.1c-0.5-0.3-0.9-0.5-1.4-0.7l0,0
		c0.5,0.2,1.1,0.4,1.5,0.7 M37.7,43.1L37.7,43.1 M33.3,1.5L33.3,1.5c-1,0.1-1.9,0.4-2.7,0.8L30,2.5l-0.5,0.2l-0.1,0.1
		c-2.1,0.7-3.8,2.1-4.9,4c-0.4,0.5-0.7,1.1-1,1.7v0.1c-0.7,1.7-1.4,3.4-1.9,5.2l-0.2,0.6c-0.1,0.3-0.3,0.8-0.5,1.3l-0.3,0.7
		c-0.7,1-1.5,1.9-2.6,2.6l0,0c-2,1.5-4.7,4-6.1,7.2l-0.1,0.2c-0.9,2-1.3,4.2-1.3,6.4v0.2c0,4.3,3.3,7.6,4.7,8.6
		c0.3,0.7,0.6,1.3,1.1,1.8c-0.6,0.8-1.3,1.5-2.2,1.9c-0.2,0.1-0.4,0.3-0.6,0.4c-0.8,0.5-1.1,1.5-0.9,2.4c0.3,1.3,1.4,2.3,2.8,2.3
		h0.3h0.9c0.4,0,1,0,1.5,0L19,50h0.3h0.1c0.3,0,0.6,0.2,0.9,0.3l0.5,0.4c0.4,0.3,0.7,0.6,1,0.9c0.7,0.6,1.6,1,2.5,1c0,0.7,0,1.9,0,3
		L19,59.1c-0.1,0-0.1,0.1-0.2,0.2c-0.5,0.4-0.6,1.1-0.4,1.7c0.3,0.6,0.9,0.9,1.5,0.8h18.2c0.2,0,0.3,0,0.4-0.1
		c0.5-0.2,0.8-0.6,0.8-1.1c0-0.5-0.2-1-0.7-1.3c-0.5-0.3-4-2.6-5.6-3.7V52c0.2,0.1,0.5,0.1,0.7,0.1c1.1-0.1,2.2-0.6,2.9-1.5
		c0,0,0.1-0.1,0.1-0.2l0.2-0.4l0-0.1l0.3-0.4c0.1-0.1,0.2-0.2,0.5-0.2c0.4,0,0.8,0.1,1.2,0.2h0.1c0.3,0,0.6,0.1,0.9,0.1
		c1.9,0.2,3.7-1.1,4.1-3v-0.1c0.2-1,0-2.9-3-3.5h-0.2h-0.3c-0.3,0-0.6,0-0.9,0h-0.4c-0.1,0-0.2,0-0.3-0.1l0.1-0.2
		c0.8-0.8,1.3-1.9,1.5-3c0.3-0.3,0.8-0.8,1.8-1.8l0,0c3.3-3.5,2.8-8.3,2.5-10.1c-0.1-0.3-0.1-0.6-0.3-0.9l0,0
		c-0.7-2.4-1.9-4.6-3.6-6.5l0-0.1c-1.4-1.6-3.2-2.8-5.3-3.5l-1-0.3c-1.1-0.3-2.7-0.8-4.1-1.3c-0.9-0.4-1.8-1-2.5-1.8
		c-0.3-0.7-0.5-1.4-0.5-2.1c-0.1-2.2,0.9-4.4,2.6-5.8c1-0.6,2.2-1.2,3.3-1.6c0.5-0.1,0.9-0.5,1.1-1c0.1-0.6-0.1-1.1-0.6-1.5
		C33.9,1.6,33.6,1.5,33.3,1.5L33.3,1.5z M37.6,44.1L37.6,44.1z M37.6,44.1L37.6,44.1z M37.6,44.1L37.6,44.1z"/>
	<path style="fill:#AA1F61;" d="M25.3,50.8v5.3L19.5,60c0,0-0.8,0.8,0.4,0.8h18.2c0,0,0.6-0.3,0-0.7s-6.1-4-6.1-4v-4.4
		c0,0-4.2-0.5-5.2,0S25.3,50.8,25.3,50.8z"/>
	<path style="fill:#640E3D;" d="M32,50.5v-0.9c0,0-5.2-0.6-6,0.2c-0.5,0.6-0.7,1.3-0.7,2.1v1.6c0,0,2.3,0.2,3-0.5s1.1-0.7,1.2-0.3
		s0,3.6,0,3.6H32L32,50.5L32,50.5z"/>
	<path style="fill:#AA1F61;" d="M33.5,2.5c0,0-0.2-0.3-2.5,0.7s-4.5,1.5-6.5,5.6c-0.8,1.8-1.5,3.7-2,5.7c-0.5,1.6-1.2,3.1-2.3,4.3
		c-1,0.9-4.5,3.4-6,6.7s-3.2,8,0.6,13.4c1.5,1.3,1.6,1.8,1.6,1.8c0.3,0.9,0.7,1.7,1.4,2.4c-0.3,0.8-0.2,1.7-4.1,4.3
		c0.2,0.9,1,1.5,1.9,1.6c0.8,0,4.3-0.3,5,0.3c0.7,0.5,1.3,1,2,1.6c0.4,0.5,2.6,1.2,3.7,0.1s1.6-2.5,5-1C33,51,34,51.9,36,49.9
		c0.6-1,0.8-1.9,3.3-1.2c1.4,0.2,3.4-0.1,3.8-2.2c0.1-0.8,0-1.9-2.2-2.3c-1.7-0.1-2,0.5-3.3-1c0-0.4,0.9-1.3,0.9-1.9s0-1-0.9-1.2
		s-3.1,0.2-3.2-0.7c0-0.7,0.2-1.5,0.5-2.1c0.2-0.7,3.7-0.8,5.5-3c1.5-1.9,2.1-2.5,1.7-6.3s-5.6-7.6-8.7-9s-6.4-3.6-6.6-7.5
		c0.2-2.6,0.5-4.2,3-6.6c1.1-0.7,2.4-1.3,3.6-1.7C33.7,3.2,33.9,2.9,33.5,2.5z"/>
	<path style="fill:#942240;" d="M24.8,39.5c0.2-0.6,0.8-1,1.4-1c0.9,0,2,0.3,2.5,0s0.8-0.6,0.3-0.6s-2.5,0.2-3.4-0.6
		c-0.1-0.1-0.2-0.1-0.3,0s-0.4,0.4-0.4,0.3s0.5-1,1.1-0.9c0.1,0,0,0.2-0.1,0.3s-0.2,0.2,0,0.3c0.9,0.5,2,0.7,3,0.5
		c0.9-0.3,1-0.5,1-0.6s-0.2-0.5,0.3-0.5c0.4,0,0.8,0.1,1.1,0.2c0.2,0,0.5-0.2,0.2-0.4c-0.7-0.7-1.3-1.5-1.7-2.4
		c-0.1-0.6-0.1-0.6,0-0.5s1.1,2.7,3.5,3s3.2,0.1,3.7-0.5c1.6-2.3,2.6-4.9,3-7.6c0.5-0.1-6.4-4.1-8-2.6c-1.3,1.4-2.2,3.2-2.8,5
		c0,0.2-0.4-0.6-0.4-1.6s0.3-4.6,2.9-5.2c2.4-0.7,4.3-1.2,6.2-0.2s3.2,1.4,0.6-1c-2.3-1.7-6-2.3-7.5-1.8c-0.8,0.2-1.5,0.6-2.1,1
		c-0.2,0.1-0.8-0.5,0.1-1.2c0.4-0.4,0.9-0.6,1.4-0.7c0.4-0.1,0.3-0.5-0.4-1.1c-1-0.8-1.9-1.9-2.4-3.2c-0.3-0.9-0.5-1.8-0.6-2.8
		c0.5,1.9,1.9,3.3,3.7,3.9c3.1,1.1,6.4,2,8.4,4s4.5,4.7,5,7.3s0.4,6.5-2.2,9.2c-2.1,2-2.3,2.3-2.3,2.3c-0.2,1.3-0.9,2.5-1.9,3.4
		c0.6-1.5,0.2-2.3-0.2-2.3s-2.7,3.7-6.8,2.1c-2.2-0.8-2.3-1.5-3.3-0.7c-1.5,1.4-3.5,2.2-5.6,2.2c-3.2,0-3.4-0.9-2.9-0.8
		s3.8,1.3,5.9-0.2C26.6,42,24.8,39.5,24.8,39.5z"/>
	<path style="fill:#942240;" d="M20.7,21.7c0,0-0.1-1.1,1.8-0.8s4.1,0.9,4.1,3.4c0.1,1.1,0,2.1-0.3,3.1c1.5,1.9,0.9,5.1,0,6.9
		c-1.4,2.7-4.5,4.2-7.5,3.5c-2.5-0.9-4.1-1.6-5.1-4.6c-0.6-1.7-0.3-3.7,0.7-5.2c1.2-1.6,3-3.3,5.1-3.6s4,0.5,4.6,0.4s1.6-1.5,1.1-2
		c-0.5-0.6-1.2-1-1.9-1.1C22.3,21.6,21.5,21.6,20.7,21.7z"/>
	<path style="fill:#640E3D;" d="M14,28.9c0.7-1.4,1.8-2.5,3.2-3.2c2.1-1,4.6-1.2,6.8-0.6c1.1,0.4,0.2,1.6-0.1,1.4S18.5,23.5,14,28.9
		z"/>
	<path style="fill:#FFFFFF;" d="M13.6,30.3c0,0,7-1,12.9,2.2c-0.1-1.9-0.1-3.2-1.3-4.6c-1.5-2-4-3-6.5-2.5
		C16.2,25.8,14.2,27.7,13.6,30.3z"/>
	<path style="fill:#AA1F61;" d="M16.6,29.9c-0.2-1.3,0.3-2.6,1.3-3.5c1.5-1,3.5-1,5,0c1.6,1.1,2.4,2.3,1.9,4.2
		c-0.6,1.8-0.4,0.9-0.4,0.9h-4.3c0,0-3.4-1.1-3.4-1.2S16.6,29.9,16.6,29.9z"/>
	<path d="M17.5,30.3c-0.7-1.1-0.5-2.5,0.4-3.4c1.7-1.5,4.2-1.3,5.6,0.4c0,0,0,0,0,0c1.4,1.7,1,3.1,0,4
		C22.7,31.3,17.5,30.3,17.5,30.3z"/>
	<path style="fill:#FFFFFF;" d="M19,27.9c0,0-0.5,0-0.6,0.5c0,0.3,0.2,0.6,0.5,0.6c0.2,0,0.4-0.1,0.5-0.3C19.7,28.2,19,27.9,19,27.9
		z"/>
	<path style="fill:#FFFFFF;" d="M24,28.7c-0.1,0-0.6,0.4-0.3,0.7s1.2,0.6,1.5,0.8s0.5-0.4,0.3-0.7C25.2,28.8,24.6,28.5,24,28.7z"/>
	<path style="fill:#FFFFFF;" d="M17.9,28.2c0,0-0.4-0.7-1.5-0.1s0.1,1.4,0.5,1.5s1-0.1,1.1-0.5C18.2,28.7,18.1,28.4,17.9,28.2z"/>
	<path style="fill:#AA1F61;" d="M15.7,30.3c0,0-0.4,5,1.8,6c1.3,0.7,2.9,0.8,4.4,0.3c0.6-0.3,2.7-2.3,2.9-3.4c0.2-0.5,0.2-1,0.2-1.6
		c0,0-0.3-0.1-0.9-0.4c-2.7-0.9-5.5-1.4-8.3-1.2C15.7,30.1,15.7,30.3,15.7,30.3z"/>
	<path style="fill:#942240;" d="M15,35.3c0,0,2.3,2.3,4.4,2.5c2.3,0,3.9,0.1,6-2.5c0.5-0.9,0.9-1.9,1-2.9c-0.9-0.4-1.7-0.8-2.6-1.1
		C23.7,33,22.9,39,15,35.3z"/>
	<path style="fill:#CD4795;" d="M16.3,30.2c0,0-0.5,5.1,3.2,6.3c-1.1-0.1-2.3-0.3-3.3-0.7c-1.1-1.7-1.5-3.6-1.3-5.6
		C15.1,30.1,16.3,30.2,16.3,30.2z"/>
	<path style="fill:#CF76AB;" d="M15,35.3c-1.2-1.4-1.7-3.2-1.4-5c0.5-0.1,1.3-0.1,1.7-0.1c-0.4,2,0,4,1,5.7
		C15.8,35.6,15,35.3,15,35.3z"/>
	<path style="fill:#CD4795;" d="M15,26.3c-2,2-2.7,4.9-1.8,7.6c1.6,4.3,2.6,5.6,3,5.9c0.4,0.3,0.3,0.9-0.1,0.8s-4.5-3.4-4.5-7.9
		c0.3-2.3,2.3-8.1,4.1-10s4.8-4,5.3-4.7s0.8-1.2,1.1-1.5s0.8,0.3,0.3,1s-4.2,3.9-4.7,5.3c0.1,0.2,0.1,0.3,0.4,0.2
		c1.4-1,3.2-1.4,4.9-1.1c0.9,0.3,0.8,1.8-0.6,1.8S18.5,23.7,15,26.3z"/>
	<path style="fill:#CD4795;" d="M28.4,22.3c0,0-0.6,0.7-0.2,1.2s0.9,0.8,1.4,0.4c1.1-1,2.6-1.4,4.1-1.3c1.9,0.3,1.8-0.3,1.8-0.5
		c-1.4-0.9-3.2-1.1-4.8-0.6C29.8,21.6,29.1,21.9,28.4,22.3z"/>
	<path style="fill:#CD3483;" d="M27.4,14.3c0.8,0.9,1.8,1.7,3,2.2c2,0.7,4.5,1.4,5.1,1.6c1.8,0.6,3.5,1.7,4.8,3.1
		c1.6,1.8,2.8,3.9,3.5,6.2c-1.9-3.3-4.7-7.5-8.8-8.9S28.8,17,27.4,14.3z"/>
	<path style="fill:#CD4795;" d="M23.3,12.1c0,0.1-0.4,1.7,0.2,1.8c0.5,0.1,1.1-0.2,1.2-0.8c0,0,0,0,0-0.1c0.2-0.6,0.4-4.1,2.4-6.3
		s1.9-2.2,2.6-2.6s0.8-0.8,0.2-0.5c-1.9,0.6-3.5,1.9-4.6,3.6C24.4,8.7,23.7,10.3,23.3,12.1z"/>
	<path style="fill:#CF76AB;" d="M24.9,8.8c0,0-0.4-0.1-0.7,0.9s-1.1,2.6-0.5,2.9s0.8-0.8,0.9-1.2c0.1-0.7,0.3-1.3,0.5-2
		C25.3,9.1,25.1,8.7,24.9,8.8z"/>
	<path style="fill:#CD4795;" d="M22.3,15.5c0.3,0.4,0.8,0.6,1.3,0.7c0.6,0,1,0.5,1,1.1c0,0.1,0,0.2-0.1,0.3c-0.4,0.7-0.6,1.3-1.6,1
		c-0.7-0.2-1.4-0.1-2,0.3c-0.4,0.2-0.3,0-0.7,0.2s-0.5,0-0.5,0c0.6-0.4,1-0.9,1.4-1.5c0.3-0.7,0.7-1.5,1.1-2.1H22.3z"/>
	<path style="fill:#CF76AB;" d="M23.4,17.8c0.2-0.3,0.4-0.5,0-0.7c-0.6-0.2-1.2-0.4-1.8-0.5c-0.1,0-0.1,0-0.1,0
		c-0.7,1.2-1.7,2.2-2.9,3c-1.7,1.4-4.5,3.7-5.8,6.8c-0.9,1.9-1.3,4-1.3,6.2c0.1,2.9,0.7,2.4,0.8,2.5c0-0.5-0.1-1.1-0.2-1.6
		c-0.1-0.5-0.1-4.9,2.2-6.7c1.2-1.1,2.7-2,4.2-2.6c0.6-0.1,1.4-0.4,1.6-0.8s0-1.1-1.5-0.4c-1.3,0.6-2.5,1.3-3.6,2.1
		c-0.5,0.4-0.5,0-0.2-0.5s3.8-4.7,5.9-5.9c0.5-0.4,1.2-0.6,1.9-0.6C22.9,18,23.2,18,23.4,17.8z"/>
	<path style="fill:#640E3D;" d="M40.6,25.7c-0.8-0.9-1.9-1.7-3.1-2.1c-1.6-0.5-3.2-0.5-4.8,0c-0.8,0.4-0.3,1.1,0.1,1
		c1.2-0.5,2.5-0.6,3.7-0.5c1.4,0.4,2.8,1.1,4,2C40.8,26.3,40.6,25.7,40.6,25.7z"/>
	<path style="fill:#FFFFFF;" d="M29.3,32.1c-0.4-1.7-0.2-3.5,0.7-5c1.4-2.2,3.8-4,7.9-2.9c1.9,0.7,3.3,2.1,4.1,4
		c-1,0-6.7-0.3-10.5,2.3C30.8,30.9,30,31.5,29.3,32.1z"/>
	<path style="fill:#AA1F61;" d="M39.9,28c0,0,0.5-2.4-1.4-3.2s-4.1-1.6-6.4,1.1c-0.8,1.3-0.6,3,0.3,4.1C33.7,30.2,39.6,30,39.9,28z"
		/>
	<path d="M34.2,24.6c1.4-0.6,3.1-0.4,4.3,0.5c1,0.8,1.3,2.2,0.8,3.4c-2,0.6-4.1,1-6.2,1.4c-0.8-0.6-1.3-1.5-1.3-2.5
		C32,26.1,32.9,25,34.2,24.6z"/>
	<path style="fill:#FFFFFF;" d="M38.8,26.1c-0.1,0-0.6,0.6,0,1c0.6,0.2,1.2,0.2,1.7,0c0,0,0.2-0.7-0.3-0.9
		C39.7,26,39.2,26,38.8,26.1z"/>
	<path style="fill:#FFFFFF;" d="M34,27c-0.2,0-0.4,0.2-0.4,0.5c0,0.3,0.2,0.5,0.4,0.5c0.1,0,0.1,0,0.2,0c0.3-0.1,0.6-0.3,0.5-0.6
		S34,27,34,27z"/>
	<path style="fill:#FFFFFF;" d="M32.5,27.6c-0.5,0-0.9,0.4-1,0.9c-0.2,0.8,0.9,0.9,1.2,0.8c0.4-0.2,0.7-0.6,0.6-1.1
		C33.2,27.5,32.5,27.6,32.5,27.6z"/>
	<path style="fill:#AA1F61;" d="M31.6,30.6c0,0,0.9,3.2,2.5,4.1c0.8,0.3,1.5,0.9,1.9,1.7c1.2-0.1,2.3-0.5,3.3-1.2
		c1.4-1.2,2.2-1.7,2.8-3.8c0.2-1.1,0.2-2.2,0-3.2h-0.7c-2,0-6.3,0-9.8,2.3L31.6,30.6z"/>
	<path style="fill:#942240;" d="M41.4,28.5c0-0.1,0.7,2.9-0.7,4.8c-0.7,1.1-1.8,2-3,2.5c-0.3,0.1-0.1-0.4,0.2-0.9
		c1.2-2,1.8-4.2,1.9-6.5v-0.2c0,0,1.3,0,1.6,0C41.4,28.3,41.4,28.4,41.4,28.5z"/>
	<path style="fill:#CD4795;" d="M30.1,31.5c0,0,2.1,4.4,5.4,5c0.9-0.1,1.4-0.3,1.6-0.5s0.1-0.2-0.2-0.4s-2.9-0.8-3.6-1.7
		c-0.8-1-1.3-2.2-1.7-3.4C31,30.8,30.5,31.2,30.1,31.5z"/>
	<path style="fill:#CF76AB;" d="M29.3,32.3c0.2,1.1,0.8,2.1,1.6,2.9c0.7,0.6,1.6,1.6,4.9,1.3c0.3-0.2-0.5-0.2-0.8-0.4
		c-2.2-0.8-3.9-2.6-4.7-4.7c-0.5,0.4-1.1,0.8-1.1,0.8L29.3,32.3z"/>
	<path style="fill:#640E3D;" d="M32.6,36.5c0,0-1.2-0.9-1.9-1.6c-0.4-0.5-0.7-1-1-1.6C29.9,34,30,35.4,32.6,36.5z"/>
	<path style="fill:#CF76AB;" d="M26,37c0,0,0-0.3,0.2-0.2s0.2,0.4,0.8,0.4c0.4,0,0.7,0,1.1,0.1c0.1,0.1,0,0.2-0.3,0.3
		S26.3,37.4,26,37z"/>
	<path style="fill:#CD4795;" d="M26,37.5c-0.2,0-0.2,0.1-0.1,0.2c0.3,0.2,0.7,0.3,1.1,0.3c0.3,0,0.5,0,0.6,0s-0.1-0.1-0.6-0.2
		C26.6,37.8,26.3,37.7,26,37.5z"/>
	<path style="fill:#640E3D;" d="M25.1,37.3c0.1-0.2,0.2-0.3,0.4-0.4c0.2-0.1,0.4-0.3,0.5-0.3s-0.1,0.2-0.1,0.3s-0.2,0.1,0.1,0.2
		c0.7,0.3,1.5,0.5,2.3,0.4c1.2-0.1,1.8-0.3,1.9-0.5l0,0c0,0-0.2-0.2,0.5,0c0.2,0.1,0.4,0.2,0.5,0.4c0,0-0.6-0.3-0.7-0.2
		c-0.3,0.2-1,0.7-3.3,0.5c-0.5-0.1-1-0.3-1.5-0.7c-0.1,0-0.1,0-0.2,0C25.3,37.1,25,37.3,25.1,37.3z"/>
	<path style="fill:#AA1F61;" d="M17,40.3c-0.1,0-1.1-0.5-0.7,0.4c0.7,1.7,2.2,2.9,4,3.3c1.6,0.2,4,0.6,5.8-2
		c0.5-0.7,0.7-1.6,0.7-2.5c-0.2-0.2-0.4-0.4-0.6-0.3c0-0.1-0.2-0.7-0.5-0.5c-0.2,0.4-0.3,0.2-0.3,0.2s-0.2-0.7-0.7-0.1
		c-0.1,0.5-0.2,0.9-0.4,1.3c-0.2,0.2-0.1-1.1-0.1-1.1l-0.9-0.5l-2,1.1c-0.3,0.4-0.8,0.7-1.4,0.8c-0.6,0.1-1.2,0.1-1.8,0
		C17.7,40.4,17,40.3,17,40.3z"/>
	<path style="fill:#CF76AB;" d="M17.1,40.5c1.1,0.5,2.4,0.8,3.6,0.7c1.3-0.3,1.6-0.2,2.5-1.4c0.2-0.4,0.4-0.7,0.6-0.4
		c0.1,0.3,0,0.6-0.1,0.9c0,0.3,0.1,0.3,0.3,0.3s0.5-0.5,0.6-0.8s0.2-1.1,0.5-1.1s0.3,0.1,0.3,0.1s-0.1-0.5-0.4-0.3
		c-0.3,0.1-0.5,0.4-0.5,0.8c0,0.3,0,1.1-0.5,1.1c-0.1-0.2,0-0.3,0-0.6s0-0.7-0.5-0.7s-0.3,0.7-1.1,1.2c-1.1,0.8-2.5,1-3.9,0.6
		C17.6,40.6,17,40.2,17.1,40.5z"/>
	<path style="fill:#CD3483;" d="M25.8,39.1c0,0-0.1,1.2-0.6,1.5c-0.1-0.1,0.4-0.6,0.4-0.9s-0.1-0.8,0.1-1s0.4-0.1,0.4,0.1
		C25.9,38.7,25.7,38.8,25.8,39.1z"/>
	<path style="fill:#640E3D;" d="M23,44.2c1.3-0.2,2.4-0.8,3.3-1.8c0.5-0.7,0.8-1.6,0.7-2.5c0-0.3-0.2-0.8-0.6-0.8
		c-0.1-0.1-0.3-0.4-0.4-0.4c0.3,0.4,0.4,0.8,0.2,1.3c-0.2,0.5-0.3,0.7-0.2,0.7c0.2-0.1,0.4-0.4,0.4-0.6c0.1-0.2,0-0.8,0.1-0.7
		s0.5,0.6-0.1,1.9C25.9,42.7,24.6,43.8,23,44.2z"/>
	<path style="fill:#640E3D;" d="M25.6,38.8c0,0-0.3-0.5-0.3-0.1c0.1,0.5,0,1.1-0.2,1.5c0,0.3,0.2,0.1,0.2,0.1S25.7,40,25.6,38.8z"/>
	<path style="fill:#CD4795;" d="M16.9,40.5c0-0.1-0.5-1-0.9-0.6c0.1,1.2,0.6,2.2,1.5,3c0.6,0.5,1.4,0.8,2.1,1c0.4,0.1,0.8,0.1,0.8,0
		s-0.5-0.2-1-0.3c-0.6-0.2-1.1-0.6-1.5-1.1C17.6,41.8,17.2,41.2,16.9,40.5z"/>
	<path style="fill:#AA1F61;" d="M38.6,41.8c-1,1-2.2,1.5-3.6,1.6c-1.9,0.1-4,0-5.3-1.6c-1-1.2-1.3-1.9-0.8-2c0.2,0,0.3,0.1,0.3,0.3
		c0.1,0.2,0.2,0.5,0.3,0.3s-0.1-0.3-0.2-0.5s-0.2-1.2,0.1-1.3c0.2-0.1,0.4,0,0.6,0.2c0,0,0.1-0.3,0.2-0.3c0.3,0,0.5,0.1,0.6,0.4
		c0.2,0.3,0.6,1,0.8,0.8s0-0.4,0-0.7s-0.1-0.6,0.1-0.6s0.5,0.1,0.7,0.8c0.5,0.8,1.2,1.4,2.1,1.7c1.1,0.3,2.3,0.3,3.4-0.1
		c0.4-0.1,0.8,0.3,0.4,1C38.2,42.1,38.6,41.8,38.6,41.8z"/>
	<path style="fill:#640E3D;" d="M37.9,40.7c-0.6,0.1-1.1,0.2-1.7,0.3c-1,0.1-2.1-0.3-2.8-1c-0.8-0.9-1-1.3-1.2-1.5s-0.3-0.3-0.5-0.2
		s-0.3,0.1-0.3,0.2s0.2,0.9,0.1,1S31.1,39.2,31,39s-0.4-0.8-0.8-0.6c-0.3,0.2-0.2,0.2-0.2,0.2c-0.1-0.2-0.4-0.2-0.6,0c0,0,0,0,0,0
		c-0.4,0.4-0.4,1-0.1,1.4c0.1,0,0-0.3,0-0.3s0-1,0.3-1s0.3,0,0.5,0.1c0,0.4,0,0.8,0.3,1.1c0-0.1,0-0.1-0.1-0.3
		C30,39.3,30,39,30,38.7c0.1-0.1,0.2-0.4,0.7,0c0.3,0.4,0.6,1.1,0.9,1c0.1-0.1,0.1-0.2,0-0.4s-0.3-0.9,0.2-0.8
		c0.2,0.2,0.4,0.5,0.6,0.8c0.4,0.7,1.1,1.2,1.8,1.6c1.1,0.4,2.3,0.4,3.5,0.1C38,40.8,38.2,40.8,37.9,40.7z"/>
	<path style="fill:#CF76AB;" d="M29.6,41.5c0,0,0.2-0.1,0-0.3s-0.7-1.1-0.6-1.4c0-0.1-0.3-0.1-0.4,0.2S29.3,41.5,29.6,41.5z"/>
	<path style="fill:#CF76AB;" d="M29.4,39l0.1-0.2c0-0.1,0-0.3-0.2-0.1s-0.4,0.3,0,1.1c0.1,0,0.1,0,0.1-0.1c0,0,0-0.1,0-0.1
		C29.4,39.4,29.4,39.2,29.4,39z"/>
	<path style="fill:#CF76AB;" d="M30.2,38.8c0,0,0.2-0.2,0.2-0.3c0-0.1-0.1-0.1-0.1-0.1c0,0-0.1,0-0.1,0c-0.1,0.1-0.3,0.9,0.1,1.2
		c0.2,0,0.1-0.3,0-0.3S30.1,39,30.2,38.8z"/>
	<path style="fill:#CD4795;" d="M39.7,39.6c0,0,0.2-0.5-0.1-0.3s-0.3,0.5-0.3,0.8c-0.3,1.1-1,2-2,2.5c-1.2,0.5-2.5,0.8-3.8,0.8
		c1.2,0.3,2.4,0.2,3.6-0.2C38.5,42.6,39.6,41.2,39.7,39.6z"/>
	<path style="fill:#CF76AB;" d="M13.7,47.5c-0.1-0.5,0.1-1.1,0.5-1.3c1.4-0.7,2.6-1.8,3.4-3.2c0.1,0.1,0.2,0.1,0.3,0.1
		C17.1,45.1,15.6,46.6,13.7,47.5z"/>
	<path style="fill:#CD4795;" d="M18.3,48.9c1.1-1,2-2.1,2.7-3.4c0.4-0.7,2.6-0.7,1.8,1c-0.5,1.1-1.2,2.1-1.9,3.1
		c-0.4-0.3-0.9-0.5-1.5-0.5C19,49.1,18.6,49,18.3,48.9z"/>
	<path style="fill:#CD4795;" d="M27.2,50.1c0,0,0.6-2.8,0.6-3.4s2.1-1,2.2,0.5c0,0.8-0.1,1.7-0.4,2.5C28.8,49.4,27.9,49.5,27.2,50.1
		z"/>
	<path style="fill:#CD4795;" d="M36.1,49.6c0,0-2.9-2.7-1.4-3.6c1.3-0.8,2,0.9,2.4,1.3s1.2,1.2,1.2,1.2c-0.6-0.2-1.3,0-1.7,0.5
		C36,49.9,36.1,49.6,36.1,49.6z"/>
	<path style="fill:#640E3D;" d="M42,28.2c0,0,1.1,4.8-2.8,7c-1.8,1-2.1,1.1-2.1,1.1s3.5-0.8,4.6-3C42.8,31.6,42.9,26.7,42,28.2z"/>
	<path style="fill:#640E3D;" d="M26.6,30c0.3,2.7-0.8,5.3-2.9,7C26.2,35.7,27.5,32.7,26.6,30z"/>
	<path style="fill:#640E3D;" d="M14,28.9c0,0-2,3.7,1.8,7.4c1.3,0.9,2.8,1.5,4.3,1.6c-0.5,0.3-4.7-0.2-6.1-3.4S13.3,29.8,14,28.9z"
		/>
	<path style="fill:#640E3D;" d="M29.2,41.4c1.1,1.2,2.7,1.9,4.3,2C34.4,43.5,30.7,44.3,29.2,41.4z"/>
	<path style="fill:#640E3D;" d="M20.3,44c0,0,3,0.8,4.7-0.8C25.1,43.7,23.1,45,20.3,44z"/>
	<path style="fill:#942240;" d="M25.4,52.3c-0.1,1.3-0.1,2.5,0,3.8h1.4c0,0-0.3-2.9,1.9-2.5c0.4,0.8,0.4,1.7,0.2,2.5
		c-0.1,0,3.1,2.2,3.4,2.7s2.3,1.3,1.8,1.9c4.1,0,4.7,0.1,4.1-0.7c-1.3-0.9-6.1-4-6.1-4S32,48.8,25.4,52.3z"/>
	<path style="fill:#CF76AB;" d="M27.2,52.5c-0.3-0.2-0.9-0.5-1,0.1s0,3.7,0,3.7s-4.7,3.4-4.8,3.4s-0.7,0.5,0.4,0.6
		s10.3,0.2,10.4,0.1s2-0.4-2.2-0.4s-5.5-0.1-5.6-0.5s3.1-3.2,3.1-3.2v-2.9C27.5,53.4,27.4,52.7,27.2,52.5z"/>
</g>
</svg>
