<?xml version="1.0" encoding="utf-8"?>
<!-- Generator: Adobe Illustrator 22.0.0, SVG Export Plug-In . SVG Version: 6.00 Build 0)  -->
<svg version="1.1" id="Слой_1" xmlns="http://www.w3.org/2000/svg" xmlns:xlink="http://www.w3.org/1999/xlink" x="0px" y="0px"
	 viewBox="0 0 55.8 62.9" style="enable-background:new 0 0 55.8 62.9;" xml:space="preserve">
<title>10_1</title>
<path style="fill:#498049;" d="M22.9,61.3c-0.3,0-0.5-0.2-0.5-0.4c0,0,0,0,0-0.1c0-0.1,0-0.2,0.1-0.3c1.2-1.4,2.8-2.4,4.6-2.9
	c0-3.1-0.1-11.1,0-12h-0.9c-0.5,0-0.9-0.1-1.4-0.2c-0.5-0.2-0.9-0.4-1.3-0.8l-0.1-0.1c-0.4,0.4-0.9,0.6-1.5,0.6h-0.5
	c-0.7-0.1-1.4-0.6-1.7-1.3c-1-1.9,0.4-5.2,1.2-7.2c0.2-0.4,0.3-0.8,0.4-1c0.3-1.1,0-2-1-3.8c-0.7-1-1.6-1.8-2.7-2.3l-0.2,0.2
	c-1.9,1.8-4.9,1.8-6.7-0.1c-1.2-1.2-1.7-3.1-1.1-4.7c0.1-0.5,0.3-1,0.6-1.4c-1.2-3.4,0.3-7.2,3.5-8.8c0.8-0.3,1.7-0.5,2.6-0.5
	c1.1,0,2.2,0.2,3.2,0.7c0.9-3.1,3.8-5.2,7-5.1c2.7,0,4.8,1,5.9,2.8c1.2-1.6,3.4-1.9,4.9-0.7c0,0,0,0,0.1,0c0.6,0.4,1,1,1.3,1.7H39
	c2.2,0,3.9,1.7,3.9,3.9v0c0,0.4-0.1,0.8-0.2,1.2c1.4,0.7,2.3,2.1,2.3,3.7v0.1c1.5,0.9,1.9,2.8,1,4.2c0,0,0,0,0,0.1
	c-0.5,0.7-1.2,1.2-2,1.4c-0.6,1.6-2.4,2.4-4,1.8c-0.5-0.2-1-0.5-1.3-0.9c-0.8,0.6-2.7,1.9-2.6,3.6c0.1,1.1,0.5,2.1,1,3
	c0.9,1.5,1.4,3.2,1.4,5c-0.1,2.5-0.8,3.8-2,4.2C36.3,45,36.2,45,36,45h-0.3c-0.7,0-1.3-0.3-1.6-0.9c-0.2,0.2-0.5,0.4-0.8,0.6
	c-0.4,0.2-0.8,0.3-1.2,0.4h-0.7v12.1c0.5,0,1.1,0.1,1.6,0.2c1.7,0.3,3.1,1.5,3.5,3.2c0,0.3-0.1,0.5-0.4,0.6H36L22.9,61.3z"/>
<path style="fill:#FFFFFF;" d="M26.6,10.3c2.7,0,4.9,1,5.9,3.3c0.6-1.6,2.4-2.4,4-1.8c1,0.4,1.7,1.3,1.9,2.3c1.8-0.3,3.6,1,3.9,2.8
	c0.1,0.7,0,1.4-0.3,2.1c1.6,0.6,2.6,2.2,2.4,3.9c1.2,0.5,1.8,2,1.3,3.3c0,0,0,0.1-0.1,0.1c-0.4,0.8-1.2,1.4-2.1,1.5
	c-0.3,1.4-1.7,2.2-3.1,1.9c0,0,0,0,0,0c-0.7-0.2-1.3-0.6-1.6-1.2l0,0c0,0-3.4,1.7-3.3,4.2s2.6,4.6,2.5,8c-0.1,2.7-0.8,3.5-1.6,3.8
	c-0.1,0.1-0.3,0.1-0.4,0.1h-0.2c-0.7,0-1.2-0.3-1.4-1.4l-0.1,0.1c-0.1,0.1-0.2,0.3-0.3,0.4c-0.2,0.3-0.5,0.5-0.8,0.6
	c-0.3,0.2-0.6,0.3-1,0.3h-0.5c-0.2,0-0.3,0-0.5-0.1H31v13.1c0.7,0,1.3,0.1,2,0.2c1.5,0.2,2.8,1.3,3.1,2.8H23
	c1.2-1.4,2.8-2.3,4.6-2.7c0,0-0.1-13.1,0-13.1v-0.1l-0.2,0.1C27.2,44.9,27,45,26.8,45h-0.6c-0.4,0-0.8-0.1-1.2-0.2
	c-0.4-0.1-0.8-0.4-1.1-0.7c-0.2-0.1-0.3-0.3-0.4-0.5v0.1c-0.3,0.5-0.9,0.8-1.5,0.9h-0.3c-3.7-0.9-0.2-7.4,0.2-8.8s-0.1-2.4-1-4.1
	c-0.8-1.2-1.9-2.1-3.2-2.6l-0.1,0.1c-0.1,0.1-0.3,0.2-0.4,0.3c-1.7,1.6-4.4,1.6-6-0.1c-1-1.1-1.4-2.7-1-4.1l0,0
	c0.1-0.5,0.3-1.1,0.6-1.5c-1.4-3.3,0-7,3.2-8.6c0.8-0.3,1.6-0.5,2.4-0.4c1.1,0,2.2,0.2,3.2,0.8l0.2-0.1h0.1
	C20.6,12.4,23.4,10.2,26.6,10.3 M26.6,9.3c-3.2-0.1-6.2,1.9-7.3,4.9c-0.9-0.3-1.9-0.5-2.9-0.5c-1,0-2,0.2-2.9,0.5
	c-3.4,1.7-5.1,5.7-3.9,9.3c-0.3,0.4-0.5,0.9-0.6,1.4c-0.8,2.8,0.8,5.7,3.6,6.5c0,0,0,0,0,0c1.8,0.5,3.7,0,5-1.2l0,0
	c1,0.4,1.8,1.1,2.4,1.9c1,1.8,1.2,2.5,0.9,3.4c-0.1,0.3-0.2,0.6-0.4,0.9c-0.8,2-2.2,5.5-1.1,7.6c0.4,0.8,1.1,1.3,2,1.5
	c0.2,0,0.4,0.1,0.6,0.1c0.5,0,1-0.2,1.4-0.5c0.4,0.3,0.8,0.5,1.2,0.7c0.5,0.2,1,0.3,1.5,0.3h0.4v11.2c-1.7,0.6-3.3,1.6-4.5,2.9
	c-0.3,0.4-0.2,1.1,0.2,1.4h0c0.2,0.1,0.4,0.2,0.6,0.2h13c0.5,0,1-0.4,1-0.9c0,0,0-0.1,0-0.1v-0.2c-0.4-1.9-2-3.4-3.9-3.7
	c-0.4-0.1-0.8-0.1-1.2-0.2V45.6H32c0.5,0,1-0.2,1.4-0.4c0.2-0.1,0.3-0.2,0.5-0.3c0.5,0.4,1.1,0.7,1.7,0.7H36c0.2,0,0.5-0.1,0.7-0.2
	c1.9-0.6,2.2-2.9,2.3-4.6c0-1.9-0.5-3.7-1.5-5.3c-0.5-0.9-0.8-1.8-1-2.8c-0.1-1.1,1.2-2.2,2.1-2.8c1.5,1.4,3.8,1.3,5.2-0.2
	c0.3-0.3,0.5-0.6,0.6-0.9c1.9-0.6,3-2.7,2.4-4.6c-0.2-0.7-0.7-1.3-1.3-1.8c0-1.6-0.9-3-2.2-3.8c0.1-0.3,0.1-0.7,0.1-1
	c0-2.4-1.8-4.3-4.2-4.4c-0.8-2.1-3.1-3.1-5.2-2.3c0,0-0.1,0-0.1,0c-0.5,0.2-0.9,0.5-1.3,0.8C31.1,10.1,28.9,9.1,26.6,9.3L26.6,9.3z"
	/>
<path style="fill:#71AC72;" d="M44.4,22.9c0.2-1.7-0.8-3.3-2.4-3.9c0.9-1.7,0.2-3.7-1.4-4.6c0,0,0,0-0.1,0c-0.6-0.3-1.4-0.4-2.1-0.3
	c-0.3-1.6-1.9-2.7-3.5-2.4c0,0-0.1,0-0.1,0c-1,0.2-1.9,0.9-2.3,1.9c-1.1-2.3-3.2-3.3-5.9-3.3c-3.3-0.1-6.1,2.2-6.7,5.4
	c-1.8-1-4-1.2-6-0.5c-3.2,1.6-4.6,5.3-3.2,8.6c-1.4,1.9-1.1,4.6,0.8,6c1.9,1.4,4.6,1.1,6-0.8c1.4,0.6,2.5,1.5,3.4,2.7
	c1,1.8,1.4,2.8,1,4.1s-3.9,7.9-0.2,8.7c1.2,0.3,2-1.1,2-1.1s0.2,1.1,4,1.2v13.3c-1.8,0.4-3.5,1.4-4.7,2.8h13
	c-0.4-1.5-1.6-2.6-3.1-2.8c-0.7-0.1-1.3-0.2-2-0.2V44.6c1.3,0.2,2.6-0.4,3.4-1.4c0.2,1.1,0.8,1.4,1.5,1.4c1,0,2.1-0.5,2.3-3.8
	s-2.3-5.5-2.5-8s3.3-4.2,3.3-4.2l0,0c0.7,1.2,2.2,1.6,3.4,1c0,0,0.1,0,0.1-0.1c0.6-0.4,1-0.9,1.2-1.6c1.4-0.1,2.4-1.3,2.3-2.7
	c0,0,0-0.1,0-0.1C45.8,24.2,45.2,23.3,44.4,22.9z"/>
<path style="fill:#5BA461;" d="M39.3,25.2c0-1.1-0.9-2-2-2c-1.5-0.2-3,0.5-3.8,1.8v-1.5c-0.1-0.3,0-0.5,0.2-0.7
	c0.1-0.1,0.3-0.2,0.4-0.3l0.1-0.1l0,0l0.2-0.2c0.2-0.1,0.3-0.2,0.5-0.3c-0.1-0.9-0.5-1.7-1.3-2.2c-0.8-0.6-1.8-0.8-2.8-0.6L30.7,19
	l-0.1,0.1c0.6,0.9,0.7,2,0.2,3c-0.9-1.2-2.5-1.8-4-1.5c-1.2,0.2-2.2,0.9-2.7,1.9c-0.4,0.5-0.6,1-0.8,1.6c-0.3-0.7-0.4-1.5-0.3-2.2
	c0-0.2,0.1-0.4,0.1-0.6v-0.1c0.1-0.1,0.1-0.3,0.2-0.4v-0.4c0-0.2,0.1-0.4,0.1-0.6v-0.1c0.1-0.4-0.1-0.9-0.6-1c0,0,0,0,0,0h-0.1
	c-2-0.6-4,0.5-4.7,2.4c0,0.1-0.1,0.2-0.1,0.3c-0.3,0.6-0.4,1.3-0.4,2c0,0.1,0,0.3,0.1,0.4c-0.5-0.1-0.9-0.1-1.4,0
	c-1.8,0.4-4.2,2.6-3.1,4.6c0.1,0.3,0.4,0.6,0.7,0.7c1.5,1.2,4-0.8,5-1.2c0.3,0.1,0.6,0.7,0.8,0.8l0.2,0.2l0.5,0.2
	c1.3,1.1,2.5,2.3,3.6,3.7l0,0c0.1,0.2,0.2,0.3,0.3,0.4c1.2,0.5,2.5,0.8,3.8,1c1.6,0.4,3.2,0.5,4.8,1c0.4,0.1,0.8-0.1,1-0.5
	c0.2-0.2,0.4-0.4,0.5-0.6c0.4-0.9,0.3-1.9,0.7-2.8c0.3-0.6,0.6-1.2,0.9-1.8c0.3-0.2,0.6-0.5,0.8-0.8c1-0.6,2.6-1.3,2.8-2.6
	C39.5,25.8,39.4,25.5,39.3,25.2z"/>
<path style="fill:#498049;" d="M25.5,40.8c0,0-0.3-0.5,1.2-0.4c0.8,0.1,1.7,0.1,2.5-0.1c0.4-0.1,2.2-1.3,2.8-1s1.2,0.9,0,1.6
	c-1.5,0.6-3,0.8-4.6,0.6C26.5,41.4,25.9,41.3,25.5,40.8z"/>
<path style="fill:#FFFFFF;" d="M34.9,32.3c0,0,0,7.7-6.4,7.8s-6.8-7-5.6-9.6c1.5-3.2,5.3-4.8,8.7-3.5C33.7,27.9,35,30,34.9,32.3z"/>
<path style="fill:#498049;" d="M34.9,32.3c0,0.9-0.1,1.8-0.4,2.6c-0.2,0.8-0.5,1.6-1,2.4l-0.7,1.1c-0.3,0.4-0.6,0.7-1,1
	c-0.7,0.5-1.5,0.8-2.4,1c-0.9,0.1-1.8,0.1-2.6,0c-0.5-0.1-0.8-0.2-1.3-0.4c-0.5-0.1-0.9-0.4-1.2-0.7c-0.4-0.3-0.7-0.6-1-1
	c-0.2-0.4-0.4-0.8-0.5-1.3c-0.4-0.8-0.6-1.7-0.7-2.6c-0.1-0.9,0-1.8,0.1-2.6c0.1-0.5,0.2-0.8,0.4-1.3c0.2-0.4,0.4-0.8,0.7-1.2
	c1.1-1.4,2.7-2.4,4.5-2.6c1.8-0.3,3.6,0.1,5,1.2C34.2,28.9,35,30.5,34.9,32.3z M34.9,32.3c0-0.9-0.2-1.7-0.6-2.5
	c-0.4-0.8-0.9-1.4-1.7-1.9c-1.4-1-3.2-1.3-4.9-1c-1.7,0.4-3.2,1.3-4.2,2.7c-0.2,0.3-0.4,0.7-0.6,1.1c-0.1,0.4-0.2,0.8-0.4,1.2
	c-0.1,0.8-0.1,1.7-0.1,2.5c0.1,0.8,0.3,1.6,0.6,2.4c0.4,0.7,0.9,1.4,1.4,2c0.6,0.6,1.3,0.9,2.1,1.1c0.8,0.2,1.7,0.3,2.5,0.1
	c0.8-0.1,1.7-0.4,2.4-0.8c0.4-0.2,0.7-0.5,1-0.8c0.2-0.4,0.6-0.7,0.8-1.1C34.3,35.7,34.9,34,34.9,32.3z"/>
<path style="fill:#3F9C53;" d="M25.1,28.5c1.3-1.1,3.1-1.5,4.8-1.2c3.2,0.4,4.4,3.7,4.6,4.6c0.4,2.7-1.7,9.1-7.6,7
	C21.9,37.2,23.2,30.2,25.1,28.5z"/>
<path d="M25,34.6c-0.7-1.8,0.4-7.5,5.4-5.9s2.9,7.4,1.7,8.1C30.9,37.2,26.9,39.4,25,34.6z"/>
<path style="fill:#3F9C53;" d="M26.5,23.1c1.4-0.5,4.7-1.3,5.5,1.8c0.5,2-1.7,0.4-3.9,0.8c-4.4,0.5-4.5,2.9-5.5,2.5
	C22.2,27.9,22.1,24.5,26.5,23.1z"/>
<path style="fill:#A5CFB3;" d="M10,25.2c0.2-0.8,0.6-1.6,1.3-2.1c0.7-0.5,1.5-0.8,2.4-0.9H15c0.4,0.1,0.8,0.2,1.2,0.4
	c0.8,0.4,1.4,1.1,1.5,2c-0.5-0.5-1.2-0.8-1.9-1c-0.3-0.1-0.7-0.1-1-0.1h-1c-0.7,0.1-1.3,0.2-1.9,0.5C11.2,24.3,10.6,24.7,10,25.2z"
	/>
<path style="fill:#93BD91;" d="M15.4,22.7c-0.4-1.4-0.2-3,0.6-4.2l0.1-0.2l0.2-0.2c0.1-0.1,0.2-0.3,0.4-0.4l0.8-0.8l0.5-0.3l0.5-0.3
	c0.6-0.4,1.4-0.7,2.1-0.9c0.2,0,0.4-0.1,0.6-0.1s0.4-0.1,0.6-0.1h0.6c0.2,0,0.4,0,0.6,0.1c0.2,0,0.3,0.1,0.5,0.1
	c0.2,0,0.4,0.1,0.5,0.2c1.4,0.5,2.5,1.4,3.3,2.6c-1.1-0.8-2.3-1.4-3.6-1.7c-1.2-0.2-2.5-0.1-3.6,0.4l-0.4,0.2
	c-0.1,0.1-0.3,0.1-0.4,0.2l-0.4,0.2l-0.4,0.3c-0.3,0.2-0.5,0.4-0.7,0.6l-0.3,0.3L17,18.9l-0.1,0.2C16,20.1,15.5,21.4,15.4,22.7z"/>
<path style="fill:#A5CFB3;" d="M33.4,26c-0.2-0.6-0.3-1.3-0.3-1.9c0-0.7,0.3-1.4,0.7-1.9c0.5-0.5,1.1-0.9,1.7-1.1
	c0.7-0.2,1.3-0.2,2-0.2c0.7,0,1.4,0.2,2,0.5c0.6,0.4,1,1,1.2,1.7c0.1,0.7,0.1,1.3,0,2c-0.2,0.6-0.4,1.2-0.7,1.8
	c0.1-0.6,0.2-1.2,0.2-1.8c0-0.6,0-1.2-0.2-1.7c-0.2-0.5-0.5-1-1-1.2c-0.5-0.3-1-0.4-1.6-0.4c-0.6,0-1.1,0-1.7,0.1
	c-0.6,0.1-1.1,0.4-1.5,0.8c-0.4,0.4-0.7,0.9-0.8,1.5C33.3,24.8,33.3,25.4,33.4,26z"/>
<path style="fill:#A5CFB3;" d="M28,17.9c0.3-0.4,0.7-0.7,1.2-0.9c0.5-0.2,1-0.3,1.5-0.4c1-0.1,2,0,3,0.4c0.5,0.1,1,0.3,1.4,0.6
	c0.4,0.3,0.7,0.6,1,1c0.6,0.8,0.9,1.8,0.8,2.8c-0.1-1-0.5-1.9-1.2-2.6c-0.3-0.3-0.7-0.6-1.1-0.9c-0.4-0.2-0.8-0.4-1.3-0.5
	c-0.9-0.3-1.9-0.4-2.8-0.4C29.6,17,28.7,17.3,28,17.9z"/>
<path style="fill:#A5CFB3;" d="M32.1,16.7c0.6-1,1.6-1.7,2.7-1.9c0.3-0.1,0.6-0.1,0.9-0.1h0.8c0.3,0,0.6,0.1,0.8,0.2l0.4,0.1
	c0.2,0,0.3,0.1,0.4,0.2l0.4,0.2c0.1,0.1,0.2,0.1,0.4,0.2c0.3,0.1,0.5,0.3,0.7,0.5c0.4,0.4,0.8,0.9,1,1.4c0.4,1.1,0.4,2.2,0,3.3
	c0.1-1-0.1-2.1-0.5-3c-0.3-0.4-0.6-0.8-1-1.1l-0.3-0.2c-0.1-0.1-0.2-0.1-0.3-0.2s-0.2-0.1-0.3-0.2l-0.3-0.2c-0.1,0-0.2-0.1-0.3-0.2
	h-0.5c-0.2-0.1-0.5-0.2-0.7-0.2c-0.1,0-0.2-0.1-0.4-0.1h-1.2C33.8,15.6,32.8,16,32.1,16.7z"/>
<path style="fill:#71AC72;" d="M23.5,40.9c0,0-0.7,1.5,0,2.3c0.8,1.2,2.2,1.8,3.6,1.6c1.3-0.1,1.1-2.2,1.1-2.2"/>
<path style="fill:#498049;" d="M23.5,40.9c-0.1,0.4-0.2,0.7-0.2,1.1v0.5c0,0.2,0.1,0.3,0.2,0.5c0.2,0.3,0.4,0.6,0.7,0.8
	c0.3,0.2,0.6,0.4,0.9,0.5c0.4,0.1,0.7,0.2,1.1,0.2h1.1c0.3-0.2,0.5-0.5,0.6-0.8c0.1-0.4,0.2-0.7,0.2-1.1c0.1,0.4,0.1,0.8,0,1.2
	c0,0.2-0.1,0.4-0.2,0.6c-0.1,0.2-0.3,0.4-0.5,0.5c-0.2,0.1-0.4,0.2-0.6,0.2h-0.6c-0.4,0-0.7-0.1-1.1-0.2c-0.4-0.1-0.8-0.4-1.1-0.7
	c-0.2-0.1-0.3-0.3-0.4-0.5c-0.1-0.2-0.2-0.4-0.4-0.5C23,43.1,23,42.9,23,42.6V42C23.1,41.6,23.3,41.2,23.5,40.9z"/>
<path style="fill:#71AC72;" d="M29.6,43c0,0,0.5,1.3,1.4,1.4c1.2,0.2,2.4-0.3,3.1-1.3c0.7-0.9-0.7-2-0.7-2"/>
<path style="fill:#498049;" d="M29.6,43c0.2,0.3,0.4,0.5,0.6,0.8c0.1,0.1,0.2,0.2,0.4,0.3c0.1,0.1,0.3,0.1,0.4,0.2h0.9
	c0.3,0,0.6-0.1,0.9-0.3c0.3-0.1,0.6-0.3,0.8-0.5l0.3-0.3C34,43.1,34,43.1,34,43l0.1-0.1v-0.2c0.1-0.3,0-0.6-0.1-0.8
	c-0.2-0.3-0.4-0.6-0.6-0.8c0.3,0.2,0.6,0.4,0.8,0.7c0.1,0.2,0.2,0.3,0.3,0.5c0.1,0.2,0.1,0.4,0,0.6c-0.1,0.2-0.1,0.4-0.3,0.5
	s-0.2,0.3-0.3,0.4c-0.2,0.3-0.5,0.5-0.8,0.6c-0.3,0.2-0.6,0.3-1,0.3h-0.5c-0.2,0-0.3,0-0.5-0.1c-0.2,0-0.4-0.1-0.5-0.2
	c-0.1-0.1-0.3-0.2-0.4-0.4C29.9,43.7,29.7,43.4,29.6,43z"/>
<path style="fill:#A5CFB3;" d="M20.5,14.7c0.4-1.4,1.4-2.5,2.6-3.2c1.3-0.7,2.7-1,4.1-0.9c0.4,0,0.7,0.1,1,0.1l1.1,0.3
	c0.7,0.3,1.3,0.7,1.8,1.2c0.9,1.1,1.5,2.4,1.5,3.8c-0.2-0.6-0.5-1.2-0.9-1.8c-0.3-0.5-0.7-1-1.2-1.4c-0.5-0.4-1-0.7-1.6-0.9
	c-0.3-0.1-0.6-0.2-0.9-0.2c-0.3,0-0.6-0.1-1-0.1c-1.3-0.1-2.5,0.1-3.7,0.6C22.2,12.8,21.2,13.6,20.5,14.7z"/>
<path style="fill:#A5CFB3;" d="M11.1,22.9c-0.5-1.1-0.6-2.3-0.3-3.4c0.1-0.6,0.4-1.1,0.7-1.6c0.3-0.5,0.7-1,1.1-1.4
	c0.4-0.4,0.9-0.8,1.5-1c0.6-0.2,1.2-0.4,1.8-0.4c1.2-0.1,2.3,0.2,3.3,0.8c-1.1-0.1-2.1-0.1-3.2,0.1c-0.5,0.1-1,0.3-1.4,0.5
	c-0.5,0.2-0.9,0.5-1.2,0.9l-0.3,0.3L12.9,18c-0.2,0.2-0.3,0.4-0.5,0.6c-0.3,0.4-0.5,0.8-0.7,1.3C11.1,20.8,10.9,21.9,11.1,22.9z"/>
<path style="fill:#A5CFB3;" d="M23,21.4c0.2-0.8,0.6-1.6,1.1-2.3c0.6-0.7,1.3-1.2,2.2-1.4c0.4-0.1,0.9-0.2,1.3-0.2
	c0.4,0,0.9,0.1,1.3,0.2c0.4,0.1,0.8,0.3,1.2,0.6c0.3,0.3,0.5,0.7,0.6,1.1c-0.3-0.3-0.6-0.5-0.9-0.7c-0.3-0.1-0.7-0.2-1-0.2h-1.1
	c-0.2,0-0.4,0-0.5,0.1c-0.2,0-0.3,0.1-0.5,0.1c-0.7,0.2-1.3,0.6-1.9,1C24.1,20.2,23.5,20.8,23,21.4z"/>
<path style="fill:#93BD91;" d="M41.8,24c0.4-0.4,0.9-0.7,1.5-0.8c0.3-0.1,0.7-0.1,1,0c0.3,0.1,0.6,0.3,0.9,0.5
	c0.2,0.2,0.4,0.6,0.5,0.9c0.1,0.3,0.1,0.7,0,1c-0.1,0.6-0.5,1.1-1.1,1.4c0.3-0.5,0.5-1,0.5-1.5c0-0.4-0.2-0.9-0.5-1.2
	c-0.1-0.2-0.3-0.3-0.5-0.3c-0.2-0.1-0.5-0.1-0.7-0.1C42.9,23.8,42.3,23.9,41.8,24z"/>
<path style="fill:#93BD91;" d="M40.8,19.2c0.5-0.1,1,0,1.5,0.1c0.5,0.2,1,0.6,1.3,1c0.1,0.1,0.2,0.2,0.2,0.4
	c0.1,0.1,0.1,0.2,0.2,0.4s0.1,0.3,0.1,0.4v1.2c-0.1,0.2-0.1,0.5-0.2,0.7c-0.1-0.2-0.1-0.5-0.2-0.7l-0.1-0.3v-0.2L43.5,22l-0.1-0.3
	l-0.1-0.3c0-0.1-0.1-0.2-0.2-0.3s-0.1-0.2-0.2-0.3L42,19.9C41.6,19.7,41.2,19.4,40.8,19.2z"/>
<path style="fill:#3F9C53;" d="M22.7,36.9c0,0.9,0.1,1.7,0.5,2.5c0.3,0.8,0.8,1.4,1.5,1.9c0.7,0.4,1.5,0.7,2.3,0.9
	c0.8,0.1,1.7,0.2,2.5,0.1c0.8,0,1.6-0.2,2.4-0.5c0.4-0.2,0.7-0.4,1.1-0.6c0.3-0.2,0.6-0.5,0.8-0.9c0.5-0.7,0.8-1.5,0.9-2.3
	c0.1-0.8,0.1-1.7,0-2.5c0.2,0.4,0.3,0.9,0.3,1.3v1.3c-0.1,0.9-0.3,1.7-0.8,2.5c-0.2,0.4-0.5,0.7-0.9,1c-0.3,0.3-0.7,0.5-1.1,0.7
	c-0.8,0.3-1.7,0.5-2.6,0.6c-0.9,0.1-1.7,0-2.6-0.1c-0.2,0-0.4-0.1-0.6-0.2c-0.2-0.1-0.4-0.1-0.6-0.2l-1.2-0.6
	c-0.7-0.5-1.3-1.3-1.5-2.1c-0.1-0.4-0.2-0.8-0.3-1.3C22.7,37.9,22.6,37.4,22.7,36.9z"/>
<path style="fill:#3F9C53;" d="M21.7,37.3c-0.2,0.7-0.4,1.4-0.5,2.1c-0.2,0.7-0.3,1.3-0.4,2v1c0,0.3,0.1,0.6,0.3,0.9
	c0.2,0.3,0.4,0.4,0.7,0.5c0.3,0,0.7-0.1,0.9-0.4c-0.1,0.2-0.2,0.3-0.3,0.5c-0.2,0.1-0.4,0.2-0.6,0.2c-0.4,0-0.8-0.2-1.1-0.5
	c-0.3-0.3-0.4-0.7-0.5-1.1v-1.1c0.1-0.7,0.2-1.4,0.5-2.1C21,38.6,21.3,37.9,21.7,37.3z"/>
<path style="fill:#A5CFB3;" d="M22.4,27.4c-0.2-1.2,0.2-2.4,1.1-3.2c0.8-0.9,1.9-1.4,3.1-1.6c1.1-0.3,2.3-0.4,3.5-0.1
	c0.6,0.2,1.1,0.5,1.6,0.9c0.4,0.5,0.6,1,0.7,1.7c-0.1-0.5-0.5-1-0.9-1.3c-0.4-0.2-0.9-0.4-1.4-0.5c-0.6-0.1-1.2-0.1-1.7,0l-1.1,0.2
	l-0.4,0.1l-0.4,0.1l-0.4,0.1l-0.4,0.1l-0.4,0.2c-0.5,0.2-0.9,0.4-1.3,0.8C23,25.4,22.6,26.4,22.4,27.4z"/>
<path style="fill:#A5CFB3;" d="M23.9,60.3c0.8-0.7,1.6-1.2,2.6-1.5c1-0.4,2-0.6,3-0.6c1,0,2.1,0.1,3.1,0.3c0.3,0,0.5,0.1,0.8,0.2
	l0.4,0.2l0.3,0.2c0.2,0.1,0.4,0.3,0.6,0.5c0.2,0.2,0.3,0.4,0.3,0.7c0-0.3-0.2-0.5-0.4-0.6c-0.2-0.1-0.4-0.3-0.6-0.3
	c-0.4-0.2-0.9-0.3-1.4-0.3c-0.5-0.1-1-0.1-1.5-0.1h-1.5c-0.5,0-1,0.1-1.5,0.1c-0.2,0-0.5,0.1-0.7,0.1c-0.2,0-0.5,0.1-0.7,0.2
	C25.7,59.5,24.7,59.8,23.9,60.3z"/>
<path style="fill:#FFFFFF;" d="M25.8,28.5c0.3-0.3,0.6-0.4,1-0.2c1,0.6,1.9,1.4,2.6,2.3c0.4,0.6-0.4,2.1-1.4,0.7
	c-0.3-0.5-0.7-0.9-1.1-1.3C26.3,29.3,25.4,28.8,25.8,28.5z"/>
<path style="fill:#FFFFFF;" d="M31.1,35.2c0,0,0.5-0.1,0.8,0.7s0.2,1.2-0.1,1.4S31.1,36.9,31,36S31.1,35.2,31.1,35.2z"/>
<path style="fill:#3F9C53;" d="M24.1,60.3c0.9-0.1,1.9-0.2,2.8-0.3c0.9-0.1,1.9-0.1,2.8-0.1h2.8c0.9,0,1.9,0.2,2.8,0.4h-2.8
	l-2.8,0.1h-2.8C26,60.4,25,60.4,24.1,60.3z"/>
<path style="fill:#3F9C53;" d="M34.8,36.1c0.2,0.7,0.4,1.4,0.4,2.1c0,0.4,0,0.7-0.1,1.1l-0.3,1c-0.2,0.7-0.2,1.3-0.2,2
	c0,0.2,0,0.3,0.1,0.5c0,0.1,0,0.2,0.1,0.2c0,0.1,0,0.1,0.1,0.2l0.1,0.2l0.2,0.2l0.3,0.3c0.2,0.2,0.5,0.2,0.7,0c0,0,0,0,0,0
	c0.2-0.2,0.4-0.4,0.5-0.7c0.3-0.6,0.4-1.3,0.5-2c0.1-1.4,0-2.8-0.4-4.2c0.6,1.3,0.9,2.8,0.9,4.2c0,0.7-0.2,1.5-0.4,2.2
	c-0.1,0.4-0.4,0.7-0.7,1c-0.2,0.1-0.4,0.2-0.6,0.2c-0.2,0-0.5-0.1-0.7-0.2c-0.2-0.1-0.3-0.3-0.4-0.4l-0.2-0.3l-0.2-0.3
	c-0.2-0.3-0.3-0.7-0.3-1.1v-1.1c0.1-0.4,0.1-0.7,0.2-1.1s0.2-0.7,0.3-1c0.1-0.3,0.2-0.7,0.2-1C35,37.4,35,36.8,34.8,36.1z"/>
<path style="fill:#93BD91;" d="M32.7,13.6c0.3-0.6,0.8-1.2,1.4-1.5c0.3-0.2,0.6-0.3,1-0.4c0.4,0,0.7,0,1.1,0.1
	c0.7,0.2,1.3,0.8,1.6,1.5c0.3,0.6,0.4,1.3,0.4,2c-0.2-0.6-0.4-1.2-0.8-1.8c-0.3-0.5-0.8-0.9-1.4-1.1c-0.6-0.2-1.2-0.2-1.8,0.1
	C33.6,12.8,33.1,13.1,32.7,13.6z"/>
<path style="fill:#3F9C53;" d="M11,28.6c0.6,0.5,1.3,0.9,2,1h1.2c0.4,0,0.7,0,1.1-0.1c0.2,0,0.3-0.1,0.5-0.1l0.5-0.2
	c0.4-0.1,0.7-0.3,1-0.5c0.6-0.4,1-1.1,1.2-1.8c0,0.8-0.4,1.6-1,2.1c-0.3,0.3-0.6,0.5-1,0.6l-0.6,0.2c-0.2,0.1-0.4,0.1-0.6,0.2
	c-0.8,0.2-1.6,0.1-2.4-0.1C12.1,29.7,11.5,29.2,11,28.6z"/>
<path style="fill:#93BD91;" d="M38.1,14.5c0.6-0.2,1.3-0.2,1.9,0c0.3,0.1,0.6,0.2,0.9,0.4c0.1,0.1,0.3,0.2,0.4,0.3s0.1,0.1,0.2,0.2
	l0.1,0.2c0.3,0.5,0.5,1.2,0.5,1.8c0,0.6-0.1,1.2-0.4,1.8c0.2-0.6,0.3-1.2,0.2-1.8c-0.1-0.6-0.3-1.2-0.6-1.7
	c-0.1-0.3-0.3-0.5-0.6-0.6c-0.2-0.2-0.5-0.3-0.8-0.4c-0.3-0.1-0.6-0.1-0.9-0.2H38.1z"/>
<path style="fill:#93BD91;" d="M27.6,43.2c0.1,0.3,0.1,0.5,0,0.8c-0.1,0.3-0.3,0.5-0.6,0.6c-0.3,0.1-0.5,0.1-0.8,0
	c-0.1,0-0.2-0.1-0.3-0.2s-0.2-0.1-0.3-0.2h0.7c0.2,0,0.3-0.1,0.5-0.1c0.2-0.1,0.3-0.2,0.4-0.3C27.3,43.6,27.5,43.4,27.6,43.2z"/>
<path style="fill:#93BD91;" d="M33.3,43.3c-0.2,0.3-0.5,0.5-0.8,0.6c-0.3,0.1-0.7,0.2-1,0.2c-0.4,0-0.7-0.1-1-0.3
	c-0.3-0.2-0.5-0.5-0.6-0.8c0.2,0.2,0.5,0.3,0.8,0.4c0.3,0.1,0.5,0.2,0.8,0.2C32.1,43.6,32.7,43.5,33.3,43.3z"/>
<path style="fill:#5BA461;" d="M42.9,26.1c-0.4-0.6-1-1-1.7-1.1c-0.7-0.2-1.5-0.2-2.1,0.2c-0.3,0.2-0.6,0.5-0.7,0.9l0,0
	c-0.4,0.1-0.8,0.4-0.7,0.9c0,0,0,0,0,0c0,0.4,0.3,0.7,0.7,0.7c0,0,0,0,0,0c0.7,0,1.3,0.8,2,1c0.8,0.3,1.6,0.1,2.2-0.5
	C43.2,27.7,43.3,26.8,42.9,26.1z"/>
<path style="fill:#3F9C53;" d="M25.5,18c-0.5,0.3-0.9,0.7-1.2,1.2c-0.3,0.5-0.6,1-0.7,1.5l-0.1,0.4c0,0.1,0,0.3-0.1,0.4
	c-0.1,0.3-0.1,0.5-0.1,0.8v1.8L23,23.2c-0.1-0.3-0.1-0.6-0.1-0.9c-0.1-0.6,0-1.2,0.1-1.8c0.2-0.6,0.6-1.1,1-1.6
	C24.4,18.5,24.9,18.1,25.5,18z"/>
<path style="fill:#3F9C53;" d="M15.4,22c-0.2-1.4,0-2.8,0.8-4l0.3-0.4l0.3-0.4c0.1-0.1,0.2-0.3,0.4-0.4s0.3-0.2,0.4-0.3
	c0.3-0.2,0.6-0.4,0.9-0.5l0.5-0.2l0.5-0.2l0.5-0.2l0.5-0.1c0.2,0,0.3-0.1,0.5-0.1l0.5-0.1h1.1c0.3,0,0.7,0.1,1,0.1
	c1.4,0.3,2.5,1.2,3.2,2.4c-0.7-1.1-1.9-1.8-3.2-2c-0.2,0-0.3-0.1-0.5-0.1h-1.4l-0.5,0.1c-0.2,0-0.3,0.1-0.5,0.1L20,15.9l-0.5,0.2
	L19,16.2l-0.4,0.2c-0.3,0.1-0.6,0.3-0.8,0.5c-0.5,0.4-1,0.8-1.3,1.4C15.7,19.4,15.3,20.7,15.4,22z"/>
<path style="fill:#3F9C53;" d="M28.2,17.5c0.6-0.5,1.3-0.8,2.1-1c0.4-0.1,0.8-0.2,1.2-0.2h1.2c0.8,0.1,1.5,0.3,2.2,0.7
	c0.4,0.2,0.7,0.4,0.9,0.8c0.2,0.3,0.4,0.6,0.5,1c-0.3-0.7-0.9-1.2-1.6-1.4c-0.7-0.3-1.4-0.4-2.1-0.5c-0.4,0-0.7-0.1-1.1-0.1
	c-0.4,0-0.7,0-1.1,0.1C29.6,17,28.9,17.2,28.2,17.5z"/>
<path style="fill:#3F9C53;" d="M33.3,25.9c-0.4-0.7-0.6-1.5-0.5-2.3c0.1-0.4,0.2-0.8,0.4-1.1l0.2-0.3l0.2-0.2
	c0.1-0.2,0.3-0.3,0.5-0.4c0.7-0.5,1.5-0.7,2.3-0.8c0.8,0,1.6,0.1,2.3,0.4c-0.7-0.1-1.5-0.1-2.2,0c-0.2,0-0.3,0.1-0.5,0.1
	c-0.2,0-0.4,0.1-0.5,0.2c-0.3,0.1-0.6,0.3-0.9,0.5c-0.6,0.4-1,1.1-1.2,1.8C33.1,24.5,33.1,25.2,33.3,25.9z"/>
<path style="fill:#498049;" d="M23.8,27.6c-0.2,0.2-0.4,0.4-0.6,0.5c-0.1,0-0.2-0.5,0.1-0.9c1.9-1.6,4.3-2.3,6.8-2.1
	c1.2,0.3,2.4,0.8,1.7,0.8s-1.6-0.2-2.2-0.2S25.6,25.6,23.8,27.6z"/>
<path style="fill:#85B685;" d="M28.5,41c0-0.1,0-0.3,0.5-0.4s0.7,0.1,0.7,0.2S28.6,41.5,28.5,41z"/>
<path style="fill:#85B685;" d="M30.5,40.2c0,0,0.4-0.2,0.6-0.1c0.2,0.2,0.2,0.4,0,0.6L31,40.8C30.6,40.9,29.9,40.7,30.5,40.2z"/>
<path style="fill:#85B685;" d="M27.2,40.9c0-0.1,0.1-0.2,0.3-0.2l0,0c0.3,0,0.5,0.3,0.3,0.4S27.1,41.4,27.2,40.9z"/>
<path style="fill:#3F9C53;" d="M27.6,58l0.7-0.2c0,0-0.2-12.5,0.5-12.6s1.5,7,1.4,12.5h0.5V44.5c-0.6-0.5-1-1.1-1.3-1.8H28
	c-0.1,0.7-0.3,1.4-0.5,2.1C27.6,44.9,27.6,58,27.6,58z"/>
<path style="fill:#498049;" d="M27.3,42.7c1.2,0.1,2.4,0.1,3.6-0.1c0,0.1-0.1,0.2-1.3,0.4l0.1,0.4c0,0-1.4-0.2-1.8,0.2
	c0.1-0.4,0.2-0.7,0.2-0.7C27.8,42.9,27.6,42.8,27.3,42.7z"/>
</svg>
