<?xml version="1.0" encoding="utf-8"?>
<!-- Generator: Adobe Illustrator 22.0.0, SVG Export Plug-In . SVG Version: 6.00 Build 0)  -->
<svg version="1.1" id="Слой_1" xmlns="http://www.w3.org/2000/svg" xmlns:xlink="http://www.w3.org/1999/xlink" x="0px" y="0px"
	 viewBox="0 0 55.8 62.9" style="enable-background:new 0 0 55.8 62.9;" xml:space="preserve">
<title>18_1</title>
<g id="Слой_8">
	<path style="fill:#F0C530;" d="M27.9,61.2h-8.8c-0.4,0-0.6-0.2-0.6-0.5c0-0.1,0-0.2,0.1-0.3l0.7-0.7l1.4-1.2
		c0.5-0.4,1.1-0.7,1.7-0.9c0.6-0.3,1.2-0.5,1.8-0.7c0.3-0.1,0.7-0.2,1-0.2v-3.6c-0.8-0.1-1.7-0.2-2.5-0.4c-2.4-0.4-4.3-2-5.3-4.2
		c-0.4-0.9-0.6-1.8-0.7-2.8c-0.1-1-0.2-2.1-0.2-3.1c0-0.8-0.1-1.7-0.2-2.5c-0.1-1.6-0.5-3.3-1.1-4.8h-2.2c-0.5,0-1-0.1-1.4-0.2
		c-0.2-0.1-0.6-0.2-0.8-0.3c-0.2-0.1-0.4-0.2-0.5-0.4c-0.1-0.1-0.1-0.2-0.1-0.4s-0.1-0.3-0.1-0.4V33c0-0.1,0.1-0.2,0.1-0.3l0.2-0.3
		c0.2-0.3,0.5-0.6,0.8-0.9l0.1-0.1c0.6-0.5,1.1-1,1.6-1.6c0.4-0.6,0.8-1.2,1.2-1.8c0.2-0.4,0.4-0.8,0.6-1.2l0.4-0.8
		c0.3-0.7,0.7-1.4,1.2-2c0.3-0.4,0.6-0.7,1-1c0.1-0.1,0.2-0.2,0.4-0.2c-0.1-0.2-0.2-0.4-0.2-0.7c-0.1-0.6-0.1-1.2,0.1-1.7
		c0.2-0.6,0.5-1.1,0.8-1.5c0.2-0.3,0.5-0.5,0.7-0.7l0.1-0.1c-0.1-0.4-0.2-0.9-0.2-1.3c-0.1-0.8,0-1.6,0.4-2.3
		c0.1-0.1,0.1-0.3,0.2-0.4l0.1-0.1l0.1-0.2c0.1-0.1,0.1-0.2,0.2-0.3c0.3-0.3,0.6-0.6,1-0.8c0.4-0.3,0.8-0.5,1.3-0.6
		C22.6,12,22.8,12,23,12c0.1-0.1,0.2-0.2,0.2-0.4c0.3-0.4,0.7-0.6,1.1-0.8c0.4-0.2,0.9-0.4,1.3-0.4c0.3,0.1,0.6,0.2,0.8,0.1H27
		l0.2,0.5v-0.5h0.6c0.2,0,0.5,0,0.7,0.1c0.5,0.1,0.9,0.2,1.3,0.5c0.4,0.2,0.7,0.5,1.1,0.8c0.1,0.1,0.1,0.2,0.2,0.3h0.4
		c0.4,0,0.9,0,1.3,0.1c0.7,0.2,1.4,0.6,1.9,1.2c0.5,0.5,0.8,1,1.1,1.6c0.1,0.3,0.2,0.6,0.2,0.9v0.5l0,0c0.4,0.3,0.7,0.7,1,1.1
		c0.6,0.2,1.1,0.6,1.4,1.2c0.3,0.5,0.2,1.1-0.1,1.5c-0.1,0.2-0.4,0.3-0.6,0.3v0.1c0,0.3-0.1,0.7-0.2,1l0.2,0.1
		c0.8,0.4,1.7,0.9,2.4,1.3c0.7,0.5,1.4,1.1,2,1.8c0.3,0.4,0.6,0.9,0.8,1.4c0.3,0.3,0.6,0.8,0.7,1.2c0.1,0.2,0.1,0.4,0.1,0.6
		c0.1,0.4,0.1,0.9,0,1.3c-0.1,0.2-0.2,0.5-0.4,0.7s-0.4,0.3-0.6,0.5c-0.1,0-0.1,0.1-0.1,0.2v0.4l0.4,0.2L44,32
		c0.6,0.4,1.1,0.9,1.4,1.5c0.2,0.3,0.3,0.7,0.2,1.1c-0.1,0.4-0.3,0.7-0.5,1c-0.5,0.5-1.1,0.9-1.8,1.1V37l-0.1,0.8
		c-0.1,0.6-0.1,1.1-0.2,1.7c-0.2,1.1-0.5,2.3-0.8,3.4c-0.4,1.1-0.9,2.2-1.4,3.3c-0.6,1.1-1.4,2.1-2.4,3c-1.9,1.7-4.2,2.9-6.7,3.4V57
		c0.2,0.1,0.5,0.2,0.7,0.2l1.4,0.6c0.5,0.2,0.9,0.5,1.3,0.8c0.4,0.3,0.9,0.6,1.2,1l0.8,0.8c0.2,0.1,0.2,0.4,0.1,0.6
		c0,0-0.1,0.1-0.1,0.1c-0.1,0.1-0.2,0.1-0.4,0.1L27.9,61.2z"/>
	<path style="fill:#FFFFFF;" d="M27.8,11L27.8,11c0.6,0,1.2,0.2,1.8,0.5c0.3,0.2,0.6,0.4,0.8,0.7c0.1,0.1,0.2,0.3,0.4,0.4l0.1,0.1
		H31c0.1,0,0.4-0.1,0.6-0.1l0,0c0.3,0,0.7,0,1,0.1c0.6,0.2,1.2,0.5,1.7,1c0.4,0.4,0.8,0.9,1,1.4c0.1,0.2,0.2,0.5,0.2,0.8v0.7
		c0.5,0.4,0.9,0.9,1.2,1.4c0.6,0.2,1.1,0.5,1.2,1c0.2,0.7,0,1.2-0.4,1.2h-0.2v0.6c0,0.4-0.1,0.8-0.3,1.1V22l0,0l0.2,0.1l0.6,0.3
		c0.7,0.4,1.6,0.8,2.2,1.2c0.7,0.4,1.3,1,1.8,1.6c0.2,0.4,0.5,0.9,0.7,1.3c0.3,0.3,0.5,0.7,0.6,1.1c0,0.2,0.1,0.4,0.1,0.6
		c0.2,0.4,0.2,0.8,0.1,1.2c-0.1,0.2-0.1,0.4-0.2,0.5l-0.5,0.4c-0.1,0.1-0.2,0.3-0.2,0.5v0.5c0.1,0.3,0.3,0.5,0.6,0.6l0.7,0.5
		c0.5,0.4,0.9,0.8,1.3,1.3c0.1,0.3,0.2,0.6,0.1,0.8c0,0.3-0.2,0.6-0.4,0.8c-0.5,0.4-1.1,0.8-1.7,1l-0.2,0.1V37l-0.1,0.8
		c-0.1,0.6-0.1,1.1-0.2,1.7c-0.2,1.1-0.5,2.2-0.8,3.3c-0.4,1.1-0.9,2.2-1.6,3.1c-0.6,1-1.4,2-2.3,2.8c-1.9,1.6-4.2,2.8-6.7,3.3v5.1
		l1.1,0.3l1.4,0.6c0.5,0.2,0.9,0.5,1.3,0.8c0.4,0.3,0.8,0.6,1.2,0.9l0.8,0.8H19.4l0.7-0.7c0.4-0.4,0.8-0.8,1.3-1.1
		c0.5-0.4,1-0.7,1.6-1c0.6-0.2,1.1-0.4,1.7-0.6l1.4-0.3l0.1-4.5c-1,0-2-0.2-3-0.4c-2.1-0.4-3.9-1.8-4.8-3.8
		c-0.4-0.9-0.6-1.8-0.7-2.8c-0.2-1.8-0.2-3.7-0.5-5.5c-0.2-1.8-0.6-3.6-1.2-5.3c-0.6,0-1.3,0.1-1.9,0.1h-0.6c-0.5,0-0.8-0.1-1.3-0.1
		c-0.2,0-0.4-0.1-0.6-0.2c-0.1-0.1-0.2-0.1-0.2-0.2s-0.1-0.2-0.1-0.3v-0.3c0-0.1,0-0.2,0.1-0.3c0-0.1,0.1-0.2,0.1-0.3l0.1-0.2
		c0.2-0.3,0.5-0.6,0.8-0.9c0.6-0.5,1.1-1.1,1.7-1.7c0.5-0.6,0.9-1.2,1.2-1.9c0.4-0.7,0.7-1.3,1.1-2c0.3-0.7,0.7-1.4,1.2-2
		c0.2-0.3,0.6-0.6,0.8-0.9c0.2-0.2,0.5-0.3,0.7-0.4c0-0.1-0.1-0.1-0.1-0.2c-0.5,0-0.6-0.2-0.6-0.5c-0.1-0.5-0.1-1,0.1-1.5
		c0.1-0.5,0.4-1,0.7-1.4c0.2-0.2,0.4-0.4,0.6-0.6c0.1-0.1,0.2-0.2,0.4-0.2l0,0c-0.2-0.5-0.4-1-0.5-1.6c-0.1-0.7,0-1.4,0.2-2
		c0.1-0.2,0.1-0.3,0.2-0.5s0.2-0.3,0.4-0.4c0.2-0.3,0.6-0.5,0.8-0.8c0.4-0.2,0.8-0.4,1.2-0.5c0.3-0.1,0.7-0.1,1-0.1l0.1-0.2
		c0.1-0.1,0.2-0.2,0.2-0.4c0.4-0.1,0.8-0.2,1.1-0.5c0.3-0.2,0.7-0.3,1.1-0.4c0.2,0,0.4-0.1,0.6-0.1H27.8 M27.8,10.1h-1.4
		c-0.2,0-0.4,0-0.6,0.1c-0.5,0.1-1,0.3-1.4,0.5c-0.5,0.2-0.9,0.5-1.2,0.9L23,11.8c-0.1,0-0.4,0.1-0.5,0.1C22,12,21.5,12.2,21,12.5
		l-1.1,0.9c-0.1,0.1-0.2,0.2-0.2,0.4l-0.1,0.1L19.4,14l-0.1,0.1c-0.1,0.2-0.2,0.3-0.2,0.5c-0.4,0.8-0.5,1.6-0.4,2.5
		c0,0.4,0.1,0.7,0.2,1.1l-0.7,0.6c-0.4,0.5-0.8,1.1-1,1.7c-0.2,0.6-0.3,1.3-0.1,2c0,0.1,0,0.3,0.1,0.4l0,0c-0.4,0.3-0.8,0.7-1,1.1
		c-0.5,0.7-0.9,1.4-1.3,2.1l-0.4,0.8c-0.2,0.4-0.4,0.8-0.6,1.2c-0.4,0.6-0.7,1.2-1.1,1.7c-0.5,0.6-1,1.1-1.6,1.6l-0.1,0.1
		c-0.3,0.3-0.6,0.6-0.8,0.9l-0.2,0.2v0.2c0,0.1-0.1,0.2-0.1,0.3v0.1c0,0.1,0,0.1-0.1,0.2v0.1c0,0.1,0,0.3-0.1,0.4V34
		c0,0.3,0.1,0.7,0.3,1c0.2,0.2,0.4,0.4,0.6,0.6c0.3,0.2,0.6,0.3,1,0.4c0.5,0.1,1,0.2,1.6,0.2h1.7c0.5,1.4,0.7,2.8,0.8,4.3
		c0.1,0.8,0.1,1.6,0.2,2.4c0.1,1,0.1,2.1,0.2,3.1c0.1,1,0.4,2,0.7,3c1,2.3,3.1,4,5.6,4.5c0.7,0.2,1.3,0.3,2,0.3v2.8l-0.6,0.2
		c-0.7,0.2-1.3,0.4-1.9,0.7c-0.6,0.3-1.2,0.6-1.7,1c-0.5,0.4-1.1,0.8-1.6,1.2L18,60.4c-0.4,0.3-0.4,0.8-0.1,1.2
		c0.1,0.1,0.1,0.1,0.2,0.2C18.4,62,18.7,62,19,62h18c0.6-0.1,1.1-0.6,1-1.1c0-0.2-0.1-0.4-0.4-0.5l-0.8-0.8c-0.4-0.4-0.8-0.7-1.3-1
		C35,58.3,34.5,58,34,57.8c-0.5-0.3-1-0.5-1.6-0.7L32,57v-3.5c2.4-0.6,4.5-1.8,6.3-3.4c1-0.9,1.9-1.9,2.5-3.1
		c0.6-1.1,1.1-2.2,1.4-3.4c0.4-1.1,0.6-2.3,0.8-3.4c0.1-0.5,0.1-1.1,0.2-1.7l0.1-0.8l0,0c0.6-0.3,1.2-0.6,1.7-1.1
		c0.4-0.3,0.6-0.8,0.6-1.3c0.1-0.5,0-1-0.2-1.4c-0.4-0.7-0.9-1.2-1.5-1.7l-0.8-0.6l0,0L43,31.5l0,0c0.2-0.2,0.5-0.3,0.6-0.5
		c0.2-0.2,0.4-0.4,0.5-0.7v-0.1c0.1-0.5,0.1-1,0-1.5c0-0.2,0-0.5-0.1-0.7c-0.1-0.5-0.4-1-0.7-1.4c-0.3-0.5-0.6-1-1-1.4
		c-0.6-0.7-1.4-1.4-2.2-1.9c-0.8-0.5-1.6-0.9-2.4-1.3c0-0.2,0-0.4,0.1-0.5c0.2-0.1,0.4-0.2,0.6-0.4c0.4-0.5,0.5-1.3,0.2-1.9
		c-0.3-0.7-0.9-1.2-1.6-1.4c-0.2-0.3-0.5-0.6-0.8-0.9v-0.5c0-0.4-0.1-0.7-0.2-1.1c-0.3-0.6-0.7-1.2-1.2-1.7
		c-0.6-0.6-1.3-1.1-2.2-1.3c-0.5-0.1-1-0.2-1.4-0.3h-0.1l0.2-0.5l-1.1-0.9c-0.5-0.3-1-0.5-1.6-0.6c-0.3,0-0.7,0-1,0.1L27.8,10.1z"/>
	<path style="fill:#C29935;" d="M42.1,31.4c0-1.4,0.6-0.7,1.1-1.9c0.4-0.8-1-3.7-2.4-4.9c-1.8-1.5-4.3-2.4-4.2-2.6
		c0.3-0.9,0.4-1.8,0.2-2.7c-0.2-1-0.9-1.9-1.8-2.5c0,0,0.6-1.1-1.1-2.8c-0.8-0.9-2.2-1.3-3.4-0.9c-0.6-1.3-2-1.9-3.4-1.7
		c-1.3-0.2-2.6,0.5-3.1,1.7c-1.3-0.1-2.5,0.5-3.2,1.6c-1.2,1.7,0,4.1,0,4.1s-1.2,0.1-1.9,1.9c-0.5,0.9-0.2,2.1,0.6,2.7
		c-2-0.1-3.1,3.2-4.8,5.8s-4.2,3.6-3.7,5c0.5,1,4.8,0.5,4.8,0.5c3.2,7.7-1.3,16.7,9.3,17.5c0.4,0,0.8,0,1.2,0.1v5.1
		c-2.3,0.3-4.4,1.2-6.1,2.8h15.3c-1.4-1.3-3.1-2.2-5-2.7v-5.7c2.6-0.4,5-1.6,7.1-3.3c3.6-3,4.5-8.5,4.9-12c0-0.2,2.3-0.6,2.3-2
		S42.1,32,42.1,31.4z"/>
	<path style="fill:#F0C530;" d="M30.7,13.1c0,0-3.7-3.9-6.5,0c-2.4,0.3-4.1,2.1-3.7,4.1c0.5,1.6,0.2,1.6,0.2,1.6s-2.7,1.6-1.7,3.9
		c0.2,0.9,0.6,0.9,0.6,0.9c-0.9,0-1.6,0.8-1.6,1.7c0,0.2,0,0.4,0.1,0.5c0.2,2,2.2,3.1,6,4c1.9,1,3.3,2.7,4,4.7
		c1.2,0.7,2.3,1.5,3.4,2.4c1.3,1.2,3.2,1.4,4.8,0.6c1.4-1.2,3-4.4,3.7-6c0-1.6-0.6-3.1-1.6-4.4c0.6-1.8,0-3.8-1.6-5
		c0.1-1.4,0.5-4.1-1.8-5.3c0-2-1.6-3.7-3.6-3.8C31.2,13,31,13,30.7,13.1z"/>
	<path style="fill:#8D752F;" d="M42.1,31.4v-0.6c0-0.1,0.1-0.2,0.1-0.3c0-0.1,0.1-0.2,0.2-0.2c0.1-0.1,0.4-0.2,0.5-0.4
		c0.1-0.1,0.2-0.3,0.2-0.5c0.1-0.4,0-0.8-0.1-1.1c-0.1-0.3-0.2-0.7-0.4-1c-0.4-0.7-0.8-1.4-1.2-2c-0.5-0.6-1.1-1.1-1.8-1.5
		c-0.7-0.4-1.4-0.8-2.3-1.2l-0.6-0.3c-0.1-0.1-0.2-0.1-0.4-0.2v-0.2l0,0v-0.2c0.1-0.4,0.1-0.7,0.2-1.1v-1.1c0-0.3-0.1-0.7-0.2-1
		c-0.4-0.6-0.8-1.2-1.4-1.7l-0.1-0.1v-0.8c0-0.2-0.1-0.5-0.2-0.7c-0.2-0.5-0.6-0.9-1-1.2c-0.4-0.3-0.8-0.6-1.3-0.8
		c-0.2-0.1-0.5-0.1-0.7-0.1h-0.4c-0.1,0-0.2,0.1-0.4,0.1l-0.4,0.2l-0.2-0.3L30,12.7c-0.1-0.1-0.1-0.2-0.2-0.3
		c-0.2-0.2-0.5-0.4-0.7-0.5c-0.3-0.1-0.6-0.2-0.8-0.3h-1.4c-0.2,0-0.3,0-0.5,0.1c-0.3,0-0.5,0.1-0.7,0.3c-0.2,0.1-0.5,0.3-0.6,0.5
		l-0.4,0.6l-0.1,0.3h-0.4c-0.6,0-1.3,0.1-1.8,0.5l-0.7,0.6c-0.1,0.1-0.2,0.2-0.2,0.4c-0.1,0.1-0.1,0.2-0.2,0.4
		c-0.2,0.5-0.4,1-0.4,1.6c0.1,0.6,0.3,1.2,0.5,1.7L21,19.1h-0.2c-0.1,0-0.2,0-0.2,0.1c-0.2,0.1-0.3,0.2-0.5,0.4
		c-0.3,0.4-0.5,0.7-0.7,1.1c-0.2,0.4-0.2,0.8-0.1,1.2c0,0.2,0.1,0.4,0.2,0.6c0.1,0.2,0.2,0.3,0.4,0.5l0.6,0.5h-0.8
		c-0.4,0-0.7,0.1-1,0.3c-0.3,0.2-0.6,0.5-0.8,0.8c-0.5,0.6-0.9,1.2-1.2,1.9c-0.4,0.6-0.7,1.3-1.1,2c-0.4,0.6-0.8,1.2-1.3,1.8
		c-0.5,0.6-1.1,1.2-1.6,1.7c-0.2,0.3-0.6,0.5-0.8,0.8c-0.2,0.2-0.3,0.6-0.2,0.9c0,0.1,0,0.1,0.1,0.2s0.1,0.1,0.1,0.1
		c0.1,0.1,0.3,0.2,0.5,0.2c0.4,0.1,0.8,0.1,1.2,0.1c0.9,0,1.8,0,2.6-0.1h0.1v0.1c0.7,1.7,1.2,3.5,1.3,5.4c0.2,1.8,0.4,3.7,0.6,5.5
		c0.1,0.9,0.4,1.8,0.7,2.6c0.4,0.8,1,1.6,1.7,2.2c0.8,0.6,1.8,1,2.8,1.2c1.1,0.2,2.1,0.3,3.2,0.3h0.4v0.3l0.1,5.2v0.3l-0.5,0.1
		l-1.7,0.3c-0.5,0.2-1.1,0.4-1.6,0.6c-0.5,0.2-1,0.5-1.4,0.8c-0.4,0.3-0.9,0.6-1.2,1l-0.4-0.7h15.3L35,60.2c-0.3-0.3-0.6-0.6-1-0.8
		c-0.4-0.3-0.8-0.5-1.2-0.7c-0.4-0.2-0.8-0.4-1.2-0.6c-0.4-0.2-0.9-0.3-1.3-0.4L30,58v-6.3l0.4-0.1c2.5-0.4,4.8-1.4,6.8-3
		c1.7-1.5,3-3.5,3.8-5.7c0.4-1.1,0.7-2.2,1-3.2c0.1-0.5,0.2-1.1,0.4-1.7l0.1-0.8v-0.7l0,0c0.1,0,0.1-0.1,0.2-0.1
		c0.6-0.2,1.2-0.5,1.7-0.9c0.2-0.2,0.3-0.4,0.4-0.7c0-0.3,0-0.5-0.1-0.8c-0.3-0.5-0.7-1-1.2-1.3l-0.7-0.6l-0.4-0.3
		C42.2,31.8,42,31.6,42.1,31.4z M42.2,31.4c0.1,0.3,0.3,0.5,0.6,0.6l0.7,0.5c0.5,0.4,0.9,0.8,1.3,1.3c0.1,0.3,0.2,0.6,0.1,0.8
		c0,0.3-0.2,0.6-0.4,0.8c-0.5,0.4-1.1,0.8-1.7,1l-0.2,0.1l0,0v0.6l-0.1,0.8c-0.1,0.6-0.1,1.1-0.2,1.7c-0.2,1.1-0.5,2.2-0.8,3.3
		c-0.4,1.1-0.9,2.2-1.5,3.2c-0.6,1-1.4,2-2.3,2.8c-2,1.7-4.5,2.9-7.1,3.4l0.4-0.4v5.7l-0.4-0.5c0.5,0.1,1,0.3,1.4,0.5l1.4,0.6
		c0.5,0.2,0.9,0.5,1.3,0.8c0.4,0.3,0.8,0.6,1.2,0.9l0.8,0.8H19.3L20,60c0.4-0.4,0.8-0.8,1.3-1.1c0.5-0.4,1-0.7,1.6-1
		c0.6-0.2,1.1-0.4,1.7-0.6c0.6-0.2,1.2-0.3,1.8-0.4l-0.5,0.4l0.1-5.1l0.4,0.3c-1.1,0-2.3-0.2-3.4-0.4c-2.1-0.4-3.9-1.8-4.8-3.8
		c-0.4-0.9-0.6-1.8-0.7-2.8c-0.2-1.8-0.2-3.7-0.5-5.5c-0.1-1.9-0.5-3.7-1.2-5.4l0.1,0.1c-0.9,0.1-1.8,0.1-2.6,0.1
		c-0.5,0-0.8-0.1-1.3-0.1c-0.2,0-0.4-0.1-0.6-0.2c-0.1-0.1-0.2-0.1-0.2-0.2S11,34.1,11,34v-0.3c0-0.1,0-0.2,0.1-0.3
		c0-0.1,0.1-0.2,0.1-0.3l0.1-0.2c0.2-0.3,0.5-0.6,0.8-0.9c0.6-0.5,1.1-1.1,1.7-1.7c0.5-0.6,0.9-1.2,1.2-1.9c0.4-0.7,0.7-1.3,1.1-2
		c0.3-0.7,0.7-1.4,1.2-2c0.2-0.3,0.6-0.6,0.8-0.9c0.4-0.3,0.9-0.5,1.4-0.5l-0.2,0.5c-0.2-0.2-0.4-0.4-0.6-0.6
		c-0.1-0.2-0.2-0.5-0.2-0.7c-0.1-0.5-0.1-1,0.1-1.5c0.1-0.5,0.4-1,0.7-1.4c0.2-0.2,0.4-0.4,0.6-0.6c0.1-0.1,0.2-0.2,0.4-0.2l0.2-0.1
		c0.1,0,0.2,0,0.2-0.1l-0.4,0.5c-0.3-0.6-0.5-1.2-0.6-1.9c-0.1-0.7,0-1.4,0.2-2c0.1-0.2,0.1-0.3,0.2-0.5s0.2-0.3,0.4-0.4
		c0.2-0.3,0.6-0.5,0.8-0.8c0.4-0.2,0.8-0.4,1.2-0.5c0.4-0.1,0.9-0.1,1.3-0.1l-0.5,0.3c0-0.2,0.1-0.3,0.2-0.5
		c0.1-0.1,0.2-0.2,0.2-0.4l0.7-0.6c0.3-0.2,0.7-0.3,1.1-0.4c0.2,0,0.4-0.1,0.6-0.1h1.1c0.6,0,1.2,0.2,1.8,0.5
		c0.3,0.2,0.6,0.4,0.8,0.7c0.1,0.1,0.2,0.3,0.4,0.4l0.2,0.4h-0.4c0.1-0.1,0.4-0.1,0.6-0.2s0.4-0.1,0.6-0.1c0.4,0,0.7,0,1.1,0.1
		c0.6,0.2,1.2,0.5,1.7,1c0.4,0.4,0.7,0.8,1,1.3c0.1,0.2,0.2,0.5,0.2,0.8v0.4c0,0.2,0,0.4-0.1,0.5l-0.2-0.1c0.7,0.5,1.2,1.1,1.6,1.9
		c0.1,0.4,0.2,0.7,0.2,1.1v1.1c0,0.4-0.1,0.8-0.2,1.1V22l0,0v-0.1l0,0C36.9,22,36.9,22,37,22l0.6,0.5c0.7,0.4,1.6,0.8,2.2,1.2
		c0.7,0.4,1.3,1,1.8,1.6c0.5,0.6,0.9,1.3,1.2,2c0.1,0.3,0.2,0.7,0.4,1.1c0.1,0.4,0.1,0.7,0,1.1C43,29.7,43,29.9,42.9,30
		c-0.1,0.2-0.3,0.3-0.5,0.4c-0.1,0.1-0.2,0.3-0.2,0.5L42.2,31.4z"/>
	<path style="fill:#C29935;" d="M27.8,40c-0.4-1.3-0.6-2.7-0.8-4c0-1-0.2-2-0.5-3c-1.1-2.3-4.2-1.6-6.1-0.6
		c-0.4,0.2-0.8,0.4-1.2,0.7c-1.1-0.4-2.2,0.1-2.8,1.1c-0.3,0.7-0.1,1.4,0.5,1.9c0.7,0.6,0.2,2.2,0.2,2.9c0,1.4,0.2,2.7,0.5,4.1
		c0.3,1.8,1,3.6,1.9,5.2c1.2,1.7,3,2.9,5,3.2c2.9,0.4,4.1-0.9,4.4-3.1C29.5,45.5,28.5,42.8,27.8,40z"/>
	<path style="fill:#FAE7B0;" d="M24.2,14c1,0,1.9,0.8,1.9,1.9c0,0,0,0,0,0c-0.1,1.7-1,2.6-2.4,2.7s-2.9-0.9-2.2-3.1
		c0.2-1.1,1.3-1.8,2.3-1.6C24,13.9,24.1,14,24.2,14z"/>
	<path style="fill:#FAE7B0;" d="M19.5,25.9c0,0,0-1.5,0.8-2c0.9-0.5,2-0.3,2.6,0.5c0.1,0.1,0.2,0.3,0.2,0.5c0.4,1-0.1,2.2-1.1,2.6
		c-0.1,0-0.2,0.1-0.2,0.1h-0.1c-1,0.3-2-0.3-2.3-1.3L19.5,25.9z"/>
	<path style="fill:#F7DC8D;" d="M24.5,27.8c0,0,0-1.5,0.8-2c0.9-0.5,2-0.3,2.6,0.5c0.1,0.1,0.2,0.3,0.2,0.5c0.4,1-0.1,2.2-1.1,2.6
		c-0.1,0-0.2,0.1-0.2,0.1h-0.1c-1,0.3-2-0.3-2.3-1.3L24.5,27.8z"/>
	<path style="fill:#FAE7B0;" d="M22.6,19.4c0,0,1.7,0.1,1.8,1.3c0.1,1.1-0.8,2-1.9,2.1c0,0,0,0,0,0H22c-1-0.1-1.7-1-1.6-2
		c0,0,0,0,0,0c0-0.9,1-1.5,1.9-1.5C22.4,19.4,22.5,19.4,22.6,19.4z"/>
	<path style="fill:#FAE7B0;" d="M27.5,11.8c0,0,1.4,0.1,1.9,1c0.2,0.8-0.2,1.5-1,1.8c-0.1,0-0.1,0-0.2,0c-0.1,0-0.4,0.1-0.5,0.1
		c-1.2,0.1-2.9-0.7-2.5-1.9S27.5,11.8,27.5,11.8z"/>
	<path style="fill:#FAE7B0;" d="M30.4,14.8c-0.1-0.5,0.1-1.1,0.6-1.3c0.8-0.3,1.6,0.1,1.9,0.8c0.3,0.6,0,1.3-0.5,1.6c0,0,0,0-0.1,0
		c-0.8,0.3-1.6-0.1-1.9-0.8V14.8z"/>
	<path style="fill:#FFFFFF;" d="M23.1,21.1c0.7-1.1,2.4-2.6,5.8-1.5s1.8,4.1,1.7,4.6c-0.1,0.8-4.2,2.7-6.7,0.7
		C22.6,24.1,22.3,22.4,23.1,21.1C23.1,21.1,23.1,21.1,23.1,21.1z"/>
	<path style="fill:#CCA639;" d="M23.1,21.1c0.3-0.4,0.6-0.8,1-1.1c0.4-0.3,0.8-0.6,1.3-0.8c0.5-0.2,1.1-0.3,1.7-0.2
		c0.6,0.1,1.1,0.2,1.7,0.3c0.5,0.2,1,0.5,1.4,0.8c0.3,0.3,0.6,0.7,0.7,1.2c0.2,0.9,0.1,1.9-0.2,2.7v0.4c-0.1,0.1-0.1,0.2-0.2,0.3
		l-0.6,0.5c-0.5,0.3-1,0.5-1.6,0.6c-1.1,0.3-2.3,0.3-3.4,0c-0.5-0.2-1-0.4-1.4-0.8c-0.4-0.4-0.7-0.8-0.8-1.3c-0.1-0.5-0.1-0.9,0-1.4
		C22.8,21.9,22.9,21.5,23.1,21.1z M23.1,21.1c-0.5,0.8-0.5,1.7-0.1,2.5c0.2,0.4,0.5,0.7,0.8,1c0.3,0.3,0.8,0.5,1.2,0.6
		c0.9,0.3,1.9,0.3,2.9,0c0.5-0.1,1-0.3,1.4-0.5c0.2-0.1,0.4-0.2,0.6-0.4l0.2-0.2l0,0V24l0.1-0.2c0.2-0.4,0.4-0.8,0.5-1.3
		c0.1-0.4,0.1-0.9,0-1.3c0-0.2-0.1-0.4-0.2-0.6c-0.1-0.2-0.4-0.3-0.5-0.5c-0.4-0.3-0.8-0.5-1.3-0.6c-1-0.3-2-0.4-3-0.3
		c-0.5,0.1-1,0.3-1.4,0.5C23.9,20.1,23.5,20.6,23.1,21.1L23.1,21.1z"/>
	<path style="fill:#F6D77B;" d="M37,27.2c0,0,0,1.8-1.6,1.2c-1-0.4-1.6-1.5-1.4-2.6c0.1-0.6,1.8-1,2.3-0.3
		C36.5,26,36.8,26.6,37,27.2z"/>
	<path style="fill:#F7DC8D;" d="M38,24.8c0,0,0,1-0.8,0.7c-0.6-0.3-0.9-0.9-0.8-1.5c0-0.4,1.1-0.6,1.3-0.2S37.9,24.4,38,24.8z"/>
	<path d="M24.9,20.3c0,0,1.9-2,4.7,0.1c1.2,0.6,1.6,2.1,1,3.2c-0.1,0.1-0.2,0.3-0.3,0.4c-0.4,0.4-0.9,0.7-1.4,0.9
		c-1.2,0.1-3.4,0.3-4.2-1.4C24,22.5,24.1,21.2,24.9,20.3z"/>
	<path style="fill:#FFFFFF;" d="M32,21.8c0.5-0.7,1.3-1.2,2.2-1.2c1.3,0,2.3,0.9,2.3,2.2c0,0.2,0,0.4-0.1,0.6
		c-0.2,1.3-1.4,2.3-2.7,2.1c-0.2,0-0.4-0.1-0.6-0.2C31.6,24.8,31.4,23.5,32,21.8z"/>
	<path style="fill:#CCA639;" d="M32,21.8c0.1-0.3,0.3-0.5,0.6-0.7c0.3-0.2,0.6-0.4,1-0.6c0.4-0.1,0.8-0.1,1.2-0.1
		c0.4,0.1,0.7,0.2,1.1,0.4c0.3,0.2,0.5,0.5,0.6,0.8c0.1,0.3,0.2,0.6,0.2,0.9c0,0.6,0,1.2-0.2,1.8c-0.1,0.3-0.3,0.6-0.6,0.8
		c-0.3,0.2-0.7,0.4-1.1,0.5c-0.8,0.1-1.6,0-2.3-0.4c-0.3-0.2-0.6-0.5-0.7-0.8c-0.1-0.3-0.2-0.7-0.2-1C31.6,22.8,31.8,22.3,32,21.8z
		 M32,21.8c-0.2,0.5-0.3,1.1-0.1,1.7c0.1,0.6,0.5,1.1,1,1.3c0.2,0.1,0.6,0.2,0.8,0.3c0.3,0.1,0.7,0.1,1,0c0.6-0.1,1.1-0.4,1.4-0.9
		c0.3-0.5,0.5-1,0.4-1.6c-0.1-0.6-0.5-1.1-1-1.4c-0.2-0.1-0.6-0.2-0.8-0.3c-0.3-0.1-0.7-0.1-1-0.1C33,20.9,32.4,21.3,32,21.8z"/>
	<path d="M33.8,24.9c0,0,2.2-0.1,2.4-1.7c0.3-1-0.2-2.1-1.2-2.4c-0.2-0.1-0.5-0.1-0.8-0.1c-1.1,0-2,0.7-2.2,1.8
		c-0.3,1,0.2,2,1.2,2.3C33.4,24.9,33.6,24.9,33.8,24.9z"/>
	<path style="fill:#FAE7B0;" d="M33.9,17.6c0.4-0.3,0.9-0.3,1.3,0c0.1,0.1,0.1,0.1,0.1,0.2c0.5,0.6,1.1,1.4,0.7,2.2
		s-1.2,0.3-1.7-0.1S33.2,18.2,33.9,17.6z"/>
	<path style="fill:#FAE7B0;" d="M28.8,15.1c0,0,0.7-0.1,1.8,1.4c0.5,0.6,0.4,1.5-0.2,2c-0.1,0.1-0.2,0.1-0.3,0.2
		c-0.4,0.2-0.9,0.3-1.3,0.3c-1.1,0-2-0.9-2-2c0-0.1,0-0.1,0-0.2c0-0.2,0.1-0.4,0.2-0.6c0.1-0.7,0.8-1.3,1.5-1.2
		C28.6,15.1,28.7,15.1,28.8,15.1z"/>
	<path style="fill:#F6D77B;" d="M37.9,30.6c0,0,0.2,1.9-0.8,2.1s-1.7-0.8-1.8-1.7s0.2-1.9,1-1.9C37.1,29,37.8,29.7,37.9,30.6
		C37.9,30.5,37.9,30.6,37.9,30.6z"/>
	<path style="fill:#F6D77B;" d="M33.3,34.7c-1-0.1-1.8-1-1.7-2c0-0.1,0-0.1,0-0.2c0.1-1.9,1-2,1.6-2s1.8,0.3,1.8,2.1
		S34.3,34.7,33.3,34.7z"/>
	<path style="fill:#F6D77B;" d="M32.8,37.7c0,0-0.1-2.4,1.4-2.4s1.9,1.9,1.9,1.9S35.3,38.5,32.8,37.7z"/>
	<path style="fill:#F6D77B;" d="M36.8,36.7c0,0-1.1-2-0.2-2.7s1.8,0.5,1.8,0.5S37.9,36.3,36.8,36.7z"/>
	<path style="fill:#8D752F;" d="M23.7,34.1c0.3,0.1,0.5,0.3,0.6,0.5c0.1,0.2,0.1,0.5,0,0.7c-0.1,0.2-0.2,0.5-0.3,0.7l-0.4,0.6
		c-0.2,0.4-0.6,0.8-0.8,1.2c-0.1,0.2-0.4,0.4-0.5,0.6l-0.1,0.1l-0.1,0.2l0,0l-0.6-0.6l0,0l0.1-0.1l0.1-0.1l0,0
		c0.1-0.2,0.3-0.3,0.5-0.4c0.2-0.1,0.3-0.2,0.5-0.2H23c0.1,0,0.3,0.1,0.4,0.2c0,0.1,0.1,0.1,0.1,0.2v0.4c0,0.1-0.1,0.2-0.1,0.3
		c-0.1,0.2-0.3,0.3-0.5,0.4l-0.5-0.5c0.2-0.1,0.5-0.2,0.7-0.2l0.7-0.2c0.5-0.1,1-0.2,1.4-0.2h0.1c0.2,0.1,0.4,0.3,0.5,0.5
		c0.1,0.2,0.2,0.4,0.2,0.6c0.1,0.2,0.1,0.4,0.1,0.6s0,0.4,0.1,0.6v0.1h-0.1c-1.5,0.5-3,0.8-4.5,0.9h-2c-0.2,0-0.5,0-0.7-0.1
		c-0.5-0.1-0.9-0.4-1.2-0.8c-0.2-0.4-0.3-0.8-0.2-1.2c0.2-0.6,0.4-1.3,0.8-1.8c0.1-0.1,0.2-0.2,0.2-0.4l0.4-0.4
		c0.2-0.2,0.4-0.5,0.6-0.8c0.5-0.5,1.1-1,1.7-1.4c0.4-0.2,0.8-0.3,1.2-0.3C22.9,33.8,23.3,33.9,23.7,34.1z M23.7,34.2
		C23.4,34,23,34,22.6,34c-0.4,0-0.7,0.2-1,0.4c-0.5,0.4-0.9,0.9-1.2,1.5L20,36.8l-0.2,0.4l-0.2,0.4c-0.3,0.5-0.5,1.1-0.6,1.7
		c0,0.2,0,0.5,0.1,0.7c0.1,0.2,0.3,0.3,0.5,0.3c0.2,0,0.3,0.1,0.5,0.1h1.7c1.5,0,3-0.1,4.4-0.5L26,40.1v-0.6c0-0.2-0.1-0.4-0.1-0.6
		s-0.1-0.4-0.2-0.5c-0.1-0.2-0.2-0.3-0.4-0.4h0.1l-1.2,0.3l-0.8,0.2l-0.6,0.3l-1.8,1l1.3-1.5c0.1-0.1,0.2-0.2,0.2-0.4
		c0-0.1,0.1-0.2,0.1-0.2l0,0v0.2l0,0l-0.4,0.3l0,0l-0.1,0.1L22,38.4l0,0l-0.6-0.6l0,0l0.1-0.1l0.1-0.1l0.6-0.5
		c0.4-0.3,0.7-0.7,1.1-1c0.4-0.3,0.7-0.7,1-1.1c0.1-0.2,0.1-0.4,0-0.6C24.2,34.3,24,34.2,23.7,34.2L23.7,34.2z"/>
	<path style="fill:#8D752F;" d="M27.8,34.1c0.7,0.4,1.3,0.8,1.9,1.2s1.2,0.9,1.8,1.3l0.8,0.7c0.1,0.1,0.4,0.2,0.5,0.3
		s0.4,0.1,0.6,0.2c0.8,0.2,1.6,0.1,2.3-0.2c0.1-0.1,0.4-0.2,0.5-0.3l0.4-0.3l0.2-0.2l0.1-0.2c0.1-0.1,0.2-0.3,0.4-0.4
		c0.4-0.5,0.7-1.1,1-1.7c0.6-1.2,1.2-2.5,1.6-3.8H40c0,0.7-0.1,1.3-0.2,2c-0.1,0.7-0.4,1.4-0.7,2c-0.3,0.7-0.7,1.3-1.2,1.8
		c-0.5,0.6-1.1,1.1-1.8,1.4c-0.8,0.3-1.7,0.3-2.5,0.1c-0.4-0.1-0.8-0.2-1.2-0.4L31.2,37c-0.6-0.4-1.2-0.9-1.8-1.4
		C28.8,35.2,28.2,34.7,27.8,34.1L27.8,34.1z"/>
	<path style="fill:#8D752F;" d="M11.6,33.9c1.3,0.1,2.7,0,4-0.3c0.7-0.1,1.3-0.2,2-0.3c0.4-0.1,0.7-0.2,1-0.4
		c0.3-0.1,0.6-0.3,0.8-0.5c0.6-0.4,1.2-0.7,1.8-0.9c0.7-0.3,1.4-0.5,2.2-0.6H24c0.2,0,0.4,0,0.6,0.1c0.4,0.1,0.8,0.3,1.1,0.6
		c0.3,0.3,0.5,0.6,0.6,0.9c0,0.1,0.1,0.3,0.1,0.4c0,0.2,0,0.3,0.1,0.5h-0.1c-0.4-0.5-0.8-1-1.3-1.3L25,32l-0.1-0.1
		c0,0-0.1,0-0.1-0.1h-1c-0.6,0.1-1.2,0.2-1.8,0.4l-1,0.3l-1.3,0.4c-0.4,0.1-0.6,0.2-1,0.3l-0.5,0.2l-0.5,0.2
		c-0.6,0.3-1.3,0.6-1.9,0.8l-0.5,0.1h-1.6c-0.4,0-0.7-0.1-1.1-0.2C12.2,34.2,11.9,34.1,11.6,33.9L11.6,33.9z"/>
	<path style="fill:#8D752F;" d="M19.3,23.5c-0.5,0.4-0.9,1-1.1,1.7c0,0.7,0.3,1.3,0.7,1.8c0.5,0.5,1,1,1.7,1.3
		c0.7,0.3,1.5,0.6,2.3,0.8c0.4,0.1,0.8,0.2,1.2,0.4c0.4,0.1,0.9,0.3,1.2,0.6c0.6,0.5,1.1,1.1,1.6,1.7c0.4,0.6,0.7,1.3,1.1,1.9
		c0.1,0.4,0.3,0.7,0.5,1c0.1,0.4,0.3,0.7,0.5,1c0.5,1.3,0.9,2.7,1.1,4.1c0,0.3,0.1,0.7,0.1,1.1l0.1,1.1v2.1c0,1.4-0.1,2.8-0.4,4.2
		c-0.1,0.7-0.3,1.4-0.5,2.1c-0.1,0.3-0.2,0.7-0.4,1c-0.2,0.3-0.4,0.6-0.6,0.9h-0.1c0.3-0.6,0.5-1.3,0.6-2c0.1-0.7,0.1-1.4,0.1-2.1
		v-8.3c-0.1-1.4-0.4-2.7-0.6-4.1c-0.1-0.7-0.3-1.4-0.6-2c-0.2-0.7-0.6-1.3-1.1-1.9c-0.4-0.6-0.9-1.1-1.6-1.5
		c-0.3-0.2-0.7-0.3-1.1-0.4c-0.4-0.1-0.8-0.2-1.2-0.3c-0.8-0.2-1.6-0.4-2.4-0.8c-0.2-0.1-0.4-0.2-0.6-0.4c-0.2-0.1-0.4-0.2-0.5-0.4
		c-0.3-0.3-0.6-0.6-0.8-0.9c-0.5-0.6-0.7-1.4-0.5-2.2C18,24.5,18.5,23.9,19.3,23.5z"/>
	<path style="fill:#F0C530;" d="M11.6,33.1c1.1,0.1,2.2-0.1,3.2-0.4l0.4-0.1l0.4-0.1l0.7-0.3c0.5-0.2,1.1-0.5,1.6-0.7
		c1.1-0.4,2.2-0.8,3.4-1c0.6-0.1,1.2-0.2,1.8-0.2c0.6,0,1.2,0.1,1.8,0.4c-1.1-0.1-2.2,0.2-3.2,0.6c-1,0.4-2,0.8-3,1.3L17,33.3
		c-0.2,0.1-0.6,0.2-0.8,0.3l-0.5,0.1l-0.5,0.1c-0.6,0.1-1.3,0.1-1.9,0C12.7,33.7,12.1,33.5,11.6,33.1z"/>
	<path style="fill:#F0C530;" d="M18.5,27.8c-0.1,0.5-0.3,1-0.6,1.4c-0.2,0.5-0.5,0.9-0.9,1.3c-0.3,0.4-0.7,0.8-1.1,1.1
		c-0.4,0.4-0.9,0.6-1.4,0.8c0.4-0.4,0.7-0.7,1.1-1.1s0.6-0.8,1-1.2s0.6-0.8,1-1.2C17.8,28.5,18.1,28.1,18.5,27.8z"/>
	<path style="fill:#F0C530;" d="M20.1,29.1c-0.4,0.4-0.7,0.9-1.1,1.3c-0.3,0.5-0.8,0.9-1.3,1.2c0.4-0.4,0.7-0.9,1-1.4
		c0.2-0.3,0.4-0.5,0.6-0.7C19.6,29.4,19.9,29.2,20.1,29.1z"/>
	<path style="fill:#F0C530;" d="M17.4,26.2c-0.4,1.1-0.8,2.1-1.3,3.2c-0.2,0.5-0.5,1-0.8,1.5c-0.4,0.5-0.9,0.9-1.5,1.1
		c0.6-0.2,1-0.7,1.3-1.2c0.3-0.5,0.6-1,0.8-1.5C16.2,28.2,16.7,27.2,17.4,26.2z"/>
	<path style="fill:#8D752F;" d="M36.7,22c0.5,0.3,0.9,0.6,1.3,1c0.3,0.4,0.6,0.8,0.8,1.3c0.2,0.5,0.4,1,0.4,1.5v0.8
		c0,0.3-0.1,0.6-0.2,0.8l-0.1-0.5c0.5,0.5,0.8,1,1.1,1.6l0.4,0.9c0,0.3,0.1,0.6,0.1,0.9c0.1,1.2,0.1,2.3,0.1,3.5l0.1,3.5
		c0,1.2,0,2.3-0.1,3.5c-0.1,0.6-0.2,1.2-0.4,1.7l-0.4,0.9c-0.1,0.3-0.2,0.5-0.4,0.8c-0.6,1.1-1.3,2.1-2.2,3
		c-0.8,0.9-1.8,1.8-2.8,2.6c-1.1,0.8-2.2,1.5-3.5,2v-0.1c2.1-1.3,3.9-3.1,5.4-5.1c0.7-0.9,1.4-1.9,2-2.9c0.6-1,1-2.1,1.2-3.2
		c0.6-2.3,0.8-4.6,0.6-6.9c-0.1-1.2-0.3-2.3-0.6-3.4c0-0.3-0.1-0.6-0.2-0.8c-0.1-0.3-0.2-0.5-0.4-0.8c-0.3-0.5-0.6-1-1-1.4l0-0.2
		l0.1-0.2c0.1-0.4,0.2-0.9,0.2-1.3c0-0.4,0-0.9-0.1-1.3c-0.1-0.4-0.3-0.8-0.6-1.2C37.2,22.8,36.9,22.4,36.7,22L36.7,22z"/>
	<path style="fill:#F0C530;" d="M18.9,38.5c0.3-0.8,0.6-1.5,1-2.2c0.2-0.3,0.5-0.7,0.7-1c0.1-0.1,0.1-0.2,0.2-0.2l0.2-0.2l0.5-0.4
		c0.2-0.2,0.4-0.3,0.7-0.4c0.1-0.1,0.3-0.1,0.5,0c0.1,0,0.4,0.1,0.5,0.1l0.4,0.3c0.1,0.1,0.1,0.3,0.1,0.4c0,0.2-0.1,0.4-0.2,0.6
		c-0.2,0.4-0.5,0.7-0.7,1c-0.3,0.3-0.6,0.6-1,0.9c0.2-0.3,0.4-0.7,0.6-1c0.2-0.3,0.4-0.6,0.5-1c0.1-0.1,0.1-0.3,0.1-0.5
		c0-0.1,0-0.2-0.1-0.2l-0.2-0.2h-0.1c-0.1,0.1-0.4,0.2-0.5,0.3l-0.5,0.4l-0.2,0.2l-0.2,0.2l-0.7,0.9C19.9,37.2,19.5,37.9,18.9,38.5z
		"/>
	<path style="fill:#FAE7B0;" d="M29.4,36.1c1,0.7,2,1.3,3,1.8c0.5,0.2,1,0.4,1.6,0.5h0.8c0.2,0,0.6-0.1,0.8-0.1
		c0.5-0.1,1-0.3,1.4-0.6c0.4-0.3,0.8-0.7,1.1-1.1c0.6-0.9,1.2-1.8,1.7-2.7c-0.1,1.1-0.4,2.1-1,3c-0.3,0.5-0.7,1-1.2,1.3
		c-0.5,0.4-1.1,0.7-1.8,0.8c-0.3,0.1-0.7,0.1-1,0.1h-0.4c-0.9,0-1.7-0.3-2.4-0.8C30.9,37.8,30,37.1,29.4,36.1z"/>
	<path style="fill:#8D752F;" d="M40.5,32.8c-0.2-0.4-0.5-0.8-0.6-1.3c-0.1-0.4-0.2-0.9-0.2-1.3c0-0.5,0.1-0.9,0.1-1.4
		s-0.1-0.9-0.1-1.3v-0.8c0-0.1,0.1-0.2,0.1-0.4c0.1-0.2,0.2-0.3,0.4-0.4c0.1-0.1,0.2-0.1,0.4-0.1h0.4c0.2,0,0.4,0.1,0.6,0.2
		c0.3,0.1,0.5,0.3,0.7,0.5c0.4,0.4,0.7,0.8,0.8,1.3c0.2,0.5,0.1,1.1-0.2,1.5h-0.1c-0.1-0.4-0.2-0.8-0.5-1.2
		c-0.3-0.3-0.5-0.6-0.8-0.9l-0.5-0.4l-0.1-0.1l0,0c0,0-0.1,0-0.1,0.1c0,0.1-0.1,0.2-0.2,0.2v0.2c0,0.1-0.1,0.2-0.1,0.3
		c-0.1,0.4-0.1,0.9,0,1.3c0.1,0.4,0.2,0.9,0.4,1.3c0.1,0.4,0.1,0.9,0.1,1.3C40.7,31.9,40.6,32.3,40.5,32.8L40.5,32.8z"/>
	<path style="fill:#F0C530;" d="M25.2,30.8c0.7,0.6,1.4,1.4,1.9,2.2c0.5,0.8,0.9,1.7,1.3,2.6c0.6,1.7,1,3.6,1.2,5.4
		c0.1,1.8,0.1,3.7,0,5.5c-0.1,0.9-0.3,1.8-0.5,2.7c-0.1,0.5-0.3,0.9-0.5,1.3c-0.1,0.5-0.4,0.9-0.7,1.2c0.3-0.9,0.4-1.8,0.5-2.7
		c0.1-0.9,0.1-1.8,0.1-2.7c0-1.8-0.1-3.6-0.2-5.3c-0.2-1.8-0.4-3.6-0.8-5.3c-0.2-0.9-0.5-1.8-0.8-2.6C26.1,32.4,25.6,31.6,25.2,30.8
		z"/>
	<path style="fill:#F0C530;" d="M18.7,45.8c0.3,0.8,0.6,1.6,1,2.3c0.2,0.4,0.5,0.7,0.8,1l0.5,0.4l0.2,0.2l0.1,0.1l0.1,0.1l0.2,0.2
		l0.4,0.1c0.2,0.1,0.4,0.2,0.6,0.2c0.4,0.2,0.9,0.3,1.3,0.4c0.5,0.1,1,0.2,1.4,0.2c0.5,0,1,0,1.4,0.1c-0.5,0.1-1,0.2-1.4,0.2
		c-0.5,0.1-1,0.1-1.6,0L22.4,51c-0.2-0.1-0.5-0.2-0.7-0.2l-0.1-0.3l-0.4-0.2c-0.8-0.5-1.5-1.2-1.9-2C18.9,47.5,18.7,46.7,18.7,45.8z
		"/>
	<path style="fill:#F0C530;" d="M18.7,41.3c0.1,0.6,0.3,1.3,0.5,1.9c0.2,0.7,0.2,1.2,0.5,1.8s0.4,1.2,0.6,1.8s0.4,1.2,0.6,1.8
		c-0.5-0.5-0.8-1.1-1.1-1.7l-0.7-1.8c-0.2-0.6-0.3-1.3-0.2-1.9C18.6,42.6,18.6,41.9,18.7,41.3z"/>
	<path style="fill:#F0C530;" d="M20.1,41.3c0.2,0.4,0.4,0.8,0.5,1.3c0.1,0.4,0.2,0.9,0.4,1.3s0.1,0.9,0.2,1.3s0.1,0.9,0.2,1.3
		c-0.3-0.3-0.6-0.8-0.7-1.2c-0.2-0.4-0.3-0.9-0.4-1.3c-0.1-0.5-0.1-0.9-0.1-1.4C20,42.2,20.1,41.8,20.1,41.3z"/>
	<path style="fill:#F0C530;" d="M23.1,47.9c0.3,0.5,0.5,1,0.6,1.5l0.2,0.7l0.2,0.8c-0.3-0.1-0.6-0.2-0.7-0.5
		c-0.2-0.2-0.3-0.5-0.4-0.8C23,49.3,23,49.1,23,48.8C23,48.5,23,48.2,23.1,47.9z"/>
	<path style="fill:#F0C530;" d="M24.2,45.3l0.4,3c0.1,0.5,0.2,1,0.4,1.4c0.1,0.5,0.3,1,0.6,1.4c-0.5-0.3-0.9-0.7-1.2-1.2
		c-0.2-0.5-0.4-1-0.5-1.5c-0.1-0.5-0.1-1,0-1.5C23.8,46.3,24,45.8,24.2,45.3z"/>
	<path style="fill:#F0C530;" d="M26,41.8c0.3,0.6,0.6,1.2,0.7,1.8c0.2,0.6,0.2,1.2,0.3,1.8c0,0.6,0,1.3-0.1,1.9
		c-0.1,0.6-0.3,1.2-0.5,1.8v-1.8c0-0.6,0-1.2-0.1-1.8c-0.1-0.6-0.1-1.2-0.1-1.8C26.1,43.1,26,42.4,26,41.8z"/>
	<path style="fill:#F0C530;" d="M27.8,43.7c0.2,0.6,0.4,1.3,0.4,2v2c0,0.7-0.1,1.4-0.4,2c0,0.2-0.1,0.3-0.1,0.5l-0.2,0.5
		c-0.1,0.2-0.2,0.3-0.2,0.5s-0.2,0.3-0.4,0.4c0.3-0.6,0.4-1.3,0.5-2c0.1-0.6,0.1-1.3,0.1-1.9l0.1-1.9C27.7,45,27.7,44.4,27.8,43.7z"
		/>
	<path style="fill:#F0C530;" d="M41.5,40.1c-0.2,1.2-0.6,2.4-1.1,3.5c-0.5,1.2-1.2,2.3-2.2,3.2c-1,0.9-2,1.8-3.1,2.5
		c-1.1,0.8-2.3,1.5-3.6,2.1c1.1-0.8,2.2-1.6,3.1-2.4c0.5-0.4,1-0.8,1.4-1.3s0.9-0.9,1.4-1.3c0.5-0.4,0.9-0.9,1.2-1.4
		c0.4-0.5,0.6-1,1-1.6C40.5,42.4,41.1,41.3,41.5,40.1z"/>
	<path style="fill:#FFFFFF;" d="M26.7,20.5c0,0,0.8,1,0.4,1.3S25.6,21,25.6,21s-0.5-0.7,0-0.9S26.7,20.5,26.7,20.5z"/>
	<path style="fill:#FFFFFF;" d="M33.3,21.8c0.1-0.1,0.5-0.2,0.8,0.4s0.2,0.9,0.1,1s-0.8-0.1-1-0.7S33.1,21.9,33.3,21.8z"/>
	<path style="fill:#F0C530;" d="M25.5,38.2l1.3-1.2c0.5-0.5,0.6-0.7,0.8-0.6c0.3,0.2,0.4,0.5,0.2,0.8c0,0-0.1,0.1-0.1,0.1
		c0,0,1.3-0.7,1.9-0.5s0.6,0.7,0.5,1.2s-0.2,1.3-0.8,1.5c-1.3,0.2-2.5,0.3-3.8,0.4c-0.2,0.1-0.8-1.5-0.8-1.5L25.5,38.2z"/>
	<path style="fill:#8D752F;" d="M25.5,38.2c0.2-0.3,0.4-0.5,0.6-0.8c0.2-0.3,0.4-0.5,0.6-0.7c0.2-0.1,0.3-0.2,0.4-0.4
		c0.1-0.1,0.2-0.2,0.4-0.2h0.4c0.1,0,0.1,0.1,0.2,0.1c0.3,0.3,0.3,0.9,0,1.2l-0.4-0.3c0.5-0.2,0.9-0.3,1.4-0.4
		c0.3-0.1,0.6-0.1,0.8,0c0.1,0,0.3,0.1,0.4,0.2c0.1,0.1,0.1,0.2,0.1,0.3v1.2c0,0.2-0.1,0.5-0.2,0.7c0,0.1-0.1,0.2-0.2,0.3
		c-0.1,0.1-0.2,0.2-0.4,0.2c-0.2,0.1-0.5,0.1-0.8,0.2L28,40c-0.5,0.1-1,0.1-1.4,0.1h-1c-0.1,0-0.2,0-0.2-0.1l-0.1-0.1
		c-0.1-0.1-0.1-0.2-0.2-0.3l-0.4-1.2v-0.1h0.1L25.5,38.2z M25.5,38.2l-0.7,0.3l0.1-0.2c0.2,0.4,0.4,0.7,0.6,1.1
		c0,0.1,0.1,0.1,0.1,0.2l0,0l0.7-0.1c0.5,0,1-0.1,1.4-0.1h0.7c0.2,0,0.4,0,0.6-0.1l0.4-0.3c0.1-0.2,0.2-0.3,0.2-0.5
		c0.1-0.2,0.1-0.4,0.1-0.6c0.1-0.2,0.1-0.4,0.1-0.6c0-0.2-0.1-0.3-0.4-0.4c-0.2-0.1-0.4-0.1-0.6,0c-0.4,0.1-0.9,0.3-1.2,0.6l-1,0.5
		l0.6-0.9c0-0.1,0.1-0.2,0-0.3s-0.1-0.2-0.1-0.2h0.1l-0.4,0.3c-0.3,0.3-0.5,0.5-0.8,0.7C25.9,37.8,25.9,38,25.5,38.2L25.5,38.2z"/>
	<path style="fill:#8D752F;" d="M30.4,20.8c-0.4-0.6-1-1-1.7-1.2c-0.7-0.2-1.4-0.3-2.2-0.3c-0.7,0-1.4,0.2-2,0.5
		c-0.6,0.3-1.2,0.8-1.7,1.3c0.1-0.8,0.6-1.5,1.2-1.9c0.7-0.5,1.6-0.7,2.5-0.7c0.9,0,1.7,0.2,2.5,0.6C29.8,19.4,30.3,20.1,30.4,20.8z
		"/>
	<path style="fill:#8D752F;" d="M32.2,21.6c0-0.5,0.3-1,0.8-1.2c0.3-0.1,0.6-0.2,0.8-0.3h0.8c0.6,0,1.2,0.3,1.6,0.8
		c0.3,0.3,0.5,0.8,0.4,1.3c-0.3-0.3-0.6-0.6-1-0.9c-0.3-0.2-0.7-0.3-1.1-0.4c-0.4-0.1-0.8-0.1-1.2,0C32.9,21.1,32.6,21.3,32.2,21.6z
		"/>
	<path style="fill:#F7DC8D;" d="M26,27.6v0.9c0,0.1,0.1,0.2,0.1,0.4l0,0l0.1,0.1l0.2,0.1c0.6,0.3,1.3,0.5,1.9,0.6
		c0.7,0.1,1.4,0.2,2.2,0.1c0.4,0,0.7,0,1.1-0.1c0.4,0,0.7-0.2,1-0.4c-0.2,0.3-0.5,0.5-0.8,0.6l-1.1,0.3c-0.8,0.1-1.5,0.1-2.3,0
		c-0.7-0.1-1.4-0.4-2-0.8l-0.2-0.2L26,29.1L25.9,29c-0.2-0.1-0.2-0.3-0.2-0.5L26,27.6z"/>
	<path style="fill:#FAE7B0;" d="M27.1,38.1c0.2-0.2,0.5-0.4,0.7-0.5c0.2-0.2,0.5-0.3,0.7-0.4c0.3-0.1,0.7-0.2,1-0.3h0.2
		c0.1,0,0.1,0.1,0.2,0.1s0.1,0.1,0.1,0.2v0.2c0-0.1,0-0.1-0.1-0.2l-0.1-0.1h-0.5l-0.7,0.3C28.2,37.7,27.7,38,27.1,38.1z"/>
	<path style="fill:#F0C530;" d="M39.7,34.2c0,0-0.2-0.7,0.1-0.8c0.3-0.2,0.8,0,0.9,0.3c0,0.1,0.1,0.1,0.1,0.2
		c0.4,0.9,0.6,3.1-0.7,3.2s-1.6-1.2-1.4-2.1S39,34.1,39.7,34.2z"/>
	<path style="fill:#8D752F;" d="M39.7,37.6c-0.4,0-0.7-0.1-1-0.3c-0.6-0.6-0.8-1.4-0.6-2.2c0-0.4,0.2-0.8,0.6-1.1
		c0.1-0.1,0.2-0.1,0.5-0.1c0-0.1,0-0.3,0.1-0.4l0.4-0.3c0.5-0.3,1.1-0.1,1.3,0.4c0,0.1,0.1,0.2,0.1,0.3c0.4,1,0.4,2.2-0.1,3.2
		c-0.2,0.3-0.6,0.5-1,0.5H39.7z M39.2,34.6L39.2,34.6c-0.1,0-0.2,0.1-0.2,0.6c-0.1,0.6,0,1.1,0.4,1.6c0.2,0.1,0.4,0.2,0.6,0.1
		c0.1,0,0.3-0.1,0.4-0.2c0.4-0.8,0.4-1.8,0-2.6c0-0.1-0.1-0.2-0.1-0.3l0,0c0,0.1,0,0.2,0.1,0.3l0.2,0.6l-0.8-0.2
		C39.4,34.5,39.3,34.5,39.2,34.6z"/>
	<path style="fill:#8D752F;" d="M42.5,32.9c-0.2,0.1-0.4,0.3-0.5,0.5c0,0.1-0.1,0.1-0.1,0.1c0,0,0,0,0,0l0,0c0,0.1,0,0.1,0.1,0.2
		h0.7c0.1,0,0.4,0.1,0.5,0.1l1.1,0.4L43.3,34c-0.4-0.1-0.8,0-1.2,0.1c-0.2,0-0.3,0.1-0.5,0.2v0.4c-0.1,0.3-0.1,0.7-0.1,1
		c0,0.3-0.1,0.7-0.1,1l-0.1-0.2l0,0v0.1h1c-0.1,0.2-0.4,0.3-0.6,0.3H41c-0.1,0-0.1,0-0.2-0.1h-0.1v-1.2c0-0.4,0.1-0.7,0.2-1.1
		c0-0.1,0.1-0.2,0.1-0.3s0.1-0.1,0.1-0.1c0.1-0.1,0.2-0.1,0.2-0.1c0.2-0.1,0.5-0.1,0.7-0.1c0.4,0,0.8,0,1.2-0.1l-0.1,0.3
		c-0.2,0-0.5,0-0.7,0.1H42c-0.1,0-0.3,0-0.4-0.1c-0.1,0-0.2-0.1-0.2-0.2c-0.1-0.1-0.1-0.3-0.1-0.5v-0.1c0-0.1,0.1-0.1,0.1-0.1
		c0,0,0,0,0,0c0-0.1,0.1-0.1,0.2-0.1C41.9,32.9,42.3,32.8,42.5,32.9L42.5,32.9z"/>
	<path style="fill:#F0C530;" d="M22.9,59.4c0.6-0.5,1.3-0.8,2-1.1c0.8-0.3,1.6-0.4,2.4-0.4c0.8,0,1.6,0,2.4,0.2
		c0.8,0.2,1.5,0.5,2.2,1c-0.7-0.2-1.5-0.3-2.3-0.3h-2.2c-0.8,0-1.5,0.1-2.3,0.2L22.9,59.4z"/>
	<path style="fill:#F0C530;" d="M27.7,52.3c0.3,0.6,0.5,1.3,0.6,2c0.1,0.7,0.1-1.1,0.2-0.5c0,0.7,0,1.4-0.1,2.1
		c-0.1,0.7-0.3,1.4-0.5,2.1c-0.3-0.6-0.5-1.3-0.6-2c-0.1-0.7-0.2-1.3-0.2-2c0-0.7,0,1.1,0.1,0.4C27.3,53.7,27.4,53,27.7,52.3z"/>
	<path style="fill:#F0C530;" d="M21.7,39.8c0.1-0.2,0.4-0.3,0.5-0.5s0.4-0.3,0.6-0.4l0.7-0.3c0.2-0.1,0.5-0.1,0.7-0.2
		c-0.4,0.2-0.8,0.4-1.2,0.7C22.6,39.4,22.2,39.6,21.7,39.8z"/>
	<path style="fill:#C29935;" d="M35.3,17.8c0,0,2.2,0.1,2.5,1.2c0.2,0.8,0,1.3-0.6,1.2s-1-1-1.7-1s-2.2,0.5-2.4-0.1
		S34,17.8,35.3,17.8z"/>
	<path style="fill:#C29935;" d="M25.2,16.8c-0.2-1,2-2.5,4.6-1.4c2.9,1.3,2.4,2.6,1.9,3.1c-0.4,0.4-1.1,0.4-1.6,0.1
		c-0.1-0.1-0.3-0.3-0.4-0.5c-0.3-0.7-1-1.2-1.8-1.3C27,16.7,25.5,18,25.2,16.8z"/>
	<path style="fill:#F6D77B;" d="M29.2,30.3c0.6,0.1,1.1,0.4,1.1,1.9c0,1.5-0.1,2.1-1.1,2.1s-1.6-1.1-1.6-2.5S28.6,30.2,29.2,30.3z"
		/>
	<ellipse style="fill:#FFFFFF;" cx="28" cy="23.4" rx="0.5" ry="0.4"/>
	<ellipse style="fill:#FFFFFF;" cx="34.9" cy="23.9" rx="0.5" ry="0.4"/>
	<path style="fill:#8D752F;" d="M25.9,17.2c0.3-0.4,0.7-0.8,1.2-0.9c0.5-0.2,1.1-0.2,1.7-0.1l0.7,0.3c0.2,0.1,0.5,0.3,0.6,0.5
		c0.1,0.2,0.2,0.4,0.2,0.7c0,0.2,0,0.4-0.1,0.6c-0.1-0.2-0.1-0.4-0.2-0.6c-0.1-0.2-0.2-0.3-0.4-0.4c-0.3-0.2-0.7-0.4-1.1-0.5
		c-0.4-0.1-0.8-0.1-1.2,0C26.8,16.9,26.4,17,25.9,17.2z"/>
	<path style="fill:#8D752F;" d="M33.8,19.2c0.3-0.2,0.6-0.4,1-0.5c0.4-0.1,0.8-0.1,1.2,0c0.4,0.1,0.7,0.3,1,0.5
		c0.2,0.2,0.4,0.6,0.4,0.9c-0.1-0.3-0.3-0.5-0.5-0.7c-0.3-0.2-0.6-0.3-0.9-0.4C35.3,18.9,34.5,19,33.8,19.2z"/>
	<path style="fill:#F0C530;" d="M30.4,37.3c0.1,0.7,0,1.5-0.4,2.1c0.2,1.2,1.1,9-0.4,11.7c5.4-2.5,9.2-7.6,9.9-13.5
		c-0.4-0.1-0.8-0.3-1.2-0.5c-0.9,1.3-2.4,2.1-4,2.1C31.9,39,31.5,37.9,30.4,37.3z"/>
	<path style="fill:#F7DC8D;" d="M28.3,26.2c0.6-0.4,1.3-0.6,2-0.5c0.4,0,0.7,0.1,1.1,0.3l0.9,0.4l0.9,0.3c0.2,0.1,0.5,0.1,0.8,0.1
		c0.6,0,1.3-0.2,1.8-0.5c-0.2,0.3-0.4,0.5-0.6,0.8c-0.7,0.4-1.5,0.5-2.3,0.3c-0.3-0.1-0.6-0.1-1.1-0.3l-0.9-0.4
		c-0.2-0.1-0.5-0.2-0.8-0.3C29.5,26.1,28.9,26.1,28.3,26.2z"/>
	<path style="fill:#CCA639;" d="M36.2,26.2c-0.4,0.7-1.1,1.1-1.8,1.3h-0.5c-1.8-0.1-3.2-1.3-4.3-1.3c-1.4-0.2-2.7,0.7-3,2
		c-0.8,2,3.6,2,4.5,2s3-0.1,3.2-1.1c0.2-0.4,0.1-0.9-0.2-1.3"/>
	<path style="fill:#8D752F;" d="M36.3,26.2c-0.1,0.5-0.4,0.9-0.8,1.1c-0.5,0.3-1,0.5-1.5,0.5c-1,0-2-0.3-2.9-0.8
		c-0.4-0.2-0.8-0.4-1.2-0.5h-0.8c-0.3,0-0.5,0-0.8,0.1c-0.4,0.1-0.8,0.4-1.1,0.8c-0.3,0.3-0.4,0.7-0.5,1.1c-0.1,0.3,0,0.6,0.1,0.9
		c0.3,0.2,0.7,0.4,1.1,0.5c0.9,0.1,1.8,0.2,2.7,0.3h1.4c0.5,0,0.9-0.1,1.4-0.3c0.2,0,0.3-0.1,0.5-0.3l0.2-0.1v-0.3
		c0.2-0.4,0.1-0.8-0.2-1.1l0,0c0.2,0.2,0.3,0.4,0.3,0.6c0,0.3,0.2,0.4,0.2,0.6v0.4c0,0.1,0,0.3-0.2,0.4c-0.1,0.2-0.4,0.4-0.6,0.5
		c-0.5,0.3-1,0.4-1.5,0.4c-0.5,0-1.1,0.1-1.5,0.1c-1,0-2-0.1-3-0.4c-0.5-0.1-1-0.4-1.4-0.8c-0.2-0.2-0.3-0.5-0.3-0.8
		c0-0.2,0.1-0.4,0.1-0.6c0.2-0.4,0.5-0.8,0.8-1.1c0.3-0.4,0.7-0.6,1.2-0.8c0.2-0.1,0.5-0.1,0.8-0.1h0.8c0.5,0,1.1,0.1,1.5,0.4
		c0.8,0.4,1.7,0.6,2.6,0.8c0.4,0.1,0.9,0,1.2-0.2c0.4-0.2,0.7-0.5,0.9-0.9L36.3,26.2z"/>
	<path style="fill:#FFFFFF;" d="M29.5,26.7c0.5,0.4,1,0.7,1.5,1c0.8,0.3,2.3,0.5,2.3,0.3s0.2,1.4-2.1,1S29.4,27.2,29.5,26.7z"/>
</g>
</svg>
