<?xml version="1.0" encoding="utf-8"?>
<!-- Generator: Adobe Illustrator 22.0.0, SVG Export Plug-In . SVG Version: 6.00 Build 0)  -->
<svg version="1.1" id="Слой_1" xmlns="http://www.w3.org/2000/svg" xmlns:xlink="http://www.w3.org/1999/xlink" x="0px" y="0px"
	 viewBox="0 0 55.8 62.9" style="enable-background:new 0 0 55.8 62.9;" xml:space="preserve">
<title>Artboard 1 копия 12</title>
<g id="Слой_11">
	<path style="fill:#AE832F;" d="M18.8,61.3c-0.2,0-0.5-0.1-0.6-0.3c-0.1-0.3-0.1-0.7,0.1-1c0-0.1,0.1-0.1,0.1-0.2l5.4-3.7v-5.3h-0.7
		c-0.6,0-1.1-0.1-1.7-0.4c-0.3-0.1-0.6-0.3-0.8-0.4l-0.3-0.2L20,49.5l-0.3-0.3c-1.6-1.5-2.4-3.7-2.2-5.8v-0.1c0-0.8,0-1.6,0.1-2.3
		v-0.1l0,0c-0.9-1.3-1.6-2.8-1.9-4.3c-0.4-1.3-0.6-2.6-0.7-4h-0.1l-0.3-0.1c-0.6-0.1-1-0.5-1.1-1l-0.1-0.1c-0.3-0.2-0.5-0.6-0.6-1
		c-0.1-0.3-0.1-0.7-0.1-1c0-0.3,0.1-0.5,0.4-0.6c-0.1-0.1-0.2-0.2-0.4-0.3h-0.1c-0.5,0-0.9-0.1-1.2-0.5c-0.3-0.3-0.5-0.6-0.7-0.9
		c-0.4-1.1-0.5-2.4-0.1-3.5c0.3-0.9,0.6-1.7,1-2.6l0,0c0-0.1-0.1-0.1-0.1-0.2c-0.3-0.5-0.2-1.1,0.6-1.9l0.1-0.1
		c1.7-1.9,3.8-3.4,6.2-4.4c0.5-0.2,0.9-0.3,1.3-0.5l0.7-0.2l0.6-0.1l0.4-0.1l0.5-0.1l0.7-0.1l1-0.1l0.7-0.1l0.8-0.1l1-0.1h0.8
		c8.6,0,10.9,1.5,12.5,2.5l0.5,0.3c1.7,1.2,3.2,2.6,4.5,4.1l0.1,0.1c0.5,0.3,0.6,0.9,0.2,1.4c0,0,0,0.1-0.1,0.1l-0.1,0.1
		c0.5,1.3,0.9,2.6,1.2,4c0.1,1.2,0.2,3.4-0.7,4c-0.2,0.2-0.3,0.3-0.5,0.3c-0.1,0.4-0.3,0.7-0.6,0.9c-0.1,0.1-0.3,0.1-0.4,0.1l0,0
		c-0.1,0-0.3,0-0.4-0.1c-0.1,0.1-0.1,0.1-0.2,0.2c0.1,0.1,0.1,0.2,0.1,0.3c0.2,0.4,0,0.9-0.6,1.4c-0.3,0.4-0.7,0.8-1.2,1l-0.3,0.1
		c-0.4,0.2-0.8,0.3-1.3,0.4c-0.1,1.2-0.3,2.4-0.6,3.5c-0.1,0.2-0.1,0.5-0.2,0.7c-0.2,1-0.7,2-1.4,2.7c0.1,1.2,0.2,2.5,0.2,3.7v0.2
		c0,0.2,0,0.4,0,0.5c0,1.9-1.1,3.5-2.7,4.4c-0.2,0.1-0.5,0.3-0.7,0.4l-0.3,0.2l-0.5,0.2L33,50.6l-0.5,0.1L32,50.9l-0.4,0.1h-0.2v5.3
		c1,0.6,5,3.1,5.4,3.5c0.2,0.1,0.3,0.3,0.4,0.5c0.1,0.3,0.1,0.7-0.2,0.9c-0.1,0.1-0.2,0.1-0.3,0.2L18.8,61.3z M35.6,31.5
		c0.1,0.3,0.3,0.7,0.4,1.2c0.4-0.7,0.6-1,0.8-1.3L35.6,31.5L35.6,31.5z M19.3,32.2l0.2-1L18.4,31L19.3,32.2z"/>
	<path style="fill:#FFFFFF;" d="M26.6,13.3c9.4,0,11.1,1.8,12.8,2.7c1.6,1.2,3.1,2.5,4.3,4c0.3,0.3,0.7,0.6,0.3,1l-0.3,0.3l0,0
		c0.5,1.3,0.9,2.7,1.2,4.1c0.1,1,0.1,3.1-0.5,3.6c-0.2,0.2-0.4,0.3-0.5,0.4h-0.1c0,0.3-0.1,0.6-0.4,0.8c-0.1,0-0.1,0.1-0.2,0.1l0,0
		c-0.2,0-0.3-0.1-0.5-0.1h-0.1c-0.1,0.2-0.3,0.4-0.5,0.5c-0.1,0-0.2,0-0.2,0c-0.2,0-0.5-0.1-0.7-0.2l-0.2,0.3h0.1
		c0.1,0,0.1,0,0.1,0.1c0,0.1,0.1,0.1,0.2,0.1h0.3h0.1l0,0H42c0.2,0.1,0.4,0.2,0.4,0.4s0,0.5-0.4,0.9l0,0c-0.3,0.4-0.6,0.7-1.1,0.9
		l-0.2,0.1c-0.5,0.2-1,0.3-1.5,0.4c-0.1,1.3-0.3,2.6-0.6,3.9c-0.1,0.2-0.1,0.5-0.2,0.7c-0.1,1-0.7,2-1.4,2.6h0
		c0.1,1.5,0.2,2.8,0.2,3.9v0.2c0,0.2,0,0.3,0,0.5l0,0c-0.1,1.7-1,3.2-2.5,4l0,0c-0.2,0.1-0.4,0.3-0.7,0.4l-0.3,0.1h-0.1l-0.2,0.1
		h-0.1L32.9,50h-0.1l-0.4,0.1h-0.1l-0.3,0.1H32l-0.3,0.1h-0.1l-0.4,0.1H31h0v6c0,0,5.2,3.2,5.6,3.6c0,0,0.2,0.1,0.3,0.3
		c0.1,0.1,0.1,0.3,0,0.4h-18c-0.4,0-0.1-0.6-0.1-0.6l5.6-3.9v-6c-0.1,0-0.2-0.1-0.3-0.1c-0.2,0-0.4,0-0.6,0h-0.3
		c-0.5,0.1-1,0.1-1.5,0c-0.3-0.1-0.5-0.2-0.8-0.4l-0.3-0.2l0,0l-0.1-0.1l-0.2-0.2l-0.1-0.1l-0.2-0.2l0,0c-1.4-1.5-2.2-3.5-2-5.6l0,0
		c0-0.9,0.1-1.8,0.1-2.5L18,40.5l0,0c-0.9-1.3-1.5-2.7-1.9-4.2l0,0c-0.4-1.3-0.6-2.6-0.7-4c0-0.3-0.2-0.4-0.4-0.5
		c-0.6-0.2-1-0.1-1.2-0.8l0,0c-0.2-0.3-0.5-0.4-0.6-0.9c-0.1-0.3-0.1-0.6-0.1-0.9c0-0.2,0.4-0.3,0.6-0.3c0.2,0,0.3-0.1,0.4-0.2l0,0
		c-0.7-0.3-1.2-0.6-1.2-1l0,0l0,0l0,0l0.1-0.2l0,0l-0.1,0.2l0,0c-0.1,0-0.2,0-0.4,0c-0.3,0-0.6-0.1-0.9-0.3
		c-0.3-0.2-0.5-0.5-0.6-0.8c-0.4-1-0.4-2.1-0.1-3.1c0.3-1,0.7-2.1,1.2-3c0,0-0.4,0-0.4-0.1s-0.5-0.3,0.5-1.4
		c1.7-1.9,3.8-3.4,6.2-4.4h0.1c0.4-0.2,0.8-0.3,1.2-0.4h0.1l0.3-0.1l0.2-0.1l0.3-0.2H21l0.4-0.1l0.5-0.1l0.3-0.1l0.4-0.1h0.3
		l0.4-0.1h0.2l0.7-0.1h0.2h0.6h0.3h0.5h1 M16.7,30c-0.2-0.1-0.3-0.1-0.5-0.2l-0.6-0.3c0.2,0.1,0.5,0.3,0.8,0.4L16.7,30 M16.7,30
		L16.7,30l0.4,0.2l2.4,3.2l0.1-0.4l0,0l0.4-2.1l-0.3-0.1C18.7,30.6,17.7,30.3,16.7,30L16.7,30 M15,30.1L15,30.1 M35.7,34.1
		L35.7,34.1c0,0,0.3-0.5,0.5-1c0.3-0.6,0.6-1.1,1-1.6c0.4-0.2,0.8-0.3,1.2-0.3c0.1,0,0.2,0,0.3,0.1c-0.1-0.1-0.1-0.2,0-0.2l-4-0.1
		v0.2l0.2,0.6C35.3,32.3,35.5,33.2,35.7,34.1 M26.6,12.3h-1H25h-0.3h-0.6H24l-0.7,0.1h-0.2H23l-0.5,0.1h-0.3l-0.4,0.1h-0.1h-0.2
		l-0.5,0.1l-0.4,0.1l-0.3,0.1l-0.4,0.1l-0.2,0.1L19.5,13h-0.1c-0.5,0.1-0.9,0.3-1.3,0.5h-0.1c-2.5,1-4.7,2.5-6.4,4.5l-0.1,0.1
		c-0.3,0.4-1.3,1.4-0.7,2.5l0,0c-0.4,0.8-0.7,1.6-0.9,2.4c-0.4,1.3-0.4,2.6,0.1,3.9l0,0c0.2,0.4,0.5,0.8,0.8,1.1
		c0.3,0.3,0.8,0.5,1.2,0.6c-0.1,0.2-0.1,0.3-0.1,0.5c0,0.4,0.1,0.8,0.2,1.1c0.1,0.4,0.3,0.8,0.7,1.1c0.2,0.6,0.8,1.1,1.5,1.2h0.1
		c0.1,1.3,0.4,2.6,0.7,3.8c0.3,1.7,1,3.3,1.9,4.8c0,0.6-0.1,1.4-0.1,2.2l0,0v0.1c-0.2,2.3,0.7,4.6,2.4,6.2l0.3,0.3l0.1,0.1l0.2,0.2
		l0.1,0.1l0.1,0l0.3,0.2c0.3,0.2,0.6,0.4,0.9,0.5c0.6,0.3,1.2,0.4,1.8,0.4h0.2v4.5l-5.1,3.6c-0.1,0.1-0.2,0.2-0.3,0.3
		c-0.3,0.4-0.3,1-0.1,1.5c0.2,0.4,0.6,0.6,1,0.6h18c0.3,0,0.5-0.1,0.7-0.3c0.4-0.4,0.5-1,0.3-1.4c-0.1-0.3-0.3-0.6-0.6-0.7
		c-0.5-0.4-3.9-2.5-5.2-3.3v-4.6l0.2,0h0.2l0.3-0.1h0.1l0.4-0.1h0.1l0.3-0.1h0.1l0.3-0.1H34l0.4-0.2c0.3-0.1,0.5-0.3,0.7-0.4
		c1.8-1,2.9-2.8,3-4.8c0-0.2,0-0.3,0-0.5v-0.2c0-1.1-0.1-2.3-0.2-3.4c0.7-0.8,1.2-1.7,1.4-2.8c0.1-0.2,0.1-0.5,0.2-0.7
		c0.2-1.1,0.4-2.3,0.5-3.5c0.3-0.1,0.7-0.2,1-0.3l0.3-0.1c0.6-0.3,1.1-0.7,1.4-1.2c0.5-0.4,0.7-1,0.7-1.6l0,0c0.2,0,0.4-0.1,0.6-0.1
		c0.4-0.2,0.7-0.6,0.8-1l0.3-0.3c0.8-0.6,1.1-2.1,0.9-4.5c-0.2-1.3-0.6-2.6-1.1-3.8c0.4-0.6,0.3-1.5-0.3-2l-0.1-0.1
		c-1.4-1.6-2.9-3-4.6-4.2l-0.5-0.3C37.8,13.9,35.4,12.3,26.6,12.3L26.6,12.3z"/>
	<path style="fill:#C69943;" d="M19.7,34.3c-0.1,1.2-0.3,3-0.5,2.4c-0.3-0.8-1.9-5.5-2.8-6.3s-1.2-0.2-1.8-0.4
		c-0.4-0.2-0.7-0.6-0.9-1h-0.1c-0.2,0-0.6,0.1-0.6,0.3c0,0.5,0.1,1.1,0.5,1.5c0.4,0.4,0.3,0.7,0.8,0.9s1.1,0.2,1,0.7
		c0.2,3,1.2,6,2.9,8.5C20.3,43.7,19.9,36.6,19.7,34.3z"/>
	<path style="fill:#AE832F;" d="M14.7,30c0.6,0.2,0.7-0.4,1.6,0.4s2.6,4.6,2.1,11.3c0,0.6,1.3-6.2,1.4-7.5c0-0.5-0.1-0.7-0.1-0.7
		l-2.5-3.4c-0.6-0.3-1.3-0.5-1.9-0.9c-0.2-0.1-0.4-0.3-0.5-0.5c0,0-0.4-0.3-0.6-0.2c-0.1,0.2-0.3,0.3-0.4,0.3
		C14,29.4,14.3,29.8,14.7,30z"/>
	<path style="fill:#C69943;" d="M24.3,49.1v7.3l-5.6,3.9c0,0-0.3,0.6,0.1,0.6h18c0,0,0.3-0.3-0.2-0.6s-5.6-3.6-5.6-3.6v-7.7
		L24.3,49.1z"/>
	<path style="fill:#976A2E;" d="M24.5,56.3c0,0,0-4.5,2.9-4.5s3.5,4.7,3.5,4.7v-8.9c0,0-6.6,1.3-6.6,1.5S24.5,56.3,24.5,56.3z"/>
	<path style="fill:#AE832F;" d="M41.7,30.9c-0.1,0-0.4,0.1-0.5-0.1s-0.3,0-0.4,0s-0.6,0.5-1,0.6s-0.9-0.2-1.2-0.2
		c-0.4,0-0.9,0.1-1.2,0.3c-0.4,0.5-0.7,1.1-1,1.6c0.4,1.1,1.3,3.5,2,5.1c0.1-0.2,0.1-0.5,0.2-0.7c0.3-1.3,0.4-2.6,0.6-3.9
		c0.6-0.1,1.2-0.2,1.8-0.5c0.7-0.4,1.2-1,1.5-1.7C42.4,31.1,41.8,30.9,41.7,30.9z"/>
	<path style="fill:#976A2E;" d="M35.8,34.1l-0.9,0.4l0.6,6.7c0.5-0.1,1-0.3,1.5-0.5c0.7-0.7,1.2-1.6,1.4-2.5c0-0.9-0.3-1.8-0.6-2.7
		c-0.4-1-1.1-1.8-1.3-2.4C36,33.6,35.8,34.1,35.8,34.1z"/>
	<path style="fill:#C69943;" d="M20.4,29.6c0,0.2-2.2,8.4-2.3,10.7s-0.8,7,2.8,9.2c0.9,0.6,2,0.8,3.1,0.7c0.9,0.4,2,0.6,3,0.6
		c2,0,5.2-0.3,6.9-1.1s3.2-2.2,3.2-4.4c0-3.2-0.3-6.5-0.9-9.6c-0.4-1.8-0.9-3.7-1.5-5.4c-0.6-1.9-4-4.2-4-4.2l-6.3,0.3L20.4,29.6z"
		/>
	<path style="fill:#976A2E;" d="M36.3,38.6c-0.6-3.1-1.5-7.1-2-9c-0.3-0.5-0.7-0.9-1.1-1.3c-0.7-0.1-1.4-0.1-2.1,0.1l1.8,2.9H33l0,0
		h0.1H33c0.1,0.2,2.2,7.5,1.7,11.4S32,50,29,50.7l-0.4,0.1c1.8,0,3.6-0.4,5.3-1.1c0.4-0.2,0.9-0.5,1.2-0.8c0.7-0.8,1.1-1.8,1.3-2.8
		C36.9,43.6,36.8,41.1,36.3,38.6z"/>
	<path style="fill:#BD8D33;" d="M25.3,43.7c-0.3,0.1,0,0.6,0.4,1s0.6,1.1,1.6,1.2s1.4,0.4,2-0.5s1-1,0.8-1.1s-2.2,0-2.7-0.2
		C26.7,43.9,26,43.7,25.3,43.7z"/>
	<path style="fill:#976A2E;" d="M19.1,30.4c0,0,1.5,1,2.3,0.5c0.9-0.7,2-1.1,3.1-1.3c1,0,2.6,1.4,3.1,1.4s1.7-1.3,3.1-1.3
		c1.3,0.1,2.4,1,2.8,2.3l1.5-0.5c0-0.9-0.2-1.9-0.3-2.8c-0.3-1.4-7.3-0.9-7.3-0.9l-6.4,0.9l-2.8,1.1L19.1,30.4z"/>
	<path style="fill:#976A2E;" d="M41.4,29.8c-0.3-0.2-0.4,0.1-0.8,0.3c-0.5,0.1-1,0.2-1.5,0.1c-0.9-0.2-1.8-0.5-2.6-0.9
		c-0.5-0.1-1.2-0.8-1.2-1.2s-0.3-0.8-0.3-0.8c-0.1,0.1-0.3,0.1-0.4-0.1c0,0,0-0.1,0-0.1c-0.1-0.3-0.1-2.6-0.1-2.5
		c-0.1,0.6-0.2,1.2-0.4,1.7c-0.3,0.5-0.4,0.4-0.5,0.1c-0.1-0.6-0.2-1.1-0.2-1.7c-0.1-0.6-0.2-1.2-0.5-1.8c-0.1,1.2-0.3,2.3-0.6,3.4
		c-0.4,0.6-0.8,0.5-1.6,0.4c-1.1-0.2-2.2-0.2-3.4-0.1c-1.6,0.2-3.2,0.5-4.8,0.9c-1,0.2-2,0.6-2.8,1.1c-0.9,0.5-1-0.1-1.3-0.5
		S18,26.6,18,26s-0.1-0.7-0.3-0.5c-0.4,0.8-0.8,1.6-1.2,2.5c-0.3,0.7-0.5,0.6-0.9,0.5c-0.3-0.2-0.7-0.3-1.1-0.2
		c-0.8,0-0.7-0.4-0.9-0.7s-0.6,0.2-0.7,0.4c0,0.6,2.1,1.3,3.3,1.9c1.2,0.5,2.5,0.8,3.8,1c0,0,2.1-2.4,7.5-2.4s7.2,2.4,7.2,2.4L39,31
		c0.2,0.3,0.6,0.5,1,0.5c0.4,0,0.8-0.3,1-0.7l0.3-0.3c0.3,0.1,0.6,0.2,0.9,0.1c0.2-0.1,0.4-0.3,0.5-0.5c-0.2,0-0.4,0.1-0.6,0.1
		C41.7,30.2,41.6,30,41.4,29.8z"/>
	<path style="fill:#C69943;" d="M45,25.4c-0.3-1.4-0.7-2.8-1.2-4.1l0,0l0,0L44,21c0.3-0.4,0-0.7-0.3-1c-1.3-1.5-2.7-2.8-4.3-4
		c-1.6-0.9-3.3-2.7-12.8-2.7S13.3,18,12.3,19.1s-0.5,1.3-0.5,1.4s0.4,0.1,0.4,0.1c-0.5,0.9-0.9,2-1.2,3c-0.3,1-0.3,2.1,0,3.1
		c0.2,0.3,0.4,0.6,0.6,0.8c0.4,0.3,0.8,0.4,1.2,0.3l0,0c0.1-0.2,0.5-0.7,0.7-0.4s0.2,0.8,0.9,0.7c0.4-0.1,0.7,0,1.1,0.2
		c0.4,0.1,0.7,0.2,1-0.5c0.3-0.8,0.7-1.6,1.2-2.4c0.2-0.2,0.2-0.1,0.3,0.5s-0.1,1.8,0.3,2.1s0.4,1,1.3,0.5c0.9-0.5,1.8-0.9,2.8-1.1
		c1.6-0.4,3.2-0.7,4.8-0.9c1.1-0.1,2.3-0.1,3.4,0.1c0.8,0.1,1.3,0.3,1.6-0.4c0.3-1.1,0.6-2.2,0.6-3.4c0.2,0.6,0.4,1.2,0.5,1.8
		c0,0.6,0.1,1.2,0.2,1.7c0.1,0.3,0.3,0.4,0.5-0.1c0.2-0.6,0.4-1.1,0.4-1.7c0-0.1,0,2.2,0.1,2.5c0,0.2,0.2,0.3,0.4,0.3
		c0,0,0.1,0,0.1,0c0.1-0.1,0.3,0.4,0.3,0.8s0.6,1,1.2,1.2c0.9,0.4,1.7,0.6,2.6,0.9c0.5,0.1,1,0.1,1.5-0.1c0.4-0.2,0.6-0.5,0.8-0.3
		s0.3,0.4,0.6,0.4c0.2,0,0.4,0,0.6-0.1V30l0.1,0.1h0.1h-0.1c0.2,0.2,0.5,0.2,0.7,0.1c0.3-0.2,0.4-0.5,0.4-0.8l0,0c0,0,0.1,0,0.6-0.4
		S45.1,26.4,45,25.4z"/>
	<path style="fill:#976A2E;" d="M40.5,30.1c0.4-0.2,0.6-0.5,0.8-0.3s0.3,0.4,0.6,0.4c0.2,0,0.4,0,0.6-0.1V30l0.1,0.1h0.1h-0.1
		c0.2,0.2,0.5,0.2,0.7,0.1c0.3-0.2,0.4-0.5,0.4-0.8l0,0c0,0,0.1,0,0.6-0.4s0.6-2.6,0.5-3.6c-0.3-1.4-0.7-2.8-1.2-4.1l0,0l0,0L44,21
		c0.3-0.4,0-0.7-0.3-1c-1.3-1.5-2.7-2.8-4.3-4c-1.6-0.9-3.3-2.7-12.8-2.7c-2.9-0.1-5.9,0.5-8.6,1.6l0,0c0.2-0.1,10.5-3.3,15.6,0.4
		s6,10.4,4.7,12.8l-0.9,1.6c0.5,0.2,1,0.4,1.6,0.5C39.5,30.2,40,30.2,40.5,30.1z"/>
	<path style="fill:#976A2E;" d="M28.6,36.7c0,0,0.3-4.7,3.1-4.7s3.4,2.8,3.4,5S28.6,36.7,28.6,36.7z"/>
	<path style="fill:#FFFFFF;" d="M29.9,33.7c0.5-0.4,1.2-0.7,1.9-0.7c1.4,0.1,2.7,1,3.1,2.3c0.8,2,0.5,4-0.9,5.1
		c-0.9,0.8-2.1,1.1-3.3,0.8c-0.7-0.3-2.9-1.2-2.9-3.3C27.9,36.3,28.7,34.8,29.9,33.7z"/>
	<path style="fill:#976A2E;" d="M20.8,36.7c0,0,0.3-4.7,3.1-4.7s3.4,2.8,3.4,5S20.8,36.7,20.8,36.7z"/>
	<path style="fill:#FFFFFF;" d="M24.1,33.1c0,0,2.4-0.4,3.4,3.3c0.7,2-0.4,4.2-2.4,4.9c-0.2,0.1-0.4,0.1-0.6,0.1
		c-0.6,0-3.8,0-4.3-2.4c-0.5-2,0.3-4,2-5.1C23.4,33,23.4,33.2,24.1,33.1z"/>
	<path style="fill:#FFFFFF;" d="M25.1,43.7c-0.3,0.1,0,0.6,0.4,1s0.6,1.1,1.6,1.2s1.4,0.4,2-0.5s1-1,0.8-1.1s-2.2,0-2.7-0.2
		C26.5,43.9,25.8,43.7,25.1,43.7z"/>
	<path style="fill:#976A2E;" d="M19.8,38.8c0,0,3.6,5,7.9,5.2s5.1-0.7,5.1-0.7s-0.1-0.5,0.1-0.6s1.2,0.9,1.1,1.1s-0.3,0.4-0.6,0.2
		L33,43.6c-1.5,0.7-3.1,1-4.8,0.9c-2.6-0.2-2.7-0.4-3.6-0.8c-1.8-1.2-3.5-2.6-4.9-4.2c0,0-0.2,0.5-0.4,0.4s-0.1-1,0.2-1.3
		s0.5-0.6,0.6-0.4S19.8,38.8,19.8,38.8z"/>
	<path style="fill:#AE832F;" d="M19.2,15.2c-0.1,0.1-0.2,0.3-0.2,0.5c0,0.1,0,0.1,0.1,0.2c0.1,0,0.1,0,0.2,0c0.1,0,0.2,0,0.3,0
		c0.1,0,0.2,0.1,0.3,0.1c0.1,0.2,0.2,0.3,0.3,0.5l0,0l0.2-0.1c0.1-0.1,0.3-0.1,0.5-0.2c0.2-0.1,0.4-0.1,0.6,0c0.2,0,0.4,0.1,0.5,0.2
		c0.1,0.1,0.3,0.2,0.4,0.2c0.1,0,0.3,0,0.4,0l0.2-0.1l0.3-0.1c0.2,0,0.4,0,0.6,0h0.2l0,0l0.1-0.1c0.1-0.1,0.2-0.3,0.2-0.4
		c0.1-0.3,0.3-0.6,0.6-0.9c-0.2,0.3-0.4,0.6-0.4,0.9c0,0.2-0.1,0.4-0.2,0.5c0,0.1-0.1,0.1-0.1,0.1c-0.1,0-0.1,0.1-0.2,0.1
		c-0.1,0-0.2,0-0.3,0c-0.2,0-0.3,0-0.5,0.1L23.1,17c-0.1,0-0.2,0.1-0.3,0.1c-0.2,0.1-0.4,0.1-0.6,0c-0.2-0.1-0.3-0.2-0.5-0.3
		c-0.1-0.1-0.3-0.1-0.4-0.2c-0.1,0-0.3,0-0.4,0c-0.1,0-0.3,0.1-0.5,0.2c-0.1,0-0.2,0.1-0.3,0.1c-0.1,0-0.2,0-0.2-0.1
		c-0.1,0-0.1-0.1-0.1-0.2c0-0.1,0-0.2-0.1-0.3c0-0.1,0-0.1-0.1-0.2c0,0-0.1-0.1-0.1-0.1c-0.1,0-0.1,0-0.2,0c-0.1,0-0.1,0-0.2,0
		c-0.1,0-0.1-0.1-0.1-0.1c-0.1-0.1-0.1-0.2-0.1-0.3C18.9,15.5,19,15.3,19.2,15.2z"/>
	<path style="fill:#AE832F;" d="M26.6,17.3c0,0.2,0,0.5,0,0.7c0,0.1,0.1,0.1,0.2,0.1c0.1,0,0.2-0.1,0.3-0.1l0.4-0.1
		c0.1,0,0.3,0,0.4,0c0.1,0,0.3,0.1,0.4,0.1l0.2,0.1l0.2,0.1c0.1,0.1,0.2,0.2,0.3,0.3c0.1,0.1,0.1,0.1,0.2,0.1c0.2,0,0.4,0,0.6-0.1
		l0.7-0.2l0.7-0.3c0.1-0.1,0.3-0.1,0.4-0.1c0.1,0,0.3,0,0.4,0c0.3,0,0.5,0.1,0.7,0.1c0.2,0,0.4,0,0.6-0.1l0.1-0.1
		c0.1-0.1,0.1-0.1,0.2-0.1c0.1,0,0.2,0,0.3,0l0.2,0.1c0.2,0.1,0.4,0.1,0.7,0.1c0.2,0,0.5-0.1,0.7-0.1c0.2-0.1,0.5-0.1,0.7-0.1
		c0.2,0,0.5,0,0.8,0c-0.1,0-0.2,0-0.4,0l-0.4,0.1l-0.7,0.2c-0.2,0.1-0.5,0.2-0.7,0.2c-0.3,0.1-0.5,0.1-0.8,0H34h-0.1l-0.1,0.1
		l-0.2,0.1c-0.1,0.1-0.3,0.2-0.4,0.2c-0.1,0-0.3,0-0.4,0c-0.3,0-0.5-0.1-0.8-0.1c-0.2,0-0.4,0-0.6,0.1l-0.7,0.3
		c-0.2,0.1-0.5,0.2-0.7,0.2c-0.3,0.1-0.6,0.1-0.8,0c-0.1,0-0.3-0.1-0.4-0.2c-0.1-0.1-0.2-0.2-0.3-0.2l-0.1-0.1l-0.2-0.1
		c-0.1-0.1-0.2-0.1-0.3-0.1c-0.2,0-0.5,0-0.7,0.1c-0.1,0-0.3,0.1-0.4,0.1h-0.1c0,0-0.1,0-0.1,0c-0.1,0-0.1-0.1-0.1-0.2
		C26.5,17.9,26.5,17.6,26.6,17.3z"/>
	<path style="fill:#AE832F;" d="M28.8,22.1C29,22,29.3,22,29.6,22c0.1,0,0.3,0,0.4,0.1c0.1,0,0.3,0.1,0.4,0.2
		c0.1,0.1,0.2,0.2,0.3,0.3c0.1,0.1,0.2,0.2,0.2,0.4c0.1,0.1,0.1,0.2,0.2,0.4l0.1,0.2c0,0,0.1,0.1,0.1,0.1l0,0l0,0
		c0,0,0.1-0.1,0.1-0.1c0.1-0.1,0.1-0.2,0.2-0.3c0.1-0.3,0.2-0.5,0.4-0.8c0.1-0.2,0.3-0.3,0.5-0.3c0.2,0,0.3,0,0.5,0
		c0.3,0,0.6,0.1,0.8,0.3c0.1,0.1,0.2,0.2,0.4,0.3c0.1,0.1,0.2,0.2,0.3,0.2c0.1,0,0.2,0.1,0.3,0c0.1,0,0.2-0.1,0.3-0.1l0.2-0.1h0.1
		h0.1c0.2,0,0.4,0,0.5,0.1c0.1,0.1,0.2,0.2,0.3,0.3c0.1,0.1,0.1,0.1,0.2,0.1c0.1,0,0.2,0,0.3-0.1l0.4-0.2c0.2-0.1,0.5-0.2,0.8-0.2
		c0.3,0,0.6,0.2,0.7,0.4c0.1,0.1,0.2,0.2,0.3,0.2c0.1,0,0.3,0,0.4,0c-0.1,0.1-0.3,0.1-0.4,0.1c-0.1,0-0.3-0.1-0.4-0.2
		c-0.1-0.1-0.2-0.2-0.3-0.2c-0.1-0.1-0.2-0.1-0.3-0.1c-0.2,0-0.5,0.1-0.7,0.3l-0.3,0.2c-0.1,0.1-0.3,0.1-0.4,0.2c-0.1,0-0.2,0-0.3,0
		c-0.1,0-0.1-0.1-0.2-0.1c-0.1-0.1-0.2-0.2-0.3-0.2c-0.1,0-0.2,0-0.2,0h-0.1h-0.1l-0.1,0c-0.1,0.1-0.3,0.1-0.4,0.1
		c-0.2,0-0.4,0-0.5-0.1c-0.1-0.1-0.2-0.2-0.3-0.3c-0.1-0.1-0.2-0.1-0.3-0.2c-0.2-0.1-0.4-0.2-0.7-0.3c-0.1,0-0.2,0-0.3,0
		c-0.1,0-0.2,0.1-0.2,0.1c-0.1,0.2-0.3,0.4-0.4,0.7c-0.1,0.1-0.1,0.3-0.2,0.4c0,0.1-0.1,0.1-0.2,0.2c0,0-0.1,0.1-0.1,0.1
		c-0.1,0-0.1,0-0.2,0c-0.1,0-0.2-0.1-0.2-0.2c0-0.1-0.1-0.1-0.1-0.2l-0.2-0.4c-0.1-0.1-0.1-0.2-0.2-0.4c-0.1-0.1-0.1-0.2-0.2-0.3
		c-0.1-0.1-0.2-0.2-0.3-0.2c-0.1,0-0.2-0.1-0.4-0.1C29.3,22.1,29,22.1,28.8,22.1z"/>
	<path style="fill:none;" d="M42.6,30.1h0.1H42.6L42.6,30.1z"/>
	<path style="fill:#C69943;" d="M43.8,21.3L43.8,21.3C43.8,21.3,43.7,21.3,43.8,21.3z"/>
	<path style="fill:#C69943;" d="M43.9,29.4L43.9,29.4z"/>
	<path style="fill:#D9AB54;" d="M25.1,48.5c0,0-0.6-1.3,0.4-1.9c0.7-0.5,1.7-0.4,2.3,0.3c0.2,0.4-0.3,0.9-0.8,0.7s-1-0.1-1.1,0.3
		S25.6,48.7,25.1,48.5z"/>
	<path style="fill:#795326;" d="M12.9,27.9c0.1-0.1,0.1-0.2,0.2-0.3c0.1-0.1,0.2-0.2,0.3-0.2c0.1,0,0.1,0,0.2,0
		c0.1,0,0.1,0.1,0.1,0.1c0.1,0.1,0.1,0.2,0.2,0.3c0.1,0.1,0.1,0.2,0.2,0.2c0.1,0,0.2,0.1,0.3,0.1c0.2,0,0.5,0,0.8,0
		c0.1,0,0.2,0.1,0.4,0.1c0.1,0,0.2,0.1,0.3,0.1c0.1,0,0.2,0,0.3-0.1c0.1-0.1,0.2-0.2,0.2-0.3c0.1-0.2,0.2-0.5,0.3-0.7l0.3-0.7
		c0.1-0.2,0.2-0.5,0.3-0.7l0.2-0.3c0.1-0.1,0.1-0.2,0.2-0.3c0,0,0.1-0.1,0.1-0.1c0,0,0.1,0,0.1,0c0,0,0.1,0,0.1,0.1
		c0,0.1,0.1,0.1,0.1,0.2c0,0.1,0,0.3,0,0.4s0,0.5,0,0.7c0,0.2,0,0.5,0,0.7c0,0.1,0,0.2,0.1,0.3c0,0,0,0.1,0.1,0.1l0,0l0.1,0.1
		c0.2,0.2,0.3,0.4,0.4,0.5c0.2,0,0.4,0,0.6-0.1c0.4-0.2,0.9-0.5,1.3-0.7c0.5-0.2,0.9-0.4,1.4-0.5c1-0.2,1.9-0.4,2.9-0.6
		c0.5-0.1,1-0.2,1.5-0.2s1-0.1,1.5-0.1s1,0,1.5,0s1,0.1,1.5,0.2c0.2,0.1,0.4,0.1,0.6,0c0.1,0,0.2-0.1,0.2-0.2c0.1,0,0.2-0.1,0.3-0.2
		c0.2-0.5,0.3-0.9,0.3-1.4c0.1-0.5,0.2-1,0.2-1.5c0-0.1,0-0.3,0-0.4c0,0,0,0,0-0.1c-0.1,0,0.3-0.3,0.3-0.1v0v0.1V23l0.1,0.2
		c0.1,0.2,0.1,0.5,0.2,0.7s0.1,0.5,0.1,0.7s0,0.5,0.1,0.8s0,0.5,0,0.7c0,0.1,0,0.1,0,0.2c0,0,0,0.1,0,0.1c0,0,0,0.1,0.1,0.1l0,0
		c0.1-0.1,0.1-0.1,0.2-0.2c0-0.1,0.1-0.2,0.1-0.3c0.1-0.2,0.1-0.5,0.2-0.7s0-0.2,0.1-0.4v-0.2v-0.1l0,0c-0.1,0,0.6,0,0.3,0v0.8
		c0,0.5,0,1,0,1.5c0,0.1,0,0.2,0,0.3c0,0.1,0.1,0.1,0.2,0.1h0.1c0,0,0.1,0,0.1,0c0.1,0,0.1,0,0.2,0.1l0.1,0.1
		c0.1,0.1,0.1,0.2,0.2,0.4c0,0.1,0,0.1,0,0.2c0,0,0,0.1,0,0.1v0.1c0,0.1,0.1,0.2,0.1,0.3c0.1,0.2,0.3,0.4,0.5,0.5
		c0.1,0.1,0.2,0.1,0.3,0.2l0.2,0.1l0.2,0.1l0.7,0.3c0.5,0.2,0.9,0.4,1.4,0.5c0.1,0,0.2,0.1,0.3,0.1H39c0.2,0,0.5,0,0.7,0
		c0.1,0,0.2,0,0.3-0.1c0.1,0,0.2-0.1,0.3-0.2c0.1-0.1,0.2-0.1,0.3-0.2c0.1,0,0.1,0,0.2,0c0.1,0,0.1,0.1,0.2,0.1
		c0.1,0.1,0.2,0.2,0.3,0.2c0.1,0,0.2,0.1,0.3,0c0.2,0,0.5,0,0.7-0.1c-0.2,0.1-0.5,0.1-0.7,0.1c-0.1,0-0.2,0-0.4,0
		c-0.1-0.1-0.2-0.1-0.3-0.2c-0.1-0.1-0.2-0.1-0.3-0.1c-0.1,0-0.2,0.1-0.3,0.2c-0.1,0.1-0.2,0.1-0.3,0.2c-0.1,0.1-0.2,0.1-0.4,0.1
		c-0.2,0-0.5,0-0.8,0h0c-0.1,0-0.3,0-0.4-0.1c-0.5-0.1-0.9-0.3-1.4-0.5l-0.7-0.3l-0.2,0l-0.2-0.1c-0.1-0.1-0.2-0.1-0.3-0.2
		c-0.2-0.2-0.4-0.3-0.5-0.6c-0.1-0.1-0.1-0.3-0.2-0.4v-0.1c0,0,0,0,0-0.1c0-0.1,0-0.1,0-0.2c0-0.1-0.1-0.2-0.1-0.3v0l0,0
		c0,0,0.1,0,0,0h-0.1h-0.1c-0.1,0-0.2,0-0.3,0c-0.1,0-0.2-0.1-0.2-0.2c0-0.1-0.1-0.1-0.1-0.2c0-0.1,0-0.1,0-0.2c0-0.5,0-1-0.1-1.5
		v-0.7l0,0h0.3v0.1V25c0,0.1,0,0.3-0.1,0.4c0,0.2-0.1,0.5-0.2,0.7c0,0.1-0.1,0.2-0.1,0.4c0,0.1-0.1,0.1-0.1,0.2
		c0,0.1-0.1,0.1-0.2,0.2c-0.1,0-0.1,0.1-0.2,0.1c-0.1,0-0.1,0-0.2-0.1c-0.1-0.1-0.1-0.1-0.2-0.2c0-0.1-0.1-0.1-0.1-0.2
		c0-0.1,0-0.1,0-0.2c0-0.3,0-0.5-0.1-0.8s0-0.5-0.1-0.7S33.1,24.3,33,24s-0.1-0.5-0.2-0.7l0-0.2v-0.1l0,0l0,0c0,0.1,0.5-0.1,0.3-0.1
		s0,0,0,0s0,0.3,0,0.4c0,0.5-0.1,1-0.2,1.5c0,0.3-0.1,0.5-0.1,0.7c-0.1,0.3-0.1,0.5-0.2,0.7c-0.1,0.1-0.1,0.3-0.2,0.4
		c-0.1,0.1-0.2,0.2-0.4,0.3c-0.3,0.1-0.6,0.1-0.8,0c-0.5-0.1-1-0.1-1.5-0.2s-1,0-1.5,0s-1,0-1.5,0.1s-1,0.1-1.4,0.2
		c-1,0.2-1.9,0.4-2.9,0.6c-0.5,0.1-0.9,0.3-1.4,0.4c-0.5,0.2-0.9,0.4-1.3,0.6c-0.1,0.1-0.2,0.1-0.4,0.1c-0.1,0-0.3,0-0.5,0
		c-0.1-0.1-0.3-0.2-0.3-0.3c-0.1-0.1-0.1-0.2-0.2-0.3l0-0.1l-0.1-0.1c0-0.1-0.1-0.1-0.1-0.2c0-0.1-0.1-0.3-0.1-0.4
		c0-0.2,0-0.5,0-0.8c0-0.3,0-0.5,0-0.7s0-0.2,0-0.4c0,0,0-0.1,0-0.1l0,0l0,0l0,0c-0.1,0.1-0.1,0.2-0.2,0.3l-0.2,0.3l-0.3,0.7
		l-0.3,0.7c-0.1,0.2-0.2,0.5-0.3,0.7c-0.1,0.1-0.2,0.2-0.3,0.3c-0.1,0.1-0.3,0.1-0.4,0.1c-0.1,0-0.2-0.1-0.4-0.1
		c-0.1,0-0.2-0.1-0.3-0.1c-0.2,0-0.5,0-0.7,0c-0.1,0-0.3,0-0.4-0.1c-0.1-0.1-0.2-0.2-0.3-0.3c0-0.1-0.1-0.2-0.2-0.3
		c0-0.1-0.1-0.1-0.1-0.1c-0.1,0-0.1,0-0.2,0c-0.1,0-0.2,0.1-0.3,0.2C13.2,27.8,13,27.9,12.9,27.9z"/>
	<path style="fill:#AE832F;" d="M26.3,17.3c0,0.2,0,0.5,0,0.7c0,0.1,0.1,0.1,0.2,0.1c0.1,0,0.2-0.1,0.3-0.1l0.4-0.1
		c0.1,0,0.3,0,0.4,0c0.1,0,0.2,0.1,0.3,0.1l0.2,0.1l0.2,0.1c0.1,0.1,0.2,0.2,0.3,0.3c0.1,0.1,0.1,0.1,0.2,0.1c0.2,0,0.4,0,0.6-0.1
		l0.7-0.2l0.7-0.3c0.1-0.1,0.3-0.1,0.4-0.1c0.1,0,0.3,0,0.4,0c0.3,0,0.5,0.1,0.7,0.1c0.2,0,0.4,0,0.6-0.1l0.1-0.1
		c0.1-0.1,0.1-0.1,0.2-0.1c0.1,0,0.2,0,0.3,0l0.2,0.1c0.2,0.1,0.4,0.1,0.7,0.1c0.2,0,0.5-0.1,0.7-0.1c0.2-0.1,0.5-0.1,0.7-0.1
		c0.2,0,0.5,0,0.8,0c-0.1,0-0.2,0-0.4,0L36,17.5l-0.7,0.2c-0.2,0.1-0.5,0.2-0.7,0.2c-0.3,0.1-0.5,0.1-0.8,0h-0.2h-0.1l-0.1,0.1
		l-0.2,0.1c-0.1,0.1-0.3,0.2-0.4,0.2c-0.1,0-0.3,0-0.4,0c-0.3,0-0.5-0.1-0.8-0.1c-0.2,0-0.4,0-0.6,0.1l-0.7,0.3
		c-0.2,0.1-0.5,0.2-0.7,0.2c-0.3,0.1-0.6,0.1-0.8,0c-0.1,0-0.3-0.1-0.4-0.2c-0.1-0.1-0.2-0.2-0.3-0.2l-0.1-0.1l-0.2-0.1
		c-0.1-0.1-0.2-0.1-0.3-0.1c-0.2,0-0.5,0-0.7,0.1c-0.1,0-0.3,0.1-0.4,0.1h-0.1c0,0-0.1,0-0.1,0c-0.1,0-0.1-0.1-0.1-0.2
		C26.2,17.8,26.2,17.6,26.3,17.3z"/>
	<path style="fill:#795326;" d="M20.3,30.6c1.5-1.2,3.3-1.9,5.2-2c3.1-0.2,5.3-0.1,7.7,1.1c0.4,0.3,0.4,0.4-0.6,0
		c-2.9-1.2-6.1-1.4-9.1-0.6c-1,0.3-1.9,0.8-2.8,1.4C20.6,30.6,20.4,30.9,20.3,30.6z"/>
	<path style="fill:#795326;" d="M19.5,39.3c0,0-0.1,0.5-0.2,0.3s0.2-1.2,0.4-1.3s0.2,0,0.1,0.1S19.5,39,19.5,39.3z"/>
	<path style="fill:#795326;" d="M19.9,38.9c0,0-0.1,0.1,0,0.4c1.3,1.5,2.8,2.7,4.4,3.8c1.5,0.8,3.7,1.4,7.2,0.8
		c0.5-0.1,0.9-0.3,1.4-0.5c0.3,0,0.5,0.2,0.6,0.4c0.1,0.1,0.3-0.1-0.2-0.5c-0.3-0.2-0.5-0.3-0.5,0c-2.7,1-5.7,0.9-8.3-0.3
		C22.7,41.9,21.2,40.5,19.9,38.9z"/>
	<path style="fill:#795326;" d="M13.5,29c0.4,0.1,0.8,0.5,1,0.9c0.1,0.1,0,0.2,1.1,0.1c0.2,0.1,0.5,0.2,0.7,0.4
		c0.1,0.1,0.3-0.1,0-0.3c-0.4-0.3-1-0.5-1.5-0.4c-0.1-0.1,0.1-0.7-0.7-1c-0.2,0.1-0.3,0.2-0.4,0.2L13.5,29z"/>
	<path style="fill:#D9AB54;" d="M18.8,39.3c-0.2-0.2-0.4-0.5-0.4-0.8c0-0.3,0.4-1.4,0.9-1.3s0.6,0.2,0.3,0.6
		c-0.3,0.3-0.5,0.7-0.6,1.1C18.9,39.2,18.9,39.4,18.8,39.3z"/>
	<path style="fill:#AE832F;" d="M20,30.8L19.6,33c0.1,0.3,0.6,0.1,0.7-0.2s2.6-2.4,3.5-2.4c1,0,2,0.4,2.8,1c0.6,0.4,1.5,0.2,1.9-0.5
		c0.7-0.8,1.7-1.1,2.7-0.8c0.7,0.4,1.2,0.9,1.6,1.5c0.1,0.3-0.2,0.1-0.7,0c-0.9-0.3-1.9,0-2.6,0.7c-0.8,0.8-1.2,1.9-1.1,3
		c0.2-0.3,0.4-0.6,0.6-0.9c0.3-1.1,1.1-2,2.1-2.4c0.8-0.1,1.5,0.1,2.2,0.4c-0.2-0.6-0.1-2-1.8-2.6c-0.7-0.2-1.4-0.7-3.3,0.7
		c-0.7,0.4-0.7,0.5-1.4,0.1s-2.2-2-4.2-0.6C21.4,30.9,21.1,31.2,20,30.8z"/>
	<path style="fill:#AE832F;" d="M20.8,35.1c0.1-0.9,0.4-1.8,0.9-2.5c0.7-0.8,1.9-1.1,2.9-0.8c1.2,0.3,1.3,0.7,1.6,1s0,0.2,0,0.2
		c-0.9-0.9-2.2-1.2-3.4-0.7c-0.9,0.6-1.5,1.5-1.7,2.5L20.8,35.1z"/>
	<path style="fill:#D9AB54;" d="M22.4,41.1l1,0.2c0.7,0.8,1.6,1.4,2.6,1.7c0.5,0.2,0.2,0.4,0,0.4S24.4,43.2,22.4,41.1z"/>
	<path style="fill:#AE832F;" d="M34.8,39.6c-0.5,0.6-1,1-1.7,1.4c0.7,0.1,1.5,0.8,0.8,1.2c-0.3,0.2-0.6,0.4-0.8,0.7
		c0,0,1.3,0.7,0.7,1.3c-0.1,0-0.3,0-0.8-0.6c-1,0.4-2,0.7-3.1,0.8c-0.2,0.4-0.5,0.8-0.8,1.2c0,0,3.3-1,3.5-1.1s0.7,0,0.7,0.3
		c0.1,0.6-0.1,1.2-0.3,1.7c-0.3,0.6-2.8,3.2-4.5,3.4c-1.6,0.2-3.1-0.2-4.5-1c-0.6-0.4-0.9-0.2-1.1,0c-0.5,0.3-1.2,0.4-1.7,0.1
		c-1-0.6-1.8-1.4-2.4-2.4c-0.3-0.7-0.6-1.4-0.7-2.2c-0.1-0.6,0-1.3,0-1.4S18,42.8,18,43.3s-0.3,4.1,2.7,6.1c0.9,0.8,2.2,1.1,3.4,0.9
		c1.6,0.7,3.4,0.8,5.2,0.4c2.1-0.6,3.8-2.2,4.6-4.3C34.7,44.3,35.1,41.9,34.8,39.6z"/>
	<path style="fill:#AE832F;" d="M34.8,30.9c0,0-0.4,0-0.3,0.4s1.3,5.8,1.6,7.1c0.4,2.3,0.5,4.7,0.3,7.1c-0.1,1.5-0.8,2.8-1.8,3.8
		c1.3-1.1,2.6-1.9,2.5-4.5c0-2.5-0.2-5.1-0.6-7.6C36.1,35.1,35.6,33,34.8,30.9z"/>
	<path style="fill:#D9AB54;" d="M18.9,42.3c0,1.1,0.2,2.1,0.4,3.2c0.3,1,1.7,3,2.8,2.7s1.3-1,0.9-1.6c-0.5-0.8-0.8-1.7-1-2.6
		c0-0.6,0.6-1.2,0.4-1.3c-0.3-0.4-0.6-0.8-1-1.1c-0.7-0.5-1.4-1.3-1.7-1.3C19.2,40.8,18.8,41.5,18.9,42.3z"/>
	<path style="fill:#D9AB54;" d="M18,40.5c-0.9-1.3-1.5-2.7-1.9-4.2c-0.3-1.3-0.5-2.7-0.7-4c0,0,0.2-0.3-0.4-0.5s-1-0.1-1.2-0.8
		c-0.2-0.3-0.5-0.4-0.6-0.9c0.2-0.3,0.3,0.1,0.6,0.3c0.6,0.4,1.3,0.7,2,1c0.6,0.1,0.5,0.9,0.4,1s0.7,5.3,2.1,6.9
		C18.1,40.3,18.4,40.3,18,40.5z"/>
	<path style="fill:#795326;" d="M39.1,31c0.6,0,1,0.8,1.3,0.5s0.1-0.8,0.5-0.8c0,0,0.7,0.6,0.5,0.9s-0.5,0.9-0.9,0.9
		s0.2-0.3,0.5-0.6s0-0.8-0.3-0.8s-0.2,1-0.8,0.8S38.6,31,39.1,31z"/>
	<path style="fill:#795326;" d="M40.6,33.2c0,0,1.2-1.1,1.2-1.6s-0.2-0.9,0.1-0.7s0.9,0.5,0,1.3C41.5,32.6,41.1,33,40.6,33.2z"/>
	<path style="fill:#976A2E;" d="M14.6,29.2c0,0,1.9,0.7,2.1,0.8c0.4,0.8,2.3,2.4,2.4,4.8c-0.2,0.9-0.8,2.9-0.8,3.2
		c-0.3-0.6-0.3-1.3,0-1.9c0.3-1,0.1-2.1-0.4-3.1c-0.5-1-1.1-1.9-1.7-2.8c-0.4-0.4-1-0.6-1.5-0.4C14.7,29.6,14.7,29.4,14.6,29.2z"/>
	<path style="fill:#C69943;" d="M23,34c-1.2,0.4-2,1.5-2.2,2.7c-0.2,1.3,0.3,2.5,1.4,3.3c0.8,0.3,2.2,0.8,3.3,0
		c1-0.7,1.6-1.9,1.4-3.2c-0.2-1.2-1-2.3-2.1-2.8C24.2,33.8,23.6,33.8,23,34z"/>
	<path style="fill:#C69943;" d="M29.9,34.1c-1,0.8-1.5,2.1-1.4,3.3c0.2,1.3,1.2,2.4,2.5,2.7c1.2,0.1,2.8-0.3,3.2-1.7
		s0.6-1.9-0.2-3.4C33.2,33.7,31.3,33.3,29.9,34.1z"/>
	<path style="fill:#FFFFFF;" d="M29.3,38.6c0,0,0.5,0.8,0.9,0.9s4-4,3.9-4s0-0.3-0.4-0.5S29.7,37.6,29.3,38.6z"/>
	<path style="fill:#FFFFFF;" d="M21.5,38.7c0,0,0.4,0.8,0.9,0.9s4-3.6,3.9-4.1C26,35.2,25.9,35,25.9,35s-0.7-0.5-2,0.9
		S21.5,38.1,21.5,38.7z"/>
	<path style="fill:#CCCECE;" d="M24.9,43.8c0.1,0.4,0.2,0.7,0.5,0.9c1,0.2,3.7,0.4,4.2,0c0-0.1,0.2-0.4,0.2-0.4
		C28.2,44.6,26.5,44.4,24.9,43.8z"/>
	<path style="fill:#D9AB54;" d="M18.4,16.4c-1.2,0.6-2.2,1.5-3,2.6c-0.8,1.4-1.5,1.9-1,2s1.7,0.2,2,0.5s1,0.1,1.8-0.5
		c0.3-0.1,0.7,0,0.9,0.4c0,0.1,0.1,0.2,0,0.3c0,0.4,2,0.6,2.6,0.2s2.3-4.4,2.4-4.7s-0.6-0.3-1.4,0s-1.3-0.4-1.5-0.4
		c-0.5,0.1-1,0.1-1.4,0.2C19.2,17,18.8,16.2,18.4,16.4z"/>
	<path style="fill:#AE832F;" d="M30.9,51.6v5l5.7,3.6c0,0,1.1,0.6-1.2,0.6H21.8l4.7-4.1c0,0,2.5,0.2,2.8-0.1s0-3.8,0-3.8
		S29.1,51.6,30.9,51.6z"/>
	<path style="fill:#976A2E;" d="M22.8,48.2c0.1,0.1,0.2,0.2,0.3,0.3l0.3,0.2c0.2,0.1,0.4,0.3,0.6,0.4c0.4,0.3,0.9,0.5,1.3,0.7
		c0.9,0.4,1.9,0.5,2.8,0.4c1-0.1,1.9-0.4,2.7-0.9c0.8-0.5,1.6-1.2,2.2-1.9c-0.5,0.9-1.2,1.6-2.1,2.2c-0.4,0.3-0.9,0.5-1.4,0.7
		c-0.5,0.2-1,0.3-1.5,0.3c-0.5,0.1-1,0-1.5-0.1c-0.5-0.1-1-0.3-1.4-0.5c-0.5-0.2-0.9-0.5-1.3-0.8c-0.2-0.2-0.4-0.3-0.6-0.5
		C23.1,48.6,23,48.4,22.8,48.2z"/>
	<path style="fill:#262424;" d="M33.4,35.6c-0.2,0-0.3-0.1-0.4-0.2c0-0.2,0.1-0.3,0.2-0.4l0,0l0.4-0.1c-0.5-0.6-1.3-0.9-2.1-0.9
		c-1.6,0-2.9,1.4-2.8,3c0,0,0,0,0,0c0,0.6,0.2,1.1,0.5,1.6c0.4-0.6,1-1.1,1.4-0.7c0.7,0.7-0.3,1.2-0.5,1.6l0,0
		c0.4,0.3,0.9,0.4,1.4,0.4c1.6,0,2.9-1.4,2.8-3c0,0,0,0,0,0c0-0.5-0.2-1-0.4-1.5L33.4,35.6z M31,37.8c-0.2,0-0.3-0.1-0.3-0.3
		s0.1-0.3,0.3-0.3s0.3,0.1,0.3,0.3l0,0C31.3,37.7,31.2,37.8,31,37.8z"/>
	<path style="fill:#262424;" d="M25.6,35.7c-0.2,0-0.3-0.1-0.4-0.2c0-0.2,0.1-0.3,0.2-0.4l0.4-0.1c-0.5-0.6-1.2-0.9-2-0.9
		c-1.6,0-2.9,1.4-2.8,3c0,0,0,0,0,0c0,0.6,0.1,1.1,0.4,1.6c0.4-0.6,1-1.1,1.4-0.7c0.7,0.7-0.3,1.2-0.5,1.6v0.1
		c0.4,0.3,1,0.5,1.5,0.5c1.6,0,2.9-1.4,2.8-3c0,0,0,0,0,0c0-0.6-0.2-1.1-0.4-1.6L25.6,35.7z M23.3,37.9c-0.2,0-0.3-0.1-0.3-0.3
		s0.1-0.3,0.3-0.3s0.3,0.1,0.3,0.3l0,0C23.6,37.8,23.5,37.9,23.3,37.9C23.3,37.9,23.3,37.9,23.3,37.9L23.3,37.9z"/>
	<path style="fill:#D6B67A;" d="M25.4,56.7L20,60.3l11.4,0.1c0,0,0.3-0.5,0.1-0.7s-7.8-0.7-7.8-0.7l2.6-2.4l0.1-0.7l-0.9,0.1
		L25.4,56.7z"/>
	<path style="fill:#AE832F;" d="M37.5,29.7c0,0,3.8-3.3,0.1-9.8s-6.8-6.6-14.7-6c-1.9,0.3,4.9,0,6.7,0.8s7.8,6.4,7.5,10
		s-1,4.3-1,4.3C36.5,29.2,36.9,29.5,37.5,29.7z"/>
	<path style="fill:#D9AB54;" d="M15.7,23.9c1.9-0.2,4.4,0.7,5.1,0c0.6-0.8,1.1-1.7,1.5-2.6c0,0-6.6-1.8-7.9-0.7S14.3,24,15.7,23.9z"
		/>
	<path style="fill:#AE832F;" d="M11.8,20.1c0.1,0.2,0.3,0.3,0.5,0.3c0.2,0,0.4,0.1,0.6,0.1c0.2,0,0.5,0.1,0.6,0.3
		c0.2,0.2,0.3,0.3,0.4,0.5c0.1,0.2,0.2,0.3,0.4,0.4c0.1,0.1,0.3,0.1,0.5,0l0.3-0.1c0.1-0.1,0.3-0.1,0.4-0.1h0.1h0.1l0.1,0l0.1,0.1
		c0.1,0.1,0.2,0.2,0.2,0.3c0.1,0.2,0.2,0.3,0.3,0.5c0,0,0.1,0.1,0.2,0c0.1,0,0.1,0,0.2-0.1c0.2-0.1,0.3-0.3,0.4-0.4
		c0.1-0.2,0.3-0.3,0.5-0.5c0.1-0.1,0.2-0.2,0.4-0.2c0.1,0,0.2,0,0.2,0.1c0.1,0,0.1,0.1,0.1,0.1c0.1,0.1,0.1,0.2,0.1,0.4
		c0,0.1,0,0.2,0,0.3c0,0,0,0.1,0,0.1c0,0,0,0,0,0.1v0.1c0,0.1,0,0.1,0,0.2c0,0,0,0.1,0.1,0.1c0.1,0,0.2,0.1,0.3,0.1h0.3L19,23
		c-0.1,0-0.2,0-0.3,0c-0.1,0-0.1-0.1-0.1-0.1c0,0,0-0.1-0.1-0.1v-0.1c0,0,0-0.1,0-0.1c0-0.1,0-0.1,0-0.2c0-0.4-0.2-0.9-0.4-0.5
		c-0.1,0.1-0.3,0.3-0.4,0.5c-0.1,0.2-0.3,0.4-0.5,0.5c-0.1,0.1-0.3,0.1-0.4,0.2c-0.2,0-0.3,0-0.4-0.1c-0.1-0.1-0.2-0.2-0.3-0.3
		l-0.2-0.3c0-0.1-0.1-0.1-0.1-0.2l0,0l0,0h-0.1c-0.1,0-0.2,0-0.2,0l-0.3,0.1c-0.1,0.1-0.3,0.1-0.4,0.1c-0.1,0-0.3,0-0.4-0.1
		c-0.2-0.1-0.4-0.3-0.5-0.6c-0.1-0.2-0.2-0.3-0.3-0.5c-0.1-0.1-0.3-0.2-0.5-0.3c-0.2-0.1-0.4-0.1-0.6-0.2
		C12.1,20.5,11.9,20.3,11.8,20.1z"/>
</g>
</svg>
