<?xml version="1.0" encoding="utf-8"?>
<!-- Generator: Adobe Illustrator 22.0.0, SVG Export Plug-In . SVG Version: 6.00 Build 0)  -->
<svg version="1.1" id="Слой_1" xmlns="http://www.w3.org/2000/svg" xmlns:xlink="http://www.w3.org/1999/xlink" x="0px" y="0px"
	 viewBox="0 0 55.8 62.9" style="enable-background:new 0 0 55.8 62.9;" xml:space="preserve">
<title>04_01</title>
<path style="fill:#C0D99C;" d="M27.5,61.3h-5.2c-1.7,0-3.4,0-5.2-0.1h-0.5c-0.3,0-0.5-0.2-0.5-0.4c0,0,0,0,0-0.1
	c0-0.1,0-0.2,0.1-0.3l0.3-0.4c0.2-0.3,0.5-0.6,0.8-0.9c0.3-0.2,0.6-0.4,0.9-0.6c0.6-0.4,1.2-0.7,1.8-1c0.6-0.3,1.3-0.5,1.9-0.7
	l1-0.2l0.4-0.1c0-1.2,0-5.6-0.1-6.8l-0.1-2.1C22,47.5,21,47.2,20,46.9c-1.3-0.4-4.3,0.1-5.3-0.6c-0.1,0.2-0.3,0.5-0.4,0.7
	c-0.4,0.5-0.9,0.8-1.5,1.1c-0.6,0.3-1.3,0.5-1.9,0.5h-0.1c-0.2,0-0.4,0-0.5-0.1c-0.3-0.1-0.5-0.2-0.8-0.4c-0.1-0.2-0.2-0.3-0.3-0.5
	L9,47.5c-0.2-0.1-0.4-0.3-0.4-0.5s-0.1-0.2-0.1-0.3l-0.2-0.1c-0.2-0.1-0.4-0.3-0.5-0.5v-0.6l-0.2-0.1c-0.3-0.1-0.7-0.2-1-0.4
	c-0.3-0.2-0.6-0.4-0.9-0.6c-0.3-0.2-0.5-0.5-0.6-0.8c-0.4-0.7-0.6-1.4-0.4-2.2c0.1-0.6,0.2-1.3,0.4-1.9c0.2-0.6,0.5-1.1,0.8-1.7
	c0.4-0.8,0.9-1.5,1.5-2.2c-0.1-0.4-0.3-0.8-0.4-1.2c-0.4-1.1,1.2-3.5,1-4.6c-0.4-2.4-0.3-4.9,0.3-7.2c0.1-0.3,0.2-0.5,0.3-0.8
	s0.3-0.6,0.4-0.9c0.1-0.3,0.3-0.6,0.5-0.8c0.1-0.3,0.3-0.5,0.5-0.7c0.7-1,1.6-1.9,2.5-2.8c1-0.8,2.1-1.5,3.2-2.1
	c0.6-0.3,1.2-0.5,1.8-0.7c0.7-0.2,1.3-0.3,2-0.4H21c-0.1-0.2-0.3-0.4-0.4-0.6c-0.4-0.7-0.7-1.5-0.9-2.3c-0.1-0.4-0.2-2.5-0.4-2.9
	V6.4c0.1-0.9,0.3-1.7,0.6-2.5c0.4-0.7,0.9-1.4,1.5-2c0.3-0.3,0.6-0.6,1-0.8C22.7,1,22.8,0.9,23,0.8l0.3-0.2h0.2
	c0.1,0,0.2-0.1,0.3-0.1H24c0.2,0,0.3,0.1,0.4,0.2c0.6,0.7,1.7,1.7,2.8,2.8l0.2,0.3c0.4-0.2,0.8-0.3,1.2-0.3h0.1
	c0.8,0,1.8,1.9,2.3,2.4c0.4,0.4,0.6,1,0.5,1.6c-0.1,1.2,0,4.7,0,6.7c0.7,0,1.2-0.1,1.7-0.1h1c1.3,0.1,2.6,0.3,3.8,0.8
	c1.2,0.5,2.3,1.2,3.2,2c0.9,0.8,1.8,1.6,2.5,2.6c0.7,0.9,1.4,2,1.8,3.1c0.5,1.1,0.9,2.2,1,3.4c0.1,0.6,0.2,1.3,0.2,1.9
	c0,0.6-0.1,1.2-0.2,1.8c-0.2,1.1-0.5,2.3-0.9,3.4c0,0.2,1.4,2.3,1.4,2.4c0.5,0.3,0.9,0.6,1.3,1c1,0.9,1.7,1.9,2.3,3.1
	c0.5,1.3,0.5,2.7-0.1,3.9c0,0.2-0.1,0.3-0.2,0.4c-0.1,0.2-0.2,0.3-0.3,0.5c-0.3,0.3-0.5,0.6-0.9,0.8c-0.3,0.3-0.8,0.5-1.2,0.6
	c0,0.3-0.2,0.5-0.4,0.7c-0.2,0.1-0.3,0.3-0.5,0.3c-0.1,0.2-0.3,0.4-0.5,0.5v0.2c0,0.4-0.4,0.7-0.8,0.8c-0.1,0-0.3,0.1-0.4,0.1h-0.2
	c-0.7,0-1.4-0.2-2-0.4c-1.3-1-2.4-2.1-3.2-3.5v-0.1c-0.3,0.3-0.5,0.6-0.9,0.8c-1,0.9-2.2,1.6-3.4,2c-0.6,0.2-1.3,0.3-1.9,0.4
	c-0.5,0.1-1,0.1-1.5,0.2l0,0c0,0.6,0,1.2-0.1,1.8l-0.2,6.9h0.5l0.3,0.1l0.7,0.1c0.8,0.2,1.4,0.4,2,0.6c0.7,0.3,1.3,0.6,1.9,1
	c0.6,0.4,1.2,1,1.6,1.6l0.3,0.5c0.1,0.2,0,0.6-0.2,0.7c0,0,0,0,0,0c-0.1,0-0.2,0-0.2,0.1h-0.7c-1.7,0-3.4,0.1-5.2,0.1
	C32.9,61.3,27.5,61.3,27.5,61.3z"/>
<path style="fill:#FFFFFF;" d="M24,1c0.9,0.9,1.8,1.8,2.7,2.8l0.5,0.6C27.6,4.1,28.1,4,28.5,4h0.1c0.6-0.1,1.4,1.8,2,2.3
	C30.9,6.6,31,7.1,31,7.5c-0.1,1.4,0,5.5,0,7.3c0.8-0.1,1.5-0.1,2.3-0.1h0.9c1.2,0.1,2.4,0.3,3.5,0.8c1.1,0.5,2.2,1.1,3.1,1.9
	c0.9,0.8,1.7,1.6,2.5,2.5c0.7,0.9,1.3,1.9,1.8,3c0.5,1,0.9,2.2,1.1,3.3c0.1,0.6,0.1,1.1,0,1.7c0,0.6-0.1,1.1-0.2,1.7
	c-0.2,1.1-0.5,2.2-0.9,3.3c-0.1,0.3-0.2,0.5-0.2,0.8c1.1,1,2.1,2.1,3,3.2c1,0.8,1.7,1.8,2.2,2.9c0.5,1.1,0.4,2.4-0.2,3.5
	c-0.1,0.1-0.1,0.3-0.2,0.4s-0.2,0.3-0.3,0.4c-0.2,0.3-0.5,0.5-0.8,0.7c-0.4,0.3-0.9,0.5-1.4,0.7v0.1c0,0.2-0.1,0.4-0.2,0.5
	c-0.2,0.1-0.3,0.2-0.5,0.2h-0.1v0.1c-0.1,0.2-0.2,0.3-0.4,0.3h-0.4l0.2,0.2c0.1,0.2,0.1,0.3,0.1,0.5c0,0.1-0.1,0.2-0.1,0.3
	c-0.1,0.1-0.1,0.1-0.2,0.1h-0.5c-0.6,0-1.3-0.2-1.9-0.4c-0.7-0.2-2.7-2.7-3-3.2c-0.1-0.3-0.2-0.5-0.3-0.8c-0.5,0.6-1,1.1-1.5,1.6
	c-1,0.8-2.1,1.4-3.2,1.8c-0.6,0.2-1.2,0.3-1.8,0.3c-0.5,0.1-1.1,0.1-1.6,0.2l-0.3,0.2c0,0.7,0,1.4-0.1,2.1l-0.2,7.3l1,0.1
	c0.3,0.1,0.6,0.1,1,0.2c0.7,0.1,1.3,0.3,1.9,0.6c0.6,0.3,1.3,0.6,1.8,1c0.6,0.4,1,0.9,1.5,1.5l0.3,0.5h-0.6c-1.7,0-3.4,0.1-5.2,0.1
	H22.3c-1.7,0-3.4,0-5.2-0.1h-0.5l0.3-0.4c0.2-0.3,0.5-0.6,0.8-0.8c0.2-0.2,0.5-0.4,0.8-0.6c0.5-0.4,1.1-0.7,1.7-0.9
	c0.6-0.2,1.3-0.4,1.9-0.6l1-0.2l0.9-0.2c0-1.4,0-5.9-0.1-7.3l-0.1-2.6c-1.2-0.1-2.3-0.4-3.4-0.8c-1.4-0.5-4.6-0.1-5.7-1
	c-0.1,0.5-0.3,0.9-0.6,1.3c-0.4,0.4-0.8,0.8-1.3,1.1c-0.5,0.3-1.1,0.5-1.7,0.5h-0.5c-0.2,0-0.4-0.1-0.5-0.3
	c-0.1-0.1-0.2-0.3-0.2-0.5v-0.1l0,0c-0.1,0-0.2,0-0.3-0.1c-0.1-0.1-0.2-0.1-0.2-0.2C9,47,9,46.7,9.1,46.6H9c-0.2,0-0.4,0-0.5-0.1
	c-0.1-0.1-0.2-0.1-0.2-0.2V46c0-0.1,0-0.3,0.1-0.4H8.1c-0.1,0-0.3-0.1-0.4-0.1c-0.3-0.2-0.5-0.3-0.9-0.5c-0.3-0.2-0.5-0.4-0.8-0.6
	c-0.2-0.2-0.4-0.5-0.7-0.7c-0.3-0.5-0.4-1.2-0.3-1.8c0.1-0.6,0.2-1.2,0.4-1.8C5.7,39.5,6,39,6.3,38.5c0.4-0.8,1.1-1.6,1.6-2.4
	c-0.2-0.4-0.4-0.9-0.5-1.4c-0.4-1.1,1.2-3.4,1-4.6c-0.4-2.4-0.3-4.9,0.3-7.2c0.1-0.3,0.2-0.5,0.3-0.8c0.1-0.3,0.2-0.6,0.4-0.8
	c0.1-0.3,0.3-0.5,0.4-0.8c0.1-0.3,0.3-0.5,0.5-0.7c0.7-1,1.5-1.9,2.4-2.7c0.9-0.8,2-1.5,3.1-2c0.5-0.3,1.1-0.5,1.7-0.6
	c0.6-0.2,1.2-0.3,1.8-0.3h1c0.5,0,1.1,0,1.6,0.1c-0.4-0.4-0.8-0.9-1.1-1.5c-0.4-0.7-0.7-1.4-0.9-2.2c-0.1-0.9-0.2-1.9-0.2-2.8V6.6
	c0.1-0.8,0.3-1.6,0.6-2.3c0.4-0.7,0.8-1.3,1.4-1.9c0.3-0.3,0.6-0.5,1-0.7c0.2-0.1,0.3-0.2,0.5-0.3l0.2-0.1l0.1-0.1C23.9,1,24,1,24,1
	 M27.1,14.9L27.1,14.9 M44.6,40.5L44.6,40.5 M8.4,45.3L8.4,45.3 M24,0h-0.2c-0.1,0-0.2,0.1-0.3,0.1l0,0l-0.2,0.1l-0.3,0.2
	c-0.2,0.1-0.4,0.2-0.5,0.4C22,1,21.6,1.3,21.3,1.6c-0.7,0.6-1.2,1.4-1.6,2.2c-0.4,0.8-0.7,1.7-0.6,2.6v1.3c0.1,1,0.2,2,0.4,3
	c0.2,0.8,0.5,1.6,0.9,2.4h-0.9c-0.7,0.1-1.3,0.2-2,0.4c-0.7,0.2-1.3,0.4-1.9,0.7c-1.3,0.5-2.4,1.3-3.5,2.2c-1,0.9-1.8,1.8-2.6,2.9
	c-0.2,0.3-0.4,0.5-0.5,0.8c-0.2,0.3-0.3,0.5-0.5,0.8c-0.2,0.3-0.3,0.6-0.4,0.9l0,0c-0.1,0.2-0.3,0.5-0.3,0.7
	c-0.6,2.4-0.8,4.9-0.3,7.4c0.2,1.2-1.3,3.6-0.9,4.7c0.1,0.3,0.2,0.6,0.3,1c-0.5,0.7-1,1.4-1.4,2.1c-0.3,0.6-0.6,1.2-0.9,1.8
	c-0.2,0.6-0.4,1.3-0.5,2C3.9,42.4,4,43.2,4.5,44c0.2,0.3,0.5,0.6,0.8,0.9c0.3,0.3,0.6,0.5,1,0.7c0.3,0.2,0.7,0.3,1,0.4
	c0,0.1,0,0.2,0.1,0.3c0.1,0.4,0.4,0.6,0.8,0.8H8v0.1c0.1,0.3,0.3,0.6,0.6,0.8c0.1,0.2,0.2,0.3,0.3,0.5c0.3,0.3,0.7,0.5,1.1,0.6
	c0.2,0,0.4,0.1,0.6,0.1h0.2c0.8,0,1.5-0.2,2.2-0.6c1.2-0.7,2.4-1.6,3.5-2.5l0.2-0.3c1,0.7,2,1.2,3.2,1.6c0.9,0.3,1.9,0.5,2.8,0.7
	v1.7c0,1.2,0.1,5.4,0.1,6.4h-0.2l-1,0.2c-0.7,0.2-1.3,0.4-1.9,0.7c-0.7,0.3-1.3,0.6-1.9,1c-0.4,0.2-0.7,0.4-1,0.7
	c-0.3,0.3-0.6,0.6-0.9,0.9L15.7,60c-0.3,0.4-0.2,1,0.2,1.3c0,0,0.1,0.1,0.1,0.1c0.2,0.1,0.3,0.2,0.5,0.2h0.5c1.7,0,3.4,0.1,5.2,0.1
	h10.3c1.7,0,3.4,0,5.2-0.1h0.7c0.6,0,1-0.4,1.1-0.9c0,0,0-0.1,0-0.1c0-0.2-0.1-0.4-0.2-0.5L39,59.6c-0.4-0.7-1-1.3-1.7-1.7
	c-0.6-0.4-1.3-0.8-2-1.1c-0.7-0.3-1.4-0.5-2.2-0.7L32.5,56H32l0.1-6.4v-1.4l1.1-0.1c0.7-0.1,1.3-0.2,1.9-0.4
	c1.4-0.4,2.6-1.1,3.7-2.1l0.4-0.4c0.4,0.5,2.6,3,3.2,3.2c0.7,0.3,1.4,0.4,2.2,0.4h0.3c0.2,0,0.4,0,0.5-0.1h0.2
	c0.3-0.1,0.5-0.2,0.8-0.4c0.2-0.2,0.4-0.5,0.4-0.8l0,0c0.2-0.1,0.3-0.2,0.4-0.4c0.2-0.1,0.5-0.2,0.7-0.4c0.2-0.2,0.4-0.4,0.4-0.7
	c0.4-0.2,0.7-0.4,1.1-0.6c0.4-0.2,0.7-0.5,1-0.9c0.1-0.2,0.3-0.4,0.4-0.6s0.1-0.3,0.2-0.5c0.7-1.4,0.7-3,0.1-4.4
	c-0.5-1.2-1.3-2.3-2.4-3.2c-0.3-0.3-0.7-0.5-1-0.8v-0.1c0.3-1.1-0.9-4.3-0.7-5.5l0.3-1.8c0-0.7,0-1.3-0.1-2
	c-0.2-1.2-0.6-2.4-1.1-3.5c-0.5-1.1-1.2-2.2-1.9-3.2c-0.8-1-1.6-1.9-2.6-2.7c-1-0.8-2.1-1.5-3.3-2c-1.3-0.5-2.6-0.8-4-0.8h-2.3V7.3
	c0.1-0.7-0.2-1.5-0.8-2c-0.6-0.6-1.8-2.6-2.7-2.6h-0.1c-0.3,0-0.7,0.1-1,0.2c-1.1-1.1-2-2.2-2.8-2.8C24.7,0.1,24.3,0,24,0z"/>
<path style="fill:#A4C971;" d="M27.4,5.2c0,0,0.1-0.8,1.3-0.9s2.2,2.1,2.1,3.1c-0.1,1.8,0,8.1,0,8.1h-3L27.4,5.2z"/>
<path style="fill:#93C156;" d="M31.1,15.9h-3.9L26.9,5.2l0,0C27.2,4.5,27.9,4,28.6,4c0.8-0.1,1.5,1.8,2.1,2.3
	c0.3,0.3,0.5,0.8,0.4,1.2c-0.1,1.7,0,8,0,8.1V15.9z M28,15.1h2.1c0-1.4-0.1-6.2,0-7.7c0-0.2,0-0.5-0.2-0.6c-0.3-0.3-1-2.1-1.4-2
	c-0.8,0-0.9,0.4-0.9,0.5L28,15.1z"/>
<path style="fill:#A4C971;" d="M30.8,56.9V45.4H24V57c-5.4,0.9-6.9,3.3-6.9,3.3h20.7C37.8,60.3,36.3,57.6,30.8,56.9z"/>
<path style="fill:#93C156;" d="M30.8,56.9c-0.1-1.3-0.1-5.8-0.2-7.2s-0.1-2.8-0.1-4.3l0.3,0.3h-6.9l0.3-0.3l-0.1,4.3
	c0,1.4-0.1,5.9-0.1,7.4v0.1h-0.1l-1,0.2l-1,0.2c-0.6,0.2-1.2,0.4-1.8,0.7c-0.6,0.3-1.1,0.6-1.6,1c-0.2,0.2-0.5,0.4-0.8,0.6
	c-0.2,0.2-0.4,0.4-0.5,0.7L17,60.2c1.7-0.1,3.4-0.1,5.2-0.1h10.4c1.7,0,3.4,0,5.2,0.1l-0.3,0.5c-0.1-0.3-0.3-0.5-0.5-0.7l-0.7-0.6
	c-0.5-0.4-1.1-0.7-1.6-1c-0.3-0.1-0.6-0.2-0.9-0.4l-1-0.3l-1-0.3L30.8,56.9z M30.8,56.9l1,0.1c0.3,0.1,0.6,0.1,1,0.2
	c0.7,0.1,1.3,0.3,1.9,0.6c0.6,0.3,1.3,0.6,1.8,1c0.5,0.4,1,0.9,1.4,1.5l0.3,0.5h-0.6c-1.7,0-3.4,0.1-5.2,0.1H22.2
	c-1.7,0-3.4,0-5.2-0.1h-0.5l0.3-0.4c0.2-0.3,0.5-0.6,0.8-0.8c0.2-0.2,0.5-0.4,0.8-0.6c0.5-0.3,1.2-0.6,1.7-0.9
	c0.6-0.2,1.3-0.4,2-0.6l1-0.2l1-0.2l-0.1,0.1c0-1.4,0-5.9-0.1-7.4v-4.7h7.5v0.3c0,1.4-0.1,2.7-0.1,4.1L30.8,56.9z"/>
<path style="fill:#A4C971;" d="M40.9,17.3c3.1,2.5,5,6.1,5.3,10.1c0,9.6-0.9,17.1-11.9,19.2c-4.7,0.9-11.1,1.1-15.3-1
	c-3.4-1.8-8.1-4.3-10.3-9.4C6.8,32.1,7.6,25,10.2,21.1s5.1-5.3,7.2-6.1c3.7-1.3,6.7-0.2,9.5,0.1C30.3,15.6,35.7,12.9,40.9,17.3z"/>
<path style="fill:#93C156;" d="M40.9,17.3c0.9,0.8,1.7,1.6,2.5,2.5c0.7,0.9,1.3,1.9,1.8,3c0.5,1,0.9,2.2,1.1,3.3
	c0.1,0.6,0.1,1.1,0,1.7c0,0.6-0.1,1.1-0.2,1.7c-0.2,1.1-0.5,2.2-0.9,3.3S46,37,45.5,38c-0.9,2.1-3.5,2.2-5,4.1
	c-0.7,1-1.5,1.9-2.4,2.7c-1,0.8-2,1.4-3.2,1.8c-0.6,0.2-1.2,0.3-1.8,0.3c-0.6,0.1-1.2,0.2-1.8,0.2c-1.2,0.1-2.5,0.2-3.7,0.2
	s-2.5-0.1-3.7-0.2c-1.2-0.1-2.4-0.4-3.5-0.8c-2.4-0.8-6.1-1.1-7.6-2.9c-1.5-1.8-2.8-3.8-3.8-5.9c-0.5-1-1-2.1-1.4-3.2
	c-0.4-1.1,1.2-3.4,1-4.6c-0.4-2.3-0.3-4.7,0.3-7c0.1-0.3,0.2-0.5,0.3-0.8c0.1-0.3,0.2-0.6,0.4-0.8c0.1-0.3,0.3-0.5,0.4-0.8
	c0.1-0.3,0.3-0.5,0.5-0.7c0.7-1,1.5-1.9,2.4-2.7c0.9-0.8,2-1.5,3.1-2c0.5-0.3,1.1-0.5,1.7-0.6c0.6-0.2,1.2-0.3,1.8-0.3
	c1.3-0.1,2.5,0,3.8,0.2c1.2,0.2,2.4,0.5,3.5,0.6c1.2,0.1,2.5,0,3.7-0.2c1.2-0.1,2.4-0.2,3.7-0.1c1.2,0.1,2.4,0.3,3.5,0.8
	C38.9,15.9,40,16.5,40.9,17.3z M40.9,17.3c-0.9-0.8-1.9-1.4-3-1.8c-1.1-0.4-2.3-0.6-3.5-0.6c-1.2,0-2.5,0.1-3.7,0.3
	s-2.4,0.3-3.7,0.3c-1.3-0.1-2.5-0.3-3.7-0.5c-1.2-0.2-2.4-0.2-3.5-0.1c-0.6,0.1-1.2,0.2-1.7,0.4l-1.6,0.6c-1.1,0.5-2,1.1-2.9,1.9
	c-0.9,0.8-1.6,1.6-2.3,2.6c-0.6,0.9-1.2,1.9-1.6,2.9c-0.7,2.1-0.8,4.4-0.4,6.6c0.4,2.2-0.8,5.6,0.3,7.6c1,2.1,2.1,4.1,3.6,5.9
	c1.4,1.8,5.2,2.1,7.4,2.9c2.3,0.7,4.8,1.1,7.2,1c1.2,0,2.4-0.1,3.5-0.3l1.8-0.3c0.6-0.1,1.2-0.2,1.7-0.4c1.1-0.4,2.1-1,2.9-1.8
	c0.9-0.8,1.6-1.6,2.3-2.6c1.3-1.9,4-1.9,4.8-4s0.2-6.2,0.8-8.4c0.1-0.5,0.2-1.1,0.3-1.6c0.1-0.6,0.1-1.1,0-1.7
	c-0.1-1.2-0.5-2.3-1-3.3c-0.4-1.1-1-2.1-1.7-3C42.5,19,41.7,18.1,40.9,17.3L40.9,17.3z"/>
<path style="fill:#A4C971;" d="M24,1c0,0,3,3.5,4,4.7s4.3,8.8-0.8,9c-0.4,0.4-0.9,0.7-1.5,0.7c-2.5,0-5.1-4.2-5.3-8.3
	C20.4,4.6,21.8,2.2,24,1z"/>
<path style="fill:#689A4C;" d="M24,1c0.9,0.9,1.8,1.8,2.7,2.8c0.4,0.5,1,1,1.4,1.5s0.9,2.8,1.2,3.4c0.3,0.6,0.6,1.2,0.7,1.9
	c0.2,0.6,0.2,1.3,0.1,2c0,0.7-0.4,1.3-1,1.7c-0.6,0.4-1.3,0.6-2,0.6l0.1-0.1c-0.3,0.3-0.7,0.6-1.1,0.7c-0.2,0.1-0.4,0.1-0.6,0.1
	h-0.6c-0.8-0.1-1.6-0.5-2.3-1c-0.7-0.5-1.2-1.2-1.6-1.9c-0.4-0.7-0.7-1.4-0.9-2.2c-0.1-0.9-0.2-1.9-0.2-2.8V6.5
	c0.1-0.8,0.3-1.6,0.6-2.4c0.4-0.7,0.9-1.3,1.5-1.9c0.3-0.3,0.6-0.5,1-0.7c0.2-0.1,0.3-0.2,0.5-0.3l0.2-0.1l0-0.1H24z M24,1.1
	c-1.3,0.8-2.2,2-2.8,3.4c-0.2,0.7-0.4,1.4-0.4,2.1c0,0.7,0.2,3.1,0.4,3.8c0.2,1.4,0.9,2.7,2,3.7c0.6,0.5,1.2,0.8,1.9,1
	c0.2,0,0.3,0.1,0.5,0.1h0.5c0.4-0.1,0.7-0.3,1-0.5l0.1-0.1h0.1c0.7,0,1.4-0.1,1.9-0.5c0.2-0.2,0.5-0.4,0.6-0.7
	c0.1-0.3,0.2-0.6,0.2-0.9C30.1,11.3,29.7,10,29,9c-0.3-0.5-0.8-2.8-1.1-3.3s-0.8-1-1.2-1.5C25.7,3.3,24.8,2.2,24,1.1z"/>
<path style="fill:#689A4C;" d="M27.2,14.7c-0.5-0.1-0.9-0.3-1.3-0.6c-0.4-0.3-0.8-0.6-1.1-1l-0.3-0.6l-0.3-0.6
	c-0.2-0.4-0.5-0.8-0.8-1.2l-0.2-0.3l-0.1-0.3c-0.2-0.8-0.3-1.6-0.4-2.4c0-0.2-0.1-0.5-0.1-0.7V6.3c0-0.5,0.1-0.9,0.2-1.4
	c0.1-0.4,0.3-0.9,0.6-1.2h0.1v3.8c0,0.2,0.1,2.2,0.1,2.4v0.3l0.1,0.3c0.1,0.4,0.3,0.8,0.5,1.2c0.1,0.2,0.3,0.3,0.4,0.5
	s0.3,0.3,0.5,0.4c0.6,0.6,1.3,1.2,1.9,1.9L27.2,14.7z"/>
<path style="fill:#93C156;" d="M29.4,18.1c1.3-1.7,6.4-2.9,10.5-0.1s5.7,8.2,3.5,14.8c-4.8,14.4,1.5,7.7-8.1,11.8
	c-3.3,1.5-7.1,1.8-10.6,0.8c3-1.6,5.8-3.6,8.3-6c3-3.2,5.7-13.9,3.1-15.7S27,21.3,29.4,18.1z"/>
<path style="fill:#689A4C;" d="M19.3,36.6c0.3,1,0.8,1.8,1.6,2.4c0.8,0.6,1.7,1,2.7,1.2c1,0.3,2.1,0.5,3.1,0.6
	c1.1,0,2.1-0.1,3.1-0.4c1-0.3,1.9-0.8,2.8-1.3c0.8-0.5,1.6-1.2,2.2-2c0.6-0.8,1.2-1.6,1.6-2.5c0.1-0.2,0.2-0.5,0.3-0.7
	c0-0.1,0.1-0.1,0.1-0.2s0.1-0.2,0.3-0.2h0.5c0.3,0.1,0.5,0.2,0.8,0.4c0.1,0.1,0.2,0.2,0.2,0.3s0,0.3-0.1,0.4h0.2
	c0.1-0.2-0.1-0.4-0.3-0.5c-0.2-0.1-0.4-0.2-0.7-0.2h-0.2v0.2c0,0.2-0.1,0.5-0.2,0.7c-0.4,1-0.9,2-1.5,2.8c-1.4,1.7-3.4,2.8-5.6,3.2
	C29.2,41,28.1,41.1,27,41h-1.7c-0.5,0-1.1-0.1-1.6-0.2c-1.1-0.2-2.1-0.7-3-1.4C19.8,38.8,19.2,37.7,19.3,36.6L19.3,36.6z"/>
<path style="fill:#689A4C;" d="M37.8,31.2c0.5-0.3,1.1-0.4,1.7-0.3c0.3,0.1,0.5,0.2,0.9,0.3c0.3,0.1,0.6,0.2,0.9,0.4
	c0.5,0.3,0.9,0.8,1,1.4c0.1,0.6,0.1,1.2-0.1,1.7l0,0c0-0.5-0.1-1.1-0.2-1.6c-0.1-0.2-0.1-0.5-0.2-0.7s-0.3-0.4-0.4-0.6
	c-0.2-0.2-0.5-0.3-0.8-0.4c-0.3-0.1-0.6-0.1-0.9-0.1C39,31.2,38.4,31.2,37.8,31.2L37.8,31.2z"/>
<path style="fill:#B8D490;" d="M24.3,17c-1.7-2.8-7-1.3-10.6,2C8.4,23.8,8,34.8,14.1,40.8c1.1,1.1,0.2-6,0.4-8.8
	C14.9,24.6,26.8,21.2,24.3,17z"/>
<path style="fill:#B4D28A;" d="M20.5,36.4c-0.4,1,0.3,2.6,3.2,3.4c3.7,1,5.7,0.3,7.7-1.9s-0.9,0.2-4.1-0.3
	C25.5,37.4,21.7,34.1,20.5,36.4z"/>
<path style="fill:#FFFFFF;" d="M21.5,34.8c-1.6,0.2-7.1,0.4-8.3-8.6s7-8.3,7.7-7.9s3.3,1.2,3.3,10C24.3,33.3,23.4,34.6,21.5,34.8z"
	/>
<path style="fill:#689A4C;" d="M21.5,34.8c-1,0.1-2,0-3-0.2c-1-0.3-1.9-0.8-2.7-1.5l-0.5-0.5L15,32.3L14.8,32
	c-0.1-0.2-0.3-0.4-0.4-0.6L14,30.8c-0.4-0.9-0.8-1.8-1-2.7c-0.1-0.2-0.1-0.5-0.1-0.7l-0.1-0.7c-0.1-0.5-0.1-0.9-0.1-1.4
	c0-0.9,0.1-1.9,0.3-2.8c0.2-0.9,0.7-1.8,1.4-2.5c0.7-0.7,1.5-1.3,2.5-1.6c1-0.3,2.1-0.5,3.2-0.4c0.3,0,0.6,0,0.9,0.1
	c0.1,0,0.1,0,0.2,0.1l0.2,0.1l0.3,0.2c0.4,0.3,0.8,0.6,1.2,1c0.6,0.8,1,1.7,1.2,2.7c0.1,0.5,0.2,0.9,0.3,1.4l0.1,0.7l0.1,0.7
	c0,0.5,0.1,0.9,0.1,1.4v1.4c0,0.9-0.1,1.9-0.2,2.8c-0.1,1-0.3,1.9-0.6,2.8c-0.2,0.4-0.5,0.8-0.8,1.2C22.5,34.6,22,34.8,21.5,34.8z
	 M21.5,34.8c0.5,0,0.9-0.2,1.3-0.5c0.4-0.3,0.6-0.7,0.8-1.2c0.3-0.9,0.4-1.8,0.3-2.7c0-0.9,0-1.9-0.1-2.8c0-0.5,0-0.9-0.1-1.4
	c0-0.4,0-0.9,0.1-1.3c-0.1-0.9-0.2-1.8-0.4-2.7c-0.2-0.9-0.6-1.7-1.1-2.5c-0.3-0.4-0.6-0.7-1-0.9l-0.3-0.2l-0.1-0.1h-0.1
	c-0.2-0.1-0.4-0.1-0.6-0.1c-1-0.1-1.9,0-2.9,0.2c-0.9,0.2-1.8,0.7-2.4,1.4c-0.7,0.7-1.1,1.6-1.2,2.5c-0.2,1.8-0.1,3.6,0.4,5.3
	c0.4,1.8,1.2,3.5,2.4,5c0.6,0.7,1.5,1.3,2.4,1.6C19.6,34.8,20.5,34.9,21.5,34.8L21.5,34.8z"/>
<path style="fill:#FFFFFF;" d="M28.7,23.4c0,0,0.8-8.6,8.6-4.3c7,3.7,0.7,13.4-2.9,15.6C31.6,36.3,28,35.3,28.7,23.4z"/>
<path style="fill:#689A4C;" d="M28.7,23.4c0.1-1,0.3-1.9,0.6-2.8c0.4-1,1-1.8,1.8-2.4c0.9-0.6,2-0.8,3.1-0.6c1,0.2,2,0.5,2.9,1
	c0.9,0.5,1.7,1.2,2.4,2c0.6,0.8,0.9,1.8,1,2.8c0.1,1.9-0.3,3.9-1.2,5.6c-0.8,1.8-1.9,3.4-3.3,4.8c-0.7,0.8-1.7,1.4-2.7,1.7
	c-0.3,0.1-0.5,0.1-0.9,0.2c-0.3,0-0.6,0-0.9-0.1c-0.5-0.2-1-0.5-1.4-0.9c-0.3-0.4-0.6-0.8-0.9-1.3c-0.2-0.5-0.3-0.9-0.4-1.4
	c-0.2-1-0.3-1.9-0.3-2.9C28.4,27.2,28.5,25.3,28.7,23.4z M28.8,23.4c-0.1,1.9,0,3.7,0.2,5.6c0.1,0.9,0.3,1.8,0.5,2.7
	c0.2,0.9,0.6,1.7,1.2,2.4c0.6,0.6,1.5,0.9,2.3,0.6c0.9-0.3,1.7-0.8,2.4-1.4c1.4-1.3,2.6-2.8,3.4-4.5c0.5-0.8,0.8-1.7,1.1-2.6
	c0.2-0.9,0.3-1.9,0.2-2.8c-0.1-0.9-0.5-1.8-1.1-2.5c-0.6-0.7-1.4-1.3-2.3-1.7c-0.9-0.4-1.8-0.7-2.7-0.9c-0.5-0.1-0.9-0.1-1.4,0
	c-0.4,0.1-0.9,0.2-1.3,0.4c-0.8,0.5-1.5,1.2-1.9,2C29.1,21.6,28.9,22.5,28.8,23.4z"/>
<path style="fill:#93C156;" d="M20.6,21.1c1.4,0.9,2.9,1.6,3.2,6.4s-1.8,5.9-2.8,6.1s-4.6,0.4-5.6-5.9
	C14.3,20.3,19.2,20.2,20.6,21.1z"/>
<path style="fill:#262424;" d="M18.8,21.6c0,0,2.9-0.4,3.8,3.4s0.2,7.4-1.5,7.7s-4.3-0.7-4.9-5.6S17.8,22,18.8,21.6z"/>
<path style="fill:#FFFFFF;" d="M18.5,24.5c0.2-0.2,0.6-0.2,0.8,0c0.1,0.1,0.1,0.2,0.1,0.3c0.1,0.2,0,0.5-0.3,0.6c-0.1,0-0.1,0-0.2,0
	h-0.4c-0.3-0.1-0.4-0.3-0.4-0.6c0,0,0-0.1,0-0.1C18.4,24.7,18.5,24.6,18.5,24.5z"/>
<path style="fill:#FFFFFF;" d="M16.4,22.3c0.4-0.4,1-0.5,1.4-0.1c0,0,0.1,0.1,0.1,0.1c0.1,0.2,0.3,0.3,0.4,0.5
	c0.1,0.5-0.2,1.1-0.8,1.2c0,0,0,0-0.1,0h-0.6c-0.5-0.1-0.8-0.6-0.7-1.1c0,0,0-0.1,0-0.1C16,22.6,16.1,22.4,16.4,22.3
	C16.3,22.3,16.3,22.3,16.4,22.3z"/>
<path style="fill:#FFFFFF;" d="M22.3,31.6c0,0-0.9-1.3-0.1-1.7s1.4,0.8,1.6,1.5C24.1,32.1,23.4,33,22.3,31.6z"/>
<path style="fill:#93C156;" d="M29,23.9c0,0,0.7-4.2,3.7-4s5.2,1.9,5.1,4.5s-1.2,9.4-5.2,8.8S28.7,26.8,29,23.9z"/>
<path style="fill:#262424;" d="M34.2,20.8c2.1,0.6,3.4,2.7,3,4.8c-0.7,3.9-2.7,7.3-4.5,7s-3.7-3.3-3-7.9
	C30.4,19.8,33,20.7,34.2,20.8z"/>
<path style="fill:#FFFFFF;" d="M32.2,23.9c0.2-0.2,0.6-0.2,0.8,0c0.1,0.1,0.1,0.2,0.1,0.3c0.1,0.3,0,0.5-0.3,0.6c-0.1,0-0.1,0-0.2,0
	h-0.4c-0.3-0.1-0.4-0.3-0.4-0.6c0,0,0-0.1,0-0.1C32,24,32.1,23.9,32.2,23.9z"/>
<path style="fill:#FFFFFF;" d="M30.1,22.1c0.4-0.4,1.1-0.5,1.5,0c0,0,0,0,0,0c0.1,0.2,0.3,0.4,0.4,0.6c0.1,0.5-0.2,1.1-0.7,1.2
	c0,0-0.1,0-0.1,0h-0.6c-0.5-0.1-0.9-0.7-0.7-1.2c0,0,0,0,0,0C29.8,22.5,29.9,22.2,30.1,22.1C30.1,22.1,30.1,22.1,30.1,22.1z"/>
<path style="fill:#FFFFFF;" d="M35.7,29.8c0,0-1-1.4-0.1-1.8s1.5,0.8,1.7,1.6S36.8,31.2,35.7,29.8z"/>
<path style="fill:#B8D490;" d="M27.9,49.7c-0.1-0.8-0.8-1.3-1.5-1.2c0,0-0.1,0-0.1,0c-0.7,0-1.2,0.5-1.3,1.2c-0.2,1.1-0.5,7.8,0,8.1
	c1.2,0.7,3.4,1,3.8-0.2C28.8,57.2,27.9,49.7,27.9,49.7z"/>
<path style="fill:#689A4C;" d="M29.7,47c-1.3,0.3-2.7,0.3-4-0.1c-1.3-0.5-2.4,0.7-1.2,1.2c1.8,0.6,3.8,0.7,5.7,0.2
	C31.7,48,31.1,46.7,29.7,47z"/>
<path style="fill:#C0D99C;" d="M21.7,45.4c0.9,0.5,1.9,0.9,2.9,1.2c1,0.3,2,0.4,3,0.5c1,0,2-0.1,3-0.3c0.5-0.1,1-0.3,1.4-0.5
	c0.2-0.1,0.4-0.3,0.7-0.4c0.2-0.2,0.3-0.4,0.4-0.6c0,0.3,0,0.6-0.2,0.8c-0.1,0.3-0.3,0.5-0.5,0.7c-0.4,0.4-0.9,0.8-1.4,1
	c-1,0.5-2.2,0.7-3.3,0.6c-1.2,0-2.3-0.3-3.3-0.8C23.2,47.1,22.4,46.3,21.7,45.4z"/>
<path style="fill:#C0D99C;" d="M38.6,31.4c0.4-0.2,0.9-0.3,1.4-0.2c0.6,0.1,1.1,0.3,1.4,0.8c0.1,0.1,0.2,0.2,0.2,0.4
	c0,0.1,0.1,0.2,0.1,0.3c0.1,0.2,0.1,0.5,0.1,0.7c0,0.5-0.1,0.9-0.4,1.3l-0.5-1.1l-0.2-0.5c0-0.1-0.1-0.1-0.1-0.2l-0.1-0.1
	c-0.2-0.2-0.5-0.4-0.8-0.6C39.3,31.9,38.9,31.6,38.6,31.4z"/>
<path style="fill:#C0D99C;" d="M24.4,3.8c0.3,0.7,0.5,1.4,0.8,2.1c0.2,0.7,0.5,3,0.7,3.6s0.3,1.2,0.5,1.8c0.2,0.7,0.6,1.3,1,1.9
	c-0.9,0-1.7-0.4-2.4-1c-0.6-0.6-1-1.3-1.2-2.1c-0.2-1.3-0.3-2.7-0.2-4C23.7,5.3,24,4.5,24.4,3.8z"/>
<path style="fill:#C0D99C;" d="M22.1,4.8c0.1,0.5,0.2,1,0.2,1.5c0,0.5,0.1,0.9,0.1,1.4c0.1,1,0.2,2,0.4,3c0.1,0.5,0.3,1,0.5,1.4
	c-0.6-0.1-1.1-0.4-1.5-0.9C21.4,10.1,21.1,9,21,7.9c-0.1-0.5,0-1.1,0.1-1.6L22.1,4.8z"/>
<path style="fill:#A4C971;" d="M43.6,39.4c-0.2,1,0.5,0.7,1.1,0.9s-4.8-0.4-4.8,1.4s1.7,5.9,5.2,6c1.3,0,0.3-1.1,0.3-1.1
	s1.3,0.2,0.9-0.5c0,0,1.2,0.1,0.8-0.9c1-0.2,1.9-0.9,2.5-1.8c0.5-1.2,0.4-6.3-5.9-10.6"/>
<path style="fill:#93C156;" d="M43.6,39.4v0.4c0,0.1,0.1,0.2,0.2,0.2h0.9c0.1,0.1,0.1,0.3,0,0.4c-0.1,0.1-0.3,0.2-0.4,0.3L43.8,41
	l-0.8,0.5c-0.5,0.3-0.9,0.7-1.3,1.2c-0.1,0.2-1.7-1.6-1.8-1.3v0.9c0,0.5,0.1,1.1,0.2,1.6c0.7,1.2,1.7,2.3,2.7,3.2
	c0.6,0.3,1.2,0.4,1.8,0.4c0.3,0,0.7,0,0.7-0.2c0-0.3-0.1-0.5-0.3-0.7l-0.2-0.3h1.1c0.1,0,0.1,0,0.1-0.1c0,0,0,0,0,0
	c0-0.1,0-0.1-0.1-0.2l-0.1-0.1h0.8c0.1,0,0.1-0.1,0.2-0.1v-0.3l-0.1-0.3l0.3-0.1c0.5-0.2,1.1-0.5,1.5-0.8c0.2-0.2,0.4-0.3,0.5-0.5
	s0.1-0.2,0.2-0.3s0.1-0.2,0.1-0.4c0.2-0.5,0.3-1,0.3-1.5c0-0.5-0.1-1-0.2-1.5c-0.4-1-1-2-1.7-2.8l-0.5-0.6l-0.7-0.6
	c-0.4-0.4-2.4-2.8-2.8-3.2l0,0c1.6,1.2,3,2.6,4.4,4c1,0.8,1.7,1.8,2.2,2.9c0.5,1.1,0.4,2.4-0.1,3.5c-0.1,0.1-0.1,0.3-0.2,0.4
	s-0.2,0.3-0.3,0.4c-0.2,0.3-0.5,0.5-0.8,0.7c-0.5,0.4-1.1,0.6-1.7,0.8l0.2-0.4l0.1,0.2v0.2c0,0.2-0.1,0.4-0.2,0.5
	c-0.2,0.1-0.3,0.2-0.5,0.2h-0.4l0.2-0.3c0.1,0.1,0.1,0.3,0.1,0.5c-0.1,0.2-0.2,0.3-0.4,0.3h-0.8l0.2-0.3c0.1,0.1,0.2,0.2,0.2,0.4
	c0.1,0.2,0.1,0.3,0.1,0.5c0,0.1-0.1,0.2-0.1,0.3c-0.1,0.1-0.1,0.1-0.2,0.1h-0.5c-0.7,0-1.3-0.2-1.9-0.4c-0.7-0.2-2.7-2.7-3-3.2
	c-0.3-0.6-0.5-1.2-0.5-1.8v-1c0.1-0.3,0.2-0.6,0.4-0.9c0.4-0.5,2.5,1.1,3,0.8c0.3-0.2,0.6-0.4,0.9-0.5l0.4-0.2
	c0.1-0.1,0.2-0.1,0.3-0.2v0.2l0,0l-0.2-0.1c-0.1,0-0.3-0.1-0.4-0.1c-0.4-0.2-0.5-0.4-0.5-0.5v-0.5L43.6,39.4z"/>
<path style="fill:#A4C971;" d="M8.4,35.3c0,0-4.1,5.6-2.8,8c0.6,1,1.6,1.7,2.8,1.8c0.2,0-0.3,0.8,0.1,1c0.3,0.1,0.7,0.1,1,0
	c0,0-0.8,1.1,0.5,0.8c0,0-0.4,1.2,1.2,0.8c1.8-0.2,3-1.9,2.7-3.6c0,0,0-0.1,0-0.1c-0.1-0.4-0.2-0.8-0.4-1.1c-0.7-1.2-2-1.9-3.3-2
	c0.5-0.3,0.9-0.7,1.1-1.3"/>
<path style="fill:#93C156;" d="M8.4,35.3c-0.5,1-1.1,2.1-1.6,3.1c-0.5,1-0.9,2.1-1.1,3.2c-0.1,0.5-0.1,1,0.1,1.5
	c0.3,0.5,0.6,0.9,1.1,1.3c0.2,0.2,0.5,0.3,0.8,0.4c0.1,0.1,0.3,0.1,0.4,0.1h0.2c0,0,0.1,0,0.1,0.1v0.2c0,0.1-0.1,0.3-0.1,0.4
	s0,0.2,0.1,0.2c0.2,0.1,0.5,0.1,0.8,0l0.5-0.2l-0.2,0.5c-0.1,0.1-0.1,0.2-0.1,0.3v0.2h0.4l0.4-0.1v0.6c0,0.2,0,0.4,0.1,0.4
	c0.1,0.1,0.3,0.1,0.4,0.1c0.5,0,1-0.2,1.4-0.4c0.8-0.4,1.4-1.2,1.5-2.1c0.1-0.4,0-0.9-0.1-1.3c0-0.1-0.1-0.2-0.1-0.3
	s-0.1-0.2-0.1-0.3c-0.1-0.2-0.3-0.4-0.4-0.6c-0.7-0.7-1.5-1.2-2.5-1.4l-0.9-0.1l0.6-0.3c0.1-0.1,0.2-0.1,0.3-0.2l0.3-0.3
	c0.2-0.2,0.4-0.4,0.4-0.7h0.1c-0.1,0.3-0.2,0.5-0.3,0.8c-0.1,0.1-0.2,0.3-0.3,0.4c-0.1,0.1-0.3,0.2-0.4,0.3l-0.1-0.4
	c0.6,0,1.1,0.1,1.6,0.3c0.5,0.2,1,0.5,1.4,0.9c0.2,0.2,0.4,0.4,0.5,0.6c0.1,0.2,0.3,0.5,0.4,0.7c0.2,0.5,0.3,1.1,0.2,1.7
	c-0.1,0.5-0.3,1.1-0.6,1.5c-0.4,0.4-0.8,0.8-1.3,1.1C12,47.8,11.4,48,10.8,48h-0.5c-0.2,0-0.4-0.1-0.5-0.3c-0.1-0.1-0.2-0.3-0.2-0.5
	c0-0.2,0-0.3,0.1-0.5L10,47H9.5c-0.1,0-0.2,0-0.3-0.1C9.1,46.8,9,46.8,9,46.7c-0.1-0.1-0.1-0.4,0-0.5c0-0.2,0.1-0.3,0.2-0.4l0.2,0.3
	c-0.4,0.1-0.7,0.1-1.1,0C8.2,46,8.1,46,8.1,45.9v-0.3c0-0.1,0-0.3,0.1-0.4v-0.1H8c-0.1,0-0.3-0.1-0.4-0.1c-0.3-0.1-0.5-0.2-0.8-0.4
	c-0.3-0.2-0.5-0.4-0.8-0.6c-0.2-0.2-0.4-0.5-0.7-0.7c-0.3-0.5-0.4-1.2-0.3-1.8c0.1-0.6,0.2-1.2,0.4-1.8c0.2-0.6,0.4-1.1,0.8-1.6
	C6.9,37.1,7.6,36.1,8.4,35.3L8.4,35.3z"/>
<path style="fill:#689A4C;" d="M8.4,45.1h1.3c0.2,0.1,0.4,0.1,0.6,0.1c0.2,0,0.4-0.1,0.5-0.2l0.2-0.1v0.7c0,0.1,0.1,0.3,0.1,0.4
	l0.1,0.1h0.1c0.1,0.1,0.2,0.2,0.2,0.3s0,0.3-0.1,0.3s-0.2,0.1-0.2,0.2l0,0c0.1-0.2,0.2-0.3,0.1-0.4l-0.1-0.1h-0.1
	c-0.1,0-0.1,0-0.1-0.1c0,0,0,0,0,0c-0.1-0.2-0.2-0.4-0.2-0.6c0-0.2,0-0.4,0.1-0.6l0.2,0.2c-0.2,0-0.4,0-0.6,0.1s-0.4,0.1-0.6,0.1
	H9.3C9.3,45.5,8.5,45.1,8.4,45.1z"/>
<path style="fill:#689A4C;" d="M46.9,45.2c-0.2,0.2-0.5,0.3-0.8,0.3c-0.3,0.1-0.6,0.1-0.9,0h-0.9c-0.3,0-0.6,0-0.9-0.1l0.2-0.3
	c0.1,0.1,0.1,0.2,0.2,0.3s0.1,0.2,0.1,0.4c0,0.2,0,0.5-0.1,0.7l0,0c0-0.2-0.1-0.5-0.2-0.7l-0.1-0.3l-0.1-0.3l-0.2-0.3l0.4,0.2
	l0.8,0.3c0.2,0.1,0.5,0.1,0.8,0.1l0.3-0.1H46C46.4,45.3,46.7,45.3,46.9,45.2L46.9,45.2z"/>
<path style="fill:#C0D99C;" d="M19,59.7c1-0.9,2.2-1.6,3.4-2c1.3-0.4,2.6-0.7,4-0.8h2l1.1,0.1c0.3,0,0.7,0.1,1,0.2
	c0.7,0.1,1.3,0.3,1.9,0.5c0.3,0.1,0.7,0.2,1,0.4c0.3,0.1,0.6,0.2,0.9,0.4c-0.7,0.1-1.4,0.1-2,0.2s-1.3,0-1.9,0.1
	c-1.3,0-2.6,0.1-3.8,0.2s-2.5,0.2-3.8,0.4S20.3,59.5,19,59.7z"/>
<path style="fill:#689A4C;" d="M29.6,48.4c0.1,1,0,1.8,0.1,2.8c0,0.5,0,4,0.1,4.4C30,56.1,30,56.5,30,57c-0.6-0.8-1-4.8-1-5.8
	c0-0.5,0-0.9,0.1-1.4C29.2,49.3,29.4,48.8,29.6,48.4z"/>
<path style="fill:#C0D99C;" d="M44.9,41.3c-0.3,0.4-0.7,0.7-1.1,1c-0.3,0.3-0.6,0.6-0.9,1c-0.1,0.1-0.1,0.2-0.2,0.2
	s-0.1,0.2-0.1,0.3s-0.1,0.4-0.2,0.6c-0.1,0.4-1.6-1.1-1.5-0.7c-0.2-0.2-0.3-0.4-0.4-0.6c-0.1-0.2-0.2-0.5-0.2-0.8
	c0-0.3,0-0.5,0.1-0.8c0-0.1,1.6,1.8,1.6,1.6s0.1-0.2,0.2-0.4c0.3-0.4,0.7-0.7,1.2-1C43.9,41.6,44.4,41.4,44.9,41.3z"/>
<path style="fill:#C0D99C;" d="M8.8,36.8c-0.3,0.5-0.6,1.1-1,1.7l-0.7,1.8c-0.2,0.6-0.3,1.2-0.4,1.8V43c0.1,0.3,0.1,0.6,0.2,0.9
	c-0.3-0.2-0.6-0.5-0.8-0.8c-0.2-0.3-0.3-0.7-0.2-1c0-0.7,0.1-1.4,0.3-2c0.2-0.6,0.5-1.2,0.9-1.8C7.6,37.7,8.2,37.2,8.8,36.8z"/>
</svg>
