<?xml version="1.0" encoding="utf-8"?>
<!-- Generator: Adobe Illustrator 22.0.0, SVG Export Plug-In . SVG Version: 6.00 Build 0)  -->
<svg version="1.1" id="Слой_1" xmlns="http://www.w3.org/2000/svg" xmlns:xlink="http://www.w3.org/1999/xlink" x="0px" y="0px"
	 viewBox="0 0 55.8 62.9" style="enable-background:new 0 0 55.8 62.9;" xml:space="preserve">
<title>Artboard 1 копия 3</title>
<g id="Слой_19">
	<path style="fill:#475670;" d="M19.6,61.3c-0.4,0.1-0.8-0.2-0.9-0.7c0-0.2,0-0.5,0.2-0.7c0.3-0.3,0.6-0.6,0.9-0.8
		c1.2-0.9,2.6-1.5,4-1.8h0.1c0-1.7,0-8.3,0-10.4c-0.6-0.1-1.4-0.4-2.3-0.6c-0.9,0.4-1.9,0.6-2.9,0.6c-0.7,0-1.4-0.2-1.9-0.5
		c-0.9-0.7-1.4-1.8-1.4-3c-2.3-1.5-4.3-3.5-5.6-5.9c-1.6-0.8-2.7-2.3-3-4c0-0.2-0.1-0.3-0.1-0.5l0,0c-0.2-0.9,0.1-1.9,0.8-2.5l0,0
		c0.2-0.2,0.5-0.3,0.8-0.4c0-0.3,0-0.6,0-0.9c-0.2-1.2-0.2-2.4,0-3.5c0.4-1.9,1.4-3.6,2.8-4.9c0-0.1-0.1-0.2-0.1-0.3
		c-0.1-0.7,0.2-1.4,0.8-1.9c2.1-1.6,4.3-3,6.8-4c-0.3-0.5-0.4-1-0.3-1.6c0.1-0.3,0.3-0.6,0.5-0.8c0.2-0.1,0.4-0.1,0.6-0.1
		c0.5,0,1.2,0.4,1.5,1.9c0.1,0,0.1,0,0.2-0.1c1.7-0.8,3.6-1.4,5.5-1.6h0.2c1.4,0,2.7,0.4,3.9,1.1c0-0.3,0-0.6,0.1-0.8v-0.1
		c0-0.4,0.1-0.8,0.3-1.1c0.1-0.2,0.2-0.4,0.3-0.6l0.1-0.1l0.4,0.3l-0.4-0.3c0.2-0.3,0.6-0.6,1-0.6h0.1c0.1,0,0.2,0,0.3,0
		c0.3,0.1,0.5,0.2,0.7,0.5c0.1,0.1,0.1,0.3,0.2,0.5c0,0.3,0,0.5,0,0.8c0.2-0.2,0.4-0.5,0.6-0.6c0.1-0.1,0.3-0.2,0.4-0.3l0.1-0.1
		c0.2-0.1,0.3-0.1,0.5-0.1c0.4,0,0.7,0.3,0.9,0.6c0.1,0.3,0.1,0.6-0.1,0.9c0.2,0,0.3,0.1,0.5,0.1l0.1,0.1c0.2,0.1,0.3,0.2,0.4,0.4
		l0,0v0.1l0,0c0.1,0.2,0.1,0.5,0,0.7c0,0.1-0.1,0.4-2,1.8c0.5,0.2,1.1,0.5,2,1l0.2,0.1c0.4,0.2,0.8,0.5,1.3,0.7
		c1.3,0.7,2.6,1.7,3.7,2.7c1.1,1,2.1,2.2,3,3.4C46.3,24.6,47,27,47,30v0.1c0.1,1.7,0,3.2,0,4l0.2,0.1c0.2,0.1,0.3,0.1,0.5,0.2
		c0.7,0.3,1.2,0.8,1.4,1.5c0.1,0.7-0.1,1.4-0.6,1.9c-1,1.3-2.3,2.2-3.8,2.8c-0.3,0.6-0.7,1.1-1.2,1.6c-0.2,0.2-0.5,0.5-0.8,0.8
		c-1.3,1.3-2.9,2.2-4.7,2.9c-0.2,0.5-0.6,1-1,1.4c-0.8,0.6-1.8,0.9-2.8,0.9c-1,0-2.1-0.3-3-0.7h-0.6h-0.4c0,1.6,0,6.9,0,9.5
		c1.9,0.2,3.7,1,5.1,2.3l0.2,0.2c0.3,0.2,0.5,0.6,0.5,1c0,0.3-0.2,0.6-0.5,0.8c-0.1,0-0.2,0.1-0.2,0.1L19.6,61.3z"/>
	<path style="fill:#FFFFFF;" d="M32.7,10.4h0.1c0.2,0,0.3,0.1,0.4,0.3v0.1c0,0.1,0,0.1,0,0.2l0,0C33.1,11.9,33,13,32.8,14
		c0,0,0.7-1.2,1.3-2l0,0c0.1-0.2,0.3-0.4,0.5-0.6c0.1-0.1,0.2-0.2,0.3-0.2l0,0l0,0c0.1,0,0.2-0.1,0.3-0.1c0.2,0,0.3,0.1,0.4,0.4
		S35.3,12.6,35,13l-0.1,0.1c0.3-0.3,0.7-0.5,1.1-0.5c0.1,0,0.2,0,0.3,0.1l0,0h0.1c0.1,0.1,0.2,0.1,0.2,0.2l0,0c0,0.1,0,0.3,0,0.4
		c-0.8,0.7-1.6,1.4-2.5,2l0.3,0.1c0.8,0.3,1.7,0.7,2.5,1.1l0.2,0.1c0.4,0.2,0.8,0.4,1.2,0.7l0,0c1.2,0.7,2.4,1.6,3.4,2.6
		c1.1,1,2.1,2.1,3,3.3l0,0c1.9,2.3,1.8,6.4,1.8,6.7l0,0c0,1.4,0,2.9-0.1,4.3c0.2,0,0.4,0.1,0.5,0.2c0.1,0,0.3,0.1,0.4,0.2
		c0.8,0.4,1.8,1.2,0.7,2.7c-1,1.3-2.5,2.3-4.1,2.8l0.3,0c-0.5,1.1-0.8,1.2-1.9,2.5c-1.4,1.2-2.9,2.2-4.7,2.8c-0.2,0.5-0.5,1-1,1.4
		c-0.7,0.5-1.6,0.8-2.4,0.8c-1,0-2-0.3-2.9-0.7c-0.5,0-1.1,0-1.6,0.1c0,0.1,0,7.6,0,10.4c2.1,0.1,4,1,5.5,2.4c0.7,0.6,0,1,0,1H19.6
		c-0.4,0-0.5-0.2-0.3-0.5c0.3-0.3,0.5-0.5,0.8-0.7l0,0c0.5-0.4,1.1-0.7,1.7-1c0.7-0.3,1.4-0.6,2.1-0.7c0.3-0.1,0.5-0.1,0.5-0.1
		s0-9.7,0-11.2c-0.4-0.1-1.7-0.4-2.8-0.8c-0.9,0.4-1.9,0.6-2.9,0.7c-0.6,0.1-1.1-0.1-1.6-0.3c-0.9-0.6-1-1.7-1.2-2.8
		c-2.4-1.5-4.4-3.5-5.8-6l0,0c-1.5-0.7-2.6-2.1-2.8-3.7c0-0.2-0.1-0.3-0.1-0.5l0,0c0,0-0.3-1.4,0.6-2l0,0c0.3-0.2,0.7-0.4,1.1-0.5
		c0-0.5,0-0.9,0-1.4c-0.2-1.1-0.2-2.2,0-3.4c0.4-1.8,1.3-3.5,2.7-4.7c0.5-0.5,0.9-0.9,1.4-1.3c-0.4,0.3-0.9,0.6-1.3,1
		c-0.1-0.2-0.2-0.2-0.1-0.3c-0.1-0.4,0-0.9,0.6-1.5c2.2-1.7,4.6-3.1,7.2-4.1c0,0-1.1-1.7-0.2-2.2c0.1,0,0.2-0.1,0.3-0.1
		c0.4,0,0.9,0.5,1.1,1.9c0.1,0,0.2,0,0.3,0c0.2,0,0.4-0.1,0.6-0.2c1.7-0.7,3.4-1.3,5.2-1.6h0.1c1.4,0,4.1,0.7,4.4,2.1
		c-0.1-0.8-0.1-1.5,0-2.3l0,0v-0.1c0-0.3,0.1-0.7,0.2-1c0.1-0.2,0.2-0.4,0.3-0.5l0,0v-0.1l0.1-0.1l0,0c0.1-0.2,0.4-0.4,0.7-0.4l0,0
		 M22.3,15.6c2.1-0.5,4.3-0.8,6.5-0.8c0.8,0,1.5,0,2.3,0.1h-0.3c-0.7-0.1-1.3-0.1-2-0.1c-1.9,0-3.9,0.2-5.8,0.6L22.3,15.6 M32.6,9.4
		h-0.1c-0.5,0.1-1,0.4-1.3,0.8l0,0L31,10.3L31,10.4c-0.2,0.2-0.3,0.5-0.4,0.8c-0.1,0.4-0.2,0.8-0.3,1.2v0.2
		c-1.1-0.5-2.2-0.8-3.4-0.8h-0.2c-1.8,0.3-3.6,0.8-5.3,1.5c-0.5-1.5-1.3-1.7-1.9-1.7c-0.3,0-0.5,0.1-0.7,0.2l-0.1,0.1
		c-0.4,0.2-0.7,0.6-0.8,1.1c-0.1,0.5,0,0.9,0.1,1.4c-2.3,1-4.5,2.3-6.5,3.9c-0.7,0.5-1.1,1.4-1,2.2c0,0,0,0.1,0,0.1
		c-1.4,1.4-2.3,3.1-2.7,5c-0.3,1.2-0.3,2.5-0.1,3.7c0,0.2,0,0.4,0,0.5c-0.2,0.1-0.4,0.2-0.6,0.4c-0.9,0.7-1.3,1.9-1,3
		c0,0.2,0.1,0.3,0.1,0.5c0.3,1.8,1.5,3.4,3.1,4.2c1.4,2.3,3.3,4.3,5.6,5.7c0,1.2,0.6,2.3,1.5,3.1c0.7,0.4,1.4,0.6,2.2,0.6
		c1,0,2-0.2,2.9-0.6c0.6,0.2,1.3,0.4,1.7,0.5c0,2.2,0,7.5,0,9.5c-0.7,0.2-1.4,0.4-2,0.7c-0.7,0.3-1.3,0.7-1.9,1.1l0,0
		c-0.3,0.3-0.6,0.5-0.9,0.8l-0.1,0.1c-0.4,0.6-0.3,1.4,0.2,1.8c0.3,0.2,0.6,0.3,0.9,0.3h15.7c0.2,0,0.3,0,0.5-0.1
		c0.4-0.2,0.7-0.7,0.8-1.2c0-0.6-0.2-1.1-0.7-1.4l-0.2-0.2c-1.4-1.3-3.1-2.1-5-2.4c0-2.5,0-6.7,0-8.6h0.4c1,0.5,2,0.7,3.1,0.7
		c1.1,0,2.1-0.3,3-1l0,0c0.4-0.4,0.8-0.8,1.1-1.3c1.7-0.6,3.4-1.6,4.7-2.9c0.3-0.3,0.5-0.6,0.8-0.8c0.5-0.4,0.9-0.9,1.2-1.5
		c1.5-0.6,2.9-1.6,3.9-2.9c1-1,1-2.6,0-3.6c-0.3-0.3-0.6-0.5-1-0.6l-0.3-0.2c0-0.8,0.1-2.1,0-3.6V30c0-3.1-0.7-5.7-2-7.3
		c-0.9-1.3-1.9-2.4-3.1-3.5c-1.1-1.1-2.3-2-3.6-2.7c-0.5-0.3-0.9-0.5-1.3-0.7l-0.2-0.1l-1.2-0.6c1.3-1,1.4-1.3,1.5-1.5
		c0.1-0.4,0.1-0.7-0.1-1.1c0-0.1,0-0.1-0.1-0.1c-0.1-0.2-0.3-0.4-0.5-0.6l-0.2-0.1l0,0h-0.1c0.1-0.3,0-0.6-0.1-0.8
		c-0.2-0.6-0.7-0.9-1.3-0.9c-0.3,0-0.5,0.1-0.7,0.2l0,0h-0.1l0,0l-0.3,0.2c0-0.1-0.1-0.2-0.1-0.3V10c-0.3-0.4-0.8-0.7-1.3-0.7
		L32.6,9.4z"/>
	<path style="fill:#495B80;" d="M31.3,14.9c-6.3-0.6-12.7,1-17.9,4.6c-3.3,2.6-4.8,5-4.5,11c-0.5,0.1-2.2,0.5-1.6,2.9
		s2.1,3.8,3.7,3.9c0.8,1.3,5.3,7.5,11.2,8.4c6.5,1,12.8,1,18.3-2c1.2-0.8,2.2-2,2.7-3.4c1.9-0.3,3.6-1.3,4.7-2.9
		c1.7-2.3-1.6-3-1.6-3s0.5-6.8-0.9-9.7c-2-3.4-4.9-6.2-8.5-8c-2.2-1-3-1.4-3-1.4c0.9-0.6,1.8-1.3,2.5-2c0.1-0.3-0.1-0.7-0.5-0.8
		c-0.1,0-0.2,0-0.2,0c-0.4,0.1-0.7,0.3-1,0.6c0,0,1-1.4,0.8-1.8s-0.5-0.5-1.1,0c-0.7,0.8-1.3,1.7-1.8,2.6c0.3-1.1,0.4-2.2,0.4-3.3
		c-0.2-0.3-0.7-0.7-1.3,0.2S31.2,13.8,31.3,14.9z"/>
	<path style="fill:#3F5072;" d="M27.4,16.6c-0.1,0-2,0.2-2.3,0.9s1.2,3,2.8,3.1s6.5,0.4,7.9,1.3s3.1,0.7,3.3,0s-0.2-2.8-4.2-4
		S29.5,16.6,27.4,16.6z"/>
	<path style="fill:#1F2B4B;" d="M32.4,11.7c-0.4,0.2-0.7,0.6-0.7,1.1c-0.1,0.8-0.1,1.7,0,1.7c0.4-0.6,0.7-1.2,0.9-1.9
		C32.6,12.1,32.6,11.8,32.4,11.7z"/>
	<path style="fill:#1F2B4B;" d="M32.4,14.9c0-0.1,1.7-2.5,2.2-2.6s0.6,0.4,0.3,0.8s-2.1,1.8-2.1,1.8S32.4,15.2,32.4,14.9z"/>
	<path style="fill:#1F2B4B;" d="M33,15.1c0,0,2.3-1.5,2.5-1.4s-1.1,1.2-1.4,1.4C33.8,15.1,33.4,15.1,33,15.1z"/>
	<path style="fill:#475670;" d="M33,11c0,0-0.5-0.6-1,0.3c-0.3,0.5-0.4,1-0.6,1.5c0,0.1-0.2,0.1-0.2-0.1s0.2-2,1.3-2.3
		c0.3,0,0.6,0.2,0.6,0.5c0,0,0,0,0,0C33.2,10.9,33.2,11.1,33,11z"/>
	<path style="fill:#475670;" d="M35.7,11.4c0,0,0,0.3-0.2,0.1c-0.4,0-0.9,0.2-1.2,0.6C34,12.4,33.8,12.2,34,12S35.3,10.4,35.7,11.4z
		"/>
	<path style="fill:#475670;" d="M36.5,13.3c0,0,0-0.4-0.3-0.3c-0.6,0.2-1.1,0.4-1.6,0.7c-0.3,0.2-0.3,0,0-0.3S36,12,36.6,13
		C36.7,13.4,36.6,13.3,36.5,13.3z"/>
	<path style="fill:#586A8F;" d="M32.8,15.3c-0.1,0-0.5,0.1,0.1,0.2c2.3,0.8,4.5,2,6.5,3.4c1.7,1.5,4.9,3.6,5.8,6.4
		c0.5,1.7,0.9,3.4,1.2,5.1c0.1,0.3,0.2,0,0.2-0.3s0.1-4.4-1.8-6.7s-3.6-4.4-6.4-5.9S34,15.1,32.8,15.3z"/>
	<path style="fill:#586A8F;" d="M40.7,37.8c0,0-0.3,0.8-0.1,0.6s2.2-2.8,3.8-3.2s3.2-0.4,3.7,0.9c0.1,0.2,0.5,0,0.3-0.3
		s-0.5-1.3-2.5-1.4C44.1,34.4,42.3,35.6,40.7,37.8z"/>
	<path style="opacity:0.5;fill:#334462;enable-background:new    ;" d="M45.7,36.2c-1.3,0.3-2.4,1-3.4,1.9c-1.5,1.5-1.7,2.3-0.9,2.2
		c2-0.2,3.9-1,5.4-2.3c0.8-0.9,1-1.8,0.4-1.9C46.8,36.1,46.2,36.1,45.7,36.2z"/>
	<path style="fill:#33435F;" d="M39.9,40.4c0,0-0.3,0,0,0.2c1,0.3,2,0.4,3,0.2c-0.9,0.9-2.2,2.7-8,4.2c-4.9,0.8-6.4,1-11.5,0.2
		c-4.9-1.3-5.3-1-11.2-6.3c-0.5-0.6-1.2-1.5-1.2-1.5c0.3,0.1,0.7,0.2,1,0.2c0.2,0,0.5-0.3,0.2-0.3c-0.7,0-1.5-0.1-2.2-0.2
		c1.4,2.5,3.4,4.5,5.8,6c0.1,1.1,0.3,2.2,1.2,2.8s2.5,0.6,4.5-0.2c1.1,0.3,2.4,0.7,2.8,0.8c0,1.5,0,11.2,0,11.2
		c-1.9,0.3-3.7,1.2-5.1,2.5c-0.2,0.3-0.1,0.5,0.3,0.5h15.8c0,0,0.7-0.4,0-1c-1.5-1.5-3.5-2.3-5.5-2.4c0-2.8,0-10.3,0-10.4
		c0.5-0.1,1.1-0.1,1.6-0.1c1,0.5,3.5,1.4,5.3,0c0.5-0.4,0.8-0.8,1-1.4c1.7-0.6,3.3-1.6,4.7-2.8c1.2-1.3,1.5-1.4,1.9-2.5
		C43.6,40.3,41,40.8,39.9,40.4z"/>
	<path style="fill:#405175;" d="M31.4,46c1.8-0.2,3.6-0.5,5.4-1c0.4-0.1,0.4,0.2,0.2,0.5c-0.6,1.1-1.8,1.7-3,1.5
		C31.9,46.7,31,46.2,31.4,46z"/>
	<path style="fill:#405175;" d="M17.1,43.3c0,0-0.5-0.4-0.4,0.4s0.2,1.7,1.4,1.9c0.9,0.2,1.8,0.1,2.5-0.3c0.3-0.2,0.6-0.2-0.2-0.5
		C19.3,44.5,18.1,44,17.1,43.3z"/>
	<path style="opacity:0.5;fill:#334462;enable-background:new    ;" d="M8.6,31.9c0,0-0.9-0.2-0.9,0.9c0.3,1.6,1.2,3,2.6,3.8
		c1.3,0.6,2,0.5,1.8-0.2S11,32.4,8.6,31.9z"/>
	<path style="fill:#586A8F;" d="M13.3,34.8c0,0,0.2,0.8-0.3,0s-2.3-4-4.3-3.8c-1.3,0.2-1.4,2-1.4,2S7,31.6,7.9,31s1.6-0.9,3,0.4
		C11.9,32.4,12.7,33.5,13.3,34.8z"/>
	<path style="opacity:0.5;fill:#334462;enable-background:new    ;" d="M13.3,36.2c0,0-1.1-0.8-0.4,0.7s3.7,4.3,6.4,5.5
		c3.4,1.5,7.1,2.3,10.9,2.4c3.8,0,4.4-1.7,4.5-1.8s-0.1-0.5-1.5-0.5s-8-0.3-10.9-1.4C19.1,39.9,16.1,38.3,13.3,36.2z"/>
	<path style="fill:#586A8F;" d="M12,21.1c0,0,0.5-0.5,0.2-0.4s-2.4,1.5-3.3,5.1c-0.4,1.5-0.3,3.2,0.4,4.6c0.1,0.1,0.3,0,0.1-0.7
		C8.8,26.6,9.7,23.4,12,21.1z"/>
	<path style="fill:#243256;" d="M22.6,35.7c-0.1,0-0.7,0.5-0.3,1.7c0.6,1.5,2.1,2.5,3.7,2.4c2-0.1,3.2-0.6,3.8-1.8
		c0-0.5,0.4-1.8-0.4-1.7c-1.4,0.2-2.9,0.2-4.3,0C23.9,36,23.1,35.3,22.6,35.7z"/>
	<path style="fill:#586A8F;" d="M22,35.7c-0.3,0.7-0.3,1.6,0,2.4c0.6,1.1,1.7,1.9,3,2.2c1.4,0.3,2.8,0.1,4-0.6
		c0.6-0.5,1-1.1,0.8-1.4s-0.3,0.8-1.4,1.2c-1.4,0.6-3,0.6-4.4,0c-1.1-1-2.3-1.8-1.6-3.3c0.1-0.2,0.2-0.3,0.3-0.5
		C22.7,35.5,22.5,35.3,22,35.7z"/>
	<path style="fill:#1F2B4B;" d="M22.3,36.8c0,0.1,0.1,0,0.2-0.4s0.2-0.7,0.6-0.5c0.7,0.3,1.4,0.6,2.2,0.9c0.9,0.2,1.8,0.3,2.7,0.2
		c0.7-0.1,1.4-0.3,1.5,0c0.1,0.3,0.1,0.7,0,1c-0.1,0.3,0.1,0.1,0.2,0c0.1-0.3,0.2-0.7,0.3-1c0-0.2,0.1-0.6-0.4-0.6
		c-1.2,0.2-2.4,0.2-3.5,0.2c-1-0.3-1.9-0.6-2.8-1c-0.4-0.1-0.8,0.2-0.9,0.6C22.2,36.4,22.2,36.6,22.3,36.8z"/>
	<path style="fill:#3F5072;" d="M23.4,37.3c0.1,0,0.5,0.1,0.6-0.3s0.2-0.7-0.4-0.7S23.1,37.4,23.4,37.3z"/>
	<path style="fill:#3F5072;" d="M25.5,37.9c0.3,0,0.6-0.4,0.6-0.7s-0.4-0.4-0.8-0.3S25,37.9,25.5,37.9z"/>
	<path style="fill:#3F5072;" d="M27.9,38.1c0.2,0,0.3-0.1,0.3-0.2c0.1-0.2,0.4-0.9-0.3-0.9S27.3,38.1,27.9,38.1z"/>
	<path style="fill:#405175;" d="M27.3,48.2c-0.5-0.1-1.9,0.8-2.2,3.9c-0.2,1.9-0.2,3.8-0.2,5.6c-1.8,0.1-3.5,0.7-4.9,1.8
		c-0.5,0.4-0.4,0.8,0.4,0.8s13.6,0,13.6,0c-1.1-1.4-2.7-2.3-4.5-2.5c-0.5-0.2-0.4-0.3-0.4-1S29.7,48.6,27.3,48.2z"/>
	<path style="fill:#243256;" d="M19.4,14.9c0,0-1.1-1.7-0.2-2.2c0.5-0.2,1.1,0.1,1.4,1.8c0.3,0.1,0.6,0,0.9-0.1
		c1.7-0.7,3.4-1.3,5.2-1.6c1.4-0.1,4.3,0.7,4.6,2.1c-0.6-0.1-5.3-1-12.8,1.8c-3.1,1.2-5.9,3-6.7,4c-0.2-0.4-0.4-1,0.5-1.8
		C14.4,17.3,16.9,15.9,19.4,14.9z"/>
	<path style="fill:#1F2B4B;" d="M11.8,20.4c1.1-1.2,2.4-2.2,3.8-3c1.7-0.8,6.1-2.8,8-3.1s5.5-0.9,6.5-0.1s0.9,0.7,0.9,0.7
		c-3.8-0.3-7.7,0.2-11.4,1.5c-3.7,1.6-6.1,2.8-7.8,4.4C11.7,20.5,11.5,20.6,11.8,20.4z"/>
	<path style="fill:#1F2B4B;" d="M15.9,19.5c-0.1,0-3.6,1.4-4.2,4.6c-0.7,2.6-0.4,5.3,1,7.6c1.7,2.4,4.6,3.6,7.5,3.1
		c2.5-0.6,5.6-1.3,7.7-5.4c-0.2,1.3-0.5,4.3,1.4,5.6c2.3,1.9,5.3,2.7,8.3,2.4c3-0.8,5.8-2.1,6.7-6.9c0.1-2.6-0.2-6.6-3.5-8.3
		c-4.9,0.7-10.8,6-15.3,2.5C22.5,22.7,19.3,20.9,15.9,19.5z"/>
	<path style="fill:#586A8F;" d="M11.1,27.8c0,0,0.2,3.5,1.8,5c1.2,1.1,2.7,1.9,4.3,2.3c0.6,0.1,0.8-0.1-0.2-0.4
		c-1.9-0.5-3.6-1.7-4.6-3.4c-0.9-1.5-1.3-3.3-1.2-5C11.3,26.2,11.1,26.5,11.1,27.8z"/>
	<path style="fill:#586A8F;" d="M30.6,36.2c0,0,2.5,1.8,4.6,1.7c1.5,0,2.9-0.2,4.3-0.6c0.4-0.2,0.7-0.6-0.2-0.3
		c-1.3,0.5-2.7,0.8-4.1,0.7c-1.7-0.3-3.3-0.9-4.8-1.6C30.3,36,30.6,36.2,30.6,36.2z"/>
	<path style="fill:#FFFFFF;" d="M22.5,16.2c-1.9,0.2-3.8,0.9-5.4,2c-2.7,1.9-5.4,3.6-5.7,9c0.2,2.7,1.7,5.1,4.1,6.4
		c4.5,2.2,9.9,0.3,12-4.1c0.2-0.3,0.3-0.6,0.4-0.9c0.2,0.4-0.3,0.3-0.3,1.5s0,3.6,2.1,5.1c2.1,1.7,4.9,2.4,7.6,1.9
		c2.5-0.7,4.9-1.3,6-4.8c0.6-2.8,1.6-6-1.6-9.4c-1.7-1.3-3.1-3-7.8-2.4c-1.9,0.5-3.6,1.6-4.8,3.1c0.3-1.9-0.2-3.8-1.4-5.3
		C26.8,17.2,25.6,16.2,22.5,16.2z"/>
	<path style="fill:#4F526C;" d="M14.9,21.1c-0.1,0.1-2.1,3.7-1,6.8c0.9,2.9,3.5,5,6.5,5.2c2.3,0.2,4.6-0.7,6.2-2.4
		c0.6-0.6,1-1.4,1.3-2.1c-0.1,1.4,0.2,2.8,0.8,4.1c1.6,2.6,4.5,4,7.5,3.5c4-0.5,5.6-1.7,7-4.9c1.4-3.4,0.2-7.4-2.9-9.5
		c-3.8-2.4-8.8-1.3-11.3,2.4c0,0,0,0.1-0.1,0.1c-0.1-2.4,0.4-6.8-5-7.9C21,16.2,17.4,17.7,14.9,21.1z"/>
	<path style="fill:#0F1C35;" d="M15.4,22.1c0,0.1-1.5,4,0.4,6.1c1.6,1.8,4,2.8,6.4,2.5c1.9-0.2,4.3-1,5-3.6s1.6-7.4-1.1-8.9
		c-2.6-1.3-5.8-0.9-8.1,0.9C16.1,20.7,15.8,21.2,15.4,22.1z"/>
	<path style="fill:#0F1C35;" d="M29.4,26.8c-0.4,1.5-0.1,3.1,0.8,4.4c1.5,1.9,3.8,3.3,6,2.9c2.8-0.3,5.2-2.3,6-5
		c0.7-2.7-0.5-5.6-3-7c-2.5-0.9-5.4-0.7-7.7,0.7C30.2,23.8,29.4,26.8,29.4,26.8z"/>
	<path style="fill:#FFFFFF;" d="M20.5,19.5c-0.1,0.1-1,0.5-0.8,1.2s0.1,1.3,1.2,1.5s1.5-0.9,1.8-1s2.1-1,2.3-1.2s0.8-0.6-0.1-1
		S23.3,18,20.5,19.5z"/>
	<path style="fill:#FFFFFF;" d="M24.8,28.3c-0.1,0-0.5,0-0.5,0.6c-0.1,0.7,0,1.4,0.2,2.1c0.2,0.3,0.6,0.4,0.7,0S25.7,28.9,24.8,28.3
		z"/>
	<path style="fill:#FFFFFF;" d="M33,25.6c-0.2,0-1.9,2-3,0.8c-0.6-0.8-0.7-1.5,1.3-3.2c1.7-1.1,2.7-1.3,3.4-0.5
		c0.4,0.7,0.1,1.1-0.5,1.5C33.8,24.7,33.4,25.1,33,25.6z"/>
	<path style="fill:#FFFFFF;" d="M40.1,31.1c-0.1-0.1-0.4-0.2-0.7,0.6s0.2,2.3,0.7,2.2S40.9,32.1,40.1,31.1z"/>
	<path style="fill:#586A8F;" d="M25.6,52.7c0-0.1-0.4-0.4-0.4,1.7s0.1,3.4,0.1,3.4s-2.6,1.4-2.9,1.7s-0.4,0.5,0,0.6s9.5,0,9.7,0
		s1.7-0.6-7.4-0.7c-0.5-0.2,0.3-0.6,0.5-1s0.4-0.5,0.4-1S25.6,52.7,25.6,52.7z"/>
</g>
</svg>
