<?xml version="1.0" encoding="utf-8"?>
<!-- Generator: Adobe Illustrator 22.0.0, SVG Export Plug-In . SVG Version: 6.00 Build 0)  -->
<svg version="1.1" id="Слой_1" xmlns="http://www.w3.org/2000/svg" xmlns:xlink="http://www.w3.org/1999/xlink" x="0px" y="0px"
	 viewBox="0 0 55.8 62.9" style="enable-background:new 0 0 55.8 62.9;" xml:space="preserve">
<title>Artboard 1 копия 18</title>
<g id="Слой_8">
	<path style="fill:#F0C530;" d="M27.9,61.3h-7.3c-0.3,0-0.5-0.2-0.5-0.5c0-0.1,0-0.2,0.1-0.3l0.6-0.7c0.4-0.4,0.8-0.8,1.2-1.2
		c0.4-0.3,0.9-0.7,1.4-0.9c0.5-0.3,1-0.5,1.5-0.7c0.3-0.1,0.6-0.2,0.8-0.2v-6.1c-0.7-0.1-1.4-0.2-2.1-0.4c-2.1-0.5-3.7-2.1-4.4-4.2
		c-0.3-0.9-0.5-1.9-0.6-2.8c-0.1-1-0.2-2.1-0.2-3.1c0-0.8-0.1-1.6-0.2-2.5c-0.1-1.6-0.4-3.2-0.9-4.8c-0.5,0-0.9,0-1.3,0h-0.5
		c-0.4,0-0.8-0.1-1.2-0.2c-0.2-0.1-0.5-0.2-0.7-0.3c-0.2-0.1-0.3-0.2-0.4-0.4c-0.1-0.1-0.1-0.2-0.1-0.4c0-0.1-0.1-0.3-0.1-0.4
		c0,0,0-0.1,0-0.1c0-0.1,0-0.2,0-0.3c0,0,0-0.1,0-0.2s0.1-0.2,0.1-0.3l0.2-0.3c0.2-0.3,0.4-0.6,0.7-0.9l0.1-0.1
		c0.5-0.5,0.9-1.1,1.3-1.6c0.4-0.6,0.7-1.2,1-1.8c0.2-0.4,0.4-0.8,0.5-1.2l0.3-0.8c0.3-0.7,0.6-1.4,1-2c0.2-0.4,0.5-0.7,0.8-1
		c0.1-0.1,0.2-0.2,0.3-0.2c-0.1-0.2-0.2-0.4-0.2-0.7c-0.1-0.6-0.1-1.2,0.1-1.7c0.1-0.5,0.4-1.1,0.7-1.5c0.2-0.3,0.4-0.5,0.6-0.7
		l0.1-0.1c-0.1-0.4-0.2-0.9-0.3-1.3c-0.1-0.8,0-1.5,0.3-2.3c0.1-0.1,0.1-0.3,0.2-0.4l0.1-0.1l0.1-0.2c0.1-0.1,0.1-0.2,0.2-0.3
		c0.2-0.3,0.5-0.6,0.8-0.8c0.3-0.3,0.7-0.5,1.1-0.6c0.2-0.1,0.4-0.1,0.6-0.1c0.1-0.1,0.2-0.3,0.3-0.4c0.2-0.3,0.5-0.6,0.9-0.8
		c0.3-0.2,0.7-0.4,1.1-0.4C26.3,8.1,26.5,8,26.7,8h0.1h0.3l0.2,0.5V8c0.2,0,0.3,0,0.5,0c0.2,0,0.4,0,0.6,0.1
		c0.4,0.1,0.8,0.2,1.1,0.5c0.3,0.2,0.6,0.5,0.9,0.8c0.1,0.1,0.1,0.2,0.2,0.3h0.3l0,0c0.4,0,0.7,0,1.1,0.1c0.6,0.2,1.2,0.6,1.6,1.2
		c0.4,0.5,0.7,1,0.9,1.6c0.1,0.3,0.2,0.6,0.2,0.9c0,0.2,0,0.3,0,0.5V14c0.3,0.4,0.6,0.7,0.8,1.1c0.5,0.2,1,0.7,1.2,1.2
		c0.2,0.5,0.2,1-0.1,1.5c-0.1,0.2-0.3,0.3-0.5,0.3v0.1c0,0.3-0.1,0.7-0.2,1l0.2,0.1c0.7,0.4,1.4,0.9,2,1.3c0.6,0.5,1.2,1.1,1.7,1.8
		c0.3,0.4,0.5,0.9,0.7,1.4c0.3,0.4,0.5,0.8,0.6,1.2c0.1,0.2,0.1,0.4,0.1,0.6c0.1,0.4,0.1,0.9,0,1.3c-0.1,0.2-0.2,0.5-0.3,0.7
		c-0.1,0.2-0.3,0.3-0.5,0.5c-0.1,0-0.1,0.1-0.1,0.2c0,0.1,0,0.3,0,0.4l0.3,0.3l0.7,0.6c0.5,0.4,0.9,0.9,1.2,1.5
		c0.2,0.4,0.2,0.7,0.2,1.1c-0.1,0.4-0.2,0.7-0.4,1c-0.4,0.5-0.9,0.8-1.5,1.1v0.3l-0.1,0.8c-0.1,0.6-0.1,1.1-0.2,1.7
		c-0.2,1.1-0.4,2.3-0.7,3.4c-0.3,1.1-0.7,2.2-1.2,3.3c-0.5,1.1-1.2,2.1-2,3c-1.5,1.6-3.4,2.8-5.6,3.4v3.4V57
		c0.2,0.1,0.4,0.2,0.6,0.2c0.4,0.2,0.8,0.4,1.2,0.6c0.4,0.2,0.8,0.5,1.1,0.8c0.4,0.3,0.7,0.6,1,1l0.7,0.8c0.2,0.2,0.2,0.5,0,0.7
		c-0.1,0.1-0.2,0.1-0.3,0.1L27.9,61.3z"/>
	<path style="fill:#FFFFFF;" d="M27.8,8.5L27.8,8.5c0.5,0,1,0.2,1.5,0.5c0.3,0.2,0.5,0.4,0.7,0.7c0.1,0.1,0.2,0.3,0.3,0.4l0.1,0.1
		h0.1c0.1,0,0.3-0.1,0.5-0.1H31c0.3,0,0.5,0,0.8,0.1c0.5,0.2,1,0.5,1.4,1c0.4,0.4,0.6,0.9,0.8,1.4c0.1,0.3,0.2,0.5,0.2,0.8
		c0,0.1,0,0.3,0,0.4c0,0.1,0,0.2,0,0.3c0.4,0.4,0.7,0.9,1,1.4c0.5,0.2,0.9,0.5,1,1c0.2,0.7,0,1.2-0.3,1.2h-0.1l-0.1,0
		c0,0.2,0,0.4,0,0.6c0,0.4-0.1,0.8-0.2,1.1v0.1l0,0l0.2,0.1l0.5,0.3c0.6,0.4,1.3,0.8,1.8,1.3c0.6,0.4,1.1,1,1.5,1.6
		c0.2,0.4,0.4,0.9,0.6,1.3c0.3,0.3,0.4,0.7,0.5,1.1c0,0.2,0.1,0.4,0.1,0.6c0.1,0.4,0.2,0.8,0.1,1.2c-0.1,0.2-0.1,0.4-0.3,0.5
		c-0.1,0.1-0.3,0.3-0.4,0.4c-0.1,0.1-0.2,0.3-0.3,0.5c0,0.2,0,0.4,0,0.5c0.1,0.3,0.3,0.5,0.5,0.6l0.6,0.5c0.4,0.4,0.8,0.8,1.1,1.3
		c0.1,0.3,0.2,0.6,0.1,0.8c0,0.3-0.2,0.6-0.3,0.8c-0.4,0.4-0.9,0.8-1.4,1l-0.2,0.1v0.2v0.4l-0.1,0.8c-0.1,0.6-0.1,1.1-0.2,1.7
		c-0.2,1.1-0.4,2.2-0.7,3.3c-0.3,1.1-0.7,2.1-1.3,3.1c-0.5,1-1.2,2-1.9,2.8c-1.5,1.6-3.5,2.7-5.6,3.3v3.8v3.8
		c0.3,0.1,0.6,0.2,0.9,0.3c0.4,0.2,0.8,0.4,1.2,0.6c0.4,0.2,0.7,0.5,1.1,0.8c0.4,0.3,0.7,0.6,1,0.9l0.7,0.8h-7.4h-6.4h-0.9l0.6-0.7
		c0.3-0.4,0.7-0.8,1.1-1.1c0.4-0.4,0.8-0.7,1.3-1c0.5-0.2,0.9-0.4,1.4-0.6c0.4-0.1,0.8-0.2,1.2-0.3l0.1-7c-0.8,0-1.7-0.2-2.5-0.4
		c-1.9-0.5-3.4-1.9-4-3.8c-0.3-0.9-0.5-1.8-0.6-2.8c-0.2-1.8-0.2-3.7-0.4-5.5c-0.1-1.8-0.5-3.6-1-5.3c-0.5,0-1.1,0.1-1.6,0.1h-0.5
		c-0.4,0-0.7-0.1-1.1-0.1c-0.2,0-0.4-0.1-0.5-0.2c-0.1-0.1-0.2-0.1-0.2-0.2c0-0.1-0.1-0.2-0.1-0.3c0-0.1,0-0.2,0-0.3
		c0-0.1,0-0.2,0.1-0.3c0-0.1,0.1-0.2,0.1-0.3l0.1-0.3c0.2-0.3,0.4-0.6,0.7-0.9c0.5-0.5,0.9-1.1,1.4-1.7c0.4-0.6,0.7-1.2,1-1.9
		c0.3-0.7,0.6-1.3,0.9-2c0.3-0.7,0.6-1.4,1-2c0.2-0.3,0.5-0.6,0.7-0.9c0.2-0.2,0.4-0.3,0.6-0.4c0-0.1-0.1-0.1-0.1-0.2
		C20.1,20.2,20,20,20,19.7c-0.1-0.5-0.1-1,0.1-1.5c0.1-0.5,0.3-0.9,0.6-1.4c0.2-0.2,0.3-0.4,0.5-0.6c0.1-0.1,0.2-0.2,0.3-0.2l0,0
		c-0.2-0.5-0.3-1-0.4-1.6c-0.1-0.7,0-1.4,0.3-2c0.1-0.2,0.1-0.3,0.2-0.5c0.1-0.1,0.2-0.3,0.3-0.4c0.2-0.3,0.5-0.5,0.7-0.8
		c0.3-0.2,0.6-0.4,1-0.5c0.2-0.1,0.5-0.1,0.8-0.1l0.1-0.2c0.1-0.1,0.2-0.3,0.3-0.4C25,9.4,25.3,9.2,25.5,9c0.3-0.2,0.6-0.3,0.9-0.4
		c0.2,0,0.3-0.1,0.5-0.1h0.4C27.5,8.5,27.6,8.5,27.8,8.5 M27.8,7.6c-0.2,0-0.3,0-0.5,0h-0.6c-0.2,0-0.3,0-0.5,0.1
		c-0.4,0.1-0.8,0.3-1.2,0.5c-0.4,0.2-0.7,0.5-1,0.9l-0.2,0.2c-0.1,0-0.3,0.1-0.4,0.1C23,9.5,22.5,9.7,22.1,10
		c-0.3,0.3-0.6,0.6-0.9,0.9c-0.1,0.1-0.2,0.2-0.3,0.4l-0.1,0.1l-0.1,0.1l-0.1,0.1c-0.1,0.2-0.2,0.3-0.2,0.5
		c-0.3,0.8-0.4,1.6-0.3,2.5c0,0.4,0.1,0.7,0.2,1.1c-0.2,0.2-0.4,0.4-0.6,0.6c-0.4,0.5-0.6,1.1-0.8,1.7c-0.2,0.6-0.2,1.3-0.1,2
		c0,0.1,0,0.2,0.1,0.4l0,0c-0.4,0.3-0.7,0.7-0.9,1.1c-0.4,0.7-0.8,1.4-1.1,2.1l-0.3,0.8c-0.2,0.4-0.4,0.8-0.5,1.2
		c-0.3,0.6-0.6,1.2-0.9,1.7c-0.4,0.6-0.8,1.1-1.3,1.6L13.9,29c-0.3,0.3-0.5,0.6-0.7,0.9L13,30.1v0.1v0.1c0,0.1-0.1,0.2-0.1,0.3v0.1
		c0,0.1,0,0.1-0.1,0.2v0.1c0,0.1,0,0.2-0.1,0.4c0,0,0,0.1,0,0.1c0,0.3,0.1,0.7,0.3,1c0.1,0.2,0.3,0.4,0.5,0.6
		c0.3,0.2,0.5,0.3,0.8,0.4c0.4,0.1,0.9,0.2,1.3,0.2h0.5h0.9c0.4,1.4,0.6,2.9,0.7,4.3c0.1,0.8,0.1,1.6,0.2,2.4c0.1,1,0.1,2.1,0.2,3.1
		c0.1,1,0.3,2,0.6,3c0.7,2.2,2.5,3.9,4.7,4.5c0.6,0.2,1.2,0.3,1.7,0.3v5.3l-0.5,0.2c-0.5,0.2-1.1,0.4-1.6,0.7c-0.5,0.3-1,0.6-1.4,1
		c-0.5,0.4-0.9,0.8-1.3,1.2l-0.6,0.7c-0.4,0.4-0.3,1.1,0.1,1.4c0.2,0.2,0.4,0.2,0.7,0.2h0.9H28h7.4c0.5-0.1,0.9-0.6,0.8-1.1
		c0-0.2-0.1-0.4-0.3-0.5l-0.7-0.8c-0.3-0.4-0.7-0.7-1.1-1c-0.4-0.3-0.8-0.6-1.2-0.8c-0.4-0.3-0.8-0.5-1.3-0.7l-0.3-0.1v-3v-3
		c2-0.7,3.9-1.8,5.3-3.4c0.9-0.9,1.6-2,2.1-3.1c0.5-1.1,0.9-2.2,1.3-3.4c0.3-1.1,0.5-2.3,0.7-3.4c0.1-0.5,0.1-1.1,0.2-1.7l0.1-0.8
		l0,0c0.5-0.3,1-0.6,1.4-1.1c0.3-0.4,0.5-0.8,0.5-1.3c0.1-0.5,0-1-0.2-1.4c-0.3-0.7-0.8-1.2-1.3-1.7l-0.7-0.6l0,0l-0.1-0.1l0,0
		c0.2-0.2,0.4-0.3,0.5-0.5c0.2-0.2,0.3-0.5,0.4-0.7v-0.1c0.1-0.5,0.1-1,0-1.5c0-0.2,0-0.5-0.1-0.7c-0.1-0.5-0.3-1-0.6-1.4
		c-0.2-0.5-0.5-1-0.8-1.4c-0.5-0.7-1.1-1.3-1.8-1.9c-0.6-0.5-1.3-0.9-2-1.3c0-0.2,0-0.3,0.1-0.5c0.2-0.1,0.3-0.2,0.5-0.4
		c0.4-0.6,0.4-1.3,0.2-1.9c-0.2-0.6-0.7-1.2-1.3-1.4c-0.2-0.3-0.4-0.6-0.7-0.9c0-0.2,0-0.3,0-0.5c0-0.4-0.1-0.7-0.3-1.1
		c-0.2-0.6-0.6-1.2-1-1.7c-0.5-0.6-1.1-1.1-1.8-1.3c-0.4-0.2-0.8-0.2-1.2-0.3h-0.1L30.8,9c-0.3-0.3-0.6-0.6-0.9-0.9
		c-0.4-0.3-0.8-0.5-1.3-0.6C28.3,7.5,28.1,7.5,27.8,7.6L27.8,7.6z"/>
	<path style="fill:#C29935;" d="M39.7,28.9c0-1.4,0.5-0.7,0.9-1.9c0.3-0.8-0.8-3.7-2-4.9c-1.5-1.5-3.6-2.4-3.5-2.6
		c0.3-0.9,0.3-1.8,0.2-2.7c-0.2-1-0.7-1.9-1.5-2.5c0,0,0.5-1.1-0.9-2.8c-0.6-0.9-1.8-1.3-2.8-0.9c-0.4-1.2-1.6-1.9-2.8-1.7
		c-1.2-0.1-2.2,0.6-2.6,1.7c-1.1-0.1-2.2,0.6-2.7,1.6c-1,1.7,0,4.1,0,4.1s-1,0.1-1.6,1.9c-0.4,0.9-0.2,2,0.5,2.7
		c-1.7-0.1-2.6,3.2-4,5.8s-3.5,3.6-3.1,5c0.4,1,4,0.5,4,0.5c2.7,7.7-1.1,16.7,7.8,17.5c0.3,0,0.7,0,1,0.1v7.6
		c-2,0.3-3.8,1.3-5.1,2.8h12.8c-1.1-1.3-2.6-2.2-4.2-2.7v-8.2c2.2-0.5,4.3-1.6,5.9-3.3C39,43,39.8,37.5,40.1,34c0-0.2,1.9-0.6,1.9-2
		S39.7,29.5,39.7,28.9z"/>
	<path style="fill:#F0C530;" d="M30.2,10.6c0,0-3.1-3.9-5.4,0c-2,0.3-3.4,2.1-3.1,4.1c0.4,1.6,0.2,1.6,0.2,1.6s-2.3,1.6-1.4,3.9
		c0.3,0.9,0.5,0.9,0.5,0.9s-1.6,0.1-1.2,2.2c0.2,2,1.8,3.1,5,4c1.6,1.1,2.8,2.8,3.3,4.7c1,0.7,1.9,1.5,2.8,2.4c1,1.2,2.7,1.4,4,0.6
		c1.2-1.2,2.5-4.4,3.1-6c0-1.6-0.5-3.1-1.3-4.4c0.5-1.8,0-3.7-1.3-5c0.1-1.4,0.4-4.1-1.5-5.3C33.9,13,33,10,30.2,10.6z"/>
	<path style="fill:#8D752F;" d="M39.7,28.9c0-0.2,0-0.4,0-0.6c0-0.1,0.1-0.2,0.1-0.3c0-0.1,0.1-0.2,0.2-0.2c0.1-0.1,0.3-0.2,0.4-0.4
		c0.1-0.1,0.2-0.3,0.2-0.5c0.1-0.4,0-0.7-0.1-1.1c-0.1-0.3-0.2-0.7-0.3-1c-0.3-0.7-0.6-1.3-1-2c-0.4-0.6-0.9-1.1-1.5-1.5
		c-0.6-0.4-1.2-0.8-1.9-1.2l-0.5-0.3c-0.1-0.1-0.2-0.1-0.3-0.2c0,0,0-0.1,0-0.1c0,0,0-0.1,0-0.1l0,0v-0.1v-0.1
		c0.1-0.4,0.1-0.7,0.2-1.1c0-0.4,0-0.7,0-1.1c0-0.3-0.1-0.7-0.3-1c-0.3-0.6-0.7-1.2-1.3-1.7l-0.1-0.1l0-0.2c0-0.1,0-0.2,0-0.3
		c0-0.1,0-0.2,0-0.3c0-0.2-0.1-0.5-0.2-0.7c-0.2-0.4-0.4-0.9-0.8-1.2c-0.3-0.3-0.7-0.6-1.1-0.8c-0.2-0.1-0.4-0.1-0.6-0.1
		c-0.1,0-0.2,0-0.3,0c-0.1,0-0.2,0.1-0.3,0.1l-0.3,0.2l-0.2-0.3l-0.2-0.4c-0.1-0.1-0.1-0.2-0.2-0.3c-0.2-0.2-0.4-0.4-0.6-0.5
		c-0.2-0.1-0.4-0.2-0.7-0.3c-0.1,0-0.2,0-0.4,0c-0.1,0-0.2,0-0.3,0H27c-0.1,0-0.2,0-0.4,0.1c-0.2,0-0.4,0.1-0.6,0.3
		c-0.2,0.1-0.4,0.3-0.5,0.5c-0.1,0.2-0.2,0.4-0.3,0.6l-0.1,0.3h-0.3c-0.5,0-1.1,0.1-1.5,0.5c-0.2,0.2-0.4,0.4-0.6,0.6
		c-0.1,0.1-0.2,0.2-0.3,0.4c-0.1,0.1-0.1,0.2-0.2,0.4c-0.2,0.5-0.3,1.1-0.3,1.6c0.1,0.6,0.2,1.2,0.4,1.7l-0.3,0.5H22l-0.1,0
		c-0.1,0-0.2,0.1-0.2,0.1c-0.2,0.1-0.3,0.3-0.4,0.4c-0.2,0.3-0.4,0.7-0.6,1.1c-0.1,0.4-0.2,0.8-0.1,1.2c0,0.2,0.1,0.4,0.2,0.6
		c0.1,0.2,0.2,0.3,0.3,0.5l0.5,0.5h-0.7c-0.3,0-0.6,0.1-0.8,0.3c-0.3,0.2-0.5,0.5-0.7,0.8c-0.4,0.6-0.7,1.2-1,1.9
		c-0.3,0.6-0.6,1.3-0.9,2c-0.3,0.6-0.7,1.2-1.1,1.8c-0.4,0.6-0.9,1.1-1.4,1.7c-0.2,0.3-0.5,0.5-0.7,0.8c-0.2,0.3-0.3,0.6-0.3,0.9
		c0,0.1,0,0.1,0.1,0.2c0,0.1,0.1,0.1,0.1,0.1c0.1,0.1,0.3,0.2,0.4,0.2c0.3,0.1,0.7,0.1,1,0.1c0.7,0,1.4,0,2.2-0.1H18v0.1
		c0.6,1.8,1,3.6,1.1,5.4c0.2,1.8,0.3,3.7,0.5,5.5c0.1,0.9,0.3,1.8,0.6,2.6c0.3,0.8,0.8,1.6,1.4,2.2c0.7,0.6,1.5,1,2.3,1.2
		c0.9,0.2,1.8,0.3,2.7,0.3h0.3v0.3l0.1,7.7v0.3l-0.4,0.1c-0.5,0.1-0.9,0.2-1.4,0.3c-0.4,0.2-0.9,0.4-1.3,0.6
		c-0.4,0.2-0.8,0.5-1.2,0.8c-0.4,0.3-0.7,0.6-1,1l-0.3-0.7h6.4h6.4l-0.4,0.8c-0.3-0.3-0.5-0.6-0.8-0.8c-0.3-0.3-0.7-0.5-1-0.7
		c-0.3-0.2-0.7-0.4-1-0.6c-0.4-0.2-0.7-0.3-1.1-0.4L29.6,58v-0.3v-4.1v-4.1v-0.3l0.3-0.1c2.1-0.4,4.1-1.5,5.7-3
		c1.5-1.6,2.6-3.6,3.2-5.7c0.3-1.1,0.6-2.2,0.8-3.3c0.1-0.5,0.2-1.1,0.3-1.7l0.1-0.8v-0.4V34l0,0c0.1,0,0.1-0.1,0.2-0.1
		c0.5-0.2,1-0.5,1.4-0.9c0.2-0.2,0.3-0.5,0.3-0.7c0-0.3,0-0.5-0.1-0.8c-0.2-0.5-0.6-0.9-1-1.3l-0.6-0.6c-0.1-0.1-0.2-0.2-0.3-0.3
		C39.7,29.2,39.7,29,39.7,28.9z M39.8,28.9c0.1,0.3,0.3,0.5,0.5,0.6l0.6,0.5c0.4,0.4,0.8,0.8,1.1,1.3c0.1,0.3,0.2,0.6,0.1,0.8
		c0,0.3-0.2,0.6-0.3,0.8c-0.4,0.4-0.9,0.8-1.4,1l-0.2,0.1l0,0l0,0l0,0v0.2v0.4l-0.1,0.8c-0.1,0.6-0.1,1.1-0.2,1.7
		c-0.2,1.1-0.4,2.2-0.7,3.3c-0.3,1.1-0.7,2.1-1.2,3.2c-0.5,1-1.2,2-1.9,2.8c-1.6,1.7-3.7,2.9-5.9,3.4l0.3-0.4v4.1v4.1l-0.3-0.5
		c0.4,0.1,0.8,0.3,1.2,0.5c0.4,0.2,0.8,0.4,1.2,0.6c0.4,0.2,0.7,0.5,1.1,0.8c0.4,0.3,0.7,0.6,1,0.9l0.7,0.8h-7.4h-6.4h-0.9l0.6-0.7
		c0.3-0.4,0.7-0.8,1.1-1.1c0.4-0.4,0.8-0.7,1.3-1c0.5-0.2,0.9-0.4,1.4-0.6c0.5-0.2,1-0.3,1.5-0.4l-0.4,0.4l0.1-7.6l0.3,0.3
		c-0.9,0-1.9-0.2-2.8-0.4c-1.9-0.5-3.4-1.9-4-3.8c-0.3-0.9-0.5-1.8-0.6-2.8c-0.2-1.8-0.2-3.7-0.4-5.5c-0.1-1.8-0.4-3.6-1-5.4
		l0.1,0.1c-0.7,0.1-1.5,0.1-2.2,0.1c-0.4,0-0.7-0.1-1.1-0.1c-0.2,0-0.4-0.1-0.5-0.2c-0.1-0.1-0.2-0.1-0.2-0.2c0-0.1-0.1-0.2-0.1-0.3
		c0-0.1,0-0.2,0-0.3c0-0.1,0-0.2,0.1-0.3c0-0.1,0.1-0.2,0.1-0.3l0.1-0.3c0.2-0.3,0.4-0.6,0.7-0.9c0.5-0.5,0.9-1.1,1.4-1.7
		c0.4-0.6,0.7-1.2,1-1.9c0.3-0.7,0.6-1.3,0.9-2c0.3-0.7,0.6-1.4,1-2c0.2-0.3,0.5-0.6,0.7-0.9c0.3-0.3,0.7-0.5,1.2-0.5l-0.2,0.5
		c-0.2-0.2-0.3-0.4-0.5-0.6c-0.1-0.2-0.2-0.5-0.2-0.7c-0.1-0.5-0.1-1,0.1-1.5c0.1-0.5,0.3-0.9,0.6-1.4c0.2-0.2,0.3-0.4,0.5-0.6
		c0.1-0.1,0.2-0.2,0.3-0.2l0.2-0.1c0.1,0,0.2-0.1,0.2-0.1l-0.3,0.5c-0.3-0.6-0.4-1.3-0.5-1.9c-0.1-0.7,0-1.4,0.3-2
		c0.1-0.2,0.1-0.3,0.2-0.5c0.1-0.1,0.2-0.3,0.3-0.4c0.2-0.3,0.5-0.5,0.7-0.8c0.3-0.2,0.6-0.4,1-0.5c0.3-0.1,0.7-0.1,1.1-0.1
		l-0.4,0.3c0-0.2,0.1-0.3,0.2-0.5c0.1-0.1,0.2-0.3,0.3-0.4c0.2-0.2,0.4-0.4,0.6-0.6c0.3-0.2,0.6-0.3,0.9-0.4c0.2,0,0.3-0.1,0.5-0.1
		h0.4c0.2,0,0.4,0,0.5,0c0.5,0,1,0.2,1.5,0.5c0.3,0.2,0.5,0.4,0.7,0.7c0.1,0.1,0.2,0.3,0.3,0.4l0.2,0.4L30,10.4
		c0.1-0.1,0.3-0.1,0.5-0.2c0.1,0,0.3-0.1,0.5-0.1c0.3,0,0.6,0,0.9,0.1c0.5,0.2,1,0.5,1.4,1c0.3,0.4,0.6,0.9,0.8,1.3
		c0.1,0.3,0.2,0.5,0.2,0.8c0,0.1,0,0.3,0,0.4c0,0.2,0,0.3-0.1,0.5L34,14.1c0.6,0.5,1,1.2,1.3,1.9c0.1,0.4,0.2,0.7,0.2,1.1
		c0,0.4,0,0.8,0,1.1c0,0.4-0.1,0.8-0.2,1.1v0.1v0.1l0,0c0,0,0,0,0-0.1l0,0c0.1,0.1,0.1,0.1,0.2,0.1L36,20c0.6,0.4,1.3,0.8,1.8,1.3
		c0.6,0.4,1.1,1,1.5,1.6c0.4,0.6,0.7,1.3,1,2c0.1,0.3,0.2,0.7,0.3,1.1c0.1,0.4,0.1,0.7,0,1.1c-0.1,0.2-0.1,0.4-0.3,0.5
		c-0.1,0.1-0.2,0.3-0.4,0.4c-0.1,0.1-0.2,0.3-0.3,0.5C39.8,28.5,39.8,28.7,39.8,28.9z"/>
	<path style="fill:#C29935;" d="M27.8,37.5c-0.3-1.3-0.5-2.7-0.7-4c0-1-0.2-2-0.4-3c-0.9-2.3-3.5-1.6-5.1-0.6
		c-0.3,0.2-0.7,0.4-1,0.7c-1-0.3-2,0.2-2.3,1.1c-0.2,0.7-0.1,1.4,0.4,1.9c0.6,0.6,0.2,2.2,0.2,2.9c0,1.4,0.2,2.7,0.4,4.1
		c0.2,1.8,0.8,3.5,1.6,5.2c0.8,1.6,2.4,2.8,4.2,3.2c2.4,0.4,3.4-0.9,3.7-3.1C29.2,43,28.4,40.3,27.8,37.5z"/>
	<path style="fill:#FAE7B0;" d="M24.8,11.5c1,0.1,1.7,1,1.6,1.9c-0.1,1.7-0.8,2.6-2,2.7s-2.4-0.9-1.8-3.1S24.8,11.5,24.8,11.5z"/>
	<path style="fill:#FAE7B0;" d="M20.9,23.4c0,0,0-1.5,0.7-2c0.8-0.5,1.7-0.2,2.2,0.5c0.1,0.1,0.2,0.3,0.2,0.5
		c0.4,1.1-0.1,2.3-1.1,2.7c0,0,0,0-0.1,0c-0.9,0.2-1.8-0.4-1.9-1.3C20.9,23.6,20.9,23.5,20.9,23.4z"/>
	<path style="fill:#F7DC8D;" d="M25,25.3c0,0,0-1.5,0.7-2c0.8-0.5,1.7-0.2,2.2,0.5c0.1,0.1,0.2,0.3,0.2,0.5c0.4,1.1-0.1,2.3-1.1,2.7
		c0,0,0,0-0.1,0c-0.9,0.2-1.8-0.4-1.9-1.3C25,25.6,25,25.5,25,25.3z"/>
	<path style="fill:#FAE7B0;" d="M23.5,16.9c0,0,1.4,0.1,1.5,1.3c0.1,1-0.6,2-1.6,2.1c-0.1,0-0.3,0-0.4,0c-1.2-0.2-1.4-1.6-1.3-2
		c0-0.9,0.8-1.5,1.6-1.5C23.3,16.9,23.4,16.9,23.5,16.9z"/>
	<path style="fill:#FAE7B0;" d="M27.5,9.3c0,0,1.2,0.1,1.6,1c0.2,0.8-0.2,1.6-1,1.8c-0.1,0-0.3,0.1-0.4,0.1c-1,0.1-2.4-0.7-2.1-1.9
		S27.5,9.3,27.5,9.3z"/>
	<path style="fill:#FAE7B0;" d="M30,12.3c0,0-0.2-0.9,0.5-1.3c0.7-0.2,1.4,0.1,1.6,0.8c0.2,0.5,0.1,1.3-0.5,1.6
		c-0.7,0.2-1.4-0.1-1.6-0.8C30,12.4,30,12.3,30,12.3z"/>
	<path style="fill:#FFFFFF;" d="M23.9,18.6c0.6-1.1,2-2.6,4.8-1.5s1.5,4.1,1.4,4.6c-0.1,0.8-3.5,2.7-5.6,0.7
		C23.4,21.4,23.2,19.8,23.9,18.6z"/>
	<path style="fill:#CCA639;" d="M23.9,18.6c0.2-0.4,0.5-0.8,0.8-1.1c0.3-0.3,0.7-0.6,1.1-0.8c0.4-0.2,0.9-0.3,1.4-0.2
		c0.5,0,0.9,0.2,1.4,0.3c0.4,0.2,0.8,0.4,1.2,0.8c0.3,0.3,0.5,0.8,0.6,1.2c0.2,0.9,0.1,1.8-0.2,2.7v0.2v0.1c0,0,0,0.1,0,0.1
		c-0.1,0.1-0.1,0.2-0.2,0.3c-0.2,0.2-0.3,0.3-0.5,0.5c-0.4,0.3-0.8,0.5-1.3,0.6c-0.9,0.3-1.9,0.3-2.8,0c-0.5-0.2-0.9-0.5-1.2-0.8
		c-0.3-0.4-0.6-0.8-0.7-1.3c-0.1-0.5-0.1-0.9,0-1.4C23.6,19.4,23.7,19,23.9,18.6z M23.9,18.6c-0.4,0.8-0.4,1.7-0.1,2.5
		c0.2,0.4,0.4,0.7,0.7,1c0.3,0.3,0.6,0.5,1,0.6c0.8,0.3,1.6,0.3,2.4,0c0.4-0.1,0.8-0.3,1.2-0.5c0.2-0.1,0.3-0.2,0.5-0.4
		c0.1-0.1,0.1-0.1,0.2-0.2l0,0v-0.1l0.1-0.2c0.2-0.4,0.3-0.8,0.4-1.3c0.1-0.4,0.1-0.9,0-1.3c0-0.2-0.1-0.4-0.2-0.6
		c-0.1-0.2-0.3-0.3-0.4-0.5c-0.3-0.3-0.7-0.5-1.1-0.6c-0.8-0.3-1.7-0.4-2.5-0.3c-0.4,0.1-0.8,0.3-1.2,0.5
		C24.4,17.8,24.1,18.2,23.9,18.6L23.9,18.6z"/>
	<path style="fill:#F6D77B;" d="M35.5,24.7c0,0,0,1.8-1.3,1.3c-0.9-0.5-1.4-1.6-1.2-2.6c0.1-0.6,1.5-1,1.9-0.3
		C35.1,23.5,35.3,24.1,35.5,24.7z"/>
	<path style="fill:#F7DC8D;" d="M36.3,22.3c0,0,0,1-0.7,0.7c-0.5-0.3-0.8-0.9-0.7-1.5c0-0.4,0.9-0.6,1.1-0.2
		C36.1,21.6,36.2,21.9,36.3,22.3z"/>
	<path d="M25.4,17.8c0,0,1.6-2,3.9,0.1c1.1,0.8,1.4,2.4,0.6,3.6c-0.3,0.4-0.7,0.7-1.2,0.9c-1,0.1-2.8,0.3-3.5-1.4
		C24.6,19.9,24.7,18.7,25.4,17.8z"/>
	<path style="fill:#FFFFFF;" d="M31.3,19.3c0,0,0.7-1.3,1.8-1.2s2.2,1,1.9,2.8s-1.6,2.4-2.8,1.9S30.8,21,31.3,19.3z"/>
	<path style="fill:#CCA639;" d="M31.3,19.3c0.1-0.3,0.3-0.5,0.5-0.7c0.2-0.2,0.5-0.4,0.8-0.6c0.3-0.1,0.7-0.1,1-0.1
		c0.3,0.1,0.6,0.2,0.9,0.4c0.2,0.2,0.4,0.5,0.5,0.8c0.1,0.3,0.2,0.6,0.2,0.9c0,0.6,0,1.2-0.2,1.8c-0.1,0.3-0.3,0.6-0.5,0.8
		c-0.2,0.2-0.6,0.4-0.9,0.5c-0.7,0.1-1.4,0-1.9-0.4c-0.3-0.2-0.5-0.5-0.6-0.8c-0.1-0.3-0.2-0.7-0.2-1C30.9,20.5,31.1,19.9,31.3,19.3
		z M31.3,19.3c-0.2,0.6-0.2,1.2-0.1,1.7c0.1,0.5,0.3,1,0.8,1.3c0.2,0.1,0.5,0.2,0.7,0.3c0.3,0.1,0.5,0.1,0.8,0
		c0.5-0.1,1-0.4,1.2-0.9c0.3-0.5,0.4-1.1,0.3-1.6c-0.1-0.6-0.4-1.1-0.8-1.4c-0.2-0.1-0.5-0.2-0.7-0.3c-0.2-0.1-0.5-0.1-0.8-0.1
		C32.1,18.5,31.6,18.8,31.3,19.3L31.3,19.3z"/>
	<path d="M32.8,22.4c0,0,1.8-0.1,2-1.7s-0.4-2.4-1.7-2.5s-1.8,1.5-1.8,1.8S30.9,22.2,32.8,22.4z"/>
	<path style="fill:#FAE7B0;" d="M32.9,15.1c0.3-0.3,0.8-0.3,1.1,0c0.1,0.1,0.1,0.1,0.1,0.2c0.4,0.6,0.9,1.4,0.6,2.2s-1,0.3-1.4-0.1
		S32.3,15.7,32.9,15.1z"/>
	<path style="fill:#FAE7B0;" d="M28.6,12.6c0,0,0.6-0.1,1.5,1.4c0.5,0.7,0.3,1.7-0.4,2.2c-0.3,0.2-0.7,0.3-1.1,0.3
		c-1.1-0.1-1.9-1.1-1.7-2.2c0-0.2,0.1-0.4,0.2-0.6C27.4,12.1,28.6,12.6,28.6,12.6z"/>
	<path style="fill:#F6D77B;" d="M36.2,28.1c0,0,0.2,1.9-0.7,2.1s-1.4-0.8-1.5-1.7s0.2-1.9,0.8-1.9S36.1,26.9,36.2,28.1z"/>
	<path style="fill:#F6D77B;" d="M32.4,32.2C31.4,32,30.8,31,31,30c0.1-1.9,0.8-2,1.3-2c0.5,0,1.5,0.3,1.5,2.1S33.2,32.2,32.4,32.2z"
		/>
	<path style="fill:#F6D77B;" d="M32,35.2c0,0-0.1-2.4,1.2-2.4s1.6,1.9,1.6,1.9S34.1,36,32,35.2z"/>
	<path style="fill:#F6D77B;" d="M35.3,34.3c0,0-0.9-2-0.2-2.7s1.5,0.5,1.5,0.5S36.2,33.8,35.3,34.3z"/>
	<path style="fill:#8D752F;" d="M24.4,31.6c0.2,0.1,0.4,0.2,0.5,0.5c0.1,0.2,0.1,0.5,0,0.7c-0.1,0.2-0.2,0.4-0.3,0.7
		c-0.1,0.2-0.2,0.4-0.3,0.6c-0.2,0.4-0.5,0.8-0.7,1.2c-0.1,0.2-0.3,0.4-0.4,0.6L23.1,36L23,36.2l0,0l-0.5-0.6l0,0l0,0l0.1-0.1
		l0.1-0.1l0,0c0.1-0.1,0.2-0.3,0.4-0.4c0.1-0.1,0.2-0.1,0.4-0.2c0.1,0,0.2,0,0.3,0c0.1,0,0.2,0.1,0.3,0.3c0,0.1,0.1,0.1,0.1,0.2
		c0,0,0,0.1,0,0.2c0,0.1,0,0.1,0,0.2c0,0.1-0.1,0.2-0.1,0.3c-0.1,0.2-0.2,0.3-0.4,0.4l-0.4-0.5c0.2-0.1,0.4-0.2,0.6-0.2l0.6-0.2
		c0.4-0.1,0.8-0.2,1.2-0.2h0.1l0,0c0.2,0.2,0.3,0.3,0.4,0.5c0.1,0.2,0.2,0.4,0.2,0.6c0.1,0.2,0.1,0.4,0.1,0.6c0,0.2,0,0.4,0.1,0.6
		v0.1h-0.1c-1.2,0.5-2.5,0.8-3.8,0.9c-0.3,0-0.6,0-1,0H21c-0.2,0-0.4,0-0.6-0.1c-0.4-0.1-0.8-0.4-1-0.8c-0.2-0.4-0.2-0.8-0.2-1.2
		c0.1-0.6,0.4-1.3,0.7-1.8c0.1-0.1,0.2-0.3,0.3-0.4l0.3-0.4c0.2-0.3,0.4-0.5,0.5-0.8c0.4-0.5,0.9-1,1.4-1.4c0.3-0.2,0.6-0.3,1-0.3
		C23.8,31.4,24.1,31.4,24.4,31.6z M24.4,31.7c-0.3-0.2-0.6-0.2-0.9-0.2c-0.3,0-0.6,0.2-0.8,0.4c-0.4,0.4-0.8,1-1,1.5l-0.4,0.9
		l-0.2,0.4l-0.2,0.4c-0.3,0.5-0.4,1.1-0.5,1.7c0,0.2,0,0.5,0.1,0.7c0.1,0.2,0.2,0.3,0.4,0.3c0.1,0,0.2,0.1,0.4,0.1h0.5
		c0.3,0,0.6,0,0.9,0c1.2,0,2.5-0.1,3.7-0.5l-0.1,0.2c0-0.2,0-0.4,0-0.6c0-0.2-0.1-0.4-0.1-0.6c-0.1-0.2-0.1-0.4-0.2-0.5
		c-0.1-0.2-0.2-0.3-0.3-0.4h0.1c-0.3,0.1-0.7,0.2-1,0.3L24.1,36l-0.5,0.3l-1.5,1l1.1-1.5c0.1-0.1,0.2-0.2,0.2-0.4c0,0,0-0.1,0.1-0.2
		l0,0l0,0c0,0,0,0,0,0.1c0,0,0,0.1,0,0.1h0c0,0,0.1,0,0.1,0h-0.1c-0.1,0.1-0.2,0.2-0.3,0.3l0,0l0,0l-0.1,0.1l-0.1,0.1l0,0l0,0
		l-0.5-0.6l0,0l0.1-0.1l0.1-0.1l0.5-0.5c0.3-0.3,0.6-0.7,0.9-1c0.3-0.3,0.6-0.7,0.8-1.1c0.1-0.2,0.1-0.4,0-0.6
		C24.8,31.8,24.5,31.7,24.4,31.7L24.4,31.7z"/>
	<path style="fill:#8D752F;" d="M27.8,31.6c0.6,0.4,1.1,0.8,1.6,1.3s1,0.9,1.5,1.3c0.2,0.2,0.5,0.5,0.7,0.7c0.1,0.1,0.3,0.2,0.4,0.3
		c0.1,0.1,0.3,0.1,0.5,0.2c0.6,0.2,1.3,0.1,1.9-0.2c0.1-0.1,0.3-0.2,0.4-0.3c0.1-0.1,0.2-0.2,0.3-0.3l0.2-0.2l0.1-0.2
		c0.1-0.1,0.2-0.3,0.3-0.4c0.3-0.6,0.6-1.1,0.8-1.7c0.5-1.2,1-2.5,1.3-3.8H38c0,0.7-0.1,1.3-0.2,2c-0.1,0.7-0.3,1.4-0.6,2
		c-0.3,0.7-0.6,1.3-1,1.8c-0.4,0.6-1,1.1-1.6,1.4c-0.7,0.3-1.4,0.3-2.1,0.1c-0.4-0.1-0.7-0.2-1-0.4c-0.3-0.2-0.6-0.4-0.9-0.6
		c-0.5-0.4-1-0.9-1.5-1.4C28.6,32.7,28.2,32.2,27.8,31.6L27.8,31.6z"/>
	<path style="fill:#8D752F;" d="M14.3,31.4c1.1,0.1,2.2,0,3.3-0.3c0.6,0,1.1-0.2,1.7-0.3c0.3-0.1,0.5-0.2,0.8-0.4
		c0.3-0.1,0.5-0.3,0.7-0.5c0.5-0.4,1-0.7,1.5-0.9c0.6-0.3,1.2-0.5,1.8-0.6h0.3h0.3c0.2,0,0.4,0,0.5,0.1c0.3,0.1,0.6,0.3,0.9,0.6
		c0.2,0.3,0.4,0.5,0.5,0.9c0,0.1,0.1,0.3,0.1,0.4s0,0.3,0.1,0.5h-0.1c-0.3-0.5-0.6-0.9-1.1-1.3l-0.1-0.1l-0.1-0.1c0,0-0.1,0-0.1-0.1
		h-0.1c-0.1,0-0.2,0-0.3,0h-0.2h-0.2c-0.5,0.1-1,0.2-1.5,0.4l-0.8,0.3L21,30.4c-0.3,0.1-0.5,0.2-0.8,0.3l-0.4,0.2l-0.4,0.2
		c-0.5,0.3-1.1,0.6-1.6,0.8L17.4,32L16.9,32c-0.3,0-0.6,0-0.9,0c-0.3,0-0.6-0.1-0.9-0.2C14.8,31.7,14.5,31.6,14.3,31.4L14.3,31.4z"
		/>
	<path style="fill:#8D752F;" d="M20.7,21c-0.5,0.5-0.8,1.1-0.9,1.7c0,0.6,0.2,1.3,0.6,1.8c0.4,0.5,0.8,1,1.4,1.3
		c0.6,0.3,1.2,0.6,1.9,0.8c0.3,0.1,0.7,0.2,1,0.4c0.4,0.1,0.7,0.3,1,0.6c0.5,0.5,1,1.1,1.3,1.7c0.3,0.6,0.6,1.3,0.9,1.9
		c0.1,0.3,0.3,0.7,0.4,1c0.1,0.3,0.2,0.7,0.4,1c0.4,1.3,0.8,2.7,0.9,4.1c0,0.3,0.1,0.7,0.1,1.1l0.1,1.1c0,0.7,0,1.4,0,2.1
		c0,1.4-0.1,2.8-0.3,4.2c-0.1,0.7-0.2,1.4-0.4,2.1c-0.1,0.3-0.2,0.7-0.3,1c-0.1,0.3-0.3,0.6-0.5,0.9h-0.1c0.2-0.6,0.4-1.3,0.5-2
		c0.1-0.7,0.1-1.4,0.1-2.1c0-1.4,0-2.8,0-4.2v-2.1v-1c0-0.3,0-0.7,0-1c-0.1-1.4-0.3-2.7-0.5-4.1c-0.1-0.7-0.3-1.3-0.5-2
		c-0.2-0.7-0.5-1.3-0.9-1.9c-0.3-0.6-0.8-1.1-1.3-1.5c-0.3-0.2-0.6-0.3-0.9-0.4c-0.3-0.1-0.7-0.2-1-0.3c-0.7-0.2-1.4-0.4-2-0.8
		c-0.2-0.1-0.4-0.2-0.5-0.4c-0.2-0.1-0.3-0.2-0.4-0.4c-0.3-0.3-0.5-0.6-0.7-0.9c-0.4-0.7-0.6-1.4-0.4-2.2C19.6,22,20,21.4,20.7,21
		L20.7,21z"/>
	<path style="fill:#F0C530;" d="M14.3,30.6c0.9,0.1,1.8-0.1,2.7-0.4l0.3-0.1l0.3-0.1c0.2-0.1,0.4-0.2,0.6-0.3
		c0.4-0.2,0.9-0.5,1.3-0.7c0.9-0.4,1.9-0.8,2.8-1c0.5-0.1,1-0.2,1.5-0.2c0.5,0,1,0.1,1.5,0.4c-0.9-0.1-1.9,0.2-2.7,0.6
		c-0.9,0.4-1.7,0.8-2.5,1.3l-1.3,0.7c-0.2,0.1-0.5,0.2-0.7,0.3l-0.4,0.1l-0.4,0.1c-0.5,0.1-1.1,0.1-1.6,0
		C15.2,31.2,14.7,31,14.3,30.6z"/>
	<path style="fill:#F0C530;" d="M20,25.3c-0.1,0.5-0.3,0.9-0.5,1.4c-0.2,0.4-0.4,0.9-0.7,1.3c-0.3,0.4-0.6,0.8-0.9,1.1
		c-0.3,0.4-0.8,0.6-1.2,0.8c0.3-0.4,0.6-0.7,0.9-1.1s0.5-0.8,0.8-1.2s0.5-0.8,0.8-1.2C19.4,26,19.7,25.7,20,25.3z"/>
	<path style="fill:#F0C530;" d="M21.4,26.6c-0.3,0.4-0.6,0.9-0.9,1.3c-0.1,0.2-0.3,0.5-0.5,0.7c-0.2,0.2-0.4,0.4-0.6,0.5
		c0.3-0.4,0.6-0.9,0.8-1.4c0.1-0.2,0.3-0.5,0.5-0.7C21,26.8,21.2,26.7,21.4,26.6z"/>
	<path style="fill:#F0C530;" d="M19.1,23.7c-0.3,1.1-0.7,2.1-1.1,3.2c-0.2,0.5-0.4,1.1-0.7,1.5c-0.3,0.5-0.8,0.9-1.3,1.1
		c0.5-0.3,0.9-0.7,1.1-1.2c0.3-0.5,0.5-1,0.7-1.5C18.1,25.7,18.6,24.6,19.1,23.7z"/>
	<path style="fill:#8D752F;" d="M35.2,19.5c0.4,0.3,0.8,0.6,1.1,1c0.3,0.4,0.5,0.8,0.7,1.3c0.2,0.5,0.3,1,0.3,1.5c0,0.2,0,0.5,0,0.8
		c0,0.3-0.1,0.5-0.2,0.8L37,24.4c0.4,0.5,0.7,1,0.9,1.6c0.1,0.3,0.2,0.6,0.3,0.9c0,0.3,0.1,0.6,0.1,0.9c0.1,1.2,0.1,2.3,0.1,3.5
		l0.1,3.5c0,1.2,0,2.3-0.1,3.5c-0.1,0.6-0.2,1.2-0.3,1.7c-0.1,0.3-0.2,0.6-0.3,0.9c-0.1,0.3-0.2,0.6-0.3,0.8c-0.5,1.1-1.1,2.1-1.8,3
		c-0.7,1-1.5,1.8-2.3,2.6c-0.9,0.8-1.8,1.5-2.9,2v-0.1c1.8-1.4,3.3-3.1,4.5-5.1c0.6-0.9,1.2-1.9,1.7-2.9c0.5-1,0.8-2.1,1-3.2
		c0.5-2.3,0.6-4.6,0.5-6.9c-0.1-1.1-0.2-2.3-0.5-3.4c0-0.3-0.1-0.6-0.2-0.8c-0.1-0.3-0.2-0.5-0.3-0.8c-0.2-0.5-0.5-1-0.8-1.4
		l-0.1-0.2l0.1-0.2c0.1-0.4,0.2-0.8,0.2-1.3c0-0.4,0-0.9-0.1-1.3c-0.1-0.4-0.3-0.9-0.5-1.3C35.7,20.3,35.4,19.9,35.2,19.5L35.2,19.5
		z"/>
	<path style="fill:#F0C530;" d="M20.4,36c0.2-0.8,0.5-1.5,0.8-2.2c0.2-0.3,0.4-0.7,0.6-1c0.1-0.1,0.1-0.2,0.2-0.3l0.2-0.2l0.4-0.4
		c0.2-0.2,0.3-0.3,0.6-0.4c0.1-0.1,0.3-0.1,0.4,0c0.1,0,0.3,0.1,0.4,0.1c0.1,0.1,0.2,0.2,0.3,0.3c0.1,0.1,0.1,0.3,0.1,0.4
		c0,0.2-0.1,0.4-0.2,0.6c-0.2,0.4-0.4,0.7-0.6,1c-0.2,0.3-0.5,0.6-0.8,0.9c0.2-0.3,0.3-0.7,0.5-1c0.2-0.3,0.3-0.7,0.4-1
		c0.1-0.2,0.1-0.3,0.1-0.5c0-0.1,0-0.2-0.1-0.2L23.5,32c0,0-0.1,0-0.1,0c-0.1,0.1-0.3,0.2-0.4,0.3l-0.4,0.4l-0.2,0.2l-0.2,0.2
		c-0.2,0.3-0.4,0.6-0.6,0.9C21.3,34.7,20.9,35.3,20.4,36z"/>
	<path style="fill:#FAE7B0;" d="M29.1,33.6c0.8,0.7,1.6,1.2,2.5,1.8c0.4,0.2,0.8,0.4,1.3,0.5h0.3h0.4c0.2,0,0.5-0.1,0.7-0.1
		c0.4-0.1,0.8-0.3,1.2-0.6c0.4-0.3,0.7-0.7,0.9-1.1c0.5-0.9,1-1.8,1.4-2.7c-0.1,1-0.3,2.1-0.8,3c-0.2,0.5-0.6,1-1,1.3
		c-0.4,0.4-0.9,0.7-1.5,0.8c-0.3,0.1-0.5,0.1-0.8,0.1h-0.4c-0.7,0-1.5-0.3-2-0.8C30.3,35.2,29.6,34.5,29.1,33.6z"/>
	<path style="fill:#8D752F;" d="M38.4,30.3c-0.2-0.4-0.4-0.9-0.5-1.3c-0.1-0.4-0.2-0.9-0.2-1.3c0-0.5,0.1-0.9,0.1-1.4
		c0-0.4-0.1-0.9-0.1-1.3c0-0.1,0-0.2,0-0.4c0-0.1,0-0.1,0-0.2c0-0.1,0-0.2,0-0.2c0-0.1,0.1-0.2,0.1-0.4c0.1-0.2,0.2-0.3,0.3-0.4
		c0.1-0.1,0.2-0.1,0.3-0.1c0.1,0,0.2,0,0.3,0c0.2,0,0.3,0.1,0.5,0.2c0.2,0.1,0.4,0.3,0.6,0.5c0.3,0.4,0.6,0.8,0.7,1.3
		c0.1,0.5,0.1,1-0.2,1.5h-0.1c0-0.4-0.2-0.8-0.4-1.2c-0.2-0.3-0.5-0.7-0.7-0.9c-0.1-0.1-0.3-0.3-0.4-0.4l-0.1-0.1l0,0
		c0,0-0.1,0-0.1,0.1s-0.1,0.2-0.2,0.3v0.1c0,0,0,0.1,0,0.1c0,0.1-0.1,0.2-0.1,0.3c-0.1,0.4-0.1,0.9,0,1.3c0.1,0.4,0.2,0.9,0.3,1.3
		c0.1,0.4,0.1,0.9,0.1,1.3c0,0.5-0.1,0.9-0.2,1.4L38.4,30.3z"/>
	<path style="fill:#F0C530;" d="M25.6,28.3c0.6,0.7,1.2,1.4,1.6,2.2c0.4,0.8,0.8,1.7,1.1,2.6c0.5,1.8,0.9,3.6,1,5.4
		c0.1,1.8,0.1,3.6,0,5.5c-0.1,0.9-0.2,1.8-0.4,2.7c-0.1,0.4-0.2,0.9-0.4,1.3c-0.1,0.4-0.3,0.9-0.6,1.2c0.2-0.9,0.4-1.8,0.4-2.7
		c0.1-0.9,0.1-1.8,0.1-2.7c0-1.8-0.1-3.6-0.2-5.3c-0.1-1.8-0.4-3.5-0.7-5.3c-0.2-0.9-0.4-1.7-0.7-2.6C26.4,29.9,26,29.1,25.6,28.3z"
		/>
	<path style="fill:#F0C530;" d="M20.2,43.3c0.2,0.8,0.5,1.6,0.8,2.3c0.2,0.4,0.4,0.7,0.7,1c0.1,0.1,0.3,0.3,0.4,0.4l0.2,0.2l0.1,0.1
		l0.1,0.1l0.2,0.2l0.3,0.1c0.2,0.1,0.4,0.2,0.5,0.3c0.4,0.2,0.7,0.3,1.1,0.4c0.4,0.1,0.8,0.2,1.2,0.2c0.4,0,0.8,0,1.2,0.1
		c-0.4,0.1-0.8,0.2-1.2,0.2c-0.4,0.1-0.9,0.1-1.3,0c-0.4-0.1-0.8-0.2-1.3-0.3c-0.2-0.1-0.4-0.2-0.6-0.3L22.6,48l-0.3-0.2
		c-0.7-0.5-1.3-1.2-1.6-2C20.3,45,20.2,44.2,20.2,43.3z"/>
	<path style="fill:#F0C530;" d="M20.2,38.8c0.1,0.6,0.3,1.2,0.4,1.9s0.2,1.2,0.4,1.8s0.3,1.2,0.5,1.8s0.3,1.2,0.5,1.8
		c-0.4-0.5-0.7-1.1-0.9-1.7c-0.2-0.6-0.4-1.2-0.6-1.8c-0.2-0.6-0.2-1.3-0.3-1.9C20.1,40.1,20.1,39.4,20.2,38.8z"/>
	<path style="fill:#F0C530;" d="M21.4,38.8c0.2,0.4,0.3,0.9,0.4,1.3c0.1,0.4,0.2,0.9,0.3,1.3s0.1,0.9,0.2,1.3s0.1,0.9,0.2,1.3
		c-0.3-0.4-0.5-0.8-0.6-1.2c-0.1-0.4-0.3-0.9-0.3-1.3c-0.1-0.4-0.1-0.9-0.1-1.4C21.3,39.7,21.4,39.3,21.4,38.8z"/>
	<path style="fill:#F0C530;" d="M23.9,45.4c0.2,0.5,0.4,1,0.5,1.5l0.2,0.7l0.2,0.8c-0.3-0.1-0.5-0.3-0.6-0.5
		c-0.1-0.2-0.3-0.5-0.3-0.8c-0.1-0.3-0.1-0.5-0.1-0.8C23.8,45.9,23.8,45.7,23.9,45.4z"/>
	<path style="fill:#F0C530;" d="M24.8,42.8c0.1,1,0.2,2,0.3,3c0.1,0.5,0.1,1,0.3,1.4c0.1,0.5,0.3,1,0.5,1.4c-0.4-0.3-0.7-0.8-1-1.2
		c-0.2-0.5-0.3-1-0.4-1.5c-0.1-0.5-0.1-1,0-1.5C24.5,43.8,24.6,43.3,24.8,42.8z"/>
	<path style="fill:#F0C530;" d="M26.3,39.3c0.3,0.6,0.5,1.2,0.6,1.8c0.1,0.6,0.2,1.2,0.2,1.8c0,0.6,0,1.2-0.1,1.9
		c-0.1,0.6-0.2,1.2-0.4,1.8c0-0.6,0-1.2,0-1.8s0-1.2-0.1-1.8s-0.1-1.2-0.1-1.8S26.3,39.9,26.3,39.3z"/>
	<path style="fill:#F0C530;" d="M27.8,41.2c0.2,0.7,0.3,1.3,0.3,2c0,0.7,0,1.3,0,2c0,0.7-0.1,1.3-0.3,2c0,0.2-0.1,0.3-0.1,0.5
		l-0.2,0.5c-0.1,0.2-0.2,0.3-0.2,0.5c-0.1,0.1-0.2,0.3-0.3,0.4c0.2-0.6,0.4-1.3,0.4-2c0.1-0.6,0.1-1.3,0.1-1.9l0.1-1.9
		C27.7,42.5,27.7,41.9,27.8,41.2z"/>
	<path style="fill:#F0C530;" d="M39.2,37.6c-0.2,1.2-0.5,2.4-0.9,3.5c-0.4,1.2-1,2.2-1.8,3.2c-0.8,0.9-1.6,1.7-2.6,2.5
		c-0.9,0.8-1.9,1.5-3,2.1c0.9-0.8,1.8-1.6,2.6-2.4c0.4-0.4,0.8-0.8,1.3-1.3s0.8-0.9,1.2-1.3c0.4-0.4,0.7-0.9,1-1.4
		c0.3-0.5,0.5-1,0.8-1.6C38.4,39.9,38.8,38.8,39.2,37.6z"/>
	<path style="fill:#FFFFFF;" d="M26.9,18c0,0,0.7,1,0.3,1.3S26,18.5,26,18.5s-0.4-0.7,0-0.9S26.9,18,26.9,18z"/>
	<path style="fill:#FFFFFF;" d="M32.4,19.3c0.1-0.1,0.4-0.2,0.7,0.4s0.2,0.9,0.1,1s-0.7-0.1-0.8-0.7S32.3,19.4,32.4,19.3z"/>
	<path style="fill:#F0C530;" d="M25.9,35.7l1.1-1.3c0.4-0.5,0.5-0.7,0.7-0.6c0.3,0.2,0.3,0.6,0.1,0.9c0,0,1.1-0.7,1.6-0.5
		s0.5,0.7,0.4,1.2s-0.2,1.3-0.7,1.5c-1.1,0.2-2.1,0.3-3.2,0.4c-0.3,0.1-0.7-1.5-0.7-1.5L25.9,35.7z"/>
	<path style="fill:#8D752F;" d="M25.9,35.7c0.2-0.3,0.3-0.5,0.5-0.8s0.3-0.5,0.5-0.7s0.2-0.2,0.3-0.4c0.1-0.1,0.2-0.2,0.3-0.2
		c0.1,0,0.2,0,0.3,0c0.1,0,0.1,0.1,0.2,0.1c0.1,0.2,0.2,0.4,0.2,0.6c0,0.2-0.1,0.4-0.2,0.6l-0.3-0.3c0.4-0.2,0.8-0.3,1.2-0.4
		c0.2-0.1,0.5,0,0.7,0c0.1,0,0.2,0.1,0.3,0.2c0.1,0.1,0.1,0.2,0.1,0.3c0,0.2,0,0.4,0,0.6c0,0.2,0,0.4,0,0.6c0,0.2-0.1,0.4-0.2,0.7
		c0,0.1-0.1,0.2-0.2,0.3c-0.1,0.1-0.2,0.2-0.3,0.3c-0.2,0.1-0.4,0.1-0.7,0.2L28,37.5c-0.4,0.1-0.8,0.1-1.2,0.1h-0.6h-0.2
		c-0.1,0-0.2-0.1-0.2-0.1l-0.1-0.1c-0.1-0.1-0.1-0.2-0.2-0.3c-0.1-0.4-0.2-0.8-0.3-1.2v-0.1h0.1L25.9,35.7z M25.9,35.7L25.3,36
		l0.1-0.2c0.2,0.4,0.3,0.8,0.5,1.1c0,0.1,0.1,0.1,0.1,0.2l0,0c0,0-0.1,0-0.1,0l0,0H26l0.6-0.1c0.4,0,0.8-0.1,1.2-0.1l0.6,0
		c0.2,0,0.4,0,0.5-0.1c0.1-0.1,0.2-0.2,0.3-0.3c0.1-0.2,0.2-0.3,0.2-0.5c0.1-0.2,0.1-0.4,0.1-0.6c0.1-0.2,0.1-0.4,0.1-0.6
		c0-0.2-0.1-0.3-0.3-0.4c-0.2-0.1-0.4-0.1-0.5,0c-0.4,0.1-0.7,0.3-1,0.6l-0.8,0.5l0.5-0.9c0-0.1,0.1-0.2,0-0.3
		c0-0.1-0.1-0.2-0.1-0.3l0,0c0,0,0,0,0.1,0c0,0,0,0,0,0l-0.3,0.3c-0.2,0.2-0.4,0.5-0.7,0.7S26.2,35.5,25.9,35.7L25.9,35.7z"/>
	<path style="fill:#8D752F;" d="M30,18.3c-0.3-0.5-0.8-1-1.4-1.2c-0.6-0.2-1.2-0.3-1.8-0.3c-0.6,0-1.2,0.2-1.7,0.5
		c-0.5,0.3-1,0.8-1.4,1.3c0.1-0.7,0.4-1.4,1-1.9c0.6-0.5,1.3-0.7,2.1-0.7c0.7,0,1.5,0.2,2.1,0.6C29.5,17,29.9,17.6,30,18.3z"/>
	<path style="fill:#8D752F;" d="M31.5,19.1c0-0.5,0.2-1,0.6-1.2c0.2-0.1,0.4-0.2,0.7-0.3c0.2,0,0.5,0,0.7,0c0.5,0.1,1,0.3,1.3,0.8
		c0.3,0.4,0.4,0.9,0.3,1.3c-0.2-0.3-0.5-0.6-0.8-0.9c-0.3-0.2-0.6-0.3-0.9-0.4c-0.3-0.1-0.7-0.1-1,0C32.1,18.6,31.7,18.8,31.5,19.1z
		"/>
	<path style="fill:#F7DC8D;" d="M27.8,23.6c0.4-0.3,0.9-0.5,1.3-0.4c0.3,0,0.5,0.1,0.7,0.2l0.6,0.3l0.6,0.3c0.2,0.1,0.4,0.1,0.5,0.1
		c0.4,0,0.8-0.1,1.2-0.4c-0.1,0.2-0.2,0.4-0.4,0.6c-0.4,0.3-1,0.4-1.5,0.2c-0.2-0.1-0.4-0.1-0.7-0.2c-0.2-0.1-0.4-0.2-0.6-0.3
		c-0.2-0.1-0.4-0.2-0.5-0.2C28.7,23.5,28.2,23.5,27.8,23.6z"/>
	<path style="fill:#F7DC8D;" d="M26.3,25.1c0,0.3,0,0.6,0,0.9c0,0.1,0.1,0.2,0.1,0.4v0l0.1,0.1l0.2,0.1c0.5,0.3,1,0.5,1.6,0.6
		c0.6,0.1,1.2,0.2,1.8,0.1c0.3,0,0.6,0,0.9-0.1c0.3,0,0.6-0.2,0.8-0.4c-0.2,0.3-0.4,0.5-0.7,0.6c-0.3,0.1-0.6,0.2-0.9,0.3
		c-0.6,0.1-1.3,0.1-1.9,0c-0.6-0.1-1.2-0.4-1.7-0.8l-0.2-0.2l-0.1-0.1c0,0-0.1-0.1-0.1-0.1C26,26.4,26,26.2,26,26
		C26.1,25.7,26.2,25.4,26.3,25.1z"/>
	<path style="fill:#FAE7B0;" d="M27.2,35.6c0.2-0.2,0.4-0.4,0.6-0.5c0.2-0.2,0.4-0.3,0.6-0.4c0.2-0.1,0.5-0.2,0.8-0.3h0.1h0.1
		c0.1,0,0.1,0.1,0.2,0.1c0.1,0,0.1,0.1,0.1,0.2c0,0.1,0,0.1,0,0.2c0-0.1,0-0.1-0.1-0.2c0,0-0.1-0.1-0.1-0.1h-0.2h-0.1h-0.1
		c-0.2,0.1-0.4,0.2-0.6,0.3C28.1,35.2,27.7,35.5,27.2,35.6z"/>
	<path style="fill:#F0C530;" d="M37.7,31.7c0,0-0.2-0.7,0.1-0.8s0.6-0.1,0.8,0.5c0.3,0.9,0.5,3.1-0.6,3.2s-1.3-1.2-1.2-2.1
		S37.1,31.6,37.7,31.7z"/>
	<path style="fill:#8D752F;" d="M37.7,35.1c-0.3,0-0.6-0.1-0.8-0.3c-0.5-0.6-0.7-1.4-0.5-2.2c0-0.4,0.2-0.8,0.5-1.1
		c0.1-0.1,0.2-0.1,0.4-0.1c0-0.1,0-0.3,0.1-0.4c0.1-0.1,0.2-0.2,0.3-0.3c0.3-0.1,0.9-0.3,1.2,0.7c0.3,1,0.3,2.2-0.1,3.2
		c-0.2,0.3-0.5,0.5-0.8,0.5L37.7,35.1z M37.3,32.1L37.3,32.1c-0.1,0-0.2,0.1-0.2,0.6c-0.1,0.5,0,1.1,0.3,1.6
		c0.1,0.1,0.3,0.2,0.5,0.1c0.1,0,0.2-0.1,0.3-0.2c0.3-0.8,0.3-1.7,0-2.6c0-0.1-0.1-0.2-0.1-0.3l0,0c0,0.1,0,0.2,0.1,0.3l0.2,0.6
		l-0.7-0.2C37.5,32,37.4,32,37.3,32.1L37.3,32.1z"/>
	<path style="fill:#8D752F;" d="M40.1,30.4c-0.2,0.1-0.3,0.3-0.4,0.5c0,0,0,0.1-0.1,0.1l0,0l0,0c0,0.1,0,0.1,0.1,0.2H40h0.3
		c0.1,0,0.3,0.1,0.4,0.1l0.9,0.4l-0.9-0.2c-0.3-0.1-0.7,0-1,0.1c-0.1,0-0.3,0.1-0.4,0.2c0,0,0,0,0,0.1c0,0,0,0,0,0.1
		c0,0.1,0,0.1,0,0.2c-0.1,0.3-0.1,0.7-0.1,1c0,0.3-0.1,0.7-0.1,1l-0.1-0.2h0l0,0.1c0.1,0,0.2,0,0.2,0c0.1,0,0.2,0,0.3,0h0.3v0
		c-0.1,0.2-0.3,0.3-0.5,0.3c-0.1,0-0.2,0-0.3,0h-0.2c-0.1,0-0.1,0-0.2-0.1l-0.1,0v-0.2c0-0.3,0-0.7,0-1c0-0.4,0.1-0.7,0.2-1.1
		c0-0.1,0.1-0.2,0.1-0.3c0-0.1,0.1-0.1,0.1-0.1c0,0,0.1-0.1,0.2-0.1c0.2-0.1,0.4-0.1,0.6-0.1c0.4,0,0.7,0,1-0.1l-0.1,0.3
		c-0.2,0-0.4,0-0.6,0.1h-0.2h-0.2c-0.1,0-0.2,0-0.3-0.1c-0.1,0-0.2-0.1-0.2-0.2c-0.1-0.1-0.1-0.3-0.1-0.5c0,0,0-0.1,0-0.1
		c0,0,0-0.1,0.1-0.1c0-0.1,0.1-0.1,0.2-0.1C39.5,30.4,39.8,30.3,40.1,30.4L40.1,30.4z"/>
	<path style="fill:#F0C530;" d="M23.7,59.4c0.5-0.5,1.1-0.8,1.7-1.1c0.6-0.3,1.3-0.4,2-0.4c0.7,0,1.3,0,2,0.2c0.7,0.2,1.3,0.5,1.8,1
		c-0.6-0.2-1.3-0.3-1.9-0.3c-0.6,0-1.3,0-1.9,0c-0.6,0-1.2,0.1-1.9,0.2L23.7,59.4z"/>
	<path style="fill:#F0C530;" d="M27.7,49.8c0.2,0.6,0.4,1.3,0.5,2c0.1,0.7,0.1,1.4,0.2,2c0,0.7,0,1.4-0.1,2.1
		c-0.1,0.7-0.2,1.4-0.4,2.1c-0.2-0.6-0.4-1.3-0.5-2c-0.1-0.7-0.2-1.4-0.2-2c0-0.7,0-1.4,0.1-2.1C27.3,51.2,27.5,50.5,27.7,49.8z"/>
	<path style="fill:#F0C530;" d="M22.7,37.3c0.1-0.2,0.3-0.3,0.4-0.5c0.2-0.1,0.3-0.3,0.5-0.4c0.2-0.1,0.4-0.2,0.6-0.3
		c0.2-0.1,0.4-0.1,0.6-0.2c-0.4,0.3-0.7,0.5-1,0.7C23.4,36.9,23.1,37.1,22.7,37.3z"/>
	<path style="fill:#CCA639;" d="M33,23.6c-0.2,0.5-0.7,0.9-1.2,1h-0.3c-1.2-0.1-2.1-1-2.8-1s-1.5,0-2,1.6s2.4,1.6,3,1.6
		s2-0.1,2.1-0.9c0.1-0.3,0.1-0.7-0.1-1"/>
	<path style="fill:#8D752F;" d="M33.1,23.6c-0.1,0.3-0.2,0.7-0.5,0.9c-0.3,0.2-0.6,0.4-1,0.4c-0.7,0-1.3-0.2-1.9-0.6
		c-0.3-0.2-0.5-0.3-0.8-0.4h-0.1h-0.4c-0.2,0-0.3,0-0.5,0.1c-0.3,0.1-0.5,0.3-0.7,0.6c-0.2,0.3-0.3,0.6-0.3,0.9
		c-0.1,0.2,0,0.5,0.1,0.7c0.2,0.2,0.4,0.3,0.7,0.4c0.6,0.1,1.2,0.2,1.8,0.2c0.3,0,0.6,0,0.9,0c0.3,0,0.6-0.1,0.9-0.2
		c0.1,0,0.2-0.1,0.3-0.2c0,0,0.1-0.1,0.1-0.1c0-0.1,0-0.1,0-0.2c0.1-0.3,0.1-0.6-0.1-0.9l0,0c0.1,0.1,0.2,0.3,0.2,0.5
		c0,0.2,0.1,0.3,0.1,0.5c0,0.1,0,0.2,0,0.3c0,0.1,0,0.2-0.1,0.3c-0.1,0.2-0.2,0.3-0.4,0.4c-0.3,0.2-0.6,0.3-1,0.3
		c-0.3,0-0.7,0.1-1,0.1c-0.7,0-1.4-0.1-2-0.3c-0.4-0.1-0.7-0.3-0.9-0.6c-0.1-0.2-0.2-0.4-0.2-0.6c0-0.2,0.1-0.4,0.1-0.5
		c0.1-0.3,0.3-0.6,0.5-0.9c0.2-0.3,0.5-0.5,0.8-0.6c0.2-0.1,0.3-0.1,0.5-0.1h0.3h0.3c0.3,0,0.7,0.1,1,0.3c0.5,0.3,1.1,0.5,1.7,0.6
		c0.3,0,0.6,0,0.8-0.2c0.3-0.2,0.5-0.4,0.6-0.7L33.1,23.6z"/>
	<path style="fill:#FFFFFF;" d="M28.6,24c0.3,0.3,0.6,0.6,1,0.8c0.5,0.2,1.5,0.4,1.5,0.2s0.1,1.1-1.4,0.8S28.5,24.4,28.6,24z"/>
	<path style="fill:#C29935;" d="M34.1,15.3c0,0,1.8,0.1,2.1,1.2c0.3,0.8,0,1.3-0.5,1.2s-0.8-1-1.4-1s-1.8,0.5-2-0.1
		S33,15.3,34.1,15.3z"/>
	<path style="fill:#C29935;" d="M25.6,14.3c-0.2-1,1.7-2.5,3.8-1.4c2.4,1.3,2,2.6,1.6,3.1c-0.3,0.4-0.9,0.4-1.3,0.1
		c-0.1-0.1-0.2-0.3-0.3-0.5c-0.2-0.7-0.8-1.2-1.5-1.3C27.1,14.2,25.9,15.5,25.6,14.3z"/>
	<path style="fill:#F6D77B;" d="M29,27.8c0.5,0.1,0.9,0.4,0.9,1.9s-0.1,2.1-0.9,2.1s-1.3-1.1-1.3-2.5S28.5,27.7,29,27.8z"/>
	<circle style="fill:#FFFFFF;" cx="28" cy="20.9" r="0.4"/>
	<circle style="fill:#FFFFFF;" cx="33.7" cy="21.4" r="0.4"/>
	<path style="fill:#8D752F;" d="M26.2,14.7c0.2-0.4,0.5-0.7,1-0.9c0.4-0.2,0.9-0.2,1.4-0.1c0.2,0.1,0.4,0.2,0.6,0.3
		c0.2,0.1,0.4,0.3,0.5,0.5c0.1,0.2,0.2,0.4,0.2,0.7c0,0.2,0,0.4-0.1,0.6c-0.1-0.2-0.1-0.4-0.2-0.6c-0.1-0.2-0.2-0.3-0.3-0.4
		c-0.3-0.2-0.6-0.4-0.9-0.5c-0.3-0.1-0.7-0.1-1,0C27,14.4,26.6,14.5,26.2,14.7z"/>
	<path style="fill:#8D752F;" d="M32.8,16.7c0.2-0.2,0.5-0.4,0.8-0.5c0.3-0.1,0.7-0.1,1,0c0.3,0.1,0.6,0.3,0.8,0.5
		c0.2,0.2,0.3,0.6,0.3,0.9c-0.1-0.3-0.2-0.5-0.4-0.7c-0.2-0.2-0.5-0.3-0.7-0.4C33.9,16.4,33.3,16.5,32.8,16.7z"/>
	<path style="fill:#F0C530;" d="M30,34.8c0.1,0.7,0,1.4-0.3,2.1c0.2,1.2,0.9,9-0.3,11.7c1.7-0.8,7.4-4.8,8.3-13.5
		c-0.4-0.1-0.7-0.3-1-0.5c-0.6,1.3-1.9,2-3.3,2.1C31.2,36.5,30.9,35.4,30,34.8z"/>
</g>
</svg>
