<?xml version="1.0" encoding="utf-8"?>
<!-- Generator: Adobe Illustrator 22.0.0, SVG Export Plug-In . SVG Version: 6.00 Build 0)  -->
<svg version="1.1" id="Слой_1" xmlns="http://www.w3.org/2000/svg" xmlns:xlink="http://www.w3.org/1999/xlink" x="0px" y="0px"
	 viewBox="0 0 55.8 62.9" style="enable-background:new 0 0 55.8 62.9;" xml:space="preserve">
<title>12_1</title>
<path style="fill:#AE832F;" d="M18.8,61.3c-0.2,0-0.5-0.1-0.6-0.3c-0.1-0.3-0.1-0.7,0.1-1c0-0.1,0.1-0.1,0.1-0.2l5.4-3.7v-9.5h-0.7
	c-0.6,0-1.2-0.1-1.7-0.4c-0.3-0.1-1.8,0.8-2,0.7l-0.3-0.2l-0.3-0.3L18.5,46c-1.6-1.5-2.4-3.6-2.2-5.8v-0.1c0-0.8,1.2-2.7,1.3-3.3
	v-0.1l0,0c-0.9-1.3-1.6-2.8-1.9-4.3c-0.4-1.3-0.6-2.6-0.7-4h-0.1l-0.3-0.1c-0.5-0.1-1-0.5-1.1-1l-0.1-0.1c-0.3-0.3-0.5-0.6-0.6-1
	c-0.1-0.3-0.1-0.7-0.1-1c0-0.3,0.1-0.5,0.4-0.6c-0.1-0.1-0.2-0.2-0.4-0.3h-0.1c-0.5,0-0.9-0.1-1.2-0.5c-0.3-0.3-0.5-0.6-0.7-0.9
	c-0.4-1.1-0.5-2.4-0.1-3.5c0.3-0.9,0.6-1.8,1-2.6l0,0c0-0.1-0.1-0.1-0.1-0.2c-0.3-0.5,0.5-0.4,1.3-1.2l0.1-0.1
	c1.7-1.9,3.8-3.4,6.2-4.4c0.5-0.2,0.9-0.3,1.3-0.5l0.7-0.2l0.6-0.1l0.4-0.1l0.5-0.1l0.7-0.1l1-0.1L25,9.6l0.8-0.1l1-0.1h0.8
	c8.6,0,10.9,1.5,12.5,2.5l0.5,0.3c1.4,0.9,2.7,2.1,3.8,3.4l0.1,0.1c0.4,0.2,0.6,0.8,0.3,1.2c0,0.1-0.1,0.1-0.1,0.2
	c0,0.1,0,0.1-0.1,0.1l-0.1,0.1c0.5,1.3,0.9,2.6,1.2,4c0.1,1.2,0.2,3.4-0.7,4c-0.2,0.2-0.3,0.3-0.5,0.3c-0.1,0.4-0.3,0.7-0.6,0.9
	c-0.1,0.1-0.3,0.1-0.4,0.1l0,0c-0.1,0-0.3,0-0.4-0.1l-0.2,0.2C43,26.8,43,26.9,43,27c0.2,0.4,0,0.9-0.6,1.4c-0.3,0.4-0.7,0.8-1.2,1
	L41,29.5c-0.4,0.2-0.8,0.3-1.2,0.4c-0.1,1.2-0.3,2.4-0.6,3.5c-0.1,0.2-0.1,0.5-0.2,0.7c-0.2,1-0.7,2-1.4,2.7
	c0.1,1.2,0.2,2.5,0.2,3.7v0.7c0,1.9,1,4.5-0.7,5.4c-0.2,0.1-0.5,0.3-0.7,0.4l-0.3,0.2l-0.5,0.2l-2.6-1l-0.5,0.1L32,46.7l-0.4,0.1
	h-0.2v9.5c1,0.6,5,3.1,5.4,3.5c0.2,0.1,0.3,0.3,0.4,0.5c0.1,0.3,0.1,0.7-0.2,0.9c-0.1,0.1-0.2,0.1-0.3,0.2L18.8,61.3z M35.6,27.3
	c0.1,0.3,0.2,0.7,0.4,1.2c0.4-0.7,0.6-1,0.8-1.3C36.8,27.2,35.6,27.3,35.6,27.3z M19.2,28l0.2-1l-1-0.2L19.2,28z"/>
<path style="fill:#FFFFFF;" d="M27.3,9.8c9.4,0,11.1,1.8,12.8,2.7c1.3,0.9,2.6,2,3.6,3.3c0.2,0.3,0.7,0.6,0.3,1l-0.3,0.3l0,0
	c0.5,1.3,0.9,2.7,1.2,4.1c0.1,1,0.1,3.1-0.5,3.6c-0.2,0.2-0.4,0.3-0.5,0.4h-0.1c0,0.3-0.1,0.6-0.4,0.8c-0.1,0-0.1,0.1-0.2,0.1l0,0
	c-0.2,0-0.3-0.1-0.5-0.1h-0.1c-0.1,0.2-0.3,0.4-0.5,0.5h-0.2c-0.2,0-0.5-0.1-0.7-0.2L41,26.6h0.1c0.1,0,0.1,0,0.1,0.1
	s0.1,0.1,0.2,0.1H42c0.2,0.1,0.4,0.2,0.4,0.4c0,0.3-0.1,0.7-0.4,0.9l0,0c-0.3,0.4-0.7,0.7-1.1,0.9l-0.2,0.1c-0.5,0.2-1,0.3-1.5,0.4
	c-0.1,1.3-0.3,2.6-0.6,3.9c-0.1,0.2-0.1,0.5-0.2,0.7c-0.1,1-0.6,1.9-1.4,2.6l0,0c0.1,1.5,0.2,2.8,0.2,3.9v0.7l0,0
	c-0.1,1.7,1,4.2-0.5,5l0,0c-0.2,0.2-0.5,0.3-0.7,0.4l-0.3,0.1h-0.1l-2.3-0.9h-0.1l-0.4-0.1h-0.1l-0.4,0.1h-0.1L32,46l0,0l-0.3,0.1
	h-0.1l-0.4,0.1H31v10.2c0,0,5.2,3.2,5.6,3.6c0.1,0.1,0.2,0.2,0.2,0.3c0.1,0.1,0.1,0.3,0,0.4h-18c-0.4,0-0.1-0.6-0.1-0.6l5.6-3.9V46
	c-0.1,0-0.2-0.1-0.3-0.1h-0.9c-0.5,0.1-1,0.1-1.5,0c-0.3-0.1-1.7,0.8-2,0.7l-0.3-0.2l0,0l-0.1-0.1L19,46.1L18.9,46l-0.2-0.2l0,0
	c-1.4-1.5-2.2-3.5-2-5.6l0,0c0-0.9,1.3-2.8,1.3-3.5v-0.3l0,0c-0.9-1.3-1.5-2.7-1.9-4.2l0,0c-0.4-1.3-0.6-2.6-0.7-4
	c0-0.2-0.2-0.4-0.4-0.5c-0.6-0.2-1-0.1-1.2-0.8l0,0c-0.2-0.3-0.5-0.4-0.6-0.9c-0.1-0.3-0.1-0.6-0.1-0.9c0-0.2,0.4-0.3,0.6-0.3
	c0.2,0,0.3-0.1,0.4-0.2l0,0c-0.7-0.3-1.2-0.6-1.2-1l0,0l0.1-0.2l0,0l-0.1,0.2h-0.4c-0.3,0-0.6-0.1-0.9-0.3c-0.3-0.2-0.5-0.5-0.6-0.8
	c-0.4-1-0.4-2.1-0.1-3.1c0.3-1,0.7-2,1.2-3c0,0-0.4,0-0.4-0.1s0.2,0.4,1.2-0.7c1.7-1.9,3.8-3.4,6.2-4.4h0.1c0.4-0.2,0.8-0.3,1.2-0.4
	h0.1l0.3-0.1l0.2-0.1l0.3-0.2h0.4l0.4-0.1l0.5-0.1l0.3-0.1l0.4-0.1h0.3L24,9.8h0.2l0.7-0.1L27.3,9.8 M16.7,25.8
	c-0.2-0.1-0.3-0.1-0.5-0.2l-0.6-0.3c0.3,0.1,0.5,0.2,0.8,0.4L16.7,25.8 M16.7,25.8L16.7,25.8l0.4,0.2l2.4,3.2l0.1-0.4l0,0l0.4-2.1
	l-0.3-0.1C18.7,26.4,17.7,26.1,16.7,25.8L16.7,25.8 M15,25.9L15,25.9 M35.7,29.9L35.7,29.9c0.1-0.3,0.3-0.7,0.5-1
	c0.3-0.6,0.6-1.1,1-1.6c0.4-0.2,0.8-0.3,1.2-0.3c0.1,0,0.2,0,0.3,0.1c-0.1-0.1-0.1-0.2,0-0.2l-4-0.1V27l0.2,0.6
	C35.3,28.3,35.6,29.1,35.7,29.9 M27.3,8.8h-2.6L24,8.9h-0.3L23.2,9h-0.3l-0.4,0.1h-0.3l-0.5,0.1l-0.4,0.1L21,9.4l-0.4,0.1l-0.2,0.1
	l-0.2-0.1h-0.1c-0.5,0.1-0.9,0.3-1.3,0.5h-0.1c-2.5,1-4.7,2.5-6.4,4.5l-0.1,0.1c-0.3,0.4-2,0.7-1.4,1.8l0,0
	c-0.4,0.8-0.7,1.6-0.9,2.4c-0.4,1.3-0.4,2.7,0.1,3.9l0,0c0.2,0.4,0.5,0.8,0.8,1.1c0.3,0.3,0.8,0.5,1.2,0.6c-0.1,0.2-0.1,0.3-0.1,0.5
	c0,0.4,0.1,0.7,0.2,1.1c0.1,0.4,0.3,0.8,0.7,1.1c0.2,0.6,0.8,1.1,1.5,1.2h0.1c0.1,1.3,0.4,2.6,0.7,3.8c0.3,1.7,1,3.3,1.9,4.8
	c0,0.6-1.3,2.5-1.3,3.3l0,0v0.1c-0.2,2.3,0.7,4.6,2.4,6.2l0.3,0.2l0.1,0.1l0.2,0.2l0.1,0.1h0.1l0.2,0.2c0.3,0.2,1.8-0.7,2.1-0.5
	c0.6,0.3,1.2,0.4,1.8,0.4h0.2v8.7l-5.1,3.6l-0.3,0.3c-0.3,0.5-0.3,1-0.1,1.5c0.2,0.4,0.6,0.6,1,0.6h18c0.3,0,0.5-0.1,0.7-0.3
	c0.4-0.4,0.5-0.9,0.3-1.4c-0.1-0.3-0.3-0.6-0.6-0.7c-0.5-0.4-3.9-2.5-5.2-3.3v-8.8h0.4l0.3-0.1h0.1l0.4-0.1h0.1l2.3,0.9h0.1l0.3-0.1
	H36l0.4-0.2c0.2-0.1,0.5-0.3,0.7-0.4c1.8-1,0.8-3.8,1-5.8v-0.7c0-1.1-0.1-2.3-0.2-3.4c0.7-0.8,1.2-1.8,1.4-2.8
	c0.1-0.2,0.1-0.5,0.2-0.7c0.2-1.1,0.4-2.3,0.5-3.5l1-0.3l0.3-0.1c0.6-0.3,1.1-0.7,1.4-1.2c0.5-0.4,0.7-1,0.7-1.6l0,0
	c0.2,0,0.4-0.1,0.6-0.1c0.4-0.2,0.7-0.6,0.8-1l0.3-0.3c0.8-0.6,1.1-2.1,0.9-4.5c-0.2-1.3-0.6-2.6-1.1-3.8c0.4-0.6,0.3-1.5-0.3-2
	l-0.1-0.1c-1.1-1.3-2.4-2.5-3.9-3.5l-0.5-0.3C38.5,10.4,36.1,8.8,27.3,8.8L27.3,8.8z"/>
<path style="fill:#C69943;" d="M19.7,30.1c-0.1,1.2-0.3,3-0.5,2.4c-0.3-0.8-1.9-5.5-2.8-6.3s-1.2-0.2-1.8-0.4
	c-0.4-0.2-0.7-0.6-0.9-1h-0.1c-0.2,0-0.6,0.1-0.6,0.3c0,0.5,0.1,1.1,0.5,1.5c0.4,0.4,0.3,0.7,0.8,0.9s1.1,0.2,1,0.7
	c0.2,3,1.2,6,2.9,8.5C16.5,34.5,20.6,40.2,19.7,30.1z"/>
<path style="fill:#AE832F;" d="M14.7,25.8c0.6,0.2,0.7-0.4,1.6,0.4s1.4,5.6,0.9,12.4c0,0.6,2.5-7.3,2.6-8.5c0-0.2,0-0.5-0.1-0.7
	l-2.5-3.4c-0.7-0.3-1.3-0.6-1.9-0.9c-0.2-0.1-0.4-0.3-0.5-0.5c0,0-0.4-0.3-0.6-0.2c-0.1,0.2-0.2,0.3-0.4,0.3
	C13.9,25.1,14.3,25.5,14.7,25.8z"/>
<path style="fill:#C69943;" d="M24.3,44.9v11.5l-5.6,3.9c0,0-0.3,0.6,0.1,0.6h18c0,0,0.3-0.3-0.2-0.6S31,56.7,31,56.7V44.8
	L24.3,44.9z"/>
<path style="fill:#976A2E;" d="M24.5,56.3c0,0,0-8.7,2.9-8.7s3.5,8.9,3.5,8.9V43.4c0,0-6.6,1.3-6.6,1.5S24.5,56.3,24.5,56.3z"/>
<path style="fill:#AE832F;" d="M41.7,26.7c-0.1,0-0.4,0.1-0.5-0.1s-0.3,0-0.4,0s-0.6,0.5-1,0.6S38.9,27,38.6,27
	c-0.4,0-0.8,0.1-1.2,0.3c-0.4,0.5-0.7,1-1,1.6c0.4,1.1,1.3,3.5,2,5.1c0.1-0.2,0.1-0.5,0.2-0.7c0.3-1.3,0.4-2.6,0.6-3.9
	c0.6-0.1,1.2-0.2,1.8-0.5c0.7-0.4,1.2-1,1.5-1.7C42.4,26.9,41.8,26.7,41.7,26.7z"/>
<path style="fill:#976A2E;" d="M35.8,29.9l-0.9,0.4l0.6,6.7c0.5-0.1,1-0.3,1.5-0.5c0.7-0.7,1.2-1.6,1.4-2.5
	c-0.1-0.9-0.3-1.8-0.6-2.7c-0.4-1-1.1-1.8-1.3-2.4C36.2,29.2,36,29.5,35.8,29.9z"/>
<path style="fill:#C69943;" d="M20.4,25.4c0,0.2-2.2,8.4-2.3,10.7s-2,8,1.6,10.3c0.9,0.6,3.2-0.3,4.3-0.3c0.9,0.4,2,0.6,3,0.6
	c2,0,7.3,0.7,9-0.1s1.1-3.2,1.1-5.4c0-3.2-0.3-6.4-0.9-9.6c-0.4-1.8-0.9-3.6-1.5-5.4c-0.6-1.9-4-4.2-4-4.2l-6.3,0.3L20.4,25.4z"/>
<path style="fill:#976A2E;" d="M36.3,34.4c-0.6-3.1-1.5-7.1-2-9c-0.3-0.5-0.7-0.9-1.1-1.3c-0.7-0.1-1.4-0.1-2.1,0.1l1.8,2.9H33
	c0.1,0.2,2.2,7.5,1.7,11.4c-1,7.9,3.3,5.9-5.7,8l-0.4,0.1c1.8,0,5.6,0.6,7.4-0.1c0.4-0.2,0.8-0.5,1.2-0.8c0.7-0.8,1.1-1.8,1.3-2.8
	C39,40.4,36.8,36.9,36.3,34.4z"/>
<path style="fill:#BD8D33;" d="M25.3,39.5c-0.3,0.1,0,0.6,0.4,1s0.6,1.1,1.6,1.2s1.4,0.4,2-0.5s1-1,0.8-1.1s-2.2,0-2.7-0.2
	C26.7,39.7,26,39.5,25.3,39.5z"/>
<path style="fill:#976A2E;" d="M19.1,26.2c0,0,1.5,1,2.3,0.5c0.9-0.7,2-1.1,3.1-1.3c1,0,2.6,1.4,3.1,1.4s1.7-1.3,3.1-1.3
	c1.3,0.1,2.4,1,2.8,2.3l1.5-0.5c-0.1-0.9-0.2-1.9-0.3-2.8c-0.3-1.4-7.3-0.9-7.3-0.9L21,24.5l-2.8,1.1L19.1,26.2z"/>
<path style="fill:#976A2E;" d="M41.4,25.6c-0.2-0.2-0.4,0.1-0.8,0.3c-0.5,0.1-1,0.2-1.5,0.1c-0.9-0.2-1.8-0.5-2.6-0.9
	c-0.5-0.1-1.2-0.8-1.2-1.2s-0.2-0.8-0.3-0.8c-0.1,0.1-0.3,0.1-0.4,0c0,0,0,0,0-0.1v-0.1c-0.1-0.8-0.1-1.7-0.1-2.5
	c-0.1,0.6-0.2,1.1-0.4,1.7c-0.2,0.5-0.4,0.4-0.5,0.1c-0.1-0.6-0.2-1.1-0.2-1.7c-0.1-0.6-0.2-1.2-0.5-1.8c-0.1,1.1-0.3,2.3-0.6,3.4
	c-0.4,0.6-0.8,0.5-1.6,0.4c-1.1-0.2-2.3-0.2-3.4-0.1c-1.6,0.2-3.2,0.5-4.8,0.9c-1,0.2-1.9,0.6-2.8,1.1c-0.9,0.5-1-0.1-1.3-0.5
	c-0.3-0.7-0.4-1.4-0.4-2.1c0-0.6-0.1-0.7-0.2-0.5c-0.4,0.8-0.8,1.6-1.2,2.5c-0.3,0.7-0.5,0.6-0.9,0.5c-0.3-0.2-0.7-0.3-1.1-0.2
	c-0.8,0-0.7-0.4-0.9-0.7s-0.6,0.2-0.7,0.4c0,0.6,2.1,1.3,3.3,1.9c1.2,0.5,2.5,0.8,3.8,1c0,0,2.1-2.4,7.5-2.4s7.2,2.4,7.2,2.4
	l4.2,0.1c0.2,0.3,0.6,0.5,1,0.5c0.4,0,0.8-0.3,1-0.7l0.2-0.3c0.3,0.1,0.6,0.2,0.9,0.1c0.2-0.1,0.4-0.3,0.5-0.5
	c-0.2,0-0.4,0.1-0.6,0.1S41.6,25.8,41.4,25.6z"/>
<path style="fill:#C69943;" d="M45,21.2c-0.3-1.4-0.7-2.8-1.2-4.1l0,0l0.2-0.3c0.3-0.4,0-0.7-0.3-1c-1-1.2-2.2-2.3-3.6-3.3
	c-1.6-0.9-3.3-2.7-12.8-2.7S14,14.5,13,15.6s-1.2,0.6-1.2,0.7s0.4,0.1,0.4,0.1c-0.5,1-0.9,2-1.2,3c-0.3,1-0.3,2.1,0,3.1
	c0.2,0.3,0.4,0.6,0.6,0.8c0.3,0.3,0.8,0.4,1.2,0.3l0,0c0.1-0.2,0.5-0.7,0.7-0.4s0.2,0.8,0.9,0.7c0.4-0.1,0.8,0,1.1,0.2
	c0.4,0.1,0.7,0.2,1-0.5c0.3-0.8,0.7-1.6,1.2-2.4c0.2-0.2,0.2-0.1,0.2,0.5s-0.1,1.8,0.2,2.1s0.4,1,1.3,0.5c0.9-0.5,1.8-0.9,2.8-1.1
	c1.6-0.4,3.2-0.7,4.8-0.9c1.1-0.1,2.3-0.1,3.4,0.1c0.8,0.1,1.3,0.2,1.6-0.4c0.4-1.1,0.6-2.2,0.6-3.4c0.2,0.6,0.4,1.2,0.5,1.8
	c0,0.6,0.1,1.1,0.2,1.7c0.1,0.2,0.3,0.4,0.5-0.1c0.2-0.5,0.4-1.1,0.4-1.7c0,0.8,0,1.7,0.1,2.5c0,0.2,0.2,0.3,0.4,0.3h0.1
	c0.1-0.1,0.3,0.4,0.3,0.8s0.6,1,1.2,1.2c0.9,0.3,1.7,0.6,2.6,0.9c0.5,0.1,1,0.1,1.5-0.1c0.4-0.2,0.6-0.5,0.8-0.3s0.3,0.4,0.6,0.4
	c0.2,0,0.4,0,0.6-0.1v-0.1l0.1,0.1l0,0c0.2,0.2,0.5,0.2,0.7,0.1c0.3-0.2,0.4-0.5,0.4-0.8l0,0c0,0,0.1,0,0.6-0.4S45.1,22.2,45,21.2z"
	/>
<path style="fill:#976A2E;" d="M40.5,25.9c0.4-0.2,0.6-0.5,0.8-0.3s0.3,0.4,0.6,0.4c0.2,0,0.4,0,0.6-0.1v-0.1l0.1,0.1l0,0
	c0.2,0.2,0.5,0.2,0.7,0.1c0.3-0.2,0.4-0.5,0.4-0.8l0,0c0,0,0.1,0,0.6-0.4s0.6-2.6,0.5-3.6c-0.3-1.4-0.7-2.8-1.2-4.1l0,0l0.4-0.3
	c0.3-0.4,0-0.7-0.3-1c-1-1.2-2.2-2.3-3.6-3.3c-1.6-0.9-3.3-2.7-12.8-2.7c-2.9-0.1-5.9,0.5-8.6,1.6l0,0c0.2-0.1,10.5-3.3,15.6,0.4
	s5.3,9.7,4,12.1l-0.9,1.6c0.5,0.2,1,0.4,1.6,0.5C39.5,26,40,26,40.5,25.9z"/>
<path style="fill:#976A2E;" d="M28.6,32.5c0,0,0.3-4.7,3.1-4.7s3.4,2.8,3.4,5S28.6,32.5,28.6,32.5z"/>
<path style="fill:#FFFFFF;" d="M29.9,29.5c0.5-0.4,1.2-0.7,1.9-0.7c1.4,0.1,2.6,1,3.1,2.3c0.8,2,0.5,4-0.9,5.1
	c-0.9,0.8-2.1,1.1-3.3,0.8c-0.7-0.3-2.9-1.2-2.9-3.3C27.9,32.1,28.7,30.6,29.9,29.5z"/>
<path style="fill:#976A2E;" d="M20.8,32.5c0,0,0.3-4.7,3.1-4.7s3.4,2.8,3.4,5S20.8,32.5,20.8,32.5z"/>
<path style="fill:#FFFFFF;" d="M24.1,28.9c0,0,2.4-0.4,3.4,3.3c0.7,2-0.4,4.2-2.4,4.9c-0.2,0.1-0.4,0.1-0.6,0.1
	c-0.6,0-3.8,0-4.3-2.4c-0.5-2,0.3-4,2-5.1C23.4,28.8,23.4,29,24.1,28.9z"/>
<path style="fill:#FFFFFF;" d="M25.1,39.5c-0.3,0.1,0,0.6,0.4,1s0.6,1.1,1.6,1.2s1.4,0.4,2-0.5s1-1,0.8-1.1s-2.2,0-2.7-0.2
	C26.5,39.7,25.8,39.5,25.1,39.5z"/>
<path style="fill:#976A2E;" d="M19.8,34.6c0,0,3.6,5,7.9,5.2s5.1-0.7,5.1-0.7s-0.1-0.5,0.1-0.6s1.2,0.9,1.1,1.1s-0.3,0.4-0.6,0.2
	L33,39.4c-1.5,0.7-3.1,1-4.8,0.9c-2.6-0.2-2.7-0.4-3.6-0.8c-1.8-1.2-3.5-2.6-4.9-4.2c0,0-0.2,0.5-0.4,0.4s-0.1-1,0.2-1.3
	s0.5-0.6,0.6-0.4S19.8,34.6,19.8,34.6z"/>
<path style="fill:#AE832F;" d="M19.9,11.7c-0.1,0.1-0.2,0.3-0.2,0.5c0,0.1,0,0.1,0.1,0.2h0.5c0.1,0,0.2,0.1,0.3,0.1
	c0.1,0.2,0.2,0.3,0.2,0.5l0,0l0.2-0.1c0.1-0.1,0.3-0.1,0.5-0.2c0.2-0.1,0.4-0.1,0.6,0c0.2,0,0.4,0.1,0.5,0.2
	c0.1,0.1,0.2,0.2,0.4,0.2h0.4l0.2-0.1l0.3-0.1h0.8l0.1-0.1c0.1-0.1,0.2-0.2,0.2-0.4c0.1-0.3,0.3-0.7,0.6-0.9
	c-0.2,0.3-0.4,0.6-0.4,0.9c0,0.2-0.1,0.4-0.2,0.5c0,0.1,0,0.1-0.1,0.1l0,0c-0.1,0-0.1,0.1-0.2,0.1h-0.3c-0.2,0-0.3,0-0.5,0.1
	l-0.1,0.3c-0.1,0-0.2,0.1-0.3,0.1c-0.2,0.1-0.4,0.1-0.6,0c-0.2-0.1-0.3-0.2-0.5-0.3s-0.3-0.1-0.4-0.2h-0.4c-0.2,0-0.3,0.1-0.5,0.2
	c-0.1,0-0.2,0.1-0.3,0.1s-0.2,0-0.2-0.1s-0.1-0.1-0.1-0.2c0-0.1,0-0.2-0.1-0.3c0-0.1,0-0.1-0.1-0.2l-0.1-0.1h-0.4
	c-0.1,0-0.1,0-0.1-0.1v0c-0.1-0.1-0.1-0.2-0.1-0.3C19.7,12,19.8,11.8,19.9,11.7z"/>
<path style="fill:#AE832F;" d="M27.3,13.8v0.7c0,0.1,0.1,0.1,0.2,0.1s0.2-0.1,0.3-0.1l0.4-0.1h0.4c0.1,0,0.3,0.1,0.4,0.1l0.2,0.1
	l0.2,0.1c0.1,0.1,0.2,0.2,0.3,0.2s0.1,0.1,0.2,0.1c0.2,0,0.4,0,0.6-0.1l0.7-0.2l0.7-0.3c0.1-0.1,0.3-0.1,0.4-0.1h0.4
	c0.3,0,0.5,0.1,0.7,0.1c0.2,0,0.4,0,0.6-0.1l0.1-0.1c0.1-0.1,0.1-0.1,0.2-0.1h0.3l0.2,0.1c0.2,0.1,0.5,0.1,0.7,0.1
	c0.2,0,0.5-0.1,0.7-0.1c0.2-0.1,0.5-0.1,0.7-0.1h0.4l-0.4,0.1l-0.7,0.2c-0.2,0.1-0.5,0.2-0.7,0.2c-0.3,0.1-0.5,0.1-0.8,0h-0.1
	l-0.1,0.1l-0.2,0.1c-0.1,0.1-0.2,0.2-0.4,0.2h-0.4c-0.3,0-0.5-0.1-0.8-0.1c-0.2,0-0.4,0-0.6,0.1l-0.7,0.3c-0.2,0.1-0.5,0.2-0.7,0.2
	c-0.3,0.1-0.5,0.1-0.8,0c-0.2,0-0.3-0.1-0.4-0.2c-0.1-0.1-0.2-0.2-0.3-0.2L29.1,15l-0.2-0.1c-0.1-0.1-0.2-0.1-0.3-0.1
	c-0.2,0-0.5,0-0.7,0.1c-0.1,0-0.3,0.1-0.4,0.1h-0.2c-0.1,0-0.1-0.1-0.1-0.2C27.2,14.5,27.2,14.2,27.3,13.8z"/>
<path style="fill:#AE832F;" d="M28.8,17.9c0.3-0.1,0.5-0.1,0.8-0.1c0.1,0,0.3,0,0.4,0.1c0.2,0,0.3,0.1,0.4,0.2l0.3,0.3
	c0.1,0.1,0.2,0.2,0.2,0.4c0.1,0.1,0.1,0.2,0.2,0.4l0.1,0.2l0.1,0.1l0,0l0.1-0.1c0.1-0.1,0.1-0.2,0.2-0.3c0.1-0.3,0.2-0.6,0.4-0.8
	c0.1-0.2,0.3-0.3,0.5-0.3H33c0.3,0,0.6,0.1,0.8,0.3c0.1,0.1,0.2,0.2,0.4,0.3c0.1,0.1,0.2,0.2,0.3,0.2s0.2,0.1,0.2,0s0.2-0.1,0.3-0.1
	l0.2-0.1h0.2c0.2,0,0.4,0,0.5,0.1l0.3,0.3c0.1,0.1,0.1,0.1,0.2,0.1c0.1,0,0.2,0,0.3-0.1l0.4-0.2c0.2-0.1,0.5-0.2,0.8-0.2
	c0.3,0,0.6,0.2,0.7,0.4c0.1,0.1,0.2,0.2,0.3,0.2h0.4c-0.1,0.1-0.3,0.1-0.4,0.1c-0.2,0-0.3-0.1-0.4-0.2c-0.1-0.1-0.2-0.2-0.3-0.2
	c-0.1-0.1-0.2-0.1-0.3-0.1c-0.3,0-0.5,0.1-0.7,0.3l-0.3,0.2c-0.1,0.1-0.3,0.1-0.4,0.2h-0.3c-0.1,0-0.1-0.1-0.2-0.1s-0.2-0.2-0.3-0.2
	h-0.5c-0.1,0.1-0.3,0.1-0.4,0.1c-0.2,0-0.4,0-0.5-0.1L34,18.9c-0.1-0.1-0.2-0.1-0.3-0.2c-0.2-0.1-0.5-0.2-0.7-0.2h-0.3
	c-0.1,0-0.1,0-0.2,0.1c-0.2,0.2-0.3,0.5-0.4,0.7c-0.1,0.1-0.1,0.3-0.2,0.4s-0.1,0.1-0.2,0.2L31.6,20h-0.2c-0.1,0-0.2-0.1-0.2-0.2
	c0-0.1-0.1-0.1-0.1-0.2l-0.2-0.4c-0.1-0.1-0.1-0.2-0.2-0.4s-0.1-0.2-0.2-0.3s-0.2-0.2-0.3-0.2s-0.2-0.1-0.4-0.1
	C29.5,18,29.2,17.9,28.8,17.9z"/>
<path style="fill:#D9AB54;" d="M25.1,44.3c0,0-0.6-1.3,0.4-1.9c0.7-0.5,1.7-0.4,2.3,0.3c0.2,0.4-0.3,0.9-0.8,0.7s-1-0.1-1.1,0.3
	S25.6,44.5,25.1,44.3z"/>
<path style="fill:#795326;" d="M12.9,23.7c0.1-0.1,0.1-0.2,0.2-0.3s0.2-0.2,0.3-0.2h0.2c0.1,0,0.1,0,0.1,0.1l0,0
	c0.1,0.1,0.1,0.2,0.2,0.3s0.1,0.2,0.2,0.2s0.2,0.1,0.3,0.1h0.8c0.1,0,0.2,0.1,0.4,0.1s0.2,0.1,0.3,0.1c0.1,0,0.2,0,0.3-0.1
	c0.1-0.1,0.2-0.2,0.2-0.3s0.2-0.5,0.3-0.7l0.3-0.7c0.1-0.2,0.2-0.5,0.3-0.7l0.2-0.3c0.1-0.1,0.1-0.2,0.2-0.3l0.1-0.1h0.1
	c0.1,0,0.1,0,0.1,0.1l0,0c0,0.1,0.1,0.1,0.1,0.2V23c0,0.1,0,0.2,0.1,0.3c0,0.1,0,0.1,0.1,0.1l0,0l0,0l0.1,0.1
	c0.2,0.2,0.3,0.4,0.4,0.5c0.2,0,0.4,0,0.6-0.1c0.4-0.2,0.9-0.5,1.3-0.7c0.4-0.2,0.9-0.4,1.4-0.5l2.9-0.6c0.5-0.1,1-0.2,1.5-0.2
	c0.5,0,1-0.1,1.5-0.1h1.5c0.5,0,1,0.1,1.5,0.2c0.2,0.1,0.4,0.1,0.6,0c0.1,0,0.2-0.1,0.2-0.2c0.1,0,0.2-0.1,0.3-0.2
	c0.2-0.4,0.3-0.9,0.3-1.4c0.1-0.5,0.2-1,0.2-1.5v-0.5c-0.1,0,0.3-0.2,0.3-0.1l0,0v0.7L33,19c0.1,0.2,0.1,0.5,0.2,0.7
	c0.1,0.2,0.1,0.5,0.1,0.7c0,0.3,0,0.5,0.1,0.8c0.1,0.2,0.1,0.5,0,0.7v0.3c0,0.1,0,0.1,0.1,0.1l0,0l0.2-0.2c0-0.1,0.1-0.2,0.1-0.3
	s0.1-0.5,0.2-0.7s0-0.2,0.1-0.4v-0.3h0.3V23c0,0.1,0.1,0.1,0.2,0.1h0.2c0.1,0,0.1,0,0.2,0.1l0.1,0.1c0.1,0.1,0.1,0.2,0.2,0.4v0.4
	c0,0.1,0.1,0.2,0.1,0.3c0.1,0.2,0.3,0.4,0.5,0.5c0.1,0.1,0.2,0.1,0.3,0.2l0.2,0.1l0.2,0.1l0.7,0.3c0.4,0.2,0.9,0.4,1.4,0.5
	c0.1,0,0.2,0.1,0.3,0.1h0.7c0.1,0,0.2,0,0.3-0.1c0.1,0,0.2-0.1,0.3-0.2s0.2-0.1,0.3-0.2h0.2c0.1,0,0.1,0.1,0.2,0.1s0.2,0.2,0.3,0.2
	s0.2,0.1,0.3,0c0.2,0,0.5,0,0.7-0.1C42.1,26,41.8,26,41.6,26h-0.4c-0.1-0.1-0.2-0.1-0.3-0.2c-0.1-0.1-0.2-0.1-0.3-0.1
	c-0.1,0-0.2,0.1-0.3,0.2S40.1,26,40,26.1s-0.2,0.1-0.4,0.1h-0.8c-0.1,0-0.3,0-0.4-0.1c-0.5-0.1-1-0.3-1.4-0.5l-0.7-0.2h-0.2
	l-0.2-0.1c-0.1-0.1-0.2-0.1-0.3-0.2s-0.4-0.3-0.5-0.6c-0.1-0.1-0.1-0.3-0.2-0.4v-0.4c0-0.1-0.1-0.2-0.1-0.3h-0.4
	c-0.1,0-0.2-0.1-0.2-0.2c0-0.1-0.1-0.1-0.1-0.2v-0.2c0-0.5,0-1-0.1-1.5v-0.7h0.3v0.2c0,0.1,0,0.3-0.1,0.4c0,0.2-0.1,0.5-0.2,0.7
	c0,0.1-0.1,0.2-0.1,0.4s-0.1,0.1-0.1,0.2s-0.1,0.1-0.2,0.2s-0.1,0.1-0.2,0.1s-0.1,0-0.2-0.1L33,22.5c0-0.1-0.1-0.1-0.1-0.2v-0.2
	c0-0.3,0-0.5-0.1-0.8c-0.1-0.3,0-0.5-0.1-0.7s0.4-0.5,0.3-0.8c-0.1-0.2-0.1-0.5-0.2-0.7v-0.3l0,0c0,0.1,0.5-0.1,0.3-0.1l0,0v0.4
	c0,0.5-0.1,1-0.2,1.5c0,0.2-0.1,0.5-0.1,0.7c-0.1,0.2-0.1,0.5-0.2,0.7c-0.1,0.1-0.1,0.3-0.2,0.4c-0.1,0.1-0.2,0.2-0.4,0.3
	c-0.3,0.1-0.5,0.1-0.8,0c-0.5-0.1-1-0.1-1.5-0.2c-0.5,0-1,0-1.5,0c-0.5,0-1,0-1.5,0.1c-0.5,0.1-1,0.1-1.4,0.2l-2.9,0.6
	c-0.5,0.1-0.9,0.3-1.4,0.4s-0.9,0.4-1.3,0.6c-0.1,0.1-0.2,0.1-0.4,0.1h-0.5c-0.1-0.1-0.3-0.2-0.3-0.3s-0.1-0.2-0.2-0.3v-0.1
	l-0.1-0.1c0-0.1-0.1-0.1-0.1-0.2S18,23.2,18,23.1v-2l0,0c-0.1,0.1-0.1,0.2-0.2,0.3l-0.2,0.3l-0.3,0.7L17,23.1
	c-0.1,0.2-0.2,0.5-0.3,0.7l-0.3,0.3c-0.1,0.1-0.3,0.1-0.4,0.1c-0.1,0-0.2-0.1-0.4-0.1S15.4,24,15.3,24h-0.7c-0.1,0-0.3,0-0.4-0.1
	l-0.3-0.3c0-0.1-0.1-0.2-0.2-0.3c0-0.1,0-0.1-0.1-0.1h0h-0.2c-0.1,0-0.2,0.1-0.3,0.2C13.2,23.6,13,23.7,12.9,23.7z"/>
<path style="fill:#AE832F;" d="M27,13.8v0.7c0,0.1,0.1,0.1,0.2,0.1s0.2-0.1,0.3-0.1l0.4-0.1h0.4c0.1,0,0.2,0.1,0.3,0.1l0.2,0.1
	l0.2,0.1c0.1,0.1,0.2,0.2,0.3,0.2s0.1,0.1,0.2,0.1c0.2,0,0.4,0,0.6-0.1l0.7-0.2l0.7-0.3c0.1-0.1,0.3-0.1,0.4-0.1h0.4
	c0.3,0,0.5,0.1,0.7,0.1c0.2,0,0.4,0,0.6-0.1l0.1-0.1c0.1-0.1,0.1-0.1,0.2-0.1h0.3l0.2,0.1c0.2,0.1,0.5,0.1,0.7,0.1
	c0.2,0,0.5-0.1,0.7-0.1c0.2-0.1,0.5-0.1,0.7-0.1h0.4L36.7,14L36,14.2c-0.2,0.1-0.5,0.2-0.7,0.2c-0.3,0.1-0.5,0.1-0.8,0h-0.3
	l-0.1,0.1l-0.2,0.1c-0.1,0.1-0.2,0.2-0.4,0.2h-0.4c-0.3,0-0.5-0.1-0.8-0.1c-0.2,0-0.4,0-0.6,0.1L31,15.1c-0.2,0.1-0.5,0.2-0.7,0.2
	c-0.3,0.1-0.5,0.1-0.8,0c-0.2,0-0.3-0.1-0.4-0.2c-0.1-0.1-0.2-0.2-0.3-0.2l-0.1-0.1l-0.2-0.1c-0.1-0.1-0.2-0.1-0.3-0.1
	c-0.2,0-0.5,0-0.7,0.1c-0.1,0-0.3,0.1-0.4,0.1h-0.2c-0.1,0-0.1-0.1-0.1-0.2C26.9,14.3,26.9,14.1,27,13.8z"/>
<path style="fill:#795326;" d="M20.3,26.4c1.5-1.2,3.3-1.9,5.2-2c3.1-0.2,5.3-0.1,7.7,1.1c0.4,0.2,0.4,0.4-0.6,0
	c-2.9-1.2-6.1-1.4-9.1-0.6c-1,0.3-1.9,0.8-2.8,1.4C20.6,26.4,20.4,26.7,20.3,26.4z"/>
<path style="fill:#795326;" d="M19.5,35.1c0,0-0.1,0.5-0.2,0.3c0-0.5,0.1-0.9,0.4-1.3c0.2-0.1,0.2,0,0.1,0.1
	C19.6,34.5,19.5,34.8,19.5,35.1z"/>
<path style="fill:#795326;" d="M19.9,34.7c0,0-0.1,0.1,0,0.4c1.3,1.5,2.8,2.7,4.4,3.8c1.5,0.8,3.7,1.4,7.2,0.8
	c0.5-0.1,1-0.3,1.4-0.5c0.3,0,0.5,0.2,0.6,0.4c0.1,0.1,0.2-0.1-0.2-0.5c-0.3-0.2-0.5-0.3-0.5,0c-2.7,1-5.7,0.9-8.3-0.3
	C22.7,37.7,21.2,36.3,19.9,34.7z"/>
<path style="fill:#795326;" d="M13.5,24.8c0.4,0.2,0.8,0.5,1,0.9c0.1,0.1,0,0.2,1.1,0.1c0.3,0.1,0.5,0.2,0.7,0.4
	c0.1,0.1,0.3-0.1,0-0.3c-0.4-0.3-1-0.5-1.5-0.4c-0.1-0.1,0.1-0.7-0.7-1c-0.2,0.1-0.2,0.2-0.4,0.2L13.5,24.8z"/>
<path style="fill:#D9AB54;" d="M18.8,35.1c-0.2-0.2-0.4-0.5-0.4-0.8c0-0.3,0.4-1.4,0.9-1.3s0.6,0.2,0.3,0.6
	c-0.3,0.3-0.5,0.7-0.6,1.1C18.9,35,18.9,35.2,18.8,35.1z"/>
<path style="fill:#AE832F;" d="M20,26.6l-0.4,2.2c0.1,0.3,0.6,0.1,0.7-0.2s2.6-2.4,3.5-2.4c1,0,2,0.4,2.8,1c0.6,0.4,1.5,0.2,1.9-0.4
	c0,0,0,0,0-0.1c0.7-0.8,1.7-1.1,2.7-0.8c0.6,0.4,1.2,0.9,1.6,1.5c0.1,0.3-0.2,0.1-0.7,0c-0.9-0.3-1.9,0-2.6,0.7
	c-0.8,0.8-1.2,1.9-1.1,3l0.6-0.9c0.3-1.1,1.1-2,2.1-2.4c0.8-0.1,1.5,0.1,2.2,0.4c-0.2-0.6-0.1-2-1.8-2.6c-0.7-0.2-1.4-0.7-3.3,0.7
	c-0.7,0.4-0.7,0.5-1.4,0.1s-2.2-2-4.2-0.6C21.4,26.7,21.1,27,20,26.6z"/>
<path style="fill:#AE832F;" d="M20.8,30.9c0.1-0.9,0.4-1.8,0.9-2.5c0.7-0.8,1.9-1.1,2.9-0.8c0.6,0.1,1.2,0.5,1.6,1
	c0.3,0.3,0,0.2,0,0.2c-0.9-0.9-2.2-1.2-3.4-0.7c-0.9,0.6-1.5,1.5-1.7,2.5L20.8,30.9z"/>
<path style="fill:#D9AB54;" d="M22.4,36.9l1,0.2c0.7,0.8,1.6,1.4,2.6,1.7c0.5,0.2,0.2,0.4,0,0.4S24.4,39,22.4,36.9z"/>
<path style="fill:#AE832F;" d="M34.8,35.4c-0.5,0.6-1,1-1.7,1.4c0.7,0.1,1.5,0.8,0.8,1.2c-0.3,0.2-0.6,0.4-0.8,0.7
	c0,0,1.3,0.7,0.7,1.3c-0.1,0-0.3,0-0.8-0.6c-1,0.4-2,0.7-3.1,0.8c-0.2,0.4-0.5,0.8-0.8,1.2c0,0,3.3-1,3.5-1.1s0.7,0,0.7,0.3
	c0.1,0.6,0,1.2-0.3,1.7c-0.3,0.6-2.8,3.2-4.5,3.4c-1.6,0.2-3.2-0.2-4.5-1c-0.6-0.4-0.9-0.2-1.1,0c-0.5,0.3-1.2,0.4-1.7,0.1
	c-1-0.6-3-0.3-3.6-1.3c-0.3-0.7-0.6-1.4-0.7-2.2c-0.1-0.5-0.1-0.9,0-1.4c0-0.1-0.1-0.2-0.1,0.3s-0.3,4.1,2.7,6.1
	c0.9,0.8,3.4,0,4.6-0.2c1.6,0.7,3.5,0.8,5.2,0.4c2.1-0.6,5.8-1.2,6.7-3.3S35.1,37.7,34.8,35.4z"/>
<path style="fill:#AE832F;" d="M34.8,26.7c-0.2,0-0.3,0.1-0.3,0.3c0,0,0,0.1,0,0.1c0.1,0.4,1.3,5.8,1.6,7.1c0.4,2.3,0.5,4.7,0.3,7.1
	c-0.1,1.5,1.3,3.8,0.3,4.8c1.3-1.1,0.5-2.9,0.5-5.5c0-2.5-0.2-5.1-0.6-7.6C36.1,30.9,35.6,28.7,34.8,26.7z"/>
<path style="fill:#D9AB54;" d="M17.7,39.2c0,1.1,0.2,2.1,0.4,3.2c0.3,1,2.9,2,4,1.7s1.3-1,0.9-1.6c-0.5-0.8-0.8-1.7-1-2.6
	c0-0.6,0.6-1.2,0.4-1.3c-0.3-0.4-0.6-0.8-1-1.1c3.2,2.3-8.4-1.3-1.7-1.3C19.2,36.6,17.6,38.3,17.7,39.2z"/>
<path style="fill:#D9AB54;" d="M18,36.3c-0.9-1.3-1.5-2.7-1.9-4.2c-0.3-1.3-0.5-2.7-0.7-4c0,0,0.2-0.2-0.4-0.5s-1-0.1-1.2-0.8
	c-0.2-0.3-0.5-0.4-0.6-0.9c0.2-0.3,0.3,0.1,0.6,0.3c0.6,0.4,1.3,0.7,2,1c0.6,0.1,0.5,0.9,0.4,1s0.7,5.3,2.1,6.9
	C18.1,36.1,18.4,36.1,18,36.3z"/>
<path style="fill:#795326;" d="M39.1,26.8c0.6,0,1,0.8,1.3,0.5s0.1-0.8,0.5-0.8c0,0,0.7,0.6,0.5,0.9s-0.5,0.9-0.9,0.9
	s0.2-0.3,0.5-0.6c0.2-0.2,0.1-0.5-0.1-0.7c-0.1-0.1-0.2-0.1-0.2-0.1c-0.3,0-0.2,1-0.8,0.8S38.6,26.8,39.1,26.8z"/>
<path style="fill:#795326;" d="M40.6,29c0,0,1.2-1.1,1.2-1.6s-0.2-0.9,0.1-0.7s0.9,0.5,0,1.3C41.5,28.4,41.1,28.8,40.6,29z"/>
<path style="fill:#976A2E;" d="M14.6,25c0,0,1.9,0.7,2.1,0.8c0.4,0.8,2.3,2.4,2.4,4.8c-0.2,0.9-0.8,2.9-0.8,3.2
	c-0.3-0.6-0.3-1.3,0-1.9c0.3-1,0.1-2.2-0.4-3.1c-0.5-1-1.1-1.9-1.7-2.8c-0.4-0.4-1-0.6-1.5-0.4C14.7,25.4,14.7,25.2,14.6,25z"/>
<path style="fill:#C69943;" d="M23.3,31c-0.7,0.3-1.2,0.9-1.3,1.7c-0.1,0.8,0.2,1.5,0.8,1.9c0.6,0.3,1.4,0.3,2,0
	c0.6-0.4,0.9-1.2,0.8-1.9c-0.1-0.7-0.6-1.3-1.3-1.7C24.1,30.9,23.7,30.9,23.3,31z"/>
<path style="fill:#C69943;" d="M30.6,31.1c-0.6,0.5-0.9,1.2-0.8,1.9c0.1,0.8,0.7,1.4,1.5,1.6c0.8,0.1,1.6-0.3,1.9-1
	c0.3-0.6,0.3-1.4-0.1-2C32.4,30.8,31.4,30.6,30.6,31.1z"/>
<path style="fill:#FFFFFF;" d="M30.2,33.7c0,0,0.3,0.5,0.5,0.5c0.8-0.7,1.6-1.5,2.3-2.4c-0.1,0,0-0.2-0.2-0.3
	C31.8,32.1,30.9,32.8,30.2,33.7z"/>
<path style="fill:#FFFFFF;" d="M22.1,34.1c0,0,0.3,0.6,0.7,0.7s3-2.7,2.9-3.1c-0.1-0.1-0.2-0.2-0.3-0.4c0,0-0.5-0.4-1.5,0.7
	S22.1,33.7,22.1,34.1z"/>
<path style="fill:#CCCECE;" d="M24.9,39.6c0,0.4,0.2,0.7,0.5,0.9c1,0.2,3.7,0.4,4.2,0c0-0.1,0.1-0.3,0.2-0.4
	C28.2,40.4,26.5,40.2,24.9,39.6z"/>
<path style="fill:#D9AB54;" d="M19.1,12.9c-1.2,0.6-2.2,1.5-3,2.6c-0.8,1.4-2.2,1.2-1.7,1.3c0.7,0,1.4,0.2,2,0.5
	c0.3,0.3,1,0.1,1.8-0.5c0.4-0.1,0.7,0.1,0.9,0.4c0,0.1,0.1,0.2,0,0.3c0,0.4,2,0.6,2.6,0.2c1.2-1.2,2.2-2.6,3.1-4
	c0.1-0.3-0.6-0.2-1.4,0s-1.3-0.4-1.5-0.4c-0.5,0.1-1,0.1-1.4,0.2C19.9,13.5,19.5,12.7,19.1,12.9z"/>
<path style="fill:#AE832F;" d="M30.9,47.4v9.2l5.7,3.6c0,0,1.1,0.6-1.2,0.6H21.8l4.7-4.1c0,0,2.5,0.2,2.8-0.1s0-8,0-8
	S29.1,47.4,30.9,47.4z"/>
<path style="fill:#976A2E;" d="M22.8,44c0.1,0.1,0.2,0.2,0.3,0.2l0.3,0.2c0.2,0.1,0.4,0.3,0.6,0.4c0.4,0.3,0.8,0.5,1.3,0.7
	c0.9,0.4,1.8,0.5,2.8,0.4c1-0.1,1.9-0.4,2.7-0.9c0.8-0.5,1.6-1.2,2.2-1.9c-0.5,0.9-1.2,1.6-2.1,2.2c-0.4,0.3-0.9,0.5-1.4,0.7
	c-0.5,0.2-1,0.3-1.5,0.3c-0.5,0.1-1,0-1.5-0.1c-0.5-0.1-1-0.3-1.4-0.5c-0.5-0.2-0.9-0.5-1.3-0.8c-0.2-0.2-0.4-0.3-0.6-0.5
	C23.1,44.4,23,44.2,22.8,44z"/>
<path style="fill:#262424;" d="M32.6,31.9c-0.1,0-0.2-0.1-0.2-0.2c0-0.1,0-0.1,0.1-0.2l0,0l0.2-0.1C32.4,31.2,32,31,31.5,31
	c-0.9,0-1.7,0.8-1.7,1.7c0,0,0,0,0,0.1l0,0c0,0.3,0.1,0.7,0.3,0.9c0.2-0.3,0.6-0.7,0.8-0.4c0.4,0.4-0.2,0.7-0.3,0.9l0,0
	c0.2,0.2,0.5,0.3,0.8,0.2c0.9,0,1.7-0.8,1.7-1.7c0,0,0,0,0-0.1l0,0c0-0.3-0.1-0.6-0.2-0.9L32.6,31.9z M31.2,33.2
	c-0.1,0-0.2-0.1-0.2-0.2s0.1-0.2,0.2-0.2s0.2,0.1,0.2,0.2l0,0C31.4,33.1,31.3,33.2,31.2,33.2C31.2,33.2,31.2,33.2,31.2,33.2z"/>
<path style="fill:#262424;" d="M24.9,32c-0.1,0-0.2,0-0.2-0.1c0-0.1,0-0.2,0.1-0.2l0.2-0.1c-0.3-0.4-0.7-0.6-1.2-0.5
	c-0.9,0-1.7,0.8-1.7,1.7c0,0,0,0.1,0,0.1l0,0c0,0.3,0.1,0.7,0.2,1c0.2-0.4,0.6-0.7,0.8-0.4c0.4,0.4-0.2,0.7-0.3,1v0.1
	c0.3,0.2,0.6,0.3,0.9,0.3c0.9,0,1.7-0.8,1.7-1.7c0,0,0,0,0-0.1l0,0c0-0.3-0.1-0.7-0.2-1H24.9z M23.5,33.3c-0.1,0-0.2-0.1-0.2-0.2
	s0.1-0.2,0.2-0.2s0.2,0.1,0.2,0.2l0,0C23.7,33.2,23.6,33.3,23.5,33.3C23.5,33.3,23.5,33.3,23.5,33.3z"/>
<path style="fill:#D6B67A;" d="M25.4,56.7L20,60.3l11.4,0.1c0,0,0.3-0.5,0.1-0.7S23.7,59,23.7,59l2.6-2.4l0.1-0.7L25.5,56L25.4,56.7
	z"/>
<path style="fill:#AE832F;" d="M37.5,25.5c0,0,3.8-3.3,0.1-9.8s-6.1-5.9-14-5.3c-1.9,0.3,4.9,0,6.7,0.8c1.8,0.8,7.1,5.7,6.8,9.3
	s-1,4.3-1,4.3C36.5,25.1,37,25.3,37.5,25.5z"/>
<path style="fill:#D9AB54;" d="M15.7,19.7c1.9-0.2,4.4,0.7,5.1,0c0.6-0.8,1.1-1.7,1.5-2.6c0,0-6.6-1.8-7.9-0.7S14.3,19.8,15.7,19.7z
	"/>
<path style="fill:#AE832F;" d="M11.8,15.9c0.1,0.2,0.3,0.3,0.5,0.3c0.2,0,0.4,0.1,0.6,0.1c0.2,0,0.5,0.1,0.6,0.3
	c0.2,0.1,0.3,0.3,0.4,0.5c0.1,0.2,0.2,0.3,0.4,0.4c0.2,0.1,0.3,0.1,0.5,0l0.3-0.1c0.1-0.1,0.3-0.1,0.4-0.1h0.3l0.1,0.1
	c0.1,0.1,0.2,0.2,0.2,0.3s0.2,0.3,0.3,0.5c0.1,0.1,0.1,0.1,0.2,0c0,0,0,0,0,0c0.1,0,0.1,0,0.2-0.1s0.3-0.3,0.4-0.4s0.3-0.3,0.5-0.5
	c0.1-0.1,0.2-0.2,0.4-0.2c0.1,0,0.2,0,0.2,0.1c0.1,0,0.1,0,0.1,0.1l0,0c0.1,0.1,0.1,0.2,0.1,0.4v0.8c0,0.1,0,0.1,0.1,0.1l0,0
	c0.1,0,0.2,0.1,0.3,0.1h0.3L19,18.8h-0.3c-0.1,0-0.1,0-0.1-0.1l0,0c0-0.1,0-0.1-0.1-0.1l0,0v-0.4c0-0.4-0.2-0.9-0.4-0.5
	c-0.2,0.1-0.3,0.3-0.4,0.5c-0.1,0.2-0.3,0.4-0.5,0.5c-0.1,0.1-0.3,0.1-0.4,0.2s-0.3,0-0.4-0.1l-0.3-0.3l-0.2-0.3
	c0-0.1-0.1-0.1-0.1-0.2h-0.3l-0.3,0.1c-0.3,0.1-0.6,0.1-0.8,0c-0.2-0.1-0.4-0.3-0.5-0.6c-0.1-0.2-0.2-0.3-0.3-0.5
	c-0.2-0.1-0.3-0.2-0.5-0.3c-0.2-0.1-0.4-0.1-0.6-0.2C12.2,16.4,12,16.2,11.8,15.9z"/>
</svg>
