<?xml version="1.0" encoding="utf-8"?>
<!-- Generator: Adobe Illustrator 22.0.0, SVG Export Plug-In . SVG Version: 6.00 Build 0)  -->
<svg version="1.1" id="Слой_1" xmlns="http://www.w3.org/2000/svg" xmlns:xlink="http://www.w3.org/1999/xlink" x="0px" y="0px"
	 viewBox="0 0 55.8 62.9" style="enable-background:new 0 0 55.8 62.9;" xml:space="preserve">
<title>Artboard 1 копия 8</title>
<g id="Слой_10">
	<path style="fill:#420019;" d="M22,61.3c-0.3,0-0.5-0.2-0.5-0.5c0-0.1,0-0.2,0.1-0.3c1-1.3,2.3-2.2,3.9-2.6V47.1
		c-0.3-0.1-0.6-0.2-0.9-0.4c-0.7,0.3-1.5,0.5-2.3,0.5h-0.6c-0.6,0-1.3-0.2-1.9-0.4c-0.6-0.3-1.2-0.7-1.7-1.2c-0.4-0.5-0.8-1.1-1-1.8
		c-0.2-0.6-0.3-1.2-0.4-1.9c0-0.3,0-0.6,0-0.9c-1.5-1.5-2.9-3-4.1-4.7c-1.3-1.7-2.4-3.6-3.1-5.6c-0.4-1.1-0.6-2.3-0.4-3.4
		c0.1-0.6,0.3-1.2,0.6-1.7c0.2-0.5,0.5-1,0.9-1.5c1.4-1.7,3.3-3,5.3-3.8c1.6-0.7,3.3-1.2,5-1.5c-0.3-1-0.5-2.1-0.6-3.1
		c0-0.3,0.2-0.5,0.5-0.5c0.1,0,0.2,0,0.3,0.1c0.8,0.4,1.7,0.6,2.7,0.7c1.3,0.3,2.4,0.9,3.3,1.9v-2.4c0-0.7,0.6-1.3,1.3-1.3l0,0H29
		c0.7,0,1.3,0.6,1.3,1.3l0,0v2c0.1-0.1,0.2-0.2,0.4-0.3c0.7-0.4,1.5-0.6,2.3-0.6c0.6,0,1.3,0.1,1.9,0.2c0.3,0.1,0.4,0.3,0.4,0.6
		c0,0.1-0.1,0.3-0.3,0.3c-0.3,0.3-0.5,0.6-0.6,1l0,0c2.1,0.4,4.1,0.9,6.1,1.8c1,0.4,2,0.9,2.8,1.6c0.9,0.6,1.7,1.5,2.3,2.4l0.1,0.2
		c0.1,0.2,0.2,0.4,0.3,0.6l0.2,0.4c0,0.1,0.1,0.2,0.1,0.3l0.1,0.5v0.5c0,0.3,0,0.6,0,0.9c0,1.1-0.2,2.2-0.6,3.3
		c-0.4,1-0.9,2-1.4,2.9c-0.5,0.9-1.1,1.8-1.7,2.7c-1,1.3-2,2.5-3.1,3.7l0,0c0.1,0.6,0.1,1.2,0.1,1.9c0,0.7-0.2,1.3-0.5,1.9
		c-0.3,0.6-0.7,1.2-1.3,1.6c-0.5,0.4-1.1,0.6-1.8,0.8c-0.6,0.2-1.2,0.2-1.8,0.2l0,0c-0.7,0-1.3-0.1-2-0.3l-0.2-0.1
		c-0.5,0.3-0.9,0.5-1.3,0.7l-0.6,0.2v10.6c3.6,0.8,3.6,3,3.6,3c0,0.3-0.2,0.5-0.5,0.5L22,61.3z"/>
	<path style="fill:#FFFFFF;" d="M29.1,14.6c0.4,0,0.8,0.3,0.8,0.8c0,0,0,0,0,0v3.1h0.3c0.3-0.4,0.6-0.7,0.9-1c0.6-0.4,1.3-0.5,2-0.5
		c0.6,0,1.2,0.1,1.8,0.2c-0.5,0.3-0.8,1-1.1,1.8l0.6,0.1c2.1,0.3,4.1,0.9,6,1.7c1,0.4,1.9,0.9,2.8,1.5c0.9,0.6,1.6,1.4,2.2,2.3
		c0.1,0.2,0.3,0.5,0.4,0.7l0.2,0.4c0,0.1,0.1,0.3,0.1,0.4l0.1,0.4v0.4c0,0.3,0,0.5,0,0.8c-0.1,1.1-0.3,2.1-0.7,3.1
		c-0.4,1-0.8,1.9-1.4,2.8c-0.5,0.9-1.1,1.8-1.7,2.6c-1,1.3-2.1,2.6-3.2,3.8v0.3c0.1,0.6,0.1,1.2,0.1,1.8c0,0.6-0.2,1.2-0.4,1.7
		c-0.3,0.5-0.7,1-1.1,1.4c-0.5,0.3-1,0.6-1.6,0.7c-0.5,0.1-1.1,0.2-1.6,0.2c-0.6,0-1.2-0.1-1.8-0.3l-0.4-0.1c-0.5,0.3-1,0.5-1.5,0.8
		c-0.3,0.1-0.6,0.2-0.9,0.3v11.3c3.7,0.6,3.6,2.6,3.6,2.6H22c1-1.3,2.4-2.2,4-2.5V46.7c-0.4-0.1-0.8-0.3-1.2-0.5l-0.2-0.1
		c-0.7,0.3-1.5,0.5-2.3,0.5h-0.5c-0.6,0-1.2-0.2-1.8-0.4c-0.6-0.2-1.1-0.6-1.5-1.1c-0.4-0.5-0.7-1-0.9-1.6c-0.2-0.6-0.3-1.1-0.3-1.7
		c0-0.3,0-0.7,0-1l-0.1-0.1c-1.5-1.5-2.9-3.1-4.2-4.7c-1.3-1.7-2.3-3.5-3-5.5c-0.4-1-0.5-2.1-0.4-3.2c0.1-0.5,0.3-1.1,0.5-1.6
		c0.2-0.5,0.5-0.9,0.8-1.4c1.4-1.6,3.1-2.9,5.1-3.6c1.9-0.7,3.8-1.3,5.8-1.6c-0.2-0.1-0.3-0.3-0.4-0.5c-0.3-1-0.5-2-0.5-3
		c0.9,0.4,1.9,0.7,2.9,0.8c1.2,0.1,2.7,1.4,3.4,2h0.5v-3c0-0.4,0.3-0.8,0.8-0.8l0,0L29.1,14.6 M29.1,13.6h-0.6c-1,0-1.8,0.8-1.8,1.8
		c0,0,0,0,0,0v1.3c-0.8-0.7-1.7-1.1-2.8-1.3c-0.9-0.1-1.7-0.3-2.5-0.7c-0.5-0.3-1.1-0.1-1.3,0.4C20,15.3,20,15.5,20,15.7
		c0.1,0.9,0.2,1.8,0.4,2.7c-1.6,0.3-3.2,0.8-4.7,1.4c-2.2,0.8-4.1,2.2-5.5,3.9c-0.4,0.5-0.7,1-1,1.6c-0.3,0.6-0.5,1.2-0.6,1.8v0
		c-0.1,1.2,0,2.5,0.5,3.6c0.7,2.1,1.8,4,3.2,5.8c1.2,1.6,2.6,3.2,4.1,4.6c0,0.2,0,0.5,0,0.7c0,0.7,0.2,1.4,0.4,2
		c0.2,0.7,0.5,1.4,1,1.9c0.5,0.6,1.1,1.1,1.9,1.3c0.6,0.2,1.3,0.4,2,0.4h0.6c0.8,0,1.6-0.1,2.3-0.4l0.4,0.2v10.1
		c-1.5,0.5-2.8,1.4-3.8,2.7c-0.3,0.5-0.2,1.1,0.3,1.4c0.2,0.1,0.4,0.2,0.6,0.2h11.6c0.6,0,1-0.4,1-1c0-0.1,0-2.5-3.6-3.5v-9.8
		l0.3-0.1c0.4-0.2,0.8-0.4,1.1-0.6l0,0c0.7,0.2,1.4,0.3,2.1,0.3c0.6,0,1.3-0.1,1.9-0.3c0.7-0.2,1.3-0.5,1.9-0.9
		c0.6-0.5,1.1-1.1,1.5-1.8c0.3-0.7,0.5-1.4,0.5-2.1c0-0.6,0-1.2-0.1-1.8c1-1.1,2-2.3,2.9-3.5c0.6-0.9,1.2-1.8,1.8-2.7
		c0.6-1,1-2,1.4-3c0.4-1.1,0.7-2.2,0.8-3.4c0-0.3,0-0.7,0-1v-0.4c0,0,0-0.1,0-0.1l-0.1-0.4v-0.1c0-0.2-0.1-0.3-0.1-0.5L46.7,25
		c-0.1-0.2-0.2-0.4-0.3-0.6l-0.1-0.2v0c-0.6-1-1.5-1.9-2.5-2.6c-0.9-0.7-1.9-1.2-3-1.6c-1.8-0.7-3.7-1.3-5.6-1.7
		c0-0.1,0.1-0.1,0.2-0.2c0.5-0.3,0.7-0.9,0.4-1.3c-0.1-0.3-0.4-0.5-0.7-0.5c-0.7-0.1-1.3-0.2-2-0.2c-0.8,0-1.5,0.1-2.2,0.4v-1
		C30.9,14.4,30.1,13.6,29.1,13.6C29.1,13.6,29.1,13.6,29.1,13.6z"/>
	<rect x="25.9" y="46" style="fill:#6D1927;" width="4" height="12.7"/>
	<path style="fill:#99242C;" d="M32.2,59.3c-0.6-0.3-1.2-0.5-1.8-0.6c-0.4-0.2-1-0.1-1.3-0.5s0-2.1,0-2.6c0-0.4,0.3-2.9-0.1-4.1
		c-0.1-0.2-1.9-1-2.2,0.5s0.3,5.6,0.1,6c-0.3,0.7-1.7,1.1-1.8,1.1c-0.3,0.1-1.5,0.7-1.4,0.9s1.1,0.3,1.4,0.3c1.1,0,2.2-0.1,3.3-0.1
		c0.5,0,1.1-0.1,1.6-0.1l0.5,0.1c0.5,0.1,0.9,0.1,1.4,0.1C32.4,60.4,32.6,59.6,32.2,59.3z"/>
	<path style="fill:#81BA50;" d="M28.8,14.6L28.8,14.6c0.6,0,1.1,0.5,1.1,1.1v2.9c0,0.6-0.5,1.1-1.1,1.1h0c-0.6,0-1.1-0.5-1.1-1.1
		v-2.9C27.7,15.1,28.2,14.6,28.8,14.6z"/>
	<path style="fill:#48A955;" d="M27.5,18.7c0,0-2.1-2.2-3.7-2.4c-1-0.1-1.9-0.4-2.8-0.8c0.1,1,0.3,2,0.5,3c0.4,1,4.7,3.2,4.7,3.2
		s5.3,1.3,6.4-0.2c1.2-1.6,1.3-4,2.3-4.5c0,0-2.7-0.5-3.8,0.3c-0.8,0.8-1.5,1.8-1.9,2.9L27.5,18.7z"/>
	<path style="fill:#C3402B;" d="M28.3,18.4c0,0,13.9,0.5,17.1,6.9S34.6,47,28.3,47s-20-14.2-18.1-20.3S22.2,18.7,28.3,18.4z"/>
	<path style="fill:#99242C;" d="M28.3,18.3c1,0,2.1,0.1,3.1,0.3c1,0.1,2,0.3,3.1,0.5c2.1,0.3,4.1,0.9,6,1.7c1,0.4,1.9,0.9,2.8,1.5
		c0.9,0.6,1.6,1.4,2.2,2.3c0.1,0.2,0.3,0.5,0.4,0.7l0.2,0.4c0,0.1,0.1,0.3,0.1,0.4l0.1,0.4v0.4c0,0.3,0,0.5,0,0.8
		c-0.1,1.1-0.3,2.1-0.7,3.1c-0.4,1-0.8,1.9-1.4,2.8c-0.5,0.9-1.1,1.8-1.7,2.6c-1.2,1.7-2.6,3.3-4,4.8c-0.7,0.7-1.5,1.4-2.3,2.1
		c-0.8,0.7-1.6,1.3-2.4,1.9c-0.9,0.6-1.8,1.1-2.7,1.5c-1,0.5-2,0.7-3.1,0.6c-1-0.1-2.1-0.4-3-0.9c-1-0.5-1.9-1-2.8-1.6
		c-1.7-1.2-3.3-2.5-4.8-4c-1.5-1.4-2.9-3-4.1-4.7c-1.3-1.7-2.3-3.5-3-5.5c-0.4-1-0.5-2.1-0.4-3.2c0.1-0.5,0.3-1.1,0.5-1.6
		c0.2-0.5,0.5-0.9,0.8-1.4c1.4-1.6,3.1-2.9,5.1-3.6c1.9-0.8,3.9-1.3,6-1.7C24.2,18.7,26.2,18.4,28.3,18.3z M28.3,18.4
		c-2.1,0.1-4.1,0.4-6.1,0.9c-2,0.4-4,1.1-5.8,1.9c-1.9,0.8-3.5,2-4.8,3.6c-0.3,0.4-0.5,0.8-0.7,1.3c-0.1,0.2-0.2,0.4-0.3,0.7
		c0,0.1-0.1,0.2-0.1,0.3c0,0.1-0.1,0.2-0.1,0.3c-0.1,1,0.1,2,0.4,2.9c0.7,1.9,1.7,3.7,2.9,5.3c1.2,1.7,2.5,3.2,4,4.7
		c0.7,0.7,1.5,1.4,2.3,2.1c0.8,0.7,1.6,1.3,2.4,1.9c0.8,0.6,1.7,1.1,2.6,1.6c0.9,0.5,1.9,0.8,2.9,1c1,0.1,2-0.1,2.9-0.5
		c0.9-0.4,1.8-0.9,2.7-1.5c1.7-1.2,3.3-2.5,4.7-4c0.7-0.7,1.4-1.5,2.1-2.3s1.3-1.6,1.8-2.5c0.6-0.8,1.1-1.7,1.6-2.6
		c0.5-0.9,0.9-1.8,1.3-2.8c0.4-0.9,0.6-1.9,0.6-2.9c0-0.2,0-0.5,0-0.7v-0.4l-0.1-0.4c0-0.1-0.1-0.2-0.1-0.4l-0.1-0.3
		c-0.1-0.2-0.2-0.4-0.3-0.6c-0.5-0.8-1.2-1.6-2-2.2c-0.8-0.6-1.7-1.1-2.6-1.6c-1.9-0.9-3.8-1.5-5.8-1.9
		C32.4,18.8,30.3,18.5,28.3,18.4L28.3,18.4z"/>
	<path style="fill:#81BA50;" d="M29.4,28.2c0.2-2,0.5-4.9,5.7-5.1s5.9,3.6,6,5.7s-0.8,5.8-6,5.8C30.6,34.6,29.1,30.3,29.4,28.2z"/>
	<path style="fill:#99242C;" d="M29.4,28.1c0.1-0.8,0.2-1.6,0.4-2.3c0.2-0.8,0.7-1.5,1.4-2c0.7-0.5,1.4-0.8,2.2-1
		c0.4-0.1,0.8-0.1,1.2-0.1c0.2,0,0.4,0,0.6,0h0.6h0.3h0.3l0.6,0.1l0.6,0.2c0.2,0.1,0.4,0.1,0.6,0.2c0.8,0.4,1.4,0.9,1.9,1.6
		c0.5,0.7,0.8,1.4,1,2.2c0.2,0.8,0.3,1.6,0.3,2.4c0,0.8-0.1,1.6-0.4,2.4c-0.3,0.8-0.8,1.5-1.5,2c-0.7,0.5-1.4,0.9-2.2,1.1
		c-0.8,0.2-1.6,0.3-2.4,0.2c-0.8,0-1.6-0.2-2.4-0.6c-0.7-0.4-1.3-1-1.8-1.6c-0.5-0.7-0.8-1.4-1-2.2C29.4,29.8,29.3,29,29.4,28.1z
		 M29.4,28.1c-0.1,1.5,0.4,3.1,1.5,4.2c1,1.1,2.4,1.8,3.8,1.8c0.4,0,0.7,0,1.1,0c0.2,0,0.4,0,0.5-0.1c0.2,0,0.4,0,0.6-0.1
		c0.7-0.1,1.4-0.4,2-0.9c0.6-0.4,1-1,1.4-1.7c0.3-0.7,0.5-1.4,0.6-2.1c0-0.4,0-0.8,0-1.1c0-0.4-0.1-0.8-0.2-1.2
		c-0.2-0.7-0.5-1.4-0.9-2c-0.5-0.6-1.1-1-1.8-1.3c-0.2-0.1-0.4-0.1-0.5-0.2l-0.5-0.1h-0.6h-0.3h-0.3c-1.5-0.1-3,0.2-4.3,0.9
		c-0.6,0.4-1.2,1-1.5,1.6c-0.2,0.3-0.3,0.7-0.4,1C29.5,27.4,29.5,27.8,29.4,28.1L29.4,28.1z"/>
	<path style="fill:#81BA50;" d="M14.6,27.6c0.6-1.8,2.2-4.8,6.2-4.3s5.9,4.7,5.5,6.3c-0.6,2.3-4.3,6.9-8.2,5.2S14.2,28.8,14.6,27.6z
		"/>
	<path style="fill:#99242C;" d="M14.6,27.6c0.2-0.7,0.6-1.4,1-2.1c0.4-0.7,1-1.3,1.6-1.7c0.7-0.5,1.5-0.7,2.3-0.8
		c0.8-0.1,1.6,0,2.4,0.3c0.8,0.2,1.5,0.6,2.1,1.2c0.6,0.5,1.1,1.1,1.5,1.8c0.4,0.7,0.7,1.4,0.9,2.1c0.1,0.4,0.1,0.8,0.1,1.2
		c-0.1,0.4-0.2,0.8-0.4,1.1c-0.7,1.5-1.7,2.7-3,3.7c-0.6,0.5-1.4,0.9-2.2,1.1c-0.8,0.2-1.7,0.2-2.5,0c-0.2-0.1-0.4-0.1-0.6-0.2
		l-0.5-0.3c-0.2-0.1-0.4-0.2-0.5-0.3l-0.3-0.2l-0.2-0.2c-0.6-0.6-1.1-1.2-1.4-2c-0.3-0.7-0.5-1.5-0.6-2.3c0-0.4,0-0.8,0-1.2
		C14.4,28.3,14.5,28,14.6,27.6z M14.6,27.6c-0.2,0.7-0.2,1.5,0,2.3c0.1,0.7,0.4,1.5,0.8,2.1c0.8,1.3,1.9,2.2,3.3,2.7
		c1.4,0.4,2.9,0.1,4.1-0.8c1.2-0.9,2.3-2,3-3.3c0.9-1.3,0.3-3-0.5-4.2c-0.4-0.6-1-1.2-1.6-1.6c-0.6-0.4-1.3-0.7-2-0.9
		c-1.4-0.4-2.9-0.3-4.3,0.4C16.1,24.9,15.1,26.1,14.6,27.6L14.6,27.6z"/>
	<path d="M20.8,23.3c0,0,3.4,1,4.7,3.1s-0.5,5.6-2.7,6c-3.3,0.7-7,0.3-7.3-4.4S19.1,23.1,20.8,23.3z"/>
	<path d="M34.2,23.1c0,0,3.7-0.3,4.7,1.7s1.8,7.7-3.6,7.4s-5.7-4.7-5.1-6.7S34.2,23.1,34.2,23.1z"/>
	<path style="fill:#FFFFFF;" d="M37.8,29.8c0,0-0.7-0.8-0.3-1c0.4-0.1,0.8,0,1,0.4c0.2,0.3,0.6,0.7,0.2,1S37.8,29.8,37.8,29.8z"/>
	<path style="fill:#6D1927;" d="M27.9,34.8c0,0,0.7,0,0.8-0.4s0.2-0.7,0.7-0.7s1.2,3.6-1.5,3.6s-2.7-3.7-2-3.9S26.7,34.6,27.9,34.8z
		"/>
	<path style="fill:#99242C;" d="M22,60.8c0,0,2-3.1,6.9-2.8s4.7,2.8,4.7,2.8L22,60.8z"/>
	<path style="fill:#6D1927;" d="M28,39.8c0.1-0.3,0.2-0.5,0.4-0.7c0.2-0.2,0.4-0.4,0.6-0.6c0.5-0.4,1.1-0.5,1.7-0.4
		c0.1,0,0.3,0,0.4,0c0.1,0,0.3,0.1,0.4,0.2c0.3,0.1,0.5,0.3,0.7,0.6c0.3,0.5,0.4,1.1,0.3,1.7c-0.3,1.1-0.8,2.1-1.6,2.9
		c-0.4,0.4-0.8,0.8-1.2,1.1c-0.4,0.4-1,0.6-1.6,0.6c-0.6,0-1.1-0.2-1.6-0.5c-0.5-0.3-0.9-0.6-1.3-1.1c-0.8-0.8-1.4-1.9-1.6-3
		c-0.1-0.6,0-1.2,0.3-1.7c0.2-0.2,0.4-0.4,0.7-0.5c0.1-0.1,0.3-0.1,0.4-0.1l0.2-0.1h0.2c0.6-0.1,1.2,0,1.7,0.3
		C27.4,38.7,27.8,39.2,28,39.8L28,39.8z M28,39.8c-0.2-0.5-0.6-0.9-1.1-1.2c-0.5-0.2-1-0.3-1.5-0.2c-0.5,0.1-1,0.3-1.3,0.7
		c-0.3,0.4-0.3,1-0.2,1.5c0.4,1.6,1.4,2.9,2.7,3.8c0.4,0.3,0.9,0.5,1.5,0.6c0.5,0,1.1-0.2,1.5-0.5c0.4-0.3,0.8-0.7,1.2-1.1
		c0.7-0.8,1.2-1.8,1.4-2.9c0-0.3,0-0.5,0-0.8c0-0.2-0.1-0.5-0.3-0.7c-0.3-0.4-0.8-0.7-1.3-0.7c-0.5-0.1-1.1,0-1.5,0.3
		C28.6,38.9,28.3,39.3,28,39.8L28,39.8z"/>
	<path style="fill:#D66A49;" d="M28,40.2c0.1-0.2,0.2-0.4,0.4-0.6c0.1-0.2,0.3-0.4,0.5-0.6c0.4-0.4,0.9-0.6,1.4-0.7
		c0.5,0,1.1,0.2,1.4,0.6c0.3,0.4,0.4,1,0.3,1.5c-0.2,1-0.7,1.9-1.3,2.7c-0.3,0.4-0.6,0.8-1,1.1c-0.4,0.3-0.8,0.6-1.4,0.7
		c-0.5,0-1-0.1-1.5-0.4c-0.4-0.3-0.8-0.6-1.2-1c-0.7-0.8-1.2-1.7-1.5-2.7c-0.2-0.5-0.1-1.1,0.1-1.6c0.1-0.2,0.3-0.4,0.6-0.6
		c0.2-0.1,0.5-0.2,0.8-0.2c0.5-0.1,1.1,0.1,1.5,0.4C27.6,39.2,27.9,39.7,28,40.2z M28,40.2c-0.2-0.5-0.6-0.9-1-1.2
		c-0.4-0.3-0.9-0.4-1.4-0.3c-0.2,0.1-0.4,0.2-0.6,0.3c-0.2,0.1-0.4,0.3-0.5,0.5c-0.2,0.4-0.2,0.9,0,1.4c0.3,0.9,0.7,1.8,1.4,2.5
		c0.3,0.4,0.7,0.7,1.1,1c0.4,0.3,0.9,0.4,1.3,0.4c0.5-0.1,0.9-0.3,1.3-0.6c1.2-0.9,1.9-2.3,2.2-3.8c0.1-0.5,0-1-0.4-1.4
		c-0.3-0.3-0.8-0.5-1.2-0.5c-0.5,0-0.9,0.2-1.3,0.5C28.5,39.3,28.2,39.7,28,40.2L28,40.2z"/>
	<path style="fill:#FFFFFF;" d="M17,27.1c-0.3-0.1-0.7-1.2,0.6-2s2-0.6,2.1-0.2S18,27.4,17,27.1z"/>
	<path style="fill:#FFFFFF;" d="M23.5,30c0,0-0.7-0.8-0.3-1c0.4-0.1,0.8,0,1,0.4c0.2,0.3,0.6,0.7,0.2,1S23.5,30,23.5,30z"/>
	<path style="fill:#FFFFFF;" d="M32,24.9c0,0,1.4-0.8,2-0.3s-0.5,1.2-0.9,1.6s-1,1.3-1.8,0.7S32,24.9,32,24.9z"/>
	<path style="fill:#D66A49;" d="M14.3,27.6c0,1.6,0.2,3.1,0.6,4.6c0.2,0.5,0.6,1.1,1,1.5c0.4,0.5,0.9,0.9,1.5,1.2
		c1.1,0.5,2.4,0.7,3.6,0.6c0.6-0.1,0.8-0.3,1.4-0.6c0.8-0.5,1.6-1.1,2.2-1.8c-0.4,0.9-1,1.8-1.7,2.5c-0.6,0.4-1.2,0.6-1.9,0.7
		c-0.7,0.1-1.4,0.1-2.1,0c-0.7-0.1-1.3-0.3-1.9-0.6c-0.8-0.3-1.4-0.8-2-1.4c-0.4-0.6-0.7-1.3-0.9-2c-0.2-0.7-0.2-1.3-0.2-2
		C13.9,29.4,14.1,28.5,14.3,27.6z"/>
	<path style="fill:#D66A49;" d="M30.2,32.5c0.4,0.5,0.9,1,1.5,1.3c0.4,0.3,0.9,0.6,1.4,0.7c1.1,0.3,2.3,0.4,3.5,0.3l0.9-0.1
		c0.3-0.1,0.4-0.2,0.6-0.3c0.5-0.2,1-0.6,1.5-1c0.9-1,1.5-2.3,1.6-3.6c0.2,1.6-0.2,3.2-1.2,4.5c-0.8,0.9-1.9,1.4-3.1,1.4
		c-0.6,0.1-1.2,0.1-1.8,0c-0.3,0-0.7,0-1-0.1c-0.3-0.1-0.7-0.2-1-0.3c-0.6-0.1-1.1-0.4-1.6-0.8C31,34,30.5,33.3,30.2,32.5z"/>
	<path style="fill:#D66A49;" d="M25.4,33.5c-0.1,0.6-0.1,1.3,0,1.9c0.1,0.6,0.3,1.2,0.8,1.6c0.2,0.2,0.5,0.4,0.8,0.5
		c0.3,0.1,0.6,0.2,0.9,0.2c0.6,0,1.3-0.2,1.8-0.6c-0.7,0.9-1.8,1.2-2.8,0.7c-0.3-0.1-0.6-0.3-0.9-0.5c-0.5-0.5-0.8-1.2-0.9-1.9
		C25,34.7,25.1,34.1,25.4,33.5z"/>
	<path style="fill:#B55061;" d="M23.9,59.7c0.5-0.5,1.1-0.8,1.7-1.1c0.6-0.3,1.3-0.4,2-0.5c0.7-0.1,1.3,0,2,0.2
		c0.7,0.2,1.3,0.5,1.8,0.8c-0.7-0.1-1.3-0.3-1.9-0.3c-0.6-0.1-1.2-0.1-1.9,0C26.4,59,25.1,59.3,23.9,59.7z"/>
	<path style="fill:#FFFFFF;" d="M14.5,29.5c0.3,1.2,0.9,2.4,1.9,3.2c0.7,0.7,1.6,1.1,2.5,1.2c1,0.2,2,0.1,3-0.2
		c1.2-0.3,2.3-1.1,3.1-2.1c-0.4,0.6-0.9,1.3-1.4,1.8c-0.4,0.5-0.9,0.8-1.4,1.1c-0.6,0.2-1.1,0.4-1.8,0.4c-0.6,0-1.2,0-1.8-0.1
		c-0.6-0.1-1.2-0.4-1.7-0.8c-0.5-0.3-0.9-0.8-1.3-1.3C15.1,31.8,14.7,30.6,14.5,29.5z"/>
	<path style="fill:#FFFFFF;" d="M29.7,30.4c0.6,1,1.5,1.9,2.5,2.6c0.5,0.3,1.1,0.5,1.7,0.7c0.1,0,0.3,0.1,0.4,0.1h0.4h0.4
		c0.1,0,0.3,0,0.4,0c0.3,0,0.6-0.1,0.9-0.2l0.4-0.1l0.4-0.2c0.3-0.1,0.6-0.2,0.8-0.4c0.1-0.1,0.3-0.2,0.4-0.2
		c0.1-0.1,0.3-0.2,0.4-0.3c1-0.7,1.7-1.9,1.8-3.1c0.1,1.3-0.5,2.7-1.5,3.6c-0.5,0.4-1.1,0.8-1.7,1l-0.5,0.2l-0.5,0.1
		c-0.3,0.1-0.7,0.2-1,0.2c-1.4,0.2-2.7-0.2-3.8-1C30.9,32.7,30.1,31.6,29.7,30.4z"/>
	<path style="fill:#420019;" d="M26.1,33.7c0.3,0.2,0.5,0.5,0.8,0.7c0.2,0.2,0.5,0.4,0.8,0.5c0.1,0,0.3,0,0.4,0
		c0.2,0,0.3-0.1,0.4-0.1c0.3-0.2,0.5-0.4,0.6-0.7c0,0.2,0,0.4-0.1,0.5c-0.1,0.2-0.2,0.3-0.4,0.5c-0.2,0.1-0.3,0.2-0.5,0.2
		c-0.2,0.1-0.4,0.1-0.6,0c-0.3-0.1-0.7-0.4-0.9-0.7C26.5,34.4,26.3,34.1,26.1,33.7z"/>
	<path style="fill:#C3402B;" d="M17.7,38.4c0,0-1.3,6.7,3,7.9s6.5-2.8,6-4c-0.2-0.8-1-1.2-1.8-1c-0.2,0-0.3,0.1-0.4,0.2
		c-0.9,0.5-1.5,1.2-2.3,0.9s-2.1-1.2-1.1-3.7"/>
	<path style="fill:#99242C;" d="M17.8,38.4c-0.1,1.1,0,2.3,0.1,3.4c0.1,1.1,0.5,2.1,1.1,3c0.6,0.9,1.6,1.5,2.7,1.6
		c1.1,0.2,2.2-0.2,3.1-0.9c0.4-0.3,0.8-0.7,1.1-1.2c0.3-0.4,0.5-0.9,0.5-1.4c0-0.1,0-0.2,0-0.3v-0.1v-0.1c0-0.1-0.1-0.1-0.1-0.2
		c-0.3-0.5-0.9-0.8-1.5-0.5c-0.1,0-0.2,0.1-0.2,0.1c-0.2,0.1-0.5,0.3-0.7,0.4c-0.3,0.2-0.5,0.3-0.8,0.4c-0.2,0.1-0.3,0.1-0.5,0.1
		c-0.2,0-0.4,0-0.5-0.1c-0.3-0.1-0.6-0.3-0.8-0.6c-0.2-0.2-0.4-0.5-0.5-0.8c-0.1-0.3-0.1-0.6-0.1-0.9c0-0.6,0.2-1.2,0.5-1.7h0.1
		C21,39.3,21,39.8,21,40.4c0,0.3,0.1,0.5,0.2,0.8c0.1,0.2,0.3,0.4,0.4,0.6c0.2,0.2,0.4,0.3,0.6,0.4c0.2,0.1,0.4,0.1,0.6,0
		c0.4-0.2,0.9-0.6,1.4-0.8c0.3-0.2,0.6-0.3,0.9-0.3c0.4-0.1,0.7,0,1.1,0.2c0.3,0.2,0.5,0.5,0.7,0.8c0,0.1,0.1,0.1,0.1,0.2v0.1v0.2
		c0,0.2,0,0.4,0,0.5c-0.1,0.6-0.3,1.2-0.7,1.7c-0.4,0.5-0.8,0.9-1.3,1.2c-1,0.6-2.2,0.9-3.4,0.8c-0.6,0-1.1-0.2-1.7-0.4
		c-0.6-0.2-1.1-0.6-1.5-1.1c-0.4-0.5-0.7-1-0.9-1.6c-0.2-0.6-0.3-1.1-0.3-1.7C17.3,40.7,17.4,39.5,17.8,38.4L17.8,38.4z"/>
	<path style="fill:#C3402B;" d="M38.1,37.1c0,0,2.7,6.4-1.1,8.4s-8.6-1.7-6.5-4c1.6-1.8,3.7,0.9,4.6,0.9c1.1,0.1,1.5-1.2,1.4-1.9"/>
	<path style="fill:#99242C;" d="M38.1,37.1c0.5,1,0.9,2.1,1.1,3.3c0.1,0.6,0.1,1.2,0.1,1.8c0,0.6-0.2,1.2-0.4,1.7
		c-0.3,0.5-0.7,1-1.1,1.4c-0.5,0.3-1,0.6-1.6,0.7c-1.1,0.3-2.3,0.3-3.4,0c-1.2-0.3-2.2-1.1-2.8-2.1c-0.3-0.6-0.4-1.3-0.1-1.9
		c0.1-0.3,0.3-0.6,0.6-0.8c0.5-0.5,1.2-0.7,1.9-0.5c0.3,0.1,0.6,0.2,0.9,0.4c0.5,0.3,1,0.6,1.4,1c0.1,0.1,0.2,0.2,0.3,0.2
		c0.1,0.1,0.2,0.1,0.3,0.1c0.2,0,0.5-0.1,0.6-0.2c0.4-0.4,0.6-0.9,0.6-1.5h0.1c0.1,0.3,0.1,0.6,0,0.9c-0.1,0.3-0.2,0.6-0.4,0.8
		c-0.2,0.3-0.5,0.4-0.9,0.5c-0.2,0-0.4,0-0.5-0.1c-0.1-0.1-0.3-0.1-0.4-0.2c-0.5-0.3-1-0.6-1.4-0.8c-0.4-0.2-0.9-0.3-1.4-0.3
		c-0.4,0.1-0.8,0.5-1,0.9c-0.2,0.4-0.2,0.9,0,1.3c0.2,0.5,0.6,0.9,1,1.2c0.4,0.3,0.9,0.6,1.4,0.8c1,0.4,2.2,0.5,3.2,0.2
		c0.5-0.2,1-0.4,1.4-0.8c0.4-0.4,0.7-0.8,0.8-1.3c0.3-1,0.4-2.1,0.3-3.2c-0.1-1.1-0.3-2.3-0.6-3.4L38.1,37.1z"/>
	<path style="fill:#6D1927;" d="M14,22.9c0.2,0.1,0.5,0.1,0.8,0.2c0.2,0,0.4,0.1,0.7,0.1h0.7h0.4c0.1,0,0.3,0,0.4,0
		c-0.1,0.1-0.2,0.2-0.3,0.3c-0.1,0.1-0.2,0.2-0.4,0.2c-0.3,0.1-0.6,0.2-0.9,0.1c-0.3,0-0.6-0.1-0.8-0.3C14.3,23.4,14.1,23.2,14,22.9
		z"/>
	<path style="fill:#6D1927;" d="M23,21.3c0.1,0.3,0.3,0.7,0.4,1c0,0.1,0.1,0.3,0.1,0.4s0.1,0.3,0.2,0.5c-0.2,0.1-0.5,0-0.6-0.1
		c-0.2-0.1-0.3-0.3-0.4-0.5c-0.1-0.2-0.1-0.4,0-0.6C22.7,21.7,22.8,21.5,23,21.3z"/>
	<path style="fill:#6D1927;" d="M42.2,23.1c-0.1,0.3-0.3,0.5-0.5,0.7c-0.2,0.2-0.5,0.3-0.8,0.3c-0.3,0-0.6,0-0.9-0.1
		c-0.1-0.1-0.3-0.1-0.4-0.2c-0.1-0.1-0.2-0.2-0.3-0.3c0.1,0,0.3,0,0.4,0h0.4h0.7c0.2,0,0.4,0,0.7-0.1C41.7,23.3,41.9,23.2,42.2,23.1
		z"/>
	<path style="fill:#6D1927;" d="M39,21.1c0,0.3-0.1,0.5-0.3,0.7c-0.2,0.2-0.4,0.3-0.7,0.4c-0.2,0.1-0.5,0.1-0.8,0.1
		c-0.3,0-0.5-0.1-0.8-0.2c0.2-0.1,0.4-0.3,0.7-0.4c0.2-0.1,0.4-0.2,0.6-0.3l0.6-0.2C38.5,21.3,38.7,21.2,39,21.1z"/>
	<path style="fill:#99242C;" d="M35.2,20.2c0.2,0.2,0.2,0.5,0.2,0.8c0,0.3-0.1,0.5-0.3,0.7c-0.2,0.2-0.4,0.4-0.6,0.5
		c-0.1,0-0.2,0.1-0.4,0.1c-0.1,0-0.3,0-0.4,0c0.1-0.1,0.1-0.2,0.2-0.3l0.2-0.3l0.4-0.4c0.1-0.1,0.2-0.3,0.3-0.4
		C35,20.6,35.1,20.4,35.2,20.2z"/>
	<path style="fill:#6D1927;" d="M32.8,20.4c0.2,0.1,0.3,0.3,0.3,0.5c0.1,0.2,0.1,0.4,0,0.6c-0.1,0.2-0.2,0.4-0.4,0.5
		c-0.2,0.1-0.4,0.2-0.7,0.1c0.1-0.2,0.2-0.4,0.2-0.5s0.1-0.3,0.2-0.4C32.6,21,32.7,20.7,32.8,20.4z"/>
	<path style="fill:#D66A49;" d="M30.8,42.2c0.1-0.2,0.2-0.4,0.4-0.5c0.2-0.1,0.4-0.2,0.6-0.2c0.4,0,0.9,0.2,1.2,0.4
		c0.6,0.4,1.2,0.8,1.9,1c0.2,0,0.3,0,0.5,0c0.1,0,0.3-0.1,0.4-0.1c0.3-0.2,0.5-0.5,0.6-0.8c0.2-0.7,0.4-1.5,0.4-2.3
		c0.2,0.8,0.2,1.6,0.1,2.4c-0.1,0.5-0.3,0.9-0.7,1.2c-0.2,0.1-0.4,0.2-0.7,0.3c-0.2,0-0.5,0-0.7,0c-0.4-0.1-0.9-0.2-1.2-0.5
		c-0.3-0.2-0.6-0.5-1-0.7c-0.3-0.2-0.6-0.4-0.9-0.5C31.4,41.8,31,41.9,30.8,42.2z"/>
	<path style="fill:#D66A49;" d="M25.2,20.1c-0.2,0-0.4,0.1-0.6,0.3c-0.2,0-0.4,0.1-0.6,0.3c-0.2,0.3-0.3,0.6-0.2,0.9
		c0.1,0.7,0.5,1.2,1,1.6c0.3,0.2,0.7,0.2,1,0.1c0.4-0.2,0.6-0.5,0.7-0.9C26.8,21.4,26.4,19.9,25.2,20.1z"/>
	<path style="fill:#D66A49;" d="M25.4,21.2L25.4,21.2C25.4,21.2,25.4,21.2,25.4,21.2z"/>
	<path style="fill:#D66A49;" d="M32.2,21.2c-0.1-0.4-0.4-0.8-0.9-0.9C31.3,20.1,31.1,20,31,20c-0.5-0.2-1.1,0-1.5,0.5
		c-0.2,0.5-0.1,1,0.2,1.4c0.3,0.5,0.8,0.7,1.4,0.6c0.7,0,1.1-0.6,1.1-1.2C32.2,21.3,32.2,21.2,32.2,21.2z"/>
	<path style="fill:#D66A49;" d="M36.5,21c0-0.2-0.1-0.4-0.2-0.6c-0.1-0.2-0.2-0.4-0.3-0.5c-0.2-0.2-0.6-0.3-0.9-0.2
		c-0.1-0.1-0.3-0.1-0.4,0c-0.6,0.3-1,0.9-0.8,1.6c0.1,0.7,0.8,1.2,1.5,1.1c0,0,0,0,0,0c0.1,0,0.2-0.1,0.4-0.1
		c0.2-0.1,0.4-0.2,0.5-0.4C36.4,21.6,36.6,21.3,36.5,21z"/>
	<path style="fill:#D66A49;" d="M45.3,25.8c-0.2-0.7-0.8-1.3-1.6-1.5c-0.1,0-0.2,0-0.3,0h-0.1c-0.3-0.2-0.6-0.1-0.7,0.2c0,0,0,0,0,0
		c-0.2,0.6-0.2,1.3,0.2,1.8c0.2,0.6,0.8,1,1.4,1.1c0.7-0.1,1.2-0.7,1.1-1.3C45.3,25.9,45.3,25.9,45.3,25.8z"/>
	<path style="fill:#D66A49;" d="M34.5,36.8c-0.2,0-0.4,0.1-0.6,0.2c-0.1,0-0.2,0.1-0.3,0.3l0,0c-0.2,0.2-0.3,0.5-0.3,0.7
		c-0.3,0.7-0.1,1.6,0.5,2c0.8,0.4,1.7,0.1,2.1-0.6c0.1-0.2,0.2-0.4,0.2-0.6c0.2-0.9-0.4-1.8-1.3-2C34.7,36.8,34.6,36.8,34.5,36.8z"
		/>
	<path style="fill:#D66A49;" d="M20.4,20.2c-0.7-0.2-1.4-0.1-2,0.1c-0.1,0-0.3,0.1-0.3,0.2c-0.2,0.1-0.4,0.4-0.4,0.6
		c-0.2,0.5,0.1,1.1,0.6,1.3c0.1,0,0.2,0.1,0.3,0.1c0.6,0.1,1.2-0.2,1.6-0.8v-0.1c0.2-0.1,0.4-0.3,0.5-0.6
		C20.8,20.7,20.7,20.4,20.4,20.2C20.4,20.2,20.4,20.2,20.4,20.2z"/>
	<path style="fill:#D66A49;" d="M12.7,25.7L12.7,25.7z"/>
	<path style="fill:#D66A49;" d="M13.7,25.1c-0.3-0.5-0.9-0.7-1.3-0.4c0,0-0.1,0-0.1,0.1c-0.1,0-0.2,0-0.3,0.1
		c-0.7,0.3-1,1.2-0.6,1.8c0,0,0,0,0,0c0.4,0.6,1.1,0.8,1.7,0.5C13.7,26.7,14,25.9,13.7,25.1z"/>
	<polygon style="fill:#D66A49;" points="12.6,25.9 12.6,25.9 12.6,25.9 	"/>
	<path style="fill:#D66A49;" d="M44.1,29.5l-0.2,0c-0.1-0.1-0.3-0.2-0.4-0.1c-1,0.2-1.3,2.2-0.2,2.5c0.6,0.2,1.2-0.5,1.4-1
		C44.9,30.3,44.6,29.7,44.1,29.5z"/>
	<path style="fill:#D66A49;" d="M41.9,34.4c-0.6-0.1-1.2,0.2-1.4,0.7c-0.5,0.2-0.8,0.8-0.6,1.3c0,0.1,0.1,0.2,0.2,0.3
		c0.7,0.6,1.6,0,2-0.6c0.2-0.2,0.3-0.5,0.4-0.8C42.6,34.9,42.3,34.5,41.9,34.4z"/>
	<path style="fill:#D66A49;" d="M18.1,37.4C17.7,37,17,36.5,16.5,37l0,0c-0.3,0-0.5,0.2-0.5,0.5c0,0.1,0,0.1,0,0.2
		c0.2,0.5,0.4,0.9,0.7,1.3c0.3,0.5,0.9,0.6,1.4,0.3c0,0,0.1,0,0.1-0.1C18.6,38.6,18.6,37.9,18.1,37.4z"/>
	<path style="fill:#99242C;" d="M25.7,20.9c-0.2-0.2-0.8-0.2-0.9-0.2c-0.3,0-0.5,0.2-0.5,0.5c-0.1,0.4,0,0.8,0.3,1.1
		c0.2,0.2,0.6,0.3,0.9,0.2c0.3-0.1,0.5-0.4,0.6-0.7C26.1,21.6,26,21.2,25.7,20.9z"/>
	<path style="fill:#99242C;" d="M13,25.4c-0.1-0.1-0.7-0.1-0.7-0.1c-0.2,0-0.4,0.2-0.4,0.4c0,0.3,0,0.6,0.2,0.9
		c0.2,0.2,0.4,0.3,0.7,0.2c0.2-0.1,0.4-0.3,0.5-0.5C13.3,25.9,13.2,25.6,13,25.4z"/>
	<path style="fill:#99242C;" d="M31.2,20.5c-0.1-0.2-0.8-0.1-0.8-0.1c-0.3,0-0.5,0.2-0.5,0.5c-0.1,0.4,0,0.7,0.3,1
		c0.2,0.2,0.5,0.3,0.8,0.2c0.3-0.1,0.5-0.3,0.6-0.6C31.6,21.1,31.5,20.8,31.2,20.5z"/>
	<path style="fill:#99242C;" d="M35.7,20.3c-0.1-0.2-0.7-0.1-0.7-0.1c-0.3,0-0.4,0.2-0.4,0.5c-0.1,0.3,0,0.7,0.2,1
		c0.2,0.2,0.4,0.3,0.7,0.2c0.3-0.1,0.4-0.3,0.5-0.6C36,20.9,35.9,20.5,35.7,20.3z"/>
	<path style="fill:#99242C;" d="M16.9,37.3c-0.2-0.1-0.5,0.1-0.5,0.2s-0.1,0.3,0,0.6c0.1,0.3,0.4,0.6,0.6,0.8
		c0.2,0.1,0.4,0.1,0.5-0.1c0,0,0,0,0,0c0.1-0.2,0.1-0.5,0-0.7C17.4,37.7,17.2,37.4,16.9,37.3z"/>
	<path style="fill:#99242C;" d="M42.2,35.4c0-0.2-0.3-0.5-0.3-0.5s-0.4,0-0.6,0.1c-0.3,0.2-0.5,0.5-0.6,0.8c-0.1,0.2,0,0.4,0.2,0.5
		c0,0,0,0,0,0c0.2,0,0.5,0,0.7-0.2C41.9,36,42.1,35.7,42.2,35.4z"/>
	<path style="fill:#99242C;" d="M44.4,30.5c0-0.2-0.3-0.4-0.3-0.5c-0.2-0.1-0.4-0.1-0.5,0.1c-0.2,0.2-0.4,0.4-0.4,0.7
		c0,0.2,0.1,0.4,0.3,0.5c0.2,0.1,0.4,0,0.6-0.1C44.3,31,44.4,30.7,44.4,30.5z"/>
	<path style="fill:#99242C;" d="M44,24.9c-0.2-0.1-0.7,0.1-0.7,0.2c-0.2,0.1-0.2,0.4-0.1,0.7c0.1,0.4,0.4,0.7,0.7,0.9
		c0.2,0.1,0.5,0.1,0.7-0.1c0.2-0.3,0.2-0.6,0.1-0.9C44.6,25.3,44.3,25,44,24.9z"/>
	<path style="fill:#99242C;" d="M18.3,20.9c-0.1,0.2,0,0.7,0,0.7c0.1,0.2,0.4,0.3,0.7,0.3c0.4-0.1,0.8-0.2,1.1-0.5
		c0.2-0.2,0.2-0.5,0-0.7c-0.2-0.2-0.5-0.3-0.8-0.3C18.8,20.5,18.5,20.6,18.3,20.9z"/>
	<path style="fill:#99242C;" d="M35.3,38c0-0.2-0.5-0.4-0.6-0.5c-0.2-0.1-0.5,0.1-0.6,0.3c-0.2,0.3-0.3,0.7-0.3,1.1
		c0,0.3,0.2,0.5,0.5,0.5c0.3-0.1,0.6-0.2,0.7-0.5C35.2,38.7,35.3,38.4,35.3,38z"/>
	<path style="fill:#6D1927;" d="M16.9,21.1c0.3,0.1,0.5,0.2,0.7,0.3l0.6,0.2c0.2,0.1,0.4,0.2,0.6,0.3c0.2,0.1,0.5,0.2,0.7,0.4
		c-0.2,0.1-0.5,0.2-0.8,0.2c-0.3,0-0.5,0-0.8-0.1c-0.3-0.1-0.5-0.2-0.7-0.4C17.1,21.6,17,21.4,16.9,21.1z"/>
	<path style="fill:#6D1927;" d="M20.6,20.4c0.1,0.2,0.2,0.4,0.4,0.6c0.1,0.2,0.2,0.3,0.3,0.4l0.4,0.4l0.2,0.3
		c0.1,0.1,0.1,0.2,0.2,0.3c-0.1,0-0.3,0-0.4,0c-0.1,0-0.2-0.1-0.4-0.1c-0.2-0.1-0.4-0.3-0.6-0.5c-0.2-0.2-0.3-0.5-0.3-0.7
		C20.4,20.9,20.5,20.6,20.6,20.4z"/>
	<path style="fill:#6D1927;" d="M43,26.1c-0.2,0.2-0.4,0.3-0.6,0.4c-0.2,0.1-0.5,0.1-0.7,0c-0.5-0.1-0.9-0.4-1.1-0.8
		c0.2,0,0.4,0,0.7,0l0.5,0.1l0.5,0.1C42.6,25.9,42.8,26,43,26.1z"/>
	<path style="fill:#6D1927;" d="M29.5,29.8c-0.3-1-0.5-2-0.4-3c0-1.1,0.3-2.1,0.9-3.1c0.6-1,1.5-1.7,2.6-2.1c1-0.4,2.2-0.5,3.3-0.4
		c0.3,0,0.5,0,0.8,0.1c0.3,0,0.6,0.1,0.8,0.2c0.6,0.2,1.1,0.5,1.5,0.8c0.9,0.7,1.5,1.7,1.8,2.8c0.2,0.5,0.3,1,0.4,1.5
		c0.1,0.4,0.3,0.9,0.5,1.3c0.2,0.4,0.5,0.8,0.8,1.1c0.3,0.3,0.8,0.6,1.2,0.9c-0.5-0.2-0.9-0.3-1.4-0.5c-0.5-0.2-0.9-0.6-1.3-1
		c-0.3-0.4-0.6-0.9-0.8-1.4c-0.2-0.5-0.4-0.9-0.6-1.3c-0.4-0.8-0.9-1.4-1.6-1.9c-0.3-0.2-0.7-0.4-1-0.5c-0.2-0.1-0.4-0.1-0.6-0.1
		L35.7,23c-0.9-0.1-1.7,0-2.6,0.2c-0.8,0.2-1.5,0.7-2,1.3c-0.5,0.7-0.9,1.5-1.2,2.4C29.7,27.9,29.5,28.8,29.5,29.8z"/>
	<path style="fill:#6D1927;" d="M26.5,28.9c-0.3-1.6-1.2-3.1-2.4-4.2c-0.6-0.5-1.3-0.8-2-1c-0.7-0.2-1.5-0.2-2.3-0.1
		c-1.5,0.2-2.9,0.9-3.9,2.1c-0.5,0.6-1,1.4-1.6,2c-0.3,0.4-0.8,0.6-1.2,0.8c-0.5,0.1-0.9,0.1-1.4-0.1c0.4,0,0.8-0.1,1.1-0.3
		c0.3-0.2,0.5-0.6,0.7-0.9c0.4-0.7,0.7-1.5,1.2-2.3c0.3-0.4,0.6-0.8,0.9-1.1c1.4-1.4,3.5-2.1,5.5-1.8c0.5,0.1,1,0.2,1.4,0.3
		c1,0.3,1.8,0.9,2.5,1.6c0.6,0.7,1.1,1.6,1.3,2.5C26.6,27.1,26.7,28,26.5,28.9z"/>
	<path style="fill:#6D1927;" d="M12.9,25.4c0.2-0.1,0.4-0.1,0.6-0.2l0.5-0.1l0.5-0.1c0.2,0,0.4,0,0.6,0c-0.2,0.5-0.6,0.8-1.1,0.8
		c-0.2,0.1-0.5,0.1-0.7,0C13.2,25.8,13,25.6,12.9,25.4z"/>
	<path style="fill:#D66A49;" d="M20.2,39.5c0,0.7,0,1.5,0.3,2.2c0.2,0.6,0.7,1.1,1.4,1.3c0.3,0.1,0.6,0.1,0.9,0.1
		c0.3-0.1,0.7-0.2,0.9-0.4c0.3-0.2,0.6-0.4,1-0.6c0.2-0.1,0.4-0.1,0.6-0.2c0.2,0,0.4,0,0.6,0.1c-0.4-0.1-0.7,0.1-1,0.3
		c-0.3,0.2-0.5,0.5-0.9,0.7c-0.3,0.3-0.7,0.5-1.1,0.6c-0.2,0.1-0.4,0.1-0.7,0.1c-0.2,0-0.4,0-0.6-0.1c-0.4-0.1-0.8-0.4-1.1-0.7
		c-0.3-0.3-0.5-0.7-0.6-1.1c-0.1-0.4-0.1-0.8,0-1.2C20,40.3,20.1,39.9,20.2,39.5z"/>
	<path style="fill:#2F0016;" d="M29.5,29.8c-0.1-0.9,0-1.9,0.1-2.8c0.2-0.8,0.8-2.8,1.9-3.4c1.6-0.9,3.4-1.2,5.2-0.7
		c1.3,0.3,2.4,1.1,3.1,2.2c0.4,0.7,1,2.2,1.3,2.6c0.6,0.7,1.3,1.2,2,1.7c0.6,0.4,0.4,0.5-0.5,0c-1-0.4-1.8-1.2-2.3-2.1
		c-0.6-1.2-2.2-3.8-4.1-4.1c-2.5-0.4-4.8,0-6.1,2.8C29.9,27.3,29.6,28.5,29.5,29.8z"/>
	<path style="fill:#2F0016;" d="M26.5,29.5c0,0-0.2-4-2.7-5.4s-3.6-1.1-4.9-0.9c-1.8,0.6-3.3,1.9-4.2,3.5c-0.6,1.1-1.8,1.7-3,1.6
		c0.8,0.3,1.7,0.7,3-1.1c1.4-2.2,3.8-3.6,6.4-3.8C21.3,23.5,25.5,24.4,26.5,29.5z"/>
	<path style="fill:#420019;" d="M25.9,33.5c0,0-0.4,0.1-0.4,1c0,0.3,0,0.6,0.1,0.9c0,0,0.1-1.7,0.6-1.5c0.1,0.3,0.9,1.5,1.9,1.5
		c0.5-0.1,0.9-0.5,1.1-1c0.1-0.3,0.4,0,0.5,0.3c0.1,0.5,0.1,1,0.1,1.5c0,0.1,0,0.2-0.1,0.3c0.2-0.5,0.3-1.1,0.1-1.7
		c-0.1-0.4-0.1-1-0.6-0.9c-0.2,0-0.4,0.2-0.5,0.4c0,0.2-0.1,0.6-0.6,0.6c-0.5,0-0.9-0.2-1.2-0.6C26.7,33.9,26.4,33.3,25.9,33.5z"/>
</g>
</svg>
