<?xml version="1.0" encoding="utf-8"?>
<!-- Generator: Adobe Illustrator 22.0.0, SVG Export Plug-In . SVG Version: 6.00 Build 0)  -->
<svg version="1.1" id="Слой_1" xmlns="http://www.w3.org/2000/svg" xmlns:xlink="http://www.w3.org/1999/xlink" x="0px" y="0px"
	 viewBox="0 0 55.8 62.9" style="enable-background:new 0 0 55.8 62.9;" xml:space="preserve">
<title>19_1</title>
<path style="fill:#B69136;" d="M20.7,61.3H18c-0.3,0-0.5-0.2-0.5-0.4c0,0,0,0,0-0.1c0-0.1,0-0.2,0.1-0.3l0.5-0.6
	c0.4-0.5,0.8-0.9,1.3-1.2c0.4-0.4,0.9-0.7,1.4-1c0.5-0.3,1-0.6,1.6-0.8c0.3-0.2,0.7-0.3,1.1-0.4V56c0.1-1.9,0.1-6.8,0.1-8.8
	C23,47,22.5,46.7,22,46.4c-1-0.7-1.9-1.5-2.6-2.5c-1-1.4-1.7-2.9-2.2-4.5L17,39.2c-0.2,0-0.3-0.2-0.4-0.3l-0.1-0.2
	c-1.2-3.2-0.9-4.9-0.8-5.1v-0.3c-0.2,0-0.3-0.1-0.4-0.2c-0.2-0.2-0.3-0.4-0.4-0.6c-0.1-0.4-0.1-0.8,0-1.2l0.1-0.5
	c0-0.2,0.1-0.4,0.1-0.6V30L15,29.9l-0.3-0.3c-0.2-0.2-0.4-0.3-0.5-0.5c-0.3-0.3-0.6-0.7-0.7-1.2c-0.1-0.4-0.2-0.8-0.2-1.2v-0.8
	c0.1-0.2,0.2-0.5,0.3-0.7c0.1-0.2,0.2-0.4,0.4-0.5l0.3-0.4c0.1-0.1,0.2-0.3,0.3-0.4s0.1-0.2,0.2-0.4l0.2-0.4
	c0.1-0.2,0.1-0.4,0.2-0.6c0.2-0.4,0.4-0.8,0.7-1.2c0.3-0.3,0.6-0.6,1-0.8c0.5-0.3,1.1-0.5,1.7-0.6l0.1-0.1c0.1-0.4,0.3-0.8,0.5-1.1
	l0.2-0.5l0.3-0.5l0.2-0.3c0-0.5,0.1-0.9,0.3-1.3c0.2-0.4,0.6-0.7,1-0.9c0.4-0.5,0.7-1,1.1-1.5v-0.4c-0.1-0.4,0.2-1.2,1.4-1.4H24
	l0.8-0.8c0.4-0.4,0.9-0.8,1.4-1.1l0.7-0.5l0.2-0.2V9.2h-0.2c-0.2,0-0.4,0-0.5-0.1c-0.2-0.1-0.3-0.2-0.5-0.3
	c-0.2-0.2-0.3-0.4-0.3-0.7c0-0.3,0-0.6,0.2-0.9l0.1-0.1c0.5-0.6,1.1-1.2,1.8-1.6C28.4,5,29.2,4.7,30,4.6h0.6c0.7,0,1.3,0.1,1.9,0.4
	L33,5.3l0.8,0.5l0.4,0.4c0.9-0.4,1.8-0.7,2.7-0.8c0.4-0.1,0.7-0.1,1.1-0.1c0.7,0,1.4,0.1,2,0.3c1,0.4,1.8,1,2.4,1.9
	c0.2,0.3,0.3,0.6,0.3,0.9v0.8c-0.1,0.5-0.2,1-0.5,1.5c-0.2,0.4-0.5,0.8-0.8,1.2c-0.2,0.3-0.4,0.5-0.7,0.7l-0.3,0.5l-0.2,0.3
	c0.3,0.3,0.5,0.8,0.6,1.2c0.1,0.4,0.1,0.9,0.1,1.3c0,0.5-0.2,1-0.5,1.4c-0.2,0.3-0.5,0.5-0.8,0.6c-0.1,0-0.3,0.1-0.4,0.1l0,0
	c-0.1,0-0.2,0-0.3-0.1c-0.1,0-0.2-0.1-0.3-0.2s-0.2-0.2-0.2-0.3s-0.1-0.2-0.1-0.3v-0.5c0-0.1,0-0.2-0.1-0.2h-0.1
	c-0.2,0.2-0.4,0.4-0.6,0.7c-0.7,1-1.4,2-2,3c0.2,0.3,0.3,0.6,0.3,1c0,0.2-0.1,0.4-0.2,0.6v0.1c-0.1,0.1-0.1,0.2-0.1,0.3
	s0,0.2-0.1,0.3c0.2,0.1,0.3,0.3,0.5,0.4c0.7,0.4,1.3,0.9,1.7,1.6c0.3,0.4,0.4,0.8,0.5,1.3c0.1,0.4,0,0.9-0.1,1.3
	c-0.1,0.4-0.2,0.8-0.4,1.1c-0.1,0.3-0.3,0.6-0.5,0.8L37,29c-0.5,0.6-1,1.1-1.6,1.6c-1,0.8-2.1,1.4-3.3,1.8L32,33
	c0.1,0.1,0.3,0.2,0.4,0.4s0.3,0.5,0.1,3.2v0.2c0,0.2-0.1,0.3-0.3,0.4l-0.4,0.2l0,0c0.2,1.8,4.1,4.3,5.6,5.4c0.3,0.2,0.7,0.4,1,0.6
	c0.2,0,0.3,0.1,0.5,0.1h0.8c0.5,0,0.9,0.2,1.2,0.5c0.3,0.4,0.5,0.8,0.5,1.3c0,0.4-0.1,0.8-0.2,1.2c0,0.2-0.1,0.3-0.1,0.4
	c-0.1,0.6-0.4,1.2-0.9,1.7c-0.2,0.2-0.4,0.4-0.7,0.6c-0.2,0.1-0.3,0.2-0.5,0.3c-0.2,0.1-0.3,0.1-0.5,0.1H38
	c-0.3-0.1-0.5-0.2-0.8-0.3c-0.3-0.1-0.5-0.2-0.7-0.4c-0.2-0.2-3.8-1.3-4-1.5c-1,0.3-2.1,0.5-3.1,0.6c0,0.8,0,1.5,0.1,2.3v6.2
	l1.3,0.3c0.7,0.2,1.3,0.5,1.9,0.8c0.6,0.3,1.2,0.7,1.7,1.1c0.3,0.2,0.5,0.4,0.8,0.6l0.1,0.1l0.3,0.3l0.3,0.3l0,0
	c0.1,0.1,0.2,0.3,0.2,0.5c0,0.3-0.2,0.5-0.4,0.5c0,0,0,0-0.1,0l0,0l-4,0.1l-4.1,0.1c-1.4,0-2.8,0.1-4.2,0.1L20.7,61.3z"/>
<path style="fill:#FFFFFF;" d="M30.5,5.2c0.6,0,1.2,0.1,1.7,0.4l0.5,0.2l0.5,0.3l0.2,0.2l0.2,0.2L34,6.9l0,0l0.2-0.1
	C35,6.4,35.9,6.1,36.8,6c0.3-0.1,0.7-0.1,1-0.1c0.6,0,1.2,0.1,1.8,0.3c0.9,0.3,1.7,0.9,2.2,1.7c0.1,0.2,0.2,0.5,0.3,0.7v0.7
	c-0.1,0.4-0.2,0.9-0.4,1.3c-0.2,0.4-0.5,0.8-0.8,1.1c-0.3,0.4-0.6,0.7-0.9,1l-0.6,0.6c0.1,0.1,0.2,0.1,0.2,0.2
	c0.3,0.3,0.5,0.7,0.5,1.1c0.1,0.4,0.1,0.8,0,1.2c0,0.4-0.2,0.8-0.4,1.1c-0.1,0.2-0.3,0.3-0.5,0.4h-0.4c-0.1,0-0.1,0-0.1-0.1
	l-0.1-0.1v-0.2c0-0.2-0.1-0.3-0.1-0.5c0-0.2-0.1-0.3-0.2-0.4c-0.1-0.1-0.2-0.2-0.3-0.2h-0.2c-0.1,0-0.1,0.1-0.2,0.1
	c-0.3,0.2-0.5,0.5-0.7,0.8c-0.8,1.1-1.6,2.3-2.2,3.5c0.3,0.2,0.5,0.5,0.5,0.9c0,0.2-0.1,0.4-0.2,0.5c-0.1,0.1-0.1,0.3-0.2,0.4
	c-0.1,0.2-0.1,0.5,0,0.7c0.2,0.2,0.4,0.4,0.7,0.5c0.6,0.4,1.1,0.8,1.5,1.4c0.2,0.3,0.3,0.7,0.4,1c0,0.4,0,0.7-0.1,1.1
	c-0.1,0.3-0.2,0.7-0.4,1c-0.2,0.3-0.3,0.6-0.5,0.9c-0.4,0.6-0.9,1.1-1.5,1.5c-1,0.8-2.2,1.4-3.4,1.8l-0.3,1.2
	c0.2,0.1,0.4,0.2,0.5,0.4c0,0.1,0.2,0.3,0,2.9v0.2l-0.2,0.1L31,37.1c0,0.1,0,0.3,0.1,0.4c0.2,1.9,4.3,4.5,5.8,5.7
	c0.4,0.3,0.8,0.5,1.2,0.6c0.2,0.1,0.5,0.1,0.7,0.1h0.8c0.3,0,0.7,0.1,0.9,0.4c0.2,0.3,0.3,0.6,0.3,0.9c0,0.5-0.1,1-0.3,1.5
	c-0.1,0.6-0.4,1.1-0.8,1.5c-0.2,0.2-0.4,0.4-0.6,0.5c-0.1,0.1-0.2,0.2-0.4,0.2c-0.1,0-0.2,0.1-0.3,0.1h-0.2
	c-0.3-0.1-0.5-0.2-0.8-0.3s-0.5-0.2-0.7-0.3c-0.4-0.2-3.8-1.4-4.3-1.6c-1.1,0.4-2.2,0.6-3.3,0.7h-0.4c0,0.9,0.1,1.9,0.1,2.8v6.6
	c0.6,0.1,1.1,0.2,1.7,0.4c0.6,0.2,1.2,0.5,1.8,0.8c0.6,0.3,1.2,0.6,1.7,1c0.3,0.2,0.5,0.4,0.8,0.6L35,60l0.2,0.2l0.1,0.1l0,0v0.1
	l-4,0.1l-4.1,0.1c-1.4,0-2.8,0.1-4.2,0.1h-5l0.5-0.6c0.4-0.4,0.8-0.8,1.3-1.1c0.4-0.4,0.9-0.7,1.4-1c0.5-0.3,1-0.6,1.5-0.8
	c0.5-0.2,0.9-0.3,1.4-0.5c0.1-2.3,0.1-7.6,0.1-9.9c-0.7-0.2-1.3-0.5-1.9-0.9c-1-0.6-1.8-1.5-2.5-2.4c-1-1.4-1.7-3-2.2-4.7l-0.4-0.1
	H17v-0.2c-1.2-3.1-0.8-4.8-0.8-4.8v-0.2l0.4-0.2v-0.6c-0.2,0.1-0.3,0.2-0.5,0.2H16c-0.1,0-0.3-0.1-0.4-0.1c-0.1-0.1-0.2-0.2-0.2-0.4
	c-0.1-0.4-0.1-0.8,0-1.2c0.1-0.3,0.1-0.7,0.1-1v-0.4c-0.1-0.1-0.1-0.2-0.2-0.3l-0.8-0.8c-0.3-0.3-0.5-0.6-0.6-1
	c-0.1-0.4-0.2-0.7-0.2-1.1V26c0.1-0.2,0.1-0.4,0.2-0.5c0.2-0.3,0.5-0.6,0.7-0.9c0.1-0.1,0.2-0.3,0.3-0.4c0.1-0.1,0.2-0.3,0.2-0.5
	l0.1-0.5c0.1-0.2,0.1-0.4,0.2-0.5c0.1-0.4,0.3-0.7,0.6-1c0.3-0.3,0.6-0.5,0.9-0.7c0.6-0.3,1.3-0.5,2-0.6l0.2-0.4
	c0.2-0.5,0.5-1.1,0.7-1.6c0.1-0.3,0.3-0.5,0.4-0.8l0.1-0.2v-0.1c0-0.4,0-0.8,0.2-1.1c0.2-0.3,0.5-0.6,0.9-0.7h0.1
	c0.4-0.6,0.9-1.2,1.3-1.8c-0.1-0.2-0.1-0.3-0.1-0.5c0,0-0.1-0.7,0.9-0.9l0.5-0.1l0.9-0.9c0.4-0.4,0.8-0.8,1.3-1.1L27,9.7l0.3-0.3
	l0.1-0.1l0.1-0.2c0.1-0.1,0.1-0.2,0.2-0.4s0.1-0.1,0.1-0.2h-1.1c-0.1,0-0.3,0-0.4-0.1c-0.1,0-0.2-0.1-0.3-0.2S25.8,8,25.8,7.9
	c0-0.2,0-0.4,0.1-0.6l0,0c0.5-0.6,1.1-1.1,1.7-1.5C28.2,5.4,29,5.1,29.7,5C30.2,5.3,30.3,5.3,30.5,5.2 M30.5,4.3h-0.6
	c-0.9,0.1-1.7,0.4-2.5,0.9c-0.7,0.5-1.4,1-1.9,1.7C25.4,7,25.4,7,25.4,7.1c-0.2,0.4-0.3,0.8-0.3,1.2c0,0.4,0.2,0.7,0.5,0.9l0,0
	c0.1,0.1,0.3,0.2,0.4,0.3l-0.1,0.1c-0.5,0.4-1,0.8-1.4,1.2c-0.3,0.2-0.5,0.4-0.7,0.7h-0.2c-1,0-1.8,0.9-1.8,1.9v0.2l-0.9,1.2
	c-0.5,0.2-0.9,0.5-1.1,1c-0.3,0.5-0.4,1-0.4,1.5l-0.1,0.2L19,18l-0.2,0.5c-0.2,0.3-0.3,0.7-0.5,1c-0.6,0.1-1.1,0.3-1.6,0.6
	c-0.4,0.2-0.8,0.5-1.2,0.9c-0.3,0.4-0.6,0.8-0.8,1.3c-0.1,0.2-0.1,0.4-0.2,0.6l-0.1,0.5c0,0.1-0.1,0.1-0.1,0.2l-0.1,0.1
	c-0.1,0.1-0.1,0.2-0.2,0.3l-0.3,0.3c-0.1,0.2-0.3,0.3-0.4,0.5c-0.2,0.3-0.3,0.6-0.4,0.9c-0.1,0.3-0.1,0.6,0,0.9v0.1
	c0,0.5,0.1,1,0.3,1.5c0.2,0.5,0.4,1,0.8,1.4l0.5,0.5l0.2,0.2c0,0.2,0,0.3-0.1,0.5c-0.1,0.2,0,0.2-0.1,0.4v0.2
	c-0.1,0.5-0.1,0.9,0,1.4v0.1c0.1,0.3,0.3,0.7,0.6,0.9l0.1,0.1c-0.2,1.8,0.1,3.7,0.9,5.3l0.1,0.2c0.1,0.3,0.4,0.6,0.7,0.6l0,0
	c0.5,1.6,1.2,3,2.1,4.4c0.8,1.1,1.7,2,2.8,2.7c0.4,0.3,0.9,0.5,1.4,0.8c0,1.8-0.1,6.6-0.1,8.4V56l-0.9,0.3c-0.6,0.2-1.2,0.5-1.7,0.8
	c-0.5,0.3-1,0.7-1.5,1.1c-0.5,0.4-1,0.8-1.4,1.3l-0.5,0.6c-0.4,0.4-0.3,1,0.1,1.4c0.2,0.2,0.4,0.2,0.7,0.2h5c1.4,0,2.8,0,4.2-0.1
	l4.1-0.1l4-0.1c0.5,0,1-0.4,1-0.9c0,0,0-0.1,0-0.1c0-0.3-0.1-0.6-0.3-0.8l0,0l-0.1-0.1l-0.2-0.2L35.3,59l0,0
	c-0.3-0.2-0.6-0.4-0.8-0.7c-0.6-0.4-1.2-0.8-1.8-1.1c-0.6-0.3-1.3-0.6-2-0.8c-0.3-0.1-0.6-0.2-1-0.3v-7.7c0.9-0.1,1.7-0.3,2.6-0.5
	l3.8,1.4c0.2,0.2,0.5,0.3,0.8,0.4c0.3,0.2,0.6,0.3,1,0.3h0.4c0.2,0,0.5-0.1,0.7-0.2c0.2-0.1,0.3-0.2,0.5-0.3
	c0.3-0.2,0.6-0.4,0.8-0.7c0.5-0.5,0.8-1.2,1-1.9c0-0.1,0.1-0.3,0.1-0.4c0.1-0.4,0.2-0.9,0.2-1.3c0-1.2-0.9-2.2-2.1-2.3h-1.3
	c-0.3-0.1-0.6-0.3-0.9-0.5c-1.2-1-5-3.3-5.3-4.8h0.1c0.3-0.2,0.5-0.5,0.5-0.8v-0.2c0.2-2.9,0-3.2-0.2-3.5c-0.1-0.1-0.2-0.2-0.2-0.3
	l0,0c1.1-0.4,2.2-1,3.2-1.7c0.6-0.5,1.2-1.1,1.7-1.7l0,0l0.1-0.1c0.2-0.3,0.4-0.6,0.5-0.9c0.2-0.4,0.4-0.8,0.5-1.3
	c0.1-0.5,0.1-1,0.1-1.5c-0.1-0.5-0.3-1-0.6-1.5c-0.5-0.7-1.1-1.2-1.8-1.6l-0.6,0.8l0.6-0.8l-0.2-0.1l0.1-0.2v-0.1
	c0.1-0.2,0.2-0.5,0.3-0.7v-0.1c0-0.4,0-0.8-0.2-1.1c0.5-1,1.1-1.9,1.8-2.7l0,0c0,0.1,0,0.2,0.1,0.2s0.1,0.3,0.2,0.4l0.1,0.1
	c0.1,0.1,0.3,0.2,0.4,0.3c0.2,0.1,0.3,0.1,0.5,0.1c0.2,0,0.4,0,0.5-0.1c0.4-0.1,0.8-0.4,1-0.8c0.3-0.5,0.6-1,0.6-1.6
	c0-0.5,0-1-0.1-1.5c-0.1-0.4-0.2-0.8-0.4-1.1l0.2-0.2c0.3-0.2,0.5-0.5,0.7-0.8c0.3-0.4,0.6-0.9,0.9-1.4c0.3-0.5,0.4-1.1,0.5-1.7v-1
	c-0.1-0.4-0.2-0.7-0.4-1c-0.6-1-1.5-1.7-2.6-2.1c-0.7-0.2-1.4-0.4-2.1-0.4c-0.4,0-0.8,0-1.2,0.1c-0.9,0.1-1.7,0.4-2.5,0.7L34,5.6
	V5.5l-0.2-0.2l-0.5-0.2L33.2,5l-0.5-0.2C32,4.5,31.3,4.3,30.5,4.3z"/>
<path style="fill:#E5C234;" d="M35.3,60.4c-1.9-1.8-4.3-2.9-6.9-3.2V46.4h-4.1V57c-2.1,0.6-4,1.8-5.5,3.4H35.3z"/>
<path style="fill:#B69136;" d="M35.3,60.4L35.3,60.4L35,60.2l-0.4-0.3c-0.2-0.2-0.5-0.4-0.8-0.5L32,58.5c-1.2-0.5-2.4-0.8-3.6-1
	h-0.2v-7.1c0-1.4,0.1-2.6,0.1-4l0.2,0.2c-1.4,0-2.7-0.1-4.1-0.1l0.1-0.1c0,2.6,0.1,8.1,0.1,10.6v0.2l-0.2,0.1
	c-0.5,0.1-1,0.3-1.5,0.5c-0.5,0.2-1,0.5-1.4,0.8c-0.5,0.3-0.9,0.6-1.3,1c-0.4,0.3-0.8,0.7-1.1,1.1L18.8,60h4c1.3,0,2.7,0,4,0.1
	l4.1,0.1L35.3,60.4z M35.3,60.4l-4,0.1l-4.1,0.1c-1.4,0-2.8,0.1-4.2,0.1h-5l0.5-0.6c0.4-0.4,0.8-0.8,1.3-1.2c0.4-0.4,0.9-0.7,1.4-1
	c0.5-0.3,1-0.6,1.5-0.8c0.5-0.2,1.1-0.4,1.6-0.5L24.1,57c0.1-2.6,0.2-8.1,0.1-10.6v-0.1h0.1c1.4,0,2.7,0,4.1-0.1h0.2v0.2
	c0,1.3,0.1,2.6,0.1,4v6.9L28.5,57c0.6,0.1,1.3,0.3,1.9,0.5c0.6,0.2,1.2,0.5,1.8,0.8c0.6,0.3,1.2,0.6,1.7,1c0.3,0.2,0.5,0.4,0.8,0.6
	L35,60l0.2,0.2L35.3,60.4L35.3,60.4L35.3,60.4z"/>
<path style="fill:#EED886;" d="M21,59.5c0.6-0.6,1.3-1.1,2.1-1.5c0.4-0.2,0.8-0.3,1.2-0.4c0.4-0.1,0.9-0.1,1.3-0.1
	c0.8,0,1.7,0,2.5,0.2c0.9,0.1,1.7,0.4,2.4,0.9h-4.9c-0.4,0-0.8,0-1.2,0.1c-0.4,0.1-0.8,0.1-1.2,0.2C22.4,59,21.7,59.2,21,59.5z"/>
<path style="fill:#E5C234;" d="M19.3,20.5c0,0-2.4,0.4-3.2,2s-0.3,1-0.9,1.9s-1.3,1.4-1.2,2.1c0.1,0.6,0.3,1.2,0.6,1.7
	c0.4,0.6,1.2,1.1,1.4,1.5c0.4,0.7-0.7,2.8,0.1,3.1s1.2-1,1.2-1"/>
<path style="fill:#B69136;" d="M19.3,20.5c-1.3,0.4-2.5,1.3-3.1,2.5L16,23.5c-0.1,0.2-0.1,0.3-0.2,0.5s-0.2,0.3-0.3,0.5L15,24.8
	c-0.4,0.5-1,1.1-0.7,1.8c0.1,0.3,0.2,0.7,0.3,1c0.1,0.3,0.3,0.6,0.6,0.8c0.2,0.2,0.5,0.4,0.8,0.7c0.2,0.1,0.4,0.4,0.4,0.6
	c0.1,0.2,0.1,0.5,0.1,0.7c0,0.4-0.1,0.7-0.2,1.1c-0.1,0.3-0.1,0.6-0.1,0.9v0.1l0.1,0.1h0.4c0.3-0.2,0.5-0.4,0.7-0.7h0.1
	c0,0.2-0.1,0.4-0.2,0.5c-0.1,0.2-0.2,0.4-0.4,0.5c-0.2,0.2-0.4,0.2-0.6,0.2c-0.1,0-0.3-0.1-0.4-0.1c-0.1-0.1-0.2-0.2-0.2-0.4
	c-0.1-0.4-0.1-0.8,0-1.2c0.1-0.3,0.1-0.7,0.1-1V30c-0.1-0.1-0.1-0.2-0.2-0.3l-0.8-0.8c-0.3-0.3-0.5-0.6-0.6-1
	c-0.1-0.4-0.2-0.7-0.2-1.1v-0.6c0.1-0.2,0.1-0.4,0.2-0.5c0.2-0.3,0.5-0.6,0.7-0.9c0.1-0.1,0.2-0.3,0.3-0.4c0.1-0.1,0.2-0.3,0.2-0.5
	l0.1-0.5c0.1-0.2,0.1-0.4,0.2-0.5c0.1-0.4,0.3-0.7,0.6-1c0.3-0.3,0.6-0.5,0.9-0.7C17.8,20.7,18.5,20.5,19.3,20.5z"/>
<path style="fill:#B69136;" d="M16.5,24.7c0.4-0.1,0.9,0.2,1,0.6c0,0.2,0,0.4-0.1,0.6c-0.1-0.1-0.1-0.2-0.2-0.4s-0.1-0.2-0.2-0.3
	S16.7,24.9,16.5,24.7z"/>
<path style="fill:#F2E1A4;" d="M31.9,8.2c0,0,6.4-4.3,9.7-0.3c0.8,0.9,0.4,2.7-1.3,4.3c-1.4,1.4-2.8,2.8-4.1,4.3L31.9,8.2z"/>
<path style="fill:#E5C234;" d="M31.9,8.2L31.9,8.2L32,8.1L32.1,8l0.3-0.2L33,7.4l1.2-0.6C35,6.4,35.9,6.1,36.8,6
	c0.9-0.2,1.9-0.1,2.8,0.2c0.9,0.3,1.7,0.9,2.2,1.7c0.1,0.2,0.2,0.5,0.3,0.7v0.7c-0.1,0.4-0.2,0.9-0.4,1.3c-0.2,0.4-0.5,0.8-0.8,1.1
	c-0.3,0.4-0.6,0.7-0.9,1c-0.6,0.6-1.2,1.3-1.8,2l-1.7,2l-0.3,0.4l-0.3-0.5c-0.8-1.4-1.5-2.8-2.1-4.3c-0.3-0.7-0.7-1.4-1-2.1
	S32.2,8.9,31.9,8.2z M31.9,8.2l1.2,2.1c0.4,0.7,0.8,1.4,1.2,2c0.8,1.3,1.5,2.7,2.2,4l-0.6-0.1c1.2-1.4,2.4-2.7,3.8-3.9
	c0.3-0.3,0.7-0.6,1-0.9c0.3-0.3,0.6-0.6,0.8-1c0.2-0.4,0.4-0.8,0.4-1.2c0-0.4-0.1-0.8-0.3-1.2c-0.6-0.6-1.3-1.1-2.1-1.3
	c-0.8-0.2-1.7-0.3-2.5-0.1C35.2,6.9,33.5,7.5,31.9,8.2z"/>
<path style="fill:#E5C234;" d="M40.5,7.4L39,7.7c-0.5,0.1-1,0.3-1.5,0.4c-1,0.4-1.9,0.8-2.8,1.2c0.3-0.4,0.7-0.8,1.2-1.1
	c0.5-0.3,1-0.6,1.5-0.8c0.5-0.2,1.1-0.3,1.6-0.3C39.5,7.1,40,7.2,40.5,7.4z"/>
<path style="fill:#E5C234;" d="M41.1,7.9c-0.4,0.4-0.9,0.8-1.4,1.1c-0.2,0.2-0.5,0.3-0.7,0.5c-0.2,0.2-0.4,0.4-0.7,0.5L37,11.2
	l-1.4,1.1c0.3-0.6,0.6-1.1,1-1.5c0.4-0.5,0.8-0.9,1.3-1.3c0.2-0.2,0.4-0.4,0.7-0.5c0.2-0.2,0.5-0.3,0.8-0.4
	C39.9,8.3,40.5,8.1,41.1,7.9z"/>
<path style="fill:#E5C234;" d="M34.6,14.6c0,0,4.1-3.6-1.3-8.1c-3.6-2.9-6.9,1.2-6.9,1.2S25.9,8.5,27,8.5s1.6-0.1,0.8,1.2
	c-0.6,0.9-5.2,3.3-8.2,10.2c-2.3,4.6-3.2,9.9-2.6,15c1.9,17,15.5,11.7,15.5,11.7s5.5,2.5,6,2.2c0.8-0.4,1.3-1.2,1.6-2
	c0.1-0.8,0.5-1.7,0-2.2s-1.2,0-2.2-0.3s-8.9-3.9-6.6-12.5c0,0,4.2-1.1,5.6-4.3s-2.4-3.8-2.4-4.8s0.6-1.3,0.5-1.8
	c-0.1-0.3-0.3-0.4-0.6-0.5c0,0,2.6-4.6,3.6-4.7c1.2-0.1,0.9,1.3,1.1,1.5s1.3-0.1,1.2-2.1c-0.1-1.3-1.2-2.2-2.5-2.2
	C36.6,13.2,35.5,13.8,34.6,14.6z"/>
<path style="fill:#B69136;" d="M34.6,14.6L34.6,14.6l0.1-0.1l0.2-0.2c0.1-0.1,0.2-0.3,0.3-0.4c0.2-0.3,0.4-0.6,0.5-1
	c0.2-0.7,0.3-1.4,0.2-2.1c-0.1-0.3-0.2-0.7-0.3-1l-0.2-0.5l-0.1-0.2l-0.2-0.2l-0.3-0.4c-0.1-0.1-0.2-0.3-0.3-0.4l-0.4-0.4
	c-0.1-0.1-0.3-0.2-0.4-0.4l-0.4-0.4l-0.2-0.2l-0.2-0.1l-0.4-0.3L32,6c-0.6-0.3-1.3-0.4-2-0.3c-0.7,0.1-1.3,0.4-1.9,0.8
	c-0.6,0.4-1.1,0.8-1.5,1.4l0,0c0,0.1,0,0.1-0.1,0.2l0.1,0.1h1.2c0.1,0,0.2,0,0.3,0.1c0.1,0.1,0.3,0.2,0.3,0.4c0,0.2,0,0.4-0.1,0.6
	c-0.1,0.1-0.1,0.3-0.2,0.4L28,9.8L27.8,10l-0.3,0.3l-0.7,0.6c-0.4,0.4-0.9,0.7-1.3,1.1c-1.7,1.5-3.1,3.3-4.3,5.3
	c-0.1,0.2-0.3,0.5-0.4,0.7c-0.2,0.3-0.3,0.5-0.4,0.8c-0.2,0.5-0.5,1-0.7,1.5c-0.5,1-0.9,2.1-1.3,3.2c-0.7,2.2-1.2,4.4-1.3,6.7
	c-0.1,2.3,0.1,4.6,0.5,6.9c0.4,2.3,1.3,4.4,2.6,6.3c1.4,1.8,3.4,3.1,5.6,3.5c1.1,0.2,2.3,0.2,3.4,0.1c1.1-0.1,2.2-0.4,3.3-0.7h0.1
	l0.1,0.1c0.4,0.3,3.8,1.4,4.3,1.7c0.2,0.1,0.5,0.2,0.7,0.3c0.2,0.1,0.4,0.2,0.6,0.2h0.2c0.1,0,0.2-0.1,0.3-0.2s0.3-0.3,0.5-0.5
	c0.3-0.3,0.5-0.7,0.6-1.2c0.1-0.5,0.2-0.9,0.2-1.4c0-0.2-0.1-0.4-0.2-0.5c-0.1-0.1-0.3-0.2-0.5-0.2c-0.5,0-1,0-1.5-0.1
	c-0.3-0.1-0.5-0.2-0.8-0.3L36.8,44l-0.3-0.2c-1.7-1.3-5.8-4.1-6-6.2c-0.3-2-0.1-4,0.4-6v-0.2l0.2-0.1c1.2-0.3,2.4-0.9,3.4-1.7
	c0.5-0.4,0.9-0.8,1.3-1.3c0.2-0.3,0.4-0.5,0.5-0.8c0.1-0.3,0.2-0.6,0.3-0.9c0.2-0.5,0.1-1.1-0.2-1.6c-0.4-0.5-0.8-0.9-1.3-1.3
	c-0.3-0.2-0.6-0.4-0.8-0.7c-0.1-0.1-0.1-0.2-0.2-0.4v-0.3c0-0.2,0.1-0.3,0.1-0.5c0.1-0.2,0.1-0.3,0.2-0.5s0.1-0.2,0.2-0.4v-0.1
	c0-0.1,0-0.1-0.1-0.1c-0.1-0.1-0.1-0.1-0.2-0.1l-0.4-0.1l0.2-0.4c0.4-0.7,0.8-1.3,1.2-1.9s0.9-1.3,1.3-1.9c0.2-0.3,0.5-0.6,0.9-0.8
	c0.1-0.1,0.2-0.1,0.3-0.1h0.3c0.2,0,0.5,0.1,0.6,0.3c0.2,0.3,0.3,0.7,0.3,1.1c-0.1,0.2,0.3,0.1,0.5-0.2c0.4-0.6,0.5-1.3,0.3-2
	c-0.1-0.3-0.2-0.6-0.4-0.9c-0.2-0.3-0.5-0.5-0.9-0.6c-0.3-0.1-0.7-0.2-1-0.2c-0.3,0.1-0.7,0.2-1,0.4c-0.3,0.2-0.7,0.3-1,0.5
	S35.2,14,35,14.1l-0.2,0.2L34.6,14.6L34.6,14.6z M34.6,14.6c0.1-0.1,0.1-0.2,0.2-0.2l0.2-0.3c0.1-0.1,0.3-0.2,0.5-0.4s0.7-0.4,1-0.6
	c0.3-0.2,0.7-0.3,1.1-0.4h0.6c0.2,0,0.4,0.1,0.6,0.1c0.4,0.1,0.7,0.3,1,0.6c0.3,0.3,0.5,0.7,0.5,1.1c0.1,0.4,0.1,0.8,0,1.2
	c0,0.4-0.2,0.8-0.4,1.1c-0.1,0.2-0.3,0.3-0.5,0.4H39c-0.1,0-0.1,0-0.1-0.1L38.8,17v-0.2c0-0.2-0.1-0.3-0.1-0.5
	c0-0.2-0.1-0.3-0.2-0.4c-0.1-0.1-0.2-0.2-0.3-0.2H38c-0.1,0-0.1,0.1-0.2,0.1c-0.3,0.2-0.5,0.5-0.7,0.8c-0.9,1.2-1.7,2.5-2.4,3.8
	l-0.5-0.3c0.5,0,0.8,0.4,0.8,0.9c0,0,0,0.1,0,0.1c0,0.2-0.1,0.4-0.2,0.5c-0.1,0.1-0.1,0.3-0.2,0.4c-0.1,0.2-0.1,0.5,0,0.7
	c0.2,0.2,0.4,0.4,0.7,0.5c0.6,0.4,1.1,0.8,1.5,1.4c0.2,0.3,0.3,0.7,0.4,1c0,0.4,0,0.7-0.1,1.1c-0.1,0.3-0.2,0.7-0.4,1
	c-0.2,0.3-0.3,0.6-0.5,0.9c-0.4,0.6-0.9,1.1-1.5,1.5c-1.1,0.8-2.3,1.4-3.6,1.8l0.3-0.3L31.1,33c-0.1,0.5-0.1,1-0.2,1.4
	c-0.1,0.5-0.1,1,0,1.5c0,0.5,0.1,1,0.1,1.4c0.2,1.9,4.3,4.5,5.8,5.7c0.3,0.3,0.7,0.5,1.2,0.6c0.2,0.1,0.5,0.1,0.7,0.1h0.8
	c0.3,0,0.7,0.1,0.9,0.4c0.2,0.3,0.3,0.6,0.3,0.9c0,0.5-0.1,1-0.3,1.5c-0.1,0.6-0.4,1.1-0.8,1.5c-0.2,0.2-0.4,0.4-0.6,0.5
	c-0.1,0.1-0.2,0.2-0.4,0.2c-0.1,0-0.2,0.1-0.3,0.1H38c-0.3-0.1-0.5-0.2-0.8-0.3s-0.5-0.2-0.7-0.3c-0.4-0.2-4-1.4-4.3-1.7h0.2
	c-2.3,0.8-4.7,0.9-7,0.5c-1.1-0.2-2.2-0.6-3.2-1.3c-1-0.6-1.8-1.5-2.5-2.4c-1.3-1.9-2.2-4.1-2.6-6.4c-0.4-2.3-0.6-4.6-0.6-6.9
	c0.1-2.3,0.5-4.7,1.2-6.9c0.4-1.1,0.8-2.2,1.2-3.2c0.2-0.5,0.5-1.1,0.7-1.6c0.1-0.3,0.3-0.5,0.4-0.8s0.3-0.5,0.4-0.8
	c1.2-2,2.7-3.8,4.4-5.4c0.4-0.4,0.8-0.8,1.3-1.1l0.7-0.5l0.3-0.3l0.1-0.1l0.1-0.2c0.1-0.1,0.1-0.2,0.2-0.4c0-0.1,0-0.1,0.1-0.2H27
	c-0.2,0-0.4,0-0.5-0.1c-0.1,0-0.2-0.1-0.3-0.2S26,8,26,7.9c0-0.2,0-0.4,0.1-0.6l0,0c0.5-0.6,1.1-1.1,1.8-1.5C28.5,5.4,29.3,5.1,30,5
	c0.7-0.1,1.5,0,2.2,0.3l0.5,0.2l0.5,0.3L33.4,6l0.2,0.2L34,6.9c0.1,0.1,0.3,0.2,0.4,0.4l0.4,0.4C34.9,7.8,35,8,35.1,8.1l0.3,0.5
	l0.2,0.2L35.7,9l0.2,0.5c0.1,0.3,0.2,0.7,0.3,1.1c0.1,0.7,0,1.5-0.3,2.2c-0.2,0.5-0.5,1-0.9,1.4l-0.2,0.2
	C34.8,14.4,34.6,14.6,34.6,14.6z"/>
<path style="fill:#B69136;" d="M39.3,16.4c-0.1-0.6-0.2-1.2-0.5-1.8c-0.1-0.2-0.3-0.4-0.5-0.5c-0.3-0.1-0.5-0.1-0.8,0
	c-0.6,0.1-1.1,0.4-1.6,0.8c-0.5,0.4-1,0.8-1.5,1.1c0.3-0.6,0.7-1.1,1.2-1.6c0.5-0.5,1.1-0.8,1.8-1c0.4-0.1,0.8-0.1,1.1,0.1
	c0.4,0.2,0.7,0.5,0.8,0.9C39.5,15.1,39.5,15.7,39.3,16.4z"/>
<path style="fill:#FFFFFF;" d="M21.9,20.6c0.8,0.7,1.8,1.3,2.8,1.6c1,0.1,3.7-0.4,4,0s0,1.6,0,2.6s0.3,2,0.1,2.4
	c-1.4,1.2-3.3,1.6-5.1,1.1c-1.4-0.2-2.5-1.5-2.3-3L21.9,20.6z"/>
<path style="fill:#B69136;" d="M21.9,20.6h0.2l0.1,0.1l0.3,0.1l0.6,0.4c0.4,0.2,0.7,0.4,1.1,0.6c0.2,0.1,0.3,0.1,0.5,0.1h0.6
	c0.4,0,0.8,0,1.2-0.1h1.3c0.2,0,0.5,0,0.7,0.1h0.1c0.1,0,0.1,0.1,0.1,0.1s0.1,0.1,0.1,0.3v0.5c0,0.6-0.1,1.1-0.2,1.6
	c-0.1,0.5-0.1,1,0,1.5c0,0.3,0.1,0.5,0.1,0.8v0.4c0,0.1,0,0.1-0.1,0.3s-0.1,0.1-0.1,0.1c-0.3,0.3-0.7,0.6-1.1,0.8
	c-0.8,0.4-1.6,0.6-2.5,0.6c-0.4,0-0.9,0-1.3-0.1c-0.2,0-0.4-0.1-0.6-0.1l-0.6-0.4c-0.5-0.3-0.9-0.8-1.1-1.3
	c-0.1-0.3-0.2-0.6-0.3-0.9v-1l0,0c0.1-0.9,0.3-1.8,0.4-2.5L21.9,20.6z M21.9,20.6l-0.1,1.3v1.3c0,0.8-0.1,1.5-0.1,2.4l0,0v0.6
	c0,0.2,0.1,0.4,0.2,0.6c0.2,0.3,0.5,0.6,0.8,0.9c0.7,0.4,1.5,0.6,2.3,0.6c0.8,0,1.6-0.1,2.4-0.4c0.4-0.1,0.8-0.4,1.1-0.6
	c0.1-0.1,0.1,0,0.1-0.1v-0.4c0-0.3,0-0.5-0.1-0.8c-0.1-1.1,0.1-2.1,0-3.1c0-0.1,0-0.3-0.1-0.3v-0.1h-3.7c-0.2,0-0.5-0.1-0.7-0.3
	c-0.4-0.2-0.7-0.5-1.1-0.8L22.4,21l-0.2-0.3l-0.1-0.1L21.9,20.6C22,20.7,21.9,20.7,21.9,20.6L21.9,20.6z"/>
<path style="fill:#CEA949;" d="M27.2,8.2c1.9-0.7,4-0.4,5.8,0.6c2.7,1.8,1.2,5.6,0.5,6.3s-0.4-3.4-5.9-4.4
	C26.9,10.5,30.3,8.1,27.2,8.2z"/>
<path style="fill:#FFFFFF;" d="M29.5,15.7c1.5-0.2,2.8,0.7,3.1,2.2v0.6c0.2,3.1-3.8,2.7-4.1,2.6c-1.4-0.6-2.1-2.1-1.5-3.5
	c0,0,0,0,0,0C27.3,16.5,28.3,15.7,29.5,15.7z"/>
<path style="fill:#B69136;" d="M29.5,15.7c0.8-0.1,1.5,0.1,2.2,0.5c0.3,0.2,0.6,0.5,0.7,0.9c0.1,0.2,0.1,0.4,0.2,0.6l0.1,0.3v1.2
	c0,0.1,0,0.2-0.1,0.3c-0.1,0.4-0.3,0.7-0.6,1c-0.6,0.5-1.3,0.8-2.1,0.9h-1.5c-0.1,0-0.2-0.1-0.3-0.1c-0.2-0.1-0.3-0.2-0.5-0.3
	c-0.3-0.3-0.6-0.6-0.8-0.9c-0.2-0.4-0.3-0.8-0.3-1.2c0-0.4,0.1-0.8,0.2-1.2c0.1-0.4,0.3-0.7,0.6-1C27.9,16.1,28.7,15.7,29.5,15.7z
	 M29.5,15.7c-0.8,0-1.5,0.4-1.9,1c-0.2,0.3-0.4,0.6-0.4,1C27,18,27,18.4,27,18.8c0,0.7,0.3,1.4,0.9,1.9c0.2,0.1,0.3,0.2,0.5,0.3
	c0.1,0.1,0.3,0.1,0.5,0.2H30c0.7,0,1.5-0.3,2-0.8l0.2-0.2c0.1-0.1,0.1-0.1,0.1-0.2c0.1-0.2,0.1-0.3,0.2-0.5v-1.1
	c-0.1-0.7-0.4-1.4-0.9-1.9C31,16,30.3,15.7,29.5,15.7z"/>
<path style="fill:#FFFFFF;" d="M23.5,15.4c0,0,2.5,0.1,2.9,1.9s-2.2,2.7-3.3,2.6s-3.1-1.7-2.5-3.4C21.2,15.3,23.5,15.4,23.5,15.4z"
	/>
<path style="fill:#B69136;" d="M23.5,15.4c0.7,0,1.4,0.2,2,0.5c0.7,0.3,1.1,1,1.1,1.8c0,0.4-0.2,0.7-0.4,1c-0.2,0.3-0.5,0.5-0.8,0.7
	c-0.6,0.4-1.3,0.6-2,0.6c-0.3,0-0.7-0.1-1-0.2c-0.3-0.1-0.7-0.3-0.9-0.6c-0.6-0.4-1-1.1-1.1-1.8c0-0.4,0-0.8,0.2-1.1
	c0.2-0.3,0.5-0.6,0.9-0.7C22.2,15.5,22.8,15.4,23.5,15.4z M23.5,15.4c-0.7,0-1.4,0.1-2,0.4c-0.6,0.3-0.9,0.9-0.8,1.5
	c0.1,0.6,0.5,1.2,1,1.6c0.2,0.2,0.5,0.4,0.8,0.6c0.3,0.2,0.6,0.3,0.9,0.3c0.7,0,1.3-0.2,1.9-0.5c0.6-0.3,1-0.9,1-1.6
	c0-0.3-0.1-0.6-0.3-0.9c-0.2-0.3-0.4-0.5-0.6-0.7C24.8,15.7,24.2,15.5,23.5,15.4z"/>
<path style="fill:#B69136;" d="M31.9,16.5c-0.7-0.9-2-1-2.9-0.3c0,0,0,0,0,0c-1.3,0.9-1.7,2.6-0.9,4c0.4,0.8,1.3,1.2,2.1,1
	c1-0.1,1.9-0.7,2.3-1.7C33.1,18.4,31.9,16.5,31.9,16.5z"/>
<path style="fill:#262424;" d="M28.2,18.7c-0.1-1.2,0.8-2.4,2-2.5c0,0,0.1,0,0.1,0l0,0c2,0,2.2,1.4,2.3,2.6s-1.5,2-2,2
	c-1.2,0.2-2.2-0.6-2.4-1.8c0,0,0,0,0,0V18.7z"/>
<path style="fill:#B69136;" d="M24,15.5c-1.1-0.3-2.2,0.4-2.5,1.5c0,0,0,0,0,0c0,0.1-0.1,0.2-0.1,0.4c-0.2,1.2,0.6,2.4,1.8,2.6h0.3
	c0.2,0,3-0.4,3-2.3S24,15.5,24,15.5z"/>
<path style="fill:#262424;" d="M23.9,15.6c-0.7,0.1-2.2,0.3-2.1,2.1c0.2,2.2,2.1,1.9,2.9,1.6c1-0.1,1.7-1,1.6-2c0,0,0,0,0,0
	c0-0.2-0.1-0.4-0.2-0.6C25.6,16,24.8,15.6,23.9,15.6z"/>
<circle style="fill:#B69136;" cx="28" cy="30.1" r="0.3"/>
<circle style="fill:#B69136;" cx="29.5" cy="41.4" r="0.3"/>
<ellipse transform="matrix(0.1611 -0.9869 0.9869 0.1611 -16.9681 67.1353)" style="fill:#B69136;" cx="31" cy="43.5" rx="0.4" ry="0.3"/>
<ellipse style="fill:#B69136;" cx="28.9" cy="32.2" rx="0.3" ry="0.4"/>
<circle style="fill:#B69136;" cx="28.2" cy="38.9" r="0.4"/>
<path style="fill:#B69136;" d="M27.2,37.4c0.1,0.6,0.2,1.3,0.4,1.9c0.1,0.6,0.3,1.2,0.4,1.8c0.2,0.6,0.4,1.2,0.7,1.7
	c0.3,0.6,0.7,1.1,1.1,1.5c-0.6-0.3-1.1-0.8-1.4-1.4c-0.3-0.6-0.6-1.2-0.8-1.8c-0.2-0.6-0.3-1.3-0.4-1.9L27.2,37.4z"/>
<path style="fill:#EED886;" d="M31.7,24.6c-0.1-0.4-0.2-0.9-0.1-1.3c0-0.4,0.2-0.8,0.4-1.2c0.2-0.4,0.5-0.7,0.9-0.9
	c0.4-0.2,0.8-0.3,1.2-0.3c-0.8,0.2-1.5,0.7-1.9,1.4c-0.2,0.3-0.3,0.7-0.4,1.1C31.7,23.8,31.7,24.2,31.7,24.6z"/>
<path style="fill:#EED886;" d="M29.7,26.3c0.1-0.4,0.3-0.8,0.6-1.1l0.6-0.3h0.7c0.4,0.1,0.8,0.4,1.1,0.7c0.3,0.3,0.5,0.6,0.7,1
	c-0.3-0.3-0.6-0.6-0.9-0.8c-0.3-0.3-0.6-0.5-1-0.6c-0.3-0.1-0.7,0-1,0.1C30.2,25.6,29.9,25.9,29.7,26.3z"/>
<path style="fill:#EACD61;" d="M27,11.3c0.7,0.2,1.4,0.4,2,0.7c0.3,0.3-2.9,3.6-2.9,3.6c-0.9-0.4-1.8-0.7-2.8-0.9
	C23,14.9,27,11.3,27,11.3z"/>
<path style="fill:#EACD61;" d="M34.5,14.6c0.5-1,0.7-2.2,0.7-3.3c0-0.1,0-0.3-0.1-0.4C35,10.8,35,10.7,35,10.5
	c-0.1-0.3-0.2-0.5-0.3-0.8c-0.2-0.5-0.5-1-0.9-1.4c-0.4-0.4-0.8-0.7-1.3-0.9c-0.5-0.2-1-0.3-1.5-0.3h-1.7c-0.3,0-0.6,0-0.9,0.1
	c-0.3,0-0.6,0.1-0.8,0.2l-0.1-0.1c0.2-0.2,0.5-0.4,0.8-0.5c0.3-0.1,0.6-0.2,0.9-0.3c0.5-0.3,1.1-0.4,1.7-0.4c0.7,0,1.3,0.1,1.9,0.4
	c0.3,0.2,0.5,0.4,0.8,0.6c0.3,0.2,0.5,0.4,0.7,0.7c0.4,0.5,0.7,1.1,0.9,1.7l0.3,0.9c0,0.2,0.1,0.3,0.1,0.5v0.5
	c0,0.6-0.1,1.2-0.3,1.8C35.2,13.7,34.9,14.2,34.5,14.6z"/>
<path style="fill:#B69136;" d="M32.3,13.6c0.6,0.3,1,1,1,1.7c0,1.2-0.8,0.9-1,0.6c-0.4-0.6-1.1-0.9-1.8-0.9c-1,0.1-0.6-1.3-0.4-1.7
	C30.6,12.6,31.8,13.2,32.3,13.6z"/>
<path style="fill:#B69136;" d="M22.8,13.4c0,0-0.1-0.7,0.9-0.9s2.9-0.5,2.9,0.7s-0.4,1.6-1,1.5c-0.5-0.2-1-0.4-1.5-0.5
	C23.4,14.2,22.8,14.4,22.8,13.4z"/>
<path style="fill:#FFFFFF;" d="M28.9,18.3c0,0-0.4-0.7-0.1-0.8s0.5,0.3,0.6,0.5s0.4,0.6,0.1,0.8S28.9,18.3,28.9,18.3z"/>
<path style="fill:#FFFFFF;" d="M22.6,16.5c0,0-0.4-0.7-0.1-0.8s0.5,0.3,0.6,0.5s0.4,0.6,0.1,0.8S22.6,16.5,22.6,16.5z"/>
<circle style="fill:#FFFFFF;" cx="30.4" cy="20" r="0.3"/>
<circle style="fill:#FFFFFF;" cx="24" cy="18.7" r="0.3"/>
<polygon style="fill:#EED886;" points="25.1,47.9 25,57.8 27.4,57.8 26.2,48.1 "/>
<path style="fill:#EED886;" d="M19.3,41.7c0.7,1,1.6,1.9,2.5,2.7c0.9,0.8,2,1.4,3.2,1.8c0.3,0.1,0.6,0.1,0.9,0.2
	c0.3,0.1,0.6,0.1,0.9,0.1c0.6,0.1,1.2,0.1,1.8,0l1.8-0.3c0.6-0.1,1.2-0.3,1.7-0.6h0.1l4.5,1.7L38,48l-1.5-0.7l-4.4-1.6h0.1
	c-1.1,0.6-2.3,1-3.6,1.1c-0.6,0.1-1.3,0.1-1.9,0c-0.3,0-0.6-0.1-0.9-0.1s-0.6-0.1-0.9-0.2c-1.2-0.4-2.3-1.1-3.2-1.9
	C20.8,43.8,20,42.8,19.3,41.7z"/>
<path style="fill:#EED886;" d="M31.4,41.4c0.3,0.4,0.6,0.8,0.9,1.2c0.3,0.4,3.8,1.6,4.2,1.9c0.2,0.1,0.5,0.2,0.7,0.2l0.9,0.3
	l1.5,0.4c-0.5,0-1.1,0-1.6-0.1c-0.3,0-0.5-0.1-0.8-0.1c-0.8-0.1-4.7-1.5-5-2.2C31.9,42.4,31.6,41.9,31.4,41.4z"/>
<path style="fill:#EACD61;" d="M29,45.8c0,0-2.7-1.4-3.9-7s-4,0-4,0c0.4,1.7,1.2,3.3,2.3,4.6C25,45.1,27.2,46.3,29,45.8z"/>
<path style="fill:#E5C234;" d="M17,33.6l-0.5,0.2c0,0-0.4,1.6,0.8,4.6c0,0,7.8,1.6,14-1.9c0.1-0.9,0.1-1.9,0-2.8
	c-0.1-0.3-0.7-0.3-0.7-0.3c-0.1,0.2-0.3,0.3-0.5,0.3c-0.4,0-2.3-1.5-4.1-2.2S17,33.6,17,33.6z"/>
<path style="fill:#B69136;" d="M21.6,39.1c-1.4,0-2.9-0.1-4.3-0.4h-0.2L17,38.5c-1.2-3.1-0.8-4.8-0.8-4.8v-0.2l0.6-0.3
	c0.8-0.3,7.4-2.8,9.3-2.1c1,0.4,1.9,0.9,2.8,1.5c0.3,0.3,0.7,0.5,1.1,0.7c0.2,0,0.2-0.1,0.2-0.1l0.1-0.3l0.3,0.1
	c0.4,0,0.7,0.2,0.9,0.5c0,0.1,0.2,0.3,0,2.9v0.2l-0.2,0.1C28.4,38.4,25,39.2,21.6,39.1z M17.6,38.1c1.2,0.2,7.9,1.2,13.4-1.8
	c0.1-0.8,0.1-1.6,0-2.4c-0.1,0-0.1-0.1-0.2-0.1C30.6,34,30.4,34,30.1,34c-0.3,0-0.7-0.2-1.5-0.8c-0.9-0.6-1.8-1.1-2.7-1.5
	c-1.4-0.5-6.8,1.3-8.8,2.1l-0.3,0.1C16.8,35.3,17,36.8,17.6,38.1z"/>
<path style="fill:#E5C234;" d="M21.6,29.1c0,0,5.1,0,5.6,5.2c0.3,4-3.4,5.3-5.6,5.2s-5-1.9-4.6-5.9C17.1,31.1,19.1,29.1,21.6,29.1z"
	/>
<path style="fill:#B69136;" d="M21.6,29c0.3,0,0.7,0,1,0.1c0.3,0.1,0.7,0.1,1,0.2c0.7,0.2,1.3,0.5,1.9,0.9c0.6,0.4,1,1,1.4,1.6
	c0.1,0.2,0.1,0.3,0.2,0.5c0.1,0.2,0.1,0.3,0.1,0.5c0.3,1,0.3,2.2,0,3.2c-0.2,0.7-0.6,1.3-1.1,1.8c-0.5,0.5-1.1,0.9-1.7,1.2
	c-0.6,0.3-1.3,0.5-2,0.6c-2.2,0.4-4.4-0.8-5.3-2.9c-0.3-0.7-0.5-1.4-0.5-2.1v-1.1c0-0.3,0.1-0.7,0.2-1c0.4-1.4,1.4-2.5,2.8-3l1-0.3
	C20.9,29.1,21.3,29,21.6,29z M21.6,29.1c-0.7,0-1.3,0.2-1.9,0.5c-0.6,0.3-1.1,0.7-1.5,1.3c-0.4,0.5-0.6,1.1-0.7,1.8
	c0,0.2-0.1,0.3-0.1,0.5l-0.1,0.5v1c0,1.3,0.6,2.5,1.5,3.4c0.5,0.4,1,0.8,1.6,1c0.6,0.2,1.3,0.3,1.9,0.3c1.4,0,2.7-0.6,3.6-1.6
	c0.4-0.5,0.7-1.1,0.9-1.7c0-0.2,0.1-0.3,0.1-0.5v-1.4c-0.1-1.3-0.7-2.5-1.6-3.4C24.4,29.7,23,29.1,21.6,29.1z"/>
<path style="fill:#EED886;" d="M27,32.6c0.7,0.3,1.3,0.8,2,1.1c0.3,0.2,0.6,0.4,1,0.5c0.2,0.1,0.3,0.1,0.5,0.1c0.2,0,0.4,0,0.5-0.2
	c-0.1,0.2-0.3,0.3-0.5,0.3h-0.6c-0.4-0.1-0.8-0.2-1.1-0.5c-0.3-0.2-0.6-0.4-0.9-0.7C27.6,33.1,27.2,32.9,27,32.6z"/>
<path style="fill:#EED886;" d="M26.5,37.4c0.8-0.3,1.6-0.5,2.4-0.7c0.4-0.1,0.8-0.2,1.2-0.4c0.4-0.1,0.7-0.3,1.1-0.5
	c-0.7,0.5-1.4,0.9-2.2,1.2l-1.2,0.3C27.4,37.4,26.9,37.4,26.5,37.4z"/>
<path style="fill:#B69136;" d="M34.2,20.3l-1.3,0.6c-0.2,0.1-0.5,0.2-0.7,0.3c-0.2,0.2-0.4,0.4-0.5,0.6c-0.2,0.4-0.3,0.9-0.3,1.4
	v1.5l0,0c-0.2-0.5-0.3-1-0.3-1.5c0-0.3,0.1-0.5,0.1-0.8c0.1-0.3,0.2-0.5,0.4-0.7c0.2-0.2,0.3-0.4,0.5-0.5c0.2-0.2,0.4-0.4,0.6-0.5
	C33.2,20.4,33.7,20.3,34.2,20.3z"/>
<path style="fill:#B69136;" d="M32.8,25.5c-0.4-0.3-0.9-0.5-1.4-0.6c-0.3-0.1-0.5-0.1-0.8,0c-0.1,0.1-0.2,0.1-0.3,0.2L30,25.4
	c-0.1,0.2-0.2,0.5-0.3,0.7c-0.1,0.2-0.1,0.5-0.2,0.8c-0.1,0.5-0.1,1.1-0.1,1.6l0,0c-0.2-0.5-0.3-1.1-0.2-1.6c0-0.6,0.3-1.1,0.7-1.5
	c0.2-0.2,0.5-0.4,0.7-0.5c0.3-0.1,0.5-0.2,0.8-0.2c0.3,0,0.6,0.1,0.8,0.3C32.5,24.9,32.7,25.1,32.8,25.5z"/>
<path style="fill:#EACD61;" d="M20.4,38l-1-6c0,0-0.4-1.6,0.6-1.9c0.8-0.3,2.3-0.5,3.1,0.3s1.6,7,1.6,7C23.5,38.4,21.8,38.6,20.4,38
	z"/>
<path style="fill:#B69136;" d="M22.3,30.9c-0.6-0.1-1.3-0.1-1.9,0c-0.6,0.2-1.1,0.5-1.5,1v0.2l-0.1,0.2c-0.1,0.1-0.2,0.2-0.2,0.4
	l-0.2,0.4c0,0.2-0.1,0.3-0.1,0.5c-0.2,0.6-0.1,1.3,0.1,1.9c0.4,1.2,1.4,2.1,2.6,2.5c1.2,0.4,2.5,0.2,3.6-0.5l0,0
	c-0.5,0.4-1.1,0.7-1.7,0.9c-0.3,0.1-0.7,0.1-1,0.1c-0.3,0-0.7-0.1-1-0.2c-1.3-0.4-2.3-1.4-2.7-2.7c-0.1-0.6-0.1-1.3,0-1.9
	c0.1-0.6,0.3-1.2,0.6-1.8c0.4-0.6,0.9-1,1.6-1.1C21,30.5,21.7,30.6,22.3,30.9z"/>
<path style="fill:#B69136;" d="M23.4,31.2c0.5,0.1,1,0.3,1.4,0.7c0.3,0.4,0.6,0.9,0.8,1.4c0.1,0.2,0.2,0.5,0.3,0.7
	c0.1,0.3,0.1,0.5,0.1,0.8c0,0.5-0.2,1.1-0.5,1.5l0,0c0.1-0.5,0.2-1,0.2-1.5c0-0.5-0.1-1-0.2-1.5c-0.1-0.2-0.1-0.5-0.3-0.7
	c-0.1-0.2-0.3-0.4-0.5-0.5C24.3,31.8,23.8,31.5,23.4,31.2z"/>
<path style="fill:#EED886;" d="M23.7,30.1c0.9,0.5,1.6,1.2,2.2,2c0.3,0.4,0.5,0.9,0.6,1.4c0.1,0.5,0.1,1.1,0,1.6
	c-0.2,1-0.7,2-1.4,2.7c-0.4,0.3-0.8,0.6-1.3,0.8c-0.4,0.2-0.9,0.4-1.4,0.4c0.5-0.2,0.9-0.4,1.4-0.6c0.4-0.2,0.9-0.5,1.2-0.9
	c0.7-0.7,1.1-1.6,1.3-2.5c0.2-1,0-2-0.5-2.8c-0.2-0.4-0.5-0.9-0.9-1.2L23.7,30.1z"/>
<path style="fill:#EED886;" d="M22.1,20.3l1.4,0.5c0.2,0.1,0.5,0.2,0.7,0.2c0.2,0.1,0.5,0.1,0.7,0.1h1.5c0.5,0,1,0,1.5,0.1
	c-1,0.2-2,0.2-3,0.2c-0.3,0-0.5,0-0.8-0.1c-0.2-0.1-0.5-0.2-0.7-0.3C22.9,20.8,22.5,20.6,22.1,20.3z"/>
<path style="fill:#EED886;" d="M20.7,19c-0.3,1-0.6,1.9-0.9,2.9c-0.2,0.5-0.3,1-0.5,1.4s-0.3,1-0.5,1.4c-0.3,1-0.5,1.9-0.7,2.9
	s-0.5,2-0.6,3c-0.1-1-0.1-2.1,0.1-3.1c0.1-1,0.3-2,0.6-3c0.3-1,0.7-1.9,1.1-2.9C19.7,20.7,20.1,19.8,20.7,19z"/>
<path style="fill:#B69136;" d="M33.6,15c0.5-1.1,0.8-2.2,1.1-3.4c0.2-0.5,0.2-1.2,0-1.7c-0.2-0.6-0.6-1-1.2-1.2
	c-0.3-0.1-0.6-0.2-0.8-0.4l-0.4-0.1l-0.4-0.1c-0.6-0.1-1.1-0.2-1.7-0.2c-1.2-0.1-2.3,0-3.5,0.2V8c1.1-0.6,2.3-0.9,3.6-0.9
	c1.3,0,2.5,0.5,3.5,1.3c0.5,0.4,0.9,0.9,1.2,1.5c0.3,0.6,0.4,1.2,0.4,1.9c0,0.6-0.2,1.3-0.5,1.8C34.5,14.1,34.1,14.6,33.6,15z"/>
</svg>
