<?xml version="1.0" encoding="utf-8"?>
<!-- Generator: Adobe Illustrator 22.0.0, SVG Export Plug-In . SVG Version: 6.00 Build 0)  -->
<svg version="1.1" id="Слой_1" xmlns="http://www.w3.org/2000/svg" xmlns:xlink="http://www.w3.org/1999/xlink" x="0px" y="0px"
	 viewBox="0 0 55.8 62.9" style="enable-background:new 0 0 55.8 62.9;" xml:space="preserve">
<title>01_01</title>
<path style="fill:#FFFFFF;" d="M41,59.3c1.4-0.4-0.3-1.4-0.8-0.3c-0.2-0.9-1.3-0.5-0.8,0.2c-0.2-0.1-1.1-0.5-1.2,0s0.5,0.5,0.8,0.5
	c-0.4,0.1-1.2,0.4-0.8,0.8s1.2-0.2,1.4-0.4l-0.3,0.1c-0.9,1,0.4,1.4,0.9,0.2c0.7,0.9,1.6,0.1,0.6-0.4c0.5,0,0.9,0,1.2-0.3
	C42,59.2,41.6,59.1,41,59.3z"/>
<path style="fill:#FFCE00;" d="M40.1,59c-0.5,0-1.2,0.9-0.5,1.1h0.9C41.4,59.9,40.7,59,40.1,59z"/>
<path style="fill:#60AB3E;" d="M19.8,58.7c0.4,0.9,1.6,0.9,2.9,0.9s2.1-0.4,2.2-1.1c0.2-1.1,0.6-2.2,1.1-3.2c-0.4-0.1-0.9,0-1.2,0.3
	c-0.8,0.5-1.5,0.8-1.5,0.8s-0.3-2.2-0.4-3.5c0-0.8,0-1.7,0.2-2.5c-0.6,0.6-1.1,1.3-1.5,2.1c-0.3,0.7-0.8,1.9-0.8,2s-0.5,1.8-0.5,1.8
	c-0.5-0.2-1-0.4-1.5-0.5c-1.2-0.3-1.5,0.1-1.5,0.1C18.2,56.7,19.1,57.6,19.8,58.7z"/>
<path style="fill:#6CBD45;" d="M24.8,55.5l-1.4,0.8c0.1,0.2,0.1,0.4,0.1,0.5c0.3-0.4,0.9-0.6,1.4-0.5c0,0.4,0.1,0.8,0.3,1.2l0,0
	c0.2-0.8,0.4-1.6,0.8-2.3C25.6,55.2,25.1,55.3,24.8,55.5z"/>
<path style="fill:#6CBD45;" d="M22.9,52.9c0-0.8,0-1.7,0.2-2.5c-0.6,0.6-1.1,1.3-1.5,2.1c-0.3,0.7-0.8,1.9-0.8,2s-0.5,1.8-0.5,1.8
	c-0.5-0.2-1-0.4-1.5-0.5c-1.2-0.3-1.5,0.1-1.5,0.1s0.6,0.5,1.3,1.1c0-0.1,0-0.2,0-0.3c0-0.1,0-0.2,0.1-0.3c0.2-0.2,0.4-0.2,0.6-0.2
	c0.5,0,1,0.2,1.5,0.4c0-0.9,0.2-1.8,0.7-2.6c0-0.1,0.1-0.2,0.2-0.2c0.1,0,0.2,0.1,0.3,0.2c0.5,0.5,0.9,1.2,1.3,1.8
	C23.1,55.1,23,53.8,22.9,52.9z"/>
<path style="fill:#4B8C31;" d="M26.1,55.1c-0.4,0.1-0.9,0.3-1.3,0.5l-1.3,0.8c-0.2-0.8-0.4-1.7-0.4-2.5c0-1.3,0.1-2.5,0.5-3.7
	c0-0.2-0.2-0.4-0.4-0.2c-0.8,0.9-1.6,2-2.2,3.1c-0.5,0.9-1.1,2.2-0.8,3.3c-0.2-0.1-0.4-0.2-0.6-0.3c-0.8-0.3-1.7-0.5-2.6-0.4
	c-0.1,0-0.2,0.1-0.2,0.2c0,0,0,0,0,0c0.2,0.6,0.9,0.9,1.4,1.3c0.6,0.4,1.2,1,1.6,1.6c0.1,0.1,0.2,0.1,0.2-0.1
	c-0.1-0.6-0.5-1.1-1-1.5c-0.3-0.2-0.6-0.4-0.9-0.6c-0.3-0.2-0.7-0.4-0.9-0.7c0.8-0.1,1.6,0.1,2.3,0.4c0.4,0.2,0.8,0.4,1.1,0.7
	c0.3,0.2,0.5,0.5,0.8,0.7c0.1,0,0.1,0,0.1,0c0,0,0,0,0-0.1c-0.2-0.5-0.6-0.9-1-1.1l0,0c0-0.6,0.1-1.1,0.2-1.7
	c0.2-0.6,0.4-1.2,0.7-1.8c0.4-0.8,0.9-1.5,1.4-2.1c-0.5,2.2-0.3,4.6,0.6,6.7c0.1,0.2,0.5,0.1,0.4-0.2s-0.2-0.6-0.3-0.9
	c0.8-0.2,1.4-0.9,2.2-1c-0.3,0.4-0.5,0.9-0.7,1.4c-0.3,0.6-0.3,1.2-0.2,1.8c0,0,0.1,0.1,0.1,0c0,0,0,0,0,0c0.2-0.5,0.3-1,0.4-1.6
	c0.2-0.6,0.5-1.2,0.9-1.8c0.1-0.1,0-0.2-0.1-0.3C26.2,55.1,26.1,55,26.1,55.1z"/>
<path style="fill:#4B8C31;" d="M27.2,56.6c-0.7,0.4-1.2,1.1-1.3,2c0,0.2,0.2,0.3,0.3,0.1c0.1-0.3,0.3-0.7,0.5-1
	c0.2-0.3,0.5-0.7,0.7-1C27.4,56.7,27.3,56.6,27.2,56.6z"/>
<path style="fill:#4B8C31;" d="M27.8,57.8c-0.2-0.1-0.4,0.1-0.5,0.3c-0.1,0.2-0.2,0.4-0.2,0.7c0,0.1,0.1,0.1,0.1,0.1
	c0,0,0.1,0,0.1-0.1c0-0.2,0.1-0.3,0.2-0.4c0.1-0.1,0.3-0.2,0.4-0.4C27.9,57.8,27.9,57.8,27.8,57.8z"/>
<path style="fill:#4B8C31;" d="M18,58.2c-0.4-0.4-0.9-0.6-1.4-0.8c-0.1,0-0.2,0.1-0.1,0.2c0.5,0.2,0.9,0.5,1.2,0.8
	c0.3,0.3,0.5,0.7,0.8,1c0,0,0.1,0,0.1,0c0,0,0,0,0-0.1C18.7,58.8,18.4,58.5,18,58.2z"/>
<path style="fill:#4B8C31;" d="M17.9,59.9c-0.1-0.2-0.3-0.3-0.5-0.5c-0.2-0.2-0.3-0.4-0.5-0.6c0-0.1-0.1-0.1-0.2,0
	c0,0-0.1,0.1,0,0.1c0.1,0.2,0.3,0.4,0.4,0.6c0.1,0.2,0.4,0.4,0.6,0.5c0.1,0,0.1,0,0.1-0.1C18,59.9,18,59.9,17.9,59.9z"/>
<path style="fill:#4B8C31;" d="M16.2,59.4c-0.1-0.1-0.2,0.1-0.1,0.2c0.1,0.1,0.2,0.2,0.3,0.3c0.1,0.1,0.2,0.2,0.3,0.3
	c0,0,0.1,0,0.1,0c0,0,0,0,0,0C16.7,59.8,16.4,59.6,16.2,59.4z"/>
<path style="fill:#60AB3E;" d="M29.7,58.7c0.4,0.9,1.6,0.9,2.9,0.9s2.1-0.4,2.2-1.1c0.2-1.1,0.6-2.2,1.1-3.2c-0.4-0.1-0.9,0-1.2,0.3
	c-0.8,0.5-1.5,0.8-1.5,0.8s-0.3-2.2-0.3-3.5c0-0.8,0-1.7,0.2-2.5c-0.6,0.6-1.1,1.3-1.5,2.1c-0.3,0.7-0.8,1.9-0.8,2s-0.5,1.8-0.5,1.8
	c-0.5-0.2-1-0.4-1.5-0.5c-1.2-0.3-1.5,0.1-1.5,0.1C28.2,56.7,29.1,57.6,29.7,58.7z"/>
<path style="fill:#6CBD45;" d="M34.7,55.5l-1.4,0.8c0.1,0.2,0.1,0.4,0.1,0.5c0.3-0.4,0.9-0.6,1.4-0.5c0,0.4,0.1,0.8,0.3,1.2l0,0
	c0.2-0.8,0.5-1.6,0.9-2.3C35.6,55.2,35.1,55.3,34.7,55.5z"/>
<path style="fill:#6CBD45;" d="M32.8,52.9c0-0.8,0-1.7,0.2-2.5c-0.6,0.6-1.1,1.3-1.5,2.1c-0.3,0.7-0.8,1.9-0.8,2s-0.5,1.8-0.5,1.8
	c-0.5-0.2-1-0.4-1.5-0.5c-1.2-0.3-1.5,0.1-1.5,0.1s0.6,0.5,1.3,1.1c0-0.1,0-0.2,0-0.3c0-0.1,0-0.2,0.1-0.3c0.2-0.2,0.4-0.2,0.6-0.2
	c0.5,0,1,0.2,1.5,0.4c0-0.9,0.2-1.8,0.7-2.6c0-0.1,0.1-0.2,0.2-0.2c0.1,0,0.2,0.1,0.3,0.2c0.5,0.5,0.9,1.2,1.3,1.8
	C33,55.1,32.9,53.8,32.8,52.9z"/>
<path style="fill:#4B8C31;" d="M36,55.1c-0.4,0.1-0.9,0.3-1.3,0.5l-1.3,0.8c-0.2-0.8-0.4-1.7-0.4-2.5c0-1.3,0.1-2.5,0.5-3.7
	c0-0.2-0.2-0.4-0.4-0.2c-0.8,1-1.5,2-2.1,3.1c-0.5,0.9-1.1,2.2-0.8,3.3c-0.2-0.1-0.4-0.2-0.6-0.3c-0.8-0.4-1.8-0.5-2.7-0.4
	c-0.1,0-0.2,0.1-0.2,0.2c0,0,0,0,0,0c0.2,0.6,0.9,0.9,1.4,1.3c0.6,0.4,1.2,1,1.6,1.6c0.1,0.1,0.2,0.1,0.2-0.1
	c-0.1-0.6-0.5-1.1-1-1.5c-0.3-0.2-0.6-0.4-0.9-0.6c-0.3-0.2-0.7-0.4-0.9-0.7c0.8-0.1,1.6,0.1,2.3,0.4c0.4,0.2,0.8,0.4,1.1,0.7
	c0.3,0.2,0.5,0.5,0.8,0.7c0.1,0,0.1,0,0.1,0c0,0,0,0,0-0.1c-0.2-0.5-0.6-0.9-1-1.1l0,0c0-0.6,0.1-1.1,0.2-1.7
	c0.2-0.6,0.4-1.2,0.7-1.8c0.4-0.8,0.9-1.5,1.4-2.1c-0.5,2.2-0.3,4.6,0.6,6.7c0.1,0.2,0.5,0.1,0.4-0.2s-0.2-0.6-0.3-0.9
	c0.8-0.2,1.4-0.9,2.2-1c-0.3,0.4-0.5,0.9-0.7,1.4c-0.3,0.6-0.3,1.2-0.2,1.8c0,0,0.1,0.1,0.1,0c0,0,0,0,0,0c0.2-0.5,0.3-1,0.4-1.6
	c0.2-0.6,0.5-1.2,0.9-1.8c0.1-0.1,0-0.2-0.1-0.3C36.1,55.1,36.1,55,36,55.1z"/>
<path style="fill:#4B8C31;" d="M37.2,56.6c-0.7,0.4-1.2,1.1-1.3,2c0,0.2,0.2,0.3,0.3,0.1c0.1-0.3,0.3-0.7,0.5-1
	c0.2-0.3,0.5-0.7,0.7-1C37.3,56.7,37.2,56.6,37.2,56.6z"/>
<path style="fill:#4B8C31;" d="M37.8,57.8c-0.2-0.1-0.4,0.1-0.5,0.3c-0.1,0.2-0.2,0.4-0.2,0.7c0,0.1,0.1,0.1,0.1,0.1
	c0,0,0.1,0,0.1-0.1c0-0.2,0.1-0.3,0.2-0.4c0.1-0.1,0.3-0.2,0.3-0.4C37.9,57.8,37.8,57.8,37.8,57.8z"/>
<path style="fill:#4B8C31;" d="M27.9,58.2c-0.4-0.4-0.9-0.6-1.4-0.8c-0.1,0-0.2,0.1-0.1,0.2c0.5,0.2,0.9,0.5,1.2,0.8
	c0.3,0.3,0.5,0.7,0.8,1c0,0,0.1,0,0.1,0c0,0,0,0,0-0.1C28.6,58.8,28.3,58.5,27.9,58.2z"/>
<path style="fill:#4B8C31;" d="M27.9,59.9c-0.1-0.2-0.3-0.3-0.5-0.5c-0.2-0.2-0.3-0.4-0.5-0.6c0-0.1-0.1-0.1-0.2,0
	c0,0-0.1,0.1,0,0.1c0.1,0.2,0.3,0.4,0.4,0.6c0.1,0.2,0.4,0.4,0.6,0.5c0.1,0,0.1,0,0.1-0.1C27.9,59.9,27.9,59.9,27.9,59.9z"/>
<path style="fill:#4B8C31;" d="M26.1,59.4c-0.1-0.1-0.2,0.1-0.1,0.2c0.1,0.1,0.2,0.2,0.3,0.3c0.1,0.1,0.2,0.2,0.3,0.3
	c0,0,0.1,0,0.1,0c0,0,0,0,0,0C26.7,59.8,26.4,59.6,26.1,59.4z"/>
<path style="fill:#786333;" d="M21.1,61.3c-0.3,0-0.5-0.2-0.5-0.5c0-0.1,0-0.2,0.1-0.3c0.9-1.2,2.1-2.1,3.4-2.6v-9.7L24,48l-0.6-0.1
	c-1.1-0.3-2.2-0.8-3.1-1.5H20c-1.1,0-2.1-0.2-3.1-0.5c-0.2-0.1-0.5-0.2-0.7-0.3h-0.1c-0.2-0.1-0.4-0.2-0.6-0.3
	c-1-0.5-1.8-1.3-2.4-2.2c-0.1-0.2-0.3-0.4-0.4-0.5c-0.3-0.5-0.5-1-0.7-1.5c-0.9-1.7-1.4-3.7-1.5-5.6c-1.1-0.6-3.1-1.9-3.7-3.3
	c-0.3-0.8-0.6-1.6-1.1-2.4c-0.8-1.2-0.5-1.9-0.2-2.3c-0.1-0.4,0-0.9,0.2-1.2c0.2-0.3,0.4-0.4,0.7-0.5c0-0.2,0.1-0.5,0.2-0.7l0.1-0.2
	c0.4-0.6,1.1-1,1.9-1h0.2c0.2,0,0.5,0.1,0.6,0.2l0.1,0.1c0.1,0.1,0.2,0.2,0.3,0.4H10c0.2,0,0.3,0,0.5,0.1c0.6,0.2,0.9,0.9,1,1.1
	c0,0,0,0.1,0,0.1c0.1,0.3,0.2,0.7,0.3,1c0,0.2,0.1,0.4,0.1,0.5c0,0.3,0,0.6-0.1,0.9c-0.1,0.4-0.3,0.8-0.6,1l0,0l0.2,0.1h0.1
	c0.1-0.5,0.3-1.2,0.6-2c0.3-1.4,0.9-2.7,1.6-3.9l0,0c0-0.5,0-0.9,0.1-1.4c0.1-1.5,0.5-3,1.2-4.3c0.2-0.4,0.4-0.7,0.6-1.1
	c-1.5-0.2-2.9-0.7-4.2-1.5c-0.9-0.7-0.8-1.3-0.6-1.6c0-0.1,0.1-0.1,0.1-0.1c0.1-0.4,0.8-1.1,3.4-1.7c1.4-0.3,2.9-0.6,4.4-0.8
	l1.7-6.2c0-0.4,0.5-2.1,3.7-2.1h1.5c5.5,0,11.8,1.3,12.8,3.6c0.4,2.2,0.6,4.4,0.6,6.7c0,0.9,0.1,1.8,0.1,2.2c0.3,0.1,1,0.4,1.6,0.7
	c1.3,0.4,2.5,1,3.7,1.8c0.3,0.3,0.9,0.8,0.7,1.4c0,0.1-0.1,0.2-0.2,0.3c-0.1,0.2-0.5,0.8-3.7,0.9c0,0.4,0,1,0.1,1.4s0.1,0.6,0.1,0.7
	v0.1l0.3,0.6c0.2,0.4,0.5,0.9,0.6,1.3l0.3,0.7c0.1,0.2,0.2,0.4,0.3,0.6c0.5,1,0.9,2,1.2,3.1l0.3,0.9c0.1-0.3,0.2-0.7,0.1-1
	C43.7,26.4,44,25,45,24.4c0.4-0.3,0.8-0.4,1.3-0.5c0.3,0,0.6,0.1,0.8,0.3c0.2-0.2,0.5-0.3,0.8-0.3c0.7,0,1.3,0.5,1.5,1.2l0.2,0.5
	c0.3,0.1,0.5,0.4,0.7,0.6c0.1,0.1,0.1,0.2,0.1,0.3c0.1,0.3,0.2,0.6,0.1,0.8c0,0.2-0.1,0.4-0.2,0.6c0,0.1,0,0.2,0,0.3
	c0,0.2,0,0.3,0,0.5c0,0.5-0.4,1.2-1.7,1.4l-0.2,0.1c-0.1,0-0.1,0.1-0.2,0.1c0,0.2,0,0.4,0,0.6c0.1,0.9-0.2,1.8-0.7,2.5
	c-0.2,0.4-0.6,0.8-0.9,1.1c-0.2,0.2-0.4,0.3-0.6,0.5L45,35.9c-0.2,1.6-0.6,3.1-1.2,4.6c-0.6,1.5-1.6,2.9-2.9,3.9
	c-0.4,0.3-0.9,0.6-1.4,0.8l0,0c-0.6,0.3-1.3,0.5-2,0.6c-0.6,0.1-1.2,0.2-1.8,0.2l-0.4,0.1l-0.2,0.1c-1.1,0.7-2.3,1.3-3.6,1.7v9.7
	c2.4,0.7,3,2.1,3.1,2.7c0,0.1,0,0.3,0,0.4c0,0.3-0.2,0.5-0.5,0.5H21.1z M47,25.9c-0.1,0.1-0.2,0.2-0.3,0.4c-0.1,0.2-0.1,0.4,0,0.6
	l0,0c0.3,0,0.5-0.1,0.7-0.3l0,0l-0.2-0.2C47.1,26.1,47.1,26,47,25.9z"/>
<path style="fill:#FFFFFF;" d="M25.4,3.1c5.5,0,11.6,1.3,12.3,3.3c0.4,1.4,0.6,8.7,0.8,9s4.4,1.7,5.4,2.5c0.4,0.3,0.6,0.6,0.5,0.9
	c0,0.1,0,0.1-0.1,0.2c-0.3,0.6-3.1,0.7-3.8,0.7c0,0.5,0.1,1.3,0.1,1.9c0,0.4,0.1,0.6,0.1,0.8v0.1l0.3,0.7c0.3,0.4,0.5,0.9,0.7,1.4
	l0.3,0.6c0.1,0.1,0.1,0.3,0.3,0.6c0.5,1,0.8,2,1.1,3l0,0c0.2,0.5,0.3,1,0.5,1.4c0.1,0.2,0.2,0.3,0.3,0.3c0.1,0,0.1,0,0.2-0.1
	c0.4-0.5,0.6-1.2,0.5-1.9c-0.2-0.5-0.8-2.8,0.5-3.6c0.3-0.2,0.6-0.3,1-0.4c0.3,0,0.6,0.2,0.6,0.5c0,0.3-0.6,0.7-0.7,1.1
	s-0.1,1.1,0.4,1.3h0.2c0.5,0,0.9-0.2,1.1-0.6l0,0c0-0.1,0-0.2,0-0.3c-0.1-0.4-1-1.1-0.6-1.7c0.1-0.2,0.3-0.3,0.5-0.3
	c0.5,0,0.9,0.4,1,0.9L49,26c0.3,0.1,0.5,0.3,0.6,0.5c0,0.1,0.1,0.1,0.1,0.2c0.1,0.2,0.1,0.4,0.1,0.5c0,0.2-0.1,0.4-0.3,0.6l0,0V28
	c0,0.1,0,0.2,0,0.3l0,0c0,0.1,0,0.3,0,0.4l0,0c0,0,0,0.7-1.2,0.9c-0.1,0-0.2,0-0.3,0.1c-0.2,0.1-0.3,0.2-0.5,0.4
	c-0.2,0.6,0.1,2-0.7,3l0,0c-0.2,0.4-0.5,0.7-0.8,1c-0.2,0.2-0.4,0.3-0.6,0.5c-0.6,0.5-1,1-1,1c-0.2,1.6-0.6,3.1-1.1,4.5l0,0
	c-0.5,1.5-1.5,2.8-2.8,3.8c-0.4,0.3-0.8,0.5-1.3,0.7l0,0c-0.6,0.3-1.2,0.5-1.9,0.6c-0.6,0.1-1.2,0.2-1.8,0.2l0,0l-0.4,0.1l-0.2,0.3
	c-1.2,0.7-2.5,1.3-3.9,1.7V58c2.4,0.5,3,1.8,3.1,2.4c0,0.1,0,0.2,0,0.3h-13c0.9-1.2,2.1-2.1,3.5-2.5V47.9c-0.1-0.1-0.2-0.2-0.3-0.4
	l-0.7-0.2c-1.1-0.3-2.2-0.8-3.1-1.5H20c-1,0-2-0.1-3-0.5c-0.2-0.1-0.5-0.2-0.7-0.3l0,0l-0.5-0.3c-0.9-0.5-1.7-1.3-2.3-2.1l-0.4-0.5
	c-0.3-0.4-0.5-0.8-0.7-1.3l0,0c-0.9-1.8-1.4-3.7-1.5-5.7c-0.6-0.3-3.1-1.7-3.7-3.1c-0.3-0.9-0.7-1.7-1.1-2.5
	c-0.4-0.6-0.6-1.4-0.1-1.8l0,0c0-0.2-0.3-1.2,0.5-1.4h0.1c0.1,0,0.2,0,0.3,0.1l0,0c-0.2-0.3-0.2-0.7,0-1l0,0v-0.2l0,0
	c0.3-0.5,0.9-0.8,1.4-0.8h0.2c0.1,0,0.3,0,0.4,0.1l0,0c0.1,0.1,0.2,0.2,0.2,0.3c0,0.2,0,0.3,0,0.5l0,0c0.1-0.1,0.3-0.2,0.5-0.2
	c0.1,0,0.2,0,0.3,0.1c0.4,0.1,0.6,0.8,0.6,0.8l0,0c0.2,0.4,0.3,0.7,0.3,1.1c0,0.2,0,0.3,0,0.5c0,0.2,0,0.5-0.1,0.7l0,0
	c-0.1,0.3-0.2,0.6-0.5,0.8v-0.1c-0.3,0.4-0.1,0.6,0.2,0.7l0.3,0.1c0.2,0.1,0.4,0.1,0.7,0.1l0.1-0.3l0,0c0.1-0.5,0.3-1.2,0.6-2.1
	c0.3-1.3,0.9-2.6,1.6-3.7l0.1-0.2c0-0.5,0-1,0.1-1.4c0.1-1.5,0.5-2.9,1.2-4.3l0,0c0.3-0.6,0.7-1.2,1.1-1.8h-0.3
	c-1.6-0.1-3.2-0.6-4.6-1.5c-0.6-0.5-0.6-0.8-0.5-1c0,0,0-0.1,0.1-0.1v-0.1l0,0c0,0,0-0.8,3-1.3l0,0c1.6-0.3,3.1-0.6,4.7-0.8l1.8-6.6
	c0,0,0.1-1.7,3.2-1.7L25.4,3.1 M8.5,26L8.5,26c0.1,0.4,0.2,0.8,0.4,1.1l0,0c0.1,0.1,0.1,0.1,0.2,0.2h0.4c0.2,0,0.4-0.3,0.3-0.5
	c0,0,0-0.1,0-0.1l-0.1-0.1l-0.1-0.1l0,0c-0.1-0.2-0.2-0.3-0.3-0.5c0-0.2,0-0.3,0-0.5c0,0.1-0.1,0.1-0.2,0.2L9,25.8H8.9l-0.1,0.1H8.4
	 M9.6,26.5L9.6,26.5 M9.8,26.6L9.8,26.6 M25.4,2.1H24c-3.5,0-4.1,1.9-4.2,2.5l-1.6,5.9c-0.9,0.1-2.6,0.4-4.1,0.8
	c-2.2,0.4-3.4,1.1-3.7,2l-0.1,0.1c-0.2,0.4-0.4,1.2,0.7,2.1c1.1,0.7,2.4,1.2,3.7,1.5l-0.2,0.5c-0.8,1.4-1.2,3-1.3,4.6
	c-0.1,0.4-0.1,0.8-0.1,1.2c-0.5,0.7-0.8,1.5-1.1,2.4v-0.1c0-0.1,0-0.1-0.1-0.2c-0.2-0.6-0.7-1.2-1.3-1.4c-0.1,0-0.3-0.1-0.4-0.1
	c-0.1-0.1-0.2-0.3-0.4-0.4l0,0c-0.3-0.2-0.6-0.3-0.9-0.3H8.6c-0.9,0-1.8,0.5-2.3,1.3v0.1l-0.1,0.1l-0.1,0.1l0,0
	C6.1,25,6.1,25.1,6,25.3c-0.3,0.1-0.5,0.3-0.7,0.6c-0.3,0.6-0.4,1.2-0.3,1.9c-0.4,0.7-0.3,1.6,0.3,2.2c0.4,0.8,0.7,1.5,1,2.3
	c0.6,1.5,2.5,2.7,3.7,3.4c0.1,1.9,0.7,3.8,1.6,5.6c0.2,0.5,0.5,0.9,0.8,1.4c0.1,0.2,0.3,0.4,0.4,0.6c0.7,1,1.5,1.8,2.6,2.4l0.5,0.3
	h0.1c0.3,0.1,0.5,0.2,0.8,0.3c1.1,0.4,2.2,0.6,3.3,0.6h0.2c1,0.7,2,1.2,3.2,1.5l0.3,0.1v9.1c-1.3,0.6-2.5,1.5-3.4,2.7
	c-0.3,0.5-0.2,1.1,0.3,1.4c0.2,0.1,0.4,0.2,0.5,0.2h13c0.6,0,1-0.4,1-1c0-0.2,0-0.4-0.1-0.5c-0.4-1.5-1.6-2.6-3.1-3v-9
	c1.2-0.4,2.3-1,3.4-1.6l0.1-0.1l0.2-0.1c0.6,0,1.2-0.1,1.8-0.2c0.8-0.1,1.5-0.3,2.2-0.7c0.5-0.2,1-0.5,1.5-0.8
	c1.4-1.1,2.4-2.5,3.1-4.1c0.6-1.5,1-3,1.2-4.5l0.8-0.7l0.6-0.5c0.4-0.3,0.7-0.7,1-1.2c0.6-0.8,0.9-1.8,0.8-2.8v-0.3l0,0
	c1,0,1.9-0.8,2.1-1.8c0-0.2,0-0.3,0-0.5v-0.2c0.1-0.2,0.2-0.4,0.2-0.6c0.1-0.4,0-0.8-0.2-1.2c0-0.1-0.1-0.2-0.2-0.3
	c-0.2-0.3-0.4-0.5-0.7-0.7v-0.1l-0.1-0.3c-0.2-0.9-1.1-1.6-2-1.6c-0.3,0-0.5,0.1-0.8,0.2c-0.2-0.1-0.5-0.2-0.8-0.2
	c-0.6,0-1.1,0.2-1.5,0.5c-0.7,0.5-1.2,1.3-1.3,2.2l-0.4-0.8c-0.1-0.2-0.2-0.4-0.3-0.6l-0.3-0.6l0,0c-0.2-0.5-0.4-1-0.6-1.5l-0.1-0.1
	l-0.2-0.4c0-0.2,0-0.5-0.1-0.7c0-0.3,0-0.6,0-0.9c3-0.2,3.4-0.8,3.6-1.1c0.1-0.1,0.2-0.3,0.2-0.5c0.3-0.9-0.5-1.6-0.8-1.9
	c-1.2-0.8-2.5-1.4-3.8-1.9l-1.3-0.5c0-0.4-0.1-1.2-0.1-1.9c0-2.3-0.3-4.6-0.6-6.8V6C37.6,3.1,30.2,2.1,25.4,2.1L25.4,2.1z"/>
<rect x="24.6" y="47.1" style="fill:#A18437;" width="6.4" height="12.5"/>
<path style="fill:#A18437;" d="M21.1,60.8c0,0,2.3-3.5,7.7-3.1s5.3,3.1,5.3,3.1H21.1z"/>
<path style="fill:#BC9738;" d="M19,11.4l1.8-6.6c0,0,0.1-1.8,3.5-1.7C30,2.9,36.9,4.2,37.8,6.4c0.4,1.4,0.6,8.7,0.8,9
	s4.4,1.7,5.4,2.5s1.1,1.4-3.5,1.6c0.3,2.6,0.2,2.8,0.6,3.4c0.9,1.7,1.6,3.4,2.2,5.2c0.7,2.1,0.8,2.5,1.2,2.2
	c0.4-0.5,0.6-1.2,0.5-1.9c-0.2-0.5-0.8-2.8,0.5-3.6s1.6-0.1,1.7,0.1s-0.6,0.7-0.7,1.1s-0.1,1.2,0.5,1.3s1.3-0.5,1.2-0.9
	s-1-1.1-0.6-1.7s1.3-0.2,1.5,0.5l0.2,0.8c0,0,1,0.6,0.8,1.3s-0.3,0.7-0.5,0.7c0.3,0.5,0.1,1.2-0.5,1.5c-0.1,0.1-0.3,0.1-0.5,0.1
	c-1.2,0.2-1,1.5-1,2.1c0,0.6,0,1.8-3.1,3.8c-0.1,2.9-1.4,6.8-3.8,8.4c-1.6,1-3.4,1.5-5.2,1.4c-1.4,0.7-2.8,1.4-4.3,2
	c-2.2,0.8-4.5,0.8-6.7,0c-1.4-0.2-2.7-0.8-3.8-1.7c-2.5,0.2-5-0.8-6.6-2.8c-2.7-3.1-2.7-7.8-2.7-7.8s-3.4-1.7-3.9-3.5
	s-0.6-1.5-0.6-1.5S5.4,28.6,6,27.9l0.2-0.2c-0.2-0.5-0.1-1.1,0.4-1.4c0.2,0,0.5,0,0.7,0.1c0,0-0.2-1.5,1-1.7
	c0.6-0.1,0.1,0.5,0.2,1.2c0.1,0.4,0.2,0.9,0.4,1.3c0.6,1.4,0.3,1.1,0.8,0.7s1.3-2.2,1.6-1.1c0.4,1-0.1,2.1-1,2.5v0.3l1.5,0.6
	c0.5-2.1,1.2-4.1,2.1-6l0.3-0.4c0-2.7,0.9-5.3,2.4-7.5c-0.5,0.1-4.9-0.8-5.2-2.3S19,11.4,19,11.4z"/>
<path style="fill:#A18437;" d="M28.3,47.2c2.8-0.4,5.7-1.2,6.4-1.8s3.6,0.4,6.1-1.7s3.1-5.8,3.4-7.8l0.1-0.4c1-0.4,1.8-1.1,2.4-2
	c0.6-0.8,0.8-1.8,0.8-2.8c0.2-0.7,0.8-1.1,1.5-1.1c0.3-0.1-0.8-0.4-0.8-0.4s-1.3,0.2-1.5,1.2c-0.2,2.1-2.1,2.8-2.2,1.9
	c0-0.3-0.3-1.5-0.3-1.9s-0.8-0.4-1-1.1c-0.3-1.5-0.8-2.9-1.5-4.2c-0.7-0.8-1.1-1.8-1.3-2.8c-0.1-0.6,0-4.4-0.5-5.1s-7-1.9-7-1.9
	s4.1,1.3,4.7,2.9s1.2,3.5,0.4,4.6c-1.2,1.6-3.2,2.4-5.2,1.9c-1.7-0.3-3.2-1.2-4.3-2.5c0,0,0.3,1.6,3.5,2.8c2.5,0.9,3.9,0,5.3-0.6
	c1.2-0.5,2.6-0.2,3.5,0.6c0.3,0.5,2.3,4.7,2.2,7.7s0.1,4.8-1,7.1s-4.6,3.3-6.2,2c-0.5,1-4.2,1.5-4,1.2c-2.1,1.9-5.1,2.7-7.9,2
	c-0.9-0.2-1.7-0.5-2.5-1c0,0-6.8-0.3-8.9-4.8l-0.9-2c0.2,1.7,0.9,3.4,1.8,4.8c0.9,1.5,2.2,2.7,3.9,3.3c1.1,0.4,2.3,0.5,3.5,0.5
	C22.9,46.9,25.6,47.4,28.3,47.2z"/>
<path style="fill:#A18437;" d="M28.4,14.8c-0.9,2.6-0.7,5.5,0.8,7.9c2.4,4.2,6.8,1.4,6.8,1.4S34.5,13.3,28.4,14.8z"/>
<path style="fill:#CCB06A;" d="M28.5,21.2c-0.6-1.4-0.7-2.9-0.3-4.3c0.8-2.3,5.2-2,8.3,0.4s2.3,6.4-0.8,7.3
	C33.2,25.3,29.5,24.7,28.5,21.2z"/>
<path style="fill:#FFFFFF;" d="M28.8,21.9c0,0-1.1-3.3,0.8-4.7s6.2-1,7.9,2.2s-1.3,4.8-3,4.9S30.2,24.5,28.8,21.9z"/>
<path style="fill:#A18437;" d="M32.9,17.1c-1.2,0-2.3,0.6-2.9,1.6c0.4,0.1,0.7,0.4,0.7,0.9c-0.1,0.5-0.5,0.9-1,0.9
	c-0.1,0-0.2,0-0.3,0l0,0c-0.1,1.9,1.4,3.5,3.3,3.6s3.5-1.4,3.6-3.3c0.1-1.9-1.4-3.5-3.3-3.6C33.1,17.1,32.9,17.1,32.9,17.1z"/>
<path style="fill:#1E1D21;" d="M32.9,17.2c-1.1,0-2.2,0.6-2.8,1.5c0.4,0.1,0.7,0.4,0.7,0.8c0,0.5-0.4,0.9-0.9,0.9c0,0,0,0,0,0l0,0
	c-0.1,0-0.2,0-0.3,0l0,0c-0.1,1.8,1.4,3.3,3.2,3.4c1.8,0.1,3.3-1.4,3.4-3.2c0.1-1.8-1.4-3.3-3.2-3.4L32.9,17.2L32.9,17.2z"/>
<path style="fill:#D9C38D;" d="M23.9,25.9c0,0-0.5,3,1.3,4.4c1,0.8,2.5,0.6,3.3-0.4c0.1-0.3,0.2-0.6,0.2-0.9c0-0.2-0.1,0.1-0.1,0.1
	c-0.5,0.7-1.4,1.1-2.3,0.9c-1.1-0.4-1.5-1.1-1.9-2.3c-0.2-0.7-0.4-1.5-0.5-2.2C24.1,25.4,23.9,25.4,23.9,25.9z"/>
<path style="fill:#A18437;" d="M31.1,3.5c0.4,1.6,0.4,3.3,0.2,5c-0.5,2.3-0.5,3-2.8,3.2s-9.6-0.2-9.6-0.2s10.9,1.3,11.7,1.8
	s1.5,1,1.2,1.2s12.6,4.3,12.6,4.3l0,0c0.1-0.2-0.2-0.5-0.5-0.8c-1-0.9-5.3-2.2-5.4-2.5s-0.3-7.6-0.8-9S34.5,4.1,31.1,3.5z"/>
<path style="fill:#A18437;" d="M16.7,23.9c0,0-2,0.7-1-4.8c0.5-3.2,3.5-5.4,6.7-4.9c0.3,0,0.6,0.1,0.9,0.2c1.6,0.7,2.6,2.2,2.7,3.9
	c0.4,2.5,0.2,4.3-1.1,5.7c-0.4-0.1-0.8-0.2-1.2-0.2c0.8-0.7,1.3-1.6,1.4-2.6c0.4-2.3-1.1-4.5-3.4-5c-2.3-0.6-4.7,0.6-5.7,2.7
	C15.8,19.8,15.2,23.2,16.7,23.9z"/>
<path style="fill:#D9C38D;" d="M15.6,21.5v-0.1c0-0.7,0.4-4.4,3.7-5.4c2.3-0.9,4.8,0.2,5.7,2.5c0,0,0,0,0,0l0.1,0.2
	c-0.6-0.6-1.9-2.4-6.1-0.9c-1.5,0.9-2.6,2.4-3,4.1C15.4,23.4,15.6,21.5,15.6,21.5z"/>
<path style="fill:#FFFFFF;" d="M15.8,21.9c0.2-2.3,1.9-4.2,4.1-4.7c3.9-1,5.1,1.5,5.1,1.5c0.8,1.9,0.2,4.1-1.4,5.3
	c-2.8,2.5-6.7,0.1-7.1-0.2C16,23.3,15.7,22.6,15.8,21.9z"/>
<path style="fill:#BC9738;" d="M21.1,26.6c0.6-0.5,1.6-0.7,2.2-1.1c1.2-0.9,2.6,1.1,3.5,0.8c0.7-0.2-1.1-2.5-2.4-2.6
	c-1.5,0-3,0.1-4.4,0.5c-1.9,0.5-3.2,0.3-4.2-0.8c-0.3-0.4-0.9-0.5-1.3-0.2c-0.2,0.1-0.3,0.3-0.3,0.4L13.9,24
	C12.8,25.7,20.1,27.4,21.1,26.6z"/>
<path style="fill:#A18437;" d="M20.7,17.5c-1.3,0-2.4,0.7-3.1,1.7c0.4,0.1,0.8,0.4,0.7,0.9c-0.1,0.4-0.4,0.8-0.9,0.7
	c-0.1,0-0.2,0-0.3-0.1v0.2c0,1.9,1.5,3.6,3.4,3.6c1.9,0,3.6-1.5,3.6-3.4C24.2,19.1,22.7,17.5,20.7,17.5L20.7,17.5L20.7,17.5z
	 M19.2,20.9c-0.4-0.1-0.7-0.4-0.8-0.7c0-0.3,0.2-0.5,0.5-0.5l0,0l0,0c0.2,0,0.5,0,0.7,0.1C20.1,19.9,19.5,20.9,19.2,20.9z"/>
<path style="fill:#CCB06A;" d="M25.6,25.5c0.6,0.2,1.2,0.3,1.8,0.2c0.4-0.1,0.8-0.1,1.2-0.3c0,0,0.3,0.3-0.1,0.6
	c-0.9,0.5-2,0.5-2.9-0.1C24.4,25.2,25.6,25.5,25.6,25.5z"/>
<path style="fill:#786333;" d="M24.1,25.1c0.5-0.3,1.4,1.1,2.6,1.2c0.7,0.2,1.5,0,2-0.5c0,0,0.1,3.7-1.3,4.1
	c-3.2,0.6-3.3-4.5-3.3-4.5S23.6,25.4,24.1,25.1z"/>
<path style="fill:#786333;" d="M40.1,17.7l0.3,2c0,0,3.6-0.1,4-0.7s-4.3-1.7-4.3-1.7L40.1,17.7z"/>
<path style="fill:#C7A757;" d="M21.1,43.1c0.5,1.3,1.8,2.1,5.1,2.1c3.6-0.3,5.3-2.1,5.5-2.6c0.7-1.7-0.8-2.7-2.9-2.2
	s-1.9,1.3-5.2,0.4C21.3,40.2,20.7,41.9,21.1,43.1z"/>
<path style="fill:#A18437;" d="M24.6,25.9c0.3,1.2,0.9,2.2,1.7,3.1c1.1,0.9,1.8,0.5,1.9,0.5c0.2-0.3,0.4-0.7,0.4-1.1
	c0-0.7,0-1.5-0.1-2.2c-0.5,0.6-1.2,0.8-1.9,0.5c-1.4-0.4-1.5-0.8-1.5-0.8S24.6,25.5,24.6,25.9z"/>
<circle style="fill:#FFFFFF;" cx="31.7" cy="19.7" r="0.6"/>
<path style="fill:#1E1D21;" d="M20.7,17.6c-1.2,0-2.3,0.6-2.9,1.7c0.4,0.1,0.7,0.4,0.6,0.9c-0.1,0.4-0.4,0.7-0.9,0.6
	c-0.1,0-0.1,0-0.2-0.1v0.2c0,1.8,1.4,3.4,3.3,3.4s3.4-1.4,3.4-3.3C24,19.2,22.6,17.7,20.7,17.6L20.7,17.6z M19.1,20.6
	c-0.3,0-0.5-0.2-0.5-0.5s0.2-0.5,0.5-0.5c0.3,0,0.5,0.2,0.5,0.5l0,0l0,0C19.6,20.4,19.3,20.6,19.1,20.6L19.1,20.6z"/>
<path style="fill:#786333;" d="M13,13.1c2.6-0.3,11.3-0.5,17.3,1s13.6,4.2,13.9,4.3c0.2,0,0.3,0.2,0.2,0.4c0,0,0,0.1-0.1,0.1
	L37,16.5c0,0-8.3-2.6-13.6-3s-9.4-0.5-10.9,0c-0.3,0.1-0.5,0.3-0.6,0.5C11.6,14.6,9.9,13.4,13,13.1z"/>
<path style="fill:#786333;" d="M24.3,47.4c0,0,0.5,1.2,2.7,1.4c0.4,0,0.8,0,1.3,0c1-0.1,1.9-0.3,2.8-0.8v-0.7
	C31,47.3,29,48.1,24.3,47.4z"/>
<polygon style="fill:#A18437;" points="18.1,14.1 16.5,16.2 12.1,14.5 13.6,13.4 "/>
<path style="fill:#786333;" d="M11.6,14.5c7.7-1,15.4-0.5,22.9,1.5c12.3,3.3,5.2,1.4,5.2,1.4s-11.5-4-18.1-4.2s-9.1-0.1-10.1,0.4
	C11,13.9,11.6,14.5,11.6,14.5z"/>
<path style="fill:#BC9738;" d="M9.1,27.9c0,0,0.8-0.6,0.6-1s-1.2-1.5,0-1.9c1.3-0.4,1.7,2.5,1.5,3s-0.8,1-0.8,1.2s0.7,0.8,1.3,0.9
	s0,1.7,0,1.7L9,29.8L9.1,27.9z"/>
<path style="fill:#786333;" d="M11.3,13.6c0,0-0.6,0.3,0.3,1.1c1.4,0.8,2.9,1.4,4.5,1.5c1.2,0.1-1.5-0.7-2.6-1.2
	c-0.9-0.4-1.3-0.5-1.3-0.8C12.2,13.8,11.8,13.6,11.3,13.6z"/>
<polygon style="fill:#786333;" points="26.7,26.5 26.8,27.5 26.8,27.5 26.8,26.5 "/>
<path style="fill:#BC9738;" d="M28.6,28c-0.1-0.2-0.4-0.7-1.5-0.8c-0.7-0.1-1.4,0.3-1.5,1c0.2,0.3,0.4,0.6,0.7,0.8
	c0.3,0.3,0.7,0.5,1.2,0.6h0.2c0.2,0,0.3-0.1,0.5-0.2c0.2-0.3,0.4-0.7,0.4-1.1C28.6,28.2,28.6,28.1,28.6,28z"/>
<path style="fill:#786333;" d="M25.7,26.3v0.9c0,0.3,0,0.6,0.3,0.7c0.2,0,0.5,0,0.7-0.2c0.1-0.1,0.1-0.2,0.1-0.2v-0.9L25.7,26.3
	L25.7,26.3z"/>
<path style="fill:#786333;" d="M26.8,27.2c-0.1,0.3,0.1,0.6,0.5,0.7c0.2,0,0.4,0,0.5-0.2c0.1-0.1,0.1-0.2,0.1-0.3
	c0.1-0.3,0.1-0.7,0-1h-1.1C26.8,26.7,26.8,26.9,26.8,27.2z"/>
<path style="fill:#FFFFFF;" d="M26.8,26.6L26.8,26.6l-0.3-0.1c-0.3-0.1-0.5-0.1-0.7-0.3c0,0.5,0,0.9,0.1,1.3c0.2,0.1,0.5,0.1,0.7,0
	c0.1-0.1,0.2-0.2,0.2-0.3c0,0,0.2,0.5,0.6,0.5s0.5-0.2,0.5-0.6v-0.6C27.5,26.7,27.2,26.7,26.8,26.6z"/>
<path style="fill:#A18437;" d="M47.9,26.7c-0.2,0.4-0.7,0.7-1.2,0.6h-0.2c-0.1,0.5-0.1,1.1,0,1.6c0.4-0.3,0.9-0.4,1.3-0.3
	c0-0.1,0-0.2,0-0.4c0-0.2,0.5-0.5,0.5-0.7C48.4,27.2,48.2,26.9,47.9,26.7z"/>
<path style="fill:#A18437;" d="M15.8,23c0.4,0.7,1.1,1.2,1.9,1.4c1.3,0.3,5.8-1.3,7.3-0.5l0.4,0.2c-0.3-0.1-0.7-0.2-1-0.3
	c-0.9,0-1.8,0.1-2.7,0.3c-1.6,0.4-4.2,0.9-5.6-0.2C15.8,23.8,15.7,23.4,15.8,23z"/>
<polygon style="fill:#786333;" points="26.7,26.6 26.8,27.5 26.8,27.5 26.9,26.6 "/>
<path style="fill:#A18437;" d="M11.8,29.9l-0.3,1.8c-0.8-0.6-1.6-1.2-2.3-1.8c0-0.1-1.8,1-2.3-0.4c-0.4-0.9-0.4-2,0.1-2.8
	c0.3-0.6,1.2-2.1,1.5-0.5c0.1,0.4,0.4,1.4,0.9,1.3c0.2,0,0.4-0.2,0.4-0.5c0-0.1,0-0.1-0.1-0.2l-0.2-0.3c1.1,1.3,1.3-0.1,1.5,0.6
	c0.1,0.4,0.5,1.1-0.3,1.8C9.7,29.7,11.8,29.9,11.8,29.9z"/>
<path style="fill:#786333;" d="M49.6,28c0.4-0.4,0.5-1,0.2-1.5c-0.2-0.4-0.7-0.7-1.1-0.5c-0.2,0.1-0.3,0.2-0.4,0.4
	c-0.1,0.3,0,0.7,0.1,1l0.2,0.3c-0.1-0.4-0.2-0.7-0.1-1.1c0.2-0.3,0.6-0.3,0.9-0.1c0.3,0.1,0.5,0.5,0.4,0.8
	C49.7,27.5,49.7,27.7,49.6,28z"/>
<path style="fill:#BC9738;" d="M47.9,28c0,0,0.2-0.6,1.1-0.4s0.7,1.4,0.6,1.6c-0.2,0.3-0.5,0.5-0.9,0.5C48.4,29.6,47.5,29.3,47.9,28
	z"/>
<path style="fill:#786333;" d="M47.8,28.3c0,0,0-0.5,0.7-0.8c0.5-0.2,1,0,1.2,0.5v0.1c0.1,0.3,0.1,0.5,0,0.8c0,0-0.1-0.9-0.4-1
	c-0.3-0.2-0.7-0.2-1.1,0c-0.3,0.2-0.5,0.8,0,1.7C47.9,29.2,47.7,28.8,47.8,28.3z"/>
<path style="fill:#786333;" d="M49.7,28.9c0,0,0,0.7-1.2,0.9c-0.6,0-1,0.5-1,1.1c0,0.1,0,0.2,0,0.3c0,0-0.1-0.1-0.1-0.4
	c0-0.6,0.4-1,1-1c0.5,0,1-0.3,1.2-0.7c0-0.2,0-0.4,0-0.6h0.1L49.7,28.9z"/>
<path style="fill:#786333;" d="M46.5,28.9c0.4-0.3,0.9-0.5,1.4-0.3C47.9,28.4,46.7,28.2,46.5,28.9z"/>
<path style="fill:#786333;" d="M21.5,26.4c0.6-0.6,1.4-1.1,2.2-1.4c0.4-0.1,0.9,0,1.2,0.3c0,0-0.5,0.1-0.9,0.1
	c-0.6,0.2-1.2,0.5-1.8,0.8C21.9,26.3,21.7,26.4,21.5,26.4z"/>
<path style="fill:#786333;" d="M7.7,29.1c0,0,0.7-1.9,1.3-1.8l0.9,0.1c0,0,0.1,0.1-0.3,0.1c-0.3-0.1-0.7,0-0.9,0.2
	C8.5,28,7.8,29.1,7.7,29.1l-0.1,0.2L7.7,29.1z"/>
<path style="fill:#D9C38D;" d="M10.9,34.3c0,2.3,0.5,4.5,1.5,6.5c1.6,3.1,2.6,3.6,3.9,4.3c-0.9-1-3.4-3.7-4.1-6.2
	c-0.4-1.4-0.5-2.8-0.3-4.2L10.9,34.3z"/>
<path style="fill:#C7A757;" d="M6.1,27.6c0,0-0.4-1.3,0.6-1.4s1,1.1,0.6,1.4C6.9,27.7,6.5,27.7,6.1,27.6z"/>
<path style="fill:#786333;" d="M9.3,26c-0.1-0.3-0.1-0.7,0.2-0.9c0.3-0.2,0.6-0.2,0.8-0.1c0.4,0.1,0.6,0.8,0.6,0.8
	c-0.2-0.2-0.4-0.4-0.6-0.6c-0.3-0.1-0.6-0.1-0.8,0.1C9.3,25.5,9.3,25.7,9.3,26c0.2,0.1,0.5,0.8,0.5,0.8c0-0.1-0.1-0.2-0.2-0.2
	C9.4,26.4,9.3,26.2,9.3,26z"/>
<path style="fill:#C7A757;" d="M7.6,26.2c0,0,0.2-0.8,0.4-0.6s0.1,0.6,0.7,0.4s1.1-1.5,0.3-1.6c-0.9-0.2-1.8,0.4-2,1.3
	c-0.1,0.8,0.2,0.9,0.2,0.9l0.4,0.2L7.6,26.2z"/>
<path style="fill:#786333;" d="M7.1,26.3c0.2,0.1,0.3,0.4,0.4,0.6c0,0.1,0,0.3,0,0.4c0,0,0.1,0.2,0.2-0.1S7.6,26.3,7.1,26.3z"/>
<path style="fill:#786333;" d="M7.6,26.8c0-0.3,0.1-0.7,0.2-1c0-0.1,0.1-0.2,0.2-0.2c0.1,0,0.2,0.1,0.2,0.2C8.2,26,8.2,26,8.4,26
	l0,0c0,0-0.1,0-0.2-0.1s-0.1-0.3-0.3-0.3s-0.3,0.1-0.3,0.3s-0.1,0.7-0.1,0.7v0.3L7.6,26.8z"/>
<path style="fill:#786333;" d="M8.9,24.3c0.3,0,0.5,0.2,0.6,0.4c0.1,0.4-0.1,0.8-0.4,1.1C8.8,25.9,8.6,26,8.4,26
	c-0.1,0-0.1-0.1-0.1,0c0.2,0,0.4-0.1,0.6-0.2c0.2-0.1,0.3-0.3,0.3-0.5c0.1-0.2,0.1-0.4,0-0.6c-0.1-0.2-0.1-0.3-0.4-0.3
	c-0.2,0-0.3,0-0.5,0C8.3,24.4,8.2,24.3,8.9,24.3z"/>
<path style="fill:#786333;" d="M7.1,26.3c-0.2-0.4-0.2-0.9,0.1-1.2c0.3-0.5,0.9-0.8,1.4-0.8v0.1c-0.3,0-0.5,0.1-0.7,0.2
	c-0.2,0.1-0.4,0.3-0.6,0.5c-0.1,0.2-0.2,0.3-0.3,0.5c0,0.2,0,0.4,0,0.5C7.1,26.1,7.1,26.2,7.1,26.3L7.1,26.3z"/>
<path style="fill:#A18437;" d="M34.2,27.5c1.5,1.7,8,4.8,0.2,7.5c-2.5,0.9-3.8,8.4-2.8,9.2s7.5-0.7,8.4-1.6c2-1.7,3.1-4.1,3.2-6.7
	c-0.1-7.7-1.3-7.1-2.3-10C39,20,33.1,26.2,34.2,27.5z"/>
<path style="fill:#786333;" d="M40.5,19.2c0,0,0.1,2.9,0.2,3.1c1,2.1,1.9,4.2,2.7,6.4c0.4,1.2,0.7,2.5,0.9,3.8
	c0.2,0.7,0.5,1.1,1,0.7s1.6-1.1,1.8-1.9s0.2-1.6,0.8-1.8l0.5-0.1l0.2,0.1c-0.4,0-0.7,0.3-0.8,0.6c-0.2,0.6,0.1,2-0.7,3
	s-2.5,2.5-2.5,2.5c-0.2,1.6-0.6,3.1-1.1,4.5c-0.5,1-2.2,4.8-6.7,5c-1.2,0-7.5,3.1-11.6,2c-1.6-0.2-3.1-0.7-4.5-1.4
	c-1.7,0.1-3.4-0.6-4.4-2c-0.3-0.4,0.5-0.6,0.9-0.2c1.1,0.9,2.5,1.3,3.8,1.2c0.4,0.1,0.7,0.2,1.1,0.4c0.4,0.1,8,2.2,11-0.8
	c1.2-0.4,2.4-0.6,3.7-0.6c1.8-0.5,3.9-1.2,5-3c1-1.3,1.5-2.8,1.6-4.4c0.1-0.6,0.2-1.1,0.5-1.6c-0.2-2.3-0.6-4.6-1.3-6.8
	c-0.5-1.3-1.1-2.6-1.8-3.7c-0.9-0.6-0.9-2.2-0.8-2.9s-0.1-2-0.7-2.2c-0.6-0.4-1.2-0.8-1.8-1.3c-0.8-0.7-1.6-1.4-2.5-1.9
	c1.6,0.4,5.5,1.5,5.9,1.6C40.6,18.2,40.5,19.2,40.5,19.2z"/>
<path style="fill:#C7A757;" d="M7,29.8c0.3,0.4,0.8,0.6,1.3,0.4c0.1,0.5,1,0.9,1.6,1.3s1.4,0.7,1.4,1.5v1.3
	c-0.9-0.2-1.8-0.7-2.4-1.3C8.1,32,7.5,30.9,7,29.8z"/>
<path style="fill:#C7A757;" d="M24.6,23.9c0,0,0.8,1-0.3,1.2s-1.4-0.3-3,0.8c-1.4,0.2-0.5,0.5-2.1,0.2c-0.9,0.4-1.4,1.3-1.3,2.2
	c0.1,1-1.4,1.6-2.4,1.9c-0.6,0.1-0.6,0.6-0.8,1.4c-0.2,0.7-0.4,3.8,0.5,4.8c0.4,0.6,1.1,0.9,1.8,0.8c0,0-0.1,1.9,1.1,2.3
	s4.5,1.3,4.5,1.3l0.3,4.1c-0.7-0.1-1.3-0.4-1.9-0.7c-0.6-0.1-6.2-0.1-8.8-4.4c-1.3-3.2-1.5-6.7-0.6-10.1c0.6-2.2,1.3-4.8,2.3-5.9
	c0-2,0.4-3.9,1.3-5.6c0.8-1.3,1.1-1.8,1.1-1.8s0.4-0.1,0.3,0.3c-0.8,1.3-1.2,2.8-1.3,4.4c0,1.8-0.4,3.2,0.5,3.6
	c1.1,0.4,2.3,0.5,3.5,0.2l2.7-0.5C23,23.9,23.8,23.8,24.6,23.9z"/>
<path style="fill:#D9C38D;" d="M14.5,24.2c-0.4,0.5-0.7,1.2-0.9,1.8c0,0.6,1.6,1.8,2.2,1.9c0.6,0.1,0.6,0.1,0.6-0.1s0.6-1.5,1.1-1.7
	c0.4-0.1,0.6-0.4,0.5-0.8c-0.1-0.4-0.4-0.6-0.8-0.5c-0.8,0-1.6-0.3-2.3-0.7C14.6,23.9,14.5,24.2,14.5,24.2z"/>
<path style="fill:#CCB06A;" d="M20.4,24.6c0,0-0.4,1.3,0.5,1.1c0.7-0.3,1.4-0.5,2.2-0.7c0.6,0,0.7-0.3,0.5-0.5
	c-0.3-0.4-0.9-0.6-1.4-0.5C21.5,24.1,20.9,24.3,20.4,24.6z"/>
<path style="fill:#D9C38D;" d="M30,15.4c-0.9,0.1-1.6,0.8-1.8,1.6c-0.4,1.4-0.3,2.9,0.3,4.2l0.2,0.1c0,0-1-3.8,1.7-4.6
	c1.2-0.4,2.5-0.4,3.8,0c0.6,0.2,1.3,0.5,1.8,0.9c-0.8-0.7-1.8-1.3-2.8-1.6C32.1,15.7,31.1,15.5,30,15.4z"/>
<path style="fill:#CCB06A;" d="M23.3,40.8c-0.7-0.3-1.5-0.1-2,0.5c-0.9,1-0.1,2.9,1.5,3.4s2.2,0.6,2.9,0c0.6-0.9,0.6-2,0-2.9
	c-0.3-0.3-0.7-0.6-1.1-0.7C24.1,41,23.6,40.9,23.3,40.8z"/>
<path style="fill:#CCB06A;" d="M11.3,13.5c0,0,0-0.8,3-1.3c3.9,0,7.8,0.3,11.7,0.8c1.7,0.3,2.4,0.7,1.7,0.6
	c-4.1-0.6-8.3-0.8-12.5-0.6C13.3,13.1,12.2,13.1,11.3,13.5z"/>
<path style="fill:#786333;" d="M28.7,48.5c0,0-0.2,9.4,0,9.5c0.5,0.1,1,0.1,1.6,0c0.2-0.2,0-10,0-10L28.7,48.5z"/>
<path style="fill:#BC9738;" d="M25.4,48.9c0.8,0.2,1.5,0.3,2.3,0.4c0.3,1.1,0.4,2.2,0.3,3.3v5.8c0,0-1.4,1.9-2.3,1.9
	s-3.3,0.3-3.7,0.2s0.4-0.8,1.2-1.2c0.6-0.3,1.2-0.7,1.8-1.1C25,58.3,24.7,48.2,25.4,48.9z"/>
<path style="fill:#D9C38D;" d="M26.1,52.5c-0.2,0-0.1,4.9-0.1,5.7c-0.3,0.4-3,1.7-3.4,2.1c-0.1,0.2,0.1,0.2,0.4,0.2s9.1,0.1,9.3,0
	s1-0.4-7.4-0.4c-0.3-0.2-0.2-0.3,0.3-0.6s1.9-1.1,1.9-1.1v-4.7C27,53.7,27,52.3,26.1,52.5z"/>
<path style="fill:#786333;" d="M39.6,17.2c0,0,0.3,0,0.4,1.4c0,1.3,0.1,2.7,0.2,4c0.1,0.2,0.1,0.4,0.2,0.7c0.2,0.6,0.5,1.2,0.9,1.7
	c0.8,1.4,1.3,3,1.7,4.5c0.2,0.7,0.4,1.3,0.9,1.8c0.2,0.2,0.8,3.8,0.3,4.1s-0.9,3.9-0.9,3.9s-0.8,3.6-3.8,5.1c-1,0.4-2,0.7-3.1,0.7
	c-0.6-0.1-1.2,0-1.8,0.3c-2,0.8-4.2,1.4-6.3,1.7c-1.4,0.1-2.9,0-4.3-0.2c-1.2-0.2-2.4-0.5-3.5-1c1.1,0.9,2.4,1.5,3.7,1.6
	c2.3,0.3,5.5,1.6,11.1-1.9c1.9,0.1,3.7-0.5,5.3-1.5c2.1-1.5,3.6-4.7,3.7-8.3c0-0.1,1-0.8,1.8-1.5c0.7-0.6,1.2-1.4,1.3-2.3
	c0.3-1.1-0.1-1.3,0.3-1.8c0.2-0.3,0.6-0.5,1-0.5H48c-0.4,0.1-0.7,0.4-0.7,0.8c0,0.7-0.1,1.4-0.3,2.1c-0.2,0.5-0.6,1-1,1.4
	c-0.5,0.5-1.7,1.3-1.7,1.3S44.3,32,44.1,31c-0.6-2-1.3-3.9-2.1-5.9c-0.3-0.7-0.6-1.5-1-2.1c-0.4-0.9-0.6-1.9-0.6-2.8
	c-0.1-0.8-0.4-3-0.4-3L39.6,17.2z"/>
<path style="fill:#786333;" d="M31,48v10c0,0-1.4-0.1-1.5,0c-0.3-2.4-0.4-6.9-0.4-9.3C29.3,48.6,31,48,31,48z"/>
<path style="fill:#786333;" d="M29.5,58.2c0,0,2.3,0.5,2.7,1.3c0.3,0.4,0.4,0.9,0.6,1.3h1.3c0,0,0-2-3.1-2.7
	C29.9,57.8,29.5,58.2,29.5,58.2z"/>
<path style="fill:#A18437;" d="M23.4,47.3c0,0,4.6,1.6,8.4,0c1.3-0.5,2.5-1.1,3.7-1.7c1.3,0,2.6-0.3,3.9-0.8
	c0.6-0.4,0.8-0.7,0.2-0.4c-1.3,0.5-2.7,0.7-4.1,0.7c-0.4,0.1-0.8,0.2-1.1,0.5c-0.3,0.2-4,2.3-7.4,2C24.9,47.3,22.6,46.8,23.4,47.3z"
	/>
<ellipse transform="matrix(0.8332 -0.553 0.553 0.8332 -18.1543 15.8488)" style="fill:#A18437;" cx="17.2" cy="38" rx="0.9" ry="1"/>
<ellipse transform="matrix(0.7702 -0.6378 0.6378 0.7702 -21.6205 21.5126)" style="fill:#A18437;" cx="19" cy="40.8" rx="0.7" ry="1"/>
<ellipse transform="matrix(0.7752 -0.6318 0.6318 0.7752 -22.231 22.638)" style="fill:#A18437;" cx="20.7" cy="42.6" rx="0.6" ry="0.8"/>
<ellipse transform="matrix(0.9311 -0.3647 0.3647 0.9311 -13.0053 11.3917)" style="fill:#A18437;" cx="23.7" cy="40.1" rx="0.6" ry="0.7"/>
<path style="fill:#FFFFFF;" d="M34.4,35l-0.2,0.1l0.7,0.4l0,0l0.4-0.7L35,34.9L34.8,35L34.4,35z"/>
<path style="fill:#FFFFFF;" d="M34.8,39.4l0.9,1.3c1.1-0.1,2.1-0.3,3.2-0.5c0.4-0.3-0.4-0.8-0.9-1.6s-2.7-5.6-2.7-5.6l-2.1,0.7
	L34.8,39.4z"/>
<path style="fill:#CE3638;" d="M34.9,38.8l1,1.2l2.5-0.2c0,0-1.9-2.6-2.1-3.8c-0.1-0.7-0.4-1.4-0.8-2.1l-1.8,1L34.9,38.8z"/>
<path style="fill:#CE3638;" d="M13.6,34.4c0,0-1.4-0.2-1.6,1s-0.3,2,2.7,2.5c2,0.3,7.5,1.3,11.8,0.8s11.1-2.6,13-3.9s1.9-1,1.2-2.6
	s-2.5-0.2-3,0s-4,1.9-5.4,2.3c-3.7,0.8-7.4,1.2-11.1,1.1C18.7,35.3,16.2,34.9,13.6,34.4z"/>
<path style="fill:#FFFFFF;" d="M12.4,36.7l1.1,0.3l-0.4-0.7L12.4,36.7z"/>
<path style="fill:#FFFFFF;" d="M14,35.2l-1.1-0.3l0.4,0.7L14,35.2z"/>
<path style="fill:#FFFFFF;" d="M17.5,35.9l-0.7-0.1c-0.6,0.4-1.2,0.8-1.8,1.2l-0.5-0.7l1.1-0.7l-0.8-0.2L13.6,36
	c0.3,0.4,0.5,0.8,0.8,1.1l0.8,0.2c0.7-0.4,1.3-0.8,1.8-1.2l0.5,0.6c-0.4,0.3-0.7,0.5-1.1,0.8l0.8,0.1c0.4-0.3,0.8-0.5,1.1-0.8
	C18,36.5,17.7,36.2,17.5,35.9z"/>
<path style="fill:#FFFFFF;" d="M22.8,36.2l-0.7,0.1c-0.5,0.5-1.1,1-1.6,1.4l-0.6-0.6c0.3-0.3,0.7-0.6,1-0.8h-0.8l-1,0.8
	c0.3,0.3,0.6,0.7,0.9,1h0.8c0.6-0.5,1.1-0.9,1.6-1.4l0.6,0.5c-0.3,0.3-0.7,0.6-1,0.9h0.8c0.3-0.3,0.7-0.6,1-0.9
	C23.4,36.9,23.1,36.5,22.8,36.2z"/>
<path style="fill:#FFFFFF;" d="M18.6,37.3L18.6,37.3L18,37.8l0,0h0.2h0.4h0.3h0.3l0,0L18.6,37.3z"/>
<path style="fill:#FFFFFF;" d="M18.4,36h-0.2l0.5,0.6l0,0l0.6-0.5h-0.4h-0.2L18.4,36z"/>
<path style="fill:#FFFFFF;" d="M23.8,36.2h-0.2l0.6,0.5l0,0l0.5-0.6h-0.5L23.8,36.2z"/>
<path style="fill:#FFFFFF;" d="M28.1,35.8l-0.7,0.1c-0.4,0.6-0.9,1.1-1.4,1.7L25.3,37l0.9-1l-0.8,0.1c-0.3,0.3-0.6,0.7-0.9,1
	c0.3,0.3,0.7,0.6,1.1,0.9l0.8-0.1c0.5-0.5,0.9-1.1,1.4-1.7l0.6,0.5l-0.8,1.1l0.8-0.1c0.3-0.4,0.6-0.7,0.8-1.1
	C28.8,36.3,28.4,36.1,28.1,35.8z"/>
<path style="fill:#FFFFFF;" d="M24.2,37.5L24.2,37.5l-0.5,0.5h0.3h0.3h0.4h0.2L24.2,37.5z"/>
<path style="fill:#FFFFFF;" d="M32.5,34.8c-0.4,0.6-0.7,1.2-1.1,1.8l-0.7-0.4l0.7-1.1l-0.7,0.2c-0.2,0.4-0.5,0.7-0.7,1.1l1.2,0.7
	l0.8-0.2c0.4-0.6,0.8-1.2,1.1-1.8l0.7,0.3c-0.2,0.4-0.4,0.8-0.7,1.2l0.8-0.2c0.2-0.4,0.4-0.8,0.7-1.2c-0.4-0.2-0.8-0.4-1.2-0.6
	L32.5,34.8z"/>
<path style="fill:#FFFFFF;" d="M28.9,35.7h-0.1l0.6,0.4l0,0l0.4-0.6h-0.4h-0.1L28.9,35.7z"/>
<path style="fill:#FFFFFF;" d="M34.9,35.4L34.9,35.4l-0.4,0.7l0,0h0.2l0.4-0.1l0.3-0.1l0.2-0.1l0,0L34.9,35.4z"/>
<path style="fill:#FFFFFF;" d="M29.6,36.9L29.6,36.9l-0.5,0.6l0,0h0.3h0.3H30h0.3l0,0L29.6,36.9z"/>
<path style="fill:#FFFFFF;" d="M39.8,31.8l-1,0.5l0.7,0.2L39.8,31.8z"/>
<path style="fill:#FFFFFF;" d="M37.5,33c-0.3,0.7-0.5,1.3-0.8,2l-0.8-0.3c0.2-0.4,0.4-0.8,0.5-1.2l-0.7,0.3
	c-0.2,0.4-0.4,0.8-0.6,1.2l1.3,0.5l0.8-0.3c0.3-0.7,0.6-1.3,0.8-2l0.8,0.2c-0.2,0.4-0.3,0.8-0.5,1.3l0.7-0.3
	c0.2-0.4,0.3-0.8,0.5-1.3l-1.3-0.4L37.5,33z"/>
<path style="fill:#FFFFFF;" d="M39.9,33.2l-0.3,0.7l1-0.5L39.9,33.2z"/>
<path style="fill:#FFFFFF;" d="M32.5,33.7c0,0-1.4,7.7-2.1,9.1c1.7-0.3,3.4-0.7,3.7-1.1s1.3-3.4,1.3-8.3l-0.1-0.6l-2.2,0.7
	L32.5,33.7z"/>
<path style="fill:#CE3638;" d="M31.1,42.3l2.6-0.7c0.8-2.8,1.2-5.7,1.1-8.5L33,33.6C33,33.6,32,40.8,31.1,42.3z"/>
<path style="fill:#C7A757;" d="M33.5,25.4c-0.6,0.5-0.6,1.4-0.1,2c0.1,0.1,0.2,0.2,0.3,0.2c1.4,1,3.7,0.2,4.8-0.2s1-4.2-0.3-3.7
	C35.8,24.7,33.5,25.4,33.5,25.4z"/>
<path style="fill:#BC9738;" d="M37.9,24c0,0-1.3,0.1-1,0.7s1.3,2.1,0.7,3.3c0.8-0.1,1.4-0.6,1.7-1.3c0.4-1.1,0.8-2.1,0-2.6
	C38.8,23.8,38.3,23.8,37.9,24z"/>
<path style="fill:#A18437;" d="M40.1,17.7c0,0,0.2,1.4,0.3,2s0.4,2.5,0.4,2.7c-0.3,0-0.3-0.1-0.4-0.6c-0.1-1.3-0.3-2.7-0.6-4
	C39.6,17.6,39.7,17,40.1,17.7z"/>
<path style="fill:#D9C38D;" d="M11.1,35.2c0,0-3.2-1.6-3.8-3.2c-0.3-0.9-0.7-1.7-1.1-2.5c-0.4-0.7-0.6-1.5,0-1.9
	c0.8-0.5,1.9,0,1.9,0.5c0.1,0.4-0.2,0.8-0.6,0.9c0,0,0,0,0,0H7.3c-0.6,0-0.5-0.5-0.5,0.2s1.7,4.5,4.1,5S11.1,35.2,11.1,35.2z"/>
<path style="fill:#786333;" d="M6.1,27.6c0.5-0.3,1.1-0.3,1.5,0C8,27.8,8.1,28.2,8,28.5c-0.1,0.1-0.1,0.2-0.3,0.3
	c-0.3,0.2-0.6,0.2-0.9,0C7,29.1,7.4,29.1,7.7,29c0.3-0.2,0.6-0.5,0.5-1C8,27.5,7.5,27.2,7,27.2C6.7,27.2,6.3,27.3,6.1,27.6L6.1,27.6
	z"/>
<path style="fill:#BC9738;" d="M23.2,3.7c0,0-2-0.2-2.5,1.5l-1.5,5.3c0,0,7,0.8,8.2,0s1.3-4.8,1.1-5.4s0-1.3-0.8-1.4
	S23.2,3.7,23.2,3.7z"/>
<path style="fill:#CCCECE;" d="M25.8,26.3v0.6c0.3,0.1,0.7,0.1,1,0.1c0-0.1,0-0.2,0-0.3C26.4,26.6,26.1,26.5,25.8,26.3z"/>
<path style="fill:#CCCECE;" d="M26.9,26.6v0.3c0,0,1,0,1-0.1v-0.3C27.6,26.7,27.2,26.7,26.9,26.6z"/>
<path style="fill:#786333;" d="M40.5,25.9c0,0,1.9,3.1,2,4.9c0.1,1.8,0.5,5,0,6.8C42,39.3,41.1,41,40,42.5c-0.2,0.3-0.4,0.5-0.7,0.7
	c-0.3,0.8,3.3-1.2,4.2-4.4c0.7-2.4,0.8-5,0.5-7.4c-0.6-2.2-1.5-4.3-2.6-6.3l-0.8-1.3C40.5,24.4,40.4,25.1,40.5,25.9z"/>
<polygon style="fill:#786333;" points="40.1,23.5 40.5,25.1 41,24.5 "/>
<path style="fill:#FFFFFF;" d="M19.3,57.4c2.5-1.6-1.4-2.7-1.7-0.2c-0.8-1.8-2.8-0.3-1.5,0.9c-0.5-0.1-2.5-0.5-2.5,0.6
	c0,0.9,1.2,0.8,1.8,0.6c-0.7,0.4-2.3,1.5-1.2,2.2c0.8,0.5,2.3-1.1,2.7-1.5l-0.4,0.4c-1.3,2.5,1.6,2.6,2,0c1.8,1.5,3.4-0.8,1.1-1.2
	c0.9-0.2,1.9-0.4,2.2-1.3C21.1,56.7,20.4,56.8,19.3,57.4z"/>
<path style="fill:#FFCE00;" d="M17.2,57.3c-1.1,0.3-2,2.5-0.4,2.4l1.7-0.5C20.2,58.4,18.4,57,17.2,57.3z"/>
<path style="fill:#FFFFFF;" d="M37.9,60c1.9,0.6,0.8-1.9-0.6-1c0.6-1.2-1.1-1.6-1.1-0.4c-0.2-0.3-0.8-1.5-1.4-1s0.1,1,0.5,1.2
	c-0.5-0.2-1.8-0.5-1.7,0.3c0.1,0.7,1.5,0.7,2,0.8h-0.4c-1.9,0.4-0.7,1.9,0.9,1c0,1.6,1.8,1.4,1.1,0c0.5,0.4,1,0.8,1.6,0.5
	C39.1,60.6,38.7,60.2,37.9,60z"/>
<path style="fill:#FFCE00;" d="M37.1,58.8c-0.6-0.4-2.2,0.1-1.4,0.8l1,0.7C37.8,60.9,37.8,59.3,37.1,58.8z"/>
</svg>
