<?xml version="1.0" encoding="utf-8"?>
<!-- Generator: Adobe Illustrator 22.0.0, SVG Export Plug-In . SVG Version: 6.00 Build 0)  -->
<svg version="1.1" id="Слой_1" xmlns="http://www.w3.org/2000/svg" xmlns:xlink="http://www.w3.org/1999/xlink" x="0px" y="0px"
	 viewBox="0 0 55.8 62.9" style="enable-background:new 0 0 55.8 62.9;" xml:space="preserve">
<title>Artboard 1 копия 13</title>
<g id="Слой_9">
	<path style="fill:#262424;" d="M20.3,61.3c-0.6,0-0.9-0.3-1-0.5c-0.1-0.4,0-0.8,0.3-1.1c0-0.1,0.1-0.1,0.2-0.1
		c0.2-0.1,4.3-1.9,5.4-2.4v-2.1h-0.3c-0.4,0-0.8,0-1.1-0.1c-0.3,0-0.5-0.1-0.8-0.2c-0.7-0.3-1.2-0.7-1.6-1.3
		c-0.4-0.1-0.8-0.3-1.1-0.5c-0.2-0.1-0.4-0.3-0.6-0.5c-0.7-0.6-1.2-1.4-1.4-2.3c-0.4-0.1-0.7-0.2-1.1-0.4c-0.5-0.2-0.9-0.5-1.2-0.9
		l-0.2-0.2c-0.3-0.3-0.5-0.6-0.7-1c0-0.1-0.1-0.1-0.1-0.2v-0.1c-0.2-0.6-0.3-1.3-0.2-1.9c0-0.1,0-0.2,0-0.3
		c-0.3-0.2-0.6-0.4-0.9-0.6l-0.2-0.2c-0.5-0.5-0.9-1.2-1.1-1.9l-0.1-0.2c-0.1-0.3-0.1-0.5-0.1-0.8c0-0.3,0-0.6,0.1-0.9
		c0-0.2,0.1-0.4,0.1-0.5L12,39.4c-0.4-0.7-0.7-1.5-0.6-2.3c-0.4-0.5-0.6-1.2-0.7-1.8c0-0.5,0.2-1.1,0.4-1.6
		c-0.2-0.6-0.2-1.3-0.1-1.9c-0.2-0.6-0.3-1.3-0.3-2c0.1-0.9,0.5-1.8,1.1-2.5c0-0.5,0.1-1,0.3-1.5c0.4-1,1.3-1.8,2.3-2.1l0,0
		c0.2-0.7,0.5-1.4,1.1-2c0.2-0.2,0.4-0.4,0.7-0.6c0.4-0.4,0.9-0.5,1.5-0.5h0.6c0.1,0,0.3,0,0.4,0c0.2,0,0.4,0.1,0.5,0.1l-0.5-0.4
		l-0.1-0.1c-1.6-1.4-2.3-2.6-2.3-3.6c0-0.4,0-0.7,0.1-1.1c0.1-0.4,0.5-0.8,0.9-0.8l0,0c0.3,0,0.5,0.2,0.5,0.5c0,0.1,0,0.1,0,0.2
		c0,0.1-0.1,0.4,0,0.5c0.4,0.3,0.8,0.5,1.2,0.6h0.1c0.4,0.1,1.2,0.3,1.9,0.6c-0.3-0.6-0.5-1.3-0.5-2c0.2-1.3,0.7-2,1.5-2.1
		c0.2-0.1,0.5-0.1,0.7-0.1c0.4-0.1,0.9,0.2,0.9,0.7c0,0,0,0.1,0,0.1c0,0.2-0.2,0.4-0.4,0.5h-0.1c-0.1,0-0.2,0-0.3-0.1
		c-0.1,0-0.1,0.1-0.1,0.1c0,0.1,0,0.3,0.1,0.4l0.1,0.2c0.1,0.3,0.3,0.5,0.6,0.6c0.2,0.1,0.4,0.2,0.6,0.2c0.5,0.1,1,0.3,1.4,0.6
		l0.2,0.1c0-0.1,0.1-0.2,0.1-0.3c0-0.2,0.1-0.3,0.1-0.4c0.2-0.4,0.7-0.7,1.2-0.7h0.2h0.3c0.1,0,0.3,0,0.4,0.1l-0.1-0.1
		c-0.1-0.1-0.1-0.1-0.1-0.2c-0.1-0.2-0.1-0.4,0-0.5c0.1-0.3,0.4-0.4,0.7-0.5c0.2-0.1,0.4-0.1,0.5-0.1c0.3,0,0.5,0.1,0.8,0.2
		c0.1-0.3,0.4-0.5,0.7-0.6c0.3-0.1,0.7-0.2,1-0.2c0.7,0,1.3,0.3,1.7,0.8c0.7,1,0.9,2.2,0.7,3.4l-0.1,0.4c0.2-0.1,0.4-0.2,0.6-0.4
		l0.2-0.1c0.4-0.4,0.5-0.8,0.4-0.9S35,16,35,16h-0.2h-0.1c-0.1,0-0.2,0-0.3-0.1c-0.2-0.2-0.3-0.4-0.2-0.6c0.1-0.3,0.3-0.5,0.6-0.6
		c0.2-0.1,0.3-0.1,0.5-0.1c0.7,0,1.3,0.4,1.7,1.3c0.7,1.2,0.5,2.8-0.4,3.9l-0.3,0.4c0.6,0.3,1.2,0.8,1.6,1.3c0.2,0,0.3,0,0.5,0
		c0.2,0,0.4,0,0.5,0c0.4,0,0.8,0.1,1.2,0.3c0.2,0.1,0.4,0.2,0.6,0.3c0.8,0.6,1.4,1.4,1.7,2.3c0.3,0.1,0.5,0.3,0.8,0.5l0.2,0.2
		c0.3,0.2,0.5,0.5,0.6,0.8c0.3,0.4,0.4,0.9,0.4,1.4c0,0.3,0,0.5-0.1,0.8c0,0.2-0.1,0.3-0.1,0.5c-0.1,0.3-0.2,0.6-0.3,0.9
		c0.4,0.3,0.7,0.8,0.9,1.2l0.1,0.1l0.1,0.2c0,0.1,0.1,0.2,0.1,0.4c0.1,0.3,0.1,0.6,0.1,0.9c0,0.6-0.2,1.3-0.5,1.9
		c-0.1,0.3-0.3,0.6-0.5,0.9c0.3,0.6,0.4,1.3,0.3,2c0,1.2-0.6,2.4-1.6,3.1c0,0.4,0.1,0.7,0.1,1.1c0.1,1.2-0.9,2.6-1.4,3.2
		c0.3,0.9,0.2,2-0.2,2.9c-0.4,0.9-1.1,1.6-2,1.9c0,0.6-0.2,1.2-0.4,1.7c-0.5,0.7-1.2,1.1-2,1.1c0,0.6-0.3,1.2-0.7,1.7
		c-0.2,0.3-0.5,0.6-0.8,0.8l-0.1,0.1c-0.4,0.4-1,0.5-1.6,0.5c-0.3,0-0.6,0-0.8-0.1h-0.1c0,1.4,0,2,0,2.3c0.5,0.2,1.6,0.6,2.6,0.9
		c1.4,0.5,2.9,1,3.5,1.3c0.2,0.1,0.8,0.4,0.8,1s-0.7,0.8-0.9,0.9h-0.2L20.3,61.3z M28.3,15c0.1,0.1,0.2,0.1,0.3,0.2
		c0.1,0.2,0.2,0.4,0.1,0.6v-0.1c0.1-0.2,0.1-0.5,0-0.7l0,0c-0.1,0-0.2,0.1-0.2,0.1L28.3,15z M30.9,14.6v-0.1V14.6L30.9,14.6z"/>
	<path style="fill:#FFFFFF;" d="M31.7,13.4c0.5,0,1,0.2,1.3,0.6c0.6,0.9,0.8,2,0.6,3l0,0.2c-0.1,0.2-0.1,0.4-0.2,0.6l0,0v0.1l0,0
		c0,0.2-0.1,0.3-0.2,0.5c0.6-0.2,1.2-0.5,1.8-0.8c0,0,0.1-0.1,0.1-0.1c0.5-0.5,0.8-1.2,0.4-1.5c-0.1-0.2-0.3-0.3-0.5-0.3
		c-0.1,0-0.2,0-0.3,0c0,0-0.3-0.2,0.2-0.4c0.1,0,0.2-0.1,0.3-0.1c0.4,0,0.8,0.3,1.3,1c0.6,1.1,0.5,2.4-0.4,3.3
		c-0.3,0.3-0.6,0.7-0.9,1c1,0.3,1.8,0.9,2.4,1.7c0.2-0.1,0.5-0.1,0.7-0.1c0.2,0,0.3,0,0.5,0c0.6,0,0.8,0.1,1,0.3
		c0.2,0.1,0.4,0.2,0.6,0.3c0.7,0.6,1.3,1.4,1.6,2.3c0.3,0.1,0.6,0.3,0.8,0.5l0.3,0.2c0.2,0.2,0.3,0.4,0.4,0.6
		c0.2,0.3,0.4,0.8,0.4,1.2c0,0.2,0,0.5-0.1,0.7l0,0c0,0.1,0,0.3-0.1,0.4v0c-0.1,0.4-0.3,0.7-0.5,1.1h0.1l0,0l0.1,0.1
		c0.4,0.3,0.8,0.7,1,1.2l0.1,0.1l0.1,0.2c0,0.1,0.1,0.2,0.1,0.3c0.1,0.3,0.1,0.5,0.1,0.8c0,0.6-0.1,1.1-0.3,1.6
		c-0.1,0.4-0.4,0.7-0.7,1c0.1,0,0.5,0.3,0.5,2c0,1.2-0.6,2.3-1.7,2.8c0,0,0.1,0.1,0.2,1.3S41.2,44,41.2,44c0.4,0.9,0.3,2-0.2,2.9
		c-0.4,0.9-1.2,1.5-2.1,1.7c0.1,0.7-0.1,1.3-0.4,1.9c-0.4,0.6-1.2,0.9-1.9,0.9h-0.2c0,0.7-0.2,1.3-0.6,1.9c-0.2,0.3-0.4,0.5-0.7,0.7
		L35,54c-0.4,0.3-0.8,0.4-1.3,0.4c-0.2,0-0.5,0-0.7-0.1c-0.3,0-0.5-0.1-0.8-0.2c0,0.6,0,3.2,0,3.3s5.2,1.9,6.4,2.4s0,0.9,0,0.9H20.3
		c-1,0-0.3-0.7-0.3-0.7s4.7-2.1,5.6-2.5l0.1,0l0,0v-3c-0.3,0-0.5,0.1-0.8,0.1c-0.4,0-0.7,0-1.1-0.1h-0.1c-0.2,0-0.4-0.1-0.6-0.1
		c-0.8-0.2-1.4-1.3-1.4-1.3c-0.4-0.1-0.8-0.3-1.1-0.5l0,0c-0.2-0.1-0.4-0.2-0.6-0.4c-0.7-0.6-1.1-1.4-1.2-2.3
		c-0.5,0-0.9-0.2-1.3-0.4c-0.4-0.2-0.8-0.5-1.1-0.8l-0.2-0.2c-0.3-0.3-0.5-0.6-0.6-0.9l-0.1-0.2v-0.1c-0.2-0.5-0.3-1.1-0.2-1.7
		c0-0.2,0.1-0.5,0.1-0.7c-0.4-0.2-0.8-0.4-1.1-0.7L14.2,44c-0.5-0.5-0.9-1.2-1.1-1.8C13.1,42,13,41.8,13,41.5c0-0.3,0-0.5,0-0.8
		c0.1-0.4,0.1-0.8,0.1-0.8l-0.8-1c-0.4-0.6-0.6-1.4-0.5-2.1c-0.3-0.5-0.6-1.1-0.7-1.7c0-0.5,0.2-1.1,0.4-1.6
		c-0.2-0.6-0.2-1.3-0.1-1.9c-0.2-0.6-0.3-1.3-0.3-2c0.1-0.9,0.5-1.7,1.1-2.3c0,0-0.2-0.1,0.2-1.5s2.3-1.8,2.3-1.8L15,24
		c0,0,0-0.1,0-0.1c0.2-0.7,0.5-1.2,0.9-1.7c0.2-0.2,0.4-0.4,0.6-0.5c0.3-0.3,0.8-0.5,1.2-0.5h0.6h0.1h0.3c1.1,0.1,1.3,0.5,1.3,0.5
		c0.2-0.2,0.4-0.4,0.7-0.6c-0.6-0.3-1.1-0.6-1.5-1.1L19,19.8c-1.3-1.2-2.1-2.3-2.1-3.2c0-0.3,0-0.6,0.1-0.9c0.1-0.3,0.3-0.5,0.5-0.5
		c0,0-0.3,0.7,0.2,1.1c0.4,0.3,0.9,0.5,1.4,0.6h0.1c1,0.3,2,0.6,3,1l0,0L22,17.8c-0.5-0.8-0.7-1.7-0.8-2.6c0.1-0.9,0.4-1.6,1.1-1.7
		c0.2,0,0.4-0.1,0.6-0.1c0.3,0,0.4,0.1,0.4,0.3c-0.1-0.1-0.2-0.1-0.3-0.1h-0.2c-0.4,0.2-0.6,0.6-0.5,1.1c0,0.1,0.1,0.1,0.1,0.2
		l0.1,0.2c0.2,0.4,0.5,0.6,0.8,0.8c0.7,0.2,1.4,0.5,2,0.8c0.3,0.2,0.6,0.4,0.9,0.7l0,0l0,0c0,0,0-0.1,0-0.2s0-0.1,0-0.2
		c0-0.3,0-0.5,0.1-0.8c0-0.1,0-0.2,0.1-0.3c0.1-0.3,0.4-0.4,0.7-0.4h0c0,0.1-0.1,0.2-0.1,0.3l0,0c0-0.1,0.1-0.1,0.1-0.2v-0.1h0.2
		h0.2c0.3,0,0.6,0.1,0.5,0.6c-0.2,0.7-0.4,1.5-0.5,2.3c0,0,0.9-0.5,1.1-1.1c0.1-0.2,0.2-0.5,0.3-0.8c0.1-0.2,0.1-0.3,0.1-0.5
		c0.1-0.3,0.1-0.7-0.1-1c-0.2-0.3-0.3-0.4-0.5-0.4c-0.1,0-0.2,0-0.3,0.1c0,0,0,0,0-0.1c0-0.1,0-0.3,0.4-0.4c0.1,0,0.3-0.1,0.4-0.1
		c0.6,0,1.2,0.4,1.7,1.7c0,0,0.7-1,0.5-1.4l0,0C31.3,14.1,31.2,14,31,14l0,0c-0.1,0-0.1,0-0.2,0.1c-0.2,0.1-0.3,0.4-0.3,0.4l0,0
		c-0.1-0.3,0-0.6,0.3-0.8c0,0,0.1,0,0.1,0c0.3-0.1,0.6-0.1,0.9-0.1 M31.6,15.5c0.1-0.1,0.1-0.2,0.2-0.2
		C31.7,15.3,31.7,15.4,31.6,15.5 M31.3,15.7l0.2-0.1L31.3,15.7 M31.1,15.9L31,15.9L31.1,15.9L31.1,15.9L31.1,15.9 M26.9,16.3
		c0.1-0.1,0.2-0.2,0.3-0.4C27.2,16,27.1,16.2,26.9,16.3 M30.8,16L30.8,16l-0.2,0.1l0,0L30.8,16L30.8,16 M23,16.2V16V16.2 M23.1,16.6
		L23.1,16.6 M29.7,16.8l0.1-0.1l0,0L29.7,16.8 M23,17L23,17 M22.8,17.5L22.8,17.5L22.8,17.5 M23.7,19.5L23.7,19.5 M24.3,19.5
		L24.3,19.5 M23.1,19.5h0.1H23.1 M24.7,19.5h-0.1H24.7 M25.1,19.6L25.1,19.6 M22.5,19.6L22.5,19.6L22.5,19.6L22.5,19.6L22.5,19.6
		L22.5,19.6 M25.5,19.6L25.5,19.6 M25.7,19.7L25.7,19.7L25.7,19.7L25.7,19.7 M22,19.9l0.1-0.1L22,19.9 M25.9,19.9L25.9,19.9
		 M21.6,20.2l0.2-0.2L21.6,20.2 M21,20.8c0.1-0.1,0.2-0.3,0.4-0.4C21.3,20.5,21.1,20.6,21,20.8 M32.3,21.4L32.3,21.4 M43.6,34.8
		L43.6,34.8L43.6,34.8L43.6,34.8 M27,58L27,58l-0.8-0.2L27,58 M28.2,58.4l-0.9-0.3L28.2,58.4 M30.7,59.1l-2.3-0.7L30.7,59.1
		 M31.7,59.5l0.3,0.1L31.7,59.5L31,59.3L31.7,59.5 M33.1,59.9l-0.9-0.3l0.3,0.1L33.1,59.9 M34.3,60.3l-0.2-0.1L34.3,60.3 M31.7,12.4
		L31.7,12.4c-0.4,0-0.8,0.1-1.2,0.2c-0.3,0.1-0.6,0.3-0.8,0.5c-0.2,0-0.4-0.1-0.5-0.1c-0.2,0-0.5,0-0.7,0.1c-0.4,0.1-0.8,0.4-1,0.8
		c-0.1,0.2-0.1,0.3-0.1,0.5h-0.1c-0.7,0-1.3,0.4-1.6,1c0,0.1-0.1,0.2-0.1,0.3c-0.3-0.1-0.7-0.3-1-0.4c-0.2-0.1-0.4-0.1-0.5-0.2
		c-0.1-0.1-0.2-0.1-0.4-0.4l0,0c0.5-0.1,0.8-0.5,0.8-1c0-0.7-0.6-1.3-1.3-1.3c0,0-0.1,0-0.1,0c-0.3,0-0.6,0-0.8,0.1
		c-0.7,0.1-1.7,0.7-1.9,2.6c0,0.4,0,0.9,0.1,1.3l-1-0.3h-0.1c-0.3-0.1-0.6-0.2-0.9-0.4c0.2-0.5,0-1.1-0.6-1.3
		c-0.1,0-0.2-0.1-0.4-0.1h-0.1c-0.6,0-1.2,0.5-1.4,1.1c-0.1,0.4-0.2,0.8-0.2,1.2c0,1,0.6,2.2,2,3.5h-0.1c-0.7,0-1.3,0.2-1.8,0.7
		c-0.3,0.2-0.5,0.4-0.7,0.6c-0.5,0.5-0.9,1.2-1.1,1.9c-1.1,0.3-2,1.2-2.4,2.4c-0.1,0.5-0.2,0.9-0.3,1.4c-0.7,0.7-1.1,1.7-1.1,2.7
		c0,0.7,0.1,1.3,0.3,2c-0.1,0.6-0.1,1.2,0.1,1.8c-0.2,0.5-0.3,1.1-0.3,1.6c0.1,0.7,0.3,1.4,0.7,2c0,0.9,0.3,1.7,0.7,2.5l0.5,0.6
		c0,0.1,0,0.2,0,0.3c-0.1,0.3-0.2,0.7-0.2,1.1c0,0.3,0.1,0.6,0.2,0.9l0.1,0.2c0.3,0.8,0.7,1.4,1.3,2l0.2,0.2
		c0.2,0.2,0.4,0.3,0.7,0.5l0,0c-0.1,0.7,0,1.5,0.2,2.2v0.1c0,0.1,0.1,0.2,0.1,0.3c0.2,0.4,0.5,0.8,0.8,1.2l0.2,0.2l0,0
		c0.4,0.4,0.9,0.8,1.4,1c0.3,0.1,0.5,0.3,0.8,0.3c0.2,0.9,0.7,1.7,1.5,2.3c0.2,0.2,0.5,0.3,0.6,0.5c0.3,0.2,0.7,0.4,1.1,0.6
		c0.4,0.6,1,1.1,1.7,1.4c0.2,0.1,0.5,0.1,0.7,0.2h0.1c0.3,0,0.7,0.1,1,0.1v1.2c-1.5,0.6-5,2.2-5.1,2.3c-0.1,0.1-0.2,0.1-0.3,0.3
		c-0.4,0.4-0.6,1-0.4,1.6c0.3,0.5,0.8,0.8,1.4,0.8h18.5c0.1,0,0.2,0,0.3,0c0.6-0.1,1.1-0.7,1.2-1.3c0-0.4-0.2-1-1.1-1.4
		c-0.6-0.3-2.1-0.8-3.5-1.3l-2.3-0.8c0-0.3,0-0.8,0-1.4c0.2,0,0.3,0,0.5,0c0.7,0,1.3-0.2,1.9-0.7l0.1-0.1l0,0
		c0.4-0.2,0.7-0.5,0.9-0.9c0.4-0.4,0.6-1,0.7-1.5c0.8-0.1,1.6-0.5,2.1-1.2c0.3-0.5,0.5-1.1,0.5-1.6c0.9-0.4,1.6-1.1,2-2
		c0.4-0.9,0.5-2,0.3-3c0.8-0.9,1.3-2.1,1.3-3.4c0-0.3,0-0.6-0.1-0.8c1-0.8,1.6-2,1.5-3.3c0-0.7-0.1-1.4-0.3-2
		c0.1-0.2,0.3-0.5,0.4-0.8c0.3-0.6,0.4-1.3,0.4-2c0-0.3-0.1-0.7-0.1-1c0-0.1-0.1-0.3-0.1-0.4l-0.1-0.2l-0.1-0.2
		c-0.2-0.4-0.4-0.8-0.7-1.1c0.1-0.2,0.1-0.4,0.2-0.5v-0.1c0-0.1,0.1-0.3,0.1-0.5v-0.1c0-0.3,0.1-0.5,0.1-0.8c0-0.6-0.2-1.1-0.5-1.6
		c-0.1-0.4-0.4-0.7-0.7-1l-0.3-0.2c-0.2-0.2-0.4-0.3-0.7-0.5c-0.4-1-1-1.8-1.8-2.4c-0.2-0.1-0.4-0.2-0.6-0.3
		c-0.4-0.2-0.9-0.4-1.4-0.3c-0.2,0-0.4,0-0.5,0H38c-0.3-0.4-0.6-0.7-1-1c1.1-1.2,1.3-3,0.5-4.4c-0.4-0.9-1.2-1.5-2.2-1.6
		c-0.2,0-0.4,0-0.7,0.1c-0.1,0-0.2,0.1-0.3,0.1c-0.1-0.4-0.3-0.7-0.5-1C33.3,12.7,32.5,12.3,31.7,12.4L31.7,12.4z"/>
	<path style="fill:#4E8549;" d="M26.5,17.4L26.5,17.4c-0.3-0.2-0.6-0.5-0.9-0.7c-0.6-0.3-1.3-0.6-2-0.8c-0.4-0.2-0.6-0.5-0.8-0.8
		l0.1,0.4c0,0.2,0.1,0.4,0.1,0.5c0.3,0.4,0.7,0.7,1.1,1c2,1.3,2,2.9,1.9,2.9s-3.1-1.5-5,0.9c-0.1,0.1-0.2,0.2-0.2,0.4
		c0.1,0.1,0.3,0.1,0.5,0.1l5.7,0.1l0.2-1.1C27.3,19.3,27,18.2,26.5,17.4z"/>
	<path style="fill:#8AA67E;" d="M22.6,17.8c0.6-0.5,0.5-1.2,0.3-2.3l-0.1-0.4l-0.1-0.2c-0.3-0.4-0.2-0.9,0.1-1.2
		c0.1-0.1,0.1-0.1,0.2-0.1c0.4-0.1,0.5,0.1,0.5,0.1c0-0.4-0.4-0.4-1.1-0.2s-1,0.8-1.1,1.7c0.1,0.9,0.3,1.8,0.8,2.6
		C22.2,17.9,22.5,17.9,22.6,17.8z"/>
	<path style="fill:#8AA67E;" d="M19.9,19.7c0.3-0.7-0.2-1.1-1.1-1.9c-0.6-0.5-1.1-1-1.5-1.6c-0.1-0.1-0.2-0.2-0.3-0.3
		c-0.1,0.3-0.1,0.6-0.1,0.9c0,0.9,0.8,2,2.1,3.2C19.4,20,19.8,20,19.9,19.7z"/>
	<path style="fill:#608C53;" d="M20.6,18.1c-0.5-0.2-1-0.5-1.4-1h-0.1c-0.5-0.1-1-0.3-1.4-0.6c-0.5-0.3-0.2-1.1-0.2-1.1
		c-0.2,0-0.4,0.2-0.5,0.5c0.1,0.1,0.2,0.2,0.3,0.3c0.4,0.6,0.9,1.2,1.5,1.6c0.9,0.8,1.4,1.2,1.1,1.9c-0.1,0.3-0.5,0.4-0.8,0.2
		l0.2,0.1c0.5,0.5,1,0.8,1.6,1.1c0-0.2,0.1-0.3,0.2-0.4c0.4-0.5,0.9-0.9,1.5-1.1C22.1,19,21.4,18.4,20.6,18.1z"/>
	<path style="fill:#608C53;" d="M24.1,17c-0.4-0.3-0.8-0.6-1.1-1c0.2,0.6,0.1,1.3-0.4,1.8c-0.1,0.1-0.4,0.1-0.5,0l0.1,0.3l0,0
		c0.3,0.5,0.6,1,1,1.4c0.9-0.1,1.9,0,2.7,0.4C26,20,26.1,18.4,24.1,17z"/>
	<path style="fill:#4C7144;" d="M19.2,17.1c0.4,0.5,0.8,0.8,1.4,1c0.8,0.3,1.5,0.8,2,1.5c0.2-0.1,0.4-0.1,0.7-0.2
		c-0.4-0.5-0.7-0.9-1-1.4C21.3,17.6,20.3,17.3,19.2,17.1z"/>
	<path style="fill:#608C53;" d="M30.5,20.4c1.3-0.4,2.3-1.3,2.8-2.6l0,0v-0.1l0,0c0.1-0.2,0.1-0.4,0.1-0.5l0-0.1l0-0.2
		c0.2-1,0-2.1-0.6-3c-0.5-0.6-1.4-0.8-2.1-0.4c-0.3,0.1-0.5,0.4-0.4,0.7c0,0,0,0.1,0,0.1c0.1,0.1,0.2-0.3,0.4-0.4
		c0,0,0.1-0.1,0.2-0.1c-0.1-0.1-0.2-0.1-0.1-0.1c0.5-0.2,1.3-0.3,1.6,0.1s0.3,0.9,0.2,1.7s-0.6,1.1-1.3,1.7s-1,1.4-1.8,1.3
		s-0.1-1.4,0.3-1.8l0.1-0.1c-0.6,0.6-1.1,1.2-1.5,1.9c-0.3,0.5-0.4,1.1-0.3,1.7c0,0-0.9,1.1-0.8-0.2c0-1-0.3-2.1-0.8-3
		c0,0.1,0,0.2,0,0.2c0.5,0.9,0.8,1.9,0.6,2.9L27,21.4h3.4C29.6,21.2,29.3,20.9,30.5,20.4z"/>
	<path style="fill:#608C53;" d="M36.7,16.1c-0.5-1-1.1-1.1-1.6-1s-0.2,0.4-0.2,0.4c0.3-0.1,0.6,0,0.8,0.2c0.3,0.3,0.1,1-0.4,1.5
		c-0.1,0.1-0.1,0.1-0.2,0.2c-0.3,1.4-2.3,3.7-2.3,3.8s0,0.1,0.1,0.2h1.5c0.7-0.6,1.4-1.3,2-2.1C37.1,18.5,37.2,17.2,36.7,16.1z"/>
	<path style="fill:#4C7144;" d="M32.6,21.3c0,0,2-2.4,2.3-3.8c-0.6,0.4-1.2,0.6-1.8,0.8c0.1-0.1,0.2-0.3,0.2-0.5
		c-0.5,1.2-1.5,2.2-2.8,2.6c-1.2,0.4-0.9,0.8-0.2,1h2.4C32.7,21.4,32.6,21.3,32.6,21.3z"/>
	<path style="fill:#608C53;" d="M27.4,15.5c-0.1,0.3-0.2,0.5-0.5,0.7c-0.2,0.2-0.3,0.1-0.4-0.1c0,0.3-0.1,0.5-0.1,0.8l0.6,0.8
		C27.2,17,27.3,16.2,27.4,15.5z"/>
	<path style="fill:#608C53;" d="M29.6,16.1c0.3-0.5,0.3-1.2,0-1.7c0.8,0.3,1,1.4,1,1.7c0.4-0.2,0.8-0.6,1.2-0.9
		c0.2-0.3,0-0.6-0.3-0.9l0,0c0.2,0.5-0.5,1.4-0.5,1.4c-0.6-1.7-1.5-1.8-2.1-1.7c-0.4,0.1-0.4,0.3-0.4,0.4c0.2-0.2,0.6-0.4,0.9-0.2
		s0.4,0.9-0.1,1.6c0,0.2-0.1,0.3-0.1,0.5C29.3,16.4,29.5,16.3,29.6,16.1z"/>
	<path style="fill:#4C7144;" d="M29.8,16.6c0.1-0.1,0.2-0.2,0.3-0.2l0.5-0.3c0,0,0,0,0-0.1C30.4,16.2,30.1,16.4,29.8,16.6z"/>
	<path style="fill:#4C7144;" d="M27.3,20.1c-0.1,1.3,0.8,0.2,0.8,0.2c-0.1-0.6-0.1-1.2,0.3-1.7c0.4-0.7,0.9-1.3,1.5-1.9
		c0.2-0.2,0.5-0.4,0.8-0.6c0-0.3-0.1-1.4-1-1.7c0.3,0.5,0.3,1.2,0,1.7c-0.2,0.2-0.3,0.3-0.4,0.3c-0.1,0.3-0.2,0.5-0.3,0.8
		c-0.2,0.6-1.1,1.1-1.1,1.1c0.1-0.8,0.3-1.5,0.5-2.3c0.2-0.6-0.4-0.6-0.7-0.5h-0.2v0.1c-0.1,0.7-0.2,1.5-0.3,2.2l-0.6-0.8
		c0,0.1,0,0.2,0,0.2C27,18.1,27.3,19.1,27.3,20.1z"/>
	<path style="fill:#8AA67E;" d="M31.8,15.1c-0.4,0.6-1.7,1.1-2,1.6s-1,1.8-0.3,1.8s1.2-0.8,1.8-1.3s1.2-0.9,1.3-1.7s0.1-1.4-0.2-1.7
		s-1-0.3-1.6-0.1c0,0,0,0,0.1,0.1s0.4,0.1,0.5,0.4S32,14.8,31.8,15.1z"/>
	<path style="fill:#8AA67E;" d="M27,16.1c0.2-0.2,0.4-0.5,0.5-0.8c-0.3,0-0.6,0-0.8,0.4c0,0.1-0.1,0.2-0.1,0.3
		C26.6,16.3,26.8,16.3,27,16.1z"/>
	<path style="fill:#8AA67E;" d="M29.4,14.2c-0.3-0.1-0.7,0-0.9,0.2c0,0,0,0,0,0.1c0,0,0.3-0.4,0.7,0.3c0.1,0.3,0.2,0.7,0.1,1
		C29.9,15.1,29.8,14.4,29.4,14.2z"/>
	<path style="fill:none;" d="M33.3,17.9L33.3,17.9z"/>
	<path style="fill:none;" d="M33.4,17.8L33.4,17.8z"/>
	<path style="fill:#4C7144;" d="M33.4,17.8c0-0.2,0.1-0.4,0.2-0.6l0,0.1C33.5,17.4,33.5,17.6,33.4,17.8z"/>
	<path style="fill:#4C7144;" d="M33.4,17.9L33.4,17.9L33.4,17.9z"/>
	<path style="fill:#4F446E;" d="M43.6,34.8c0.7-0.7,1.1-1.7,1.1-2.7c0-1.1-0.5-2.1-1.4-2.7c0.4-0.7,0.6-1.4,0.7-2.2
		c-0.1-1.1-0.8-2.1-1.9-2.5c-0.3-0.9-0.8-1.7-1.6-2.3c-0.8-0.5-1.8-0.7-2.7-0.5c0,0-1.2-1.6-2.4-1.7s-2.5,0.1-3,1.1
		c-0.6-1.1-1.8-1.7-3-1.8c-1.2-0.1-2.3,0.4-3.1,1.3c0,0-0.6-0.9-2.6-0.9c-1.4,0.1-2.6,0.7-3.6,1.7c0,0-0.4-0.5-2.2-0.5s-2.8,3-2.8,3
		s-1.9,0.4-2.3,1.8s-0.2,1.5-0.2,1.5c-0.7,0.6-1.1,1.4-1.1,2.3c0,0.7,0.1,1.4,0.3,2c-0.1,0.6-0.1,1.3,0.1,1.9
		c-0.2,0.5-0.3,1-0.4,1.6c0.1,0.6,0.3,1.1,0.7,1.6c0,0.7,0.2,1.5,0.6,2.1l0.8,1c-0.2,0.7-0.2,1.5-0.1,2.2c0.3,1.2,1.2,2.2,2.4,2.7
		c-0.4,1.2-0.1,2.6,0.8,3.6c0.7,0.8,1.6,1.3,2.6,1.4c0.1,0.9,0.5,1.8,1.2,2.3c0.5,0.5,1.1,0.8,1.7,1c0,0,0.6,1.1,1.4,1.3
		c0.8,0.2,1.7,0.3,2.5,0.2v0.6c0.9,0.8,3.1,2.3,4.7,1.8c0,0,1.8,2.3,2.9,2.6l0.2,0c0.3,0-0.2,0.1-1,0.1l3.4,1.1h2.8
		c0,0,1.2-0.4,0-0.9s-6.3-2.3-6.4-2.4s0-3.4,0-3.4c0.8,0.6,1.9,0.6,2.7,0c0.9-0.6,1.5-1.6,1.5-2.7c0,0,1.5,0.1,2.1-0.9
		c0.3-0.6,0.5-1.2,0.4-1.9c0.9-0.2,1.7-0.8,2.1-1.7c0.4-0.9,0.4-1.9,0.1-2.8c0,0,1.6-1.8,1.5-3.1s-0.2-1.3-0.2-1.3
		c1-0.6,1.7-1.7,1.7-2.8C44.1,34.9,43.6,34.8,43.6,34.8z"/>
	<path style="fill:#4F446E;" d="M33.6,59.6l-0.2,0c-1.1-0.4-2.9-2.6-2.9-2.6c-1.6,0.6-3.8-1-4.7-1.8v2.1c0.2,0.1,0.4,0.3,0.5,0.5
		l6.2,1.9C33.4,59.7,33.8,59.7,33.6,59.6z"/>
	<path style="fill:#5E5481;" d="M18.4,26.3c0.9,0.3,1.9,0.3,2.8,0.1c1.3-0.5,2.4-0.8,2.4-0.8c0.9,0.6,1.8,1.1,2.8,1.6
		c0.8,0,1.7,0,2.5-0.2l1.4-1l1.2,0.5L33,27l2.4-0.3l0.3-0.4l0.6,0.9l0.8,1l1.2,0.9l0.6,0.8l0.2,0.9l0.1,1l0.5,1.1L39.2,34l-0.3,2
		l0.4,2.2l0.3,0.7c0,0-1-0.5-1.4,0.3s-1.5,3.3-2.1,2.6c-1.2-1-2.8-1.3-4.3-0.8c-1.4,0.8-1.7,3.9-3.8,4.5c-1.8,0.6-3.8,0.5-5.6-0.4
		c-2-0.9-2.8-1.4-3.7-3.1s-2.1-1.5-2.3-3.3c-0.2-1.1-0.5-2.1-1.1-2.9c0,0,0-1.2,0.1-2.9c0-1-0.1-2-0.2-3c0.8-0.8,1.5-1.7,2.2-2.7
		C17.9,26.1,18.4,26.3,18.4,26.3z"/>
	<path style="fill:#6A628C;" d="M19,37.7c0,0,2.7,0.5,2.7,1.4s-1.5,1.1-2.5,0.9s-1.9-0.7-1.9-1.5S19,37.6,19,37.7z"/>
	<path style="fill:#504264;" d="M28.6,35.1c-0.3,0.7-0.2,1.4,0.3,2c0.7,1,1,1.5,1.7,1.5s-0.6-1.3-1-2.1S28.9,35.2,28.6,35.1z"/>
	<path style="fill:#504264;" d="M16.4,33.7c0,0.8,0.2,1.5,0.5,2.2c0.5,0.8,0.9,1.6,1.8,1.7s1.1-0.4,0.5-1s-1.4-1-1.7-1.8
		C17.3,34.3,16.9,33.9,16.4,33.7z"/>
	<path style="fill:#6A628C;" d="M31.7,38.8c0.7-0.1,1.3-0.2,2-0.2c0.3,0.1,1.6,0.7,1,1.3c-0.7,0.5-1.6,0.7-2.4,0.6
		c-1.1,0-1.1,0.1-1.7-0.2s-1-1-0.7-1.2C30.4,38.7,31.1,38.6,31.7,38.8z"/>
	<path style="fill:#4F446E;" d="M28.4,35c0.4,0.6,0.7,1.3,1,1.9c0.3,0.6,0.6,1.2,1.1,1.6c-0.4,0.1-0.9,0-1.2-0.2
		c-0.4-0.3-0.6-0.6-0.8-1c-0.2-0.4-0.3-0.8-0.3-1.2C28.2,35.8,28.2,35.4,28.4,35z"/>
	<path style="fill:#4F446E;" d="M38.2,35.9c0.1,0.3,0.1,0.6,0.1,0.9c0,0.3-0.1,0.6-0.3,0.8c-0.1,0.3-0.4,0.5-0.6,0.7
		c-0.3,0.2-0.6,0.3-0.9,0.3l0.3-0.8c0.1-0.2,0.2-0.5,0.3-0.7C37.4,36.7,37.8,36.3,38.2,35.9z"/>
	<path style="fill:#4F446E;" d="M16.4,33.8c0.4,0.7,0.7,1.3,1,1.9c0.1,0.3,0.3,0.6,0.5,0.9s0.4,0.6,0.5,1c-0.4,0-0.8-0.2-1.1-0.5
		c-0.3-0.2-0.6-0.6-0.8-0.9c-0.2-0.4-0.3-0.8-0.3-1.2C16.1,34.6,16.2,34.2,16.4,33.8z"/>
	<path style="fill:#4F446E;" d="M25.9,34.8c0.2,0.6,0.2,1.3-0.1,1.8c-0.2,0.3-0.4,0.5-0.6,0.7c-0.3,0.2-0.6,0.3-1,0.3
		c0.1-0.3,0.3-0.6,0.4-0.8s0.2-0.5,0.3-0.7C25.1,35.6,25.5,35.2,25.9,34.8z"/>
	<path style="fill:#FFFFFF;" d="M20.8,36.4c0,0-3.6-0.4-4.4-2.6c-0.1-1.7,0.9-3.3,2.5-4.1c2.7-1.4,3.6-1.3,4-1.1s3.3,1,3.3,5.3
		c0,0-0.1,1.5-0.7,1.9C24,36.5,22.3,36.7,20.8,36.4z"/>
	<path style="fill:#FFFFFF;" d="M28.7,35.9c-0.3-0.7-0.4-1.5-0.3-2.3c0-1.8,1.9-3.6,2.8-4c1.1-0.3,2.3-0.2,3.4,0.3
		c2.1,0.8,3.5,2.8,3.4,5c0,0,0.1,1.5-0.5,1.9c-1.3,0.5-2.6,0.8-4,0.7C31.7,37.6,30.1,37,28.7,35.9z"/>
	<path style="fill:#3C2E55;" d="M15,24.2c0.5-0.2,1.1-0.2,1.7-0.2c0.7,0,1.3,0.4,1.6,1c0.2,0.6,0.1,1.3-0.1,1.9
		c-0.2,0.5-0.5,1-0.8,1.5c-0.3,0.5-0.7,1-1.1,1.4c-0.3,0.2-0.6,0.4-0.9,0.5c-0.3,0.1-0.7,0-1-0.2c-0.2-0.1-0.5-0.2-0.7-0.3
		c-0.3-0.1-0.6-0.3-0.8-0.5c-0.3-0.5-0.5-1.1-0.3-1.7c0.1,0.5,0.3,1,0.7,1.3c0.2,0.1,0.4,0.2,0.6,0.2c0.3,0,0.6,0.1,0.8,0.2
		c0.2,0.1,0.4,0.1,0.6,0c0.2-0.1,0.3-0.2,0.5-0.3c0.3-0.4,0.6-0.8,0.9-1.2c0.3-0.4,0.5-0.9,0.8-1.3c0.2-0.4,0.3-0.8,0.3-1.3
		c-0.2-0.4-0.5-0.7-0.9-0.8C16.1,24.3,15.5,24.2,15,24.2z"/>
	<path style="fill:#3C2E55;" d="M18.1,23.5c1-1.3,2.5-2.1,4.1-2c0.4,0,0.9,0.2,1.3,0.4c0.4,0.3,0.7,0.7,0.9,1.2
		c0.1,0.4,0.1,0.9,0,1.3c-0.1,0.4-0.2,0.9-0.5,1.2c-0.6,0.7-1.3,1.1-2.2,1.3c-0.8,0.2-1.6,0.2-2.4,0.2c-0.5,0-0.9-0.2-1.3-0.5
		c-0.1-0.2-0.3-0.4-0.3-0.6c-0.1-0.2-0.2-0.4-0.2-0.5c-0.1-0.4-0.2-0.8-0.1-1.2c0.1-0.2,0.2-0.4,0.3-0.5l0.2-0.2L18.1,23.5
		L18.1,23.5L18.1,23.5L18.1,23.5L18.1,23.5L18.1,23.5z M18.1,23.5L18.1,23.5L18.1,23.5L18.1,23.5L18.1,23.5L18.1,23.5L18.1,23.5
		l-0.2,0.3c-0.1,0.1-0.2,0.3-0.2,0.5c0,0.4,0.1,0.7,0.3,1c0.1,0.3,0.3,0.6,0.5,0.8c0.2,0.2,0.5,0.2,0.8,0.2c0.7,0,1.4-0.1,2.1-0.3
		c0.6-0.1,1.2-0.5,1.6-1c0.2-0.2,0.3-0.5,0.3-0.8c0.1-0.3,0.1-0.6,0-0.9c-0.2-0.6-0.7-1-1.3-1C20.7,22.1,19.2,22.5,18.1,23.5z"/>
	<path style="fill:#3C2E55;" d="M26.2,22.5c0.7-0.3,1.5-0.3,2.2-0.2c0.8,0.2,1.4,0.7,1.8,1.5c0.4,0.8,0.4,1.7,0.1,2.5
		c-0.2,0.4-0.5,0.8-0.9,1c-0.4,0.2-0.8,0.4-1.2,0.5c-0.8,0.2-1.7,0.1-2.5-0.3c-0.4-0.2-0.7-0.4-1-0.6c-0.2-0.1-0.3-0.3-0.4-0.4
		c-0.1-0.1-0.2-0.2-0.2-0.3C24,26,24,25.9,23.9,25.8c-0.3-0.8-0.2-1.6,0.3-2.3c0.3-0.3,0.6-0.5,0.9-0.7
		C25.5,22.7,25.8,22.5,26.2,22.5z M26.2,22.5c-0.7,0.2-1.4,0.6-1.9,1.1c-0.3,0.6-0.2,1.4,0.1,2c0.1,0.2,0.4,0.4,0.7,0.6
		c0.3,0.2,0.6,0.3,1,0.4c0.6,0.2,1.3,0.2,2,0.1c1.1-0.1,2-1.2,1.9-2.3c0-0.2-0.1-0.4-0.1-0.5c-0.2-0.7-0.7-1.3-1.4-1.5
		C27.7,22.1,26.9,22.2,26.2,22.5z"/>
	<path style="fill:#3C2E55;" d="M32.3,22.1c0.4-0.1,0.7-0.1,1.1-0.2c0.4,0,0.8,0,1.1,0.2c0.7,0.3,1.3,0.8,1.8,1.4
		c0.3,0.3,0.4,0.8,0.4,1.2c0,0.4-0.1,0.8-0.3,1.2c-0.2,0.4-0.5,0.7-0.8,1c-0.4,0.2-0.8,0.4-1.3,0.5c-0.8,0.1-1.6-0.1-2.4-0.3
		c-0.8-0.3-1.4-0.9-1.8-1.6c-0.3-0.7-0.2-1.6,0.2-2.3C30.8,22.6,31.5,22.2,32.3,22.1z M32.3,22.1c-0.7,0.1-1.4,0.5-1.8,1.1
		c-0.3,0.6-0.2,1.4,0.1,2c0.4,0.5,1,0.9,1.6,1c0.7,0.2,1.3,0.2,2,0.2c0.6,0,1.1-0.4,1.5-0.9c0.2-0.3,0.3-0.6,0.3-0.9
		c0.1-0.3,0-0.6-0.1-0.9c-0.4-0.6-0.9-1.1-1.5-1.5C33.7,21.9,33,21.9,32.3,22.1z"/>
	<path style="fill:#3C2E55;" d="M36.8,24.9c0.5-0.5,1.2-0.8,1.8-0.7c0.7,0.1,1.4,0.4,1.9,0.9c0.5,0.5,0.9,1.1,1,1.9
		c0.1,0.4,0.1,0.8,0,1.2c-0.1,0.4-0.3,0.8-0.7,1.1c-0.6,0.5-1.5,0.7-2.3,0.5c-0.7-0.3-1.2-0.7-1.7-1.2c-0.5-0.5-0.9-1.1-1.1-1.8
		C35.8,25.9,36.1,25.2,36.8,24.9z M36.8,24.9c-0.5,0.4-0.6,1-0.5,1.6c0.3,0.5,0.7,1,1.1,1.4c0.4,0.4,0.9,0.7,1.5,0.9
		c0.5,0.1,1,0,1.3-0.3c0.7-0.5,0.4-2-0.3-2.8C39.2,24.7,37.9,24.3,36.8,24.9z"/>
	<path style="fill:#3C2E55;" d="M14.7,29.8c0.5,0.2,1,0.7,1.2,1.2c0.2,0.5,0.3,1.1,0.3,1.7c0,0.5-0.1,1.1-0.2,1.6
		c-0.1,0.3-0.2,0.6-0.3,0.8c-0.1,0.1-0.2,0.3-0.3,0.4c-0.1,0.1-0.3,0.1-0.5,0.1c0.2-0.1,0.3-0.3,0.3-0.6c0-0.2,0-0.5,0-0.7
		c0-0.5,0-1,0-1.6c0-0.5,0-1-0.1-1.5C15.1,30.7,15,30.2,14.7,29.8z"/>
	<path style="fill:#3C2E55;" d="M38.3,44.6c0.7,0,1.3-0.4,1.5-1c0.2-0.6,0.3-1.3,0.3-2c0.1-0.7,0.1-1.3,0-2c0-0.3-0.2-0.5-0.5-0.6
		c-0.3-0.2-0.7-0.3-1-0.4c0.4-0.1,0.8-0.1,1.2-0.1c0.4,0.1,0.8,0.4,1,0.8c0.3,0.7,0.4,1.5,0.3,2.3c0,0.8-0.2,1.6-0.6,2.3
		c-0.2,0.4-0.6,0.7-1,0.8C39.1,44.9,38.7,44.8,38.3,44.6z"/>
	<path style="fill:#3C2E55;" d="M40,39c0.9,0,1.7-0.5,2.1-1.2c0.2-0.4,0.3-0.8,0.3-1.2c0.1-0.4,0.1-0.9,0.1-1.3c0-0.4,0-0.7-0.2-1.1
		c-0.2-0.3-0.5-0.5-0.8-0.5c-0.4-0.1-0.9-0.1-1.3,0c-0.4,0-0.9,0.2-1.2,0.5c0.1-0.5,0.6-0.8,1-1c0.5-0.2,1-0.3,1.5-0.3
		c0.6,0,1.2,0.3,1.6,0.8c0.3,0.5,0.4,1,0.4,1.6c0,0.5-0.1,1-0.2,1.5c-0.1,0.5-0.3,1-0.6,1.4C42.1,39.1,41,39.4,40,39z"/>
	<path style="fill:#3C2E55;" d="M39,48.6c-0.4-0.2-0.6-0.3-0.7-0.5c-0.1-0.3-0.1-0.6,0.1-0.8c0.3-0.1,0.7,0.1,0.8,0.4
		C39.4,48,39.3,48.4,39,48.6z"/>
	<path style="fill:#3C2E55;" d="M15.9,40.1c0,0.2-0.2,0.5-0.4,0.6c-0.2,0.1-0.4,0.2-0.7,0.2c-0.5,0-0.9-0.4-1-0.8
		c0.2-0.1,0.4-0.1,0.6-0.2c0.2,0,0.3,0,0.5,0C15.2,39.9,15.6,40,15.9,40.1z"/>
	<path style="fill:#3C2E55;" d="M41.2,33.3c-0.2,0.2-0.4,0.4-0.7,0.4c-0.3,0-0.6-0.2-0.8-0.4c-0.4-0.4-0.6-0.9-0.7-1.4
		c-0.1-0.5-0.2-1-0.1-1.5c0-0.3,0.2-0.6,0.4-0.8c0.2-0.2,0.5-0.3,0.8-0.3c-0.3,0.3-0.4,0.7-0.3,1.1c0.1,0.4,0.2,0.8,0.3,1.3
		c0.1,0.4,0.2,0.8,0.3,1.2C40.4,33.1,40.8,33.4,41.2,33.3z"/>
	<path style="fill:#3C2E55;" d="M14.3,35.5c0.5-0.3,1.1-0.3,1.6,0.1c0.5,0.3,0.8,0.8,0.9,1.4c0.1,0.5,0.2,0.9,0.2,1.4
		c0,0.3,0,0.5-0.1,0.8c0,0.3-0.2,0.6-0.5,0.6c0.1-0.2,0.1-0.4,0-0.6c-0.1-0.2-0.1-0.4-0.2-0.6c-0.2-0.4-0.3-0.9-0.4-1.3
		c-0.1-0.4-0.3-0.7-0.5-1C15,35.9,14.7,35.6,14.3,35.5z"/>
	<path style="fill:#3C2E55;" d="M16.2,39.9c0.2-0.2,0.6-0.4,0.9-0.3c0.3,0.1,0.6,0.2,0.9,0.4c0.5,0.4,0.9,0.8,1.2,1.3
		c0.3,0.5,0.5,1.1,0.6,1.7c0.1,0.6-0.2,1.3-0.6,1.7c0.1-0.5,0.1-1.1-0.1-1.6c-0.2-0.5-0.4-0.9-0.7-1.4c-0.3-0.5-0.6-0.9-0.9-1.3
		C17.2,40.2,16.8,39.8,16.2,39.9z"/>
	<path style="fill:#3C2E55;" d="M17.4,27.5c-0.2-0.3-0.2-0.7,0.1-1c0.3-0.3,0.8-0.3,1,0c0,0,0,0,0,0c-0.1,0.3-0.2,0.5-0.4,0.7
		C17.9,27.3,17.6,27.4,17.4,27.5z"/>
	<path style="fill:#3C2E55;" d="M38.3,29.1c0.2-0.1,0.4,0,0.6,0.1c0.2,0.1,0.3,0.2,0.4,0.4c0.2,0.4,0.1,0.8-0.1,1.1
		c-0.2-0.1-0.3-0.2-0.5-0.3c-0.1-0.1-0.2-0.2-0.3-0.3C38.3,29.8,38.2,29.4,38.3,29.1z"/>
	<path style="fill:#3C2E55;" d="M39.3,31.6c0.4,0.4,0.6,1,0.6,1.6c0,0.3-0.1,0.6-0.2,0.8c-0.1,0.3-0.4,0.5-0.7,0.7
		c-0.1-0.5-0.2-1-0.1-1.5C38.9,32.6,39.1,32.1,39.3,31.6z"/>
	<path style="fill:#3C2E55;" d="M12.7,29.8c-0.2,0.4-0.3,0.8-0.4,1.2c-0.1,0.3-0.2,0.7-0.2,1c0,0.4,0,0.7,0.1,1.1
		c0.1,0.3,0.2,0.7,0.3,1v0.1c0,0.1,0.1,0.3,0.2,0.4c0.1,0.2,0.2,0.3,0.4,0.4c0.3,0.2,0.7,0.4,1.1,0.5c-0.4,0.2-0.9,0.2-1.4,0.1
		c-0.3-0.1-0.5-0.2-0.7-0.4c-0.2-0.2-0.4-0.4-0.5-0.7v0.1c-0.5-0.8-0.7-1.7-0.5-2.6c0.1-0.4,0.3-0.9,0.5-1.2
		C11.9,30.3,12.3,30,12.7,29.8z"/>
	<path style="fill:#3C2E55;" d="M40.2,29.1c0.5-0.6,1.3-0.8,2-0.5c0.7,0.4,1.1,1,1.3,1.7c0.2,0.7,0.2,1.4,0,2.1
		c-0.1,0.4-0.4,0.7-0.7,0.9c-0.3,0.2-0.7,0.2-1,0c0.5-0.1,1-0.6,1-1.1c0-0.5-0.1-1.1-0.2-1.6c-0.1-0.5-0.3-1-0.7-1.3
		C41.3,29,40.7,29,40.2,29.1z"/>
	<path style="fill:#4F446E;" d="M17.4,37.4c0.3-0.1,0.6-0.2,0.9-0.2c0.1,0,0.3,0,0.4,0h0.2h0.3c0.3,0.1,0.6,0.2,0.8,0.3
		c0.3,0.2,0.5,0.4,0.6,0.7c-0.3,0-0.6,0-0.9,0c-0.3,0-0.5,0-0.8-0.1h-0.1c-0.1,0-0.2,0-0.2,0c-0.2,0-0.3-0.1-0.4-0.2
		C17.8,37.8,17.6,37.6,17.4,37.4z"/>
	<path style="fill:#3C2E55;" d="M40.2,33.5c-0.4,0.2-0.6,0.6-0.7,1.1c0,0.4,0,0.9,0,1.3c0,0.5,0,1,0,1.5c0,0.5-0.1,0.9,0.2,1.4
		c-0.3-0.1-0.5-0.3-0.7-0.5c-0.1-0.2-0.2-0.5-0.3-0.8c-0.1-0.5-0.2-1-0.2-1.5c-0.1-0.6,0-1.1,0.2-1.7C38.9,33.8,39.5,33.4,40.2,33.5
		z"/>
	<path style="fill:#3C2E55;" d="M22.8,25.9c0.2-0.3,0.6-0.5,1-0.4c0.4,0.1,0.7,0.4,0.7,0.8C24,26.7,23.2,26.5,22.8,25.9
		C22.8,25.9,22.8,25.9,22.8,25.9z"/>
	<path style="fill:#3C2E55;" d="M29.4,26.6c-0.1-0.2,0-0.5,0.1-0.7c0.2-0.2,0.4-0.3,0.6-0.3c0.4-0.1,0.8,0.2,1,0.6
		c-0.2,0.1-0.3,0.2-0.5,0.3c-0.1,0.1-0.2,0.1-0.4,0.1c-0.1,0-0.2,0-0.3,0C29.8,26.6,29.6,26.6,29.4,26.6z"/>
	<path style="fill:#3C2E55;" d="M26.2,20.9c0.2,0.2,0.3,0.5,0.3,0.8c-0.1,0.3-0.2,0.5-0.4,0.7c-0.4-0.1-0.7-0.5-0.6-0.9
		C25.6,21.2,25.9,21,26.2,20.9z"/>
	<path style="fill:#3C2E55;" d="M37.7,22c0,0.3-0.1,0.6-0.3,0.9c-0.2,0.2-0.5,0.4-0.8,0.5c-0.3-0.3-0.3-0.8,0-1.1
		C36.9,22,37.4,21.9,37.7,22z"/>
	<path style="fill:#4F446E;" d="M29.9,39.9c0-0.3,0.2-0.6,0.5-0.7c0.2-0.1,0.4-0.1,0.5,0c0.1,0.1,0.2,0.2,0.2,0.4
		c0,0.3-0.1,0.6-0.2,0.8c-0.2,0.2-0.5,0.3-0.7,0.4c-0.1,0.1-0.2,0.1-0.3,0.1s0-0.1,0-0.2C30,40.4,30,40.1,29.9,39.9z"/>
	<path style="fill:#4F446E;" d="M23.5,40.3c-0.3-0.1-0.6-0.2-0.7-0.5c-0.1-0.2-0.1-0.4,0-0.5c0.2-0.3,0.7-0.4,1.2,0.3
		c0,0.3,0.1,0.5,0.3,0.7c0.1,0.1,0.2,0.1,0.2,0.1s0-0.1-0.2-0.1C24,40.3,23.7,40.3,23.5,40.3z"/>
	<path style="fill:#4F446E;" d="M25.4,42.5c0.5-0.2,0.8-0.3,1-0.4c0.2-0.1,0.4-0.1,0.7-0.1c0.2,0,0.4,0.1,0.6,0.1
		c0.3,0.2,0.7,0.3,1,0.3c0.1,0.5-0.1,0.9-0.5,1.2c-0.6,0.5-1.5,0.5-2.2,0C25.7,43.4,25.4,42.9,25.4,42.5z"/>
	<path style="fill:#3C2E55;" d="M13.1,35.3c0,0.3-0.2,0.7-0.3,0.9c-0.2,0.2-0.4,0.4-0.7,0.6c-0.2-0.1-0.3-0.4-0.3-0.6
		c0-0.5,0.3-0.9,0.7-1C12.6,35.2,12.9,35.2,13.1,35.3z"/>
	<path style="fill:#3C2E55;" d="M21.9,53.1c0.6-0.3,1.2-0.5,1.8-0.6l0.9-0.2l1-0.2c-0.1,0.4-0.3,0.7-0.6,0.9c-0.3,0.2-0.6,0.4-1,0.5
		c-0.4,0.1-0.7,0.1-1.1,0C22.5,53.4,22.2,53.3,21.9,53.1z"/>
	<path style="fill:#2F2547;" d="M34.4,40.6c0.1-0.3,0.2-0.5,0.5-0.7c0.2-0.1,0.5-0.1,0.7,0c0.1,0,0.1,0.1,0.2,0.2l0.1,0.1
		c0.1,0.1,0.1,0.2,0.1,0.3c0.1,0.4,0,0.7-0.3,1c-0.3,0.2-0.6,0.2-0.9,0.1c0.1-0.1,0.2-0.3,0.3-0.5c0-0.1,0-0.2-0.1-0.2c0,0,0,0,0,0
		l0,0c0,0,0,0,0.1,0s0.1,0,0,0S34.7,40.6,34.4,40.6z"/>
	<path style="fill:#3C2E55;" d="M35.2,41.5c0.2-0.4,0.4-0.4,0.6-0.3c0.1,0.1,0.2,0.2,0.2,0.3c0,0.2-0.1,0.4-0.3,0.4
		c-0.2-0.1-0.3,0-0.4,0.1s0,0.1-0.1,0.1C35.2,41.8,35.2,41.6,35.2,41.5z"/>
	<path style="fill:#2F2547;" d="M35.5,41.1c0.5-0.1,1,0.2,1.2,0.7c0.1,0.4,0.1,0.9,0,1.4c-0.1,0.4-0.4,0.8-0.7,1.1
		c-0.3,0.3-0.8,0.5-1.2,0.5c0.5-0.6,0.8-1.2,1-1.9c0.1-0.3,0.2-0.6,0.2-0.9C35.9,41.6,35.8,41.3,35.5,41.1z"/>
	<path style="fill:#2F2547;" d="M35.7,44c0.4,0.7,0.4,1.6,0,2.4c-0.2,0.4-0.5,0.7-0.8,0.9c-0.3,0.3-0.8,0.4-1.2,0.3
		c0.3-0.3,0.5-0.5,0.7-0.8c0.2-0.3,0.4-0.6,0.5-0.8C35.2,45.2,35.5,44.6,35.7,44z"/>
	<path style="fill:#3C2E55;" d="M37.6,40.7c0.3,1.1,0.4,2.1,0.3,3.2c0,1.2-0.4,2.3-1.1,3.2c-0.4,0.4-0.8,0.8-1.2,1.1
		c-0.5,0.4-1,0.7-1.7,0.7c-0.3,0-0.6-0.1-0.9-0.2c-0.3-0.1-0.6-0.3-0.8-0.6c-0.2-0.5-0.3-1.1-0.2-1.6c0.1,0.5,0.3,1,0.7,1.4
		c0.1,0.2,0.3,0.3,0.5,0.3c0.2,0,0.5,0,0.7,0c0.4-0.1,0.8-0.3,1.1-0.7c0.4-0.3,0.7-0.7,1-1.1c0.3-0.4,0.5-0.8,0.7-1.2
		c0.2-0.5,0.3-0.9,0.4-1.4C37.3,42.8,37.5,41.8,37.6,40.7z"/>
	<path style="fill:#2F2547;" d="M38.8,38c0,0.3-0.1,0.6-0.1,0.8c0,0.1-0.1,0.3-0.1,0.4c-0.1,0.2-0.1,0.2-0.1,0.4
		c-0.2,0.5-0.3,1-0.5,1.5c-0.1,0.3-0.2,0.5-0.4,0.8c-0.1,0.3-0.3,0.5-0.5,0.7c-0.4,0.4-0.8,0.8-1.2,1.2c0.1-0.5,0.3-1.1,0.6-1.6
		c0.1-0.3,0.3-0.5,0.3-0.7l0.3-0.7c0.2-0.5,0.5-1,0.8-1.5c0.1-0.1,0.2-0.2,0.3-0.3c0.1-0.1,0.2-0.2,0.3-0.3
		C38.4,38.4,38.6,38.2,38.8,38z"/>
	<path style="fill:#3C2E55;" d="M25.8,54.5c0.1-0.4,0.1-0.5,0.2-0.6s0.2,0,0.6,0.1c0.2,0.4,0.1,0.6-0.1,0.7
		C26.3,54.9,26,54.8,25.8,54.5C25.8,54.6,25.8,54.6,25.8,54.5z"/>
	<path style="fill:#4F446E;" d="M30.2,38.7c0.6-0.1,1.2-0.2,1.8-0.4c0.3-0.1,0.6-0.2,0.9-0.2c0.3,0,0.7,0,1,0c0.7,0,1.3,0.2,1.9,0.5
		c0.6,0.3,1.1,0.6,1.5,1.1c-0.6-0.1-1.2-0.2-1.8-0.3c-0.5-0.1-1.1-0.2-1.7-0.2c-0.3,0-0.6,0-0.8,0s-0.5,0-0.9,0
		C31.4,39.1,30.8,39,30.2,38.7z"/>
	<path style="fill:#504264;" d="M21.2,30c-1.8-0.1-3.3,1.3-3.4,3.1c-0.1,0.9,0.1,1.7,0.4,2.5c0.2,0.1,0.4,0.2,0.6,0.3
		c-0.4-0.8-0.7-1.6-0.7-2.5c0-1.6,1.4-3,3-3c0,0,2.9-0.4,2.9,3.3c0.1,1.2-0.6,2.4-1.7,2.9c0.2,0,0.5,0,0.7,0
		c0.9-0.9,1.4-2.1,1.4-3.3C24.3,31.5,22.9,30.1,21.2,30z"/>
	<path style="fill:#09002F;" d="M23.9,33.6c0-3.7-2.9-3.3-2.9-3.3c-1.6,0-3,1.4-3,3c0,0.9,0.3,1.8,0.7,2.5c0.6,0.2,1.3,0.4,2,0.5
		c0.5,0.1,1,0.1,1.5,0.1C23.4,36,24,34.8,23.9,33.6z"/>
	<path style="fill:#504264;" d="M36.5,34.3c0.1-1.8-1.3-3.4-3.1-3.5c-1.8-0.2-3.4,1.1-3.6,2.9c0,0.2,0,0.3,0,0.5
		c-0.1,1,0.2,1.9,0.6,2.7c0.3,0.1,0.6,0.2,0.9,0.3c-0.7-0.8-1.1-1.8-1.1-2.9c0-1.6,1.4-3,3-3c0,0,2.9-0.4,2.9,3.3
		c0.1,1.1-0.3,2.2-1.2,2.9l0.6-0.1C36.2,36.5,36.6,35.5,36.5,34.3z"/>
	<path style="fill:#09002F;" d="M36,34.6c0-3.7-2.8-3.3-2.8-3.3c-1.6,0-3,1.4-3,3c0,1.1,0.4,2.1,1.1,2.9c0.4,0.1,0.9,0.2,1.4,0.2
		c0.7,0.1,1.4,0.1,2.2,0C35.7,36.7,36.1,35.7,36,34.6z"/>
	<polygon style="fill:#ABA3B4;" points="33.5,33.4 34.5,32.4 35.2,33.2 34.3,34.1 	"/>
	<polygon style="fill:#ABA3B4;" points="21.3,32.8 22.4,31.7 23.1,32.5 22.1,33.5 	"/>
	<circle style="fill:#FFFFFF;" cx="23" cy="31.7" r="1"/>
	<circle style="fill:#FFFFFF;" cx="35.2" cy="32.3" r="1"/>
	<circle style="fill:#FFFFFF;" cx="33.9" cy="33.7" r="0.5"/>
	<circle style="fill:#FFFFFF;" cx="32.5" cy="36.7" r="0.4"/>
	<circle style="fill:#FFFFFF;" cx="19.9" cy="35.8" r="0.4"/>
	<circle style="fill:#FFFFFF;" cx="21.8" cy="33.1" r="0.5"/>
	<path style="fill:#3C2E55;" d="M32.3,21.5c0.4-0.1,0.6,0,0.6,0.2s0,0.3-0.5,0.4c-0.4-0.1-0.5-0.1-0.5-0.2S32,21.8,32.3,21.5z"/>
	<path style="fill:#554C6E;" d="M17.9,46c0,0,0.5-1.1,1.4-0.4s2.9,2.3,1.8,3.2c-0.7,0.7-1.8,0.7-2.5,0c0,0-0.1-0.1-0.1-0.1
		C17.7,48,17.5,46.9,17.9,46z"/>
	<path style="fill:#554C6E;" d="M15,40.9c0.5-0.4,1.3-0.6,1.7-0.3s2,2.9,1.2,3.6c-0.6,0.6-1.7,0.6-2.3-0.1c0,0-0.1-0.1-0.1-0.1
		c-0.6-0.6-0.9-1.4-0.9-2.3C14.7,41.5,14.8,41.2,15,40.9z"/>
	<path style="fill:#554C6E;" d="M12.4,35.8c0.3-0.4,0.8-0.5,1.2-0.3c0.8,0.4,2.1,2.5,1.6,3.5s-1.2,1.3-1.9,0.8
		c-0.9-0.7-1.3-1.9-1.2-3C12.4,35.7,12.4,35.8,12.4,35.8z"/>
	<path style="fill:#554C6E;" d="M12.4,30.3c0.4-0.5,0.9-0.9,1.4-0.6c0.9,0.9,1.1,2.3,0.7,3.5c-0.6,1.2-1.1,1.6-1.7,1.4
		c-0.8-0.3-1.3-1.2-1.1-2.1C11.8,31.7,12,31,12.4,30.3z"/>
	<path style="fill:#554C6E;" d="M12.6,28.3c0.1,0.7,0.7,1.2,1.4,1.1c0,0,0.1,0,0.1,0c1.2-0.5,2.1-1.5,2.5-2.7
		c0.4-1.3,0.2-2.6-0.6-2.6c-0.9,0-1.8,0.4-2.5,1C13,25.5,12.5,26.3,12.6,28.3z"/>
	<path style="fill:#554C6E;" d="M17.8,24.6c0.2,0.5,0.7,0.9,1.3,1c1.1,0.1,2.1-0.2,3-0.7c1-0.6,1.6-1.4,1-2.1s-0.5-1.1-1.7-0.8
		c-1.1,0.2-2.2,0.7-3.1,1.4C17.8,23.9,17.7,24.1,17.8,24.6z"/>
	<path style="fill:#554C6E;" d="M24.2,24.1c0.5-0.8,1.4-1.3,2.4-1.3c1.2,0,2.7,1,2.1,2s-1.5,1.8-2.5,1.6s-2.2-0.7-2.2-1.4
		S24.2,24.1,24.2,24.1z"/>
	<path style="fill:#554C6E;" d="M30.5,23.5c0.6-0.6,1.3-0.8,2.1-0.8c1,0.1,1.8,0.9,1.8,1.9c0,1.3-1.1,1.8-2.5,1.8s-1.8-1.5-1.8-2.1
		C30.1,24,30.3,23.7,30.5,23.5z"/>
	<path style="fill:#554C6E;" d="M37.8,25c0.9,0.1,1.7,0.8,1.7,1.7c0,0.9-1,1.2-1.7,1.2c-0.9-0.2-1.6-0.9-1.7-1.8
		C36.2,25.3,37,24.9,37.8,25z"/>
	<path style="fill:#554C6E;" d="M39.9,29.3c0.8,0,2.1,0.3,2.1,1.4s-0.3,1.9-1.1,1.9c-0.9,0.1-1.7-0.6-1.7-1.5c0-0.1,0-0.1,0-0.2
		C39.2,29.6,39.6,29.3,39.9,29.3z"/>
	<path style="fill:#554C6E;" d="M23.2,49.2c0.5-0.1,1.8,0.3,1.8,0.7c0.1,0.6-0.4,1.1-1,1.2c0,0-0.1,0-0.1,0c-0.6,0-1.2-0.5-1.2-1.2
		C22.7,49.5,23.2,49.2,23.2,49.2z"/>
	<path style="fill:#554C6E;" d="M39.7,34.5c0,0.4-0.2,3.2,1.1,3.2s1.3-2.2,1.3-2.7c-0.1-0.8-0.7-1.4-1.5-1.5
		C39.8,33.5,39.7,34.5,39.7,34.5z"/>
	<path style="fill:#554C6E;" d="M27.1,20.4c0.3-0.4,0.7-0.6,1.2-0.5c0.9,0,1.5,0.5,1.5,1.3s-1,0.9-1.9,0.9S26.2,21.3,27.1,20.4z"/>
	<path style="fill:#554C6E;" d="M16,22.2c0.6-0.7,1.5-1,2.4-1c1.7,0-0.4,1.9-1,2.2s-2.5,1.1-2.4,0.5C15.2,23.3,15.5,22.7,16,22.2z"
		/>
	<path style="fill:#554C6E;" d="M37.4,22.6c0,0-0.3,1.3,1.3,1.3s1.9-1.1,1.5-1.4S39.9,22,38.8,22S37.4,22.6,37.4,22.6z"/>
	<path style="fill:#3C2E55;" d="M16.9,39.5c-0.6,0.5-1.2,1.1-1.6,1.9c-0.3,0.6-0.2,1.4,0.3,1.9c0.5,0.6,1.1,1.1,1.8,1.5
		c0.7,0.4,1.6,0.3,2.2-0.3c-0.2,0.5-0.5,0.8-1,1c-0.5,0.2-1,0.2-1.5,0c-0.9-0.3-1.7-0.9-2.3-1.6c-0.3-0.4-0.5-0.9-0.6-1.4
		c0-0.5,0.1-1.1,0.4-1.5C15.2,40.3,16,39.7,16.9,39.5z"/>
	<path style="fill:#6A628C;" d="M25.8,41.7c0.4,0,0.7,0.2,1.1,0.1s0.9-0.2,1.3,0s0.4,0.5,0,0.7c-0.4,0.2-0.8,0.3-1.3,0.2
		c-0.3-0.1-0.5-0.1-0.8-0.1s-0.7-0.3-0.6-0.5C25.5,41.9,25.6,41.8,25.8,41.7z"/>
	<path style="fill:#3C2E55;" d="M31.7,42.2c0.2-0.2,0.4-0.4,0.7-0.5c0.1,0,0.2,0,0.3,0c0.1,0,0.2,0.1,0.5,0.2c0,0.2-0.1,0.4-0.2,0.5
		c-0.3,0.3-0.8,0.3-1.1-0.1C31.7,42.4,31.7,42.3,31.7,42.2L31.7,42.2z"/>
	<path style="fill:#6A628C;" d="M17.2,28.9c0.7-0.7,1.6-1.2,2.5-1.6c1-0.4,3.2-0.9,3.4-0.3s-1.5,1.5-2.3,1.7
		c-0.9,0.3-1.8,0.7-2.6,1.1C17.8,29.9,16.4,29.7,17.2,28.9z"/>
	<path style="fill:#6A628C;" d="M30.9,27.2c0.5-0.1,1,0,1.4,0.3c0.8,0.4,1.6,0.6,2.5,0.8c0.5,0,2.2,1,1.7,1.5s-1.9,0.1-3-0.3
		c-0.9-0.2-1.7-0.6-2.5-1C30.5,28,30.5,27.4,30.9,27.2z"/>
	<path style="fill:#4F446E;" d="M17.7,30.4c0.2-0.7,0.6-1.3,1.2-1.7c0.5-0.4,1.1-0.7,1.7-0.9c0.6-0.2,1.2-0.3,1.8-0.4
		c0.3,0,0.6,0,0.9,0c0.3,0.1,0.6,0,0.9-0.1c0,0.2,0,0.4-0.1,0.6c-0.1,0.2-0.2,0.3-0.4,0.4c-0.2,0.2-0.5,0.4-0.8,0.6
		c-0.5,0.3-1.1,0.6-1.7,0.8c-0.6,0.2-1.1,0.3-1.7,0.5C19,30.2,18.4,30.3,17.7,30.4z"/>
	<path style="fill:#4F446E;" d="M38.2,33.9c-0.5-0.6-1.1-1.2-1.7-1.8c-0.5-0.4-1.1-0.8-1.8-1.1c-0.6-0.4-1.3-0.7-2-1
		c-0.2-0.1-0.5-0.2-0.7-0.3c-0.2-0.1-0.4-0.3-0.6-0.4C31,29,30.8,28.5,30.7,28c0.4,0.2,0.8,0.3,1.2,0.4c0.2,0,0.4,0,0.6,0
		c0.2,0,0.3,0,0.6,0c0.9,0,1.8,0.3,2.7,0.8c0.4,0.2,0.8,0.5,1.2,0.8c0.4,0.3,0.7,0.7,0.9,1.1C38.2,32,38.3,32.9,38.2,33.9z"/>
	<path style="fill:#554C6E;" d="M33.3,43.2c0,0-0.5,1.4,0.4,1.5c0.7,0,1.4-0.5,1.4-1.3c0,0,0,0,0-0.1c0-0.6-0.2-1.2-0.5-1.4
		c-0.2-0.1-0.5-0.2-0.8-0.1c-0.2,0.1-0.6,0.4-0.5,0.5s0.1,0.3,0.4,0.1C33.6,42.8,33.4,43,33.3,43.2z"/>
	<path style="fill:#3C2E55;" d="M34.4,41.8c0.2-0.3,0.5-0.3,0.7-0.1c0.1,0.1,0.1,0.2,0.1,0.4c-0.1,0.2-0.2,0.3-0.4,0.3
		c-0.4-0.2-0.5,0-0.5,0S34.3,42.2,34.4,41.8z"/>
	<path style="fill:#2F2547;" d="M32.7,48.3c-0.5-0.2-0.8-0.6-1-1.1c-0.2-0.5-0.2-1-0.1-1.5c0.1-0.5,0.3-0.9,0.6-1.3
		c0.3-0.4,0.6-0.7,1-1c-0.1,1-0.4,1.8-0.6,2.6c-0.1,0.4-0.1,0.7-0.1,1.1C32.5,47.4,32.5,47.9,32.7,48.3z"/>
	<path style="fill:#2F2547;" d="M33.4,40.8c0.2-0.3,0.5-0.5,0.9-0.6c0.1,0,0.3,0,0.4,0c0.2,0,0.3,0.1,0.4,0.2
		c0.2,0.2,0.3,0.5,0.3,0.7c0,0.6-0.4,1-1,1c-0.4,0.1-0.8-0.1-1-0.5c0.3,0,0.6-0.1,0.8-0.3c0.2-0.2,0.2-0.2,0.2-0.3s0-0.1,0-0.1
		s0,0,0,0c0,0-0.1-0.1-0.1-0.1C34.1,40.9,33.8,40.9,33.4,40.8z"/>
	<ellipse style="fill:#645875;" cx="31.6" cy="24.3" rx="0.7" ry="0.6"/>
	
		<ellipse transform="matrix(0.9204 -0.3909 0.3909 0.9204 -7.5786 11.9155)" style="fill:#645875;" cx="25.5" cy="24.6" rx="1.1" ry="0.7"/>
	
		<ellipse transform="matrix(0.968 -0.2511 0.2511 0.968 -5.3214 5.8557)" style="fill:#645875;" cx="20.3" cy="23.8" rx="1.6" ry="0.8"/>
	<path style="fill:#645875;" d="M13.8,25.8c0.7-0.4,1.9-0.5,1.6,0.2c-0.2,0.5-0.5,0.9-0.9,1.3c-0.3,0.4-0.7,0.9-1.1,0.5
		S12.8,27,13,26.6C13.2,26.3,13.5,26,13.8,25.8z"/>
	<path style="fill:#645875;" d="M12.2,31.7c0.1-0.3,0.4-0.7,0.7-0.6c0.4,0.1,0.6,0.6,0.5,1c-0.2,0.3-0.3,0.6-0.3,1
		c0.1,0.2-1.1,0.6-1.1-0.2C12,32.5,12.1,32.1,12.2,31.7z"/>
	<path style="fill:#645875;" d="M13.3,37.2c0,0,0.7,0,0.7,0.5s-0.3,0.9-0.7,0.9s-0.5-0.5-0.5-1S13.3,37.2,13.3,37.2z"/>
	<path style="fill:#645875;" d="M16.1,41.3c0.6,0.3,0.8,0.9,0.6,1.5c-0.1,0.5-0.5,0.8-1,0.7c-0.2,0-0.3-0.1-0.5-0.3
		c-0.1-0.2-0.8-1.4-0.1-1.9S16.1,41.3,16.1,41.3z"/>
	<path style="fill:#645875;" d="M19,46.2c0.4,0.1,0.7,0.5,0.7,0.9c0,0.7-0.3,1-1,1S18,47.4,18,46.8S19,46.2,19,46.2z"/>
	<path style="fill:#645875;" d="M23.6,49.6c0,0,0.6,0.1,0.6,0.6s-0.3,0.5-0.5,0.5c-0.3,0-0.5-0.3-0.5-0.6
		C23.1,49.8,23.6,49.6,23.6,49.6z"/>
	<path style="fill:#645875;" d="M37.9,25.6c0,0,0.7,0.1,0.7,0.7c0,0.4-0.3,0.8-0.7,0.8c0,0,0,0,0,0c-0.4,0-0.8-0.4-0.8-0.8
		C37,25.8,37.9,25.6,37.9,25.6z"/>
	<path style="fill:#645875;" d="M40.2,29.8c0,0,1,0,1,0.8s-0.4,0.9-0.7,0.9c-0.5,0-0.8-0.4-0.9-0.8C39.6,30.2,40.2,29.8,40.2,29.8z"
		/>
	<path style="fill:#645875;" d="M40.8,34c0.5,0.2,0.8,0.7,0.6,1.3c0,0,0,0.1-0.1,0.1c-0.3,0.3-0.6,0.7-1,0.4
		c-0.4-0.3-0.6-0.8-0.4-1.2C40.1,34.2,40.4,34,40.8,34z"/>
	<path style="fill:#645875;" d="M27.5,20.4c0,0,0.7,0.1,0.7,0.5s-0.2,0.8-0.5,0.8c-0.4,0-0.7-0.3-0.7-0.8
		C26.8,20.5,27.5,20.4,27.5,20.4z"/>
	<path style="fill:#645875;" d="M16,22.6c0.4-0.3,0.9-0.7,1.2-0.5s-0.4,0.8-0.7,1s-0.7,0.2-0.8,0.1S15.6,22.8,16,22.6z"/>
	<path style="fill:#645875;" d="M21.3,20.9c0.3-0.3,0.8-0.5,1.2-0.5c0.3,0.1-0.2,0.9-0.5,1c-0.3,0.2-0.7,0.2-1.1,0.2
		C20.6,21.5,21,21.1,21.3,20.9z"/>
	<path style="fill:#5D516F;" d="M33.6,43.7c0,0,0.5-0.5,0.4-0.8c0-0.2-0.2-0.4-0.5-0.3c0,0,0.3-0.5,0.6-0.3s0.8,0.7,0.5,1.1
		c-0.3,0.4-0.7,0.8-1.2,1C33,44.5,33.6,43.7,33.6,43.7z"/>
	<path style="fill:#706C8C;" d="M18.1,28.1c0,0,1.2-0.6,1.5-0.2s-0.2,1-0.8,1.2s-0.7,0.8-1.1,0.7s-0.8-0.6-0.5-1
		S18.1,28.1,18.1,28.1z"/>
	<path style="fill:#706C8C;" d="M30.8,27.3c0.4-0.2,0.9-0.1,1.3,0.2c0.5,0.3,1,0.5,1.5,0.7c0.3,0.2,0.4,0.8-0.6,0.8
		c-0.7,0-1.3-0.1-1.9-0.4C30.9,28.3,30.2,27.5,30.8,27.3z"/>
	<path style="fill:#645875;" d="M33.4,20.8c0.5-0.2,1.2-0.5,1.4-0.3s0.2,0.8-0.5,1s-1,0.4-1.3,0.2S32.6,21.1,33.4,20.8z"/>
	<path style="fill:#645875;" d="M38.7,22.3c0,0,1.2,0,1.2,0.5s-0.5,0.6-1.1,0.6s-1-0.3-1-0.7S38.7,22.3,38.7,22.3z"/>
	<path style="fill:#504264;" d="M30.2,43.9c0,0.2,0.1,0.5,0.3,0.5s0.5-0.7,0.7-1.4s0.5-1.2,1.2-1.4c0.7-0.2,1-0.3,1-0.5
		s0-0.4-0.9-0.2c-0.7,0.1-1.3,0.4-1.7,1c-0.3,0.5-0.5,1.1-0.7,1.6C30.1,43.6,30.1,43.7,30.2,43.9z"/>
	<path style="fill:#3C2E55;" d="M19.6,43.2c1.3,1,2.8,1.7,4.4,2.1c0.8,0.2,1.6,0.2,2.4,0.2c0.8,0,1.5-0.1,2.2-0.5
		c0.5-0.3,0.8-1.2,1.2-1.9c0.4-0.8,0.9-1.5,1.5-2.2c0.2-0.2,0.4-0.3,0.7-0.4c0.2-0.1,0.4-0.1,0.7-0.1c0.2,0,0.5,0,0.7,0
		c0.2,0,0.3,0.1,0.4,0.3c0.1,0.1,0.2,0.3,0.2,0.5c0,0.3-0.1,0.5-0.3,0.7c-0.2,0.2-0.4,0.3-0.6,0.3c-0.4,0.1-0.9,0.1-1.3,0.1
		c0.4-0.1,0.8-0.2,1.2-0.3c0.2-0.1,0.3-0.2,0.4-0.3c0.1-0.1,0.1-0.3,0.1-0.5c0-0.2,0-0.1-0.2-0.2c-0.2,0-0.3,0-0.5,0
		c-0.2,0-0.4,0.1-0.6,0.2c-0.1,0.1-0.3,0.1-0.4,0.3c-0.5,0.6-0.9,1.3-1.2,2L30,44.6c-0.1,0.2-0.2,0.4-0.4,0.6
		c-0.2,0.2-0.3,0.4-0.6,0.6c-0.8,0.5-1.7,0.7-2.7,0.7C23.8,46.4,21.3,45.3,19.6,43.2L19.6,43.2z"/>
	<path style="fill:#6A628C;" d="M23.5,39.8c1,0.5,2.1,0.7,3.3,0.7c1,0.1,2.1,0,3.1-0.3c0.3-0.1,0.7-0.2,0.1-0.2s-1.6,0.2-2.8,0.2
		c-1,0-2-0.2-3-0.4C23.6,39.7,23.5,39.7,23.5,39.8z"/>
	<path style="fill:#4F446E;" d="M23.8,40l1.8,0.3c0.5,0.1,1,0.1,1.4,0.2s0.9,0,1.5,0.1s1.1,0,1.8,0c-0.3,0.4-0.8,0.6-1.3,0.6
		c-0.7,0.1-1.5,0.2-2.2,0.1c-0.7,0-1.4-0.2-2.1-0.5C24.3,40.7,24,40.4,23.8,40z"/>
	<path style="fill:#554C6E;" d="M15.7,45c-0.4,1-0.2,2,0.3,2.9c0.9,1.3,1.6,1.5,1.9,1.6s0.8-0.1,0-0.8s-1.4-0.9-1.6-1.7
		S16.1,45,15.7,45z"/>
	<path style="fill:#554C6E;" d="M13.2,41.9c0.3,1,0.8,1.8,1.6,2.5c1.1,0.6,0.1-0.5-0.4-1.2s-0.3-1.8-0.4-2.1s-0.2-1-0.4-1
		S13,40.7,13.2,41.9z"/>
	<path style="fill:#554C6E;" d="M19.2,50.1c-0.1,0-0.1,0.8,0.5,1.5c0.5,0.6,1.2,1.1,1.9,1.4c0.6,0.1,1.2-0.3,0.6-0.5
		c-0.6-0.1-1.3-0.4-1.8-0.8C20,51,19.8,50.1,19.2,50.1z"/>
	<path style="fill:#554C6E;" d="M22.9,53.6c-0.2-0.1-0.3-0.5-0.5-0.3s0,0.5,0.4,0.8c0.5,0.4,1.1,0.5,1.7,0.5c0.6,0,1.2-0.1,1.7-0.3
		c0.3-0.2,0.3-0.6-0.1-0.5c-0.5,0.2-1,0.3-1.5,0.3C24,54,23.4,53.9,22.9,53.6z"/>
	<path style="fill:#554C6E;" d="M38.6,39.7c0,0-0.5,1.5,0,2.1s0.9,0.1,1.1-0.7s0.4-1.3,0.1-1.7s-0.5-0.8-0.7-0.5
		C38.9,39.1,38.7,39.4,38.6,39.7z"/>
	<path style="fill:#554C6E;" d="M41.9,24.9c-0.1,0.2,0,0.5,0.2,0.7c0.5,0.4,0.9,1,1.1,1.6c0.1,0.5,0.1,1.1,0,1.6
		c-0.1,0.2,0.1,0.5,0.2,0.2c0.3-0.5,0.4-1,0.4-1.5c0-0.7-0.3-1.4-0.7-2C42.7,25.2,42,24.7,41.9,24.9z"/>
	<path style="fill:#3C2E55;" d="M42,24.8c0.3,0.2,0.4,0.7,0.2,1c-0.2,0.4-0.6,0.6-1,0.4c0-0.3,0-0.6,0.1-0.9
		C41.5,25.1,41.7,24.9,42,24.8z"/>
	<path style="fill:#554C6E;" d="M28.9,48.8c0,0,0.6,2.1,2.3,2.3c1.7,0.2,2.6-1,2.1-1.6c-0.5-0.7-1.5-0.9-2.3-0.6
		C30.3,49.1,29.6,49.1,28.9,48.8z"/>
	<path style="fill:#3C2E55;" d="M19.5,43.5c0.4,1.2,1.2,2.2,2.3,2.9c1,0.7,2.1,1.3,3.2,1.8c0.6,0.2,1.1,0.4,1.7,0.4
		c0.6,0.1,1.2,0.1,1.8,0c0.6-0.1,1.2-0.2,1.8-0.4c0.6-0.2,1.2-0.5,1.6-0.9c-0.8,1.1-2,1.9-3.3,2.1c-0.7,0.2-1.3,0.2-2,0.2
		c-0.7,0-1.4-0.2-2-0.5c-1.2-0.5-2.4-1.2-3.4-2.1c-0.5-0.4-1-1-1.3-1.6C19.7,44.8,19.5,44.1,19.5,43.5z"/>
	<path style="fill:#564969;" d="M32.3,42.9c0.2-0.2,0.7-0.4,0.8-0.1s0.3,0.5-0.2,0.9s-0.8,0.4-1,0.2S32,43,32.3,42.9z"/>
	<path style="fill:#2F2547;" d="M32.5,42.2c-0.1,0.4-0.3,0.7-0.4,1s0,0.3,0,0.3s0,0,0.1,0s0.1,0,0.1,0c0.1,0,0.2,0,0.3-0.1
		c0.3-0.2,0.6-0.4,0.9-0.5c0,0.4-0.2,0.8-0.4,1.2c-0.1,0.2-0.4,0.4-0.6,0.5c-0.3,0.1-0.6,0-0.9-0.1c-0.3-0.2-0.5-0.5-0.5-0.8
		c0-0.3,0.1-0.5,0.3-0.7C31.7,42.5,32.1,42.2,32.5,42.2z"/>
	<path style="fill:#3C2E55;" d="M33.2,42.6c0.2,0.1,0.3,0.1,0.3,0.2c0,0,0.1,0,0.1,0.1c0,0,0,0-0.1,0c-0.1,0-0.2,0.1-0.3,0.3
		c-0.1,0.1-0.3,0.1-0.5,0c-0.1-0.1-0.1-0.1-0.2-0.3c0-0.1,0-0.2,0.1-0.2C32.9,42.6,33,42.6,33.2,42.6z"/>
	<path style="fill:#564969;" d="M27.2,54.8c1.6,0.4,3.4-0.1,4.6-1.2c-0.2,0.9-0.9,1.5-1.8,1.6C29.1,55.5,28.1,55.3,27.2,54.8z"/>
	<path style="fill:#3C2E55;" d="M26.5,53.1c0.1,0.6,0.5,1.2,1.1,1.4c0.6,0.2,1.2,0.3,1.8,0.2c0.6,0,1.2-0.2,1.6-0.5
		c0.5-0.4,0.8-1,0.9-1.7c0.3,0.7,0.1,1.6-0.4,2.2c-0.5,0.6-1.3,1-2.1,1c-0.8,0.1-1.6-0.1-2.2-0.6C26.5,54.8,26.2,53.9,26.5,53.1z"/>
	<path style="fill:#554C6E;" d="M31.6,51.5c0,0,2.2,1.7,3.6,0.3c0.8-0.8,1.3-1.9,1.2-3h0.5c0,0,0.5,2.3-1,3.2s-2.5,1.1-3.2,0.7
		C32.2,52.4,31.8,52,31.6,51.5z"/>
	<path style="fill:#554C6E;" d="M38.5,47.6c0,0,0.5,2.4-0.7,3.2s-1.2,0.6-1.2,0.6c0.8,0.1,1.5-0.2,2-0.8
		C39.2,49.6,39.1,48.4,38.5,47.6z"/>
	<path style="fill:#554C6E;" d="M40.5,44.3l0.6-0.1c0,0,0.6,2-0.2,2.9s-1,1-1.2,1.2s0.9-1.3,1.1-2.4C40.9,45.4,40.8,44.8,40.5,44.3z
		"/>
	<path style="fill:#554C6E;" d="M40.2,39c1.1,0.2,1.8,1.2,1.7,2.3c-0.1,1.1-0.5,2.1-1.1,3c0,0,0.4,0.3,1.1-1c0.7-0.9,0.9-2,0.6-3.1
		c-0.3-0.7-0.6-1.3-1.2-1.2C40.9,39,40.5,39,40.2,39z"/>
	<path style="fill:#554C6E;" d="M43.2,34.6c0.7,0.5,1,1.3,0.9,2.2c-0.2,1.5-0.4,1.9-1,2.4s-0.8,0.5-0.8,0.5l-0.2-0.3
		c0.8-0.5,1.3-1.3,1.3-2.2C43.6,35.6,43.5,34.9,43.2,34.6z"/>
	<path style="fill:#554C6E;" d="M42.6,29.7l0.7-0.2c0.7,0.5,1.1,1.3,1.3,2.1c0.1,1.2-0.2,2.3-1,3.2c0,0,0.8-2.3,0.4-3.4
		C43.7,30.7,43.2,30.1,42.6,29.7z"/>
	<path style="fill:#3C2E55;" d="M42.5,39.8c-0.3,0-0.5-0.1-0.8-0.2c-0.1-0.1-0.1-0.3-0.3-0.7c0.2-0.3,0.7-0.3,0.9-0.1
		c0,0,0,0,0.1,0.1C42.6,39.1,42.6,39.5,42.5,39.8z"/>
	<path style="fill:#3C2E55;" d="M41.2,44.2c0,0.4-0.3,0.7-0.7,0.7s-0.7-0.3-0.7-0.7c0.4-0.3,0.5-0.3,0.7-0.4S40.8,43.9,41.2,44.2z"
		/>
	<path style="fill:#3C2E55;" d="M31.5,51.3c0.4,0.6,1,0.9,1.7,1.1c0.6,0,1.3-0.2,1.8-0.5c0.6-0.3,1.1-0.7,1.5-1.2
		c0.3-0.6,0.5-1.3,0.4-2c0.5,0.7,0.5,1.6,0.3,2.3c-0.3,0.8-0.9,1.4-1.7,1.8c-0.4,0.2-0.7,0.3-1.1,0.4c-0.4,0.1-0.9,0.1-1.3-0.1
		C32.1,52.8,31.6,52.1,31.5,51.3z"/>
	<path style="fill:#554C6E;" d="M35.8,52c0,0,0.7-0.6,0.8-0.7c0,1.1-0.6,2.2-1.5,2.8c-0.9,0.5-2.1,0.5-3-0.1c-0.1-0.1,0-0.6,0.2-0.6
		s1.3,0.9,2.2,0.4C35.1,53.4,35.6,52.7,35.8,52z"/>
	<path style="fill:#3C2E55;" d="M32.4,54c-0.3,0.3-0.5,0.2-0.6,0.1s-0.2-0.3,0.1-0.7c0.4-0.1,0.5-0.1,0.6-0.1S32.5,53.6,32.4,54z"/>
	<path style="fill:#554C6E;" d="M38,44.4c-0.3,0.6-0.5,1.3-0.7,2c0,0.2,0.1,0.3,0.3,0.4c0.1,0,0.2,0,0.3-0.1
		c0.2-0.4,0.4-0.8,0.5-1.2c0.2,0.8-0.1,1.7-0.7,2.3c-1.1,0.8-0.2,0.6,0,0.5c0.4-0.3,0.8-0.7,1-1.2C38.9,46.4,39.2,44.9,38,44.4z"/>
	<path style="fill:#564969;" d="M25.7,52.2c0.3,0,0.7,0,1,0.1c0.6,0.7,1.5,1,2.4,1c0.9-0.1,1.9-0.4,2.7-0.8c0.2-0.1,0.5,0.2,0,0.6
		C31,53.6,30,54,29,54C27.6,54.1,26.4,53.4,25.7,52.2z"/>
	<path style="fill:#3C2E55;" d="M18.7,45c-0.7,0.6-1,1.5-0.8,2.4c0.3,0.8,0.9,1.5,1.6,2c0.6,0.6,1.4,0.7,2.2,0.4
		c0.6-0.5,1-1.3,1.2-2.1l0.8,0.3c-0.5,0.7-0.6,1.6-0.3,2.5c0.2,0.3,0.5,0.6,0.9,0.7c0.5,0.2,0.9,0.3,1.4,0.4
		c0.4,0.1,0.9,0.2,1.4,0.2c0.2,0,0.4-0.1,0.6-0.1c0.2-0.1,0.4-0.1,0.5-0.3c0.7-0.5,0.8-1.4,0.4-2.1l0.9-0.4c0.3,0.6,0.8,1.2,1.4,1.6
		c0.6,0.4,1.3,0.5,1.9,0.4c0.7-0.1,1.3-0.4,1.8-0.9c0.5-0.5,0.7-1.2,0.7-2v-1.2l0.6,1c0.2,0.5,0.8,0.7,1.3,0.6
		c0.5-0.3,1-0.7,1.3-1.2c0.4-0.5,0.5-1.1,0.5-1.7c-0.2-0.6-0.7-1.1-1.3-1.3c0.7,0.1,1.2,0.6,1.5,1.2c0.2,0.7,0.1,1.4-0.3,2
		c-0.3,0.6-0.8,1.2-1.4,1.5c-0.4,0.2-0.8,0.2-1.2,0c-0.4-0.2-0.7-0.4-0.9-0.8l0.6-0.2c0,0.9-0.2,1.7-0.8,2.4
		c-0.6,0.7-1.4,1.1-2.2,1.3c-0.9,0.2-1.8,0-2.6-0.5c-0.7-0.5-1.3-1.2-1.7-1.9l0.9-0.4c0.3,0.5,0.4,1.1,0.3,1.7
		c-0.1,0.6-0.5,1.2-1,1.6c-1,0.6-2.2,0.7-3.3,0.3c-0.5-0.1-1-0.3-1.5-0.5c-0.6-0.2-1.1-0.6-1.4-1.2c-0.2-0.6-0.3-1.2-0.1-1.8
		c0.1-0.5,0.3-1.1,0.6-1.5l1.6-2.7l-0.8,3c-0.1,0.5-0.3,0.9-0.6,1.4c-0.3,0.5-0.6,0.8-1.1,1.1c-0.5,0.3-1,0.3-1.6,0.1
		c-0.5-0.2-0.9-0.4-1.3-0.7c-0.8-0.6-1.3-1.4-1.6-2.3C17.4,46.5,17.9,45.5,18.7,45z"/>
	<path style="fill:#3C2E55;" d="M25.8,52.2c0.4,0.4,0.9,0.8,1.4,1c0.5,0.2,1,0.3,1.6,0.3c0.6,0,1.1,0,1.7-0.2
		c0.6-0.1,1.1-0.4,1.5-0.8c-0.2,0.7-0.6,1.2-1.3,1.5c-0.6,0.3-1.3,0.4-2,0.4c-0.7,0-1.4-0.2-1.9-0.6C26.3,53.4,25.9,52.8,25.8,52.2z
		"/>
	<path style="fill:#4C3E6B;" d="M24.2,59.5c-1.1,0.4-2,0.9-2.9,1.3H36l-9.6-3C26.5,58.2,26,58.8,24.2,59.5z"/>
	<path style="fill:#645875;" d="M25.7,57.6l0.7,0.2c-0.1-0.2-0.3-0.4-0.5-0.5v0.3L25.7,57.6z"/>
	<path style="fill:#554C6E;" d="M20.1,60c0,0-0.6,0.7,0.3,0.7h1c0.8-0.4,1.8-0.8,2.9-1.3c1.8-0.7,2.2-1.3,2.1-1.7l-0.7-0.2
		C24.8,57.9,20.1,60,20.1,60z"/>
</g>
</svg>
