<?xml version="1.0" encoding="utf-8"?>
<!-- Generator: Adobe Illustrator 22.0.0, SVG Export Plug-In . SVG Version: 6.00 Build 0)  -->
<svg version="1.1" id="Слой_1" xmlns="http://www.w3.org/2000/svg" xmlns:xlink="http://www.w3.org/1999/xlink" x="0px" y="0px"
	 viewBox="0 0 55.8 62.9" style="enable-background:new 0 0 55.8 62.9;" xml:space="preserve">
<title>01</title>
<g id="Слой_14">
	<path style="fill:#786333;" d="M21.1,61.3c-0.3,0-0.5-0.2-0.5-0.5c0-0.1,0-0.2,0.1-0.3c0.9-1.2,2.1-2.1,3.4-2.6v-7.6L24,50.1
		L23.5,50c-1.1-0.3-2.2-0.8-3.1-1.5H20c-1.1,0-2.1-0.2-3.1-0.5c-0.2-0.1-0.5-0.2-0.7-0.3h-0.1c-0.2-0.1-0.4-0.2-0.6-0.3
		c-1-0.6-1.8-1.3-2.4-2.3c-0.1-0.2-0.3-0.4-0.4-0.5c-0.3-0.4-0.5-0.9-0.7-1.4c-0.9-1.7-1.4-3.7-1.5-5.6c-1.1-0.5-3.1-1.9-3.7-3.3
		c-0.3-0.8-0.6-1.6-1.1-2.4C5,30.7,5.3,30,5.6,29.6c-0.1-0.4,0-0.9,0.2-1.2c0.2-0.3,0.4-0.4,0.7-0.5c0-0.2,0.1-0.5,0.2-0.7L6.8,27
		c0.4-0.6,1.1-1,1.9-1.1h0.2c0.2,0,0.5,0.1,0.6,0.2l0.1,0.1c0.1,0.1,0.2,0.2,0.3,0.4H10c0.2,0,0.3,0,0.5,0.1c0.6,0.2,0.9,0.9,1,1.1
		c0,0,0,0.1,0,0.1c0.1,0.3,0.2,0.7,0.3,1c0,0.2,0.1,0.4,0.1,0.5c0,0.3,0,0.6-0.1,0.9c-0.1,0.4-0.3,0.8-0.6,1l0,0l0.2,0.1h0.1
		c0.1-0.5,0.3-1.2,0.6-2c0.3-1.4,0.9-2.7,1.6-3.9l0,0c0-0.5,0-0.9,0.1-1.4c0.1-1.5,0.5-3,1.2-4.3c0.2-0.4,0.4-0.7,0.6-1.1
		c-1.5-0.2-2.9-0.7-4.2-1.5c-0.9-0.7-0.8-1.3-0.6-1.6c0-0.1,0.1-0.1,0.1-0.1c0.1-0.4,0.8-1.1,3.4-1.7c1.4-0.3,2.9-0.6,4.4-0.8
		l1.7-6.2c0-0.4,0.5-2.1,3.7-2.1h1.5C31,4.7,37.3,6,38.2,8.3c0.4,2.2,0.6,4.4,0.6,6.7c0,0.9,0.1,1.8,0.1,2.2c0.3,0.1,1,0.4,1.6,0.7
		c1.3,0.4,2.5,1,3.7,1.8c0.3,0.3,0.9,0.8,0.7,1.4c0,0.1-0.1,0.2-0.2,0.3c-0.1,0.2-0.5,0.8-3.7,0.9c0,0.4,0,1,0.1,1.4
		s0.1,0.6,0.1,0.7v0.1l0.3,0.6c0.2,0.4,0.5,0.9,0.6,1.3l0.3,0.7c0.1,0.2,0.2,0.4,0.3,0.6c0.5,1,0.9,2,1.2,3.1l0.3,0.9
		c0.1-0.3,0.2-0.7,0.1-1c-0.6-2.1-0.3-3.5,0.7-4.1c0.4-0.3,0.8-0.5,1.3-0.5c0.3,0,0.6,0.1,0.8,0.3c0.2-0.2,0.5-0.3,0.8-0.3
		c0.7,0,1.3,0.5,1.5,1.2l0.2,0.5c0.3,0.1,0.5,0.4,0.7,0.6c0.1,0.1,0.1,0.2,0.1,0.3c0.1,0.3,0.2,0.6,0.1,0.8c0,0.2-0.1,0.4-0.2,0.6
		c0,0.1,0,0.2,0,0.3c0,0.2,0,0.3,0,0.5c0,0.5-0.4,1.2-1.7,1.4l-0.2,0.1c-0.1,0-0.1,0.1-0.2,0.2c0,0.2,0,0.4,0,0.6
		c0.1,0.9-0.2,1.8-0.7,2.5c-0.2,0.4-0.6,0.8-0.9,1.1c-0.2,0.2-0.4,0.3-0.6,0.5L45,38c-0.2,1.6-0.6,3.2-1.2,4.7
		c-0.6,1.5-1.6,2.9-2.9,3.9c-0.4,0.3-0.9,0.6-1.4,0.8l0,0c-0.6,0.3-1.3,0.5-2,0.6c-0.6,0.1-1.2,0.2-1.8,0.2l-0.4,0.1l-0.2,0.1
		c-1.1,0.7-2.3,1.3-3.6,1.7v7.5c2.4,0.7,3,2.1,3.1,2.7c0,0.1,0,0.3,0,0.4c0,0.3-0.2,0.5-0.5,0.5L21.1,61.3z M47,28
		c-0.1,0.1-0.2,0.2-0.3,0.4c-0.1,0.2-0.1,0.4,0,0.6l0,0c0.3,0,0.5-0.1,0.7-0.3l0,0l-0.2-0.2C47.1,28.3,47.1,28.1,47,28z"/>
	<path style="fill:#FFFFFF;" d="M25.4,5.2c5.5,0,11.6,1.3,12.3,3.3c0.4,1.4,0.6,8.7,0.8,9s4.4,1.7,5.4,2.5c0.4,0.3,0.6,0.6,0.5,0.9
		c0,0.1,0,0.1-0.1,0.2c-0.3,0.6-3.1,0.7-3.8,0.7c0,0.5,0.1,1.3,0.1,1.9c0,0.4,0.1,0.6,0.1,0.8v0.1l0.3,0.7c0.3,0.4,0.5,0.9,0.7,1.4
		l0.3,0.6c0.1,0.1,0.1,0.3,0.3,0.6c0.5,1,0.8,2,1.1,3l0,0c0.2,0.5,0.3,1,0.5,1.4c0.1,0.2,0.2,0.3,0.3,0.3c0.1,0,0.1,0,0.2-0.1
		c0.4-0.5,0.6-1.2,0.5-1.9C44.6,30,44,27.8,45.3,27c0.3-0.2,0.6-0.3,1-0.4c0.3,0,0.6,0.2,0.6,0.5c0,0.3-0.6,0.7-0.7,1.1
		s-0.1,1.1,0.4,1.3h0.2c0.5,0,0.9-0.2,1.1-0.6l0,0c0-0.1,0-0.2,0-0.3c-0.1-0.4-1-1.1-0.6-1.7c0.1-0.2,0.3-0.3,0.5-0.3
		c0.5,0,0.9,0.4,1,0.9l0.2,0.8c0.3,0.1,0.5,0.3,0.6,0.5c0,0.1,0.1,0.1,0.1,0.2c0.1,0.2,0.1,0.4,0.1,0.5c0,0.2-0.1,0.4-0.3,0.6l0,0
		v0.1c0,0.1,0,0.2,0,0.3l0,0c0,0.1,0,0.3,0,0.4l0,0c0,0,0,0.7-1.2,0.9c-0.1,0-0.2,0-0.3,0.1c-0.2,0.1-0.3,0.2-0.5,0.4
		c-0.2,0.6,0.1,2-0.7,3l0,0c-0.2,0.4-0.5,0.7-0.8,1c-0.2,0.2-0.4,0.3-0.6,0.5c-0.6,0.5-1,1-1,1c-0.2,1.6-0.6,3.1-1.1,4.5l0,0
		c-0.6,1.5-1.5,2.8-2.8,3.7c-0.4,0.3-0.8,0.5-1.3,0.7l0,0c-0.6,0.3-1.2,0.5-1.9,0.6c-0.6,0.1-1.2,0.2-1.8,0.2l0,0l-0.4,0.1L34.9,48
		c-1.2,0.8-2.5,1.3-3.9,1.7V58c2.4,0.5,3,1.8,3.1,2.4c0,0.1,0,0.2,0,0.3h-13c0.9-1.2,2.1-2.1,3.5-2.5v-8.1c-0.1-0.1-0.2-0.2-0.3-0.4
		l-0.7-0.2c-1.1-0.3-2.2-0.8-3.1-1.5H20c-1,0-2-0.1-3-0.5c-0.2-0.1-0.5-0.2-0.7-0.3l0,0l-0.5-0.3c-0.9-0.5-1.7-1.3-2.3-2.1l-0.4-0.5
		c-0.3-0.4-0.5-0.8-0.7-1.3l0,0c-0.9-1.8-1.4-3.7-1.5-5.7c-0.6-0.3-3.1-1.7-3.7-3.2c-0.3-0.9-0.7-1.7-1.1-2.5
		c-0.4-0.6-0.6-1.4-0.1-1.8l0,0c0-0.2-0.3-1.2,0.5-1.4h0.1c0.1,0,0.2,0,0.3,0.1l0,0c-0.2-0.3-0.2-0.7,0-1l0,0v-0.2l0,0
		c0.3-0.5,0.9-0.8,1.4-0.8h0.2c0.1,0,0.3,0,0.4,0.1l0,0c0.1,0.1,0.2,0.2,0.2,0.3c0,0.2,0,0.3,0,0.5l0,0c0.1-0.1,0.3-0.2,0.5-0.2
		c0.1,0,0.2,0,0.3,0.1c0.4,0.1,0.6,0.8,0.6,0.8l0,0c0.2,0.4,0.3,0.7,0.3,1.1c0,0.2,0,0.3,0,0.5c0,0.2,0,0.5-0.1,0.7l0,0
		c-0.1,0.3-0.2,0.6-0.5,0.8v-0.1c-0.3,0.4-0.1,0.6,0.2,0.7l0.3,0.1c0.2,0.1,0.4,0.1,0.7,0.2l0.1-0.3l0,0c0.1-0.5,0.3-1.2,0.6-2.1
		c0.3-1.3,0.9-2.6,1.6-3.7l0.1-0.2c0-0.5,0-1,0.1-1.4c0.1-1.5,0.5-2.9,1.2-4.3l0,0c0.3-0.6,0.7-1.2,1.1-1.8h-0.3
		c-1.6-0.1-3.2-0.6-4.6-1.5c-0.6-0.5-0.6-0.8-0.5-1c0,0,0-0.1,0.1-0.1v-0.1l0,0c0,0,0-0.8,3-1.3l0,0c1.6-0.3,3.1-0.6,4.7-0.8
		l1.8-6.6c0,0,0.1-1.7,3.2-1.7L25.4,5.2 M8.5,28.1L8.5,28.1c0.1,0.4,0.2,0.8,0.4,1.1l0,0c0.1,0.1,0.1,0.1,0.2,0.2h0.4
		c0.2,0,0.4-0.3,0.3-0.5c0,0,0-0.1,0-0.1l-0.1-0.1l-0.1-0.1l0,0c-0.1-0.2-0.2-0.3-0.3-0.5c0-0.2,0-0.3,0-0.5c0,0.1-0.1,0.1-0.2,0.2
		L9,27.9h0L8.8,28H8.4 M9.6,28.6L9.6,28.6 M9.8,28.8L9.8,28.8 M25.4,4.2H24c-3.5,0-4.1,1.9-4.2,2.5l-1.6,5.9
		c-0.9,0.1-2.6,0.4-4.1,0.8c-2.2,0.4-3.4,1.1-3.7,2l-0.1,0.1c-0.2,0.4-0.4,1.2,0.7,2.1c1.1,0.8,2.4,1.3,3.8,1.5l-0.2,0.5
		c-0.8,1.4-1.2,3-1.3,4.6c-0.1,0.4-0.1,0.8-0.1,1.2c-0.5,0.7-0.8,1.5-1.1,2.3v-0.1c0-0.1,0-0.1-0.1-0.2c-0.2-0.6-0.7-1.1-1.3-1.4
		c-0.1,0-0.3-0.1-0.4-0.1c-0.1-0.1-0.2-0.3-0.4-0.4l0,0c-0.3-0.2-0.6-0.3-0.9-0.3H8.6c-0.9,0-1.8,0.5-2.3,1.3v0.1l-0.1,0.1L6.2,27
		l0,0c-0.1,0.2-0.1,0.3-0.2,0.5c-0.3,0.1-0.5,0.3-0.7,0.6C5.1,28.5,4.9,29,5,29.5c-0.4,0.9-0.3,1.9,0.3,2.6c0.4,0.8,0.7,1.5,1,2.3
		c0.6,1.5,2.5,2.7,3.7,3.4c0.1,1.9,0.7,3.8,1.6,5.6c0.2,0.5,0.5,0.9,0.8,1.4c0.1,0.2,0.3,0.4,0.4,0.6c0.7,1,1.5,1.8,2.6,2.4l0.5,0.3
		h0.1c0.3,0.1,0.5,0.2,0.8,0.3c1.1,0.4,2.2,0.6,3.3,0.6h0.2c1,0.7,2,1.2,3.2,1.5l0.3,0.1v7c-1.3,0.6-2.5,1.5-3.4,2.7
		c-0.3,0.5-0.2,1.1,0.3,1.4c0.2,0.1,0.4,0.2,0.5,0.2h13c0.6,0,1-0.4,1-1c0-0.2,0-0.4-0.1-0.5c-0.4-1.5-1.6-2.6-3.1-3v-6.8
		c1.2-0.4,2.3-1,3.4-1.6l0.1-0.1l0.2-0.1c0.6,0,1.2-0.1,1.8-0.2c0.8-0.1,1.5-0.3,2.2-0.7c0.5-0.2,1-0.5,1.4-0.8
		c1.4-1.1,2.4-2.5,3.1-4.1c0.6-1.5,1-3,1.2-4.5l0.8-0.7l0.6-0.5c0.4-0.3,0.7-0.7,1-1.2c0.6-0.8,0.9-1.8,0.8-2.8v-0.3l0,0
		c1,0,1.9-0.8,2.1-1.8c0-0.2,0-0.3,0-0.5v-0.2c0.1-0.2,0.2-0.4,0.2-0.6c0.1-0.4,0-0.8-0.2-1.2c0-0.1-0.1-0.2-0.2-0.3
		c-0.2-0.3-0.4-0.5-0.7-0.7v-0.1l-0.1-0.3c-0.2-0.9-1.1-1.6-2-1.6c-0.3,0-0.5,0.1-0.8,0.2c-0.2-0.1-0.5-0.2-0.8-0.2
		c-0.6,0-1.1,0.2-1.5,0.5c-0.7,0.5-1.2,1.3-1.3,2.2l-0.4-0.8c-0.1-0.2-0.2-0.4-0.3-0.6l-0.3-0.6l0,0c-0.2-0.5-0.4-1-0.6-1.5
		l-0.1-0.1l-0.2-0.4c0-0.2,0-0.5-0.1-0.7c0-0.3,0-0.6,0-0.9c3-0.2,3.4-0.8,3.6-1.1c0.1-0.1,0.2-0.3,0.2-0.5c0.3-0.9-0.5-1.6-0.8-1.9
		c-1.2-0.8-2.5-1.4-3.8-1.9l-1.3-0.5c0-0.5-0.1-1.2-0.1-1.9c0-2.3-0.3-4.6-0.6-6.8V8.1C37.6,5.3,30.2,4.2,25.4,4.2L25.4,4.2z"/>
	<rect x="24.6" y="49.2" style="fill:#A18437;" width="6.4" height="10.4"/>
	<path style="fill:#A18437;" d="M21.1,60.8c0,0,2.3-3.5,7.7-3.1s5.3,3.1,5.3,3.1H21.1z"/>
	<path style="fill:#BC9738;" d="M19,13.5l1.8-6.6c0,0,0.1-1.8,3.5-1.7C30,5,36.9,6.3,37.8,8.5c0.4,1.4,0.6,8.7,0.8,9
		s4.4,1.7,5.4,2.5s1.1,1.4-3.5,1.6c0.3,2.6,0.2,2.8,0.6,3.4c0.9,1.7,1.6,3.4,2.2,5.2c0.7,2.1,0.8,2.5,1.2,2.2
		c0.4-0.5,0.6-1.2,0.5-1.9C44.6,30,44,27.8,45.3,27s1.6-0.1,1.7,0.1s-0.6,0.7-0.7,1.1s-0.1,1.2,0.5,1.3s1.3-0.5,1.2-0.9
		s-1-1.1-0.6-1.7s1.3-0.2,1.5,0.5l0.2,0.8c0,0,1,0.6,0.8,1.3s-0.3,0.7-0.5,0.7c0.3,0.5,0.1,1.2-0.5,1.5c-0.1,0.1-0.3,0.1-0.5,0.1
		c-1.2,0.2-1,1.5-1,2.1s0,1.8-3.1,3.8c-0.1,2.9-1.4,6.8-3.8,8.4c-1.6,1-3.4,1.5-5.2,1.4c-1.4,0.7-2.8,1.4-4.3,2
		c-2.2,0.8-4.5,0.8-6.7,0c-1.4-0.2-2.7-0.8-3.8-1.7C18,48.1,15.6,47,14,45c-2.7-3.1-2.7-7.8-2.7-7.8s-3.4-1.7-3.9-3.5
		s-0.6-1.5-0.6-1.5S5.4,30.7,6,30l0.2-0.2c-0.2-0.5-0.1-1.1,0.4-1.4c0.2,0,0.5,0,0.7,0.1c0,0-0.2-1.4,1-1.6c0.6-0.1,0.1,0.5,0.2,1.2
		c0.1,0.4,0.2,0.9,0.4,1.3c0.6,1.4,0.3,1.1,0.8,0.7s1.3-2.2,1.6-1.1c0.4,1-0.1,2.1-1,2.5v0.3l1.5,0.6c0.5-2.1,1.2-4.1,2.1-6l0.3-0.4
		c0-2.7,0.9-5.3,2.4-7.5c-0.5,0.1-4.9-0.8-5.2-2.3S19,13.5,19,13.5z"/>
	<path style="fill:#A18437;" d="M28.3,49.3c2.8-0.4,5.7-1.2,6.4-1.8s3.6,0.4,6.1-1.7s3.1-5.8,3.4-7.8l0.1-0.4c1-0.4,1.8-1.1,2.4-2
		c0.6-0.8,0.8-1.8,0.8-2.8c0.2-0.7,0.8-1.1,1.5-1.1c0.3-0.1-0.8-0.4-0.8-0.4s-1.3,0.2-1.5,1.2c-0.2,2.1-2.1,2.8-2.2,1.9
		c0-0.3-0.3-1.5-0.3-1.8s-0.8-0.4-1-1.1c-0.3-1.5-0.8-2.9-1.5-4.2c-0.7-0.8-1.1-1.8-1.3-2.8c-0.1-0.6,0-4.4-0.5-5.1s-7-1.9-7-1.9
		s4.1,1.3,4.7,2.9s1.2,3.5,0.4,4.5c-1.2,1.6-3.2,2.4-5.2,1.9c-1.7-0.3-3.2-1.2-4.3-2.5c0,0,0.3,1.6,3.5,2.8c2.5,0.9,3.9,0,5.3-0.6
		c1.2-0.5,2.6-0.2,3.5,0.6c0.3,0.5,2.3,4.7,2.2,7.7s0.1,4.8-1,7.1s-4.6,3.3-6.2,2c-0.5,1-4.2,1.5-4,1.2c-2.1,1.9-5.1,2.7-7.9,2
		c-0.9-0.2-1.7-0.5-2.5-0.9c0,0-6.8-0.3-8.9-4.8l-0.9-2c0.2,1.7,0.9,3.4,1.8,4.8c0.9,1.5,2.2,2.6,3.8,3.3c1.1,0.4,2.3,0.5,3.5,0.5
		C22.9,49.1,25.6,49.6,28.3,49.3z"/>
	<path style="fill:#A18437;" d="M28.4,16.9c-0.9,2.6-0.7,5.5,0.8,7.9c2.4,4.2,6.8,1.4,6.8,1.4S34.5,15.4,28.4,16.9z"/>
	<path style="fill:#CCB06A;" d="M28.5,23.3c-0.6-1.4-0.7-2.9-0.3-4.3c0.8-2.3,5.2-2,8.3,0.4s2.3,6.4-0.8,7.3
		C33.2,27.4,29.5,26.8,28.5,23.3z"/>
	<path style="fill:#FFFFFF;" d="M28.8,24.1c0,0-1.1-3.3,0.8-4.7s6.2-1,7.9,2.2s-1.3,4.8-3,4.9S30.2,26.7,28.8,24.1z"/>
	<path style="fill:#A18437;" d="M32.9,19.2c-1.2,0-2.3,0.6-2.9,1.6c0.4,0.1,0.7,0.4,0.7,0.9c-0.1,0.5-0.5,0.9-1,0.9
		c-0.1,0-0.2,0-0.3,0l0,0c-0.1,1.9,1.4,3.5,3.3,3.6s3.5-1.4,3.6-3.3c0.1-1.9-1.4-3.5-3.3-3.6H32.9z"/>
	<path style="fill:#1E1D21;" d="M32.9,19.3c-1.1,0-2.2,0.6-2.8,1.5c0.4,0.1,0.7,0.4,0.7,0.8c0,0.5-0.4,0.9-0.9,0.9c0,0,0,0,0,0l0,0
		c-0.1,0-0.2,0-0.3,0l0,0c-0.1,1.8,1.4,3.3,3.2,3.4c1.8,0.1,3.3-1.4,3.4-3.2c0.1-1.8-1.4-3.3-3.2-3.4L32.9,19.3L32.9,19.3z"/>
	<path style="fill:#D9C38D;" d="M23.9,28c0,0,0.2,3,2,4.4s2.6-0.4,2.6-0.4c0.1-0.3,0.2-0.6,0.2-0.9c0-0.2-0.1,0.1-0.1,0.1
		s0,1.2-1.5,0.9c-1.1-0.4-2-1.2-2.4-2.4c-0.3-0.6-0.7-2.1-0.7-2.1S23.9,27.5,23.9,28z"/>
	<path style="fill:#A18437;" d="M31.1,5.7c0.4,1.6,0.4,3.3,0.2,5c-0.5,2.3-0.5,3-2.8,3.1s-9.6-0.2-9.6-0.2s10.9,1.3,11.7,1.8
		s1.5,1,1.2,1.2s12.6,4.3,12.6,4.3l0,0c0.1-0.2-0.2-0.5-0.5-0.8c-1-0.9-5.3-2.2-5.4-2.5s-0.3-7.6-0.8-9S34.5,6.2,31.1,5.7z"/>
	<path style="fill:#A18437;" d="M16.7,26.1c0,0-2,0.7-1-4.8c0.5-3.2,3.5-5.4,6.7-4.9c0.3,0,0.6,0.1,0.9,0.2c1.6,0.7,2.6,2.2,2.7,3.9
		c0.4,2.5,0.2,4.3-1.1,5.7c-0.4-0.1-0.8-0.2-1.2-0.2c0.8-0.7,1.3-1.6,1.4-2.6c0.4-2.3-1.1-4.5-3.4-5c-2.3-0.6-4.7,0.6-5.7,2.7
		C15.8,22,15.2,25.3,16.7,26.1z"/>
	<path style="fill:#D9C38D;" d="M15.6,23.6v-0.1c0-0.7,0.4-4.4,3.7-5.4c2.3-0.9,4.8,0.2,5.7,2.5c0,0,0,0,0,0l0.1,0.2
		c-0.6-0.6-1.9-2.4-6.1-0.9c-1.5,0.9-2.6,2.4-3,4.1C15.4,25.6,15.6,23.6,15.6,23.6z"/>
	<path style="fill:#FFFFFF;" d="M15.8,24c0.2-2.3,1.9-4.2,4.1-4.7c3.9-1,5.1,1.5,5.1,1.5c0.8,1.9,0.2,4.1-1.4,5.3
		c-2.8,2.5-6.7,0.1-7.1-0.2C16,25.4,15.7,24.7,15.8,24z"/>
	<path style="fill:#BC9738;" d="M21.1,28.8c0.6-0.5,1.6-0.7,2.2-1.1c1.2-0.9,2.6,1.1,3.5,0.8c0.7-0.2-1.1-2.5-2.4-2.6
		c-1.5,0-3,0.1-4.4,0.5c-1.9,0.5-3.2,0.3-4.2-0.8c-0.3-0.4-0.9-0.5-1.3-0.2c-0.2,0.1-0.3,0.3-0.3,0.4l-0.3,0.4
		C12.8,27.8,20.1,29.5,21.1,28.8z"/>
	<path style="fill:#A18437;" d="M20.7,19.6c-1.3,0-2.4,0.7-3.1,1.7c0.4,0.1,0.8,0.4,0.7,0.9c-0.1,0.4-0.4,0.8-0.9,0.7
		c-0.1,0-0.2,0-0.3-0.1v0.2c0,1.9,1.5,3.6,3.4,3.6c1.9,0,3.6-1.5,3.6-3.4C24.2,21.3,22.7,19.7,20.7,19.6L20.7,19.6L20.7,19.6z
		 M19.2,23c-0.4-0.1-0.7-0.4-0.8-0.7c0-0.3,0.2-0.5,0.5-0.5l0,0l0,0c0.2,0,0.5,0,0.7,0.1C20.1,22,19.5,23,19.2,23z"/>
	<path style="fill:#CCB06A;" d="M25.6,27.7c0.6,0.2,1.2,0.3,1.8,0.2c0.4-0.1,0.8-0.1,1.2-0.3c0,0,0.3,0.3-0.1,0.6
		c-0.9,0.5-2,0.5-2.9-0.1C24.4,27.3,25.6,27.7,25.6,27.7z"/>
	<path style="fill:#786333;" d="M24.1,27.3c0.5-0.3,1.4,1.1,2.6,1.2c0.7,0.2,1.5,0,2-0.5c0,0,0.8,3.7-0.6,4.1c-2.9,0.5-4-4.5-4-4.5
		S23.6,27.6,24.1,27.3z"/>
	<path style="fill:#786333;" d="M40.1,19.8l0.3,2c0,0,3.6-0.1,4-0.7s-4.3-1.7-4.3-1.7L40.1,19.8z"/>
	<path style="fill:#C7A757;" d="M21.1,45.2c0.5,1.3,1.8,2.1,5.1,2.1c3.6-0.3,5.3-2.1,5.5-2.6c0.7-1.7-0.8-2.7-2.9-2.2
		S27,43.9,23.7,43C21.3,42.3,20.7,44,21.1,45.2z"/>
	<path style="fill:#A18437;" d="M24.6,28c0.3,1.1,0.9,2.2,1.7,3.1c1.1,0.9,1.8,0.5,1.9,0.5c0.2-0.3,0.4-0.7,0.4-1.1
		c0-0.7,0-1.5-0.1-2.2c-0.5,0.6-1.2,0.8-1.9,0.5C25.2,28.4,25,28,25,28S24.6,27.7,24.6,28z"/>
	<circle style="fill:#FFFFFF;" cx="31.7" cy="21.8" r="0.6"/>
	<path style="fill:#1E1D21;" d="M20.7,19.8c-1.2,0-2.3,0.6-2.9,1.7c0.4,0.1,0.7,0.4,0.6,0.9C18.3,22.7,18,23,17.5,23
		c-0.1,0-0.1,0-0.2-0.1v0.2c0,1.8,1.4,3.4,3.3,3.4S24,25,24,23.2C24,21.4,22.6,19.8,20.7,19.8L20.7,19.8z M19.1,22.8
		c-0.3,0-0.5-0.2-0.5-0.5s0.2-0.5,0.5-0.5c0.3,0,0.5,0.2,0.5,0.5l0,0l0,0C19.6,22.6,19.3,22.8,19.1,22.8L19.1,22.8z"/>
	<path style="fill:#786333;" d="M13,15.2c2.6-0.3,11.3-0.5,17.3,1s13.6,4.2,13.9,4.3c0.2,0,0.3,0.2,0.2,0.4c0,0,0,0.1-0.1,0.1
		L37,18.7c0,0-8.3-2.6-13.6-3s-9.4-0.5-10.9,0c-0.3,0.1-0.5,0.3-0.6,0.5C11.6,16.7,9.9,15.6,13,15.2z"/>
	<path style="fill:#786333;" d="M24.3,49.6c0,0,0.5,1.2,2.7,1.4c0.4,0,0.8,0,1.3,0c1-0.1,1.9-0.3,2.8-0.8v-0.7
		C31,49.4,29,50.2,24.3,49.6z"/>
	<polygon style="fill:#A18437;" points="18.1,16.2 16.5,18.3 12.1,16.6 13.6,15.6 	"/>
	<path style="fill:#786333;" d="M11.6,16.6c7.7-1,15.4-0.4,22.9,1.5c12.3,3.3,5.2,1.4,5.2,1.4s-11.5-4-18.1-4.2s-9.1-0.1-10.1,0.4
		C11,16,11.6,16.6,11.6,16.6z"/>
	<path style="fill:#BC9738;" d="M9.1,30c0,0,0.8-0.6,0.6-1s-1.2-1.5,0-1.9c1.3-0.4,1.7,2.5,1.5,3s-0.8,1-0.8,1.2s0.7,0.8,1.3,0.9
		s0,1.7,0,1.7L9,31.9L9.1,30z"/>
	<path style="fill:#786333;" d="M11.3,15.8c0,0-0.6,0.3,0.3,1.1c1.4,0.8,2.9,1.4,4.5,1.5c1.2,0.1-1.5-0.7-2.6-1.2
		c-0.9-0.4-1.3-0.5-1.3-0.8C12.2,16,11.8,15.7,11.3,15.8z"/>
	<polygon style="fill:#786333;" points="26.7,28.7 26.8,29.6 26.8,29.6 26.8,28.7 	"/>
	<path style="fill:#BC9738;" d="M28.6,30.1c-0.1-0.2-0.4-0.7-1.5-0.8c-0.7-0.1-1.4,0.3-1.5,1c0.2,0.3,0.4,0.6,0.7,0.8
		c0.3,0.3,0.7,0.5,1.2,0.6h0.2c0.2,0,0.3-0.1,0.5-0.2c0.2-0.3,0.4-0.7,0.4-1.1C28.6,30.4,28.6,30.2,28.6,30.1z"/>
	<path style="fill:#786333;" d="M25.7,28.4v0.9c0,0.3,0,0.6,0.3,0.7c0.2,0,0.5,0,0.7-0.2c0.1-0.1,0.1-0.2,0.1-0.2v-0.9L25.7,28.4
		L25.7,28.4z"/>
	<path style="fill:#786333;" d="M26.8,29.3c-0.1,0.3,0.1,0.6,0.5,0.7c0.2,0,0.4,0,0.5-0.2c0.1-0.1,0.1-0.2,0.1-0.3
		c0.1-0.3,0.1-0.7,0-1h-1.1C26.8,28.8,26.8,29.1,26.8,29.3z"/>
	<path style="fill:#FFFFFF;" d="M26.8,28.8L26.8,28.8l-0.3-0.1c-0.3-0.1-0.5-0.1-0.7-0.3c0,0.5,0,0.9,0.1,1.3c0.2,0.1,0.5,0.1,0.7,0
		c0.1-0.1,0.2-0.2,0.2-0.3c0,0,0.2,0.5,0.6,0.5s0.5-0.2,0.5-0.6v-0.6C27.5,28.8,27.2,28.8,26.8,28.8z"/>
	<path style="fill:#A18437;" d="M47.9,28.9c-0.2,0.4-0.7,0.7-1.2,0.6h-0.2c-0.1,0.5-0.1,1.1,0,1.6c0.4-0.3,0.9-0.4,1.3-0.3
		c0-0.1,0-0.2,0-0.4c0-0.2,0.5-0.5,0.5-0.7C48.4,29.4,48.2,29,47.9,28.9z"/>
	<path style="fill:#A18437;" d="M15.8,25.1c0.4,0.7,1.1,1.2,1.9,1.4c1.3,0.3,5.8-1.3,7.3-0.5l0.4,0.2c-0.3-0.1-0.7-0.2-1-0.3
		c-0.9,0-1.8,0.1-2.7,0.3c-1.6,0.4-4.2,0.9-5.6-0.2C15.8,25.9,15.7,25.5,15.8,25.1z"/>
	<polygon style="fill:#786333;" points="26.7,28.8 26.8,29.6 26.8,29.6 26.9,28.8 	"/>
	<path style="fill:#A18437;" d="M11.8,32.1l-0.3,1.8c-0.8-0.6-1.6-1.2-2.3-1.8c0-0.1-1.8,1-2.3-0.4c-0.4-0.9-0.4-2,0.1-2.8
		c0.3-0.6,1.2-2.1,1.5-0.5c0.1,0.4,0.4,1.4,0.9,1.3c0.2,0,0.4-0.2,0.4-0.5c0-0.1,0-0.1-0.1-0.2l-0.2-0.3c1.1,1.3,1.3-0.1,1.5,0.6
		c0.1,0.4,0.5,1.1-0.3,1.8C9.7,31.8,11.8,32.1,11.8,32.1z"/>
	<path style="fill:#786333;" d="M49.6,30.2c0.4-0.4,0.5-1,0.2-1.5c-0.2-0.4-0.7-0.7-1.1-0.5c-0.2,0.1-0.3,0.2-0.4,0.4
		c-0.1,0.3,0,0.7,0.1,1l0.2,0.3c-0.1-0.4-0.2-0.7-0.1-1.1c0.2-0.3,0.6-0.3,0.9-0.1c0.3,0.1,0.5,0.5,0.4,0.8
		C49.7,29.7,49.7,29.9,49.6,30.2z"/>
	<path style="fill:#BC9738;" d="M47.9,30.1c0,0,0.2-0.6,1.1-0.4s0.7,1.4,0.6,1.6c-0.2,0.3-0.5,0.5-0.9,0.5
		C48.4,31.8,47.5,31.4,47.9,30.1z"/>
	<path style="fill:#786333;" d="M47.8,30.5c0,0,0-0.5,0.7-0.8c0.5-0.2,1,0,1.2,0.5v0.1c0.1,0.3,0.1,0.5,0,0.8c0,0-0.1-0.9-0.4-1
		c-0.3-0.2-0.7-0.2-1.1,0c-0.3,0.2-0.5,0.8,0,1.7C47.9,31.4,47.7,30.9,47.8,30.5z"/>
	<path style="fill:#786333;" d="M49.7,31c0,0,0,0.7-1.2,0.9c-0.6,0-1,0.5-1,1.1c0,0.1,0,0.2,0,0.3c0,0-0.1-0.1-0.1-0.4
		c0-0.6,0.4-1,1-1c0.5,0,1-0.3,1.2-0.7c0-0.2,0-0.4,0-0.6h0.1V31z"/>
	<path style="fill:#786333;" d="M46.5,31c0.4-0.3,0.9-0.5,1.4-0.3C47.9,30.5,46.7,30.3,46.5,31z"/>
	<path style="fill:#786333;" d="M21.5,28.6c0.6-0.6,1.4-1.1,2.2-1.4c0.4-0.1,0.9,0,1.2,0.3c0,0-0.5,0.1-0.9,0.1
		c-0.6,0.2-1.2,0.5-1.8,0.8C21.9,28.5,21.7,28.5,21.5,28.6z"/>
	<path style="fill:#786333;" d="M7.7,31.2c0,0,0.7-1.9,1.3-1.8l0.9,0.1c0,0,0.1,0.1-0.3,0.1c-0.3-0.1-0.7,0-0.9,0.2
		C8.5,30.1,7.8,31.2,7.7,31.2l-0.1,0.2L7.7,31.2z"/>
	<path style="fill:#D9C38D;" d="M10.9,36.4c0,2.3,0.5,4.5,1.5,6.5c1.6,3.1,2.6,3.6,3.9,4.3c-0.9-1-3.4-3.7-4.1-6.2
		c-0.4-1.4-0.5-2.8-0.3-4.2L10.9,36.4z"/>
	<path style="fill:#C7A757;" d="M6.1,29.8c0,0-0.4-1.3,0.6-1.4s1,1.1,0.6,1.4C6.9,29.9,6.5,29.9,6.1,29.8z"/>
	<path style="fill:#786333;" d="M9.3,28.2c-0.1-0.3-0.1-0.7,0.2-0.9c0.2-0.2,0.6-0.2,0.8-0.1c0.4,0.1,0.6,0.8,0.6,0.8
		c-0.2-0.2-0.4-0.4-0.6-0.6c-0.3-0.1-0.6-0.1-0.8,0.1c-0.2,0.2-0.2,0.4-0.1,0.6c0.1,0.2,0.4,0.8,0.4,0.8c0-0.1-0.1-0.2-0.2-0.2
		C9.4,28.5,9.3,28.4,9.3,28.2z"/>
	<path style="fill:#C7A757;" d="M7.6,28.3c0,0,0.2-0.8,0.4-0.6s0.1,0.6,0.7,0.4s1.1-1.5,0.3-1.6c-0.9-0.2-1.7,0.4-2,1.3
		c-0.1,0.8,0.2,0.9,0.2,0.9l0.4,0.2L7.6,28.3z"/>
	<path style="fill:#786333;" d="M7.1,28.4c0.2,0.1,0.3,0.4,0.4,0.6c0,0.1,0,0.3,0,0.4c0,0,0.1,0.2,0.2-0.1S7.6,28.4,7.1,28.4z"/>
	<path style="fill:#786333;" d="M7.6,28.9c0-0.3,0.1-0.7,0.2-1c0-0.1,0.1-0.2,0.2-0.2c0.1,0,0.2,0.1,0.2,0.2
		c0.1,0.2,0.1,0.2,0.3,0.2l0,0c0,0-0.1,0-0.2-0.1s-0.1-0.3-0.3-0.3S7.7,27.8,7.6,28s-0.1,0.7-0.1,0.7V29L7.6,28.9z"/>
	<path style="fill:#786333;" d="M8.9,26.4c0.3,0,0.5,0.2,0.6,0.4c0.1,0.4-0.1,0.8-0.4,1.1c-0.2,0.1-0.4,0.2-0.6,0.2
		c-0.1,0-0.1-0.1-0.1,0c0.2,0,0.4-0.1,0.6-0.2c0.2-0.1,0.3-0.3,0.3-0.5c0.1-0.2,0.1-0.4,0-0.6c-0.1-0.2-0.1-0.3-0.4-0.3
		c-0.2,0-0.3,0-0.5,0C8.3,26.5,8.2,26.4,8.9,26.4z"/>
	<path style="fill:#786333;" d="M7.1,28.4c-0.2-0.4-0.2-0.9,0.1-1.2c0.3-0.5,0.9-0.8,1.4-0.8v0.1c-0.3,0-0.5,0.1-0.7,0.2
		c-0.2,0.1-0.4,0.3-0.6,0.5c-0.1,0.2-0.2,0.3-0.3,0.5c0,0.2,0,0.4,0,0.5C7.1,28.3,7.1,28.4,7.1,28.4L7.1,28.4z"/>
	<path style="fill:#A18437;" d="M34.2,29.6c1.5,1.7,8,4.8,0.2,7.5c-2.5,0.9-3.8,8.4-2.8,9.2s7.5-0.7,8.4-1.6c2-1.7,3.1-4.1,3.2-6.7
		c-0.1-7.7-1.3-7.1-2.3-10C39,22.1,33.1,28.3,34.2,29.6z"/>
	<path style="fill:#786333;" d="M40.5,21.4c0,0,0.1,2.9,0.2,3.1c1,2.1,1.9,4.2,2.7,6.4c0.4,1.2,0.7,2.5,0.9,3.8
		c0.2,0.7,0.5,1.1,1,0.7s1.6-1.1,1.8-1.9s0.2-1.6,0.8-1.8l0.5-0.1l0.2,0.1c-0.4,0-0.7,0.3-0.8,0.6c-0.2,0.6,0.1,2-0.7,3
		s-2.5,2.5-2.5,2.5c-0.2,1.6-0.6,3.1-1.1,4.5c-0.5,1-2.2,4.8-6.7,5c-1.2,0-7.5,3.1-11.6,2c-1.6-0.2-3.1-0.7-4.5-1.4
		c-1.7,0.1-3.4-0.6-4.4-2c-0.3-0.4,0.5-0.6,0.9-0.2c1.1,0.9,2.5,1.3,3.8,1.2c0.4,0.1,0.7,0.2,1.1,0.4c0.4,0.1,8,2.2,11-0.8
		c1.2-0.4,2.4-0.6,3.7-0.6c1.8-0.5,3.9-1.2,5-3c1-1.3,1.5-2.8,1.6-4.4c0.1-0.6,0.2-1.1,0.5-1.6c-0.2-2.3-0.6-4.6-1.3-6.8
		c-0.5-1.3-1.1-2.6-1.8-3.7c-0.9-0.6-0.9-2.2-0.8-2.9s-0.1-2-0.7-2.2c-0.6-0.4-1.2-0.8-1.8-1.3c-0.8-0.7-1.6-1.4-2.5-1.9
		c1.6,0.4,5.5,1.5,5.9,1.6C40.6,20.3,40.5,21.4,40.5,21.4z"/>
	<path style="fill:#C7A757;" d="M7,31.9c0.3,0.4,0.8,0.6,1.3,0.4c0.1,0.5,1,0.9,1.6,1.3s1.4,0.7,1.4,1.5v1.3
		c-0.9-0.2-1.8-0.7-2.4-1.3C8.1,34.1,7.5,33.1,7,31.9z"/>
	<path style="fill:#C7A757;" d="M24.6,26c0,0,0.8,1-0.3,1.2s-1.4-0.3-3,0.8c-1.4,0.2-0.5,0.5-2.1,0.2c-0.9,0.4-1.4,1.3-1.3,2.2
		c0.1,1-1.4,1.6-2.4,1.9c-0.6,0.1-0.6,0.6-0.8,1.3s-0.4,3.8,0.5,4.8c0.4,0.6,1.1,0.9,1.8,0.8c0,0-0.1,1.8,1.1,2.3s4.5,1.3,4.5,1.3
		l0.3,4.1c-0.7-0.1-1.3-0.4-1.9-0.7c-0.6-0.1-6.2-0.1-8.8-4.4c-1.3-3.2-1.5-6.7-0.6-10.1c0.6-2.2,1.3-4.8,2.3-5.9
		c0-2,0.4-3.9,1.3-5.7c0.8-1.3,1.1-1.8,1.1-1.8s0.4-0.1,0.3,0.3c-0.8,1.3-1.2,2.8-1.3,4.4c0,1.8-0.4,3.2,0.5,3.6
		c1.1,0.4,2.3,0.5,3.5,0.2l2.7-0.5C23,26,23.8,26,24.6,26z"/>
	<path style="fill:#D9C38D;" d="M14.5,26.3c-0.4,0.5-0.7,1.1-0.9,1.8c0,0.6,1.6,1.8,2.2,1.9c0.6,0.1,0.6,0.1,0.6-0.1
		s0.6-1.5,1.1-1.7c0.4-0.1,0.6-0.4,0.5-0.8c-0.1-0.4-0.4-0.6-0.8-0.5c-0.8,0-1.6-0.3-2.3-0.7C14.6,26,14.5,26.3,14.5,26.3z"/>
	<path style="fill:#CCB06A;" d="M20.4,26.7c0,0-0.4,1.3,0.5,1.1c0.7-0.3,1.4-0.5,2.2-0.6c0.6,0,0.7-0.3,0.5-0.5
		c-0.3-0.4-0.9-0.6-1.4-0.5C21.5,26.3,20.9,26.4,20.4,26.7z"/>
	<path style="fill:#D9C38D;" d="M30,17.6c-0.9,0.1-1.6,0.8-1.8,1.6c-0.4,1.4-0.3,2.9,0.3,4.2l0.2,0.1c0,0-1-3.8,1.7-4.6
		c1.2-0.4,2.5-0.4,3.8,0c0.6,0.2,1.3,0.5,1.8,0.9c-0.8-0.7-1.8-1.2-2.8-1.6C32.1,17.8,31.1,17.6,30,17.6z"/>
	<path style="fill:#CCB06A;" d="M23.3,42.9c-0.7-0.3-1.5-0.1-2,0.5c-0.9,1-0.1,2.9,1.5,3.4s2.2,0.6,2.9,0c0.6-0.9,0.6-2,0-2.9
		c-0.3-0.3-0.7-0.6-1.1-0.7C24.1,43.1,23.6,43,23.3,42.9z"/>
	<path style="fill:#CCB06A;" d="M11.3,15.7c0,0,0-0.8,3-1.3c3.9,0,7.8,0.3,11.7,0.8c1.7,0.3,2.4,0.7,1.7,0.6
		c-4.1-0.6-8.3-0.8-12.5-0.6C13.3,15.2,12.2,15.2,11.3,15.7z"/>
	<path style="fill:#786333;" d="M28.7,50.7c0,0-0.2,7.3,0,7.4c0.5,0.1,1,0.1,1.6,0c0.2-0.2,0-7.9,0-7.9L28.7,50.7z"/>
	<path style="fill:#BC9738;" d="M25.4,51c0.8,0.2,1.5,0.3,2.3,0.4c0.2,0.4,0.4,0.2,0.4,1.2v5.8c0,0-1.4,1.9-2.3,1.9
		s-3.3,0.3-3.7,0.2s0.4-0.8,1.2-1.2c0.6-0.3,1.2-0.7,1.8-1.1C25,58.3,24.7,50.3,25.4,51z"/>
	<path style="fill:#D9C38D;" d="M26.1,52.5c-0.2,0-0.1,4.9-0.1,5.7c-0.3,0.4-3,1.7-3.4,2.1c-0.1,0.2,0.1,0.2,0.4,0.2s9.1,0.1,9.3,0
		s1-0.4-7.4-0.4c-0.3-0.2-0.2-0.3,0.3-0.6s1.9-1.1,1.9-1.1v-4.7C27,53.7,27,52.3,26.1,52.5z"/>
	<path style="fill:#786333;" d="M39.6,19.3c0,0,0.3,0,0.4,1.4c0,1.3,0.1,2.7,0.2,4c0.1,0.2,0.1,0.4,0.2,0.7c0.2,0.6,0.5,1.2,0.9,1.7
		c0.8,1.4,1.3,3,1.7,4.5c0.2,0.7,0.4,1.3,0.9,1.8c0.2,0.2,0.8,3.8,0.3,4.1s-0.9,3.9-0.9,3.9s-0.8,3.6-3.8,5.1c-1,0.4-2,0.7-3.1,0.7
		c-0.6-0.1-1.2,0-1.8,0.3c-2,0.8-4.2,1.4-6.3,1.7c-1.4,0.1-2.9,0-4.3-0.2c-1.2-0.2-2.4-0.5-3.5-1c1.1,0.9,2.4,1.5,3.7,1.6
		c2.3,0.3,5.5,1.6,11.1-1.9c1.9,0.1,3.7-0.5,5.3-1.5c2.1-1.5,3.6-4.7,3.7-8.3c0-0.1,1-0.8,1.8-1.5c0.7-0.6,1.2-1.4,1.3-2.3
		c0.3-1.1-0.1-1.3,0.3-1.8c0.2-0.3,0.6-0.5,1-0.5H48c-0.4,0.1-0.7,0.4-0.7,0.8c0,0.7-0.1,1.4-0.3,2.1c-0.2,0.5-0.6,1-1,1.4
		c-0.5,0.5-1.7,1.3-1.7,1.3s-0.1-3.4-0.3-4.4c-0.6-2-1.2-4-2-5.9c-0.3-0.7-0.6-1.4-1-2.1c-0.4-0.9-0.6-1.9-0.6-2.8
		c-0.1-0.8-0.4-3-0.4-3H39.6z"/>
	<path style="fill:#786333;" d="M31,50.1V58c0,0-1.4-0.1-1.5,0c-0.3-2.4-0.4-4.8-0.4-7.2C29.3,50.7,31,50.1,31,50.1z"/>
	<path style="fill:#786333;" d="M29.5,58.2c0,0,2.3,0.5,2.7,1.3c0.3,0.4,0.4,0.9,0.6,1.3h1.3c0,0,0-2-3.1-2.7
		C29.9,57.8,29.5,58.2,29.5,58.2z"/>
	<path style="fill:#A18437;" d="M23.4,49.4c0,0,4.6,1.6,8.4,0c1.3-0.5,2.5-1.1,3.7-1.7c1.3,0,2.6-0.3,3.9-0.8
		c0.6-0.4,0.8-0.7,0.2-0.4c-1.3,0.5-2.7,0.7-4.1,0.7c-0.4,0.1-0.8,0.2-1.1,0.5c-0.3,0.2-4,2.3-7.4,2C24.9,49.5,22.6,48.9,23.4,49.4z
		"/>
	
		<ellipse transform="matrix(0.8332 -0.553 0.553 0.8332 -19.3388 16.2081)" style="fill:#A18437;" cx="17.2" cy="40.2" rx="0.9" ry="1"/>
	
		<ellipse transform="matrix(0.7702 -0.6378 0.6378 0.7702 -22.9918 22.0031)" style="fill:#A18437;" cx="19" cy="42.9" rx="0.7" ry="1"/>
	
		<ellipse transform="matrix(0.9311 -0.3647 0.3647 0.9311 -14.876 10.6237)" style="fill:#A18437;" cx="20.7" cy="44.7" rx="0.6" ry="0.8"/>
	
		<ellipse transform="matrix(0.9311 -0.3647 0.3647 0.9311 -13.7867 11.5395)" style="fill:#A18437;" cx="23.7" cy="42.3" rx="0.6" ry="0.7"/>
	<path style="fill:#FFFFFF;" d="M34.7,42.2l0.8,1.3c1.1,0,2.1-0.1,3.2-0.3c0.5-0.2-0.3-0.9-0.7-1.7s-2.2-5.9-2.2-5.9l-2.2,0.5
		L34.7,42.2z"/>
	<path style="fill:#CE3638;" d="M34.8,41.7l0.9,1.3h2.5c0,0-1.7-2.8-1.8-4c-0.1-0.7-0.3-1.5-0.6-2.2L34,37.6L34.8,41.7z"/>
	<path style="fill:#CE3638;" d="M14,35.3c0,0-1.4-0.3-1.7,0.9s-0.5,1.9,2.5,2.7c2,0.5,7.3,2,11.7,1.9s11.3-1.6,13.3-2.8
		s2-0.9,1.4-2.5s-2.5-0.4-3-0.3s-4.2,1.5-5.6,1.8c-3.7,0.5-7.5,0.5-11.2,0.1C19,36.7,16.5,36.1,14,35.3z"/>
	<path style="fill:#FFFFFF;" d="M12.6,37.5l1.1,0.4l-0.4-0.7L12.6,37.5z"/>
	<path style="fill:#FFFFFF;" d="M14.3,36.2l-1.1-0.4l0.4,0.7L14.3,36.2z"/>
	<path style="fill:#FFFFFF;" d="M17.7,37.2L16.9,37c-0.6,0.3-1.3,0.7-1.9,1l-0.4-0.8l1.2-0.6L15,36.4L13.8,37
		c0.2,0.4,0.4,0.8,0.7,1.2l0.8,0.3c0.7-0.3,1.3-0.6,1.9-1l0.4,0.7c-0.4,0.2-0.8,0.4-1.2,0.7l0.8,0.2c0.4-0.2,0.8-0.4,1.2-0.7
		C18.1,37.9,17.9,37.5,17.7,37.2z"/>
	<path style="fill:#FFFFFF;" d="M22.9,38h-0.7c-0.6,0.4-1.2,0.9-1.8,1.3l-0.5-0.7c0.4-0.2,0.7-0.5,1.1-0.8l-0.7-0.1l-1.1,0.7
		c0.3,0.4,0.5,0.7,0.8,1.1l0.8,0.1c0.6-0.4,1.2-0.8,1.7-1.3l0.5,0.6c-0.3,0.3-0.7,0.6-1.1,0.8l0.8,0.1c0.4-0.3,0.7-0.6,1-0.8
		C23.5,38.7,23.2,38.3,22.9,38z"/>
	<path style="fill:#FFFFFF;" d="M18.7,38.7L18.7,38.7L18,39.1h0.2l0.4,0.1h0.3h0.3l0,0L18.7,38.7z"/>
	<path style="fill:#FFFFFF;" d="M18.6,37.4h-0.2l0.4,0.6l0,0l0.6-0.4l-0.4-0.1H19L18.6,37.4z"/>
	<path style="fill:#FFFFFF;" d="M24,38.1h-0.2l0.5,0.6l0,0l0.6-0.5h-0.5L24,38.1z"/>
	<path style="fill:#FFFFFF;" d="M28.2,38.1h-0.7c-0.5,0.5-1,1-1.5,1.5L25.4,39l1-0.9h-0.8c-0.3,0.3-0.6,0.6-1,0.9
		c0.3,0.3,0.7,0.7,1,1h0.8c0.5-0.5,1-1,1.5-1.5l0.6,0.5l-0.9,1h0.8c0.3-0.3,0.6-0.7,0.9-1C28.9,38.7,28.6,38.4,28.2,38.1z"/>
	<path style="fill:#FFFFFF;" d="M24.2,39.4L24.2,39.4l-0.6,0.5h1.2L24.2,39.4z"/>
	<path style="fill:#FFFFFF;" d="M34.4,37.1l-0.2,0.1l0.7,0.4l0,0l0.4-0.7L35,37l-0.2,0.1L34.4,37.1z"/>
	<path style="fill:#FFFFFF;" d="M32.8,37.5c-0.4,0.6-0.8,1.2-1.3,1.7l-0.7-0.5l0.8-1l-0.7,0.1c-0.3,0.3-0.5,0.7-0.8,1
		c0.4,0.3,0.7,0.5,1.1,0.8l0.8-0.1c0.4-0.6,0.9-1.1,1.3-1.7l0.7,0.4c-0.2,0.4-0.5,0.7-0.8,1.1l0.8-0.2c0.3-0.4,0.5-0.7,0.8-1.1
		c-0.4-0.2-0.8-0.4-1.1-0.7L32.8,37.5z"/>
	<path style="fill:#FFFFFF;" d="M29.1,38H29l0.6,0.5l0,0l0.5-0.6h-0.5L29.1,38z"/>
	<path style="fill:#FFFFFF;" d="M35.1,38.3L35.1,38.3L34.7,39h0.2l0.4-0.1l0.3-0.1l0.2-0.1l0,0L35.1,38.3z"/>
	<path style="fill:#FFFFFF;" d="M29.7,39.3L29.7,39.3l-0.5,0.6h1.1L29.7,39.3z"/>
	<path style="fill:#FFFFFF;" d="M40.3,35.1l-1,0.4l0.7,0.3L40.3,35.1z"/>
	<path style="fill:#FFFFFF;" d="M37.9,36.1c-0.3,0.7-0.6,1.3-1,1.9l-0.8-0.4c0.2-0.4,0.4-0.8,0.6-1.2L36,36.7
		c-0.2,0.4-0.4,0.8-0.7,1.1c0.4,0.2,0.8,0.4,1.2,0.6l0.8-0.2c0.4-0.6,0.7-1.3,1-1.9l0.7,0.3c-0.2,0.4-0.4,0.8-0.6,1.2l0.7-0.3
		c0.2-0.4,0.4-0.8,0.6-1.2l-1.2-0.5L37.9,36.1z"/>
	<path style="fill:#FFFFFF;" d="M40.3,36.5L40,37.2l1-0.5L40.3,36.5z"/>
	<path style="fill:#FFFFFF;" d="M32.9,36.4c0,0-2.1,7.5-2.9,8.9c1.7-0.1,3.5-0.4,3.8-0.7s1.5-3.3,2-8.2v-0.6l-2.3,0.5L32.9,36.4z"/>
	<path style="fill:#CE3638;" d="M30.7,44.8l2.6-0.5c1-2.7,1.7-5.5,1.9-8.4l-1.9,0.4C33.4,36.3,31.7,43.3,30.7,44.8z"/>
	<path style="fill:#C7A757;" d="M33.5,27.6c-0.6,0.5-0.6,1.4-0.1,2c0.1,0.1,0.2,0.2,0.3,0.2c1.4,1,3.7,0.2,4.8-0.2s1-4.2-0.3-3.7
		C35.8,26.9,33.5,27.6,33.5,27.6z"/>
	<path style="fill:#BC9738;" d="M37.9,26.1c0,0-1.3,0.1-1,0.7s1.3,2.1,0.7,3.3c0.8-0.1,1.4-0.6,1.7-1.3c0.4-1.1,0.8-2.1,0-2.6
		C38.8,25.9,38.3,25.9,37.9,26.1z"/>
	<path style="fill:#A18437;" d="M40.1,19.8c0,0,0.2,1.4,0.3,2s0.4,2.5,0.4,2.7c-0.3,0-0.3-0.1-0.4-0.6c-0.1-1.3-0.3-2.7-0.6-4
		C39.6,19.7,39.7,19.1,40.1,19.8z"/>
	<path style="fill:#D9C38D;" d="M11.1,37.3c0,0-3.2-1.6-3.8-3.2c-0.3-0.9-0.7-1.7-1.1-2.5c-0.4-0.7-0.6-1.5,0-1.9
		c0.8-0.5,1.9,0,1.9,0.5c0.1,0.4-0.2,0.8-0.6,0.9c0,0,0,0,0,0H7.3c-0.6,0-0.5-0.5-0.5,0.2s1.7,4.5,4.1,5S11.1,37.3,11.1,37.3z"/>
	<path style="fill:#786333;" d="M6.1,29.8c0.5-0.3,1.1-0.3,1.5,0C8,29.9,8.2,30.3,8,30.6C8,30.8,7.9,30.9,7.7,31
		c-0.3,0.2-0.6,0.2-0.9,0c0.2,0.2,0.6,0.3,0.9,0.1c0.3-0.2,0.6-0.5,0.5-1C8,29.7,7.5,29.4,7,29.4C6.7,29.3,6.3,29.4,6.1,29.8
		L6.1,29.8z"/>
	<path style="fill:#BC9738;" d="M23.2,5.9c0,0-2-0.2-2.5,1.5l-1.5,5.3c0,0,7,0.8,8.2,0s1.3-4.8,1.1-5.4s0-1.3-0.8-1.4
		S23.2,5.9,23.2,5.9z"/>
	<path style="fill:#CCCECE;" d="M25.8,28.4V29c0.3,0.1,0.7,0.1,1,0.1c0-0.1,0-0.2,0-0.3C26.4,28.7,26.1,28.6,25.8,28.4z"/>
	<path style="fill:#CCCECE;" d="M26.9,28.8v0.3c0,0,1,0,1-0.1v-0.3C27.6,28.8,27.2,28.8,26.9,28.8z"/>
	<path style="fill:#786333;" d="M40.5,28c0,0,1.9,3.1,2,4.9c0.1,1.8,0.5,5,0,6.8c-0.6,1.8-1.4,3.4-2.5,4.9c-0.2,0.3-0.4,0.5-0.7,0.7
		c-0.3,0.8,3.3-1.2,4.2-4.4c0.7-2.4,0.8-5,0.5-7.4c-0.6-2.2-1.5-4.3-2.6-6.4l-0.8-1.3C40.5,26.5,40.4,27.3,40.5,28z"/>
	<polygon style="fill:#786333;" points="40.1,25.6 40.5,27.3 41,26.6 	"/>
</g>
</svg>
