<?xml version="1.0" encoding="utf-8"?>
<!-- Generator: Adobe Illustrator 22.0.0, SVG Export Plug-In . SVG Version: 6.00 Build 0)  -->
<svg version="1.1" id="Слой_1" xmlns="http://www.w3.org/2000/svg" xmlns:xlink="http://www.w3.org/1999/xlink" x="0px" y="0px"
	 viewBox="0 0 55.8 62.9" style="enable-background:new 0 0 55.8 62.9;" xml:space="preserve">
<title>Artboard 1 копия 24</title>
<g id="Слой_4">
	<path style="fill:#D04B4A;" d="M26.4,61.3h-2.7c-1,0-2.1,0-3.1-0.1h-1.4c-0.3,0-0.5-0.2-0.5-0.5c0-0.1,0-0.1,0-0.2l0.1-0.3
		c0.3-0.6,0.7-1.2,1.2-1.6c0.4-0.4,0.9-0.8,1.5-1.1c0.5-0.3,1.1-0.6,1.6-0.8l0.6-0.2l0.3-0.1l0.4-0.1c0-0.7,0-2,0-3.4
		c0-2.7,0-5.8-0.1-6.5v-1c-0.3,0-0.5-0.1-0.8-0.2c-0.3-0.1-0.5-0.2-0.8-0.3l0,0c-0.9-0.3-1.8-0.7-2.6-1.3c-0.7-0.5-1.2-1.1-1.6-1.8
		c-1.3-0.5-5.9-2.2-7.2-5c-0.9-1.6-1.3-3.4-1.4-5.2c-0.5-2.2-1.2-4.4-2.2-6.4c-0.7-1.2-1.7-2.2-3-2.8c-0.8-0.5-1.6-1-1.2-1.7
		c0.1-0.2,0.4-0.4,0.6-0.5c-0.1-0.1-0.1-0.2-0.2-0.3c-0.1-0.2-0.1-0.5,0.1-0.8c0.2-0.5,0.7-0.7,1.2-0.7c0.4,0,0.7,0.1,1,0.3
		c0.2,0.1,0.4,0.2,0.6,0.4c-0.1-0.1-0.1-0.3-0.1-0.4c0-0.6,0.4-1,1-1c0.3,0,0.5,0.1,0.7,0.2c0.5,0.3,0.9,0.8,1.1,1.4
		c0.4-0.3,0.9-0.5,1.3-0.5l0,0c0.5-0.1,1,0.2,1.3,0.6c0.2,0.4,0.1,0.8-0.2,1.1c-0.2,0.2-0.4,0.5-0.7,0.6L11,21.3c0,0,0,0.1,0,0.1
		c0.4,0.9,1,1.7,1.6,2.5c0.2-1.3,0.8-2.4,1.6-3.4c0.6-0.5,1.2-0.9,1.9-1.2l0.2-0.1c0.4-0.2,0.8-0.4,1.2-0.5l0.5-0.2l0.3-0.1
		c0.1-0.1,0.1-0.1,0.2-0.1l0,0c0.1,0,0.2-0.1,0.3-0.1c2.4-1.3,5.1-1.9,7.9-1.9c0.4,0,0.9,0,1.3,0c-0.1-0.9,0-1.8,0.4-2.6
		c0.1-0.2,0.3-0.3,0.5-0.3H29c0.2,0,0.4,0.2,0.4,0.5c0,0.4,0.2,1,0.3,1s0.8,0.4,1.3,0.6c-0.2-1,0.3-2,1.2-2.4c0.1,0,0.1-0.1,0.2-0.1
		c0.3,0,0.5,0.2,0.5,0.5c0,0.1,0,0.2-0.1,0.2c-0.2,0.3-0.3,0.7-0.3,1.1c0.2,0.2,0.3,0.3,0.5,0.4c0.6,0.4,1.1,0.9,1.5,1.6
		c0.2,0,0.4,0,0.6,0c0.2,0,0.5,0,0.8,0h0.2c0.4,0.1,0.8,0.1,1.3,0.1c0.9,0.1,1.9-0.3,2.3-1.2c0.1-0.2,0.3-0.3,0.5-0.3h0.1
		c0.2,0.1,0.4,0.3,0.4,0.5c-0.1,1.4-0.9,2.7-2,3.6h0.1c0.2,0,0.4-0.1,0.5-0.1c0.3-0.1,0.7-0.1,1-0.1c0.2,0,0.4,0,0.6,0.1
		c1.1,0.2,2.3,1.6,2.4,3.9c0,0.3-0.2,0.5-0.4,0.5h-0.1c-0.2,0-0.4-0.1-0.5-0.4c0,0-0.4-1.2-1.2-1.2c-0.2,0-0.4,0-0.5,0.1
		c-0.1,0.2-0.4,0.4-0.7,0.5l0.4,0.3c1.4,0.8,2.5,1.9,3.5,3.1c0.4-0.3,0.8-0.7,1.1-1.2l0,0c-0.2-0.6,0.3-1.3,1.2-2.4
		c0.1-0.3,0.3-0.5,0.6-0.7c0.1-0.1,0.2-0.1,0.3-0.1c0.2,0,0.4,0.1,0.5,0.3c1.5-2.7,2.2-3.6,2.8-3.6c0.1,0,0.2,0,0.3,0.1
		c0.3,0.1,0.5,0.4,0.6,0.7c0.1,0.4,0,0.9-0.1,1.3c0.4-0.2,0.8-0.4,1.3-0.4c0.4,0,0.8,0.2,0.9,0.6c0.2,0.5,0,1.2-0.5,1.5
		c0.1,0.1,0.1,0.2,0.2,0.4c0.2,1-1.2,1.4-2.7,1.8c-0.5,0.4-3.2,6-4,8.2c0,0.4,0.1,0.9,0.1,1.4c0.3,8.7-5.9,10.6-7.9,11l0,0l-0.2-0.5
		l0.1,0.5h-0.2L38,44.5l0.1,0.5l-0.7,0.1c-0.9,0.1-1.7,0.2-2.6,0.3h-0.6c-1,0-2.1-0.1-3.1-0.3c0,0.5,0,0.9,0,1.4l-0.2,9.9l0.4,0.1
		l0.3,0.1l0.6,0.1c0.6,0.2,1.2,0.4,1.8,0.7c0.6,0.3,1.1,0.6,1.6,1.1c0.3,0.2,0.5,0.5,0.7,0.7c0.2,0.3,0.4,0.6,0.5,0.9l0.2,0.4
		c0.1,0.3,0,0.5-0.2,0.7c-0.1,0-0.1,0-0.2,0h-0.5c-2.5,0.1-4.8,0.1-7,0.1L26.4,61.3z"/>
	<path style="fill:#FFFFFF;" d="M32.4,13.5c0,0-0.6,1.2-0.2,1.7c0.4,0.5,2,1.4,2,2.3c0.3-0.1,0.7-0.2,1-0.2c0.2,0,0.5,0,0.7,0
		c0.5,0.1,1,0.1,1.5,0.1c1.1,0.1,2.2-0.5,2.7-1.5c-0.2,1.8-1.4,3.3-3,3.9c0.5,0.1,1,0.2,1.5,0.2h0.3c0.5-0.1,1-0.2,1.5-0.2
		c0.2,0,0.3,0,0.5,0c0.9,0.2,1.9,1.3,2,3.4c0,0-0.4-1.6-1.7-1.6H41c-1.3,0.1-0.2,0.6-1.9,0.7h-0.1c0,0.1,0.1,0.1,0.1,0.2
		c0.3,0.6,3,1.5,4.9,4.4L44,27c0-0.1,0-0.3,0-0.3c0.6-0.5,1-1,1.4-1.6c0.1,0.5-0.1,0.9,0.3,1l0,0c0.5,0,3.6-7.1,4.6-7.1h0.1
		c0.9,0.5-0.3,2.3-0.3,2.4s0.1,0.2,0.2,0.2c0.1,0,0.1,0,0.1-0.1c0.6-0.5,1.2-0.8,2-0.9c0.2,0,0.4,0.1,0.5,0.3
		c0.3,0.8-1.2,1.5-1.2,1.5c0.1,0,0.2,0,0.3,0c0.2,0,0.5,0,0.6,0.3c0.1,0.5-0.7,0.8-2.3,1.2c-0.7,0.2-3.7,6.6-4.4,8.7
		c0,0.5,0.1,0.9,0.1,1.4c0.3,8.3-5.7,10.1-7.5,10.5h-0.1h-0.2H38l-0.7,0.1c-0.8,0.1-1.7,0.2-2.5,0.3h-0.6c-1.2,0-2.4-0.2-3.5-0.5
		c0,0.7,0,1.3-0.1,2l-0.2,10.4l0.9,0.1c0.3,0.1,0.6,0.1,0.9,0.2c0.6,0.2,1.2,0.4,1.7,0.6c0.6,0.3,1.1,0.6,1.5,1
		c0.2,0.2,0.5,0.4,0.7,0.7c0.2,0.2,0.4,0.5,0.5,0.8l0.2,0.4h-0.5c-2.3,0.1-4.6,0.1-6.9,0.1h-1.5c-1.4,0-2.8,0-4.2,0
		s-2.8-0.1-4.2-0.1h-0.3l0.1-0.3c0.2-0.5,0.6-1,1-1.4c0.4-0.4,0.9-0.7,1.4-1c0.5-0.3,1-0.5,1.6-0.7c0.3-0.1,0.5-0.2,0.8-0.3l0.7-0.2
		c0-1.1-0.1-9.1-0.1-10.3c0-0.5,0-1,0-1.4c-0.4,0-0.8-0.1-1.1-0.2c-0.3-0.1-0.6-0.2-0.8-0.3l0,0c-0.9-0.3-1.7-0.7-2.4-1.2
		c-0.7-0.5-1.2-1.1-1.6-1.8c-0.7-0.2-5.8-2-7.1-4.8c-0.8-1.5-1.3-3.3-1.3-5C9.7,29.5,9,27.2,8,25.1c-1.2-2.5-4.6-3.4-4.2-4
		c0.2-0.3,0.6-0.4,1-0.4c0.2,0,0.3,0,0.5,0l0,0h0.3c-0.4-0.2-1.6-0.7-1.3-1.3C4.4,19.2,4.7,19,5,19c0.3,0,0.5,0.1,0.8,0.2
		C6.2,19.4,6.7,20,7,20c0.1,0,0.2,0,0.2,0c0.3-0.3-0.1-0.9-0.1-1.2c0-0.3,0.2-0.5,0.5-0.5c0.2,0,0.3,0.1,0.5,0.1
		c0.5,0.4,0.9,1,1.1,1.7c0.5-0.4,1-0.6,1.6-0.8h0.1c0.5,0,1.1,0.3,0.6,0.9s-1,0.5-0.9,1.1c0.6,1.3,1.4,2.6,2.4,3.7
		c0.1-1.6,0.6-3.1,1.7-4.2c0.5-0.5,1.1-0.8,1.8-1.1l0.3-0.2c0.3-0.2,0.7-0.3,1-0.4l0.5-0.2l0,0l0.5-0.2h-0.1c0.2,0,0.3-0.1,0.5-0.2
		l0,0c2.4-1.2,5-1.9,7.6-1.9c0.4,0,0.9,0,1.3,0l0.7,0.1c-0.3-1-0.3-2.1,0.2-3c0,0,0,1.2,0.6,1.5s2.2,1,2.2,1S30.8,14.3,32.4,13.5
		 M47,22.3c0.1,0-0.2,0.2-0.5,0.6C46.6,22.6,46.7,22.5,47,22.3L47,22.3 M46.5,22.9c-0.3,0.7-0.7,1.4-1.1,2.1c0-0.1,0-0.2-0.1-0.3
		C45.2,24.3,46,23.4,46.5,22.9 M32.4,12.5c-0.2,0-0.3,0-0.5,0.1c-0.8,0.4-1.4,1.2-1.5,2.1L30,14.5c-0.1-0.2-0.1-0.4-0.1-0.6
		c0-0.5-0.3-0.9-0.8-1h-0.2c-0.4,0-0.8,0.2-0.9,0.6c-0.3,0.7-0.5,1.5-0.5,2.3h-0.8c-2.8,0-5.6,0.7-8.1,2l0,0c-0.1,0-0.1,0.1-0.2,0.1
		h0l0.1,0.4l-0.1-0.3L17.9,18l-0.3,0.1h-0.1c-0.4,0.1-0.8,0.3-1.2,0.5h-0.1l-0.3,0.1c-0.7,0.3-1.4,0.8-2,1.3
		c-0.7,0.7-1.2,1.6-1.5,2.5c-0.3-0.5-0.6-0.9-0.8-1.2c0.2-0.2,0.5-0.4,0.6-0.6c0.4-0.5,0.5-1.1,0.2-1.6c-0.3-0.6-1-0.9-1.7-0.9h-0.1
		c-0.4,0-0.8,0.2-1.1,0.4c-0.2-0.4-0.6-0.8-1-1.1c-0.3-0.2-0.6-0.3-1-0.3c-0.4,0-0.9,0.2-1.2,0.5c-0.1,0.1-0.2,0.3-0.2,0.4
		C5.9,18.1,5.5,18,5.1,18c-0.7,0-1.3,0.4-1.7,1c-0.2,0.4-0.3,0.8-0.1,1.2l0,0c-0.1,0.1-0.3,0.3-0.3,0.4c-0.7,1.1,0.5,1.9,1.4,2.4
		c1.2,0.6,2.1,1.5,2.8,2.6c0.9,2,1.6,4.1,2.1,6.3c0.1,1.9,0.5,3.7,1.4,5.4c1.3,2.8,5.8,4.6,7.3,5.2c0.4,0.7,1,1.3,1.7,1.8
		c0.8,0.6,1.7,1.1,2.7,1.4c0.3,0.1,0.6,0.2,0.8,0.3l0.4,0.1v0.6c0,0.7,0,3.9,0.1,6.5c0,1.2,0,2.3,0,3l0,0L23.5,56l-0.6,0.2
		c-0.6,0.2-1.2,0.5-1.7,0.8c-0.6,0.3-1.1,0.7-1.6,1.2c-0.5,0.5-1,1.1-1.3,1.7l-0.1,0.3c-0.2,0.5,0,1.1,0.5,1.3
		c0.1,0.1,0.2,0.1,0.4,0.1h0.3h1.1c1,0,2.1,0.1,3.1,0.1h2.7h3c2.2,0,4.4,0,7-0.1h0.5c0.6,0,1-0.5,1-1c0-0.1,0-0.3-0.1-0.4l-0.2-0.4
		c-0.2-0.4-0.4-0.7-0.7-1c-0.3-0.2-0.5-0.5-0.8-0.7c-0.5-0.5-1.1-0.8-1.8-1.2c-0.6-0.3-1.2-0.5-1.9-0.7L31.8,56l-0.3-0.1h-0.1
		l0.1-9.5c0-0.3,0-0.5,0-0.8c0.9,0.2,1.7,0.2,2.6,0.2h0.7c0.9,0,1.8-0.1,2.6-0.3l0.7-0.1h0.1h0.2l-0.1-1l0.2,1h0.1
		c1.9-0.4,3.6-1.2,5-2.5c2.3-2.1,3.4-5.1,3.3-9c0-0.4,0-0.8-0.1-1.3c1-2.7,2.3-5.4,3.8-7.9c1.3-0.4,3-0.9,2.8-2.3
		c0-0.1,0-0.1-0.1-0.2c0.5-0.5,0.6-1.2,0.3-1.8c-0.2-0.5-0.8-0.9-1.4-0.9c-0.2,0-0.4,0-0.6,0.1c0-0.2,0-0.4-0.1-0.6
		c-0.1-0.4-0.4-0.8-0.8-1c-0.2-0.1-0.3-0.1-0.5-0.1l0,0c-0.9,0-1.6,0.8-3,3.4c-0.1,0-0.2,0-0.3,0l0,0c-0.2,0-0.4,0.1-0.6,0.2
		c-0.3,0.2-0.6,0.5-0.7,0.9c-0.9,1-1.5,1.8-1.4,2.6c-0.1,0.2-0.3,0.4-0.5,0.5c-0.3-0.4-0.6-0.7-1-1.1H43c0.5-0.1,0.9-0.5,0.8-1
		c-0.1-2.6-1.5-4.1-2.8-4.4c-0.2,0-0.5-0.1-0.7-0.1h-0.3c0.6-0.9,1-2,1-3.1c0-0.5-0.3-0.9-0.8-1h-0.2c-0.4,0-0.7,0.2-0.9,0.6
		c-0.2,0.5-0.6,0.9-1.8,0.9c-0.4,0-0.8,0-1.2-0.1H36c-0.3,0-0.5,0-0.8,0h-0.3c-0.4-0.6-0.9-1-1.5-1.4l-0.3-0.3
		c0-0.2,0.1-0.5,0.2-0.7c0.2-0.5,0.1-1.1-0.4-1.3C32.7,12.6,32.6,12.6,32.4,12.5L32.4,12.5z M32.4,14.5L32.4,14.5z M40.9,22.8h0.2
		l0,0c0.3,0,0.6,0.4,0.7,0.7C41.4,23.2,41.1,23,40.9,22.8L40.9,22.8L40.9,22.8z"/>
	<path style="fill:#48A955;" d="M30.7,18.9c-1.8-0.7-2.8-2.7-2.1-4.5c0.1-0.2,0.1-0.3,0.2-0.5c0,0,0,1.2,0.6,1.5s2.2,1,2.2,1
		s-0.9-2,0.7-2.9c0,0-0.6,1.2-0.2,1.7c0.4,0.5,2,1.4,2,2.3c0.5-0.2,1.1-0.2,1.7-0.1c1.3,0.1,3.4,0.5,4.2-1.4c-0.2,1.8-1.4,3.3-3,3.9
		c0.6,0.1,1.2,0.2,1.7,0.2c0.6-0.2,1.3-0.3,2-0.2c0.9,0.2,1.9,1.3,2,3.4c0,0-0.5-1.7-1.8-1.6s-0.2,0.6-1.9,0.7S30.7,18.9,30.7,18.9z
		"/>
	<path style="fill:#C12F30;" d="M30.4,56.8V42.9h-5.4v13.9c-4.5,0.9-5.5,3.6-5.5,3.6l16.8-0.1C36.3,60.3,35.2,57.6,30.4,56.8z"/>
	<path style="fill:#99242C;" d="M30.3,56.8c-0.1-1.1-0.1-9.1-0.2-10.3s-0.1-2.4-0.1-3.6l0.3,0.3h-2.7c-0.9,0-1.8,0-2.7,0l0.3-0.3
		c0,1.2-0.1,2.3-0.1,3.5s-0.1,9.2-0.1,10.4v0.1l0,0.1l-0.8,0.2c-0.3,0.1-0.5,0.2-0.8,0.3c-0.5,0.2-1,0.4-1.5,0.7
		c-0.5,0.3-0.9,0.6-1.3,1c-0.4,0.4-0.7,0.8-0.9,1.3l-0.2-0.3c1.4-0.1,2.8-0.1,4.2-0.2s2.8-0.1,4.2-0.1c2.8-0.1,5.6-0.1,8.4,0
		L36,60.4c-0.1-0.2-0.2-0.5-0.4-0.7c-0.2-0.2-0.4-0.4-0.5-0.6c-0.4-0.4-0.9-0.7-1.4-1c-0.5-0.3-1.1-0.6-1.7-0.8
		c-0.3-0.1-0.6-0.2-0.8-0.3L30.3,56.8z M30.4,56.8l0.9,0.1c0.3,0.1,0.6,0.1,0.9,0.2c0.6,0.2,1.2,0.4,1.7,0.6c0.6,0.3,1.1,0.6,1.5,1
		c0.2,0.2,0.5,0.4,0.7,0.7c0.2,0.2,0.4,0.5,0.5,0.8l0.2,0.4h-0.5c-2.8,0.1-5.6,0.1-8.4,0.1c-1.4,0-2.8,0-4.2,0s-2.8-0.1-4.2-0.1
		h-0.3l0.1-0.3c0.3-0.5,0.6-1,1-1.4c0.4-0.4,0.9-0.7,1.4-1c0.5-0.3,1-0.5,1.6-0.7c0.3-0.1,0.5-0.2,0.8-0.3l0.8-0.2l-0.1,0.1
		c0-1.2-0.1-9.2-0.1-10.4s-0.1-2.3-0.1-3.5v-0.3H25c0.9,0,1.8,0,2.7,0h2.7h0.3V43c0,1.1-0.1,2.3-0.1,3.4L30.4,56.8z"/>
	<path style="fill:#99242C;" d="M18.8,18.7c2.8-1.6,6-2.3,9.2-2c3.3,0.3,6.4,1.8,8.8,4.1c0,0,1.8,0.8,2.2,1.8s6.6,2.5,6.9,11.3
		s-6.5,10.3-7.8,10.5c-2.6,0.6-5.4,0.5-8-0.3c0,0-4.2,1.3-6.6,0.7c-1.9-0.4-3.6-1.6-4.7-3.3c0,0-5.8-1.9-7.2-4.8s-2.4-6.4,0.9-9.7
		c0.6-0.6,0-4.1,2.1-6.2C15.6,19.8,18.8,18.7,18.8,18.7z"/>
	<path style="fill:#7E1E2F;" d="M18.8,18.7c2.8-1.6,6-2.3,9.2-2c3.3,0.3,6.4,1.8,8.8,4.1c0,0,1.8,0.8,2.2,1.8s6.6,2.5,6.9,11.3
		s-6.5,10.3-7.8,10.5c-2.6,0.6-5.4,0.5-8-0.3c0,0-4.2,1.3-6.6,0.7c-1.9-0.4-3.6-1.6-4.7-3.3l-0.5-1.8c0,0,2,4.5,6.1,4.2
		c3.9-0.3,3.7-2.3,5.6-2.5c3.3-0.3,6.4-0.6,8.2-2.1c2-1.9,2.4-5,0.9-7.3c-0.9-1.5-4-1.4-4.7-2.3c-0.9-1.3,1.6-2.8,2.3-3.4
		c0.9-0.7,1.3,4.1,2.4,0.9c0.9-1.9,0.2-4.1-1.6-5.1c-4.8-3.6-8.7-1.4-8.7-1.4c0.3-0.3,0.8-2.5-3.2-2.6c-1.3,0-2.6,0.7-3.3,1.9
		C22.1,18.6,18.8,18.7,18.8,18.7z"/>
	<path style="fill:#99242C;" d="M41.5,31c0,0,2.5-2.5,2.6-4.4c2.3-3.1,1.7-6.9,2.3-7.2s1,0,1.3,0.6s-0.1,1.2,0.3,1.3
		s1.5-2.8,2.4-2.4s-0.3,2.3-0.3,2.4s0.1,0.4,0.3,0.2s2.1-1.4,2.4-0.6s-1.2,1.5-1.2,1.5s0.8-0.1,0.9,0.3s-0.7,0.8-2.3,1.2
		S44,39.1,44,39.1"/>
	<path style="fill:#99242C;" d="M10.4,32.9c0,0-2.2-8.5-3.8-9.9s-3.2-1.3-2.8-1.9s1.9-0.3,1.9-0.3s-1.8-0.6-1.4-1.3
		c0.3-0.5,1-0.6,1.5-0.3c0,0,0,0,0.1,0c0.4,0.2,1,1,1.3,0.7S7.1,19,7.1,18.8s0.3-0.7,1-0.3c0.5,0.4,0.9,1,1.1,1.7
		c0.5-0.4,1-0.6,1.6-0.8c0.5,0,1.2,0.3,0.7,0.9s-1,0.5-0.9,1.1s2.5,3.8,2.9,4.1"/>
	<path style="fill:#C12F30;" d="M49.8,19.3c0.1-0.1,0.2-0.2,0.4-0.1c0,0,0,0,0.1,0c0.3,0.2-0.1,1.4-0.5,1.5S48.9,20.3,49.8,19.3z"/>
	<path style="fill:#C12F30;" d="M51.4,21.1c0,0,0.9-0.6,1.1-0.3s-0.3,0.7-0.6,0.8s-0.8,0.5-1.1,0.3S51.4,21.1,51.4,21.1z"/>
	<path style="fill:#C12F30;" d="M51.4,22.5c0,0,0.6-0.2,0.8,0s-0.4,0.4-0.6,0.4s-0.7,0.1-0.7-0.1S51.4,22.5,51.4,22.5z"/>
	<path style="fill:#C12F30;" d="M46.5,19.6c0.3-0.1,0.7,0.1,0.8,0.5c0.3,0.6-0.1,1.8,0.4,2s1.3,0,1.7,0.3s0.2,0.9-0.8,1.2
		c-1.4,0.4-3.4,9.1-4.7,9.5s-2.7-0.3-1.8-2.1s3.8-6.6,4.2-8.2S46.1,20.3,46.5,19.6z"/>
	<path style="fill:#C12F30;" d="M4.2,21.2c0.2-0.5,1.4-0.3,2.3,0s3.2,2.9,3.5,2.7s-1.3-3.3-1-3.4s1.6-1.1,2-0.8s0,0.6-0.4,0.9
		s1,3.2,1.1,4c0.2,0.8,0.3,1.6,0.2,2.4c-0.2,1.1-0.9,3.1-1,3.5s-2.4-5.1-3.1-6.4S7,22.4,5.9,22S4.1,21.7,4.2,21.2z"/>
	<path style="fill:#D04B4A;" d="M26.2,45.6c0.1-0.2,0.5-0.5,0.9,0.1s1.3,11.6,0.5,12s-2.2,1-2.3,0.1S25.6,46.8,26.2,45.6z"/>
	<path style="fill:#99242C;" d="M28.8,45.3c0,0-0.2,11,0,11.7s0.4,1,0.9,0.9s0.5,0.2,0.2-2.1s-0.4-11.1-0.7-10.9
		S28.8,44.7,28.8,45.3z"/>
	<path style="fill:#D04B4A;" d="M21.3,59.8c0.7-0.9,1.6-1.5,2.6-2c0.5-0.2,1-0.4,1.6-0.5c0.5-0.1,1-0.2,1.6-0.2
		c1.1-0.1,2.1-0.1,3.2,0.1c1.1,0.2,2.1,0.6,3,1.2c-1.1,0-2.1,0-3.1,0s-2,0.1-3,0.2l-1.5,0.2c-0.5,0.1-1,0.1-1.4,0.2
		C23.2,59.2,22.3,59.5,21.3,59.8z"/>
	<path style="fill:#81BA50;" d="M28.7,15.1c0.2,0.3,0.4,0.5,0.7,0.7c0.3,0.1,0.6,0.3,0.9,0.3c0.4,0.1,0.7,0.3,1,0.5
		c0.3,0.2,0.6,0.5,0.7,0.9c-0.4-0.1-0.7-0.2-1-0.3s-0.6-0.2-1-0.3c-0.4-0.1-0.7-0.3-1-0.6C28.7,15.9,28.6,15.5,28.7,15.1z"/>
	<path style="fill:#81BA50;" d="M34.1,18.1c0.4-0.3,0.9-0.5,1.4-0.5c0.2,0,0.5,0,0.7,0l0.7,0.1c0.5,0,0.9,0.1,1.3,0.1
		c0.4,0,0.9,0,1.3-0.2c-0.1,0.2-0.3,0.4-0.5,0.6c-0.2,0.1-0.5,0.2-0.7,0.3c-0.5,0.1-1,0.1-1.5,0c-0.2,0-0.5-0.1-0.7-0.1l-0.7-0.1
		C35,18.1,34.5,18.1,34.1,18.1z"/>
	<path style="fill:#81BA50;" d="M32,14.1c0,0.2-0.1,0.4-0.1,0.6c0,0.2,0,0.3,0,0.5c0.1,0.1,0.2,0.2,0.3,0.3l0.4,0.3
		c0.3,0.2,0.6,0.5,0.8,0.8c0.2,0.3,0.3,0.7,0.3,1.1c-0.1-0.3-0.3-0.7-0.6-0.9c-0.2-0.3-0.5-0.5-0.8-0.7c-0.3-0.2-0.6-0.5-0.8-0.9
		c-0.1-0.2-0.1-0.4,0-0.6C31.7,14.4,31.9,14.2,32,14.1z"/>
	<path style="fill:#C12F30;" d="M22.5,20.4c0-0.5,0.3-0.9,0.9-1.3c0.9-0.4,2-0.5,3-0.3c0.7,0.1,1.2,0.7,1.4,1.4
		c0.2,0.6-0.6,1.6-0.6,2c0.1,0.7,0.5,1.2,1.1,1.6c-0.5,0.8-1.9,3.2,0,4.8c0,0.5-0.2,1.5,0.5,1.9c2.4,0.8,5,0.8,7.4,0
		c0.7,0.4,3.2,2.5,2.7,4.5s-2.3,5-5.7,5.3c-3.5,0.4-4.4,0.8-5,1.3s-5.9,3.2-9.1-0.8c-0.5-0.8-0.8-1.5-0.9-1.5s-0.8,0.1-0.6,0.6
		c0.1,0.3,0.3,0.6,0.6,0.8c0,0-7.1-3.8-7.1-7.6c0-2.5,0.7-5,1.9-7.2c0.5-0.8,0.9-4,1.8-4.4s3.3-1.9,5.4-1.1c0.7,0.3,0.9,0.3,1.8,0.5
		C22.3,21,22.9,21.5,22.5,20.4z"/>
	<path style="fill:#D04B4A;" d="M33.8,31.8c-0.6,0.8-1.1,1.6-1.3,2.6c-0.6,1.4-0.8,3.8,0.3,3.9c1.1,0.1,3.6,0.3,4.6-1.6
		s1.5-3.7-0.1-4.7C35.4,32,34.2,32.1,33.8,31.8z"/>
	<path style="fill:#FFFFFF;" d="M19,21.2c1.5,0.1,4.5,0.6,4.1,4S19.7,29,18.4,29s-4.7-1-4.1-4.6C14.7,21.9,17.6,21.1,19,21.2z"/>
	<path style="fill:#7E1E2F;" d="M19,21.1c0.6,0,1.1,0.1,1.7,0.2c0.5,0,0.9,0.2,1.3,0.5c0.5,0.5,0.9,1.1,1,1.8
		c0.2,0.6,0.3,1.2,0.2,1.8c0,0.5-0.1,1-0.3,1.4c-0.3,0.5-0.7,0.9-1.2,1.3c-1,0.6-2.1,1-3.2,1c-1.2,0.1-2.4-0.3-3.3-1.1
		c-0.5-0.4-0.8-0.9-1.1-1.5c-0.2-0.5-0.2-1-0.2-1.5c0.1-0.7,0.3-1.4,0.6-2c0.4-0.6,0.9-1,1.4-1.4c0.4-0.2,0.9-0.4,1.3-0.4
		C17.9,21.2,18.4,21.1,19,21.1z M19,21.2c-1.1,0-2.2,0.4-3,1.1c-0.4,0.3-0.7,0.7-1,1.2c-0.2,0.4-0.3,0.9-0.4,1.4c-0.1,1,0.3,2,1,2.7
		c0.4,0.3,0.8,0.6,1.3,0.8c0.5,0.2,1,0.3,1.5,0.4c1.1,0.1,2.2-0.2,3.1-0.8c0.4-0.3,0.7-0.8,1-1.3c0.2-0.5,0.3-1,0.3-1.5
		c0-0.5,0-1-0.1-1.5c-0.1-0.5-0.4-0.9-0.7-1.3C21.1,21.6,20.1,21.2,19,21.2z"/>
	<path style="fill:#FFFFFF;" d="M33.1,22.7c0,0,4,1.2,3.8,5s-6.5,2.2-6.8,2.1s-4.5-2.2-1.8-5.7C30.1,21.6,33.1,22.7,33.1,22.7z"/>
	<path style="fill:#C12F30;" d="M18.1,22.6c1-0.1,3.4,0.4,2.9,2.9c-0.5,2.8-4.1,2.5-5.1,1.4C15.3,26.2,14.3,23.1,18.1,22.6z"/>
	<path style="fill:#7E1E2F;" d="M33.1,22.6c0.5,0.2,1.1,0.4,1.6,0.7c0.5,0.3,1,0.7,1.4,1.1c0.4,0.4,0.8,1,1,1.6
		c0.2,0.6,0.3,1.2,0.2,1.8c-0.1,0.6-0.4,1.2-0.9,1.7c-0.5,0.4-1.1,0.6-1.7,0.7c-1.2,0.2-2.3,0.2-3.5,0.1l-0.9-0.1h-0.2h-0.1h-0.1
		c-0.1-0.1-0.3-0.1-0.4-0.2c-0.4-0.2-0.8-0.6-1-1c-0.5-0.5-0.9-1.2-1.1-1.9c-0.1-0.7-0.1-1.5,0.2-2.2c0.2-0.5,0.5-0.9,0.9-1.3
		c0.5-0.5,1-0.9,1.7-1.2c0.4-0.2,0.9-0.2,1.3-0.1C32,22.4,32.6,22.5,33.1,22.6z M33.1,22.7c-1.6-0.5-3.4,0.1-4.4,1.4
		c-0.3,0.4-0.6,0.9-0.7,1.4c-0.3,1-0.1,2.1,0.6,2.8c0.4,0.4,0.8,0.7,1.2,1l0.3,0.2h0.1h0.1l0.2,0.1l0.8,0.2c1.1,0.3,2.2,0.3,3.4,0.1
		c0.5-0.1,1-0.4,1.4-0.8c0.3-0.4,0.5-0.9,0.5-1.4c0-1.1-0.3-2.1-0.9-3C35.1,23.7,34.2,23,33.1,22.7L33.1,22.7z"/>
	<path style="fill:#262424;" d="M18.1,22.8c0.9-0.1,3.1,0.3,2.7,2.7c-0.5,2.6-3.8,2.3-4.7,1.3C15.5,26.1,14.6,23.3,18.1,22.8z"/>
	<path style="fill:#D6706D;" d="M36.1,31.2c1.2,0.3,2,1.4,1.7,2.7c-0.1,0.3-0.2,0.6-0.3,0.8c-1.2,2.1-3.6,0.8-4.3,0
		S32.3,30.1,36.1,31.2z"/>
	<path style="fill:#C12F30;" d="M31,23.8c1.4-0.3,2.8,0.7,3,2.1c0.1,0.4,0.1,0.7,0,1.1c-0.5,3.1-4.3,2.8-5.3,1.5
		C28.1,27.8,27,24.4,31,23.8z"/>
	<path style="fill:#262424;" d="M31,24.1c1-0.1,3.3,0.3,2.8,2.8c-0.5,2.7-4,2.4-5,1.3C28.3,27.7,27.3,24.6,31,24.1z"/>
	<path style="fill:#711A2A;" d="M16.5,29.6c1.9,1.6,4.3,2.6,6.9,2.7c3.4,0,6.8-0.3,10.1-0.9c0,0-2.9,7.3-5.2,8.3
		c-3.7,1.2-7.8,0.3-10.6-2.3C15.8,35.5,16.5,29.6,16.5,29.6z"/>
	<path style="fill:#FFFFFF;" d="M17.6,30.4c1.7,1.2,3.7,1.9,5.8,2c2.5,0.1,5.9-0.6,8-0.6c0.2,0-1.5,3.3-5.3,4.8
		c-1.9,0.6-3.9,0.5-5.7-0.2C18.8,35.5,16.9,29.9,17.6,30.4z"/>
	<path style="fill:#99242C;" d="M26.4,40c0,0-0.1-1.4-1.1-1.7s-3.5-1.2-4.3-0.7s-1.3,4,0.6,4.9s1-2.8,2.9-3.1
		c0.3-0.1,0.7,0.2,0.7,0.5c0,0,0,0.1,0,0.1"/>
	<path style="fill:#99242C;" d="M26.2,39.8c-0.1-0.2-0.2-0.4-0.4-0.6c-0.2-0.3-0.4-0.5-0.7-0.6L23,37.9c-0.4-0.1-0.7-0.2-1.1-0.3
		c-0.3-0.1-0.7-0.1-1,0c-0.2,0.3-0.4,0.6-0.5,0.9c-0.1,0.4-0.1,0.7-0.1,1.1c0,0.3,0.1,0.7,0.2,1c0.1,0.3,0.2,0.6,0.5,0.9
		c0.1,0.1,0.2,0.2,0.3,0.3c0.1,0.1,0.3,0.1,0.4,0.2c0.2,0.1,0.4,0,0.5-0.2c0,0,0,0,0,0c0.2-0.3,0.3-0.7,0.4-1
		c0.1-0.4,0.3-0.8,0.5-1.1c0.3-0.4,0.7-0.6,1.1-0.7c0.2,0,0.5,0,0.6,0.2c0.1,0.2,0.2,0.4,0.2,0.6h-0.1c0-0.2-0.1-0.3-0.3-0.4
		c-0.1-0.1-0.3-0.1-0.4,0c-0.3,0.1-0.5,0.3-0.7,0.6c-0.1,0.3-0.3,0.7-0.3,1c-0.1,0.4-0.2,0.9-0.4,1.3c-0.1,0.3-0.3,0.5-0.6,0.6
		c-0.3,0.1-0.6,0.1-0.8,0c-0.2-0.1-0.4-0.2-0.6-0.3c-0.2-0.1-0.3-0.3-0.5-0.5c-0.3-0.3-0.4-0.7-0.5-1.2c-0.1-0.4-0.1-0.8,0-1.2
		c0-0.4,0.1-0.8,0.2-1.2c0.1-0.2,0.1-0.4,0.2-0.5c0.1-0.2,0.2-0.4,0.4-0.5c0.2-0.1,0.4-0.2,0.6-0.2c0.2,0,0.4,0,0.6,0
		c0.4,0,0.8,0,1.2,0.1c0.4,0.1,0.8,0.2,1.1,0.3c0.4,0.1,0.7,0.2,1.1,0.4c0.4,0.2,0.7,0.6,0.9,1c0.1,0.4,0.2,0.4,0.2,0.8L26.2,39.8z"
		/>
	<path style="fill:#C12F30;" d="M13.6,27c1.4-0.3,2.9-0.4,4.4-0.2c1.6,0.2,3.1,0.6,4.6,1.3c-0.9,0.9-2.2,1.4-3.5,1.4
		C17.1,29.5,14.4,28.4,13.6,27z"/>
	<path style="fill:#C12F30;" d="M26.9,28.8c1.3-0.4,2.7-0.5,4.1-0.3c1.9,0,3.7,0.4,5.4,1.2c2.1,0.9-3.3,1.1-3.3,1.1
		S26.7,31,26.9,28.8z"/>
	<path style="fill:#99242C;" d="M12.1,36.3l1.6,1.3c0.5,0.4,1.1,0.8,1.6,1.2c1.1,0.8,2.3,1.4,3.4,2.3c-0.7-0.1-1.4-0.3-2-0.6
		c-0.6-0.3-1.3-0.6-1.8-1c-0.6-0.4-1.1-0.9-1.6-1.4C12.8,37.5,12.4,36.9,12.1,36.3z"/>
	<path style="fill:#FFFFFF;" d="M19.8,24.5c0,0,0.1-0.6,0.5-0.7s1.1,0.1,1.2,0.6s-0.2,0.9-0.6,1c-0.5,0.1-1-0.2-1.1-0.7
		C19.8,24.7,19.8,24.6,19.8,24.5z"/>
	<path style="fill:#FFFFFF;" d="M32.7,26.2c0-0.3,0.1-0.6,0.4-0.8c0.5-0.3,1-0.1,1.3,0.3c0.3,0.6,0,0.9-0.4,1.1
		c-0.5,0.2-1,0.1-1.3-0.4C32.7,26.3,32.7,26.2,32.7,26.2z"/>
	<path style="fill:#FFFFFF;" d="M18.6,25.1c0,0,0-0.3,0.3-0.3s0.6,0,0.6,0.3s-0.1,0.5-0.3,0.5c-0.3,0.1-0.5-0.1-0.6-0.3
		C18.6,25.2,18.6,25.1,18.6,25.1z"/>
	<path style="fill:#FFFFFF;" d="M31.5,26.6c0,0,0-0.3,0.3-0.3s0.6,0,0.6,0.3S32.3,27,32.1,27c-0.3,0.1-0.5-0.1-0.6-0.3
		C31.5,26.6,31.5,26.6,31.5,26.6z"/>
	<path style="fill:#D35B5B;" d="M15.4,27.1c0.4-0.1,0.7-0.2,1.1-0.2c0.4,0,0.8,0,1.1,0c0.4,0.1,0.7,0.1,1.1,0.3
		c0.3,0.1,0.7,0.3,1,0.4c-0.8-0.1-1.5-0.2-2.2-0.3S16.1,27.2,15.4,27.1z"/>
	<path style="fill:#D35B5B;" d="M30.1,28.8c0.4-0.1,0.7-0.2,1.1-0.2c0.4,0,0.8,0,1.1,0c0.4,0.1,0.7,0.1,1.1,0.3
		c0.3,0.1,0.7,0.3,1,0.4c-0.8-0.1-1.5-0.2-2.2-0.3S30.9,28.9,30.1,28.8z"/>
	<path style="fill:#D04B4A;" d="M16.4,29c0,0,2.8,1.5,3.8,1.9c2,0.5,4,0.8,6,0.9c0.9-0.1,2.7,0,2.2,0.1s-6.2,1.3-9.4-0.7
		c-0.9-0.5-1.7-1-2.5-1.6L16,30.9l-4.2-1.2C11.8,29.7,13.2,26.9,16.4,29z"/>
	<path style="fill:#7E1E2F;" d="M42.2,35.6c0,0,1.8,1.5,2.8,0.2c0.7-0.9-0.2,3.6-1.1,3.8S42.1,35.9,42.2,35.6z"/>
	<path style="fill:#99242C;" d="M29.9,30c0,0,4.3,0.6,4.8,0s0.4-0.8,0.4-0.8c0.5,0.1,0.9,0.3,1.4,0.4c0.2,0.1,0.9,0.5-0.3,0.8
		l-1.7,0.4C34.6,30.9,31.2,31.1,29.9,30z"/>
	<path style="fill:#99242C;" d="M21.7,27.8c0,0-4.2,1.2-5.6,0.3c-1.2-0.5-1.6-0.6-1.2-0.2c1.6,1.2,3.7,1.6,5.6,1
		c0.4-0.1,0.7-0.3,1.1-0.4l0.3-0.5L21.7,27.8z"/>
	<path style="fill:#C3C4C4;" d="M17.5,30.3c0,0-0.2,0.1,0.1,0.9c1.6,1,3.5,1.5,5.4,1.7c2.4,0.1,4.8-0.1,7.2-0.4c-1,1.7-2.4,3-4.1,4
		c2.4-0.8,4.4-2.6,5.5-4.8c-1.5,0-2.9,0.2-4.4,0.5c-1.7,0.2-3.4,0.2-5.1,0.1c-1.1-0.1-2.1-0.5-3.1-1C18.5,30.9,18,30.6,17.5,30.3z"
		/>
	<path style="fill:#580E20;" d="M16,29.9c0-0.2,0.2-0.4,0.4-0.6c0.1-0.1,0.3-0.1,0.4,0c0.2,0.1,0.2,0.1,0.2,0.2s-0.2-0.1-0.3,0
		c0,1.6,0.1,3.2,0.3,4.8c0.1,0.7,0.5,2.8,1.9,3.6c0.4,0.3,0.9,0.5,1.4,0.7v0.2c-1.1-0.4-2.1-1.2-2.6-2.2c-0.6-1.3-0.9-2.6-0.9-4
		c-0.1-1.6-0.1-3.1-0.1-3.1c-0.1,0-0.3,0.1-0.3,0.3C16.2,30,16,30,16,29.9z"/>
	<path style="fill:#D6706D;" d="M16.4,30c-0.1,0-0.2,0.1-0.2,0.2c0,0,0,0,0,0.1C16,31.8,16,33.4,16.2,35c0.2,1,0.7,1.9,1.4,2.7
		c0.2,0.1,0.2,0.1-0.2-0.5s-1.1-2.2-1-5.2C16.4,30.4,16.5,30,16.4,30z"/>
	<path style="fill:#D04B4A;" d="M13.9,28.1c-0.1,0-2.8,0.4-2.7,4.1c0.4,2.2,2.6,4.3,3.4,4.8c0.8,0.6,1.7,1,2.6,1.4
		c0.3,0,0.3-0.4-0.4-1.1c-0.9-1.2-1.4-2.6-1.4-4.2c0.2-0.9,0.4-1.8,0.5-2.7C16,29.3,15.1,28.3,13.9,28.1
		C13.9,28.2,13.9,28.2,13.9,28.1z"/>
	<path style="fill:#580E20;" d="M24.5,39.6c0,0,0.4-0.2,0.2-0.3c-0.6-0.2-1.2,0.1-1.4,0.7c-0.4,1.1-0.8,2.3-1.1,2.4
		c-0.6,0.2-1.2,0-1.6-0.5c-0.6-0.8-0.6-0.7-0.4-0.2c0.3,0.7,0.9,1.1,1.6,1.2c0.7,0,1.3-0.6,1.3-1.4C23.4,40.7,23.9,39.3,24.5,39.6z"
		/>
	<path style="fill:#99242C;" d="M24.5,40.2c0,0-0.6,0-0.7,1.1s-0.6,1.8-1.2,1.5c0.5-0.5,0.7-1.2,0.8-1.9c0.3-0.6,0.4-0.8,0.4-0.8
		C24,40.1,24.2,40.1,24.5,40.2z"/>
	<path style="fill:#C3C4C4;" d="M22.4,36.8c0,0,0.1-2.8,0.2-3c0.1,1,0.1,2.1,0,3.1L22.4,36.8z"/>
	<path style="fill:#C12F30;" d="M46,28.4c0,0.1-0.6,1.8-0.9,3c-0.3,1.2-1.3,5-2,4.7s-1.1-2.4-1.2-2.8c-0.1-0.3-0.1-0.7,0-1
		c0,0,0.6,1.4,1.4,0.7S45.9,26.9,46,28.4z"/>
	<path style="fill:#C12F30;" d="M26.9,22.3c1-0.9,2.2-1.5,3.5-1.8c1.4-0.2,6.1,0.7,7.3,2.4c1.1,1.5,1.3,3.6,0.5,5.3
		c-0.7,0.1-1-1.3-1-2s-0.5-3.8-4.8-4.4c-1.7-0.1-3.4,0.6-4.5,1.9C27.6,24,26.5,23.4,26.9,22.3z"/>
	<path style="fill:#D04B4A;" d="M30.3,20.9c0,0-0.6,1.1,0,1.3c1.4-0.4,3-0.3,4.3,0.3c0-0.1,1.5-1-1.1-1.8S30.3,20.9,30.3,20.9z"/>
	<path style="fill:#C12F30;" d="M22.5,21.5c0,0,0.4-0.1,0.5-0.4S21,18,18.2,19s-3.7,1.9-4.3,4.5c0.1,0.3,0.3-0.3,0.4-0.5
		c0.5-0.9,1.4-1.5,2.4-1.8C18.6,20.5,20.7,20.6,22.5,21.5z"/>
	<path style="fill:#D04B4A;" d="M21.6,19.7c0,0,0.6,1.5-0.3,1.2c-1.9-0.7-4.1-0.6-5.9,0.4c-1,0.7,0.2-0.9,0.8-1.1
		S19.9,18.1,21.6,19.7z"/>
	<path style="fill:#D6706D;" d="M20,18.8c0,0-3.6-0.2-4.7,2.2c0.6-0.6,3.6-1.9,4.6-1.7C20.5,19.3,21.2,19.3,20,18.8z"/>
	<path style="fill:#D6706D;" d="M31,20.6c-0.2,0.1-0.4,0.3-0.5,0.5c-0.1,0.3-0.2,0.7,0.1,0.6c0.5-0.1,0.9-0.2,1.4-0.2
		c0.4,0,0.5,0.2,0.8,0s0.5-0.3,0.1-0.6C32.4,20.6,31.7,20.5,31,20.6z"/>
	<path style="fill:#580E20;" d="M22.5,19.9c0,0.1,0.5-0.3,0.1-0.6c-1.1-0.7-2.3-0.9-3.6-0.8c-0.1,0.1-0.3,0.2-0.5,0.2
		C18.6,18.8,21.8,18.5,22.5,19.9z"/>
	<path style="fill:#580E20;" d="M31.5,20.1c1.4,0,2.9,0.1,4.3,0.5c1.3,0.4,2.5,1.2,3.3,2.2c0.7,1,1,2.1,1,3.3
		c-0.2,0.6-0.2-0.6-0.2-0.8s-0.8-3-2.8-3.9C35.3,20.6,33.5,20.1,31.5,20.1z"/>
	<path style="fill:#580E20;" d="M18.3,39.8c0,0-0.3-0.5-0.2,0c0.2,1.4,1,2.7,2.2,3.6c0.7,0.5,1.5,0.9,2.4,1.2
		C22.7,44.6,18.9,42.6,18.3,39.8z"/>
	<path style="fill:#99242C;" d="M24.9,45c0,0,4.1-0.8,5.2-1.8c1.1-0.7,1.5,0.1,1,0.6c1.1,0.4,3,1.1,7.3,0.6
		c-4.8,0.9-6.7,0.3-8.3-0.2C28.7,44.6,26.4,45.2,24.9,45z"/>
	<path style="fill:#580E20;" d="M31.1,43.4c-0.3,0-0.5,0.1-0.7,0.3c-0.7,0.4-1.5,0.8-2.3,1C29.8,44.3,30.6,44.1,31.1,43.4z"/>
	<path style="fill:#580E20;" d="M9.8,24c0,0-1.6-3.5-1.3-3.6s1.6,2,1.6,2.4S10.2,24.3,9.8,24z"/>
	<path style="fill:#580E20;" d="M5.3,20.8c0.7,0,1.4,0.2,2.1,0.4c0.3,0.2,0.6,0.3,0.5,0.5S7.3,21.3,7,21.2S4.7,20.9,5.3,20.8z"/>
	<path style="fill:#580E20;" d="M44,26.9c-0.1,0.2-0.3,0.4-0.4,0.6c-0.4,0.9-0.8,1.7-1.3,2.5C43.1,29,44,28.1,44,26.9z"/>
	<path style="fill:#BDBEBE;" d="M15.4,22.8c0,0,4.3-3,6.8,0.9c0.5,1.4,0.2,3-0.9,4c0.2,0.1,0.3,0.1,0.5,0.2c0,0,1.6-1.1,0.9-4.3
		c-0.5-1.3-1.8-2.7-4.7-2.2C17,21.5,16.1,22,15.4,22.8z"/>
	<path style="fill:#BDBEBE;" d="M34.3,23.3c0,0,1.9,2.3,1.6,3.7s-0.8,1.9-1.1,2.1c0.4,0.1,0.7,0.3,1,0.4c0,0,1.4-0.5,0.7-3.1
		C36.2,25.1,35.4,24,34.3,23.3z"/>
	<path style="fill:#580E20;" d="M14.5,27.6c0.5,0.3,1,0.6,1.6,0.8c0.5,0.2,1.1,0.3,1.7,0.4c0.6,0,1.2,0,1.8,0c0.6,0,1.2-0.1,1.8-0.2
		c-0.5,0.3-1.1,0.4-1.7,0.5c-0.6,0.1-1.2,0.1-1.8,0.1C16.5,29.1,15.4,28.5,14.5,27.6z"/>
	<path style="fill:#580E20;" d="M29.1,29.5c0.5,0.3,1,0.6,1.6,0.8c0.5,0.2,1.1,0.3,1.7,0.4c0.6,0,1.2,0,1.8,0c0.6,0,1.2-0.1,1.8-0.2
		c-0.5,0.3-1.1,0.4-1.7,0.5c-0.6,0.1-1.2,0.1-1.8,0.1C31,31,29.9,30.4,29.1,29.5z"/>
	<path style="fill:#D6706D;" d="M15.1,32.5c-0.8,0.8-2.1,0.8-2.8,0c-0.2-0.2-0.3-0.4-0.4-0.6c-1-1.9,1.1-3.1,2.1-3.2
		S17.8,30.1,15.1,32.5z"/>
	<path style="fill:#D04B4A;" d="M23.6,27.1c0,0,2.7,0,2.9,1.9s-2.7,1.5-3.2,1.4c-1-0.1-1.7-1-1.6-2C21.8,27.1,23.6,27.1,23.6,27.1z"
		/>
	<path style="fill:#D6706D;" d="M22.7,27.6c-0.1,0.2-0.1,0.3-0.1,0.5c0,0.1,0,0.1,0,0.2v0.1c0,0,0,0,0,0c0.1,0.1,0.1,0.2,0.2,0.3
		c0.1,0.1,0.2,0.3,0.4,0.5c-0.5,0.2-1,0.1-1.3-0.4c0-0.1-0.1-0.1-0.1-0.2c0-0.1,0-0.1,0-0.2c0-0.1,0-0.3,0.1-0.4
		C22.1,27.7,22.4,27.6,22.7,27.6z"/>
	<path style="fill:#99242C;" d="M22.4,30c1,0.8,2.3,1.1,3.5,0.8c1.2-0.1,1.6-1,1.5-1.3S27,28.7,26.5,29S26.2,31,22.4,30z"/>
	<path style="fill:#99242C;" d="M22.7,29.9c0.5,0,0.9-0.1,1.4-0.1c0.4,0,0.8-0.1,1.2-0.2c0.2-0.1,0.3-0.1,0.4-0.3
		c0.1-0.1,0.2-0.3,0.2-0.4c0-0.4-0.2-0.8-0.4-1.1c0.2,0.1,0.4,0.2,0.6,0.4c0.2,0.2,0.3,0.4,0.4,0.7c0,0.3,0,0.6-0.2,0.9
		c-0.2,0.2-0.4,0.4-0.7,0.5c-0.5,0.2-1,0.2-1.5,0.1C23.5,30.3,23.1,30.1,22.7,29.9z"/>
	<path style="fill:#580E20;" d="M32.8,31.5c0,0-0.2-0.2,0.2-0.3s1.4,0.1,1.7,0.5c-0.1,0.2-0.3-0.1-0.5-0.2s-0.5-0.2-0.6-0.1
		s-3,5.2-3.4,5.9c-0.9,1.4-2.3,2.3-3.9,2.6c-0.8,0.1-1.6,0.1-2.4,0l0.2-0.1c0,0,3.1,0.4,4.4-0.9c1.3-1.2,2.4-2.6,3.1-4.2
		c0.9-1.6,1.9-3.2,1.9-3.2L32.8,31.5z"/>
	<path style="fill:#580E20;" d="M21.8,29c0,0-0.1-0.6-0.2-0.4c0,0.8,0.6,1.5,1.3,1.7c1.2,0.3,2.7,0.2,3.2-0.4s0.3-0.5,0.3-0.6
		s-0.1-0.1-0.2,0c-0.4,0.6-1,0.9-1.7,0.9C23.4,30.3,22.2,30.3,21.8,29z"/>
	<path style="fill:#D6706D;" d="M33.6,31.9c-0.2,0.1-0.4,0.2-0.5,0.4c-0.1,0.3-1.8,3.8-2.2,4.5s-1,1.4-1.1,1.6
		c1.2-1.6,2.2-3.3,3.2-5C33.1,32.8,33.3,32.4,33.6,31.9z"/>
	<path style="fill:#C12F30;" d="M20.7,39.1c0,0,0.6-0.3,0.9,0.2c0.5,0.1,1.1-0.5,1.3,0c-0.1,0.7-0.8,2.5-1.3,2.4s-1.1-1.5-0.9-2.3"
		/>
	<path style="fill:#D04B4A;" d="M21.3,37.8c-0.1,0.6-0.2,1.1-0.3,1.7c0,0.3,0,0.5,0,0.8c0,0.2,0.1,0.5,0.2,0.7c0,0,0.1,0.1,0.1,0.1
		c0,0,0.1,0.1,0.1,0.1c0.1,0.1,0.2,0.1,0.2,0.2c0,0,0,0,0.1,0c0.1-0.1,0.2-0.2,0.2-0.2c0.3-0.5,0.6-1,0.9-1.5
		c-0.1,0.6-0.2,1.2-0.4,1.8c-0.1,0.2-0.2,0.3-0.3,0.5c-0.2,0.2-0.5,0.3-0.7,0.2c-0.2-0.1-0.4-0.1-0.5-0.3c-0.1-0.1-0.1-0.1-0.2-0.2
		c-0.1-0.1-0.1-0.1-0.2-0.2c-0.2-0.3-0.3-0.6-0.3-1c0-0.3,0-0.7,0.1-1C20.5,38.9,20.8,38.3,21.3,37.8z"/>
	<path style="fill:#D04B4A;" d="M21.8,37.2c0.1,0-1.5-0.2-1.7,2.3c0,1.5,0.3,2.5,1.6,2.7c0.6-0.1,1-0.4,0.9-1.2
		c-0.5,0.5-0.4,0.9-0.9,0.7c-0.7-0.5-1-1.4-0.9-2.3C20.9,38.6,21.2,37.8,21.8,37.2z"/>
</g>
</svg>
