<?xml version="1.0" encoding="utf-8"?>
<!-- Generator: Adobe Illustrator 22.0.0, SVG Export Plug-In . SVG Version: 6.00 Build 0)  -->
<svg version="1.1" id="Слой_1" xmlns="http://www.w3.org/2000/svg" xmlns:xlink="http://www.w3.org/1999/xlink" x="0px" y="0px"
	 viewBox="0 0 55.8 62.9" style="enable-background:new 0 0 55.8 62.9;" xml:space="preserve">
<title>Artboard 1 копия 10</title>
<g id="Слой_6">
	<path style="fill:#498049;" d="M22.9,61.3c-0.3,0-0.5-0.2-0.5-0.5c0-0.1,0-0.2,0.1-0.3c1.2-1.4,2.8-2.4,4.6-2.9
		c0-3.1-0.1-4.8,0-5.7h-0.3c-0.2,0-0.4,0-0.6,0c-0.5,0-0.9-0.1-1.4-0.2c-0.5-0.2-0.9-0.4-1.3-0.8l-0.1-0.1c-0.4,0.4-0.9,0.6-1.5,0.6
		c-0.2,0-0.3,0-0.5,0c-0.7-0.1-1.4-0.6-1.7-1.3c-1-1.9,0.4-5.2,1.2-7.2c0.2-0.4,0.3-0.8,0.4-1c0.3-1.1,0-2-1-3.8
		c-0.7-1-1.6-1.8-2.7-2.3L17.4,36c-1.9,1.8-4.9,1.8-6.7-0.1c-1.2-1.2-1.6-3-1.1-4.7c0.1-0.5,0.3-1,0.6-1.4c-1.2-3.4,0.3-7.2,3.5-8.8
		c0.8-0.3,1.7-0.5,2.6-0.5c1.1,0,2.2,0.2,3.2,0.7c0.9-3.1,3.8-5.2,7-5.1c2.7,0,4.8,1,5.9,2.8c1.2-1.6,3.4-1.9,5-0.7
		c0.6,0.4,1,1,1.3,1.7H39c2.2,0,3.9,1.8,3.9,3.9c0,0.4-0.1,0.8-0.3,1.2c1.4,0.7,2.3,2.2,2.3,3.7c0,0,0,0.1,0,0.1
		c1.5,0.9,1.9,2.8,1,4.3c-0.4,0.7-1.2,1.2-2,1.4c-0.6,1.6-2.4,2.4-4,1.8c-0.5-0.2-1-0.5-1.3-0.9C37.9,36,36,37.3,36.1,39
		c0.1,1.1,0.5,2.1,1,3c0.9,1.5,1.4,3.2,1.4,5c-0.1,2.5-0.8,3.8-2,4.2c-0.2,0.1-0.4,0.1-0.5,0.1l0,0c-0.1,0-0.2,0-0.3,0l0,0
		c-0.6,0-1.3-0.3-1.6-0.9c-0.2,0.2-0.5,0.4-0.8,0.6c-0.4,0.2-0.8,0.3-1.2,0.4h-0.7v5.8c0.5,0,1.1,0.1,1.6,0.2
		c1.7,0.3,3.1,1.5,3.5,3.3c0,0.3-0.1,0.5-0.4,0.6c0,0-0.1,0-0.1,0L22.9,61.3z"/>
	<path style="fill:#FFFFFF;" d="M26.6,16.6c2.7,0,4.9,1,5.9,3.3c0.6-1.6,2.4-2.4,4-1.8c1,0.4,1.7,1.2,1.9,2.3c1.9-0.3,3.6,1,3.9,2.8
		c0.1,0.7,0,1.4-0.3,2.1c1.6,0.6,2.6,2.2,2.4,3.9c1.3,0.6,1.9,2.2,1.2,3.4c-0.4,0.8-1.2,1.4-2.1,1.5c-0.3,1.4-1.7,2.2-3.1,1.9
		c-0.7-0.2-1.3-0.6-1.6-1.2l0,0c0,0-3.4,1.7-3.3,4.2s2.6,4.6,2.5,8c-0.1,2.7-0.8,3.5-1.6,3.8c-0.1,0.1-0.3,0.1-0.4,0.1l0,0h-0.2l0,0
		c-0.7,0-1.2-0.3-1.4-1.4l-0.1,0.1c-0.1,0.1-0.2,0.3-0.3,0.4c-0.2,0.3-0.5,0.5-0.8,0.6c-0.3,0.2-0.7,0.3-1,0.3h-0.5
		c-0.2,0-0.3,0-0.5-0.1h-0.2v6.8c0.7,0,1.3,0.1,2,0.3c1.5,0.2,2.8,1.3,3.1,2.8H23c1.2-1.4,2.8-2.3,4.6-2.7c0,0-0.1-6.8,0-6.8v-0.1
		l-0.2,0.1c-0.2,0.1-0.4,0.2-0.6,0.2c-0.2,0-0.4,0-0.6,0c-0.4,0-0.8-0.1-1.2-0.2c-0.4-0.1-0.8-0.4-1.1-0.7c-0.2-0.1-0.3-0.3-0.4-0.5
		V50c-0.3,0.5-0.9,0.8-1.5,0.9c-0.1,0-0.2,0-0.3,0c-3.7-0.9-0.2-7.4,0.2-8.8s-0.1-2.4-1-4.1c-0.8-1.2-1.9-2.1-3.3-2.6l-0.1,0.1
		c-0.1,0.1-0.3,0.2-0.4,0.3c-1.7,1.6-4.4,1.6-6-0.1c-1-1.1-1.4-2.6-1-4.1l0,0c0.1-0.6,0.3-1.1,0.6-1.5c-1.4-3.3,0-7,3.2-8.6
		c0.8-0.3,1.6-0.5,2.4-0.4c1.1,0,2.2,0.2,3.3,0.8l0.3-0.1h0.1C20.7,18.6,23.4,16.5,26.6,16.6 M26.6,15.6c-3.2-0.1-6.2,1.9-7.3,4.9
		c-0.9-0.3-1.9-0.5-2.9-0.5c-1,0-2,0.2-2.9,0.5c-3.4,1.7-5.1,5.7-3.9,9.3c-0.3,0.4-0.5,0.9-0.6,1.4c-0.8,2.8,0.8,5.7,3.6,6.5
		c1.8,0.5,3.7,0,5-1.2l0,0c1,0.4,1.8,1.1,2.4,1.9c1,1.8,1.2,2.5,0.9,3.4c0,0.2-0.2,0.5-0.4,0.9c-0.8,2-2.2,5.5-1.1,7.6
		c0.4,0.8,1.1,1.3,2,1.5c0.2,0,0.4,0.1,0.6,0.1c0.5,0,1-0.2,1.4-0.5c0.4,0.3,0.8,0.5,1.2,0.7c0.5,0.2,1,0.3,1.5,0.3h0.4
		c0,0.6,0,1.4,0,2.2c0,1,0,2,0,2.7c-1.7,0.5-3.3,1.6-4.5,2.9c-0.3,0.4-0.3,1.1,0.2,1.4c0.2,0.1,0.4,0.2,0.6,0.2h13c0.6,0,1-0.4,1-1
		c0-0.1,0-0.1,0-0.2c-0.4-1.9-2-3.4-3.9-3.7c-0.4-0.1-0.8-0.1-1.2-0.2v-4.8H32c0.5,0,1-0.2,1.4-0.4c0.2-0.1,0.3-0.2,0.5-0.3
		c0.4,0.4,1.1,0.7,1.7,0.7h0.3H36c0.3,0,0.5-0.1,0.7-0.2c1.9-0.6,2.2-2.9,2.3-4.6c0-1.9-0.5-3.7-1.5-5.3c-0.5-0.9-0.8-1.8-1-2.8
		c-0.1-1.1,1.2-2.2,2.1-2.8c1.4,1.4,3.7,1.3,5.1-0.1c0.3-0.3,0.5-0.6,0.7-1c1.9-0.6,3-2.6,2.4-4.5c-0.2-0.8-0.7-1.4-1.3-1.9
		c0-1.6-0.9-3-2.2-3.8c0.1-0.3,0.1-0.7,0.1-1c0-2.4-1.9-4.3-4.2-4.4c-0.9-2.1-3.3-3.1-5.3-2.2c-0.5,0.2-0.9,0.5-1.3,0.8
		C31,16.3,28.8,15.4,26.6,15.6L26.6,15.6z"/>
	<path style="fill:#71AC72;" d="M44.4,29.2c0.2-1.7-0.8-3.3-2.4-3.9c0.9-1.7,0.2-3.7-1.5-4.6c-0.7-0.3-1.4-0.5-2.1-0.3
		c-0.3-1.7-2-2.8-3.6-2.4c-1,0.2-1.9,0.9-2.3,1.9c-1.1-2.3-3.2-3.3-5.9-3.3c-3.2-0.1-6.1,2.2-6.7,5.4c-1.8-1-4-1.2-6-0.5
		c-3.2,1.6-4.6,5.4-3.2,8.6c-1.4,1.9-1.1,4.5,0.8,6c1.9,1.4,4.5,1.1,6-0.8c1.4,0.6,2.5,1.5,3.4,2.7c1,1.8,1.4,2.8,1,4.1
		S18,50,21.7,50.8c1.2,0.3,2-1.1,2-1.1s0.2,1.1,4,1.3v7c-1.8,0.4-3.5,1.4-4.7,2.8h13c-0.4-1.5-1.6-2.6-3.1-2.8
		c-0.7-0.1-1.3-0.2-2-0.3v-6.8c1.3,0.2,2.6-0.4,3.4-1.4c0.2,1.1,0.8,1.4,1.5,1.4c1,0,2.1-0.5,2.3-3.8s-2.3-5.5-2.5-8
		s3.3-4.2,3.3-4.2l0,0c0.7,1.2,2.3,1.7,3.5,0.9c0.6-0.4,1-0.9,1.2-1.6c1.4-0.1,2.5-1.4,2.3-2.8C45.8,30.4,45.2,29.6,44.4,29.2
		L44.4,29.2z"/>
	<path style="fill:#5BA461;" d="M39.3,31.5c0-1.1-0.9-2-2-2c-1.5-0.2-2.9,0.5-3.8,1.8c0-0.1,0-0.2,0-0.3c0-0.4,0-0.8,0-1.2
		c-0.1-0.3,0-0.5,0.2-0.7c0.1-0.1,0.3-0.2,0.4-0.3l0.1-0.1l0,0l0,0c0.1-0.1,0.1-0.1,0.2-0.2c0.1-0.1,0.3-0.2,0.5-0.3
		c-0.1-0.9-0.5-1.7-1.3-2.3c-0.8-0.6-1.8-0.8-2.8-0.6l-0.1-0.1l-0.1,0.1c0.6,0.9,0.7,2,0.2,3c-0.9-1.2-2.5-1.8-4-1.5
		c-1.2,0.2-2.2,0.9-2.7,1.9c-0.4,0.5-0.6,1-0.8,1.6c-0.3-0.7-0.4-1.5-0.3-2.2c0-0.2,0.1-0.4,0.1-0.6v-0.1c0.1-0.1,0.1-0.3,0.2-0.4
		c0-0.1,0-0.3,0-0.4c0-0.2,0.1-0.4,0.1-0.6v-0.1c0.1-0.4-0.1-0.9-0.6-1c0,0-0.1,0-0.1,0c-2-0.6-4.1,0.5-4.7,2.4
		c0,0.1-0.1,0.2-0.1,0.3c-0.3,0.6-0.4,1.3-0.4,2c0,0.1,0,0.3,0.1,0.4c-0.5-0.1-0.9-0.1-1.4,0c-1.8,0.4-4.2,2.6-3.1,4.6
		c0.1,0.3,0.4,0.6,0.7,0.7c1.5,1.2,4-0.8,5-1.2c0.3,0.1,0.6,0.7,0.8,0.8c0.1,0.1,0.1,0.1,0.2,0.2l0.5,0.3c1.3,1.1,2.5,2.3,3.6,3.7
		l0,0c0.1,0.2,0.2,0.3,0.3,0.4c1.2,0.5,2.5,0.8,3.8,1c1.6,0.4,3.2,0.5,4.8,1c0.4,0.1,0.8-0.1,1-0.5c0.2-0.2,0.4-0.4,0.5-0.6
		c0.4-0.9,0.3-1.9,0.7-2.8c0.2-0.6,0.6-1.2,0.9-1.8c0.3-0.3,0.6-0.5,0.8-0.8c1-0.6,2.6-1.3,2.8-2.6C39.5,32.2,39.5,31.8,39.3,31.5z"
		/>
	<path style="fill:#498049;" d="M25.5,47.1c0,0-0.3-0.5,1.2-0.4c0.8,0.1,1.7,0.1,2.5-0.1c0.4-0.1,2.2-1.3,2.8-1s1.2,0.9,0,1.6
		s-3.7,0.7-4.6,0.6S25.9,47.6,25.5,47.1z"/>
	<path style="fill:#FFFFFF;" d="M33.8,39.5c0,0,0,6.5-5.4,6.6s-5.7-5.9-4.7-8.1c1.3-2.7,4.5-4,7.3-2.9
		C32.7,35.8,33.8,37.6,33.8,39.5z"/>
	<path style="fill:#498049;" d="M33.8,39.5c0,0.7-0.1,1.5-0.3,2.2c-0.2,0.7-0.4,1.4-0.8,2c-0.2,0.3-0.4,0.6-0.6,0.9
		c-0.2,0.3-0.5,0.5-0.8,0.8c-0.6,0.4-1.3,0.7-2,0.8c-0.7,0.1-1.5,0.1-2.2,0c-0.4-0.1-0.7-0.2-1.1-0.3c-0.4-0.1-0.7-0.3-1-0.6
		c-0.3-0.2-0.6-0.5-0.8-0.8c-0.2-0.3-0.4-0.6-0.6-1c-0.3-0.7-0.5-1.4-0.6-2.2c-0.1-0.7,0-1.5,0.1-2.2c0.1-0.4,0.2-0.7,0.3-1.1
		c0.2-0.4,0.4-0.7,0.6-1c0.9-1.2,2.3-2,3.8-2.3c1.5-0.3,3,0.1,4.2,1C33.2,36.6,33.8,38,33.8,39.5z M33.8,39.5c0-0.7-0.1-1.5-0.5-2.1
		c-0.3-0.7-0.8-1.2-1.4-1.6c-1.2-0.8-2.7-1.1-4.1-0.8c-1.4,0.3-2.6,1.1-3.5,2.3c-0.2,0.3-0.4,0.6-0.5,0.9c-0.1,0.3-0.2,0.7-0.3,1
		c-0.1,0.7-0.1,1.4-0.1,2.1c0.1,0.7,0.2,1.4,0.5,2c0.3,0.6,0.7,1.2,1.2,1.7c0.5,0.5,1.2,0.8,1.8,0.9c0.7,0.2,1.4,0.2,2.1,0.1
		c0.7-0.1,1.4-0.3,2-0.7c0.3-0.2,0.6-0.4,0.8-0.7c0.2-0.3,0.5-0.6,0.7-0.9C33.3,42.4,33.7,41,33.8,39.5z"/>
	<path style="fill:#3F9C53;" d="M25.5,36.3c1.1-0.9,2.6-1.3,4-1c2.7,0.3,3.7,3.1,3.9,3.9c0.3,2.3-1.4,7.7-6.4,5.9
		C22.8,43.7,23.9,37.8,25.5,36.3z"/>
	<path d="M25.4,41.5c-0.6-1.5,0.3-6.3,4.5-5s2.4,6.2,1.4,6.8C30.4,43.7,27,45.5,25.4,41.5z"/>
	<path style="fill:#3F9C53;" d="M27.8,31.8c1-0.2,3.4-0.4,3.6,1.8c0.1,1.4-1.2,0.1-2.8,0.1c-3.1-0.1-3.4,1.5-4.1,1.1
		C24.3,34.6,24.6,32.3,27.8,31.8z"/>
	<path style="fill:#A5CFB3;" d="M10,31.5c0.2-0.8,0.6-1.6,1.3-2.1c0.7-0.5,1.5-0.8,2.4-0.9c0.4,0,0.8,0,1.3,0
		c0.4,0.1,0.9,0.2,1.2,0.4c0.8,0.4,1.4,1.1,1.5,2c-0.5-0.5-1.2-0.8-1.9-1c-0.3-0.1-0.7-0.1-1-0.1c-0.3,0-0.7,0-1,0
		c-0.7,0.1-1.3,0.2-1.9,0.5C11.2,30.6,10.5,31,10,31.5z"/>
	<path style="fill:#93BD91;" d="M15.4,29c-0.4-1.4-0.2-3,0.6-4.2l0.1-0.2l0.2-0.2c0.1-0.1,0.2-0.3,0.4-0.4c0.3-0.3,0.5-0.5,0.8-0.8
		l0.5-0.3l0.5-0.3c0.6-0.4,1.3-0.7,2.1-0.9c0.2,0,0.4-0.1,0.6-0.1c0.2,0,0.4-0.1,0.6-0.1h0.6c0.2,0,0.4,0,0.6,0.1
		c0.2,0,0.4,0.1,0.5,0.1c0.2,0,0.4,0.1,0.5,0.2c1.4,0.5,2.5,1.4,3.3,2.6c-1.1-0.8-2.3-1.4-3.6-1.7c-1.2-0.2-2.5-0.1-3.6,0.4
		l-0.4,0.2c-0.1,0.1-0.3,0.1-0.4,0.2l-0.4,0.2l-0.4,0.3c-0.3,0.2-0.5,0.4-0.7,0.6c-0.1,0.1-0.2,0.2-0.3,0.3L17,25.2l-0.1,0.2
		C16,26.4,15.5,27.7,15.4,29z"/>
	<path style="fill:#A5CFB3;" d="M33.4,32.3c-0.2-0.6-0.3-1.2-0.3-1.9c0-0.7,0.3-1.3,0.7-1.9c0.5-0.5,1.1-0.9,1.7-1.1
		c0.7-0.2,1.3-0.2,2-0.2c0.7,0,1.4,0.2,2,0.5c0.6,0.4,1,1,1.2,1.7c0.1,0.7,0.1,1.3,0,2c-0.2,0.6-0.4,1.2-0.7,1.8
		c0.1-0.6,0.2-1.2,0.2-1.8c0-0.6,0-1.2-0.2-1.7c-0.2-0.5-0.5-1-1-1.2c-0.5-0.3-1.1-0.4-1.6-0.4c-0.6,0-1.2,0-1.7,0.1
		c-0.5,0.1-1.1,0.4-1.5,0.8c-0.4,0.4-0.7,0.9-0.8,1.5C33.3,31.1,33.3,31.7,33.4,32.3z"/>
	<path style="fill:#A5CFB3;" d="M28,24.2c0.3-0.4,0.7-0.7,1.2-0.9c0.5-0.2,0.9-0.3,1.5-0.4c1-0.1,2,0,3,0.4c0.5,0.1,1,0.4,1.4,0.6
		c0.4,0.3,0.7,0.6,1,1c0.6,0.8,0.9,1.8,0.8,2.8c-0.1-0.9-0.5-1.8-1.2-2.6c-0.3-0.3-0.7-0.6-1.1-0.9c-0.4-0.2-0.8-0.4-1.3-0.5
		c-0.9-0.3-1.8-0.4-2.8-0.4C29.6,23.3,28.7,23.6,28,24.2z"/>
	<path style="fill:#A5CFB3;" d="M32.1,23c0.6-1,1.6-1.7,2.7-1.9c0.3-0.1,0.6-0.1,0.9-0.1h0.4c0.1,0,0.3,0,0.4,0
		c0.3,0,0.6,0.1,0.8,0.2l0.4,0.1c0.1,0,0.3,0.1,0.4,0.2l0.4,0.2c0.1,0.1,0.3,0.1,0.4,0.2c0.3,0.1,0.5,0.3,0.7,0.5
		c0.4,0.4,0.8,0.9,1,1.4c0.4,1.1,0.4,2.2,0,3.3c0.1-1-0.1-2.1-0.5-3c-0.3-0.4-0.6-0.8-1-1.1l-0.3-0.2c-0.1-0.1-0.2-0.1-0.3-0.2
		c-0.1-0.1-0.2-0.1-0.3-0.2l-0.3-0.2c-0.1,0-0.2-0.1-0.3-0.2L37.1,22c-0.2-0.1-0.5-0.2-0.7-0.2c-0.1,0-0.2-0.1-0.4-0.1h-0.4
		c-0.2,0-0.5,0-0.8,0C33.8,21.8,32.9,22.3,32.1,23z"/>
	<path style="fill:#71AC72;" d="M23.5,47.2c0,0-0.7,1.5,0,2.3c0.8,1.2,2.2,1.8,3.6,1.6c1.3-0.1,1.1-2.2,1.1-2.2"/>
	<path style="fill:#498049;" d="M23.5,47.2c-0.1,0.4-0.2,0.8-0.2,1.1c0,0.2,0,0.4,0,0.5c0,0.2,0.1,0.3,0.2,0.5
		c0.2,0.3,0.5,0.6,0.7,0.8c0.3,0.2,0.6,0.4,0.9,0.5c0.3,0.1,0.7,0.2,1.1,0.2c0.2,0,0.4,0,0.6,0c0.1,0,0.2,0,0.3,0h0.1h0.1
		c0.3-0.2,0.5-0.4,0.6-0.8c0.1-0.4,0.2-0.7,0.2-1.1c0.1,0.4,0.1,0.8,0,1.2c0,0.2-0.1,0.4-0.2,0.6c-0.1,0.2-0.3,0.4-0.5,0.5
		c-0.2,0.1-0.4,0.2-0.6,0.2c-0.2,0-0.4,0-0.6,0c-0.4,0-0.8-0.1-1.1-0.2c-0.4-0.1-0.8-0.4-1.1-0.7c-0.2-0.1-0.3-0.3-0.4-0.5
		c-0.1-0.2-0.2-0.3-0.4-0.5C23,49.4,23,49.2,23,48.9c0-0.2,0-0.4,0-0.6C23.1,47.9,23.2,47.6,23.5,47.2z"/>
	<path style="fill:#71AC72;" d="M29.6,49.3c0,0,0.5,1.3,1.4,1.4c1.2,0.2,2.4-0.3,3.1-1.3c0.7-0.9-0.7-2-0.7-2"/>
	<path style="fill:#498049;" d="M29.6,49.3c0.2,0.3,0.4,0.5,0.6,0.8c0.1,0.1,0.2,0.2,0.4,0.3c0.1,0.1,0.3,0.1,0.4,0.2
		c0.3,0,0.6,0,0.9,0c0.3,0,0.6-0.1,0.9-0.3c0.3-0.1,0.5-0.3,0.8-0.5c0.1-0.1,0.2-0.2,0.3-0.3c0.1-0.1,0.1-0.1,0.1-0.2l0.1-0.1V49
		c0.1-0.3,0-0.6-0.1-0.8c-0.2-0.3-0.4-0.6-0.6-0.8c0.3,0.2,0.6,0.4,0.8,0.7c0.1,0.1,0.2,0.3,0.3,0.5c0.1,0.2,0.1,0.4,0,0.6
		c-0.1,0.2-0.1,0.4-0.3,0.5c-0.1,0.1-0.2,0.3-0.3,0.4c-0.2,0.3-0.5,0.5-0.8,0.6c-0.3,0.2-0.7,0.3-1,0.3c-0.2,0-0.4,0-0.5,0
		c-0.2,0-0.3,0-0.5-0.1c-0.2,0-0.4-0.1-0.5-0.3c-0.1-0.1-0.3-0.2-0.4-0.4C29.8,49.9,29.7,49.6,29.6,49.3z"/>
	<path style="fill:#A5CFB3;" d="M20.5,21c0.4-1.4,1.4-2.5,2.6-3.2c1.3-0.7,2.7-1,4.1-0.9c0.4,0,0.7,0.1,1,0.1
		c0.4,0.1,0.7,0.2,1.1,0.3c0.7,0.3,1.3,0.7,1.8,1.2c0.9,1.1,1.5,2.4,1.5,3.8c-0.2-0.6-0.5-1.2-0.9-1.8c-0.3-0.5-0.7-1-1.2-1.4
		c-0.5-0.4-1-0.7-1.6-0.9c-0.3-0.1-0.6-0.2-0.9-0.2c-0.3,0-0.6-0.1-1-0.1c-1.3-0.1-2.5,0.1-3.7,0.6C22.2,19.1,21.2,19.9,20.5,21z"/>
	<path style="fill:#A5CFB3;" d="M11.1,29.2c-0.5-1.1-0.6-2.3-0.3-3.4c0.1-0.6,0.4-1.1,0.7-1.6c0.3-0.5,0.7-1,1.1-1.4
		c0.4-0.4,1-0.8,1.5-1c0.6-0.2,1.1-0.4,1.8-0.4c1.2-0.1,2.3,0.2,3.3,0.8c-1.1-0.1-2.2-0.1-3.2,0.1c-0.5,0.1-1,0.3-1.4,0.5
		c-0.4,0.2-0.9,0.5-1.2,0.9c-0.1,0.1-0.2,0.2-0.3,0.3l-0.3,0.3c-0.2,0.2-0.3,0.4-0.5,0.6c-0.3,0.4-0.5,0.9-0.7,1.3
		C11.1,27,11,28.1,11.1,29.2z"/>
	<path style="fill:#A5CFB3;" d="M23,27.7c0.2-0.8,0.5-1.6,1.1-2.3c0.6-0.7,1.4-1.2,2.2-1.4c0.4-0.1,0.9-0.2,1.3-0.2
		c0.4,0,0.9,0.1,1.3,0.2c0.4,0.1,0.8,0.3,1.2,0.6c0.3,0.3,0.6,0.7,0.6,1.1c-0.2-0.3-0.6-0.5-0.9-0.7c-0.3-0.1-0.7-0.2-1-0.3
		c-0.4,0-0.7,0-1.1,0c-0.2,0-0.4,0-0.5,0.1c-0.2,0-0.3,0.1-0.5,0.1c-0.7,0.2-1.3,0.6-1.9,1C24.1,26.5,23.5,27.1,23,27.7z"/>
	<path style="fill:#93BD91;" d="M41.8,30.3c0.4-0.4,1-0.7,1.5-0.8c0.3-0.1,0.7-0.1,1,0c0.3,0.1,0.6,0.3,0.9,0.5
		c0.2,0.2,0.4,0.5,0.5,0.9c0.1,0.3,0.1,0.7,0,1c-0.1,0.6-0.5,1.1-1.1,1.4c0.3-0.4,0.4-0.9,0.5-1.5c0-0.4-0.2-0.9-0.5-1.2
		c-0.1-0.1-0.3-0.3-0.5-0.3c-0.2-0.1-0.4-0.1-0.7-0.1C42.9,30.1,42.3,30.2,41.8,30.3z"/>
	<path style="fill:#93BD91;" d="M40.8,25.5c0.5-0.1,1,0,1.5,0.1c0.5,0.2,1,0.6,1.3,1c0.1,0.1,0.2,0.2,0.2,0.4
		c0.1,0.1,0.1,0.2,0.2,0.4c0,0.1,0.1,0.3,0.1,0.4s0,0.3,0,0.4c0,0.1,0,0.3,0,0.4c0,0.1,0,0.3,0,0.4c-0.1,0.2-0.1,0.5-0.2,0.7
		c-0.1-0.3-0.1-0.5-0.2-0.7l-0.1-0.3v-0.2l-0.1-0.2l-0.1-0.3l-0.1-0.3c0-0.1-0.1-0.2-0.2-0.3c0-0.1-0.1-0.2-0.2-0.3
		c-0.3-0.3-0.6-0.6-0.9-0.9C41.6,26,41.2,25.7,40.8,25.5z"/>
	<path style="fill:#3F9C53;" d="M22.7,43.2c0,0.8,0.1,1.7,0.5,2.5c0.3,0.8,0.9,1.4,1.5,1.9c0.7,0.4,1.5,0.7,2.3,0.9
		c0.8,0.1,1.7,0.2,2.5,0.1c0.8,0,1.6-0.2,2.4-0.5c0.4-0.2,0.7-0.4,1.1-0.6c0.3-0.2,0.6-0.5,0.8-0.9c0.5-0.7,0.8-1.5,0.9-2.3
		c0.1-0.8,0.1-1.7,0-2.5c0.1,0.4,0.3,0.8,0.3,1.3c0,0.4,0,0.9,0,1.3c-0.1,0.9-0.3,1.7-0.8,2.5c-0.2,0.4-0.6,0.7-0.9,1
		c-0.4,0.3-0.7,0.5-1.1,0.7c-0.8,0.3-1.7,0.5-2.6,0.6c-0.9,0.1-1.7,0-2.6-0.1c-0.2,0-0.4-0.1-0.6-0.2s-0.4-0.1-0.6-0.2
		c-0.4-0.2-0.8-0.4-1.2-0.6c-0.7-0.5-1.3-1.3-1.5-2.1c-0.1-0.4-0.2-0.8-0.3-1.3C22.6,44.1,22.7,43.7,22.7,43.2z"/>
	<path style="fill:#3F9C53;" d="M21.7,43.6c-0.2,0.7-0.4,1.4-0.5,2.1c-0.2,0.7-0.3,1.4-0.4,2c0,0.3,0,0.7,0,1c0,0.3,0.1,0.6,0.3,0.9
		c0.2,0.3,0.4,0.4,0.7,0.5c0.3,0,0.7-0.1,0.9-0.4c-0.1,0.2-0.2,0.3-0.3,0.5c-0.2,0.1-0.4,0.2-0.6,0.2c-0.4,0-0.8-0.2-1.1-0.5
		c-0.3-0.3-0.4-0.7-0.5-1.1c0-0.4,0-0.8,0-1.1c0.1-0.7,0.2-1.4,0.5-2.1C21,44.8,21.3,44.2,21.7,43.6z"/>
	<path style="fill:#A5CFB3;" d="M24.5,34.3c0-0.8,0.4-1.6,1.1-2.1c0.7-0.5,1.4-0.8,2.3-0.8c0.8-0.1,1.6,0,2.4,0.3
		c0.4,0.2,0.7,0.4,1,0.8c0.2,0.3,0.3,0.7,0.3,1.2c0-0.4-0.2-0.7-0.5-1c-0.3-0.2-0.6-0.4-0.9-0.5C29.8,32,29.4,32,29,32h-0.8h-0.3
		h-0.3h-0.3h-0.3l-0.3,0.1c-0.4,0.1-0.7,0.2-1,0.4C25.2,32.9,24.7,33.6,24.5,34.3z"/>
	<path style="fill:#A5CFB3;" d="M23.9,60.3c0.8-0.7,1.7-1.2,2.6-1.5c1-0.4,2-0.6,3-0.6c1,0,2.1,0.1,3.1,0.3c0.3,0,0.5,0.1,0.8,0.2
		l0.4,0.2l0.3,0.2c0.2,0.1,0.4,0.3,0.6,0.5c0.2,0.2,0.3,0.4,0.3,0.7c0-0.2-0.2-0.5-0.4-0.6c-0.2-0.1-0.4-0.3-0.6-0.3
		c-0.5-0.2-0.9-0.3-1.4-0.3c-0.5-0.1-1-0.1-1.5-0.1c-0.5,0-1,0-1.5,0c-0.5,0-1,0.1-1.5,0.1c-0.3,0-0.5,0.1-0.7,0.1s-0.5,0.1-0.7,0.2
		C25.7,59.4,24.8,59.8,23.9,60.3z"/>
	<path style="fill:#FFFFFF;" d="M26.1,36.3c0.2-0.2,0.5-0.3,0.8-0.2c0.8,0.5,1.6,1.1,2.3,1.9c0.3,0.5-0.3,1.8-1.2,0.6
		c-0.3-0.4-0.5-0.7-0.9-1.1C26.5,37,25.8,36.6,26.1,36.3z"/>
	<path style="fill:#FFFFFF;" d="M30.6,42c0,0,0.4-0.1,0.7,0.6s0.2,1-0.1,1.2s-0.6-0.4-0.7-1.1S30.6,42,30.6,42z"/>
	<path style="fill:#3F9C53;" d="M24.1,60.3c0.9-0.2,1.9-0.2,2.8-0.3s1.9-0.1,2.8-0.1s1.9,0,2.8,0c0.9,0,1.9,0.2,2.8,0.4
		c-0.9,0-1.8,0-2.8,0l-2.8,0.1c-0.9,0-1.9,0-2.8,0S25,60.4,24.1,60.3z"/>
	<path style="fill:#3F9C53;" d="M34.8,42.4c0.2,0.7,0.4,1.4,0.4,2.1c0,0.4,0,0.7-0.1,1.1l-0.3,1c-0.2,0.7-0.2,1.3-0.2,2
		c0,0.2,0,0.3,0.1,0.5c0,0.1,0,0.2,0.1,0.2c0,0.1,0.1,0.2,0.1,0.2l0.1,0.2l0.2,0.2c0.1,0.1,0.2,0.2,0.3,0.3c0.2,0.2,0.5,0.2,0.7,0
		c0.2-0.2,0.4-0.5,0.5-0.7c0.3-0.6,0.4-1.3,0.5-2c0.1-1.4,0-2.8-0.4-4.2c0.6,1.3,0.9,2.8,0.9,4.2c0,0.7-0.2,1.5-0.4,2.2
		c-0.1,0.4-0.4,0.7-0.7,1c-0.2,0.1-0.4,0.2-0.6,0.2c-0.2,0-0.5-0.1-0.7-0.2c-0.2-0.1-0.3-0.3-0.4-0.4L34.7,50l-0.2-0.3
		c-0.2-0.3-0.3-0.7-0.3-1.1c0-0.4,0-0.7,0-1.1c0.1-0.4,0.1-0.7,0.3-1.1c0.1-0.3,0.2-0.7,0.3-1c0.1-0.3,0.2-0.7,0.2-1
		C35,43.7,35,43,34.8,42.4z"/>
	<path style="fill:#93BD91;" d="M32.7,19.9c0.3-0.6,0.8-1.2,1.4-1.5c0.3-0.2,0.6-0.3,1-0.4c0.4,0,0.8,0,1.1,0.1
		c0.7,0.2,1.3,0.8,1.6,1.5c0.3,0.6,0.4,1.3,0.4,2c-0.2-0.6-0.4-1.3-0.8-1.8c-0.3-0.5-0.8-0.9-1.4-1.1c-0.6-0.2-1.2-0.2-1.8,0.1
		C33.7,19,33.2,19.4,32.7,19.9z"/>
	<path style="fill:#3F9C53;" d="M11,34.9c0.6,0.5,1.3,0.9,2,1c0.1,0,0.2,0,0.3,0h0.3c0.2,0,0.4,0,0.6,0c0.4,0,0.7,0,1.1-0.1
		c0.2,0,0.4-0.1,0.5-0.1l0.5-0.2c0.4-0.1,0.7-0.3,1-0.5c0.6-0.4,1-1.1,1.2-1.8c0,0.8-0.4,1.6-1,2.1c-0.3,0.3-0.7,0.5-1,0.6l-0.6,0.2
		c-0.2,0.1-0.4,0.1-0.6,0.2c-0.8,0.2-1.6,0.1-2.4-0.1C12.1,36,11.5,35.5,11,34.9z"/>
	<path style="fill:#93BD91;" d="M38.1,20.8c0.6-0.2,1.3-0.2,1.9,0c0.3,0.1,0.6,0.2,0.9,0.4c0.1,0.1,0.3,0.2,0.4,0.3
		c0,0.1,0.1,0.1,0.2,0.2l0.1,0.2c0.3,0.5,0.5,1.2,0.5,1.8c0,0.6-0.1,1.3-0.4,1.8c0.2-0.6,0.3-1.2,0.2-1.8c-0.1-0.6-0.3-1.2-0.6-1.7
		c-0.1-0.2-0.3-0.5-0.6-0.6c-0.2-0.2-0.5-0.3-0.8-0.4c-0.3-0.1-0.6-0.1-0.9-0.2C38.7,20.8,38.4,20.8,38.1,20.8z"/>
	<path style="fill:#93BD91;" d="M27.6,49.5c0.1,0.2,0.1,0.5,0,0.8c-0.1,0.3-0.3,0.5-0.6,0.6c-0.3,0.1-0.5,0.1-0.8,0
		c-0.1,0-0.2-0.1-0.3-0.2c-0.1-0.1-0.2-0.1-0.3-0.2c0.1,0,0.2,0,0.4,0h0.3c0.2,0,0.4-0.1,0.5-0.1c0.2-0.1,0.3-0.2,0.4-0.3
		C27.4,49.8,27.5,49.7,27.6,49.5z"/>
	<path style="fill:#93BD91;" d="M33.3,49.6c-0.2,0.3-0.5,0.5-0.8,0.6c-0.3,0.1-0.7,0.2-1,0.2c-0.4,0-0.7-0.1-1-0.3
		c-0.3-0.2-0.5-0.5-0.6-0.8c0.3,0.2,0.5,0.3,0.8,0.4c0.3,0.1,0.6,0.2,0.8,0.2C32.1,49.9,32.7,49.8,33.3,49.6z"/>
	<path style="fill:#5BA461;" d="M42.9,32.4c-0.4-0.6-1-1-1.7-1.1c-0.7-0.2-1.4-0.2-2.1,0.2c-0.3,0.2-0.6,0.5-0.7,0.9l0,0
		c-0.4,0-0.8,0.5-0.7,0.9c0,0.4,0.3,0.7,0.7,0.7c0.7,0,1.3,0.8,2,1c0.8,0.3,1.6,0.1,2.2-0.5C43.2,33.9,43.3,33,42.9,32.4z"/>
	<path style="fill:#3F9C53;" d="M25.5,24.3c-0.5,0.3-0.9,0.7-1.2,1.2c-0.3,0.5-0.6,1-0.7,1.5l-0.1,0.4c0,0.1,0,0.3-0.1,0.4
		c-0.1,0.3-0.1,0.6-0.1,0.8c0,0.3,0,0.6,0,0.9s0,0.6,0,0.9c-0.1-0.3-0.2-0.6-0.3-0.9s-0.1-0.6-0.1-0.9c-0.1-0.6,0-1.2,0.1-1.8
		c0.2-0.6,0.6-1.1,1-1.6C24.4,24.8,24.9,24.4,25.5,24.3z"/>
	<path style="fill:#3F9C53;" d="M15.4,28.3c-0.2-1.4,0-2.8,0.8-4l0.3-0.4l0.3-0.4c0.1-0.1,0.2-0.3,0.4-0.4c0.1-0.1,0.3-0.2,0.4-0.3
		c0.3-0.2,0.6-0.4,0.9-0.5l0.5-0.2l0.5-0.2l0.5-0.2l0.5-0.1c0.2,0,0.3-0.1,0.5-0.1l0.5-0.1h0.3h0.8c0.3,0,0.7,0.1,1,0.1
		c1.4,0.3,2.6,1.2,3.2,2.4c-0.8-1.1-1.9-1.8-3.3-2c-0.2,0-0.3-0.1-0.5-0.1h-0.5h-0.5h-0.2h-0.2l-0.5,0.1c-0.2,0-0.3,0.1-0.5,0.1
		L20,22.2l-0.5,0.2L19,22.5l-0.4,0.2c-0.3,0.1-0.6,0.3-0.8,0.5c-0.5,0.4-1,0.8-1.3,1.4C15.7,25.7,15.3,27,15.4,28.3z"/>
	<path style="fill:#3F9C53;" d="M28.2,23.8c0.6-0.5,1.3-0.8,2.1-1c0.4-0.1,0.8-0.2,1.2-0.2c0.4,0,0.8,0,1.2,0
		c0.8,0.1,1.5,0.3,2.2,0.7c0.4,0.2,0.7,0.4,0.9,0.8c0.2,0.3,0.4,0.6,0.5,1c-0.3-0.7-0.9-1.2-1.6-1.4c-0.7-0.3-1.4-0.4-2.1-0.5
		c-0.4,0-0.7-0.1-1.1-0.1c-0.4,0-0.7,0-1.1,0.1C29.6,23.2,28.9,23.5,28.2,23.8z"/>
	<path style="fill:#3F9C53;" d="M33.3,32.2c-0.4-0.7-0.6-1.5-0.5-2.3c0.1-0.4,0.2-0.8,0.4-1.1l0.2-0.3l0.2-0.2
		c0.1-0.2,0.3-0.3,0.5-0.4c0.7-0.5,1.5-0.7,2.3-0.8c0.8,0,1.6,0.1,2.3,0.4c-0.7-0.1-1.5-0.1-2.3,0c-0.2,0-0.4,0.1-0.5,0.1
		c-0.2,0-0.4,0.1-0.5,0.2c-0.3,0.1-0.6,0.3-0.9,0.5c-0.6,0.4-1,1.1-1.2,1.8C33.1,30.7,33.1,31.5,33.3,32.2z"/>
	<path style="fill:#498049;" d="M25.4,34.6c-0.1,0.1-0.4,0.3-0.5,0.3s-0.1-0.4,0.2-0.6c1.5-0.9,3.2-1.1,4.9-0.7
		c0.8,0.3,1.6,0.8,1.1,0.7S30,34,29.6,33.9S26.9,33.4,25.4,34.6z"/>
	<path style="fill:#85B685;" d="M28.5,47.3c0-0.1,0-0.3,0.5-0.4s0.7,0.1,0.7,0.2S28.6,47.8,28.5,47.3z"/>
	<path style="fill:#85B685;" d="M30.5,46.5c0,0,0.4-0.2,0.6-0.1c0.2,0.2,0.1,0.5,0,0.6c0,0-0.1,0.1-0.1,0.1
		C30.6,47.2,29.9,47,30.5,46.5z"/>
	<path style="fill:#85B685;" d="M27.2,47.2c0-0.1,0.1-0.2,0.3-0.2c0,0,0,0,0,0c0.3,0,0.5,0.3,0.3,0.4S27.1,47.7,27.2,47.2z"/>
	<path style="fill:#3F9C53;" d="M27.6,58l0.7-0.2c0,0-0.3-6.2,0.5-6.3s1.5,0.7,1.4,6.2h0.5v-6.9c-0.6-0.5-1-1.1-1.3-1.8
		c-0.6,0-1.4,0-1.4,0c-0.1,0.7-0.3,1.4-0.5,2.1C27.6,51.2,27.6,58,27.6,58z"/>
	<path style="fill:#498049;" d="M27.3,49c1.2,0.1,2.4,0.1,3.6-0.1c0,0.1-0.1,0.2-1.3,0.4l0.1,0.4c0,0-1.4-0.2-1.8,0.2
		c0.1-0.4,0.2-0.7,0.2-0.7C27.9,49.2,27.6,49.1,27.3,49z"/>
</g>
</svg>
