<?xml version="1.0" encoding="utf-8"?>
<!-- Generator: Adobe Illustrator 22.0.0, SVG Export Plug-In . SVG Version: 6.00 Build 0)  -->
<svg version="1.1" id="Слой_1" xmlns="http://www.w3.org/2000/svg" xmlns:xlink="http://www.w3.org/1999/xlink" x="0px" y="0px"
	 viewBox="0 0 55.8 62.9" style="enable-background:new 0 0 55.8 62.9;" xml:space="preserve">
<title>Artboard 1 копия 9</title>
<g id="Слой_12">
	<path style="fill:#391C46;" d="M28.6,61.3c-1,0-1.9,0-2.9,0l-3.8-0.1c-0.3,0-0.5-0.2-0.5-0.5c0-0.1,0-0.2,0.1-0.3l0.6-0.7
		c0.3-0.4,0.6-0.7,1-1c0.4-0.3,0.8-0.5,1.2-0.7c0.4-0.2,0.8-0.4,1.3-0.5c0.2-0.1,0.5-0.1,0.7-0.2c0-0.4,0-0.8,0-1.3
		c0-0.6,0-1.2,0-1.8c0-0.9-0.1-1.7-0.1-2.6h-0.1c-1.9-0.7-3.3-2.4-3.7-4.4c-0.4,0.2-0.8,0.4-1.2,0.5c-0.6,0.2-1.2,0.3-1.8,0.4H19
		h-0.2c-0.2,0-0.3,0-0.5,0h-0.1c-0.2,0-0.3-0.1-0.5-0.2l-0.3-0.2c-0.9-0.6-1.5-1.6-1.4-2.6c-0.9-0.7-1.6-1.6-2.1-2.7l0.4-0.3
		L14,42.3c-0.2-0.4-0.3-0.8-0.4-1.2c-0.2-0.7-0.3-1.3-0.4-2c0-0.2,0-0.3,0.1-0.5c0-0.1,0-0.2,0-0.3c-0.3-0.2-0.7-0.4-1-0.6l-0.6-0.4
		c-0.1-0.1-0.1-0.1-0.2-0.2l0-0.1c-1.3-1.3-2.1-3.1-2.2-5c-0.1-1.9,0.6-3.8,2-5.2c0.7-0.7,1.5-1.3,2.4-1.6c0.5-0.2,1.1-0.4,1.6-0.5
		c0.2-0.5,0.6-0.9,0.9-1.3c0.5-0.5,1.1-1,1.8-1.3c0.7-0.3,1.4-0.5,2.2-0.5c0.2,0,0.4,0,0.7,0v-0.1c0.4-1,1-1.9,1.7-2.6
		c0.7-0.8,1.6-1.4,2.5-1.8c0.3-0.1,0.6-0.2,0.9-0.2c0-0.3,0-0.7,0-1l0,0h-0.3c-0.2,0-0.4,0-0.5-0.1H25c-0.5-0.2-1-0.5-1.3-0.9
		c-0.4-0.4-0.5-1-0.5-1.6c0-0.6,0.2-1.1,0.5-1.5c0.1-0.1,0.1-0.2,0.2-0.2l0.1-0.1c0.1-0.1,0.2-0.1,0.3-0.2l0.1-0.1
		c0.1-0.1,0.3-0.1,0.4-0.2h0.1l0.3-0.1h0.3l-1-0.4c-0.3-0.1-0.4-0.4-0.3-0.6c0-0.1,0.1-0.2,0.2-0.2l0.6-0.4c0.4-0.3,0.9-0.5,1.4-0.6
		c0.2,0,0.4-0.1,0.6-0.1c0.3,0,0.7,0.1,1,0.2c0.4,0.2,0.8,0.4,1.2,0.8c0.1,0.1,0.2,0.2,0.2,0.3c0.1,0.1,0.1,0.2,0.2,0.3l0.1,0.1
		c0.1,0.2,0.2,0.4,0.2,0.6c0.2,0.9,0.1,1.8-0.3,2.7c-0.1,0.1-0.1,0.3-0.2,0.4l0,0l0.1,0.1c0.1,0.1,0.2,0.3,0.3,0.4
		c0.1,0.3,0.3,0.6,0.3,0.9C30,16,30,16.4,30,16.9c0.4,0.1,0.9,0.3,1.3,0.4c0.9,0.4,1.8,1.1,2.5,1.9c0.4,0.4,0.7,0.9,1,1.5l0.4-0.2
		c1.5-0.7,3.2-0.7,4.6,0c0.7,0.3,1.4,0.8,1.9,1.4c1,1.2,1.5,2.6,1.5,4.2c0,0.1,0,0.1,0,0.2c0.7,0.3,1.3,0.8,1.7,1.4
		c2.2,2.6,2.2,6.3,0,8.9l0,0c-0.5,0.7-1.2,1.2-2,1.6c-0.2,0.1-0.5,0.2-0.7,0.2c0.1,0.7,0.2,1.3,0.1,2v0.1c0,0,0,0.1,0,0.1
		c-0.1,0.5-0.3,1-0.5,1.5l-0.1,0.2c-0.1,0.2-0.2,0.3-0.2,0.4l-0.1,0.1L41,43.1c-0.3,0.5-0.7,0.9-1.2,1.3c0.1,0.6,0,1.1-0.2,1.6
		l0,0.1l0,0c0,0,0,0,0,0.1c-0.2,0.3-0.4,0.6-0.7,0.8c-0.5,0.5-1.2,0.7-1.9,0.7c-0.3,0-0.6,0-0.9-0.1l-0.5-0.1L35,47.3
		c-0.2,0.6-0.4,1.1-0.8,1.7c-0.1,0.2-0.2,0.3-0.4,0.5c-0.4,0.6-1,1.1-1.6,1.4c-0.3,0.2-0.6,0.3-0.9,0.5c0,0.3,0,0.6,0,0.8v0.3
		c0,0.5,0,1.1-0.1,1.6c-0.1,1.1-0.1,2.2-0.3,3.5l0.3,0.1l0.4,0.1c0.4,0.1,0.8,0.2,1.1,0.4c0.4,0.2,0.7,0.4,1.1,0.6
		c0.4,0.2,0.7,0.5,1,0.8l0.5,0.6c0.2,0.2,0.2,0.5,0,0.7c-0.1,0.1-0.2,0.1-0.3,0.1h-0.8c-1,0-1.9,0.1-2.9,0.1S29.7,61.2,28.6,61.3
		L28.6,61.3z"/>
	<path style="fill:#FFFFFF;" d="M26.8,9.1c0.3,0,0.5,0,0.8,0.1c0.4,0.2,0.8,0.4,1.1,0.8c0.1,0.1,0.1,0.2,0.2,0.3
		c0.1,0.1,0.1,0.2,0.2,0.3c0.1,0.2,0.2,0.4,0.2,0.6c0.2,0.8,0.1,1.6-0.2,2.4c-0.1,0.2-0.2,0.4-0.3,0.5l-0.1,0.2l0,0l0,0l0.1,0.1
		l0.1,0.2c0.1,0.1,0.2,0.2,0.2,0.4c0.1,0.3,0.2,0.5,0.3,0.8c0.1,0.5,0.1,1,0,1.6c0.6,0.1,1.1,0.3,1.6,0.5c0.9,0.4,1.7,1,2.3,1.7
		c0.5,0.6,0.9,1.2,1.2,1.9c0.3-0.2,0.5-0.3,0.8-0.4c1.3-0.6,2.9-0.6,4.2,0c0.7,0.3,1.2,0.7,1.7,1.3c1,1.1,1.5,2.5,1.5,3.9
		c0,0.2,0,0.3,0,0.5l0,0c0.7,0.3,1.3,0.8,1.8,1.4c2,2.4,2,5.9,0,8.3c-0.5,0.6-1.2,1.1-1.9,1.5c-0.4,0.1-0.7,0.2-1.1,0.3V38
		c0.2,0.7,0.2,1.5,0.2,2.3c0,0.1,0,0.1,0,0.2l0,0c-0.1,0.5-0.2,0.9-0.4,1.3L41.1,42l0,0c-0.1,0.1-0.1,0.3-0.2,0.4l-0.1,0.2l-0.2,0.3
		l0,0c-0.4,0.5-0.8,0.9-1.3,1.3l0,0c0.1,0.5,0.1,1.1-0.1,1.6l0,0l-0.1,0.2c-0.1,0.3-0.3,0.5-0.6,0.7c-0.4,0.4-1,0.6-1.6,0.6
		c-0.3,0-0.5,0-0.8-0.1l-0.5-0.1c-0.3-0.1-0.7-0.2-1-0.3l0,0c-0.1,0.7-0.4,1.4-0.8,2c-0.1,0.2-0.2,0.3-0.3,0.5l0,0v0.1
		c-0.4,0.5-0.8,0.9-1.4,1.2c-0.3,0.2-0.7,0.4-1.1,0.6c0,0.4,0,0.8,0,1.2c0,0.6,0,1.2-0.1,1.9c-0.1,1.3-0.2,2.5-0.3,3.9
		c0.2,0,0.4,0,0.5,0.1s0.4,0.1,0.5,0.1c0.4,0.1,0.7,0.2,1.1,0.4c0.3,0.2,0.7,0.4,1,0.6c0.3,0.2,0.6,0.5,0.9,0.8l0.5,0.6h-0.8
		c-1,0-1.9,0.1-2.9,0.1s-1.9,0-2.9,0l0,0c-1,0-1.9,0-2.8,0l-2.9-0.1h-1l0.6-0.7c0.3-0.3,0.6-0.6,1-0.9c0.3-0.3,0.7-0.5,1.1-0.7
		c0.4-0.2,0.8-0.3,1.2-0.5c0.3-0.1,0.7-0.2,1-0.2c0-0.6,0-1.1,0-1.7c0-0.6,0-1.3,0-1.9c0-1-0.1-2-0.1-2.9l-0.4-0.1
		c-2-0.8-3.4-2.7-3.6-4.8l-0.2,0.2c-0.5,0.4-1,0.6-1.5,0.8c-0.5,0.2-1.1,0.3-1.6,0.3c-0.1,0-0.2,0-0.4,0H19c-0.1,0-0.3,0-0.5,0
		c-0.2,0-0.3-0.1-0.5-0.1l-0.3-0.2c-0.8-0.5-1.3-1.5-1.2-2.5c-0.9-0.7-1.7-1.6-2.2-2.6v-0.1c-0.2-0.3-0.3-0.6-0.5-0.9
		c-0.2-0.6-0.3-1.2-0.3-1.9c0-0.1,0-0.2,0-0.2s0,0,0.1,0.1c0-0.3,0-0.6,0.1-0.9c-0.4-0.2-0.8-0.5-1.2-0.8L12,36.9l0.2,0.1
		c-0.1-0.1-0.3-0.3-0.4-0.4c-1.2-1.3-1.9-2.9-2-4.7c-0.1-1.8,0.6-3.6,1.8-4.9c0.6-0.6,1.4-1.2,2.2-1.5c0.6-0.2,1.2-0.4,1.8-0.5
		c0.2-0.5,0.6-1,0.9-1.4c0.5-0.5,1-0.9,1.7-1.2c0.6-0.3,1.3-0.4,2-0.4c0.3,0,0.7,0,1,0.1c0-0.1,0.1-0.3,0.1-0.5
		c0.3-0.9,0.9-1.7,1.5-2.4c0.7-0.7,1.5-1.3,2.4-1.7c0.4-0.2,0.8-0.3,1.2-0.4V17c0-0.4,0-0.8,0-1.2c0-0.1,0-0.2,0-0.3l0,0h-0.3H26
		h-0.3c-0.2,0-0.4-0.1-0.6-0.1c-0.4-0.1-0.8-0.4-1.1-0.7c-0.3-0.4-0.4-0.8-0.4-1.2c0-0.4,0.1-0.9,0.4-1.3c0.1-0.1,0.1-0.2,0.2-0.3
		c0.1-0.1,0.2-0.1,0.3-0.2c0.1-0.1,0.2-0.1,0.3-0.1l0.3-0.1c0.2,0,0.3,0,0.5,0c0.2,0,0.5,0,0.7,0.1c0.3,0.1,0.6,0.3,0.8,0.5
		c0-0.2-0.1-0.4-0.2-0.6c-0.2-0.3-0.4-0.5-0.7-0.6c-0.3-0.2-0.7-0.3-1-0.4l-0.7-0.3l0.6-0.4c0.4-0.2,0.7-0.4,1.2-0.5
		C26.5,9.2,26.6,9.2,26.8,9.1 M26.3,13c0.2-0.1,0.3-0.1,0.4-0.2c0.1-0.1,0.3-0.2,0.3-0.4v-0.1L26.3,13 M26.8,8.1
		c-0.2,0-0.5,0-0.7,0.1c-0.6,0.1-1.1,0.3-1.5,0.7l-0.6,0.4c-0.4,0.3-0.5,0.9-0.2,1.4c0.1,0.1,0.1,0.2,0.2,0.2l0,0
		c-0.1,0.1-0.2,0.2-0.3,0.2l-0.1,0.1l0,0c-0.1,0.1-0.2,0.2-0.3,0.3c-0.4,0.5-0.6,1.1-0.5,1.8c0,0.7,0.2,1.3,0.7,1.9
		c0.4,0.5,0.9,0.8,1.5,1H25h0.1c0.2,0,0.3,0.1,0.5,0.1v0.1L25,16.7c-1,0.4-1.9,1.1-2.7,1.9c-0.7,0.7-1.2,1.6-1.6,2.5h-0.3
		c-0.8,0-1.7,0.2-2.4,0.5c-0.8,0.3-1.4,0.8-2,1.4c-0.4,0.4-0.7,0.8-0.9,1.3c-0.5,0.1-1,0.3-1.5,0.5c-0.9,0.4-1.8,1-2.5,1.8
		c-1.5,1.5-2.2,3.5-2.1,5.6c0.1,2,0.9,3.9,2.3,5.3l0.1,0.1c0.1,0.1,0.2,0.2,0.3,0.3l0.6,0.5c0.2,0.2,0.4,0.3,0.7,0.5
		c0,0.2,0,0.3,0,0.5c0,0.7,0.2,1.4,0.4,2.1c0.1,0.4,0.3,0.8,0.5,1.3v0.1c0.5,1,1.2,2,2.1,2.7c0,1.2,0.7,2.2,1.7,2.8l0.3,0.2l0,0
		c0.2,0.1,0.4,0.2,0.6,0.2h0.1c0.2,0.1,0.4,0.1,0.6,0.1h0.2h0.4h0.1c0.6-0.1,1.2-0.2,1.9-0.4c0.3-0.1,0.5-0.2,0.8-0.3
		c0.6,1.8,1.9,3.3,3.6,4c0,0.8,0.1,1.5,0.1,2.3s0,1.2,0,1.8c0,0.3,0,0.6,0,0.9l-0.4,0.1c-0.5,0.1-0.9,0.3-1.3,0.5
		c-0.4,0.2-0.9,0.5-1.3,0.8c-0.4,0.3-0.8,0.7-1.1,1.1L21.2,60c-0.4,0.4-0.3,1.1,0.1,1.4c0.2,0.1,0.4,0.2,0.6,0.2h1l2.9,0.1
		c1,0,2,0,2.9,0h0.1c0.9,0,1.9,0,2.8,0s1.9-0.1,2.9-0.1h0.8c0.6,0,1-0.5,0.9-1.1c0-0.2-0.1-0.4-0.3-0.6l-0.5-0.6
		c-0.3-0.3-0.7-0.6-1.1-0.9c-0.4-0.2-0.8-0.5-1.2-0.7c-0.4-0.2-0.8-0.3-1.2-0.5l-0.3-0.1c0.1-1,0.2-2,0.2-3c0-0.5,0-1,0.1-1.6v-0.3
		c0-0.2,0-0.4,0-0.5c0.2-0.1,0.4-0.2,0.7-0.4c0.6-0.4,1.2-0.9,1.6-1.5v0l0,0c0.1-0.2,0.3-0.4,0.4-0.5c0.3-0.4,0.5-0.8,0.6-1.3h0.1
		l0.5,0.1c0.3,0.1,0.6,0.1,1,0.1c0.8,0,1.7-0.3,2.3-0.9c0.3-0.3,0.6-0.6,0.8-1l0.1-0.2l0,0l0,0l0,0c0.2-0.5,0.3-1,0.3-1.6
		c0.4-0.3,0.7-0.7,1-1.1l0,0l0.2-0.3l0,0l0.1-0.2c0.1-0.2,0.2-0.3,0.3-0.5l0.1-0.3c0.2-0.5,0.4-1,0.5-1.6c0,0,0-0.1,0-0.1v-0.1
		c0.1-0.6,0.1-1.1,0-1.7l0.3-0.1h0.1c0.9-0.4,1.6-1,2.2-1.7c2.3-2.8,2.3-6.8,0-9.6c-0.5-0.5-1-1-1.6-1.4c0.1-1.6-0.5-3.2-1.5-4.5
		c-0.6-0.7-1.3-1.2-2.1-1.6c-0.8-0.3-1.6-0.5-2.5-0.5c-0.9,0-1.7,0.2-2.5,0.5c-0.2-0.4-0.5-0.8-0.8-1.1c-0.7-0.9-1.6-1.5-2.6-2
		c-0.3-0.1-0.7-0.3-1-0.4c0-0.3,0-0.7-0.1-1c-0.1-0.4-0.2-0.7-0.3-1c-0.1-0.1-0.1-0.2-0.2-0.3c0-0.1,0.1-0.2,0.1-0.3
		c0.4-0.9,0.5-2,0.3-3c-0.1-0.2-0.1-0.4-0.2-0.6v-0.1v-0.1c-0.1-0.1-0.1-0.2-0.2-0.3V9.7c-0.1-0.1-0.2-0.3-0.3-0.4
		c-0.4-0.5-0.9-0.8-1.5-1c-0.4-0.1-0.7-0.2-1.1-0.2L26.8,8.1z"/>
	<path style="fill:#694C76;" d="M27.3,12.3c-0.7-0.6-1.6-0.7-2.4-0.4c-1.3,0.4-1.6,3.1,1.1,3.4s3.8-3.3,2.4-4.9
		c-0.8-0.9-2.1-1.1-3.1-0.4c0,0,1.6,0.5,1.9,1.3s0.3,1.6-1,1.8"/>
	<path style="fill:#573E67;" d="M27.3,12.3c-0.6-0.4-1.3-0.5-2-0.3L25,12.1l-0.2,0.1l-0.2,0.1c0,0.1-0.1,0.1-0.1,0.2
		c-0.2,0.3-0.2,0.6-0.2,0.9c0,0.3,0.1,0.6,0.3,0.9c0.2,0.3,0.4,0.5,0.7,0.6c0.6,0.3,1.3,0.3,2,0.1c0.6-0.3,1.1-0.9,1.3-1.6
		c0.2-0.7,0.2-1.3,0-2c-0.1-0.2-0.1-0.3-0.2-0.4c0-0.1-0.1-0.1-0.1-0.2c0-0.1-0.1-0.1-0.2-0.2c-0.2-0.2-0.5-0.4-0.8-0.5
		c-0.3-0.1-0.6-0.1-0.9,0c-0.3,0.1-0.6,0.2-0.9,0.4l-0.1-0.7c0.4,0.2,0.8,0.3,1.1,0.6c0.2,0.1,0.4,0.3,0.5,0.4
		c0.1,0.1,0.2,0.2,0.2,0.3c0.1,0.1,0.1,0.2,0.1,0.3c0.1,0.2,0.1,0.4,0.1,0.7c0,0.2-0.1,0.5-0.2,0.7c-0.1,0.2-0.3,0.3-0.5,0.4
		c-0.2,0.1-0.4,0.1-0.6,0.1v-0.1c0.2-0.1,0.4-0.1,0.5-0.2c0.1-0.1,0.3-0.2,0.3-0.4c0.1-0.3,0-0.7-0.1-1c-0.2-0.3-0.4-0.5-0.7-0.6
		c-0.3-0.2-0.7-0.3-1-0.4l-0.7-0.3l0.6-0.4c0.4-0.2,0.7-0.4,1.2-0.5c0.4-0.1,0.9-0.1,1.3,0.1c0.4,0.2,0.8,0.4,1.1,0.8
		c0.1,0.1,0.1,0.2,0.2,0.3c0.1,0.1,0.1,0.2,0.2,0.3c0.1,0.2,0.2,0.4,0.2,0.6c0.2,0.8,0.1,1.6-0.3,2.3c-0.1,0.2-0.2,0.4-0.3,0.5
		l-0.2,0.2c-0.1,0.1-0.1,0.2-0.2,0.2c-0.3,0.3-0.6,0.5-0.9,0.7c-0.4,0.2-0.7,0.3-1.1,0.3H26h-0.3c-0.2,0-0.4-0.1-0.6-0.1
		c-0.4-0.1-0.8-0.4-1.1-0.7c-0.3-0.4-0.4-0.8-0.4-1.2c0-0.5,0.1-0.9,0.4-1.3c0.1-0.1,0.1-0.2,0.2-0.3c0.1-0.1,0.2-0.1,0.3-0.2
		c0.1-0.1,0.2-0.1,0.3-0.1l0.3-0.1c0.4-0.1,0.8-0.1,1.2,0.1C26.7,11.7,27.1,11.9,27.3,12.3L27.3,12.3z"/>
	<path style="fill:#694C76;" d="M28.6,14.2c0.6,1.1,0.8,2.5,0.4,3.7c-0.6,2.4-1.6,1.4-1.6,1.4l-0.4-1.2c0-1,0-1.9-0.1-2.9
		C26.8,15.1,27.5,15.6,28.6,14.2z"/>
	<path style="fill:#573E67;" d="M28.6,14.2C28.6,14.2,28.6,14.2,28.6,14.2L28.6,14.2l0.1,0.1l0.1,0.2c0.1,0.1,0.2,0.2,0.2,0.4
		c0.1,0.3,0.2,0.5,0.3,0.8c0.1,0.6,0.1,1.1,0,1.7c-0.2,0.5-0.4,1.1-0.6,1.5c-0.1,0.3-0.3,0.5-0.6,0.7c-0.1,0.1-0.3,0.1-0.5,0.1
		c-0.2,0-0.3-0.1-0.5-0.2l0,0v-0.1c-0.2-0.4-0.4-0.8-0.5-1.2l0,0v-0.1V17c0-0.4,0-0.8,0-1.2c0-0.1,0-0.2,0-0.3l0,0l0,0
		c0,0,0-0.1,0-0.1c0,0,0,0,0-0.1c0-0.1,0-0.2,0.1-0.3h0.1l0.1-0.1H27c0.2,0,0.3,0,0.5-0.1c0.2-0.1,0.3-0.2,0.5-0.3l0.3-0.2
		C28.3,14.4,28.4,14.3,28.6,14.2z M28.6,14.3c0,0.1-0.1,0.2-0.1,0.3l-0.2,0.3c-0.1,0.2-0.3,0.3-0.5,0.5c-0.2,0.1-0.4,0.2-0.7,0.3H27
		h0.1l0,0c0.1-0.1,0.1-0.1,0.1-0.2l0,0c0,0,0,0,0-0.1l0,0v0.1c0,0.1,0,0.2,0,0.4c0.1,0.8,0.1,1.7,0,2.5v-0.1
		c0.1,0.4,0.2,0.8,0.3,1.2l-0.1-0.1c0.1,0.2,0.3,0.2,0.5,0.1c0.2-0.1,0.4-0.3,0.5-0.5c0.2-0.5,0.3-1,0.2-1.5c0-0.5,0.1-1,0-1.5
		c0-0.3,0-0.5-0.1-0.8s0-0.3-0.1-0.4v-0.2v-0.1l0,0C28.6,14.4,28.5,14.3,28.6,14.3z"/>
	<path style="fill:#7C598E;" d="M30.5,58v-7.7H27v7.5c-1.6,0.3-3.1,1.1-4.1,2.3h11.5C33.3,59.1,32,58.4,30.5,58z"/>
	<path style="fill:#573E67;" d="M30.5,58.1c-0.1-1.2-0.2-2.5-0.3-3.8c0-0.7-0.1-1.3-0.1-2s0-1.3,0-2l0.5,0.5h-0.9h-0.9
		c-0.6,0-1.2,0-1.7-0.1l0.4-0.4c-0.1,1.3-0.2,2.5-0.2,3.7c0,0.6,0,1.3,0,1.9s0,1.3,0.1,1.9V58h-0.2c-0.4,0.1-0.8,0.2-1.1,0.3
		c-0.3,0.1-0.7,0.3-1,0.5c-0.3,0.2-0.6,0.4-0.9,0.7c-0.3,0.2-0.5,0.5-0.8,0.8l-0.4-0.7l2.9-0.1c1,0,1.9,0,2.9,0s1.9,0,2.9,0
		s1.9,0.1,2.9,0.1l-0.3,0.6c-0.2-0.3-0.5-0.5-0.7-0.7c-0.3-0.2-0.6-0.4-0.9-0.6c-0.3-0.2-0.7-0.4-1-0.5c-0.2-0.1-0.3-0.2-0.5-0.2
		L30.5,58.1z M30.6,58c0.2,0,0.4,0,0.5,0.1s0.4,0.1,0.5,0.1c0.4,0.1,0.7,0.2,1.1,0.4c0.3,0.2,0.7,0.4,1,0.6c0.3,0.2,0.6,0.5,0.9,0.8
		l0.5,0.6h-0.8c-1,0-1.9,0.1-2.9,0.1s-1.9,0-2.9,0s-1.9,0-2.9,0l-2.9-0.1h-1l0.6-0.7c0.3-0.3,0.6-0.6,1-0.9c0.3-0.3,0.7-0.5,1.1-0.7
		c0.4-0.2,0.8-0.3,1.2-0.5c0.4-0.1,0.8-0.2,1.3-0.2l-0.2,0.2c0-0.6,0-1.3,0.1-1.9s0-1.3,0-1.9c0-1.3-0.1-2.5-0.2-3.7v-0.3L27,50
		c0.6,0,1.2-0.1,1.7-0.1h0.9H31v0.5c0,0.6,0,1.2,0,1.8s0,1.2-0.1,1.9C30.8,55.4,30.7,56.7,30.6,58L30.6,58z"/>
	<circle style="fill:#7C598E;" cx="28.7" cy="45.3" r="5.8"/>
	<path style="fill:#473248;" d="M23,44c0.3-1.5,1.2-2.9,2.4-3.9c0.6-0.5,1.4-0.8,2.2-1c0.8-0.2,1.6-0.2,2.4,0c0.8,0.2,1.5,0.5,2.1,1
		c0.6,0.5,1.2,1.2,1.6,1.9c0.8,1.3,1.2,2.9,0.9,4.5c-0.2,1.6-1.2,3.1-2.5,4c-0.7,0.5-1.4,0.8-2.3,1c-1.6,0.3-3.3,0-4.7-1
		c-0.7-0.5-1.2-1.1-1.6-1.8C22.9,47.2,22.6,45.6,23,44z M23.1,44c-0.2,0.7-0.2,1.5,0,2.2c0.2,0.7,0.5,1.4,1,2
		c0.9,1.1,2.1,1.9,3.5,2.2c1.4,0.3,2.9,0,4.1-0.7c1.2-0.8,2.1-2,2.5-3.4c0.2-0.7,0.2-1.5,0.1-2.2c-0.1-0.7-0.4-1.4-0.8-2.1
		c-0.9-1.2-2.2-2-3.6-2.3c-1.4-0.2-2.9,0-4.2,0.7C25,40.9,24.5,41.4,24,42C23.5,42.6,23.2,43.3,23.1,44L23.1,44z"/>
	<path style="fill:#8B6D9A;" d="M23.9,45.9c0.1,0.5,0.3,1.1,0.5,1.6c0.1,0.2,0.2,0.5,0.4,0.7c0.2,0.2,0.4,0.4,0.6,0.6
		c-0.3,0-0.6-0.1-0.8-0.3c-0.3-0.2-0.5-0.4-0.6-0.7c-0.1-0.3-0.2-0.6-0.2-0.9C23.8,46.5,23.8,46.2,23.9,45.9z"/>
	<circle style="fill:#7C598E;" cx="20.2" cy="27.4" r="4.9"/>
	<path style="fill:#573E67;" d="M25.1,27.4c0,1.3-0.5,2.6-1.3,3.6c-0.9,1-2.2,1.6-3.6,1.6c-0.7,0-1.3-0.2-1.9-0.5
		c-0.6-0.3-1.1-0.7-1.6-1.2c-0.9-0.9-1.5-2.2-1.5-3.5c-0.1-1.4,0.4-2.7,1.4-3.7c0.5-0.5,1-0.9,1.7-1.2c1.3-0.6,2.7-0.6,4,0
		c0.6,0.3,1.2,0.7,1.6,1.2C24.7,24.8,25.2,26.1,25.1,27.4z M25.1,27.4c0-0.6-0.2-1.3-0.4-1.8c-0.3-0.6-0.7-1-1.1-1.5
		c-0.9-0.8-2.1-1.2-3.3-1.2c-1.2,0-2.4,0.5-3.2,1.3c-0.9,0.8-1.4,2-1.5,3.2c0,0.6,0.1,1.2,0.3,1.8c0.2,0.6,0.6,1.1,1,1.5
		c0.9,0.9,2.2,1.3,3.4,1.2c1.2,0,2.4-0.5,3.3-1.3c0.5-0.4,0.9-0.9,1.1-1.5C24.9,28.7,25.1,28.1,25.1,27.4z"/>
	<path style="fill:#8B6D9A;" d="M21.4,23.7c-0.7-0.1-1.5,0-2.2,0.2c-0.4,0.1-0.7,0.3-1,0.5c-0.3,0.2-0.6,0.5-0.8,0.8
		c0.1-0.4,0.3-0.7,0.6-1c0.3-0.3,0.6-0.5,1-0.6c0.4-0.1,0.8-0.2,1.2-0.1C20.6,23.4,21,23.5,21.4,23.7z"/>
	<circle style="fill:#7C598E;" cx="28.2" cy="24.6" r="6.9"/>
	<path style="fill:#573E67;" d="M35.2,24.6c0,1.9-0.6,3.7-1.8,5.1c-0.6,0.7-1.4,1.3-2.3,1.7c-0.9,0.4-1.9,0.6-2.8,0.5
		c-1,0-1.9-0.3-2.8-0.7c-0.8-0.4-1.6-1-2.3-1.6c-1.3-1.3-2.1-3.1-2.2-5c-0.1-2,0.6-3.9,2-5.3c0.7-0.7,1.5-1.3,2.4-1.7
		c1.8-0.8,3.9-0.8,5.7,0c0.9,0.4,1.7,1,2.3,1.7C34.6,20.9,35.2,22.8,35.2,24.6z M35.1,24.6c0-0.9-0.2-1.8-0.6-2.6
		c-0.4-0.8-0.9-1.5-1.6-2c-1.3-1.1-3-1.7-4.7-1.7c-1.7,0-3.3,0.7-4.6,1.8c-1.2,1.2-2,2.8-2.1,4.6c0,0.9,0.1,1.8,0.4,2.6
		c0.6,1.7,2,3,3.7,3.6c0.8,0.3,1.7,0.4,2.5,0.4c0.9,0,1.7-0.2,2.5-0.5c0.8-0.3,1.5-0.8,2.2-1.3c0.7-0.6,1.2-1.3,1.6-2.1
		C34.9,26.5,35.1,25.6,35.1,24.6z"/>
	<path style="fill:#8B6D9A;" d="M29.9,19.3c-0.6,0.1-1.1,0.1-1.6,0.2c-0.5,0.1-1,0.2-1.4,0.3c-0.5,0.1-0.9,0.3-1.3,0.6
		c-0.4,0.3-0.9,0.6-1.3,1c0.1-0.6,0.3-1.2,0.8-1.6c0.4-0.5,0.9-0.8,1.5-1c0.6-0.2,1.2-0.2,1.8-0.1C28.8,18.8,29.4,19,29.9,19.3z"/>
	<circle style="fill:#7C598E;" cx="21.2" cy="39" r="6.9"/>
	<path style="fill:#573E67;" d="M21,32c1.9-0.1,3.7,0.5,5.2,1.7c0.8,0.6,1.4,1.4,1.8,2.2c0.4,0.9,0.6,1.8,0.6,2.8
		c0,1-0.2,1.9-0.6,2.8c-0.4,0.9-0.9,1.6-1.6,2.3c-1.3,1.4-3.1,2.2-4.9,2.4c-1.9,0.2-3.9-0.5-5.3-1.8c-0.7-0.7-1.3-1.4-1.7-2.3
		c-0.9-1.8-0.9-3.9-0.2-5.7c0.4-0.9,0.9-1.7,1.6-2.4C17.3,32.7,19.1,32,21,32z M21,32.1c-0.9,0-1.8,0.3-2.6,0.7
		c-0.8,0.4-1.5,1-2,1.7c-1.1,1.3-1.6,3-1.6,4.7c0.1,1.7,0.8,3.3,2,4.5c1.3,1.2,2.9,1.9,4.6,1.9c0.9,0,1.8-0.2,2.6-0.5
		c1.7-0.7,2.9-2.1,3.4-3.8c0.2-0.8,0.3-1.7,0.3-2.6c-0.1-0.8-0.3-1.7-0.6-2.5c-0.3-0.8-0.8-1.5-1.4-2.2c-0.6-0.7-1.3-1.2-2.1-1.5
		C22.8,32.2,21.9,32.1,21,32.1z"/>
	<path style="fill:#8B6D9A;" d="M15.9,37.5c0.1,0.6,0.2,1.1,0.3,1.6c0.1,0.5,0.2,1,0.4,1.4c0.2,0.5,0.4,0.9,0.6,1.3
		c0.3,0.4,0.6,0.8,1,1.2c-0.6-0.1-1.1-0.3-1.6-0.7c-0.5-0.4-0.8-0.9-1-1.5c-0.2-0.6-0.3-1.2-0.2-1.7C15.4,38.6,15.6,38,15.9,37.5z"
		/>
	<circle style="fill:#7C598E;" cx="35.9" cy="39.4" r="5.4"/>
	<path style="fill:#573E67;" d="M33.1,44.1c-1.3-0.7-2.2-1.9-2.7-3.3c-0.5-1.4-0.3-3,0.6-4.3c0.4-0.6,0.9-1.2,1.6-1.6
		c0.6-0.4,1.3-0.7,2-0.8c1.4-0.3,2.9-0.1,4.2,0.5c1.3,0.7,2.3,1.9,2.7,3.4c0.2,0.7,0.2,1.5,0.2,2.3c-0.2,1.5-1,2.9-2.3,3.8
		c-0.6,0.4-1.3,0.7-2.1,0.8C35.9,45.1,34.4,44.8,33.1,44.1z M33.1,44c0.6,0.4,1.3,0.6,2,0.6c0.7,0.1,1.4,0,2-0.3
		c1.3-0.4,2.3-1.3,3-2.4c0.7-1.1,0.9-2.5,0.6-3.8c-0.3-1.3-1.1-2.4-2.2-3.2c-0.6-0.4-1.2-0.6-1.9-0.8c-0.7-0.1-1.3-0.1-2,0.1
		c-1.3,0.4-2.4,1.3-3.1,2.5C31,38,30.7,39.4,31,40.7c0.1,0.7,0.4,1.3,0.7,1.9C32.1,43.2,32.6,43.6,33.1,44L33.1,44z"/>
	<path style="fill:#8B6D9A;" d="M38.8,42.6c0.3-0.7,0.6-1.5,0.8-2.2c0.1-0.4,0.1-0.7,0.1-1.1c0-0.4-0.1-0.8-0.1-1.2
		c0.4,0.3,0.6,0.7,0.8,1.1c0.1,0.5,0.1,0.9,0,1.4c-0.1,0.4-0.3,0.9-0.6,1.2C39.5,42.2,39.2,42.5,38.8,42.6z"/>
	<circle style="fill:#7C598E;" cx="28.2" cy="33" r="6.9"/>
	<path style="fill:#573E67;" d="M35.2,33c0,1.9-0.6,3.7-1.8,5.1c-0.6,0.7-1.4,1.3-2.3,1.7c-0.9,0.4-1.9,0.6-2.8,0.5
		c-1,0-1.9-0.3-2.8-0.7c-0.8-0.4-1.6-1-2.2-1.7c-1.3-1.4-2.1-3.1-2.2-5c-0.1-2,0.6-3.9,2-5.3c0.7-0.7,1.5-1.3,2.4-1.7
		c1.8-0.8,3.9-0.8,5.7,0c0.9,0.4,1.7,1,2.3,1.7C34.6,29.3,35.2,31.1,35.2,33z M35.1,33c0-0.9-0.2-1.8-0.6-2.6
		c-0.4-0.8-0.9-1.5-1.6-2.1c-1.3-1.1-3-1.7-4.7-1.7c-1.7,0-3.3,0.7-4.6,1.8c-1.2,1.2-2,2.8-2.1,4.6c0,0.9,0.1,1.8,0.4,2.6
		c0.6,1.7,2,3,3.7,3.6c0.8,0.3,1.7,0.4,2.5,0.4c0.8,0,1.7-0.2,2.5-0.5c0.8-0.3,1.5-0.8,2.2-1.3c0.7-0.6,1.2-1.3,1.6-2.1
		C34.9,34.8,35.1,33.9,35.1,33z"/>
	<path style="fill:#8B6D9A;" d="M29.9,27.6c-0.6,0.1-1.1,0.1-1.6,0.2c-0.5,0.1-1,0.2-1.4,0.3c-0.5,0.1-0.9,0.3-1.3,0.6
		c-0.4,0.3-0.9,0.6-1.3,1c0.1-0.6,0.3-1.2,0.8-1.6c0.4-0.5,0.9-0.8,1.5-1c0.6-0.2,1.1-0.2,1.7-0.2C28.8,27.1,29.4,27.3,29.9,27.6z"
		/>
	<circle style="fill:#7C598E;" cx="37.4" cy="26" r="5.1"/>
	<path style="fill:#573E67;" d="M42.6,26c0,1.4-0.5,2.7-1.4,3.8c-1,1.1-2.3,1.7-3.8,1.6c-0.7,0-1.4-0.2-2-0.5
		c-0.6-0.3-1.2-0.7-1.7-1.2c-1-1-1.6-2.3-1.7-3.7c-0.1-1.4,0.5-2.9,1.5-3.9c0.5-0.5,1.1-0.9,1.8-1.2c1.3-0.6,2.9-0.6,4.2,0
		c0.7,0.3,1.2,0.7,1.7,1.3C42.1,23.2,42.6,24.6,42.6,26z M42.5,26c0-0.7-0.2-1.3-0.5-1.9c-0.3-0.6-0.7-1.1-1.2-1.5
		c-1-0.8-2.2-1.3-3.5-1.3c-1.3,0-2.5,0.5-3.4,1.4c-0.9,0.9-1.4,2.1-1.5,3.4c0,0.7,0.1,1.3,0.3,1.9c0.2,0.6,0.6,1.2,1.1,1.6
		c1,0.9,2.2,1.4,3.5,1.3c1.3-0.1,2.5-0.5,3.5-1.4c0.5-0.4,0.9-1,1.2-1.5C42.4,27.3,42.5,26.7,42.5,26z"/>
	<path style="fill:#8B6D9A;" d="M36.6,22.4c-0.3,0.1-0.6,0.2-0.8,0.4c-0.2,0.1-0.5,0.3-0.7,0.5c-0.2,0.2-0.4,0.4-0.7,0.5L34,24.1
		c-0.1,0.1-0.3,0.2-0.4,0.3c0-0.2,0-0.3,0.1-0.5c0.1-0.2,0.1-0.3,0.2-0.5c0.2-0.3,0.4-0.6,0.7-0.8c0.3-0.2,0.6-0.4,1-0.4
		C36,22.1,36.3,22.2,36.6,22.4z"/>
	<circle style="fill:#7C598E;" cx="40.3" cy="32" r="5.6"/>
	<path style="fill:#573E67;" d="M46,32c0,1.5-0.5,3-1.5,4.1c-1,1.2-2.6,1.9-4.2,1.9c-0.8,0-1.5-0.2-2.2-0.6
		c-0.7-0.3-1.3-0.8-1.8-1.3c-1-1.1-1.7-2.5-1.8-4c-0.1-1.6,0.5-3.1,1.6-4.2c0.5-0.6,1.2-1.1,1.9-1.4c1.5-0.6,3.1-0.6,4.6,0
		c0.7,0.3,1.3,0.8,1.8,1.4C45.4,29,46,30.5,46,32z M45.9,32c0-0.7-0.2-1.4-0.5-2.1c-0.3-0.6-0.8-1.2-1.3-1.7c-1-0.9-2.4-1.4-3.8-1.4
		c-1.4,0-2.7,0.5-3.7,1.5c-1,1-1.6,2.3-1.7,3.7c0,0.7,0.1,1.4,0.3,2.1c0.3,0.7,0.7,1.3,1.2,1.8c1,1,2.4,1.5,3.9,1.4
		c1.4-0.1,2.7-0.6,3.8-1.5c0.5-0.5,1-1,1.3-1.7C45.7,33.4,45.9,32.7,45.9,32L45.9,32z"/>
	<path style="fill:#8B6D9A;" d="M41.7,28.4c-0.5,0.2-0.9,0.3-1.3,0.4l-1.1,0.3c-0.3,0.1-0.7,0.2-1,0.4c-0.4,0.1-0.7,0.4-1.2,0.6
		c0-0.5,0.1-1,0.5-1.4c0.3-0.4,0.8-0.7,1.3-0.9c0.5-0.2,1-0.2,1.5-0.1C40.9,27.8,41.3,28.1,41.7,28.4z"/>
	<circle style="fill:#7C598E;" cx="16.5" cy="32" r="6.4"/>
	<path style="fill:#573E67;" d="M23,32c0,1.7-0.6,3.4-1.7,4.8c-0.6,0.7-1.3,1.2-2.1,1.5c-0.8,0.4-1.7,0.5-2.6,0.5
		c-0.9,0-1.8-0.3-2.6-0.6c-0.8-0.4-1.5-0.9-2.1-1.5c-1.2-1.3-1.9-2.9-2-4.6c-0.1-1.8,0.6-3.6,1.8-4.9c0.6-0.6,1.4-1.2,2.2-1.5
		c1.7-0.7,3.6-0.7,5.3,0c0.8,0.4,1.5,0.9,2.1,1.6C22.4,28.5,23,30.2,23,32z M22.9,32c0-0.8-0.2-1.7-0.6-2.4
		c-0.4-0.7-0.9-1.4-1.5-1.9c-1.2-1-2.7-1.6-4.3-1.6c-1.6,0-3.1,0.6-4.2,1.7c-1.2,1.1-1.8,2.6-1.9,4.2c0,0.8,0.1,1.6,0.4,2.4
		c0.3,0.8,0.8,1.4,1.4,2c1.2,1.1,2.8,1.7,4.4,1.6c1.6-0.1,3.1-0.7,4.3-1.7c0.6-0.5,1.1-1.2,1.5-1.9C22.7,33.6,22.8,32.8,22.9,32
		L22.9,32z"/>
	<path style="fill:#8B6D9A;" d="M18,27.1c-0.8,0.1-1.6,0.2-2.4,0.4c-0.7,0.2-1.5,0.5-2.1,1c-0.2,0.1-0.3,0.2-0.4,0.4
		c-0.2,0.1-0.3,0.2-0.4,0.4l-0.4,0.4l-0.3,0.5l-0.2,0.2l-0.1,0.3l-0.3,0.5c-0.2,0.4-0.4,0.8-0.6,1.1c0-0.4,0.1-0.9,0.2-1.3l0.2-0.6
		c0-0.1,0.1-0.2,0.1-0.3l0.1-0.3c0.1-0.2,0.2-0.4,0.3-0.6l0.4-0.5c0.1-0.2,0.3-0.3,0.5-0.5c0.2-0.2,0.3-0.3,0.5-0.4
		c0.7-0.5,1.6-0.9,2.5-1C16.3,26.6,17.2,26.7,18,27.1z"/>
	<path style="fill:#7C598E;" d="M16.8,43.9c0,0-0.1,3.2,2.4,3.4s3.9-1.6,3.7-2.1c-0.2-0.6-0.7-0.9-1.3-0.8c-0.7,0.1-1.3,0.5-1.6,1.2
		c0,0-1.1-0.1-1.2-1.6"/>
	<path style="fill:#473248;" d="M16.8,43.9c0.1,0.5,0.3,1,0.5,1.5c0.2,0.4,0.5,0.8,0.8,1.1c0.4,0.3,0.8,0.5,1.3,0.5
		c1.1,0.2,2.1-0.3,2.8-1.1c0.1-0.2,0.2-0.4,0.3-0.6c0,0,0-0.1,0-0.1l0,0l0,0c0-0.1-0.1-0.2-0.2-0.2c-0.1-0.1-0.3-0.2-0.4-0.2
		c-0.1,0-0.2,0-0.3,0L21.3,45c-0.4,0.1-0.8,0.4-1,0.8L20.2,46L20,46c-0.2,0-0.4-0.1-0.6-0.3c-0.2-0.1-0.3-0.3-0.4-0.5
		c-0.1-0.2-0.2-0.4-0.2-0.6c0-0.1,0-0.2,0-0.3c0-0.1,0-0.2,0-0.3h0.1l0.1,0.3c0,0.1,0.1,0.2,0.1,0.2c0.1,0.1,0.2,0.3,0.3,0.4
		c0.1,0.1,0.2,0.2,0.4,0.3l0.2,0.1H20l-0.4,0.2c0.1-0.3,0.3-0.6,0.5-0.9c0.2-0.2,0.5-0.4,0.8-0.5c0.1-0.1,0.3-0.1,0.5-0.1
		c0.2,0,0.4,0,0.6,0c0.4,0,0.8,0.2,1,0.6c0.1,0.1,0.2,0.3,0.3,0.5c0,0,0,0.1,0,0.2c0,0.1,0,0.1,0,0.2c0,0.1,0,0.2-0.1,0.3
		c-0.1,0.3-0.3,0.6-0.6,0.8c-0.5,0.4-1,0.6-1.5,0.8c-0.5,0.2-1.1,0.3-1.6,0.3c-0.1,0-0.3,0-0.4,0c-0.1,0-0.3,0-0.5,0
		c-0.2,0-0.3-0.1-0.5-0.1c-0.1-0.1-0.3-0.1-0.4-0.2c-0.5-0.4-0.9-0.9-1-1.5c-0.1-0.6-0.1-1.1,0-1.7L16.8,43.9z"/>
	<path style="fill:#FFFFFF;" d="M18.1,36.9c0,0-4.8-4.4,1.1-7.7c5.7-3.2,8.7,2.7,7,5.7C24.6,37.7,20.8,38.3,18.1,36.9z"/>
	<path style="fill:#473248;" d="M18.1,37.2c-0.3-0.2-0.5-0.5-0.7-0.7c-0.2-0.3-0.4-0.5-0.6-0.8c-0.4-0.6-0.6-1.2-0.7-1.9
		c0-0.3,0-0.7,0-1c0-0.3,0.1-0.7,0.3-1c0.3-0.6,0.7-1.2,1.2-1.7c1-0.9,2.3-1.5,3.6-1.8c1.3-0.4,2.7-0.1,3.9,0.6
		c1.1,0.8,1.8,2.1,2,3.5c0.1,0.7,0,1.4-0.2,2.1c-0.1,0.3-0.3,0.7-0.5,1c-0.2,0.3-0.4,0.6-0.7,0.8c-1,0.9-2.3,1.5-3.7,1.7
		C20.7,38.2,19.3,37.9,18.1,37.2z M18.1,36.9c1.2,0.6,2.5,0.8,3.8,0.6c1.2-0.2,2.3-0.9,3.2-1.7c0.4-0.4,0.8-0.9,1-1.5
		c0.2-0.6,0.3-1.2,0.2-1.8c-0.1-1.2-0.7-2.4-1.6-3.2c-0.5-0.4-1.1-0.7-1.7-0.8c-0.6-0.1-1.3-0.1-1.9,0.1c-0.6,0.2-1.2,0.4-1.7,0.8
		c-0.5,0.3-1,0.7-1.5,1.2c-0.4,0.4-0.8,0.9-1,1.5c-0.2,0.6-0.3,1.2-0.3,1.8c0.1,0.6,0.3,1.2,0.5,1.8C17.4,36.1,17.7,36.5,18.1,36.9
		L18.1,36.9z"/>
	<path style="fill:#391C46;" d="M19.2,29.2c1.5-0.8,3.4-0.4,4.5,1c1.5,1.8,0.8,4.9-1,5.7c-1.8,1-4,0.3-5-1.5c0,0,0-0.1-0.1-0.1
		C16.9,32.7,16.7,30.4,19.2,29.2z"/>
	<path style="fill:#FFFFFF;" d="M30.5,29.6c1.2-1.6,4.8-3.2,7.7,1c3.4,4.8-1.1,7.2-3.8,7.1C30.9,37.4,27.6,33.4,30.5,29.6z"/>
	<path style="fill:#473248;" d="M34.8,37.8h-0.3c-2.1-0.2-3.9-1.4-4.8-3.3c-0.7-1.7-0.4-3.6,0.7-5l0,0c0.9-1.1,2.2-1.7,3.6-1.8
		c1.1,0,2.8,0.5,4.4,2.7s1.4,4,0.8,5C38.2,37,36.5,37.8,34.8,37.8z M30.7,29.7c-1.1,1.3-1.4,3.1-0.7,4.6c0.8,1.8,2.6,2.9,4.5,3.1
		c1.8,0.1,3.4-0.7,4.4-2.2c0.7-1.3,0.4-2.9-0.8-4.6c-0.9-1.5-2.4-2.4-4.1-2.5C32.7,28.1,31.4,28.7,30.7,29.7L30.7,29.7z"/>
	<path style="fill:#391C46;" d="M31.4,28.8c1.5-0.6,3.3-0.3,4.4,0.9c1.8,2,1.4,6-1.8,6.6s-3.9-1.1-4.5-3S31.4,28.8,31.4,28.8z"/>
	<path style="fill:#FFFFFF;" d="M19.1,31.5c-0.5-0.5-0.2-1.3,0.6-1.6s1.6-0.3,1.8,0.2s-0.2,0.9-0.8,1S19.6,32,19.1,31.5z"/>
	<path style="fill:#FFFFFF;" d="M22.4,34.3c0,0,0.5-0.5,0.8-0.2c0.2,0.2,0.2,0.5,0,0.8c0,0.1-0.1,0.1-0.2,0.1
		C22.5,35.2,22,34.9,22.4,34.3z"/>
	<path style="fill:#FFFFFF;" d="M34.6,34.3c0,0,0.5-0.5,0.8-0.2c0.3,0.2,0.3,0.5,0.2,0.8c-0.1,0.1-0.2,0.2-0.3,0.2
		C34.7,35.2,34.2,34.9,34.6,34.3z"/>
	<path style="fill:#FFFFFF;" d="M31.1,30.2c0,0,1-1,1.7-0.5s-0.2,0.9-0.7,1.2s-0.9,1-1.5,0.5S31.1,30.2,31.1,30.2z"/>
	<path style="fill:#391C46;" d="M26.5,37.9c0,0-1-1.4-0.2-1.5s1.6,0.7,2.2,0.8s1.3-0.4,1.9-0.4s1.3,0.5,0.3,1.2S27.6,39.2,26.5,37.9
		z"/>
	<path style="fill:#523856;" d="M34.1,44.8c0,0,2.2-3.2-3-6.7c-0.4,0.2-0.6,0.5-0.5,0.9c-1.2-0.6-2.6-0.8-4-0.6c0,0-0.1,2.1,1.2,3
		c0,0-2-1.2-2.9,0S23.9,43.8,23,44c0,0,2.1,2.2,3.5,2.2c-0.5,0.7-0.8,1.5-0.9,2.3c0,0,1.3,1.4,4.9,0.2v1.3
		C32.8,49.4,34.4,47.2,34.1,44.8z"/>
	<path style="fill:#81569A;" d="M34.1,44.8c0.3-0.6,0.5-1.3,0.4-2c-0.1-0.7-0.3-1.3-0.6-1.8c-0.2-0.3-0.4-0.6-0.6-0.8
		c-0.2-0.3-0.5-0.5-0.7-0.7s-0.5-0.5-0.8-0.7L31,38.2h0.1c-0.1,0-0.1,0.1-0.2,0.1c-0.1,0.1-0.1,0.1-0.1,0.2
		c-0.1,0.1-0.1,0.3-0.1,0.5v0.3l-0.2-0.1c-0.3-0.2-0.6-0.3-0.9-0.4c-0.3-0.1-0.7-0.2-1-0.2c-0.3-0.1-0.7-0.1-1-0.1
		c-0.3,0-0.7,0-1,0.1l0.1-0.1c0,0.6,0.1,1.1,0.2,1.6c0.1,0.3,0.2,0.5,0.4,0.8c0.2,0.2,0.3,0.4,0.6,0.6l-0.1,0.1
		c-0.5-0.2-1-0.4-1.5-0.4c-0.3,0-0.5,0-0.8,0.1c-0.2,0.1-0.4,0.3-0.6,0.5c-0.3,0.4-0.5,0.9-0.8,1.4c-0.1,0.2-0.2,0.5-0.4,0.7
		c-0.2,0.2-0.4,0.4-0.7,0.5l0.1-0.2c0.5,0.5,1,0.9,1.6,1.3c0.3,0.2,0.6,0.4,0.9,0.5c0.3,0.2,0.6,0.3,0.9,0.3h0.3l-0.1,0.3
		c-0.2,0.3-0.4,0.7-0.5,1.1c-0.2,0.4-0.3,0.7-0.3,1.1v-0.1c0.3,0.2,0.6,0.4,1,0.5c0.4,0.1,0.8,0.1,1.2,0.1c0.4,0,0.8-0.1,1.2-0.1
		l0.6-0.2l0.6-0.2l0.2-0.1v0.2v1.3L30.5,50c0.5-0.2,1.1-0.4,1.5-0.8c0.5-0.3,0.9-0.7,1.2-1.2c0.3-0.5,0.6-1,0.7-1.5
		c0.1-0.3,0.1-0.6,0.1-0.8C34.1,45.4,34.1,45.1,34.1,44.8z M34.1,44.8c0,0.3,0,0.6,0,0.9c0,0.3,0,0.6-0.1,0.9
		c-0.1,0.6-0.3,1.1-0.7,1.6c-0.3,0.5-0.7,0.9-1.2,1.3c-0.5,0.3-1,0.6-1.6,0.8l-0.2,0.1v-0.2v-1.3l0.2,0.2l-0.6,0.2l-0.6,0.2
		c-0.4,0.1-0.9,0.1-1.3,0.2c-0.4,0-0.9,0-1.3-0.1c-0.2-0.1-0.4-0.1-0.6-0.2c-0.2-0.1-0.4-0.2-0.6-0.4l0,0v-0.1
		c0-0.4,0.1-0.9,0.3-1.3c0.2-0.4,0.4-0.8,0.6-1.1l0.1,0.3c-0.4,0-0.7-0.1-1.1-0.3c-0.3-0.2-0.6-0.4-0.9-0.6
		c-0.6-0.4-1.1-0.9-1.6-1.4L22.8,44H23c0.2-0.1,0.4-0.2,0.6-0.4c0.2-0.2,0.3-0.4,0.4-0.7c0.2-0.5,0.5-0.9,0.8-1.4
		c0.2-0.2,0.4-0.4,0.6-0.5c0.3-0.1,0.5-0.1,0.8-0.1c0.5,0.1,1.1,0.3,1.5,0.5l-0.1,0.1c-0.2-0.2-0.4-0.4-0.6-0.6
		c-0.2-0.2-0.3-0.5-0.4-0.8c-0.2-0.5-0.3-1.1-0.3-1.7v-0.1h0.1c0.3-0.1,0.7-0.1,1-0.1c0.4,0,0.7,0,1,0c0.3,0,0.7,0.1,1,0.2
		c0.3,0.1,0.7,0.2,1,0.4l-0.2,0.1c0-0.2,0-0.4,0.1-0.6c0.1-0.1,0.1-0.2,0.2-0.3c0.1-0.1,0.2-0.1,0.3-0.2H31h0.1l0.8,0.6
		c0.3,0.2,0.5,0.5,0.8,0.7s0.5,0.5,0.7,0.8c0.2,0.3,0.4,0.6,0.6,0.9c0.4,0.6,0.6,1.3,0.6,2C34.6,43.6,34.4,44.2,34.1,44.8L34.1,44.8
		z"/>
	<path style="fill:#7C598E;" d="M39.2,44.1c0.2,1.3-0.8,2.6-2.1,2.7c-0.1,0-0.1,0-0.2,0c-2.6,0.3-4.7-1.6-4.7-2.5
		c-0.1-0.5,0.3-1,0.9-1.1c0.3,0,0.6,0.1,0.8,0.3c0.5,0.4,0.8,0.9,1,1.5c0,0,1.6,0.6,2.3-0.8"/>
	<path style="fill:#473248;" d="M39.3,44.1c0.2,0.6,0.1,1.3-0.2,1.8c-0.3,0.6-0.9,1-1.6,1.2c-0.6,0.1-1.3,0.1-1.9-0.1
		c-0.6-0.2-1.1-0.4-1.6-0.6c-0.6-0.3-1.1-0.6-1.5-1c-0.3-0.2-0.5-0.5-0.6-0.8c0-0.2,0-0.4,0-0.6c0-0.2,0.1-0.4,0.2-0.5
		c0.3-0.3,0.6-0.5,1.1-0.6c0.4,0,0.8,0.1,1.1,0.4c0.3,0.2,0.5,0.5,0.6,0.8c0.1,0.1,0.1,0.3,0.2,0.5l0.1,0.2v0.1c0,0,0,0-0.1-0.1H35
		c0.2,0.1,0.4,0.1,0.5,0.2c0.2,0,0.4,0,0.6,0c0.2,0,0.4-0.1,0.5-0.2c0.2-0.1,0.3-0.3,0.5-0.4h0.1c-0.1,0.2-0.2,0.4-0.3,0.6
		c-0.2,0.2-0.4,0.3-0.6,0.4c-0.2,0.1-0.5,0.1-0.7,0.1c-0.3,0-0.5,0-0.8-0.1l0,0l0,0c-0.1-0.1-0.2-0.1-0.2-0.2L34.4,45l-0.1-0.2
		c-0.1-0.1-0.1-0.2-0.2-0.3c-0.1-0.2-0.3-0.4-0.5-0.5c-0.1-0.1-0.3-0.2-0.5-0.2c-0.2,0-0.3,0.1-0.5,0.2c-0.1,0.1-0.1,0.1-0.1,0.2
		c0,0.1,0,0.2,0,0.3c0.1,0.2,0.2,0.5,0.3,0.7c0.3,0.5,0.8,0.8,1.3,1.1c0.5,0.3,1.1,0.4,1.6,0.4c0.5,0,1.1-0.1,1.6-0.2
		c0.2-0.1,0.5-0.2,0.7-0.3c0.2-0.1,0.4-0.3,0.6-0.5C38.9,45.1,39.1,44.6,39.3,44.1L39.3,44.1z"/>
	<path style="fill:#694C76;" d="M24.6,37.1c0.6,0.4,1.3,0.7,2,0.9c0.1,0.1,0.2,0.2,0.3,0.3h-0.5l0.1,1.2c-1.2-0.3-2.3-0.9-3.3-1.7"
		/>
	<path style="fill:#694C76;" d="M29.6,38.5c0.2,0.1,0.5,0.2,0.7,0.3c0.2-0.4,0.3-0.7,0.8-0.8c0.5,0.3,0.7,0.5,0.7,0.5
		s1.4-0.8,1.5-0.9c-0.6-0.2-1.3-0.4-1.3-0.4S30.3,38.5,29.6,38.5z"/>
	<path style="fill:#8B6D9A;" d="M25.9,36.8c0,0,0.1,1.2,0.6,1.6h0.4C26.9,38.3,26.3,38,25.9,36.8z"/>
	<path style="fill:#8B6D9A;" d="M29.4,38.4c0.4-0.1,0.8-0.3,1.2-0.5c0.2-0.2,0.4-0.4,0.5-0.6c0,0,0.3,0,0,0.3
		c-0.4,0.4-0.8,0.7-1.3,0.9L29.4,38.4z"/>
	<path style="fill:#694C76;" d="M37.2,44.3c0,0,0.8-0.8,1.2-0.8s1,0.2,0.9,0.5s-1,0.9-1,0.9L37.2,44.3z"/>
	<polygon style="fill:#6F467C;" points="17,43.5 16.8,43.9 17.3,44.1 	"/>
	<path style="fill:#573E67;" d="M23,46l-0.2,0.3c0.3,3.1,3,5.5,6.2,5.2c0,0,0,0,0.1,0c2.6-0.3,4.8-1.5,5.6-4.8
		c1.3,0.4,3.2,1.3,4.5-0.9c-0.6,0.6-1.3,1.8-4.9,0.6c-0.8,1.8-2.1,4.4-5.9,4.2C25.6,50.5,23.9,48.5,23,46z"/>
	<path style="fill:#573E67;" d="M39,43.7l0.3,0.5c1.2-0.9,2-2.3,2.3-3.7C41,41.7,40.1,42.8,39,43.7z"/>
	<path style="fill:#27172F;" d="M37.5,37.1c1.5,1,3.3,1.2,5,0.5c0.7-0.3,1.4-0.8,1.9-1.5c0,0-3.1,2.9-6.7,0.8L37.5,37.1z"/>
	<path style="fill:#573E67;" d="M32.5,38.9c0.5-0.4,0.9-0.8,1.2-1.3L33,37.5c0,0-0.7,1.1-1,1.1L32.5,38.9z"/>
	<path style="fill:#573E67;" d="M23,37.8c1,1.1,2.3,1.9,3.8,2.3c-0.3-0.6-0.1-0.5-0.2-0.8c-1.1-0.4-2.1-0.9-3-1.6
		C23.2,37.7,23,37.8,23,37.8z"/>
	<polygon style="fill:#27172F;" points="23.3,45.3 23,46 24.3,45.3 24.1,45.1 	"/>
	<path style="fill:#573E67;" d="M13.7,39.1c0.1,2.2,1.2,4.3,3,5.7c0,1.3,0.5,2.9,2.8,2.8c-1.1-0.3-2.5-0.2-2.7-3.5
		c-0.9-0.4-2.1-1-2.7-4.2C13.8,39.2,13.7,38.6,13.7,39.1z"/>
	<path style="fill:#391C46;" d="M19.7,38c-0.2-0.1-0.4-0.2-0.7-0.3c-0.8,0.4-2.8,2-7-0.8C13.7,38.2,16.5,39.9,19.7,38z"/>
	<path style="fill:#391C46;" d="M33,43.2c0.1-0.9-0.1-1.9-0.7-2.6c-0.5-0.4-0.2-0.1,0,0.3c0.4,0.7,0.5,1.5,0.4,2.3
		c-0.2,0-0.4,0-0.7,0c0,0-0.5-1.7-1.3-2.1c0.1-0.2,0.1-0.4,0-0.7l-0.1,0.5c-0.6-0.4-1.2-0.8-1.8-1c-0.5-0.1-0.6-0.1,0,0.2
		c0.6,0.3,1.2,0.7,1.7,1.2c0,0.2-0.8,0.1-0.9,0.2s0.1,0.2,0.4,0.2s0.8-0.3,1.1,0.1c0.4,0.5,0.6,1.2,0.7,1.8
		c-0.1,0.1-0.1,0.3-0.2,0.4c-0.1,0-0.3-0.1-0.4-0.1c0,0-0.2-0.5-0.4-0.5s0.2,0.5,0.2,0.5s-1.5-0.3-1.6-0.3c-0.4-0.8-1.2-1.3-2.1-1.3
		c-0.2,0.1,0.1,0.1,0.3,0.1c0.7,0.1,1.3,0.5,1.6,1.1c-1.6-0.3-3.2-0.1-4.8,0.3c-0.4,0.3,0.9-0.2,1.6-0.2c1.1-0.1,2.2,0,3.3,0.2
		c-0.4,0.4-0.9,0.8-1.4,1.2c-0.1,0.2,0.9-0.2,1.6-1.1c0.2-0.1,1.5,0,1.6,0.3c0,0.3-0.1,0.6-0.3,0.8c-0.2,0.2,0.3,0.1,0.6-0.6
		c0.1-0.1,0.3-0.1,0.4,0c0.1,0.4,0.2,0.7,0.4,1c-0.8,1.1-1.9,2-3,2.8c-0.3,0.2,0.8-0.3,1.4-0.7c0.1,0.1-0.2,0.8-0.4,1
		s0.5-0.1,0.6-1.1c0.1-0.2,0.2-0.2,0.3-0.3s1.2-1.2,1.3-1.4c0.4,0.2,0.8,0.3,1.2,0.4c0.2,0.3,0.2,0.7,0.2,1c0,0.3,0.2-0.5,0.1-0.7
		s0-0.4-0.2-0.4s-1.9-0.4-1.7-1.8c0.1-0.5,0.6-0.9,1.1-0.8C32.9,43.2,33,43.2,33,43.2z"/>
</g>
</svg>
