<?xml version="1.0" encoding="utf-8"?>
<!-- Generator: Adobe Illustrator 22.0.0, SVG Export Plug-In . SVG Version: 6.00 Build 0)  -->
<svg version="1.1" id="Слой_1" xmlns="http://www.w3.org/2000/svg" xmlns:xlink="http://www.w3.org/1999/xlink" x="0px" y="0px"
	 viewBox="0 0 55.8 62.9" style="enable-background:new 0 0 55.8 62.9;" xml:space="preserve">
<title>Artboard 1 копия 21</title>
<g id="Слой_25">
	<path style="fill:#7CBA7B;" d="M25.5,61.3c-4.2,0-4.4,0-4.5-0.1c-0.3,0-0.5-0.2-0.6-0.5c-0.1-0.3,0-0.6,0.2-0.8l0.1-0.1l4.9-3.1v-5
		c-1.7-0.3-3.2-1.5-3.8-3.1c-0.6-0.2-0.9-0.8-0.7-1.4c0-0.1,0-0.1,0.1-0.2c-0.2-0.8-0.4-1.6-0.6-2.5c-0.1-0.1-0.2-0.1-0.3-0.2
		c-0.2-0.2-0.3-0.5-0.3-0.8c0-0.3,0.1-0.6,0.3-0.8c-0.1-0.7-0.2-1.3-0.3-1.9v-0.2c-0.5,0.3-1,0.4-1.5,0.4c-0.7,0-1.3-0.3-1.7-0.8
		c-1-1.5,0.5-4.5,0.5-4.7c0.3-1.1,0.4-2.2,0.4-3.3c-0.1-0.4-0.3-0.7-0.5-1c-0.1-0.1-0.2-0.3-0.3-0.5c-0.1-0.4-0.1-0.8,0.1-1.1
		c0.1-0.2,0.4-0.3,0.6-0.3h0.1V29c0-0.2,0-0.3,0.1-0.4c0.2-0.4,0.6-0.7,1-0.8l0,0c0,0,0,0,0-0.1c0.1-0.1,0.3-0.2,0.4-0.3l0.1-0.1
		c0.1-0.1,0.2-0.1,0.3-0.1l0.1-1.6c0-0.3,0-1,0.1-1.9c-0.5-0.3-0.7-1-0.4-1.5c0.1-0.2,0.3-0.4,0.6-0.5c0-0.3,0.1-0.7,0.1-1v-0.1
		c0-0.3,0.1-0.6,0.1-0.9s0.1-0.6,0.1-0.9c-0.4-0.4-0.5-1.1-0.1-1.5c0.1-0.1,0.3-0.3,0.5-0.3c0.1-0.4,0.2-0.7,0.3-1.1
		c0.3-1,0.6-1.9,0.9-2.7l0.2-0.4l0.1-0.2c0.1-0.3,0.2-0.5,0.3-0.8c-0.5-0.5-0.4-1.2,0-1.7c0.2-0.2,0.5-0.3,0.8-0.3
		c0.1,0,0.2,0,0.3,0c0.4-0.6,1-1,1.7-1.2v-2c0-0.4,0.3-0.8,0.6-0.9c0.1,0,0.2-0.1,0.3-0.1h0.6c0.6,0,1,0.4,1,1v2.1
		c1.8,0.8,3.3,3,4.3,5c0.5,0.2,0.8,0.8,0.7,1.3c0,0.1,0,0.1-0.1,0.2c0.1,0.4,0.3,0.9,0.4,1.3c0.4,0.3,0.7,0.8,0.6,1.3
		c0,0.2-0.2,0.4-0.3,0.6c0.2,1.8,0.4,4.1,0.7,6.3c0.4,0.1,0.6,0.4,0.7,0.8c0.1,0.5-0.1,0.9-0.5,1.2l0.1,0.7c0.5,0,0.9,0.3,1.3,0.6
		c0.1,0.2,0.3,0.3,0.3,0.5c0.1,0,0.2,0,0.3,0.1c0.8,0.2,0.6,1.3,0.5,2l0,0c0,0,0,0.5,0,1c0,0.2,0,0.4,0,0.7c0,0.5,0.1,0.9,0.3,1.4
		c0.9,1.4,1.6,2.9,2,4.5c0.1,0.7-0.2,1.4-0.6,1.9c-0.3,0.3-0.7,0.5-1.1,0.5c-0.7,0-1.3-0.1-1.9-0.4c0,0.4,0,0.7,0,0.8
		c0.2,0.2,0.4,0.4,0.4,0.7c0.1,0.4-0.1,0.8-0.4,1.1c0,0.4,0,0.9,0,1.3c0.1,0.1,0.1,0.2,0.2,0.4c0.1,0.3,0,0.6-0.2,0.8
		c0,0.8,0,1.5-0.1,2c0.2,0.2,0.3,0.4,0.4,0.6c0.1,0.3,0,0.7-0.3,0.9c-0.1,0.2-0.3,0.3-0.5,0.4c-0.2,0.6-0.5,1.1-1,1.4
		c-0.6,0.3-1.2,0.6-1.9,0.9v5.2c1.3,0.9,4.6,3,4.9,3.3c0.3,0.2,0.4,0.5,0.4,0.9c-0.1,0.3-0.3,0.5-0.5,0.6h-0.2
		C36.9,61.2,30.2,61.3,25.5,61.3z"/>
	<path style="fill:#FFFFFF;" d="M27.1,6c0.3,0,0.5,0.2,0.5,0.5v2.5c1.7,0.5,3.4,2.7,4.4,5c0.4,0.1,0.6,0.4,0.6,0.8
		c0,0.1-0.1,0.2-0.1,0.3c0.2,0.6,0.4,1.1,0.5,1.7c0.4,0.1,0.6,0.4,0.6,0.8c-0.1,0.2-0.2,0.4-0.4,0.4c0.2,2,0.5,4.8,0.7,6.9
		c0.3,0,0.6,0.2,0.7,0.5c0,0.4-0.2,0.7-0.6,0.8c0,0.4,0.1,0.8,0.1,1.1l0,0c0,0.1,0,0.2,0,0.3h0.2c0.4,0,0.9,0.2,1.2,0.5
		c0.2,0.2,0.3,0.5,0.3,0.8l0,0l0,0l0,0c0.1-0.1,0.2-0.1,0.3-0.1c0.1,0,0.1,0,0.2,0c0.4,0.1,0.1,1.4,0.1,1.4s0,0.5,0,1.2
		c0,0.2,0,0.5,0,0.7l0,0c0,0.6,0.1,1.1,0.3,1.7c0.9,1.3,1.5,2.8,1.9,4.3c0.1,0.9-0.5,1.9-1.2,1.9c-1,0.1-1.9-0.4-2.5-1.2
		c0.1,1.1,0.1,2,0.1,2.2c0,0,0,0.1,0,0.1c0.2,0.1,0.4,0.2,0.4,0.5c0,0.3-0.1,0.6-0.4,0.7c0,0.5,0,1.1,0.1,1.8
		c0.1,0.1,0.1,0.2,0.2,0.3c0,0.2,0,0.4-0.2,0.5c0,0.8,0,1.7-0.1,2.5c0.2,0.1,0.4,0.2,0.4,0.5c0,0.4-0.3,0.8-0.7,0.8l0,0
		c-0.1,0.5-0.4,1-0.8,1.3c-0.7,0.4-1.4,0.7-2.1,1l0,0v5.8c0,0,4.8,3.1,5,3.4c0.5,0.4,0,0.6,0,0.6s-6.7,0-11.4,0c-2.4,0-4.2,0-4.4,0
		c-0.4-0.1-0.1-0.5-0.1-0.5l5.1-3.3v-5.6l0,0c-1.7-0.2-3.1-1.3-3.8-2.9l-0.1-0.3l0,0c-0.3,0-0.6-0.3-0.6-0.6c0-0.1,0.1-0.3,0.2-0.4
		c-0.3-1-0.6-2-0.7-3c-0.2,0-0.3-0.1-0.4-0.2c-0.3-0.3-0.3-0.7,0-0.9c0.1,0,0.1-0.1,0.2-0.1v-0.1c-0.1-0.7-0.2-1.4-0.3-2.1l0,0
		c0-0.3-0.1-0.6-0.1-0.8l0,0c0-0.1,0-0.2,0-0.3c-0.4,0.6-1.1,0.9-1.9,0.9c-2.6,0-1-4-0.7-4.8c0.3-1.1,0.5-2.3,0.5-3.5
		c0-0.6-0.7-1.4-0.8-1.7s0-0.8,0.3-0.8c0.1,0,0.1,0,0.2,0H18c0.4,0,0.3-0.8,0.4-0.9s0.4-0.5,0.6-0.5s0.3-0.3,0.6-0.4
		s0.3-0.2,0.4-0.2s0.1,0,0.2,0.2c0-0.7,0.1-1.4,0.1-2.1l0,0c0-0.1,0-1.1,0.1-2.4c-0.3,0-0.6-0.3-0.6-0.7c0-0.3,0.3-0.6,0.7-0.6l0,0
		c0-0.4,0.1-0.9,0.1-1.3l0,0v-0.2c0-0.2,0.1-0.5,0.1-0.8s0.1-0.8,0.2-1.2c-0.3-0.1-0.5-0.4-0.4-0.7c0.1-0.2,0.3-0.4,0.5-0.4h0.1
		c0.1-0.5,0.3-0.9,0.4-1.4c0.3-1,0.6-1.9,0.9-2.7l0,0l0.2-0.4l0,0l0.1-0.2l0,0c0.1-0.4,0.3-0.8,0.5-1.1c-0.4-0.1-0.5-0.5-0.4-0.9
		c0.1-0.4,0.5-0.5,0.9-0.4c0.1,0,0.1,0.1,0.2,0.1c0.4-0.7,1.1-1.2,1.9-1.4h0.1V6.5c0-0.2,0.1-0.4,0.3-0.5l0,0h0.1H27.1 M27.1,5h-0.6
		c-0.1,0-0.3,0-0.4,0.1H26c-0.6,0.2-1,0.8-1,1.4v1.7c-0.5,0.2-1,0.6-1.4,1h-0.1c-0.9,0-1.7,0.7-1.7,1.7c0,0.3,0.1,0.6,0.2,0.9
		c-0.1,0.2-0.1,0.3-0.2,0.5l-0.1,0.2l-0.2,0.4l0,0c-0.3,0.8-0.6,1.7-0.9,2.8c-0.1,0.3-0.2,0.6-0.3,0.9c-0.8,0.4-1.1,1.4-0.7,2.1
		c0,0.1,0.1,0.2,0.1,0.2c0,0.2-0.1,0.4-0.1,0.7s-0.1,0.6-0.1,0.8v0.2l0,0c0,0.3,0,0.5-0.1,0.8c-0.7,0.5-0.9,1.5-0.4,2.2
		c0.1,0.1,0.1,0.2,0.2,0.3c0,0.7-0.1,1.3-0.1,1.6v0.2l0,0c0,0.4,0,0.8-0.1,1.2l0,0h-0.1c-0.2,0.1-0.4,0.2-0.5,0.4
		c-0.5,0.2-0.9,0.5-1.1,1c-0.1,0.1-0.1,0.2-0.1,0.4c-0.3,0.1-0.5,0.3-0.7,0.5c-0.3,0.5-0.4,1.1-0.2,1.6c0.1,0.2,0.2,0.4,0.3,0.6
		c0.2,0.2,0.3,0.5,0.4,0.8c0,1-0.1,2-0.4,3c-0.2,0.3-1.6,3.4-0.5,5.2c0.5,0.7,1.3,1.1,2.1,1c0.4,0,0.7-0.1,1.1-0.2
		c0.1,0.4,0.1,0.9,0.2,1.3c-0.6,0.7-0.6,1.7,0.1,2.3c0,0,0.1,0,0.1,0.1c0.1,0.1,0.1,0.1,0.2,0.2c0.1,0.7,0.3,1.4,0.5,2.1
		c-0.3,0.8,0,1.6,0.7,2c0.7,1.5,2.1,2.7,3.7,3.1v4.3l-4.6,3c-0.1,0-0.1,0.1-0.2,0.2c-0.3,0.3-0.5,0.8-0.3,1.3c0.1,0.4,0.5,0.7,1,0.8
		c1.5,0.1,3.1,0.1,4.6,0.1c4.6,0,11.3,0,11.4,0c0.1,0,0.2,0,0.3,0c0.4-0.1,0.8-0.5,0.9-0.9c0.1-0.5-0.1-1-0.5-1.3
		c-0.3-0.2-2.6-1.8-4.7-3.2v-4.6c0.6-0.2,1.1-0.5,1.6-0.8c0.5-0.3,1-0.8,1.2-1.5c0.6-0.3,1-1.1,0.9-1.8c-0.1-0.3-0.2-0.5-0.4-0.7
		c0-0.5,0.1-1.1,0.1-1.7c0.2-0.3,0.2-0.7,0.1-1c0-0.1-0.1-0.3-0.2-0.4c0-0.4,0-0.7,0-1c0.3-0.4,0.4-0.9,0.3-1.3
		c0-0.2-0.1-0.4-0.3-0.6c0.4,0.1,0.8,0.1,1.2,0.1c0.6-0.1,1.1-0.3,1.4-0.8c0.6-0.6,0.8-1.4,0.8-2.3c-0.4-1.7-1.1-3.2-2-4.7l0,0
		c-0.1-0.4-0.2-0.7-0.2-1.1c0-0.2,0-0.5,0-0.7c0-0.4,0-0.8,0-1c0.4-1.9-0.4-2.4-0.8-2.5h-0.1c-0.1-0.1-0.2-0.3-0.3-0.4
		c-0.3-0.4-0.7-0.6-1.2-0.7l0,0c0.4-0.4,0.6-1,0.5-1.5c-0.1-0.4-0.4-0.8-0.8-1.1c-0.2-1.7-0.4-4-0.6-5.8c0.2-0.2,0.3-0.4,0.3-0.7
		c0.1-0.7-0.1-1.3-0.7-1.7c-0.1-0.3-0.2-0.7-0.3-1V15c0.1-0.7-0.2-1.4-0.8-1.8c-0.6-1.2-2.1-3.9-4.2-5V6.5C28.7,5.7,28,5,27.2,5
		C27.2,5,27.2,5,27.1,5L27.1,5z"/>
	<path style="fill:#4A804E;" d="M24.9,28.7c0,0,0.9,2.3-0.6,3.5c1.3-0.7,2.1-2,2.2-3.4C26,28.7,25.5,28.6,24.9,28.7z"/>
	<path style="fill:#397B46;" d="M38.7,38c-0.4-1.5-1-2.9-1.9-4.2c-0.5-0.7-0.4-3.5-0.4-3.5s0.3-1.3-0.1-1.4s-0.6,0.2-0.5,0
		c0-0.3-0.1-0.6-0.3-0.8c-0.3-0.3-0.7-0.5-1.2-0.5c-0.7-0.1-0.9,0.5-0.8,1.1c0.3,1.4,0.4,2.8,0.3,4.3c0,1.8,0.3,3.6,1,5.3
		c0.5,1,1.6,1.6,2.7,1.5C38.3,39.9,38.8,38.9,38.7,38z"/>
	<path style="fill:#377845;" d="M26.7,6H27c0.4,0,0.6,0.3,0.6,0.6v3.6c0,0.4-0.3,0.6-0.6,0.6h-0.3c-0.4,0-0.6-0.3-0.6-0.6V6.7
		C26.1,6.3,26.4,6,26.7,6z"/>
	
		<ellipse transform="matrix(0.2108 -0.9775 0.9775 0.2108 10.808 42.5711)" style="fill:#528454;" cx="31.8" cy="14.6" rx="0.7" ry="0.8"/>
	
		<ellipse transform="matrix(0.2108 -0.9775 0.9775 0.2108 8.8272 45.7165)" style="fill:#528454;" cx="32.7" cy="17.4" rx="0.7" ry="0.8"/>
	
		<ellipse transform="matrix(0.9804 -0.1968 0.1968 0.9804 -4.3815 7.1431)" style="fill:#3C7F48;" cx="33.8" cy="25.6" rx="0.8" ry="0.7"/>
	
		<ellipse transform="matrix(0.9804 -0.1968 0.1968 0.9804 -7.5215 7.6502)" style="fill:#377845;" cx="34.7" cy="41.7" rx="0.8" ry="0.7"/>
	
		<ellipse transform="matrix(0.9804 -0.1968 0.1968 0.9804 -8.0747 7.6737)" style="fill:#377845;" cx="34.6" cy="44.5" rx="0.8" ry="0.7"/>
	
		<ellipse transform="matrix(0.9804 -0.1968 0.1968 0.9804 -8.757 7.7717)" style="fill:#377845;" cx="34.7" cy="47.9" rx="0.8" ry="0.7"/>
	<path style="fill:#528454;" d="M26.2,51.2V57l-5.1,3.3c0,0-0.3,0.4,0.1,0.5s15.7,0,15.7,0s0.5-0.2,0-0.6c-0.3-0.2-5-3.4-5-3.4V50
		h-5.7V51.2z"/>
	<path style="fill:#2F6A3B;" d="M25.5,47.9c-0.6,1.8,0.4,3.8,2.2,4.5c0.4,0.1,0.7,0.2,1.1,0.2c0.5,0,0.8,2.1,1,2.3
		c0.7,0.5,2,0,2-0.3s0-3.2,0-3.6c1.1-1.1,1.6-2.8,1.3-4.3L25.5,47.9z"/>
	<path style="fill:#4A804E;" d="M31.1,33.2c-0.8,0.5-2.5,0.9-6.2,0.8s-4.5-5.3-4.5-5.3l13.7-0.6l0,0c-0.2-1.1-0.7-7.4-1.1-10.8
		s-3.4-8.6-6.2-8.6s-3.8,3.3-3.8,3.3c-1.2,2.7-2,5.5-2.4,8.4C20.4,22.9,20,32.2,20,35s1,10.2,2.3,13.4s5,3.1,6.5,3.1h-0.1
		C32.9,48.2,31.1,33.2,31.1,33.2z"/>
	<path style="fill:#377845;" d="M34,50c1.9-1,1.1-7.9,1.1-9s-0.8-11.6-0.9-12.7l-13.7,0.6c0,0,0.7,5.3,4.7,5.5
		c3.5,0.2,5.1-0.5,5.9-1c0,0,1.8,14.9-2.5,18.3h0.1h0.1C30.7,51.4,32.5,50.9,34,50z"/>
	<path style="fill:#367542;" d="M20.1,33.7c-0.1,0.1-1.3,5.2-1.3,5.2l2-0.7c0-0.7,0-1.4,0-2.2c-0.1-0.1,0.1-0.4,0-0.9
		c0-0.5-0.1-1.1-0.4-1.6C20.1,33,20.1,33.7,20.1,33.7z"/>
	<path style="fill:#3C7F48;" d="M33.1,17.4c-0.4-3.4-3.4-8.6-6.2-8.6s-3.8,3.3-3.8,3.3c-0.3,0.5-0.5,1-0.7,1.6
		c0.9-1,2.4-4.8,3.7-4.8c2.1,0,4.1,4.7,4.1,12.3c0,4.8,1.8,6.5,3,7h1l0,0C34,27.1,33.5,20.8,33.1,17.4z"/>
	<path style="fill:#377845;" d="M20.5,28.8c0-0.1-0.6-8.9,6.4-8.9s6.8,7.3,6.8,9.4s-13.3-0.5-13.3-0.5L20.5,28.8z"/>
	<path style="fill:#377845;" d="M24.2,22.4c0.7-0.6,1.5-1,2.5-0.9c1.1,0,2.1,0.3,3,0.8L28,28.1h-2.2L24.2,22.4z"/>
	<ellipse style="fill:#4A804E;" cx="23.8" cy="27.1" rx="2.8" ry="5"/>
	<ellipse style="fill:#4A804E;" cx="30.2" cy="27" rx="2.8" ry="5.2"/>
	
		<ellipse transform="matrix(0.9988 -4.850112e-02 4.850112e-02 0.9988 -1.8137 1.3778)" style="fill:#2F6A3B;" cx="27.5" cy="38.1" rx="1.3" ry="3.3"/>
	<path style="fill:#4A804E;" d="M28.3,21.1c-0.1,0-1.1-0.3-1.3,0.4s-0.2,1.1,0.1,1.3s1,0.2,1.2,0.2s3.3,0,3.7,0.6
		C32.4,24.3,31.6,21.7,28.3,21.1z"/>
	<path style="fill:#FFFFFF;" d="M33.1,27.1c0,2.8-1.3,5.1-2.8,5.1s-2.8-2.3-2.8-5.1s1.3-4.8,2.8-4.8S33.1,24.3,33.1,27.1z"/>
	
		<ellipse transform="matrix(0.9988 -4.850112e-02 4.850112e-02 0.9988 -1.8182 1.3888)" style="fill:#377845;" cx="27.7" cy="38.2" rx="1.1" ry="3.2"/>
	<path style="fill:#528454;" d="M21.1,36.7c0-0.5-0.1-1-0.2-1.5c0,0.5,0,0.9-0.1,1.2c-0.1,1-0.4,2.3-1.4,2.3s-0.4-0.9,0.2-2.2
		c0.5-1,0.9-2,1.1-3.1c0.1-1.1,0.2-2.3,0.2-3.4c-0.1-0.7-0.4-1.5-0.7-2.1c-0.2-0.4-0.4-0.1-0.6,0s-0.4,0.4-0.6,0.4s-0.5,0.4-0.6,0.5
		s0,1.1-0.5,0.9s-0.5,0.5-0.5,0.8s0.8,1,0.8,1.7c0,1.2-0.1,2.4-0.5,3.5c-0.4,0.8-2,4.8,0.7,4.8S21.1,37.2,21.1,36.7z"/>
	<path style="fill:#417C49;" d="M19.4,38.7c1,0,1.3-1.4,1.4-2.3c0-0.3,0-0.7,0.1-1.2s-0.1-0.6-0.1-0.5c-0.1,1.1-0.3,2.2-0.7,3.3
		c-0.3,0.5-0.5-0.1-0.4-0.3c0.4-1.1,0.7-2.3,1-3.4c0-0.2,0-0.5,0.1-0.8c-0.2,1.1-0.6,2.1-1.1,3.1C19,37.8,18.4,38.7,19.4,38.7z"/>
	<path style="fill:none;" d="M35.1,40.9c0-0.3,0-1.1-0.1-2.3c-0.1-0.1-0.1-0.2-0.2-0.4c-0.7-1.7-1-3.5-1-5.3c0-1.4-0.1-2.9-0.3-4.3
		c-0.1-0.5,0.1-1.1,0.6-1.1c0-0.1,0-0.3,0-0.3l-13.6,1.4c0,0,0.9,5.3,4.5,5.3s5.4-0.3,6.2-0.8c0,0,1.8,14.9-2.5,18.3h0.1h0.1
		c1.8-0.1,3.5-0.6,5.1-1.5C35.9,48.9,35.1,42,35.1,40.9z"/>
	<path style="fill:#367542;" d="M33.5,28.8c0.3,1.4,0.4,2.8,0.3,4.3c-0.1,1.8,0.2,3.6,0.7,5.4c0.1,0.1,0.4,0.1,0.4,0.2
		c-0.2-3.4-0.7-9.4-0.9-11C33.6,27.7,33.4,28.2,33.5,28.8z"/>
	<ellipse style="fill:#5B9F56;" cx="20.6" cy="22.7" rx="0.7" ry="0.6"/>
	<circle style="fill:#5B9F56;" cx="21.2" cy="18" r="0.6"/>
	<circle style="fill:#5B9F56;" cx="23.6" cy="10.9" r="0.7"/>
	
		<ellipse transform="matrix(0.7071 -0.7071 0.7071 0.7071 -24.55 27.7022)" style="fill:#5B9F56;" cx="21.2" cy="43.5" rx="0.7" ry="0.6"/>
	<circle style="fill:#5B9F56;" cx="22.2" cy="47.5" r="0.6"/>
	<path style="fill:#5B9F56;" d="M26.1,8.9c0,0-1.8,0-3.3,3.7c-1.1,2.6-1.8,5.3-2.2,8.1c-0.2,2.3-0.3,4.8-0.3,5s0.1,1.9,0.6,1.8
		c-0.1-1.3,0.1-2.7,0.7-3.9c0.7-1.5,2.1-2.6,3.8-3c1-0.1,2-0.1,3,0.2c0.2,0.1,1.1-0.6,0.7-0.9c-0.4-0.2-0.7-0.3-1.1-0.4
		c-0.5-0.1-0.1-1.3-0.1-1.8S27.9,9.1,26.1,8.9z"/>
	<ellipse style="fill:#FFFFFF;" cx="23.8" cy="27.1" rx="2.8" ry="4.9"/>
	<path style="fill:#67B06B;" d="M20.8,23.6c0,0.2-0.3,1.5,0,1.6c0.1-0.3,0.9-3.6,2.8-4.5c0.9-0.5,1.9-0.8,3-0.8
		c0.3,0,0.7-0.5,0.2-0.6c-1.6-0.3-3.3,0.2-4.4,1.4C20.9,22.6,20.8,23.6,20.8,23.6z"/>
	<path style="fill:#5B9F56;" d="M26.1,11.6c0-0.3-0.2-1-0.7-0.7c-0.9,0.5-1.5,1.4-1.7,2.4c-0.4,1.9-0.7,3.8-0.8,5.7
		c0.1,0.3,0.8-0.1,1.3-0.4c0.5-0.2,1-0.4,1.5-0.5c0.4-0.1,0.2-0.6,0.3-0.9S26.1,11.6,26.1,11.6z"/>
	<path style="fill:#4A804E;" d="M32.6,23.8c0.1,0.3,0.3,0.2,0.2-0.2s-0.5-3.1-3.2-3.9c-0.8-0.3-1.7-0.6-1.7-0.3
		c0.6,0.4,1.2,0.7,1.9,1C31.3,20.9,32.4,22.2,32.6,23.8z"/>
	<path style="fill:#2F6A3B;" d="M32.8,25c0,0,0.5-0.5,0-1.9c-0.2-0.8-0.6-1.5-1.2-2c0,0,1.5,2.3,1.1,2.9l-0.2,0.3L32.8,25z"/>
	<path style="fill:#2F6A3B;" d="M32.9,28.7c0,0,0.7,0.3,0.1,0.6c-0.1,0.4-0.3,2.1-1.7,2.5c0.9-0.6,1.4-1.6,1.6-2.6
		C33,29.2,33.2,29,32.9,28.7C32.9,28.8,32.9,28.8,32.9,28.7z"/>
	<path style="fill:#2F6A3B;" d="M26.5,28.3c0,0,0.5,0.3,0.2,0.7c-0.1,0.4-0.6,2.9-2.2,3.3c1.2-0.7,1.9-2,2.1-3.4
		c0.1,0,0.2-0.4-0.1-0.4L26.5,28.3z"/>
	<path style="fill:#68B25F;" d="M27.9,29.3c0.5-0.2,1-0.2,1.5-0.1c0.3,0.2,0.8,1,0.6,1.3s-0.8,1.1-1.2,0.7S27.7,30,27.9,29.3z"/>
	<path style="fill:#68B25F;" d="M21.8,29.9c0.2-0.2,0.5-0.4,0.8-0.5c0.3,0,0.5,0.1,0.8,0.3c0.2,0.3,0.4,0.7,0.4,1.1
		c-0.1,0.2-0.3,0.4-0.5,0.5c-0.3,0.1-0.6,0.1-0.8-0.1C22.3,31,21.5,30.4,21.8,29.9z"/>
	<path style="fill:#2F6A3B;" d="M28.2,9.6c-0.3,0,0.9,1.3,0.9,1.8s2.1,2,2.4,4.7c0.3,1.7,0,2.9,0.5,2.9s0.8-3-1-5.8
		C29.7,11.3,28.9,9.6,28.2,9.6z"/>
	<path style="fill:#4A804E;" d="M32.4,32.1c0,0-0.6,1.5-3.5,2c-0.6,0.1-1.5,0.3-1.5,0.3l0.4,0.7c1.4,1.7,2,3.8,1.9,6
		c-0.3,3.6-0.6,8.8-1.4,9.3c-0.6,0.4-1.4,0.5-2.1,0.5c-0.3,0-0.3,0.7,1.1,0.7s2.3,0.5,3.5-1.1C32.1,48.9,33.7,39.3,32.4,32.1z"/>
	<path style="fill:#2F6A3B;" d="M33.5,40.5c0.1-0.7,0.9-0.8,1.1-0.4s-0.2,8.2-1.1,9S32.7,49,33,48S33.4,41.2,33.5,40.5z"/>
	<path style="fill:#BDBEBE;" d="M20.9,27.1c0,0,0.8-3.5,2-3.8s2.3-0.5,3.7,2.8c-0.2-1.4-1-4.2-3.1-3.8C21.9,22.6,20.9,25,20.9,27.1z
		"/>
	<path style="fill:#BDBEBE;" d="M27.4,26.3c0,0,0.4-4.7,3.3-4.1c1.8,0.6,2.3,3,2.3,4.3c-0.1-0.9-1.6-3.3-2.5-3.4
		S28.4,22.7,27.4,26.3z"/>
	<path style="fill:#BDBEBE;" d="M27.5,28.5v-0.3c1.8-0.4,3.7-0.2,5.5,0.5c0,0.1,0,0.2-0.1,0.3C31.1,28.4,29.3,28.2,27.5,28.5z"/>
	<path style="fill:#BDBEBE;" d="M21.2,29.4L21.1,29c0,0,1.4-0.9,5.4-0.8c0,0.2,0,0.4,0,0.4C24.7,28.3,22.9,28.6,21.2,29.4z"/>
	<circle style="fill:#4A804E;" cx="23.6" cy="27.5" r="1.3"/>
	<circle cx="23.6" cy="27.5" r="1.1"/>
	<circle style="fill:#FFFFFF;" cx="22.6" cy="27" r="0.5"/>
	<circle style="fill:#FFFFFF;" cx="23.1" cy="27.6" r="0.2"/>
	<circle style="fill:#4A804E;" cx="29.9" cy="27.4" r="1.3"/>
	<circle cx="29.9" cy="27.4" r="1.1"/>
	<circle style="fill:#FFFFFF;" cx="29.1" cy="27" r="0.5"/>
	<circle style="fill:#FFFFFF;" cx="29.6" cy="27.6" r="0.2"/>
	<path style="fill:#68B25F;" d="M26.6,28.4c-1.9-0.3-3.8,0-5.5,0.8c-0.1,0-0.2,0.2-0.1,0.3c0,0.1,0.1,0.1,0.1,0.1
		c0.1,0.3,0.8,3.1,3.2,2.6c0.9-0.3,1.9-1.8,2.2-3.4C26.7,28.8,26.7,28.5,26.6,28.4z"/>
	<path style="fill:#68B25F;" d="M27.4,28.4c-0.1,0.1-0.2,0.3-0.1,0.4c0.2,0.1,0.3,3.2,2.8,3.5c1.1,0,2.2-0.9,2.7-2.9
		c0.3-0.1,0.2-0.3,0-0.4C31.1,28.3,29.3,28.1,27.4,28.4z"/>
	<path style="fill:#7CBA7B;" d="M27.7,28.4c-0.2,0-0.1,0.3,0,0.3c0.7-0.1,1.3-0.1,2-0.1c0.2,0,0.3-0.3,0.1-0.3
		C29.1,28.3,28.4,28.3,27.7,28.4z"/>
	<path style="fill:#7CBA7B;" d="M21.3,29.3c-0.1,0.1-0.2,0.3,0,0.3c0.8-0.3,1.6-0.5,2.4-0.7c0.1-0.1,0.1-0.3-0.1-0.3
		C22.8,28.7,22.1,29,21.3,29.3L21.3,29.3z"/>
	<path style="fill:#4A804E;" d="M24.9,28.7c0,0,1.1,1.4-0.6,3.5c1.1-0.4,2-1.9,2.2-3.4C26,28.7,25.5,28.6,24.9,28.7z"/>
	<path style="fill:#4A804E;" d="M31.6,29c0,0-0.1,3.2-1.8,3.2c0.9,0.1,2.3,0.3,3-2.9C32.4,29.2,32,29.1,31.6,29z"/>
	<path style="fill:#7CBA7B;" d="M21.5,29.7c0,0,0.5,1.7,1.3,1.9c0.5,0.2,0.5-0.2,0.5-0.2s-0.4-1.8-0.5-2
		C22.4,29.4,21.9,29.6,21.5,29.7z"/>
	<path style="fill:#7CBA7B;" d="M27.9,29.1c0,0,0.1,1.8,0.8,2.1c0.5,0.3,0.5-0.1,0.5-0.1s0-1.9-0.1-2.1C28.7,29,28.3,29,27.9,29.1z"
		/>
	<path style="fill:#4A804E;" d="M26.1,8.9V6.5c0,0,0.1-0.5,0.5-0.5s0.3,3.1,0.3,3.1L26.1,8.9z"/>
	<path style="fill:#5B9F56;" d="M21.8,33.4c-0.2,0.4-0.4,0.9-0.5,1.3c0.1,1.2,1.1,4.6-0.7,6c0.8,4.1,1,10,5.6,10.5
		c1.1,0,1.7-1.4,1.7-2.7c-0.1-2.2-0.3-4.5-0.6-6.7c-1-0.3-1.6-1.3-1.6-2.3c-0.1-1.8-0.1-4.6,0.5-4.8C25.1,34.7,23.3,35,21.8,33.4z"
		/>
	<path style="fill:#5B9F56;" d="M27.9,35c0,0,1,0.4,1.1,1.1s1,4.7-0.9,5.1c0.5-1,0.8-2.1,0.7-3.2C28.6,37,28.4,35.3,27.9,35z"/>
	<path style="fill:#5B9F56;" d="M23.9,35.5c0,0-1.2-0.4-1.4,1.5s0.3,11.7,1.9,12s2.1-0.4,2.1-0.9S26,42.5,26.1,42s-1-1.4-1-1.9
		S25.3,35.8,23.9,35.5z"/>
	<path style="fill:#67B06B;" d="M26.6,34.7c0,0-0.9-0.2-1,1.8s0.1,3.9,0.4,4s0-0.2,0-0.6s-0.5-2.8,0.2-4.5
		C26.6,35.1,26.9,34.5,26.6,34.7z"/>
	<circle style="fill:#67B06B;" cx="22.1" cy="19.3" r="0.4"/>
	<circle style="fill:#67B06B;" cx="22.1" cy="44.6" r="0.4"/>
	<circle style="fill:#67B06B;" cx="27" cy="49.8" r="0.5"/>
	<circle style="fill:#5B9F56;" cx="31.8" cy="35.5" r="0.5"/>
	<circle style="fill:#5B9F56;" cx="31.8" cy="42" r="0.6"/>
	<circle style="fill:#5B9F56;" cx="30.7" cy="43.6" r="0.4"/>
	<circle style="fill:#5B9F56;" cx="29.5" cy="18.6" r="0.4"/>
	<circle style="fill:#67B06B;" cx="25.9" cy="10" r="0.4"/>
	<circle style="fill:#67B06B;" cx="27.3" cy="12.3" r="0.6"/>
	<path style="fill:#2F6A3B;" d="M27,35c0,0-1.3,2.1-0.1,5.8c0.6,0.5,0.8,1.1,1.4,0c-0.6-0.4-2-1.8-1-5.8C27.3,35.1,27,35,27,35z"/>
	<path style="fill:#2F6A3B;" d="M34.8,29.6c0.3-0.3-0.3-1.6-1-1.6c-0.5,0.3-0.2,0.8-0.3,2.3c0.1,1.8,0,3.9,0.1,4.2
		c0.4,1.1,0.9,2.2,1.6,3.3c0-0.2-0.1-0.3-0.2-0.6s-1.3-2.2-1.2-4c0.1-2.2-0.4-4.7-0.1-4.9s0.4,0.5,0.6,0.6S34.6,29.7,34.8,29.6z"/>
	<path style="fill:#2F6A3B;" d="M35.8,29c0.5,1,0.7,2.1,0.7,3.2c0,0.5-0.4-0.4-0.3-0.5S35.8,29,35.8,29z"/>
	<path style="fill:#2F6A3B;" d="M34.8,27.8c-0.3-0.1,0.5,1.5,0.5,1.6s0.3,1.1,0.2,0.7S35.4,27.9,34.8,27.8z"/>
	<path style="fill:#2F6A3B;" d="M33.8,35.2c0,0,0.2,3.4,1.3,3.5c-0.1-0.2-0.3-0.4-0.4-0.6S34,35.5,34,35.5L33.8,35.2z"/>
	<path style="fill:#2F6A3B;" d="M26,40.5c0.2,1,1.2,1.6,2.2,1.4c0,0,0.1,0,0.1,0c0.2,0.1,0.3,0.4,0,0.5S26,42,26,40.5z"/>
	<path style="fill:#2F6A3B;" d="M20.7,34.2c0,0,1.6-3.8-0.3-6.2c-0.5,0-1,1.4-0.9,2.1c0.2,0.4,0.3-0.4,0.3-0.6s0.3-1.5,0.5-1.2
		c0.5,0.9,0.8,2,0.8,3.1C20.9,32.3,20.4,34,20.7,34.2z"/>
	<path style="fill:#2F6A3B;" d="M20.8,35.1c0,0,0.1-0.2,0.3,0.1s0.2,3.9-0.8,4.6c0-0.1,0-0.3-0.1-0.4C21,38.1,21.2,36.6,20.8,35.1z"
		/>
	<path style="fill:#2F6A3B;" d="M19,28.3c-0.1,0.5-0.2,1.1-0.1,1.6C18.7,29.4,18.8,28.8,19,28.3z"/>
	<path style="fill:#5B9F56;" d="M26.6,57l0-5.2c0,0,1.4,0.3,1.5,1.5s0,3.9,0,3.9l3.7,2.4c0,0,1.1,0.5-0.3,0.6s-10.4,0.1-10.4,0.1
		l5.1-3.3L26.6,57z"/>
	<path style="fill:#7CBA7B;" d="M27.4,56.8l-0.1-2.5c0,0-0.4-0.8-0.7,0.2c0,1.4,0,2.4,0,2.4l-3.5,2.6c0,0-0.4,0.4,0.5,0.4s7,0,7.5,0
		s0.1-0.3-0.4-0.4s-5.5-0.1-5.8-0.1s-0.5-0.3,0-0.6s2.1-1.4,2.1-1.4C27.3,57.4,27.4,57.1,27.4,56.8z"/>
</g>
</svg>
