<?xml version="1.0" encoding="utf-8"?>
<!-- Generator: Adobe Illustrator 22.0.0, SVG Export Plug-In . SVG Version: 6.00 Build 0)  -->
<svg version="1.1" id="Слой_1" xmlns="http://www.w3.org/2000/svg" xmlns:xlink="http://www.w3.org/1999/xlink" x="0px" y="0px"
	 viewBox="0 0 55.8 62.9" style="enable-background:new 0 0 55.8 62.9;" xml:space="preserve">
<title>23_1</title>
<path style="fill:#64946E;" d="M21.8,61.3h-0.2c-0.2-0.1-0.4-0.3-0.5-0.5c-0.1-0.3,0-0.5,0.2-0.7l0.1-0.1l4.4-3.1v-8.2
	c-1.5-0.3-2.8-0.9-4-1.8c-0.8-0.6-1.5-1.4-2-2.3l0,0c-1.2-1.4-1.6-3.4-1.4-6.5h-0.2c-1.2,0-4.5-0.5-5.3-1.5c-0.5-0.7-0.8-1.5-1-2.4
	V34c-0.1-0.3-0.1-0.6-0.1-0.9l0,0c-0.4-1.6,0.2-3.2,1.4-4.3c0.7-0.6,1.6-0.9,2.5-1h0.2c0.8,0,3.7,0.3,4,1l0,0
	c0.2,0.2,0.3,0.4,0.3,0.7c0,0.3,0,0.5-0.2,0.7c-0.1,0.2-0.1,0.4-0.2,0.5c-0.2,0.4-0.6,0.7-1,0.8c-0.1,0-0.2,0.1-0.4,0.1h0.3
	c0.5,0,0.9,0.1,1.3,0.4c0-0.4,0.1-0.9,0.2-1.3v-0.4c0.1-0.9,0.2-1.9,0.3-2.8c0-0.6,0.1-1.1,0.2-1.7v-0.2c0-0.2-0.1-0.4-0.1-0.6
	s-0.1-0.3-0.1-0.5l-0.4-0.8c-0.3-1-0.1-2.1,0.4-3c0.4-1.1,0.6-2.2,0.6-3.4v-0.7c0.1-0.8,0.3-3.2,2-4.5c0-0.1,0-0.1,0.1-0.1l0,0l0,0
	v-0.4c0.1-1.4,0.4-3.6,1.9-4c0.5-0.1,1.1-0.3,1.7-0.4l0.5-0.1h0.6c0.4,0,0.8,0.1,1.2,0.3c0.7,0.9,1.2,2,1.3,3.2
	c0.1,0.5,0.2,0.5,0.2,0.9v0.3l0.3,0.1c0.8,0.3,1.6,0.8,2.1,1.5c0.4,1.6,0.6,3.2,0.6,4.9c0,0.5,0,1,0.1,1.5v0.1
	c0.5,0.7,0.7,1.5,0.7,2.3c0,0.1,0,0.3-0.1,0.4l0,0v0.2c0,0.1-0.1,0.2-0.1,0.3c-0.1,1-0.1,2.1,0,3.1l0.2,0.9c0,0.1,0,0.2,0.1,0.3
	l0.1,0.2c0.1,0.1,0.2,0.3,0.2,0.5v0.1c0.1,0.3,0.2,0.5,0.2,0.8v0.1c0-0.2,0.1-0.4,0.3-0.6l0.3-0.3c0-0.1,0.1-0.1,0.2-0.2l0.3-0.3
	l0.1-0.1c0.4-0.3,0.8-0.4,1.3-0.4h0.3c1.3,0,2.5,0.5,3.5,1.3c0.3,0.5,0.5,1,0.8,1.5c0.6,1.9,0.8,4.6-0.8,6L41,36.1
	c-0.9,0.7-2,1.2-3.2,1.4c0.4,1.6,1.1,5.6-2,8.5c-1.1,1.1-2.5,1.9-4,2.4V57c0.8,0.5,3.4,2.2,4.3,2.7c0.4,0.2,0.5,0.7,0.3,1.1l0,0
	c0,0.1-0.1,0.2-0.2,0.2c-0.1,0.1-0.2,0.1-0.3,0.1h-9.1L21.8,61.3z M15.3,31.6c-0.1,0.1-0.1,0.2-0.1,0.3c0,0.1,0,0.1-0.1,0.2
	c0.3-0.3,2.8-0.4,3.2-0.4h-2.6C15.7,31.7,15.3,31.6,15.3,31.6z M35.4,30.9c0,0.1,0.2,0.5,0.3,0.8c0.3-0.1,0.7-0.2,1-0.2l-0.3-0.1
	c-0.4-0.1-0.8-0.4-1-0.8l0,0V30.9z M37.6,31.5c0.1,0,0.2,0,0.3,0.1v-0.2l0,0C37.8,31.4,37.7,31.4,37.6,31.5z"/>
<path style="fill:#FFFFFF;" d="M27.9,7.7c0.3,0,0.6,0.1,0.9,0.2c0.6,0.4,0.9,2,1.1,3c0.1,0.3,0.2,0.6,0.2,0.9l0,0v0.6
	c0.2,0,0.3,0.1,0.4,0.2c0.8,0.2,1.5,0.7,2,1.4c0.6,1.2,0.5,5.9,0.6,6.3v0.2c0.5,0.6,0.7,1.4,0.7,2.2c0,0.1,0,0.3-0.1,0.4l0,0
	c0,0.1-0.1,0.2-0.1,0.3c-0.2,1.1-0.2,2.3,0,3.4c0,0.3,0.1,0.6,0.2,0.9c0.1,0.2,0.2,0.1,0.2,0.2l0.1,0.4l0,0c0.1,0.3,0.2,0.7,0.3,1
	l0,0l0.2,0.7l0,0l0.3,0.9c0.2,0.5,0.3,1,0.4,1.5c0.5-0.4,1.2-0.6,1.8-0.5h0.1c0.4,0,0.8,0.2,1,0.5c0.1-0.4,0.2-1.5-0.2-1.6
	c-0.1,0-0.3-0.1-0.4-0.1l0,0l-0.2,0.2H37c-0.2,0-0.3,0-0.5-0.1c-0.3-0.1-0.6-0.3-0.8-0.6c-0.1-0.1-0.2-0.3-0.2-0.5
	c-0.1-0.1-0.1-0.3-0.1-0.4c0-0.2,0.1-0.3,0.2-0.5c0.1,0,0.2-0.1,0.3-0.1c0.1-0.2,0.3-0.3,0.4-0.4l0,0c0.3-0.2,0.7-0.4,1.1-0.4h0.2
	c1.1,0,2.2,0.4,3,1.2c0.3,0.4,0.5,0.9,0.6,1.4c0.6,1.7,0.8,4.2-0.6,5.5l-0.1,0.2c-0.8,0.2-1.6,0.3-2.3,0.2l0,0c0.8,0,1.6,0,2.3-0.2
	c-0.9,0.7-1.9,1.1-3,1.3H37c0,0,2,5.2-1.7,8.6c-1.1,1.2-2.5,2-4.1,2.4v9l0,0c0,0,3.5,2.2,4.5,2.9c0.1,0.1,0.2,0.2,0.2,0.4l-0.1,0.1
	h-14c-0.1,0-0.2-0.2-0.2-0.3s0-0.1,0.1-0.1c0.8-0.6,4.6-3.3,4.6-3.3v-8.8c-1.5-0.2-3-0.8-4.2-1.7c-0.8-0.6-1.4-1.4-1.9-2.2h0.1
	c-1.3-1.5-1.7-3.4-1.3-7v-0.1h-0.1c-1,0.1-2,0.1-3,0.1s-2-0.4-2.6-1.3c-0.5-0.7-0.8-1.4-1-2.2v0.1c-0.1-0.3-0.1-0.7-0.2-1l0,0
	c-0.2-1.4,0.2-2.9,1.2-3.9c0.6-0.5,1.4-0.9,2.2-0.9h0.2c0.6-0.1,3.4,0.2,3.7,0.8l0,0c0.1,0.1,0.2,0.3,0.2,0.5c0,0.1,0,0.3-0.1,0.4
	c0,0.2-0.1,0.3-0.2,0.5c-0.2,0.3-0.5,0.5-0.8,0.6c-0.9,0.1-1.8,0.1-2.7,0.1h-0.5c-0.1,0-0.2-0.1-0.2-0.2c-0.3,0.2-0.5,0.5-0.5,0.8
	c-0.1,0.2-0.1,0.5-0.1,0.7c0.1,0.4,0.3,0.5,0.5,0.5s0.2-0.6,0.2-0.6c1-0.4,2.1-0.6,3.2-0.7h0.2c1.4,0,1.2,1.5,1.4,1.6l0.1,0.1l0,0
	c0-0.1,0-0.3,0.1-0.4l0.1-0.2c0.2-0.7,0.3-1.4,0.3-2.1l0,0c0.2-1.7,0.4-4,0.5-4.6l0,0v-0.4c-0.1-0.3-0.2-0.7-0.3-1.1l-0.3-0.9
	c-0.2-0.9-0.1-1.8,0.3-2.6c0.5-0.7,0.6-3.5,0.7-4.3s0.3-3.2,2-4.3c0.2,0,0.4-0.1,0.6-0.1l0,0c-0.2,0-0.4,0-0.6,0.1l0.2-0.1v-0.1
	c0.1-0.8,0.2-3.6,1.6-4c0.6-0.1,1.1-0.3,1.6-0.4l0.4-0.1L27.9,7.7 M28.3,12.5L28.3,12.5 M32,24.2L32,24.2 M37.6,30.5
	c0.1-0.1,0.3-0.1,0.4-0.1l0,0C37.9,30.4,37.7,30.5,37.6,30.5L37.6,30.5 M15,33.5c0.1,0,0.2-0.1,0.3-0.1C15.2,33.4,15.1,33.5,15,33.5
	s-0.2-0.1-0.5-0.3C14.7,33.4,14.8,33.5,15,33.5 M37.8,33.5L37.8,33.5c0,0.1,0.1,0.1,0.2,0.1l0,0C37.9,33.5,37.8,33.5,37.8,33.5
	L37.8,33.5 M34.7,34.4V34l0,0V34.4 M34.7,35.2c0,0.2,0,0.4,0.1,0.6C34.7,35.6,34.7,35.4,34.7,35.2v-0.5l0,0V35.2 M14.1,36l1.2,0.3
	C14.9,36.3,14.5,36.2,14.1,36L14.1,36 M15.5,36.3L15.5,36.3 M25.5,36.8l-0.2-0.1l0,0L25.5,36.8 M19,37.4L19,37.4v-0.2l0,0V37.4
	 M18.8,37.7L18.8,37.7 M27.9,6.6h-0.6l-0.5,0.1c-0.6,0.1-1.1,0.2-1.7,0.4c-1.9,0.5-2.1,2.8-2.3,4.4v0.2l0,0c-1.7,1.4-2,3.9-2.1,4.8
	v0.7c0,1.1-0.2,2.1-0.5,3.1c-0.6,1.1-0.8,2.3-0.5,3.5l0.2,0.6l0.1,0.3c0,0.2,0.1,0.3,0.1,0.5c0.1,0.2,0.1,0.3,0.1,0.5v0.1l0,0
	c0,0.3-0.1,0.9-0.2,1.6V28c-0.5-0.4-1.1-0.7-1.8-0.7H18c-1,0-4.2,0.4-5,1.1c-1.3,1.2-2,3-1.6,4.8l0,0c0,0.3,0.1,0.5,0.1,0.8v0.2
	c0.2,0.9,0.6,1.8,1.1,2.6c0.7,1,4.1,1.6,5.3,1.7c-0.2,2.9,0.3,4.8,1.5,6.3c0.6,0.9,1.3,1.7,2.1,2.4c1.1,0.9,2.4,1.5,3.8,1.8v7.5
	l-4.2,3c-0.1,0.1-0.2,0.1-0.2,0.2c-0.3,0.3-0.4,0.7-0.3,1.1c0.1,0.4,0.4,0.7,0.7,0.9c0.1,0.1,0.3,0.1,0.4,0.1h14
	c0.2,0,0.4-0.1,0.6-0.2c0.6-0.4,0.7-1.3,0.3-1.8c0,0,0,0-0.1-0.1l-0.3-0.3c-0.8-0.5-3.1-2-4.1-2.6v-7.6c1.4-0.5,2.7-1.3,3.8-2.4
	c2.2-2.2,3.1-5.5,2.3-8.5c1-0.2,2-0.7,2.8-1.3l0.1-0.1l0.1-0.1c1.8-1.5,1.6-4.4,0.9-6.5c-0.2-0.6-0.5-1.1-0.8-1.6
	c-1-1-2.4-1.6-3.8-1.7h-0.3c-0.6,0-1.1,0.2-1.6,0.5l-0.2,0.1l-0.3,0.3l-0.2,0.2l0,0c0-0.1-0.1-0.2-0.2-0.4v-0.1c0-0.1,0-0.2-0.1-0.3
	l-0.2-0.9c-0.1-1-0.1-1.9,0-2.9c0-0.1,0.1-0.2,0.1-0.3v-0.1l0,0c0-0.1,0.1-0.3,0.1-0.4c0-0.9-0.3-1.8-0.8-2.6v-1.4
	c0-1.7-0.2-3.4-0.6-5.1c-0.5-0.9-1.3-1.5-2.3-1.8l0,0v-0.1c-0.1-0.5-0.1-0.5-0.2-0.9c-0.4-1.6-0.7-2.9-1.5-3.5
	C29.1,6.7,28.5,6.6,27.9,6.6z"/>
<path style="fill:#7FB38B;" d="M41.5,30.5c-0.2-0.5-0.4-1-0.6-1.4c-0.9-0.8-2-1.3-3.2-1.2c-0.5,0.1-1,0.3-1.4,0.6L36,28.8
	c-0.6,1,0.5,1.7,0.7,1.9s0.4,0.1,0.7,0.1c0.3-0.3,0.7-0.5,1.1-0.6c0.6-0.1,1.2,0.4,1.2,1c0.1,0.6,0.1,1.2-0.1,1.7
	c-0.2,0.3-1.2,0.8-1.5,0.3s0-0.2,0.2-0.2s0.2-0.1,0.2-0.4l0,0v-0.2c-0.1-0.2-0.4-0.4-1.1-0.4c-0.6,0-1.3,0.2-1.8,0.5l0,0
	c-0.3,0.6-0.5,1.3-0.5,2c0.2,1,1,1.7,2,1.8c1.2,0.1,2.5,0.1,3.7-0.2L41,36C42.2,34.7,42,32.2,41.5,30.5z"/>
<path style="fill:#9DCAA2;" d="M32.6,20.6c-0.5,0.1,0-0.1,0-0.6s0.6-1.6,0.3-2.7s-0.1-1.8-0.5-2.4c-0.5-0.5-1-1-1.6-1.4
	c-0.1-0.1-1.8-0.2-1.9-0.8c-0.1,0,0-0.1-0.1-0.1l-0.2,0.1l0,0c-0.1-0.1-0.1-0.2-0.2-0.2s-0.2-0.1-0.3-0.2c-0.2-0.1-0.5-0.2-0.7-0.3
	c-0.2,0-0.4,0.2-0.6,0.4c-0.2,0.1-0.4,0.2-0.5,0.4L26,12.9l-0.1-0.1c-0.3-0.2-0.7-0.4-1.1-0.5s-0.8-0.1-1.2,0
	c-1.6,1.1-1.9,3.5-2,4.3s-0.2,3.6-0.7,4.3c-0.4,0.8-0.5,1.7-0.3,2.6c0.3,0.8,0.5,1.6,0.6,2.4c-0.1,0.9-0.5,5.8-0.8,6.6l-0.1,0.2
	c0,0.2-0.1,0.3-0.1,0.4s-0.1-0.1-0.5,0s-0.3,0-0.5-0.2s-0.2-0.5-0.8-0.5c-1,0-2,0.1-2.9,0.4c-0.3,0.2-0.4,0.5-0.8,0.2
	s-0.2-0.8,0-1.2c0-0.1,0-0.1,0.1-0.2c0.2-0.5,0.6-1,1-0.8c0.7,0.2,3.6-0.3,3.8-1.3s-3.2-1.5-4.6-1c-0.8,0.3-1.5,0.9-2,1.6
	c-0.8,0.8-0.9,2.6-0.5,4.1c0.4,0.7,1,1.3,1.7,1.6c2,0.6,4.9,0.2,5.6-0.5s-0.1,1.1-0.8,2.2c-0.4,3.6,0.1,5.6,1.4,7
	c1.7,1.7,3.9,2.8,6.3,3.2c2.1,0.2,5.2-0.8,5.8-3.5c0.9-4.1-1.1-6.3-2.3-6.3c-1.7-0.1-3.3-0.5-4.8-1.3c0.8,0.3,1.6,0.5,2.5,0.5
	c3,0.2,4.9-3.1,5-5.7c0.1-2.4-0.2-4.8-0.7-7.2c0,0.5-0.1-0.1-0.1,0l0.2,0.1c0.1,0.1,0.3,0.2,0.9-0.4c0.3-0.4,0.5-0.8,0.6-1.3
	c-0.1-0.9-0.4-1.8-1-2.5C32.9,20,33.3,20.5,32.6,20.6z"/>
<path style="fill:#B8D8BB;" d="M24.1,12.4c-0.2,0-0.3,0.1-0.6,0.5c-0.4,0.4-0.7,0.8-1,1.2c-0.4,0.8-0.7,1.7-0.7,2.6
	c-0.1,0.8-0.3,4.5-0.3,4.5s0.7-2.9,1-4c0.1-0.8,0.4-1.5,0.8-2.1c0.4-0.5,1.1-0.9,1.8-0.9c0.5,0,1,0.3,1.3,0.7c0-0.6,0-1.2-0.2-1.8
	c-0.2-0.5-0.6-0.5-1.4-0.7L24.1,12.4z"/>
<path style="fill:#7FB38B;" d="M24.8,21.8c0,0,0.4,2.1,2.2,2.1s2.5-2.5,2.5-2.5l-1.9-2.8h-2.1L24.8,21.8z"/>
<path style="fill:#9DCAA2;" d="M26.4,48l-0.1,0.1L26.4,48v9c0,0-3.8,2.7-4.6,3.3c-0.1,0.1-0.1,0.3,0,0.4c0.1,0,0.1,0,0.1,0.1h14
	c0.1-0.1,0.2-0.3,0.1-0.5l-0.1-0.1c-1-0.7-4.5-2.9-4.5-2.9v-9l-1.9,0.2L26.4,48z"/>
<path style="fill:#7FB38B;" d="M37.5,37.3l-0.6-0.2c-1.1-0.1-2-1-2-2.1c-0.1-0.9,0.1-1.8,0.5-2.6c-0.2-0.7-1.1-3.5-1.4-4.6
	c-0.4-1.5-0.5-3.1-0.2-4.7c0-0.1,0.1-0.2,0.1-0.3c-0.1,0.4-0.3,0.7-0.5,1c-0.3,0.4-0.9,0.5-1.3,0.2c0.3,2.2,0.4,4.5,0.4,6.7
	c0,3.3-1,6.1-4.5,6.1c-0.8,0-1.7-0.1-2.5-0.3c-0.2,0.4,0.1,0.6,0.6,0.8c1.4,0.4,2.8,0.6,4.2,0.6c1.2,0,3.2,2.2,2.3,6.3
	c-0.6,2.7-3.7,3.4-5.8,3.2c-2.5-0.2-5-1.9-6.4-3c0.5,0.8,1.1,1.6,1.9,2.2c1.2,0.9,2.7,1.5,4.2,1.7c1.2,0.1,2.3,0.2,3,0.3
	c0.6,0,1.3-0.1,1.9-0.2c1.6-0.4,3.1-1.3,4.2-2.5c3.7-3.4,1.7-8.6,1.7-8.6S37.4,37.3,37.5,37.3z M27,47.5v0.4l0.4,0.1L27,47.5z"/>
<ellipse style="fill:#7FB38B;" cx="25" cy="18.2" rx="2.4" ry="3.9"/>
<ellipse style="fill:#7FB38B;" cx="30" cy="18.1" rx="2.4" ry="3.9"/>
<ellipse style="fill:#CBE2CC;" cx="24.8" cy="18.5" rx="2.4" ry="3.9"/>
<ellipse style="fill:#CBE2CC;" cx="29.9" cy="18.5" rx="2.4" ry="3.9"/>
<ellipse style="fill:#FFFFFF;" cx="24.8" cy="18.8" rx="2.4" ry="3.7"/>
<ellipse style="fill:#FFFFFF;" cx="29.9" cy="18.8" rx="2.4" ry="3.7"/>
<path style="fill:#7FB38B;" d="M26.3,48.2h5v9h-0.6c-0.3-0.1-0.6-0.3-0.9-0.5c-0.5-0.6-0.2-7.2-0.9-7.3C27.9,49.3,27,48.9,26.3,48.2
	z"/>
<path style="fill:#AFD3B2;" d="M27.1,49.2l0.9,0.3c0.1,1.2,0.1,6.8,0,8c-0.7,0.8-1.5,1.5-2.3,2.2c-0.4,0.4,0.2,0.3,1,0.4
	c1.6,0,3.1,0,4.7,0.2c0.1,0.1-0.1,0.2-0.1,0.2l-8.4,0.1c0,0,3.8-2.6,3.9-2.7s0.3-0.1,0.4-0.5C27.2,55.8,27.2,50.3,27.1,49.2z"/>
<path style="fill:#64946E;" d="M26.3,48.2c0.9,0.2,1.7,0.2,2.6,0.2c0.8,0,1.5,0,2.3-0.2v1c0,0.3-1.3-0.1-1.9-0.2
	C28.3,48.9,27.3,48.7,26.3,48.2z"/>
<path style="fill:#7FB38B;" d="M28,30.4h0.2v-2.6h-0.9v2.7h-0.2v0.2c0.3,0,0.6,0.1,0.9,0.1V30.4z"/>
<path style="fill:#64946E;" d="M31.8,28.5c0-0.5,0-0.9-0.1-1.4c-0.5,1.3-1.6,2.3-2.9,2.7V30C30,30,31.1,29.5,31.8,28.5z"/>
<path style="fill:#64946E;" d="M24.3,29.8c-0.4-0.2-0.7-0.5-0.9-0.9c0.1,1.5,0.2,3.5,1.7,4.7c0.8,0.7,1.9,1,2.9,0.9
	c-0.8-0.1-1.5-0.4-2.1-0.9C24.9,32.5,24.3,31.2,24.3,29.8z"/>
<path style="fill:#CBE2CC;" d="M28.9,29.9v-2.5h-0.8V30C28.4,30,28.6,29.9,28.9,29.9z"/>
<path style="fill:#7FB38B;" d="M31.8,28.5c-0.6,0.7-1.5,1.2-2.4,1.4c-0.8,0.4-1.1,0.1-1.1,0.1l-0.4-2.6l0,0l-1.2,0.3l-2-0.2
	c-1-0.1,0.1,2.5-0.4,2.2c0,1.4,0.6,2.8,1.6,3.8c0.6,0.5,1.3,0.8,2.1,0.9c1-0.1,1.9-0.5,2.6-1.1C31.6,32.5,31.9,30.5,31.8,28.5z"/>
<path style="fill:#64946E;" d="M27.9,27.5c-0.1,0.9,0,1.8,0.2,2.7c0,0.1,0.1,0.2,0.3,0.2c1.4,0,2.7-0.7,3.5-1.8
	c-0.1-1.1-0.3-2.3-0.5-3.4C31.4,25.2,30,27.4,27.9,27.5z"/>
<path style="fill:#64946E;" d="M26.7,27.5c0.4,0.1,0.9,0.1,1.3,0v0.8l-1.3,0.4V27.5z"/>
<path style="fill:#7FB38B;" d="M30.2,12.4v-0.1h-0.1c-0.5,0-1,0.1-1.5,0.2c-0.1-0.1-0.1-0.2-0.2-0.2C28.3,12.1,28.2,12,28,12
	c-0.3-0.1-0.5-0.1-0.8-0.1s-0.6,0.1-0.8,0.2c-0.2,0.1-0.4,0.2-0.5,0.4c-0.3-0.2-0.7-0.4-1.1-0.4c-0.3-0.1-0.7-0.1-1,0v0.1l-0.2,0.1
	c0.4-0.1,0.8-0.1,1.2,0c0.4,0.1,0.8,0.3,1.1,0.5h0.3l0.2-0.2c0.1-0.2,0.3-0.3,0.5-0.4c0.1-0.1,0.3-0.1,0.4-0.1c0.2,0,0.5,0,0.7,0.1
	c0.1,0,0.2,0.1,0.3,0.2s0.2,0.1,0.2,0.2l0.1,0.1h0.1c0.5-0.1,1-0.2,1.5-0.2h0.5C30.5,12.4,30.4,12.4,30.2,12.4z"/>
<path style="fill:#7FB38B;" d="M30.2,12.2c0-0.5-0.1-1-0.3-1.4c-0.1-1.1-0.5-2.1-1.1-3c-0.4-0.2-0.9-0.3-1.4-0.2
	c0.6,0.8,1,1.8,1.2,2.8c0.2,0.7,0.3,1.3,0.4,2c0.3,0,0.7-0.1,1-0.2L30.2,12.2z"/>
<path style="fill:#9DCAA2;" d="M25,36.5c-0.1,0-1.9-0.9-3-4s0.5,6.7-0.9-5.1c0-0.1-0.3,5.9-0.8,6.8c-0.6,1.2-1,2.5-1.2,3.8
	c-0.2,1.5,0.1,3.1,0.8,4.5c0.9,1.9,4.3,2.5,5-1.2S25,36.5,25,36.5z"/>
<path style="fill:#7FB38B;" d="M19.2,37.2c0.2-0.7,0.3-1.2,0.5-1.7c-0.7,0.6-3.5,1.1-5.5,0.4c-0.8-0.4-1.4-1-1.8-1.8
	c0.2,0.8,0.5,1.5,1,2.2c0.8,1,4.3,1.5,5.5,1.2l0,0C19.2,37.5,19.2,37.3,19.2,37.2z"/>
<path style="fill:#7FB38B;" d="M21.6,26.9c0.3-1.2,0.8-0.8,1.2-1.8c0.3-0.6,0.4-1.3,0.3-1.9c0,0,0.3,2.5-2.1,1.3h-0.1
	c0.2,0.5,0.3,1,0.3,1.5c-0.1,0.5-0.2,1.8-0.3,3.2C21.2,28.4,21.5,27.6,21.6,26.9z"/>
<path style="fill:#64946E;" d="M38.2,30.9c0.4,0.2,0.2,1.5,0.2,1.7s0,0.3-0.2,0.4s-0.4-0.3-0.2,0.2s1.2,0,1.5-0.3
	c0.1-0.6,0.2-1.1,0.1-1.7c0-0.7-0.7-1-1.2-1c-0.4,0.1-0.8,0.3-1.1,0.6C37.5,30.7,37.9,30.8,38.2,30.9z"/>
<path style="fill:#9DCAA2;" d="M28.6,10.4c-0.2-1-0.6-2-1.2-2.8L27,7.7c-0.4,1.4-0.5,2.8-0.3,4.2c0.2-0.1,0.3-0.1,0.5-0.1
	c0.3,0,0.5,0,0.8,0.1c0.1,0.1,0.2,0.1,0.4,0.2s0.2,0.1,0.2,0.2l0.4-0.1C28.9,11.6,28.8,11,28.6,10.4z"/>
<path style="fill:#CBE2CC;" d="M27,7.8c-0.5,0.1-1.1,0.2-1.6,0.4c-1.4,0.4-1.5,3.2-1.6,4c0.3-0.1,0.7-0.1,1,0
	c0.4,0.1,0.8,0.2,1.1,0.4c0.1-0.2,0.3-0.3,0.5-0.4c0.1,0,0.2-0.1,0.3-0.1C26.5,10.6,26.6,9.1,27,7.8z"/>
<path style="fill:#7FB38B;" d="M26,7.9c-0.1,0.2-0.1,0.3-0.2,0.5c-0.1,0.5-0.3,1-0.4,1.5c0,0.2-0.1,0.5-0.1,0.8s-0.1,0-0.1,0.3v0.8
	c0,0.1,0,0.3,0.1,0.4c0,0.1,0.1,0.2,0.2,0.4c0-0.1-0.1-0.2-0.1-0.4V11c0.1-0.5,0.2-0.5,0.3-1c0-0.2,0.1-0.5,0.1-0.8l0.1-0.8L26,7.9
	L26,7.9z"/>
<path style="fill:#9DCAA2;" d="M37,37.3h0.6c1.1-0.2,2.2-0.7,3.1-1.3c-1.2,0.3-2.4,0.3-3.7,0.2c-1-0.1-1.9-0.8-2.1-1.8V35
	C35,36.2,35.9,37.1,37,37.3z"/>
<path style="fill:#64946E;" d="M14.7,33c0.5,0.3,0.5-0.2,0.8-0.5c0.9-0.3,1.9-0.4,2.9-0.4c0.6,0,0.6,0.6,0.8,0.8s0.1,0.3,0.5,0.2
	s0.5,0.3,0.5,0s0.1-0.2,0.1-0.4c-0.2,0.6-0.1,0.4-0.2,0.4s0-1.7-1.6-1.6c-1.1,0-2.2,0.3-3.2,0.7c-0.2,0.1-0.6,0.7-0.7,0.1
	c0-0.2,0-0.5,0.1-0.7c-0.1,0.1-0.1,0.1-0.1,0.2C14.4,32.5,14.2,32.8,14.7,33z"/>
<path style="fill:#7FB38B;" d="M33.2,20.2c-0.2-0.4,0-5.2-0.6-6.3c-0.5-0.7-1.2-1.2-2-1.4H30c-0.5,0-0.9,0-1.4,0.1
	c0.1,0.3,0.2,1,0.3,1.5c0.3-0.3,0.8-0.4,1.2-0.4c1.4,0,2.6,1.9,2.6,4.2c0,0.9-0.2,1.9-0.6,2.7c0.1,0,0.3,0.2,0.5,0.1
	C33.3,20.8,33.2,20.4,33.2,20.2z"/>
<path style="fill:#64946E;" d="M18.8,28.9c0.2,0,0.3,0,0.5,0.1c0.1,0.1,0.3,0.2,0.4,0.3c0.1,0.1,0.2,0.3,0.2,0.5s0,0.4-0.2,0.5
	c-0.1-0.1-0.1-0.3-0.2-0.4l-0.2-0.3L19,29.3C18.9,29,18.8,29,18.8,28.9z"/>
<path style="fill:#64946E;" d="M18.5,29.6h0.4c0.1,0.1,0.2,0.1,0.3,0.2c0.2,0.2,0.2,0.5,0,0.7l0,0L19,30.4l-0.1-0.2
	c0-0.1-0.1-0.1-0.1-0.2C18.6,29.8,18.5,29.8,18.5,29.6z"/>
<path style="fill:#64946E;" d="M15.3,30.2c0,0.1,0.1,0.3,0.1,0.4l0.1,0.1H16l2.6-0.1c0.2-0.1,0.5-0.2,0.6-0.4
	c0.2-0.7,0.4-0.6,0.6-0.6c0,0.3-0.1,0.6-0.3,0.9c-0.2,0.3-0.5,0.5-0.8,0.6c-0.9,0.1-1.8,0.1-2.7,0.1h-0.5c-0.1,0-0.2-0.1-0.3-0.2
	s-0.1-0.2-0.1-0.3S15.2,30.4,15.3,30.2z"/>
<path style="fill:#64946E;" d="M36.5,28.5c-0.2,0-0.3,0-0.5,0.1c-0.1,0.1-0.3,0.2-0.4,0.3c-0.1,0.1-0.2,0.3-0.2,0.5s0,0.4,0.2,0.5
	c0.1-0.1,0.1-0.3,0.2-0.4l0.2-0.3l0.2-0.3C36.4,28.9,36.4,28.6,36.5,28.5z"/>
<path style="fill:#64946E;" d="M36.8,29.5h-0.4c-0.1,0.1-0.2,0.1-0.3,0.2c-0.2,0.2-0.2,0.5,0,0.7l0,0l0.2-0.2l0.2-0.2l0.2-0.2
	C36.7,29.6,36.8,29.5,36.8,29.5z"/>
<path style="fill:#64946E;" d="M37.8,30c0,0.1-0.1,0.3-0.1,0.4l-0.1,0.1h-0.5c-0.1,0-0.2-0.1-0.4-0.1c-0.3-0.1-0.5-0.2-0.7-0.4
	c-0.2-0.7-0.4-0.6-0.6-0.6c0,0.3,0.1,0.6,0.3,0.9s0.5,0.5,0.8,0.6C36.7,31,36.8,31,37,31h0.5c0.1,0,0.2-0.1,0.3-0.2s0.1-0.2,0.1-0.3
	C37.9,30.3,37.9,30.1,37.8,30z"/>
<path style="fill:#64946E;" d="M26.4,30.4c0.2-0.1,0.4-0.3,0.4-0.5s0.1-1.3,0.1-1.6c-2-0.4-3.4,0.3-3.5-0.3v0.8
	C24,29.8,25.2,30.5,26.4,30.4z"/>
<path style="fill:#FFFFFF;" d="M27,30c0.1,0,0.1-0.1,0.2-0.3c0.1-0.8,0.1-1.6,0.1-2.4c-1.5-0.1-2.9-0.9-3.8-2.1
	c-0.2,0.9-0.2,1.8-0.1,2.7C23.5,28.5,26,30.1,27,30z"/>
<path style="fill:#64946E;" d="M25.1,22.5l0.1,0.3c0,0,1.8-0.1,1.9-2.5C26.8,21,26.3,22.2,25.1,22.5z"/>
<path style="fill:#64946E;" d="M28,21c0.4,0.9,1.2,1.4,2.2,1.4C29.8,22.6,28.5,23.2,28,21z"/>
<path style="fill:#64946E;" d="M24.2,12c0,0,1.1-0.3,1.6,0.2c0.8-0.7,2-0.8,2.9-0.2l1.4-0.3v0.5c-0.5,0-1.1,0.1-1.6,0.2
	c-0.7-0.7-1.8-0.8-2.5-0.1l-0.1,0.1l-0.1,0.1C25.3,12.2,24.8,12,24.2,12z"/>
<path style="fill:#64946E;" d="M28,7.9c-0.1-0.1,0.4-0.1,0.5,0.1c0.7,0.9,1.1,1.9,1.2,3c0.1,0.3,0.1,0.5,0.1,0.8
	c0,0.1-0.5,0.1-0.6-0.8C29.1,9.9,28.7,8.9,28,7.9z"/>
<path style="fill:#7FB38B;" d="M26.3,12.8c0.9-0.3,1.9,0.2,2.2,1.1c0.1,0.2,0.1,0.4,0.1,0.6c0.3-0.2,0.5-0.4,0.8-0.5
	c-0.3-0.6-0.3-1.1-1.3-1.5S26.6,12,26.3,12.8z"/>
<path style="fill:#AFD3B2;" d="M22.4,15c0,0.2,0,0.9,0.2,0.7c0.3-0.6,0.7-1.1,1.1-1.5c0.3-0.2,0.4-0.5,0.3-0.8
	C23.9,13.2,22.7,13.4,22.4,15z"/>
<path style="fill:#AFD3B2;" d="M21.9,21.5c0-0.2-0.4-0.5-0.6-0.3c-0.5,0.6-0.7,1.5-0.4,2.3c0.4,1.1,0.7,0.8,0.8,0.8
	c0.2-0.1,0.3-0.3,0.2-0.5l0,0c-0.2-0.5-0.3-1-0.2-1.5C21.7,21.6,21.9,21.6,21.9,21.5z"/>
<path style="fill:#AFD3B2;" d="M23.7,25l0.9-1.8c0.1-0.1,0.2-0.1,0.4,0.1s1.2,1.3,1.8,1.4c0.5,0.1,0.9,0,1.4-0.1
	c0.2-0.1,0.6,0.1,0.8,0.5s0.5,0.9,0.6,1.1s-0.1,0.5-0.7,0.6s-2.6,1.1-5-1.4C23.7,25.2,23.6,25.1,23.7,25z"/>
<path style="fill:#64946E;" d="M26.9,37.7c-0.2,0.1-0.2,0.3,0,0.3c1.2,0.2,2.5,0.3,3.7,0.2c0.7-0.2,3.1-0.5,3.3,0.2s1.4,2.3,0.7,4.5
	s-1.5,2.7-1.4,3s0.9,0.4,1.7-0.3c1.2-0.9,2.1-2.3,2.3-3.8c0.1-1.4-0.1-2.7-0.6-4c0-0.1,0.4-0.4,0.5-0.2L37,37.2
	c-0.8-0.1-1.5-0.5-1.9-1.2c-0.7-1.2,0.1-3.4,0.3-3.6c-0.1-0.5-0.3-1-0.5-1.5c-0.1-0.2-0.1-0.4-0.2-0.6c-0.1-0.4-0.2-0.7-0.3-1.1
	c0-0.4-0.5-1.5-0.5-1.7s-0.3-1.9-0.3-2v-1.4c-0.3,0.5-1,0.7-1.5,0.4c0.1,1.6,1,7.3,0.5,9.9c-0.6,2.4-2.9,3.8-5.3,3.3
	C27.2,37.8,27.1,37.7,26.9,37.7z"/>
<path style="fill:#AFD3B2;" d="M25.2,35.8c0.3,0.1,0.8,0.3,0.9,0.2s0.4-0.6,0.3-0.8s-0.8-0.3-1.3-0.7c-0.8-0.5-1.4-1.2-1.7-2.1
	C23.2,31.2,23,30.1,23,29v-1.6c0-0.1-0.4-0.2-0.5,0.1s-0.5,3.8,0.1,5.2C23.1,33.9,24,35,25.2,35.8z"/>
<path style="fill:#AFD3B2;" d="M21.2,35.8c-0.2,0.5-2.2,5.5,0,7.6c1.3,1.4,3.2,2.1,5.1,1.8c0.4-0.2,0.6-0.6,0.6-1
	c-0.4-1.7-0.7-3.4-0.9-5.1c0.1-0.9,0.6-1.3-0.3-1.6c-1.3-0.4-2.6-1-3.9-1.6C21.5,35.5,21.4,35.5,21.2,35.8z"/>
<path style="fill:#9DCAA2;" d="M36,29c-0.1,0.2-0.5,0.4-0.2,0.7s0.1,0.3,0.3,0s0.4-0.6,0.7-0.8c0.2-0.2,0.1-0.3-0.1-0.3S36,29,36,29
	z"/>
<path style="fill:#9DCAA2;" d="M37.2,29c-0.3-0.2-0.9,0.9-0.9,1.1s-0.2,0.2,0.2,0.5c0.3,0.2,0.7,0.3,1,0.2c0.2-0.1,0.3-0.1,0.2-0.3
	s-0.3-0.2-0.5-0.1s-0.5-0.1-0.4-0.2c0.1-0.2,0.2-0.4,0.4-0.6C37.2,29.2,37.5,29,37.2,29z"/>
<path style="fill:#9DCAA2;" d="M35.8,29c0.1,0.2,0.3-0.2,0.5-0.3l0.3-0.3c0,0-0.1-0.3-0.3,0.1S35.7,29,35.8,29z"/>
<path style="fill:#AFD3B2;" d="M15.9,28.4c0,0,0.3,0.3-0.4,0.7s-2.3,1.2-2.5,2.6c-0.2,0.7-0.2,1.4,0,2.1c0.1,0.3-0.5,0-0.6-0.8
	c-0.2-1.4,0.2-2.9,1.2-4C14.3,28.6,15.1,28.3,15.9,28.4z"/>
<path style="fill:#7FB38B;" d="M24.9,17.1c0,0-1.1-0.1-1.5,1.7s0.3,3,1.1,3.1s1.5,0,1.9-1.5s0.1-2.4-0.5-2.9
	C25.7,17.2,25.3,17.1,24.9,17.1z"/>
<path style="fill:#7FB38B;" d="M29.7,17c0,0-1-0.1-1.3,1.4s-0.1,2.8,0.6,3.1c0.6,0.4,1.4,0.3,1.9-0.3c0,0,0,0,0-0.1s0-0.1,0.1-0.1
	c0.4-0.9,0.6-2,0.4-3C31.2,17.3,30.4,16.9,29.7,17z"/>
<path style="fill:#0F1C35;" d="M25,17.5c0,0-0.8-0.2-1.2,1s-0.2,2.6,0.3,2.9c0.4,0.3,1,0.3,1.4,0c0.6-0.7,0.8-1.6,0.7-2.5
	C26.1,17.6,25.5,17.5,25,17.5z"/>
<path style="fill:#0F1C35;" d="M30.1,17.4c0,0-0.8-0.2-1.2,0.8c-0.3,0.7-0.4,1.5-0.3,2.3c0.1,0.5,0.6,1.1,1.2,1
	c0.7-0.1,1.2-0.6,1.2-1.3c0.1-0.8,0.3-2-0.4-2.5C30.6,17.5,30.4,17.5,30.1,17.4z"/>
<circle style="fill:#FFFFFF;" cx="25.7" cy="18.5" r="0.5"/>
<circle style="fill:#FFFFFF;" cx="30.7" cy="18.2" r="0.5"/>
<circle style="fill:#FFFFFF;" cx="25" cy="19" r="0.2"/>
<circle style="fill:#FFFFFF;" cx="30.1" cy="18.9" r="0.2"/>
<path style="fill:#FFFFFF;" d="M24,20.2c-0.1-0.1-0.2,0-0.3,0.1l0,0c-0.1,0.2-0.3,0.6-0.2,0.7s0.4,0,0.5-0.5S24,20.2,24,20.2z"/>
<path style="fill:#FFFFFF;" d="M29,20.1c-0.1-0.1-0.2,0-0.3,0.1l0,0c-0.1,0.2-0.3,0.6-0.2,0.7s0.4,0,0.5-0.5S29,20.1,29,20.1z"/>
<path style="fill:#7FB38B;" d="M20.8,30.5c0.2-0.1,0.3-0.1,0.4-0.2l0.3-0.3c0.1-0.2,0.1-0.3,0.2-0.5s0.1-0.3,0.2-0.5
	s0.2-0.3,0.2-0.5s0.2-0.3,0.4-0.3c0.3-0.1,0.7-0.2,1-0.2l-0.9,0.3l-0.3,0.3c-0.1,0.1-0.2,0.2-0.2,0.4c-0.1,0.3-0.2,0.6-0.4,0.9
	C21.5,30.3,21.2,30.5,20.8,30.5z"/>
<path style="fill:#7FB38B;" d="M20.4,33.2c0.2,0,0.3-0.1,0.5-0.2s0.3-0.1,0.5-0.2l0.1-0.1v-0.1l0.1-0.2c0.1-0.2,0.1-0.3,0.2-0.5
	s0.2-0.3,0.3-0.5l0.2-0.2l0.2-0.2c0.2-0.1,0.3-0.2,0.5-0.3c0.2-0.1,0.3-0.1,0.5,0h-0.3c-0.1,0-0.2,0-0.2,0.1
	c-0.2,0.1-0.3,0.2-0.4,0.3l-0.2,0.2l-0.2,0.2c-0.1,0.2-0.2,0.3-0.3,0.5c-0.1,0.2-0.1,0.3-0.2,0.5l-0.1,0.2c0,0.1,0,0.1-0.1,0.1
	l-0.1,0.1C21.1,33.1,20.8,33.2,20.4,33.2z"/>
<path style="fill:#7FB38B;" d="M23.9,31.6c-0.2,0-0.4,0-0.6,0.1S23,32,22.9,32.2s-0.1,0.4-0.1,0.6v0.6c0,0.2,0.1,0.4,0.2,0.5
	s0.2,0.1,0.2,0.2s0.1,0.2,0.2,0.3s0.1,0.2,0.1,0.3V35c0,0.2-0.1,0.4-0.2,0.6c-0.2,0.4-0.4,0.7-0.6,1.1s-0.5,0.7-0.7,1
	s-0.4,0.7-0.5,1.1c-0.1,0.4-0.2,0.8-0.2,1.2s0.1,0.8,0.2,1.2s0.2,0.8,0.4,1.2s0.3,0.8,0.4,1.2s0.3,0.7,0.5,1.1
	c0.4,0.7,1,1.4,1.6,1.9s1.3,1,2,1.4c-0.7-0.4-1.4-0.9-2.1-1.4s-1.2-1.2-1.6-1.9s-0.7-1.5-1-2.3s-0.5-1.6-0.6-2.4
	c0-0.4,0.1-0.8,0.2-1.2s0.3-0.8,0.6-1.2c0.5-0.7,0.9-1.4,1.3-2.1c0.1-0.2,0.1-0.4,0.2-0.6c0-0.2,0-0.4-0.1-0.6
	c0-0.1-0.1-0.2-0.1-0.3s-0.1-0.2-0.2-0.2s-0.1-0.2-0.2-0.3s-0.1-0.2-0.1-0.3v-0.6c0-0.2,0-0.4,0.1-0.6c0.1-0.2,0.2-0.4,0.4-0.5
	C23.4,31.6,23.7,31.6,23.9,31.6z"/>
<path style="fill:#7FB38B;" d="M25,33.5c-0.2,0.1-0.3,0.2-0.4,0.3s-0.2,0.3-0.2,0.5v0.5c0,0.2,0.1,0.3,0.1,0.5s0.1,0.3,0.2,0.5
	s0.1,0.2,0.1,0.3v0.3c0,0.4-0.1,0.7-0.1,1.1c-0.1,0.7-0.2,1.4-0.2,2.1v1.1c0,0.4,0.1,0.7,0.2,1.1c0.2,1.4,0.8,2.7,1.6,3.9
	c0.4,0.6,0.9,1.1,1.5,1.5c0.3,0.2,0.5,0.5,0.8,0.7c0.1,0.1,0.3,0.2,0.4,0.3l0.2,0.1c0.1,0,0.2,0.1,0.3,0h-0.3L29,48.2
	c-0.2-0.1-0.3-0.2-0.5-0.3c-0.3-0.2-0.6-0.4-0.9-0.7c-0.6-0.5-1.1-1-1.5-1.6s-0.8-1.2-1-1.9c-0.3-0.7-0.5-1.4-0.6-2.1
	c-0.1-0.4-0.1-0.7-0.1-1.1v-1.1l0.3-2.1c0-0.4,0.1-0.7,0.1-1.1c0-0.4-0.1-0.7-0.3-1c-0.1-0.2-0.1-0.3-0.1-0.5v-0.5
	C24.4,33.9,24.7,33.6,25,33.5z"/>
<path style="fill:#7FB38B;" d="M28.3,34c-0.1,0.1-0.1,0.1-0.1,0.2s-0.1,0.1-0.1,0.2c0,0.2-0.1,0.3-0.1,0.5v0.5
	c0,0.2,0.1,0.3,0.1,0.4c0.1,0.3,0.2,0.6,0.3,0.9c0,0.2,0.1,0.3,0.1,0.5v0.5c0.1,1.2,0.3,2.5,0.5,3.7l0.3,1.8l0.3,0.9l0.3,0.9
	c0.4,1.2,0.7,2.4,1,3.6l-1.1-3.5l-0.3-0.9l-0.3-0.9c-0.1-0.6-0.2-1.2-0.4-1.8c-0.2-1.2-0.3-2.5-0.5-3.7c0-0.6-0.2-1.2-0.4-1.8
	c0-0.2-0.1-0.3-0.1-0.5V35c0-0.2,0-0.3,0.1-0.5c0-0.1,0.1-0.1,0.1-0.2C28.2,34.2,28.2,34,28.3,34z"/>
<path style="fill:#64946E;" d="M30.4,33.3c0.3,0,0.7,0.1,0.9,0.4c0.2,0.3,0.3,0.7,0.2,1c0,0.2,0,0.3-0.1,0.5l-0.1,0.2v0.2
	c0.1,0.3,0.3,0.6,0.4,0.9l0.5,0.8c0.1,0.1,0.2,0.2,0.2,0.4c0,0.1,0.2,0.3,0.2,0.5c0.3,0.6,0.5,1.2,0.7,1.8s0.4,1.2,0.6,1.9
	c0,0.2,0.1,0.3,0.1,0.5s0,0.3,0.1,0.5v1c0,0.6-0.1,1.3-0.2,1.9c-0.2,0.6-0.5,1.2-0.8,1.8c0.6-1.2,0.9-2.5,0.9-3.8c0-0.3,0-0.7-0.1-1
	c0-0.2,0-0.3-0.1-0.5s-0.1-0.3-0.1-0.5L33.1,40c-0.2-0.6-0.4-1.2-0.7-1.8c-0.1-0.2-0.1-0.3-0.2-0.4c-0.1-0.1-0.2-0.2-0.2-0.4
	c-0.1-0.3-0.3-0.6-0.5-0.9c-0.2-0.3-0.3-0.6-0.4-0.9v-0.2l0.1-0.2c0.1-0.2,0.1-0.3,0.1-0.5c0-0.3,0-0.6-0.2-0.9
	C31,33.5,30.7,33.2,30.4,33.3z"/>
<path style="fill:#7FB38B;" d="M31.4,32c0.2-0.1,0.4-0.1,0.6-0.1c0.1,0,0.2,0.1,0.3,0.1s0.2,0.2,0.2,0.3s0.1,0.4,0.2,0.6
	c0.1,0.2,0.2,0.3,0.4,0.4c0.2,0.1,0.3,0.2,0.5,0.3l0.6,0.3c0.4,0.2,0.7,0.5,0.9,0.8c-0.1-0.2-0.3-0.3-0.5-0.4
	c-0.2-0.1-0.3-0.2-0.5-0.3s-0.4-0.2-0.6-0.2l-0.6-0.3c-0.2-0.1-0.3-0.3-0.4-0.5c-0.1-0.2-0.1-0.4-0.2-0.6c0-0.1-0.1-0.2-0.2-0.2
	C32,32.1,31.9,32,31.8,32C31.8,32,31.6,32,31.4,32z"/>
<path style="fill:#7FB38B;" d="M32.1,30.4c0-0.1,0.1-0.3,0.2-0.3h0.2l0.2,0.1c0.1,0,0.2,0.2,0.3,0.2h0.1l0.2-0.1
	c0.2-0.1,0.5-0.2,0.7-0.3c0.3,0,0.5,0,0.7,0.2c-0.2-0.1-0.5-0.1-0.7,0s-0.5,0.1-0.7,0.2l-0.2,0.1c-0.1,0-0.1,0.1-0.2,0
	s-0.1-0.1-0.2-0.1l-0.2-0.1c-0.1-0.1-0.2-0.1-0.3-0.1C32.2,30.1,32.1,30.2,32.1,30.4z"/>
<path style="fill:#7FB38B;" d="M31.9,27.8c0.2-0.1,0.4-0.3,0.6-0.3h0.2c0.1,0,0.1,0,0.2,0.1l0.3,0.2c0.2,0.1,0.4,0.2,0.5,0.4
	l0.6,0.3c-0.2,0-0.4-0.1-0.6-0.2L33.1,28l-0.3-0.2c-0.1,0-0.1,0-0.1-0.1h-0.1C32.4,27.6,32.1,27.7,31.9,27.8z"/>
<path style="fill:#7FB38B;" d="M24.9,22.5c-0.1,0.6-0.2,1.3-0.3,1.9v0.7c0,0.1,0,0.1,0.1,0.2l0.3,0.9c-0.1-0.3-0.3-0.6-0.4-0.9
	c0-0.1-0.1-0.1-0.1-0.2v-0.7c0-0.3,0.1-0.7,0.2-1C24.7,23.1,24.8,22.8,24.9,22.5z"/>
<path style="fill:#7FB38B;" d="M26.7,22.8c0,0.4,0,0.7-0.1,1.1s-0.1,0.7-0.1,1.1s-0.1,0.7-0.2,1.1v0.6c0,0.2,0.1,0.3,0.1,0.5
	c-0.1-0.1-0.2-0.3-0.2-0.5v-0.6c0-0.4,0.1-0.7,0.1-1.1s0.1-0.7,0.2-1.1S26.6,23.1,26.7,22.8z"/>
<path style="fill:#7FB38B;" d="M28.6,25.2c0.1,0.2,0.1,0.3,0.2,0.5s0.1,0.3,0.1,0.5v0.1c0-0.2-0.1-0.3-0.1-0.5s-0.1-0.3-0.2-0.5
	l-0.1-0.2c0-0.1,0-0.1-0.1-0.2c-0.1-0.3-0.2-0.7-0.2-1c-0.2-0.3-0.2-0.7-0.2-1l0.2,1c0.1,0.3,0.1,0.7,0.2,1"/>
<path style="fill:#7FB38B;" d="M30.2,22.2c0,0.1,0,0.3,0.1,0.4c0,0.1,0.1,0.2,0.1,0.3s0.1,0.2,0.1,0.3s0.1,0.2,0.2,0.3
	s0.3,0.4,0.4,0.6s0.2,0.5,0.2,0.7L31,24.2l-0.4-0.6c-0.1-0.1-0.1-0.2-0.2-0.3s-0.1-0.2-0.1-0.4C30.2,22.7,30.2,22.5,30.2,22.2z"/>
<path style="fill:#7FB38B;" d="M27.4,11.9v2.5c0,0.2,0,0.3,0.1,0.5c0,0.2,0.1,0.3,0.1,0.5s0.1,0.3,0.1,0.5c-0.2-0.3-0.3-0.6-0.4-1
	c0-0.2-0.1-0.3-0.1-0.5v-0.5c0-0.3,0-0.7,0.1-1C27.4,12.6,27.3,12.2,27.4,11.9z"/>
<path style="fill:#64946E;" d="M29,12.4c0.1,0.2,0.2,0.3,0.3,0.5c0.1,0.2,0.2,0.3,0.3,0.5s0.2,0.3,0.2,0.5c0.1,0.2,0.1,0.3,0.1,0.5
	c-0.1-0.2-0.2-0.3-0.2-0.5l-0.2-0.5c-0.1-0.2-0.2-0.3-0.2-0.5C29.1,12.8,29,12.6,29,12.4z"/>
<path style="fill:#64946E;" d="M29.9,12.4l0.6,0.9c0.2,0.3,0.2,0.7,0.2,1.1c-0.1-0.4-0.2-0.7-0.4-1l-0.2-0.5
	C30,12.8,30,12.6,29.9,12.4z"/>
<path style="fill:#7FB38B;" d="M21.3,27.1l0.3-0.6c0.1-0.2,0.3-0.4,0.5-0.6s0.4-0.3,0.6-0.4h0.4c0.1,0,0.2,0.1,0.3,0.1
	c-0.2-0.1-0.5-0.1-0.7,0s-0.4,0.2-0.6,0.4l-0.5,0.5C21.6,26.8,21.5,27,21.3,27.1z"/>
<path style="fill:#64946E;" d="M35.3,32.5c0,0-0.2,0.9-0.3,1.3c0.2,0.2,0.5,0.1,0.7,0c0.4-0.6,1.1-1,1.8-1c0.4,0.2,0.4,0.4,0.6,0.5
	s0.5-0.4,0.5-0.5c-0.1-0.6-0.7-1-1.3-0.9C36.6,31.8,35.9,32,35.3,32.5z"/>
<path style="fill:#FFFFFF;" d="M27.6,27.5v2.3c0,0.2,0.2,0.3,0.3,0.3c1.7,0,3.3-1.2,3.8-2.8c-0.1-0.8-0.2-1.6-0.3-2.4
	C30.6,26.2,29.2,27.2,27.6,27.5z"/>
</svg>
