<svg id="Слой_1" data-name="Слой 1" xmlns="http://www.w3.org/2000/svg" viewBox="0 0 90 90">
  <defs>

  </defs>
  <path style="fill:#23599a;opacity:0.2;" d="M82.76 45.12A37.88 37.88 0 1 1 44.88 7.24a37.88 37.88 0 0 1 37.88 37.88zm0 0"/>
  <path style="fill:#23599a;" d="M76 45.12A31.12 31.12 0 1 1 44.88 14 31.12 31.12 0 0 1 76 45.12zm0 0"/>
  <path style="fill:#fff;" d="M52.7 46.34h-5.55v20.34h-8.41V46.34h-4v-7.15h4v-4.63c0-3.31 1.57-8.49 8.49-8.49h6.23V33h-4.53a1.71 1.71 0 0 0-1.78 2v4.2h6.29zm0 0"/>
</svg>
