<svg id="background" xmlns="http://www.w3.org/2000/svg" viewBox="0 0 38.27 25.97">
 
  <path style="fill:#fff;" d="M29.91 11.08c13.6-.34.73-13.65-6-4.84 1.09-9-10.18-7.66-8 0-1.76-1.81-8.4-7.75-11.16-3.6C2.51 6 7.43 8.62 10.25 9c-3.81-.2-12.3.62-9.79 5.52 2 3.93 11.3 1 14.07.48l-2.64.66c-10.84 6.63 0 13.64 7.76 4.69 3.68 9.88 14.77 5 7-2.11 4.13 1.35 8.36 2.7 11.56 0 .56-5.77-2.66-7.35-8.3-7.16z"/>
  <path style="fill:#ffce00;" d="M22 5.57c-4.82-1.28-13.54 5.25-7.28 8.38l7.93 2c8.66.9 4.66-8.95-.65-10.38z"/>
</svg>
