<?xml version="1.0" encoding="utf-8"?>
<!-- Generator: Adobe Illustrator 22.0.0, SVG Export Plug-In . SVG Version: 6.00 Build 0)  -->
<svg version="1.1" id="Слой_1" xmlns="http://www.w3.org/2000/svg" xmlns:xlink="http://www.w3.org/1999/xlink" x="0px" y="0px"
	 viewBox="0 0 154 154" style="enable-background:new 0 0 154 154;" xml:space="preserve">
<title>Вверх</title>
<path d="M154,77c0-42.5-34.5-77-77-77S0,34.5,0,77s34.5,77,77,77S154,119.5,154,77z M45.7,90.4c-1,1-2.6,1-3.6,0c-1-1-1-2.6,0-3.6
	c0,0,0,0,0,0l33.1-33.2c1-1,2.6-1,3.6,0c0,0,0,0,0,0l33.1,33.2c1,1,1,2.6,0,3.6s-2.6,1-3.6,0L77,59L45.7,90.4z"/>
</svg>
