<svg id="Слой_1" data-name="Слой 1" xmlns="http://www.w3.org/2000/svg" viewBox="0 0 90 90">
  <defs>
   
    <linearGradient id="grad2" x1="22.79" y1="67.55" x2="66.8" y2="23.53" gradientUnits="userSpaceOnUse">
      <stop offset="0" stop-color="#d500e9"/>
      <stop offset="1" stop-color="#f7931e"/>
    </linearGradient>
  </defs>
  <path style="fill:#23599a;opacity:0.2;" d="M82.67 45.54A37.88 37.88 0 1 1 44.79 7.66a37.88 37.88 0 0 1 37.88 37.88zm0 0"/>
  <path style="fill:url(#grad2);" d="M75.92 45.54a31.12 31.12 0 1 1-31.13-31.12 31.12 31.12 0 0 1 31.13 31.12zm0 0"/>
  <path style="fill:#fff;" d="M53 27.16H36.56a10.15 10.15 0 0 0-10.14 10.15v16.46a10.15 10.15 0 0 0 10.14 10.14H53a10.15 10.15 0 0 0 10.17-10.14V37.31A10.15 10.15 0 0 0 53 27.16zm6.88 26.61A6.89 6.89 0 0 1 53 60.65H36.56a6.89 6.89 0 0 1-6.88-6.88V37.31a6.89 6.89 0 0 1 6.88-6.88H53a6.89 6.89 0 0 1 6.88 6.88zm0 0"/>
  <path style="fill:#fff;" d="M44.79 36.07a9.47 9.47 0 1 0 9.47 9.47 9.48 9.48 0 0 0-9.47-9.47zm0 15.68A6.21 6.21 0 1 1 51 45.54a6.22 6.22 0 0 1-6.21 6.21zm9.87-18.44a2.39 2.39 0 1 0 1.69.7 2.4 2.4 0 0 0-1.69-.7zm0 0"/>
</svg>
