<?xml version="1.0" encoding="utf-8"?>
<!-- Generator: Adobe Illustrator 22.0.0, SVG Export Plug-In . SVG Version: 6.00 Build 0)  -->
<svg version="1.1" id="Space" xmlns="http://www.w3.org/2000/svg" xmlns:xlink="http://www.w3.org/1999/xlink" x="0px" y="0px"
	 viewBox="0 0 126.6 126.1" style="enable-background:new 0 0 126.6 126.1;" xml:space="preserve">
<title>луна</title>
<g id="Moon">
	<circle style="fill:#D1F4FF;" cx="63.5" cy="63.1" r="63.1"/>
	<path style="opacity:0.1;enable-background:new    ;" d="M83,3.1c21.8,27.2,17.4,66.9-9.9,88.7C56.6,105,34.5,109,14.4,102.5
		c21.8,27.2,61.5,31.6,88.7,9.8s31.6-61.5,9.8-88.7C105.1,14,94.7,6.9,83,3.1z"/>
	<circle style="fill:#A6CDDD;" cx="68.1" cy="54.5" r="12"/>
	<g style="opacity:0.1;">
		<path d="M71,45.6c2.5,0,5,0.8,7,2.3c-3.5-5.6-11-7.3-16.6-3.7s-7.3,11-3.7,16.6c0.9,1.4,2,2.5,3.3,3.4c-3.6-5.6-2-13,3.5-16.6
			C66.4,46.3,68.7,45.6,71,45.6z"/>
	</g>
	<circle style="fill:#A6CDDD;" cx="96.8" cy="34.3" r="8.2"/>
	<g style="opacity:0.1;">
		<path d="M98.8,28.3c1.7,0,3.4,0.5,4.8,1.6c-2.5-3.8-7.5-4.8-11.3-2.3s-4.8,7.5-2.3,11.3c0.5,0.8,1.2,1.5,2,2.1
			c-2.5-3.8-1.4-8.8,2.3-11.3C95.7,28.8,97.2,28.3,98.8,28.3z"/>
	</g>
	<circle style="fill:#A6CDDD;" cx="72.7" cy="12" r="5.3"/>
	<g style="opacity:0.1;">
		<path d="M74,8c1.1,0,2.2,0.3,3.1,1c-1.6-2.5-4.9-3.1-7.3-1.5s-3.1,4.9-1.5,7.3c0.4,0.5,0.8,1,1.3,1.4c-1.6-2.5-0.9-5.7,1.5-7.3
			C72,8.3,73,8,74,8z"/>
	</g>
	<circle style="fill:#A6CDDD;" cx="25.6" cy="72.7" r="8.2"/>
	<g style="opacity:0.1;">
		<path d="M27.7,66.6c1.7,0,3.4,0.5,4.8,1.6c-2.5-3.8-7.5-4.8-11.3-2.3s-4.8,7.5-2.3,11.3c0.5,0.8,1.2,1.5,2,2.1
			c-2.5-3.8-1.4-8.8,2.3-11.3C24.5,67.1,26.1,66.6,27.7,66.6z"/>
	</g>
	<circle style="fill:#A6CDDD;" cx="54.2" cy="92.7" r="8.2"/>
	<g style="opacity:0.1;">
		<path d="M56.2,86.6c1.7,0,3.4,0.5,4.8,1.6c-2.5-3.8-7.5-4.8-11.3-2.4s-4.8,7.5-2.4,11.3c0.6,0.8,1.3,1.6,2.1,2.2
			c-2.5-3.8-1.4-8.8,2.3-11.3C53.1,87.1,54.6,86.6,56.2,86.6z"/>
	</g>
	<circle style="fill:#A6CDDD;" cx="92.8" cy="98.1" r="8.2"/>
	<g style="opacity:0.1;">
		<path d="M94.8,92c1.7,0,3.4,0.5,4.8,1.6c-2.5-3.7-7.6-4.7-11.3-2.2s-4.7,7.6-2.2,11.3c0.5,0.8,1.2,1.5,1.9,2
			c-2.5-3.8-1.5-8.8,2.3-11.3C91.6,92.5,93.2,92,94.8,92z"/>
	</g>
	<circle style="fill:#A6CDDD;" cx="108.6" cy="63.9" r="4.7"/>
	<g style="opacity:0.1;">
		<path d="M109.7,60.5c1,0,2,0.3,2.8,0.9c-1.4-2.1-4.3-2.7-6.5-1.3s-2.7,4.3-1.3,6.5c0.3,0.5,0.7,0.9,1.1,1.2
			c-1.4-2.2-0.8-5,1.3-6.5C107.9,60.7,108.8,60.5,109.7,60.5z"/>
	</g>
	<circle style="fill:#A6CDDD;" cx="38.5" cy="26.2" r="4.7"/>
	<g style="opacity:0.1;">
		<path d="M39.7,22.7c1,0,2,0.3,2.8,0.9c-1.5-2.1-4.4-2.6-6.5-1.1s-2.6,4.4-1.1,6.5c0.3,0.4,0.6,0.7,1,1c-1.4-2.2-0.8-5,1.3-6.5
			C37.8,23,38.7,22.8,39.7,22.7L39.7,22.7z"/>
	</g>
	<circle style="fill:#A6CDDD;" cx="13" cy="39.5" r="2.5"/>
	<g style="opacity:0.1;">
		<path d="M13.6,37.7c0.5,0,1,0.2,1.4,0.5c-0.7-1.1-2.3-1.4-3.4-0.7c-1.1,0.7-1.4,2.3-0.7,3.4c0.2,0.2,0.4,0.5,0.6,0.6
			c-0.7-1.1-0.4-2.6,0.7-3.4C12.6,37.8,13.1,37.7,13.6,37.7L13.6,37.7z"/>
	</g>
	<circle style="fill:#A6CDDD;" cx="120.8" cy="78.4" r="2.4"/>
	<g style="opacity:0.1;">
		<path d="M121.4,76.6c0.5,0,1,0.2,1.4,0.5c-0.7-1.1-2.3-1.4-3.4-0.7c-1.1,0.7-1.4,2.3-0.7,3.4c0.2,0.2,0.4,0.5,0.6,0.6
			c-0.7-1.1-0.4-2.6,0.7-3.4C120.4,76.7,120.9,76.6,121.4,76.6L121.4,76.6z"/>
	</g>
	<circle style="fill:#A6CDDD;" cx="118.3" cy="46.8" r="2.4"/>
	<g style="opacity:0.1;">
		<path d="M118.9,45c0.5,0,1,0.2,1.4,0.5c-0.7-1.1-2.3-1.4-3.4-0.7c-1.1,0.7-1.4,2.3-0.7,3.4c0.2,0.2,0.4,0.5,0.6,0.6
			c-0.7-1.1-0.4-2.6,0.7-3.4C118,45.1,118.4,45,118.9,45L118.9,45z"/>
	</g>
	<circle style="fill:#A6CDDD;" cx="23.2" cy="93.8" r="2.4"/>
	<g style="opacity:0.1;">
		<path d="M23.8,92c0.5,0,1,0.2,1.4,0.5c-0.7-1.1-2.3-1.4-3.4-0.7c-1.1,0.7-1.4,2.3-0.7,3.4c0.2,0.2,0.4,0.5,0.6,0.6
			c-0.7-1.1-0.4-2.6,0.7-3.4C22.8,92.1,23.3,92,23.8,92L23.8,92z"/>
	</g>
	<circle style="fill:#A6CDDD;" cx="46" cy="110.9" r="2.4"/>
	<g style="opacity:0.1;">
		<path d="M46.7,109c0.5,0,1,0.2,1.4,0.5c-0.7-1.1-2.3-1.4-3.4-0.7c-1.1,0.7-1.4,2.3-0.7,3.4c0.2,0.2,0.4,0.5,0.6,0.6
			c-0.7-1.1-0.4-2.6,0.7-3.4C45.7,109.1,46.1,109,46.7,109L46.7,109z"/>
	</g>
</g>
</svg>
