<?xml version="1.0" encoding="utf-8"?>
<!-- Generator: Adobe Illustrator 22.0.0, SVG Export Plug-In . SVG Version: 6.00 Build 0)  -->
<svg version="1.1" id="Space" xmlns="http://www.w3.org/2000/svg" xmlns:xlink="http://www.w3.org/1999/xlink" x="0px" y="0px"
	 viewBox="0 0 430.2 279.1" style="enable-background:new 0 0 430.2 279.1;" xml:space="preserve">
<title>Метеориты</title>
<g id="Comet2">
	<path style="fill:#FF8D07;" d="M319.4,0L20.6,203.4C1.2,214.4-5.7,239,5.2,258.5s35.6,26.3,55.1,15.4c4.6-2.6,8.6-6,11.9-10.2
		L319.4,0z"/>
	<path style="fill:#FFB50F;" d="M285.1,29.3L23.3,207.8c-17,9.5-23.1,31-13.6,48.1s31,23.1,48.1,13.6c4.1-2.3,7.7-5.3,10.6-9
		L285.1,29.3z"/>
	<path style="fill:#FFD66E;" d="M224.3,81.4L26.4,216.1c-12.9,7.3-17.5,23.6-10.2,36.5c7.3,12.9,23.6,17.5,36.5,10.2
		c3.1-1.7,5.7-4,7.9-6.8L224.3,81.4z"/>
	
		<ellipse transform="matrix(0.7598 -0.6501 0.6501 0.7598 -144.6279 84.057)" style="fill:#FFFFFF;" cx="41.5" cy="237.8" rx="20.5" ry="20.5"/>
</g>
<g id="Comet2-2">
	<path style="fill:#FF8D07;" d="M430.2,2.7L277.9,106.4c-9.9,5.6-13.5,18.1-7.9,28.1c5.6,9.9,18.1,13.5,28.1,7.9
		c2.4-1.3,4.4-3.1,6.1-5.2L430.2,2.7z"/>
	<path style="fill:#FFB50F;" d="M412.8,17.6l-133.5,91c-8.6,4.9-11.7,15.9-6.7,24.5c4.9,8.6,15.9,11.7,24.5,6.7
		c2-1.1,3.8-2.6,5.2-4.4L412.8,17.6z"/>
	<path style="fill:#FFD66E;" d="M381.8,44.2l-100.9,68.7c-6.6,3.7-8.9,12-5.2,18.6c3.7,6.6,12,8.9,18.6,5.2c1.6-0.9,2.9-2.1,4-3.5
		L381.8,44.2z"/>
	<circle style="fill:#FFFFFF;" cx="288.6" cy="123.9" r="10.4"/>
</g>
</svg>
