<?xml version="1.0" encoding="utf-8"?>
<!-- Generator: Adobe Illustrator 22.0.0, SVG Export Plug-In . SVG Version: 6.00 Build 0)  -->
<svg version="1.1" id="Layer_1" xmlns="http://www.w3.org/2000/svg" xmlns:xlink="http://www.w3.org/1999/xlink" x="0px" y="0px"
	 viewBox="0 0 37 89.3" style="enable-background:new 0 0 37 89.3;" xml:space="preserve">
<title>Монтажная область 1</title>
<rect x="10.8" y="56.7" style="fill:#EED942;" width="5.2" height="28.4"/>
<rect x="21.6" y="56.7" style="fill:#EED942;" width="5.2" height="28.4"/>
<rect x="16.2" y="56.7" style="fill:#C7532C;" width="5.2" height="28.4"/>
<path style="fill:#7CBA7B;" d="M15.3,57.8c-4.2,0-4.4,0-4.5-0.1c-0.3,0-0.5-0.2-0.6-0.5c-0.1-0.3,0-0.6,0.2-0.8l0.1-0.1l4.9-3.1v-5
	c-1.7-0.3-3.2-1.5-3.8-3.1c-0.6-0.2-0.9-0.8-0.7-1.4c0-0.1,0-0.1,0.1-0.2c-0.2-0.8-0.5-1.6-0.6-2.5c-0.1-0.1-0.2-0.1-0.3-0.2
	c-0.4-0.5-0.4-1.2,0-1.6c-0.1-0.7-0.2-1.3-0.3-1.9v-0.2c-0.5,0.3-1,0.4-1.5,0.4c-0.7,0.1-1.3-0.3-1.7-0.8c-1-1.5,0.5-4.5,0.5-4.7
	c0.3-1.1,0.4-2.2,0.4-3.3c-0.1-0.4-0.3-0.8-0.5-1.1c-0.1-0.1-0.2-0.3-0.3-0.5c-0.1-0.4-0.1-0.8,0.1-1.1c0.1-0.2,0.4-0.3,0.6-0.3h0.1
	v-0.2c0-0.1,0.1-0.3,0.1-0.4c0.2-0.4,0.6-0.7,1-0.8l0,0c0,0,0,0,0-0.1C8.8,24.1,9,24,9.1,23.9l0.1-0.1c0.1-0.1,0.2-0.1,0.3-0.1
	L9.6,22c0-0.3,0-1,0.1-1.9c-0.5-0.3-0.7-1-0.4-1.5c0.1-0.2,0.3-0.4,0.6-0.5c0-0.3,0.1-0.7,0.1-1L10,17c0-0.3,0.1-0.5,0.1-0.8
	s0.1-0.6,0.1-0.9c-0.4-0.4-0.5-1.1-0.1-1.5c0.1-0.1,0.3-0.3,0.5-0.3c0.1-0.4,0.2-0.7,0.3-1.1c0.3-1,0.6-1.9,0.9-2.7l0.2-0.4L12.2,9
	c0.1-0.3,0.2-0.5,0.3-0.8c-0.4-0.5-0.4-1.2,0-1.7c0.3-0.3,0.7-0.4,1.2-0.3c0.4-0.6,1-1,1.6-1.3V3c0-0.4,0.3-0.8,0.6-0.9
	C16.1,2,16.2,2,16.3,2h0.6c0.6,0,1,0.4,1,1v2.1c1.8,0.8,3.3,3,4.3,5c0.5,0.2,0.8,0.8,0.7,1.3c0,0.1,0,0.1-0.1,0.2
	c0.1,0.4,0.3,0.9,0.4,1.3c0.5,0.2,0.7,0.8,0.6,1.3c0,0.2-0.2,0.4-0.4,0.6c0.2,1.9,0.5,4.4,0.6,6.3c0.4,0.1,0.6,0.4,0.7,0.8
	c0.1,0.5-0.1,0.9-0.5,1.2l0.1,0.7c0.5,0,0.9,0.3,1.3,0.6c0.1,0.2,0.2,0.4,0.3,0.5c0.1,0,0.2,0,0.3,0.1c0.8,0.2,0.6,1.3,0.5,2l0,0
	c0,0,0,0.5,0,1c0,0.2,0,0.4,0,0.7c0,0.5,0.1,0.9,0.2,1.3c0.9,1.4,1.6,2.9,2,4.5c0.1,0.7-0.2,1.4-0.6,1.9c-0.3,0.3-0.7,0.5-1.1,0.5
	c-0.7,0-1.3-0.1-1.9-0.4c0,0.4,0,0.7,0,0.8c0.2,0.2,0.4,0.4,0.4,0.7c0.1,0.4,0,0.8-0.3,1.1c0,0.4,0,0.9,0,1.3
	c0.1,0.1,0.1,0.2,0.2,0.4c0.1,0.3,0,0.6-0.1,0.8c0,0.8,0,1.5-0.1,2c0.2,0.2,0.3,0.4,0.4,0.6c0.1,0.3,0,0.7-0.3,0.9
	c-0.1,0.2-0.3,0.3-0.5,0.4c-0.2,0.6-0.5,1.1-1,1.4c-0.6,0.3-1.2,0.6-1.9,0.9V53c1.3,0.9,4.6,3,4.9,3.3c0.3,0.2,0.4,0.5,0.4,0.9
	c-0.1,0.3-0.3,0.5-0.5,0.6h-0.1C26.7,57.7,20,57.8,15.3,57.8z"/>
<path style="fill:#FFFFFF;" d="M16.9,2.5c0.3,0,0.5,0.2,0.5,0.5v2.5c1.7,0.5,3.4,2.7,4.4,5c0.4,0.1,0.6,0.4,0.6,0.8
	c0,0.1-0.1,0.2-0.1,0.3c0.2,0.6,0.4,1.1,0.5,1.7c0.4,0.1,0.6,0.4,0.6,0.8c-0.1,0.2-0.2,0.4-0.4,0.4c0.2,2,0.5,4.8,0.7,6.9
	c0.3,0,0.6,0.2,0.7,0.5c0,0.4-0.2,0.7-0.6,0.8c0,0.4,0.1,0.8,0.1,1.1l0,0c0,0.1,0,0.2,0,0.3H24c0.4,0,0.9,0.2,1.2,0.5
	c0.2,0.2,0.3,0.5,0.3,0.8l0,0l0,0l0,0c0.1-0.1,0.2-0.1,0.3-0.1c0.1,0,0.1,0,0.2,0c0.4,0.1,0.1,1.4,0.1,1.4s0,0.5,0,1.2
	c0,0.2,0,0.5,0,0.7l0,0c0,0.6,0.1,1.1,0.3,1.6c0.8,1.3,1.5,2.7,1.9,4.2c0.1,0.9-0.5,1.9-1.2,1.9c-1,0.1-1.9-0.4-2.5-1.2
	c0.1,1.1,0.1,2,0.1,2.2c0,0,0,0.1,0,0.1c0.2,0.1,0.4,0.2,0.4,0.5c0,0.3-0.1,0.6-0.4,0.7c0,0.5,0,1.1,0.1,1.8
	c0.1,0.1,0.1,0.2,0.2,0.3c0,0.2,0,0.4-0.2,0.5c0,0.8,0,1.7-0.1,2.5c0.2,0.1,0.4,0.2,0.4,0.5c0,0.4-0.3,0.8-0.7,0.8l0,0
	c-0.1,0.5-0.4,1-0.9,1.3c-0.7,0.4-1.4,0.7-2.1,1l0,0v5.8c0,0,4.8,3.1,5,3.4c0.5,0.4,0,0.6,0,0.6s-6.7,0-11.4,0c-2.4,0-4.2,0-4.4,0
	c-0.4-0.1-0.1-0.5-0.1-0.5l5.1-3.3v-5.5l0,0c-1.7-0.2-3.1-1.3-3.8-2.9l-0.1-0.3l0,0c-0.3,0-0.6-0.3-0.6-0.6c0-0.1,0.1-0.3,0.2-0.4
	c-0.3-1-0.6-2-0.7-3c-0.2,0-0.3-0.1-0.4-0.2c-0.3-0.3-0.3-0.7,0-0.9c0.1,0,0.1-0.1,0.2-0.1v-0.1c-0.1-0.7-0.2-1.4-0.3-2.1l0,0
	c0-0.3-0.1-0.6-0.1-0.8l0,0c0-0.1,0-0.2,0-0.3C9.6,36.7,8.9,37,8.2,37c-2.6,0-1-4-0.7-4.8C7.9,31.1,8,29.9,8,28.7
	C8,28,7.3,27.3,7.2,27s0-0.8,0.3-0.8c0.1,0,0.1,0,0.2,0h0.1c0.3,0,0.3-0.8,0.4-0.9s0.4-0.5,0.6-0.5s0.3-0.3,0.6-0.4s0.3-0.2,0.4-0.2
	s0.1,0,0.2,0.2c0-0.7,0.1-1.4,0.1-2.1l0,0c0-0.1,0-1.1,0.1-2.4c-0.3,0-0.6-0.3-0.6-0.7c0-0.3,0.3-0.6,0.7-0.6l0,0
	c0-0.4,0.1-0.9,0.1-1.3l0,0V17c0-0.2,0.1-0.5,0.1-0.8s0.1-0.8,0.2-1.2c-0.3-0.1-0.5-0.4-0.4-0.7c0.1-0.2,0.3-0.4,0.5-0.4H11
	c0.1-0.5,0.3-0.9,0.4-1.4c0.3-1,0.6-1.9,0.9-2.7l0,0l0.2-0.4l0,0l0.1-0.2l0,0c0.2-0.4,0.3-0.7,0.5-1.1c-0.4-0.1-0.5-0.5-0.4-0.9
	c0.1-0.4,0.5-0.5,0.9-0.4c0.1,0,0.1,0.1,0.2,0.1c0.4-0.7,1.1-1.2,1.9-1.4h0.1V3c0-0.2,0.1-0.4,0.3-0.4l0,0h0.1L16.9,2.5 M16.9,1.6
	h-0.6c-0.1,0-0.3,0-0.4,0h-0.1c-0.6,0.2-1,0.8-1,1.4v1.7c-0.5,0.2-1,0.6-1.4,1h-0.1c-0.9,0-1.7,0.7-1.7,1.7c0,0.3,0.1,0.6,0.2,0.9
	c-0.1,0.2-0.1,0.4-0.2,0.5l-0.1,0.2l-0.2,0.4c-0.3,0.8-0.6,1.8-0.9,2.8c-0.1,0.3-0.2,0.6-0.3,0.9c-0.8,0.4-1.1,1.4-0.7,2.1
	c0,0.1,0.1,0.2,0.1,0.2c0,0.2-0.1,0.4-0.1,0.7s-0.1,0.6-0.1,0.8v0.2c0,0.3,0,0.5-0.1,0.8c-0.7,0.5-0.9,1.5-0.4,2.2
	c0.1,0.1,0.1,0.2,0.2,0.3c0,0.7-0.1,1.3-0.1,1.6v0.2l0,0c0,0.4,0,0.8-0.1,1.2l0,0H9c-0.2,0.1-0.4,0.2-0.5,0.4
	c-0.5,0.2-0.9,0.5-1.1,1c-0.1,0.1-0.1,0.2-0.1,0.4c-0.3,0.1-0.5,0.3-0.7,0.5c-0.3,0.5-0.4,1.1-0.2,1.6c0.1,0.2,0.2,0.4,0.3,0.6
	C6.8,28,7,28.3,7.1,28.6c0,1-0.1,2-0.4,3c-0.2,0.4-1.6,3.4-0.5,5.1c0.5,0.7,1.3,1.1,2.1,1c0.4,0,0.7-0.1,1.1-0.2
	c0.1,0.4,0.1,0.9,0.2,1.3c-0.2,0.3-0.3,0.6-0.3,0.9c0,0.4,0.2,0.9,0.5,1.2c0.1,0.1,0.1,0.1,0.2,0.2c0.1,0.7,0.3,1.4,0.5,2.1
	c-0.3,0.8,0,1.6,0.7,2c0.7,1.5,2.1,2.7,3.7,3.1v4.5l-4.6,3c-0.1,0-0.1,0.1-0.2,0.2c-0.3,0.4-0.4,0.8-0.3,1.3
	c0.1,0.4,0.5,0.7,0.9,0.8c1.5,0.1,3.1,0.1,4.6,0.1c4.6,0,11.3,0,11.4,0c0.1,0,0.2,0,0.3,0c0.4-0.1,0.8-0.5,0.9-0.9
	c0.1-0.5-0.1-1-0.5-1.3c-0.3-0.2-2.6-1.8-4.7-3.2v-4.6c0.6-0.2,1.1-0.5,1.6-0.8c0.5-0.3,1-0.8,1.2-1.5c0.6-0.3,1-1.1,0.9-1.8
	c-0.1-0.3-0.2-0.5-0.4-0.7c0-0.5,0.1-1.1,0.1-1.7c0.2-0.3,0.2-0.7,0.1-1c0-0.1-0.1-0.3-0.1-0.4c0-0.4,0-0.7,0-1
	c0.3-0.4,0.4-0.9,0.3-1.3c0-0.2-0.1-0.4-0.3-0.6c0.4,0.1,0.8,0.1,1.2,0.1c0.6,0,1.1-0.2,1.5-0.7c0.5-0.6,0.8-1.4,0.8-2.3
	c-0.4-1.7-1.1-3.2-2-4.7l0,0c-0.1-0.4-0.2-0.7-0.2-1.1c0-0.2,0-0.5,0-0.7c0-0.4,0-0.8,0-1c0.4-1.9-0.4-2.4-0.8-2.5h-0.1
	c-0.1-0.2-0.3-0.4-0.5-0.6c-0.3-0.4-0.7-0.6-1.2-0.7l0,0c0.4-0.4,0.6-1,0.5-1.5c-0.1-0.4-0.4-0.8-0.8-1c-0.2-1.7-0.4-4-0.6-5.8
	c0.2-0.2,0.3-0.4,0.3-0.7c0.1-0.7-0.1-1.3-0.7-1.7c-0.1-0.3-0.2-0.7-0.3-1v-0.1c0.1-0.7-0.2-1.4-0.8-1.8c-0.6-1.2-2.1-3.9-4.2-5V3
	C18.3,2.2,17.7,1.5,16.9,1.6L16.9,1.6z"/>
<path style="fill:#4A804E;" d="M14.7,25.2c0,0,0.9,2.3-0.6,3.5c1.3-0.7,2.1-2,2.2-3.4C15.8,25.2,15.2,25.1,14.7,25.2z"/>
<path style="fill:#397B46;" d="M28.5,34.5c-0.4-1.5-1-2.9-1.9-4.2c-0.5-0.7-0.4-3.5-0.4-3.5s0.3-1.3-0.1-1.4s-0.6,0.2-0.5,0
	c0-0.3-0.1-0.6-0.3-0.8c-0.3-0.3-0.7-0.5-1.2-0.5c-0.6-0.1-0.9,0.5-0.8,1.1c0.3,1.4,0.4,2.8,0.3,4.3c0,1.8,0.3,3.6,1,5.3
	c0.5,1,1.6,1.6,2.7,1.5C28,36.4,28.5,35.4,28.5,34.5z"/>
<path style="fill:#377845;" d="M16.5,2.5h0.3c0.4,0,0.6,0.3,0.6,0.6v3.6c0,0.4-0.3,0.6-0.6,0.6h-0.3c-0.4,0-0.6-0.3-0.6-0.6V3.2
	C15.9,2.8,16.1,2.5,16.5,2.5z"/>
<ellipse transform="matrix(0.2108 -0.9775 0.9775 0.2108 6.1555 29.8127)" style="fill:#528454;" cx="21.5" cy="11.1" rx="0.7" ry="0.8"/>
<ellipse transform="matrix(0.2108 -0.9775 0.9775 0.2108 4.1667 32.9483)" style="fill:#528454;" cx="22.5" cy="13.9" rx="0.7" ry="0.8"/>
<ellipse transform="matrix(0.9804 -0.1968 0.1968 0.9804 -3.8929 5.062)" style="fill:#3C7F48;" cx="23.5" cy="22.1" rx="0.8" ry="0.7"/>
<ellipse transform="matrix(0.9804 -0.1968 0.1968 0.9804 -7.0333 5.5667)" style="fill:#377845;" cx="24.5" cy="38.2" rx="0.8" ry="0.7"/>
<ellipse transform="matrix(0.9804 -0.1968 0.1968 0.9804 -7.5862 5.5923)" style="fill:#377845;" cx="24.3" cy="41" rx="0.8" ry="0.7"/>
<ellipse transform="matrix(0.9804 -0.1968 0.1968 0.9804 -8.2667 5.6901)" style="fill:#377845;" cx="24.5" cy="44.4" rx="0.8" ry="0.7"/>
<path style="fill:#528454;" d="M15.9,47.7v5.7l-5.1,3.3c0,0-0.3,0.4,0.1,0.5s15.7,0,15.7,0s0.5-0.2,0-0.6c-0.3-0.2-5-3.4-5-3.4v-6.7
	h-5.7V47.7z"/>
<path style="fill:#2F6A3B;" d="M15.3,44.4c-0.6,1.9,0.4,3.8,2.3,4.4c0.3,0.1,0.7,0.2,1,0.2c0.5,0,0.8,2.1,1,2.3c0.7,0.5,2,0,2-0.3
	s0-3.2,0-3.6c1.1-1.1,1.6-2.8,1.3-4.3L15.3,44.4z"/>
<path style="fill:#4A804E;" d="M20.9,29.7c-0.8,0.5-2.5,0.9-6.2,0.9s-4.5-5.3-4.5-5.3L24,24.7l0,0c-0.1-1.1-0.7-7.4-1.1-10.8
	s-3.4-8.6-6.2-8.6s-3.8,3.3-3.8,3.3c-1.2,2.7-2,5.5-2.4,8.4c-0.2,2.4-0.7,11.6-0.7,14.4s1,10.2,2.3,13.4S17,48,18.5,48h-0.1
	C22.7,44.7,20.9,29.7,20.9,29.7z"/>
<path style="fill:#377845;" d="M23.8,46.5c1.9-1,1.1-7.9,1.1-9S24.1,25.8,24,24.7l-13.7,0.6c0,0,0.7,5.3,4.7,5.5
	c3.6,0.2,5.1-0.5,5.9-1c0,0,1.8,14.9-2.5,18.3h0.1h0.1C20.5,47.9,22.2,47.4,23.8,46.5z"/>
<path style="fill:#367542;" d="M9.9,30.2c-0.1,0.1-1.3,5.2-1.3,5.2l2-0.7c0-0.7,0-1.4,0-2.2c-0.1-0.1,0.1-0.4,0-0.9
	c0-0.5-0.1-1.1-0.4-1.6C9.9,29.5,9.9,30.2,9.9,30.2z"/>
<path style="fill:#3C7F48;" d="M22.8,13.9c-0.4-3.4-3.4-8.6-6.2-8.6s-3.8,3.3-3.8,3.3c-0.3,0.5-0.5,1-0.7,1.6c0.9-1,2.4-4.8,3.7-4.8
	c2.1,0,4.1,4.7,4.1,12.3c0,4.8,1.8,6.5,3,7h1l0,0C23.8,23.6,23.3,17.3,22.8,13.9z"/>
<path style="fill:#377845;" d="M10.2,25.3c0-0.1-0.6-8.9,6.4-8.9s6.8,7.3,6.8,9.4s-13.3-0.5-13.3-0.5L10.2,25.3z"/>
<path style="fill:#377845;" d="M13.9,18.9c0.7-0.6,1.5-1,2.5-0.9c1.1,0,2.1,0.3,3,0.8l-1.6,5.9h-2.2L13.9,18.9z"/>
<ellipse style="fill:#4A804E;" cx="13.5" cy="23.6" rx="2.8" ry="5"/>
<ellipse style="fill:#4A804E;" cx="20" cy="23.5" rx="2.8" ry="5.2"/>
<ellipse transform="matrix(0.9988 -4.850112e-02 4.850112e-02 0.9988 -1.656 0.8776)" style="fill:#2F6A3B;" cx="17.3" cy="34.6" rx="1.3" ry="3.3"/>
<path style="fill:#4A804E;" d="M18.1,17.6c-0.1,0-1.1-0.3-1.3,0.4s-0.2,1.1,0.1,1.3s1,0.2,1.2,0.2s3.3,0,3.7,0.6
	S21.3,18.2,18.1,17.6z"/>
<path style="fill:#FFFFFF;" d="M22.8,23.6c0,2.8-1.3,5.1-2.8,5.1s-2.8-2.3-2.8-5.1s1.3-4.8,2.8-4.8S22.8,20.8,22.8,23.6z"/>
<ellipse transform="matrix(0.9988 -4.850112e-02 4.850112e-02 0.9988 -1.661 0.8887)" style="fill:#377845;" cx="17.5" cy="34.7" rx="1.1" ry="3.2"/>
<path style="fill:#528454;" d="M10.9,33.2c0-0.5-0.1-1-0.2-1.5c0,0.5,0,0.9-0.1,1.2c-0.1,1-0.4,2.3-1.4,2.3S8.8,34.3,9.4,33
	c0.5-1,0.9-2,1.1-3.1c0.1-1.1,0.2-2.2,0.2-3.4c-0.1-0.8-0.4-1.5-0.7-2.2c-0.2-0.4-0.4-0.1-0.6,0S9,24.7,8.8,24.8s-0.5,0.4-0.6,0.5
	s0,1.1-0.5,0.9S7.1,26.7,7.2,27S8,28,8,28.7c0,1.2-0.1,2.4-0.5,3.5c-0.4,0.8-2,4.8,0.7,4.8S10.9,33.7,10.9,33.2z"/>
<path style="fill:#417C49;" d="M9.2,35.2c1,0,1.3-1.4,1.4-2.3c0-0.3,0-0.7,0.1-1.2s-0.1-0.6-0.1-0.5c-0.1,1.1-0.3,2.2-0.6,3.3
	c-0.3,0.5-0.5-0.1-0.4-0.3c0.4-1.1,0.7-2.3,0.9-3.4c0-0.1,0-0.5,0.1-0.8C10.3,31,10,32,9.4,33C8.8,34.3,8.2,35.2,9.2,35.2z"/>
<path style="fill:none;" d="M24.9,37.4c0-0.3,0-1.1-0.1-2.3c-0.1-0.1-0.1-0.2-0.2-0.4c-0.7-1.7-1-3.5-1-5.3c0-1.4-0.1-2.9-0.3-4.3
	c-0.1-0.5,0.1-1.1,0.6-1.1c0-0.1,0-0.3,0-0.3l-13.6,1.4c0,0,0.9,5.3,4.5,5.3s5.4-0.3,6.2-0.9c0,0,1.8,14.9-2.5,18.2h0.1h0.1
	c1.8-0.1,3.5-0.6,5.1-1.6C25.6,45.4,24.8,38.5,24.9,37.4z"/>
<path style="fill:#367542;" d="M23.3,25.3c0.3,1.4,0.4,2.8,0.3,4.3c-0.1,1.8,0.2,3.7,0.7,5.4c0.1,0.1,0.4,0.1,0.4,0.2
	c-0.2-3.4-0.7-9.4-0.9-11C23.4,24.2,23.2,24.7,23.3,25.3z"/>
<ellipse style="fill:#5B9F56;" cx="10.4" cy="19.2" rx="0.7" ry="0.6"/>
<circle style="fill:#5B9F56;" cx="10.9" cy="14.5" r="0.6"/>
<circle style="fill:#5B9F56;" cx="13.3" cy="7.4" r="0.7"/>
<ellipse transform="matrix(0.7071 -0.7071 0.7071 0.7071 -25.0731 19.4511)" style="fill:#5B9F56;" cx="10.9" cy="40" rx="0.7" ry="0.6"/>
<circle style="fill:#5B9F56;" cx="12" cy="44" r="0.6"/>
<path style="fill:#5B9F56;" d="M15.9,5.4c0,0-1.9,0-3.3,3.7c-1.1,2.6-1.8,5.3-2.2,8.1c-0.2,2.3-0.3,4.8-0.3,5s0.1,1.9,0.6,1.8
	c-0.1-1.3,0.1-2.7,0.7-3.9c0.7-1.5,2.1-2.6,3.8-3c1-0.1,2-0.1,3,0.2c0.2,0.1,1.1-0.6,0.7-0.9c-0.4-0.2-0.7-0.3-1.1-0.4
	c-0.5-0.1-0.1-1.3-0.1-1.8S17.6,5.6,15.9,5.4z"/>
<ellipse style="fill:#FFFFFF;" cx="13.5" cy="23.6" rx="2.8" ry="4.9"/>
<path style="fill:#67B06B;" d="M10.6,20.1c0,0.2-0.3,1.5,0,1.6c0.1-0.3,0.9-3.6,2.8-4.5c0.9-0.5,1.9-0.8,3-0.8
	c0.3,0,0.7-0.5,0.2-0.6c-1.6-0.3-3.3,0.2-4.4,1.4C10.6,19.1,10.6,20.1,10.6,20.1z"/>
<path style="fill:#5B9F56;" d="M15.9,8.1c0-0.3-0.2-1-0.7-0.7c-0.9,0.5-1.5,1.4-1.7,2.4c-0.4,1.9-0.7,3.8-0.8,5.7
	c0.1,0.3,0.8-0.1,1.3-0.4c0.5-0.2,1-0.4,1.5-0.5c0.4-0.1,0.2-0.6,0.3-0.9S15.9,8.1,15.9,8.1z"/>
<path style="fill:#4A804E;" d="M22.4,20.3c0.1,0.3,0.3,0.2,0.2-0.2S22,17,19.3,16.2c-0.8-0.3-1.7-0.6-1.7-0.3c0.6,0.4,1.2,0.7,1.9,1
	C21,17.4,22.2,18.7,22.4,20.3z"/>
<path style="fill:#2F6A3B;" d="M22.6,21.5c0,0,0.5-0.5,0-1.9c-0.2-0.8-0.6-1.5-1.2-2c0,0,1.5,2.3,1.1,2.9l-0.2,0.3L22.6,21.5z"/>
<path style="fill:#2F6A3B;" d="M22.7,25.2c0,0,0.7,0.3,0.1,0.6c-0.1,0.4-0.3,2.1-1.7,2.5c0.9-0.6,1.4-1.6,1.6-2.6
	C22.8,25.7,23,25.5,22.7,25.2C22.6,25.3,22.6,25.3,22.7,25.2z"/>
<path style="fill:#2F6A3B;" d="M16.2,24.8c0,0,0.5,0.3,0.2,0.7c-0.1,0.4-0.6,2.9-2.2,3.3c1.2-0.7,1.9-2,2.1-3.4
	c0.1,0,0.2-0.4-0.1-0.4L16.2,24.8z"/>
<path style="fill:#68B25F;" d="M17.7,25.8c0.5-0.2,1-0.2,1.5-0.1c0.3,0.2,0.8,1,0.6,1.3s-0.8,1.1-1.2,0.7S17.5,26.5,17.7,25.8z"/>
<path style="fill:#68B25F;" d="M11.6,26.5c0.2-0.2,0.5-0.4,0.8-0.5c0.3,0,0.5,0.1,0.8,0.3c0.2,0.3,0.4,0.7,0.4,1.1
	c-0.1,0.2-0.3,0.4-0.5,0.5c-0.3,0.1-0.6,0.1-0.8-0.1C12,27.5,11.3,26.9,11.6,26.5z"/>
<path style="fill:#2F6A3B;" d="M17.9,6.1c-0.3,0,0.9,1.3,0.9,1.8s2.1,2,2.4,4.7c0.3,1.7,0,2.9,0.5,2.9s0.8-3-1-5.8
	C19.5,7.8,18.7,6.1,17.9,6.1z"/>
<path style="fill:#4A804E;" d="M22.1,28.6c0,0-0.6,1.5-3.5,2c-0.6,0.1-1.5,0.3-1.5,0.3l0.4,0.7c1.4,1.7,2,3.8,1.9,6
	c-0.3,3.6-0.6,8.8-1.4,9.3c-0.6,0.4-1.4,0.5-2.1,0.5c-0.3,0-0.3,0.7,1.1,0.7s2.3,0.5,3.5-1.1S23.5,35.8,22.1,28.6z"/>
<path style="fill:#2F6A3B;" d="M23.3,37c0.1-0.7,0.9-0.8,1.1-0.4s-0.2,8.2-1.1,9s-0.8,0-0.5-1.1S23.2,37.7,23.3,37z"/>
<path style="fill:#BDBEBE;" d="M10.7,23.6c0,0,0.8-3.5,2-3.8s2.3-0.5,3.7,2.8c-0.2-1.4-0.9-4.2-3.1-3.8
	C11.6,19.1,10.7,21.5,10.7,23.6z"/>
<path style="fill:#BDBEBE;" d="M17.2,22.8c0,0,0.4-4.7,3.3-4.1c1.8,0.6,2.3,3,2.3,4.3c-0.1-0.9-1.6-3.3-2.5-3.4S18.1,19.2,17.2,22.8
	z"/>
<path style="fill:#BDBEBE;" d="M17.3,25v-0.3c1.8-0.4,3.7-0.2,5.5,0.5c0,0.1,0,0.2-0.1,0.3C20.9,24.9,19.1,24.7,17.3,25z"/>
<path style="fill:#BDBEBE;" d="M11,25.9l-0.1-0.4c0,0,1.4-0.9,5.4-0.8c0,0.2,0,0.4,0,0.4C14.5,24.8,12.6,25.1,11,25.9z"/>
<circle style="fill:#4A804E;" cx="13.3" cy="24" r="1.3"/>
<circle cx="13.3" cy="24" r="1.1"/>
<circle style="fill:#FFFFFF;" cx="12.4" cy="23.5" r="0.5"/>
<circle style="fill:#FFFFFF;" cx="12.9" cy="24.1" r="0.2"/>
<circle style="fill:#4A804E;" cx="19.7" cy="23.9" r="1.3"/>
<circle cx="19.7" cy="23.9" r="1.1"/>
<circle style="fill:#FFFFFF;" cx="18.9" cy="23.5" r="0.5"/>
<circle style="fill:#FFFFFF;" cx="19.4" cy="24.1" r="0.2"/>
<path style="fill:#68B25F;" d="M16.3,24.9c-1.9-0.3-3.8,0-5.5,0.8c-0.1,0-0.2,0.2-0.1,0.3c0,0.1,0.1,0.1,0.1,0.1
	c0.1,0.3,0.8,3.1,3.2,2.5c0.9-0.3,1.9-1.8,2.2-3.4C16.5,25.3,16.4,25,16.3,24.9z"/>
<path style="fill:#68B25F;" d="M17.2,24.9c-0.1,0.1-0.2,0.3-0.1,0.4c0.2,0.1,0.3,3.2,2.8,3.5c1.1,0,2.2-0.9,2.7-2.9
	c0.3-0.1,0.2-0.3,0-0.4C20.9,24.8,19,24.6,17.2,24.9z"/>
<path style="fill:#7CBA7B;" d="M17.4,24.9c-0.2,0-0.1,0.3,0,0.3c0.7-0.1,1.3-0.1,2-0.1c0.2,0,0.3-0.3,0.1-0.3
	C18.8,24.8,18.1,24.8,17.4,24.9z"/>
<path style="fill:#7CBA7B;" d="M11.1,25.8c-0.1,0.1-0.2,0.3,0,0.3c0.8-0.3,1.6-0.5,2.4-0.7c0.1-0.1,0.1-0.3-0.1-0.3
	C12.6,25.2,11.9,25.5,11.1,25.8L11.1,25.8z"/>
<path style="fill:#4A804E;" d="M14.7,25.2c0,0,1.1,1.4-0.6,3.5c1.1-0.4,2-1.9,2.2-3.4C15.8,25.2,15.2,25.1,14.7,25.2z"/>
<path style="fill:#4A804E;" d="M21.4,25.5c0,0-0.1,3.2-1.8,3.2c0.9,0.1,2.3,0.3,3-2.9C22.2,25.7,21.8,25.6,21.4,25.5z"/>
<path style="fill:#7CBA7B;" d="M11.3,26.2c0,0,0.4,1.7,1.3,1.9c0.5,0.2,0.5-0.2,0.5-0.2s-0.4-1.8-0.5-2
	C12.1,25.9,11.7,26.1,11.3,26.2z"/>
<path style="fill:#7CBA7B;" d="M17.6,25.6c0,0,0.1,1.8,0.8,2.1c0.5,0.3,0.5-0.1,0.5-0.1s0-1.9-0.1-2.1C18.5,25.5,18,25.5,17.6,25.6z
	"/>
<path style="fill:#4A804E;" d="M15.9,5.4V3c0,0,0.1-0.5,0.5-0.5c0.4,0,0.3,3.1,0.3,3.1L15.9,5.4z"/>
<path style="fill:#5B9F56;" d="M11.5,29.9c-0.2,0.4-0.4,0.9-0.5,1.3c0.1,1.2,1.1,4.6-0.7,6c0.8,4.1,1,10,5.6,10.5
	c1.1,0,1.7-1.4,1.7-2.7c-0.1-2.2-0.3-4.5-0.6-6.7c-1-0.4-1.6-1.3-1.5-2.3c-0.1-1.8-0.1-4.6,0.5-4.8C14.9,31.2,13.1,31.6,11.5,29.9z"
	/>
<path style="fill:#5B9F56;" d="M17.6,31.5c0,0,1,0.4,1.1,1.1c0.1,0.7,1,4.7-0.9,5.1c0.5-1,0.8-2.1,0.7-3.2
	C18.4,33.5,18.1,31.8,17.6,31.5z"/>
<path style="fill:#5B9F56;" d="M13.6,32c0,0-1.2-0.4-1.4,1.5c-0.2,1.8,0.3,11.8,1.9,12.1s2.1-0.4,2.1-0.9s-0.4-5.6-0.4-6.1
	s-1-1.4-1-1.9S15,32.3,13.6,32z"/>
<path style="fill:#67B06B;" d="M16.3,31.2c0,0-0.9-0.2-1.1,1.8s0.1,3.9,0.4,4s0-0.2,0-0.6s-0.5-2.8,0.2-4.5
	C16.3,31.6,16.7,31,16.3,31.2z"/>
<circle style="fill:#67B06B;" cx="11.9" cy="15.8" r="0.4"/>
<circle style="fill:#67B06B;" cx="11.9" cy="41.1" r="0.4"/>
<circle style="fill:#67B06B;" cx="16.8" cy="46.3" r="0.5"/>
<circle style="fill:#5B9F56;" cx="21.5" cy="32" r="0.5"/>
<circle style="fill:#5B9F56;" cx="21.6" cy="38.5" r="0.6"/>
<circle style="fill:#5B9F56;" cx="20.4" cy="40.1" r="0.4"/>
<circle style="fill:#5B9F56;" cx="19.3" cy="15.1" r="0.4"/>
<circle style="fill:#67B06B;" cx="15.6" cy="6.5" r="0.4"/>
<circle style="fill:#67B06B;" cx="17.1" cy="8.8" r="0.6"/>
<path style="fill:#2F6A3B;" d="M16.8,31.5c0,0-1.3,2.1-0.1,5.7c0.6,0.5,0.8,1.1,1.4,0c-0.6-0.4-2-1.8-1-5.8
	C17,31.6,16.8,31.5,16.8,31.5z"/>
<path style="fill:#2F6A3B;" d="M24.6,26.1c0.3-0.3-0.3-1.6-1-1.6c-0.5,0.3-0.2,0.8-0.3,2.3c0.1,1.8,0,3.9,0.1,4.2
	c0.4,1.1,0.9,2.2,1.6,3.3c0-0.2-0.1-0.3-0.2-0.6s-1.3-2.2-1.2-4c0.1-2.2-0.4-4.7-0.1-4.9s0.4,0.5,0.6,0.6S24.4,26.2,24.6,26.1z"/>
<path style="fill:#2F6A3B;" d="M25.6,25.5c0.5,1,0.7,2.1,0.7,3.2c0,0.5-0.4-0.4-0.4-0.5S25.6,25.5,25.6,25.5z"/>
<path style="fill:#2F6A3B;" d="M24.6,24.3c-0.3-0.1,0.5,1.5,0.5,1.6s0.3,1.1,0.2,0.7S25.2,24.4,24.6,24.3z"/>
<path style="fill:#2F6A3B;" d="M23.5,31.7c0,0,0.2,3.4,1.3,3.5c-0.1-0.2-0.3-0.4-0.4-0.6S23.8,32,23.8,32L23.5,31.7z"/>
<path style="fill:#2F6A3B;" d="M15.7,37c0.2,1,1.2,1.6,2.2,1.4c0,0,0.1,0,0.1,0c0.2,0.1,0.3,0.4,0,0.5S15.8,38.5,15.7,37z"/>
<path style="fill:#2F6A3B;" d="M10.5,30.7c0,0,1.6-3.8-0.3-6.2c-0.5,0-1.1,1.4-0.9,2.1c0.2,0.4,0.3-0.4,0.3-0.6s0.3-1.5,0.5-1.2
	c0.5,0.9,0.8,2,0.8,3.1C10.7,28.8,10.2,30.5,10.5,30.7z"/>
<path style="fill:#2F6A3B;" d="M10.6,31.6c0,0,0.1-0.1,0.3,0.1c0.2,0.3,0.2,3.9-0.8,4.6c0-0.1,0-0.3-0.1-0.4
	C10.8,34.6,11,33.1,10.6,31.6z"/>
<path style="fill:#2F6A3B;" d="M8.8,24.8c-0.1,0.5-0.2,1.1-0.1,1.6C8.5,25.9,8.6,25.3,8.8,24.8z"/>
<path style="fill:#5B9F56;" d="M16.4,53.5l0-5.2c0,0,1.4,0.3,1.5,1.5s0,3.9,0,3.9l3.7,2.3c0,0,1.1,0.5-0.3,0.6s-10.4,0.1-10.4,0.1
	l5.1-3.3L16.4,53.5z"/>
<path style="fill:#7CBA7B;" d="M17.2,53.3l-0.1-2.5c0,0-0.4-0.8-0.7,0.2c0,1.4,0,2.4,0,2.4l-3.5,2.6c0,0-0.4,0.4,0.5,0.4s7,0,7.5,0
	s0.1-0.3-0.4-0.4S14.9,56,14.7,56s-0.5-0.3,0-0.6s2.1-1.4,2.1-1.4C17,53.9,17.2,53.6,17.2,53.3z"/>
</svg>
