<svg id="Space" xmlns="http://www.w3.org/2000/svg" viewBox="0 0 234.14 188.2">

  <g id="Sun">
    <g id="Sun-2" data-name="Sun">
      <path style="fill:#f9a040;" d="M96 39.3s6.77-14.36 3.47-24.94l15.29 19.44S128.29 22 128.29 17l1.76 18s9.7-9.19 22.34-11.17A158.53 158.53 0 0 0 150 42.62l22.71-10.36-6.25 22.42 22.34-3.45-18.8 15.5 27.64 6.76L177.09 88l16.19 14.24-17.36 3.84s10.29 22 10.29 27.93c0 0-21.9-4.56-24.55-7.2 2.06 6.91 7 25.72 7 25.72l-18.93-11.17-9.7 14.7-15.88-12.72-10.29 18.89-13.67-19.77-19 12.42 3-24.44-25.62 4.45 11.17-18.52-26.12-4.07 18.81-16.46-23.81-7 25.87-12.7s-13.52-10-15.58-20c6.47 3.23 27.34-3.53 27.34-3.53s-7.09-18.11-2.57-26.67C81.72 31.53 96 39.3 96 39.3z"/>
      <circle style="fill:#fee03e;" cx="119.23" cy="88.75" r="49.45"/>
      <path style="fill:#010101;opacity:0.1;" d="M150 50.06a49.45 49.45 0 0 1-75.42 60 49.45 49.45 0 1 0 75.42-60z"/>
    </g>
    <path style="fill:#fff;" d="M49.56 156.52a6.68 6.68 0 0 1-6.72 6.63 6.68 6.68 0 0 1 6.63 6.72 6.68 6.68 0 0 1 6.72-6.63 6.68 6.68 0 0 1-6.63-6.72zm149.99-41.33a6.68 6.68 0 0 1-6.72 6.63 6.68 6.68 0 0 1 6.63 6.72 6.68 6.68 0 0 1 6.72-6.63 6.68 6.68 0 0 1-6.63-6.72zM152 7.68a6.68 6.68 0 0 1-6.72 6.63 6.68 6.68 0 0 1 6.63 6.69 6.68 6.68 0 0 1 6.72-6.63A6.68 6.68 0 0 1 152 7.68z" id="Star"/>
  </g>
</svg>
