<svg id="Слой_1" data-name="Слой 1" xmlns="http://www.w3.org/2000/svg" viewBox="0 0 90 90">

  <path style="fill:#23599a;opacity:0.2;" d="M82.76 45.12A37.88 37.88 0 1 1 44.88 7.24a37.88 37.88 0 0 1 37.88 37.88zm0 0"/>
  <path  style="fill:#2e76a3;" d="M76 45.12A31.12 31.12 0 1 1 44.88 14 31.12 31.12 0 0 1 76 45.12zm0 0"/>
  <path style="fill:#fff;fill-rule:evenodd;" d="M58.87 49.62a55.3 55.3 0 0 1 4 4 11.6 11.6 0 0 1 1.43 2.06c.55 1.06.05 2.23-.9 2.3h-5.95a4.57 4.57 0 0 1-3.77-1.53c-.82-.84-1.58-1.72-2.37-2.59a5.6 5.6 0 0 0-1.07-.95 1.24 1.24 0 0 0-2 .48 6.23 6.23 0 0 0-.62 2.76c-.06 1.39-.48 1.76-1.89 1.82a15.14 15.14 0 0 1-8.47-1.82 18.73 18.73 0 0 1-5.7-5.34 71.88 71.88 0 0 1-7.5-13.37c-.47-1.05-.13-1.62 1-1.64h5.8a1.7 1.7 0 0 1 1.68 1.2 36 36 0 0 0 3.93 7.28 6.21 6.21 0 0 0 1.48 1.63.9.9 0 0 0 1.53-.45 5.06 5.06 0 0 0 .34-1.53 22.79 22.79 0 0 0-.1-5.35 2.23 2.23 0 0 0-1.9-2c-.57-.11-.48-.32-.21-.64a2.13 2.13 0 0 1 1.82-.9h6.69c1.05.21 1.29.68 1.43 1.74v7.43c0 .41.2 1.63.94 1.9s1-.28 1.34-.66a23.06 23.06 0 0 0 3.77-5.79c.45-.92.84-1.87 1.22-2.81a1.43 1.43 0 0 1 1.51-1h6.44a3.37 3.37 0 0 1 .57 0c1.09.19 1.38.65 1 1.71a16.08 16.08 0 0 1-2.5 4.44c-1.07 1.49-2.22 2.92-3.29 4.42s-.9 2.05.31 3.24zm0 0"/>
</svg>
