<?xml version="1.0" encoding="utf-8"?>
<!-- Generator: Adobe Illustrator 22.0.0, SVG Export Plug-In . SVG Version: 6.00 Build 0)  -->
<svg version="1.1" id="Space" xmlns="http://www.w3.org/2000/svg" xmlns:xlink="http://www.w3.org/1999/xlink" x="0px" y="0px"
	 viewBox="0 0 173 86.2" style="enable-background:new 0 0 173 86.2;" xml:space="preserve">
<title>Созвездие</title>
<g id="Constellations">
	<g id="Constellations-2">
		<path style="fill:#FFFFFF;" d="M168.6,44.6l-42,37.1L87.8,58l0.5-0.8l-28.9,0.4l-30.8,0.9l-21.4,22l-3-3l22.5-23.1l32.5-0.9L88,53
			l52-50.7L168.6,44.6z M126.1,76.5L163,43.9l-23.7-35L91.6,55.4L126.1,76.5z"/>
		<polygon style="fill:#FF886E;" points="8.9,73.2 5.4,76 1.1,74.6 2.6,78.8 0,82.4 4.5,82.3 7.1,85.9 8.4,81.7 12.6,80.3 9,77.7 		
			"/>
		<polygon style="fill:#FFBD66;" points="30.9,50.6 27.4,53.4 23.1,52 24.6,56.2 22,59.8 26.4,59.7 29.1,63.3 30.4,59 34.6,57.7 
			30.9,55.1 		"/>
		<polygon style="fill:#FF5B74;" points="62.4,49.3 58.8,52 54.6,50.7 56.1,54.9 53.5,58.5 57.9,58.4 60.6,62 61.8,57.7 66.1,56.3 
			62.4,53.8 		"/>
		<polygon style="fill:#FFBD66;" points="92.3,49.5 88.8,52.3 84.5,50.9 86,55.1 83.4,58.7 87.8,58.6 90.5,62.3 91.8,58 96,56.5 
			92.3,54 		"/>
		<polygon style="fill:#FF886E;" points="143.1,0 139.5,2.7 135.3,1.4 136.8,5.6 134.1,9.2 138.6,9.1 141.3,12.7 142.5,8.4 146.8,7 
			143.1,4.5 		"/>
		<polygon style="fill:#FF5B74;" points="169.3,38.6 165.7,41.4 161.4,40 162.9,44.2 160.3,47.8 164.8,47.7 167.4,51.3 168.7,47 
			173,45.7 169.3,43.1 		"/>
		<polygon style="fill:#FFBD66;" points="129.8,73.5 126.2,76.2 122,74.8 123.5,79.1 120.8,82.7 125.3,82.6 127.9,86.2 129.2,81.9 
			133.5,80.5 129.8,78 		"/>
	</g>
</g>
</svg>
